<svg width="60" height="116" viewBox="0 0 60 116" fill="none" xmlns="http://www.w3.org/2000/svg">
<g clip-path="url(#clip0_301_773)">
<path d="M29.2001 84.5C26.0701 84.5 22.8301 80.93 20.5501 77.75C20.0901 77.1 19.9301 76.29 20.1101 75.53C20.3001 74.74 20.8301 74.06 21.5601 73.67C23.5501 72.62 24.5301 70.41 24.3801 67.3C24.2701 64.92 22.8601 61.77 21.3601 58.43C18.3101 51.62 14.8501 43.9 20.6201 38.84C24.8801 35.1 28.6501 34.94 31.0701 35.46C35.3201 36.38 38.2501 39.82 39.4701 42.5L39.5201 42.64C39.6401 43.06 42.3701 52.96 41.1701 63.68C39.9901 74.2 35.4101 82.89 30.2701 84.35C29.9101 84.46 29.5601 84.5 29.2001 84.5ZM28.9901 37.24C26.6601 37.24 24.3001 38.28 21.9401 40.35C17.2801 44.43 20.2801 51.13 23.1801 57.62C24.7601 61.14 26.2401 64.46 26.3701 67.22C26.6201 72.46 24.0401 74.63 22.4801 75.45C22.2601 75.57 22.1001 75.77 22.0401 76C22.0001 76.15 22.0001 76.37 22.1601 76.6C25.1301 80.76 27.9501 82.94 29.7101 82.44C33.4401 81.38 37.9901 74 39.1701 63.47C40.2701 53.61 37.8501 44.18 37.6001 43.26C36.4801 40.85 33.9001 38.12 30.6301 37.42C30.1001 37.3 29.5501 37.24 28.9901 37.24Z" fill="#FF9166"/>
<path fill-rule="evenodd" clip-rule="evenodd" d="M59.01 111.23H13.73V74.12H56.11L57.84 96.25L59.01 111.23Z" fill="#FF9166"/>
<path fill-rule="evenodd" clip-rule="evenodd" d="M59.01 111.23H13.73V96.25H57.84L57.98 98.07L58.22 101.07L59.01 111.23Z" fill="#E36956"/>
<path fill-rule="evenodd" clip-rule="evenodd" d="M13.7299 74.12V111.23H0.109863L4.19986 74.12L5.36986 74.14L5.35986 74.98C5.35986 75.36 5.65986 75.67 6.03986 75.67H7.11986C7.54986 75.67 7.88986 75.32 7.88986 74.9C7.88986 74.47 8.23986 74.13 8.65986 74.13H9.02986C9.45986 74.13 9.79986 74.48 9.79986 74.9V75.16C9.79986 75.88 10.3799 76.46 11.0999 76.46H11.5799C12.0099 76.46 12.3499 76.11 12.3499 75.69L12.3899 74.66C12.3899 74.39 12.5799 74.16 12.8499 74.12H13.7299Z" fill="#A3524A"/>
<path fill-rule="evenodd" clip-rule="evenodd" d="M54.5799 115.66H4.53986C2.09986 115.66 0.109863 113.68 0.109863 111.23H59.0099C59.0099 113.67 57.0299 115.66 54.5799 115.66Z" fill="#A3524A"/>
<path d="M5.98975 106.53H5.97975C5.56975 106.52 5.23975 106.18 5.23975 105.77L5.70975 80.22C5.71975 79.81 6.04975 79.49 6.46975 79.48C6.87975 79.49 7.20975 79.83 7.20975 80.24L6.73975 105.79C6.72975 106.21 6.38975 106.53 5.98975 106.53Z" fill="#FF9166"/>
<path d="M58.2199 101.07H26.8799C26.0499 101.07 25.3799 100.4 25.3799 99.5699C25.3799 98.7399 26.0499 98.0699 26.8799 98.0699H57.9799L58.2199 101.07Z" fill="#FF9166"/>
<path d="M50.3701 106.9H37.3501C36.5201 106.9 35.8501 106.23 35.8501 105.4C35.8501 104.57 36.5201 103.9 37.3501 103.9H50.3701C51.2001 103.9 51.8701 104.57 51.8701 105.4C51.8701 106.23 51.2001 106.9 50.3701 106.9Z" fill="#FF9166"/>
<path d="M27.55 81.9599L27.15 73.7299C27.12 73.1799 26.63 72.7499 26.1 72.7799C25.55 72.8099 25.12 73.2799 25.15 73.8299L25.55 82.0699C23.79 82.5899 22.5 84.1999 22.5 86.1199C22.5 88.4599 24.4 90.3599 26.74 90.3599C29.08 90.3599 30.98 88.4599 30.98 86.1199C31 84.0599 29.51 82.3399 27.55 81.9599ZM26.75 89.3699C24.96 89.3699 23.51 87.9099 23.51 86.1299C23.51 84.7499 24.38 83.5699 25.61 83.1099L25.76 86.1799C25.79 86.7199 26.23 87.1299 26.76 87.1299C26.78 87.1299 26.79 87.1299 26.81 87.1299C27.36 87.0999 27.79 86.6299 27.76 86.0799L27.61 83.0099C28.98 83.3899 30 84.6299 30 86.1299C30 87.9099 28.54 89.3699 26.75 89.3699Z" fill="#964253"/>
<path d="M47.3301 81.95L46.5501 73.18C46.5001 72.63 46.0301 72.23 45.4701 72.27C44.9201 72.32 44.5101 72.8 44.5601 73.35L45.3301 82.09C43.6201 82.64 42.3701 84.22 42.3701 86.11C42.3701 88.45 44.2701 90.35 46.6101 90.35C48.9501 90.35 50.8501 88.45 50.8501 86.11C50.8701 84.03 49.3401 82.29 47.3301 81.95ZM46.6201 89.37C44.8301 89.37 43.3801 87.91 43.3801 86.13C43.3801 84.76 44.2301 83.6 45.4301 83.12L45.6301 85.37C45.6801 85.89 46.1101 86.28 46.6301 86.28C46.6601 86.28 46.6901 86.28 46.7201 86.28C47.2701 86.23 47.6801 85.75 47.6301 85.2L47.4401 83.01C48.8401 83.37 49.8801 84.63 49.8801 86.14C49.8701 87.91 48.4101 89.37 46.6201 89.37Z" fill="#964253"/>
<path d="M26.3901 74.82L25.8301 72.9C26.0001 72.85 43.1001 67.26 43.6401 29.8L43.2101 0.369966L45.2101 0.339966L45.6301 29.79C45.0701 68.92 27.1501 74.59 26.3901 74.82Z" fill="#964253"/>
</g>
<defs>
<clipPath id="clip0_301_773">
<rect width="58.9" height="115.32" fill="white" transform="translate(0.109863 0.339966)"/>
</clipPath>
</defs>
</svg>
