<svg width="66" height="128" viewBox="0 0 66 128" fill="none" xmlns="http://www.w3.org/2000/svg">
<g clip-path="url(#clip0_301_748)">
<path d="M18.53 96L15.71 94.95L26.47 65.84L26.43 71.62L18.53 96Z" fill="#73275C"/>
<path d="M34.7299 96.68L31.8599 95.8L62.7499 0.47998H65.8999L34.7299 96.68Z" fill="#73275C"/>
<path d="M27.1501 122.92V115.66C27.1501 113.86 25.2001 112.74 23.4601 113.45C23.4501 113.46 23.4301 113.46 23.4201 113.47L14.1001 116.76C12.7401 117.25 11.2201 117.16 9.94014 116.51C9.94014 116.51 2.32014 112.75 2.14014 112.63V122.01C2.14014 125.05 4.74014 127.51 7.95014 127.51H22.3001C24.9801 127.52 27.1501 125.46 27.1501 122.92Z" fill="#FF6B97"/>
<path d="M38.9101 96.88L35.8501 94.65H7.68014C4.62014 94.65 2.14014 97.12 2.14014 100.15V112.63C2.30014 112.74 8.67014 115.88 9.77014 116.43L8.88014 119.56C8.66014 120.34 9.15014 121.13 9.97014 121.34C10.7901 121.55 11.6301 121.09 11.8501 120.31L12.7801 117.03C13.2301 116.99 13.6701 116.9 14.1001 116.75L23.4201 113.46C23.4301 113.45 23.4501 113.45 23.4601 113.44C25.2001 112.73 27.1501 113.85 27.1501 115.65V122.91C27.1501 125.45 24.9801 127.5 22.3001 127.5H30.3101C33.3701 127.5 35.8501 125.04 35.8501 122V98.32L37.0301 99.18C37.7001 99.67 38.6701 99.55 39.1901 98.92C39.7001 98.28 39.5801 97.37 38.9101 96.88Z" fill="#73275C"/>
<path d="M2.92995 96.63L0.179948 106.02C-0.460052 108.19 0.589948 110.49 2.69995 111.55L9.11995 114.76C10.4099 115.4 11.9199 115.49 13.2799 115.01L23.4099 111.38C24.8599 110.86 25.9799 109.75 26.4499 108.35L31.0799 94.64H5.68995C4.40995 94.65 3.27995 95.46 2.92995 96.63Z" fill="#FF6B97"/>
</g>
<defs>
<clipPath id="clip0_301_748">
<rect width="65.9" height="127.04" fill="white" transform="translate(0 0.47998)"/>
</clipPath>
</defs>
</svg>
