<svg width="64" height="112" viewBox="0 0 64 112" fill="none" xmlns="http://www.w3.org/2000/svg">
<g clip-path="url(#clip0_301_5459)">
<path d="M18.53 79.5751L15.71 78.5251L24.78 58.7151L24.74 64.4951L18.53 79.5751Z" fill="#73275C"/>
<path d="M34.7299 80.255L31.8599 79.375L59.9799 0.905029H63.1399L34.7299 80.255Z" fill="#73275C"/>
<path d="M27.1501 106.495V99.235C27.1501 97.435 25.2001 96.315 23.4601 97.025C23.4501 97.035 23.4301 97.035 23.4201 97.045L14.1001 100.335C12.7401 100.825 11.2201 100.735 9.94014 100.085C9.94014 100.085 2.32014 96.325 2.14014 96.205V105.585C2.14014 108.625 4.74014 111.085 7.95014 111.085H22.3001C24.9801 111.095 27.1501 109.035 27.1501 106.495Z" fill="#FF6B97"/>
<path d="M38.9101 80.455L35.8501 78.225H7.68014C4.62014 78.225 2.14014 80.695 2.14014 83.725V96.205C2.30014 96.315 8.67014 99.455 9.77014 100.005L8.88014 103.135C8.66014 103.915 9.15014 104.705 9.97014 104.915C10.7901 105.125 11.6301 104.665 11.8501 103.885L12.7801 100.605C13.2301 100.565 13.6701 100.475 14.1001 100.325L23.4201 97.035C23.4301 97.025 23.4501 97.025 23.4601 97.015C25.2001 96.305 27.1501 97.425 27.1501 99.225V106.485C27.1501 109.025 24.9801 111.075 22.3001 111.075H30.3101C33.3701 111.075 35.8501 108.615 35.8501 105.575V81.895L37.0301 82.755C37.7001 83.245 38.6701 83.125 39.1901 82.495C39.7001 81.855 39.5801 80.945 38.9101 80.455Z" fill="#73275C"/>
<path d="M2.92995 80.205L0.179948 89.605C-0.460052 91.775 0.589948 94.075 2.69995 95.135L9.11995 98.345C10.4099 98.985 11.9199 99.075 13.2799 98.595L23.4099 94.965C24.8599 94.445 25.9799 93.335 26.4499 91.935L31.0799 78.225H5.68995C4.40995 78.225 3.27995 79.035 2.92995 80.205Z" fill="#FF6B97"/>
</g>
<defs>
<clipPath id="clip0_301_5459">
<rect width="63.14" height="110.19" fill="white" transform="translate(0 0.905029)"/>
</clipPath>
</defs>
</svg>
