<svg width="78" height="120" viewBox="0 0 78 120" fill="none" xmlns="http://www.w3.org/2000/svg">
<g clip-path="url(#clip0_301_8198)">
<path d="M18.53 87.6499L15.71 86.5999L20.85 70.8999L20.8 76.6699L18.53 87.6499Z" fill="#73275C"/>
<path d="M34.7299 88.33L31.8599 87.46L74.1399 0.829956H77.2899L34.7299 88.33Z" fill="#73275C"/>
<path d="M27.1501 114.57V107.31C27.1501 105.51 25.2001 104.39 23.4601 105.1C23.4501 105.11 23.4301 105.11 23.4201 105.12L14.1001 108.41C12.7401 108.9 11.2201 108.81 9.94014 108.16C9.94014 108.16 2.32014 104.4 2.14014 104.28V113.66C2.14014 116.7 4.74014 119.16 7.95014 119.16H22.3001C24.9801 119.17 27.1501 117.11 27.1501 114.57Z" fill="#FF6B97"/>
<path d="M38.9101 88.5299L35.8501 86.2999H7.68014C4.62014 86.2999 2.14014 88.7699 2.14014 91.7999V104.28C2.30014 104.39 8.67014 107.53 9.77014 108.08L8.88014 111.21C8.66014 111.99 9.15014 112.78 9.97014 112.99C10.7901 113.2 11.6301 112.74 11.8501 111.96L12.7801 108.68C13.2301 108.64 13.6701 108.55 14.1001 108.4L23.4201 105.11C23.4301 105.1 23.4501 105.1 23.4601 105.09C25.2001 104.38 27.1501 105.5 27.1501 107.3V114.56C27.1501 117.1 24.9801 119.15 22.3001 119.15H30.3101C33.3701 119.15 35.8501 116.69 35.8501 113.65V89.9699L37.0301 90.8299C37.7001 91.3199 38.6701 91.1999 39.1901 90.5699C39.7001 89.9299 39.5801 89.0199 38.9101 88.5299Z" fill="#73275C"/>
<path d="M2.92995 88.2799L0.179948 97.6699C-0.460052 99.8399 0.589948 102.14 2.69995 103.2L9.11995 106.41C10.4099 107.05 11.9199 107.14 13.2799 106.66L23.4099 103.03C24.8599 102.51 25.9799 101.4 26.4499 99.9999L31.0799 86.2899H5.68995C4.40995 86.2999 3.27995 87.1099 2.92995 88.2799Z" fill="#FF6B97"/>
</g>
<defs>
<clipPath id="clip0_301_8198">
<rect width="77.29" height="118.34" fill="white" transform="translate(0 0.829956)"/>
</clipPath>
</defs>
</svg>
