<svg width="21" height="78" viewBox="0 0 21 78" fill="none" xmlns="http://www.w3.org/2000/svg">
<g clip-path="url(#clip0_301_11384)">
<path d="M3.00993 77.425C2.37993 77.425 1.73993 77.175 1.26993 76.685C0.339931 75.725 0.359931 74.185 1.31993 73.245C1.42993 73.135 7.83993 66.785 10.4199 57.965C10.7999 56.675 12.1499 55.945 13.4299 56.315C14.7199 56.695 15.4599 58.045 15.0799 59.325C12.1299 69.455 4.99993 76.445 4.69993 76.735C4.22993 77.195 3.61993 77.425 3.00993 77.425Z" fill="#473B78"/>
<path d="M11.94 65.975C11.45 65.975 10.95 65.905 10.46 65.745C7.90001 64.925 6.49001 62.195 7.31001 59.635C12.48 43.445 11 6.01499 10.99 5.63499C10.88 2.95499 12.96 0.694988 15.64 0.574988C18.33 0.454988 20.59 2.54499 20.7 5.23499C20.77 6.84499 22.26 44.765 16.57 62.595C15.91 64.655 14 65.975 11.94 65.975Z" fill="#4DA6FF"/>
</g>
<defs>
<clipPath id="clip0_301_11384">
<rect width="20.34" height="76.85" fill="white" transform="translate(0.580078 0.574951)"/>
</clipPath>
</defs>
</svg>
