<svg width="59" height="112" viewBox="0 0 59 112" fill="none" xmlns="http://www.w3.org/2000/svg">
<g clip-path="url(#clip0_301_11318)">
<path d="M29.0902 80.09C25.9602 80.09 22.7202 76.52 20.4402 73.34C19.9802 72.69 19.8202 71.88 20.0002 71.12C20.1902 70.33 20.7202 69.65 21.4502 69.26C23.4402 68.21 24.4202 66 24.2702 62.89C24.1602 60.51 22.7502 57.3599 21.2502 54.0199C18.2002 47.2099 14.7402 39.49 20.5102 34.4299C24.7702 30.6899 28.5402 30.53 30.9602 31.05C35.2102 31.97 38.1402 35.41 39.3602 38.09L39.4102 38.23C39.5302 38.65 42.2602 48.5499 41.0602 59.2699C39.8802 69.7899 35.3002 78.48 30.1602 79.94C29.8002 80.04 29.4502 80.09 29.0902 80.09ZM28.8802 32.82C26.5502 32.82 24.1902 33.8599 21.8302 35.9299C17.1702 40.0099 20.1702 46.7099 23.0702 53.1999C24.6502 56.7199 26.1302 60.04 26.2602 62.8C26.5102 68.04 23.9302 70.2099 22.3702 71.0299C22.1502 71.1499 21.9902 71.35 21.9302 71.58C21.8902 71.73 21.8902 71.95 22.0502 72.18C25.0202 76.34 27.8402 78.52 29.6002 78.02C33.3302 76.96 37.8802 69.58 39.0602 59.05C40.1602 49.19 37.7402 39.76 37.4902 38.84C36.3702 36.43 33.7902 33.7 30.5202 33C29.9902 32.88 29.4402 32.82 28.8802 32.82Z" fill="#FF9166"/>
<path fill-rule="evenodd" clip-rule="evenodd" d="M58.9001 106.82H13.6201V69.71H56.0001L57.7301 91.84L58.9001 106.82Z" fill="#FF9166"/>
<path fill-rule="evenodd" clip-rule="evenodd" d="M58.9001 106.82H13.6201V91.84H57.7301L57.8701 93.66L58.1101 96.66L58.9001 106.82Z" fill="#E36956"/>
<path fill-rule="evenodd" clip-rule="evenodd" d="M13.62 69.7099V106.82H0L4.09 69.7099L5.26 69.7299L5.25 70.56C5.25 70.94 5.55 71.2499 5.93 71.2499H7.01C7.44 71.2499 7.78 70.8999 7.78 70.4799C7.78 70.0499 8.13 69.7099 8.55 69.7099H8.92C9.35 69.7099 9.69 70.0599 9.69 70.4799V70.74C9.69 71.46 10.27 72.0399 10.99 72.0399H11.47C11.9 72.0399 12.24 71.69 12.24 71.27L12.28 70.24C12.28 69.97 12.47 69.74 12.74 69.7H13.62V69.7099Z" fill="#A3524A"/>
<path fill-rule="evenodd" clip-rule="evenodd" d="M54.47 111.24H4.43C1.99 111.24 0 109.26 0 106.81H58.9C58.9 109.26 56.92 111.24 54.47 111.24Z" fill="#A3524A"/>
<path d="M5.87988 102.12H5.86988C5.45988 102.11 5.12988 101.77 5.12988 101.36L5.59988 75.81C5.60988 75.4 5.93988 75.0799 6.35988 75.0699C6.76988 75.0799 7.09988 75.4199 7.09988 75.8299L6.62988 101.38C6.61988 101.79 6.27988 102.12 5.87988 102.12Z" fill="#FF9166"/>
<path d="M58.11 96.6599H26.77C25.94 96.6599 25.27 95.9899 25.27 95.1599C25.27 94.3299 25.94 93.6599 26.77 93.6599H57.87L58.11 96.6599Z" fill="#FF9166"/>
<path d="M50.2602 102.48H37.2402C36.4102 102.48 35.7402 101.81 35.7402 100.98C35.7402 100.15 36.4102 99.48 37.2402 99.48H50.2602C51.0902 99.48 51.7602 100.15 51.7602 100.98C51.7602 101.81 51.0902 102.48 50.2602 102.48Z" fill="#FF9166"/>
<path d="M27.4401 77.5399L27.0401 69.3099C27.0101 68.7599 26.5201 68.3299 25.9901 68.3599C25.4401 68.3899 25.0101 68.8599 25.0401 69.4099L25.4401 77.6499C23.6801 78.1699 22.3901 79.7799 22.3901 81.6999C22.3901 84.0399 24.2901 85.9399 26.6301 85.9399C28.9701 85.9399 30.8701 84.0399 30.8701 81.6999C30.8901 79.6399 29.4001 77.9199 27.4401 77.5399ZM26.6401 84.9499C24.8501 84.9499 23.4001 83.4899 23.4001 81.7099C23.4001 80.3299 24.2701 79.1499 25.5001 78.6899L25.6501 81.7599C25.6801 82.2999 26.1201 82.7099 26.6501 82.7099C26.6701 82.7099 26.6801 82.7099 26.7001 82.7099C27.2501 82.6799 27.6801 82.2099 27.6501 81.6599L27.5001 78.5899C28.8701 78.9699 29.8901 80.2099 29.8901 81.7099C29.8901 83.4999 28.4301 84.9499 26.6401 84.9499Z" fill="#964253"/>
<path d="M47.2203 77.5299L46.4403 68.7599C46.3903 68.2099 45.9203 67.8099 45.3603 67.8499C44.8103 67.8999 44.4003 68.3799 44.4503 68.9299L45.2203 77.6699C43.5103 78.2199 42.2603 79.7999 42.2603 81.6899C42.2603 84.0299 44.1603 85.9299 46.5003 85.9299C48.8403 85.9299 50.7403 84.0299 50.7403 81.6899C50.7603 79.6099 49.2303 77.8699 47.2203 77.5299ZM46.5103 84.9499C44.7203 84.9499 43.2703 83.4899 43.2703 81.7099C43.2703 80.3399 44.1203 79.1799 45.3203 78.6999L45.5203 80.9499C45.5703 81.4699 46.0003 81.8599 46.5203 81.8599C46.5503 81.8599 46.5803 81.8599 46.6103 81.8599C47.1603 81.8099 47.5703 81.3299 47.5203 80.7799L47.3303 78.5899C48.7303 78.9499 49.7703 80.2099 49.7703 81.7199C49.7603 83.4999 48.3003 84.9499 46.5103 84.9499Z" fill="#964253"/>
<path d="M26.2802 70.4L25.7202 68.48C25.8902 68.43 42.9902 62.84 43.5302 25.38L43.3802 0.79001L45.3802 0.76001L45.5302 25.38C44.9602 64.5 27.0402 70.18 26.2802 70.4Z" fill="#964253"/>
</g>
<defs>
<clipPath id="clip0_301_11318">
<rect width="58.9" height="110.48" fill="white" transform="translate(0 0.76001)"/>
</clipPath>
</defs>
</svg>
