<svg width="72" height="104" viewBox="0 0 72 104" fill="none" xmlns="http://www.w3.org/2000/svg">
<g clip-path="url(#clip0_301_11349)">
<path d="M19.4299 72.375L16.6099 71.335L21.7499 55.625L21.6999 61.405L19.4299 72.375Z" fill="#73275C"/>
<path d="M35.6298 73.055L32.7598 72.185L68.4598 0.10498L71.4498 1.72498L35.6298 73.055Z" fill="#73275C"/>
<path d="M28.05 99.305V92.045C28.05 90.245 26.1 89.125 24.36 89.835C24.35 89.845 24.33 89.845 24.32 89.855L15 93.145C13.64 93.635 12.12 93.545 10.84 92.895C10.84 92.895 3.22004 89.135 3.04004 89.015V98.395C3.04004 101.435 5.64004 103.895 8.85004 103.895H23.2C25.88 103.895 28.05 101.835 28.05 99.305Z" fill="#FF6B97"/>
<path d="M39.81 73.255L36.75 71.025H8.58004C5.52004 71.025 3.04004 73.495 3.04004 76.525V89.005C3.20004 89.115 9.57004 92.255 10.67 92.805L9.78004 95.935C9.56004 96.715 10.05 97.505 10.87 97.715C11.69 97.925 12.53 97.465 12.75 96.685L13.68 93.405C14.13 93.365 14.57 93.275 15 93.125L24.32 89.835C24.33 89.825 24.35 89.825 24.36 89.815C26.1 89.105 28.05 90.225 28.05 92.025V99.285C28.05 101.825 25.88 103.875 23.2 103.875H31.21C34.27 103.875 36.75 101.415 36.75 98.375V74.705L37.93 75.565C38.6 76.055 39.57 75.935 40.09 75.305C40.6 74.665 40.48 73.745 39.81 73.255Z" fill="#73275C"/>
<path d="M3.82985 73.015L1.07985 82.405C0.439851 84.575 1.48985 86.875 3.59985 87.935L10.0199 91.145C11.3099 91.785 12.8199 91.875 14.1799 91.395L24.3099 87.765C25.7599 87.245 26.8799 86.135 27.3499 84.735L31.9799 71.025H6.58985C5.30985 71.025 4.17985 71.835 3.82985 73.015Z" fill="#FF6B97"/>
</g>
<defs>
<clipPath id="clip0_301_11349">
<rect width="70.55" height="103.79" fill="white" transform="translate(0.899902 0.10498)"/>
</clipPath>
</defs>
</svg>
