<svg width="64" height="114" viewBox="0 0 64 114" fill="none" xmlns="http://www.w3.org/2000/svg">
<g clip-path="url(#clip0_301_14560)">
<path d="M45.4202 81.5249L48.2402 80.4849L39.4102 61.1749L39.4602 66.9549L45.4202 81.5249Z" fill="#73275C"/>
<path d="M29.22 82.215L32.09 81.335L3.15 0.954956H0L29.22 82.215Z" fill="#73275C"/>
<path d="M36.8003 108.455V101.195C36.8003 99.3949 38.7503 98.2749 40.4903 98.9849C40.5003 98.9949 40.5203 98.9949 40.5303 99.0049L49.8503 102.295C51.2103 102.785 52.7303 102.695 54.0103 102.045C54.0103 102.045 61.6303 98.2849 61.8103 98.1649V107.545C61.8103 110.585 59.2103 113.045 56.0003 113.045H41.6503C38.9703 113.045 36.8003 110.995 36.8003 108.455Z" fill="#FF6B97"/>
<path d="M25.0502 82.4049L28.1102 80.1749H56.2802C59.3402 80.1749 61.8202 82.6449 61.8202 85.6749V98.1549C61.6602 98.2649 55.2902 101.405 54.1902 101.955L55.0802 105.085C55.3002 105.865 54.8102 106.655 53.9902 106.865C53.1702 107.075 52.3302 106.615 52.1102 105.835L51.1802 102.555C50.7302 102.515 50.2902 102.425 49.8602 102.275L40.5402 98.9849C40.5302 98.9749 40.5102 98.9749 40.5002 98.9649C38.7602 98.2549 36.8102 99.3749 36.8102 101.175V108.435C36.8102 110.975 38.9802 113.025 41.6602 113.025H33.6502C30.5902 113.025 28.1102 110.565 28.1102 107.525V83.8549L26.9302 84.7149C26.2602 85.2049 25.2902 85.0849 24.7702 84.4549C24.2502 83.8149 24.3702 82.8949 25.0502 82.4049Z" fill="#73275C"/>
<path d="M61.0201 82.1649L63.7701 91.5549C64.4101 93.7249 63.3601 96.0249 61.2501 97.0849L54.8301 100.295C53.5401 100.935 52.0301 101.025 50.6701 100.545L40.5401 96.9149C39.0901 96.3949 37.9701 95.2849 37.5001 93.8849L32.8701 80.1749H58.2601C59.5401 80.1749 60.6701 80.9949 61.0201 82.1649Z" fill="#FF6B97"/>
</g>
<defs>
<clipPath id="clip0_301_14560">
<rect width="63.95" height="112.09" fill="white" transform="translate(0 0.954956)"/>
</clipPath>
</defs>
</svg>
