<svg width="71" height="104" viewBox="0 0 71 104" fill="none" xmlns="http://www.w3.org/2000/svg">
<g clip-path="url(#clip0_301_11360)">
<path d="M6.03998 80.975L4.22998 80.125L15.44 54.025V57.925L6.03998 80.975Z" fill="#F2A65E"/>
<path d="M33.05 87.335V98.365C33.05 99.585 32.39 100.685 31.35 101.425C31.11 101.605 30.84 101.755 30.56 101.885C29.84 102.225 29.01 102.425 28.13 102.425H6.38996C6.29996 102.425 6.19996 102.425 6.09996 102.415C5.71996 102.395 5.34996 102.345 4.99996 102.255C4.96996 102.245 4.93996 102.245 4.90996 102.235C4.79996 102.205 4.67996 102.175 4.57996 102.135C4.35996 102.065 4.13996 101.975 3.93996 101.875C2.72996 101.305 1.83996 100.315 1.55996 99.165C1.52996 99.055 1.50996 98.935 1.48996 98.815C1.46996 98.665 1.45996 98.515 1.45996 98.355V87.335C1.45996 87.205 1.47996 87.075 1.50996 86.945C1.56996 86.645 1.71996 86.365 1.91996 86.115C2.39996 85.525 3.20996 85.145 4.11996 85.145H30.39C31.86 85.155 33.05 86.135 33.05 87.335Z" fill="#F2A65E"/>
<path d="M32.4603 82.275V85.015L17.3103 90.555L2.05029 84.965V82.265C2.05029 80.865 3.20029 79.715 4.61029 79.715H29.9103C31.3103 79.725 32.4603 80.875 32.4603 82.275Z" fill="#F2A65E"/>
<path d="M31.94 89.435L28.27 92.915L24.97 89.765L27.45 87.405L25.23 88.245L24.3 89.125L23.89 88.745L22.91 89.115L23.64 89.765L20.81 92.465L18.89 90.635L17.93 90.995L20.14 93.105L17.31 95.805L14.48 93.105L15.9 91.755L14.94 91.395L13.82 92.475L11.23 90.005L9.14996 89.225L9.63996 89.775L6.80996 92.475L3.97996 89.775L5.91996 88.005L4.94996 87.635L3.30996 89.125L1.45996 87.395V88.655L2.63996 89.755L1.45996 90.875V92.155L3.30996 90.385L6.13996 93.085L2.84996 96.245L1.45996 94.935V96.205L2.17996 96.885L1.45996 97.575V98.365C1.45996 98.525 1.46996 98.675 1.48996 98.825L2.83996 97.525L5.67996 100.215L3.93996 101.885C4.13996 101.985 4.34996 102.065 4.57996 102.145C4.68996 102.185 4.79996 102.215 4.90996 102.245L6.35996 100.855L8.01996 102.435H9.36996L7.03996 100.215L10.31 97.085L13.14 99.785L10.37 102.435H11.71L13.81 100.435L15.91 102.435H17.25L14.48 99.785L17.31 97.085L20.59 100.215L18.25 102.435H19.6L21.26 100.855L22.91 102.435H24.25L21.93 100.215L24.76 97.525L27.58 100.215L25.24 102.435H26.59L28.24 100.855L29.5 102.055C29.8 101.915 30.07 101.745 30.31 101.555L28.91 100.215L31.75 97.525L31.94 97.705V96.075L31.76 96.255L28.94 93.565L31.94 90.725V89.435ZM6.35996 99.575L3.51996 96.885L6.79996 93.745L9.62996 96.445L6.35996 99.575ZM7.47996 93.105L10.3 90.405L13.13 93.105L10.3 95.805L7.47996 93.105ZM13.81 99.145L10.98 96.445L13.81 93.745L16.64 96.445L13.81 99.145ZM21.25 99.575L17.97 96.445L20.79 93.745L24.08 96.885L21.25 99.575ZM21.47 93.105L24.3 90.405L27.6 93.555L24.76 96.245L21.47 93.105ZM31.08 96.885L28.25 99.575L25.43 96.885L28.26 94.195L31.08 96.885Z" fill="#835429"/>
<path d="M28.56 82.215H26.46L68.73 0.344971L70.44 1.47497L28.56 82.215Z" fill="#F2A65E"/>
<path d="M27.7902 103.655H6.7202C6.6002 103.655 6.4702 103.655 6.3402 103.645C5.8702 103.615 5.4002 103.545 4.9402 103.435C4.0502 103.205 3.2302 102.805 2.5502 102.285C2.2202 102.025 1.9302 101.755 1.6902 101.475C1.4002 101.145 1.1502 100.765 0.950195 100.355C0.740195 99.945 0.600195 99.495 0.510195 99.035C0.470195 98.735 0.450195 98.475 0.450195 98.215V87.625C0.450195 87.485 0.460195 87.365 0.470195 87.235C0.570195 86.585 0.800195 86.055 1.1402 85.605C1.2702 85.435 1.4102 85.275 1.5702 85.125L2.2502 84.505L17.2702 90.155L32.3002 84.495L32.9802 85.145C33.5502 85.695 33.9202 86.375 34.0402 87.135C34.0602 87.345 34.0702 87.475 34.0702 87.615V98.205C34.0702 99.775 33.2902 101.265 31.9302 102.305C31.6002 102.545 31.2702 102.755 30.9202 102.925C29.9602 103.405 28.8802 103.655 27.7902 103.655ZM3.4502 88.175V98.205C3.4502 98.315 3.4602 98.415 3.4802 98.515C3.5102 98.675 3.5602 98.845 3.6502 99.005C3.7402 99.185 3.8402 99.345 3.9702 99.485C4.1002 99.635 4.2302 99.765 4.4002 99.895C4.7502 100.165 5.2002 100.385 5.6902 100.515C5.9502 100.575 6.2302 100.625 6.4902 100.635L6.7302 100.645H27.8002C28.4302 100.645 29.0502 100.505 29.5802 100.235C29.7702 100.135 29.9602 100.025 30.1302 99.895C30.4702 99.635 31.0702 99.055 31.0702 98.195V88.185L17.1902 93.415L16.6702 93.155L3.4502 88.175Z" fill="#FFE478"/>
<path d="M33.56 84.645C33.56 84.925 33.39 85.165 33.13 85.265L33.04 85.295L17.28 91.045L1.47996 85.295L1.38996 85.265C1.12996 85.175 0.959961 84.925 0.959961 84.645C0.959961 84.265 1.26996 83.985 1.61996 83.985C1.68996 83.985 1.76996 83.995 1.83996 84.025L2.11996 84.125L17.28 89.645L32.42 84.125L32.69 84.025C33.11 83.875 33.56 84.185 33.56 84.645Z" fill="#835429"/>
<path d="M18.1504 91.775H16.3704C15.8604 91.775 15.4404 91.365 15.4404 90.845V89.555C15.4404 89.045 15.8504 88.625 16.3704 88.625H18.1504C18.6604 88.625 19.0804 89.035 19.0804 89.555V90.845C19.0704 91.355 18.6604 91.775 18.1504 91.775Z" fill="white"/>
</g>
<defs>
<clipPath id="clip0_301_11360">
<rect width="69.99" height="103.31" fill="white" transform="translate(0.450195 0.344971)"/>
</clipPath>
</defs>
</svg>
