<svg width="58" height="78" viewBox="0 0 58 78" fill="none" xmlns="http://www.w3.org/2000/svg">
<g clip-path="url(#clip0_301_804)">
<path d="M23.8598 73.5251H10.8798C4.87977 73.5251 0.00976562 68.6551 0.00976562 62.6451V34.0551C0.00976562 28.0551 4.87977 23.1851 10.8798 23.1851H23.8598C29.8598 23.1851 34.7298 28.0551 34.7298 34.0551V62.6451C34.7298 68.6551 29.8698 73.5251 23.8598 73.5251Z" fill="#4DA6FF"/>
<path d="M24.1696 26.285C17.3896 26.285 11.8696 20.445 11.8696 13.275C11.8696 6.10501 17.3896 0.265015 24.1696 0.265015C30.9496 0.265015 36.4696 6.10501 36.4696 13.275C36.4696 20.445 30.9496 26.285 24.1696 26.285ZM24.1696 2.66501C18.6396 2.66501 14.1396 7.42501 14.1396 13.275C14.1396 19.125 18.6396 23.885 24.1696 23.885C29.6996 23.885 34.1996 19.125 34.1996 13.275C34.1896 7.42501 29.6996 2.66501 24.1696 2.66501Z" fill="#4B5BAB"/>
<path d="M37.8899 77.735H18.9899C10.9499 77.735 4.43994 71.215 4.43994 63.185V23.185C4.43994 15.145 10.9599 8.63501 18.9899 8.63501H37.8799C45.9199 8.63501 52.4299 15.155 52.4299 23.185V63.185C52.4399 71.215 45.9299 77.735 37.8899 77.735Z" fill="#473B78"/>
<path d="M42.4796 77.735H23.5896C15.5496 77.735 9.03955 71.215 9.03955 63.185V23.185C9.03955 15.145 15.5596 8.63501 23.5896 8.63501H42.4796C50.5196 8.63501 57.0296 15.155 57.0296 23.185V63.185C57.0396 71.215 50.5196 77.735 42.4796 77.735Z" fill="#4B5BAB"/>
<path d="M8.21962 23.185C7.65962 23.185 7.18962 22.715 7.21962 22.155C7.40962 17.915 8.55962 14.475 11.3396 12.245C16.0596 8.45502 22.2196 8.14502 22.4896 8.16502L22.3196 10.155C22.2596 10.155 16.4496 10.195 12.6796 13.725C10.8196 15.465 9.38962 18.535 9.20962 22.205C9.18962 22.745 8.75962 23.185 8.21962 23.185Z" fill="#19ACEC"/>
</g>
<defs>
<clipPath id="clip0_301_804">
<rect width="57.03" height="77.47" fill="white" transform="translate(0.00976562 0.265015)"/>
</clipPath>
</defs>
</svg>
