<svg width="53" height="102" viewBox="0 0 53 102" fill="none" xmlns="http://www.w3.org/2000/svg">
<g clip-path="url(#clip0_301_5470)">
<path d="M5.72992 79.195L3.91992 78.345L11.9499 62.825V66.715L5.72992 79.195Z" fill="#F2A65E"/>
<path d="M32.7399 85.555V96.585C32.7399 97.805 32.0799 98.905 31.0399 99.645C30.7999 99.825 30.5299 99.975 30.2499 100.105C29.5299 100.445 28.6999 100.645 27.8199 100.645H6.0799C5.9899 100.645 5.8899 100.645 5.7899 100.635C5.4099 100.615 5.0399 100.565 4.6899 100.475C4.6599 100.465 4.6299 100.465 4.5999 100.455C4.4899 100.425 4.3699 100.395 4.2699 100.355C4.0499 100.285 3.8299 100.195 3.6299 100.095C2.4199 99.525 1.5299 98.535 1.2499 97.385C1.2199 97.275 1.1999 97.155 1.1799 97.035C1.1599 96.885 1.1499 96.735 1.1499 96.575V85.555C1.1499 85.425 1.1699 85.295 1.1999 85.165C1.2599 84.865 1.4099 84.585 1.6099 84.335C2.0899 83.745 2.8999 83.365 3.8099 83.365H30.0799C31.5499 83.375 32.7399 84.355 32.7399 85.555Z" fill="#F2A65E"/>
<path d="M32.1502 80.4951V83.2351L17.0002 88.7751L1.74023 83.1851V80.4851C1.74023 79.0851 2.89023 77.9351 4.30023 77.9351H29.6002C31.0002 77.9351 32.1502 79.0851 32.1502 80.4951Z" fill="#F2A65E"/>
<path d="M31.6299 87.655L27.9599 91.135L24.6599 87.985L27.1399 85.625L24.9199 86.465L23.9899 87.345L23.5799 86.965L22.5999 87.335L23.3299 87.985L20.4999 90.685L18.5799 88.855L17.6199 89.215L19.8299 91.325L16.9999 94.025L14.1699 91.325L15.5899 89.975L14.6299 89.615L13.5099 90.695L10.9199 88.225L8.8399 87.435L9.3299 87.985L6.4999 90.685L3.6699 87.985L5.6099 86.215L4.6399 85.855L2.9999 87.345L1.1499 85.615V86.875L2.3299 87.975L1.1499 89.095V90.375L2.9999 88.605L5.8299 91.305L2.5399 94.465L1.1499 93.155V94.425L1.8699 95.105L1.1499 95.795V96.585C1.1499 96.745 1.1599 96.895 1.1799 97.045L2.5299 95.745L5.3699 98.435L3.6399 100.105C3.8399 100.205 4.0499 100.285 4.2799 100.365C4.3899 100.405 4.4999 100.435 4.6099 100.465L6.0599 99.075L7.7199 100.655H9.0699L6.7299 98.435L9.9999 95.305L12.8299 98.005L10.0599 100.655H11.3999L13.4999 98.655L15.5999 100.655H16.9399L14.1699 98.005L16.9999 95.305L20.2799 98.435L17.9399 100.655H19.2899L20.9499 99.075L22.5999 100.655H23.9399L21.6199 98.435L24.4499 95.745L27.2699 98.435L24.9299 100.655H26.2799L27.9299 99.075L29.1899 100.275C29.4899 100.135 29.7599 99.965 29.9999 99.775L28.5999 98.435L31.4399 95.745L31.6299 95.925V94.295L31.4499 94.475L28.6299 91.785L31.6299 88.945V87.655ZM6.0499 97.795L3.2099 95.105L6.4899 91.965L9.3199 94.665L6.0499 97.795ZM7.1699 91.325L9.9899 88.625L12.8199 91.325L9.9899 94.025L7.1699 91.325ZM13.4999 97.365L10.6699 94.665L13.4999 91.965L16.3299 94.665L13.4999 97.365ZM20.9399 97.795L17.6599 94.665L20.4799 91.965L23.7699 95.105L20.9399 97.795ZM21.1599 91.325L23.9899 88.625L27.2899 91.775L24.4499 94.465L21.1599 91.325ZM30.7699 95.105L27.9399 97.795L25.1199 95.105L27.9499 92.415L30.7699 95.105Z" fill="#835429"/>
<path d="M28.2499 80.435H26.1499L50.3299 0.13501L52.6099 0.16501L28.2499 80.435Z" fill="#F2A65E"/>
<path d="M27.4801 101.865H6.41014C6.29014 101.865 6.16014 101.865 6.03014 101.855C5.56014 101.825 5.09014 101.755 4.63014 101.645C3.74014 101.415 2.92014 101.015 2.24014 100.495C1.91014 100.235 1.62014 99.965 1.38014 99.685C1.09014 99.355 0.840137 98.975 0.640137 98.565C0.430137 98.155 0.290137 97.705 0.200137 97.245C0.160137 96.955 0.140137 96.695 0.140137 96.425V85.845C0.140137 85.705 0.150137 85.585 0.160137 85.455C0.260137 84.805 0.490137 84.275 0.830137 83.825C0.960137 83.655 1.10014 83.495 1.26014 83.345L1.94014 82.725L16.9601 88.375L31.9901 82.715L32.6701 83.365C33.2401 83.915 33.6101 84.595 33.7301 85.355C33.7501 85.565 33.7601 85.695 33.7601 85.835V96.425C33.7601 97.995 32.9801 99.485 31.6201 100.525C31.2901 100.765 30.9601 100.975 30.6101 101.145C29.6501 101.625 28.5701 101.865 27.4801 101.865ZM3.14014 86.395V96.425C3.14014 96.535 3.15014 96.635 3.17014 96.735C3.20014 96.895 3.25014 97.065 3.34014 97.225C3.43014 97.405 3.53014 97.565 3.66014 97.705C3.79014 97.855 3.92014 97.985 4.09014 98.115C4.44014 98.385 4.89014 98.605 5.38014 98.735C5.64014 98.795 5.92014 98.845 6.18014 98.855L6.42014 98.865H27.4901C28.1201 98.865 28.7401 98.725 29.2701 98.455C29.4601 98.355 29.6501 98.245 29.8201 98.115C30.1601 97.855 30.7601 97.275 30.7601 96.415V86.405L16.8801 91.635L16.3601 91.375L3.14014 86.395Z" fill="#FFE478"/>
<path d="M33.2499 82.865C33.2499 83.145 33.0799 83.385 32.8199 83.485L32.7299 83.515L16.9699 89.265L1.1699 83.505L1.0799 83.475C0.819902 83.385 0.649902 83.135 0.649902 82.865C0.649902 82.485 0.959902 82.205 1.3099 82.205C1.3799 82.205 1.4599 82.215 1.5299 82.245L1.8099 82.345L16.9699 87.865L32.1099 82.345L32.3799 82.245C32.7999 82.085 33.2499 82.405 33.2499 82.865Z" fill="#835429"/>
<path d="M17.8404 89.995H16.0604C15.5504 89.995 15.1304 89.585 15.1304 89.065V87.775C15.1304 87.265 15.5404 86.845 16.0604 86.845H17.8404C18.3504 86.845 18.7704 87.255 18.7704 87.775V89.065C18.7604 89.575 18.3504 89.995 17.8404 89.995Z" fill="white"/>
</g>
<defs>
<clipPath id="clip0_301_5470">
<rect width="52.47" height="101.73" fill="white" transform="translate(0.140137 0.13501)"/>
</clipPath>
</defs>
</svg>
