<svg width="21" height="74" viewBox="0 0 21 74" fill="none" xmlns="http://www.w3.org/2000/svg">
<g clip-path="url(#clip0_301_14553)">
<path d="M17.9397 73.595C18.5397 73.595 19.1497 73.355 19.5997 72.895C20.4897 71.975 20.4697 70.515 19.5497 69.625C19.4397 69.515 13.3397 63.465 10.8797 55.075C10.5197 53.845 9.23969 53.145 8.00969 53.505C6.77969 53.865 6.07969 55.145 6.43969 56.375C9.25969 66.005 16.0397 72.665 16.3297 72.945C16.7797 73.375 17.3597 73.595 17.9397 73.595Z" fill="#473B78"/>
<path d="M9.43967 62.695C9.90967 62.695 10.3797 62.625 10.8497 62.475C13.2897 61.695 14.6297 59.095 13.8497 56.655C8.91967 41.235 10.3297 5.58498 10.3397 5.22498C10.4497 2.67498 8.45967 0.514984 5.90967 0.404984C3.33967 0.294984 1.19967 2.28498 1.08967 4.84498C1.02967 6.37498 -0.390329 42.495 5.02967 59.465C5.65967 61.435 7.47967 62.695 9.43967 62.695Z" fill="#4DA6FF"/>
</g>
<defs>
<clipPath id="clip0_301_14553">
<rect width="19.38" height="73.19" fill="white" transform="translate(0.879883 0.405029)"/>
</clipPath>
</defs>
</svg>
