<svg width="80" height="170" viewBox="0 0 80 170" fill="none" xmlns="http://www.w3.org/2000/svg">
<g clip-path="url(#clip0_317_10936)">
<path d="M15.3398 0.0100098V163.51H35.6898V42.29C37.1398 42.54 38.6598 42.67 40.1998 42.67C41.5998 42.67 42.9698 42.57 44.3098 42.35V163.52H64.6598V0.0100098H15.3398Z" fill="#9AA4D1"/>
<path d="M64.8999 161.95H44.1599C43.4499 161.95 42.8799 162.52 42.8799 163.23V165.96C42.8799 166.67 43.4499 167.24 44.1599 167.24H64.8999C65.6099 167.24 66.1799 166.67 66.1799 165.96V163.23C66.1799 162.52 65.6099 161.95 64.8999 161.95Z" fill="#595E78"/>
<path d="M30.7298 8.62001C30.7298 8.75001 30.7298 8.88001 30.7198 9.01001C30.5198 16.82 24.1198 23.1 16.2398 23.1C15.9398 23.1 15.6398 23.09 15.3398 23.07V0.0100098H27.8998C29.6698 2.41001 30.7298 5.39001 30.7298 8.62001Z" fill="#747B9D"/>
<path d="M64.66 0.00999999V23.06C64.36 23.08 64.06 23.09 63.75 23.09C55.89 23.09 49.48 16.81 49.28 9C49.27 8.87 49.27 8.74 49.27 8.61C49.27 5.38 50.33 2.4 52.1 0H64.66V0.00999999Z" fill="#747B9D"/>
<path d="M30.6496 0.0100098H28.1396C29.0796 2.03001 29.5796 4.25001 29.5796 6.53001C29.5796 6.64001 29.5796 6.77001 29.5696 6.96001C29.3696 14.83 23.0996 21.3 15.3496 21.91V24.21C24.3396 23.6 31.6396 16.11 31.8596 7.09001C31.8796 6.92001 31.8796 6.72001 31.8796 6.54001C31.8796 4.26001 31.4596 2.06001 30.6496 0.0100098Z" fill="#595E78"/>
<path d="M50.4296 6.27C50.4196 6.16 50.4196 6.03 50.4196 5.91C50.4196 3.86 50.7996 1.86 51.5396 0H49.0896C48.4596 1.89 48.1196 3.88 48.1196 5.91C48.1196 6.09 48.1196 6.29 48.1296 6.4C48.3696 15.63 55.6196 23.25 64.6496 24.14V21.83C56.8596 20.96 50.6396 14.35 50.4296 6.27Z" fill="#595E78"/>
<path d="M35.6898 42.29V163.51H15.3398V24.85C15.3398 24.85 18.2298 39.94 35.6898 42.29Z" fill="#7A82A6"/>
<path d="M35.8398 161.95H15.0998C14.3898 161.95 13.8198 162.52 13.8198 163.23V165.96C13.8198 166.67 14.3898 167.24 15.0998 167.24H35.8398C36.5498 167.24 37.1198 166.67 37.1198 165.96V163.23C37.1098 162.52 36.5398 161.95 35.8398 161.95Z" fill="#595E78"/>
<path d="M64.6598 0.0100098H15.3398V9.01001H64.6598V0.0100098Z" fill="#5C627C"/>
<path d="M54.5298 162.95C53.9798 162.95 53.5298 162.5 53.5298 161.95V45.47C53.5298 44.92 53.9798 44.47 54.5298 44.47C55.0798 44.47 55.5298 44.92 55.5298 45.47V161.95C55.5298 162.5 55.0798 162.95 54.5298 162.95Z" fill="#595E78"/>
</g>
<defs>
<clipPath id="clip0_317_10936">
<rect width="80" height="170" fill="white"/>
</clipPath>
</defs>
</svg>
