<svg width="50" height="166" viewBox="0 0 50 166" fill="none" xmlns="http://www.w3.org/2000/svg">
<g clip-path="url(#clip0_301_3333)">
<path d="M49.7199 9.80493H0.359863V165.045H49.7199V9.80493Z" fill="#E9FBF8"/>
<path d="M9.88986 9.80493H0.359863V165.045H9.88986V9.80493Z" fill="#9AC1B9"/>
<path d="M45.7101 40.505C47.864 40.505 49.6101 38.7589 49.6101 36.605C49.6101 34.451 47.864 32.705 45.7101 32.705C43.5561 32.705 41.8101 34.451 41.8101 36.605C41.8101 38.7589 43.5561 40.505 45.7101 40.505Z" fill="#20C9AF"/>
<path d="M43.6297 41.895C41.9597 41.235 40.6697 39.805 40.2097 38.055C38.0097 37.925 35.7897 38.885 34.3997 40.805C32.2297 43.795 32.8897 47.975 35.8797 50.155C38.5897 52.125 42.2797 51.765 44.5697 49.455C43.0297 47.145 42.7697 44.345 43.6297 41.895Z" fill="#1FB6F4"/>
<path d="M49.7196 40.645V51.145C48.3496 50.745 47.0996 49.905 46.1996 48.665C44.8096 46.745 44.5796 44.345 45.3896 42.295C47.0096 42.385 48.5796 41.765 49.7196 40.645Z" fill="#1FB6F4"/>
<path d="M49.7196 21.225V31.935C49.5896 32.035 49.4596 32.125 49.3196 32.215C47.9096 31.065 46.0296 30.665 44.2896 31.115C43.5496 28.625 41.6896 26.515 39.0996 25.565C39.5896 22.345 42.3596 19.885 45.7096 19.885C47.2096 19.885 48.5996 20.385 49.7196 21.225Z" fill="#1FB6F4"/>
<path d="M40.0398 36.2651C40.1498 34.4751 41.1098 32.8051 42.6398 31.8251C42.0798 29.6951 40.4898 27.8751 38.2298 27.1451C34.7198 26.0051 30.9398 27.9251 29.7998 31.4451C28.7598 34.6351 30.2498 38.0351 33.1498 39.4851C34.8698 37.3151 37.4498 36.1951 40.0398 36.2651Z" fill="#1FB6F4"/>
<path d="M39.6616 88.9337C41.2176 86.3375 40.3743 82.9716 37.7782 81.4157C35.182 79.8597 31.8161 80.703 30.2601 83.2991C28.7042 85.8953 29.5475 89.2612 32.1436 90.8171C34.7398 92.3731 38.1057 91.5298 39.6616 88.9337Z" fill="#20C9AF"/>
<path d="M37.0296 93.825C34.5896 94.475 31.9496 93.945 29.9596 92.345C27.3696 94.045 25.6696 96.975 25.6996 100.305C25.7496 105.495 29.9996 109.655 35.1896 109.605C39.8896 109.555 43.7596 106.065 44.3996 101.545C40.7496 100.245 38.0996 97.305 37.0296 93.825Z" fill="#1FB6F4"/>
<path d="M49.7198 84.5449V99.6449C48.3798 99.8349 46.9698 99.7449 45.5898 99.3049C42.4198 98.3149 40.1498 95.7849 39.3398 92.8049C41.4698 91.4049 42.7898 89.0549 42.9298 86.5349C45.3198 86.5649 47.6998 85.8849 49.7198 84.5449Z" fill="#1FB6F4"/>
<path d="M49.7197 67.955V81.325C47.8197 83.215 45.2296 84.145 42.6596 84.025C41.9896 81.555 40.1597 79.575 37.8097 78.675C38.9897 75.225 38.5796 71.295 36.3896 68.095C39.5596 64.815 44.7396 64.255 48.5696 66.985C48.9796 67.275 49.3696 67.605 49.7197 67.955Z" fill="#1FB6F4"/>
<path d="M28.7497 81.105C30.3397 79.145 32.7897 78.025 35.3397 78.145C36.4397 75.255 36.0897 71.875 34.1097 69.205C31.0197 65.035 25.1397 64.165 20.9697 67.255C17.1897 70.055 16.1197 75.155 18.2597 79.185C21.9697 78.095 25.8397 78.915 28.7497 81.105Z" fill="#1FB6F4"/>
<path d="M28.2698 90.4749C26.8998 88.3649 26.5898 85.6849 27.4898 83.2949C25.0798 81.3549 21.7598 80.645 18.6098 81.705C13.6898 83.355 11.0398 88.685 12.6998 93.605C14.1998 98.065 18.7198 100.655 23.2098 99.875C23.3198 95.985 25.2898 92.5649 28.2698 90.4749Z" fill="#1FB6F4"/>
<path d="M49.72 132.185V135.435C49.11 136.785 47.75 137.715 46.18 137.715C44.02 137.715 42.27 135.965 42.27 133.815C42.27 131.655 44.02 129.905 46.18 129.905C47.75 129.905 49.11 130.835 49.72 132.185Z" fill="#20C9AF"/>
<path d="M44.0902 139.095C42.4202 138.435 41.1302 137.005 40.6702 135.255C38.4702 135.125 36.2502 136.085 34.8602 138.005C32.6902 140.995 33.3502 145.175 36.3402 147.355C39.0502 149.325 42.7402 148.965 45.0302 146.655C43.5002 144.345 43.2302 141.535 44.0902 139.095Z" fill="#1FB6F4"/>
<path d="M49.7201 138.245V148.195C48.5301 147.755 47.4601 146.965 46.6601 145.865C45.2701 143.945 45.0501 141.545 45.8501 139.485C47.2601 139.575 48.6401 139.115 49.7201 138.245Z" fill="#1FB6F4"/>
<path d="M49.7201 118.105V129.375C48.3201 128.245 46.4701 127.875 44.7601 128.305C44.0201 125.825 42.1501 123.715 39.5601 122.755C40.0501 119.545 42.8301 117.085 46.1801 117.085C47.4801 117.085 48.7001 117.455 49.7201 118.105Z" fill="#1FB6F4"/>
<path d="M40.5101 133.455C40.6201 131.665 41.5801 129.995 43.1101 129.015C42.5501 126.885 40.9601 125.065 38.7001 124.335C35.1901 123.195 31.4101 125.115 30.2701 128.635C29.2301 131.825 30.7201 135.225 33.6201 136.675C35.3301 134.515 37.9101 133.395 40.5101 133.455Z" fill="#1FB6F4"/>
<path d="M21.2399 52.085C22.1291 52.085 22.8499 51.3642 22.8499 50.475C22.8499 49.5858 22.1291 48.865 21.2399 48.865C20.3507 48.865 19.6299 49.5858 19.6299 50.475C19.6299 51.3642 20.3507 52.085 21.2399 52.085Z" fill="#1FB6F4"/>
<path d="M20.3899 52.6549C19.6999 52.3849 19.1699 51.7949 18.9799 51.0749C18.0699 51.0249 17.1599 51.4149 16.5899 52.2049C15.6999 53.4349 15.9699 55.1649 17.1999 56.0549C18.3199 56.8649 19.8399 56.7149 20.7799 55.7649C20.1399 54.8149 20.0299 53.6649 20.3899 52.6549Z" fill="#20C9AF"/>
<path d="M23.0498 51.965C22.5798 52.535 21.8598 52.855 21.1098 52.815C20.7798 53.665 20.8698 54.655 21.4498 55.445C22.3398 56.675 24.0698 56.945 25.2998 56.055C26.4198 55.245 26.7498 53.755 26.1298 52.565C25.0299 52.865 23.8998 52.615 23.0498 51.965Z" fill="#20C9AF"/>
<path d="M23.2197 49.2149C23.6197 49.8349 23.6997 50.6249 23.4297 51.3249C24.1297 51.9049 25.0997 52.1149 26.0297 51.8149C27.4797 51.3449 28.2697 49.7849 27.7997 48.3449C27.3697 47.0349 26.0597 46.2549 24.7297 46.4749C24.6897 47.6149 24.0997 48.6149 23.2197 49.2149Z" fill="#20C9AF"/>
<path d="M20.6598 48.215C21.3798 48.035 22.1498 48.195 22.7298 48.665C23.4898 48.175 23.9998 47.315 23.9998 46.345C23.9998 44.825 22.7698 43.585 21.2398 43.585C19.8598 43.585 18.7198 44.595 18.5098 45.925C19.5898 46.315 20.3498 47.185 20.6598 48.215Z" fill="#20C9AF"/>
<path d="M18.9099 50.335C18.9599 49.595 19.3499 48.915 19.9799 48.505C19.7499 47.625 19.0899 46.875 18.1599 46.575C16.7099 46.105 15.1599 46.895 14.6899 48.345C14.2599 49.655 14.8699 51.055 16.0699 51.655C16.7699 50.765 17.8399 50.305 18.9099 50.335Z" fill="#20C9AF"/>
<path d="M21.2399 119.525C22.1291 119.525 22.8499 118.804 22.8499 117.915C22.8499 117.026 22.1291 116.305 21.2399 116.305C20.3507 116.305 19.6299 117.026 19.6299 117.915C19.6299 118.804 20.3507 119.525 21.2399 119.525Z" fill="#1FB6F4"/>
<path d="M20.3899 120.085C19.6999 119.815 19.1699 119.225 18.9799 118.505C18.0699 118.455 17.1599 118.845 16.5899 119.635C15.6999 120.865 15.9699 122.595 17.1999 123.485C18.3199 124.295 19.8399 124.145 20.7799 123.195C20.1399 122.255 20.0299 121.095 20.3899 120.085Z" fill="#20C9AF"/>
<path d="M23.0498 119.405C22.5798 119.975 21.8598 120.295 21.1098 120.255C20.7798 121.105 20.8698 122.095 21.4498 122.885C22.3398 124.115 24.0698 124.385 25.2998 123.495C26.4198 122.685 26.7498 121.195 26.1298 120.005C25.0299 120.305 23.8998 120.055 23.0498 119.405Z" fill="#20C9AF"/>
<path d="M23.2197 116.655C23.6197 117.275 23.6997 118.065 23.4297 118.765C24.1297 119.345 25.0997 119.555 26.0297 119.255C27.4797 118.785 28.2697 117.225 27.7997 115.785C27.3697 114.475 26.0597 113.695 24.7297 113.915C24.6897 115.045 24.0997 116.045 23.2197 116.655Z" fill="#20C9AF"/>
<path d="M20.6598 115.645C21.3798 115.465 22.1498 115.625 22.7298 116.095C23.4898 115.605 23.9998 114.745 23.9998 113.775C23.9998 112.255 22.7698 111.015 21.2398 111.015C19.8598 111.015 18.7198 112.025 18.5098 113.355C19.5898 113.745 20.3498 114.615 20.6598 115.645Z" fill="#20C9AF"/>
<path d="M18.9099 117.765C18.9599 117.025 19.3499 116.345 19.9799 115.935C19.7499 115.055 19.0899 114.305 18.1599 114.005C16.7099 113.535 15.1599 114.325 14.6899 115.775C14.2599 117.085 14.8699 118.485 16.0699 119.085C16.7699 118.205 17.8399 117.735 18.9099 117.765Z" fill="#20C9AF"/>
<path d="M49.7199 0.954956H0.359863V9.80496H49.7199V0.954956Z" fill="#21D2B2"/>
<path d="M22.4899 0.954956H0.359863V9.80496H22.4899V0.954956Z" fill="#197C7A"/>
</g>
<defs>
<clipPath id="clip0_301_3333">
<rect width="49.36" height="164.09" fill="white" transform="translate(0.359863 0.954956)"/>
</clipPath>
</defs>
</svg>
