<svg width="80" height="170" viewBox="0 0 80 170" fill="none" xmlns="http://www.w3.org/2000/svg">
<g clip-path="url(#clip0_317_10958)">
<path d="M64.6798 8.83997H15.3198V164.08H64.6798V8.83997Z" fill="#E9FBF8"/>
<path d="M24.8498 8.83997H15.3198V164.08H24.8498V8.83997Z" fill="#9AC1B9"/>
<path d="M60.67 39.55C62.8239 39.55 64.57 37.8039 64.57 35.65C64.57 33.4961 62.8239 31.75 60.67 31.75C58.5161 31.75 56.77 33.4961 56.77 35.65C56.77 37.8039 58.5161 39.55 60.67 39.55Z" fill="#20C9AF"/>
<path d="M58.5897 40.94C56.9197 40.28 55.6297 38.85 55.1697 37.1C52.9697 36.97 50.7497 37.93 49.3597 39.85C47.1897 42.84 47.8497 47.02 50.8397 49.2C53.5497 51.17 57.2397 50.81 59.5297 48.5C57.9897 46.19 57.7297 43.38 58.5897 40.94Z" fill="#1FB6F4"/>
<path d="M64.6796 39.6801V50.1801C63.3096 49.7801 62.0596 48.9401 61.1596 47.7001C59.7696 45.7801 59.5396 43.3801 60.3496 41.3301C61.9696 41.4201 63.5396 40.8001 64.6796 39.6801Z" fill="#1FB6F4"/>
<path d="M64.6796 20.26V30.97C64.5496 31.07 64.4196 31.16 64.2796 31.25C62.8696 30.1 60.9896 29.7 59.2496 30.15C58.5096 27.66 56.6496 25.55 54.0596 24.6C54.5496 21.38 57.3196 18.92 60.6696 18.92C62.1696 18.92 63.5596 19.42 64.6796 20.26Z" fill="#1FB6F4"/>
<path d="M54.9998 35.3001C55.1098 33.5101 56.0698 31.8401 57.5998 30.8601C57.0398 28.7301 55.4498 26.9101 53.1898 26.1801C49.6798 25.0401 45.8998 26.9601 44.7598 30.4801C43.7198 33.6701 45.2098 37.0701 48.1098 38.5201C49.8298 36.3601 52.4098 35.2401 54.9998 35.3001Z" fill="#1FB6F4"/>
<path d="M54.6245 87.9757C56.1805 85.3795 55.3372 82.0136 52.741 80.4576C50.1449 78.9017 46.779 79.745 45.223 82.3411C43.6671 84.9373 44.5104 88.3032 47.1065 89.8591C49.7027 91.4151 53.0686 90.5718 54.6245 87.9757Z" fill="#20C9AF"/>
<path d="M51.9896 92.87C49.5496 93.52 46.9096 92.99 44.9196 91.39C42.3296 93.09 40.6296 96.02 40.6596 99.35C40.7096 104.54 44.9596 108.7 50.1496 108.65C54.8496 108.6 58.7196 105.11 59.3596 100.59C55.7096 99.28 53.0596 96.35 51.9896 92.87Z" fill="#1FB6F4"/>
<path d="M64.6798 83.5801V98.6801C63.3398 98.8701 61.9298 98.7801 60.5498 98.3401C57.3798 97.3501 55.1098 94.8201 54.2998 91.8401C56.4298 90.4401 57.7498 88.0901 57.8898 85.5701C60.2798 85.6001 62.6598 84.9201 64.6798 83.5801Z" fill="#1FB6F4"/>
<path d="M64.6796 66.99V80.36C62.7796 82.25 60.1896 83.18 57.6196 83.06C56.9496 80.59 55.1196 78.61 52.7696 77.71C53.9496 74.26 53.5396 70.33 51.3496 67.13C54.5196 63.85 59.6996 63.29 63.5296 66.02C63.9396 66.31 64.3296 66.64 64.6796 66.99Z" fill="#1FB6F4"/>
<path d="M43.7096 80.14C45.2996 78.18 47.7496 77.06 50.2996 77.18C51.3996 74.29 51.0496 70.91 49.0696 68.24C45.9796 64.07 40.0997 63.2 35.9297 66.29C32.1497 69.09 31.0797 74.19 33.2197 78.22C36.9297 77.14 40.7996 77.96 43.7096 80.14Z" fill="#1FB6F4"/>
<path d="M43.2297 89.51C41.8597 87.4 41.5497 84.72 42.4497 82.33C40.0397 80.39 36.7197 79.68 33.5697 80.74C28.6497 82.39 25.9997 87.72 27.6597 92.64C29.1597 97.1 33.6797 99.69 38.1697 98.91C38.2797 95.03 40.2497 91.61 43.2297 89.51Z" fill="#1FB6F4"/>
<path d="M64.68 131.22V134.47C64.07 135.82 62.71 136.75 61.14 136.75C58.98 136.75 57.23 135 57.23 132.85C57.23 130.69 58.98 128.94 61.14 128.94C62.71 128.94 64.07 129.87 64.68 131.22Z" fill="#20C9AF"/>
<path d="M59.0496 138.13C57.3796 137.47 56.0896 136.04 55.6296 134.29C53.4296 134.16 51.2096 135.12 49.8196 137.04C47.6496 140.03 48.3096 144.21 51.2996 146.39C54.0096 148.36 57.6997 148 59.9897 145.69C58.4597 143.38 58.1896 140.58 59.0496 138.13Z" fill="#1FB6F4"/>
<path d="M64.6796 137.28V147.23C63.4896 146.79 62.4196 146 61.6196 144.9C60.2296 142.98 60.0096 140.58 60.8096 138.52C62.2196 138.61 63.5996 138.15 64.6796 137.28Z" fill="#1FB6F4"/>
<path d="M64.6795 117.14V128.41C63.2795 127.28 61.4295 126.91 59.7195 127.34C58.9795 124.86 57.1095 122.75 54.5195 121.79C55.0095 118.58 57.7895 116.12 61.1395 116.12C62.4395 116.12 63.6595 116.49 64.6795 117.14Z" fill="#1FB6F4"/>
<path d="M55.4598 132.5C55.5698 130.71 56.5298 129.04 58.0598 128.06C57.4998 125.93 55.9098 124.11 53.6498 123.38C50.1398 122.24 46.3598 124.16 45.2198 127.68C44.1798 130.87 45.6698 134.27 48.5698 135.72C50.2898 133.55 52.8698 132.43 55.4598 132.5Z" fill="#1FB6F4"/>
<path d="M36.1998 51.13C37.089 51.13 37.8098 50.4092 37.8098 49.52C37.8098 48.6309 37.089 47.91 36.1998 47.91C35.3107 47.91 34.5898 48.6309 34.5898 49.52C34.5898 50.4092 35.3107 51.13 36.1998 51.13Z" fill="#1FB6F4"/>
<path d="M35.3396 51.7C34.6496 51.43 34.1196 50.84 33.9296 50.12C33.0196 50.07 32.1096 50.46 31.5396 51.25C30.6496 52.48 30.9197 54.21 32.1497 55.1C33.2697 55.91 34.7896 55.76 35.7296 54.81C35.0996 53.86 34.9896 52.71 35.3396 51.7Z" fill="#20C9AF"/>
<path d="M38.0098 51.01C37.5398 51.58 36.8198 51.9 36.0698 51.86C35.7398 52.71 35.8298 53.7 36.4098 54.49C37.2998 55.72 39.0298 55.99 40.2598 55.1C41.3798 54.29 41.7098 52.8 41.0898 51.61C39.9898 51.91 38.8598 51.66 38.0098 51.01Z" fill="#20C9AF"/>
<path d="M38.1797 48.26C38.5797 48.88 38.6597 49.67 38.3897 50.37C39.0897 50.95 40.0597 51.16 40.9897 50.86C42.4397 50.39 43.2297 48.83 42.7597 47.39C42.3297 46.08 41.0197 45.3 39.6897 45.52C39.6497 46.66 39.0597 47.66 38.1797 48.26Z" fill="#20C9AF"/>
<path d="M35.6197 47.25C36.3397 47.07 37.1097 47.23 37.6897 47.7C38.4497 47.21 38.9597 46.35 38.9597 45.38C38.9597 43.86 37.7297 42.62 36.1997 42.62C34.8197 42.62 33.6797 43.63 33.4697 44.96C34.5497 45.36 35.3097 46.23 35.6197 47.25Z" fill="#20C9AF"/>
<path d="M33.8698 49.38C33.9198 48.64 34.3098 47.96 34.9398 47.55C34.7098 46.67 34.0498 45.92 33.1198 45.62C31.6698 45.15 30.1198 45.94 29.6498 47.39C29.2198 48.7 29.8298 50.1 31.0298 50.7C31.7298 49.81 32.7998 49.35 33.8698 49.38Z" fill="#20C9AF"/>
<path d="M36.1998 118.56C37.089 118.56 37.8098 117.839 37.8098 116.95C37.8098 116.061 37.089 115.34 36.1998 115.34C35.3107 115.34 34.5898 116.061 34.5898 116.95C34.5898 117.839 35.3107 118.56 36.1998 118.56Z" fill="#1FB6F4"/>
<path d="M35.3396 119.13C34.6496 118.86 34.1196 118.27 33.9296 117.55C33.0196 117.5 32.1096 117.89 31.5396 118.68C30.6496 119.91 30.9197 121.64 32.1497 122.53C33.2697 123.34 34.7896 123.19 35.7296 122.24C35.0996 121.29 34.9896 120.14 35.3396 119.13Z" fill="#20C9AF"/>
<path d="M38.0098 118.44C37.5398 119.01 36.8198 119.33 36.0698 119.29C35.7398 120.14 35.8298 121.13 36.4098 121.92C37.2998 123.15 39.0298 123.42 40.2598 122.53C41.3798 121.72 41.7098 120.23 41.0898 119.04C39.9898 119.34 38.8598 119.09 38.0098 118.44Z" fill="#20C9AF"/>
<path d="M38.1797 115.69C38.5797 116.31 38.6597 117.1 38.3897 117.8C39.0897 118.38 40.0597 118.59 40.9897 118.29C42.4397 117.82 43.2297 116.26 42.7597 114.82C42.3297 113.51 41.0197 112.73 39.6897 112.95C39.6497 114.09 39.0597 115.09 38.1797 115.69Z" fill="#20C9AF"/>
<path d="M35.6197 114.69C36.3397 114.51 37.1097 114.67 37.6897 115.14C38.4497 114.65 38.9597 113.79 38.9597 112.82C38.9597 111.3 37.7297 110.06 36.1997 110.06C34.8197 110.06 33.6797 111.07 33.4697 112.4C34.5497 112.79 35.3097 113.66 35.6197 114.69Z" fill="#20C9AF"/>
<path d="M33.8698 116.81C33.9198 116.07 34.3098 115.39 34.9398 114.98C34.7098 114.1 34.0498 113.35 33.1198 113.05C31.6698 112.58 30.1198 113.37 29.6498 114.82C29.2198 116.13 29.8298 117.53 31.0298 118.13C31.7298 117.24 32.7998 116.78 33.8698 116.81Z" fill="#20C9AF"/>
<path d="M64.6798 0H15.3198V8.85H64.6798V0Z" fill="#21D2B2"/>
<path d="M37.4498 0H15.3198V8.85H37.4498V0Z" fill="#197C7A"/>
</g>
<defs>
<clipPath id="clip0_317_10958">
<rect width="80" height="170" fill="white"/>
</clipPath>
</defs>
</svg>
