<svg width="80" height="170" viewBox="0 0 80 170" fill="none" xmlns="http://www.w3.org/2000/svg">
<g clip-path="url(#clip0_317_11031)">
<path d="M64.4498 8.93005V88.1101H44.2698V41.9901C42.9498 42.2001 41.5898 42.3101 40.1998 42.3101C38.6698 42.3101 37.1698 42.1801 35.7298 41.9301V88.1101H15.5498V8.93005H64.4498Z" fill="#F9364D"/>
<path d="M15.5498 0V88.1H35.7298V41.93C37.1698 42.18 38.6698 42.31 40.1998 42.31C41.5898 42.31 42.9498 42.21 44.2698 41.99V88.11H64.4498V0H15.5498Z" fill="#F9364D"/>
<path d="M64.6799 86.5601H44.1399C43.4299 86.5601 42.8599 87.1301 42.8599 87.8401V90.5301C42.8599 91.2401 43.4299 91.8101 44.1399 91.8101H64.6799C65.3899 91.8101 65.9599 91.2401 65.9599 90.5301V87.8401C65.9599 87.1301 65.3899 86.5601 64.6799 86.5601Z" fill="#952B2B"/>
<path d="M35.7298 41.93V88.11H15.5498V24.64C15.5498 24.64 18.4098 39.6 35.7298 41.93Z" fill="#C62C3F"/>
<path d="M35.86 86.5601H15.32C14.61 86.5601 14.04 87.1301 14.04 87.8401V90.5301C14.04 91.2401 14.61 91.8101 15.32 91.8101H35.86C36.57 91.8101 37.14 91.2401 37.14 90.5301V87.8401C37.14 87.1301 36.57 86.5601 35.86 86.5601Z" fill="#952B2B"/>
<path d="M64.4498 0H15.5498V8.93H64.4498V0Z" fill="#932729"/>
<path d="M64.4502 14.1101V21.1801L52.2002 8.93005H59.2702L64.4502 14.1101Z" fill="#922829"/>
<path d="M64.4503 27.2801V34.3401L39.0303 8.93005H46.1003L64.4503 27.2801Z" fill="#B2283A"/>
<path d="M64.4502 39.3201V46.3901L26.9902 8.93005H34.0502L64.4502 39.3201Z" fill="#CF2E3F"/>
</g>
<defs>
<clipPath id="clip0_317_11031">
<rect width="80" height="170" fill="white"/>
</clipPath>
</defs>
</svg>
