<svg width="86" height="76" viewBox="0 0 86 76" fill="none" xmlns="http://www.w3.org/2000/svg">
<g clip-path="url(#clip0_301_11301)">
<path d="M45.4899 75.145C44.3299 75.145 43.3899 74.205 43.3899 73.045V70.525C43.3899 69.845 43.7199 69.225 44.2499 68.845L42.7899 41.805C42.3999 41.805 41.9999 41.815 41.8299 41.815C41.4099 41.815 41.1699 41.795 40.9599 41.785L39.4999 68.525C40.3499 68.795 40.9699 69.595 40.9699 70.525V73.045C40.9699 74.205 40.0299 75.145 38.8699 75.145H17.6399C16.4799 75.145 15.5399 74.205 15.5399 73.045V70.525C15.5399 69.735 15.9699 69.055 16.6199 68.695L15.5399 34.105C14.6499 33.525 13.7799 32.905 12.9799 32.285L12.9299 32.255L12.8999 32.225C10.5899 30.445 8.53986 28.465 6.80986 26.335C6.71986 26.225 6.62986 26.115 6.54986 26.005C6.13986 25.505 5.72986 24.945 5.38986 24.465C2.28986 20.015 0.539863 15.205 0.179863 10.155C0.139863 9.49498 0.109863 8.85498 0.109863 8.24498C0.109863 6.80498 0.229863 5.34498 0.469863 3.92498C0.579863 3.18498 0.749863 2.40498 0.969863 1.55498L1.14986 0.85498H84.2299L84.4099 1.54498C84.6299 2.39498 84.7899 3.17498 84.9099 3.93498C85.1499 5.35498 85.2699 6.80498 85.2699 8.24498C85.2699 8.88498 85.2399 9.51498 85.1999 10.145C85.1699 10.595 85.1399 10.995 85.0799 11.395C84.5299 16.165 82.7099 20.715 79.6799 24.885C79.3199 25.395 78.9099 25.925 78.4799 26.425C78.4299 26.505 78.2999 26.655 78.1699 26.795C75.4799 30.005 72.1099 32.815 68.1799 35.135L67.1199 68.475C68.0799 68.665 68.8099 69.515 68.8099 70.535V73.055C68.8099 74.215 67.8699 75.155 66.7099 75.155H45.4899V75.145Z" fill="#9AA4D1"/>
<path d="M17.5697 71.785H38.5297L40.0497 40.815C23.8297 39.435 16.4697 33.605 16.4697 33.605L17.5697 71.785Z" fill="#7A82A6"/>
<path d="M84.2699 10.095C84.2399 10.485 84.2099 10.875 84.1599 11.265C83.6199 15.985 81.7799 20.415 78.9299 24.345C78.5699 24.855 78.1799 25.355 77.7799 25.835C77.6999 25.955 77.5999 26.065 77.4899 26.175C74.7499 29.445 71.2799 32.305 67.2599 34.605L66.1599 71.795H45.2099L43.6999 40.885C43.3699 40.895 43.0399 40.905 42.6899 40.905C41.7999 40.905 40.9199 40.875 40.0399 40.835C23.8299 39.455 16.4599 33.625 16.4599 33.625C15.4399 32.975 14.4699 32.295 13.5299 31.575C13.5199 31.565 13.4999 31.555 13.4899 31.545C11.2299 29.815 9.22986 27.885 7.51986 25.775C7.43986 25.675 7.35986 25.585 7.28986 25.475C6.87986 24.975 6.50986 24.455 6.13986 23.945C3.24986 19.785 1.45986 15.085 1.10986 10.095H84.2699Z" fill="#9AA4D1"/>
<path d="M38.77 69.345H17.74C17.03 69.345 16.46 69.915 16.46 70.625V72.945C16.46 73.655 17.03 74.225 17.74 74.225H38.77C39.48 74.225 40.05 73.655 40.05 72.945V70.625C40.04 69.915 39.47 69.345 38.77 69.345Z" fill="#595E78"/>
<path d="M66.6096 69.345H45.5896C44.8796 69.345 44.3096 69.915 44.3096 70.625V72.945C44.3096 73.655 44.8796 74.225 45.5896 74.225H66.6096C67.3196 74.225 67.8896 73.655 67.8896 72.945V70.625C67.8896 69.915 67.3196 69.345 66.6096 69.345Z" fill="#595E78"/>
<path d="M56.0997 70.2651C55.5897 70.2651 55.1797 69.8551 55.1797 69.3451V43.7351C55.1797 43.2251 55.5897 42.8151 56.0997 42.8151C56.6097 42.8151 57.0197 43.2251 57.0197 43.7351V69.3451C57.0197 69.8551 56.6097 70.2651 56.0997 70.2651Z" fill="#595E78"/>
<path d="M15.2298 12.6351C15.2298 12.7551 15.2298 12.8951 15.2198 13.0251C15.0798 18.4651 11.8998 23.1651 7.29979 25.4751C6.88979 24.9751 6.51978 24.4551 6.14979 23.9451C3.24978 19.7851 1.45979 15.0851 1.10979 10.0951C1.05979 9.48507 1.02979 8.86507 1.02979 8.24507C1.02979 6.83507 1.14979 5.43507 1.37979 4.07507H12.4198C12.6298 4.36507 12.8398 4.66507 13.0298 4.97507C13.9898 6.50507 14.6698 8.24507 14.9998 10.0951C15.1498 10.9151 15.2298 11.7651 15.2298 12.6351Z" fill="#747B9D"/>
<path d="M16.3496 10.0951C16.2996 8.00507 15.8996 5.98507 15.1396 4.07507H12.6496C12.7896 4.37507 12.9196 4.66507 13.0296 4.97507C13.6696 6.59507 14.0296 8.32507 14.0696 10.0951C14.0796 10.2551 14.0796 10.3951 14.0796 10.5551C14.0796 10.6651 14.0796 10.7951 14.0696 10.9751C13.9296 16.5351 10.7396 21.3851 6.13965 23.9451C6.50965 24.4651 6.88965 24.9751 7.28965 25.4751C7.35965 25.5751 7.43965 25.6651 7.51965 25.7751C12.6496 22.8051 16.1896 17.3351 16.3296 11.1151C16.3496 10.9451 16.3496 10.7451 16.3496 10.5751C16.3596 10.3951 16.3596 10.2451 16.3496 10.0951Z" fill="#595E78"/>
<path d="M84.3398 8.24507C84.3398 8.86507 84.3098 9.48507 84.2798 10.0951C84.2498 10.4851 84.2198 10.8751 84.1698 11.2651C83.6298 15.9851 81.7898 20.4151 78.9398 24.3451C78.5798 24.8551 78.1898 25.3551 77.7898 25.8351C72.7798 23.6851 69.2398 18.7751 69.0998 13.0251C69.0898 12.8951 69.0898 12.7551 69.0898 12.6351C69.0898 11.7651 69.1598 10.9151 69.3198 10.0951C69.6298 8.25507 70.3098 6.55507 71.2498 5.02507C71.2498 5.01507 71.2598 5.01507 71.2598 5.00507C71.2598 4.99507 71.2698 4.99507 71.2698 4.99507C71.4698 4.67507 71.6798 4.36507 71.8998 4.07507H84.0098C84.2198 5.44507 84.3398 6.83507 84.3398 8.24507Z" fill="#747B9D"/>
<path d="M70.2199 10.9651C70.2099 10.7951 70.2099 10.6651 70.2099 10.5551C70.2099 10.3951 70.2099 10.2551 70.2199 10.0951C70.2699 8.35507 70.6199 6.62507 71.2399 5.02507C71.2399 5.01507 71.2499 5.01507 71.2499 5.00507C71.2499 4.99507 71.2599 4.99507 71.2599 4.99507C71.3699 4.68507 71.5099 4.37507 71.6499 4.07507H69.1599C68.3999 5.98507 67.9999 8.00507 67.9499 10.0951C67.9399 10.2551 67.9399 10.3951 67.9399 10.5551C67.9399 10.7351 67.9399 10.9351 67.9599 11.0951C68.1199 17.6051 71.9799 23.2951 77.4999 26.1651C77.5999 26.0551 77.6999 25.9451 77.7899 25.8251C78.1999 25.3451 78.5799 24.8451 78.9399 24.3351C73.9199 21.9251 70.3699 16.8251 70.2199 10.9651Z" fill="#595E78"/>
<path d="M84.3398 8.24502C84.3398 8.86502 84.3098 9.48502 84.2798 10.095H1.10979C1.05979 9.48502 1.02979 8.86502 1.02979 8.24502C1.02979 6.83502 1.14979 5.43502 1.37979 4.07502C1.49979 3.29502 1.66979 2.53502 1.85979 1.77502H83.5098C83.6998 2.53502 83.8698 3.29502 83.9898 4.07502C84.2198 5.44502 84.3398 6.83502 84.3398 8.24502Z" fill="#5C627C"/>
</g>
<defs>
<clipPath id="clip0_301_11301">
<rect width="85.15" height="74.29" fill="white" transform="translate(0.109863 0.85498)"/>
</clipPath>
</defs>
</svg>
