<svg width="91" height="58" viewBox="0 0 91 58" fill="none" xmlns="http://www.w3.org/2000/svg">
<g clip-path="url(#clip0_302_397)">
<path d="M90.6802 11H0.410156V57.11H90.6802V11Z" fill="#FF9166"/>
<path d="M7.32016 11H0.410156V57.11H7.32016V11Z" fill="#EB564B"/>
<path d="M17.7904 57.11H15.1104V37.63C15.1104 36.92 15.6804 36.35 16.3904 36.35H16.5204C17.2304 36.35 17.8004 36.92 17.8004 37.63V57.11H17.7904Z" fill="#8C3F5D"/>
<path d="M90.6802 0.890015H0.410156V11H90.6802V0.890015Z" fill="#EB564B"/>
<path d="M3.41016 7.71997H0.410156V9.71997H3.41016V7.71997Z" fill="#8C3F5D"/>
<path d="M23.2401 9.71997H18.2801V7.71997H23.2401V9.71997ZM13.3201 9.71997H8.37012V7.71997H13.3301V9.71997H13.3201Z" fill="#8C3F5D"/>
<path d="M82.7199 9.71997H77.7599V7.71997H82.7199V9.71997ZM72.8099 9.71997H67.8499V7.71997H72.8099V9.71997ZM62.8899 9.71997H57.9299V7.71997H62.8899V9.71997ZM52.9799 9.71997H48.0199V7.71997H52.9799V9.71997ZM43.0699 9.71997H38.1099V7.71997H43.0699V9.71997ZM33.1499 9.71997H28.1899V7.71997H33.1499V9.71997Z" fill="#8C3F5D"/>
<path d="M90.6802 7.71997H87.6802V9.71997H90.6802V7.71997Z" fill="#8C3F5D"/>
</g>
<defs>
<clipPath id="clip0_302_397">
<rect width="90.27" height="56.22" fill="white" transform="translate(0.410156 0.890015)"/>
</clipPath>
</defs>
</svg>
