<svg width="52" height="92" viewBox="0 0 52 92" fill="none" xmlns="http://www.w3.org/2000/svg">
<g clip-path="url(#clip0_301_3480)">
<path d="M1.53955 0.10498V88.205H21.7196V42.025C23.1596 42.275 24.6595 42.405 26.1896 42.405C27.5795 42.405 28.9396 42.305 30.2596 42.085V88.205H50.4396V0.10498H1.53955Z" fill="#FFB5B5"/>
<path d="M50.6696 86.655H30.1296C29.4196 86.655 28.8496 87.225 28.8496 87.935V90.625C28.8496 91.335 29.4196 91.905 30.1296 91.905H50.6696C51.3796 91.905 51.9496 91.335 51.9496 90.625V87.935C51.9396 87.235 51.3696 86.655 50.6696 86.655Z" fill="#BD4882"/>
<path d="M16.7896 8.64498C16.7896 8.77498 16.7896 8.90498 16.7796 9.03498C16.5896 16.775 10.2396 23.005 2.42955 23.005C2.12955 23.005 1.83955 22.995 1.53955 22.975V0.10498H13.9896C15.7396 2.48498 16.7896 5.44498 16.7896 8.64498Z" fill="#FF6B97"/>
<path d="M50.4395 0.104971V22.965C50.1395 22.985 49.8495 22.995 49.5395 22.995C41.7395 22.995 35.3895 16.765 35.1995 9.02497C35.1895 8.89497 35.1895 8.76497 35.1895 8.63497C35.1895 5.43497 36.2395 2.47497 37.9895 0.0949707H50.4395V0.104971Z" fill="#FF6B97"/>
<path d="M16.7098 0.10498H14.2298C15.1698 2.11498 15.6598 4.31498 15.6598 6.56498C15.6598 6.67498 15.6598 6.80498 15.6498 6.98498C15.4598 14.785 9.2298 21.205 1.5498 21.805V24.085C10.4698 23.485 17.7098 16.055 17.9198 7.10498C17.9398 6.93498 17.9398 6.74498 17.9398 6.55498C17.9298 4.32498 17.5198 2.14498 16.7098 0.10498Z" fill="#BD4882"/>
<path d="M36.3296 6.31498C36.3196 6.20498 36.3196 6.07498 36.3196 5.96498C36.3196 3.93498 36.6996 1.95498 37.4296 0.10498H34.9996C34.3696 1.97498 34.0396 3.94498 34.0396 5.96498C34.0396 6.14498 34.0396 6.34498 34.0496 6.45498C34.2896 15.615 41.4696 23.155 50.4296 24.045V21.755C42.7096 20.875 36.5396 14.325 36.3296 6.31498Z" fill="#BD4882"/>
<path d="M21.7196 42.025V88.205H1.53955V24.745C1.53955 24.745 4.39955 39.705 21.7196 42.025Z" fill="#FF6B97"/>
<path d="M21.8498 86.655H1.30979C0.599785 86.655 0.0297852 87.235 0.0297852 87.935V90.625C0.0297852 91.335 0.599785 91.905 1.30979 91.905H21.8498C22.5598 91.905 23.1298 91.335 23.1298 90.625V87.935C23.1198 87.235 22.5498 86.655 21.8498 86.655Z" fill="#BD4882"/>
<path d="M50.4398 35.185V53.085L50.1798 53.025L41.4998 60.345L40.9598 48.995L31.3198 43.015L41.9398 38.995L44.6598 27.975L50.4398 35.185Z" fill="#FF6B97"/>
<path d="M50.4396 0.10498H1.53955V9.03498H50.4396V0.10498Z" fill="#BD4882"/>
</g>
<defs>
<clipPath id="clip0_301_3480">
<rect width="51.91" height="91.79" fill="white" transform="translate(0.0297852 0.10498)"/>
</clipPath>
</defs>
</svg>
