<svg width="54" height="62" viewBox="0 0 54 62" fill="none" xmlns="http://www.w3.org/2000/svg">
<g clip-path="url(#clip0_301_5299)">
<path d="M28.4999 61.915C27.7599 61.915 27.1599 61.325 27.1599 60.605V59.035C27.1599 58.605 27.3699 58.225 27.7099 57.985L26.7799 25.665C26.5299 25.665 26.2799 25.665 26.1699 25.665C25.8999 25.665 25.7499 25.655 25.6199 25.645L24.6899 57.775C25.2299 57.945 25.6299 58.445 25.6299 59.025V60.595C25.6299 61.315 25.0299 61.905 24.2899 61.905H10.7399C9.99994 61.905 9.39994 61.315 9.39994 60.595V59.025C9.39994 58.535 9.66994 58.105 10.0899 57.885L9.17994 20.855C8.60994 20.485 7.70994 19.685 7.70994 19.685C6.22994 18.575 3.76994 15.135 3.54994 14.835C1.56994 12.055 0.449941 9.05496 0.229941 5.89496C0.209941 5.48496 0.189941 5.07496 0.189941 4.70496C0.189941 3.80496 0.269941 2.89496 0.419941 2.00496C0.489941 1.54496 0.599941 1.05496 0.739941 0.514961L0.849941 0.0849609H52.5899L52.6999 0.514961C52.8399 1.04496 52.9399 1.53496 53.0199 2.00496C53.1699 2.88496 53.2499 3.79496 53.2499 4.69496C53.2499 5.09496 53.2299 5.49496 53.2099 5.88496C53.1899 6.16496 53.1699 6.42496 53.1299 6.66496C52.7799 9.64496 51.6199 12.485 49.6899 15.085C49.4599 15.405 49.1999 15.735 48.9299 16.045C48.8999 16.095 48.8099 16.185 48.7299 16.275C47.0099 18.285 45.4899 20.035 42.9899 21.485L42.3099 57.735C42.9199 57.855 43.3899 58.385 43.3899 59.025V60.595C43.3899 61.315 42.7899 61.905 42.0499 61.905H28.4999V61.915Z" fill="#9AA4D1"/>
<path d="M10.6897 59.8149H24.0597L25.0297 25.0449C14.6897 24.1849 9.98975 20.5349 9.98975 20.5349L10.6897 59.8149Z" fill="#7A82A6"/>
<path d="M52.6198 5.85486C52.5998 6.09486 52.5798 6.34486 52.5498 6.58486C52.1998 9.53486 51.0298 12.3049 49.2098 14.7549C48.9798 15.0749 48.7298 15.3849 48.4698 15.6849C48.4198 15.7549 48.3498 15.8249 48.2898 15.8949C46.5398 17.9349 44.9598 19.7249 42.3998 21.1549L41.6998 59.8049H28.3198L27.3498 25.0649C27.1498 25.0849 26.9298 25.0849 26.7198 25.0849C26.1498 25.0849 25.5898 25.0649 25.0298 25.0349C14.6898 24.1749 9.98982 20.5349 9.98982 20.5349C9.33982 20.1349 6.01982 16.9449 4.92982 15.6349C4.87982 15.5749 4.82982 15.5149 4.77982 15.4549C4.51982 15.1449 4.27982 14.8249 4.03982 14.4949C2.18982 11.9049 1.04982 8.97486 0.819824 5.85486H52.6198Z" fill="#9AA4D1"/>
<path d="M23.75 58.2849H11.26C10.55 58.2849 9.97998 58.8549 9.97998 59.5649V60.0549C9.97998 60.7649 10.55 61.3349 11.26 61.3349H23.75C24.46 61.3349 25.03 60.7649 25.03 60.0549V59.5649C25.03 58.8649 24.46 58.2849 23.75 58.2849Z" fill="#595E78"/>
<path d="M41.52 58.2849H29.03C28.32 58.2849 27.75 58.8549 27.75 59.5649V60.0549C27.75 60.7649 28.32 61.3349 29.03 61.3349H41.52C42.23 61.3349 42.8 60.7649 42.8 60.0549V59.5649C42.8 58.8649 42.22 58.2849 41.52 58.2849Z" fill="#595E78"/>
<path d="M35.2697 58.8649C34.9397 58.8649 34.6797 58.6049 34.6797 58.2849V26.8649C34.6797 26.5449 34.9397 26.2849 35.2697 26.2849C35.5997 26.2849 35.8597 26.5449 35.8597 26.8649V58.2849C35.8597 58.6049 35.5997 58.8649 35.2697 58.8649Z" fill="#595E78"/>
<path d="M9.82979 7.43485C9.82979 7.50485 9.82979 7.59485 9.81979 7.67485C9.72978 11.0748 7.69979 14.0048 4.76979 15.4548C4.50979 15.1448 4.26979 14.8248 4.02979 14.4948C2.18979 11.9048 1.04979 8.97485 0.829785 5.85485C0.799785 5.47485 0.779785 5.08485 0.779785 4.70485C0.779785 3.82485 0.859785 2.95485 0.999785 2.09485H8.03978C8.17978 2.27485 8.29978 2.46485 8.42978 2.65485C9.03978 3.61485 9.47978 4.69485 9.67978 5.85485C9.78978 6.36485 9.82979 6.89485 9.82979 7.43485Z" fill="#747B9D"/>
<path d="M10.5496 5.85485C10.5196 4.55485 10.2596 3.29485 9.77955 2.09485H8.18955C8.27955 2.28485 8.35955 2.46485 8.42955 2.65485C8.83955 3.66485 9.06955 4.74485 9.09955 5.85485C9.10955 5.95485 9.10955 6.04485 9.10955 6.14485C9.10955 6.21485 9.10955 6.29485 9.09955 6.40485C9.00955 9.87485 6.96955 12.9048 4.03955 14.5048C4.27955 14.8248 4.51955 15.1548 4.77955 15.4648C4.82955 15.5248 4.86955 15.5848 4.92955 15.6448C8.19955 13.7848 10.4596 10.3748 10.5496 6.48485C10.5596 6.38485 10.5596 6.25485 10.5596 6.14485C10.5596 6.04485 10.5596 5.95485 10.5496 5.85485Z" fill="#595E78"/>
<path d="M52.6597 4.70485C52.6597 5.09485 52.6397 5.47485 52.6197 5.85485C52.5997 6.09485 52.5797 6.34485 52.5497 6.58485C52.1997 9.53485 51.0297 12.3048 49.2097 14.7548C48.9797 15.0748 48.7297 15.3848 48.4697 15.6848C45.2697 14.3448 43.0197 11.2748 42.9197 7.68485C42.9097 7.60485 42.9097 7.51485 42.9097 7.44485C42.9097 6.90485 42.9597 6.37485 43.0597 5.85485C43.2597 4.70485 43.6897 3.64485 44.2897 2.69485C44.2897 2.68485 44.2997 2.68485 44.2997 2.68485C44.2997 2.67485 44.3097 2.67485 44.3097 2.67485C44.4397 2.47485 44.5697 2.28485 44.7097 2.09485H52.4297C52.5797 2.94485 52.6597 3.81485 52.6597 4.70485Z" fill="#747B9D"/>
<path d="M43.6499 6.40485C43.6399 6.29485 43.6399 6.21485 43.6399 6.14485C43.6399 6.04485 43.6399 5.95485 43.6499 5.85485C43.6799 4.76485 43.8999 3.68485 44.2999 2.69485C44.2999 2.68485 44.3099 2.68485 44.3099 2.68485C44.3099 2.67485 44.3199 2.67485 44.3199 2.67485C44.3899 2.47485 44.4799 2.28485 44.5699 2.09485H42.9799C42.4999 3.28485 42.2399 4.55485 42.2099 5.85485C42.1899 5.95485 42.1899 6.04485 42.1899 6.14485C42.1899 6.25485 42.1899 6.38485 42.1999 6.48485C42.2999 10.5448 44.7699 14.1048 48.2899 15.8948C48.3499 15.8248 48.4199 15.7548 48.4699 15.6848C48.7299 15.3848 48.9799 15.0748 49.2099 14.7548C46.0099 13.2448 43.7499 10.0648 43.6499 6.40485Z" fill="#595E78"/>
<path d="M52.6598 4.70491C52.6598 5.09491 52.6398 5.47491 52.6198 5.85491H0.829785C0.799785 5.47491 0.779785 5.08491 0.779785 4.70491C0.779785 3.82491 0.859785 2.95491 0.999785 2.09491C1.07979 1.61491 1.17979 1.13491 1.30979 0.654907H52.1298C52.2498 1.12491 52.3598 1.60491 52.4398 2.09491C52.5798 2.94491 52.6598 3.81491 52.6598 4.70491Z" fill="#5C627C"/>
</g>
<defs>
<clipPath id="clip0_301_5299">
<rect width="53.06" height="61.83" fill="white" transform="translate(0.189941 0.0849609)"/>
</clipPath>
</defs>
</svg>
