<svg width="86" height="58" viewBox="0 0 86 58" fill="none" xmlns="http://www.w3.org/2000/svg">
<g clip-path="url(#clip0_301_11222)">
<path d="M45.5001 57.535C44.3401 57.535 43.4001 56.595 43.4001 55.435V52.915C43.4001 52.235 43.7301 51.615 44.2601 51.235L42.8001 41.415C42.4101 41.415 42.0101 41.425 41.8401 41.425C41.4201 41.425 41.1801 41.405 40.9701 41.395L39.5101 50.915C40.3601 51.185 40.9801 51.985 40.9801 52.915V55.435C40.9801 56.595 40.0401 57.535 38.8801 57.535H17.6501C16.4901 57.535 15.5501 56.595 15.5501 55.435V52.915C15.5501 52.125 15.9801 51.445 16.6301 51.085L15.5501 33.715C14.6601 33.135 13.7901 32.515 12.9901 31.895L12.9401 31.865L12.9101 31.835C10.6001 30.055 8.55012 28.075 6.82012 25.945C6.73012 25.835 6.64012 25.725 6.56012 25.615C6.15012 25.115 5.74012 24.555 5.40012 24.075C2.30012 19.625 0.550117 14.815 0.190117 9.76497C0.150117 9.10497 0.120117 8.46497 0.120117 7.85497C0.120117 6.41497 0.240117 4.95497 0.480117 3.53497C0.590117 2.79497 0.760117 2.01497 0.980117 1.16497L1.16012 0.464966H84.2401L84.4201 1.15497C84.6401 2.00497 84.8001 2.78497 84.9201 3.54497C85.1601 4.96497 85.2801 6.41497 85.2801 7.85497C85.2801 8.49497 85.2501 9.12497 85.2101 9.75497C85.1801 10.205 85.1501 10.605 85.0901 11.005C84.5401 15.775 82.7201 20.325 79.6901 24.495C79.3301 25.005 78.9201 25.535 78.4901 26.035C78.4401 26.115 78.3101 26.265 78.1801 26.405C75.4901 29.615 72.1201 32.425 68.1901 34.745L67.1301 50.865C68.0901 51.055 68.8201 51.905 68.8201 52.925V55.445C68.8201 56.605 67.8801 57.545 66.7201 57.545H45.5001V57.535Z" fill="#FF6B97"/>
<path d="M17.58 54.175H38.54L40.06 40.425C23.84 39.045 16.48 33.215 16.48 33.215L17.58 54.175Z" fill="#FF6B97"/>
<path d="M84.2801 9.70496C84.2501 10.095 84.2201 10.485 84.1701 10.875C83.6301 15.595 81.7901 20.025 78.9401 23.955C78.5801 24.465 78.1901 24.965 77.7901 25.445C77.7101 25.565 77.6101 25.675 77.5001 25.785C74.7601 29.055 71.2901 31.915 67.2701 34.215L66.1701 54.185H45.2201L43.7101 40.485C43.3801 40.495 43.0501 40.505 42.7001 40.505C41.8101 40.505 40.9301 40.475 40.0501 40.435C23.8401 39.055 16.4701 33.225 16.4701 33.225C15.4501 32.575 14.4801 31.895 13.5401 31.175C13.5301 31.165 13.5101 31.155 13.5001 31.145C11.2401 29.415 9.24012 27.485 7.53012 25.375C7.45012 25.275 7.37012 25.185 7.30012 25.075C6.89012 24.575 6.52012 24.055 6.15012 23.545C3.26012 19.395 1.47012 14.695 1.12012 9.70496H84.2801Z" fill="#FFB5B5"/>
<path d="M38.7802 51.735H17.7502C17.0402 51.735 16.4702 52.305 16.4702 53.015V55.335C16.4702 56.045 17.0402 56.615 17.7502 56.615H38.7802C39.4902 56.615 40.0602 56.045 40.0602 55.335V53.015C40.0502 52.305 39.4802 51.735 38.7802 51.735Z" fill="#BD4882"/>
<path d="M66.6198 51.735H45.5998C44.8898 51.735 44.3198 52.305 44.3198 53.015V55.335C44.3198 56.045 44.8898 56.615 45.5998 56.615H66.6198C67.3298 56.615 67.8998 56.045 67.8998 55.335V53.015C67.8998 52.305 67.3298 51.735 66.6198 51.735Z" fill="#BD4882"/>
<path d="M15.24 12.2451C15.24 12.3651 15.24 12.5051 15.23 12.6351C15.09 18.0751 11.91 22.7751 7.31004 25.0851C6.90004 24.5851 6.53004 24.0651 6.16004 23.5551C3.26004 19.3951 1.47004 14.6951 1.12004 9.70506C1.07004 9.09506 1.04004 8.47506 1.04004 7.85506C1.04004 6.44506 1.16004 5.04506 1.39004 3.68506H12.43C12.64 3.97506 12.85 4.27506 13.04 4.58506C14 6.11506 14.68 7.85506 15.01 9.70506C15.16 10.5251 15.24 11.3751 15.24 12.2451Z" fill="#FF6B97"/>
<path d="M16.3599 9.70506C16.3099 7.61506 15.9099 5.59506 15.1499 3.68506H12.6599C12.7999 3.98506 12.9299 4.27506 13.0399 4.58506C13.6799 6.20506 14.0399 7.93506 14.0799 9.70506C14.0899 9.86506 14.0899 10.0051 14.0899 10.1651C14.0899 10.2751 14.0899 10.4051 14.0799 10.5851C13.9399 16.1451 10.7499 20.9951 6.1499 23.5551C6.5199 24.0751 6.8999 24.5851 7.2999 25.0851C7.3699 25.1851 7.4499 25.2751 7.5299 25.3851C12.6599 22.4151 16.1999 16.9451 16.3399 10.7251C16.3599 10.5551 16.3599 10.3551 16.3599 10.1851C16.3699 10.0051 16.3699 9.85506 16.3599 9.70506Z" fill="#BD4882"/>
<path d="M84.3501 7.85506C84.3501 8.47506 84.3201 9.09506 84.2901 9.70506C84.2601 10.0951 84.2301 10.4851 84.1801 10.8751C83.6401 15.5951 81.8001 20.0251 78.9501 23.9551C78.5901 24.4651 78.2001 24.9651 77.8001 25.4451C72.7901 23.2951 69.2501 18.3851 69.1101 12.6351C69.1001 12.5051 69.1001 12.3651 69.1001 12.2451C69.1001 11.3751 69.1701 10.5251 69.3301 9.70506C69.6401 7.86506 70.3201 6.16506 71.2601 4.63506C71.2601 4.62506 71.2701 4.62506 71.2701 4.61506C71.2701 4.60506 71.2801 4.60506 71.2801 4.60506C71.4801 4.28506 71.6901 3.97506 71.9101 3.68506H84.0201C84.2301 5.05506 84.3501 6.44506 84.3501 7.85506Z" fill="#FF6B97"/>
<path d="M70.2302 10.5751C70.2202 10.4051 70.2202 10.2751 70.2202 10.1651C70.2202 10.0051 70.2202 9.86506 70.2302 9.70506C70.2802 7.96506 70.6302 6.23506 71.2502 4.63506C71.2502 4.62506 71.2602 4.62506 71.2602 4.61506C71.2602 4.60506 71.2702 4.60506 71.2702 4.60506C71.3802 4.29506 71.5202 3.98506 71.6602 3.68506H69.1702C68.4102 5.59506 68.0102 7.61506 67.9602 9.70506C67.9502 9.86506 67.9502 10.0051 67.9502 10.1651C67.9502 10.3451 67.9502 10.5451 67.9702 10.7051C68.1302 17.2151 71.9902 22.9051 77.5102 25.7751C77.6102 25.6651 77.7102 25.5551 77.8002 25.4351C78.2102 24.9551 78.5902 24.4551 78.9502 23.9451C73.9302 21.5351 70.3802 16.4351 70.2302 10.5751Z" fill="#BD4882"/>
<path d="M84.35 7.85501C84.35 8.47501 84.32 9.09501 84.29 9.70501H1.12004C1.07004 9.09501 1.04004 8.47501 1.04004 7.85501C1.04004 6.44501 1.16004 5.04501 1.39004 3.68501C1.51004 2.90501 1.68004 2.14501 1.87004 1.38501H83.52C83.71 2.14501 83.88 2.90501 84 3.68501C84.23 5.05501 84.35 6.44501 84.35 7.85501Z" fill="#BD4882"/>
<path d="M67.1699 38.515L66.6999 47.455L66.5699 47.415L62.0399 50.835L62.0799 45.155L57.4199 41.915L62.8299 40.195L64.4799 34.755L67.1699 38.515Z" fill="#FF6B97"/>
</g>
<defs>
<clipPath id="clip0_301_11222">
<rect width="85.15" height="57.07" fill="white" transform="translate(0.120117 0.464966)"/>
</clipPath>
</defs>
</svg>
