<svg width="80" height="50" viewBox="0 0 80 50" fill="none" xmlns="http://www.w3.org/2000/svg">
<g clip-path="url(#clip0_301_11242)">
<path d="M79.54 8.23499H0.27002V49.685H79.54V8.23499Z" fill="#E9FBF8"/>
<path d="M5.66002 8.23499H0.27002V49.685H5.66002V8.23499Z" fill="#9AC1B9"/>
<path d="M13.84 49.6849H11.75V25.5949C11.75 25.0149 12.22 24.5449 12.8 24.5449C13.38 24.5449 13.85 25.0149 13.85 25.5949V49.6849H13.84Z" fill="#9AC1B9"/>
<path d="M15.69 0.314941H3.87002C1.88002 0.314941 0.27002 1.92494 0.27002 3.91494V8.23494H15.69V0.314941Z" fill="#197C7A"/>
<path d="M15.6899 0.314941H75.9399C77.9299 0.314941 79.5399 1.92494 79.5399 3.91494V8.23494H15.6899V0.314941Z" fill="#9AC1B9"/>
</g>
<defs>
<clipPath id="clip0_301_11242">
<rect width="79.27" height="49.37" fill="white" transform="translate(0.27002 0.314941)"/>
</clipPath>
</defs>
</svg>
