<svg width="80" height="170" viewBox="0 0 80 170" fill="none" xmlns="http://www.w3.org/2000/svg">
<g clip-path="url(#clip0_317_11050)">
<path d="M65.1501 10.11H14.8501V56.22H65.1501V10.11Z" fill="#FF9166"/>
<path d="M21.7301 10.11H14.8501V56.22H21.7301V10.11Z" fill="#EB564B"/>
<path d="M32.17 56.2199H29.5V41.7199C29.5 41.0099 30.07 40.4399 30.78 40.4399H30.9C31.61 40.4399 32.18 41.0099 32.18 41.7199V56.2199H32.17Z" fill="#8C3F5D"/>
<path d="M65.1501 0H14.8501V10.11H65.1501V0Z" fill="#EB564B"/>
<path d="M16.2401 7.53003H14.8501V8.92003H16.2401V7.53003Z" fill="#8C3F5D"/>
<path d="M27.4203 8.93004H24.6203V7.54004H27.4203V8.93004ZM21.8303 8.93004H19.0303V7.54004H21.8303V8.93004Z" fill="#8C3F5D"/>
<path d="M60.96 8.93004H58.16V7.54004H60.96V8.93004ZM55.37 8.93004H52.57V7.54004H55.37V8.93004ZM49.78 8.93004H46.98V7.54004H49.78V8.93004ZM44.19 8.93004H41.39V7.54004H44.19V8.93004ZM38.6 8.93004H35.8V7.54004H38.6V8.93004ZM33.01 8.93004H30.21V7.54004H33.01V8.93004Z" fill="#8C3F5D"/>
<path d="M65.1503 7.53003H63.7603V8.92003H65.1503V7.53003Z" fill="#8C3F5D"/>
</g>
<defs>
<clipPath id="clip0_317_11050">
<rect width="80" height="170" fill="white"/>
</clipPath>
</defs>
</svg>
