<svg width="57" height="72" viewBox="0 0 57 72" fill="none" xmlns="http://www.w3.org/2000/svg">
<g clip-path="url(#clip0_301_14515)">
<path d="M50.2501 8.33508H0.890137V34.5751H50.2501V8.33508Z" fill="#F9364D"/>
<path d="M50.2601 0.435059V9.28506H50.2501V9.27506H0.890137V0.435059H50.2601Z" fill="#952B2B"/>
<path d="M50.2603 14.465V21.535L38.0103 9.28503H45.0803L50.2603 14.465Z" fill="#922829"/>
<path d="M50.2603 27.635V34.695L24.8403 9.28503H31.9103L50.2603 27.635Z" fill="#B2283A"/>
<path d="M45.1603 34.575H38.0903L12.8003 9.28503H19.8603L45.1603 34.575Z" fill="#CF2E3F"/>
<path d="M38.7397 26.3351V68.5051H55.4897V26.3351C55.4897 21.7051 51.7397 17.9551 47.1097 17.9551C42.4897 17.9551 38.7397 21.7051 38.7397 26.3351Z" fill="#F9364D"/>
<path d="M18.4299 68.5051H35.1799V26.3351C35.1799 21.7051 31.4299 17.9551 26.7999 17.9551C22.1699 17.9551 18.4199 21.7051 18.4199 26.3351V68.5051H18.4299Z" fill="#C62C3F"/>
<path d="M55.4698 67.2151H38.8498C38.1398 67.2151 37.5698 67.7851 37.5698 68.4951V70.2951C37.5698 71.0051 38.1398 71.5751 38.8498 71.5751H55.4698C56.1798 71.5751 56.7498 71.0051 56.7498 70.2951V68.4951C56.7498 67.7851 56.1798 67.2151 55.4698 67.2151Z" fill="#952B2B"/>
<path d="M35.0699 67.2151H18.4499C17.7399 67.2151 17.1699 67.7851 17.1699 68.4951V70.2951C17.1699 71.0051 17.7399 71.5751 18.4499 71.5751H35.0699C35.7799 71.5751 36.3499 71.0051 36.3499 70.2951V68.4951C36.3499 67.7851 35.7799 67.2151 35.0699 67.2151Z" fill="#952B2B"/>
</g>
<defs>
<clipPath id="clip0_301_14515">
<rect width="55.86" height="71.13" fill="white" transform="translate(0.890137 0.435059)"/>
</clipPath>
</defs>
</svg>
