<svg width="53" height="92" viewBox="0 0 53 92" fill="none" xmlns="http://www.w3.org/2000/svg">
<g clip-path="url(#clip0_301_3498)">
<path d="M51.3497 9.03503V88.215H31.1697V42.095C29.8497 42.305 28.4897 42.415 27.0997 42.415C25.5697 42.415 24.0697 42.285 22.6297 42.035V88.215H2.44971V9.03503H51.3497Z" fill="#F9364D"/>
<path d="M2.44971 0.10498V88.205H22.6297V42.025C24.0697 42.275 25.5697 42.405 27.0997 42.405C28.4897 42.405 29.8497 42.305 31.1697 42.085V88.205H51.3497V0.10498H2.44971Z" fill="#F9364D"/>
<path d="M51.5798 86.655H31.0398C30.3298 86.655 29.7598 87.225 29.7598 87.935V90.625C29.7598 91.335 30.3298 91.905 31.0398 91.905H51.5798C52.2898 91.905 52.8598 91.335 52.8598 90.625V87.935C52.8498 87.235 52.2798 86.655 51.5798 86.655Z" fill="#952B2B"/>
<path d="M22.6297 42.025V88.205H2.44971V24.745C2.44971 24.745 5.30971 39.705 22.6297 42.025Z" fill="#C62C3F"/>
<path d="M22.7599 86.655H2.21994C1.50994 86.655 0.939941 87.235 0.939941 87.935V90.625C0.939941 91.335 1.50994 91.905 2.21994 91.905H22.7599C23.4699 91.905 24.0399 91.335 24.0399 90.625V87.935C24.0299 87.235 23.4599 86.655 22.7599 86.655Z" fill="#952B2B"/>
<path d="M51.3497 0.10498H2.44971V9.03498H51.3497V0.10498Z" fill="#932729"/>
<path d="M51.3501 14.215V21.285L39.1001 9.03503H46.1701L51.3501 14.215Z" fill="#922829"/>
<path d="M51.3502 27.385V34.445L25.9302 9.03503H33.0002L51.3502 27.385Z" fill="#B2283A"/>
<path d="M51.3501 39.425V46.495L13.8901 9.03503H20.9501L51.3501 39.425Z" fill="#CF2E3F"/>
</g>
<defs>
<clipPath id="clip0_301_3498">
<rect width="51.91" height="91.79" fill="white" transform="translate(0.939941 0.10498)"/>
</clipPath>
</defs>
</svg>
