<svg width="80" height="78" viewBox="0 0 80 78" fill="none" xmlns="http://www.w3.org/2000/svg">
<g clip-path="url(#clip0_301_11094)">
<path d="M79.06 7.38H0V77.44H79.06V7.38Z" fill="#2F3986"/>
<path d="M7.24 7.38H0V77.43H7.24V7.38Z" fill="#262B65"/>
<path d="M76.9101 21.6699C78.0699 21.6699 79.0101 20.7163 79.0101 19.5399C79.0101 18.3635 78.0699 17.4099 76.9101 17.4099C75.7503 17.4099 74.8101 18.3635 74.8101 19.5399C74.8101 20.7163 75.7503 21.6699 76.9101 21.6699Z" fill="#20C9AF"/>
<path d="M75.7901 22.42C74.8901 22.06 74.2001 21.28 73.9501 20.33C72.7701 20.26 71.5701 20.78 70.8301 21.83C69.6601 23.46 70.0201 25.74 71.6301 26.92C73.0901 27.99 75.0701 27.8 76.3001 26.54C75.4701 25.28 75.3201 23.75 75.7901 22.42Z" fill="#F73852"/>
<path d="M79.06 21.73V27.45C78.32 27.23 77.65 26.77 77.17 26.1C76.42 25.05 76.3 23.75 76.73 22.63C77.6 22.68 78.45 22.34 79.06 21.73Z" fill="#F73852"/>
<path d="M79.0601 11.1599V16.9899C78.9901 17.0399 78.9201 17.0899 78.8401 17.1399C78.0801 16.5099 77.0701 16.2999 76.1401 16.5399C75.7401 15.1799 74.7401 14.0299 73.3501 13.5199C73.6101 11.7699 75.1001 10.4299 76.9001 10.4299C77.7101 10.4299 78.4601 10.6999 79.0601 11.1599Z" fill="#F73852"/>
<path d="M73.8602 19.35C73.9202 18.37 74.4402 17.47 75.2602 16.93C74.9602 15.77 74.1002 14.78 72.8902 14.38C71.0002 13.76 68.9702 14.81 68.3602 16.72C67.8002 18.46 68.6002 20.31 70.1602 21.1C71.0802 19.92 72.4602 19.31 73.8602 19.35Z" fill="#F73852"/>
<path d="M71.1302 42.8999C72.7594 42.8999 74.0802 41.5657 74.0802 39.9199C74.0802 38.2741 72.7594 36.9399 71.1302 36.9399C69.5009 36.9399 68.1802 38.2741 68.1802 39.9199C68.1802 41.5657 69.5009 42.8999 71.1302 42.8999Z" fill="#20C9AF"/>
<path d="M72.2402 44.1099C70.9302 44.4599 69.5102 44.1799 68.4402 43.3099C67.0502 44.2299 66.1302 45.8299 66.1502 47.6399C66.1802 50.4699 68.4602 52.7299 71.2502 52.7099C73.7802 52.6799 75.8502 50.7799 76.2002 48.3199C74.2402 47.6099 72.8102 46.0099 72.2402 44.1099Z" fill="#F73852"/>
<path d="M79.06 39.0599V47.2799C78.34 47.3799 77.58 47.3299 76.84 47.0899C75.14 46.5499 73.92 45.1699 73.48 43.5499C74.62 42.7899 75.33 41.5099 75.41 40.1399C76.69 40.1599 77.97 39.7899 79.06 39.0599Z" fill="#F73852"/>
<path d="M79.0599 30.0199V37.2999C78.0399 38.3299 76.6499 38.8399 75.2699 38.7699C74.9099 37.4199 73.9299 36.3499 72.6599 35.8599C73.2899 33.9799 73.0699 31.8399 71.8999 30.0999C73.5999 28.3099 76.3899 28.0099 78.4499 29.4999C78.6599 29.6499 78.8699 29.8299 79.0599 30.0199Z" fill="#F73852"/>
<path d="M67.79 37.1799C68.64 36.1099 69.96 35.4999 71.33 35.5699C71.92 33.9899 71.73 32.1599 70.67 30.6999C69.01 28.4299 65.85 27.9599 63.61 29.6399C61.58 31.1699 61 33.9399 62.15 36.1399C64.15 35.5499 66.22 35.9899 67.79 37.1799Z" fill="#F73852"/>
<path d="M67.53 42.2899C66.79 41.1399 66.62 39.6799 67.11 38.3799C65.81 37.3199 64.03 36.9399 62.34 37.5099C59.7 38.4099 58.27 41.3099 59.16 43.9899C59.96 46.4199 62.39 47.8299 64.81 47.3999C64.87 45.2899 65.93 43.4299 67.53 42.2899Z" fill="#F73852"/>
<path d="M79.0601 62.4399V64.2099C78.7301 64.9499 78.0001 65.4499 77.1601 65.4499C76.0001 65.4499 75.0601 64.4999 75.0601 63.3299C75.0601 62.1499 76.0001 61.2 77.1601 61.2C78.0001 61.2 78.7301 61.7099 79.0601 62.4399Z" fill="#20C9AF"/>
<path d="M76.0401 66.21C75.1401 65.85 74.4501 65.07 74.2001 64.12C73.0201 64.05 71.8201 64.57 71.0801 65.62C69.9101 67.25 70.2701 69.53 71.8801 70.71C73.3401 71.78 75.3201 71.59 76.5501 70.33C75.7101 69.06 75.5701 67.54 76.0401 66.21Z" fill="#F73852"/>
<path d="M79.06 65.74V71.16C78.42 70.92 77.85 70.49 77.42 69.89C76.67 68.84 76.55 67.54 76.98 66.42C77.74 66.47 78.48 66.22 79.06 65.74Z" fill="#F73852"/>
<path d="M79.0603 54.77V60.91C78.3103 60.29 77.3103 60.09 76.3903 60.33C75.9903 58.98 74.9903 57.83 73.5903 57.31C73.8503 55.56 75.3503 54.22 77.1503 54.22C77.8603 54.22 78.5103 54.42 79.0603 54.77Z" fill="#F73852"/>
<path d="M74.1102 63.14C74.1702 62.16 74.6902 61.26 75.5102 60.72C75.2102 59.56 74.3502 58.57 73.1402 58.17C71.2502 57.55 69.2202 58.6 68.6102 60.51C68.0502 62.25 68.8502 64.1 70.4102 64.89C71.3302 63.71 72.7102 63.1 74.1102 63.14Z" fill="#F73852"/>
<path d="M64.6198 24.1699C65.0947 24.1699 65.4798 23.7759 65.4798 23.2899C65.4798 22.8039 65.0947 22.4099 64.6198 22.4099C64.1448 22.4099 63.7598 22.8039 63.7598 23.2899C63.7598 23.7759 64.1448 24.1699 64.6198 24.1699Z" fill="#F73852"/>
<path d="M64.1599 24.4799C63.7899 24.3299 63.5099 24.0099 63.3999 23.6199C62.9099 23.5899 62.4199 23.8099 62.1099 24.2399C61.6299 24.9099 61.7799 25.8499 62.4399 26.3399C63.0399 26.7799 63.8599 26.6999 64.3599 26.1799C64.0199 25.6599 63.9699 25.0299 64.1599 24.4799Z" fill="#20C9AF"/>
<path d="M65.5897 24.1C65.3397 24.41 64.9497 24.59 64.5497 24.56C64.3697 25.02 64.4197 25.56 64.7297 25.99C65.2097 26.66 66.1397 26.81 66.7997 26.32C67.3997 25.88 67.5797 25.07 67.2497 24.42C66.6497 24.6 66.0497 24.46 65.5897 24.1Z" fill="#20C9AF"/>
<path d="M65.6797 22.61C65.8897 22.95 65.9397 23.38 65.7897 23.76C66.1697 24.07 66.6897 24.19 67.1897 24.03C67.9697 23.77 68.3897 22.93 68.1397 22.14C67.9097 21.42 67.1997 21 66.4897 21.12C66.4697 21.73 66.1497 22.28 65.6797 22.61Z" fill="#20C9AF"/>
<path d="M64.2999 22.0599C64.6899 21.9599 65.0999 22.0499 65.4099 22.3099C65.8199 22.0399 66.0899 21.5799 66.0899 21.0499C66.0899 20.2199 65.4299 19.5499 64.6099 19.5499C63.8699 19.5499 63.2499 20.0999 63.1499 20.8199C63.7299 21.0299 64.1399 21.4999 64.2999 22.0599Z" fill="#20C9AF"/>
<path d="M63.3598 23.2099C63.3798 22.8099 63.5998 22.4299 63.9398 22.2099C63.8198 21.7299 63.4598 21.3199 62.9598 21.1599C62.1798 20.8999 61.3498 21.3399 61.0898 22.1199C60.8598 22.8399 61.1898 23.5999 61.8298 23.9299C62.2198 23.4499 62.7898 23.1999 63.3598 23.2099Z" fill="#20C9AF"/>
<path d="M64.36 56.3199C64.835 56.3199 65.22 55.9259 65.22 55.4399C65.22 54.9539 64.835 54.5599 64.36 54.5599C63.885 54.5599 63.5 54.9539 63.5 55.4399C63.5 55.9259 63.885 56.3199 64.36 56.3199Z" fill="#F73852"/>
<path d="M63.8997 56.6299C63.5297 56.4799 63.2497 56.1599 63.1397 55.7699C62.6497 55.7399 62.1597 55.9599 61.8497 56.3899C61.3697 57.0599 61.5197 57.9999 62.1797 58.4899C62.7797 58.9299 63.5997 58.8499 64.0997 58.3299C63.7697 57.7999 63.7097 57.1799 63.8997 56.6299Z" fill="#20C9AF"/>
<path d="M65.3397 56.25C65.0897 56.56 64.6997 56.74 64.2997 56.71C64.1197 57.17 64.1697 57.71 64.4797 58.14C64.9597 58.81 65.8897 58.96 66.5497 58.47C67.1497 58.03 67.3297 57.22 66.9997 56.57C66.3997 56.74 65.7897 56.61 65.3397 56.25Z" fill="#20C9AF"/>
<path d="M65.4297 54.76C65.6397 55.1 65.6897 55.53 65.5397 55.91C65.9197 56.22 66.4397 56.34 66.9397 56.18C67.7197 55.92 68.1397 55.08 67.8897 54.29C67.6597 53.57 66.9497 53.15 66.2397 53.27C66.2197 53.88 65.8997 54.43 65.4297 54.76Z" fill="#20C9AF"/>
<path d="M64.0499 54.2099C64.4399 54.1099 64.8499 54.1999 65.1599 54.4599C65.5699 54.1899 65.8399 53.73 65.8399 53.2C65.8399 52.37 65.1799 51.7 64.3599 51.7C63.6199 51.7 62.9999 52.25 62.8999 52.97C63.4699 53.17 63.8899 53.6499 64.0499 54.2099Z" fill="#20C9AF"/>
<path d="M63.1098 55.3599C63.1298 54.9599 63.3498 54.5799 63.6898 54.3599C63.5698 53.8799 63.2098 53.4699 62.7098 53.3099C61.9298 53.0499 61.0998 53.4899 60.8398 54.2699C60.6098 54.9899 60.9398 55.7499 61.5798 56.0799C61.9598 55.5999 62.5298 55.3499 63.1098 55.3599Z" fill="#20C9AF"/>
<path d="M74.28 0.569946H4.78C2.14 0.569946 0 2.70995 0 5.34995V7.37995H79.06V5.34995C79.06 2.70995 76.92 0.569946 74.28 0.569946Z" fill="#FC3851"/>
<path d="M58.38 0.569946H4.78C2.14 0.569946 0 2.70995 0 5.34995V7.37995H58.38V0.569946Z" fill="#C12032"/>
</g>
<defs>
<clipPath id="clip0_301_11094">
<rect width="79.06" height="76.86" fill="white" transform="translate(0 0.569946)"/>
</clipPath>
</defs>
</svg>
