<svg width="80" height="170" viewBox="0 0 80 170" fill="none" xmlns="http://www.w3.org/2000/svg">
<g clip-path="url(#clip0_317_10920)">
<path d="M15.3398 0V163.5H35.6898V42.28C37.1398 42.53 38.6598 42.66 40.1998 42.66C41.5998 42.66 42.9698 42.56 44.3098 42.34V163.51H64.6598V0H15.3398Z" fill="#F7ECB9"/>
<path d="M64.8999 161.94H44.1599C43.4499 161.94 42.8799 162.51 42.8799 163.22V165.95C42.8799 166.66 43.4499 167.23 44.1599 167.23H64.8999C65.6099 167.23 66.1799 166.66 66.1799 165.95V163.22C66.1799 162.51 65.6099 161.94 64.8999 161.94Z" fill="#E36956"/>
<path d="M35.6898 42.28V163.5H15.3398V24.84C15.3398 24.84 18.2298 39.93 35.6898 42.28Z" fill="#F2A65E"/>
<path d="M35.8398 161.94H15.0998C14.3898 161.94 13.8198 162.51 13.8198 163.22V165.95C13.8198 166.66 14.3898 167.23 15.0998 167.23H35.8398C36.5498 167.23 37.1198 166.66 37.1198 165.95V163.22C37.1098 162.51 36.5398 161.94 35.8398 161.94Z" fill="#E36956"/>
<path d="M64.6598 0H15.3398V9H64.6598V0Z" fill="#F2A65E"/>
<path d="M60.8397 142.03C61.3897 142.03 61.8397 142.48 61.8397 143.03C61.8397 143.58 61.3897 144.03 60.8397 144.03H48.2197C47.6697 144.03 47.2197 143.58 47.2197 143.03C47.2197 142.48 47.6697 142.03 48.2197 142.03" fill="#E36956"/>
<path d="M33.4398 157.02C33.9898 157.02 34.4398 157.47 34.4398 158.02C34.4398 158.57 33.9898 159.02 33.4398 159.02H20.8198C20.2698 159.02 19.8198 158.57 19.8198 158.02C19.8198 157.47 20.2698 157.02 20.8198 157.02" fill="#E36956"/>
<path d="M30.38 152.93C30.93 152.93 31.38 153.38 31.38 153.93C31.38 154.48 30.93 154.93 30.38 154.93H17.75C17.2 154.93 16.75 154.48 16.75 153.93C16.75 153.38 17.2 152.93 17.75 152.93" fill="#E36956"/>
<path d="M48.1 14.73C47.81 12.44 43.04 10.13 40.91 9.20999C40.57 9.05999 40.21 8.98999 39.84 8.98999C39.46 8.98999 39.09 9.06999 38.75 9.21999C36.7 10.15 32.18 12.44 31.89 14.72C31.7 16.17 32.28 17.38 33.44 17.96C33.92 18.2 34.45 18.32 35 18.32C35.99 18.32 37.05 17.93 38 17.22C37.75 18.39 37.6 19.7 37.68 21.04L38.68 20.98C38.52 18.34 39.36 15.8 39.96 14.35C40.43 16.4 41.16 20.76 40.75 26.72L41.75 26.79C42.04 22.57 41.78 19.17 41.43 16.76C42.5 17.77 43.8 18.31 45 18.31C45.55 18.31 46.09 18.19 46.56 17.95C47.71 17.39 48.29 16.18 48.1 14.73ZM33.9 17.08C33.11 16.68 32.76 15.89 32.89 14.85C33.07 13.47 36.15 11.51 39.13 10.15C39.26 11.49 39.38 14.63 37.92 16.02C36.45 17.42 34.84 17.57 33.9 17.08ZM46.1 17.08C45.15 17.56 43.54 17.42 42.08 16.02C40.62 14.63 40.55 11.53 40.6 10.16C43.72 11.51 46.94 13.48 47.11 14.85C47.25 15.9 46.89 16.69 46.1 17.08Z" fill="#EB564B"/>
</g>
<defs>
<clipPath id="clip0_317_10920">
<rect width="80" height="170" fill="white"/>
</clipPath>
</defs>
</svg>
