<svg width="57" height="72" viewBox="0 0 57 72" fill="none" xmlns="http://www.w3.org/2000/svg">
<g clip-path="url(#clip0_301_14448)">
<path d="M50.2599 8.33508H0.899902V34.5751H50.2599V8.33508Z" fill="#FFB5B5"/>
<path d="M15.9099 11.5551C15.9099 11.6851 15.9099 11.8251 15.8999 11.9551C15.6999 20.0751 9.0599 26.6051 0.899902 26.6551V2.56506H12.9599C14.1999 4.25506 15.1099 6.20506 15.5699 8.33506C15.6399 8.64506 15.6899 8.95506 15.7399 9.27506C15.8499 10.0151 15.9099 10.7851 15.9099 11.5551Z" fill="#FF6B97"/>
<path d="M50.2598 8.33512V26.6551C46.7098 26.6351 43.4498 25.3751 40.8898 23.3151C40.7398 23.1951 40.5998 23.0751 40.4698 22.9551C40.2498 22.7651 40.0498 22.5751 39.8398 22.3751C39.4998 22.0351 39.1698 21.6851 38.8498 21.3251C38.8398 21.3151 38.8398 21.3151 38.8298 21.3051C36.6898 18.7651 35.3698 15.5151 35.2698 11.9551C35.2598 11.8251 35.2598 11.6851 35.2598 11.5551C35.2598 10.4551 35.3798 9.37512 35.6098 8.33512C35.8998 6.97512 36.3698 5.68512 36.9998 4.49512C36.6798 5.73512 36.4998 7.02512 36.4698 8.33512H50.2598Z" fill="#FF6B97"/>
<path d="M17.0799 8.33506C16.9799 6.33506 16.5599 4.40506 15.8299 2.56506H13.2099C14.0599 4.36506 14.5499 6.32506 14.6799 8.33506C14.6999 8.67506 14.7099 9.02506 14.7099 9.36506C14.7099 9.48506 14.7099 9.62506 14.6999 9.81506C14.5099 17.6551 8.5099 24.1851 0.899902 25.2851V27.7051C9.7999 26.5751 16.8699 19.0151 17.0899 9.94506C17.1099 9.76506 17.1099 9.56506 17.1099 9.36506C17.1099 9.01506 17.0999 8.67506 17.0799 8.33506Z" fill="#BD4882"/>
<path d="M36.4701 9.10506C36.4601 8.98506 36.4601 8.85506 36.4601 8.73506C36.4601 8.60506 36.4601 8.46506 36.4701 8.33506C36.5001 7.02506 36.6801 5.73506 37.0001 4.49506C37.1701 3.83506 37.3701 3.19506 37.6201 2.56506H35.0701C34.4501 4.41506 34.1001 6.34506 34.0701 8.33506C34.0601 8.46506 34.0601 8.60506 34.0601 8.73506C34.0601 8.92506 34.0601 9.12506 34.0701 9.24506C34.1901 13.8451 35.9801 18.0551 38.8301 21.3051C38.8401 21.3151 38.8401 21.3151 38.8501 21.3251C39.1701 21.6851 39.5001 22.0351 39.8401 22.3751C40.0501 22.5751 40.2501 22.7651 40.4701 22.9551C40.6001 23.0751 40.7401 23.1951 40.8901 23.3151C43.5101 25.5451 46.7401 27.0751 50.2601 27.6151V25.1951C42.6301 23.8251 36.6801 17.1651 36.4701 9.10506Z" fill="#BD4882"/>
<path d="M50.2699 0.435059V9.28506H50.2599V9.27506H0.899902V0.435059H50.2699Z" fill="#BD4882"/>
<path d="M38.7495 26.3351V68.5051H55.4995V26.3351C55.4995 21.7051 51.7495 17.9551 47.1195 17.9551C42.4995 17.9551 38.7495 21.7051 38.7495 26.3351Z" fill="#FFB5B5"/>
<path d="M18.4397 68.5051H35.1897V26.3351C35.1897 21.7051 31.4397 17.9551 26.8097 17.9551C22.1797 17.9551 18.4297 21.7051 18.4297 26.3351V68.5051H18.4397Z" fill="#FF6B97"/>
<path d="M55.4796 67.2151H38.8596C38.1496 67.2151 37.5796 67.7851 37.5796 68.4951V70.2951C37.5796 71.0051 38.1496 71.5751 38.8596 71.5751H55.4796C56.1896 71.5751 56.7596 71.0051 56.7596 70.2951V68.4951C56.7596 67.7851 56.1896 67.2151 55.4796 67.2151Z" fill="#BD4882"/>
<path d="M35.0797 67.2151H18.4597C17.7497 67.2151 17.1797 67.7851 17.1797 68.4951V70.2951C17.1797 71.0051 17.7497 71.5751 18.4597 71.5751H35.0797C35.7897 71.5751 36.3597 71.0051 36.3597 70.2951V68.4951C36.3597 67.7851 35.7897 67.2151 35.0797 67.2151Z" fill="#BD4882"/>
<path d="M55.4301 28.435V41.835L55.2301 41.785L48.7401 47.265L48.3401 38.775L41.1201 34.295L49.0701 31.285L51.1001 23.035L55.4301 28.435Z" fill="#FF6B97"/>
</g>
<defs>
<clipPath id="clip0_301_14448">
<rect width="55.86" height="71.13" fill="white" transform="translate(0.899902 0.435059)"/>
</clipPath>
</defs>
</svg>
