<svg width="80" height="170" viewBox="0 0 80 170" fill="none" xmlns="http://www.w3.org/2000/svg">
<g clip-path="url(#clip0_317_11067)">
<path d="M15.5498 0V88.1H35.7298V41.93C37.1698 42.18 38.6698 42.31 40.1998 42.31C41.5898 42.31 42.9498 42.21 44.2698 41.99V88.11H64.4498V0H15.5498Z" fill="#FFB5B5"/>
<path d="M64.6799 86.66H44.1399C43.4299 86.66 42.8599 87.23 42.8599 87.94V90.63C42.8599 91.34 43.4299 91.91 44.1399 91.91H64.6799C65.3899 91.91 65.9599 91.34 65.9599 90.63V87.94C65.9599 87.23 65.3899 86.66 64.6799 86.66Z" fill="#BD4882"/>
<path d="M30.7998 8.63998C30.7998 8.76998 30.7998 8.89998 30.7898 9.02998C30.5998 16.77 24.2498 23 16.4398 23C16.1398 23 15.8498 22.99 15.5498 22.97V0.0999756H27.9998C29.7598 2.48998 30.7998 5.43998 30.7998 8.63998Z" fill="#FF6B97"/>
<path d="M64.4497 0.0999641V22.96C64.1497 22.98 63.8597 22.99 63.5497 22.99C55.7497 22.99 49.3997 16.76 49.2097 9.01997C49.1997 8.88997 49.1997 8.75997 49.1997 8.62997C49.1997 5.42997 50.2497 2.46997 51.9997 0.0899658H64.4497V0.0999641Z" fill="#FF6B97"/>
<path d="M30.7198 0.0999756H28.2298C29.1698 2.10998 29.6598 4.30998 29.6598 6.55998C29.6598 6.66998 29.6598 6.79998 29.6498 6.97998C29.4598 14.78 23.2298 21.2 15.5498 21.8V24.08C24.4698 23.48 31.7098 16.05 31.9198 7.09998C31.9398 6.92998 31.9398 6.73998 31.9398 6.54998C31.9398 4.31998 31.5298 2.13998 30.7198 0.0999756Z" fill="#BD4882"/>
<path d="M50.3501 6.31998C50.3401 6.20998 50.3401 6.07999 50.3401 5.96999C50.3401 3.93999 50.7201 1.95999 51.4501 0.109985H49.0201C48.3901 1.97999 48.0601 3.94999 48.0601 5.96999C48.0601 6.14999 48.0601 6.34998 48.0701 6.45998C48.3101 15.62 55.4901 23.16 64.4501 24.05V21.76C56.7201 20.88 50.5501 14.32 50.3501 6.31998Z" fill="#BD4882"/>
<path d="M35.7298 42.03V88.21H15.5498V24.74C15.5498 24.74 18.4098 39.7 35.7298 42.03Z" fill="#FF6B97"/>
<path d="M35.86 86.66H15.32C14.61 86.66 14.04 87.23 14.04 87.94V90.63C14.04 91.34 14.61 91.91 15.32 91.91H35.86C36.57 91.91 37.14 91.34 37.14 90.63V87.94C37.14 87.23 36.57 86.66 35.86 86.66Z" fill="#BD4882"/>
<path d="M64.4501 35.19V53.09L64.1901 53.02L55.5101 60.34L54.9801 48.99L45.3301 43.01L55.9601 38.99L58.6701 27.97L64.4501 35.19Z" fill="#FF6B97"/>
<path d="M64.4498 0.0999756H15.5498V9.02998H64.4498V0.0999756Z" fill="#BD4882"/>
</g>
<defs>
<clipPath id="clip0_317_11067">
<rect width="80" height="170" fill="white"/>
</clipPath>
</defs>
</svg>
