<svg width="86" height="54" viewBox="0 0 86 54" fill="none" xmlns="http://www.w3.org/2000/svg">
<g clip-path="url(#clip0_301_6295)">
<path d="M42.9902 52.87H29.6302V49.97C29.1002 49.89 28.2602 49.99 27.3302 50.17C26.3002 50.37 25.1602 50.66 24.1802 50.93C22.7602 51.33 21.6602 51.7 21.6602 51.7C11.2502 54.65 0.930176 52.87 0.930176 52.87V47.36C0.960176 46.96 1.01018 46.57 1.10018 46.19C1.51018 44.18 2.55018 42.51 3.92018 41.13C4.34018 40.7 4.80018 40.3 5.27018 39.94C6.01018 39.35 6.81018 38.84 7.62018 38.38C7.92018 38.21 8.23018 38.05 8.54018 37.89C8.59018 37.86 8.64018 37.84 8.69018 37.81C8.70018 37.81 8.70018 37.81 8.70018 37.81C9.16018 37.57 9.62018 37.36 10.0802 37.17C10.5102 36.98 10.9502 36.81 11.3702 36.65C11.5102 36.6 11.6402 36.55 11.7802 36.5V36.49C12.1102 36.38 12.4402 36.27 12.7502 36.17C13.1302 36.04 13.5102 35.9 13.8702 35.72C14.7402 35.34 15.5502 34.83 16.2802 34.23C17.3802 33.34 18.2802 32.24 18.9302 30.99C19.3002 30.3 19.5902 29.56 19.7902 28.78C19.9302 28.24 20.0302 27.67 20.0802 27.09C20.1402 26.33 20.1902 25.54 20.2102 24.71C20.2202 24.4 20.2302 24.08 20.2302 23.76C20.2602 22.05 20.2102 20.23 20.1102 18.34C20.0902 17.91 20.0702 17.47 20.0302 17.02C20.0302 16.93 20.0202 16.84 20.0102 16.75C20.0102 16.74 20.0102 16.74 20.0102 16.74C19.9002 15.13 19.7502 13.48 19.5702 11.82C19.5602 11.68 19.5502 11.54 19.5302 11.4C19.4902 11.01 19.4502 10.61 19.4002 10.21C19.2802 9.16998 19.1602 8.10998 19.0502 7.11998C19.0202 6.84998 18.9802 6.58998 18.9602 6.33998C18.7102 4.27998 18.5202 2.72998 18.5202 2.72998C18.6102 2.71998 19.3802 2.64998 20.5902 2.52998H20.6002C20.9102 2.50998 21.2402 2.47998 21.6002 2.44998C22.7502 2.33998 24.1502 2.20998 25.6702 2.07998C29.3402 1.73998 33.7102 1.34998 37.0102 1.04998C39.9002 0.789976 41.9602 0.599976 41.9602 0.599976C41.9402 0.869976 41.9202 2.15998 41.9002 4.06998C41.8902 5.34998 41.8802 6.90998 41.8602 8.62998V9.33998C41.8502 10.39 41.8402 11.5 41.8302 12.63C41.8302 13.09 41.8202 13.55 41.8202 14.01C41.8102 15.75 41.8102 17.53 41.7902 19.24C41.7902 20.27 41.7902 21.27 41.7802 22.24C41.7702 23.21 41.7702 24.13 41.7602 24.98V25.93C41.7502 27.57 41.7502 28.91 41.7502 29.8C41.7402 30.24 41.7402 30.57 41.7402 30.76C41.7402 30.88 41.7402 30.95 41.7402 30.95C42.1202 32.25 42.4102 33.68 42.6202 35.17C42.6602 35.47 42.7002 35.78 42.7402 36.09V36.1C42.7902 36.49 42.8402 36.87 42.8702 37.26C43.0702 39.22 43.1802 41.22 43.2302 43.1C43.2302 43.29 43.2302 43.48 43.2402 43.66V43.69C43.3302 48.76 42.9902 52.87 42.9902 52.87Z" fill="#19192D"/>
<path d="M39.8303 8.52997C40.9514 8.52997 41.8603 7.62111 41.8603 6.49997C41.8603 5.37883 40.9514 4.46997 39.8303 4.46997C38.7092 4.46997 37.8003 5.37883 37.8003 6.49997C37.8003 7.62111 38.7092 8.52997 39.8303 8.52997Z" fill="#DA2840"/>
<path d="M38.7504 9.23998C37.8804 8.89998 37.2204 8.15998 36.9804 7.23998C35.8404 7.16998 34.6904 7.66998 33.9604 8.66998C32.8304 10.22 33.1804 12.39 34.7304 13.52C36.1404 14.54 38.0504 14.35 39.2404 13.15C38.4404 11.97 38.3004 10.51 38.7504 9.23998Z" fill="#FAEEEF"/>
<path d="M41.8605 8.63995V9.33995C41.8505 10.39 41.8405 11.5 41.8305 12.63C41.8305 13.09 41.8205 13.55 41.8205 14.01C41.1405 13.8 40.5305 13.37 40.0905 12.76C39.3605 11.76 39.2405 10.51 39.6605 9.44995C40.4805 9.47995 41.2805 9.18995 41.8605 8.63995Z" fill="#FAEEEF"/>
<path d="M41.9603 0.599976C41.9403 0.869976 41.9203 2.15998 41.9003 4.06998C41.8403 4.11998 41.7703 4.16998 41.7003 4.20998C40.9703 3.61998 40.0003 3.40998 39.0903 3.63998C38.7703 2.55998 38.0303 1.60998 37.0103 1.04998C39.9003 0.789976 41.9603 0.599976 41.9603 0.599976Z" fill="#FAEEEF"/>
<path d="M36.8903 6.31995C36.9503 5.38995 37.4503 4.52995 38.2403 4.01995C37.9503 2.90995 37.1203 1.96995 35.9503 1.58995C34.1303 0.999952 32.1703 1.99995 31.5703 3.81995C31.0303 5.46995 31.8003 7.23995 33.3103 7.99995C34.2003 6.85995 35.5403 6.27995 36.8903 6.31995Z" fill="#FAEEEF"/>
<path d="M19.79 28.78C19.93 28.24 20.03 27.67 20.08 27.09C20.14 26.33 20.19 25.54 20.21 24.71C20.31 24.69 20.42 24.67 20.52 24.64C21.23 26.02 20.94 27.72 19.79 28.78Z" fill="#FAEEEF"/>
<path d="M20.3903 23.71C20.3403 23.73 20.2803 23.74 20.2303 23.76C20.2603 22.05 20.2103 20.23 20.1103 18.34C20.0903 17.91 20.0703 17.47 20.0303 17.02C21.2103 17.27 22.2203 18.11 22.6203 19.34C23.2103 21.16 22.2203 23.12 20.3903 23.71Z" fill="#FAEEEF"/>
<path d="M41.7601 25.93C41.7501 27.57 41.7501 28.91 41.7501 29.8C41.5601 29.86 41.3601 29.89 41.1501 29.89C40.0301 29.89 39.1201 28.98 39.1201 27.87C39.1201 26.75 40.0301 25.84 41.1501 25.84C41.3601 25.84 41.5701 25.87 41.7601 25.93Z" fill="#0FC8EF"/>
<path d="M40.0703 30.61C39.2003 30.27 38.5403 29.53 38.3003 28.61C37.1603 28.54 36.0103 29.04 35.2803 30.04C34.1503 31.59 34.5003 33.76 36.0503 34.89C37.4603 35.91 39.3703 35.72 40.5603 34.52C39.7603 33.33 39.6203 31.88 40.0703 30.61Z" fill="#EF3D5A"/>
<path d="M42.6203 35.17C42.1503 34.93 41.7403 34.58 41.4103 34.12C40.6803 33.13 40.5703 31.87 40.9803 30.81C41.2403 30.83 41.4903 30.81 41.7403 30.76C41.7403 30.88 41.7403 30.95 41.7403 30.95C42.1203 32.25 42.4103 33.68 42.6203 35.17Z" fill="#EF3D5A"/>
<path d="M41.7902 19.24C41.7902 20.27 41.7902 21.27 41.7802 22.24C41.7702 23.21 41.7702 24.13 41.7602 24.98C41.3202 24.89 40.8602 24.9 40.4102 25.01C40.0302 23.72 39.0602 22.62 37.7202 22.13C37.9702 20.46 39.4102 19.18 41.1502 19.18C41.3702 19.18 41.5802 19.2 41.7902 19.24Z" fill="#EF3D5A"/>
<path d="M38.2101 27.68C38.2701 26.75 38.7701 25.89 39.5601 25.38C39.2701 24.27 38.4401 23.33 37.2701 22.95C35.4501 22.36 33.4901 23.36 32.8901 25.18C32.3501 26.83 33.1201 28.6 34.6301 29.36C35.5201 28.23 36.8601 27.65 38.2101 27.68Z" fill="#EF3D5A"/>
<path d="M9.27022 40.3799C9.27022 41.4899 8.36021 42.3999 7.24021 42.3999C6.12021 42.3999 5.22021 41.4899 5.22021 40.3799C5.22021 40.2299 5.24022 40.0799 5.27022 39.9399C6.01022 39.3499 6.81021 38.8399 7.62021 38.3799C8.56021 38.5599 9.27022 39.3899 9.27022 40.3799Z" fill="#0FC8EF"/>
<path d="M6.6501 47.04C5.4601 48.24 3.5501 48.42 2.1401 47.4C1.6901 47.07 1.3401 46.66 1.1001 46.19C1.5101 44.18 2.5501 42.51 3.9201 41.13C4.0701 41.11 4.2301 41.11 4.3901 41.12C4.6301 42.04 5.2901 42.78 6.1601 43.12C5.7101 44.39 5.8501 45.84 6.6501 47.04Z" fill="#FAEEEF"/>
<path d="M9.52019 42.25C8.93019 42.97 8.02019 43.37 7.07019 43.32C6.65019 44.39 6.77019 45.63 7.49019 46.63C8.62019 48.18 10.7902 48.53 12.3402 47.4C13.7502 46.38 14.1602 44.5 13.3902 43C12.0102 43.39 10.5902 43.07 9.52019 42.25Z" fill="#FAEEEF"/>
<path d="M13.27 42.07C12.1 42.45 10.88 42.17 9.98998 41.45C10.34 40.57 10.23 39.58 9.72998 38.79C10.48 38.27 11.07 37.53 11.37 36.65C11.51 36.6 11.64 36.55 11.78 36.5V36.49C12.11 36.38 12.44 36.27 12.75 36.17C13.13 36.04 13.51 35.9 13.87 35.72C14.61 36.13 15.21 36.82 15.5 37.69C16.09 39.52 15.1 41.48 13.27 42.07Z" fill="#FAEEEF"/>
<path d="M10.0802 37.17C9.82019 37.54 9.50019 37.85 9.12019 38.09C8.99019 37.98 8.8502 37.89 8.7002 37.81C9.1602 37.57 9.62019 37.36 10.0802 37.17Z" fill="#FAEEEF"/>
<path d="M36.2702 45.1C37.1373 45.1 37.8402 44.397 37.8402 43.53C37.8402 42.6629 37.1373 41.96 36.2702 41.96C35.4031 41.96 34.7002 42.6629 34.7002 43.53C34.7002 44.397 35.4031 45.1 36.2702 45.1Z" fill="#FAEEEF"/>
<path d="M35.4303 45.66C34.7603 45.39 34.2403 44.82 34.0503 44.11C33.1603 44.06 32.2703 44.44 31.7103 45.22C30.8303 46.43 31.1003 48.11 32.3103 48.99C33.4003 49.78 34.8903 49.64 35.8203 48.71C35.1803 47.78 35.0803 46.65 35.4303 45.66Z" fill="#EF3D5A"/>
<path d="M38.0302 44.99C37.5702 45.55 36.8602 45.86 36.1302 45.82C35.8102 46.65 35.9002 47.62 36.4602 48.39C37.3402 49.6 39.0202 49.86 40.2302 48.99C41.3202 48.2 41.6502 46.73 41.0402 45.57C39.9702 45.87 38.8702 45.63 38.0302 44.99Z" fill="#EF3D5A"/>
<path d="M38.2002 42.3C38.5902 42.91 38.6702 43.68 38.4002 44.37C39.0902 44.93 40.0402 45.15 40.9502 44.85C42.3702 44.39 43.1402 42.87 42.6802 41.45C42.2602 40.16 40.9702 39.41 39.6802 39.62C39.6402 40.73 39.0602 41.71 38.2002 42.3Z" fill="#EF3D5A"/>
<path d="M35.6901 41.31C36.3901 41.13 37.1501 41.29 37.7201 41.75C38.4701 41.27 38.9701 40.43 38.9701 39.48C38.9701 37.99 37.7601 36.78 36.2701 36.78C34.9201 36.78 33.8001 37.77 33.6001 39.07C34.6401 39.46 35.3901 40.31 35.6901 41.31Z" fill="#EF3D5A"/>
<path d="M33.9802 43.39C34.0302 42.67 34.4102 42 35.0302 41.6C34.8102 40.74 34.1602 40.01 33.2502 39.71C31.8302 39.25 30.3102 40.03 29.8502 41.44C29.4302 42.73 30.0302 44.1 31.2002 44.69C31.8902 43.82 32.9302 43.36 33.9802 43.39Z" fill="#EF3D5A"/>
<path d="M23.5901 37.1499C24.5621 37.1499 25.3501 36.362 25.3501 35.3899C25.3501 34.4179 24.5621 33.6299 23.5901 33.6299C22.6181 33.6299 21.8301 34.4179 21.8301 35.3899C21.8301 36.362 22.6181 37.1499 23.5901 37.1499Z" fill="#EF3D5A"/>
<path d="M22.6502 37.7799C21.9002 37.4799 21.3102 36.8399 21.1102 36.0399C20.1202 35.9799 19.1102 36.4099 18.4802 37.2799C17.5002 38.6299 17.8002 40.5199 19.1502 41.4999C20.3802 42.3899 22.0402 42.2299 23.0802 41.1799C22.3802 40.1499 22.2602 38.8799 22.6502 37.7799Z" fill="#0FC8EF"/>
<path d="M25.5805 37.02C25.0605 37.65 24.2705 38 23.4505 37.95C23.0905 38.88 23.1905 39.97 23.8205 40.83C24.8005 42.18 26.6905 42.48 28.0405 41.5C29.2705 40.61 29.6305 38.97 28.9505 37.67C27.7505 38.01 26.5105 37.74 25.5805 37.02Z" fill="#0FC8EF"/>
<path d="M25.7603 34.01C26.1903 34.7 26.2903 35.56 25.9903 36.32C26.7603 36.95 27.8303 37.19 28.8403 36.86C30.4303 36.34 31.3003 34.64 30.7803 33.05C30.3103 31.61 28.8703 30.76 27.4203 31C27.3703 32.25 26.7303 33.34 25.7603 34.01Z" fill="#0FC8EF"/>
<path d="M22.9504 32.9C23.7404 32.7 24.5904 32.88 25.2204 33.4C26.0604 32.86 26.6204 31.92 26.6204 30.85C26.6204 29.18 25.2704 27.83 23.6004 27.83C22.0904 27.83 20.8304 28.94 20.6104 30.4C21.7804 30.82 22.6204 31.78 22.9504 32.9Z" fill="#0FC8EF"/>
<path d="M22.2103 33.23C21.5103 33.67 21.0803 34.42 21.0303 35.23C19.8603 35.2 18.6903 35.71 17.9203 36.69C16.9703 36.21 16.3603 35.26 16.2803 34.23C17.3803 33.34 18.2803 32.24 18.9303 30.99C19.3503 30.93 19.7803 30.97 20.2103 31.11C21.2303 31.44 21.9503 32.26 22.2103 33.23Z" fill="#0FC8EF"/>
<path d="M29.36 19.54C30.2271 19.54 30.93 18.8371 30.93 17.97C30.93 17.1029 30.2271 16.4 29.36 16.4C28.493 16.4 27.79 17.1029 27.79 17.97C27.79 18.8371 28.493 19.54 29.36 19.54Z" fill="#FAEEEF"/>
<path d="M28.5202 20.11C27.8502 19.84 27.3302 19.27 27.1402 18.56C26.2502 18.51 25.3602 18.89 24.8002 19.67C23.9202 20.88 24.1902 22.56 25.4002 23.44C26.4902 24.23 27.9802 24.09 28.9102 23.16C28.2802 22.22 28.1702 21.09 28.5202 20.11Z" fill="#EF3D5A"/>
<path d="M31.1303 19.43C30.6703 19.99 29.9603 20.3 29.2303 20.26C28.9103 21.09 29.0003 22.06 29.5603 22.83C30.4403 24.04 32.1203 24.3 33.3303 23.43C34.4203 22.64 34.7503 21.17 34.1403 20.01C33.0703 20.32 31.9603 20.07 31.1303 19.43Z" fill="#EF3D5A"/>
<path d="M31.29 16.74C31.68 17.35 31.76 18.12 31.49 18.81C32.18 19.37 33.13 19.59 34.04 19.29C35.46 18.83 36.23 17.31 35.77 15.89C35.35 14.6 34.06 13.85 32.77 14.06C32.73 15.17 32.16 16.15 31.29 16.74Z" fill="#EF3D5A"/>
<path d="M28.7902 15.75C29.4902 15.57 30.2502 15.73 30.8202 16.19C31.5702 15.71 32.0702 14.87 32.0702 13.92C32.0702 12.43 30.8602 11.22 29.3702 11.22C28.0202 11.22 26.9002 12.21 26.7002 13.51C27.7402 13.9 28.4902 14.75 28.7902 15.75Z" fill="#EF3D5A"/>
<path d="M27.0701 17.83C27.1201 17.11 27.5001 16.44 28.1201 16.04C27.9001 15.18 27.2501 14.45 26.3401 14.15C24.9201 13.69 23.4001 14.47 22.9401 15.88C22.5201 17.17 23.1201 18.54 24.2901 19.13C24.9801 18.26 26.0201 17.81 27.0701 17.83Z" fill="#EF3D5A"/>
<path d="M22.9699 7.61998C23.837 7.61998 24.5399 6.91707 24.5399 6.04998C24.5399 5.18289 23.837 4.47998 22.9699 4.47998C22.1028 4.47998 21.3999 5.18289 21.3999 6.04998C21.3999 6.91707 22.1028 7.61998 22.9699 7.61998Z" fill="#FAEEEF"/>
<path d="M22.5098 11.23C21.7398 12.01 20.5698 12.24 19.5698 11.82C19.5598 11.68 19.5498 11.54 19.5298 11.4C19.4898 11.01 19.4498 10.61 19.3998 10.21C19.2798 9.16995 19.1598 8.10995 19.0498 7.11995C19.5498 6.75995 20.1498 6.59995 20.7498 6.62995C20.9398 7.33995 21.4598 7.91995 22.1298 8.18995C21.7798 9.16995 21.8898 10.3 22.5098 11.23Z" fill="#0FC8EF"/>
<path d="M24.7401 7.50995C24.2801 8.06995 23.5701 8.37995 22.8401 8.33995C22.5201 9.16995 22.6101 10.1399 23.1701 10.9099C24.0501 12.1199 25.7301 12.3799 26.9401 11.5099C28.0301 10.7199 28.3601 9.24995 27.7501 8.08995C26.6801 8.38995 25.5701 8.14995 24.7401 7.50995Z" fill="#0FC8EF"/>
<path d="M24.9102 4.81994C25.3002 5.42994 25.3802 6.19994 25.1102 6.88994C25.8002 7.44994 26.7502 7.66994 27.6602 7.36994C29.0802 6.90994 29.8502 5.38994 29.3902 3.96994C28.9702 2.67994 27.6802 1.92994 26.3902 2.13994C26.3502 3.24994 25.7702 4.22994 24.9102 4.81994Z" fill="#0FC8EF"/>
<path d="M25.6701 2.07996C25.6401 3.00996 25.1601 3.80996 24.4301 4.27996C23.8601 3.80996 23.1001 3.64996 22.4001 3.82996C22.2501 3.31996 21.9701 2.83996 21.6001 2.44996C22.7501 2.33996 24.1501 2.20996 25.6701 2.07996Z" fill="#0FC8EF"/>
<path d="M21.74 4.11997C21.12 4.51997 20.73 5.18997 20.69 5.90997C20.09 5.89997 19.48 6.03997 18.96 6.33997C18.71 4.27997 18.52 2.72997 18.52 2.72997C18.61 2.71997 19.38 2.64997 20.59 2.52997H20.6C21.17 2.90997 21.57 3.47997 21.74 4.11997Z" fill="#0FC8EF"/>
<path d="M43.0503 52.87H56.4103V49.97C56.9403 49.89 57.7803 49.99 58.7103 50.17C59.7403 50.37 60.8803 50.66 61.8603 50.93C63.2803 51.33 64.3803 51.7 64.3803 51.7C74.7903 54.65 85.1103 52.87 85.1103 52.87V47.36C85.0803 46.96 85.0303 46.57 84.9403 46.19C84.5303 44.18 83.4903 42.51 82.1203 41.13C81.7003 40.7 81.2403 40.3 80.7703 39.94C80.0303 39.35 79.2303 38.84 78.4203 38.38C78.1203 38.21 77.8103 38.05 77.5003 37.89C77.4503 37.86 77.4003 37.84 77.3503 37.81C77.3403 37.81 77.3403 37.81 77.3403 37.81C76.8803 37.57 76.4203 37.36 75.9603 37.17C75.5303 36.98 75.0903 36.81 74.6703 36.65C74.5303 36.6 74.4003 36.55 74.2603 36.5V36.49C73.9303 36.38 73.6003 36.27 73.2903 36.17C72.9103 36.04 72.5303 35.9 72.1703 35.72C71.3003 35.34 70.4903 34.83 69.7603 34.23C68.6603 33.34 67.7603 32.24 67.1103 30.99C66.7403 30.3 66.4503 29.56 66.2503 28.78C66.1103 28.24 66.0103 27.67 65.9603 27.09C65.9003 26.33 65.8503 25.54 65.8303 24.71C65.8203 24.4 65.8103 24.08 65.8103 23.76C65.7803 22.05 65.8303 20.23 65.9303 18.34C65.9503 17.91 65.9703 17.47 66.0103 17.02C66.0103 16.93 66.0203 16.84 66.0303 16.75C66.0303 16.74 66.0303 16.74 66.0303 16.74C66.1403 15.13 66.2903 13.48 66.4703 11.82C66.4803 11.68 66.4903 11.54 66.5103 11.4C66.5503 11.01 66.5903 10.61 66.6403 10.21C66.7603 9.16998 66.8803 8.10998 66.9903 7.11998C67.0203 6.84998 67.0603 6.58998 67.0803 6.33998C67.3303 4.27998 67.5203 2.72998 67.5203 2.72998C67.4303 2.71998 66.6603 2.64998 65.4503 2.52998H65.4403C65.1303 2.50998 64.8003 2.47998 64.4403 2.44998C63.2903 2.33998 61.8903 2.20998 60.3703 2.07998C56.7003 1.73998 52.3303 1.34998 49.0303 1.04998C46.1403 0.789976 44.0803 0.599976 44.0803 0.599976C44.1003 0.869976 44.1203 2.15998 44.1403 4.06998C44.1503 5.34998 44.1603 6.90998 44.1803 8.62998V9.33998C44.1903 10.39 44.2003 11.5 44.2103 12.63C44.2103 13.09 44.2203 13.55 44.2203 14.01C44.2303 15.75 44.2303 17.53 44.2503 19.24C44.2503 20.27 44.2503 21.27 44.2603 22.24C44.2703 23.21 44.2703 24.13 44.2803 24.98V25.93C44.2903 27.57 44.2903 28.91 44.2903 29.8C44.3003 30.24 44.3003 30.57 44.3003 30.76C44.3003 30.88 44.3003 30.95 44.3003 30.95C43.9203 32.25 43.6303 33.68 43.4203 35.17C43.3803 35.47 43.3403 35.78 43.3003 36.09V36.1C43.2503 36.49 43.2003 36.87 43.1703 37.26C42.9703 39.22 42.8603 41.22 42.8103 43.1C42.8103 43.29 42.8103 43.48 42.8003 43.66V43.69C42.7103 48.76 43.0503 52.87 43.0503 52.87Z" fill="#19192D"/>
<path d="M46.2102 8.52997C47.3313 8.52997 48.2402 7.62111 48.2402 6.49997C48.2402 5.37883 47.3313 4.46997 46.2102 4.46997C45.089 4.46997 44.1802 5.37883 44.1802 6.49997C44.1802 7.62111 45.089 8.52997 46.2102 8.52997Z" fill="#DA2840"/>
<path d="M47.2903 9.23998C48.1603 8.89998 48.8203 8.15998 49.0603 7.23998C50.2003 7.16998 51.3503 7.66998 52.0803 8.66998C53.2103 10.22 52.8603 12.39 51.3103 13.52C49.9003 14.54 47.9903 14.35 46.8003 13.15C47.6003 11.97 47.7403 10.51 47.2903 9.23998Z" fill="#FAEEEF"/>
<path d="M44.1802 8.63995V9.33995C44.1902 10.39 44.2002 11.5 44.2102 12.63C44.2102 13.09 44.2202 13.55 44.2202 14.01C44.9002 13.8 45.5102 13.37 45.9502 12.76C46.6802 11.76 46.8002 10.51 46.3802 9.44995C45.5602 9.47995 44.7602 9.18995 44.1802 8.63995Z" fill="#FAEEEF"/>
<path d="M44.0801 0.599976C44.1001 0.869976 44.1201 2.15998 44.1401 4.06998C44.2001 4.11998 44.2701 4.16998 44.3401 4.20998C45.0701 3.61998 46.0401 3.40998 46.9501 3.63998C47.2701 2.55998 48.0101 1.60998 49.0301 1.04998C46.1401 0.789976 44.0801 0.599976 44.0801 0.599976Z" fill="#FAEEEF"/>
<path d="M49.1601 6.31995C49.1001 5.38995 48.6001 4.52995 47.8101 4.01995C48.1001 2.90995 48.9301 1.96995 50.1001 1.58995C51.9201 0.999952 53.8801 1.99995 54.4801 3.81995C55.0201 5.46995 54.2501 7.23995 52.7401 7.99995C51.8401 6.85995 50.5001 6.27995 49.1601 6.31995Z" fill="#FAEEEF"/>
<path d="M66.2498 28.78C66.1098 28.24 66.0098 27.67 65.9598 27.09C65.8998 26.33 65.8498 25.54 65.8298 24.71C65.7298 24.69 65.6198 24.67 65.5198 24.64C64.8098 26.02 65.0998 27.72 66.2498 28.78Z" fill="#FAEEEF"/>
<path d="M65.6499 23.71C65.6999 23.73 65.7599 23.74 65.8099 23.76C65.7799 22.05 65.8299 20.23 65.9299 18.34C65.9499 17.91 65.9699 17.47 66.0099 17.02C64.8299 17.27 63.8199 18.11 63.4199 19.34C62.8299 21.16 63.8199 23.12 65.6499 23.71Z" fill="#FAEEEF"/>
<path d="M44.2798 25.93C44.2898 27.57 44.2898 28.91 44.2898 29.8C44.4798 29.86 44.6798 29.89 44.8898 29.89C46.0098 29.89 46.9198 28.98 46.9198 27.87C46.9198 26.75 46.0098 25.84 44.8898 25.84C44.6798 25.84 44.4698 25.87 44.2798 25.93Z" fill="#0FC8EF"/>
<path d="M45.97 30.61C46.84 30.27 47.5 29.53 47.74 28.61C48.88 28.54 50.03 29.04 50.76 30.04C51.89 31.59 51.54 33.76 49.99 34.89C48.58 35.91 46.67 35.72 45.48 34.52C46.28 33.33 46.42 31.88 45.97 30.61Z" fill="#EF3D5A"/>
<path d="M43.4199 35.17C43.8899 34.93 44.2999 34.58 44.6299 34.12C45.3599 33.13 45.4699 31.87 45.0599 30.81C44.7999 30.83 44.5499 30.81 44.2999 30.76C44.2999 30.88 44.2999 30.95 44.2999 30.95C43.9199 32.25 43.6299 33.68 43.4199 35.17Z" fill="#EF3D5A"/>
<path d="M44.25 19.24C44.25 20.27 44.25 21.27 44.26 22.24C44.27 23.21 44.27 24.13 44.28 24.98C44.72 24.89 45.18 24.9 45.63 25.01C46.01 23.72 46.98 22.62 48.32 22.13C48.07 20.46 46.63 19.18 44.89 19.18C44.67 19.18 44.46 19.2 44.25 19.24Z" fill="#EF3D5A"/>
<path d="M47.8397 27.68C47.7797 26.75 47.2797 25.89 46.4897 25.38C46.7797 24.27 47.6097 23.33 48.7797 22.95C50.5997 22.36 52.5597 23.36 53.1597 25.18C53.6997 26.83 52.9297 28.6 51.4197 29.36C50.5197 28.23 49.1797 27.65 47.8397 27.68Z" fill="#EF3D5A"/>
<path d="M76.77 40.3799C76.77 41.4899 77.68 42.3999 78.8 42.3999C79.92 42.3999 80.82 41.4899 80.82 40.3799C80.82 40.2299 80.8 40.0799 80.77 39.9399C80.03 39.3499 79.23 38.8399 78.42 38.3799C77.48 38.5599 76.77 39.3899 76.77 40.3799Z" fill="#0FC8EF"/>
<path d="M79.3901 47.04C80.5801 48.24 82.4901 48.42 83.9001 47.4C84.3501 47.07 84.7001 46.66 84.9401 46.19C84.5301 44.18 83.4901 42.51 82.1201 41.13C81.9701 41.11 81.8101 41.11 81.6501 41.12C81.4101 42.04 80.7501 42.78 79.8801 43.12C80.3301 44.39 80.1901 45.84 79.3901 47.04Z" fill="#FAEEEF"/>
<path d="M76.5199 42.25C77.1099 42.97 78.0199 43.37 78.9699 43.32C79.3899 44.39 79.2699 45.63 78.5499 46.63C77.4199 48.18 75.2499 48.53 73.6999 47.4C72.2899 46.38 71.8799 44.5 72.6499 43C74.0299 43.39 75.4599 43.07 76.5199 42.25Z" fill="#FAEEEF"/>
<path d="M72.77 42.07C73.94 42.45 75.16 42.17 76.05 41.45C75.7 40.57 75.81 39.58 76.31 38.79C75.56 38.27 74.97 37.53 74.67 36.65C74.53 36.6 74.4 36.55 74.26 36.5V36.49C73.93 36.38 73.6 36.27 73.29 36.17C72.91 36.04 72.53 35.9 72.17 35.72C71.43 36.13 70.83 36.82 70.54 37.69C69.95 39.52 70.94 41.48 72.77 42.07Z" fill="#FAEEEF"/>
<path d="M75.96 37.17C76.22 37.54 76.54 37.85 76.92 38.09C77.05 37.98 77.19 37.89 77.34 37.81C76.88 37.57 76.42 37.36 75.96 37.17Z" fill="#FAEEEF"/>
<path d="M49.78 45.1C50.647 45.1 51.35 44.397 51.35 43.53C51.35 42.6629 50.647 41.96 49.78 41.96C48.9129 41.96 48.21 42.6629 48.21 43.53C48.21 44.397 48.9129 45.1 49.78 45.1Z" fill="#FAEEEF"/>
<path d="M50.62 45.66C51.29 45.39 51.81 44.82 52 44.11C52.89 44.06 53.78 44.44 54.34 45.22C55.22 46.43 54.95 48.11 53.74 48.99C52.65 49.78 51.16 49.64 50.23 48.71C50.86 47.78 50.97 46.65 50.62 45.66Z" fill="#EF3D5A"/>
<path d="M48.0101 44.99C48.4701 45.55 49.1801 45.86 49.9101 45.82C50.2301 46.65 50.1401 47.62 49.5801 48.39C48.7001 49.6 47.0201 49.86 45.8101 48.99C44.7201 48.2 44.3901 46.73 45.0001 45.57C46.0701 45.87 47.1801 45.63 48.0101 44.99Z" fill="#EF3D5A"/>
<path d="M47.8401 42.3C47.4501 42.91 47.3701 43.68 47.6401 44.37C46.9501 44.93 46.0001 45.15 45.0901 44.85C43.6701 44.39 42.9001 42.87 43.3601 41.45C43.7801 40.16 45.0701 39.41 46.3601 39.62C46.4001 40.73 46.9801 41.71 47.8401 42.3Z" fill="#EF3D5A"/>
<path d="M50.3503 41.31C49.6503 41.13 48.8903 41.29 48.3203 41.75C47.5703 41.27 47.0703 40.43 47.0703 39.48C47.0703 37.99 48.2803 36.78 49.7703 36.78C51.1203 36.78 52.2403 37.77 52.4403 39.07C51.4003 39.46 50.6503 40.31 50.3503 41.31Z" fill="#EF3D5A"/>
<path d="M52.07 43.39C52.02 42.67 51.64 42 51.02 41.6C51.24 40.74 51.89 40.01 52.8 39.71C54.22 39.25 55.74 40.03 56.2 41.44C56.62 42.73 56.02 44.1 54.85 44.69C54.15 43.82 53.11 43.36 52.07 43.39Z" fill="#EF3D5A"/>
<path d="M62.4499 37.1499C63.422 37.1499 64.2099 36.362 64.2099 35.3899C64.2099 34.4179 63.422 33.6299 62.4499 33.6299C61.4779 33.6299 60.6899 34.4179 60.6899 35.3899C60.6899 36.362 61.4779 37.1499 62.4499 37.1499Z" fill="#EF3D5A"/>
<path d="M63.39 37.7799C64.14 37.4799 64.73 36.8399 64.93 36.0399C65.92 35.9799 66.93 36.4099 67.56 37.2799C68.54 38.6299 68.24 40.5199 66.89 41.4999C65.66 42.3899 64 42.2299 62.96 41.1799C63.66 40.1499 63.78 38.8799 63.39 37.7799Z" fill="#0FC8EF"/>
<path d="M60.4699 37.02C60.9899 37.65 61.7799 38 62.5999 37.95C62.9599 38.88 62.8599 39.97 62.2299 40.83C61.2499 42.18 59.3599 42.48 58.0099 41.5C56.7799 40.61 56.4199 38.97 57.0999 37.67C58.2899 38.01 59.5399 37.74 60.4699 37.02Z" fill="#0FC8EF"/>
<path d="M60.28 34.01C59.85 34.7 59.75 35.56 60.05 36.32C59.28 36.95 58.21 37.19 57.2 36.86C55.61 36.34 54.74 34.64 55.26 33.05C55.73 31.61 57.17 30.76 58.62 31C58.67 32.25 59.32 33.34 60.28 34.01Z" fill="#0FC8EF"/>
<path d="M63.0899 32.9C62.2999 32.7 61.4499 32.88 60.8199 33.4C59.9799 32.86 59.4199 31.92 59.4199 30.85C59.4199 29.18 60.7699 27.83 62.4399 27.83C63.9499 27.83 65.2099 28.94 65.4299 30.4C64.2699 30.82 63.4299 31.78 63.0899 32.9Z" fill="#0FC8EF"/>
<path d="M63.8301 33.23C64.5301 33.67 64.9601 34.42 65.0101 35.23C66.1801 35.2 67.3501 35.71 68.1201 36.69C69.0701 36.21 69.6801 35.26 69.7601 34.23C68.6601 33.34 67.7601 32.24 67.1101 30.99C66.6901 30.93 66.2601 30.97 65.8301 31.11C64.8101 31.44 64.0901 32.26 63.8301 33.23Z" fill="#0FC8EF"/>
<path d="M56.6804 19.54C57.5474 19.54 58.2504 18.8371 58.2504 17.97C58.2504 17.1029 57.5474 16.4 56.6804 16.4C55.8133 16.4 55.1104 17.1029 55.1104 17.97C55.1104 18.8371 55.8133 19.54 56.6804 19.54Z" fill="#FAEEEF"/>
<path d="M57.5301 20.11C58.2001 19.84 58.7201 19.27 58.9101 18.56C59.8001 18.51 60.6901 18.89 61.2501 19.67C62.1301 20.88 61.8601 22.56 60.6501 23.44C59.5601 24.23 58.0701 24.09 57.1401 23.16C57.7701 22.22 57.8701 21.09 57.5301 20.11Z" fill="#EF3D5A"/>
<path d="M54.9203 19.43C55.3803 19.99 56.0903 20.3 56.8203 20.26C57.1403 21.09 57.0503 22.06 56.4903 22.83C55.6103 24.04 53.9303 24.3 52.7203 23.43C51.6303 22.64 51.3003 21.17 51.9103 20.01C52.9803 20.32 54.0803 20.07 54.9203 19.43Z" fill="#EF3D5A"/>
<path d="M54.7503 16.74C54.3603 17.35 54.2803 18.12 54.5503 18.81C53.8603 19.37 52.9103 19.59 52.0003 19.29C50.5803 18.83 49.8103 17.31 50.2703 15.89C50.6903 14.6 51.9803 13.85 53.2703 14.06C53.3103 15.17 53.8903 16.15 54.7503 16.74Z" fill="#EF3D5A"/>
<path d="M57.2605 15.75C56.5605 15.57 55.8005 15.73 55.2305 16.19C54.4805 15.71 53.9805 14.87 53.9805 13.92C53.9805 12.43 55.1905 11.22 56.6805 11.22C58.0305 11.22 59.1505 12.21 59.3505 13.51C58.3105 13.9 57.5605 14.75 57.2605 15.75Z" fill="#EF3D5A"/>
<path d="M58.9704 17.83C58.9204 17.11 58.5404 16.44 57.9204 16.04C58.1404 15.18 58.7904 14.45 59.7004 14.15C61.1204 13.69 62.6404 14.47 63.1004 15.88C63.5204 17.17 62.9204 18.54 61.7504 19.13C61.0604 18.26 60.0204 17.81 58.9704 17.83Z" fill="#EF3D5A"/>
<path d="M63.07 7.61998C63.9371 7.61998 64.64 6.91707 64.64 6.04998C64.64 5.18289 63.9371 4.47998 63.07 4.47998C62.2029 4.47998 61.5 5.18289 61.5 6.04998C61.5 6.91707 62.2029 7.61998 63.07 7.61998Z" fill="#FAEEEF"/>
<path d="M63.5303 11.23C64.3003 12.01 65.4703 12.24 66.4703 11.82C66.4803 11.68 66.4903 11.54 66.5103 11.4C66.5503 11.01 66.5903 10.61 66.6403 10.21C66.7603 9.16995 66.8803 8.10995 66.9903 7.11995C66.4903 6.75995 65.8903 6.59995 65.2903 6.62995C65.1003 7.33995 64.5803 7.91995 63.9103 8.18995C64.2603 9.16995 64.1503 10.3 63.5303 11.23Z" fill="#0FC8EF"/>
<path d="M61.3002 7.50995C61.7602 8.06995 62.4702 8.37995 63.2002 8.33995C63.5202 9.16995 63.4302 10.1399 62.8702 10.9099C61.9902 12.1199 60.3102 12.3799 59.1002 11.5099C58.0102 10.7199 57.6802 9.24995 58.2902 8.08995C59.3602 8.38995 60.4702 8.14995 61.3002 7.50995Z" fill="#0FC8EF"/>
<path d="M61.1302 4.81994C60.7502 5.42994 60.6602 6.19994 60.9302 6.88994C60.2402 7.44994 59.2902 7.66994 58.3802 7.36994C56.9602 6.90994 56.1902 5.38994 56.6502 3.96994C57.0702 2.67994 58.3602 1.92994 59.6502 2.13994C59.7002 3.24994 60.2702 4.22994 61.1302 4.81994Z" fill="#0FC8EF"/>
<path d="M60.3701 2.07996C60.4001 3.00996 60.8801 3.80996 61.6101 4.27996C62.1801 3.80996 62.9401 3.64996 63.6401 3.82996C63.7901 3.31996 64.0701 2.83996 64.4401 2.44996C63.2901 2.33996 61.8901 2.20996 60.3701 2.07996Z" fill="#0FC8EF"/>
<path d="M64.3003 4.11997C64.9203 4.51997 65.3103 5.18997 65.3503 5.90997C65.9503 5.89997 66.5603 6.03997 67.0803 6.33997C67.3303 4.27997 67.5203 2.72997 67.5203 2.72997C67.4303 2.71997 66.6603 2.64997 65.4503 2.52997H65.4403C64.8703 2.90997 64.4703 3.47997 64.3003 4.11997Z" fill="#0FC8EF"/>
</g>
<defs>
<clipPath id="clip0_301_6295">
<rect width="84.18" height="52.8" fill="white" transform="translate(0.930176 0.599976)"/>
</clipPath>
</defs>
</svg>
