<svg width="94" height="24" viewBox="0 0 94 24" fill="none" xmlns="http://www.w3.org/2000/svg">
<g clip-path="url(#clip0_301_8599)">
<path d="M50.2598 19.405V11.755L77.1398 1.21497C77.1398 1.21497 92.6498 6.38497 93.4698 19.405H50.2598Z" fill="#FC9E17"/>
<path d="M50.2607 23.3364L93.4707 23.3364L93.4707 19.4064L50.2607 19.4064L50.2607 23.3364Z" fill="#F1EDB9"/>
<path d="M80.0298 10.3049C81.5265 10.3049 82.7398 9.09164 82.7398 7.59495C82.7398 6.09826 81.5265 4.88495 80.0298 4.88495C78.5331 4.88495 77.3198 6.09826 77.3198 7.59495C77.3198 9.09164 78.5331 10.3049 80.0298 10.3049Z" fill="#162330"/>
<path d="M86.1597 15.065C87.6564 15.065 88.8697 13.8517 88.8697 12.355C88.8697 10.8583 87.6564 9.64496 86.1597 9.64496C84.663 9.64496 83.4497 10.8583 83.4497 12.355C83.4497 13.8517 84.663 15.065 86.1597 15.065Z" fill="#162330"/>
<path d="M85.9199 12.5849C85.9199 12.5849 87.6899 10.8249 89.4899 9.63495" stroke="#FAFAFA" stroke-width="2" stroke-miterlimit="10" stroke-linecap="round"/>
<path d="M80.2896 7.59496C80.2896 7.59496 82.0596 5.83496 83.8596 4.64496" stroke="#FAFAFA" stroke-width="2" stroke-miterlimit="10" stroke-linecap="round"/>
<path d="M61.0996 13.1449C61.3696 11.5349 62.7496 10.3149 64.4396 10.3149C66.1196 10.3149 67.5096 11.5449 67.7796 13.1449H61.0996Z" fill="#FBF6D1"/>
<path d="M61.0996 16.2749C61.3696 14.6649 62.7496 13.4449 64.4396 13.4449C66.1196 13.4449 67.5096 14.6749 67.7796 16.2749H61.0996Z" fill="#FBF6D1"/>
<path d="M59.2396 15.615C58.9696 17.225 57.5896 18.445 55.8996 18.445C54.2196 18.445 52.8296 17.215 52.5596 15.615H59.2396Z" fill="#FBF6D1"/>
<path d="M59.2396 12.485C58.9696 14.095 57.5896 15.315 55.8996 15.315C54.2196 15.315 52.8296 14.085 52.5596 12.485H59.2396Z" fill="#FBF6D1"/>
<path d="M76.2996 12.785C76.0296 14.395 74.6496 15.615 72.9596 15.615C71.2796 15.615 69.8896 14.385 69.6196 12.785H76.2996Z" fill="#FBF6D1"/>
<path d="M43.21 18.855V11.205L16.33 0.664978C16.33 0.664978 0.83 5.83498 0 18.855H43.21Z" fill="#FC9E17"/>
<path d="M43.21 18.855H0V22.785H43.21V18.855Z" fill="#F1EDB9"/>
<path d="M13.44 9.75496C14.9367 9.75496 16.15 8.54165 16.15 7.04496C16.15 5.54827 14.9367 4.33496 13.44 4.33496C11.9433 4.33496 10.73 5.54827 10.73 7.04496C10.73 8.54165 11.9433 9.75496 13.44 9.75496Z" fill="#162330"/>
<path d="M7.3101 14.515C8.80679 14.515 10.0201 13.3017 10.0201 11.805C10.0201 10.3083 8.80679 9.09497 7.3101 9.09497C5.81341 9.09497 4.6001 10.3083 4.6001 11.805C4.6001 13.3017 5.81341 14.515 7.3101 14.515Z" fill="#162330"/>
<path d="M7.54998 12.035C7.54998 12.035 5.77998 10.275 3.97998 9.08496" stroke="#FAFAFA" stroke-width="2" stroke-miterlimit="10" stroke-linecap="round"/>
<path d="M13.1799 7.04497C13.1799 7.04497 11.4099 5.28497 9.60986 4.09497" stroke="#FAFAFA" stroke-width="2" stroke-miterlimit="10" stroke-linecap="round"/>
<path d="M32.3699 12.595C32.0999 10.985 30.7199 9.76495 29.0299 9.76495C27.3499 9.76495 25.9599 10.995 25.6899 12.595H32.3699Z" fill="#FBF6D1"/>
<path d="M32.3699 15.735C32.0999 14.125 30.7199 12.905 29.0299 12.905C27.3499 12.905 25.9599 14.135 25.6899 15.735H32.3699Z" fill="#FBF6D1"/>
<path d="M34.23 15.065C34.5 16.675 35.88 17.895 37.57 17.895C39.25 17.895 40.64 16.665 40.91 15.065H34.23Z" fill="#FBF6D1"/>
<path d="M34.23 11.935C34.5 13.545 35.88 14.765 37.57 14.765C39.25 14.765 40.64 13.535 40.91 11.935H34.23Z" fill="#FBF6D1"/>
<path d="M17.1699 12.235C17.4399 13.845 18.8199 15.065 20.5099 15.065C22.1899 15.065 23.5799 13.835 23.8499 12.235H17.1699Z" fill="#FBF6D1"/>
</g>
<defs>
<clipPath id="clip0_301_8599">
<rect width="93.47" height="22.67" fill="white" transform="translate(0 0.664978)"/>
</clipPath>
</defs>
</svg>
