<svg width="61" height="22" viewBox="0 0 61 22" fill="none" xmlns="http://www.w3.org/2000/svg">
<g clip-path="url(#clip0_301_14897)">
<path d="M41.3802 8.45501L22.7002 0.38501V3.52501L40.4502 10.525L41.3802 8.45501Z" fill="#E27B1E"/>
<path d="M36.73 17.215L51.42 18.555L55.02 6.40503C54.63 6.09503 54.06 5.70503 53.36 5.25503C53.08 5.08503 52.77 4.89503 52.46 4.71503C51.81 4.32503 51.1 3.92503 50.39 3.51503C50.08 3.34503 49.77 3.18503 49.47 3.01503C48.69 2.57503 47.91 2.15503 47.22 1.79503C46.88 1.60503 46.56 1.44503 46.28 1.28503C45.27 0.755029 44.6 0.405029 44.6 0.405029L36.73 17.215Z" fill="#DB8631"/>
<path d="M39.1904 16.625L40.1404 17.065L47.2104 1.78503C46.8804 1.60503 46.5604 1.44503 46.2804 1.28503L39.1904 16.625Z" fill="#C16E14"/>
<path d="M43 16.975L43.94 17.415L50.38 3.51501C50.07 3.34501 49.76 3.18501 49.46 3.01501L43 16.975Z" fill="#C16E14"/>
<path d="M46.4302 17.725L47.3802 18.165L53.3502 5.25503C53.0702 5.08503 52.7602 4.89503 52.4502 4.71503L46.4302 17.725Z" fill="#C16E14"/>
<path d="M22.7002 14.275V21.615H60.3502V16.685L22.7002 14.275Z" fill="#111E2B"/>
<path d="M54.19 18.595H52.21V21.615H54.19V18.595Z" fill="#414B55"/>
<path d="M39.2 18.595H37.23V21.615H39.2V18.595Z" fill="#414B55"/>
<path d="M33.73 18.595H31.75V21.615H33.73V18.595Z" fill="#414B55"/>
<path d="M28.2503 18.595H26.2803V21.615H28.2503V18.595Z" fill="#414B55"/>
<path d="M19.2401 8.45501L0.560059 0.38501V3.52501L18.3101 10.525L19.2401 8.45501Z" fill="#FC9221"/>
<path d="M14.5898 17.215L29.2798 18.555L32.8798 6.40504C32.4898 6.09504 31.9198 5.70504 31.2198 5.25504C30.9398 5.08504 30.6298 4.89504 30.3198 4.71504C29.6698 4.32504 28.9598 3.92504 28.2498 3.51504C27.9398 3.34504 27.6298 3.18504 27.3298 3.01504C26.5498 2.57504 25.7698 2.15504 25.0798 1.79504C24.7498 1.61504 24.4298 1.45504 24.1498 1.29504C23.1398 0.765039 22.4698 0.415039 22.4698 0.415039L14.5898 17.215Z" fill="#FBA33D"/>
<path d="M17.0503 16.625L18.0003 17.065L25.0703 1.78503C24.7403 1.60503 24.4203 1.44503 24.1403 1.28503L17.0503 16.625Z" fill="#E18A1D"/>
<path d="M20.8599 16.975L21.7999 17.415L28.2399 3.51501C27.9299 3.34501 27.6199 3.18501 27.3199 3.01501L20.8599 16.975Z" fill="#E18A1D"/>
<path d="M24.29 17.725L25.24 18.165L31.21 5.25503C30.93 5.08503 30.62 4.89503 30.31 4.71503L24.29 17.725Z" fill="#E18A1D"/>
<path d="M0.560059 14.275V21.615H38.2101V16.685L0.560059 14.275Z" fill="#111E2B"/>
<path d="M32.0498 18.595H30.0698V21.615H32.0498V18.595Z" fill="#414B55"/>
<path d="M17.0598 18.595H15.0898V21.615H17.0598V18.595Z" fill="#414B55"/>
<path d="M11.5899 18.595H9.60986V21.615H11.5899V18.595Z" fill="#414B55"/>
<path d="M6.1199 18.595H4.1499V21.615H6.1199V18.595Z" fill="#414B55"/>
</g>
<defs>
<clipPath id="clip0_301_14897">
<rect width="59.79" height="21.23" fill="white" transform="translate(0.560059 0.38501)"/>
</clipPath>
</defs>
</svg>
