<svg width="120" height="86" viewBox="0 0 120 86" fill="none" xmlns="http://www.w3.org/2000/svg">
<g clip-path="url(#clip0_318_11199)">
<path d="M55.4699 81.57V74.6L30.9999 65C30.9999 65 16.8799 69.71 16.1299 81.57H55.4699Z" fill="#FC9E17"/>
<path d="M55.4701 81.57H16.1201V85.15H55.4701V81.57Z" fill="#F1EDB9"/>
<path d="M28.3601 73.28C29.7243 73.28 30.8301 72.1742 30.8301 70.81C30.8301 69.4459 29.7243 68.34 28.3601 68.34C26.996 68.34 25.8901 69.4459 25.8901 70.81C25.8901 72.1742 26.996 73.28 28.3601 73.28Z" fill="#162330"/>
<path d="M22.7801 77.62C24.1442 77.62 25.2501 76.5141 25.2501 75.15C25.2501 73.7859 24.1442 72.68 22.7801 72.68C21.4159 72.68 20.3101 73.7859 20.3101 75.15C20.3101 76.5141 21.4159 77.62 22.7801 77.62Z" fill="#162330"/>
<path d="M22.9902 75.36C22.9902 75.36 21.3802 73.76 19.7402 72.68" stroke="#FAFAFA" stroke-width="2" stroke-miterlimit="10" stroke-linecap="round"/>
<path d="M28.1299 70.81C28.1299 70.81 26.5199 69.21 24.8799 68.13" stroke="#FAFAFA" stroke-width="2" stroke-miterlimit="10" stroke-linecap="round"/>
<path d="M45.6 75.87C45.36 74.41 44.09 73.29 42.56 73.29C41.03 73.29 39.77 74.41 39.52 75.87H45.6Z" fill="#FBF6D1"/>
<path d="M45.6 78.72C45.36 77.26 44.09 76.14 42.56 76.14C41.03 76.14 39.77 77.26 39.52 78.72H45.6Z" fill="#FBF6D1"/>
<path d="M47.29 78.12C47.53 79.58 48.8 80.7 50.33 80.7C51.86 80.7 53.12 79.58 53.37 78.12H47.29Z" fill="#FBF6D1"/>
<path d="M47.29 75.26C47.53 76.72 48.8 77.84 50.33 77.84C51.86 77.84 53.12 76.72 53.37 75.26H47.29Z" fill="#FBF6D1"/>
<path d="M31.7603 75.54C32.0003 77 33.2703 78.12 34.8003 78.12C36.3303 78.12 37.5903 77 37.8403 75.54H31.7603Z" fill="#FBF6D1"/>
<path d="M64.5303 81.64V74.67L89.0003 65.07C89.0003 65.07 103.12 69.78 103.87 81.64H64.5303Z" fill="#FC9E17"/>
<path d="M64.5255 85.2201L103.875 85.2201L103.875 81.6401L64.5255 81.6401L64.5255 85.2201Z" fill="#F1EDB9"/>
<path d="M91.6404 73.36C93.0046 73.36 94.1104 72.2541 94.1104 70.89C94.1104 69.5258 93.0046 68.42 91.6404 68.42C90.2763 68.42 89.1704 69.5258 89.1704 70.89C89.1704 72.2541 90.2763 73.36 91.6404 73.36Z" fill="#162330"/>
<path d="M97.2205 77.69C98.5846 77.69 99.6905 76.5841 99.6905 75.22C99.6905 73.8559 98.5846 72.75 97.2205 72.75C95.8563 72.75 94.7505 73.8559 94.7505 75.22C94.7505 76.5841 95.8563 77.69 97.2205 77.69Z" fill="#162330"/>
<path d="M97.0103 75.43C97.0103 75.43 98.6203 73.83 100.26 72.75" stroke="#FAFAFA" stroke-width="2" stroke-miterlimit="10" stroke-linecap="round"/>
<path d="M91.8701 70.89C91.8701 70.89 93.4801 69.29 95.1201 68.21" stroke="#FAFAFA" stroke-width="2" stroke-miterlimit="10" stroke-linecap="round"/>
<path d="M74.4004 75.94C74.6404 74.48 75.9104 73.36 77.4404 73.36C78.9704 73.36 80.2304 74.48 80.4804 75.94H74.4004Z" fill="#FBF6D1"/>
<path d="M74.4004 78.79C74.6404 77.33 75.9104 76.21 77.4404 76.21C78.9704 76.21 80.2304 77.33 80.4804 78.79H74.4004Z" fill="#FBF6D1"/>
<path d="M72.7104 78.19C72.4704 79.65 71.2004 80.77 69.6704 80.77C68.1404 80.77 66.8804 79.65 66.6304 78.19H72.7104Z" fill="#FBF6D1"/>
<path d="M72.7104 75.33C72.4704 76.79 71.2004 77.91 69.6704 77.91C68.1404 77.91 66.8804 76.79 66.6304 75.33H72.7104Z" fill="#FBF6D1"/>
<path d="M88.2402 75.61C88.0002 77.07 86.7301 78.19 85.2001 78.19C83.6701 78.19 82.4102 77.07 82.1602 75.61H88.2402Z" fill="#FBF6D1"/>
</g>
<defs>
<clipPath id="clip0_318_11199">
<rect width="120" height="85" fill="white" transform="translate(0 0.5)"/>
</clipPath>
</defs>
</svg>
