<svg width="120" height="86" viewBox="0 0 120 86" fill="none" xmlns="http://www.w3.org/2000/svg">
<g clip-path="url(#clip0_318_11371)">
<path d="M60.1802 12.93C60.1702 14.18 60.1302 15.53 60.0802 16.91C60.0002 19.4 59.8602 22.02 59.6902 24.54C59.6202 25.57 59.5502 26.58 59.4802 27.56C59.4002 28.65 59.3302 29.69 59.2402 30.68C59.2102 30.97 59.1902 31.25 59.1602 31.52V31.55C59.0302 33.1 58.9102 34.47 58.8002 35.59C58.6402 37.15 58.5202 38.21 58.4602 38.52C58.3702 39.01 58.1202 40.94 57.8302 43.46C57.8302 43.46 57.8202 43.46 57.8202 43.47C57.7802 43.84 57.7302 44.23 57.6902 44.62C57.4802 46.43 57.2502 48.42 57.0302 50.37V50.38C57.0202 50.43 57.0202 50.47 57.0102 50.52L56.7202 53.04C56.6902 53.28 56.6702 53.51 56.6502 53.74C56.6102 54.05 56.5802 54.35 56.5402 54.64C56.2802 57.03 56.0802 58.88 56.0102 59.41C56.0102 59.52 56.0002 59.57 56.0002 59.57C56.5102 61.35 56.8802 63.33 57.1302 65.4V65.42C57.1902 65.86 57.2402 66.28 57.2802 66.72C57.5002 68.95 57.6302 71.22 57.6802 73.36C57.6802 73.57 57.6802 73.78 57.6902 73.98V74.02C57.7902 79.78 57.4202 84.44 57.4202 84.44H42.2502V81.15C41.6602 81.06 40.7102 81.17 39.6502 81.37C38.4802 81.6 37.1902 81.92 36.0702 82.24C34.4602 82.69 33.2202 83.11 33.2202 83.11C21.4102 86.45 9.7002 84.44 9.7002 84.44V78.18C10.1002 72.94 14.1602 69.55 18.3302 67.44C19.5902 66.8 20.8402 66.28 22.0102 65.87V65.86C22.3902 65.73 22.7502 65.6 23.1102 65.49C24.1302 65.16 25.0802 64.71 25.9502 64.14C26.7602 63.63 27.5002 63.02 28.1502 62.33C29.3002 61.15 30.1902 59.74 30.7502 58.19C31.1102 57.24 31.3302 56.23 31.4202 55.19C31.6102 52.93 31.6502 50.37 31.5602 47.64C31.5402 47.12 31.5202 46.58 31.4902 46.04C31.4902 46.03 31.4902 46.02 31.4902 46.02C31.4902 45.77 31.4702 45.52 31.4602 45.26C31.4502 45.07 31.4402 44.89 31.4302 44.7C31.4002 44.29 31.3802 43.88 31.3502 43.47C31.3502 43.46 31.3502 43.46 31.3502 43.46C31.3002 42.72 31.2402 41.97 31.1702 41.22C31.1502 40.9 31.1202 40.58 31.0902 40.26C31.0102 39.31 30.9102 38.36 30.8102 37.4C30.7602 36.95 30.7102 36.5 30.6602 36.04C30.6402 35.83 30.6102 35.61 30.5802 35.4C30.1302 31.54 29.5802 27.72 29.0202 24.27C28.8002 22.86 28.5702 21.52 28.3602 20.25C28.2802 19.81 28.2102 19.38 28.1302 18.96V18.95C28.0602 18.57 28.0002 18.21 27.9302 17.85C27.9302 17.84 27.9302 17.84 27.9302 17.83C27.7502 16.83 27.5702 15.91 27.4102 15.07C27.0902 13.39 26.8202 12.04 26.6402 11.14C26.4702 10.31 26.3702 9.86 26.3702 9.86C26.9602 9.79 27.7402 9.7 28.6602 9.6C28.6702 9.6 28.6702 9.6 28.6702 9.6C28.9202 9.56 29.1702 9.53 29.4502 9.5C30.0402 9.43 30.6802 9.35 31.3502 9.28C31.3602 9.28 31.3602 9.28 31.3602 9.28C32.7602 9.11 34.3102 8.93 35.9702 8.74C36.2402 8.71 36.5102 8.68 36.7802 8.65C37.6802 8.54 38.6002 8.44 39.5402 8.33C41.1602 8.14 42.8202 7.95 44.4402 7.76C45.8202 7.61 47.1902 7.45 48.4802 7.31C48.5702 7.3 48.6702 7.29 48.7602 7.28C50.4502 7.08 52.0202 6.9 53.4302 6.73C53.8102 6.69 54.1702 6.65 54.5202 6.61C55.4002 6.51 56.2102 6.43 56.9002 6.34C58.7402 6.13 59.8402 6 59.8402 6C60.1002 7.6 60.2102 10.06 60.1802 12.93Z" fill="#030306"/>
<path d="M33.77 15.9C34.7696 15.9 35.58 15.0896 35.58 14.09C35.58 13.0903 34.7696 12.28 33.77 12.28C32.7703 12.28 31.96 13.0903 31.96 14.09C31.96 15.0896 32.7703 15.9 33.77 15.9Z" fill="#0FC8EF"/>
<path d="M32.8003 16.5399C32.0203 16.2299 31.4303 15.5699 31.2103 14.7499C30.1903 14.6899 29.1603 15.1399 28.5103 16.0199C27.5003 17.4099 27.8103 19.3499 29.2003 20.3599C30.4603 21.2699 32.1703 21.1099 33.2303 20.0299C32.5303 18.9799 32.4003 17.6799 32.8003 16.5399Z" fill="#EF3D5A"/>
<path d="M35.8101 15.77C35.2801 16.41 34.4601 16.78 33.6201 16.73C33.2501 17.68 33.3501 18.8 34.0001 19.69C35.0101 21.08 36.9501 21.39 38.3401 20.38C39.6001 19.47 39.9701 17.78 39.2801 16.44C38.0401 16.78 36.7601 16.5 35.8101 15.77Z" fill="#EF3D5A"/>
<path d="M36 12.67C36.45 13.37 36.54 14.26 36.23 15.05C37.02 15.7 38.12 15.94 39.16 15.6C40.79 15.07 41.68 13.32 41.15 11.69C40.67 10.21 39.18 9.33998 37.7 9.57998C37.65 10.86 36.99 11.99 36 12.67Z" fill="#EF3D5A"/>
<path d="M36.8804 9.42996C36.8804 10.53 36.3104 11.5 35.4504 12.05C34.8004 11.51 33.9203 11.33 33.1203 11.54C32.8403 10.6 32.2204 9.77996 31.3604 9.27996C32.7604 9.10996 34.3104 8.92996 35.9704 8.73996C36.2404 8.70996 36.5103 8.67996 36.7803 8.64996C36.8403 8.89996 36.8804 9.15996 36.8804 9.42996Z" fill="#EF3D5A"/>
<path d="M32.3501 11.8699C31.6401 12.3199 31.1901 13.0999 31.1401 13.9299C29.9401 13.8999 28.7401 14.4199 27.9501 15.4199C27.7601 15.3199 27.5801 15.2099 27.4101 15.0699C27.0901 13.3899 26.8201 12.0399 26.6401 11.1399C27.3401 9.86993 28.8701 9.22993 30.3001 9.69993C31.3501 10.0399 32.0901 10.8799 32.3501 11.8699Z" fill="#EF3D5A"/>
<path d="M51.6005 14.12C52.6002 14.12 53.4105 13.3096 53.4105 12.31C53.4105 11.3104 52.6002 10.5 51.6005 10.5C50.6009 10.5 49.7905 11.3104 49.7905 12.31C49.7905 13.3096 50.6009 14.12 51.6005 14.12Z" fill="#FAEEEF"/>
<path d="M50.6304 14.76C49.8504 14.45 49.2604 13.79 49.0404 12.97C48.0204 12.91 46.9904 13.36 46.3404 14.24C45.3304 15.63 45.6404 17.57 47.0304 18.58C48.2904 19.49 50.0004 19.33 51.0604 18.25C50.3604 17.2 50.2304 15.9 50.6304 14.76Z" fill="#0FC8EF"/>
<path d="M53.6304 13.99C53.1004 14.63 52.2804 15 51.4404 14.95C51.0704 15.9 51.1704 17.02 51.8204 17.91C52.8304 19.3 54.7704 19.61 56.1604 18.6C57.4204 17.69 57.7904 16 57.1004 14.66C55.8704 15 54.5904 14.72 53.6304 13.99Z" fill="#0FC8EF"/>
<path d="M53.8203 10.89C54.2703 11.59 54.3603 12.48 54.0503 13.27C54.8403 13.92 55.9403 14.16 56.9803 13.82C58.6103 13.29 59.5003 11.54 58.9703 9.91001C58.4903 8.43001 57.0003 7.56001 55.5203 7.80001C55.4803 9.09001 54.8203 10.21 53.8203 10.89Z" fill="#0FC8EF"/>
<path d="M54.7103 7.64999C54.7103 8.74999 54.1403 9.71999 53.2803 10.27C52.6203 9.72999 51.7503 9.54999 50.9403 9.75999C50.6203 8.67999 49.8503 7.74999 48.7603 7.27999C50.4503 7.07999 52.0203 6.89999 53.4303 6.72999C53.8103 6.68999 54.1703 6.64999 54.5203 6.60999C54.6503 6.93999 54.7103 7.28999 54.7103 7.64999Z" fill="#0FC8EF"/>
<path d="M48.9703 12.15C49.0203 11.32 49.4703 10.55 50.1803 10.09C49.9203 9.10001 49.1803 8.26001 48.1303 7.92001C46.5003 7.39001 44.7503 8.28001 44.2203 9.91001C43.7403 11.39 44.4303 12.97 45.7803 13.64C46.5603 12.64 47.7603 12.12 48.9703 12.15Z" fill="#0FC8EF"/>
<path d="M54.7104 30.84C55.71 30.84 56.5204 30.0297 56.5204 29.03C56.5204 28.0304 55.71 27.22 54.7104 27.22C53.7108 27.22 52.9004 28.0304 52.9004 29.03C52.9004 30.0297 53.7108 30.84 54.7104 30.84Z" fill="#DA2840"/>
<path d="M53.7402 31.48C52.9602 31.17 52.3702 30.51 52.1502 29.69C51.1302 29.63 50.1002 30.08 49.4502 30.96C48.4402 32.35 48.7502 34.29 50.1402 35.3C51.4002 36.21 53.1102 36.05 54.1702 34.97C53.4602 33.92 53.3402 32.62 53.7402 31.48Z" fill="#FAEEEF"/>
<path d="M59.1605 31.52V31.55C59.0305 33.1 58.9105 34.47 58.8005 35.59C57.4805 36.24 55.8305 35.86 54.9405 34.63C54.2905 33.74 54.1805 32.62 54.5605 31.67C55.4005 31.71 56.2105 31.35 56.7405 30.71C57.4305 31.23 58.2805 31.53 59.1605 31.52Z" fill="#FAEEEF"/>
<path d="M59.6904 24.54C59.6204 25.57 59.5504 26.58 59.4804 27.56C59.4004 28.65 59.3304 29.69 59.2404 30.68C58.4804 30.72 57.7404 30.46 57.1704 29.99C57.4804 29.2 57.3804 28.32 56.9404 27.61C57.9304 26.93 58.5904 25.81 58.6404 24.52C59.0004 24.46 59.3504 24.47 59.6904 24.54Z" fill="#FAEEEF"/>
<path d="M54.0504 26.48C54.8604 26.27 55.7304 26.46 56.3804 26.99C57.2404 26.44 57.8104 25.47 57.8104 24.37C57.8104 22.65 56.4204 21.26 54.7004 21.26C53.1404 21.26 51.8604 22.4 51.6304 23.89C52.8404 24.34 53.7004 25.32 54.0504 26.48Z" fill="#FAEEEF"/>
<path d="M52.0704 28.87C52.1204 28.04 52.5704 27.27 53.2804 26.81C53.0204 25.82 52.2804 24.98 51.2304 24.64C49.6004 24.11 47.8504 25 47.3204 26.63C46.8404 28.11 47.5304 29.69 48.8804 30.36C49.6704 29.36 50.8704 28.84 52.0704 28.87Z" fill="#FAEEEF"/>
<path d="M33.5999 42.93C33.5999 43.93 32.7899 44.74 31.7899 44.74C31.6699 44.74 31.5499 44.73 31.4299 44.7C31.3999 44.29 31.3799 43.88 31.3499 43.47C31.3499 43.46 31.3499 43.46 31.3499 43.46C31.2999 42.72 31.2399 41.97 31.1699 41.22C31.3599 41.15 31.5699 41.11 31.7899 41.11C32.7899 41.11 33.5999 41.92 33.5999 42.93Z" fill="#DA2840"/>
<path d="M31.4902 46.04C31.4902 46.03 31.4902 46.02 31.4902 46.02C31.5302 45.86 31.5702 45.71 31.6302 45.56C32.4802 45.61 33.2902 45.25 33.8202 44.6C34.7802 45.34 36.0502 45.62 37.2902 45.27C37.9802 46.61 37.6102 48.29 36.3502 49.21C34.9602 50.22 33.0202 49.91 32.0102 48.52C31.8102 48.24 31.6602 47.95 31.5602 47.64L31.4902 46.04Z" fill="#FAEEEF"/>
<path d="M34.0103 41.5099C34.4603 42.2099 34.5503 43.0999 34.2403 43.8899C35.0303 44.5399 36.1303 44.7799 37.1703 44.4399C38.8003 43.9099 39.6903 42.1599 39.1603 40.5299C38.6803 39.0499 37.1903 38.1799 35.7103 38.4199C35.6603 39.6999 35.0003 40.8299 34.0103 41.5099Z" fill="#FAEEEF"/>
<path d="M34.8901 38.27C34.8901 39.37 34.3201 40.33 33.4601 40.88C32.8001 40.35 31.9301 40.16 31.1301 40.37C31.1201 40.33 31.1101 40.29 31.0901 40.26C31.0101 39.31 30.9101 38.36 30.8101 37.4C30.7601 36.95 30.7101 36.5 30.6601 36.04C30.6401 35.83 30.6101 35.61 30.5801 35.4C30.9501 35.24 31.3601 35.16 31.7901 35.16C33.5001 35.16 34.8901 36.55 34.8901 38.27Z" fill="#FAEEEF"/>
<path d="M53.9404 54.41C54.94 54.41 55.7504 53.5996 55.7504 52.6C55.7504 51.6003 54.94 50.79 53.9404 50.79C52.9407 50.79 52.1304 51.6003 52.1304 52.6C52.1304 53.5996 52.9407 54.41 53.9404 54.41Z" fill="#0FC8EF"/>
<path d="M52.9702 55.06C52.1902 54.75 51.6002 54.09 51.3802 53.28C50.3602 53.22 49.3302 53.67 48.6802 54.55C47.6702 55.94 47.9802 57.88 49.3702 58.89C50.6302 59.8 52.3402 59.64 53.4002 58.56C52.6902 57.49 52.5702 56.19 52.9702 55.06Z" fill="#EF3D5A"/>
<path d="M56.5405 54.64C56.2805 57.03 56.0805 58.88 56.0105 59.41C55.2905 59.25 54.6305 58.84 54.1705 58.2C53.5205 57.31 53.4205 56.19 53.7905 55.24C54.6305 55.29 55.4505 54.93 55.9805 54.28C56.1605 54.42 56.3405 54.54 56.5405 54.64Z" fill="#EF3D5A"/>
<path d="M57.0304 50.3799C57.0204 50.4299 57.0204 50.4699 57.0104 50.5199L56.7204 53.0399C56.6904 53.2799 56.6704 53.5099 56.6504 53.7399C56.5604 53.6899 56.4804 53.6299 56.4004 53.5599C56.7104 52.7799 56.6104 51.8899 56.1704 51.1899C56.5004 50.9599 56.7804 50.6899 57.0304 50.3799Z" fill="#EF3D5A"/>
<path d="M53.2803 50.05C54.0903 49.84 54.9604 50.03 55.6104 50.56C56.4704 50.01 57.0404 49.04 57.0404 47.94C57.0404 46.22 55.6504 44.83 53.9304 44.83C52.3704 44.83 51.0904 45.97 50.8604 47.46C52.0704 47.92 52.9303 48.9 53.2803 50.05Z" fill="#EF3D5A"/>
<path d="M51.3004 52.4399C51.3504 51.6099 51.8004 50.8399 52.5104 50.3799C52.2504 49.3899 51.5104 48.5499 50.4604 48.2099C48.8304 47.6799 47.0804 48.5699 46.5504 50.1999C46.0704 51.6799 46.7604 53.2599 48.1104 53.9299C48.9004 52.9299 50.1004 52.4099 51.3004 52.4399Z" fill="#EF3D5A"/>
<path d="M28.4604 66.75C29.46 66.75 30.2704 65.9396 30.2704 64.94C30.2704 63.9404 29.46 63.13 28.4604 63.13C27.4608 63.13 26.6504 63.9404 26.6504 64.94C26.6504 65.9396 27.4608 66.75 28.4604 66.75Z" fill="#0FC8EF"/>
<path d="M27.4902 67.4C26.7102 67.09 26.1202 66.43 25.9002 65.61C24.8802 65.55 23.8502 66 23.2002 66.88C22.1902 68.27 22.5002 70.21 23.8902 71.22C25.1502 72.13 26.8602 71.97 27.9202 70.89C27.2202 69.83 27.0902 68.53 27.4902 67.4Z" fill="#FAEEEF"/>
<path d="M30.4902 66.62C29.9602 67.26 29.1402 67.63 28.3002 67.58C27.9302 68.53 28.0302 69.65 28.6802 70.54C29.6902 71.93 31.6302 72.24 33.0202 71.23C34.2802 70.32 34.6502 68.63 33.9602 67.29C32.7302 67.64 31.4502 67.35 30.4902 66.62Z" fill="#FAEEEF"/>
<path d="M30.6802 63.53C31.1302 64.23 31.2202 65.12 30.9102 65.91C31.7002 66.56 32.8002 66.8 33.8402 66.46C35.4702 65.93 36.3602 64.18 35.8302 62.55C35.3502 61.07 33.8602 60.2 32.3802 60.44C32.3402 61.72 31.6802 62.84 30.6802 63.53Z" fill="#FAEEEF"/>
<path d="M31.5704 60.28C31.5704 61.38 31.0004 62.35 30.1404 62.9C29.5704 62.45 28.8504 62.24 28.1504 62.33C29.3004 61.15 30.1904 59.74 30.7504 58.19C31.2604 58.74 31.5704 59.47 31.5704 60.28Z" fill="#FAEEEF"/>
<path d="M25.9503 64.14C25.8803 64.35 25.8403 64.56 25.8303 64.78C24.6303 64.75 23.4303 65.27 22.6403 66.28C22.4103 66.16 22.2003 66.02 22.0103 65.86C22.3903 65.73 22.7503 65.6 23.1103 65.49C24.1303 65.16 25.0803 64.71 25.9503 64.14Z" fill="#FAEEEF"/>
<path d="M47.8802 68.07C48.6589 68.07 49.2902 67.4387 49.2902 66.66C49.2902 65.8813 48.6589 65.25 47.8802 65.25C47.1015 65.25 46.4702 65.8813 46.4702 66.66C46.4702 67.4387 47.1015 68.07 47.8802 68.07Z" fill="#FAEEEF"/>
<path d="M47.1304 68.56C46.5304 68.32 46.0604 67.81 45.9004 67.17C45.1104 67.12 44.3104 67.47 43.8004 68.16C43.0204 69.24 43.2604 70.75 44.3304 71.53C45.3104 72.24 46.6404 72.11 47.4604 71.28C46.9204 70.46 46.8204 69.45 47.1304 68.56Z" fill="#EF3D5A"/>
<path d="M49.4701 67.96C49.0601 68.46 48.4201 68.74 47.7701 68.7C47.4801 69.44 47.5601 70.31 48.0601 71C48.8401 72.08 50.3501 72.32 51.4301 71.53C52.4101 70.82 52.7001 69.51 52.1601 68.47C51.2001 68.75 50.2101 68.53 49.4701 67.96Z" fill="#EF3D5A"/>
<path d="M49.6104 65.55C49.9604 66.1 50.0304 66.79 49.7904 67.4C50.4104 67.9 51.2604 68.1 52.0704 67.83C53.3404 67.42 54.0303 66.06 53.6203 64.79C53.2503 63.64 52.0904 62.96 50.9304 63.15C50.9004 64.15 50.3804 65.02 49.6104 65.55Z" fill="#EF3D5A"/>
<path d="M47.3702 64.67C48.0002 64.51 48.6802 64.65 49.1802 65.07C49.8502 64.64 50.2902 63.89 50.2902 63.04C50.2902 61.71 49.2102 60.63 47.8802 60.63C46.6702 60.63 45.6702 61.52 45.4902 62.68C46.4302 63.01 47.1002 63.77 47.3702 64.67Z" fill="#EF3D5A"/>
<path d="M45.8403 66.53C45.8803 65.88 46.2303 65.28 46.7803 64.93C46.5803 64.16 46.0003 63.51 45.1903 63.24C43.9203 62.83 42.5603 63.52 42.1503 64.79C41.7803 65.94 42.3103 67.17 43.3603 67.69C43.9703 66.91 44.9003 66.51 45.8403 66.53Z" fill="#EF3D5A"/>
<path d="M39.4803 57.87C40.259 57.87 40.8903 57.2387 40.8903 56.46C40.8903 55.6813 40.259 55.05 39.4803 55.05C38.7016 55.05 38.0703 55.6813 38.0703 56.46C38.0703 57.2387 38.7016 57.87 39.4803 57.87Z" fill="#EF3D5A"/>
<path d="M38.73 58.37C38.13 58.13 37.66 57.62 37.5 56.98C36.71 56.93 35.91 57.28 35.4 57.97C34.62 59.05 34.86 60.56 35.93 61.34C36.91 62.05 38.24 61.92 39.06 61.09C38.51 60.26 38.42 59.25 38.73 58.37Z" fill="#0FC8EF"/>
<path d="M41.06 57.76C40.65 58.26 40.01 58.54 39.36 58.5C39.07 59.24 39.15 60.11 39.65 60.8C40.43 61.88 41.94 62.12 43.02 61.33C44 60.62 44.29 59.31 43.75 58.27C42.8 58.55 41.81 58.33 41.06 57.76Z" fill="#0FC8EF"/>
<path d="M41.21 55.36C41.56 55.91 41.63 56.6 41.39 57.21C42.01 57.71 42.86 57.91 43.67 57.64C44.94 57.23 45.63 55.87 45.22 54.6C44.85 53.45 43.69 52.77 42.53 52.96C42.5 53.95 41.98 54.83 41.21 55.36Z" fill="#0FC8EF"/>
<path d="M38.9703 54.47C39.6003 54.31 40.2803 54.45 40.7803 54.87C41.4503 54.44 41.8903 53.69 41.8903 52.84C41.8903 51.51 40.8103 50.43 39.4803 50.43C38.2703 50.43 37.2703 51.32 37.0903 52.48C38.0303 52.81 38.7003 53.58 38.9703 54.47Z" fill="#0FC8EF"/>
<path d="M37.4302 56.33C37.4702 55.68 37.8202 55.08 38.3702 54.73C38.1702 53.96 37.5902 53.31 36.7802 53.04C35.5102 52.63 34.1502 53.32 33.7402 54.59C33.3702 55.74 33.9002 56.97 34.9502 57.49C35.5702 56.71 36.5002 56.31 37.4302 56.33Z" fill="#0FC8EF"/>
<path d="M45.7503 41.81C46.5291 41.81 47.1603 41.1787 47.1603 40.4C47.1603 39.6213 46.5291 38.99 45.7503 38.99C44.9716 38.99 44.3403 39.6213 44.3403 40.4C44.3403 41.1787 44.9716 41.81 45.7503 41.81Z" fill="#FAEEEF"/>
<path d="M45.0005 42.3C44.4005 42.06 43.9305 41.55 43.7705 40.91C42.9805 40.86 42.1805 41.21 41.6705 41.9C40.8905 42.98 41.1305 44.49 42.2005 45.27C43.1805 45.98 44.5105 45.85 45.3305 45.02C44.7905 44.2 44.6905 43.19 45.0005 42.3Z" fill="#EF3D5A"/>
<path d="M47.3402 41.7C46.9302 42.2 46.2902 42.48 45.6402 42.44C45.3502 43.18 45.4302 44.05 45.9302 44.74C46.7102 45.82 48.2202 46.06 49.3002 45.27C50.2802 44.56 50.5702 43.25 50.0302 42.21C49.0702 42.49 48.0802 42.27 47.3402 41.7Z" fill="#EF3D5A"/>
<path d="M47.4805 39.29C47.8305 39.84 47.9005 40.53 47.6605 41.14C48.2805 41.64 49.1305 41.84 49.9405 41.57C51.2105 41.16 51.9005 39.8 51.4905 38.53C51.1205 37.38 49.9605 36.7 48.8005 36.89C48.7705 37.89 48.2605 38.76 47.4805 39.29Z" fill="#EF3D5A"/>
<path d="M45.2404 38.41C45.8704 38.25 46.5504 38.39 47.0504 38.81C47.7204 38.38 48.1604 37.63 48.1604 36.78C48.1604 35.45 47.0804 34.37 45.7504 34.37C44.5404 34.37 43.5404 35.26 43.3604 36.42C44.3004 36.75 44.9704 37.51 45.2404 38.41Z" fill="#EF3D5A"/>
<path d="M43.7105 40.27C43.7505 39.62 44.1005 39.02 44.6505 38.67C44.4505 37.9 43.8705 37.25 43.0605 36.98C41.7905 36.57 40.4305 37.26 40.0205 38.53C39.6505 39.68 40.1805 40.91 41.2305 41.43C41.8405 40.65 42.7705 40.25 43.7105 40.27Z" fill="#EF3D5A"/>
<path d="M39.6302 30.04C40.4089 30.04 41.0402 29.4087 41.0402 28.63C41.0402 27.8512 40.4089 27.22 39.6302 27.22C38.8515 27.22 38.2202 27.8512 38.2202 28.63C38.2202 29.4087 38.8515 30.04 39.6302 30.04Z" fill="#FAEEEF"/>
<path d="M38.8799 30.54C38.2799 30.3 37.8099 29.79 37.6499 29.15C36.8599 29.1 36.0599 29.45 35.5499 30.14C34.7699 31.22 35.0099 32.73 36.0799 33.51C37.0599 34.22 38.3899 34.09 39.2099 33.26C38.6599 32.43 38.5699 31.42 38.8799 30.54Z" fill="#0FC8EF"/>
<path d="M41.2099 29.94C40.7999 30.44 40.1599 30.72 39.5099 30.68C39.2199 31.42 39.2999 32.29 39.7999 32.98C40.5799 34.06 42.0899 34.3 43.1699 33.51C44.1499 32.8 44.4399 31.49 43.8999 30.45C42.9499 30.73 41.9599 30.51 41.2099 29.94Z" fill="#0FC8EF"/>
<path d="M41.3599 27.53C41.7099 28.08 41.7799 28.77 41.5399 29.38C42.1599 29.88 43.0099 30.08 43.8199 29.81C45.0899 29.4 45.7799 28.04 45.3699 26.77C44.9999 25.62 43.8399 24.94 42.6799 25.13C42.6499 26.13 42.1299 27 41.3599 27.53Z" fill="#0FC8EF"/>
<path d="M39.1202 26.65C39.7502 26.49 40.4302 26.63 40.9302 27.05C41.6002 26.62 42.0402 25.87 42.0402 25.02C42.0402 23.69 40.9602 22.61 39.6302 22.61C38.4202 22.61 37.4202 23.5 37.2402 24.66C38.1802 24.99 38.8502 25.75 39.1202 26.65Z" fill="#0FC8EF"/>
<path d="M37.5801 28.51C37.6201 27.86 37.9701 27.26 38.5201 26.91C38.3201 26.14 37.7401 25.49 36.9301 25.22C35.6601 24.81 34.3001 25.5 33.8901 26.77C33.5201 27.92 34.0501 29.15 35.1001 29.67C35.7201 28.89 36.6501 28.48 37.5801 28.51Z" fill="#0FC8EF"/>
<path d="M59.8202 12.93C59.8302 14.18 59.8702 15.53 59.9202 16.91C60.0002 19.4 60.1402 22.02 60.3102 24.54C60.3802 25.57 60.4502 26.58 60.5202 27.56C60.6002 28.65 60.6702 29.69 60.7602 30.68C60.7902 30.97 60.8102 31.25 60.8402 31.52V31.55C60.9702 33.1 61.0902 34.47 61.2002 35.59C61.3602 37.15 61.4802 38.21 61.5402 38.52C61.6302 39.01 61.8802 40.94 62.1702 43.46C62.1702 43.46 62.1802 43.46 62.1802 43.47C62.2202 43.84 62.2702 44.23 62.3102 44.62C62.5202 46.43 62.7502 48.42 62.9702 50.37V50.38C62.9802 50.43 62.9802 50.47 62.9902 50.52L63.2802 53.04C63.3102 53.28 63.3302 53.51 63.3502 53.74C63.3902 54.05 63.4202 54.35 63.4602 54.64C63.7202 57.03 63.9202 58.88 63.9902 59.41C63.9902 59.52 64.0002 59.57 64.0002 59.57C63.4902 61.35 63.1202 63.33 62.8702 65.4V65.42C62.8102 65.86 62.7602 66.28 62.7202 66.72C62.5002 68.95 62.3702 71.22 62.3202 73.36C62.3202 73.57 62.3202 73.78 62.3102 73.98V74.02C62.2102 79.78 62.5802 84.44 62.5802 84.44H77.7502V81.15C78.3402 81.06 79.2902 81.17 80.3502 81.37C81.5202 81.6 82.8102 81.92 83.9302 82.24C85.5402 82.69 86.7802 83.11 86.7802 83.11C98.5902 86.45 110.3 84.44 110.3 84.44V78.18C109.9 72.94 105.84 69.55 101.67 67.44C100.41 66.8 99.1602 66.28 97.9902 65.87V65.86C97.6102 65.73 97.2502 65.6 96.8902 65.49C95.8702 65.16 94.9202 64.71 94.0502 64.14C93.2402 63.63 92.5002 63.02 91.8502 62.33C90.7002 61.15 89.8102 59.74 89.2502 58.19C88.8902 57.24 88.6702 56.23 88.5802 55.19C88.3902 52.93 88.3502 50.37 88.4402 47.64C88.4602 47.12 88.4802 46.58 88.5102 46.04C88.5102 46.03 88.5102 46.02 88.5102 46.02C88.5102 45.77 88.5302 45.52 88.5402 45.26C88.5502 45.07 88.5602 44.89 88.5702 44.7C88.6002 44.29 88.6202 43.88 88.6502 43.47C88.6502 43.46 88.6502 43.46 88.6502 43.46C88.7002 42.72 88.7602 41.97 88.8302 41.22C88.8502 40.9 88.8802 40.58 88.9102 40.26C88.9902 39.31 89.0902 38.36 89.1902 37.4C89.2402 36.95 89.2902 36.5 89.3402 36.04C89.3602 35.83 89.3902 35.61 89.4202 35.4C89.8702 31.54 90.4202 27.72 90.9802 24.27C91.2002 22.86 91.4302 21.52 91.6402 20.25C91.7202 19.81 91.7902 19.38 91.8702 18.96V18.95C91.9402 18.57 92.0002 18.21 92.0702 17.85C92.0702 17.84 92.0702 17.84 92.0702 17.83C92.2502 16.83 92.4302 15.91 92.5902 15.07C92.9102 13.39 93.1802 12.04 93.3602 11.14C93.5302 10.31 93.6302 9.86 93.6302 9.86C93.0402 9.79 92.2602 9.7 91.3402 9.6C91.3302 9.6 91.3302 9.6 91.3302 9.6C91.0802 9.56 90.8302 9.53 90.5502 9.5C89.9602 9.43 89.3202 9.35 88.6502 9.28C88.6402 9.28 88.6402 9.28 88.6402 9.28C87.2402 9.11 85.6902 8.93 84.0302 8.74C83.7602 8.71 83.4902 8.68 83.2202 8.65C82.3202 8.54 81.4002 8.44 80.4602 8.33C78.8402 8.14 77.1802 7.95 75.5602 7.76C74.1802 7.61 72.8102 7.45 71.5202 7.31C71.4302 7.3 71.3302 7.29 71.2402 7.28C69.5502 7.08 67.9802 6.9 66.5702 6.73C66.1902 6.69 65.8302 6.65 65.4802 6.61C64.6002 6.51 63.7902 6.43 63.1002 6.34C61.2602 6.13 60.1602 6 60.1602 6C59.9002 7.6 59.7902 10.06 59.8202 12.93Z" fill="#030306"/>
<path d="M86.2299 15.9C87.2296 15.9 88.0399 15.0896 88.0399 14.09C88.0399 13.0903 87.2296 12.28 86.2299 12.28C85.2303 12.28 84.4199 13.0903 84.4199 14.09C84.4199 15.0896 85.2303 15.9 86.2299 15.9Z" fill="#0FC8EF"/>
<path d="M87.2 16.5399C87.98 16.2299 88.57 15.5699 88.79 14.7499C89.81 14.6899 90.84 15.1399 91.49 16.0199C92.5 17.4099 92.19 19.3499 90.8 20.3599C89.54 21.2699 87.83 21.1099 86.77 20.0299C87.47 18.9799 87.6 17.6799 87.2 16.5399Z" fill="#EF3D5A"/>
<path d="M84.1899 15.77C84.7199 16.41 85.5399 16.78 86.3799 16.73C86.7499 17.68 86.6499 18.8 85.9999 19.69C84.9899 21.08 83.0499 21.39 81.6599 20.38C80.3999 19.47 80.0299 17.78 80.7199 16.44C81.9599 16.78 83.2399 16.5 84.1899 15.77Z" fill="#EF3D5A"/>
<path d="M83.9999 12.67C83.5499 13.37 83.4599 14.26 83.7699 15.05C82.9799 15.7 81.8799 15.94 80.8399 15.6C79.2099 15.07 78.3199 13.32 78.8499 11.69C79.3299 10.21 80.8199 9.33998 82.2999 9.57998C82.3499 10.86 83.0099 11.99 83.9999 12.67Z" fill="#EF3D5A"/>
<path d="M83.1201 9.42996C83.1201 10.53 83.6901 11.5 84.5501 12.05C85.2001 11.51 86.0801 11.33 86.8801 11.54C87.1601 10.6 87.7801 9.77996 88.6401 9.27996C87.2401 9.10996 85.6901 8.92996 84.0301 8.73996C83.7601 8.70996 83.4901 8.67996 83.2201 8.64996C83.1601 8.89996 83.1201 9.15996 83.1201 9.42996Z" fill="#EF3D5A"/>
<path d="M87.6499 11.8699C88.3599 12.3199 88.8099 13.0999 88.8599 13.9299C90.0599 13.8999 91.2599 14.4199 92.0499 15.4199C92.2399 15.3199 92.4199 15.2099 92.5899 15.0699C92.9099 13.3899 93.1799 12.0399 93.3599 11.1399C92.6599 9.86993 91.1299 9.22993 89.6999 9.69993C88.6499 10.0399 87.9099 10.8799 87.6499 11.8699Z" fill="#EF3D5A"/>
<path d="M68.3998 14.12C69.3995 14.12 70.2098 13.3096 70.2098 12.31C70.2098 11.3104 69.3995 10.5 68.3998 10.5C67.4002 10.5 66.5898 11.3104 66.5898 12.31C66.5898 13.3096 67.4002 14.12 68.3998 14.12Z" fill="#FAEEEF"/>
<path d="M69.3699 14.76C70.1499 14.45 70.7399 13.79 70.9599 12.97C71.9799 12.91 73.0099 13.36 73.6599 14.24C74.6699 15.63 74.3599 17.57 72.9699 18.58C71.7099 19.49 69.9999 19.33 68.9399 18.25C69.6399 17.2 69.7699 15.9 69.3699 14.76Z" fill="#0FC8EF"/>
<path d="M66.3701 13.99C66.9001 14.63 67.7201 15 68.5601 14.95C68.9301 15.9 68.8301 17.02 68.1801 17.91C67.1701 19.3 65.2301 19.61 63.8401 18.6C62.5801 17.69 62.2101 16 62.9001 14.66C64.1301 15 65.4101 14.72 66.3701 13.99Z" fill="#0FC8EF"/>
<path d="M66.1801 10.89C65.7301 11.59 65.6401 12.48 65.9501 13.27C65.1601 13.92 64.0601 14.16 63.0201 13.82C61.3901 13.29 60.5001 11.54 61.0301 9.91001C61.5101 8.43001 63.0001 7.56001 64.4801 7.80001C64.5201 9.09001 65.1801 10.21 66.1801 10.89Z" fill="#0FC8EF"/>
<path d="M65.29 7.64999C65.29 8.74999 65.86 9.71999 66.72 10.27C67.38 9.72999 68.25 9.54999 69.06 9.75999C69.38 8.67999 70.15 7.74999 71.24 7.27999C69.55 7.07999 67.98 6.89999 66.57 6.72999C66.19 6.68999 65.83 6.64999 65.48 6.60999C65.35 6.93999 65.29 7.28999 65.29 7.64999Z" fill="#0FC8EF"/>
<path d="M71.0298 12.15C70.9798 11.32 70.5298 10.55 69.8198 10.09C70.0798 9.10001 70.8198 8.26001 71.8698 7.92001C73.4998 7.39001 75.2498 8.28001 75.7798 9.91001C76.2598 11.39 75.5698 12.97 74.2198 13.64C73.4398 12.64 72.2398 12.12 71.0298 12.15Z" fill="#0FC8EF"/>
<path d="M65.29 30.84C66.2896 30.84 67.1 30.0297 67.1 29.03C67.1 28.0304 66.2896 27.22 65.29 27.22C64.2903 27.22 63.48 28.0304 63.48 29.03C63.48 30.0297 64.2903 30.84 65.29 30.84Z" fill="#DA2840"/>
<path d="M66.2601 31.48C67.0401 31.17 67.6301 30.51 67.8501 29.69C68.8701 29.63 69.9001 30.08 70.5501 30.96C71.5601 32.35 71.2501 34.29 69.8601 35.3C68.6001 36.21 66.8901 36.05 65.8301 34.97C66.5401 33.92 66.6601 32.62 66.2601 31.48Z" fill="#FAEEEF"/>
<path d="M60.8398 31.52V31.55C60.9698 33.1 61.0898 34.47 61.1998 35.59C62.5198 36.24 64.1698 35.86 65.0598 34.63C65.7098 33.74 65.8198 32.62 65.4398 31.67C64.5998 31.71 63.7898 31.35 63.2598 30.71C62.5698 31.23 61.7198 31.53 60.8398 31.52Z" fill="#FAEEEF"/>
<path d="M60.3101 24.54C60.3801 25.57 60.4501 26.58 60.5201 27.56C60.6001 28.65 60.6701 29.69 60.7601 30.68C61.5201 30.72 62.2601 30.46 62.8301 29.99C62.5201 29.2 62.6201 28.32 63.0601 27.61C62.0701 26.93 61.4101 25.81 61.3601 24.52C61.0001 24.46 60.6501 24.47 60.3101 24.54Z" fill="#FAEEEF"/>
<path d="M65.9499 26.48C65.1399 26.27 64.2699 26.46 63.6199 26.99C62.7599 26.44 62.1899 25.47 62.1899 24.37C62.1899 22.65 63.5799 21.26 65.2999 21.26C66.8599 21.26 68.1399 22.4 68.3699 23.89C67.1599 24.34 66.2999 25.32 65.9499 26.48Z" fill="#FAEEEF"/>
<path d="M67.9302 28.87C67.8802 28.04 67.4302 27.27 66.7202 26.81C66.9802 25.82 67.7202 24.98 68.7702 24.64C70.4002 24.11 72.1502 25 72.6802 26.63C73.1602 28.11 72.4702 29.69 71.1202 30.36C70.3302 29.36 69.1302 28.84 67.9302 28.87Z" fill="#FAEEEF"/>
<path d="M86.3999 42.93C86.3999 43.93 87.2099 44.74 88.2099 44.74C88.3299 44.74 88.4499 44.73 88.5699 44.7C88.5999 44.29 88.6199 43.88 88.6499 43.47C88.6499 43.46 88.6499 43.46 88.6499 43.46C88.6999 42.72 88.7599 41.97 88.8299 41.22C88.6399 41.15 88.4299 41.11 88.2099 41.11C87.2099 41.11 86.3999 41.92 86.3999 42.93Z" fill="#DA2840"/>
<path d="M88.4402 47.64C88.3402 47.95 88.1902 48.24 87.9902 48.52C86.9802 49.91 85.0402 50.22 83.6502 49.21C82.3902 48.29 82.0202 46.61 82.7102 45.27C83.9502 45.62 85.2202 45.34 86.1802 44.6C86.7102 45.25 87.5202 45.61 88.3702 45.56C88.4302 45.71 88.4702 45.86 88.5102 46.02C88.5102 46.02 88.5102 46.03 88.5102 46.04L88.4402 47.64Z" fill="#FAEEEF"/>
<path d="M85.9901 41.5099C85.5401 42.2099 85.4501 43.0999 85.7601 43.8899C84.9701 44.5399 83.8701 44.7799 82.8301 44.4399C81.2001 43.9099 80.3101 42.1599 80.8401 40.5299C81.3201 39.0499 82.8101 38.1799 84.2901 38.4199C84.3401 39.6999 85.0001 40.8299 85.9901 41.5099Z" fill="#FAEEEF"/>
<path d="M85.1104 38.27C85.1104 39.37 85.6804 40.33 86.5404 40.88C87.2004 40.35 88.0704 40.16 88.8704 40.37C88.8804 40.33 88.8904 40.29 88.9104 40.26C88.9904 39.31 89.0904 38.36 89.1904 37.4C89.2404 36.95 89.2903 36.5 89.3403 36.04C89.3603 35.83 89.3903 35.61 89.4203 35.4C89.0503 35.24 88.6404 35.16 88.2104 35.16C86.5003 35.16 85.1104 36.55 85.1104 38.27Z" fill="#FAEEEF"/>
<path d="M66.06 54.41C67.0596 54.41 67.87 53.5996 67.87 52.6C67.87 51.6003 67.0596 50.79 66.06 50.79C65.0604 50.79 64.25 51.6003 64.25 52.6C64.25 53.5996 65.0604 54.41 66.06 54.41Z" fill="#0FC8EF"/>
<path d="M67.0301 55.06C67.8101 54.75 68.4001 54.09 68.6201 53.28C69.6401 53.22 70.6701 53.67 71.3201 54.55C72.3301 55.94 72.0201 57.88 70.6301 58.89C69.3701 59.8 67.6601 59.64 66.6001 58.56C67.3101 57.49 67.4301 56.19 67.0301 55.06Z" fill="#EF3D5A"/>
<path d="M63.46 54.64C63.72 57.03 63.92 58.88 63.99 59.41C64.71 59.25 65.37 58.84 65.83 58.2C66.48 57.31 66.58 56.19 66.21 55.24C65.37 55.29 64.55 54.93 64.02 54.28C63.84 54.42 63.66 54.54 63.46 54.64Z" fill="#EF3D5A"/>
<path d="M62.9697 50.3799C62.9797 50.4299 62.9797 50.4699 62.9897 50.5199L63.2797 53.0399C63.3097 53.2799 63.3297 53.5099 63.3497 53.7399C63.4397 53.6899 63.5197 53.6299 63.5997 53.5599C63.2897 52.7799 63.3897 51.8899 63.8297 51.1899C63.4997 50.9599 63.2197 50.6899 62.9697 50.3799Z" fill="#EF3D5A"/>
<path d="M66.72 50.05C65.91 49.84 65.04 50.03 64.39 50.56C63.53 50.01 62.96 49.04 62.96 47.94C62.96 46.22 64.35 44.83 66.07 44.83C67.63 44.83 68.91 45.97 69.14 47.46C67.93 47.92 67.07 48.9 66.72 50.05Z" fill="#EF3D5A"/>
<path d="M68.6997 52.4399C68.6497 51.6099 68.1997 50.8399 67.4897 50.3799C67.7497 49.3899 68.4897 48.5499 69.5397 48.2099C71.1697 47.6799 72.9197 48.5699 73.4497 50.1999C73.9297 51.6799 73.2397 53.2599 71.8897 53.9299C71.0997 52.9299 69.8997 52.4099 68.6997 52.4399Z" fill="#EF3D5A"/>
<path d="M91.54 66.75C92.5396 66.75 93.35 65.9396 93.35 64.94C93.35 63.9404 92.5396 63.13 91.54 63.13C90.5403 63.13 89.73 63.9404 89.73 64.94C89.73 65.9396 90.5403 66.75 91.54 66.75Z" fill="#0FC8EF"/>
<path d="M92.5101 67.4C93.2901 67.09 93.8801 66.43 94.1001 65.61C95.1201 65.55 96.1501 66 96.8001 66.88C97.8101 68.27 97.5001 70.21 96.1101 71.22C94.8501 72.13 93.1401 71.97 92.0801 70.89C92.7801 69.83 92.9101 68.53 92.5101 67.4Z" fill="#FAEEEF"/>
<path d="M89.5102 66.62C90.0402 67.26 90.8602 67.63 91.7002 67.58C92.0702 68.53 91.9702 69.65 91.3202 70.54C90.3102 71.93 88.3702 72.24 86.9802 71.23C85.7202 70.32 85.3502 68.63 86.0402 67.29C87.2702 67.64 88.5502 67.35 89.5102 66.62Z" fill="#FAEEEF"/>
<path d="M89.3202 63.53C88.8702 64.23 88.7802 65.12 89.0902 65.91C88.3002 66.56 87.2002 66.8 86.1602 66.46C84.5302 65.93 83.6402 64.18 84.1702 62.55C84.6502 61.07 86.1402 60.2 87.6202 60.44C87.6602 61.72 88.3202 62.84 89.3202 63.53Z" fill="#FAEEEF"/>
<path d="M88.4302 60.28C88.4302 61.38 89.0002 62.35 89.8602 62.9C90.4302 62.45 91.1502 62.24 91.8502 62.33C90.7002 61.15 89.8102 59.74 89.2502 58.19C88.7402 58.74 88.4302 59.47 88.4302 60.28Z" fill="#FAEEEF"/>
<path d="M94.0503 64.14C94.1203 64.35 94.1603 64.56 94.1703 64.78C95.3703 64.75 96.5703 65.27 97.3603 66.28C97.5903 66.16 97.8003 66.02 97.9903 65.86C97.6103 65.73 97.2503 65.6 96.8903 65.49C95.8703 65.16 94.9203 64.71 94.0503 64.14Z" fill="#FAEEEF"/>
<path d="M72.12 68.07C72.8987 68.07 73.53 67.4387 73.53 66.66C73.53 65.8813 72.8987 65.25 72.12 65.25C71.3412 65.25 70.71 65.8813 70.71 66.66C70.71 67.4387 71.3412 68.07 72.12 68.07Z" fill="#FAEEEF"/>
<path d="M72.87 68.56C73.47 68.32 73.94 67.81 74.1 67.17C74.89 67.12 75.69 67.47 76.2 68.16C76.98 69.24 76.74 70.75 75.67 71.53C74.69 72.24 73.36 72.11 72.54 71.28C73.08 70.46 73.18 69.45 72.87 68.56Z" fill="#EF3D5A"/>
<path d="M70.5298 67.96C70.9398 68.46 71.5798 68.74 72.2298 68.7C72.5198 69.44 72.4398 70.31 71.9398 71C71.1598 72.08 69.6498 72.32 68.5698 71.53C67.5898 70.82 67.2998 69.51 67.8398 68.47C68.7998 68.75 69.7898 68.53 70.5298 67.96Z" fill="#EF3D5A"/>
<path d="M70.3899 65.55C70.0399 66.1 69.9699 66.79 70.2099 67.4C69.5899 67.9 68.7399 68.1 67.9299 67.83C66.6599 67.42 65.9699 66.06 66.3799 64.79C66.7499 63.64 67.9099 62.96 69.0699 63.15C69.0999 64.15 69.6199 65.02 70.3899 65.55Z" fill="#EF3D5A"/>
<path d="M72.63 64.67C72 64.51 71.32 64.65 70.82 65.07C70.15 64.64 69.71 63.89 69.71 63.04C69.71 61.71 70.79 60.63 72.12 60.63C73.33 60.63 74.33 61.52 74.51 62.68C73.57 63.01 72.9 63.77 72.63 64.67Z" fill="#EF3D5A"/>
<path d="M74.1597 66.53C74.1197 65.88 73.7697 65.28 73.2197 64.93C73.4197 64.16 73.9997 63.51 74.8097 63.24C76.0797 62.83 77.4397 63.52 77.8497 64.79C78.2197 65.94 77.6897 67.17 76.6397 67.69C76.0297 66.91 75.0997 66.51 74.1597 66.53Z" fill="#EF3D5A"/>
<path d="M80.5199 57.87C81.2986 57.87 81.9299 57.2387 81.9299 56.46C81.9299 55.6813 81.2986 55.05 80.5199 55.05C79.7411 55.05 79.1099 55.6813 79.1099 56.46C79.1099 57.2387 79.7411 57.87 80.5199 57.87Z" fill="#EF3D5A"/>
<path d="M81.2699 58.37C81.8699 58.13 82.3399 57.62 82.4999 56.98C83.2899 56.93 84.0899 57.28 84.5999 57.97C85.3799 59.05 85.1399 60.56 84.0699 61.34C83.0899 62.05 81.7599 61.92 80.9399 61.09C81.4899 60.26 81.5799 59.25 81.2699 58.37Z" fill="#0FC8EF"/>
<path d="M78.94 57.76C79.35 58.26 79.99 58.54 80.64 58.5C80.93 59.24 80.85 60.11 80.35 60.8C79.57 61.88 78.06 62.12 76.98 61.33C76 60.62 75.71 59.31 76.25 58.27C77.2 58.55 78.19 58.33 78.94 57.76Z" fill="#0FC8EF"/>
<path d="M78.7898 55.36C78.4398 55.91 78.3698 56.6 78.6098 57.21C77.9898 57.71 77.1398 57.91 76.3298 57.64C75.0598 57.23 74.3698 55.87 74.7798 54.6C75.1498 53.45 76.3098 52.77 77.4698 52.96C77.4998 53.95 78.0198 54.83 78.7898 55.36Z" fill="#0FC8EF"/>
<path d="M81.0299 54.47C80.3999 54.31 79.7199 54.45 79.2199 54.87C78.5499 54.44 78.1099 53.69 78.1099 52.84C78.1099 51.51 79.1899 50.43 80.5199 50.43C81.7299 50.43 82.7299 51.32 82.9099 52.48C81.9699 52.81 81.2999 53.58 81.0299 54.47Z" fill="#0FC8EF"/>
<path d="M82.5699 56.33C82.5299 55.68 82.1799 55.08 81.6299 54.73C81.8299 53.96 82.4099 53.31 83.2199 53.04C84.4899 52.63 85.8499 53.32 86.2599 54.59C86.6299 55.74 86.0999 56.97 85.0499 57.49C84.4299 56.71 83.4999 56.31 82.5699 56.33Z" fill="#0FC8EF"/>
<path d="M74.2498 41.81C75.0286 41.81 75.6599 41.1787 75.6599 40.4C75.6599 39.6213 75.0286 38.99 74.2498 38.99C73.4711 38.99 72.8398 39.6213 72.8398 40.4C72.8398 41.1787 73.4711 41.81 74.2498 41.81Z" fill="#FAEEEF"/>
<path d="M74.9999 42.3C75.5999 42.06 76.0699 41.55 76.2299 40.91C77.0199 40.86 77.8199 41.21 78.3299 41.9C79.1099 42.98 78.8699 44.49 77.7999 45.27C76.8199 45.98 75.4899 45.85 74.6699 45.02C75.2099 44.2 75.3099 43.19 74.9999 42.3Z" fill="#EF3D5A"/>
<path d="M72.6597 41.7C73.0697 42.2 73.7097 42.48 74.3597 42.44C74.6497 43.18 74.5697 44.05 74.0697 44.74C73.2897 45.82 71.7797 46.06 70.6997 45.27C69.7197 44.56 69.4297 43.25 69.9697 42.21C70.9297 42.49 71.9197 42.27 72.6597 41.7Z" fill="#EF3D5A"/>
<path d="M72.5198 39.29C72.1698 39.84 72.0998 40.53 72.3398 41.14C71.7198 41.64 70.8698 41.84 70.0598 41.57C68.7898 41.16 68.0998 39.8 68.5098 38.53C68.8798 37.38 70.0398 36.7 71.1998 36.89C71.2298 37.89 71.7398 38.76 72.5198 39.29Z" fill="#EF3D5A"/>
<path d="M74.7598 38.41C74.1298 38.25 73.4498 38.39 72.9498 38.81C72.2798 38.38 71.8398 37.63 71.8398 36.78C71.8398 35.45 72.9198 34.37 74.2498 34.37C75.4598 34.37 76.4598 35.26 76.6398 36.42C75.6998 36.75 75.0298 37.51 74.7598 38.41Z" fill="#EF3D5A"/>
<path d="M76.2896 40.27C76.2496 39.62 75.8996 39.02 75.3496 38.67C75.5496 37.9 76.1296 37.25 76.9396 36.98C78.2096 36.57 79.5696 37.26 79.9796 38.53C80.3496 39.68 79.8196 40.91 78.7696 41.43C78.1596 40.65 77.2296 40.25 76.2896 40.27Z" fill="#EF3D5A"/>
<path d="M80.37 30.04C81.1487 30.04 81.78 29.4087 81.78 28.63C81.78 27.8512 81.1487 27.22 80.37 27.22C79.5912 27.22 78.96 27.8512 78.96 28.63C78.96 29.4087 79.5912 30.04 80.37 30.04Z" fill="#FAEEEF"/>
<path d="M81.12 30.54C81.72 30.3 82.19 29.79 82.35 29.15C83.14 29.1 83.94 29.45 84.45 30.14C85.23 31.22 84.99 32.73 83.92 33.51C82.94 34.22 81.61 34.09 80.79 33.26C81.34 32.43 81.43 31.42 81.12 30.54Z" fill="#0FC8EF"/>
<path d="M78.7901 29.94C79.2001 30.44 79.8401 30.72 80.4901 30.68C80.7801 31.42 80.7001 32.29 80.2001 32.98C79.4201 34.06 77.9101 34.3 76.8301 33.51C75.8501 32.8 75.5601 31.49 76.1001 30.45C77.0501 30.73 78.0401 30.51 78.7901 29.94Z" fill="#0FC8EF"/>
<path d="M78.6399 27.53C78.2899 28.08 78.2199 28.77 78.4599 29.38C77.8399 29.88 76.9899 30.08 76.1799 29.81C74.9099 29.4 74.2199 28.04 74.6299 26.77C74.9999 25.62 76.1599 24.94 77.3199 25.13C77.3499 26.13 77.8699 27 78.6399 27.53Z" fill="#0FC8EF"/>
<path d="M80.88 26.65C80.25 26.49 79.57 26.63 79.07 27.05C78.4 26.62 77.96 25.87 77.96 25.02C77.96 23.69 79.04 22.61 80.37 22.61C81.58 22.61 82.58 23.5 82.76 24.66C81.82 24.99 81.15 25.75 80.88 26.65Z" fill="#0FC8EF"/>
<path d="M82.42 28.51C82.38 27.86 82.03 27.26 81.48 26.91C81.68 26.14 82.26 25.49 83.07 25.22C84.34 24.81 85.7 25.5 86.11 26.77C86.48 27.92 85.95 29.15 84.9 29.67C84.28 28.89 83.35 28.48 82.42 28.51Z" fill="#0FC8EF"/>
</g>
<defs>
<clipPath id="clip0_318_11371">
<rect width="120" height="85" fill="white" transform="translate(0 0.5)"/>
</clipPath>
</defs>
</svg>
