<svg width="88" height="54" viewBox="0 0 88 54" fill="none" xmlns="http://www.w3.org/2000/svg">
<g clip-path="url(#clip0_301_12080)">
<path d="M42.8501 53.165H29.3401V50.235C28.8001 50.155 27.9501 50.255 27.0101 50.435C25.9701 50.635 24.8201 50.935 23.8201 51.205C22.3801 51.605 21.2701 51.985 21.2701 51.985C10.7501 54.965 0.310059 53.165 0.310059 53.165V47.015C0.310059 41.685 4.29006 37.705 8.01006 35.825C9.12006 35.245 10.2501 34.795 11.2901 34.415V34.405C11.6201 34.295 11.9601 34.185 12.2701 34.085C16.3501 32.755 19.3101 31.365 19.6801 27.085C19.9001 24.485 19.8801 21.455 19.7101 18.235C19.6801 17.705 19.6601 17.175 19.6101 16.625C19.6101 16.615 19.6101 16.615 19.6101 16.615C19.4901 14.845 19.3301 13.035 19.1201 11.215C19.0801 10.825 19.0401 10.415 18.9901 10.015C18.5801 6.37498 18.1001 2.44498 18.1001 2.44498C18.6301 2.38498 41.8101 0.294983 41.8101 0.294983C41.7801 0.784983 41.7401 4.47498 41.7101 9.13498C41.7001 10.195 41.6901 11.315 41.6801 12.465C41.6601 15.715 41.6501 19.155 41.6301 22.185C41.6201 23.395 41.6201 24.545 41.6101 25.575C41.6001 28.805 41.5901 30.995 41.5901 30.995C42.0601 32.585 42.3801 34.355 42.6001 36.195V36.205C42.6501 36.595 42.7001 36.985 42.7301 37.375C42.9301 39.355 43.0401 41.385 43.0901 43.285C43.0901 43.475 43.0901 43.665 43.1001 43.855V43.885C43.2001 49.005 42.8501 53.165 42.8501 53.165Z" fill="#B0305C"/>
<path d="M0.310059 51.295C0.620059 51.655 1.11006 51.875 1.63006 51.875C2.64006 51.875 3.46006 51.055 3.46006 50.045C3.46006 49.035 2.64006 48.215 1.63006 48.215C1.10006 48.215 0.620059 48.435 0.310059 48.795L0.310059 51.295Z" fill="#FFB5B5"/>
<path d="M9.50018 51.875C10.5053 51.875 11.3202 51.0601 11.3202 50.055C11.3202 49.0498 10.5053 48.235 9.50018 48.235C8.49502 48.235 7.68018 49.0498 7.68018 50.055C7.68018 51.0601 8.49502 51.875 9.50018 51.875Z" fill="#FFB5B5"/>
<path d="M17.36 51.875C18.3652 51.875 19.18 51.0601 19.18 50.055C19.18 49.0498 18.3652 48.235 17.36 48.235C16.3549 48.235 15.54 49.0498 15.54 50.055C15.54 51.0601 16.3549 51.875 17.36 51.875Z" fill="#FFB5B5"/>
<path d="M27.0499 50.055C27.0499 50.185 27.0399 50.315 27.0199 50.435C25.9799 50.635 24.8199 50.925 23.8299 51.205C23.5599 50.895 23.3999 50.485 23.3999 50.055C23.3999 49.045 24.2199 48.225 25.2299 48.225C26.2299 48.225 27.0499 49.045 27.0499 50.055Z" fill="#FFB5B5"/>
<path d="M33.09 51.875C34.0952 51.875 34.91 51.0601 34.91 50.055C34.91 49.0498 34.0952 48.235 33.09 48.235C32.0849 48.235 31.27 49.0498 31.27 50.055C31.27 51.0601 32.0849 51.875 33.09 51.875Z" fill="#FFB5B5"/>
<path d="M40.9601 51.875C41.9653 51.875 42.7801 51.0601 42.7801 50.055C42.7801 49.0498 41.9653 48.235 40.9601 48.235C39.955 48.235 39.1401 49.0498 39.1401 50.055C39.1401 51.0601 39.955 51.875 40.9601 51.875Z" fill="#FFB5B5"/>
<path d="M5.56023 45.325C6.56539 45.325 7.38023 44.5102 7.38023 43.505C7.38023 42.4998 6.56539 41.685 5.56023 41.685C4.55508 41.685 3.74023 42.4998 3.74023 43.505C3.74023 44.5102 4.55508 45.325 5.56023 45.325Z" fill="#FFB5B5"/>
<path d="M13.4304 45.325C14.4355 45.325 15.2504 44.5102 15.2504 43.505C15.2504 42.4998 14.4355 41.685 13.4304 41.685C12.4252 41.685 11.6104 42.4998 11.6104 43.505C11.6104 44.5102 12.4252 45.325 13.4304 45.325Z" fill="#FFB5B5"/>
<path d="M21.3005 45.325C22.3056 45.325 23.1205 44.5102 23.1205 43.505C23.1205 42.4998 22.3056 41.685 21.3005 41.685C20.2953 41.685 19.4805 42.4998 19.4805 43.505C19.4805 44.5102 20.2953 45.325 21.3005 45.325Z" fill="#FFB5B5"/>
<path d="M29.1603 45.325C30.1655 45.325 30.9803 44.5102 30.9803 43.505C30.9803 42.4998 30.1655 41.685 29.1603 41.685C28.1552 41.685 27.3403 42.4998 27.3403 43.505C27.3403 44.5102 28.1552 45.325 29.1603 45.325Z" fill="#FFB5B5"/>
<path d="M37.0304 45.325C38.0356 45.325 38.8504 44.5102 38.8504 43.505C38.8504 42.4998 38.0356 41.685 37.0304 41.685C36.0253 41.685 35.2104 42.4998 35.2104 43.505C35.2104 44.5102 36.0253 45.325 37.0304 45.325Z" fill="#FFB5B5"/>
<path d="M43.1003 43.845C43.0803 43.735 43.0703 43.625 43.0703 43.505C43.0703 43.425 43.0703 43.345 43.0903 43.285C43.0903 43.475 43.0903 43.665 43.1003 43.845Z" fill="#FFB5B5"/>
<path d="M11.32 34.785C11.32 35.795 10.5 36.615 9.49 36.615C8.87 36.615 8.32 36.305 8 35.835C9.12 35.265 10.24 34.805 11.28 34.435C11.31 34.535 11.32 34.665 11.32 34.785Z" fill="#FFB5B5"/>
<path d="M17.36 38.785C18.3652 38.785 19.18 37.9702 19.18 36.965C19.18 35.9599 18.3652 35.145 17.36 35.145C16.3549 35.145 15.54 35.9599 15.54 36.965C15.54 37.9702 16.3549 38.785 17.36 38.785Z" fill="#FFB5B5"/>
<path d="M25.2302 38.785C26.2353 38.785 27.0502 37.9702 27.0502 36.965C27.0502 35.9599 26.2353 35.145 25.2302 35.145C24.225 35.145 23.4102 35.9599 23.4102 36.965C23.4102 37.9702 24.225 38.785 25.2302 38.785Z" fill="#FFB5B5"/>
<path d="M33.09 38.785C34.0952 38.785 34.91 37.9702 34.91 36.965C34.91 35.9599 34.0952 35.145 33.09 35.145C32.0849 35.145 31.27 35.9599 31.27 36.965C31.27 37.9702 32.0849 38.785 33.09 38.785Z" fill="#FFB5B5"/>
<path d="M40.9601 38.785C41.9653 38.785 42.7801 37.9702 42.7801 36.965C42.7801 35.9599 41.9653 35.145 40.9601 35.145C39.955 35.145 39.1401 35.9599 39.1401 36.965C39.1401 37.9702 39.955 38.785 40.9601 38.785Z" fill="#FFB5B5"/>
<path d="M21.3 32.245C22.3051 32.245 23.12 31.4301 23.12 30.425C23.12 29.4198 22.3051 28.605 21.3 28.605C20.2948 28.605 19.48 29.4198 19.48 30.425C19.48 31.4301 20.2948 32.245 21.3 32.245Z" fill="#FFB5B5"/>
<path d="M29.1598 32.245C30.165 32.245 30.9798 31.4301 30.9798 30.425C30.9798 29.4198 30.165 28.605 29.1598 28.605C28.1547 28.605 27.3398 29.4198 27.3398 30.425C27.3398 31.4301 28.1547 32.245 29.1598 32.245Z" fill="#FFB5B5"/>
<path d="M37.03 32.245C38.0351 32.245 38.85 31.4301 38.85 30.425C38.85 29.4198 38.0351 28.605 37.03 28.605C36.0248 28.605 35.21 29.4198 35.21 30.425C35.21 31.4301 36.0248 32.245 37.03 32.245Z" fill="#FFB5B5"/>
<path d="M25.2302 25.695C26.2353 25.695 27.0502 24.8802 27.0502 23.875C27.0502 22.8698 26.2353 22.055 25.2302 22.055C24.225 22.055 23.4102 22.8698 23.4102 23.875C23.4102 24.8802 24.225 25.695 25.2302 25.695Z" fill="#FFB5B5"/>
<path d="M33.09 25.695C34.0952 25.695 34.91 24.8802 34.91 23.875C34.91 22.8698 34.0952 22.055 33.09 22.055C32.0849 22.055 31.27 22.8698 31.27 23.875C31.27 24.8802 32.0849 25.695 33.09 25.695Z" fill="#FFB5B5"/>
<path d="M41.6301 22.185C41.6201 23.395 41.6201 24.545 41.6101 25.575C41.4101 25.655 41.2001 25.695 40.9601 25.695C39.9601 25.695 39.1401 24.895 39.1401 23.885C39.1401 22.875 39.9601 22.065 40.9601 22.065C41.2001 22.065 41.4301 22.105 41.6301 22.185Z" fill="#FFB5B5"/>
<path d="M23.1199 17.345C23.1199 18.355 22.2999 19.155 21.2899 19.155C20.6099 19.155 20.0099 18.785 19.7099 18.235C19.6799 17.705 19.6499 17.175 19.6099 16.635C19.6099 16.625 19.6099 16.625 19.6099 16.625C19.8899 15.975 20.5399 15.515 21.2899 15.515C22.2999 15.515 23.1199 16.335 23.1199 17.345Z" fill="#FFB5B5"/>
<path d="M29.1598 19.155C30.165 19.155 30.9798 18.3402 30.9798 17.335C30.9798 16.3299 30.165 15.515 29.1598 15.515C28.1547 15.515 27.3398 16.3299 27.3398 17.335C27.3398 18.3402 28.1547 19.155 29.1598 19.155Z" fill="#FFB5B5"/>
<path d="M37.03 19.155C38.0351 19.155 38.85 18.3402 38.85 17.335C38.85 16.3299 38.0351 15.515 37.03 15.515C36.0248 15.515 35.21 16.3299 35.21 17.335C35.21 18.3402 36.0248 19.155 37.03 19.155Z" fill="#FFB5B5"/>
<path d="M19.19 10.795C19.19 10.945 19.17 11.085 19.13 11.225C19.09 10.825 19.04 10.415 19 10.015C19.12 10.245 19.19 10.515 19.19 10.795Z" fill="#FFB5B5"/>
<path d="M25.2302 12.615C26.2353 12.615 27.0502 11.8001 27.0502 10.795C27.0502 9.78982 26.2353 8.97498 25.2302 8.97498C24.225 8.97498 23.4102 9.78982 23.4102 10.795C23.4102 11.8001 24.225 12.615 25.2302 12.615Z" fill="#FFB5B5"/>
<path d="M33.09 12.615C34.0952 12.615 34.91 11.8001 34.91 10.795C34.91 9.78982 34.0952 8.97498 33.09 8.97498C32.0849 8.97498 31.27 9.78982 31.27 10.795C31.27 11.8001 32.0849 12.615 33.09 12.615Z" fill="#FFB5B5"/>
<path d="M41.7099 9.13498C41.6999 10.195 41.6899 11.315 41.6799 12.465C41.4599 12.565 41.2099 12.615 40.9599 12.615C39.9499 12.615 39.1299 11.805 39.1299 10.795C39.1299 9.78498 39.9499 8.97498 40.9599 8.97498C41.2299 8.97498 41.4899 9.03498 41.7099 9.13498Z" fill="#FFB5B5"/>
<path d="M21.3 6.075C22.3051 6.075 23.12 5.26016 23.12 4.255C23.12 3.24984 22.3051 2.435 21.3 2.435C20.2948 2.435 19.48 3.24984 19.48 4.255C19.48 5.26016 20.2948 6.075 21.3 6.075Z" fill="#FFB5B5"/>
<path d="M29.1598 6.075C30.165 6.075 30.9798 5.26016 30.9798 4.255C30.9798 3.24984 30.165 2.435 29.1598 2.435C28.1547 2.435 27.3398 3.24984 27.3398 4.255C27.3398 5.26016 28.1547 6.075 29.1598 6.075Z" fill="#FFB5B5"/>
<path d="M37.03 6.075C38.0351 6.075 38.85 5.26016 38.85 4.255C38.85 3.24984 38.0351 2.435 37.03 2.435C36.0248 2.435 35.21 3.24984 35.21 4.255C35.21 5.26016 36.0248 6.075 37.03 6.075Z" fill="#FFB5B5"/>
<path d="M44.69 53.165H58.2V50.235C58.74 50.155 59.59 50.255 60.53 50.435C61.57 50.635 62.72 50.935 63.72 51.205C65.16 51.605 66.27 51.985 66.27 51.985C76.8 54.965 87.24 53.165 87.24 53.165V47.015C87.24 41.685 83.26 37.705 79.54 35.825C78.43 35.245 77.3 34.795 76.26 34.415V34.405C75.93 34.295 75.59 34.185 75.28 34.085C71.2 32.755 68.24 31.365 67.87 27.085C67.65 24.485 67.67 21.455 67.84 18.235C67.87 17.705 67.89 17.175 67.94 16.625C67.94 16.615 67.94 16.615 67.94 16.615C68.06 14.845 68.22 13.035 68.43 11.215C68.47 10.825 68.51 10.415 68.56 10.015C68.97 6.37498 69.45 2.44498 69.45 2.44498C68.91 2.38498 45.73 0.294983 45.73 0.294983C45.76 0.784983 45.8 4.47498 45.83 9.13498C45.84 10.195 45.85 11.315 45.86 12.465C45.88 15.715 45.89 19.155 45.91 22.185C45.92 23.395 45.92 24.545 45.93 25.575C45.94 28.805 45.95 30.995 45.95 30.995C45.48 32.585 45.16 34.355 44.94 36.195V36.205C44.89 36.595 44.84 36.985 44.81 37.375C44.61 39.355 44.5 41.385 44.45 43.285C44.45 43.475 44.45 43.665 44.44 43.855V43.885C44.35 49.005 44.69 53.165 44.69 53.165Z" fill="#B0305C"/>
<path d="M87.2296 51.295C86.9196 51.655 86.4296 51.875 85.9096 51.875C84.8996 51.875 84.0796 51.055 84.0796 50.045C84.0796 49.035 84.8996 48.215 85.9096 48.215C86.4396 48.215 86.9196 48.435 87.2296 48.795V51.295Z" fill="#FFB5B5"/>
<path d="M78.05 51.875C79.0551 51.875 79.87 51.0601 79.87 50.055C79.87 49.0498 79.0551 48.235 78.05 48.235C77.0448 48.235 76.23 49.0498 76.23 50.055C76.23 51.0601 77.0448 51.875 78.05 51.875Z" fill="#FFB5B5"/>
<path d="M70.1799 51.875C71.185 51.875 71.9999 51.0601 71.9999 50.055C71.9999 49.0498 71.185 48.235 70.1799 48.235C69.1747 48.235 68.3599 49.0498 68.3599 50.055C68.3599 51.0601 69.1747 51.875 70.1799 51.875Z" fill="#FFB5B5"/>
<path d="M60.4897 50.055C60.4897 50.185 60.4997 50.315 60.5197 50.435C61.5597 50.635 62.7197 50.925 63.7097 51.205C63.9797 50.895 64.1397 50.485 64.1397 50.055C64.1397 49.045 63.3197 48.225 62.3097 48.225C61.3097 48.225 60.4897 49.045 60.4897 50.055Z" fill="#FFB5B5"/>
<path d="M54.4499 51.875C55.455 51.875 56.2699 51.0601 56.2699 50.055C56.2699 49.0498 55.455 48.235 54.4499 48.235C53.4447 48.235 52.6299 49.0498 52.6299 50.055C52.6299 51.0601 53.4447 51.875 54.4499 51.875Z" fill="#FFB5B5"/>
<path d="M46.5798 51.875C47.5849 51.875 48.3998 51.0601 48.3998 50.055C48.3998 49.0498 47.5849 48.235 46.5798 48.235C45.5746 48.235 44.7598 49.0498 44.7598 50.055C44.7598 51.0601 45.5746 51.875 46.5798 51.875Z" fill="#FFB5B5"/>
<path d="M81.9802 45.325C82.9853 45.325 83.8002 44.5102 83.8002 43.505C83.8002 42.4998 82.9853 41.685 81.9802 41.685C80.975 41.685 80.1602 42.4998 80.1602 43.505C80.1602 44.5102 80.975 45.325 81.9802 45.325Z" fill="#FFB5B5"/>
<path d="M74.11 45.325C75.1152 45.325 75.93 44.5102 75.93 43.505C75.93 42.4998 75.1152 41.685 74.11 41.685C73.1049 41.685 72.29 42.4998 72.29 43.505C72.29 44.5102 73.1049 45.325 74.11 45.325Z" fill="#FFB5B5"/>
<path d="M66.2502 45.325C67.2553 45.325 68.0702 44.5102 68.0702 43.505C68.0702 42.4998 67.2553 41.685 66.2502 41.685C65.245 41.685 64.4302 42.4998 64.4302 43.505C64.4302 44.5102 65.245 45.325 66.2502 45.325Z" fill="#FFB5B5"/>
<path d="M58.3801 45.325C59.3852 45.325 60.2001 44.5102 60.2001 43.505C60.2001 42.4998 59.3852 41.685 58.3801 41.685C57.3749 41.685 56.5601 42.4998 56.5601 43.505C56.5601 44.5102 57.3749 45.325 58.3801 45.325Z" fill="#FFB5B5"/>
<path d="M50.5197 45.325C51.5249 45.325 52.3397 44.5102 52.3397 43.505C52.3397 42.4998 51.5249 41.685 50.5197 41.685C49.5145 41.685 48.6997 42.4998 48.6997 43.505C48.6997 44.5102 49.5145 45.325 50.5197 45.325Z" fill="#FFB5B5"/>
<path d="M44.4399 43.845C44.4599 43.735 44.4699 43.625 44.4699 43.505C44.4699 43.425 44.4699 43.345 44.4499 43.285C44.4499 43.475 44.4499 43.665 44.4399 43.845Z" fill="#FFB5B5"/>
<path d="M76.2197 34.785C76.2197 35.795 77.0397 36.615 78.0497 36.615C78.6697 36.615 79.2197 36.305 79.5397 35.835C78.4197 35.265 77.2997 34.805 76.2597 34.435C76.2297 34.535 76.2197 34.665 76.2197 34.785Z" fill="#FFB5B5"/>
<path d="M70.1799 38.785C71.185 38.785 71.9999 37.9702 71.9999 36.965C71.9999 35.9599 71.185 35.145 70.1799 35.145C69.1747 35.145 68.3599 35.9599 68.3599 36.965C68.3599 37.9702 69.1747 38.785 70.1799 38.785Z" fill="#FFB5B5"/>
<path d="M62.32 38.785C63.3252 38.785 64.14 37.9702 64.14 36.965C64.14 35.9599 63.3252 35.145 62.32 35.145C61.3148 35.145 60.5 35.9599 60.5 36.965C60.5 37.9702 61.3148 38.785 62.32 38.785Z" fill="#FFB5B5"/>
<path d="M54.4499 38.785C55.455 38.785 56.2699 37.9702 56.2699 36.965C56.2699 35.9599 55.455 35.145 54.4499 35.145C53.4447 35.145 52.6299 35.9599 52.6299 36.965C52.6299 37.9702 53.4447 38.785 54.4499 38.785Z" fill="#FFB5B5"/>
<path d="M46.5798 38.785C47.5849 38.785 48.3998 37.9702 48.3998 36.965C48.3998 35.9599 47.5849 35.145 46.5798 35.145C45.5746 35.145 44.7598 35.9599 44.7598 36.965C44.7598 37.9702 45.5746 38.785 46.5798 38.785Z" fill="#FFB5B5"/>
<path d="M66.2497 32.245C67.2548 32.245 68.0697 31.4301 68.0697 30.425C68.0697 29.4198 67.2548 28.605 66.2497 28.605C65.2445 28.605 64.4297 29.4198 64.4297 30.425C64.4297 31.4301 65.2445 32.245 66.2497 32.245Z" fill="#FFB5B5"/>
<path d="M58.3796 32.245C59.3847 32.245 60.1996 31.4301 60.1996 30.425C60.1996 29.4198 59.3847 28.605 58.3796 28.605C57.3744 28.605 56.5596 29.4198 56.5596 30.425C56.5596 31.4301 57.3744 32.245 58.3796 32.245Z" fill="#FFB5B5"/>
<path d="M50.5197 32.245C51.5249 32.245 52.3397 31.4301 52.3397 30.425C52.3397 29.4198 51.5249 28.605 50.5197 28.605C49.5145 28.605 48.6997 29.4198 48.6997 30.425C48.6997 31.4301 49.5145 32.245 50.5197 32.245Z" fill="#FFB5B5"/>
<path d="M62.32 25.695C63.3252 25.695 64.14 24.8802 64.14 23.875C64.14 22.8698 63.3252 22.055 62.32 22.055C61.3148 22.055 60.5 22.8698 60.5 23.875C60.5 24.8802 61.3148 25.695 62.32 25.695Z" fill="#FFB5B5"/>
<path d="M54.4504 25.695C55.4555 25.695 56.2704 24.8802 56.2704 23.875C56.2704 22.8698 55.4555 22.055 54.4504 22.055C53.4452 22.055 52.6304 22.8698 52.6304 23.875C52.6304 24.8802 53.4452 25.695 54.4504 25.695Z" fill="#FFB5B5"/>
<path d="M45.9102 22.185C45.9202 23.395 45.9202 24.545 45.9302 25.575C46.1302 25.655 46.3402 25.695 46.5802 25.695C47.5802 25.695 48.4002 24.895 48.4002 23.885C48.4002 22.875 47.5802 22.065 46.5802 22.065C46.3502 22.065 46.1202 22.105 45.9102 22.185Z" fill="#FFB5B5"/>
<path d="M64.4199 17.345C64.4199 18.355 65.2399 19.155 66.2499 19.155C66.9299 19.155 67.5299 18.785 67.8299 18.235C67.8599 17.705 67.8899 17.175 67.9299 16.635C67.9299 16.625 67.9299 16.625 67.9299 16.625C67.6499 15.975 66.9999 15.515 66.2499 15.515C65.2399 15.515 64.4199 16.335 64.4199 17.345Z" fill="#FFB5B5"/>
<path d="M58.3796 19.155C59.3847 19.155 60.1996 18.3402 60.1996 17.335C60.1996 16.3299 59.3847 15.515 58.3796 15.515C57.3744 15.515 56.5596 16.3299 56.5596 17.335C56.5596 18.3402 57.3744 19.155 58.3796 19.155Z" fill="#FFB5B5"/>
<path d="M50.5197 19.155C51.5249 19.155 52.3397 18.3402 52.3397 17.335C52.3397 16.3299 51.5249 15.515 50.5197 15.515C49.5145 15.515 48.6997 16.3299 48.6997 17.335C48.6997 18.3402 49.5145 19.155 50.5197 19.155Z" fill="#FFB5B5"/>
<path d="M68.3599 10.795C68.3599 10.945 68.3799 11.085 68.4199 11.225C68.4599 10.825 68.5099 10.415 68.5499 10.015C68.4199 10.245 68.3599 10.515 68.3599 10.795Z" fill="#FFB5B5"/>
<path d="M62.32 12.615C63.3252 12.615 64.14 11.8001 64.14 10.795C64.14 9.78982 63.3252 8.97498 62.32 8.97498C61.3148 8.97498 60.5 9.78982 60.5 10.795C60.5 11.8001 61.3148 12.615 62.32 12.615Z" fill="#FFB5B5"/>
<path d="M54.4499 12.615C55.455 12.615 56.2699 11.8001 56.2699 10.795C56.2699 9.78982 55.455 8.97498 54.4499 8.97498C53.4447 8.97498 52.6299 9.78982 52.6299 10.795C52.6299 11.8001 53.4447 12.615 54.4499 12.615Z" fill="#FFB5B5"/>
<path d="M45.8301 9.13498C45.8401 10.195 45.8501 11.315 45.8601 12.465C46.0801 12.565 46.3301 12.615 46.5801 12.615C47.5901 12.615 48.4101 11.805 48.4101 10.795C48.4101 9.78498 47.5901 8.97498 46.5801 8.97498C46.3201 8.97498 46.0501 9.03498 45.8301 9.13498Z" fill="#FFB5B5"/>
<path d="M66.2497 6.075C67.2548 6.075 68.0697 5.26016 68.0697 4.255C68.0697 3.24984 67.2548 2.435 66.2497 2.435C65.2445 2.435 64.4297 3.24984 64.4297 4.255C64.4297 5.26016 65.2445 6.075 66.2497 6.075Z" fill="#FFB5B5"/>
<path d="M58.3796 6.075C59.3847 6.075 60.1996 5.26016 60.1996 4.255C60.1996 3.24984 59.3847 2.435 58.3796 2.435C57.3744 2.435 56.5596 3.24984 56.5596 4.255C56.5596 5.26016 57.3744 6.075 58.3796 6.075Z" fill="#FFB5B5"/>
<path d="M50.5197 6.075C51.5249 6.075 52.3397 5.26016 52.3397 4.255C52.3397 3.24984 51.5249 2.435 50.5197 2.435C49.5145 2.435 48.6997 3.24984 48.6997 4.255C48.6997 5.26016 49.5145 6.075 50.5197 6.075Z" fill="#FFB5B5"/>
</g>
<defs>
<clipPath id="clip0_301_12080">
<rect width="86.92" height="53.41" fill="white" transform="translate(0.310059 0.294983)"/>
</clipPath>
</defs>
</svg>
