<svg width="92" height="24" viewBox="0 0 92 24" fill="none" xmlns="http://www.w3.org/2000/svg">
<g clip-path="url(#clip0_301_11912)">
<path d="M48.02 19.13V11.48L74.9 0.940002C74.9 0.940002 90.41 6.11 91.23 19.13H48.02Z" fill="#FC9E17"/>
<path d="M48.0297 23.067L91.2397 23.067L91.2397 19.137L48.0297 19.137L48.0297 23.067Z" fill="#F1EDB9"/>
<path d="M77.7999 10.03C79.2965 10.03 80.5098 8.81668 80.5098 7.31999C80.5098 5.82329 79.2965 4.60999 77.7999 4.60999C76.3032 4.60999 75.0898 5.82329 75.0898 7.31999C75.0898 8.81668 76.3032 10.03 77.7999 10.03Z" fill="#162330"/>
<path d="M83.92 14.79C85.4167 14.79 86.63 13.5767 86.63 12.08C86.63 10.5833 85.4167 9.37 83.92 9.37C82.4233 9.37 81.21 10.5833 81.21 12.08C81.21 13.5767 82.4233 14.79 83.92 14.79Z" fill="#162330"/>
<path d="M83.6899 12.31C83.6899 12.31 85.4599 10.55 87.2599 9.35999" stroke="#FAFAFA" stroke-width="2" stroke-miterlimit="10" stroke-linecap="round"/>
<path d="M78.0498 7.32C78.0498 7.32 79.8198 5.56 81.6198 4.37" stroke="#FAFAFA" stroke-width="2" stroke-miterlimit="10" stroke-linecap="round"/>
<path d="M58.8701 12.87C59.1401 11.26 60.5201 10.04 62.2101 10.04C63.8901 10.04 65.2801 11.27 65.5501 12.87H58.8701Z" fill="#FBF6D1"/>
<path d="M58.8701 16.01C59.1401 14.4 60.5201 13.18 62.2101 13.18C63.8901 13.18 65.2801 14.41 65.5501 16.01H58.8701Z" fill="#FBF6D1"/>
<path d="M57.0101 15.34C56.7401 16.95 55.3601 18.17 53.6701 18.17C51.9901 18.17 50.6001 16.94 50.3301 15.34H57.0101Z" fill="#FBF6D1"/>
<path d="M57.0101 12.21C56.7401 13.82 55.3601 15.04 53.6701 15.04C51.9901 15.04 50.6001 13.81 50.3301 12.21H57.0101Z" fill="#FBF6D1"/>
<path d="M74.0701 12.51C73.8001 14.12 72.4201 15.34 70.7301 15.34C69.0501 15.34 67.6601 14.11 67.3901 12.51H74.0701Z" fill="#FBF6D1"/>
<path d="M43.21 19.13V11.48L16.33 0.940002C16.33 0.940002 0.83 6.11 0 19.13H43.21Z" fill="#FC9E17"/>
<path d="M43.21 19.13H0V23.06H43.21V19.13Z" fill="#F1EDB9"/>
<path d="M13.44 10.03C14.9367 10.03 16.15 8.81668 16.15 7.31999C16.15 5.82329 14.9367 4.60999 13.44 4.60999C11.9433 4.60999 10.73 5.82329 10.73 7.31999C10.73 8.81668 11.9433 10.03 13.44 10.03Z" fill="#162330"/>
<path d="M7.3101 14.79C8.80679 14.79 10.0201 13.5767 10.0201 12.08C10.0201 10.5833 8.80679 9.37 7.3101 9.37C5.81341 9.37 4.6001 10.5833 4.6001 12.08C4.6001 13.5767 5.81341 14.79 7.3101 14.79Z" fill="#162330"/>
<path d="M7.54998 12.31C7.54998 12.31 5.77998 10.55 3.97998 9.35999" stroke="#FAFAFA" stroke-width="2" stroke-miterlimit="10" stroke-linecap="round"/>
<path d="M13.1799 7.32C13.1799 7.32 11.4099 5.56 9.60986 4.37" stroke="#FAFAFA" stroke-width="2" stroke-miterlimit="10" stroke-linecap="round"/>
<path d="M32.3699 12.87C32.0999 11.26 30.7199 10.04 29.0299 10.04C27.3499 10.04 25.9599 11.27 25.6899 12.87H32.3699Z" fill="#FBF6D1"/>
<path d="M32.3699 16.01C32.0999 14.4 30.7199 13.18 29.0299 13.18C27.3499 13.18 25.9599 14.41 25.6899 16.01H32.3699Z" fill="#FBF6D1"/>
<path d="M34.23 15.34C34.5 16.95 35.88 18.17 37.57 18.17C39.25 18.17 40.64 16.94 40.91 15.34H34.23Z" fill="#FBF6D1"/>
<path d="M34.23 12.21C34.5 13.82 35.88 15.04 37.57 15.04C39.25 15.04 40.64 13.81 40.91 12.21H34.23Z" fill="#FBF6D1"/>
<path d="M17.1699 12.51C17.4399 14.12 18.8199 15.34 20.5099 15.34C22.1899 15.34 23.5799 14.11 23.8499 12.51H17.1699Z" fill="#FBF6D1"/>
</g>
<defs>
<clipPath id="clip0_301_11912">
<rect width="91.24" height="22.12" fill="white" transform="translate(0 0.940002)"/>
</clipPath>
</defs>
</svg>
