<svg width="120" height="86" viewBox="0 0 120 86" fill="none" xmlns="http://www.w3.org/2000/svg">
<g clip-path="url(#clip0_318_11341)">
<path d="M69.6899 81.6237C69.6899 81.6237 79.7499 69.9437 92.6499 68.0737C92.6499 68.0737 96.0899 67.2437 93.4999 71.1537C93.4999 71.1537 93.3799 69.6437 92.5099 69.7137C91.1599 69.8137 81.9699 72.6937 72.8899 81.2837C71.0099 83.0537 71.1999 80.3137 69.6899 81.6237Z" fill="#489DD7"/>
<path d="M99.64 80.4037H62.96V85.1937H99.64V80.4037Z" fill="#F7ECB9"/>
<path d="M50.3098 81.6237C50.3098 81.6237 40.2498 69.9437 27.3498 68.0737C27.3498 68.0737 23.9098 67.2437 26.4998 71.1537C26.4998 71.1537 26.6198 69.6437 27.4898 69.7137C28.8398 69.8137 38.0298 72.6937 47.1098 81.2837C48.9898 83.0537 48.7998 80.3137 50.3098 81.6237Z" fill="#489DD7"/>
<path d="M20.3517 85.1983L57.0317 85.1983L57.0317 80.4083L20.3517 80.4083L20.3517 85.1983Z" fill="#F7ECB9"/>
</g>
<defs>
<clipPath id="clip0_318_11341">
<rect width="120" height="85" fill="white" transform="translate(0 0.5)"/>
</clipPath>
</defs>
</svg>
