<svg width="107" height="46" viewBox="0 0 107 46" fill="none" xmlns="http://www.w3.org/2000/svg">
<g clip-path="url(#clip0_301_8745)">
<path d="M50.32 4.66998V25.99C50.32 25.99 50.32 29.12 50.32 31.8C50.32 36.57 50.32 42.17 50.32 42.17H2.29004C2.29004 34.14 7.98004 29.54 13.7 26.94C14.36 26.64 15.01 26.37 15.66 26.12C17.53 25.4 19.33 24.88 20.86 24.51C21.71 24.3 22.48 24.14 23.12 24.02C24.27 23.8 25.05 23.7 25.27 23.66V4.66998H50.32Z" fill="#C62C3F"/>
<path d="M50.4499 5.35H25.3899C24.1699 5.35 23.1899 4.36 23.1899 3.15V2.76C23.1899 1.54 24.1799 0.559998 25.3899 0.559998H50.4499C51.6699 0.559998 52.6499 1.55 52.6499 2.76V3.14C52.6499 4.36 51.6699 5.35 50.4499 5.35Z" fill="#C2B6B7"/>
<path d="M51.0901 41.51H0.370117V45.44H51.0901V41.51Z" fill="#CFCDCF"/>
<path d="M20.9904 33.43C20.8004 33.61 20.5604 33.7 20.3204 33.7C20.0504 33.7 19.7804 33.59 19.5804 33.37L13.6104 26.83C14.2704 26.53 14.9204 26.26 15.5704 26.01L21.0604 32.02C21.4304 32.43 21.4004 33.06 20.9904 33.43Z" fill="#CFCDCF"/>
<path d="M29.3902 32.26C29.2002 32.44 28.9502 32.53 28.7102 32.53C28.4402 32.53 28.1702 32.42 27.9802 32.21L20.7002 24.36C21.5502 24.15 22.3202 23.99 22.9602 23.87L29.4402 30.85C29.8202 31.25 29.7902 31.89 29.3902 32.26Z" fill="#CFCDCF"/>
<path d="M56.0698 4.66998V25.99C56.0698 25.99 56.0698 29.12 56.0698 31.8C56.0698 36.57 56.0698 42.17 56.0698 42.17H104.1C104.1 34.14 98.4098 29.54 92.6898 26.94C92.0298 26.64 91.3798 26.37 90.7298 26.12C88.8598 25.4 87.0598 24.88 85.5298 24.51C84.6798 24.3 83.9098 24.14 83.2698 24.02C82.1198 23.8 81.3398 23.7 81.1198 23.66V4.66998H56.0698Z" fill="#FB374F"/>
<path d="M55.93 5.35H80.99C82.21 5.35 83.19 4.36 83.19 3.15V2.76C83.19 1.54 82.2 0.559998 80.99 0.559998H55.93C54.71 0.559998 53.73 1.55 53.73 2.76V3.14C53.73 4.36 54.72 5.35 55.93 5.35Z" fill="#FFF7FA"/>
<path d="M55.2917 45.4323L106.012 45.4323L106.012 41.5023L55.2917 41.5023L55.2917 45.4323Z" fill="#FFF7FA"/>
<path d="M85.4 33.43C85.59 33.61 85.83 33.7 86.07 33.7C86.34 33.7 86.61 33.59 86.81 33.37L92.78 26.83C92.12 26.53 91.47 26.26 90.82 26.01L85.33 32.02C84.96 32.43 84.99 33.06 85.4 33.43Z" fill="#FFF7FA"/>
<path d="M76.9999 32.26C77.1899 32.44 77.4399 32.53 77.6799 32.53C77.9499 32.53 78.2199 32.42 78.4099 32.21L85.6899 24.36C84.8399 24.15 84.0699 23.99 83.4299 23.87L76.9499 30.85C76.5699 31.25 76.5999 31.89 76.9999 32.26Z" fill="#FFF7FA"/>
</g>
<defs>
<clipPath id="clip0_301_8745">
<rect width="105.65" height="44.88" fill="white" transform="translate(0.370117 0.559998)"/>
</clipPath>
</defs>
</svg>
