<svg width="105" height="26" viewBox="0 0 105 26" fill="none" xmlns="http://www.w3.org/2000/svg">
<g clip-path="url(#clip0_301_8667)">
<path d="M51.1004 21.845H0.630371C0.890371 17.705 2.38037 14.325 4.55037 11.605C4.78037 11.295 5.04037 10.995 5.29037 10.705C5.88037 10.045 6.51037 9.41499 7.17037 8.83499C7.47037 8.56499 7.78037 8.29499 8.10037 8.05499C8.71037 7.55499 9.34037 7.09499 9.99037 6.66499C10.3504 6.42499 10.7104 6.20499 11.0704 5.98499C11.7704 5.55499 12.4604 5.17499 13.1604 4.81499C13.5704 4.59499 13.9704 4.39499 14.3804 4.21499C14.3904 4.20499 14.4104 4.20499 14.4304 4.19499C20.9504 1.11499 25.1104 0.36499 25.1104 0.36499C27.0904 2.15499 31.9104 3.12499 34.5804 3.10499L36.0504 3.09499L37.5804 3.08499L50.0004 3.03499C50.4904 3.03499 50.8904 3.42499 50.8904 3.91499L51.1004 21.845Z" fill="#C48B2F"/>
<path d="M46.0101 6.98501C45.9201 7.04501 45.8101 7.06501 45.7201 7.06501C45.5201 7.06501 45.3301 6.96501 45.2201 6.78501C44.5601 5.68501 43.4301 4.31501 42.3301 3.08501L43.8601 3.07501C44.7601 4.13501 45.6301 5.24501 46.2001 6.18501C46.3801 6.46501 46.2801 6.81501 46.0101 6.98501Z" fill="#9B6621"/>
<path d="M8.37004 13.365C8.25004 13.535 8.07004 13.635 7.88004 13.635C7.76004 13.635 7.66004 13.605 7.57004 13.545L4.54004 11.605C4.77004 11.295 5.03004 10.995 5.28004 10.705L8.20004 12.565C8.47004 12.745 8.55004 13.105 8.37004 13.365Z" fill="#9B6621"/>
<path d="M11.5104 10.935C11.4104 11.105 11.2204 11.205 11.0204 11.205C10.9204 11.205 10.8104 11.185 10.7104 11.125L7.17041 8.83499C7.47041 8.56499 7.78041 8.29499 8.10041 8.05499L11.3404 10.135C11.6004 10.305 11.6804 10.665 11.5104 10.935Z" fill="#9B6621"/>
<path d="M14.1902 8.67499C14.0702 8.84499 13.8902 8.94499 13.7002 8.94499C13.5802 8.94499 13.4802 8.91499 13.3902 8.85499L9.99023 6.66499C10.3502 6.42499 10.7102 6.20499 11.0702 5.98499L14.0202 7.87499C14.2802 8.04499 14.3602 8.40499 14.1902 8.67499Z" fill="#9B6621"/>
<path d="M16.8404 6.47502C16.7204 6.64502 16.5404 6.74502 16.3504 6.74502C16.2504 6.74502 16.1304 6.72502 16.0404 6.66502L13.1504 4.80502C13.5604 4.58502 13.9604 4.38502 14.3704 4.20502L16.6704 5.67502C16.9404 5.85502 17.0204 6.21502 16.8404 6.47502Z" fill="#9B6621"/>
<path d="M51.6302 21.485H0.200195V25.635H51.6302V21.485Z" fill="#9B6621"/>
<path d="M53.73 21.845H104.21C103.95 17.705 102.46 14.325 100.29 11.605C100.06 11.295 99.8 10.995 99.55 10.705C98.96 10.045 98.33 9.41499 97.67 8.83499C97.37 8.56499 97.06 8.30499 96.74 8.05499C96.13 7.55499 95.5 7.09499 94.85 6.66499C94.49 6.42499 94.13 6.20499 93.77 5.98499C93.07 5.55499 92.38 5.17499 91.68 4.81499C91.27 4.59499 90.87 4.39499 90.46 4.21499C90.45 4.20499 90.43 4.20499 90.41 4.19499C83.88 1.11499 79.72 0.36499 79.72 0.36499C77.74 2.15499 72.92 3.12499 70.25 3.10499L68.78 3.09499L67.25 3.08499L54.83 3.03499C54.34 3.03499 53.94 3.42499 53.94 3.91499L53.73 21.845Z" fill="#FCB83E"/>
<path d="M58.8199 6.98501C58.9099 7.04501 59.0199 7.06501 59.1099 7.06501C59.3099 7.06501 59.4999 6.96501 59.6099 6.78501C60.2699 5.68501 61.3999 4.31501 62.4999 3.08501L60.9699 3.07501C60.0699 4.13501 59.1999 5.24501 58.6299 6.18501C58.4499 6.46501 58.5499 6.81501 58.8199 6.98501Z" fill="#9B6621"/>
<path d="M96.4599 13.365C96.5799 13.535 96.7599 13.635 96.9499 13.635C97.0699 13.635 97.1699 13.605 97.2599 13.545L100.29 11.605C100.06 11.295 99.7999 10.995 99.5499 10.705L96.6399 12.575C96.3599 12.745 96.2799 13.105 96.4599 13.365Z" fill="#9B6621"/>
<path d="M93.3202 10.935C93.4202 11.105 93.6102 11.205 93.8102 11.205C93.9102 11.205 94.0202 11.185 94.1202 11.125L97.6602 8.83499C97.3602 8.56499 97.0502 8.30499 96.7302 8.05499L93.5002 10.135C93.2302 10.305 93.1502 10.665 93.3202 10.935Z" fill="#9B6621"/>
<path d="M90.64 8.675C90.76 8.845 90.94 8.94499 91.13 8.94499C91.25 8.94499 91.35 8.91499 91.44 8.85499L94.84 6.67499C94.48 6.43499 94.12 6.215 93.76 5.995L90.81 7.88499C90.55 8.045 90.47 8.405 90.64 8.675Z" fill="#9B6621"/>
<path d="M87.9901 6.47502C88.1101 6.64502 88.2901 6.74502 88.4801 6.74502C88.5801 6.74502 88.7001 6.72502 88.7901 6.66502L91.6801 4.80502C91.2701 4.58502 90.8701 4.38502 90.4601 4.20502L88.1601 5.67502C87.9001 5.85502 87.8101 6.21502 87.9901 6.47502Z" fill="#9B6621"/>
<path d="M53.2013 25.6395L104.631 25.6395L104.631 21.4895L53.2013 21.4895L53.2013 25.6395Z" fill="#9B6621"/>
</g>
<defs>
<clipPath id="clip0_301_8667">
<rect width="104.43" height="25.27" fill="white" transform="translate(0.200195 0.36499)"/>
</clipPath>
</defs>
</svg>
