<svg width="120" height="86" viewBox="0 0 120 86" fill="none" xmlns="http://www.w3.org/2000/svg">
<g clip-path="url(#clip0_318_11261)">
<path d="M56.4797 81.52H17.9497C18.1697 77.95 19.4597 75.04 21.3297 72.69C21.5297 72.42 21.7497 72.16 21.9697 71.91C22.4797 71.34 23.0197 70.8 23.5897 70.3C23.8497 70.07 24.1197 69.84 24.3897 69.63C24.9197 69.2 25.4597 68.8 26.0197 68.43C26.3297 68.22 26.6397 68.03 26.9497 67.84C27.5497 67.47 28.1497 67.14 28.7497 66.83C29.0997 66.64 29.4497 66.47 29.7997 66.31C29.8097 66.3 29.8297 66.3 29.8397 66.29C35.4697 63.65 40.9797 63 40.9797 63C42.6897 64.54 44.9197 65.38 47.2197 65.36L48.4897 65.35L49.8097 65.34L55.5297 65.3C55.9497 65.3 56.2997 65.64 56.2997 66.06L56.4797 81.52Z" fill="#C48B2F"/>
<path d="M51.6597 68.71C51.5797 68.76 51.4897 68.78 51.4097 68.78C51.2397 68.78 51.0697 68.69 50.9797 68.54C50.4097 67.59 49.4397 66.41 48.4897 65.35L49.8097 65.34C50.5897 66.25 51.3397 67.21 51.8297 68.02C51.9797 68.26 51.8997 68.56 51.6597 68.71Z" fill="#9B6621"/>
<path d="M24.6301 74.21C24.5301 74.36 24.3701 74.44 24.2101 74.44C24.1101 74.44 24.0201 74.41 23.9401 74.36L21.3301 72.69C21.5301 72.42 21.7501 72.16 21.9701 71.91L24.4801 73.52C24.7101 73.67 24.7801 73.98 24.6301 74.21Z" fill="#9B6621"/>
<path d="M27.3298 72.11C27.2398 72.26 27.0798 72.34 26.9098 72.34C26.8198 72.34 26.7298 72.32 26.6398 72.27L23.5898 70.3C23.8498 70.07 24.1198 69.84 24.3898 69.63L27.1798 71.42C27.4098 71.57 27.4798 71.88 27.3298 72.11Z" fill="#9B6621"/>
<path d="M29.64 70.16C29.54 70.31 29.38 70.39 29.22 70.39C29.12 70.39 29.03 70.36 28.95 70.31L26.02 68.43C26.33 68.22 26.64 68.03 26.95 67.84L29.49 69.47C29.72 69.62 29.79 69.93 29.64 70.16Z" fill="#9B6621"/>
<path d="M31.93 68.27C31.83 68.42 31.67 68.5 31.51 68.5C31.42 68.5 31.32 68.48 31.24 68.43L28.75 66.83C29.1 66.64 29.45 66.47 29.8 66.31L31.78 67.58C32.01 67.73 32.08 68.04 31.93 68.27Z" fill="#9B6621"/>
<path d="M56.9398 81.21H17.5898V84.79H56.9398V81.21Z" fill="#9B6621"/>
<path d="M63.52 81.52H102.05C101.83 77.95 100.54 75.04 98.67 72.69C98.47 72.42 98.25 72.16 98.03 71.91C97.52 71.34 96.98 70.8 96.41 70.3C96.15 70.07 95.88 69.84 95.61 69.63C95.08 69.2 94.54 68.8 93.98 68.43C93.67 68.22 93.36 68.03 93.05 67.84C92.45 67.47 91.85 67.14 91.25 66.83C90.9 66.64 90.55 66.47 90.2 66.31C90.19 66.3 90.17 66.3 90.16 66.29C84.53 63.65 79.02 63 79.02 63C77.31 64.54 75.08 65.38 72.78 65.36L71.51 65.35L70.19 65.34L64.47 65.3C64.05 65.3 63.7 65.64 63.7 66.06L63.52 81.52Z" fill="#FCB83E"/>
<path d="M68.3402 68.71C68.4202 68.76 68.5102 68.78 68.5902 68.78C68.7602 68.78 68.9302 68.69 69.0202 68.54C69.5902 67.59 70.5602 66.41 71.5102 65.35L70.1902 65.34C69.4102 66.25 68.6602 67.21 68.1702 68.02C68.0202 68.26 68.1002 68.56 68.3402 68.71Z" fill="#9B6621"/>
<path d="M95.3703 74.21C95.4703 74.36 95.6303 74.44 95.7903 74.44C95.8903 74.44 95.9803 74.41 96.0603 74.36L98.6703 72.69C98.4703 72.42 98.2503 72.16 98.0303 71.91L95.5203 73.52C95.2903 73.67 95.2203 73.98 95.3703 74.21Z" fill="#9B6621"/>
<path d="M92.6701 72.11C92.7601 72.26 92.9201 72.34 93.0901 72.34C93.1801 72.34 93.2701 72.32 93.3601 72.27L96.4101 70.3C96.1501 70.07 95.8801 69.84 95.6101 69.63L92.8201 71.42C92.5901 71.57 92.5201 71.88 92.6701 72.11Z" fill="#9B6621"/>
<path d="M90.36 70.16C90.46 70.31 90.62 70.39 90.78 70.39C90.88 70.39 90.97 70.36 91.05 70.31L93.98 68.43C93.67 68.22 93.36 68.03 93.05 67.84L90.51 69.47C90.28 69.62 90.21 69.93 90.36 70.16Z" fill="#9B6621"/>
<path d="M88.07 68.27C88.17 68.42 88.33 68.5 88.49 68.5C88.58 68.5 88.68 68.48 88.76 68.43L91.25 66.83C90.9 66.64 90.55 66.47 90.2 66.31L88.22 67.58C87.99 67.73 87.92 68.04 88.07 68.27Z" fill="#9B6621"/>
<path d="M63.0675 84.7779L102.417 84.7779L102.417 81.1979L63.0675 81.1979L63.0675 84.7779Z" fill="#9B6621"/>
</g>
<defs>
<clipPath id="clip0_318_11261">
<rect width="120" height="85" fill="white" transform="translate(0 0.5)"/>
</clipPath>
</defs>
</svg>
