<svg width="79" height="28" viewBox="0 0 79 28" fill="none" xmlns="http://www.w3.org/2000/svg">
<g clip-path="url(#clip0_301_6133)">
<path d="M39.3503 14.3V23.32H1.56027C1.22027 20.74 2.56027 18.5 4.79027 14.83C5.01027 14.47 5.31027 14.02 5.70027 13.5C5.89027 13.24 6.12027 12.96 6.36027 12.67C8.74027 9.89002 13.5003 6.03002 22.1203 5.05002V5.03002C22.1203 4.14002 22.8503 3.48002 23.7303 3.59002C23.9303 3.62002 24.1403 3.63002 24.3803 3.65002C24.7103 3.68002 25.0403 3.71002 25.3803 3.73002C25.8203 3.76002 26.2703 3.77002 26.7203 3.77002C27.4903 3.77002 28.2403 3.73002 28.9703 3.66002C31.7803 3.38002 34.2403 2.57002 36.0103 1.44002C36.6303 1.04002 37.3203 0.800022 38.0503 0.710022L38.7603 8.11002L39.1803 12.56L39.3503 14.3Z" fill="#FC961A"/>
<path d="M40.0301 23.32H0.580078V25.91H2.75008V27.29H4.75008V25.91H8.24008V27.29H10.2401V25.91H13.7301V27.29H15.7301V25.91H19.2201V27.29H21.2201V25.91H24.7101V27.29H26.7101V25.91H30.2001V27.29H32.2001V25.91H35.6901V27.29H37.6901V25.91H40.0301V23.32Z" fill="#281913"/>
<path d="M39.3401 14.3V23.32H31.0201C30.7301 22.49 30.5801 21.61 30.5801 20.68C30.5801 16.19 34.2201 12.55 38.7101 12.55C38.8601 12.55 39.0201 12.55 39.1701 12.56L39.3401 14.3Z" fill="#854714"/>
<path d="M10.29 23.32H0.959961C0.959961 19.92 2.22996 16.72 4.78996 14.83C7.82996 16.37 10.29 19.69 10.29 23.32Z" fill="#854714"/>
<path d="M38.75 8.11002H36.42C33.23 8.11002 30.37 6.34002 28.96 3.66002C31.77 3.38002 34.23 2.57002 36 1.44002C36.62 1.04002 37.31 0.800022 38.04 0.710022L38.75 8.11002Z" fill="#854714"/>
<path d="M24.3802 3.65002V10.84C24.3802 14.09 21.7402 16.73 18.5002 16.73H11.3002C9.7602 16.73 7.3402 13.85 6.3602 12.67C6.1202 12.96 5.8902 13.24 5.7002 13.5C6.8802 15.01 9.3802 17.73 11.3002 17.73H18.5002C22.3002 17.73 25.3802 14.64 25.3802 10.84V3.73002C25.0402 3.71002 24.7102 3.68002 24.3802 3.65002Z" fill="#854714"/>
<path d="M19.6602 8.11004C20.3174 8.11004 20.8502 7.57726 20.8502 6.92004C20.8502 6.26282 20.3174 5.73004 19.6602 5.73004C19.003 5.73004 18.4702 6.26282 18.4702 6.92004C18.4702 7.57726 19.003 8.11004 19.6602 8.11004Z" fill="#F9D335"/>
<path d="M15.7403 9.30004C16.3975 9.30004 16.9303 8.76726 16.9303 8.11004C16.9303 7.45283 16.3975 6.92004 15.7403 6.92004C15.0831 6.92004 14.5503 7.45283 14.5503 8.11004C14.5503 8.76726 15.0831 9.30004 15.7403 9.30004Z" fill="#F9D335"/>
<path d="M12.0401 11.17C12.6973 11.17 13.2301 10.6373 13.2301 9.98004C13.2301 9.32282 12.6973 8.79004 12.0401 8.79004C11.3829 8.79004 10.8501 9.32282 10.8501 9.98004C10.8501 10.6373 11.3829 11.17 12.0401 11.17Z" fill="#F9D335"/>
<path d="M9.09039 13.56C9.74761 13.56 10.2804 13.0272 10.2804 12.37C10.2804 11.7128 9.74761 11.18 9.09039 11.18C8.43317 11.18 7.90039 11.7128 7.90039 12.37C7.90039 13.0272 8.43317 13.56 9.09039 13.56Z" fill="#F9D335"/>
<path d="M19.2201 4.14001C19.4501 4.14001 19.6601 4.30001 19.7101 4.54001L20.1601 6.71001C20.2201 6.98001 20.0401 7.25001 19.7701 7.30001C19.5001 7.36001 19.2301 7.18001 19.1801 6.91001L18.7201 4.74001C18.6601 4.47001 18.8401 4.20001 19.1101 4.15001C19.1501 4.14001 19.1801 4.14001 19.2201 4.14001Z" fill="#162330"/>
<path d="M14.7703 5.43C14.9303 5.45 15.0803 5.55 15.1603 5.71L16.1203 7.7C16.2403 7.95 16.1303 8.25 15.8903 8.37C15.6403 8.49 15.3403 8.39 15.2203 8.14L14.2603 6.15C14.1403 5.9 14.2503 5.6 14.4903 5.48C14.5803 5.43 14.6703 5.42 14.7703 5.43Z" fill="#162330"/>
<path d="M10.9402 7.53C11.0102 7.57 11.0802 7.62 11.1302 7.7L12.4702 9.75C12.6202 9.98 12.5602 10.29 12.3302 10.44C12.1002 10.59 11.7902 10.53 11.6402 10.3L10.2902 8.24C10.1402 8.01 10.2102 7.7 10.4402 7.55C10.5902 7.45 10.7902 7.45 10.9402 7.53Z" fill="#162330"/>
<path d="M7.72029 10.2C7.75029 10.21 7.77029 10.23 7.79029 10.26L9.46029 12.02C9.65029 12.22 9.64029 12.54 9.44029 12.73C9.24029 12.92 8.92029 12.91 8.73029 12.71L7.06029 10.95C6.87029 10.75 6.88029 10.43 7.08029 10.24C7.26029 10.07 7.53029 10.06 7.72029 10.2Z" fill="#162330"/>
<path d="M39.54 14.3V23.32H77.33C77.67 20.74 76.33 18.5 74.1 14.83C73.88 14.47 73.58 14.02 73.19 13.5C73 13.24 72.77 12.96 72.53 12.67C70.15 9.89002 65.39 6.03002 56.77 5.05002V5.03002C56.77 4.14002 56.04 3.48002 55.16 3.59002C54.96 3.62002 54.75 3.63002 54.51 3.65002C54.18 3.68002 53.85 3.71002 53.51 3.73002C53.07 3.76002 52.62 3.77002 52.17 3.77002C51.4 3.77002 50.65 3.73002 49.92 3.66002C47.11 3.38002 44.65 2.57002 42.88 1.44002C42.26 1.04002 41.57 0.800022 40.84 0.710022L40.13 8.11002L39.71 12.56L39.54 14.3Z" fill="#FC961A"/>
<path d="M38.8599 23.32H78.3099V25.91H76.1399V27.29H74.1399V25.91H70.6499V27.29H68.6499V25.91H65.1599V27.29H63.1599V25.91H59.6699V27.29H57.6699V25.91H54.1799V27.29H52.1799V25.91H48.6899V27.29H46.6899V25.91H43.1999V27.29H41.1999V25.91H38.8599V23.32Z" fill="#281913"/>
<path d="M39.54 14.3V23.32H47.86C48.15 22.49 48.3 21.61 48.3 20.68C48.3 16.19 44.66 12.55 40.17 12.55C40.02 12.55 39.86 12.55 39.71 12.56L39.54 14.3Z" fill="#854714"/>
<path d="M68.6001 23.32H77.9201C77.9201 19.92 76.6501 16.72 74.0901 14.83C71.0601 16.37 68.6001 19.69 68.6001 23.32Z" fill="#854714"/>
<path d="M40.1299 8.11002H42.4599C45.6499 8.11002 48.5099 6.34002 49.9199 3.66002C47.1099 3.38002 44.6499 2.57002 42.8799 1.44002C42.2599 1.04002 41.5699 0.800022 40.8399 0.710022L40.1299 8.11002Z" fill="#854714"/>
<path d="M53.5098 3.73002V10.84C53.5098 14.64 56.5898 17.73 60.3898 17.73H67.5898C69.5098 17.73 72.0098 15.01 73.1898 13.5C72.9998 13.24 72.7698 12.96 72.5298 12.67C71.5498 13.85 69.1298 16.73 67.5898 16.73H60.3898C57.1498 16.73 54.5098 14.09 54.5098 10.84V3.65002C54.1798 3.68002 53.8498 3.71002 53.5098 3.73002Z" fill="#854714"/>
<path d="M59.2198 8.11004C59.877 8.11004 60.4098 7.57726 60.4098 6.92004C60.4098 6.26282 59.877 5.73004 59.2198 5.73004C58.5626 5.73004 58.0298 6.26282 58.0298 6.92004C58.0298 7.57726 58.5626 8.11004 59.2198 8.11004Z" fill="#F9D335"/>
<path d="M63.1397 9.30004C63.7969 9.30004 64.3297 8.76726 64.3297 8.11004C64.3297 7.45283 63.7969 6.92004 63.1397 6.92004C62.4825 6.92004 61.9497 7.45283 61.9497 8.11004C61.9497 8.76726 62.4825 9.30004 63.1397 9.30004Z" fill="#F9D335"/>
<path d="M66.8497 11.17C67.5069 11.17 68.0397 10.6373 68.0397 9.98004C68.0397 9.32282 67.5069 8.79004 66.8497 8.79004C66.1924 8.79004 65.6597 9.32282 65.6597 9.98004C65.6597 10.6373 66.1924 11.17 66.8497 11.17Z" fill="#F9D335"/>
<path d="M69.7896 13.56C70.4468 13.56 70.9796 13.0272 70.9796 12.37C70.9796 11.7128 70.4468 11.18 69.7896 11.18C69.1324 11.18 68.5996 11.7128 68.5996 12.37C68.5996 13.0272 69.1324 13.56 69.7896 13.56Z" fill="#F9D335"/>
<path d="M59.6698 4.14001C59.4398 4.14001 59.2298 4.30001 59.1798 4.54001L58.7298 6.71001C58.6698 6.98001 58.8498 7.25001 59.1198 7.30001C59.3898 7.36001 59.6598 7.18001 59.7098 6.91001L60.1698 4.74001C60.2298 4.47001 60.0498 4.20001 59.7798 4.15001C59.7398 4.14001 59.7098 4.14001 59.6698 4.14001Z" fill="#162330"/>
<path d="M64.1196 5.43C63.9596 5.45 63.8096 5.55 63.7296 5.71L62.7696 7.7C62.6496 7.95 62.7596 8.25 62.9996 8.37C63.2496 8.49 63.5496 8.39 63.6696 8.14L64.6296 6.15C64.7496 5.9 64.6396 5.6 64.3996 5.48C64.3096 5.43 64.2096 5.42 64.1196 5.43Z" fill="#162330"/>
<path d="M67.9399 7.53002C67.8699 7.57002 67.7999 7.62002 67.7499 7.70002L66.4099 9.75002C66.2599 9.98002 66.3199 10.29 66.5499 10.44C66.7799 10.59 67.0899 10.53 67.2399 10.3L68.5799 8.25002C68.7299 8.02002 68.6699 7.71002 68.4399 7.56002C68.2899 7.45002 68.0999 7.45002 67.9399 7.53002Z" fill="#162330"/>
<path d="M71.1597 10.2C71.1297 10.22 71.1097 10.24 71.0897 10.26L69.4197 12.02C69.2297 12.22 69.2397 12.54 69.4397 12.73C69.6397 12.92 69.9597 12.91 70.1497 12.71L71.8197 10.95C72.0097 10.75 71.9997 10.43 71.7997 10.24C71.6197 10.07 71.3497 10.06 71.1597 10.2Z" fill="#162330"/>
</g>
<defs>
<clipPath id="clip0_301_6133">
<rect width="77.73" height="26.58" fill="white" transform="translate(0.580078 0.710022)"/>
</clipPath>
</defs>
</svg>
