<svg width="77" height="20" viewBox="0 0 77 20" fill="none" xmlns="http://www.w3.org/2000/svg">
<g clip-path="url(#clip0_301_6035)">
<path d="M36.98 16.105V9.55497L13.98 0.534973C13.98 0.534973 0.71 4.95497 0 16.105H36.98Z" fill="#FC9E17"/>
<path d="M36.98 16.105H0V19.465H36.98V16.105Z" fill="#F1EDB9"/>
<path d="M11.5002 8.31499C12.7815 8.31499 13.8202 7.27629 13.8202 5.99499C13.8202 4.71369 12.7815 3.67499 11.5002 3.67499C10.2189 3.67499 9.18018 4.71369 9.18018 5.99499C9.18018 7.27629 10.2189 8.31499 11.5002 8.31499Z" fill="#162330"/>
<path d="M6.25994 12.385C7.54124 12.385 8.57994 11.3463 8.57994 10.065C8.57994 8.78369 7.54124 7.745 6.25994 7.745C4.97864 7.745 3.93994 8.78369 3.93994 10.065C3.93994 11.3463 4.97864 12.385 6.25994 12.385Z" fill="#162330"/>
<path d="M6.4599 10.265C6.4599 10.265 4.9399 8.765 3.3999 7.745" stroke="#FAFAFA" stroke-width="2" stroke-miterlimit="10" stroke-linecap="round"/>
<path d="M11.2802 5.99498C11.2802 5.99498 9.76021 4.49498 8.22021 3.47498" stroke="#FAFAFA" stroke-width="2" stroke-miterlimit="10" stroke-linecap="round"/>
<path d="M27.7098 10.745C27.4798 9.375 26.2898 8.315 24.8598 8.315C23.4198 8.315 22.2298 9.365 22.0098 10.745H27.7098Z" fill="#FBF6D1"/>
<path d="M27.7098 13.435C27.4798 12.065 26.2898 11.005 24.8598 11.005C23.4198 11.005 22.2298 12.055 22.0098 13.435H27.7098Z" fill="#FBF6D1"/>
<path d="M29.2998 12.865C29.5298 14.235 30.7198 15.295 32.1498 15.295C33.5898 15.295 34.7798 14.245 34.9998 12.865H29.2998Z" fill="#FBF6D1"/>
<path d="M29.2998 10.175C29.5298 11.545 30.7198 12.605 32.1498 12.605C33.5898 12.605 34.7798 11.555 34.9998 10.175H29.2998Z" fill="#FBF6D1"/>
<path d="M14.7002 10.435C14.9302 11.805 16.1202 12.865 17.5502 12.865C18.9902 12.865 20.1802 11.815 20.4002 10.435H14.7002Z" fill="#FBF6D1"/>
<path d="M39.5601 16.105V9.55497L62.5601 0.534973C62.5601 0.534973 75.8301 4.95497 76.5401 16.105H39.5601Z" fill="#FC9E17"/>
<path d="M39.5679 19.4723L76.5479 19.4723L76.5479 16.1123L39.5679 16.1123L39.5679 19.4723Z" fill="#F1EDB9"/>
<path d="M65.0402 8.31499C66.3215 8.31499 67.3602 7.27629 67.3602 5.99499C67.3602 4.71369 66.3215 3.67499 65.0402 3.67499C63.7589 3.67499 62.7202 4.71369 62.7202 5.99499C62.7202 7.27629 63.7589 8.31499 65.0402 8.31499Z" fill="#162330"/>
<path d="M70.2902 12.385C71.5715 12.385 72.6102 11.3463 72.6102 10.065C72.6102 8.78369 71.5715 7.745 70.2902 7.745C69.0089 7.745 67.9702 8.78369 67.9702 10.065C67.9702 11.3463 69.0089 12.385 70.2902 12.385Z" fill="#162330"/>
<path d="M70.0898 10.265C70.0898 10.265 71.6098 8.765 73.1498 7.745" stroke="#FAFAFA" stroke-width="2" stroke-miterlimit="10" stroke-linecap="round"/>
<path d="M65.2603 5.99498C65.2603 5.99498 66.7803 4.49498 68.3203 3.47498" stroke="#FAFAFA" stroke-width="2" stroke-miterlimit="10" stroke-linecap="round"/>
<path d="M48.8398 10.745C49.0698 9.375 50.2598 8.315 51.6898 8.315C53.1298 8.315 54.3198 9.365 54.5398 10.745H48.8398Z" fill="#FBF6D1"/>
<path d="M48.8398 13.435C49.0698 12.065 50.2598 11.005 51.6898 11.005C53.1298 11.005 54.3198 12.055 54.5398 13.435H48.8398Z" fill="#FBF6D1"/>
<path d="M47.2503 12.865C47.0203 14.235 45.8303 15.295 44.4003 15.295C42.9603 15.295 41.7703 14.245 41.5503 12.865H47.2503Z" fill="#FBF6D1"/>
<path d="M47.2503 10.175C47.0203 11.545 45.8303 12.605 44.4003 12.605C42.9603 12.605 41.7703 11.555 41.5503 10.175H47.2503Z" fill="#FBF6D1"/>
<path d="M61.8499 10.435C61.6199 11.805 60.4299 12.865 58.9999 12.865C57.5599 12.865 56.3699 11.815 56.1499 10.435H61.8499Z" fill="#FBF6D1"/>
</g>
<defs>
<clipPath id="clip0_301_6035">
<rect width="76.55" height="18.93" fill="white" transform="translate(0 0.534973)"/>
</clipPath>
</defs>
</svg>
