<svg width="96" height="22" viewBox="0 0 96 22" fill="none" xmlns="http://www.w3.org/2000/svg">
<g clip-path="url(#clip0_301_11942)">
<path d="M23.1704 8.385L45.7504 0.0650024V3.295L24.2904 10.515L23.1704 8.385Z" fill="#FC9221"/>
<path d="M28.7902 17.405L11.0402 18.785L6.7002 6.26502C7.1702 5.94502 7.8602 5.54502 8.7102 5.08502C9.0502 4.91502 9.4202 4.71502 9.8002 4.52502C10.5802 4.12502 11.4402 3.70502 12.3002 3.28502C12.6802 3.11502 13.0502 2.94502 13.4102 2.76502C14.3602 2.31502 15.2902 1.88502 16.1302 1.50502C16.5302 1.32502 16.9102 1.14502 17.2502 0.985022C18.4802 0.435022 19.2802 0.085022 19.2802 0.085022L28.7902 17.405Z" fill="#FBA33D"/>
<path d="M25.8101 16.795L24.6601 17.245L16.1201 1.50499C16.5201 1.32499 16.9001 1.14499 17.2401 0.984985L25.8101 16.795Z" fill="#E18A1D"/>
<path d="M21.21 17.155L20.07 17.605L12.29 3.28501C12.67 3.11501 13.04 2.94501 13.4 2.76501L21.21 17.155Z" fill="#E18A1D"/>
<path d="M17.0704 17.935L15.9204 18.385L8.71045 5.08502C9.05045 4.91502 9.42045 4.71502 9.80045 4.52502L17.0704 17.935Z" fill="#E18A1D"/>
<path d="M45.7502 14.375V21.935H0.240234V16.855L45.7502 14.375Z" fill="#111E2B"/>
<path d="M10.0804 18.825H7.69043V21.935H10.0804V18.825Z" fill="#414B55"/>
<path d="M28.1901 18.825H25.8101V21.935H28.1901V18.825Z" fill="#414B55"/>
<path d="M34.8104 18.825H32.4204V21.935H34.8104V18.825Z" fill="#414B55"/>
<path d="M41.42 18.825H39.04V21.935H41.42V18.825Z" fill="#414B55"/>
<path d="M72.8004 8.385L50.2104 0.0650024V3.295L71.6704 10.515L72.8004 8.385Z" fill="#FC9221"/>
<path d="M67.1704 17.405L84.9204 18.785L89.2704 6.26502C88.8004 5.94502 88.1104 5.54502 87.2604 5.08502C86.9204 4.91502 86.5504 4.71502 86.1704 4.52502C85.3904 4.12502 84.5304 3.70502 83.6704 3.28502C83.2904 3.11502 82.9204 2.94502 82.5604 2.76502C81.6104 2.31502 80.6804 1.88502 79.8404 1.50502C79.4404 1.32502 79.0604 1.14502 78.7204 0.985022C77.4904 0.435022 76.6904 0.085022 76.6904 0.085022L67.1704 17.405Z" fill="#FBA33D"/>
<path d="M70.1504 16.795L71.3004 17.245L79.8404 1.50499C79.4404 1.32499 79.0604 1.14499 78.7204 0.984985L70.1504 16.795Z" fill="#E18A1D"/>
<path d="M74.7505 17.155L75.8905 17.605L83.6705 3.28501C83.2905 3.11501 82.9205 2.94501 82.5605 2.76501L74.7505 17.155Z" fill="#E18A1D"/>
<path d="M78.8906 17.935L80.0406 18.385L87.2506 5.08502C86.9106 4.91502 86.5406 4.71502 86.1606 4.52502L78.8906 17.935Z" fill="#E18A1D"/>
<path d="M50.2104 14.375V21.935H95.7205V16.855L50.2104 14.375Z" fill="#111E2B"/>
<path d="M88.2704 18.825H85.8804V21.935H88.2704V18.825Z" fill="#414B55"/>
<path d="M70.1505 18.825H67.7705V21.935H70.1505V18.825Z" fill="#414B55"/>
<path d="M63.5404 18.825H61.1504V21.935H63.5404V18.825Z" fill="#414B55"/>
<path d="M56.9205 18.825H54.5405V21.935H56.9205V18.825Z" fill="#414B55"/>
</g>
<defs>
<clipPath id="clip0_301_11942">
<rect width="95.48" height="21.87" fill="white" transform="translate(0.240234 0.0650024)"/>
</clipPath>
</defs>
</svg>
