<svg width="106" height="38" viewBox="0 0 106 38" fill="none" xmlns="http://www.w3.org/2000/svg">
<g clip-path="url(#clip0_301_12060)">
<path d="M50.8298 4.92999V17.73C50.8298 17.73 50.8298 20.86 50.8298 23.54C50.8298 28.31 50.8298 33.91 50.8298 33.91H2.7998C2.7998 25.88 8.4898 21.28 14.2098 18.68C14.8698 18.38 15.5198 18.11 16.1698 17.86C18.0398 17.14 19.8398 16.62 21.3698 16.25C22.2198 16.04 22.9898 15.88 23.6298 15.76C24.7798 15.54 25.5598 15.44 25.7798 15.4V4.92999H50.8298Z" fill="#C62C3F"/>
<path d="M50.9597 5.61001H25.8997C24.6797 5.61001 23.6997 4.62001 23.6997 3.41001V3.02001C23.6997 1.80001 24.6897 0.820007 25.8997 0.820007H50.9597C52.1797 0.820007 53.1597 1.81001 53.1597 3.02001V3.40001C53.1597 4.62001 52.1797 5.61001 50.9597 5.61001Z" fill="#CFCDCF"/>
<path d="M51.5999 33.25H0.879883V37.18H51.5999V33.25Z" fill="#CFCDCF"/>
<path d="M21.5001 25.18C21.3101 25.36 21.0701 25.45 20.8301 25.45C20.5601 25.45 20.2901 25.34 20.0901 25.12L14.1201 18.58C14.7801 18.28 15.4301 18.01 16.0801 17.76L21.5701 23.77C21.9401 24.18 21.9101 24.81 21.5001 25.18Z" fill="#CFCDCF"/>
<path d="M29.9 24.01C29.71 24.19 29.46 24.28 29.22 24.28C28.95 24.28 28.68 24.17 28.49 23.96L21.21 16.11C22.06 15.9 22.83 15.74 23.47 15.62L29.95 22.6C30.33 23 30.3 23.64 29.9 24.01Z" fill="#CFCDCF"/>
<path d="M55.3599 4.92999V17.73C55.3599 17.73 55.3599 20.86 55.3599 23.54C55.3599 28.31 55.3599 33.91 55.3599 33.91H103.39C103.39 25.88 97.6999 21.28 91.9799 18.68C91.3199 18.38 90.6699 18.11 90.0199 17.86C88.1499 17.14 86.3499 16.62 84.8199 16.25C83.9699 16.04 83.1999 15.88 82.5599 15.76C81.4099 15.54 80.6299 15.44 80.4099 15.4V4.92999H55.3599Z" fill="#FB374F"/>
<path d="M55.2299 5.61001H80.2899C81.5099 5.61001 82.4899 4.62001 82.4899 3.41001V3.02001C82.4899 1.80001 81.4999 0.820007 80.2899 0.820007H55.2299C54.0099 0.820007 53.0299 1.81001 53.0299 3.02001V3.40001C53.0199 4.62001 54.0099 5.61001 55.2299 5.61001Z" fill="#FFF7FA"/>
<path d="M54.5866 37.1793L105.307 37.1793L105.307 33.2493L54.5866 33.2493L54.5866 37.1793Z" fill="#FFF7FA"/>
<path d="M84.69 25.18C84.88 25.36 85.12 25.45 85.36 25.45C85.63 25.45 85.9 25.34 86.1 25.12L92.07 18.58C91.41 18.28 90.76 18.01 90.11 17.76L84.62 23.77C84.25 24.18 84.28 24.81 84.69 25.18Z" fill="#FFF7FA"/>
<path d="M76.2899 24.01C76.4799 24.19 76.7299 24.28 76.9699 24.28C77.2399 24.28 77.5099 24.17 77.6999 23.96L84.9799 16.11C84.1299 15.9 83.3599 15.74 82.7199 15.62L76.2399 22.6C75.8599 23 75.8899 23.64 76.2899 24.01Z" fill="#FFF7FA"/>
</g>
<defs>
<clipPath id="clip0_301_12060">
<rect width="104.43" height="36.36" fill="white" transform="translate(0.879883 0.820007)"/>
</clipPath>
</defs>
</svg>
