<svg width="88" height="54" viewBox="0 0 88 54" fill="none" xmlns="http://www.w3.org/2000/svg">
<g clip-path="url(#clip0_301_12174)">
<path d="M42.78 53.185H29.26V50.245C28.73 50.165 27.88 50.265 26.94 50.455C25.89 50.655 24.74 50.945 23.75 51.225C22.31 51.625 21.2 51.995 21.2 51.995C10.67 54.985 0.22998 53.185 0.22998 53.185V47.035C0.22998 44.365 1.21998 42.045 2.67998 40.145C2.93998 39.805 3.22998 39.475 3.52998 39.155C4.44998 38.145 5.51998 37.285 6.59998 36.605C6.97998 36.365 7.35998 36.145 7.73998 35.945C7.79998 35.905 7.86998 35.875 7.92998 35.845C8.29998 35.655 8.67998 35.475 9.04998 35.305C9.58998 35.065 10.12 34.845 10.64 34.655L11.21 34.445V34.435C11.54 34.315 11.88 34.205 12.19 34.105C12.76 33.915 13.3 33.735 13.82 33.535H13.83C14.43 33.315 15 33.075 15.53 32.805C17.2 31.985 18.46 30.925 19.12 29.245C19.22 28.995 19.31 28.735 19.37 28.455C19.48 28.035 19.56 27.595 19.6 27.105C19.69 26.175 19.73 25.185 19.75 24.155C19.76 23.795 19.76 23.435 19.76 23.065C19.77 21.535 19.72 19.915 19.63 18.255C19.6 17.735 19.58 17.195 19.53 16.645C19.53 16.635 19.53 16.635 19.53 16.635C19.51 16.285 19.48 15.925 19.45 15.575C19.35 14.275 19.23 12.955 19.09 11.625C19.08 11.495 19.06 11.365 19.05 11.235C19.01 10.845 18.97 10.435 18.91 10.035C18.77 8.815 18.62 7.565 18.49 6.445V6.435C18.46 6.175 18.43 5.915 18.41 5.675C18.19 3.815 18.02 2.465 18.02 2.465C18.11 2.455 18.9 2.385 20.13 2.265C20.41 2.245 20.71 2.215 21.04 2.185C22.13 2.085 23.46 1.965 24.91 1.835C25.16 1.815 25.41 1.785 25.66 1.765C26.1 1.725 26.55 1.685 27.01 1.645C30.34 1.345 33.99 1.015 36.82 0.755002H36.83C39.7 0.495002 41.73 0.315002 41.73 0.315002C41.71 0.545002 41.7 1.175 41.69 2.095C41.69 2.325 41.69 2.585 41.68 2.865C41.68 3.145 41.67 3.435 41.67 3.745C41.66 5.025 41.64 6.595 41.63 8.315V9.015C41.62 10.065 41.61 11.175 41.6 12.305C41.6 12.765 41.59 13.225 41.59 13.685C41.58 15.745 41.57 17.855 41.56 19.855C41.56 20.555 41.56 21.245 41.55 21.915V22.205C41.55 22.505 41.55 22.805 41.54 23.095C41.54 23.635 41.54 24.155 41.53 24.655C41.54 24.975 41.53 25.295 41.53 25.595V25.605C41.52 27.245 41.52 28.585 41.52 29.475C41.51 29.855 41.51 30.185 41.51 30.435C41.51 30.555 41.51 30.625 41.51 30.625V30.635C41.51 30.885 41.51 31.015 41.51 31.015C41.86 32.195 42.13 33.465 42.33 34.805V34.815C42.4 35.275 42.46 35.745 42.52 36.215V36.225C42.57 36.615 42.62 36.995 42.65 37.395C42.86 39.375 42.97 41.395 43.02 43.305C43.02 43.495 43.02 43.685 43.03 43.865V43.895C43.12 49.025 42.78 53.185 42.78 53.185Z" fill="#19192D"/>
<path d="M39.5998 8.20502C40.721 8.20502 41.6298 7.29616 41.6298 6.17502C41.6298 5.05388 40.721 4.14502 39.5998 4.14502C38.4787 4.14502 37.5698 5.05388 37.5698 6.17502C37.5698 7.29616 38.4787 8.20502 39.5998 8.20502Z" fill="#DA2840"/>
<path d="M38.52 8.91503C37.65 8.57503 36.99 7.83503 36.75 6.91503C35.61 6.84503 34.46 7.34503 33.73 8.34503C32.6 9.89503 32.95 12.065 34.5 13.195C35.91 14.215 37.82 14.025 39.01 12.825C38.21 11.645 38.07 10.185 38.52 8.91503Z" fill="#FAEEEF"/>
<path d="M41.63 8.315V9.015C41.62 10.065 41.61 11.175 41.6 12.305C41.6 12.765 41.59 13.225 41.59 13.685C40.91 13.475 40.3 13.045 39.86 12.435C39.13 11.435 39.01 10.185 39.43 9.125C40.25 9.155 41.05 8.865 41.63 8.315Z" fill="#FAEEEF"/>
<path d="M41.7298 0.275024C41.7098 0.545024 41.6898 1.83502 41.6698 3.74502C41.6098 3.79502 41.5398 3.84502 41.4698 3.88502C40.7398 3.29502 39.7698 3.08502 38.8598 3.31502C38.5398 2.23502 37.7998 1.28502 36.7798 0.725024C39.6698 0.465024 41.7298 0.275024 41.7298 0.275024Z" fill="#FAEEEF"/>
<path d="M36.6598 5.995C36.7198 5.065 37.2198 4.205 38.0098 3.695C37.7198 2.585 36.8898 1.645 35.7198 1.265C33.8998 0.675001 31.9398 1.675 31.3398 3.495C30.7998 5.145 31.5698 6.915 33.0798 7.675C33.9698 6.535 35.3098 5.955 36.6598 5.995Z" fill="#FAEEEF"/>
<path d="M19.3701 28.455C19.4801 28.035 19.5001 27.585 19.5401 27.095C19.6301 26.165 19.7301 25.185 19.7501 24.155C19.7901 24.145 21.0101 26.535 19.3701 28.455Z" fill="#FAEEEF"/>
<path d="M19.6801 23.065C19.6901 21.535 19.6401 19.915 19.5501 18.255C19.5201 17.735 19.5001 17.195 19.4501 16.645C19.4501 16.635 19.4501 16.635 19.4501 16.635C19.4301 16.285 19.4001 15.925 19.3701 15.575C20.6401 15.875 21.7201 16.815 22.1601 18.145C22.8301 20.195 21.7201 22.395 19.6801 23.065Z" fill="#FAEEEF"/>
<path d="M41.5301 25.605C41.5201 27.245 41.5201 28.585 41.5201 29.475C41.3301 29.535 41.1301 29.565 40.9201 29.565C39.8001 29.565 38.8901 28.655 38.8901 27.545C38.8901 26.425 39.8001 25.515 40.9201 25.515C41.1301 25.515 41.3401 25.545 41.5301 25.605Z" fill="#0FC8EF"/>
<path d="M39.8403 30.285C38.9703 29.945 38.3103 29.205 38.0703 28.285C36.9303 28.215 35.7803 28.715 35.0503 29.715C33.9203 31.265 34.2703 33.435 35.8203 34.565C37.2303 35.585 39.1403 35.395 40.3303 34.195C39.5303 33.005 39.3903 31.555 39.8403 30.285Z" fill="#EF3D5A"/>
<path d="M42.3903 34.8451C41.9203 34.6051 41.5103 34.2551 41.1803 33.7951C40.4503 32.8051 40.3403 31.5451 40.7503 30.4851C41.0103 30.5051 41.2603 30.4851 41.5103 30.4351C41.5103 30.5551 41.5103 30.6251 41.5103 30.6251C41.8903 31.9251 42.1803 33.3551 42.3903 34.8451Z" fill="#EF3D5A"/>
<path d="M41.5602 18.915C41.5602 19.945 41.5602 20.945 41.5502 21.915C41.5402 22.885 41.5402 23.805 41.5302 24.655C41.0902 24.565 40.6302 24.575 40.1802 24.685C39.8002 23.395 38.8302 22.295 37.4902 21.805C37.7402 20.135 39.1802 18.855 40.9202 18.855C41.1402 18.855 41.3502 18.875 41.5602 18.915Z" fill="#EF3D5A"/>
<path d="M37.9801 27.355C38.0401 26.425 38.5401 25.565 39.3301 25.055C39.0401 23.945 38.2101 23.005 37.0401 22.625C35.2201 22.035 33.2601 23.035 32.6601 24.855C32.1201 26.505 32.8901 28.275 34.4001 29.035C35.2901 27.905 36.6301 27.325 37.9801 27.355Z" fill="#EF3D5A"/>
<path d="M8.24979 38.865C8.24979 40.165 7.17979 41.225 5.86979 41.225C4.65979 41.225 3.66979 40.325 3.52979 39.155C4.44979 38.145 5.51979 37.285 6.59979 36.605C7.55978 36.905 8.24979 37.805 8.24979 38.865Z" fill="#0FC8EF"/>
<path d="M5.17998 46.655C3.87998 47.975 1.83998 48.245 0.22998 47.285V47.035C0.22998 44.365 1.21998 42.045 2.67998 40.145C3.02998 41.025 3.71998 41.725 4.60998 42.075C4.07998 43.555 4.24998 45.255 5.17998 46.655Z" fill="#FAEEEF"/>
<path d="M8.53979 41.0551C7.84979 41.8951 6.77979 42.3751 5.67979 42.3051C5.18979 43.5551 5.32979 45.0151 6.16979 46.1751C7.48979 47.9951 10.0298 48.3951 11.8498 47.0751C13.4998 45.8751 13.9798 43.6751 13.0698 41.9251C11.4598 42.3851 9.78979 42.0151 8.53979 41.0551Z" fill="#FAEEEF"/>
<path d="M12.93 40.845C11.56 41.285 10.13 40.965 9.09004 40.115C9.50004 39.085 9.37004 37.935 8.79004 37.005C9.62004 36.425 10.28 35.615 10.64 34.655L11.21 34.445V34.435C11.54 34.315 11.88 34.205 12.19 34.105C12.76 33.915 13.3 33.735 13.82 33.535H13.83C14.6 34.025 15.23 34.785 15.54 35.725C16.23 37.865 15.07 40.155 12.93 40.845Z" fill="#FAEEEF"/>
<path d="M9.04975 35.3051C8.76975 35.6551 8.44975 35.9451 8.06975 36.1851C7.96975 36.0951 7.85975 36.0151 7.73975 35.9451C7.79975 35.9051 7.86975 35.8751 7.92975 35.8451C8.29975 35.6551 8.67975 35.4751 9.04975 35.3051Z" fill="#FAEEEF"/>
<path d="M36.0397 44.775C36.9068 44.775 37.6097 44.0721 37.6097 43.205C37.6097 42.3379 36.9068 41.635 36.0397 41.635C35.1726 41.635 34.4697 42.3379 34.4697 43.205C34.4697 44.0721 35.1726 44.775 36.0397 44.775Z" fill="#FAEEEF"/>
<path d="M35.1896 45.335C34.5196 45.065 33.9996 44.495 33.8096 43.785C32.9196 43.735 32.0296 44.115 31.4696 44.895C30.5896 46.105 30.8596 47.785 32.0696 48.665C33.1596 49.455 34.6496 49.315 35.5796 48.385C34.9496 47.455 34.8496 46.325 35.1896 45.335Z" fill="#EF3D5A"/>
<path d="M37.7997 44.665C37.3397 45.225 36.6297 45.535 35.8997 45.495C35.5797 46.325 35.6697 47.295 36.2297 48.065C37.1097 49.275 38.7897 49.535 39.9997 48.665C41.0897 47.875 41.4197 46.405 40.8097 45.245C39.7397 45.545 38.6297 45.305 37.7997 44.665Z" fill="#EF3D5A"/>
<path d="M37.9697 41.975C38.3597 42.585 38.4397 43.355 38.1697 44.045C38.8597 44.605 39.8097 44.825 40.7197 44.525C42.1397 44.065 42.9097 42.545 42.4497 41.125C42.0297 39.835 40.7397 39.085 39.4497 39.295C39.4097 40.405 38.8297 41.385 37.9697 41.975Z" fill="#EF3D5A"/>
<path d="M35.4596 40.985C36.1596 40.805 36.9196 40.965 37.4896 41.425C38.2396 40.945 38.7396 40.105 38.7396 39.155C38.7396 37.665 37.5296 36.455 36.0396 36.455C34.6896 36.455 33.5696 37.445 33.3696 38.745C34.4096 39.135 35.1596 39.985 35.4596 40.985Z" fill="#EF3D5A"/>
<path d="M33.7498 43.065C33.7998 42.345 34.1798 41.675 34.7998 41.275C34.5798 40.415 33.9298 39.685 33.0198 39.385C31.5998 38.925 30.0798 39.705 29.6198 41.115C29.1998 42.405 29.7998 43.775 30.9698 44.365C31.6598 43.495 32.6998 43.035 33.7498 43.065Z" fill="#EF3D5A"/>
<path d="M23.3899 36.405C24.4889 36.405 25.3799 35.5141 25.3799 34.415C25.3799 33.316 24.4889 32.425 23.3899 32.425C22.2909 32.425 21.3999 33.316 21.3999 34.415C21.3999 35.5141 22.2909 36.405 23.3899 36.405Z" fill="#EF3D5A"/>
<path d="M21.9999 36.965C21.1999 36.525 20.6299 35.725 20.5099 34.805C19.3999 34.605 18.2199 34.955 17.3999 35.835C16.1099 37.215 16.1899 39.375 17.5699 40.655C18.8199 41.825 20.7099 41.865 22.0099 40.835C21.3799 39.585 21.4199 38.155 21.9999 36.965Z" fill="#0FC8EF"/>
<path d="M25.38 36.525C24.71 37.155 23.78 37.445 22.87 37.275C22.34 38.265 22.3 39.495 22.89 40.555C23.8 42.205 25.88 42.795 27.53 41.885C29.02 41.055 29.65 39.275 29.08 37.715C27.68 37.925 26.33 37.445 25.38 36.525Z" fill="#0FC8EF"/>
<path d="M25.9999 33.175C26.3899 34.005 26.3799 34.985 25.9399 35.795C26.7199 36.605 27.8799 37.025 29.0599 36.795C30.9099 36.435 32.1199 34.645 31.7599 32.795C31.4299 31.115 29.9299 29.965 28.2699 30.035C28.0499 31.415 27.1799 32.555 25.9999 33.175Z" fill="#0FC8EF"/>
<path d="M23.01 31.545C23.92 31.425 24.85 31.745 25.49 32.415C26.5 31.925 27.26 30.955 27.4 29.755C27.63 27.885 26.3 26.185 24.43 25.955C22.73 25.745 21.18 26.825 20.73 28.415C21.98 29.055 22.79 30.235 23.01 31.545Z" fill="#0FC8EF"/>
<path d="M22.1399 31.815C21.2899 32.215 20.7099 32.985 20.5399 33.885C19.2299 33.695 17.8599 34.105 16.8499 35.095C16.1399 34.615 15.5899 33.615 15.3799 32.825C17.4399 31.695 18.6599 30.825 19.3199 28.895C19.6199 28.935 19.8899 29.025 20.1799 29.165C21.2899 29.665 21.9799 30.685 22.1399 31.815Z" fill="#0FC8EF"/>
<path d="M29.1301 19.215C29.9971 19.215 30.7001 18.5121 30.7001 17.645C30.7001 16.7779 29.9971 16.075 29.1301 16.075C28.263 16.075 27.5601 16.7779 27.5601 17.645C27.5601 18.5121 28.263 19.215 29.1301 19.215Z" fill="#FAEEEF"/>
<path d="M28.2902 19.785C27.6202 19.515 27.1002 18.945 26.9102 18.235C26.0202 18.185 25.1302 18.565 24.5702 19.345C23.6902 20.555 23.9602 22.235 25.1702 23.115C26.2602 23.905 27.7502 23.765 28.6802 22.835C28.0502 21.895 27.9402 20.765 28.2902 19.785Z" fill="#EF3D5A"/>
<path d="M30.9003 19.105C30.4403 19.665 29.7303 19.975 29.0003 19.935C28.6803 20.765 28.7703 21.735 29.3303 22.505C30.2103 23.715 31.8903 23.975 33.1003 23.105C34.1903 22.315 34.5203 20.845 33.9103 19.685C32.8403 19.995 31.7303 19.745 30.9003 19.105Z" fill="#EF3D5A"/>
<path d="M31.0601 16.415C31.4501 17.025 31.5301 17.795 31.2601 18.485C31.9501 19.045 32.9001 19.265 33.8101 18.965C35.2301 18.505 36.0001 16.985 35.5401 15.565C35.1201 14.275 33.8301 13.525 32.5401 13.735C32.5001 14.845 31.9201 15.825 31.0601 16.415Z" fill="#EF3D5A"/>
<path d="M28.55 15.425C29.25 15.245 30.01 15.405 30.58 15.865C31.33 15.385 31.83 14.545 31.83 13.595C31.83 12.105 30.62 10.895 29.13 10.895C27.78 10.895 26.66 11.885 26.46 13.185C27.5 13.575 28.26 14.425 28.55 15.425Z" fill="#EF3D5A"/>
<path d="M26.8401 17.505C26.8901 16.785 27.2701 16.115 27.8901 15.715C27.6701 14.855 27.0201 14.125 26.1101 13.825C24.6901 13.365 23.1701 14.145 22.7101 15.555C22.2901 16.845 22.8901 18.215 24.0601 18.805C24.7501 17.935 25.7901 17.485 26.8401 17.505Z" fill="#EF3D5A"/>
<path d="M22.1698 7.175C23.0645 7.175 23.7898 6.4497 23.7898 5.555C23.7898 4.6603 23.0645 3.935 22.1698 3.935C21.2751 3.935 20.5498 4.6603 20.5498 5.555C20.5498 6.4497 21.2751 7.175 22.1698 7.175Z" fill="#FAEEEF"/>
<path d="M21.6902 10.885C21.0002 11.575 20.0102 11.855 19.0902 11.625C19.0802 11.495 19.0602 11.365 19.0502 11.235C19.0102 10.845 18.9702 10.435 18.9102 10.035C18.7702 8.815 18.6202 7.565 18.4902 6.445V6.435C18.9202 6.225 19.4002 6.135 19.8802 6.155C20.0802 6.885 20.6102 7.475 21.3002 7.755C20.9402 8.765 21.0502 9.925 21.6902 10.885Z" fill="#0FC8EF"/>
<path d="M23.9903 7.05499C23.5203 7.62499 22.7903 7.95499 22.0303 7.91499C21.7003 8.76499 21.7903 9.76499 22.3703 10.565C23.2703 11.805 25.0103 12.085 26.2503 11.175C27.3703 10.355 27.7103 8.85499 27.0903 7.65499C25.9803 7.96499 24.8403 7.71499 23.9903 7.05499Z" fill="#0FC8EF"/>
<path d="M26.9902 6.91502C26.0502 7.21502 25.0802 6.99502 24.3702 6.41502C24.6402 5.71502 24.5602 4.92502 24.1602 4.29502C24.9802 3.72502 25.5602 2.81502 25.6602 1.76502C26.1002 1.72502 26.5502 1.68502 27.0102 1.64502C27.8202 1.91502 28.4902 2.54502 28.7702 3.41502C29.2402 4.87502 28.4502 6.43502 26.9902 6.91502Z" fill="#0FC8EF"/>
<path d="M24.91 1.83502C24.78 2.63502 24.32 3.31502 23.67 3.73502C23.08 3.25502 22.3 3.08502 21.58 3.27502C21.46 2.88502 21.28 2.50502 21.04 2.18502C22.13 2.08502 23.46 1.96502 24.91 1.83502Z" fill="#0FC8EF"/>
<path d="M20.9 3.57501C20.26 3.98501 19.86 4.67501 19.82 5.41501C19.34 5.40501 18.86 5.48501 18.41 5.67501C18.19 3.81501 18.02 2.46501 18.02 2.46501C18.11 2.45501 18.9 2.38501 20.13 2.26501C20.5 2.62501 20.76 3.08501 20.9 3.57501Z" fill="#0FC8EF"/>
<path d="M45.3799 53.185H58.8999V50.245C59.4299 50.165 60.2799 50.265 61.2199 50.455C62.2699 50.655 63.4199 50.945 64.4099 51.225C65.8499 51.625 66.9599 51.995 66.9599 51.995C77.4899 54.985 87.9299 53.185 87.9299 53.185V47.035C87.9299 44.365 86.9399 42.045 85.4799 40.145C85.2199 39.805 84.9299 39.475 84.6299 39.155C83.7099 38.145 82.6399 37.285 81.5599 36.605C81.1799 36.365 80.7999 36.145 80.4199 35.945C80.3599 35.905 80.2899 35.875 80.2299 35.845C79.8599 35.655 79.4799 35.475 79.1099 35.305C78.5699 35.065 78.0399 34.845 77.5199 34.655L76.9499 34.445V34.435C76.6199 34.315 76.2799 34.205 75.9699 34.105C75.3999 33.915 74.8599 33.735 74.3399 33.535H74.3299C73.7299 33.315 73.1599 33.075 72.6299 32.805C70.9599 31.985 69.6999 30.925 69.0399 29.245C68.9399 28.995 68.8499 28.735 68.7899 28.455C68.6799 28.035 68.5999 27.595 68.5599 27.105C68.4699 26.175 68.4299 25.185 68.4099 24.155C68.3999 23.795 68.3999 23.435 68.3999 23.065C68.3899 21.535 68.4399 19.915 68.5299 18.255C68.5599 17.735 68.5799 17.195 68.6299 16.645C68.6299 16.635 68.6299 16.635 68.6299 16.635C68.6499 16.285 68.6799 15.925 68.7099 15.575C68.8099 14.275 68.9299 12.955 69.0699 11.625C69.0799 11.495 69.0999 11.365 69.1099 11.235C69.1499 10.845 69.1899 10.435 69.2499 10.035C69.3899 8.815 69.5399 7.565 69.6699 6.445V6.435C69.6999 6.175 69.7299 5.915 69.7499 5.675C69.9699 3.815 70.1399 2.465 70.1399 2.465C70.0499 2.455 69.2599 2.385 68.0299 2.265C67.7499 2.245 67.4499 2.215 67.1199 2.185C66.0299 2.085 64.6999 1.965 63.2499 1.835C62.9999 1.815 62.7499 1.785 62.4999 1.765C62.0599 1.725 61.6099 1.685 61.1499 1.645C57.8199 1.345 54.1699 1.015 51.3399 0.755002H51.3299C48.4599 0.495002 46.4299 0.315002 46.4299 0.315002C46.4499 0.545002 46.4599 1.175 46.4699 2.095C46.4699 2.325 46.4699 2.585 46.4799 2.865C46.4799 3.145 46.4899 3.435 46.4899 3.745C46.4999 5.025 46.5199 6.595 46.5299 8.315V9.015C46.5399 10.065 46.5499 11.175 46.5599 12.305C46.5599 12.765 46.5699 13.225 46.5699 13.685C46.5799 15.745 46.5899 17.855 46.5999 19.855C46.5999 20.555 46.5999 21.245 46.6099 21.915V22.205C46.6099 22.505 46.6099 22.805 46.6199 23.095C46.6199 23.635 46.6199 24.155 46.6299 24.655C46.6199 24.975 46.6299 25.295 46.6299 25.595V25.605C46.6399 27.245 46.6399 28.585 46.6399 29.475C46.6499 29.855 46.6499 30.185 46.6499 30.435C46.6499 30.555 46.6499 30.625 46.6499 30.625V30.635C46.6499 30.885 46.6499 31.015 46.6499 31.015C46.2999 32.195 46.0299 33.465 45.8299 34.805V34.815C45.7599 35.275 45.6999 35.745 45.6399 36.215V36.225C45.5899 36.615 45.5399 36.995 45.5099 37.395C45.2999 39.375 45.1899 41.395 45.1399 43.305C45.1399 43.495 45.1399 43.685 45.1299 43.865V43.895C45.0399 49.025 45.3799 53.185 45.3799 53.185Z" fill="#19192D"/>
<path d="M48.5598 8.20502C49.6809 8.20502 50.5898 7.29616 50.5898 6.17502C50.5898 5.05388 49.6809 4.14502 48.5598 4.14502C47.4386 4.14502 46.5298 5.05388 46.5298 6.17502C46.5298 7.29616 47.4386 8.20502 48.5598 8.20502Z" fill="#DA2840"/>
<path d="M49.6399 8.91503C50.5099 8.57503 51.1699 7.83503 51.4099 6.91503C52.5499 6.84503 53.6999 7.34503 54.4299 8.34503C55.5599 9.89503 55.2099 12.065 53.6599 13.195C52.2499 14.215 50.3399 14.025 49.1499 12.825C49.9499 11.645 50.0899 10.185 49.6399 8.91503Z" fill="#FAEEEF"/>
<path d="M46.5298 8.315V9.015C46.5398 10.065 46.5498 11.175 46.5598 12.305C46.5598 12.765 46.5698 13.225 46.5698 13.685C47.2498 13.475 47.8598 13.045 48.2998 12.435C49.0298 11.435 49.1498 10.185 48.7298 9.125C47.9098 9.155 47.1098 8.865 46.5298 8.315Z" fill="#FAEEEF"/>
<path d="M46.4297 0.275024C46.4497 0.545024 46.4697 1.83502 46.4897 3.74502C46.5497 3.79502 46.6197 3.84502 46.6897 3.88502C47.4197 3.29502 48.3897 3.08502 49.2997 3.31502C49.6197 2.23502 50.3597 1.28502 51.3797 0.725024C48.4897 0.465024 46.4297 0.275024 46.4297 0.275024Z" fill="#FAEEEF"/>
<path d="M51.4999 5.995C51.4399 5.065 50.9399 4.205 50.1499 3.695C50.4399 2.585 51.2699 1.645 52.4399 1.265C54.2599 0.675001 56.2199 1.675 56.8199 3.495C57.3599 5.145 56.5899 6.915 55.0799 7.675C54.1899 6.535 52.8499 5.955 51.4999 5.995Z" fill="#FAEEEF"/>
<path d="M68.7897 28.455C68.6797 28.035 68.6597 27.585 68.6197 27.095C68.5297 26.165 68.4297 25.185 68.4097 24.155C68.3697 24.145 67.1397 26.535 68.7897 28.455Z" fill="#FAEEEF"/>
<path d="M68.4799 23.065C68.4699 21.535 68.5199 19.915 68.6099 18.255C68.6399 17.735 68.6599 17.195 68.7099 16.645C68.7099 16.635 68.7099 16.635 68.7099 16.635C68.7299 16.285 68.7599 15.925 68.7899 15.575C67.5199 15.875 66.4399 16.815 65.9999 18.145C65.3299 20.195 66.4399 22.395 68.4799 23.065Z" fill="#FAEEEF"/>
<path d="M46.6294 25.605C46.6394 27.245 46.6394 28.585 46.6394 29.475C46.8294 29.535 47.0294 29.565 47.2394 29.565C48.3594 29.565 49.2694 28.655 49.2694 27.545C49.2694 26.425 48.3594 25.515 47.2394 25.515C47.0294 25.515 46.8194 25.545 46.6294 25.605Z" fill="#0FC8EF"/>
<path d="M48.3196 30.285C49.1896 29.945 49.8496 29.205 50.0896 28.285C51.2296 28.215 52.3796 28.715 53.1096 29.715C54.2396 31.265 53.8896 33.435 52.3396 34.565C50.9296 35.585 49.0196 35.395 47.8296 34.195C48.6296 33.005 48.7696 31.555 48.3196 30.285Z" fill="#EF3D5A"/>
<path d="M45.7695 34.8451C46.2395 34.6051 46.6495 34.2551 46.9795 33.7951C47.7095 32.8051 47.8195 31.5451 47.4095 30.4851C47.1495 30.5051 46.8995 30.4851 46.6495 30.4351C46.6495 30.5551 46.6495 30.6251 46.6495 30.6251C46.2695 31.9251 45.9795 33.3551 45.7695 34.8451Z" fill="#EF3D5A"/>
<path d="M46.5996 18.915C46.5996 19.945 46.5996 20.945 46.6096 21.915C46.6196 22.885 46.6196 23.805 46.6296 24.655C47.0696 24.565 47.5296 24.575 47.9796 24.685C48.3596 23.395 49.3296 22.295 50.6696 21.805C50.4196 20.135 48.9796 18.855 47.2396 18.855C47.0196 18.855 46.8096 18.875 46.5996 18.915Z" fill="#EF3D5A"/>
<path d="M50.1796 27.355C50.1196 26.425 49.6196 25.565 48.8296 25.055C49.1196 23.945 49.9496 23.005 51.1196 22.625C52.9396 22.035 54.8996 23.035 55.4996 24.855C56.0396 26.505 55.2696 28.275 53.7596 29.035C52.8696 27.905 51.5296 27.325 50.1796 27.355Z" fill="#EF3D5A"/>
<path d="M79.9102 38.865C79.9102 40.165 80.9802 41.225 82.2902 41.225C83.5002 41.225 84.4902 40.325 84.6302 39.155C83.7102 38.145 82.6402 37.285 81.5602 36.605C80.6002 36.905 79.9102 37.805 79.9102 38.865Z" fill="#0FC8EF"/>
<path d="M82.98 46.655C84.28 47.975 86.32 48.245 87.93 47.285V47.035C87.93 44.365 86.94 42.045 85.48 40.145C85.13 41.025 84.44 41.725 83.55 42.075C84.08 43.555 83.91 45.255 82.98 46.655Z" fill="#FAEEEF"/>
<path d="M79.6201 41.0551C80.3101 41.8951 81.3801 42.3751 82.4801 42.3051C82.9701 43.5551 82.8301 45.0151 81.9901 46.1751C80.6701 47.9951 78.1301 48.3951 76.3101 47.0751C74.6601 45.8751 74.1801 43.6751 75.0901 41.9251C76.7001 42.3851 78.3701 42.0151 79.6201 41.0551Z" fill="#FAEEEF"/>
<path d="M75.23 40.845C76.6 41.285 78.03 40.965 79.07 40.115C78.66 39.085 78.79 37.935 79.37 37.005C78.54 36.425 77.88 35.615 77.52 34.655L76.95 34.445V34.435C76.62 34.315 76.28 34.205 75.97 34.105C75.4 33.915 74.86 33.735 74.34 33.535H74.33C73.56 34.025 72.93 34.785 72.62 35.725C71.93 37.865 73.09 40.155 75.23 40.845Z" fill="#FAEEEF"/>
<path d="M79.1099 35.3051C79.3899 35.6551 79.7099 35.9451 80.0899 36.1851C80.1899 36.0951 80.2999 36.0151 80.4199 35.9451C80.3599 35.9051 80.2899 35.8751 80.2299 35.8451C79.8599 35.6551 79.4799 35.4751 79.1099 35.3051Z" fill="#FAEEEF"/>
<path d="M52.1198 44.775C52.9869 44.775 53.6898 44.0721 53.6898 43.205C53.6898 42.3379 52.9869 41.635 52.1198 41.635C51.2527 41.635 50.5498 42.3379 50.5498 43.205C50.5498 44.0721 51.2527 44.775 52.1198 44.775Z" fill="#FAEEEF"/>
<path d="M52.9598 45.335C53.6298 45.065 54.1498 44.495 54.3398 43.785C55.2298 43.735 56.1198 44.115 56.6798 44.895C57.5598 46.105 57.2898 47.785 56.0798 48.665C54.9898 49.455 53.4998 49.315 52.5698 48.385C53.1998 47.455 53.3098 46.325 52.9598 45.335Z" fill="#EF3D5A"/>
<path d="M50.35 44.665C50.81 45.225 51.52 45.535 52.25 45.495C52.57 46.325 52.48 47.295 51.92 48.065C51.04 49.275 49.36 49.535 48.15 48.665C47.06 47.875 46.73 46.405 47.34 45.245C48.41 45.545 49.52 45.305 50.35 44.665Z" fill="#EF3D5A"/>
<path d="M50.1898 41.975C49.7998 42.585 49.7198 43.355 49.9898 44.045C49.2998 44.605 48.3498 44.825 47.4398 44.525C46.0198 44.065 45.2498 42.545 45.7098 41.125C46.1298 39.835 47.4198 39.085 48.7098 39.295C48.7498 40.405 49.3298 41.385 50.1898 41.975Z" fill="#EF3D5A"/>
<path d="M52.6999 40.985C51.9999 40.805 51.2399 40.965 50.6699 41.425C49.9199 40.945 49.4199 40.105 49.4199 39.155C49.4199 37.665 50.6299 36.455 52.1199 36.455C53.4699 36.455 54.5899 37.445 54.7899 38.745C53.7499 39.135 52.9899 39.985 52.6999 40.985Z" fill="#EF3D5A"/>
<path d="M54.4099 43.065C54.3599 42.345 53.9799 41.675 53.3599 41.275C53.5799 40.415 54.2299 39.685 55.1399 39.385C56.5599 38.925 58.0799 39.705 58.5399 41.115C58.9599 42.405 58.3599 43.775 57.1899 44.365C56.4999 43.495 55.4599 43.035 54.4099 43.065Z" fill="#EF3D5A"/>
<path d="M64.7698 36.405C65.8688 36.405 66.7598 35.5141 66.7598 34.415C66.7598 33.316 65.8688 32.425 64.7698 32.425C63.6707 32.425 62.7798 33.316 62.7798 34.415C62.7798 35.5141 63.6707 36.405 64.7698 36.405Z" fill="#EF3D5A"/>
<path d="M66.1496 36.965C66.9496 36.525 67.5196 35.725 67.6396 34.805C68.7496 34.605 69.9296 34.955 70.7496 35.835C72.0396 37.215 71.9596 39.375 70.5796 40.655C69.3296 41.825 67.4396 41.865 66.1396 40.835C66.7796 39.585 66.7396 38.155 66.1496 36.965Z" fill="#0FC8EF"/>
<path d="M62.7697 36.525C63.4397 37.155 64.3697 37.445 65.2797 37.275C65.8097 38.265 65.8497 39.495 65.2597 40.555C64.3497 42.205 62.2697 42.795 60.6197 41.885C59.1297 41.055 58.4997 39.275 59.0697 37.715C60.4797 37.925 61.8297 37.445 62.7697 36.525Z" fill="#0FC8EF"/>
<path d="M62.1496 33.175C61.7596 34.005 61.7696 34.985 62.2096 35.795C61.4296 36.605 60.2696 37.025 59.0896 36.795C57.2396 36.435 56.0296 34.645 56.3896 32.795C56.7196 31.115 58.2196 29.965 59.8796 30.035C60.0996 31.415 60.9796 32.555 62.1496 33.175Z" fill="#0FC8EF"/>
<path d="M65.1497 31.545C64.2397 31.425 63.3097 31.745 62.6697 32.415C61.6597 31.925 60.8997 30.955 60.7597 29.755C60.5297 27.885 61.8597 26.185 63.7297 25.955C65.4297 25.745 66.9797 26.825 67.4297 28.415C66.1797 29.055 65.3697 30.235 65.1497 31.545Z" fill="#0FC8EF"/>
<path d="M66.0195 31.815C66.8695 32.215 67.4495 32.985 67.6195 33.885C68.9295 33.695 70.2995 34.105 71.3095 35.095C72.0195 34.615 72.5695 33.615 72.7795 32.825C70.7195 31.695 69.4995 30.825 68.8395 28.895C68.5395 28.935 68.2695 29.025 67.9795 29.165C66.8695 29.665 66.1795 30.685 66.0195 31.815Z" fill="#0FC8EF"/>
<path d="M59.03 19.215C59.897 19.215 60.6 18.5121 60.6 17.645C60.6 16.7779 59.897 16.075 59.03 16.075C58.1629 16.075 57.46 16.7779 57.46 17.645C57.46 18.5121 58.1629 19.215 59.03 19.215Z" fill="#FAEEEF"/>
<path d="M59.87 19.785C60.54 19.515 61.06 18.945 61.25 18.235C62.14 18.185 63.03 18.565 63.59 19.345C64.47 20.555 64.2 22.235 62.99 23.115C61.9 23.905 60.41 23.765 59.48 22.835C60.11 21.895 60.22 20.765 59.87 19.785Z" fill="#EF3D5A"/>
<path d="M57.2601 19.105C57.7201 19.665 58.4301 19.975 59.1601 19.935C59.4801 20.765 59.3901 21.735 58.8301 22.505C57.9501 23.715 56.2701 23.975 55.0601 23.105C53.9701 22.315 53.6401 20.845 54.2501 19.685C55.3201 19.995 56.4301 19.745 57.2601 19.105Z" fill="#EF3D5A"/>
<path d="M57.0999 16.415C56.7099 17.025 56.6299 17.795 56.8999 18.485C56.2099 19.045 55.2599 19.265 54.3499 18.965C52.9299 18.505 52.1599 16.985 52.6199 15.565C53.0399 14.275 54.3299 13.525 55.6199 13.735C55.6599 14.845 56.2299 15.825 57.0999 16.415Z" fill="#EF3D5A"/>
<path d="M59.5998 15.425C58.8998 15.245 58.1398 15.405 57.5698 15.865C56.8198 15.385 56.3198 14.545 56.3198 13.595C56.3198 12.105 57.5298 10.895 59.0198 10.895C60.3698 10.895 61.4898 11.885 61.6898 13.185C60.6498 13.575 59.8998 14.425 59.5998 15.425Z" fill="#EF3D5A"/>
<path d="M61.32 17.505C61.27 16.785 60.89 16.115 60.27 15.715C60.49 14.855 61.14 14.125 62.05 13.825C63.47 13.365 64.99 14.145 65.45 15.555C65.87 16.845 65.27 18.215 64.1 18.805C63.41 17.935 62.36 17.485 61.32 17.505Z" fill="#EF3D5A"/>
<path d="M65.9901 7.175C66.8848 7.175 67.6101 6.4497 67.6101 5.555C67.6101 4.6603 66.8848 3.935 65.9901 3.935C65.0954 3.935 64.3701 4.6603 64.3701 5.555C64.3701 6.4497 65.0954 7.175 65.9901 7.175Z" fill="#FAEEEF"/>
<path d="M66.4702 10.885C67.1602 11.575 68.1502 11.855 69.0702 11.625C69.0802 11.495 69.1002 11.365 69.1102 11.235C69.1502 10.845 69.1902 10.435 69.2502 10.035C69.3902 8.815 69.5402 7.565 69.6702 6.445V6.435C69.2402 6.225 68.7602 6.135 68.2802 6.155C68.0802 6.885 67.5502 7.475 66.8602 7.755C67.2202 8.765 67.1102 9.925 66.4702 10.885Z" fill="#0FC8EF"/>
<path d="M64.1698 7.05499C64.6398 7.62499 65.3699 7.95499 66.1299 7.91499C66.4599 8.76499 66.3698 9.76499 65.7898 10.565C64.8898 11.805 63.1499 12.085 61.9099 11.175C60.7899 10.355 60.4499 8.85499 61.0699 7.65499C62.1699 7.96499 63.3098 7.71499 64.1698 7.05499Z" fill="#0FC8EF"/>
<path d="M61.17 6.91502C62.11 7.21502 63.08 6.99502 63.79 6.41502C63.52 5.71502 63.6 4.92502 64 4.29502C63.18 3.72502 62.6 2.81502 62.5 1.76502C62.06 1.72502 61.61 1.68502 61.15 1.64502C60.34 1.91502 59.67 2.54502 59.39 3.41502C58.92 4.87502 59.71 6.43502 61.17 6.91502Z" fill="#0FC8EF"/>
<path d="M63.25 1.83502C63.38 2.63502 63.84 3.31502 64.49 3.73502C65.08 3.25502 65.86 3.08502 66.58 3.27502C66.7 2.88502 66.88 2.50502 67.12 2.18502C66.03 2.08502 64.7 1.96502 63.25 1.83502Z" fill="#0FC8EF"/>
<path d="M67.2598 3.57501C67.8998 3.98501 68.2998 4.67501 68.3398 5.41501C68.8198 5.40501 69.2998 5.48501 69.7498 5.67501C69.9698 3.81501 70.1398 2.46501 70.1398 2.46501C70.0498 2.45501 69.2598 2.38501 68.0298 2.26501C67.6598 2.62501 67.3998 3.08501 67.2598 3.57501Z" fill="#0FC8EF"/>
</g>
<defs>
<clipPath id="clip0_301_12174">
<rect width="87.7" height="53.45" fill="white" transform="translate(0.22998 0.275024)"/>
</clipPath>
</defs>
</svg>
