<svg width="86" height="22" viewBox="0 0 86 22" fill="none" xmlns="http://www.w3.org/2000/svg">
<g clip-path="url(#clip0_301_1929)">
<path d="M39.3103 18.625H0.780273C1.00027 15.055 2.29027 12.145 4.16027 9.79498C4.36027 9.52498 4.58027 9.26498 4.80027 9.01498C5.31027 8.44498 5.85027 7.90498 6.42027 7.40498C6.68027 7.17498 6.95027 6.94498 7.22027 6.73498C7.75027 6.30498 8.29027 5.90498 8.85027 5.53498C9.16027 5.32498 9.47027 5.13498 9.78027 4.94498C10.3803 4.57498 10.9803 4.24498 11.5803 3.93498C11.9303 3.74498 12.2803 3.57498 12.6303 3.41498C12.6403 3.40498 12.6603 3.40498 12.6703 3.39498C18.3003 0.75498 23.8103 0.10498 23.8103 0.10498C25.5203 1.64498 27.7503 2.48498 30.0503 2.46498L31.3203 2.45498L32.6403 2.44498L38.3603 2.40498C38.7803 2.40498 39.1303 2.74498 39.1303 3.16498L39.3103 18.625Z" fill="#C48B2F"/>
<path d="M34.4903 5.81501C34.4103 5.86501 34.3203 5.88501 34.2403 5.88501C34.0703 5.88501 33.9003 5.79501 33.8103 5.64501C33.2403 4.69501 32.2703 3.51501 31.3203 2.45501L32.6403 2.44501C33.4203 3.35501 34.1703 4.31501 34.6603 5.12501C34.8103 5.36501 34.7303 5.66501 34.4903 5.81501Z" fill="#9B6621"/>
<path d="M7.46016 11.315C7.36016 11.465 7.20016 11.545 7.04016 11.545C6.94016 11.545 6.85016 11.515 6.77016 11.465L4.16016 9.79495C4.36016 9.52495 4.58016 9.26495 4.80016 9.01495L7.31016 10.625C7.54016 10.775 7.61016 11.085 7.46016 11.315Z" fill="#9B6621"/>
<path d="M10.1599 9.21498C10.0699 9.36498 9.90992 9.44499 9.73992 9.44499C9.64992 9.44499 9.55992 9.42499 9.46992 9.37499L6.41992 7.40499C6.67992 7.17499 6.94992 6.94499 7.21992 6.73499L10.0099 8.52499C10.2399 8.67499 10.3099 8.98498 10.1599 9.21498Z" fill="#9B6621"/>
<path d="M12.4701 7.26501C12.3701 7.41501 12.2101 7.49501 12.0501 7.49501C11.9501 7.49501 11.8601 7.46501 11.7801 7.41501L8.8501 5.53501C9.1601 5.32501 9.4701 5.13501 9.7801 4.94501L12.3201 6.57501C12.5501 6.72501 12.6201 7.03501 12.4701 7.26501Z" fill="#9B6621"/>
<path d="M14.7601 5.37498C14.6601 5.52498 14.5001 5.60498 14.3401 5.60498C14.2501 5.60498 14.1501 5.58498 14.0701 5.53498L11.5801 3.93498C11.9301 3.74498 12.2801 3.57498 12.6301 3.41498L14.6101 4.68498C14.8401 4.83498 14.9101 5.14498 14.7601 5.37498Z" fill="#9B6621"/>
<path d="M39.7602 18.315H0.410156V21.895H39.7602V18.315Z" fill="#9B6621"/>
<path d="M46.3403 18.625H84.8703C84.6503 15.055 83.3603 12.145 81.4903 9.79498C81.2903 9.52498 81.0703 9.26498 80.8503 9.01498C80.3403 8.44498 79.8003 7.90498 79.2303 7.40498C78.9703 7.17498 78.7003 6.94498 78.4303 6.73498C77.9003 6.30498 77.3603 5.90498 76.8003 5.53498C76.4903 5.32498 76.1803 5.13498 75.8703 4.94498C75.2703 4.57498 74.6703 4.24498 74.0703 3.93498C73.7203 3.74498 73.3703 3.57498 73.0203 3.41498C73.0103 3.40498 72.9903 3.40498 72.9803 3.39498C67.3503 0.75498 61.8403 0.10498 61.8403 0.10498C60.1303 1.64498 57.9003 2.48498 55.6003 2.46498L54.3303 2.45498L53.0103 2.44498L47.2903 2.40498C46.8703 2.40498 46.5203 2.74498 46.5203 3.16498L46.3403 18.625Z" fill="#FCB83E"/>
<path d="M51.1601 5.81501C51.2401 5.86501 51.3301 5.88501 51.4101 5.88501C51.5801 5.88501 51.7501 5.79501 51.8401 5.64501C52.4101 4.69501 53.3801 3.51501 54.3301 2.45501L53.0101 2.44501C52.2301 3.35501 51.4801 4.31501 50.9901 5.12501C50.8401 5.36501 50.9201 5.66501 51.1601 5.81501Z" fill="#9B6621"/>
<path d="M78.1901 11.315C78.2901 11.465 78.4501 11.545 78.6101 11.545C78.7101 11.545 78.8001 11.515 78.8801 11.465L81.4901 9.79495C81.2901 9.52495 81.0701 9.26495 80.8501 9.01495L78.3401 10.625C78.1101 10.775 78.0401 11.085 78.1901 11.315Z" fill="#9B6621"/>
<path d="M75.4899 9.21498C75.5799 9.36498 75.7399 9.44499 75.9099 9.44499C75.9999 9.44499 76.0899 9.42499 76.1799 9.37499L79.2299 7.40499C78.9699 7.17499 78.6999 6.94499 78.4299 6.73499L75.6399 8.52499C75.4099 8.67499 75.3399 8.98498 75.4899 9.21498Z" fill="#9B6621"/>
<path d="M73.1803 7.26501C73.2803 7.41501 73.4403 7.49501 73.6003 7.49501C73.7003 7.49501 73.7903 7.46501 73.8703 7.41501L76.8003 5.53501C76.4903 5.32501 76.1803 5.13501 75.8703 4.94501L73.3303 6.57501C73.1003 6.72501 73.0303 7.03501 73.1803 7.26501Z" fill="#9B6621"/>
<path d="M70.8903 5.37498C70.9903 5.52498 71.1503 5.60498 71.3103 5.60498C71.4003 5.60498 71.5003 5.58498 71.5803 5.53498L74.0703 3.93498C73.7203 3.74498 73.3703 3.57498 73.0203 3.41498L71.0403 4.68498C70.8103 4.83498 70.7403 5.14498 70.8903 5.37498Z" fill="#9B6621"/>
<path d="M45.8873 21.8883L85.2373 21.8883L85.2373 18.3083L45.8873 18.3083L45.8873 21.8883Z" fill="#9B6621"/>
</g>
<defs>
<clipPath id="clip0_301_1929">
<rect width="84.83" height="21.79" fill="white" transform="translate(0.410156 0.10498)"/>
</clipPath>
</defs>
</svg>
