<svg width="72" height="16" viewBox="0 0 72 16" fill="none" xmlns="http://www.w3.org/2000/svg">
<g clip-path="url(#clip0_301_6095)">
<path d="M44.2407 12.655C44.2407 12.655 53.5607 1.83496 65.5007 0.104962C65.5007 0.104962 68.6907 -0.665037 66.2807 2.95496C66.2807 2.95496 66.1707 1.55496 65.3607 1.61496C64.1107 1.70496 55.6007 4.37496 47.2007 12.335C45.4707 13.975 45.6407 11.435 44.2407 12.655Z" fill="#489DD7"/>
<path d="M71.9805 11.535H38.0205V15.965H71.9805V11.535Z" fill="#F7ECB9"/>
<path d="M28.6901 12.655C28.6901 12.655 19.3701 1.83496 7.43007 0.104962C7.43007 0.104962 4.24007 -0.665037 6.65007 2.95496C6.65007 2.95496 6.76007 1.55496 7.57007 1.61496C8.82007 1.70496 17.3301 4.37496 25.7301 12.335C27.4601 13.975 27.2901 11.435 28.6901 12.655Z" fill="#489DD7"/>
<path d="M0.954063 15.9576L34.9141 15.9576L34.9141 11.5276L0.954063 11.5276L0.954063 15.9576Z" fill="#F7ECB9"/>
</g>
<defs>
<clipPath id="clip0_301_6095">
<rect width="71.03" height="15.93" fill="white" transform="translate(0.950195 0.0349731)"/>
</clipPath>
</defs>
</svg>
