<svg width="120" height="86" viewBox="0 0 120 86" fill="none" xmlns="http://www.w3.org/2000/svg">
<g clip-path="url(#clip0_318_11522)">
<path d="M60.75 12.93C60.74 14.19 60.7 15.53 60.65 16.91C60.54 20.42 60.3 24.17 60.05 27.56C59.95 28.97 59.85 30.31 59.74 31.54C59.43 35.25 59.14 37.97 59.04 38.51C58.95 39 58.7 40.93 58.41 43.45C58.41 43.45 58.4 43.45 58.4 43.46C58.36 43.84 58.31 44.23 58.27 44.62C58.04 46.47 57.82 48.53 57.59 50.51L57.3 53.04C56.9 56.68 56.57 59.57 56.57 59.57C57.09 61.34 57.45 63.33 57.7 65.4V65.41C57.76 65.85 57.81 66.28 57.85 66.72C58.08 68.94 58.2 71.22 58.25 73.35C58.25 73.56 58.25 73.78 58.26 73.98V74.02C58.36 79.77 57.98 84.44 57.98 84.44H42.82V81.15C42.23 81.06 41.27 81.18 40.22 81.38C39.05 81.61 37.76 81.93 36.64 82.25C35.03 82.7 33.79 83.12 33.79 83.12C21.98 86.46 10.27 84.45 10.27 84.45V78.19C10.67 72.95 14.73 69.56 18.9 67.45C20.16 66.81 21.41 66.29 22.58 65.88V65.87C22.96 65.74 23.32 65.62 23.67 65.51C28.24 64.03 31.57 60.01 31.99 55.21C32.24 52.3 32.22 48.89 32.03 45.28C31.99 44.69 31.97 44.09 31.92 43.48C31.92 43.47 31.92 43.47 31.92 43.47C31.78 41.48 31.61 39.45 31.38 37.41C31.33 36.96 31.28 36.51 31.23 36.05C30.77 31.97 30.19 27.92 29.6 24.28C29.37 22.87 29.15 21.53 28.93 20.26C27.86 14.12 26.94 9.87002 26.94 9.87002C27.53 9.79002 28.31 9.71002 29.23 9.61002C29.24 9.61002 29.24 9.61002 29.24 9.61002C29.49 9.57002 29.74 9.55002 30.02 9.51002C31.83 9.30002 34.08 9.03002 36.54 8.76002C37.7 8.62002 38.89 8.48002 40.11 8.35002C41.73 8.16002 43.39 7.97002 45.01 7.78002C46.39 7.63002 47.76 7.47002 49.06 7.33002C50.84 7.12002 52.51 6.93002 54.01 6.75002C55.33 6.60002 56.51 6.47002 57.48 6.36002C59.31 6.15002 60.42 6.02002 60.42 6.02002C60.67 7.60002 60.77 10.06 60.75 12.93Z" fill="#B0305C"/>
<path d="M10.27 82.34C10.62 82.74 11.16 82.99 11.75 82.99C12.88 82.99 13.8 82.07 13.8 80.94C13.8 79.81 12.88 78.89 11.75 78.89C11.16 78.89 10.62 79.14 10.27 79.54V82.34Z" fill="#FFB5B5"/>
<path d="M20.5698 82.98C21.6964 82.98 22.6098 82.0667 22.6098 80.94C22.6098 79.8134 21.6964 78.9 20.5698 78.9C19.4431 78.9 18.5298 79.8134 18.5298 80.94C18.5298 82.0667 19.4431 82.98 20.5698 82.98Z" fill="#FFB5B5"/>
<path d="M29.3901 82.98C30.5168 82.98 31.4301 82.0667 31.4301 80.94C31.4301 79.8134 30.5168 78.9 29.3901 78.9C28.2634 78.9 27.3501 79.8134 27.3501 80.94C27.3501 82.0667 28.2634 82.98 29.3901 82.98Z" fill="#FFB5B5"/>
<path d="M40.2499 80.94C40.2499 81.09 40.2399 81.23 40.2099 81.37C39.0399 81.6 37.7499 81.92 36.6299 82.24C36.3299 81.89 36.1499 81.44 36.1499 80.95C36.1499 79.82 37.0699 78.9 38.1999 78.9C39.3399 78.9 40.2499 79.81 40.2499 80.94Z" fill="#FFB5B5"/>
<path d="M47.0302 82.98C48.1569 82.98 49.0702 82.0667 49.0702 80.94C49.0702 79.8134 48.1569 78.9 47.0302 78.9C45.9036 78.9 44.9902 79.8134 44.9902 80.94C44.9902 82.0667 45.9036 82.98 47.0302 82.98Z" fill="#FFB5B5"/>
<path d="M55.8501 82.98C56.9767 82.98 57.8901 82.0667 57.8901 80.94C57.8901 79.8134 56.9767 78.9 55.8501 78.9C54.7234 78.9 53.8101 79.8134 53.8101 80.94C53.8101 82.0667 54.7234 82.98 55.8501 82.98Z" fill="#FFB5B5"/>
<path d="M16.1601 75.65C17.2868 75.65 18.2001 74.7367 18.2001 73.61C18.2001 72.4833 17.2868 71.57 16.1601 71.57C15.0335 71.57 14.1201 72.4833 14.1201 73.61C14.1201 74.7367 15.0335 75.65 16.1601 75.65Z" fill="#FFB5B5"/>
<path d="M24.9799 75.65C26.1066 75.65 27.0199 74.7367 27.0199 73.61C27.0199 72.4833 26.1066 71.57 24.9799 71.57C23.8533 71.57 22.9399 72.4833 22.9399 73.61C22.9399 74.7367 23.8533 75.65 24.9799 75.65Z" fill="#FFB5B5"/>
<path d="M33.8003 75.65C34.9269 75.65 35.8403 74.7367 35.8403 73.61C35.8403 72.4833 34.9269 71.57 33.8003 71.57C32.6736 71.57 31.7603 72.4833 31.7603 73.61C31.7603 74.7367 32.6736 75.65 33.8003 75.65Z" fill="#FFB5B5"/>
<path d="M42.6201 75.65C43.7467 75.65 44.6601 74.7367 44.6601 73.61C44.6601 72.4833 43.7467 71.57 42.6201 71.57C41.4934 71.57 40.5801 72.4833 40.5801 73.61C40.5801 74.7367 41.4934 75.65 42.6201 75.65Z" fill="#FFB5B5"/>
<path d="M51.4399 75.65C52.5666 75.65 53.4799 74.7367 53.4799 73.61C53.4799 72.4833 52.5666 71.57 51.4399 71.57C50.3132 71.57 49.3999 72.4833 49.3999 73.61C49.3999 74.7367 50.3132 75.65 51.4399 75.65Z" fill="#FFB5B5"/>
<path d="M58.2602 73.98C58.2302 73.85 58.2202 73.73 58.2202 73.6C58.2202 73.51 58.2202 73.42 58.2502 73.35C58.2502 73.57 58.2502 73.78 58.2602 73.98Z" fill="#FFB5B5"/>
<path d="M22.6199 66.2701C22.6199 67.4001 21.6999 68.3201 20.5699 68.3201C19.8799 68.3201 19.2599 67.9701 18.8999 67.4401C20.1599 66.8001 21.4099 66.2801 22.5799 65.8701C22.5999 65.9901 22.6199 66.1301 22.6199 66.2701Z" fill="#FFB5B5"/>
<path d="M29.3901 68.31C30.5168 68.31 31.4301 67.3967 31.4301 66.27C31.4301 65.1434 30.5168 64.23 29.3901 64.23C28.2634 64.23 27.3501 65.1434 27.3501 66.27C27.3501 67.3967 28.2634 68.31 29.3901 68.31Z" fill="#FFB5B5"/>
<path d="M38.2099 68.31C39.3366 68.31 40.2499 67.3967 40.2499 66.27C40.2499 65.1434 39.3366 64.23 38.2099 64.23C37.0833 64.23 36.1699 65.1434 36.1699 66.27C36.1699 67.3967 37.0833 68.31 38.2099 68.31Z" fill="#FFB5B5"/>
<path d="M47.0297 68.31C48.1564 68.31 49.0697 67.3967 49.0697 66.27C49.0697 65.1434 48.1564 64.23 47.0297 64.23C45.9031 64.23 44.9897 65.1434 44.9897 66.27C44.9897 67.3967 45.9031 68.31 47.0297 68.31Z" fill="#FFB5B5"/>
<path d="M55.8501 68.31C56.9767 68.31 57.8901 67.3967 57.8901 66.27C57.8901 65.1434 56.9767 64.23 55.8501 64.23C54.7234 64.23 53.8101 65.1434 53.8101 66.27C53.8101 67.3967 54.7234 68.31 55.8501 68.31Z" fill="#FFB5B5"/>
<path d="M33.8003 60.97C34.9269 60.97 35.8403 60.0567 35.8403 58.93C35.8403 57.8034 34.9269 56.89 33.8003 56.89C32.6736 56.89 31.7603 57.8034 31.7603 58.93C31.7603 60.0567 32.6736 60.97 33.8003 60.97Z" fill="#FFB5B5"/>
<path d="M42.6201 60.97C43.7467 60.97 44.6601 60.0567 44.6601 58.93C44.6601 57.8034 43.7467 56.89 42.6201 56.89C41.4934 56.89 40.5801 57.8034 40.5801 58.93C40.5801 60.0567 41.4934 60.97 42.6201 60.97Z" fill="#FFB5B5"/>
<path d="M51.4404 60.97C52.567 60.97 53.4804 60.0567 53.4804 58.93C53.4804 57.8034 52.567 56.89 51.4404 56.89C50.3137 56.89 49.4004 57.8034 49.4004 58.93C49.4004 60.0567 50.3137 60.97 51.4404 60.97Z" fill="#FFB5B5"/>
<path d="M38.2099 53.6301C39.3366 53.6301 40.2499 52.7167 40.2499 51.59C40.2499 50.4634 39.3366 49.55 38.2099 49.55C37.0833 49.55 36.1699 50.4634 36.1699 51.59C36.1699 52.7167 37.0833 53.6301 38.2099 53.6301Z" fill="#FFB5B5"/>
<path d="M47.0297 53.6301C48.1564 53.6301 49.0697 52.7167 49.0697 51.59C49.0697 50.4634 48.1564 49.55 47.0297 49.55C45.9031 49.55 44.9897 50.4634 44.9897 51.59C44.9897 52.7167 45.9031 53.6301 47.0297 53.6301Z" fill="#FFB5B5"/>
<path d="M57.2901 53.04C56.9301 53.4 56.4201 53.63 55.8601 53.63C54.7301 53.63 53.8101 52.73 53.8101 51.59C53.8101 50.46 54.7301 49.54 55.8601 49.54C56.5901 49.54 57.2301 49.93 57.5801 50.51L57.2901 53.04Z" fill="#FFB5B5"/>
<path d="M35.8402 44.2601C35.8402 45.3901 34.9202 46.3 33.7902 46.3C33.0202 46.3 32.3602 45.8901 32.0202 45.2701C31.9802 44.6801 31.9602 44.0801 31.9102 43.4701C31.9102 43.4601 31.9102 43.46 31.9102 43.46C32.2202 42.73 32.9502 42.2201 33.7902 42.2201C34.9302 42.2101 35.8402 43.1301 35.8402 44.2601Z" fill="#FFB5B5"/>
<path d="M42.6201 46.3C43.7467 46.3 44.6601 45.3867 44.6601 44.26C44.6601 43.1334 43.7467 42.22 42.6201 42.22C41.4934 42.22 40.5801 43.1334 40.5801 44.26C40.5801 45.3867 41.4934 46.3 42.6201 46.3Z" fill="#FFB5B5"/>
<path d="M51.4404 46.3C52.567 46.3 53.4804 45.3867 53.4804 44.26C53.4804 43.1334 52.567 42.22 51.4404 42.22C50.3137 42.22 49.4004 43.1334 49.4004 44.26C49.4004 45.3867 50.3137 46.3 51.4404 46.3Z" fill="#FFB5B5"/>
<path d="M58.38 43.47C58.34 43.85 58.29 44.24 58.25 44.63C58.22 44.52 58.21 44.39 58.21 44.27C58.22 43.98 58.28 43.71 58.38 43.47Z" fill="#FFB5B5"/>
<path d="M31.4302 36.92C31.4302 37.08 31.4002 37.25 31.3702 37.4C31.3202 36.95 31.2702 36.5 31.2202 36.04C31.3602 36.31 31.4302 36.61 31.4302 36.92Z" fill="#FFB5B5"/>
<path d="M38.2104 38.96C39.3371 38.96 40.2504 38.0467 40.2504 36.92C40.2504 35.7933 39.3371 34.88 38.2104 34.88C37.0838 34.88 36.1704 35.7933 36.1704 36.92C36.1704 38.0467 37.0838 38.96 38.2104 38.96Z" fill="#FFB5B5"/>
<path d="M47.0302 38.96C48.1569 38.96 49.0702 38.0467 49.0702 36.92C49.0702 35.7933 48.1569 34.88 47.0302 34.88C45.9036 34.88 44.9902 35.7933 44.9902 36.92C44.9902 38.0467 45.9036 38.96 47.0302 38.96Z" fill="#FFB5B5"/>
<path d="M55.8501 38.96C56.9767 38.96 57.8901 38.0467 57.8901 36.92C57.8901 35.7933 56.9767 34.88 55.8501 34.88C54.7234 34.88 53.8101 35.7933 53.8101 36.92C53.8101 38.0467 54.7234 38.96 55.8501 38.96Z" fill="#FFB5B5"/>
<path d="M33.8003 31.62C34.9269 31.62 35.8403 30.7067 35.8403 29.58C35.8403 28.4534 34.9269 27.54 33.8003 27.54C32.6736 27.54 31.7603 28.4534 31.7603 29.58C31.7603 30.7067 32.6736 31.62 33.8003 31.62Z" fill="#FFB5B5"/>
<path d="M42.6201 31.62C43.7467 31.62 44.6601 30.7067 44.6601 29.58C44.6601 28.4534 43.7467 27.54 42.6201 27.54C41.4934 27.54 40.5801 28.4534 40.5801 29.58C40.5801 30.7067 41.4934 31.62 42.6201 31.62Z" fill="#FFB5B5"/>
<path d="M51.4404 31.62C52.567 31.62 53.4804 30.7067 53.4804 29.58C53.4804 28.4534 52.567 27.54 51.4404 27.54C50.3137 27.54 49.4004 28.4534 49.4004 29.58C49.4004 30.7067 50.3137 31.62 51.4404 31.62Z" fill="#FFB5B5"/>
<path d="M60.0402 27.5601C59.9402 28.9701 59.8402 30.3101 59.7302 31.5401C58.8602 31.3001 58.2202 30.5101 58.2202 29.5801C58.2202 28.5301 59.0102 27.6601 60.0402 27.5601Z" fill="#FFB5B5"/>
<path d="M31.4302 22.25C31.4302 23.31 30.6302 24.17 29.5802 24.27C29.3502 22.86 29.1302 21.52 28.9102 20.25C29.0602 20.21 29.2102 20.2 29.3702 20.2C30.5202 20.2 31.4302 21.12 31.4302 22.25Z" fill="#FFB5B5"/>
<path d="M38.2099 24.28C39.3366 24.28 40.2499 23.3667 40.2499 22.24C40.2499 21.1134 39.3366 20.2 38.2099 20.2C37.0833 20.2 36.1699 21.1134 36.1699 22.24C36.1699 23.3667 37.0833 24.28 38.2099 24.28Z" fill="#FFB5B5"/>
<path d="M47.0302 24.28C48.1569 24.28 49.0702 23.3667 49.0702 22.24C49.0702 21.1134 48.1569 20.2 47.0302 20.2C45.9036 20.2 44.9902 21.1134 44.9902 22.24C44.9902 23.3667 45.9036 24.28 47.0302 24.28Z" fill="#FFB5B5"/>
<path d="M55.8501 24.28C56.9767 24.28 57.8901 23.3667 57.8901 22.24C57.8901 21.1134 56.9767 20.2 55.8501 20.2C54.7234 20.2 53.8101 21.1134 53.8101 22.24C53.8101 23.3667 54.7234 24.28 55.8501 24.28Z" fill="#FFB5B5"/>
<path d="M33.8003 16.94C34.9269 16.94 35.8403 16.0267 35.8403 14.9C35.8403 13.7734 34.9269 12.86 33.8003 12.86C32.6736 12.86 31.7603 13.7734 31.7603 14.9C31.7603 16.0267 32.6736 16.94 33.8003 16.94Z" fill="#FFB5B5"/>
<path d="M42.6201 16.94C43.7467 16.94 44.6601 16.0267 44.6601 14.9C44.6601 13.7734 43.7467 12.86 42.6201 12.86C41.4934 12.86 40.5801 13.7734 40.5801 14.9C40.5801 16.0267 41.4934 16.94 42.6201 16.94Z" fill="#FFB5B5"/>
<path d="M51.4404 16.94C52.567 16.94 53.4804 16.0267 53.4804 14.9C53.4804 13.7734 52.567 12.86 51.4404 12.86C50.3137 12.86 49.4004 13.7734 49.4004 14.9C49.4004 16.0267 50.3137 16.94 51.4404 16.94Z" fill="#FFB5B5"/>
<path d="M60.7502 12.93C60.7402 14.19 60.7002 15.53 60.6502 16.91C60.5202 16.94 60.4002 16.95 60.2702 16.95C59.1402 16.95 58.2202 16.03 58.2202 14.91C58.2202 13.78 59.1402 12.86 60.2702 12.86C60.4302 12.86 60.5902 12.89 60.7502 12.93Z" fill="#FFB5B5"/>
<path d="M30.0202 9.5C29.8302 9.58 29.6202 9.61 29.3902 9.61C29.3402 9.61 29.2902 9.61 29.2402 9.6C29.4902 9.56 29.7402 9.53 30.0202 9.5Z" fill="#FFB5B5"/>
<path d="M40.1003 8.33002C39.8003 9.08002 39.0603 9.61002 38.2003 9.61002C37.5103 9.61002 36.9103 9.27002 36.5303 8.74002C37.6903 8.60002 38.8803 8.47002 40.1003 8.33002Z" fill="#FFB5B5"/>
<path d="M49.07 7.56C49.07 8.69 48.15 9.61 47.02 9.61C45.95 9.61 45.1 8.81 45 7.76C46.38 7.61 47.75 7.45 49.05 7.31C49.07 7.4 49.07 7.47 49.07 7.56Z" fill="#FFB5B5"/>
<path d="M57.8903 7.56003C57.8903 8.69003 56.9703 9.61003 55.8503 9.61003C54.7203 9.61003 53.8003 8.69003 53.8003 7.56003C53.8003 7.27003 53.8603 6.98003 53.9903 6.73003C55.3103 6.58003 56.4903 6.45003 57.4603 6.34003C57.7403 6.68003 57.8903 7.11003 57.8903 7.56003Z" fill="#FFB5B5"/>
<path d="M59.25 12.93C59.26 14.19 59.3 15.53 59.35 16.91C59.46 20.42 59.7 24.17 59.95 27.56C60.05 28.97 60.15 30.31 60.26 31.54C60.57 35.25 60.86 37.97 60.96 38.51C61.05 39 61.3 40.93 61.59 43.45C61.59 43.45 61.6 43.45 61.6 43.46C61.64 43.84 61.69 44.23 61.73 44.62C61.96 46.47 62.18 48.53 62.41 50.51L62.7 53.04C63.1 56.68 63.43 59.57 63.43 59.57C62.91 61.34 62.55 63.33 62.3 65.4V65.41C62.24 65.85 62.19 66.28 62.15 66.72C61.92 68.94 61.8 71.22 61.75 73.35C61.75 73.56 61.75 73.78 61.74 73.98V74.02C61.64 79.77 62.02 84.44 62.02 84.44H77.18V81.15C77.77 81.06 78.73 81.18 79.78 81.38C80.95 81.61 82.24 81.93 83.36 82.25C84.97 82.7 86.21 83.12 86.21 83.12C98.02 86.46 109.73 84.45 109.73 84.45V78.19C109.33 72.95 105.27 69.56 101.1 67.45C99.84 66.81 98.59 66.29 97.42 65.88V65.87C97.04 65.74 96.68 65.62 96.33 65.51C91.76 64.03 88.43 60.01 88.01 55.21C87.76 52.3 87.78 48.89 87.97 45.28C88.01 44.69 88.03 44.09 88.08 43.48C88.08 43.47 88.08 43.47 88.08 43.47C88.22 41.48 88.39 39.45 88.62 37.41C88.67 36.96 88.72 36.51 88.77 36.05C89.23 31.97 89.81 27.92 90.4 24.28C90.63 22.87 90.85 21.53 91.07 20.26C92.14 14.12 93.06 9.87 93.06 9.87C92.47 9.79 91.69 9.71 90.77 9.61C90.76 9.61 90.76 9.61 90.76 9.61C90.51 9.57 90.26 9.55 89.98 9.51C88.18 9.28 85.93 9.02 83.46 8.74C82.3 8.6 81.11 8.46 79.89 8.33C78.27 8.14 76.61 7.95 74.99 7.76C73.61 7.61 72.24 7.45 70.94 7.31C69.17 7.1 67.5 6.91 66 6.73C64.68 6.58 63.5 6.45 62.53 6.34C60.7 6.13 59.59 6 59.59 6C59.33 7.6 59.23 10.06 59.25 12.93Z" fill="#B0305C"/>
<path d="M109.73 79.55C109.38 79.15 108.84 78.9 108.25 78.9C107.12 78.9 106.2 79.82 106.2 80.95C106.2 82.08 107.12 83 108.25 83C108.84 83 109.38 82.75 109.73 82.35V79.55Z" fill="#FFB5B5"/>
<path d="M99.4296 82.98C100.556 82.98 101.47 82.0667 101.47 80.94C101.47 79.8134 100.556 78.9 99.4296 78.9C98.303 78.9 97.3896 79.8134 97.3896 80.94C97.3896 82.0667 98.303 82.98 99.4296 82.98Z" fill="#FFB5B5"/>
<path d="M90.6098 82.98C91.7365 82.98 92.6498 82.0667 92.6498 80.94C92.6498 79.8134 91.7365 78.9 90.6098 78.9C89.4832 78.9 88.5698 79.8134 88.5698 80.94C88.5698 82.0667 89.4832 82.98 90.6098 82.98Z" fill="#FFB5B5"/>
<path d="M79.75 80.94C79.75 81.09 79.76 81.23 79.79 81.37C80.96 81.6 82.25 81.92 83.37 82.24C83.67 81.89 83.85 81.44 83.85 80.95C83.85 79.82 82.93 78.9 81.8 78.9C80.66 78.9 79.75 79.81 79.75 80.94Z" fill="#FFB5B5"/>
<path d="M72.9697 82.98C74.0963 82.98 75.0097 82.0667 75.0097 80.94C75.0097 79.8134 74.0963 78.9 72.9697 78.9C71.843 78.9 70.9297 79.8134 70.9297 80.94C70.9297 82.0667 71.843 82.98 72.9697 82.98Z" fill="#FFB5B5"/>
<path d="M64.1499 82.98C65.2765 82.98 66.1899 82.0667 66.1899 80.94C66.1899 79.8134 65.2765 78.9 64.1499 78.9C63.0232 78.9 62.1099 79.8134 62.1099 80.94C62.1099 82.0667 63.0232 82.98 64.1499 82.98Z" fill="#FFB5B5"/>
<path d="M103.84 75.65C104.967 75.65 105.88 74.7367 105.88 73.61C105.88 72.4833 104.967 71.57 103.84 71.57C102.714 71.57 101.8 72.4833 101.8 73.61C101.8 74.7367 102.714 75.65 103.84 75.65Z" fill="#FFB5B5"/>
<path d="M95.0205 75.65C96.1471 75.65 97.0605 74.7367 97.0605 73.61C97.0605 72.4833 96.1471 71.57 95.0205 71.57C93.8938 71.57 92.9805 72.4833 92.9805 73.61C92.9805 74.7367 93.8938 75.65 95.0205 75.65Z" fill="#FFB5B5"/>
<path d="M86.2001 75.65C87.3268 75.65 88.2402 74.7367 88.2402 73.61C88.2402 72.4833 87.3268 71.57 86.2001 71.57C85.0735 71.57 84.1602 72.4833 84.1602 73.61C84.1602 74.7367 85.0735 75.65 86.2001 75.65Z" fill="#FFB5B5"/>
<path d="M77.3803 75.65C78.507 75.65 79.4203 74.7367 79.4203 73.61C79.4203 72.4833 78.507 71.57 77.3803 71.57C76.2537 71.57 75.3403 72.4833 75.3403 73.61C75.3403 74.7367 76.2537 75.65 77.3803 75.65Z" fill="#FFB5B5"/>
<path d="M68.56 75.65C69.6867 75.65 70.6 74.7367 70.6 73.61C70.6 72.4833 69.6867 71.57 68.56 71.57C67.4334 71.57 66.52 72.4833 66.52 73.61C66.52 74.7367 67.4334 75.65 68.56 75.65Z" fill="#FFB5B5"/>
<path d="M61.7402 73.98C61.7702 73.85 61.7802 73.73 61.7802 73.6C61.7802 73.51 61.7802 73.42 61.7502 73.35C61.7502 73.57 61.7502 73.78 61.7402 73.98Z" fill="#FFB5B5"/>
<path d="M97.3799 66.2701C97.3799 67.4001 98.2999 68.3201 99.4299 68.3201C100.12 68.3201 100.74 67.9701 101.1 67.4401C99.8399 66.8001 98.5899 66.2801 97.4199 65.8701C97.3999 65.9901 97.3799 66.1301 97.3799 66.2701Z" fill="#FFB5B5"/>
<path d="M90.6098 68.31C91.7365 68.31 92.6498 67.3967 92.6498 66.27C92.6498 65.1434 91.7365 64.23 90.6098 64.23C89.4832 64.23 88.5698 65.1434 88.5698 66.27C88.5698 67.3967 89.4832 68.31 90.6098 68.31Z" fill="#FFB5B5"/>
<path d="M81.79 68.31C82.9167 68.31 83.83 67.3967 83.83 66.27C83.83 65.1434 82.9167 64.23 81.79 64.23C80.6633 64.23 79.75 65.1434 79.75 66.27C79.75 67.3967 80.6633 68.31 81.79 68.31Z" fill="#FFB5B5"/>
<path d="M72.9697 68.31C74.0963 68.31 75.0097 67.3967 75.0097 66.27C75.0097 65.1434 74.0963 64.23 72.9697 64.23C71.843 64.23 70.9297 65.1434 70.9297 66.27C70.9297 67.3967 71.843 68.31 72.9697 68.31Z" fill="#FFB5B5"/>
<path d="M64.1499 68.31C65.2765 68.31 66.1899 67.3967 66.1899 66.27C66.1899 65.1434 65.2765 64.23 64.1499 64.23C63.0232 64.23 62.1099 65.1434 62.1099 66.27C62.1099 67.3967 63.0232 68.31 64.1499 68.31Z" fill="#FFB5B5"/>
<path d="M86.2001 60.97C87.3268 60.97 88.2402 60.0567 88.2402 58.93C88.2402 57.8034 87.3268 56.89 86.2001 56.89C85.0735 56.89 84.1602 57.8034 84.1602 58.93C84.1602 60.0567 85.0735 60.97 86.2001 60.97Z" fill="#FFB5B5"/>
<path d="M77.3798 60.97C78.5065 60.97 79.4198 60.0567 79.4198 58.93C79.4198 57.8034 78.5065 56.89 77.3798 56.89C76.2532 56.89 75.3398 57.8034 75.3398 58.93C75.3398 60.0567 76.2532 60.97 77.3798 60.97Z" fill="#FFB5B5"/>
<path d="M68.56 60.97C69.6867 60.97 70.6 60.0567 70.6 58.93C70.6 57.8034 69.6867 56.89 68.56 56.89C67.4334 56.89 66.52 57.8034 66.52 58.93C66.52 60.0567 67.4334 60.97 68.56 60.97Z" fill="#FFB5B5"/>
<path d="M81.79 53.6301C82.9167 53.6301 83.83 52.7167 83.83 51.59C83.83 50.4634 82.9167 49.55 81.79 49.55C80.6633 49.55 79.75 50.4634 79.75 51.59C79.75 52.7167 80.6633 53.6301 81.79 53.6301Z" fill="#FFB5B5"/>
<path d="M72.9697 53.6301C74.0963 53.6301 75.0097 52.7167 75.0097 51.59C75.0097 50.4634 74.0963 49.55 72.9697 49.55C71.843 49.55 70.9297 50.4634 70.9297 51.59C70.9297 52.7167 71.843 53.6301 72.9697 53.6301Z" fill="#FFB5B5"/>
<path d="M62.4199 50.5201C62.7699 49.9401 63.4099 49.55 64.1399 49.55C65.2699 49.55 66.1899 50.4701 66.1899 51.6001C66.1899 52.7301 65.2699 53.64 64.1399 53.64C63.5699 53.64 63.0699 53.41 62.7099 53.05L62.4199 50.5201Z" fill="#FFB5B5"/>
<path d="M84.1602 44.2601C84.1602 45.3901 85.0802 46.3 86.2102 46.3C86.9802 46.3 87.6402 45.8901 87.9802 45.2701C88.0202 44.6801 88.0401 44.0801 88.0901 43.4701C88.0901 43.4601 88.0901 43.46 88.0901 43.46C87.7801 42.73 87.0502 42.2201 86.2102 42.2201C85.0702 42.2101 84.1602 43.1301 84.1602 44.2601Z" fill="#FFB5B5"/>
<path d="M77.3803 46.3C78.507 46.3 79.4203 45.3867 79.4203 44.26C79.4203 43.1334 78.507 42.22 77.3803 42.22C76.2537 42.22 75.3403 43.1334 75.3403 44.26C75.3403 45.3867 76.2537 46.3 77.3803 46.3Z" fill="#FFB5B5"/>
<path d="M68.56 46.3C69.6867 46.3 70.6 45.3867 70.6 44.26C70.6 43.1334 69.6867 42.22 68.56 42.22C67.4334 42.22 66.52 43.1334 66.52 44.26C66.52 45.3867 67.4334 46.3 68.56 46.3Z" fill="#FFB5B5"/>
<path d="M61.6201 43.47C61.6601 43.85 61.7101 44.24 61.7501 44.63C61.7801 44.52 61.7901 44.39 61.7901 44.27C61.7801 43.98 61.7201 43.71 61.6201 43.47Z" fill="#FFB5B5"/>
<path d="M88.5698 36.92C88.5698 37.08 88.5998 37.25 88.6298 37.4C88.6798 36.95 88.7298 36.5 88.7798 36.04C88.6398 36.31 88.5698 36.61 88.5698 36.92Z" fill="#FFB5B5"/>
<path d="M81.79 38.96C82.9167 38.96 83.83 38.0467 83.83 36.92C83.83 35.7933 82.9167 34.88 81.79 34.88C80.6633 34.88 79.75 35.7933 79.75 36.92C79.75 38.0467 80.6633 38.96 81.79 38.96Z" fill="#FFB5B5"/>
<path d="M72.9697 38.96C74.0963 38.96 75.0097 38.0467 75.0097 36.92C75.0097 35.7933 74.0963 34.88 72.9697 34.88C71.843 34.88 70.9297 35.7933 70.9297 36.92C70.9297 38.0467 71.843 38.96 72.9697 38.96Z" fill="#FFB5B5"/>
<path d="M64.1499 38.96C65.2765 38.96 66.1899 38.0467 66.1899 36.92C66.1899 35.7933 65.2765 34.88 64.1499 34.88C63.0232 34.88 62.1099 35.7933 62.1099 36.92C62.1099 38.0467 63.0232 38.96 64.1499 38.96Z" fill="#FFB5B5"/>
<path d="M86.2001 31.62C87.3268 31.62 88.2402 30.7067 88.2402 29.58C88.2402 28.4534 87.3268 27.54 86.2001 27.54C85.0735 27.54 84.1602 28.4534 84.1602 29.58C84.1602 30.7067 85.0735 31.62 86.2001 31.62Z" fill="#FFB5B5"/>
<path d="M77.3798 31.62C78.5065 31.62 79.4198 30.7067 79.4198 29.58C79.4198 28.4534 78.5065 27.54 77.3798 27.54C76.2532 27.54 75.3398 28.4534 75.3398 29.58C75.3398 30.7067 76.2532 31.62 77.3798 31.62Z" fill="#FFB5B5"/>
<path d="M68.56 31.62C69.6867 31.62 70.6 30.7067 70.6 29.58C70.6 28.4534 69.6867 27.54 68.56 27.54C67.4334 27.54 66.52 28.4534 66.52 29.58C66.52 30.7067 67.4334 31.62 68.56 31.62Z" fill="#FFB5B5"/>
<path d="M59.96 27.5601C60.06 28.9701 60.16 30.3101 60.27 31.5401C61.14 31.3001 61.78 30.5101 61.78 29.5801C61.78 28.5301 60.99 27.6601 59.96 27.5601Z" fill="#FFB5B5"/>
<path d="M88.5698 22.25C88.5698 23.31 89.3698 24.17 90.4198 24.27C90.6498 22.86 90.8698 21.52 91.0898 20.25C90.9398 20.21 90.7898 20.2 90.6298 20.2C89.4798 20.2 88.5698 21.12 88.5698 22.25Z" fill="#FFB5B5"/>
<path d="M81.79 24.28C82.9167 24.28 83.83 23.3667 83.83 22.24C83.83 21.1134 82.9167 20.2 81.79 20.2C80.6633 20.2 79.75 21.1134 79.75 22.24C79.75 23.3667 80.6633 24.28 81.79 24.28Z" fill="#FFB5B5"/>
<path d="M72.9697 24.28C74.0963 24.28 75.0097 23.3667 75.0097 22.24C75.0097 21.1134 74.0963 20.2 72.9697 20.2C71.843 20.2 70.9297 21.1134 70.9297 22.24C70.9297 23.3667 71.843 24.28 72.9697 24.28Z" fill="#FFB5B5"/>
<path d="M64.1499 24.28C65.2765 24.28 66.1899 23.3667 66.1899 22.24C66.1899 21.1134 65.2765 20.2 64.1499 20.2C63.0232 20.2 62.1099 21.1134 62.1099 22.24C62.1099 23.3667 63.0232 24.28 64.1499 24.28Z" fill="#FFB5B5"/>
<path d="M86.2001 16.94C87.3268 16.94 88.2402 16.0267 88.2402 14.9C88.2402 13.7734 87.3268 12.86 86.2001 12.86C85.0735 12.86 84.1602 13.7734 84.1602 14.9C84.1602 16.0267 85.0735 16.94 86.2001 16.94Z" fill="#FFB5B5"/>
<path d="M77.3798 16.94C78.5065 16.94 79.4198 16.0267 79.4198 14.9C79.4198 13.7734 78.5065 12.86 77.3798 12.86C76.2532 12.86 75.3398 13.7734 75.3398 14.9C75.3398 16.0267 76.2532 16.94 77.3798 16.94Z" fill="#FFB5B5"/>
<path d="M68.56 16.94C69.6867 16.94 70.6 16.0267 70.6 14.9C70.6 13.7734 69.6867 12.86 68.56 12.86C67.4334 12.86 66.52 13.7734 66.52 14.9C66.52 16.0267 67.4334 16.94 68.56 16.94Z" fill="#FFB5B5"/>
<path d="M59.25 12.93C59.26 14.19 59.3 15.53 59.35 16.91C59.48 16.94 59.6 16.95 59.73 16.95C60.86 16.95 61.78 16.03 61.78 14.91C61.78 13.78 60.86 12.86 59.73 12.86C59.57 12.86 59.41 12.89 59.25 12.93Z" fill="#FFB5B5"/>
<path d="M89.98 9.5C90.17 9.58 90.38 9.61 90.61 9.61C90.66 9.61 90.71 9.61 90.76 9.6C90.51 9.56 90.26 9.53 89.98 9.5Z" fill="#FFB5B5"/>
<path d="M79.8999 8.33002C80.1999 9.08002 80.9399 9.61002 81.7999 9.61002C82.4899 9.61002 83.0899 9.27002 83.4699 8.74002C82.3099 8.60002 81.1199 8.47002 79.8999 8.33002Z" fill="#FFB5B5"/>
<path d="M70.9297 7.56C70.9297 8.69 71.8497 9.61 72.9797 9.61C74.0497 9.61 74.8997 8.81 74.9997 7.76C73.6197 7.61 72.2497 7.45 70.9497 7.31C70.9297 7.4 70.9297 7.47 70.9297 7.56Z" fill="#FFB5B5"/>
<path d="M62.1099 7.56003C62.1099 8.69003 63.0299 9.61003 64.1499 9.61003C65.2799 9.61003 66.1999 8.69003 66.1999 7.56003C66.1999 7.27003 66.1399 6.98003 66.0099 6.73003C64.6899 6.58003 63.5099 6.45003 62.5399 6.34003C62.2599 6.68003 62.1099 7.11003 62.1099 7.56003Z" fill="#FFB5B5"/>
</g>
<defs>
<clipPath id="clip0_318_11522">
<rect width="120" height="85" fill="white" transform="translate(0 0.5)"/>
</clipPath>
</defs>
</svg>
