<svg width="79" height="22" viewBox="0 0 79 22" fill="none" xmlns="http://www.w3.org/2000/svg">
<g clip-path="url(#clip0_301_6105)">
<path d="M38.4001 18.34H1.33008C1.54008 14.91 2.78008 12.11 4.58008 9.84002C4.77008 9.58002 4.98008 9.33002 5.20008 9.09002C5.69008 8.54002 6.21008 8.02002 6.76008 7.54002C7.01008 7.32002 7.27008 7.10002 7.53008 6.90002C8.04008 6.49002 8.56008 6.10002 9.10008 5.75002C9.40008 5.55002 9.70008 5.37002 9.99008 5.18002C10.5701 4.82002 11.1401 4.51002 11.7201 4.21002C12.0601 4.03002 12.3901 3.86002 12.7301 3.71002C12.7401 3.70002 12.7601 3.70002 12.7701 3.69002C18.1901 1.15002 23.4901 0.52002 23.4901 0.52002C25.1401 2.00002 27.2801 2.81002 29.4901 2.79002L30.7101 2.78002L31.9801 2.77002L37.4801 2.73002C37.8801 2.73002 38.2201 3.06002 38.2201 3.46002L38.4001 18.34Z" fill="#C48B2F"/>
<path d="M33.7702 6.01002C33.6902 6.06002 33.6102 6.08002 33.5302 6.08002C33.3702 6.08002 33.2002 5.99002 33.1202 5.85002C32.5702 4.94002 31.6402 3.80002 30.7202 2.78002L31.9902 2.77002C32.7402 3.65002 33.4602 4.57002 33.9302 5.35002C34.0802 5.58002 34.0002 5.87002 33.7702 6.01002Z" fill="#9B6621"/>
<path d="M7.76008 11.31C7.66008 11.45 7.51008 11.53 7.36008 11.53C7.26008 11.53 7.18008 11.5 7.10008 11.45L4.58008 9.84003C4.77008 9.58003 4.98008 9.33003 5.20008 9.09003L7.62008 10.64C7.84008 10.79 7.90008 11.08 7.76008 11.31Z" fill="#9B6621"/>
<path d="M10.36 9.29002C10.27 9.43002 10.12 9.51002 9.96002 9.51002C9.87002 9.51002 9.79002 9.49002 9.70002 9.44002L6.77002 7.54002C7.01002 7.32002 7.27002 7.10002 7.53002 6.90002L10.21 8.62002C10.43 8.77002 10.5 9.06002 10.36 9.29002Z" fill="#9B6621"/>
<path d="M12.5801 7.41004C12.4801 7.55004 12.3301 7.63004 12.1801 7.63004C12.0801 7.63004 12.0001 7.60004 11.9201 7.55004L9.1001 5.74004C9.4001 5.54004 9.7001 5.36004 9.9901 5.17004L12.4301 6.74004C12.6601 6.89004 12.7201 7.19004 12.5801 7.41004Z" fill="#9B6621"/>
<path d="M14.7802 5.59001C14.6802 5.73001 14.5302 5.81001 14.3802 5.81001C14.2902 5.81001 14.2002 5.79001 14.1202 5.74001L11.7202 4.20001C12.0602 4.02001 12.3902 3.85001 12.7302 3.70001L14.6402 4.92001C14.8602 5.07001 14.9302 5.37001 14.7802 5.59001Z" fill="#9B6621"/>
<path d="M38.84 18.04H0.97998V21.48H38.84V18.04Z" fill="#9B6621"/>
<path d="M41.1597 18.34H78.2297C78.0197 14.91 76.7797 12.11 74.9797 9.84002C74.7897 9.58002 74.5797 9.33002 74.3597 9.09002C73.8697 8.54002 73.3497 8.02002 72.7997 7.54002C72.5497 7.32002 72.2897 7.10002 72.0297 6.90002C71.5197 6.49002 70.9997 6.10002 70.4597 5.75002C70.1597 5.55002 69.8597 5.37002 69.5697 5.18002C68.9897 4.82002 68.4197 4.51002 67.8397 4.21002C67.4997 4.03002 67.1697 3.86002 66.8297 3.71002C66.8197 3.70002 66.7997 3.70002 66.7897 3.69002C61.3697 1.15002 56.0697 0.52002 56.0697 0.52002C54.4197 2.00002 52.2797 2.81002 50.0697 2.79002L48.8497 2.78002L47.5797 2.77002L42.0797 2.73002C41.6797 2.73002 41.3397 3.06002 41.3397 3.46002L41.1597 18.34Z" fill="#FCB83E"/>
<path d="M45.7999 6.01002C45.8799 6.06002 45.9599 6.08002 46.0399 6.08002C46.1999 6.08002 46.3699 5.99002 46.4499 5.85002C46.9999 4.94002 47.9299 3.80002 48.8499 2.78002L47.5799 2.77002C46.8299 3.65002 46.1099 4.57002 45.6399 5.35002C45.4899 5.58002 45.5699 5.87002 45.7999 6.01002Z" fill="#9B6621"/>
<path d="M71.7999 11.31C71.8999 11.45 72.0499 11.53 72.1999 11.53C72.2999 11.53 72.3799 11.5 72.4599 11.45L74.9799 9.84003C74.7899 9.58003 74.5799 9.33003 74.3599 9.09003L71.9399 10.64C71.7299 10.79 71.6599 11.08 71.7999 11.31Z" fill="#9B6621"/>
<path d="M69.2096 9.29002C69.2996 9.43002 69.4496 9.51002 69.6096 9.51002C69.6996 9.51002 69.7796 9.49002 69.8696 9.44002L72.7996 7.54002C72.5496 7.32002 72.2896 7.10002 72.0296 6.90002L69.3496 8.62002C69.1296 8.77002 69.0596 9.06002 69.2096 9.29002Z" fill="#9B6621"/>
<path d="M66.9796 7.41004C67.0796 7.55004 67.2296 7.63004 67.3796 7.63004C67.4796 7.63004 67.5596 7.60004 67.6396 7.55004L70.4596 5.74004C70.1596 5.54004 69.8596 5.36004 69.5696 5.17004L67.1296 6.74004C66.9096 6.89004 66.8396 7.19004 66.9796 7.41004Z" fill="#9B6621"/>
<path d="M64.7799 5.59001C64.8799 5.73001 65.0299 5.81001 65.1799 5.81001C65.2699 5.81001 65.3599 5.79001 65.4399 5.74001L67.8399 4.20001C67.4999 4.02001 67.1699 3.85001 66.8299 3.70001L64.9199 4.92001C64.6999 5.07001 64.6399 5.37001 64.7799 5.59001Z" fill="#9B6621"/>
<path d="M40.724 21.4803L78.584 21.4803L78.584 18.0403L40.724 18.0403L40.724 21.4803Z" fill="#9B6621"/>
</g>
<defs>
<clipPath id="clip0_301_6105">
<rect width="77.6" height="20.96" fill="white" transform="translate(0.97998 0.52002)"/>
</clipPath>
</defs>
</svg>
