<svg width="111" height="34" viewBox="0 0 111 34" fill="none" xmlns="http://www.w3.org/2000/svg">
<g clip-path="url(#clip0_301_8695)">
<path d="M54.37 17.37V28.61H1.84998C1.42998 25.39 3.09998 22.6 5.87998 18.03C6.14998 17.58 6.52998 17.02 7.00998 16.37C7.24998 16.05 7.52998 15.7 7.82998 15.34C10.8 11.87 16.73 7.05999 27.48 5.83999V5.81999C27.48 4.70999 28.39 3.88999 29.49 4.02999C29.74 4.05999 30 4.06999 30.29 4.09999C30.7 4.13999 31.11 4.16999 31.54 4.19999C32.09 4.23999 32.65 4.24999 33.21 4.24999C34.17 4.24999 35.1 4.19999 36.01 4.10999C39.51 3.75999 48 2.74999 50.19 1.33999C50.96 0.839993 51.83 0.539993 52.74 0.429993L53.63 9.64999L54.15 15.2L54.37 17.37Z" fill="#FC961A"/>
<path d="M55.2199 28.62H0.629883V31.85H3.33988V33.57H5.82988V31.85H10.1799V33.57H12.6699V31.85H17.0199V33.57H19.5099V31.85H23.8599V33.57H26.3599V31.85H30.7099V33.57H33.1999V31.85H37.5499V33.57H40.0399V31.85H49.7999V33.57H52.2999V31.85H55.2199V28.62Z" fill="#281913"/>
<path d="M54.3598 17.37V28.61H38.5798C38.2198 27.58 38.0298 26.48 38.0298 25.32C38.0298 19.72 47.9798 15.19 53.5798 15.19C53.7698 15.19 53.9698 15.19 54.1498 15.2L54.3598 17.37Z" fill="#854714"/>
<path d="M12.7299 28.62H1.10986C1.10986 24.38 2.69986 20.39 5.87986 18.03C9.65986 19.96 12.7299 24.09 12.7299 28.62Z" fill="#854714"/>
<path d="M53.63 9.65999H50.73C46.75 9.65999 37.78 7.44999 36.02 4.10999C39.52 3.75999 48.01 2.74999 50.2 1.33999C50.97 0.839993 51.84 0.539993 52.75 0.429993L53.63 9.65999Z" fill="#854714"/>
<path d="M30.2998 4.09998V13.06C30.2998 17.11 27.0098 20.4 22.9698 20.4H13.9898C12.0698 20.4 9.04977 16.81 7.82977 15.34C7.52977 15.7 7.23977 16.05 7.00977 16.37C8.47977 18.25 11.5998 21.64 13.9898 21.64H22.9698C27.7098 21.64 31.5498 17.79 31.5498 13.05V4.18998C31.1198 4.16998 30.7098 4.12998 30.2998 4.09998Z" fill="#854714"/>
<path d="M24.4202 9.65999C25.2431 9.65999 25.9102 8.9929 25.9102 8.16999C25.9102 7.34709 25.2431 6.67999 24.4202 6.67999C23.5973 6.67999 22.9302 7.34709 22.9302 8.16999C22.9302 8.9929 23.5973 9.65999 24.4202 9.65999Z" fill="#F9D335"/>
<path d="M19.53 11.15C20.3529 11.15 21.02 10.4829 21.02 9.66004C21.02 8.83714 20.3529 8.17004 19.53 8.17004C18.7071 8.17004 18.04 8.83714 18.04 9.66004C18.04 10.4829 18.7071 11.15 19.53 11.15Z" fill="#F9D335"/>
<path d="M14.9099 13.48C15.7328 13.48 16.3999 12.8129 16.3999 11.99C16.3999 11.1671 15.7328 10.5 14.9099 10.5C14.087 10.5 13.4199 11.1671 13.4199 11.99C13.4199 12.8129 14.087 13.48 14.9099 13.48Z" fill="#F9D335"/>
<path d="M11.24 16.45C12.0629 16.45 12.73 15.7829 12.73 14.96C12.73 14.1371 12.0629 13.47 11.24 13.47C10.4171 13.47 9.75 14.1371 9.75 14.96C9.75 15.7829 10.4171 16.45 11.24 16.45Z" fill="#F9D335"/>
<path d="M23.8602 4.71002C24.1502 4.71002 24.4102 4.91002 24.4702 5.20002L25.0402 7.91002C25.1102 8.25002 24.9002 8.58002 24.5602 8.65002C24.2202 8.72002 23.8902 8.51002 23.8202 8.17002L23.2503 5.46002C23.1803 5.12002 23.3902 4.79002 23.7302 4.72002C23.7802 4.71002 23.8202 4.71002 23.8602 4.71002Z" fill="#162330"/>
<path d="M18.31 6.31002C18.51 6.33002 18.7 6.46002 18.8 6.66002L19.99 9.14002C20.14 9.45002 20.01 9.82002 19.7 9.97002C19.39 10.12 19.02 9.99002 18.87 9.68002L17.68 7.20002C17.53 6.89002 17.66 6.52002 17.97 6.37002C18.08 6.31002 18.2 6.30002 18.31 6.31002Z" fill="#162330"/>
<path d="M13.5503 8.93002C13.6403 8.98002 13.7203 9.05002 13.7803 9.14002L15.4603 11.69C15.6503 11.98 15.5703 12.36 15.2803 12.55C14.9903 12.74 14.6003 12.66 14.4203 12.37L12.7403 9.82002C12.5503 9.53002 12.6303 9.15002 12.9203 8.96002C13.1103 8.83002 13.3603 8.83002 13.5503 8.93002Z" fill="#162330"/>
<path d="M9.54007 12.25C9.57007 12.27 9.60007 12.3 9.63007 12.33L11.7101 14.52C11.9501 14.77 11.9401 15.16 11.6901 15.4C11.4401 15.64 11.0401 15.62 10.8101 15.38L8.73007 13.19C8.49007 12.94 8.50007 12.55 8.75007 12.31C8.96007 12.1 9.30007 12.08 9.54007 12.25Z" fill="#162330"/>
<path d="M56.6299 17.37V28.61H109.15C109.57 25.39 107.9 22.6 105.12 18.03C104.85 17.58 104.47 17.02 103.99 16.37C103.75 16.05 103.47 15.7 103.17 15.34C100.2 11.87 94.2699 7.05999 83.5199 5.83999V5.81999C83.5199 4.70999 82.6099 3.88999 81.5099 4.02999C81.2599 4.05999 80.9999 4.06999 80.7099 4.09999C80.2999 4.13999 79.8899 4.16999 79.4599 4.19999C78.9099 4.23999 78.3499 4.24999 77.7899 4.24999C76.8299 4.24999 75.8999 4.19999 74.9899 4.10999C71.4899 3.75999 62.9999 2.74999 60.8099 1.33999C60.0299 0.839993 59.1599 0.529993 58.2499 0.429993L57.3599 9.64999L56.8399 15.2L56.6299 17.37Z" fill="#FC961A"/>
<path d="M55.7798 28.62H110.37V31.85H107.66V33.57H105.17V31.85H100.82V33.57H98.3298V31.85H93.9798V33.57H91.4898V31.85H87.1398V33.57H84.6398V31.85H80.2898V33.57H77.7998V31.85H73.4498V33.57H70.9598V31.85H61.1998V33.57H58.6998V31.85H55.7798V28.62Z" fill="#281913"/>
<path d="M56.6396 17.37V28.61H72.4197C72.7797 27.58 72.9696 26.48 72.9696 25.32C72.9696 19.72 63.0197 15.19 57.4197 15.19C57.2297 15.19 57.0297 15.19 56.8497 15.2L56.6396 17.37Z" fill="#854714"/>
<path d="M98.27 28.62H109.89C109.89 24.38 108.3 20.39 105.12 18.03C101.34 19.96 98.27 24.09 98.27 28.62Z" fill="#854714"/>
<path d="M57.3696 9.65999H60.2696C64.2496 9.65999 73.2196 7.44999 74.9796 4.10999C71.4796 3.75999 62.9896 2.74999 60.7996 1.33999C60.0296 0.839993 59.1696 0.529993 58.2596 0.429993L57.3696 9.65999Z" fill="#854714"/>
<path d="M79.46 4.18998V13.05C79.46 17.79 83.3 21.64 88.04 21.64H97.02C99.41 21.64 102.53 18.25 104 16.37C103.76 16.05 103.48 15.7 103.18 15.34C101.96 16.81 98.94 20.4 97.02 20.4H88.03C83.99 20.4 80.7 17.11 80.7 13.06V4.09998C80.29 4.12998 79.88 4.16998 79.46 4.18998Z" fill="#854714"/>
<path d="M86.5798 9.65999C87.4027 9.65999 88.0698 8.9929 88.0698 8.16999C88.0698 7.34709 87.4027 6.67999 86.5798 6.67999C85.7569 6.67999 85.0898 7.34709 85.0898 8.16999C85.0898 8.9929 85.7569 9.65999 86.5798 9.65999Z" fill="#F9D335"/>
<path d="M91.47 11.15C92.2929 11.15 92.96 10.4829 92.96 9.66004C92.96 8.83714 92.2929 8.17004 91.47 8.17004C90.6471 8.17004 89.98 8.83714 89.98 9.66004C89.98 10.4829 90.6471 11.15 91.47 11.15Z" fill="#F9D335"/>
<path d="M96.0896 13.48C96.9125 13.48 97.5796 12.8129 97.5796 11.99C97.5796 11.1671 96.9125 10.5 96.0896 10.5C95.2667 10.5 94.5996 11.1671 94.5996 11.99C94.5996 12.8129 95.2667 13.48 96.0896 13.48Z" fill="#F9D335"/>
<path d="M99.76 16.45C100.583 16.45 101.25 15.7829 101.25 14.96C101.25 14.1371 100.583 13.47 99.76 13.47C98.9371 13.47 98.27 14.1371 98.27 14.96C98.27 15.7829 98.9371 16.45 99.76 16.45Z" fill="#F9D335"/>
<path d="M87.1397 4.71002C86.8497 4.71002 86.5897 4.91002 86.5297 5.20002L85.9597 7.91002C85.8897 8.25002 86.0997 8.58002 86.4397 8.65002C86.7797 8.72002 87.1097 8.51002 87.1797 8.17002L87.7497 5.46002C87.8197 5.12002 87.6097 4.79002 87.2697 4.72002C87.2197 4.71002 87.1797 4.71002 87.1397 4.71002Z" fill="#162330"/>
<path d="M92.6896 6.31002C92.4896 6.33002 92.2996 6.46002 92.1996 6.66002L91.0096 9.14002C90.8596 9.45002 90.9896 9.82002 91.2996 9.97002C91.6096 10.12 91.9796 9.99002 92.1296 9.68002L93.3196 7.20002C93.4696 6.89002 93.3396 6.52002 93.0296 6.37002C92.9196 6.31002 92.7996 6.30002 92.6896 6.31002Z" fill="#162330"/>
<path d="M97.4501 8.93002C97.3601 8.98002 97.2801 9.05002 97.2201 9.14002L95.5401 11.69C95.3501 11.98 95.4301 12.36 95.7201 12.55C96.0101 12.74 96.4001 12.66 96.5801 12.37L98.2601 9.82002C98.4501 9.53002 98.3701 9.15002 98.0801 8.96002C97.8901 8.83002 97.6401 8.83002 97.4501 8.93002Z" fill="#162330"/>
<path d="M101.46 12.25C101.43 12.27 101.4 12.3 101.37 12.33L99.2896 14.52C99.0496 14.77 99.0596 15.16 99.3096 15.4C99.5596 15.64 99.9596 15.62 100.19 15.38L102.27 13.19C102.51 12.94 102.5 12.55 102.25 12.31C102.04 12.1 101.7 12.08 101.46 12.25Z" fill="#162330"/>
</g>
<defs>
<clipPath id="clip0_301_8695">
<rect width="109.74" height="33.14" fill="white" transform="translate(0.629883 0.429993)"/>
</clipPath>
</defs>
</svg>
