<svg width="76" height="80" viewBox="0 0 76 80" fill="none" xmlns="http://www.w3.org/2000/svg">
<g clip-path="url(#clip0_301_15033)">
<path d="M25.25 7.40499C25.26 8.66499 25.3 10.005 25.35 11.385C25.46 14.895 25.7 18.645 25.95 22.035C26.05 23.445 26.15 24.785 26.26 26.015C26.57 29.725 26.86 32.445 26.96 32.985C27.05 33.475 27.3 35.405 27.59 37.925C27.59 37.925 27.6 37.925 27.6 37.935C27.64 38.315 27.69 38.705 27.73 39.095C27.96 40.945 28.18 43.005 28.41 44.985L28.7 47.515C29.1 51.155 29.43 54.045 29.43 54.045C28.91 55.815 28.55 57.805 28.3 59.875V59.885C28.24 60.325 28.19 60.755 28.15 61.195C27.92 63.415 27.8 65.695 27.75 67.825C27.75 68.035 27.75 68.255 27.74 68.455V68.495C27.64 74.245 28.02 78.915 28.02 78.915H43.18V75.625C43.77 75.535 44.73 75.655 45.78 75.855C46.95 76.085 48.24 76.405 49.36 76.725C50.97 77.175 52.21 77.595 52.21 77.595C64.02 80.935 75.73 78.925 75.73 78.925V72.665C75.33 67.425 71.27 64.035 67.1 61.925C65.84 61.285 64.59 60.765 63.42 60.355V60.345C63.04 60.215 62.68 60.095 62.33 59.985C57.76 58.505 54.43 54.485 54.01 49.685C53.76 46.775 53.78 43.365 53.97 39.755C54.01 39.165 54.03 38.565 54.08 37.955C54.08 37.945 54.08 37.945 54.08 37.945C54.22 35.955 54.39 33.925 54.62 31.885C54.67 31.435 54.72 30.985 54.77 30.525C55.23 26.445 55.81 22.395 56.4 18.755C56.63 17.345 56.85 16.005 57.07 14.735C58.14 8.59499 59.06 4.34499 59.06 4.34499C58.47 4.26499 57.69 4.18499 56.77 4.08499C56.76 4.08499 56.76 4.08499 56.76 4.08499C56.51 4.04499 56.26 4.02499 55.98 3.98499C54.17 3.77499 51.92 3.50499 49.46 3.23499C48.31 3.08499 47.11 2.94499 45.89 2.80499C44.27 2.61499 42.61 2.42499 40.99 2.23499C39.61 2.08499 38.24 1.92499 36.94 1.78499C35.16 1.57499 33.49 1.38499 31.99 1.20499C30.67 1.05499 29.49 0.924985 28.52 0.814985C26.7 0.614985 25.59 0.484985 25.59 0.484985C25.33 2.08499 25.23 4.54499 25.25 7.40499Z" fill="#822247"/>
<path d="M75.7297 76.825C75.3797 77.225 74.8397 77.475 74.2497 77.475C73.1197 77.475 72.1997 76.555 72.1997 75.425C72.1997 74.295 73.1197 73.375 74.2497 73.375C74.8397 73.375 75.3797 73.625 75.7297 74.025V76.825Z" fill="#D68080"/>
<path d="M65.4296 77.465C66.5563 77.465 67.4696 76.5517 67.4696 75.425C67.4696 74.2983 66.5563 73.385 65.4296 73.385C64.303 73.385 63.3896 74.2983 63.3896 75.425C63.3896 76.5517 64.303 77.465 65.4296 77.465Z" fill="#D68080"/>
<path d="M56.6098 77.465C57.7365 77.465 58.6498 76.5517 58.6498 75.425C58.6498 74.2983 57.7365 73.385 56.6098 73.385C55.4832 73.385 54.5698 74.2983 54.5698 75.425C54.5698 76.5517 55.4832 77.465 56.6098 77.465Z" fill="#D68080"/>
<path d="M45.7397 75.425C45.7397 75.575 45.7497 75.715 45.7797 75.855C46.9497 76.085 48.2397 76.405 49.3597 76.725C49.6597 76.375 49.8397 75.925 49.8397 75.435C49.8397 74.305 48.9197 73.385 47.7897 73.385C46.6597 73.375 45.7397 74.295 45.7397 75.425Z" fill="#D68080"/>
<path d="M38.9697 77.465C40.0963 77.465 41.0097 76.5517 41.0097 75.425C41.0097 74.2983 40.0963 73.385 38.9697 73.385C37.843 73.385 36.9297 74.2983 36.9297 75.425C36.9297 76.5517 37.843 77.465 38.9697 77.465Z" fill="#D68080"/>
<path d="M30.1499 77.465C31.2765 77.465 32.1899 76.5517 32.1899 75.425C32.1899 74.2983 31.2765 73.385 30.1499 73.385C29.0232 73.385 28.1099 74.2983 28.1099 75.425C28.1099 76.5517 29.0232 77.465 30.1499 77.465Z" fill="#D68080"/>
<path d="M69.8403 70.125C70.967 70.125 71.8803 69.2117 71.8803 68.085C71.8803 66.9584 70.967 66.045 69.8403 66.045C68.7136 66.045 67.8003 66.9584 67.8003 68.085C67.8003 69.2117 68.7136 70.125 69.8403 70.125Z" fill="#D68080"/>
<path d="M61.0205 70.125C62.1471 70.125 63.0605 69.2117 63.0605 68.085C63.0605 66.9584 62.1471 66.045 61.0205 66.045C59.8938 66.045 58.9805 66.9584 58.9805 68.085C58.9805 69.2117 59.8938 70.125 61.0205 70.125Z" fill="#D68080"/>
<path d="M52.2002 70.125C53.3268 70.125 54.2402 69.2117 54.2402 68.085C54.2402 66.9584 53.3268 66.045 52.2002 66.045C51.0735 66.045 50.1602 66.9584 50.1602 68.085C50.1602 69.2117 51.0735 70.125 52.2002 70.125Z" fill="#D68080"/>
<path d="M43.3803 70.125C44.507 70.125 45.4203 69.2117 45.4203 68.085C45.4203 66.9584 44.507 66.045 43.3803 66.045C42.2537 66.045 41.3403 66.9584 41.3403 68.085C41.3403 69.2117 42.2537 70.125 43.3803 70.125Z" fill="#D68080"/>
<path d="M34.56 70.125C35.6867 70.125 36.6 69.2117 36.6 68.085C36.6 66.9584 35.6867 66.045 34.56 66.045C33.4334 66.045 32.52 66.9584 32.52 68.085C32.52 69.2117 33.4334 70.125 34.56 70.125Z" fill="#D68080"/>
<path d="M27.7402 68.465C27.7702 68.335 27.7802 68.215 27.7802 68.085C27.7802 67.995 27.7802 67.905 27.7502 67.835C27.7502 68.055 27.7502 68.265 27.7402 68.465Z" fill="#D68080"/>
<path d="M63.3799 60.755C63.3799 61.885 64.2999 62.805 65.4299 62.805C66.1199 62.805 66.7399 62.455 67.0999 61.925C65.8399 61.285 64.5899 60.765 63.4199 60.355C63.3899 60.475 63.3799 60.615 63.3799 60.755Z" fill="#D68080"/>
<path d="M56.6098 62.785C57.7365 62.785 58.6498 61.8717 58.6498 60.745C58.6498 59.6184 57.7365 58.705 56.6098 58.705C55.4832 58.705 54.5698 59.6184 54.5698 60.745C54.5698 61.8717 55.4832 62.785 56.6098 62.785Z" fill="#D68080"/>
<path d="M47.79 62.785C48.9167 62.785 49.83 61.8717 49.83 60.745C49.83 59.6184 48.9167 58.705 47.79 58.705C46.6633 58.705 45.75 59.6184 45.75 60.745C45.75 61.8717 46.6633 62.785 47.79 62.785Z" fill="#D68080"/>
<path d="M38.9697 62.785C40.0963 62.785 41.0097 61.8717 41.0097 60.745C41.0097 59.6184 40.0963 58.705 38.9697 58.705C37.843 58.705 36.9297 59.6184 36.9297 60.745C36.9297 61.8717 37.843 62.785 38.9697 62.785Z" fill="#D68080"/>
<path d="M30.1499 62.785C31.2765 62.785 32.1899 61.8717 32.1899 60.745C32.1899 59.6184 31.2765 58.705 30.1499 58.705C29.0232 58.705 28.1099 59.6184 28.1099 60.745C28.1099 61.8717 29.0232 62.785 30.1499 62.785Z" fill="#D68080"/>
<path d="M52.2002 55.455C53.3268 55.455 54.2402 54.5417 54.2402 53.415C54.2402 52.2883 53.3268 51.375 52.2002 51.375C51.0735 51.375 50.1602 52.2883 50.1602 53.415C50.1602 54.5417 51.0735 55.455 52.2002 55.455Z" fill="#D68080"/>
<path d="M43.3798 55.455C44.5065 55.455 45.4198 54.5417 45.4198 53.415C45.4198 52.2883 44.5065 51.375 43.3798 51.375C42.2532 51.375 41.3398 52.2883 41.3398 53.415C41.3398 54.5417 42.2532 55.455 43.3798 55.455Z" fill="#D68080"/>
<path d="M34.56 55.455C35.6867 55.455 36.6 54.5417 36.6 53.415C36.6 52.2883 35.6867 51.375 34.56 51.375C33.4334 51.375 32.52 52.2883 32.52 53.415C32.52 54.5417 33.4334 55.455 34.56 55.455Z" fill="#D68080"/>
<path d="M47.79 48.115C48.9167 48.115 49.83 47.2017 49.83 46.075C49.83 44.9484 48.9167 44.035 47.79 44.035C46.6633 44.035 45.75 44.9484 45.75 46.075C45.75 47.2017 46.6633 48.115 47.79 48.115Z" fill="#D68080"/>
<path d="M38.9697 48.115C40.0963 48.115 41.0097 47.2017 41.0097 46.075C41.0097 44.9484 40.0963 44.035 38.9697 44.035C37.843 44.035 36.9297 44.9484 36.9297 46.075C36.9297 47.2017 37.843 48.115 38.9697 48.115Z" fill="#D68080"/>
<path d="M28.7099 47.525C29.0699 47.885 29.5799 48.115 30.1399 48.115C31.2699 48.115 32.1899 47.215 32.1899 46.075C32.1899 44.945 31.2699 44.025 30.1399 44.025C29.4099 44.025 28.7699 44.415 28.4199 44.995L28.7099 47.525Z" fill="#D68080"/>
<path d="M50.1499 38.745C50.1499 39.875 51.0699 40.785 52.1999 40.785C52.9699 40.785 53.6299 40.375 53.9699 39.755C54.0099 39.165 54.0299 38.565 54.0799 37.955C54.0799 37.945 54.0799 37.945 54.0799 37.945C53.7699 37.215 53.0399 36.705 52.1999 36.705C51.0699 36.695 50.1499 37.605 50.1499 38.745Z" fill="#D68080"/>
<path d="M43.3798 40.775C44.5065 40.775 45.4198 39.8617 45.4198 38.735C45.4198 37.6083 44.5065 36.695 43.3798 36.695C42.2532 36.695 41.3398 37.6083 41.3398 38.735C41.3398 39.8617 42.2532 40.775 43.3798 40.775Z" fill="#D68080"/>
<path d="M34.56 40.775C35.6867 40.775 36.6 39.8617 36.6 38.735C36.6 37.6083 35.6867 36.695 34.56 36.695C33.4334 36.695 32.52 37.6083 32.52 38.735C32.52 39.8617 33.4334 40.775 34.56 40.775Z" fill="#D68080"/>
<path d="M27.6099 37.945C27.6499 38.325 27.6999 38.715 27.7399 39.105C27.7699 38.995 27.7799 38.865 27.7799 38.745C27.7799 38.465 27.7099 38.185 27.6099 37.945Z" fill="#D68080"/>
<path d="M54.5601 31.405C54.5601 31.565 54.5901 31.735 54.6201 31.885C54.6701 31.435 54.7201 30.985 54.7701 30.525C54.6401 30.785 54.5601 31.085 54.5601 31.405Z" fill="#D68080"/>
<path d="M47.79 33.435C48.9167 33.435 49.83 32.5217 49.83 31.395C49.83 30.2684 48.9167 29.355 47.79 29.355C46.6633 29.355 45.75 30.2684 45.75 31.395C45.75 32.5217 46.6633 33.435 47.79 33.435Z" fill="#D68080"/>
<path d="M38.9697 33.435C40.0963 33.435 41.0097 32.5217 41.0097 31.395C41.0097 30.2684 40.0963 29.355 38.9697 29.355C37.843 29.355 36.9297 30.2684 36.9297 31.395C36.9297 32.5217 37.843 33.435 38.9697 33.435Z" fill="#D68080"/>
<path d="M30.1499 33.435C31.2765 33.435 32.1899 32.5217 32.1899 31.395C32.1899 30.2684 31.2765 29.355 30.1499 29.355C29.0232 29.355 28.1099 30.2684 28.1099 31.395C28.1099 32.5217 29.0232 33.435 30.1499 33.435Z" fill="#D68080"/>
<path d="M52.2002 26.105C53.3268 26.105 54.2402 25.1917 54.2402 24.065C54.2402 22.9384 53.3268 22.025 52.2002 22.025C51.0735 22.025 50.1602 22.9384 50.1602 24.065C50.1602 25.1917 51.0735 26.105 52.2002 26.105Z" fill="#D68080"/>
<path d="M43.3798 26.105C44.5065 26.105 45.4198 25.1917 45.4198 24.065C45.4198 22.9384 44.5065 22.025 43.3798 22.025C42.2532 22.025 41.3398 22.9384 41.3398 24.065C41.3398 25.1917 42.2532 26.105 43.3798 26.105Z" fill="#D68080"/>
<path d="M34.56 26.105C35.6867 26.105 36.6 25.1917 36.6 24.065C36.6 22.9384 35.6867 22.025 34.56 22.025C33.4334 22.025 32.52 22.9384 32.52 24.065C32.52 25.1917 33.4334 26.105 34.56 26.105Z" fill="#D68080"/>
<path d="M25.96 22.045C26.06 23.455 26.16 24.795 26.27 26.025C27.14 25.785 27.78 24.995 27.78 24.065C27.78 23.015 26.99 22.145 25.96 22.045Z" fill="#D68080"/>
<path d="M54.5601 16.725C54.5601 17.785 55.3601 18.645 56.4101 18.745C56.6401 17.335 56.8601 15.995 57.0801 14.725C56.9301 14.685 56.7801 14.675 56.6201 14.675C55.4801 14.685 54.5601 15.595 54.5601 16.725Z" fill="#D68080"/>
<path d="M47.79 18.765C48.9167 18.765 49.83 17.8517 49.83 16.725C49.83 15.5983 48.9167 14.685 47.79 14.685C46.6633 14.685 45.75 15.5983 45.75 16.725C45.75 17.8517 46.6633 18.765 47.79 18.765Z" fill="#D68080"/>
<path d="M38.9697 18.765C40.0963 18.765 41.0097 17.8517 41.0097 16.725C41.0097 15.5983 40.0963 14.685 38.9697 14.685C37.843 14.685 36.9297 15.5983 36.9297 16.725C36.9297 17.8517 37.843 18.765 38.9697 18.765Z" fill="#D68080"/>
<path d="M30.1499 18.765C31.2765 18.765 32.1899 17.8517 32.1899 16.725C32.1899 15.5983 31.2765 14.685 30.1499 14.685C29.0232 14.685 28.1099 15.5983 28.1099 16.725C28.1099 17.8517 29.0232 18.765 30.1499 18.765Z" fill="#D68080"/>
<path d="M52.2002 11.425C53.3268 11.425 54.2402 10.5117 54.2402 9.38503C54.2402 8.25837 53.3268 7.34503 52.2002 7.34503C51.0735 7.34503 50.1602 8.25837 50.1602 9.38503C50.1602 10.5117 51.0735 11.425 52.2002 11.425Z" fill="#D68080"/>
<path d="M43.3798 11.425C44.5065 11.425 45.4198 10.5117 45.4198 9.38503C45.4198 8.25837 44.5065 7.34503 43.3798 7.34503C42.2532 7.34503 41.3398 8.25837 41.3398 9.38503C41.3398 10.5117 42.2532 11.425 43.3798 11.425Z" fill="#D68080"/>
<path d="M34.56 11.425C35.6867 11.425 36.6 10.5117 36.6 9.38503C36.6 8.25837 35.6867 7.34503 34.56 7.34503C33.4334 7.34503 32.52 8.25837 32.52 9.38503C32.52 10.5117 33.4334 11.425 34.56 11.425Z" fill="#D68080"/>
<path d="M25.25 7.40502C25.26 8.66502 25.3 10.005 25.35 11.385C25.48 11.415 25.6 11.425 25.73 11.425C26.86 11.425 27.78 10.505 27.78 9.38502C27.78 8.25502 26.86 7.33502 25.73 7.33502C25.57 7.34502 25.4 7.36502 25.25 7.40502Z" fill="#D68080"/>
<path d="M55.98 3.97504C56.17 4.05504 56.38 4.08504 56.61 4.08504C56.66 4.08504 56.71 4.08504 56.76 4.07504C56.51 4.04504 56.26 4.01504 55.98 3.97504Z" fill="#D68080"/>
<path d="M45.8901 2.80499C46.1901 3.55499 46.9301 4.08499 47.7901 4.08499C48.4801 4.08499 49.0801 3.74499 49.4601 3.21499C48.3101 3.08499 47.1101 2.94499 45.8901 2.80499Z" fill="#D68080"/>
<path d="M36.9199 2.04498C36.9199 3.17498 37.8399 4.09498 38.9699 4.09498C40.0399 4.09498 40.8899 3.29498 40.9899 2.24498C39.6099 2.09498 38.2399 1.93498 36.9399 1.79498C36.9199 1.87498 36.9199 1.95498 36.9199 2.04498Z" fill="#D68080"/>
<path d="M28.1001 2.04501C28.1001 3.17501 29.0201 4.09501 30.1401 4.09501C31.2701 4.09501 32.1901 3.17501 32.1901 2.04501C32.1901 1.75501 32.1301 1.46501 32.0001 1.21501C30.6801 1.06501 29.5001 0.935012 28.5301 0.825012C28.2501 1.16501 28.1001 1.59501 28.1001 2.04501Z" fill="#D68080"/>
<path d="M0.00980154 7.40499C0.0198015 8.66499 0.0598015 10.005 0.109802 11.385C0.219802 14.895 0.459802 18.645 0.709802 22.035C0.809802 23.445 0.909801 24.785 1.0198 26.015C1.3298 29.725 1.6198 32.445 1.7198 32.985C1.8098 33.475 2.0598 35.405 2.3498 37.925C2.3498 37.925 2.3598 37.925 2.3598 37.935C2.3998 38.315 2.4498 38.705 2.4898 39.095C2.7198 40.945 2.9398 43.005 3.1698 44.985L3.4598 47.515C3.8598 51.155 4.1898 54.045 4.1898 54.045C3.6698 55.815 3.3098 57.805 3.0598 59.875V59.885C2.9998 60.325 2.9498 60.755 2.9098 61.195C2.6798 63.415 2.5598 65.695 2.5098 67.825C2.5098 68.035 2.5098 68.255 2.4998 68.455V68.495C2.3998 74.245 2.7798 78.915 2.7798 78.915H17.9398V75.625C18.5298 75.535 19.4898 75.655 20.5398 75.855C21.7098 76.085 22.9998 76.405 24.1198 76.725C25.7298 77.175 26.9698 77.595 26.9698 77.595C38.7798 80.935 50.4898 78.925 50.4898 78.925V72.665C50.0898 67.425 46.0298 64.035 41.8598 61.925C40.5998 61.285 39.3498 60.765 38.1798 60.355V60.345C37.7998 60.215 37.4398 60.095 37.0898 59.985C32.5198 58.505 29.1898 54.485 28.7698 49.685C28.5198 46.775 28.5398 43.365 28.7298 39.755C28.7698 39.165 28.7898 38.565 28.8398 37.955C28.8398 37.945 28.8398 37.945 28.8398 37.945C28.9798 35.955 29.1498 33.925 29.3798 31.885C29.4298 31.435 29.4798 30.985 29.5298 30.525C29.9898 26.445 30.5698 22.395 31.1598 18.755C31.3898 17.345 31.6098 16.005 31.8298 14.735C32.8998 8.59499 33.8198 4.34499 33.8198 4.34499C33.2298 4.26499 32.4498 4.18499 31.5298 4.08499C31.5198 4.08499 31.5198 4.08499 31.5198 4.08499C31.2698 4.04499 31.0198 4.02499 30.7398 3.98499C28.9298 3.77499 26.6798 3.50499 24.2198 3.23499C23.0598 3.09499 21.8698 2.95499 20.6498 2.82499C19.0298 2.63499 17.3698 2.44499 15.7498 2.25499C14.3698 2.10499 12.9998 1.94499 11.6998 1.80499C9.9298 1.57499 8.2598 1.38499 6.7598 1.21499C5.4398 1.06499 4.2598 0.934985 3.2898 0.824985C1.4598 0.614985 0.349802 0.484985 0.349802 0.484985C0.0898015 2.08499 -0.0101985 4.54499 0.00980154 7.40499Z" fill="#B0305C"/>
<path d="M50.4895 76.825C50.1395 77.225 49.5995 77.475 49.0095 77.475C47.8795 77.475 46.9595 76.555 46.9595 75.425C46.9595 74.295 47.8795 73.375 49.0095 73.375C49.5995 73.375 50.1395 73.625 50.4895 74.025V76.825Z" fill="#FFB5B5"/>
<path d="M40.1894 77.465C41.3161 77.465 42.2294 76.5517 42.2294 75.425C42.2294 74.2983 41.3161 73.385 40.1894 73.385C39.0628 73.385 38.1494 74.2983 38.1494 75.425C38.1494 76.5517 39.0628 77.465 40.1894 77.465Z" fill="#FFB5B5"/>
<path d="M31.3696 77.465C32.4963 77.465 33.4096 76.5517 33.4096 75.425C33.4096 74.2983 32.4963 73.385 31.3696 73.385C30.2429 73.385 29.3296 74.2983 29.3296 75.425C29.3296 76.5517 30.2429 77.465 31.3696 77.465Z" fill="#FFB5B5"/>
<path d="M20.4995 75.425C20.4995 75.575 20.5095 75.715 20.5395 75.855C21.7095 76.085 22.9995 76.405 24.1195 76.725C24.4195 76.375 24.5995 75.925 24.5995 75.435C24.5995 74.305 23.6795 73.385 22.5495 73.385C21.4195 73.375 20.4995 74.295 20.4995 75.425Z" fill="#FFB5B5"/>
<path d="M13.7295 77.465C14.8561 77.465 15.7695 76.5517 15.7695 75.425C15.7695 74.2983 14.8561 73.385 13.7295 73.385C12.6028 73.385 11.6895 74.2983 11.6895 75.425C11.6895 76.5517 12.6028 77.465 13.7295 77.465Z" fill="#FFB5B5"/>
<path d="M4.90963 77.465C6.03629 77.465 6.94963 76.5517 6.94963 75.425C6.94963 74.2983 6.03629 73.385 4.90963 73.385C3.78297 73.385 2.86963 74.2983 2.86963 75.425C2.86963 76.5517 3.78297 77.465 4.90963 77.465Z" fill="#FFB5B5"/>
<path d="M44.6001 70.125C45.7267 70.125 46.6401 69.2117 46.6401 68.085C46.6401 66.9584 45.7267 66.045 44.6001 66.045C43.4734 66.045 42.5601 66.9584 42.5601 68.085C42.5601 69.2117 43.4734 70.125 44.6001 70.125Z" fill="#FFB5B5"/>
<path d="M35.7802 70.125C36.9069 70.125 37.8202 69.2117 37.8202 68.085C37.8202 66.9584 36.9069 66.045 35.7802 66.045C34.6536 66.045 33.7402 66.9584 33.7402 68.085C33.7402 69.2117 34.6536 70.125 35.7802 70.125Z" fill="#FFB5B5"/>
<path d="M26.9599 70.125C28.0866 70.125 28.9999 69.2117 28.9999 68.085C28.9999 66.9584 28.0866 66.045 26.9599 66.045C25.8333 66.045 24.9199 66.9584 24.9199 68.085C24.9199 69.2117 25.8333 70.125 26.9599 70.125Z" fill="#FFB5B5"/>
<path d="M18.1401 70.125C19.2668 70.125 20.1801 69.2117 20.1801 68.085C20.1801 66.9584 19.2668 66.045 18.1401 66.045C17.0134 66.045 16.1001 66.9584 16.1001 68.085C16.1001 69.2117 17.0134 70.125 18.1401 70.125Z" fill="#FFB5B5"/>
<path d="M9.31979 70.125C10.4464 70.125 11.3598 69.2117 11.3598 68.085C11.3598 66.9584 10.4464 66.045 9.31979 66.045C8.19312 66.045 7.27979 66.9584 7.27979 68.085C7.27979 69.2117 8.19312 70.125 9.31979 70.125Z" fill="#FFB5B5"/>
<path d="M2.5 68.465C2.53 68.335 2.54 68.215 2.54 68.085C2.54 67.995 2.54 67.905 2.51 67.835C2.51 68.055 2.51 68.265 2.5 68.465Z" fill="#FFB5B5"/>
<path d="M38.1396 60.755C38.1396 61.885 39.0596 62.805 40.1896 62.805C40.8796 62.805 41.4996 62.455 41.8596 61.925C40.5996 61.285 39.3496 60.765 38.1796 60.355C38.1596 60.475 38.1396 60.615 38.1396 60.755Z" fill="#FFB5B5"/>
<path d="M31.3696 62.785C32.4963 62.785 33.4096 61.8717 33.4096 60.745C33.4096 59.6184 32.4963 58.705 31.3696 58.705C30.2429 58.705 29.3296 59.6184 29.3296 60.745C29.3296 61.8717 30.2429 62.785 31.3696 62.785Z" fill="#FFB5B5"/>
<path d="M22.5498 62.785C23.6764 62.785 24.5898 61.8717 24.5898 60.745C24.5898 59.6184 23.6764 58.705 22.5498 58.705C21.4231 58.705 20.5098 59.6184 20.5098 60.745C20.5098 61.8717 21.4231 62.785 22.5498 62.785Z" fill="#FFB5B5"/>
<path d="M13.7295 62.785C14.8561 62.785 15.7695 61.8717 15.7695 60.745C15.7695 59.6184 14.8561 58.705 13.7295 58.705C12.6028 58.705 11.6895 59.6184 11.6895 60.745C11.6895 61.8717 12.6028 62.785 13.7295 62.785Z" fill="#FFB5B5"/>
<path d="M4.90963 62.785C6.03629 62.785 6.94963 61.8717 6.94963 60.745C6.94963 59.6184 6.03629 58.705 4.90963 58.705C3.78297 58.705 2.86963 59.6184 2.86963 60.745C2.86963 61.8717 3.78297 62.785 4.90963 62.785Z" fill="#FFB5B5"/>
<path d="M26.9599 55.455C28.0866 55.455 28.9999 54.5417 28.9999 53.415C28.9999 52.2883 28.0866 51.375 26.9599 51.375C25.8333 51.375 24.9199 52.2883 24.9199 53.415C24.9199 54.5417 25.8333 55.455 26.9599 55.455Z" fill="#FFB5B5"/>
<path d="M18.1396 55.455C19.2663 55.455 20.1796 54.5417 20.1796 53.415C20.1796 52.2883 19.2663 51.375 18.1396 51.375C17.0129 51.375 16.0996 52.2883 16.0996 53.415C16.0996 54.5417 17.0129 55.455 18.1396 55.455Z" fill="#FFB5B5"/>
<path d="M9.31979 55.455C10.4464 55.455 11.3598 54.5417 11.3598 53.415C11.3598 52.2883 10.4464 51.375 9.31979 51.375C8.19312 51.375 7.27979 52.2883 7.27979 53.415C7.27979 54.5417 8.19312 55.455 9.31979 55.455Z" fill="#FFB5B5"/>
<path d="M22.5498 48.115C23.6764 48.115 24.5898 47.2017 24.5898 46.075C24.5898 44.9484 23.6764 44.035 22.5498 44.035C21.4231 44.035 20.5098 44.9484 20.5098 46.075C20.5098 47.2017 21.4231 48.115 22.5498 48.115Z" fill="#FFB5B5"/>
<path d="M13.7295 48.115C14.8561 48.115 15.7695 47.2017 15.7695 46.075C15.7695 44.9484 14.8561 44.035 13.7295 44.035C12.6028 44.035 11.6895 44.9484 11.6895 46.075C11.6895 47.2017 12.6028 48.115 13.7295 48.115Z" fill="#FFB5B5"/>
<path d="M3.46969 47.525C3.82969 47.885 4.33969 48.115 4.89969 48.115C6.02969 48.115 6.94969 47.215 6.94969 46.075C6.94969 44.945 6.02969 44.025 4.89969 44.025C4.16969 44.025 3.52969 44.415 3.17969 44.995L3.46969 47.525Z" fill="#FFB5B5"/>
<path d="M24.9097 38.745C24.9097 39.875 25.8297 40.785 26.9597 40.785C27.7297 40.785 28.3897 40.375 28.7297 39.755C28.7697 39.165 28.7897 38.565 28.8397 37.955C28.8397 37.945 28.8397 37.945 28.8397 37.945C28.5297 37.215 27.7997 36.705 26.9597 36.705C25.8297 36.695 24.9097 37.605 24.9097 38.745Z" fill="#FFB5B5"/>
<path d="M18.1401 40.775C19.2668 40.775 20.1801 39.8617 20.1801 38.735C20.1801 37.6083 19.2668 36.695 18.1401 36.695C17.0134 36.695 16.1001 37.6083 16.1001 38.735C16.1001 39.8617 17.0134 40.775 18.1401 40.775Z" fill="#FFB5B5"/>
<path d="M9.31979 40.775C10.4464 40.775 11.3598 39.8617 11.3598 38.735C11.3598 37.6083 10.4464 36.695 9.31979 36.695C8.19312 36.695 7.27979 37.6083 7.27979 38.735C7.27979 39.8617 8.19312 40.775 9.31979 40.775Z" fill="#FFB5B5"/>
<path d="M2.37988 37.945C2.41988 38.325 2.46988 38.715 2.50988 39.105C2.53988 38.995 2.54988 38.865 2.54988 38.745C2.53988 38.465 2.47988 38.185 2.37988 37.945Z" fill="#FFB5B5"/>
<path d="M29.3198 31.405C29.3198 31.565 29.3498 31.735 29.3798 31.885C29.4298 31.435 29.4798 30.985 29.5298 30.525C29.3998 30.785 29.3198 31.085 29.3198 31.405Z" fill="#FFB5B5"/>
<path d="M22.5498 33.435C23.6764 33.435 24.5898 32.5217 24.5898 31.395C24.5898 30.2684 23.6764 29.355 22.5498 29.355C21.4231 29.355 20.5098 30.2684 20.5098 31.395C20.5098 32.5217 21.4231 33.435 22.5498 33.435Z" fill="#FFB5B5"/>
<path d="M13.7295 33.435C14.8561 33.435 15.7695 32.5217 15.7695 31.395C15.7695 30.2684 14.8561 29.355 13.7295 29.355C12.6028 29.355 11.6895 30.2684 11.6895 31.395C11.6895 32.5217 12.6028 33.435 13.7295 33.435Z" fill="#FFB5B5"/>
<path d="M4.90963 33.435C6.03629 33.435 6.94963 32.5217 6.94963 31.395C6.94963 30.2684 6.03629 29.355 4.90963 29.355C3.78297 29.355 2.86963 30.2684 2.86963 31.395C2.86963 32.5217 3.78297 33.435 4.90963 33.435Z" fill="#FFB5B5"/>
<path d="M26.9599 26.105C28.0866 26.105 28.9999 25.1917 28.9999 24.065C28.9999 22.9384 28.0866 22.025 26.9599 22.025C25.8333 22.025 24.9199 22.9384 24.9199 24.065C24.9199 25.1917 25.8333 26.105 26.9599 26.105Z" fill="#FFB5B5"/>
<path d="M18.1396 26.105C19.2663 26.105 20.1796 25.1917 20.1796 24.065C20.1796 22.9384 19.2663 22.025 18.1396 22.025C17.0129 22.025 16.0996 22.9384 16.0996 24.065C16.0996 25.1917 17.0129 26.105 18.1396 26.105Z" fill="#FFB5B5"/>
<path d="M9.31979 26.105C10.4464 26.105 11.3598 25.1917 11.3598 24.065C11.3598 22.9384 10.4464 22.025 9.31979 22.025C8.19312 22.025 7.27979 22.9384 7.27979 24.065C7.27979 25.1917 8.19312 26.105 9.31979 26.105Z" fill="#FFB5B5"/>
<path d="M0.719727 22.045C0.819727 23.455 0.919727 24.795 1.02973 26.025C1.89973 25.785 2.53973 24.995 2.53973 24.065C2.53973 23.015 1.74973 22.145 0.719727 22.045Z" fill="#FFB5B5"/>
<path d="M29.3198 16.725C29.3198 17.785 30.1198 18.645 31.1698 18.745C31.3998 17.335 31.6198 15.995 31.8398 14.725C31.6898 14.685 31.5398 14.675 31.3798 14.675C30.2398 14.685 29.3198 15.595 29.3198 16.725Z" fill="#FFB5B5"/>
<path d="M22.5498 18.765C23.6764 18.765 24.5898 17.8517 24.5898 16.725C24.5898 15.5983 23.6764 14.685 22.5498 14.685C21.4231 14.685 20.5098 15.5983 20.5098 16.725C20.5098 17.8517 21.4231 18.765 22.5498 18.765Z" fill="#FFB5B5"/>
<path d="M13.7295 18.765C14.8561 18.765 15.7695 17.8517 15.7695 16.725C15.7695 15.5983 14.8561 14.685 13.7295 14.685C12.6028 14.685 11.6895 15.5983 11.6895 16.725C11.6895 17.8517 12.6028 18.765 13.7295 18.765Z" fill="#FFB5B5"/>
<path d="M4.90963 18.765C6.03629 18.765 6.94963 17.8517 6.94963 16.725C6.94963 15.5983 6.03629 14.685 4.90963 14.685C3.78297 14.685 2.86963 15.5983 2.86963 16.725C2.86963 17.8517 3.78297 18.765 4.90963 18.765Z" fill="#FFB5B5"/>
<path d="M26.9599 11.425C28.0866 11.425 28.9999 10.5117 28.9999 9.38503C28.9999 8.25837 28.0866 7.34503 26.9599 7.34503C25.8333 7.34503 24.9199 8.25837 24.9199 9.38503C24.9199 10.5117 25.8333 11.425 26.9599 11.425Z" fill="#FFB5B5"/>
<path d="M18.1396 11.425C19.2663 11.425 20.1796 10.5117 20.1796 9.38503C20.1796 8.25837 19.2663 7.34503 18.1396 7.34503C17.0129 7.34503 16.0996 8.25837 16.0996 9.38503C16.0996 10.5117 17.0129 11.425 18.1396 11.425Z" fill="#FFB5B5"/>
<path d="M9.31979 11.425C10.4464 11.425 11.3598 10.5117 11.3598 9.38503C11.3598 8.25837 10.4464 7.34503 9.31979 7.34503C8.19312 7.34503 7.27979 8.25837 7.27979 9.38503C7.27979 10.5117 8.19312 11.425 9.31979 11.425Z" fill="#FFB5B5"/>
<path d="M0.00976562 7.40502C0.0197656 8.66502 0.0597656 10.005 0.109766 11.385C0.239766 11.415 0.359766 11.425 0.489766 11.425C1.61977 11.425 2.53977 10.505 2.53977 9.38502C2.53977 8.25502 1.61977 7.33502 0.489766 7.33502C0.329766 7.34502 0.159766 7.36502 0.00976562 7.40502Z" fill="#FFB5B5"/>
<path d="M30.7397 3.97504C30.9297 4.05504 31.1397 4.08504 31.3697 4.08504C31.4197 4.08504 31.4697 4.08504 31.5197 4.07504C31.2697 4.04504 31.0197 4.01504 30.7397 3.97504Z" fill="#FFB5B5"/>
<path d="M20.6597 2.80499C20.9597 3.55499 21.6997 4.08499 22.5597 4.08499C23.2497 4.08499 23.8497 3.74499 24.2297 3.21499C23.0697 3.08499 21.8697 2.94499 20.6597 2.80499Z" fill="#FFB5B5"/>
<path d="M11.6895 2.04498C11.6895 3.17498 12.6095 4.09498 13.7395 4.09498C14.8095 4.09498 15.6595 3.29498 15.7595 2.24498C14.3795 2.09498 13.0095 1.93498 11.7095 1.79498C11.6895 1.87498 11.6895 1.95498 11.6895 2.04498Z" fill="#FFB5B5"/>
<path d="M2.86963 2.04501C2.86963 3.17501 3.78963 4.09501 4.90963 4.09501C6.03963 4.09501 6.95963 3.17501 6.95963 2.04501C6.95963 1.75501 6.89963 1.46501 6.76963 1.21501C5.44963 1.06501 4.26963 0.935012 3.29963 0.825012C3.01963 1.16501 2.86963 1.59501 2.86963 2.04501Z" fill="#FFB5B5"/>
</g>
<defs>
<clipPath id="clip0_301_15033">
<rect width="75.72" height="79.03" fill="white" transform="translate(0.00976562 0.484985)"/>
</clipPath>
</defs>
</svg>
