<svg width="90" height="18" viewBox="0 0 90 18" fill="none" xmlns="http://www.w3.org/2000/svg">
<g clip-path="url(#clip0_301_11972)">
<path d="M55.0303 14.14C55.0303 14.14 66.1903 2.19 80.4903 0.270005C80.4903 0.270005 84.3103 -0.579995 81.4303 3.42C81.4303 3.42 81.3003 1.88 80.3303 1.94C78.8303 2.04 68.6303 4.99 58.5703 13.78C56.5003 15.6 56.7003 12.8 55.0303 14.14Z" fill="#489DD7"/>
<path d="M89.2001 12.9H46.6001V17.8H89.2001V12.9Z" fill="#F7ECB9"/>
<path d="M34.8903 14.14C34.8903 14.14 23.7303 2.19 9.43027 0.270005C9.43027 0.270005 5.61027 -0.579995 8.49027 3.42C8.49027 3.42 8.62027 1.88 9.59027 1.94C11.0903 2.04 21.2903 4.99 31.3503 13.78C33.4303 15.6 33.2203 12.8 34.8903 14.14Z" fill="#489DD7"/>
<path d="M0.724709 17.8017L43.3247 17.8017L43.3247 12.9017L0.724709 12.9017L0.724709 17.8017Z" fill="#F7ECB9"/>
</g>
<defs>
<clipPath id="clip0_301_11972">
<rect width="88.48" height="17.6" fill="white" transform="translate(0.720215 0.200012)"/>
</clipPath>
</defs>
</svg>
