<svg width="80" height="44" viewBox="0 0 80 44" fill="none" xmlns="http://www.w3.org/2000/svg">
<g clip-path="url(#clip0_301_6183)">
<path d="M41.5601 4.65002V24.83C41.5601 24.83 41.5601 27.79 41.5601 30.33C41.5601 34.85 41.5601 40.15 41.5601 40.15H77.4601C77.4601 32.55 72.0701 28.19 66.6601 25.73C66.0401 25.45 65.4201 25.19 64.8001 24.95C63.0301 24.27 61.3301 23.78 59.8801 23.43C59.0801 23.23 58.3501 23.08 57.7401 22.97C56.6501 22.76 55.9101 22.67 55.7001 22.63V4.65002H41.5601Z" fill="#FB374F"/>
<path d="M42.4402 5.29001H55.4602C56.6802 5.29001 57.6602 4.30001 57.6602 3.09001V2.96001C57.6602 1.74001 56.6702 0.76001 55.4602 0.76001H42.4402C41.2202 0.76001 40.2402 1.75001 40.2402 2.96001V3.09001C40.2402 4.31001 41.2302 5.29001 42.4402 5.29001Z" fill="#E2D9DA"/>
<path d="M40.8217 43.2394L79.2617 43.2394L79.2617 39.5194L40.8217 39.5194L40.8217 43.2394Z" fill="#E2D9DA"/>
<path d="M59.7502 31.88C59.9302 32.05 60.1602 32.14 60.3802 32.14C60.6402 32.14 60.8902 32.04 61.0802 31.83L66.8702 25.48C66.2502 25.2 65.6302 24.94 65.0102 24.7L59.6802 30.55C59.3402 30.93 59.3602 31.53 59.7502 31.88Z" fill="#FFF7FA"/>
<path d="M51.8004 30.77C51.9804 30.94 52.2204 31.03 52.4404 31.03C52.7004 31.03 52.9504 30.93 53.1304 30.73L59.9504 23.35C59.1504 23.15 58.4204 23 57.8104 22.89L51.7504 29.45C51.3904 29.81 51.4204 30.42 51.8004 30.77Z" fill="#FFF7FA"/>
<path d="M38.0201 4.65002V24.83C38.0201 24.83 38.0201 27.79 38.0201 30.33C38.0201 34.85 38.0201 40.15 38.0201 40.15H2.12012C2.12012 32.55 7.51012 28.19 12.9201 25.73C13.5401 25.45 14.1601 25.19 14.7801 24.95C16.5501 24.27 18.2501 23.78 19.7001 23.43C20.5001 23.23 21.2301 23.08 21.8401 22.97C22.9301 22.76 23.6701 22.67 23.8801 22.63V4.65002H38.0201Z" fill="#C62C3F"/>
<path d="M37.1302 5.29001H24.1102C22.8902 5.29001 21.9102 4.30001 21.9102 3.09001V2.96001C21.9102 1.74001 22.9002 0.76001 24.1102 0.76001H37.1302C38.3502 0.76001 39.3302 1.75001 39.3302 2.96001V3.09001C39.3402 4.31001 38.3502 5.29001 37.1302 5.29001Z" fill="#C2B6B7"/>
<path d="M38.7501 39.52H0.310059V43.24H38.7501V39.52Z" fill="#C2B6B7"/>
<path d="M19.8202 31.88C19.6402 32.05 19.4102 32.14 19.1902 32.14C18.9302 32.14 18.6802 32.04 18.4902 31.83L12.7002 25.48C13.3202 25.2 13.9402 24.94 14.5602 24.7L19.8902 30.55C20.2402 30.93 20.2102 31.53 19.8202 31.88Z" fill="#CFCDCF"/>
<path d="M27.7799 30.77C27.5999 30.94 27.3599 31.03 27.1399 31.03C26.8799 31.03 26.6299 30.93 26.4499 30.73L19.6299 23.35C20.4299 23.15 21.1599 23 21.7699 22.89L27.8299 29.45C28.1799 29.81 28.1499 30.42 27.7799 30.77Z" fill="#CFCDCF"/>
</g>
<defs>
<clipPath id="clip0_301_6183">
<rect width="78.96" height="42.48" fill="white" transform="translate(0.310059 0.76001)"/>
</clipPath>
</defs>
</svg>
