<svg width="60" height="22" viewBox="0 0 60 22" fill="none" xmlns="http://www.w3.org/2000/svg">
<g clip-path="url(#clip0_301_14867)">
<path d="M20.21 17.53V10.56L44.69 0.960022C44.69 0.960022 58.81 5.67002 59.56 17.53H20.21Z" fill="#CE8017"/>
<path d="M20.2052 21.1076L59.5552 21.1076L59.5552 17.5276L20.2052 17.5276L20.2052 21.1076Z" fill="#F1EDB9"/>
<path d="M47.3201 9.24005C48.6842 9.24005 49.7901 8.13419 49.7901 6.77005C49.7901 5.40591 48.6842 4.30005 47.3201 4.30005C45.956 4.30005 44.8501 5.40591 44.8501 6.77005C44.8501 8.13419 45.956 9.24005 47.3201 9.24005Z" fill="#162330"/>
<path d="M52.9002 13.57C54.2643 13.57 55.3702 12.4641 55.3702 11.1C55.3702 9.73586 54.2643 8.63 52.9002 8.63C51.536 8.63 50.4302 9.73586 50.4302 11.1C50.4302 12.4641 51.536 13.57 52.9002 13.57Z" fill="#162330"/>
<path d="M52.6899 11.32C52.6899 11.32 54.2999 9.72001 55.9399 8.64001" stroke="#FAFAFA" stroke-width="2" stroke-miterlimit="10" stroke-linecap="round"/>
<path d="M47.5503 6.77003C47.5503 6.77003 49.1603 5.17003 50.8003 4.09003" stroke="#FAFAFA" stroke-width="2" stroke-miterlimit="10" stroke-linecap="round"/>
<path d="M30.0801 11.83C30.3201 10.37 31.5901 9.25 33.1201 9.25C34.6501 9.25 35.9101 10.37 36.1601 11.83H30.0801Z" fill="#FBF6D1"/>
<path d="M30.0801 14.68C30.3201 13.22 31.5901 12.1 33.1201 12.1C34.6501 12.1 35.9101 13.22 36.1601 14.68H30.0801Z" fill="#FBF6D1"/>
<path d="M28.3901 14.08C28.1501 15.54 26.8801 16.66 25.3501 16.66C23.8201 16.66 22.5601 15.54 22.3101 14.08H28.3901Z" fill="#FBF6D1"/>
<path d="M28.3901 11.22C28.1501 12.68 26.8801 13.8 25.3501 13.8C23.8201 13.8 22.5601 12.68 22.3101 11.22H28.3901Z" fill="#FBF6D1"/>
<path d="M43.9198 11.5C43.6798 12.96 42.4098 14.08 40.8798 14.08C39.3498 14.08 38.0898 12.96 37.8398 11.5H43.9198Z" fill="#FBF6D1"/>
<path d="M0 17.46V10.49L24.48 0.890015C24.48 0.890015 38.6 5.60001 39.35 17.46H0Z" fill="#FC9E17"/>
<path d="M0.00254059 21.0364L39.3525 21.0364L39.3525 17.4564L0.00254059 17.4564L0.00254059 21.0364Z" fill="#F1EDB9"/>
<path d="M27.1101 9.17004C28.4743 9.17004 29.5801 8.06418 29.5801 6.70004C29.5801 5.3359 28.4743 4.23004 27.1101 4.23004C25.746 4.23004 24.6401 5.3359 24.6401 6.70004C24.6401 8.06418 25.746 9.17004 27.1101 9.17004Z" fill="#162330"/>
<path d="M32.6902 13.5C34.0544 13.5 35.1602 12.3941 35.1602 11.03C35.1602 9.66585 34.0544 8.56 32.6902 8.56C31.3261 8.56 30.2202 9.66585 30.2202 11.03C30.2202 12.3941 31.3261 13.5 32.6902 13.5Z" fill="#162330"/>
<path d="M32.48 11.25C32.48 11.25 34.09 9.65001 35.73 8.57001" stroke="#FAFAFA" stroke-width="2" stroke-miterlimit="10" stroke-linecap="round"/>
<path d="M27.3501 6.70002C27.3501 6.70002 28.9601 5.10002 30.6001 4.02002" stroke="#FAFAFA" stroke-width="2" stroke-miterlimit="10" stroke-linecap="round"/>
<path d="M9.87012 11.76C10.1101 10.3 11.3801 9.17999 12.9101 9.17999C14.4401 9.17999 15.7001 10.3 15.9501 11.76H9.87012Z" fill="#FBF6D1"/>
<path d="M9.87012 14.61C10.1101 13.15 11.3801 12.03 12.9101 12.03C14.4401 12.03 15.7001 13.15 15.9501 14.61H9.87012Z" fill="#FBF6D1"/>
<path d="M8.1801 14.01C7.9401 15.47 6.6701 16.59 5.1401 16.59C3.6101 16.59 2.3501 15.47 2.1001 14.01H8.1801Z" fill="#FBF6D1"/>
<path d="M8.1801 11.15C7.9401 12.61 6.6701 13.73 5.1401 13.73C3.6101 13.73 2.3501 12.61 2.1001 11.15H8.1801Z" fill="#FBF6D1"/>
<path d="M23.7201 11.43C23.4801 12.89 22.2101 14.01 20.6801 14.01C19.1501 14.01 17.8901 12.89 17.6401 11.43H23.7201Z" fill="#FBF6D1"/>
</g>
<defs>
<clipPath id="clip0_301_14867">
<rect width="59.56" height="20.22" fill="white" transform="translate(0 0.890015)"/>
</clipPath>
</defs>
</svg>
