<svg width="63" height="28" viewBox="0 0 63 28" fill="none" xmlns="http://www.w3.org/2000/svg">
<g clip-path="url(#clip0_301_14983)">
<path d="M23.6201 14.3V23.32H61.4101C61.7501 20.74 60.4101 18.5 58.1801 14.83C57.9601 14.47 57.6601 14.02 57.2701 13.5C57.0801 13.24 56.8501 12.96 56.6101 12.67C54.2301 9.89002 49.4701 6.03002 40.8501 5.05002V5.03002C40.8501 4.14002 40.1201 3.48002 39.2401 3.59002C39.0401 3.62002 38.8301 3.63002 38.5901 3.65002C38.2601 3.68002 37.9301 3.71002 37.5901 3.73002C37.1501 3.76002 36.7001 3.77002 36.2501 3.77002C35.4801 3.77002 34.7301 3.73002 34.0001 3.66002C31.1901 3.38002 28.7301 2.57002 26.9601 1.44002C26.3401 1.04002 25.6501 0.790022 24.9201 0.710022L24.2101 8.11002L23.7901 12.56L23.6201 14.3Z" fill="#FC961A"/>
<path d="M22.9399 23.32H62.3799V25.91H60.2099V27.29H58.2099V25.91H54.7199V27.29H52.7199V25.91H49.2299V27.29H47.2299V25.91H43.7499V27.29H41.7499V25.91H38.2599V27.29H36.2599V25.91H32.7699V27.29H30.7699V25.91H27.2799V27.29H25.2799V25.91H22.9399V23.32Z" fill="#281913"/>
<path d="M23.6201 14.3V23.32H31.9401C32.2301 22.49 32.3801 21.61 32.3801 20.68C32.3801 16.19 28.7401 12.55 24.2501 12.55C24.1001 12.55 23.9401 12.55 23.7901 12.56L23.6201 14.3Z" fill="#854714"/>
<path d="M52.6802 23.32H62.0002C62.0002 19.92 60.7302 16.72 58.1702 14.83C55.1402 16.37 52.6802 19.69 52.6802 23.32Z" fill="#854714"/>
<path d="M24.21 8.11002H26.54C29.73 8.11002 32.59 6.34002 34 3.66002C31.19 3.38002 28.73 2.57002 26.96 1.44002C26.34 1.04002 25.65 0.800022 24.92 0.710022L24.21 8.11002Z" fill="#854714"/>
<path d="M37.5898 3.73002V10.84C37.5898 14.64 40.6698 17.73 44.4698 17.73H51.6698C53.5898 17.73 56.0898 15.01 57.2698 13.5C57.0798 13.24 56.8498 12.96 56.6098 12.67C55.6298 13.85 53.2098 16.73 51.6698 16.73H44.4698C41.2298 16.73 38.5898 14.09 38.5898 10.84V3.65002C38.2598 3.68002 37.9298 3.71002 37.5898 3.73002Z" fill="#854714"/>
<path d="M43.2999 8.11004C43.9571 8.11004 44.4899 7.57726 44.4899 6.92004C44.4899 6.26282 43.9571 5.73004 43.2999 5.73004C42.6426 5.73004 42.1099 6.26282 42.1099 6.92004C42.1099 7.57726 42.6426 8.11004 43.2999 8.11004Z" fill="#F9D335"/>
<path d="M47.2198 9.30004C47.877 9.30004 48.4098 8.76726 48.4098 8.11004C48.4098 7.45283 47.877 6.92004 47.2198 6.92004C46.5626 6.92004 46.0298 7.45283 46.0298 8.11004C46.0298 8.76726 46.5626 9.30004 47.2198 9.30004Z" fill="#F9D335"/>
<path d="M50.9297 11.17C51.587 11.17 52.1197 10.6373 52.1197 9.98004C52.1197 9.32282 51.587 8.79004 50.9297 8.79004C50.2725 8.79004 49.7397 9.32282 49.7397 9.98004C49.7397 10.6373 50.2725 11.17 50.9297 11.17Z" fill="#F9D335"/>
<path d="M53.8697 13.56C54.5269 13.56 55.0597 13.0272 55.0597 12.37C55.0597 11.7128 54.5269 11.18 53.8697 11.18C53.2125 11.18 52.6797 11.7128 52.6797 12.37C52.6797 13.0272 53.2125 13.56 53.8697 13.56Z" fill="#F9D335"/>
<path d="M43.7496 4.14001C43.5196 4.14001 43.3096 4.30001 43.2596 4.54001L42.7996 6.71001C42.7396 6.98001 42.9196 7.25001 43.1896 7.30001C43.4596 7.36001 43.7296 7.18001 43.7796 6.91001L44.2396 4.74001C44.2996 4.47001 44.1196 4.20001 43.8496 4.15001C43.8196 4.14001 43.7796 4.14001 43.7496 4.14001Z" fill="#162330"/>
<path d="M48.1997 5.43C48.0397 5.45 47.8897 5.55 47.8097 5.71L46.8497 7.7C46.7297 7.95 46.8397 8.25 47.0797 8.37C47.3297 8.49 47.6297 8.39 47.7497 8.14L48.7097 6.15C48.8297 5.9 48.7197 5.6 48.4797 5.48C48.3897 5.43 48.2897 5.42 48.1997 5.43Z" fill="#162330"/>
<path d="M52.02 7.53002C51.95 7.57002 51.88 7.62002 51.83 7.70002L50.49 9.75002C50.34 9.98002 50.4 10.29 50.63 10.44C50.86 10.59 51.17 10.53 51.32 10.3L52.66 8.25002C52.81 8.02002 52.75 7.71002 52.52 7.56002C52.37 7.45002 52.17 7.45002 52.02 7.53002Z" fill="#162330"/>
<path d="M55.2397 10.2C55.2097 10.22 55.1897 10.24 55.1697 10.26L53.4997 12.02C53.3097 12.22 53.3197 12.54 53.5197 12.73C53.7197 12.92 54.0397 12.91 54.2297 12.71L55.8997 10.95C56.0897 10.75 56.0797 10.43 55.8797 10.24C55.6997 10.07 55.4297 10.06 55.2397 10.2Z" fill="#162330"/>
<path d="M1.62012 14.3V23.32H39.4101C39.7501 20.74 38.4101 18.5 36.1801 14.83C35.9601 14.47 35.6601 14.02 35.2701 13.5C35.0801 13.24 34.8501 12.96 34.6101 12.67C32.2301 9.89002 27.4701 6.03002 18.8501 5.05002V5.03002C18.8501 4.14002 18.1201 3.48002 17.2401 3.59002C17.0401 3.62002 16.8301 3.63002 16.5901 3.65002C16.2601 3.68002 15.9301 3.71002 15.5901 3.73002C15.1501 3.76002 14.7001 3.77002 14.2501 3.77002C13.4801 3.77002 12.7301 3.73002 12.0001 3.66002C9.19012 3.38002 6.73012 2.57002 4.96012 1.44002C4.35012 1.04002 3.65012 0.790022 2.92012 0.710022L2.21012 8.11002L1.79012 12.56L1.62012 14.3Z" fill="#FC961A"/>
<path d="M0.939941 23.32H40.3899V25.91H38.2199V27.29H36.2199V25.91H32.7299V27.29H30.7299V25.91H27.2399V27.29H25.2399V25.91H21.7499V27.29H19.7499V25.91H16.2599V27.29H14.2599V25.91H10.7699V27.29H8.76994V25.91H5.27994V27.29H3.27994V25.91H0.939941V23.32Z" fill="#281913"/>
<path d="M1.62012 14.3V23.32H9.94012C10.2301 22.49 10.3801 21.61 10.3801 20.68C10.3801 16.19 6.74012 12.55 2.25012 12.55C2.10012 12.55 1.94012 12.55 1.79012 12.56L1.62012 14.3Z" fill="#854714"/>
<path d="M30.6802 23.32H40.0002C40.0002 19.92 38.7302 16.72 36.1702 14.83C33.1402 16.37 30.6802 19.69 30.6802 23.32Z" fill="#854714"/>
<path d="M2.20996 8.11002H4.53996C7.72996 8.11002 10.59 6.34002 12 3.66002C9.19996 3.38002 6.72996 2.57002 4.96996 1.44002C4.34996 1.04002 3.64996 0.790022 2.91996 0.710022L2.20996 8.11002Z" fill="#854714"/>
<path d="M15.5898 3.73002V10.84C15.5898 14.64 18.6698 17.73 22.4698 17.73H29.6698C31.5898 17.73 34.0898 15.01 35.2698 13.5C35.0798 13.24 34.8498 12.96 34.6098 12.67C33.6298 13.85 31.2098 16.73 29.6698 16.73H22.4698C19.2298 16.73 16.5898 14.09 16.5898 10.84V3.65002C16.2598 3.68002 15.9298 3.71002 15.5898 3.73002Z" fill="#854714"/>
<path d="M21.2999 8.11004C21.9571 8.11004 22.4899 7.57726 22.4899 6.92004C22.4899 6.26282 21.9571 5.73004 21.2999 5.73004C20.6426 5.73004 20.1099 6.26282 20.1099 6.92004C20.1099 7.57726 20.6426 8.11004 21.2999 8.11004Z" fill="#F9D335"/>
<path d="M25.2198 9.30004C25.877 9.30004 26.4098 8.76726 26.4098 8.11004C26.4098 7.45283 25.877 6.92004 25.2198 6.92004C24.5626 6.92004 24.0298 7.45283 24.0298 8.11004C24.0298 8.76726 24.5626 9.30004 25.2198 9.30004Z" fill="#F9D335"/>
<path d="M28.9297 11.17C29.587 11.17 30.1197 10.6373 30.1197 9.98004C30.1197 9.32282 29.587 8.79004 28.9297 8.79004C28.2725 8.79004 27.7397 9.32282 27.7397 9.98004C27.7397 10.6373 28.2725 11.17 28.9297 11.17Z" fill="#F9D335"/>
<path d="M31.8697 13.56C32.5269 13.56 33.0597 13.0272 33.0597 12.37C33.0597 11.7128 32.5269 11.18 31.8697 11.18C31.2125 11.18 30.6797 11.7128 30.6797 12.37C30.6797 13.0272 31.2125 13.56 31.8697 13.56Z" fill="#F9D335"/>
<path d="M21.7499 4.14001C21.5199 4.14001 21.3099 4.30001 21.2599 4.54001L20.8099 6.71001C20.7499 6.98001 20.9299 7.25001 21.1999 7.30001C21.4699 7.36001 21.7399 7.18001 21.7899 6.91001L22.2499 4.74001C22.3099 4.47001 22.1299 4.20001 21.8599 4.15001C21.8199 4.14001 21.7899 4.14001 21.7499 4.14001Z" fill="#162330"/>
<path d="M26.1997 5.43C26.0397 5.45 25.8897 5.55 25.8097 5.71L24.8497 7.7C24.7297 7.95 24.8397 8.25 25.0797 8.37C25.3297 8.49 25.6297 8.39 25.7497 8.14L26.7097 6.15C26.8297 5.9 26.7197 5.6 26.4797 5.48C26.3897 5.43 26.2897 5.42 26.1997 5.43Z" fill="#162330"/>
<path d="M30.02 7.53002C29.95 7.57002 29.88 7.62002 29.83 7.70002L28.49 9.75002C28.34 9.98002 28.4 10.29 28.63 10.44C28.86 10.59 29.17 10.53 29.32 10.3L30.66 8.25002C30.81 8.02002 30.75 7.71002 30.52 7.56002C30.37 7.45002 30.18 7.45002 30.02 7.53002Z" fill="#162330"/>
<path d="M33.2397 10.2C33.2097 10.22 33.1897 10.24 33.1697 10.26L31.4997 12.02C31.3097 12.22 31.3197 12.54 31.5197 12.73C31.7197 12.92 32.0397 12.91 32.2297 12.71L33.8997 10.95C34.0897 10.75 34.0797 10.43 33.8797 10.24C33.6997 10.07 33.4297 10.06 33.2397 10.2Z" fill="#162330"/>
</g>
<defs>
<clipPath id="clip0_301_14983">
<rect width="61.44" height="26.58" fill="white" transform="translate(0.939941 0.710022)"/>
</clipPath>
</defs>
</svg>
