<svg width="120" height="86" viewBox="0 0 120 86" fill="none" xmlns="http://www.w3.org/2000/svg">
<g clip-path="url(#clip0_318_11230)">
<path d="M37.8203 72.72L55.6903 65V68L38.7203 74.7L37.8203 72.72Z" fill="#FC9221"/>
<path d="M42.28 81.09L28.23 82.37L24.79 70.75C25.16 70.45 25.71 70.08 26.38 69.65C26.65 69.49 26.94 69.31 27.24 69.13C27.86 68.76 28.54 68.37 29.22 67.98C29.52 67.82 29.81 67.66 30.1 67.5C30.85 67.08 31.59 66.68 32.25 66.33C32.57 66.16 32.87 66 33.14 65.85C34.11 65.34 34.75 65.01 34.75 65.01L42.28 81.09Z" fill="#FBA33D"/>
<path d="M39.92 80.53L39.01 80.95L32.25 66.33C32.57 66.16 32.87 66 33.14 65.85L39.92 80.53Z" fill="#E18A1D"/>
<path d="M36.2802 80.86L35.3802 81.28L29.2202 67.98C29.5202 67.82 29.8102 67.66 30.1002 67.5L36.2802 80.86Z" fill="#E18A1D"/>
<path d="M33.0004 81.58L32.0904 82L26.3804 69.65C26.6504 69.49 26.9404 69.31 27.2404 69.13L33.0004 81.58Z" fill="#E18A1D"/>
<path d="M55.7002 78.28V85.3H19.6802V80.58L55.7002 78.28Z" fill="#111E2B"/>
<path d="M27.4701 82.41H25.5801V85.3H27.4701V82.41Z" fill="#414B55"/>
<path d="M41.8004 82.41H39.9204V85.3H41.8004V82.41Z" fill="#414B55"/>
<path d="M47.0404 82.41H45.1504V85.3H47.0404V82.41Z" fill="#414B55"/>
<path d="M52.2701 82.41H50.3901V85.3H52.2701V82.41Z" fill="#414B55"/>
<path d="M82.1801 72.72L64.3101 65V68L81.2801 74.7L82.1801 72.72Z" fill="#FC9221"/>
<path d="M77.7202 81.09L91.7702 82.37L95.2102 70.75C94.8402 70.45 94.2902 70.08 93.6202 69.65C93.3502 69.49 93.0602 69.31 92.7602 69.13C92.1402 68.76 91.4602 68.37 90.7802 67.98C90.4802 67.82 90.1902 67.66 89.9002 67.5C89.1502 67.08 88.4102 66.68 87.7502 66.33C87.4302 66.16 87.1302 66 86.8602 65.85C85.8902 65.34 85.2502 65.01 85.2502 65.01L77.7202 81.09Z" fill="#FBA33D"/>
<path d="M80.0801 80.53L80.9901 80.95L87.7501 66.33C87.4301 66.16 87.1301 66 86.8601 65.85L80.0801 80.53Z" fill="#E18A1D"/>
<path d="M83.7202 80.86L84.6202 81.28L90.7802 67.98C90.4802 67.82 90.1902 67.66 89.9002 67.5L83.7202 80.86Z" fill="#E18A1D"/>
<path d="M87.0005 81.58L87.9105 82L93.6205 69.65C93.3505 69.49 93.0605 69.31 92.7605 69.13L87.0005 81.58Z" fill="#E18A1D"/>
<path d="M64.3003 78.28V85.3H100.32V80.58L64.3003 78.28Z" fill="#111E2B"/>
<path d="M94.4203 82.41H92.5303V85.3H94.4203V82.41Z" fill="#414B55"/>
<path d="M80.0802 82.41H78.2002V85.3H80.0802V82.41Z" fill="#414B55"/>
<path d="M74.8504 82.41H72.9604V85.3H74.8504V82.41Z" fill="#414B55"/>
<path d="M69.6105 82.41H67.7305V85.3H69.6105V82.41Z" fill="#414B55"/>
</g>
<defs>
<clipPath id="clip0_318_11230">
<rect width="120" height="85" fill="white" transform="translate(0 0.5)"/>
</clipPath>
</defs>
</svg>
