<svg width="85" height="54" viewBox="0 0 85 54" fill="none" xmlns="http://www.w3.org/2000/svg">
<g clip-path="url(#clip0_301_6203)">
<path d="M42.33 52.87H28.97V49.97C28.44 49.89 27.6 49.99 26.67 50.17C25.64 50.37 24.5 50.66 23.52 50.93C22.1 51.33 21 51.7 21 51.7C10.59 54.65 0.27002 52.87 0.27002 52.87V47.36C0.62002 42.74 4.20002 39.75 7.88002 37.89C8.98002 37.32 10.09 36.87 11.12 36.5V36.49C11.45 36.38 11.78 36.27 12.09 36.17C16.12 34.86 19.05 31.32 19.42 27.09C19.64 24.52 19.62 21.52 19.45 18.34C19.42 17.82 19.4 17.29 19.35 16.75C19.35 16.74 19.35 16.74 19.35 16.74C19.23 14.99 19.07 13.2 18.87 11.4C18.83 11.01 18.79 10.61 18.74 10.21C18.33 6.60998 17.86 2.72998 17.86 2.72998C18.38 2.66998 41.3 0.599976 41.3 0.599976C41.27 1.07998 41.23 4.72998 41.2 9.33998C41.19 10.39 41.18 11.5 41.17 12.63C41.15 15.84 41.14 19.24 41.12 22.24C41.11 23.44 41.11 24.57 41.1 25.59C41.09 28.78 41.08 30.95 41.08 30.95C41.54 32.52 41.86 34.27 42.08 36.09V36.1C42.13 36.49 42.18 36.87 42.21 37.26C42.41 39.22 42.52 41.22 42.57 43.1C42.57 43.29 42.57 43.48 42.58 43.66V43.69C42.67 48.76 42.33 52.87 42.33 52.87Z" fill="#B0305C"/>
<path d="M0.27002 51.02C0.58002 51.38 1.06002 51.6 1.58002 51.6C2.58002 51.6 3.39002 50.79 3.39002 49.79C3.39002 48.79 2.58002 47.98 1.58002 47.98C1.06002 47.98 0.58002 48.2 0.27002 48.56V51.02Z" fill="#FFB5B5"/>
<path d="M9.3498 51.59C10.3439 51.59 11.1498 50.7841 11.1498 49.79C11.1498 48.7959 10.3439 47.99 9.3498 47.99C8.35569 47.99 7.5498 48.7959 7.5498 49.79C7.5498 50.7841 8.35569 51.59 9.3498 51.59Z" fill="#FFB5B5"/>
<path d="M17.1301 51.59C18.1242 51.59 18.9301 50.7841 18.9301 49.79C18.9301 48.7959 18.1242 47.99 17.1301 47.99C16.136 47.99 15.3301 48.7959 15.3301 49.79C15.3301 50.7841 16.136 51.59 17.1301 51.59Z" fill="#FFB5B5"/>
<path d="M26.7101 49.79C26.7101 49.92 26.7001 50.04 26.6801 50.17C25.6501 50.37 24.5101 50.66 23.5201 50.93C23.2501 50.62 23.1001 50.22 23.1001 49.79C23.1001 48.79 23.9101 47.98 24.9101 47.98C25.9001 47.99 26.7101 48.8 26.7101 49.79Z" fill="#FFB5B5"/>
<path d="M32.6799 51.59C33.674 51.59 34.4799 50.7841 34.4799 49.79C34.4799 48.7959 33.674 47.99 32.6799 47.99C31.6858 47.99 30.8799 48.7959 30.8799 49.79C30.8799 50.7841 31.6858 51.59 32.6799 51.59Z" fill="#FFB5B5"/>
<path d="M40.4602 51.59C41.4543 51.59 42.2602 50.7841 42.2602 49.79C42.2602 48.7959 41.4543 47.99 40.4602 47.99C39.466 47.99 38.6602 48.7959 38.6602 49.79C38.6602 50.7841 39.466 51.59 40.4602 51.59Z" fill="#FFB5B5"/>
<path d="M5.46016 45.12C6.45427 45.12 7.26016 44.3141 7.26016 43.32C7.26016 42.3258 6.45427 41.52 5.46016 41.52C4.46604 41.52 3.66016 42.3258 3.66016 43.32C3.66016 44.3141 4.46604 45.12 5.46016 45.12Z" fill="#FFB5B5"/>
<path d="M13.2399 45.12C14.2341 45.12 15.0399 44.3141 15.0399 43.32C15.0399 42.3258 14.2341 41.52 13.2399 41.52C12.2458 41.52 11.4399 42.3258 11.4399 43.32C11.4399 44.3141 12.2458 45.12 13.2399 45.12Z" fill="#FFB5B5"/>
<path d="M21.0202 45.12C22.0143 45.12 22.8202 44.3141 22.8202 43.32C22.8202 42.3258 22.0143 41.52 21.0202 41.52C20.0261 41.52 19.2202 42.3258 19.2202 43.32C19.2202 44.3141 20.0261 45.12 21.0202 45.12Z" fill="#FFB5B5"/>
<path d="M28.7902 45.12C29.7843 45.12 30.5902 44.3141 30.5902 43.32C30.5902 42.3258 29.7843 41.52 28.7902 41.52C27.7961 41.52 26.9902 42.3258 26.9902 43.32C26.9902 44.3141 27.7961 45.12 28.7902 45.12Z" fill="#FFB5B5"/>
<path d="M36.57 45.12C37.5641 45.12 38.37 44.3141 38.37 43.32C38.37 42.3258 37.5641 41.52 36.57 41.52C35.5759 41.52 34.77 42.3258 34.77 43.32C34.77 44.3141 35.5759 45.12 36.57 45.12Z" fill="#FFB5B5"/>
<path d="M42.5803 43.66C42.5603 43.55 42.5503 43.44 42.5503 43.33C42.5503 43.25 42.5503 43.17 42.5703 43.11C42.5703 43.29 42.5703 43.48 42.5803 43.66Z" fill="#FFB5B5"/>
<path d="M11.1599 36.8599C11.1599 37.8599 10.3499 38.6699 9.34988 38.6699C8.73988 38.6699 8.19988 38.3599 7.87988 37.8899C8.98988 37.3299 10.0999 36.8699 11.1299 36.5099C11.1499 36.6099 11.1599 36.7399 11.1599 36.8599Z" fill="#FFB5B5"/>
<path d="M17.1301 38.6599C18.1242 38.6599 18.9301 37.854 18.9301 36.8599C18.9301 35.8658 18.1242 35.0599 17.1301 35.0599C16.136 35.0599 15.3301 35.8658 15.3301 36.8599C15.3301 37.854 16.136 38.6599 17.1301 38.6599Z" fill="#FFB5B5"/>
<path d="M24.9099 38.6599C25.904 38.6599 26.7099 37.854 26.7099 36.8599C26.7099 35.8658 25.904 35.0599 24.9099 35.0599C23.9157 35.0599 23.1099 35.8658 23.1099 36.8599C23.1099 37.854 23.9157 38.6599 24.9099 38.6599Z" fill="#FFB5B5"/>
<path d="M32.6799 38.6599C33.674 38.6599 34.4799 37.854 34.4799 36.8599C34.4799 35.8658 33.674 35.0599 32.6799 35.0599C31.6858 35.0599 30.8799 35.8658 30.8799 36.8599C30.8799 37.854 31.6858 38.6599 32.6799 38.6599Z" fill="#FFB5B5"/>
<path d="M40.4597 38.6599C41.4538 38.6599 42.2597 37.854 42.2597 36.8599C42.2597 35.8658 41.4538 35.0599 40.4597 35.0599C39.4656 35.0599 38.6597 35.8658 38.6597 36.8599C38.6597 37.854 39.4656 38.6599 40.4597 38.6599Z" fill="#FFB5B5"/>
<path d="M21.0202 32.19C22.0143 32.19 22.8202 31.3841 22.8202 30.39C22.8202 29.3959 22.0143 28.59 21.0202 28.59C20.0261 28.59 19.2202 29.3959 19.2202 30.39C19.2202 31.3841 20.0261 32.19 21.0202 32.19Z" fill="#FFB5B5"/>
<path d="M28.7902 32.19C29.7843 32.19 30.5902 31.3841 30.5902 30.39C30.5902 29.3959 29.7843 28.59 28.7902 28.59C27.7961 28.59 26.9902 29.3959 26.9902 30.39C26.9902 31.3841 27.7961 32.19 28.7902 32.19Z" fill="#FFB5B5"/>
<path d="M36.57 32.19C37.5641 32.19 38.37 31.3841 38.37 30.39C38.37 29.3959 37.5641 28.59 36.57 28.59C35.5759 28.59 34.77 29.3959 34.77 30.39C34.77 31.3841 35.5759 32.19 36.57 32.19Z" fill="#FFB5B5"/>
<path d="M24.9099 25.7199C25.904 25.7199 26.7099 24.914 26.7099 23.9199C26.7099 22.9258 25.904 22.1199 24.9099 22.1199C23.9157 22.1199 23.1099 22.9258 23.1099 23.9199C23.1099 24.914 23.9157 25.7199 24.9099 25.7199Z" fill="#FFB5B5"/>
<path d="M32.6799 25.7199C33.674 25.7199 34.4799 24.914 34.4799 23.9199C34.4799 22.9258 33.674 22.1199 32.6799 22.1199C31.6858 22.1199 30.8799 22.9258 30.8799 23.9199C30.8799 24.914 31.6858 25.7199 32.6799 25.7199Z" fill="#FFB5B5"/>
<path d="M41.1197 22.2399C41.1097 23.4399 41.1097 24.5699 41.0997 25.5899C40.8997 25.6699 40.6897 25.7099 40.4597 25.7099C39.4697 25.7099 38.6597 24.9199 38.6597 23.9199C38.6597 22.9199 39.4697 22.1199 40.4597 22.1199C40.6897 22.1199 40.9197 22.1599 41.1197 22.2399Z" fill="#FFB5B5"/>
<path d="M22.8201 17.45C22.8201 18.45 22.0101 19.24 21.0101 19.24C20.3301 19.24 19.7501 18.87 19.4501 18.33C19.4201 17.81 19.3901 17.28 19.3501 16.75C19.3501 16.74 19.3501 16.74 19.3501 16.74C19.6301 16.1 20.2701 15.64 21.0101 15.64C22.0101 15.65 22.8201 16.46 22.8201 17.45Z" fill="#FFB5B5"/>
<path d="M28.7902 19.25C29.7843 19.25 30.5902 18.4441 30.5902 17.45C30.5902 16.4559 29.7843 15.65 28.7902 15.65C27.7961 15.65 26.9902 16.4559 26.9902 17.45C26.9902 18.4441 27.7961 19.25 28.7902 19.25Z" fill="#FFB5B5"/>
<path d="M36.57 19.25C37.5641 19.25 38.37 18.4441 38.37 17.45C38.37 16.4559 37.5641 15.65 36.57 15.65C35.5759 15.65 34.77 16.4559 34.77 17.45C34.77 18.4441 35.5759 19.25 36.57 19.25Z" fill="#FFB5B5"/>
<path d="M18.9302 10.98C18.9302 11.12 18.9102 11.27 18.8702 11.4C18.8302 11 18.7802 10.6 18.7402 10.2C18.8702 10.44 18.9302 10.71 18.9302 10.98Z" fill="#FFB5B5"/>
<path d="M24.9104 12.7799C25.9045 12.7799 26.7104 11.974 26.7104 10.9799C26.7104 9.98582 25.9045 9.17993 24.9104 9.17993C23.9162 9.17993 23.1104 9.98582 23.1104 10.9799C23.1104 11.974 23.9162 12.7799 24.9104 12.7799Z" fill="#FFB5B5"/>
<path d="M32.6804 12.7799C33.6745 12.7799 34.4804 11.974 34.4804 10.9799C34.4804 9.98582 33.6745 9.17993 32.6804 9.17993C31.6863 9.17993 30.8804 9.98582 30.8804 10.9799C30.8804 11.974 31.6863 12.7799 32.6804 12.7799Z" fill="#FFB5B5"/>
<path d="M41.2004 9.33993C41.1904 10.3899 41.1804 11.4999 41.1704 12.6299C40.9504 12.7299 40.7104 12.7799 40.4604 12.7799C39.4604 12.7799 38.6504 11.9799 38.6504 10.9799C38.6504 9.97993 39.4604 9.17993 40.4604 9.17993C40.7204 9.17993 40.9804 9.23993 41.2004 9.33993Z" fill="#FFB5B5"/>
<path d="M21.0202 6.30996C22.0143 6.30996 22.8202 5.50407 22.8202 4.50996C22.8202 3.51585 22.0143 2.70996 21.0202 2.70996C20.0261 2.70996 19.2202 3.51585 19.2202 4.50996C19.2202 5.50407 20.0261 6.30996 21.0202 6.30996Z" fill="#FFB5B5"/>
<path d="M28.7902 6.30996C29.7843 6.30996 30.5902 5.50407 30.5902 4.50996C30.5902 3.51585 29.7843 2.70996 28.7902 2.70996C27.7961 2.70996 26.9902 3.51585 26.9902 4.50996C26.9902 5.50407 27.7961 6.30996 28.7902 6.30996Z" fill="#FFB5B5"/>
<path d="M36.57 6.30996C37.5641 6.30996 38.37 5.50407 38.37 4.50996C38.37 3.51585 37.5641 2.70996 36.57 2.70996C35.5759 2.70996 34.77 3.51585 34.77 4.50996C34.77 5.50407 35.5759 6.30996 36.57 6.30996Z" fill="#FFB5B5"/>
<path d="M42.8599 52.87H56.2199V49.97C56.7499 49.89 57.5899 49.99 58.5199 50.17C59.5499 50.37 60.6899 50.66 61.6699 50.93C63.0899 51.33 64.1899 51.7 64.1899 51.7C74.5999 54.65 84.9199 52.87 84.9199 52.87V47.36C84.5699 42.74 80.9899 39.75 77.3099 37.89C76.2099 37.32 75.0999 36.87 74.0699 36.5V36.49C73.7399 36.38 73.4099 36.27 73.0999 36.17C69.0699 34.86 66.1399 31.32 65.7699 27.09C65.5499 24.52 65.5699 21.52 65.7399 18.34C65.7699 17.82 65.7899 17.29 65.8399 16.75C65.8399 16.74 65.8399 16.74 65.8399 16.74C65.9599 14.99 66.1199 13.2 66.3199 11.4C66.3599 11.01 66.3999 10.61 66.4499 10.21C66.8599 6.60998 67.3299 2.72998 67.3299 2.72998C66.8099 2.66998 43.8899 0.599976 43.8899 0.599976C43.9199 1.07998 43.9599 4.72998 43.9899 9.33998C43.9999 10.39 44.0099 11.5 44.0199 12.63C44.0399 15.84 44.0499 19.24 44.0699 22.24C44.0799 23.44 44.0799 24.57 44.0899 25.59C44.0999 28.78 44.1099 30.95 44.1099 30.95C43.6499 32.52 43.3299 34.27 43.1099 36.09V36.1C43.0599 36.49 43.0099 36.87 42.9799 37.26C42.7799 39.22 42.6699 41.22 42.6199 43.1C42.6199 43.29 42.6199 43.48 42.6099 43.66V43.69C42.5199 48.76 42.8599 52.87 42.8599 52.87Z" fill="#B0305C"/>
<path d="M84.9301 51.02C84.6201 51.38 84.1401 51.6 83.6201 51.6C82.6201 51.6 81.8101 50.79 81.8101 49.79C81.8101 48.79 82.6201 47.98 83.6201 47.98C84.1401 47.98 84.6201 48.2 84.9301 48.56V51.02Z" fill="#FFB5B5"/>
<path d="M75.84 51.59C76.8342 51.59 77.64 50.7841 77.64 49.79C77.64 48.7959 76.8342 47.99 75.84 47.99C74.8459 47.99 74.04 48.7959 74.04 49.79C74.04 50.7841 74.8459 51.59 75.84 51.59Z" fill="#FFB5B5"/>
<path d="M68.07 51.59C69.0641 51.59 69.87 50.7841 69.87 49.79C69.87 48.7959 69.0641 47.99 68.07 47.99C67.0759 47.99 66.27 48.7959 66.27 49.79C66.27 50.7841 67.0759 51.59 68.07 51.59Z" fill="#FFB5B5"/>
<path d="M58.4897 49.79C58.4897 49.92 58.4997 50.04 58.5197 50.17C59.5497 50.37 60.6897 50.66 61.6797 50.93C61.9497 50.62 62.0997 50.22 62.0997 49.79C62.0997 48.79 61.2897 47.98 60.2897 47.98C59.2997 47.99 58.4897 48.8 58.4897 49.79Z" fill="#FFB5B5"/>
<path d="M52.51 51.59C53.5041 51.59 54.31 50.7841 54.31 49.79C54.31 48.7959 53.5041 47.99 52.51 47.99C51.5159 47.99 50.71 48.7959 50.71 49.79C50.71 50.7841 51.5159 51.59 52.51 51.59Z" fill="#FFB5B5"/>
<path d="M44.7399 51.59C45.7341 51.59 46.5399 50.7841 46.5399 49.79C46.5399 48.7959 45.7341 47.99 44.7399 47.99C43.7458 47.99 42.9399 48.7959 42.9399 49.79C42.9399 50.7841 43.7458 51.59 44.7399 51.59Z" fill="#FFB5B5"/>
<path d="M79.7302 45.12C80.7243 45.12 81.5302 44.3141 81.5302 43.32C81.5302 42.3258 80.7243 41.52 79.7302 41.52C78.7361 41.52 77.9302 42.3258 77.9302 43.32C77.9302 44.3141 78.7361 45.12 79.7302 45.12Z" fill="#FFB5B5"/>
<path d="M71.9499 45.12C72.944 45.12 73.7499 44.3141 73.7499 43.32C73.7499 42.3258 72.944 41.52 71.9499 41.52C70.9558 41.52 70.1499 42.3258 70.1499 43.32C70.1499 44.3141 70.9558 45.12 71.9499 45.12Z" fill="#FFB5B5"/>
<path d="M64.1799 45.12C65.174 45.12 65.9799 44.3141 65.9799 43.32C65.9799 42.3258 65.174 41.52 64.1799 41.52C63.1858 41.52 62.3799 42.3258 62.3799 43.32C62.3799 44.3141 63.1858 45.12 64.1799 45.12Z" fill="#FFB5B5"/>
<path d="M56.4001 45.12C57.3942 45.12 58.2001 44.3141 58.2001 43.32C58.2001 42.3258 57.3942 41.52 56.4001 41.52C55.406 41.52 54.6001 42.3258 54.6001 43.32C54.6001 44.3141 55.406 45.12 56.4001 45.12Z" fill="#FFB5B5"/>
<path d="M48.6203 45.12C49.6144 45.12 50.4203 44.3141 50.4203 43.32C50.4203 42.3258 49.6144 41.52 48.6203 41.52C47.6262 41.52 46.8203 42.3258 46.8203 43.32C46.8203 44.3141 47.6262 45.12 48.6203 45.12Z" fill="#FFB5B5"/>
<path d="M42.6201 43.66C42.6401 43.55 42.6501 43.44 42.6501 43.33C42.6501 43.25 42.6501 43.17 42.6301 43.11C42.6301 43.29 42.6301 43.48 42.6201 43.66Z" fill="#FFB5B5"/>
<path d="M74.04 36.8599C74.04 37.8599 74.85 38.6699 75.85 38.6699C76.46 38.6699 77 38.3599 77.32 37.8899C76.21 37.3299 75.1 36.8699 74.07 36.5099C74.05 36.6099 74.04 36.7399 74.04 36.8599Z" fill="#FFB5B5"/>
<path d="M68.07 38.6599C69.0641 38.6599 69.87 37.854 69.87 36.8599C69.87 35.8658 69.0641 35.0599 68.07 35.0599C67.0759 35.0599 66.27 35.8658 66.27 36.8599C66.27 37.854 67.0759 38.6599 68.07 38.6599Z" fill="#FFB5B5"/>
<path d="M60.2897 38.6599C61.2839 38.6599 62.0897 37.854 62.0897 36.8599C62.0897 35.8658 61.2839 35.0599 60.2897 35.0599C59.2956 35.0599 58.4897 35.8658 58.4897 36.8599C58.4897 37.854 59.2956 38.6599 60.2897 38.6599Z" fill="#FFB5B5"/>
<path d="M52.51 38.6599C53.5041 38.6599 54.31 37.854 54.31 36.8599C54.31 35.8658 53.5041 35.0599 52.51 35.0599C51.5159 35.0599 50.71 35.8658 50.71 36.8599C50.71 37.854 51.5159 38.6599 52.51 38.6599Z" fill="#FFB5B5"/>
<path d="M44.7399 38.6599C45.7341 38.6599 46.5399 37.854 46.5399 36.8599C46.5399 35.8658 45.7341 35.0599 44.7399 35.0599C43.7458 35.0599 42.9399 35.8658 42.9399 36.8599C42.9399 37.854 43.7458 38.6599 44.7399 38.6599Z" fill="#FFB5B5"/>
<path d="M64.1804 32.19C65.1745 32.19 65.9804 31.3841 65.9804 30.39C65.9804 29.3959 65.1745 28.59 64.1804 28.59C63.1863 28.59 62.3804 29.3959 62.3804 30.39C62.3804 31.3841 63.1863 32.19 64.1804 32.19Z" fill="#FFB5B5"/>
<path d="M56.4001 32.19C57.3942 32.19 58.2001 31.3841 58.2001 30.39C58.2001 29.3959 57.3942 28.59 56.4001 28.59C55.406 28.59 54.6001 29.3959 54.6001 30.39C54.6001 31.3841 55.406 32.19 56.4001 32.19Z" fill="#FFB5B5"/>
<path d="M48.6203 32.19C49.6144 32.19 50.4203 31.3841 50.4203 30.39C50.4203 29.3959 49.6144 28.59 48.6203 28.59C47.6262 28.59 46.8203 29.3959 46.8203 30.39C46.8203 31.3841 47.6262 32.19 48.6203 32.19Z" fill="#FFB5B5"/>
<path d="M60.2902 25.7199C61.2843 25.7199 62.0902 24.914 62.0902 23.9199C62.0902 22.9258 61.2843 22.1199 60.2902 22.1199C59.2961 22.1199 58.4902 22.9258 58.4902 23.9199C58.4902 24.914 59.2961 25.7199 60.2902 25.7199Z" fill="#FFB5B5"/>
<path d="M52.5105 25.7199C53.5046 25.7199 54.3105 24.914 54.3105 23.9199C54.3105 22.9258 53.5046 22.1199 52.5105 22.1199C51.5163 22.1199 50.7104 22.9258 50.7104 23.9199C50.7104 24.914 51.5163 25.7199 52.5105 25.7199Z" fill="#FFB5B5"/>
<path d="M44.0703 22.2399C44.0803 23.4399 44.0803 24.5699 44.0903 25.5899C44.2903 25.6699 44.5003 25.7099 44.7303 25.7099C45.7203 25.7099 46.5303 24.9199 46.5303 23.9199C46.5303 22.9199 45.7203 22.1199 44.7303 22.1199C44.5003 22.1199 44.2703 22.1599 44.0703 22.2399Z" fill="#FFB5B5"/>
<path d="M62.3804 17.45C62.3804 18.45 63.1904 19.24 64.1904 19.24C64.8704 19.24 65.4504 18.87 65.7504 18.33C65.7804 17.81 65.8104 17.28 65.8504 16.75C65.8504 16.74 65.8504 16.74 65.8504 16.74C65.5704 16.1 64.9304 15.64 64.1904 15.64C63.1804 15.65 62.3804 16.46 62.3804 17.45Z" fill="#FFB5B5"/>
<path d="M56.4001 19.25C57.3942 19.25 58.2001 18.4441 58.2001 17.45C58.2001 16.4559 57.3942 15.65 56.4001 15.65C55.406 15.65 54.6001 16.4559 54.6001 17.45C54.6001 18.4441 55.406 19.25 56.4001 19.25Z" fill="#FFB5B5"/>
<path d="M48.6203 19.25C49.6144 19.25 50.4203 18.4441 50.4203 17.45C50.4203 16.4559 49.6144 15.65 48.6203 15.65C47.6262 15.65 46.8203 16.4559 46.8203 17.45C46.8203 18.4441 47.6262 19.25 48.6203 19.25Z" fill="#FFB5B5"/>
<path d="M66.2603 10.98C66.2603 11.12 66.2803 11.27 66.3203 11.4C66.3603 11 66.4103 10.6 66.4503 10.2C66.3303 10.44 66.2603 10.71 66.2603 10.98Z" fill="#FFB5B5"/>
<path d="M60.2902 12.7799C61.2843 12.7799 62.0902 11.974 62.0902 10.9799C62.0902 9.98582 61.2843 9.17993 60.2902 9.17993C59.2961 9.17993 58.4902 9.98582 58.4902 10.9799C58.4902 11.974 59.2961 12.7799 60.2902 12.7799Z" fill="#FFB5B5"/>
<path d="M52.5105 12.7799C53.5046 12.7799 54.3105 11.974 54.3105 10.9799C54.3105 9.98582 53.5046 9.17993 52.5105 9.17993C51.5163 9.17993 50.7104 9.98582 50.7104 10.9799C50.7104 11.974 51.5163 12.7799 52.5105 12.7799Z" fill="#FFB5B5"/>
<path d="M43.9902 9.33993C44.0002 10.3899 44.0102 11.4999 44.0202 12.6299C44.2402 12.7299 44.4802 12.7799 44.7302 12.7799C45.7302 12.7799 46.5402 11.9799 46.5402 10.9799C46.5402 9.97993 45.7302 9.17993 44.7302 9.17993C44.4702 9.17993 44.2102 9.23993 43.9902 9.33993Z" fill="#FFB5B5"/>
<path d="M64.1804 6.30996C65.1745 6.30996 65.9804 5.50407 65.9804 4.50996C65.9804 3.51585 65.1745 2.70996 64.1804 2.70996C63.1863 2.70996 62.3804 3.51585 62.3804 4.50996C62.3804 5.50407 63.1863 6.30996 64.1804 6.30996Z" fill="#FFB5B5"/>
<path d="M56.4001 6.30996C57.3942 6.30996 58.2001 5.50407 58.2001 4.50996C58.2001 3.51585 57.3942 2.70996 56.4001 2.70996C55.406 2.70996 54.6001 3.51585 54.6001 4.50996C54.6001 5.50407 55.406 6.30996 56.4001 6.30996Z" fill="#FFB5B5"/>
<path d="M48.6203 6.30996C49.6144 6.30996 50.4203 5.50407 50.4203 4.50996C50.4203 3.51585 49.6144 2.70996 48.6203 2.70996C47.6262 2.70996 46.8203 3.51585 46.8203 4.50996C46.8203 5.50407 47.6262 6.30996 48.6203 6.30996Z" fill="#FFB5B5"/>
</g>
<defs>
<clipPath id="clip0_301_6203">
<rect width="84.66" height="52.8" fill="white" transform="translate(0.27002 0.599976)"/>
</clipPath>
</defs>
</svg>
