<svg width="120" height="100" viewBox="0 0 120 100" fill="none" xmlns="http://www.w3.org/2000/svg">
<g clip-path="url(#clip0_323_234)">
<path d="M60.1802 17.71C60.1702 18.96 60.1302 20.31 60.0802 21.69C60.0002 24.18 59.8602 26.8 59.6902 29.32C59.6202 30.35 59.5502 31.36 59.4802 32.34C59.4002 33.43 59.3302 34.47 59.2402 35.46C59.2102 35.75 59.1902 36.03 59.1602 36.3V36.33C59.0302 37.88 58.9102 39.25 58.8002 40.37C58.6402 41.93 58.5202 42.99 58.4602 43.3C58.3702 43.79 58.1202 45.72 57.8302 48.24C57.8302 48.24 57.8202 48.24 57.8202 48.25C57.7802 48.62 57.7302 49.01 57.6902 49.4C57.4802 51.21 57.2502 53.2 57.0302 55.15V55.16C57.0202 55.21 57.0202 55.25 57.0102 55.3L56.7202 57.82C56.6902 58.06 56.6702 58.29 56.6502 58.52C56.6102 58.83 56.5802 59.13 56.5402 59.42C56.2802 61.81 56.0802 63.66 56.0102 64.19C56.0102 64.3 56.0002 64.35 56.0002 64.35C56.5102 66.13 56.8802 68.11 57.1302 70.18V70.2C57.1902 70.64 57.2402 71.06 57.2802 71.5C57.5002 73.73 57.6302 76 57.6802 78.14C57.6802 78.35 57.6802 78.56 57.6902 78.76V78.8C57.7902 84.56 57.4202 89.22 57.4202 89.22H9.7002V82.96C10.1002 77.72 14.1602 74.33 18.3302 72.22C19.5902 71.58 20.8402 71.06 22.0102 70.65V70.64C22.3902 70.51 22.7502 70.38 23.1102 70.27C24.1302 69.94 25.0802 69.49 25.9502 68.92C26.7602 68.41 27.5002 67.8 28.1502 67.11C29.3002 65.93 30.1902 64.52 30.7502 62.97C31.1102 62.02 31.3302 61.01 31.4202 59.97C31.6102 57.71 31.6502 55.15 31.5602 52.42C31.5402 51.9 31.5202 51.36 31.4902 50.82C31.4902 50.81 31.4902 50.8 31.4902 50.8C31.4902 50.55 31.4702 50.3 31.4602 50.04C31.4502 49.85 31.4402 49.67 31.4302 49.48C31.4002 49.07 31.3802 48.66 31.3502 48.25C31.3502 48.24 31.3502 48.24 31.3502 48.24C31.3002 47.5 31.2402 46.75 31.1702 46C31.1502 45.68 31.1202 45.36 31.0902 45.04C31.0102 44.09 30.9102 43.14 30.8102 42.18C30.7602 41.73 30.7102 41.28 30.6602 40.82C30.6402 40.61 30.6102 40.39 30.5802 40.18C30.1302 36.32 29.5802 32.5 29.0202 29.05C28.8002 27.64 28.5702 26.3 28.3602 25.03C28.2802 24.59 28.2102 24.16 28.1302 23.74V23.73C28.0602 23.35 28.0002 22.99 27.9302 22.63C27.9302 22.62 27.9302 22.62 27.9302 22.61C27.7502 21.61 27.5702 20.69 27.4102 19.85C27.0902 18.17 26.8202 16.82 26.6402 15.92C26.4702 15.09 26.3702 14.64 26.3702 14.64C26.9602 14.57 27.7402 14.48 28.6602 14.38C28.6702 14.38 28.6702 14.38 28.6702 14.38C28.9202 14.34 29.1702 14.31 29.4502 14.28C30.0402 14.21 30.6802 14.13 31.3502 14.06C31.3602 14.06 31.3602 14.06 31.3602 14.06C32.7602 13.89 34.3102 13.71 35.9702 13.52C36.2402 13.49 36.5102 13.46 36.7802 13.43C37.6802 13.32 38.6002 13.22 39.5402 13.11C41.1602 12.92 42.8202 12.73 44.4402 12.54C45.8202 12.39 47.1902 12.23 48.4802 12.09C48.5702 12.08 48.6702 12.07 48.7602 12.06C50.4502 11.86 52.0202 11.68 53.4302 11.51C53.8102 11.47 54.1702 11.43 54.5202 11.39C55.4002 11.29 56.2102 11.21 56.9002 11.12C58.7402 10.91 59.8402 10.78 59.8402 10.78C60.1002 12.38 60.2102 14.84 60.1802 17.71Z" fill="#030306"/>
<path d="M33.77 20.6801C34.7696 20.6801 35.58 19.8697 35.58 18.8701C35.58 17.8704 34.7696 17.0601 33.77 17.0601C32.7703 17.0601 31.96 17.8704 31.96 18.8701C31.96 19.8697 32.7703 20.6801 33.77 20.6801Z" fill="#0FC8EF"/>
<path d="M32.8003 21.3201C32.0203 21.0101 31.4303 20.3501 31.2103 19.5401C30.1903 19.4801 29.1603 19.9301 28.5103 20.8101C27.5003 22.2001 27.8103 24.1401 29.2003 25.1501C30.4603 26.0601 32.1703 25.9001 33.2303 24.8201C32.5303 23.7601 32.4003 22.4601 32.8003 21.3201Z" fill="#EF3D5A"/>
<path d="M35.8101 20.55C35.2801 21.19 34.4601 21.56 33.6201 21.51C33.2501 22.46 33.3501 23.58 34.0001 24.47C35.0101 25.86 36.9501 26.17 38.3401 25.16C39.6001 24.25 39.9701 22.56 39.2801 21.22C38.0401 21.56 36.7601 21.28 35.8101 20.55Z" fill="#EF3D5A"/>
<path d="M36 17.45C36.45 18.15 36.54 19.04 36.23 19.83C37.02 20.48 38.12 20.72 39.16 20.38C40.79 19.85 41.68 18.1 41.15 16.47C40.67 14.99 39.18 14.12 37.7 14.36C37.65 15.64 36.99 16.77 36 17.45Z" fill="#EF3D5A"/>
<path d="M36.8804 14.2101C36.8804 15.3101 36.3104 16.2801 35.4504 16.8301C34.8004 16.2901 33.9203 16.1101 33.1203 16.3201C32.8403 15.3801 32.2204 14.5601 31.3604 14.0601C32.7604 13.8901 34.3104 13.7101 35.9704 13.5201C36.2404 13.4901 36.5103 13.4601 36.7803 13.4301C36.8403 13.6801 36.8804 13.9401 36.8804 14.2101Z" fill="#EF3D5A"/>
<path d="M32.3501 16.6501C31.6401 17.1001 31.1901 17.8801 31.1401 18.7101C29.9401 18.6801 28.7401 19.2001 27.9501 20.2001C27.7601 20.1001 27.5801 19.9901 27.4101 19.8501C27.0901 18.1701 26.8201 16.8201 26.6401 15.9201C27.3401 14.6501 28.8701 14.0101 30.3001 14.4801C31.3501 14.8201 32.0901 15.6601 32.3501 16.6501Z" fill="#EF3D5A"/>
<path d="M51.6005 18.9C52.6002 18.9 53.4105 18.0897 53.4105 17.09C53.4105 16.0904 52.6002 15.28 51.6005 15.28C50.6009 15.28 49.7905 16.0904 49.7905 17.09C49.7905 18.0897 50.6009 18.9 51.6005 18.9Z" fill="#FAEEEF"/>
<path d="M50.6304 19.5401C49.8504 19.2301 49.2604 18.5701 49.0404 17.7501C48.0204 17.6901 46.9904 18.1401 46.3404 19.0201C45.3304 20.4101 45.6404 22.3501 47.0304 23.3601C48.2904 24.2701 50.0004 24.1101 51.0604 23.0301C50.3604 21.9801 50.2304 20.6801 50.6304 19.5401Z" fill="#0FC8EF"/>
<path d="M53.6304 18.77C53.1004 19.41 52.2804 19.78 51.4404 19.73C51.0704 20.68 51.1704 21.8 51.8204 22.69C52.8304 24.08 54.7704 24.39 56.1604 23.38C57.4204 22.47 57.7904 20.78 57.1004 19.44C55.8704 19.78 54.5904 19.5 53.6304 18.77Z" fill="#0FC8EF"/>
<path d="M53.8203 15.67C54.2703 16.37 54.3603 17.26 54.0503 18.05C54.8403 18.7 55.9403 18.94 56.9803 18.6C58.6103 18.07 59.5003 16.32 58.9703 14.69C58.4903 13.21 57.0003 12.34 55.5203 12.58C55.4803 13.87 54.8203 14.99 53.8203 15.67Z" fill="#0FC8EF"/>
<path d="M54.7103 12.43C54.7103 13.53 54.1403 14.5 53.2803 15.05C52.6203 14.51 51.7503 14.33 50.9403 14.54C50.6203 13.46 49.8503 12.53 48.7603 12.06C50.4503 11.86 52.0203 11.68 53.4303 11.51C53.8103 11.47 54.1703 11.43 54.5203 11.39C54.6503 11.72 54.7103 12.07 54.7103 12.43Z" fill="#0FC8EF"/>
<path d="M48.9703 16.93C49.0203 16.1 49.4703 15.33 50.1803 14.87C49.9203 13.88 49.1803 13.04 48.1303 12.7C46.5003 12.17 44.7503 13.06 44.2203 14.69C43.7403 16.17 44.4303 17.75 45.7803 18.42C46.5603 17.42 47.7603 16.9 48.9703 16.93Z" fill="#0FC8EF"/>
<path d="M54.7104 35.62C55.71 35.62 56.5204 34.8096 56.5204 33.81C56.5204 32.8104 55.71 32 54.7104 32C53.7108 32 52.9004 32.8104 52.9004 33.81C52.9004 34.8096 53.7108 35.62 54.7104 35.62Z" fill="#DA2840"/>
<path d="M53.7402 36.26C52.9602 35.95 52.3702 35.29 52.1502 34.47C51.1302 34.41 50.1002 34.86 49.4502 35.74C48.4402 37.13 48.7502 39.07 50.1402 40.08C51.4002 40.99 53.1102 40.83 54.1702 39.75C53.4602 38.7 53.3402 37.4 53.7402 36.26Z" fill="#FAEEEF"/>
<path d="M59.1605 36.3V36.33C59.0305 37.88 58.9105 39.25 58.8005 40.37C57.4805 41.02 55.8305 40.64 54.9405 39.41C54.2905 38.52 54.1805 37.4 54.5605 36.45C55.4005 36.49 56.2105 36.13 56.7405 35.49C57.4305 36.01 58.2805 36.31 59.1605 36.3Z" fill="#FAEEEF"/>
<path d="M59.6904 29.32C59.6204 30.35 59.5504 31.36 59.4804 32.34C59.4004 33.43 59.3304 34.47 59.2404 35.46C58.4804 35.5 57.7404 35.24 57.1704 34.77C57.4804 33.98 57.3804 33.1 56.9404 32.39C57.9304 31.71 58.5904 30.59 58.6404 29.3C59.0004 29.24 59.3504 29.25 59.6904 29.32Z" fill="#FAEEEF"/>
<path d="M54.0504 31.26C54.8604 31.05 55.7304 31.24 56.3804 31.77C57.2404 31.22 57.8104 30.25 57.8104 29.15C57.8104 27.43 56.4204 26.04 54.7004 26.04C53.1404 26.04 51.8604 27.18 51.6304 28.67C52.8404 29.12 53.7004 30.1 54.0504 31.26Z" fill="#FAEEEF"/>
<path d="M52.0704 33.6501C52.1204 32.8201 52.5704 32.0501 53.2804 31.5901C53.0204 30.6001 52.2804 29.7601 51.2304 29.4201C49.6004 28.8901 47.8504 29.7801 47.3204 31.4101C46.8404 32.8901 47.5304 34.4701 48.8804 35.1401C49.6704 34.1401 50.8704 33.6201 52.0704 33.6501Z" fill="#FAEEEF"/>
<path d="M33.5999 47.71C33.5999 48.71 32.7899 49.52 31.7899 49.52C31.6699 49.52 31.5499 49.51 31.4299 49.48C31.3999 49.07 31.3799 48.66 31.3499 48.25C31.3499 48.24 31.3499 48.24 31.3499 48.24C31.2999 47.5 31.2399 46.75 31.1699 46C31.3599 45.93 31.5699 45.89 31.7899 45.89C32.7899 45.89 33.5999 46.7 33.5999 47.71Z" fill="#DA2840"/>
<path d="M31.4902 50.8201C31.4902 50.8101 31.4902 50.8001 31.4902 50.8001C31.5302 50.6401 31.5702 50.4901 31.6302 50.3401C32.4802 50.3901 33.2902 50.0301 33.8202 49.3801C34.7802 50.1201 36.0502 50.4001 37.2902 50.0501C37.9802 51.3901 37.6102 53.0701 36.3502 53.9901C34.9602 55.0001 33.0202 54.6901 32.0102 53.3001C31.8102 53.0201 31.6602 52.7301 31.5602 52.4201L31.4902 50.8201Z" fill="#FAEEEF"/>
<path d="M34.0103 46.2901C34.4603 46.9901 34.5503 47.8801 34.2403 48.6701C35.0303 49.3201 36.1303 49.5601 37.1703 49.2201C38.8003 48.6901 39.6903 46.9401 39.1603 45.3101C38.6803 43.8301 37.1903 42.9601 35.7103 43.2001C35.6603 44.4801 35.0003 45.6101 34.0103 46.2901Z" fill="#FAEEEF"/>
<path d="M34.8901 43.0501C34.8901 44.1501 34.3201 45.1101 33.4601 45.6601C32.8001 45.1301 31.9301 44.9401 31.1301 45.1501C31.1201 45.1101 31.1101 45.0701 31.0901 45.0401C31.0101 44.0901 30.9101 43.1401 30.8101 42.1801C30.7601 41.7301 30.7101 41.2801 30.6601 40.8201C30.6401 40.6101 30.6101 40.3901 30.5801 40.1801C30.9501 40.0201 31.3601 39.9401 31.7901 39.9401C33.5001 39.9401 34.8901 41.3301 34.8901 43.0501Z" fill="#FAEEEF"/>
<path d="M53.9404 59.1899C54.94 59.1899 55.7504 58.3796 55.7504 57.3799C55.7504 56.3803 54.94 55.5699 53.9404 55.5699C52.9407 55.5699 52.1304 56.3803 52.1304 57.3799C52.1304 58.3796 52.9407 59.1899 53.9404 59.1899Z" fill="#0FC8EF"/>
<path d="M52.9702 59.84C52.1902 59.53 51.6002 58.87 51.3802 58.06C50.3602 58 49.3302 58.45 48.6802 59.33C47.6702 60.72 47.9802 62.66 49.3702 63.67C50.6302 64.58 52.3402 64.42 53.4002 63.34C52.6902 62.27 52.5702 60.97 52.9702 59.84Z" fill="#EF3D5A"/>
<path d="M56.5405 59.4199C56.2805 61.8099 56.0805 63.6599 56.0105 64.1899C55.2905 64.0299 54.6305 63.6199 54.1705 62.9799C53.5205 62.0899 53.4205 60.9699 53.7905 60.0199C54.6305 60.0699 55.4505 59.7099 55.9805 59.0599C56.1605 59.1999 56.3405 59.3199 56.5405 59.4199Z" fill="#EF3D5A"/>
<path d="M57.0304 55.16C57.0204 55.21 57.0204 55.25 57.0104 55.3L56.7204 57.82C56.6904 58.06 56.6704 58.29 56.6504 58.52C56.5604 58.47 56.4804 58.41 56.4004 58.34C56.7104 57.56 56.6104 56.67 56.1704 55.97C56.5004 55.74 56.7804 55.47 57.0304 55.16Z" fill="#EF3D5A"/>
<path d="M53.2803 54.83C54.0903 54.62 54.9604 54.81 55.6104 55.34C56.4704 54.79 57.0404 53.82 57.0404 52.72C57.0404 51 55.6504 49.61 53.9304 49.61C52.3704 49.61 51.0904 50.75 50.8604 52.24C52.0704 52.7 52.9303 53.68 53.2803 54.83Z" fill="#EF3D5A"/>
<path d="M51.3004 57.22C51.3504 56.39 51.8004 55.62 52.5104 55.16C52.2504 54.17 51.5104 53.33 50.4604 52.99C48.8304 52.46 47.0804 53.35 46.5504 54.98C46.0704 56.46 46.7604 58.04 48.1104 58.71C48.9004 57.71 50.1004 57.19 51.3004 57.22Z" fill="#EF3D5A"/>
<path d="M28.4604 71.5299C29.46 71.5299 30.2704 70.7195 30.2704 69.7199C30.2704 68.7203 29.46 67.9099 28.4604 67.9099C27.4608 67.9099 26.6504 68.7203 26.6504 69.7199C26.6504 70.7195 27.4608 71.5299 28.4604 71.5299Z" fill="#0FC8EF"/>
<path d="M27.4902 72.18C26.7102 71.87 26.1202 71.21 25.9002 70.4C24.8802 70.34 23.8502 70.79 23.2002 71.67C22.1902 73.06 22.5002 75 23.8902 76.01C25.1502 76.92 26.8602 76.76 27.9202 75.68C27.2202 74.61 27.0902 73.31 27.4902 72.18Z" fill="#FAEEEF"/>
<path d="M30.4902 71.4C29.9602 72.04 29.1402 72.41 28.3002 72.36C27.9302 73.31 28.0302 74.43 28.6802 75.32C29.6902 76.71 31.6302 77.02 33.0202 76.01C34.2802 75.1 34.6502 73.41 33.9602 72.07C32.7302 72.42 31.4502 72.13 30.4902 71.4Z" fill="#FAEEEF"/>
<path d="M30.6802 68.31C31.1302 69.01 31.2202 69.9 30.9102 70.69C31.7002 71.34 32.8002 71.58 33.8402 71.24C35.4702 70.71 36.3602 68.96 35.8302 67.33C35.3502 65.85 33.8602 64.98 32.3802 65.22C32.3402 66.5 31.6802 67.62 30.6802 68.31Z" fill="#FAEEEF"/>
<path d="M31.5704 65.06C31.5704 66.16 31.0004 67.13 30.1404 67.68C29.5704 67.23 28.8504 67.02 28.1504 67.11C29.3004 65.93 30.1904 64.52 30.7504 62.97C31.2604 63.52 31.5704 64.25 31.5704 65.06Z" fill="#FAEEEF"/>
<path d="M25.9503 68.9199C25.8803 69.1299 25.8403 69.3399 25.8303 69.5599C24.6303 69.5299 23.4303 70.0499 22.6403 71.0599C22.4103 70.9399 22.2003 70.7999 22.0103 70.6399C22.3903 70.5099 22.7503 70.3799 23.1103 70.2699C24.1303 69.9399 25.0803 69.4899 25.9503 68.9199Z" fill="#FAEEEF"/>
<path d="M47.8802 72.85C48.6589 72.85 49.2902 72.2188 49.2902 71.44C49.2902 70.6613 48.6589 70.03 47.8802 70.03C47.1015 70.03 46.4702 70.6613 46.4702 71.44C46.4702 72.2188 47.1015 72.85 47.8802 72.85Z" fill="#FAEEEF"/>
<path d="M47.1304 73.34C46.5304 73.1 46.0604 72.59 45.9004 71.95C45.1104 71.9 44.3104 72.25 43.8004 72.94C43.0204 74.02 43.2604 75.53 44.3304 76.31C45.3104 77.02 46.6404 76.89 47.4604 76.06C46.9204 75.24 46.8204 74.23 47.1304 73.34Z" fill="#EF3D5A"/>
<path d="M49.4701 72.74C49.0601 73.24 48.4201 73.52 47.7701 73.48C47.4801 74.22 47.5601 75.09 48.0601 75.78C48.8401 76.86 50.3501 77.1 51.4301 76.31C52.4101 75.6 52.7001 74.29 52.1601 73.25C51.2001 73.53 50.2101 73.31 49.4701 72.74Z" fill="#EF3D5A"/>
<path d="M49.6104 70.33C49.9604 70.88 50.0304 71.57 49.7904 72.18C50.4104 72.68 51.2604 72.88 52.0704 72.61C53.3404 72.2 54.0303 70.84 53.6203 69.57C53.2503 68.42 52.0904 67.74 50.9304 67.93C50.9004 68.93 50.3804 69.8 49.6104 70.33Z" fill="#EF3D5A"/>
<path d="M47.3702 69.45C48.0002 69.29 48.6802 69.43 49.1802 69.85C49.8502 69.42 50.2902 68.67 50.2902 67.82C50.2902 66.49 49.2102 65.41 47.8802 65.41C46.6702 65.41 45.6702 66.3 45.4902 67.46C46.4302 67.79 47.1002 68.55 47.3702 69.45Z" fill="#EF3D5A"/>
<path d="M45.8403 71.3101C45.8803 70.6601 46.2303 70.0601 46.7803 69.7101C46.5803 68.9401 46.0003 68.2901 45.1903 68.0201C43.9203 67.6101 42.5603 68.3001 42.1503 69.5701C41.7803 70.7201 42.3103 71.9501 43.3603 72.4701C43.9703 71.6901 44.9003 71.2901 45.8403 71.3101Z" fill="#EF3D5A"/>
<path d="M39.4803 62.65C40.259 62.65 40.8903 62.0187 40.8903 61.24C40.8903 60.4612 40.259 59.83 39.4803 59.83C38.7016 59.83 38.0703 60.4612 38.0703 61.24C38.0703 62.0187 38.7016 62.65 39.4803 62.65Z" fill="#EF3D5A"/>
<path d="M38.73 63.15C38.13 62.91 37.66 62.4 37.5 61.76C36.71 61.71 35.91 62.06 35.4 62.75C34.62 63.83 34.86 65.34 35.93 66.12C36.91 66.83 38.24 66.7 39.06 65.87C38.51 65.04 38.42 64.03 38.73 63.15Z" fill="#0FC8EF"/>
<path d="M41.06 62.5399C40.65 63.0399 40.01 63.3199 39.36 63.2799C39.07 64.0199 39.15 64.8899 39.65 65.5799C40.43 66.6599 41.94 66.8999 43.02 66.1099C44 65.3999 44.29 64.0899 43.75 63.0499C42.8 63.3299 41.81 63.1099 41.06 62.5399Z" fill="#0FC8EF"/>
<path d="M41.21 60.1399C41.56 60.6899 41.63 61.3799 41.39 61.9899C42.01 62.4899 42.86 62.6899 43.67 62.4199C44.94 62.0099 45.63 60.6499 45.22 59.3799C44.85 58.2299 43.69 57.5499 42.53 57.7399C42.5 58.7299 41.98 59.6099 41.21 60.1399Z" fill="#0FC8EF"/>
<path d="M38.9703 59.25C39.6003 59.09 40.2803 59.23 40.7803 59.65C41.4503 59.22 41.8903 58.47 41.8903 57.62C41.8903 56.29 40.8103 55.21 39.4803 55.21C38.2703 55.21 37.2703 56.1 37.0903 57.26C38.0303 57.59 38.7003 58.36 38.9703 59.25Z" fill="#0FC8EF"/>
<path d="M37.4302 61.11C37.4702 60.46 37.8202 59.86 38.3702 59.51C38.1702 58.74 37.5902 58.09 36.7802 57.82C35.5102 57.41 34.1502 58.1 33.7402 59.37C33.3702 60.52 33.9002 61.75 34.9502 62.27C35.5702 61.49 36.5002 61.09 37.4302 61.11Z" fill="#0FC8EF"/>
<path d="M45.7503 46.59C46.5291 46.59 47.1603 45.9587 47.1603 45.18C47.1603 44.4013 46.5291 43.77 45.7503 43.77C44.9716 43.77 44.3403 44.4013 44.3403 45.18C44.3403 45.9587 44.9716 46.59 45.7503 46.59Z" fill="#FAEEEF"/>
<path d="M45.0005 47.08C44.4005 46.84 43.9305 46.33 43.7705 45.69C42.9805 45.64 42.1805 45.99 41.6705 46.68C40.8905 47.76 41.1305 49.27 42.2005 50.05C43.1805 50.76 44.5105 50.63 45.3305 49.8C44.7905 48.98 44.6905 47.97 45.0005 47.08Z" fill="#EF3D5A"/>
<path d="M47.3402 46.48C46.9302 46.98 46.2902 47.26 45.6402 47.22C45.3502 47.96 45.4302 48.83 45.9302 49.52C46.7102 50.6 48.2202 50.84 49.3002 50.05C50.2802 49.34 50.5702 48.03 50.0302 46.99C49.0702 47.27 48.0802 47.05 47.3402 46.48Z" fill="#EF3D5A"/>
<path d="M47.4805 44.07C47.8305 44.62 47.9005 45.31 47.6605 45.92C48.2805 46.42 49.1305 46.62 49.9405 46.35C51.2105 45.94 51.9005 44.58 51.4905 43.31C51.1205 42.16 49.9605 41.48 48.8005 41.67C48.7705 42.67 48.2605 43.54 47.4805 44.07Z" fill="#EF3D5A"/>
<path d="M45.2404 43.19C45.8704 43.03 46.5504 43.17 47.0504 43.59C47.7204 43.16 48.1604 42.41 48.1604 41.56C48.1604 40.23 47.0804 39.15 45.7504 39.15C44.5404 39.15 43.5404 40.04 43.3604 41.2C44.3004 41.53 44.9704 42.29 45.2404 43.19Z" fill="#EF3D5A"/>
<path d="M43.7105 45.0501C43.7505 44.4001 44.1005 43.8001 44.6505 43.4501C44.4505 42.6801 43.8705 42.0301 43.0605 41.7601C41.7905 41.3501 40.4305 42.0401 40.0205 43.3101C39.6505 44.4601 40.1805 45.6901 41.2305 46.2101C41.8405 45.4301 42.7705 45.0301 43.7105 45.0501Z" fill="#EF3D5A"/>
<path d="M39.6302 34.82C40.4089 34.82 41.0402 34.1887 41.0402 33.41C41.0402 32.6313 40.4089 32 39.6302 32C38.8515 32 38.2202 32.6313 38.2202 33.41C38.2202 34.1887 38.8515 34.82 39.6302 34.82Z" fill="#FAEEEF"/>
<path d="M38.8803 35.32C38.2803 35.08 37.8103 34.57 37.6503 33.93C36.8603 33.88 36.0603 34.23 35.5503 34.92C34.7703 36 35.0003 37.51 36.0803 38.29C37.0603 39 38.3903 38.87 39.2103 38.04C38.6603 37.21 38.5703 36.2 38.8803 35.32Z" fill="#0FC8EF"/>
<path d="M41.2099 34.72C40.7999 35.22 40.1599 35.5 39.5099 35.46C39.2199 36.2 39.2999 37.07 39.7999 37.76C40.5799 38.84 42.0899 39.08 43.1699 38.29C44.1499 37.58 44.4399 36.27 43.8999 35.23C42.9499 35.51 41.9599 35.29 41.2099 34.72Z" fill="#0FC8EF"/>
<path d="M41.3599 32.31C41.7099 32.86 41.7799 33.55 41.5399 34.16C42.1599 34.66 43.0099 34.86 43.8199 34.59C45.0899 34.18 45.7799 32.82 45.3699 31.55C44.9999 30.4 43.8399 29.72 42.6799 29.91C42.6499 30.9 42.1299 31.78 41.3599 32.31Z" fill="#0FC8EF"/>
<path d="M39.1202 31.43C39.7502 31.27 40.4302 31.41 40.9302 31.83C41.6002 31.4 42.0402 30.65 42.0402 29.8C42.0402 28.47 40.9602 27.39 39.6302 27.39C38.4202 27.39 37.4202 28.28 37.2402 29.44C38.1802 29.77 38.8502 30.53 39.1202 31.43Z" fill="#0FC8EF"/>
<path d="M37.5801 33.2901C37.6201 32.6401 37.9701 32.0401 38.5201 31.6901C38.3201 30.9201 37.7401 30.2701 36.9301 30.0001C35.6601 29.5901 34.3001 30.2801 33.8901 31.5501C33.5201 32.7001 34.0501 33.9301 35.1001 34.4501C35.7201 33.6701 36.6501 33.2601 37.5801 33.2901Z" fill="#0FC8EF"/>
<path d="M59.8202 17.71C59.8302 18.96 59.8702 20.31 59.9202 21.69C60.0002 24.18 60.1402 26.8 60.3102 29.32C60.3802 30.35 60.4502 31.36 60.5202 32.34C60.6002 33.43 60.6702 34.47 60.7602 35.46C60.7902 35.75 60.8102 36.03 60.8402 36.3V36.33C60.9702 37.88 61.0902 39.25 61.2002 40.37C61.3602 41.93 61.4802 42.99 61.5402 43.3C61.6302 43.79 61.8802 45.72 62.1702 48.24C62.1702 48.24 62.1802 48.24 62.1802 48.25C62.2202 48.62 62.2702 49.01 62.3102 49.4C62.5202 51.21 62.7502 53.2 62.9702 55.15V55.16C62.9802 55.21 62.9802 55.25 62.9902 55.3L63.2802 57.82C63.3102 58.06 63.3302 58.29 63.3502 58.52C63.3902 58.83 63.4202 59.13 63.4602 59.42C63.7202 61.81 63.9202 63.66 63.9902 64.19C63.9902 64.3 64.0002 64.35 64.0002 64.35C63.4902 66.13 63.1202 68.11 62.8702 70.18V70.2C62.8102 70.64 62.7602 71.06 62.7202 71.5C62.5002 73.73 62.3702 76 62.3202 78.14C62.3202 78.35 62.3202 78.56 62.3102 78.76V78.8C62.2102 84.56 62.5802 89.22 62.5802 89.22H110.3V82.96C109.9 77.72 105.84 74.33 101.67 72.22C100.41 71.58 99.1602 71.06 97.9902 70.65V70.64C97.6102 70.51 97.2502 70.38 96.8902 70.27C95.8702 69.94 94.9202 69.49 94.0502 68.92C93.2402 68.41 92.5002 67.8 91.8502 67.11C90.7002 65.93 89.8102 64.52 89.2502 62.97C88.8902 62.02 88.6702 61.01 88.5802 59.97C88.3902 57.71 88.3502 55.15 88.4402 52.42C88.4602 51.9 88.4802 51.36 88.5102 50.82C88.5102 50.81 88.5102 50.8 88.5102 50.8C88.5102 50.55 88.5302 50.3 88.5402 50.04C88.5502 49.85 88.5602 49.67 88.5702 49.48C88.6002 49.07 88.6202 48.66 88.6502 48.25C88.6502 48.24 88.6502 48.24 88.6502 48.24C88.7002 47.5 88.7602 46.75 88.8302 46C88.8502 45.68 88.8802 45.36 88.9102 45.04C88.9902 44.09 89.0902 43.14 89.1902 42.18C89.2402 41.73 89.2902 41.28 89.3402 40.82C89.3602 40.61 89.3902 40.39 89.4202 40.18C89.8702 36.32 90.4202 32.5 90.9802 29.05C91.2002 27.64 91.4302 26.3 91.6402 25.03C91.7202 24.59 91.7902 24.16 91.8702 23.74V23.73C91.9402 23.35 92.0002 22.99 92.0702 22.63C92.0702 22.62 92.0702 22.62 92.0702 22.61C92.2502 21.61 92.4302 20.69 92.5902 19.85C92.9102 18.17 93.1802 16.82 93.3602 15.92C93.5302 15.09 93.6302 14.64 93.6302 14.64C93.0402 14.57 92.2602 14.48 91.3402 14.38C91.3302 14.38 91.3302 14.38 91.3302 14.38C91.0802 14.34 90.8302 14.31 90.5502 14.28C89.9602 14.21 89.3202 14.13 88.6502 14.06C88.6402 14.06 88.6402 14.06 88.6402 14.06C87.2402 13.89 85.6902 13.71 84.0302 13.52C83.7602 13.49 83.4902 13.46 83.2202 13.43C82.3202 13.32 81.4002 13.22 80.4602 13.11C78.8402 12.92 77.1802 12.73 75.5602 12.54C74.1802 12.39 72.8102 12.23 71.5202 12.09C71.4302 12.08 71.3302 12.07 71.2402 12.06C69.5502 11.86 67.9802 11.68 66.5702 11.51C66.1902 11.47 65.8302 11.43 65.4802 11.39C64.6002 11.29 63.7902 11.21 63.1002 11.12C61.2602 10.91 60.1602 10.78 60.1602 10.78C59.9002 12.38 59.7902 14.84 59.8202 17.71Z" fill="#030306"/>
<path d="M86.2299 20.6801C87.2296 20.6801 88.0399 19.8697 88.0399 18.8701C88.0399 17.8704 87.2296 17.0601 86.2299 17.0601C85.2303 17.0601 84.4199 17.8704 84.4199 18.8701C84.4199 19.8697 85.2303 20.6801 86.2299 20.6801Z" fill="#0FC8EF"/>
<path d="M87.2 21.3201C87.98 21.0101 88.57 20.3501 88.79 19.5401C89.81 19.4801 90.84 19.9301 91.49 20.8101C92.5 22.2001 92.19 24.1401 90.8 25.1501C89.54 26.0601 87.83 25.9001 86.77 24.8201C87.47 23.7601 87.6 22.4601 87.2 21.3201Z" fill="#EF3D5A"/>
<path d="M84.1899 20.55C84.7199 21.19 85.5399 21.56 86.3799 21.51C86.7499 22.46 86.6499 23.58 85.9999 24.47C84.9899 25.86 83.0499 26.17 81.6599 25.16C80.3999 24.25 80.0299 22.56 80.7199 21.22C81.9599 21.56 83.2399 21.28 84.1899 20.55Z" fill="#EF3D5A"/>
<path d="M83.9999 17.45C83.5499 18.15 83.4599 19.04 83.7699 19.83C82.9799 20.48 81.8799 20.72 80.8399 20.38C79.2099 19.85 78.3199 18.1 78.8499 16.47C79.3299 14.99 80.8199 14.12 82.2999 14.36C82.3499 15.64 83.0099 16.77 83.9999 17.45Z" fill="#EF3D5A"/>
<path d="M83.1201 14.2101C83.1201 15.3101 83.6901 16.2801 84.5501 16.8301C85.2001 16.2901 86.0801 16.1101 86.8801 16.3201C87.1601 15.3801 87.7801 14.5601 88.6401 14.0601C87.2401 13.8901 85.6901 13.7101 84.0301 13.5201C83.7601 13.4901 83.4901 13.4601 83.2201 13.4301C83.1601 13.6801 83.1201 13.9401 83.1201 14.2101Z" fill="#EF3D5A"/>
<path d="M87.6499 16.6501C88.3599 17.1001 88.8099 17.8801 88.8599 18.7101C90.0599 18.6801 91.2599 19.2001 92.0499 20.2001C92.2399 20.1001 92.4199 19.9901 92.5899 19.8501C92.9099 18.1701 93.1799 16.8201 93.3599 15.9201C92.6599 14.6501 91.1299 14.0101 89.6999 14.4801C88.6499 14.8201 87.9099 15.6601 87.6499 16.6501Z" fill="#EF3D5A"/>
<path d="M68.3998 18.9C69.3995 18.9 70.2098 18.0897 70.2098 17.09C70.2098 16.0904 69.3995 15.28 68.3998 15.28C67.4002 15.28 66.5898 16.0904 66.5898 17.09C66.5898 18.0897 67.4002 18.9 68.3998 18.9Z" fill="#FAEEEF"/>
<path d="M69.3699 19.5401C70.1499 19.2301 70.7399 18.5701 70.9599 17.7501C71.9799 17.6901 73.0099 18.1401 73.6599 19.0201C74.6699 20.4101 74.3599 22.3501 72.9699 23.3601C71.7099 24.2701 69.9999 24.1101 68.9399 23.0301C69.6399 21.9801 69.7699 20.6801 69.3699 19.5401Z" fill="#0FC8EF"/>
<path d="M66.3701 18.77C66.9001 19.41 67.7201 19.78 68.5601 19.73C68.9301 20.68 68.8301 21.8 68.1801 22.69C67.1701 24.08 65.2301 24.39 63.8401 23.38C62.5801 22.47 62.2101 20.78 62.9001 19.44C64.1301 19.78 65.4101 19.5 66.3701 18.77Z" fill="#0FC8EF"/>
<path d="M66.1801 15.67C65.7301 16.37 65.6401 17.26 65.9501 18.05C65.1601 18.7 64.0601 18.94 63.0201 18.6C61.3901 18.07 60.5001 16.32 61.0301 14.69C61.5101 13.21 63.0001 12.34 64.4801 12.58C64.5201 13.87 65.1801 14.99 66.1801 15.67Z" fill="#0FC8EF"/>
<path d="M65.29 12.43C65.29 13.53 65.86 14.5 66.72 15.05C67.38 14.51 68.25 14.33 69.06 14.54C69.38 13.46 70.15 12.53 71.24 12.06C69.55 11.86 67.98 11.68 66.57 11.51C66.19 11.47 65.83 11.43 65.48 11.39C65.35 11.72 65.29 12.07 65.29 12.43Z" fill="#0FC8EF"/>
<path d="M71.0298 16.93C70.9798 16.1 70.5298 15.33 69.8198 14.87C70.0798 13.88 70.8198 13.04 71.8698 12.7C73.4998 12.17 75.2498 13.06 75.7798 14.69C76.2598 16.17 75.5698 17.75 74.2198 18.42C73.4398 17.42 72.2398 16.9 71.0298 16.93Z" fill="#0FC8EF"/>
<path d="M65.29 35.62C66.2896 35.62 67.1 34.8096 67.1 33.81C67.1 32.8104 66.2896 32 65.29 32C64.2903 32 63.48 32.8104 63.48 33.81C63.48 34.8096 64.2903 35.62 65.29 35.62Z" fill="#DA2840"/>
<path d="M66.2601 36.26C67.0401 35.95 67.6301 35.29 67.8501 34.47C68.8701 34.41 69.9001 34.86 70.5501 35.74C71.5601 37.13 71.2501 39.07 69.8601 40.08C68.6001 40.99 66.8901 40.83 65.8301 39.75C66.5401 38.7 66.6601 37.4 66.2601 36.26Z" fill="#FAEEEF"/>
<path d="M60.8398 36.3V36.33C60.9698 37.88 61.0898 39.25 61.1998 40.37C62.5198 41.02 64.1698 40.64 65.0598 39.41C65.7098 38.52 65.8198 37.4 65.4398 36.45C64.5998 36.49 63.7898 36.13 63.2598 35.49C62.5698 36.01 61.7198 36.31 60.8398 36.3Z" fill="#FAEEEF"/>
<path d="M60.3101 29.32C60.3801 30.35 60.4501 31.36 60.5201 32.34C60.6001 33.43 60.6701 34.47 60.7601 35.46C61.5201 35.5 62.2601 35.24 62.8301 34.77C62.5201 33.98 62.6201 33.1 63.0601 32.39C62.0701 31.71 61.4101 30.59 61.3601 29.3C61.0001 29.24 60.6501 29.25 60.3101 29.32Z" fill="#FAEEEF"/>
<path d="M65.9499 31.26C65.1399 31.05 64.2699 31.24 63.6199 31.77C62.7599 31.22 62.1899 30.25 62.1899 29.15C62.1899 27.43 63.5799 26.04 65.2999 26.04C66.8599 26.04 68.1399 27.18 68.3699 28.67C67.1599 29.12 66.2999 30.1 65.9499 31.26Z" fill="#FAEEEF"/>
<path d="M67.9302 33.6501C67.8802 32.8201 67.4302 32.0501 66.7202 31.5901C66.9802 30.6001 67.7202 29.7601 68.7702 29.4201C70.4002 28.8901 72.1502 29.7801 72.6802 31.4101C73.1602 32.8901 72.4702 34.4701 71.1202 35.1401C70.3302 34.1401 69.1302 33.6201 67.9302 33.6501Z" fill="#FAEEEF"/>
<path d="M86.3999 47.71C86.3999 48.71 87.2099 49.52 88.2099 49.52C88.3299 49.52 88.4499 49.51 88.5699 49.48C88.5999 49.07 88.6199 48.66 88.6499 48.25C88.6499 48.24 88.6499 48.24 88.6499 48.24C88.6999 47.5 88.7599 46.75 88.8299 46C88.6399 45.93 88.4299 45.89 88.2099 45.89C87.2099 45.89 86.3999 46.7 86.3999 47.71Z" fill="#DA2840"/>
<path d="M88.4402 52.4201C88.3402 52.7301 88.1902 53.0201 87.9902 53.3001C86.9802 54.6901 85.0402 55.0001 83.6502 53.9901C82.3902 53.0701 82.0202 51.3901 82.7102 50.0501C83.9502 50.4001 85.2202 50.1201 86.1802 49.3801C86.7102 50.0301 87.5202 50.3901 88.3702 50.3401C88.4302 50.4901 88.4702 50.6401 88.5102 50.8001C88.5102 50.8001 88.5102 50.8101 88.5102 50.8201L88.4402 52.4201Z" fill="#FAEEEF"/>
<path d="M85.9901 46.2901C85.5401 46.9901 85.4501 47.8801 85.7601 48.6701C84.9701 49.3201 83.8701 49.5601 82.8301 49.2201C81.2001 48.6901 80.3101 46.9401 80.8401 45.3101C81.3201 43.8301 82.8101 42.9601 84.2901 43.2001C84.3401 44.4801 85.0001 45.6101 85.9901 46.2901Z" fill="#FAEEEF"/>
<path d="M85.1104 43.0501C85.1104 44.1501 85.6804 45.1101 86.5404 45.6601C87.2004 45.1301 88.0704 44.9401 88.8704 45.1501C88.8804 45.1101 88.8904 45.0701 88.9104 45.0401C88.9904 44.0901 89.0904 43.1401 89.1904 42.1801C89.2404 41.7301 89.2903 41.2801 89.3403 40.8201C89.3603 40.6101 89.3903 40.3901 89.4203 40.1801C89.0503 40.0201 88.6404 39.9401 88.2104 39.9401C86.5003 39.9401 85.1104 41.3301 85.1104 43.0501Z" fill="#FAEEEF"/>
<path d="M66.06 59.1899C67.0596 59.1899 67.87 58.3796 67.87 57.3799C67.87 56.3803 67.0596 55.5699 66.06 55.5699C65.0604 55.5699 64.25 56.3803 64.25 57.3799C64.25 58.3796 65.0604 59.1899 66.06 59.1899Z" fill="#0FC8EF"/>
<path d="M67.0301 59.84C67.8101 59.53 68.4001 58.87 68.6201 58.06C69.6401 58 70.6701 58.45 71.3201 59.33C72.3301 60.72 72.0201 62.66 70.6301 63.67C69.3701 64.58 67.6601 64.42 66.6001 63.34C67.3101 62.27 67.4301 60.97 67.0301 59.84Z" fill="#EF3D5A"/>
<path d="M63.46 59.4199C63.72 61.8099 63.92 63.6599 63.99 64.1899C64.71 64.0299 65.37 63.6199 65.83 62.9799C66.48 62.0899 66.58 60.9699 66.21 60.0199C65.37 60.0699 64.55 59.7099 64.02 59.0599C63.84 59.1999 63.66 59.3199 63.46 59.4199Z" fill="#EF3D5A"/>
<path d="M62.9697 55.16C62.9797 55.21 62.9797 55.25 62.9897 55.3L63.2797 57.82C63.3097 58.06 63.3297 58.29 63.3497 58.52C63.4397 58.47 63.5197 58.41 63.5997 58.34C63.2897 57.56 63.3897 56.67 63.8297 55.97C63.4997 55.74 63.2197 55.47 62.9697 55.16Z" fill="#EF3D5A"/>
<path d="M66.72 54.83C65.91 54.62 65.04 54.81 64.39 55.34C63.53 54.79 62.96 53.82 62.96 52.72C62.96 51 64.35 49.61 66.07 49.61C67.63 49.61 68.91 50.75 69.14 52.24C67.93 52.7 67.07 53.68 66.72 54.83Z" fill="#EF3D5A"/>
<path d="M68.6997 57.22C68.6497 56.39 68.1997 55.62 67.4897 55.16C67.7497 54.17 68.4897 53.33 69.5397 52.99C71.1697 52.46 72.9197 53.35 73.4497 54.98C73.9297 56.46 73.2397 58.04 71.8897 58.71C71.0997 57.71 69.8997 57.19 68.6997 57.22Z" fill="#EF3D5A"/>
<path d="M91.54 71.5299C92.5396 71.5299 93.35 70.7195 93.35 69.7199C93.35 68.7203 92.5396 67.9099 91.54 67.9099C90.5403 67.9099 89.73 68.7203 89.73 69.7199C89.73 70.7195 90.5403 71.5299 91.54 71.5299Z" fill="#0FC8EF"/>
<path d="M92.5101 72.18C93.2901 71.87 93.8801 71.21 94.1001 70.4C95.1201 70.34 96.1501 70.79 96.8001 71.67C97.8101 73.06 97.5001 75 96.1101 76.01C94.8501 76.92 93.1401 76.76 92.0801 75.68C92.7801 74.61 92.9101 73.31 92.5101 72.18Z" fill="#FAEEEF"/>
<path d="M89.5102 71.4C90.0402 72.04 90.8602 72.41 91.7002 72.36C92.0702 73.31 91.9702 74.43 91.3202 75.32C90.3102 76.71 88.3702 77.02 86.9802 76.01C85.7202 75.1 85.3502 73.41 86.0402 72.07C87.2702 72.42 88.5502 72.13 89.5102 71.4Z" fill="#FAEEEF"/>
<path d="M89.3202 68.31C88.8702 69.01 88.7802 69.9 89.0902 70.69C88.3002 71.34 87.2002 71.58 86.1602 71.24C84.5302 70.71 83.6402 68.96 84.1702 67.33C84.6502 65.85 86.1402 64.98 87.6202 65.22C87.6602 66.5 88.3202 67.62 89.3202 68.31Z" fill="#FAEEEF"/>
<path d="M88.4302 65.06C88.4302 66.16 89.0002 67.13 89.8602 67.68C90.4302 67.23 91.1502 67.02 91.8502 67.11C90.7002 65.93 89.8102 64.52 89.2502 62.97C88.7402 63.52 88.4302 64.25 88.4302 65.06Z" fill="#FAEEEF"/>
<path d="M94.0503 68.9199C94.1203 69.1299 94.1603 69.3399 94.1703 69.5599C95.3703 69.5299 96.5703 70.0499 97.3603 71.0599C97.5903 70.9399 97.8003 70.7999 97.9903 70.6399C97.6103 70.5099 97.2503 70.3799 96.8903 70.2699C95.8703 69.9399 94.9203 69.4899 94.0503 68.9199Z" fill="#FAEEEF"/>
<path d="M72.12 72.85C72.8987 72.85 73.53 72.2188 73.53 71.44C73.53 70.6613 72.8987 70.03 72.12 70.03C71.3412 70.03 70.71 70.6613 70.71 71.44C70.71 72.2188 71.3412 72.85 72.12 72.85Z" fill="#FAEEEF"/>
<path d="M72.87 73.34C73.47 73.1 73.94 72.59 74.1 71.95C74.89 71.9 75.69 72.25 76.2 72.94C76.98 74.02 76.74 75.53 75.67 76.31C74.69 77.02 73.36 76.89 72.54 76.06C73.08 75.24 73.18 74.23 72.87 73.34Z" fill="#EF3D5A"/>
<path d="M70.5298 72.74C70.9398 73.24 71.5798 73.52 72.2298 73.48C72.5198 74.22 72.4398 75.09 71.9398 75.78C71.1598 76.86 69.6498 77.1 68.5698 76.31C67.5898 75.6 67.2998 74.29 67.8398 73.25C68.7998 73.53 69.7898 73.31 70.5298 72.74Z" fill="#EF3D5A"/>
<path d="M70.3899 70.33C70.0399 70.88 69.9699 71.57 70.2099 72.18C69.5899 72.68 68.7399 72.88 67.9299 72.61C66.6599 72.2 65.9699 70.84 66.3799 69.57C66.7499 68.42 67.9099 67.74 69.0699 67.93C69.0999 68.93 69.6199 69.8 70.3899 70.33Z" fill="#EF3D5A"/>
<path d="M72.63 69.45C72 69.29 71.32 69.43 70.82 69.85C70.15 69.42 69.71 68.67 69.71 67.82C69.71 66.49 70.79 65.41 72.12 65.41C73.33 65.41 74.33 66.3 74.51 67.46C73.57 67.79 72.9 68.55 72.63 69.45Z" fill="#EF3D5A"/>
<path d="M74.1597 71.3101C74.1197 70.6601 73.7697 70.0601 73.2197 69.7101C73.4197 68.9401 73.9997 68.2901 74.8097 68.0201C76.0797 67.6101 77.4397 68.3001 77.8497 69.5701C78.2197 70.7201 77.6897 71.9501 76.6397 72.4701C76.0297 71.6901 75.0997 71.2901 74.1597 71.3101Z" fill="#EF3D5A"/>
<path d="M80.5199 62.65C81.2986 62.65 81.9299 62.0187 81.9299 61.24C81.9299 60.4612 81.2986 59.83 80.5199 59.83C79.7411 59.83 79.1099 60.4612 79.1099 61.24C79.1099 62.0187 79.7411 62.65 80.5199 62.65Z" fill="#EF3D5A"/>
<path d="M81.2699 63.15C81.8699 62.91 82.3399 62.4 82.4999 61.76C83.2899 61.71 84.0899 62.06 84.5999 62.75C85.3799 63.83 85.1399 65.34 84.0699 66.12C83.0899 66.83 81.7599 66.7 80.9399 65.87C81.4899 65.04 81.5799 64.03 81.2699 63.15Z" fill="#0FC8EF"/>
<path d="M78.94 62.5399C79.35 63.0399 79.99 63.3199 80.64 63.2799C80.93 64.0199 80.85 64.8899 80.35 65.5799C79.57 66.6599 78.06 66.8999 76.98 66.1099C76 65.3999 75.71 64.0899 76.25 63.0499C77.2 63.3299 78.19 63.1099 78.94 62.5399Z" fill="#0FC8EF"/>
<path d="M78.7898 60.1399C78.4398 60.6899 78.3698 61.3799 78.6098 61.9899C77.9898 62.4899 77.1398 62.6899 76.3298 62.4199C75.0598 62.0099 74.3698 60.6499 74.7798 59.3799C75.1498 58.2299 76.3098 57.5499 77.4698 57.7399C77.4998 58.7299 78.0198 59.6099 78.7898 60.1399Z" fill="#0FC8EF"/>
<path d="M81.0299 59.25C80.3999 59.09 79.7199 59.23 79.2199 59.65C78.5499 59.22 78.1099 58.47 78.1099 57.62C78.1099 56.29 79.1899 55.21 80.5199 55.21C81.7299 55.21 82.7299 56.1 82.9099 57.26C81.9699 57.59 81.2999 58.36 81.0299 59.25Z" fill="#0FC8EF"/>
<path d="M82.5699 61.11C82.5299 60.46 82.1799 59.86 81.6299 59.51C81.8299 58.74 82.4099 58.09 83.2199 57.82C84.4899 57.41 85.8499 58.1 86.2599 59.37C86.6299 60.52 86.0999 61.75 85.0499 62.27C84.4299 61.49 83.4999 61.09 82.5699 61.11Z" fill="#0FC8EF"/>
<path d="M74.2498 46.59C75.0286 46.59 75.6599 45.9587 75.6599 45.18C75.6599 44.4013 75.0286 43.77 74.2498 43.77C73.4711 43.77 72.8398 44.4013 72.8398 45.18C72.8398 45.9587 73.4711 46.59 74.2498 46.59Z" fill="#FAEEEF"/>
<path d="M74.9999 47.08C75.5999 46.84 76.0699 46.33 76.2299 45.69C77.0199 45.64 77.8199 45.99 78.3299 46.68C79.1099 47.76 78.8699 49.27 77.7999 50.05C76.8199 50.76 75.4899 50.63 74.6699 49.8C75.2099 48.98 75.3099 47.97 74.9999 47.08Z" fill="#EF3D5A"/>
<path d="M72.6597 46.48C73.0697 46.98 73.7097 47.26 74.3597 47.22C74.6497 47.96 74.5697 48.83 74.0697 49.52C73.2897 50.6 71.7797 50.84 70.6997 50.05C69.7197 49.34 69.4297 48.03 69.9697 46.99C70.9297 47.27 71.9197 47.05 72.6597 46.48Z" fill="#EF3D5A"/>
<path d="M72.5198 44.07C72.1698 44.62 72.0998 45.31 72.3398 45.92C71.7198 46.42 70.8698 46.62 70.0598 46.35C68.7898 45.94 68.0998 44.58 68.5098 43.31C68.8798 42.16 70.0398 41.48 71.1998 41.67C71.2298 42.67 71.7398 43.54 72.5198 44.07Z" fill="#EF3D5A"/>
<path d="M74.7598 43.19C74.1298 43.03 73.4498 43.17 72.9498 43.59C72.2798 43.16 71.8398 42.41 71.8398 41.56C71.8398 40.23 72.9198 39.15 74.2498 39.15C75.4598 39.15 76.4598 40.04 76.6398 41.2C75.6998 41.53 75.0298 42.29 74.7598 43.19Z" fill="#EF3D5A"/>
<path d="M76.2896 45.0501C76.2496 44.4001 75.8996 43.8001 75.3496 43.4501C75.5496 42.6801 76.1296 42.0301 76.9396 41.7601C78.2096 41.3501 79.5696 42.0401 79.9796 43.3101C80.3496 44.4601 79.8196 45.6901 78.7696 46.2101C78.1596 45.4301 77.2296 45.0301 76.2896 45.0501Z" fill="#EF3D5A"/>
<path d="M80.37 34.82C81.1487 34.82 81.78 34.1887 81.78 33.41C81.78 32.6313 81.1487 32 80.37 32C79.5912 32 78.96 32.6313 78.96 33.41C78.96 34.1887 79.5912 34.82 80.37 34.82Z" fill="#FAEEEF"/>
<path d="M81.12 35.32C81.72 35.08 82.19 34.57 82.35 33.93C83.14 33.88 83.94 34.23 84.45 34.92C85.23 36 84.99 37.51 83.92 38.29C82.94 39 81.61 38.87 80.79 38.04C81.34 37.21 81.43 36.2 81.12 35.32Z" fill="#0FC8EF"/>
<path d="M78.7901 34.72C79.2001 35.22 79.8401 35.5 80.4901 35.46C80.7801 36.2 80.7001 37.07 80.2001 37.76C79.4201 38.84 77.9101 39.08 76.8301 38.29C75.8501 37.58 75.5601 36.27 76.1001 35.23C77.0501 35.51 78.0401 35.29 78.7901 34.72Z" fill="#0FC8EF"/>
<path d="M78.6399 32.31C78.2899 32.86 78.2199 33.55 78.4599 34.16C77.8399 34.66 76.9899 34.86 76.1799 34.59C74.9099 34.18 74.2199 32.82 74.6299 31.55C74.9999 30.4 76.1599 29.72 77.3199 29.91C77.3499 30.9 77.8699 31.78 78.6399 32.31Z" fill="#0FC8EF"/>
<path d="M80.88 31.43C80.25 31.27 79.57 31.41 79.07 31.83C78.4 31.4 77.96 30.65 77.96 29.8C77.96 28.47 79.04 27.39 80.37 27.39C81.58 27.39 82.58 28.28 82.76 29.44C81.82 29.77 81.15 30.53 80.88 31.43Z" fill="#0FC8EF"/>
<path d="M82.42 33.2901C82.38 32.6401 82.03 32.0401 81.48 31.6901C81.68 30.9201 82.26 30.2701 83.07 30.0001C84.34 29.5901 85.7 30.2801 86.11 31.5501C86.48 32.7001 85.95 33.9301 84.9 34.4501C84.28 33.6701 83.35 33.2601 82.42 33.2901Z" fill="#0FC8EF"/>
</g>
<defs>
<clipPath id="clip0_323_234">
<rect width="120" height="100" fill="white"/>
</clipPath>
</defs>
</svg>
