<svg width="120" height="86" viewBox="0 0 120 86" fill="none" xmlns="http://www.w3.org/2000/svg">
<g clip-path="url(#clip0_318_11290)">
<path d="M57.3801 71.59V80.61H19.5901C19.2501 78.03 20.5901 75.79 22.8201 72.12C23.0401 71.76 23.3401 71.31 23.7301 70.79C23.9201 70.53 24.1501 70.25 24.3901 69.96C26.7701 67.18 31.5301 63.32 40.1501 62.34V62.32C40.1501 61.43 40.8801 60.77 41.7601 60.88C41.9601 60.91 42.1701 60.92 42.4101 60.94C42.7401 60.97 43.0701 61 43.4101 61.02C43.8501 61.05 44.3001 61.06 44.7501 61.06C45.5201 61.06 46.2701 61.02 47.0001 60.95C49.8101 60.67 52.2701 59.86 54.0401 58.73C54.6601 58.33 55.3501 58.09 56.0801 58L56.7901 65.4L57.2101 69.85L57.3801 71.59Z" fill="#FC961A"/>
<path d="M58.0599 80.61H18.6099V83.2H20.7799V84.58H22.7799V83.2H26.2699V84.58H28.2699V83.2H31.7599V84.58H33.7599V83.2H37.2499V84.58H39.2499V83.2H42.7399V84.58H44.7399V83.2H48.2299V84.58H50.2299V83.2H53.7199V84.58H55.7199V83.2H58.0599V80.61Z" fill="#281913"/>
<path d="M57.3699 71.59V80.61H49.0499C48.7599 79.78 48.6099 78.9 48.6099 77.97C48.6099 73.48 52.2499 69.84 56.7399 69.84C56.8899 69.84 57.0499 69.84 57.1999 69.85L57.3699 71.59Z" fill="#854714"/>
<path d="M28.3097 80.61H18.9897C18.9897 77.21 20.2597 74.01 22.8197 72.12C25.8497 73.66 28.3097 76.98 28.3097 80.61Z" fill="#854714"/>
<path d="M56.7797 65.4H54.4497C51.2597 65.4 48.3997 63.63 46.9897 60.95C49.7997 60.67 52.2597 59.86 54.0297 58.73C54.6497 58.33 55.3397 58.09 56.0697 58L56.7797 65.4Z" fill="#854714"/>
<path d="M42.41 60.94V68.13C42.41 71.38 39.77 74.02 36.53 74.02H29.33C27.79 74.02 25.37 71.14 24.39 69.96C24.15 70.25 23.92 70.53 23.73 70.79C24.91 72.3 27.41 75.02 29.33 75.02H36.53C40.33 75.02 43.41 71.93 43.41 68.13V61.02C43.07 61 42.74 60.97 42.41 60.94Z" fill="#854714"/>
<path d="M37.69 65.4C38.3472 65.4 38.88 64.8672 38.88 64.21C38.88 63.5528 38.3472 63.02 37.69 63.02C37.0328 63.02 36.5 63.5528 36.5 64.21C36.5 64.8672 37.0328 65.4 37.69 65.4Z" fill="#F9D335"/>
<path d="M33.7701 66.59C34.4273 66.59 34.9601 66.0572 34.9601 65.4C34.9601 64.7427 34.4273 64.21 33.7701 64.21C33.1129 64.21 32.5801 64.7427 32.5801 65.4C32.5801 66.0572 33.1129 66.59 33.7701 66.59Z" fill="#F9D335"/>
<path d="M30.0699 68.46C30.7271 68.46 31.2599 67.9272 31.2599 67.27C31.2599 66.6128 30.7271 66.08 30.0699 66.08C29.4127 66.08 28.8799 66.6128 28.8799 67.27C28.8799 67.9272 29.4127 68.46 30.0699 68.46Z" fill="#F9D335"/>
<path d="M27.1202 70.85C27.7774 70.85 28.3102 70.3172 28.3102 69.66C28.3102 69.0028 27.7774 68.47 27.1202 68.47C26.463 68.47 25.9302 69.0028 25.9302 69.66C25.9302 70.3172 26.463 70.85 27.1202 70.85Z" fill="#F9D335"/>
<path d="M37.2501 61.43C37.4801 61.43 37.6901 61.59 37.7401 61.83L38.2001 64C38.2601 64.27 38.0801 64.54 37.8101 64.59C37.5401 64.65 37.2701 64.47 37.2201 64.2L36.7601 62.03C36.7001 61.76 36.8801 61.49 37.1501 61.44C37.1801 61.43 37.2101 61.43 37.2501 61.43Z" fill="#162330"/>
<path d="M32.7899 62.72C32.9499 62.74 33.0999 62.84 33.1799 63L34.1399 64.99C34.2599 65.24 34.1499 65.54 33.9099 65.66C33.6599 65.78 33.3599 65.68 33.2399 65.43L32.2799 63.44C32.1599 63.19 32.2699 62.89 32.5099 62.77C32.6099 62.72 32.6999 62.7 32.7899 62.72Z" fill="#162330"/>
<path d="M28.9698 64.82C29.0398 64.86 29.1098 64.91 29.1598 64.99L30.4998 67.04C30.6498 67.27 30.5898 67.58 30.3598 67.73C30.1298 67.88 29.8198 67.82 29.6698 67.59L28.3298 65.54C28.1798 65.31 28.2398 65 28.4698 64.85C28.6198 64.74 28.8198 64.74 28.9698 64.82Z" fill="#162330"/>
<path d="M25.7501 67.49C25.7801 67.51 25.8001 67.53 25.8201 67.55L27.4901 69.31C27.6801 69.51 27.6701 69.83 27.4701 70.02C27.2701 70.21 26.9501 70.2 26.7601 70L25.0901 68.24C24.9001 68.04 24.9101 67.72 25.1101 67.53C25.2901 67.36 25.5601 67.35 25.7501 67.49Z" fill="#162330"/>
<path d="M62.6201 71.59V80.61H100.41C100.75 78.03 99.4101 75.79 97.1801 72.12C96.9601 71.76 96.6601 71.31 96.2701 70.79C96.0801 70.53 95.8501 70.25 95.6101 69.96C93.2301 67.18 88.4701 63.32 79.8501 62.34V62.32C79.8501 61.43 79.1201 60.77 78.2401 60.88C78.0401 60.91 77.8301 60.92 77.5901 60.94C77.2601 60.97 76.9301 61 76.5901 61.02C76.1501 61.05 75.7001 61.06 75.2501 61.06C74.4801 61.06 73.7301 61.02 73.0001 60.95C70.1901 60.67 67.7301 59.86 65.9601 58.73C65.3401 58.33 64.6501 58.09 63.9201 58L63.2101 65.4L62.7901 69.85L62.6201 71.59Z" fill="#FC961A"/>
<path d="M61.9399 80.61H101.39V83.2H99.2199V84.58H97.2199V83.2H93.7299V84.58H91.7299V83.2H88.2399V84.58H86.2399V83.2H82.7499V84.58H80.7499V83.2H77.2599V84.58H75.2599V83.2H71.7699V84.58H69.7699V83.2H66.2799V84.58H64.2799V83.2H61.9399V80.61Z" fill="#281913"/>
<path d="M62.6299 71.59V80.61H70.9499C71.2399 79.78 71.3899 78.9 71.3899 77.97C71.3899 73.48 67.7499 69.84 63.2599 69.84C63.1099 69.84 62.9499 69.84 62.7999 69.85L62.6299 71.59Z" fill="#854714"/>
<path d="M91.6899 80.61H101.01C101.01 77.21 99.7399 74.01 97.1799 72.12C94.1499 73.66 91.6899 76.98 91.6899 80.61Z" fill="#854714"/>
<path d="M63.2197 65.4H65.5497C68.7397 65.4 71.5997 63.63 73.0097 60.95C70.1997 60.67 67.7397 59.86 65.9697 58.73C65.3497 58.33 64.6597 58.09 63.9297 58L63.2197 65.4Z" fill="#854714"/>
<path d="M76.5898 61.02V68.13C76.5898 71.93 79.6698 75.02 83.4698 75.02H90.6698C92.5898 75.02 95.0898 72.3 96.2698 70.79C96.0798 70.53 95.8498 70.25 95.6098 69.96C94.6298 71.14 92.2098 74.02 90.6698 74.02H83.4698C80.2298 74.02 77.5898 71.38 77.5898 68.13V60.94C77.2598 60.97 76.9298 61 76.5898 61.02Z" fill="#854714"/>
<path d="M82.3101 65.4C82.9673 65.4 83.5001 64.8672 83.5001 64.21C83.5001 63.5528 82.9673 63.02 82.3101 63.02C81.6529 63.02 81.1201 63.5528 81.1201 64.21C81.1201 64.8672 81.6529 65.4 82.3101 65.4Z" fill="#F9D335"/>
<path d="M86.23 66.59C86.8873 66.59 87.42 66.0572 87.42 65.4C87.42 64.7427 86.8873 64.21 86.23 64.21C85.5728 64.21 85.04 64.7427 85.04 65.4C85.04 66.0572 85.5728 66.59 86.23 66.59Z" fill="#F9D335"/>
<path d="M89.9302 68.46C90.5875 68.46 91.1202 67.9272 91.1202 67.27C91.1202 66.6128 90.5875 66.08 89.9302 66.08C89.273 66.08 88.7402 66.6128 88.7402 67.27C88.7402 67.9272 89.273 68.46 89.9302 68.46Z" fill="#F9D335"/>
<path d="M92.8799 70.85C93.5372 70.85 94.0699 70.3172 94.0699 69.66C94.0699 69.0028 93.5372 68.47 92.8799 68.47C92.2227 68.47 91.6899 69.0028 91.6899 69.66C91.6899 70.3172 92.2227 70.85 92.8799 70.85Z" fill="#F9D335"/>
<path d="M82.7501 61.43C82.5201 61.43 82.3101 61.59 82.2601 61.83L81.8001 64C81.7401 64.27 81.9201 64.54 82.1901 64.59C82.4601 64.65 82.7301 64.47 82.7801 64.2L83.2401 62.03C83.3001 61.76 83.1201 61.49 82.8501 61.44C82.8201 61.43 82.7901 61.43 82.7501 61.43Z" fill="#162330"/>
<path d="M87.2099 62.72C87.0499 62.74 86.8999 62.84 86.8199 63L85.8599 64.99C85.7399 65.24 85.8499 65.54 86.0899 65.66C86.3399 65.78 86.6399 65.68 86.7599 65.43L87.7199 63.44C87.8399 63.19 87.7299 62.89 87.4899 62.77C87.3899 62.72 87.2999 62.7 87.2099 62.72Z" fill="#162330"/>
<path d="M91.0302 64.82C90.9602 64.86 90.8902 64.91 90.8402 64.99L89.5002 67.04C89.3502 67.27 89.4102 67.58 89.6402 67.73C89.8702 67.88 90.1802 67.82 90.3302 67.59L91.6702 65.54C91.8202 65.31 91.7602 65 91.5302 64.85C91.3802 64.74 91.1802 64.74 91.0302 64.82Z" fill="#162330"/>
<path d="M94.25 67.49C94.22 67.51 94.2 67.53 94.18 67.55L92.51 69.31C92.32 69.51 92.33 69.83 92.53 70.02C92.73 70.21 93.05 70.2 93.24 70L94.91 68.24C95.1 68.04 95.09 67.72 94.89 67.53C94.71 67.36 94.44 67.35 94.25 67.49Z" fill="#162330"/>
</g>
<defs>
<clipPath id="clip0_318_11290">
<rect width="120" height="85" fill="white" transform="translate(0 0.5)"/>
</clipPath>
</defs>
</svg>
