<svg width="120" height="100" viewBox="0 0 120 100" fill="none" xmlns="http://www.w3.org/2000/svg">
<g clip-path="url(#clip0_323_107)">
<path d="M61.46 17.71C61.45 18.97 61.41 20.31 61.36 21.69C61.25 25.2 61.01 28.95 60.76 32.34C60.66 33.75 60.56 35.09 60.45 36.32C60.14 40.03 59.85 42.75 59.75 43.29C59.66 43.78 59.41 45.71 59.12 48.23C59.12 48.23 59.11 48.23 59.11 48.24C59.07 48.62 59.02 49.01 58.98 49.4C58.75 51.25 58.53 53.31 58.3 55.29L58 57.82C57.6 61.46 57.27 64.35 57.27 64.35C57.79 66.12 58.15 68.11 58.4 70.18V70.19C58.46 70.63 58.51 71.06 58.55 71.5C58.78 73.72 58.9 76 58.95 78.13C58.95 78.34 58.95 78.56 58.96 78.76V78.8C59.06 84.55 58.68 89.22 58.68 89.22H10.98V82.96C11.38 77.72 15.44 74.33 19.61 72.22C20.87 71.58 22.12 71.06 23.29 70.65V70.64C23.67 70.51 24.03 70.39 24.38 70.28C28.95 68.8 32.28 64.78 32.7 59.98C32.95 57.07 32.93 53.66 32.74 50.05C32.7 49.46 32.68 48.86 32.63 48.25C32.63 48.24 32.63 48.24 32.63 48.24C32.49 46.25 32.32 44.22 32.09 42.18C32.04 41.73 31.99 41.28 31.94 40.82C31.48 36.74 30.9 32.69 30.31 29.05C30.08 27.64 29.86 26.3 29.64 25.03C28.57 18.89 27.65 14.64 27.65 14.64C28.24 14.56 29.02 14.48 29.94 14.38C29.95 14.38 29.95 14.38 29.95 14.38C30.2 14.34 30.45 14.32 30.73 14.28C32.54 14.07 34.79 13.8 37.25 13.53C38.41 13.39 39.6 13.25 40.82 13.12C42.44 12.93 44.1 12.74 45.72 12.55C47.1 12.4 48.47 12.24 49.77 12.1C51.55 11.89 53.22 11.7 54.72 11.52C56.04 11.37 57.22 11.24 58.19 11.13C60.02 10.92 61.13 10.79 61.13 10.79C61.38 12.38 61.48 14.84 61.46 17.71Z" fill="#B0305C"/>
<path d="M10.98 87.12C11.33 87.52 11.87 87.77 12.46 87.77C13.59 87.77 14.51 86.85 14.51 85.72C14.51 84.59 13.59 83.67 12.46 83.67C11.87 83.67 11.33 83.92 10.98 84.32V87.12Z" fill="#FFB5B5"/>
<path d="M21.2797 87.7601C22.4064 87.7601 23.3197 86.8467 23.3197 85.7201C23.3197 84.5934 22.4064 83.6801 21.2797 83.6801C20.1531 83.6801 19.2397 84.5934 19.2397 85.7201C19.2397 86.8467 20.1531 87.7601 21.2797 87.7601Z" fill="#FFB5B5"/>
<path d="M30.1001 87.7601C31.2267 87.7601 32.1401 86.8467 32.1401 85.7201C32.1401 84.5934 31.2267 83.6801 30.1001 83.6801C28.9734 83.6801 28.0601 84.5934 28.0601 85.7201C28.0601 86.8467 28.9734 87.7601 30.1001 87.7601Z" fill="#FFB5B5"/>
<path d="M38.9199 87.7601C40.0465 87.7601 40.9599 86.8467 40.9599 85.7201C40.9599 84.5934 40.0465 83.6801 38.9199 83.6801C37.7932 83.6801 36.8799 84.5934 36.8799 85.7201C36.8799 86.8467 37.7932 87.7601 38.9199 87.7601Z" fill="#FFB5B5"/>
<path d="M47.7402 87.7601C48.8669 87.7601 49.7802 86.8467 49.7802 85.7201C49.7802 84.5934 48.8669 83.6801 47.7402 83.6801C46.6135 83.6801 45.7002 84.5934 45.7002 85.7201C45.7002 86.8467 46.6135 87.7601 47.7402 87.7601Z" fill="#FFB5B5"/>
<path d="M56.56 87.7601C57.6867 87.7601 58.6 86.8467 58.6 85.7201C58.6 84.5934 57.6867 83.6801 56.56 83.6801C55.4334 83.6801 54.52 84.5934 54.52 85.7201C54.52 86.8467 55.4334 87.7601 56.56 87.7601Z" fill="#FFB5B5"/>
<path d="M16.8701 80.43C17.9967 80.43 18.9101 79.5166 18.9101 78.39C18.9101 77.2633 17.9967 76.35 16.8701 76.35C15.7434 76.35 14.8301 77.2633 14.8301 78.39C14.8301 79.5166 15.7434 80.43 16.8701 80.43Z" fill="#FFB5B5"/>
<path d="M25.6899 80.43C26.8166 80.43 27.7299 79.5166 27.7299 78.39C27.7299 77.2633 26.8166 76.35 25.6899 76.35C24.5632 76.35 23.6499 77.2633 23.6499 78.39C23.6499 79.5166 24.5632 80.43 25.6899 80.43Z" fill="#FFB5B5"/>
<path d="M34.5102 80.43C35.6369 80.43 36.5502 79.5166 36.5502 78.39C36.5502 77.2633 35.6369 76.35 34.5102 76.35C33.3836 76.35 32.4702 77.2633 32.4702 78.39C32.4702 79.5166 33.3836 80.43 34.5102 80.43Z" fill="#FFB5B5"/>
<path d="M43.33 80.43C44.4567 80.43 45.37 79.5166 45.37 78.39C45.37 77.2633 44.4567 76.35 43.33 76.35C42.2034 76.35 41.29 77.2633 41.29 78.39C41.29 79.5166 42.2034 80.43 43.33 80.43Z" fill="#FFB5B5"/>
<path d="M52.1499 80.43C53.2765 80.43 54.1899 79.5166 54.1899 78.39C54.1899 77.2633 53.2765 76.35 52.1499 76.35C51.0232 76.35 50.1099 77.2633 50.1099 78.39C50.1099 79.5166 51.0232 80.43 52.1499 80.43Z" fill="#FFB5B5"/>
<path d="M58.9702 78.76C58.9402 78.63 58.9302 78.51 58.9302 78.38C58.9302 78.29 58.9302 78.2 58.9602 78.13C58.9602 78.35 58.9602 78.56 58.9702 78.76Z" fill="#FFB5B5"/>
<path d="M23.3299 71.05C23.3299 72.18 22.4099 73.1 21.2799 73.1C20.5899 73.1 19.9699 72.75 19.6099 72.22C20.8699 71.58 22.1199 71.06 23.2899 70.65C23.3099 70.77 23.3299 70.91 23.3299 71.05Z" fill="#FFB5B5"/>
<path d="M30.1001 73.09C31.2267 73.09 32.1401 72.1767 32.1401 71.05C32.1401 69.9233 31.2267 69.01 30.1001 69.01C28.9734 69.01 28.0601 69.9233 28.0601 71.05C28.0601 72.1767 28.9734 73.09 30.1001 73.09Z" fill="#FFB5B5"/>
<path d="M38.9199 73.09C40.0465 73.09 40.9599 72.1767 40.9599 71.05C40.9599 69.9233 40.0465 69.01 38.9199 69.01C37.7932 69.01 36.8799 69.9233 36.8799 71.05C36.8799 72.1767 37.7932 73.09 38.9199 73.09Z" fill="#FFB5B5"/>
<path d="M47.7397 73.09C48.8664 73.09 49.7797 72.1767 49.7797 71.05C49.7797 69.9233 48.8664 69.01 47.7397 69.01C46.613 69.01 45.6997 69.9233 45.6997 71.05C45.6997 72.1767 46.613 73.09 47.7397 73.09Z" fill="#FFB5B5"/>
<path d="M56.56 73.09C57.6867 73.09 58.6 72.1767 58.6 71.05C58.6 69.9233 57.6867 69.01 56.56 69.01C55.4334 69.01 54.52 69.9233 54.52 71.05C54.52 72.1767 55.4334 73.09 56.56 73.09Z" fill="#FFB5B5"/>
<path d="M34.5102 65.75C35.6369 65.75 36.5502 64.8367 36.5502 63.71C36.5502 62.5834 35.6369 61.67 34.5102 61.67C33.3836 61.67 32.4702 62.5834 32.4702 63.71C32.4702 64.8367 33.3836 65.75 34.5102 65.75Z" fill="#FFB5B5"/>
<path d="M43.33 65.75C44.4567 65.75 45.37 64.8367 45.37 63.71C45.37 62.5834 44.4567 61.67 43.33 61.67C42.2034 61.67 41.29 62.5834 41.29 63.71C41.29 64.8367 42.2034 65.75 43.33 65.75Z" fill="#FFB5B5"/>
<path d="M52.1504 65.75C53.277 65.75 54.1903 64.8367 54.1903 63.71C54.1903 62.5834 53.277 61.67 52.1504 61.67C51.0237 61.67 50.1104 62.5834 50.1104 63.71C50.1104 64.8367 51.0237 65.75 52.1504 65.75Z" fill="#FFB5B5"/>
<path d="M38.9199 58.41C40.0465 58.41 40.9599 57.4966 40.9599 56.37C40.9599 55.2433 40.0465 54.33 38.9199 54.33C37.7932 54.33 36.8799 55.2433 36.8799 56.37C36.8799 57.4966 37.7932 58.41 38.9199 58.41Z" fill="#FFB5B5"/>
<path d="M47.7397 58.41C48.8664 58.41 49.7797 57.4966 49.7797 56.37C49.7797 55.2433 48.8664 54.33 47.7397 54.33C46.613 54.33 45.6997 55.2433 45.6997 56.37C45.6997 57.4966 46.613 58.41 47.7397 58.41Z" fill="#FFB5B5"/>
<path d="M58 57.8199C57.64 58.1799 57.13 58.4099 56.57 58.4099C55.44 58.4099 54.52 57.5099 54.52 56.3699C54.52 55.2399 55.44 54.3199 56.57 54.3199C57.3 54.3199 57.94 54.7099 58.29 55.2899L58 57.8199Z" fill="#FFB5B5"/>
<path d="M36.5599 49.04C36.5599 50.17 35.6399 51.08 34.5099 51.08C33.7399 51.08 33.0799 50.67 32.7399 50.05C32.6999 49.46 32.6799 48.86 32.6299 48.25C32.6299 48.24 32.6299 48.24 32.6299 48.24C32.9399 47.51 33.6699 47 34.5099 47C35.6399 46.99 36.5599 47.91 36.5599 49.04Z" fill="#FFB5B5"/>
<path d="M43.33 51.08C44.4567 51.08 45.37 50.1667 45.37 49.04C45.37 47.9133 44.4567 47 43.33 47C42.2034 47 41.29 47.9133 41.29 49.04C41.29 50.1667 42.2034 51.08 43.33 51.08Z" fill="#FFB5B5"/>
<path d="M52.1499 51.08C53.2765 51.08 54.1899 50.1667 54.1899 49.04C54.1899 47.9133 53.2765 47 52.1499 47C51.0232 47 50.1099 47.9133 50.1099 49.04C50.1099 50.1667 51.0232 51.08 52.1499 51.08Z" fill="#FFB5B5"/>
<path d="M59.0997 48.25C59.0597 48.63 59.0097 49.02 58.9697 49.41C58.9397 49.3 58.9297 49.17 58.9297 49.05C58.9297 48.76 58.9897 48.49 59.0997 48.25Z" fill="#FFB5B5"/>
<path d="M32.1499 41.7001C32.1499 41.8601 32.1199 42.0301 32.0899 42.1801C32.0399 41.7301 31.9899 41.2801 31.9399 40.8201C32.0699 41.0901 32.1499 41.3901 32.1499 41.7001Z" fill="#FFB5B5"/>
<path d="M38.9199 43.74C40.0465 43.74 40.9599 42.8267 40.9599 41.7C40.9599 40.5734 40.0465 39.66 38.9199 39.66C37.7932 39.66 36.8799 40.5734 36.8799 41.7C36.8799 42.8267 37.7932 43.74 38.9199 43.74Z" fill="#FFB5B5"/>
<path d="M47.7397 43.74C48.8664 43.74 49.7797 42.8267 49.7797 41.7C49.7797 40.5734 48.8664 39.66 47.7397 39.66C46.613 39.66 45.6997 40.5734 45.6997 41.7C45.6997 42.8267 46.613 43.74 47.7397 43.74Z" fill="#FFB5B5"/>
<path d="M56.56 43.74C57.6867 43.74 58.6 42.8267 58.6 41.7C58.6 40.5734 57.6867 39.66 56.56 39.66C55.4334 39.66 54.52 40.5734 54.52 41.7C54.52 42.8267 55.4334 43.74 56.56 43.74Z" fill="#FFB5B5"/>
<path d="M34.5102 36.3999C35.6369 36.3999 36.5502 35.4866 36.5502 34.3599C36.5502 33.2333 35.6369 32.3199 34.5102 32.3199C33.3836 32.3199 32.4702 33.2333 32.4702 34.3599C32.4702 35.4866 33.3836 36.3999 34.5102 36.3999Z" fill="#FFB5B5"/>
<path d="M43.33 36.3999C44.4567 36.3999 45.37 35.4866 45.37 34.3599C45.37 33.2333 44.4567 32.3199 43.33 32.3199C42.2034 32.3199 41.29 33.2333 41.29 34.3599C41.29 35.4866 42.2034 36.3999 43.33 36.3999Z" fill="#FFB5B5"/>
<path d="M52.1504 36.3999C53.277 36.3999 54.1903 35.4866 54.1903 34.3599C54.1903 33.2333 53.277 32.3199 52.1504 32.3199C51.0237 32.3199 50.1104 33.2333 50.1104 34.3599C50.1104 35.4866 51.0237 36.3999 52.1504 36.3999Z" fill="#FFB5B5"/>
<path d="M60.7502 32.34C60.6502 33.75 60.5502 35.09 60.4402 36.32C59.5702 36.08 58.9302 35.29 58.9302 34.36C58.9302 33.31 59.7202 32.44 60.7502 32.34Z" fill="#FFB5B5"/>
<path d="M32.1499 27.03C32.1499 28.09 31.3499 28.95 30.2999 29.05C30.0699 27.64 29.8499 26.3 29.6299 25.03C29.7799 24.99 29.9299 24.98 30.0899 24.98C31.2299 24.98 32.1499 25.9 32.1499 27.03Z" fill="#FFB5B5"/>
<path d="M38.9199 29.06C40.0465 29.06 40.9599 28.1466 40.9599 27.02C40.9599 25.8933 40.0465 24.98 38.9199 24.98C37.7932 24.98 36.8799 25.8933 36.8799 27.02C36.8799 28.1466 37.7932 29.06 38.9199 29.06Z" fill="#FFB5B5"/>
<path d="M47.7397 29.06C48.8664 29.06 49.7797 28.1466 49.7797 27.02C49.7797 25.8933 48.8664 24.98 47.7397 24.98C46.613 24.98 45.6997 25.8933 45.6997 27.02C45.6997 28.1466 46.613 29.06 47.7397 29.06Z" fill="#FFB5B5"/>
<path d="M56.56 29.06C57.6867 29.06 58.6 28.1466 58.6 27.02C58.6 25.8933 57.6867 24.98 56.56 24.98C55.4334 24.98 54.52 25.8933 54.52 27.02C54.52 28.1466 55.4334 29.06 56.56 29.06Z" fill="#FFB5B5"/>
<path d="M34.5102 21.72C35.6369 21.72 36.5502 20.8067 36.5502 19.68C36.5502 18.5534 35.6369 17.64 34.5102 17.64C33.3836 17.64 32.4702 18.5534 32.4702 19.68C32.4702 20.8067 33.3836 21.72 34.5102 21.72Z" fill="#FFB5B5"/>
<path d="M43.33 21.72C44.4567 21.72 45.37 20.8067 45.37 19.68C45.37 18.5534 44.4567 17.64 43.33 17.64C42.2034 17.64 41.29 18.5534 41.29 19.68C41.29 20.8067 42.2034 21.72 43.33 21.72Z" fill="#FFB5B5"/>
<path d="M52.1504 21.72C53.277 21.72 54.1903 20.8067 54.1903 19.68C54.1903 18.5534 53.277 17.64 52.1504 17.64C51.0237 17.64 50.1104 18.5534 50.1104 19.68C50.1104 20.8067 51.0237 21.72 52.1504 21.72Z" fill="#FFB5B5"/>
<path d="M61.4602 17.71C61.4502 18.97 61.4102 20.31 61.3602 21.69C61.2302 21.72 61.1102 21.73 60.9802 21.73C59.8502 21.73 58.9302 20.81 58.9302 19.69C58.9302 18.56 59.8502 17.64 60.9802 17.64C61.1402 17.64 61.3102 17.67 61.4602 17.71Z" fill="#FFB5B5"/>
<path d="M30.7302 14.28C30.5402 14.36 30.3302 14.39 30.1002 14.39C30.0502 14.39 30.0002 14.39 29.9502 14.38C30.2002 14.34 30.4502 14.31 30.7302 14.28Z" fill="#FFB5B5"/>
<path d="M40.82 13.11C40.52 13.86 39.78 14.39 38.92 14.39C38.23 14.39 37.63 14.05 37.25 13.52C38.4 13.38 39.6 13.25 40.82 13.11Z" fill="#FFB5B5"/>
<path d="M49.7902 12.34C49.7902 13.47 48.8702 14.39 47.7402 14.39C46.6702 14.39 45.8202 13.59 45.7202 12.54C47.1002 12.39 48.4702 12.23 49.7702 12.09C49.7902 12.18 49.7902 12.25 49.7902 12.34Z" fill="#FFB5B5"/>
<path d="M58.61 12.34C58.61 13.47 57.69 14.39 56.57 14.39C55.44 14.39 54.52 13.47 54.52 12.34C54.52 12.05 54.58 11.76 54.71 11.51C56.03 11.36 57.21 11.23 58.18 11.12C58.45 11.46 58.61 11.89 58.61 12.34Z" fill="#FFB5B5"/>
<path d="M58.5401 17.71C58.5501 18.97 58.5901 20.31 58.6401 21.69C58.7501 25.2 58.9901 28.95 59.2401 32.34C59.3401 33.75 59.4401 35.09 59.5501 36.32C59.8601 40.03 60.1501 42.75 60.2501 43.29C60.3401 43.78 60.5901 45.71 60.8801 48.23C60.8801 48.23 60.8901 48.23 60.8901 48.24C60.9301 48.62 60.9801 49.01 61.0201 49.4C61.2501 51.25 61.4701 53.31 61.7001 55.29L62.0001 57.82C62.4001 61.46 62.7301 64.35 62.7301 64.35C62.2101 66.12 61.8501 68.11 61.6001 70.18V70.19C61.5401 70.63 61.4901 71.06 61.4501 71.5C61.2201 73.72 61.1001 76 61.0501 78.13C61.0501 78.34 61.0501 78.56 61.0401 78.76V78.8C60.9401 84.55 61.3201 89.22 61.3201 89.22H109.04V82.96C108.64 77.72 104.58 74.33 100.41 72.22C99.1501 71.58 97.9001 71.06 96.7301 70.65V70.64C96.3501 70.51 95.9901 70.39 95.6401 70.28C91.0701 68.8 87.7401 64.78 87.3201 59.98C87.0701 57.07 87.0901 53.66 87.2801 50.05C87.3201 49.46 87.3401 48.86 87.3901 48.25C87.3901 48.24 87.3901 48.24 87.3901 48.24C87.5301 46.25 87.7001 44.22 87.9301 42.18C87.9801 41.73 88.0301 41.28 88.0801 40.82C88.5401 36.74 89.1201 32.69 89.7101 29.05C89.9401 27.64 90.1601 26.3 90.3801 25.03C91.4501 18.89 92.3701 14.64 92.3701 14.64C91.7801 14.56 91.0001 14.48 90.0801 14.38C90.0701 14.38 90.0701 14.38 90.0701 14.38C89.8201 14.34 89.5701 14.32 89.2901 14.28C87.4801 14.07 85.2301 13.8 82.7701 13.53C81.6101 13.39 80.4201 13.25 79.2001 13.12C77.5801 12.93 75.9201 12.74 74.3001 12.55C72.9201 12.4 71.5501 12.24 70.2501 12.1C68.4701 11.89 66.8001 11.7 65.3001 11.52C63.9801 11.37 62.8001 11.24 61.8301 11.13C60.0001 10.92 58.8901 10.79 58.8901 10.79C58.6201 12.38 58.5201 14.84 58.5401 17.71Z" fill="#B0305C"/>
<path d="M109.02 87.12C108.67 87.52 108.13 87.77 107.54 87.77C106.41 87.77 105.49 86.85 105.49 85.72C105.49 84.59 106.41 83.67 107.54 83.67C108.13 83.67 108.67 83.92 109.02 84.32V87.12Z" fill="#FFB5B5"/>
<path d="M98.7197 87.7601C99.8463 87.7601 100.76 86.8467 100.76 85.7201C100.76 84.5934 99.8463 83.6801 98.7197 83.6801C97.593 83.6801 96.6797 84.5934 96.6797 85.7201C96.6797 86.8467 97.593 87.7601 98.7197 87.7601Z" fill="#FFB5B5"/>
<path d="M89.8999 87.7601C91.0265 87.7601 91.9399 86.8467 91.9399 85.7201C91.9399 84.5934 91.0265 83.6801 89.8999 83.6801C88.7732 83.6801 87.8599 84.5934 87.8599 85.7201C87.8599 86.8467 88.7732 87.7601 89.8999 87.7601Z" fill="#FFB5B5"/>
<path d="M81.08 87.7601C82.2067 87.7601 83.12 86.8467 83.12 85.7201C83.12 84.5934 82.2067 83.6801 81.08 83.6801C79.9534 83.6801 79.04 84.5934 79.04 85.7201C79.04 86.8467 79.9534 87.7601 81.08 87.7601Z" fill="#FFB5B5"/>
<path d="M72.2597 87.7601C73.3864 87.7601 74.2997 86.8467 74.2997 85.7201C74.2997 84.5934 73.3864 83.6801 72.2597 83.6801C71.1331 83.6801 70.2197 84.5934 70.2197 85.7201C70.2197 86.8467 71.1331 87.7601 72.2597 87.7601Z" fill="#FFB5B5"/>
<path d="M63.4399 87.7601C64.5666 87.7601 65.4799 86.8467 65.4799 85.7201C65.4799 84.5934 64.5666 83.6801 63.4399 83.6801C62.3132 83.6801 61.3999 84.5934 61.3999 85.7201C61.3999 86.8467 62.3132 87.7601 63.4399 87.7601Z" fill="#FFB5B5"/>
<path d="M103.13 80.43C104.257 80.43 105.17 79.5166 105.17 78.39C105.17 77.2633 104.257 76.35 103.13 76.35C102.004 76.35 101.09 77.2633 101.09 78.39C101.09 79.5166 102.004 80.43 103.13 80.43Z" fill="#FFB5B5"/>
<path d="M94.3105 80.43C95.4372 80.43 96.3505 79.5166 96.3505 78.39C96.3505 77.2633 95.4372 76.35 94.3105 76.35C93.1838 76.35 92.2705 77.2633 92.2705 78.39C92.2705 79.5166 93.1838 80.43 94.3105 80.43Z" fill="#FFB5B5"/>
<path d="M85.4902 80.43C86.6169 80.43 87.5302 79.5166 87.5302 78.39C87.5302 77.2633 86.6169 76.35 85.4902 76.35C84.3635 76.35 83.4502 77.2633 83.4502 78.39C83.4502 79.5166 84.3635 80.43 85.4902 80.43Z" fill="#FFB5B5"/>
<path d="M76.6704 80.43C77.797 80.43 78.7104 79.5166 78.7104 78.39C78.7104 77.2633 77.797 76.35 76.6704 76.35C75.5437 76.35 74.6304 77.2633 74.6304 78.39C74.6304 79.5166 75.5437 80.43 76.6704 80.43Z" fill="#FFB5B5"/>
<path d="M67.8501 80.43C68.9767 80.43 69.8901 79.5166 69.8901 78.39C69.8901 77.2633 68.9767 76.35 67.8501 76.35C66.7234 76.35 65.8101 77.2633 65.8101 78.39C65.8101 79.5166 66.7234 80.43 67.8501 80.43Z" fill="#FFB5B5"/>
<path d="M61.0303 78.76C61.0603 78.63 61.0703 78.51 61.0703 78.38C61.0703 78.29 61.0703 78.2 61.0403 78.13C61.0403 78.35 61.0403 78.56 61.0303 78.76Z" fill="#FFB5B5"/>
<path d="M96.6699 71.05C96.6699 72.18 97.5899 73.1 98.7199 73.1C99.4099 73.1 100.03 72.75 100.39 72.22C99.1299 71.58 97.8799 71.06 96.7099 70.65C96.6899 70.77 96.6699 70.91 96.6699 71.05Z" fill="#FFB5B5"/>
<path d="M89.8999 73.09C91.0265 73.09 91.9399 72.1767 91.9399 71.05C91.9399 69.9233 91.0265 69.01 89.8999 69.01C88.7732 69.01 87.8599 69.9233 87.8599 71.05C87.8599 72.1767 88.7732 73.09 89.8999 73.09Z" fill="#FFB5B5"/>
<path d="M81.08 73.09C82.2067 73.09 83.12 72.1767 83.12 71.05C83.12 69.9233 82.2067 69.01 81.08 69.01C79.9534 69.01 79.04 69.9233 79.04 71.05C79.04 72.1767 79.9534 73.09 81.08 73.09Z" fill="#FFB5B5"/>
<path d="M72.2597 73.09C73.3864 73.09 74.2997 72.1767 74.2997 71.05C74.2997 69.9233 73.3864 69.01 72.2597 69.01C71.1331 69.01 70.2197 69.9233 70.2197 71.05C70.2197 72.1767 71.1331 73.09 72.2597 73.09Z" fill="#FFB5B5"/>
<path d="M63.4399 73.09C64.5666 73.09 65.4799 72.1767 65.4799 71.05C65.4799 69.9233 64.5666 69.01 63.4399 69.01C62.3132 69.01 61.3999 69.9233 61.3999 71.05C61.3999 72.1767 62.3132 73.09 63.4399 73.09Z" fill="#FFB5B5"/>
<path d="M85.4902 65.75C86.6169 65.75 87.5302 64.8367 87.5302 63.71C87.5302 62.5834 86.6169 61.67 85.4902 61.67C84.3635 61.67 83.4502 62.5834 83.4502 63.71C83.4502 64.8367 84.3635 65.75 85.4902 65.75Z" fill="#FFB5B5"/>
<path d="M76.6699 65.75C77.7965 65.75 78.7099 64.8367 78.7099 63.71C78.7099 62.5834 77.7965 61.67 76.6699 61.67C75.5432 61.67 74.6299 62.5834 74.6299 63.71C74.6299 64.8367 75.5432 65.75 76.6699 65.75Z" fill="#FFB5B5"/>
<path d="M67.8501 65.75C68.9767 65.75 69.8901 64.8367 69.8901 63.71C69.8901 62.5834 68.9767 61.67 67.8501 61.67C66.7234 61.67 65.8101 62.5834 65.8101 63.71C65.8101 64.8367 66.7234 65.75 67.8501 65.75Z" fill="#FFB5B5"/>
<path d="M81.08 58.41C82.2067 58.41 83.12 57.4966 83.12 56.37C83.12 55.2433 82.2067 54.33 81.08 54.33C79.9534 54.33 79.04 55.2433 79.04 56.37C79.04 57.4966 79.9534 58.41 81.08 58.41Z" fill="#FFB5B5"/>
<path d="M72.2597 58.41C73.3864 58.41 74.2997 57.4966 74.2997 56.37C74.2997 55.2433 73.3864 54.33 72.2597 54.33C71.1331 54.33 70.2197 55.2433 70.2197 56.37C70.2197 57.4966 71.1331 58.41 72.2597 58.41Z" fill="#FFB5B5"/>
<path d="M62 57.8199C62.36 58.1799 62.87 58.4099 63.43 58.4099C64.56 58.4099 65.48 57.5099 65.48 56.3699C65.48 55.2399 64.56 54.3199 63.43 54.3199C62.7 54.3199 62.06 54.7099 61.71 55.2899L62 57.8199Z" fill="#FFB5B5"/>
<path d="M83.4399 49.04C83.4399 50.17 84.3599 51.08 85.4899 51.08C86.2599 51.08 86.9199 50.67 87.2599 50.05C87.2999 49.46 87.3199 48.86 87.3699 48.25C87.3699 48.24 87.3699 48.24 87.3699 48.24C87.0599 47.51 86.3299 47 85.4899 47C84.3599 46.99 83.4399 47.91 83.4399 49.04Z" fill="#FFB5B5"/>
<path d="M76.6699 51.08C77.7965 51.08 78.7099 50.1667 78.7099 49.04C78.7099 47.9133 77.7965 47 76.6699 47C75.5432 47 74.6299 47.9133 74.6299 49.04C74.6299 50.1667 75.5432 51.08 76.6699 51.08Z" fill="#FFB5B5"/>
<path d="M67.8501 51.08C68.9767 51.08 69.8901 50.1667 69.8901 49.04C69.8901 47.9133 68.9767 47 67.8501 47C66.7234 47 65.8101 47.9133 65.8101 49.04C65.8101 50.1667 66.7234 51.08 67.8501 51.08Z" fill="#FFB5B5"/>
<path d="M60.8999 48.25C60.9399 48.63 60.9899 49.02 61.0299 49.41C61.0599 49.3 61.0699 49.17 61.0699 49.05C61.0699 48.76 61.0099 48.49 60.8999 48.25Z" fill="#FFB5B5"/>
<path d="M87.8501 41.7001C87.8501 41.8601 87.8801 42.0301 87.9101 42.1801C87.9601 41.7301 88.0101 41.2801 88.0601 40.8201C87.9301 41.0901 87.8501 41.3901 87.8501 41.7001Z" fill="#FFB5B5"/>
<path d="M81.08 43.74C82.2067 43.74 83.12 42.8267 83.12 41.7C83.12 40.5734 82.2067 39.66 81.08 39.66C79.9534 39.66 79.04 40.5734 79.04 41.7C79.04 42.8267 79.9534 43.74 81.08 43.74Z" fill="#FFB5B5"/>
<path d="M72.2597 43.74C73.3864 43.74 74.2997 42.8267 74.2997 41.7C74.2997 40.5734 73.3864 39.66 72.2597 39.66C71.1331 39.66 70.2197 40.5734 70.2197 41.7C70.2197 42.8267 71.1331 43.74 72.2597 43.74Z" fill="#FFB5B5"/>
<path d="M63.4399 43.74C64.5666 43.74 65.4799 42.8267 65.4799 41.7C65.4799 40.5734 64.5666 39.66 63.4399 39.66C62.3132 39.66 61.3999 40.5734 61.3999 41.7C61.3999 42.8267 62.3132 43.74 63.4399 43.74Z" fill="#FFB5B5"/>
<path d="M85.4902 36.3999C86.6169 36.3999 87.5302 35.4866 87.5302 34.3599C87.5302 33.2333 86.6169 32.3199 85.4902 32.3199C84.3635 32.3199 83.4502 33.2333 83.4502 34.3599C83.4502 35.4866 84.3635 36.3999 85.4902 36.3999Z" fill="#FFB5B5"/>
<path d="M76.6699 36.3999C77.7965 36.3999 78.7099 35.4866 78.7099 34.3599C78.7099 33.2333 77.7965 32.3199 76.6699 32.3199C75.5432 32.3199 74.6299 33.2333 74.6299 34.3599C74.6299 35.4866 75.5432 36.3999 76.6699 36.3999Z" fill="#FFB5B5"/>
<path d="M67.8501 36.3999C68.9767 36.3999 69.8901 35.4866 69.8901 34.3599C69.8901 33.2333 68.9767 32.3199 67.8501 32.3199C66.7234 32.3199 65.8101 33.2333 65.8101 34.3599C65.8101 35.4866 66.7234 36.3999 67.8501 36.3999Z" fill="#FFB5B5"/>
<path d="M59.25 32.34C59.35 33.75 59.45 35.09 59.56 36.32C60.43 36.08 61.07 35.29 61.07 34.36C61.07 33.31 60.28 32.44 59.25 32.34Z" fill="#FFB5B5"/>
<path d="M87.8501 27.03C87.8501 28.09 88.6501 28.95 89.7001 29.05C89.9301 27.64 90.1501 26.3 90.3701 25.03C90.2201 24.99 90.0701 24.98 89.9101 24.98C88.7701 24.98 87.8501 25.9 87.8501 27.03Z" fill="#FFB5B5"/>
<path d="M81.08 29.06C82.2067 29.06 83.12 28.1466 83.12 27.02C83.12 25.8933 82.2067 24.98 81.08 24.98C79.9534 24.98 79.04 25.8933 79.04 27.02C79.04 28.1466 79.9534 29.06 81.08 29.06Z" fill="#FFB5B5"/>
<path d="M72.2597 29.06C73.3864 29.06 74.2997 28.1466 74.2997 27.02C74.2997 25.8933 73.3864 24.98 72.2597 24.98C71.1331 24.98 70.2197 25.8933 70.2197 27.02C70.2197 28.1466 71.1331 29.06 72.2597 29.06Z" fill="#FFB5B5"/>
<path d="M63.4399 29.06C64.5666 29.06 65.4799 28.1466 65.4799 27.02C65.4799 25.8933 64.5666 24.98 63.4399 24.98C62.3132 24.98 61.3999 25.8933 61.3999 27.02C61.3999 28.1466 62.3132 29.06 63.4399 29.06Z" fill="#FFB5B5"/>
<path d="M85.4902 21.72C86.6169 21.72 87.5302 20.8067 87.5302 19.68C87.5302 18.5534 86.6169 17.64 85.4902 17.64C84.3635 17.64 83.4502 18.5534 83.4502 19.68C83.4502 20.8067 84.3635 21.72 85.4902 21.72Z" fill="#FFB5B5"/>
<path d="M76.6699 21.72C77.7965 21.72 78.7099 20.8067 78.7099 19.68C78.7099 18.5534 77.7965 17.64 76.6699 17.64C75.5432 17.64 74.6299 18.5534 74.6299 19.68C74.6299 20.8067 75.5432 21.72 76.6699 21.72Z" fill="#FFB5B5"/>
<path d="M67.8501 21.72C68.9767 21.72 69.8901 20.8067 69.8901 19.68C69.8901 18.5534 68.9767 17.64 67.8501 17.64C66.7234 17.64 65.8101 18.5534 65.8101 19.68C65.8101 20.8067 66.7234 21.72 67.8501 21.72Z" fill="#FFB5B5"/>
<path d="M58.54 17.71C58.55 18.97 58.59 20.31 58.64 21.69C58.77 21.72 58.89 21.73 59.02 21.73C60.15 21.73 61.07 20.81 61.07 19.69C61.07 18.56 60.15 17.64 59.02 17.64C58.86 17.64 58.69 17.67 58.54 17.71Z" fill="#FFB5B5"/>
<path d="M89.27 14.28C89.46 14.36 89.67 14.39 89.9 14.39C89.95 14.39 90 14.39 90.05 14.38C89.8 14.34 89.55 14.31 89.27 14.28Z" fill="#FFB5B5"/>
<path d="M79.1802 13.11C79.4802 13.86 80.2202 14.39 81.0802 14.39C81.7702 14.39 82.3702 14.05 82.7502 13.52C81.6002 13.38 80.4002 13.25 79.1802 13.11Z" fill="#FFB5B5"/>
<path d="M70.21 12.34C70.21 13.47 71.13 14.39 72.26 14.39C73.33 14.39 74.18 13.59 74.28 12.54C72.9 12.39 71.53 12.23 70.23 12.09C70.21 12.18 70.21 12.25 70.21 12.34Z" fill="#FFB5B5"/>
<path d="M61.3901 12.34C61.3901 13.47 62.3101 14.39 63.4301 14.39C64.5601 14.39 65.4801 13.47 65.4801 12.34C65.4801 12.05 65.4201 11.76 65.2901 11.51C63.9701 11.36 62.7901 11.23 61.8201 11.12C61.5501 11.46 61.3901 11.89 61.3901 12.34Z" fill="#FFB5B5"/>
</g>
<defs>
<clipPath id="clip0_323_107">
<rect width="120" height="100" fill="white"/>
</clipPath>
</defs>
</svg>
