<svg width="90" height="90" viewBox="0 0 90 90" fill="none" xmlns="http://www.w3.org/2000/svg">
<g clip-path="url(#clip0_339_1205)">
<path d="M67.3802 71.97L63.9702 75.54C63.5702 75.96 62.9002 75.96 62.4902 75.54L62.1802 75.22L67.0302 70.15L67.3502 70.47C67.7602 70.88 67.7802 71.55 67.3802 71.97Z" fill="#2A3F51"/>
<path d="M36.5902 37.64L33.1701 38.32L29.2301 43C29.2301 43 28.1201 46.23 29.2301 49.37C30.3401 52.5 41.5601 80.61 62.1801 75.35L67.0301 70.19C67.0301 68.77 66.4601 67.4 65.4501 66.4L36.5902 37.64Z" fill="#3B54B5"/>
<path d="M45.0704 73.9L30.6704 59.5C27.0304 55.86 27.0304 49.91 30.6704 46.27L31.3804 45.56C34.4704 42.47 39.5204 42.47 42.6004 45.56L59.7104 62.67C62.8004 65.76 62.8004 70.81 59.7104 73.89C55.6604 77.94 49.1104 77.94 45.0704 73.9Z" fill="#E34B3D"/>
<path d="M50.1704 72.12L31.7404 53.69C30.2504 52.2 29.3804 50.31 29.1104 48.36C27.1504 51.91 27.6604 56.5 30.6704 59.5L45.0704 73.9C48.6504 77.48 54.2004 77.88 58.2404 75.12C55.3404 75.32 52.3804 74.33 50.1704 72.12Z" fill="#C02632"/>
<path d="M34.7702 38.9L29.9702 42.69C29.9702 42.69 28.9202 41.83 27.6102 39.7C27.3502 39.29 27.0802 38.83 26.8002 38.31C26.2102 37.2 25.6002 35.86 25.0302 34.25C24.8502 33.74 24.6702 33.22 24.5002 32.66C24.0902 31.32 23.7202 29.83 23.3902 28.17C23.2802 27.6 23.1802 27.01 23.0802 26.4C22.8402 24.94 22.6502 23.35 22.5302 21.64C22.4802 21.01 22.4402 20.38 22.4102 19.72C22.3102 17.67 22.2902 15.44 22.3802 13.05H28.7502C28.7502 13.05 28.6902 13.71 28.6502 14.84C28.6302 15.41 28.6202 16.09 28.6202 16.87C28.6302 18.28 28.6802 19.99 28.8702 21.87C28.9302 22.47 28.9902 23.09 29.0702 23.72C29.2702 25.23 29.5502 26.82 29.9302 28.41C30.0602 28.96 30.2102 29.53 30.3702 30.08C30.7902 31.51 31.3002 32.93 31.9402 34.29C32.1602 34.78 32.4002 35.26 32.6602 35.74C33.2802 36.87 33.9702 37.92 34.7702 38.9Z" fill="#111E2B"/>
<path d="M28.6704 14.86C28.6504 15.43 28.6404 16.11 28.6404 16.89L22.5404 21.66C22.4904 21.03 22.4504 20.4 22.4204 19.74L28.6704 14.86Z" fill="#2A3F51"/>
<path d="M29.0803 23.73L23.4003 28.17C23.2903 27.6 23.1903 27.01 23.0903 26.4L28.8803 21.88C28.9403 22.49 29.0003 23.11 29.0803 23.73Z" fill="#2A3F51"/>
<path d="M30.3803 30.09L25.0403 34.26C24.8603 33.75 24.6803 33.23 24.5103 32.67L29.9403 28.43C30.0703 28.98 30.2203 29.54 30.3803 30.09Z" fill="#2A3F51"/>
<path d="M32.6701 35.75L27.6201 39.7C27.3601 39.29 27.0901 38.83 26.8101 38.31L31.9501 34.3C32.1701 34.8 32.4001 35.28 32.6701 35.75Z" fill="#2A3F51"/>
<path d="M35.1404 39.07L29.8904 43.18L28.9404 41.9L34.1604 37.82L35.1404 39.07Z" fill="#2A3F51"/>
<mask id="mask0_339_1205" style="mask-type:luminance" maskUnits="userSpaceOnUse" x="27" y="43" width="36" height="34">
<path d="M45.0704 73.9L30.6704 59.5C27.0304 55.86 27.0304 49.91 30.6704 46.27L31.3804 45.56C34.4704 42.47 39.5204 42.47 42.6004 45.56L59.7104 62.67C62.8004 65.76 62.8004 70.81 59.7104 73.89C55.6604 77.94 49.1104 77.94 45.0704 73.9Z" fill="white"/>
</mask>
<g mask="url(#mask0_339_1205)">
<path d="M47.1705 90.49L47.1905 90.47H52.0305V95.35H52.5005V90.34L55.9705 86.87L55.7505 86.65V81.87L58.8205 78.8L58.8405 78.82L58.8605 78.8H63.7005V83.68H64.1705V78.67L67.6405 75.2L67.4205 74.98V70.2L70.8905 66.73L70.5605 66.4L70.5405 66.42H65.7005V61.55L65.3705 61.22L65.3505 61.24H60.5105V56.37L60.1805 56.04L60.1605 56.06H55.3205V51.19L55.0005 50.83L54.9805 50.85H50.1405V45.98L49.8105 45.65L49.7905 45.67H44.9505V40.8L44.6205 40.47L44.6005 40.49H39.7605V35.62L39.4305 35.29L39.4105 35.31H34.5705V30.43H34.1005V35.44L30.6305 38.91L30.8505 39.13V43.91L27.7805 46.98L27.7605 46.96L27.7405 46.98H22.9005V42.1H22.4305V47.11L18.9605 50.58L19.1805 50.8V55.58L16.1105 58.65L16.0905 58.63L16.0705 58.65H11.2305V53.77H10.7605V58.78L7.29053 62.25L7.51053 62.47V67.25L4.04053 70.7L4.37053 71.03L4.39053 71.01H9.23053V75.88L9.56053 76.21L9.58053 76.19H14.4205V81.06L14.7505 81.39L14.7705 81.37H19.6105V86.24L19.9405 86.57L19.9605 86.55H24.8005V91.42L25.1305 91.75L25.1505 91.73H29.9905V96.6L30.3205 96.93L30.3405 96.91H35.1805V101.78L35.5105 102.11L35.5305 102.09H40.3705V106.97H40.8405V101.96L44.3105 98.49L44.0905 98.27V93.49L47.1605 90.42L47.1705 90.49ZM39.1105 98.22V93.67H43.6105V98.22H39.1105ZM33.9205 93.03V88.48H38.4205V93.03H33.9205ZM28.7305 87.85V83.3H33.2305V87.85H28.7305ZM23.5405 82.66V78.11H28.0405V82.66H23.5405ZM18.3605 77.47V72.92H22.8605V77.47H18.3605ZM13.1705 72.28V67.73H17.6705V72.28H13.1705ZM7.98053 67.09V62.54H12.4805V67.09H7.98053ZM35.8205 39.2V43.75H31.3205V39.2H35.8205ZM41.0105 44.39V48.94H36.5105V44.39H41.0105ZM46.2005 49.58V54.13H41.7005V49.58H46.2005ZM51.3905 54.77V59.32H46.8905V54.77H51.3905ZM56.5805 59.96V64.51H52.0805V59.96H56.5805ZM61.7605 65.14V69.69H57.2605V65.14H61.7605ZM66.9505 70.33V74.88H62.4505V70.33H66.9505ZM12.9505 62.41L15.9505 59.41V63.95L12.9505 66.95V62.41ZM24.6205 50.74L27.6205 47.74V52.28L24.6205 55.28V50.74ZM61.9805 75.01L58.9805 78.01V73.47L61.9805 70.47V75.01ZM50.3105 86.69L47.3105 89.69V85.15L50.3105 82.15V86.69ZM37.1705 84.56V80.1H41.6505V84.57L37.1705 84.56ZM31.9805 79.38V74.91H36.4605V79.38H31.9805ZM26.7905 74.19V69.72H31.2705V74.19H26.7905ZM21.6105 69V64.53H26.0905V69H21.6105ZM37.7605 52.86V57.33H33.2805V52.86H37.7605ZM42.9505 58.05V62.52H38.4705V58.05H42.9505ZM48.1405 63.24V67.71H43.6605V63.24H48.1405ZM53.3305 68.42V72.89H48.8505V68.42H53.3305ZM50.2305 76.35H45.7205L48.7005 73.37H53.2105L50.2305 76.35ZM40.4105 76.17V71.62H44.9105V76.17H40.4105ZM35.2205 70.99V66.44H39.7205V70.99H35.2205ZM30.0305 65.8V61.25H34.5305V65.8H30.0305ZM48.3705 73.03L45.3705 76.03V71.49L48.3705 68.49V73.03ZM45.0405 71.16H40.5305L43.5105 68.18H48.0205L45.0405 71.16ZM43.1805 67.84L40.1805 70.84V66.31L43.1805 63.31V67.84ZM39.8505 65.97H35.3405L38.3205 62.99H42.8305L39.8505 65.97ZM38.0005 62.65L35.0005 65.65V61.11L38.0005 58.11V62.65ZM34.6705 60.78H30.1605L33.1405 57.8H37.6505L34.6705 60.78ZM32.8105 57.47L29.8105 60.47V55.94L32.8105 52.94V57.47ZM29.3405 56.06V60.61H24.8405V56.06H29.3405ZM24.7005 61.08H29.2105L26.2305 64.06H21.7205L24.7005 61.08ZM26.5605 64.4L29.5605 61.4V65.94L26.5605 68.94V64.4ZM29.8905 66.27H34.4005L31.4205 69.25H26.9105L29.8905 66.27ZM31.7505 69.58L34.7505 66.58V71.12L31.7505 74.12V69.58ZM35.0805 71.45H39.5905L36.6105 74.43H32.1005L35.0805 71.45ZM36.9405 74.77L39.9405 71.77V76.3L36.9405 79.3V74.77ZM40.2705 76.64H44.7805L41.8005 79.62H37.2905L40.2705 76.64ZM42.1205 79.96L45.1205 76.96V81.49L42.1205 84.49V79.96ZM45.5905 81.36V76.81H50.0905V81.36H45.5905ZM53.5605 78.22L50.5605 81.22V76.68L53.5605 73.68V78.22ZM29.4805 55.59H24.9705L27.9505 52.61H32.4605L29.4805 55.59ZM21.3705 59.21L24.3705 56.21V60.75L21.3705 63.75V59.21ZM45.4505 81.83H49.9605L46.9805 84.81H42.4705L45.4505 81.83ZM54.0305 78.08V73.61H58.5205V78.08H54.0305ZM61.6405 70.16L58.6605 73.14H54.1505L57.1305 70.16H61.6405ZM56.8005 69.83L53.8005 72.83V68.3L56.8005 65.3V69.83ZM56.4505 64.97L53.4705 67.95H48.9605L51.9405 64.97H56.4505ZM51.6105 64.64L48.6105 67.64V63.1L51.6105 60.1V64.64ZM51.2605 59.78L48.2805 62.76H43.7705L46.7505 59.78H51.2605ZM46.4205 59.45L43.4205 62.45V57.91L46.4205 54.91V59.45ZM46.0705 54.6L43.0905 57.58H38.5805L41.5605 54.6H46.0705ZM41.2305 54.26L38.2305 57.26V52.72L41.2305 49.72V54.26ZM40.8805 49.41L37.9005 52.39H33.3905L36.3705 49.41H40.8805ZM36.0405 49.07L33.0405 52.07V47.53L36.0405 44.53V49.07ZM32.5705 47.67V52.14H28.0905V47.67H32.5705ZM20.9005 59.34V63.81H16.4105V59.34H20.9005ZM13.3005 67.26L16.2805 64.28H20.7905L17.8105 67.26H13.3005ZM18.1405 67.6L21.1405 64.6V69.13L18.1405 72.13V67.6ZM18.4905 72.45L21.4705 69.47H25.9805L23.0005 72.45H18.4905ZM23.3205 72.79L26.3205 69.79V74.33L23.3205 77.33V72.79ZM23.6705 77.64L26.6505 74.66H31.1605L28.1805 77.64H23.6705ZM28.5105 77.98L31.5105 74.98V79.51L28.5105 82.51V77.98ZM28.8605 82.83L31.8405 79.85H36.3505L33.3705 82.83H28.8605ZM33.7005 83.16L36.7005 80.16V84.7L33.7005 87.7V83.16ZM34.0505 88.02L37.0305 85.04H41.5405L38.5605 88.02H34.0505ZM38.8905 88.35L41.8905 85.35V89.89L38.8905 92.89V88.35ZM42.3605 89.75V85.28H46.8405V89.75H42.3605ZM50.7805 86.55V82.01H55.2805V86.55H50.7805ZM50.9105 81.53L53.8905 78.55H58.4005L55.4205 81.53H50.9105ZM35.7005 44.22L32.7205 47.2H28.2105L31.1905 44.22H35.7005ZM24.1505 50.88V55.42H19.6505V50.88H24.1505ZM24.0205 55.89L21.0405 58.87H16.5305L19.5105 55.89H24.0205ZM39.2405 93.21L42.2205 90.23H46.7305L43.7505 93.21H39.2405ZM50.6405 87.02H55.1505L52.1705 90H47.6605L50.6405 87.02ZM62.3105 75.35H66.8205L63.8405 78.33H59.3305L62.3105 75.35ZM67.0905 69.86H62.5805L65.5605 66.88H70.0705L67.0905 69.86ZM65.2305 66.55L62.2305 69.55V65.01L65.2305 62.01V66.55ZM61.9005 64.67H57.3905L60.3705 61.69H64.8805L61.9005 64.67ZM60.0505 61.36L57.0505 64.36V59.82L60.0505 56.82V61.36ZM56.7205 59.49H52.2105L55.1905 56.51H59.7005L56.7205 59.49ZM54.8605 56.17L51.8605 59.17V54.64L54.8605 51.64V56.17ZM51.5305 54.3H47.0205L50.0005 51.31H54.5105L51.5305 54.3ZM49.6705 50.98L46.6705 53.98V49.44L49.6705 46.44V50.98ZM46.3405 49.11H41.8305L44.8105 46.13H49.3205L46.3405 49.11ZM44.4805 45.79L41.4805 48.79V44.26L44.4805 41.26V45.79ZM41.1505 43.92H36.6405L39.6205 40.94H44.1305L41.1505 43.92ZM39.2905 40.6L36.2905 43.6V39.06L39.2905 36.06V40.6ZM35.9605 38.73H31.4505L34.4305 35.75H38.9405L35.9605 38.73ZM24.2905 50.41H19.7805L22.7605 47.43H27.2705L24.2905 50.41ZM12.6205 62.08H8.11053L11.0905 59.1H15.6005L12.6205 62.08ZM7.84053 67.56H12.3505L9.37053 70.54H4.86053L7.84053 67.56ZM9.70053 70.88L12.7005 67.88V72.42L9.70053 75.42V70.88ZM13.0305 72.75H17.5405L14.5605 75.73H10.0505L13.0305 72.75ZM14.8905 76.07L17.8905 73.07V77.61L14.8905 80.61V76.07ZM18.2205 77.94H22.7305L19.7505 80.92H15.2405L18.2205 77.94ZM20.0705 81.26L23.0705 78.26V82.8L20.0705 85.8V81.26ZM23.4005 83.13H27.9105L24.9305 86.11H20.4205L23.4005 83.13ZM25.2605 86.45L28.2605 83.45V87.98L25.2605 90.98V86.45ZM28.5905 88.32H33.1005L30.1205 91.3H25.6105L28.5905 88.32ZM30.4505 91.63L33.4505 88.63V93.16L30.4505 96.16V91.63ZM33.7805 93.5H38.2905L35.3105 96.48H30.8005L33.7805 93.5ZM35.6405 96.82L38.6405 93.82V98.36L35.6405 101.36V96.82ZM38.9705 98.69H43.4805L40.5005 101.67H35.9905L38.9705 98.69Z" fill="#EA5C34"/>
</g>
<path d="M34.77 50.47L36.2 51.87" stroke="#FDDFE0" stroke-width="1.5" stroke-miterlimit="10" stroke-linecap="round"/>
<path d="M38.2603 53.8799L41.3603 56.8999" stroke="#FDDFE0" stroke-width="1.5" stroke-miterlimit="10" stroke-linecap="round" stroke-dasharray="2.88 2.88"/>
<path d="M42.3999 57.91L49.6299 64.95" stroke="#FDDFE0" stroke-width="1.5" stroke-miterlimit="10" stroke-linecap="round" stroke-dasharray="2.88 2.88"/>
<path d="M50.6602 65.96L52.0902 67.35" stroke="#FDDFE0" stroke-width="1.5" stroke-miterlimit="10" stroke-linecap="round"/>
<path d="M52.88 67.73H54.11L55.45 70.81C55.71 71.41 55.64 72.12 55.28 72.65C54.78 73.37 53.88 73.56 53.18 73.1L53.05 73.02C52.47 72.64 52.17 71.9 52.3 71.17L52.88 67.73Z" fill="#141F2B"/>
</g>
<defs>
<clipPath id="clip0_339_1205">
<rect width="90" height="90" fill="white"/>
</clipPath>
</defs>
</svg>
