<svg width="90" height="90" viewBox="0 0 90 90" fill="none" xmlns="http://www.w3.org/2000/svg">
<g clip-path="url(#clip0_339_1242)">
<path d="M55.5102 17.32L46.6002 47.3C46.3902 47.99 45.7702 48.46 45.0402 48.46C45.0402 48.46 45.0402 48.46 45.0302 48.46C44.7202 48.46 44.4202 48.37 44.1702 48.2C43.8402 48 43.6002 47.68 43.4902 47.29L40.3802 36.94L37.4202 27.08L36.3502 23.49L34.4902 17.31H36.8102L38.4602 22.9L39.5202 26.49L42.3102 35.92L45.0102 45L45.0502 45.15L53.3202 17.32H55.5102Z" fill="#498EF4"/>
<path d="M39.5301 26.5L37.4301 27.08L36.3501 23.5L38.4701 22.91L39.5301 26.5Z" fill="#4850C6"/>
<path d="M45.0101 45L44.1801 48.2C43.8501 48 43.6101 47.68 43.5001 47.29L40.3901 36.94L42.3201 35.92L45.0101 45Z" fill="#4850C6"/>
<path d="M53.8202 46.94H36.1802V72.68H53.8202V46.94Z" fill="#EB473E"/>
<path d="M52.0304 52.01H37.9604V70.98H52.0304V52.01Z" fill="#F5F5F5"/>
<path d="M45.2402 44.53H44.8702L44.2002 45.69H45.8002L45.2402 44.53Z" fill="#C2BBBD"/>
<path d="M45.8003 48.3199V45.6899H44.2003V48.3199H43.3903C43.0903 48.3199 42.8403 48.5699 42.8403 48.8699V49.3699C42.8403 49.6699 43.0903 49.9199 43.3903 49.9199H46.6103C46.9103 49.9199 47.1603 49.6699 47.1603 49.3699V48.7699C47.1603 48.5199 46.9603 48.3199 46.7103 48.3199H45.8003Z" fill="#F5F5F5"/>
<path d="M47.1603 49.12H42.8403V49.92H47.1603V49.12Z" fill="#C2BBBD"/>
<path d="M52.0404 69.77H37.9404V70.99H52.0404V69.77Z" fill="#3C9657"/>
<path d="M52.0404 68.55H37.9404V69.77H52.0404V68.55Z" fill="#86CA4E"/>
</g>
<defs>
<clipPath id="clip0_339_1242">
<rect width="90" height="90" fill="white"/>
</clipPath>
</defs>
</svg>
