<svg width="82" height="84" viewBox="0 0 82 84" fill="none" xmlns="http://www.w3.org/2000/svg">
<g clip-path="url(#clip0_222_1441)">
<path d="M1.38014 65.0901L2.06014 65.6001L2.19014 25.4001L1.33014 24.8601C1.14014 24.7401 0.890137 24.8701 0.890137 25.1001V64.2001C0.890137 64.5601 1.08014 64.9001 1.38014 65.0901Z" fill="#4486F4"/>
<path d="M2.76021 67.2L2.72021 65.39L36.1702 81.73V83.46C36.1702 83.56 36.0702 83.63 35.9802 83.58L3.04021 67.64C2.87021 67.56 2.76021 67.39 2.76021 67.2Z" fill="#394097"/>
<path d="M81.2002 54.13L81.2202 55.54C81.2202 55.87 80.8702 56.14 80.6302 56.28L36.4402 83.51C36.3302 83.58 36.1802 83.5 36.1802 83.36V81.72L81.2002 54.13Z" fill="#D0E6F8"/>
<path d="M2.06006 25.5401L47.2701 1.44006V40.4801L2.06006 65.6001V25.5401Z" fill="#2142AD"/>
<path d="M4.42025 25.86L45.8503 3.73002C46.1403 3.57002 46.4903 3.79002 46.4903 4.12002V38.99C46.4903 39.43 46.2503 39.83 45.8703 40.04L4.80025 62.49C4.33025 62.75 3.76025 62.41 3.76025 61.88V26.96C3.76025 26.5 4.01025 26.08 4.42025 25.86Z" fill="#202977"/>
<path d="M3.05017 66.0801L35.1002 81.6201C35.7702 81.9501 36.5702 81.9101 37.2002 81.5201L81.0002 54.6701C81.4002 54.4201 81.3502 53.8201 80.9102 53.6501L47.5202 40.5701C47.3602 40.5101 47.1802 40.5201 47.0302 40.6001L3.02017 65.0601C2.61017 65.2901 2.63017 65.8701 3.05017 66.0801Z" fill="#4486F4"/>
<path d="M10.0601 65L25.9301 72.04C26.4501 72.27 27.0501 72.24 27.5401 71.95L63.8701 50.65C64.4501 50.31 64.4401 49.56 63.6901 49.36L47.4901 42.59C47.2001 42.5 46.9601 42.51 46.6901 42.65L9.98008 63.32C9.41008 63.64 9.47008 64.73 10.0601 65Z" fill="#4D3761"/>
<path d="M41.6899 67.0401L48.7399 70.6001C48.9499 70.7101 49.1999 70.7001 49.3999 70.5701L64.3499 61.5201C64.8399 61.2301 64.7699 60.5001 64.2399 60.3001L56.8299 57.4001C56.6399 57.3201 56.4199 57.3401 56.2399 57.4401L41.6499 65.8301C41.1799 66.1101 41.1999 66.7901 41.6899 67.0401Z" fill="#4850C6"/>
<path d="M47.27 1.44005L46.33 0.730052C46.14 0.610052 45.9 0.580052 45.7 0.690052L1.17003 24.6501C1.04003 24.7201 1.03003 24.9101 1.16003 24.9901L2.18003 25.6201L47.27 1.44005Z" fill="#4486F4"/>
<path d="M11.38 64.3301L12.77 63.5001C12.83 63.4701 12.82 63.3801 12.75 63.3601L11.71 63.06C11.69 63.05 11.67 63.0601 11.65 63.0701L10.34 63.81C10.29 63.84 10.29 63.9201 10.35 63.9501L11.31 64.3501C11.33 64.3401 11.36 64.3401 11.38 64.3301Z" fill="#D0E6F8"/>
<path d="M11.4002 64.2201L12.7602 63.4201C12.7902 63.4001 12.7802 63.3601 12.7502 63.3601L11.7302 63.0601C11.7002 63.0401 11.6702 63.0501 11.6502 63.0701L10.3602 63.8001C10.3302 63.8101 10.3402 63.8501 10.3602 63.8601L11.2902 64.2301C11.3202 64.2401 11.3602 64.2401 11.4002 64.2201Z" fill="#D0E6F8"/>
<path d="M13.4001 63.2201L14.7901 62.3901C14.8501 62.3601 14.8401 62.2701 14.7701 62.2501L13.7301 61.9501C13.7101 61.9401 13.6901 61.9501 13.6701 61.9601L12.3601 62.7001C12.3101 62.7301 12.3101 62.8101 12.3701 62.8401L13.3301 63.2401C13.3601 63.2401 13.3801 63.2301 13.4001 63.2201Z" fill="#D0E6F8"/>
<path d="M13.4203 63.1101L14.7803 62.3101C14.8103 62.2901 14.8003 62.2501 14.7703 62.2501L13.7503 61.9501C13.7203 61.9301 13.6903 61.9401 13.6703 61.9601L12.3803 62.6901C12.3503 62.7001 12.3603 62.7401 12.3803 62.7501L13.3103 63.1201C13.3503 63.1401 13.3903 63.1401 13.4203 63.1101Z" fill="#D0E6F8"/>
<path d="M15.4098 62.16L16.7998 61.33C16.8598 61.3 16.8498 61.21 16.7798 61.19L15.7398 60.89C15.7198 60.88 15.6998 60.89 15.6798 60.9L14.3698 61.64C14.3198 61.67 14.3198 61.75 14.3798 61.78L15.3398 62.18C15.3598 62.18 15.3898 62.17 15.4098 62.16Z" fill="#D0E6F8"/>
<path d="M15.43 62.0501L16.79 61.2501C16.82 61.2301 16.81 61.1901 16.78 61.1901L15.76 60.8901C15.73 60.8701 15.7 60.8801 15.68 60.9001L14.39 61.6301C14.36 61.6401 14.37 61.6801 14.39 61.6901L15.32 62.0601C15.35 62.0801 15.4 62.0701 15.43 62.0501Z" fill="#D0E6F8"/>
<path d="M17.3102 61.07L18.7002 60.24C18.7602 60.21 18.7502 60.12 18.6802 60.1L17.6402 59.8C17.6202 59.79 17.6002 59.8 17.5802 59.81L16.2702 60.55C16.2202 60.58 16.2202 60.66 16.2802 60.69L17.2402 61.09C17.2602 61.08 17.2902 61.08 17.3102 61.07Z" fill="#D0E6F8"/>
<path d="M17.3304 60.9601L18.6904 60.1601C18.7204 60.1401 18.7104 60.1001 18.6804 60.1001L17.6604 59.8001C17.6304 59.7801 17.6004 59.7901 17.5804 59.8101L16.2904 60.5401C16.2604 60.5501 16.2704 60.5901 16.2904 60.6001L17.2204 60.9701C17.2504 60.9801 17.3004 60.9801 17.3304 60.9601Z" fill="#D0E6F8"/>
<path d="M19.34 59.9601L20.73 59.1301C20.79 59.1001 20.78 59.0101 20.71 58.9901L19.67 58.6901C19.65 58.6801 19.63 58.6901 19.61 58.7001L18.3 59.4401C18.25 59.4701 18.25 59.5501 18.31 59.5801L19.27 59.9801C19.29 59.9801 19.32 59.9801 19.34 59.9601Z" fill="#D0E6F8"/>
<path d="M19.3602 59.8601L20.7202 59.0601C20.7502 59.0401 20.7402 59.0001 20.7102 59.0001L19.6902 58.7001C19.6602 58.6801 19.6302 58.6901 19.6102 58.7101L18.3202 59.4401C18.2902 59.4501 18.3002 59.4901 18.3202 59.5001L19.2502 59.8701C19.2802 59.8801 19.3202 59.8801 19.3602 59.8601Z" fill="#D0E6F8"/>
<path d="M21.34 58.9001L22.73 58.0701C22.79 58.0401 22.78 57.9501 22.71 57.9301L21.67 57.6301C21.65 57.6201 21.63 57.6301 21.61 57.6401L20.3 58.3801C20.25 58.4101 20.25 58.4901 20.31 58.5201L21.27 58.9201C21.3 58.9201 21.32 58.9101 21.34 58.9001Z" fill="#D0E6F8"/>
<path d="M21.3602 58.7901L22.7202 57.9901C22.7502 57.9701 22.7402 57.9301 22.7102 57.9301L21.6902 57.6301C21.6602 57.6201 21.6302 57.6201 21.6102 57.6401L20.3202 58.3701C20.2902 58.3801 20.3002 58.4201 20.3202 58.4301L21.2502 58.8001C21.2902 58.8201 21.3302 58.8101 21.3602 58.7901Z" fill="#D0E6F8"/>
<path d="M23.2502 57.79L24.6402 56.96C24.7002 56.93 24.6902 56.84 24.6202 56.82L23.5802 56.52C23.5602 56.51 23.5402 56.52 23.5202 56.53L22.2102 57.27C22.1602 57.3 22.1602 57.38 22.2202 57.41L23.1802 57.81C23.2102 57.81 23.2302 57.8 23.2502 57.79Z" fill="#D0E6F8"/>
<path d="M23.2704 57.6801L24.6304 56.8801C24.6604 56.8601 24.6504 56.8201 24.6204 56.8201L23.6004 56.5201C23.5704 56.5001 23.5404 56.5101 23.5204 56.5301L22.2304 57.2601C22.2004 57.2701 22.2104 57.3101 22.2304 57.3201L23.1604 57.6901C23.2004 57.7101 23.2404 57.7001 23.2704 57.6801Z" fill="#D0E6F8"/>
<path d="M25.2799 56.69L26.6699 55.86C26.7299 55.83 26.7199 55.74 26.6499 55.72L25.6099 55.42C25.5899 55.41 25.5699 55.42 25.5499 55.43L24.2399 56.17C24.1899 56.2 24.1899 56.28 24.2499 56.31L25.2099 56.71C25.2399 56.7 25.2599 56.7 25.2799 56.69Z" fill="#D0E6F8"/>
<path d="M25.3001 56.5801L26.6601 55.7801C26.6901 55.7601 26.6801 55.7201 26.6501 55.7201L25.6301 55.4201C25.6001 55.4001 25.5701 55.4101 25.5501 55.4301L24.2601 56.1601C24.2301 56.1701 24.2401 56.2101 24.2601 56.2201L25.1901 56.5901C25.2201 56.6001 25.2701 56.6001 25.3001 56.5801Z" fill="#D0E6F8"/>
<path d="M27.2902 55.63L28.6802 54.8C28.7402 54.77 28.7302 54.68 28.6602 54.66L27.6202 54.36C27.6002 54.35 27.5802 54.36 27.5602 54.37L26.2502 55.11C26.2002 55.14 26.2002 55.22 26.2602 55.25L27.2202 55.65C27.2402 55.64 27.2702 55.64 27.2902 55.63Z" fill="#D0E6F8"/>
<path d="M27.3104 55.52L28.6704 54.72C28.7004 54.7 28.6904 54.66 28.6604 54.66L27.6404 54.36C27.6104 54.34 27.5804 54.35 27.5604 54.37L26.2704 55.1C26.2404 55.11 26.2504 55.15 26.2704 55.16L27.2004 55.53C27.2304 55.54 27.2704 55.54 27.3104 55.52Z" fill="#D0E6F8"/>
<path d="M29.2702 54.45L30.6602 53.62C30.7202 53.59 30.7102 53.5 30.6402 53.48L29.6002 53.18C29.5802 53.17 29.5602 53.18 29.5402 53.19L28.2302 53.93C28.1802 53.96 28.1802 54.04 28.2402 54.07L29.2002 54.47C29.2202 54.47 29.2502 54.46 29.2702 54.45Z" fill="#D0E6F8"/>
<path d="M29.2904 54.3401L30.6504 53.5401C30.6804 53.5201 30.6704 53.4801 30.6404 53.4801L29.6204 53.1801C29.5904 53.1601 29.5604 53.1701 29.5404 53.1901L28.2504 53.9201C28.2204 53.9301 28.2304 53.9701 28.2504 53.9801L29.1804 54.3501C29.2104 54.3701 29.2504 54.3601 29.2904 54.3401Z" fill="#D0E6F8"/>
<path d="M31.2902 53.3501L32.6802 52.5201C32.7402 52.4901 32.7302 52.4001 32.6602 52.3801L31.6202 52.0801C31.6002 52.0701 31.5802 52.0801 31.5602 52.0901L30.2502 52.8301C30.2002 52.8601 30.2002 52.9401 30.2602 52.9701L31.2202 53.3701C31.2502 53.3601 31.2702 53.3601 31.2902 53.3501Z" fill="#D0E6F8"/>
<path d="M31.3202 53.2401L32.6802 52.4401C32.7102 52.4201 32.7002 52.3801 32.6702 52.3801L31.6502 52.0801C31.6202 52.0601 31.5902 52.0701 31.5702 52.0901L30.2802 52.8201C30.2502 52.8301 30.2602 52.8701 30.2802 52.8801L31.2102 53.2501C31.2402 53.2601 31.2802 53.2601 31.3202 53.2401Z" fill="#D0E6F8"/>
<path d="M33.3 52.29L34.69 51.46C34.75 51.43 34.74 51.34 34.67 51.32L33.63 51.02C33.61 51.01 33.59 51.02 33.57 51.03L32.26 51.77C32.21 51.8 32.21 51.88 32.27 51.91L33.23 52.31C33.26 52.3 33.28 52.3 33.3 52.29Z" fill="#D0E6F8"/>
<path d="M33.3202 52.1801L34.6802 51.3801C34.7102 51.3601 34.7002 51.3201 34.6702 51.3201L33.6502 51.0201C33.6202 51.0001 33.5902 51.0101 33.5702 51.0301L32.2802 51.7601C32.2502 51.7701 32.2602 51.8101 32.2802 51.8201L33.2102 52.1901C33.2502 52.2001 33.2902 52.2001 33.3202 52.1801Z" fill="#D0E6F8"/>
<path d="M35.3 51.1501L36.69 50.3201C36.75 50.2901 36.74 50.2001 36.67 50.1801L35.63 49.8801C35.61 49.8701 35.59 49.8801 35.57 49.8901L34.26 50.6301C34.21 50.6601 34.21 50.7401 34.27 50.7701L35.23 51.1701C35.25 51.1701 35.28 51.1701 35.3 51.1501Z" fill="#D0E6F8"/>
<path d="M35.3202 51.0502L36.6802 50.2502C36.7102 50.2302 36.7002 50.1902 36.6702 50.1902L35.6502 49.8902C35.6202 49.8702 35.5902 49.8802 35.5702 49.9002L34.2802 50.6202C34.2502 50.6302 34.2602 50.6702 34.2802 50.6802L35.2102 51.0502C35.2402 51.0702 35.2802 51.0702 35.3202 51.0502Z" fill="#D0E6F8"/>
<path d="M37.3302 50.05L38.7202 49.22C38.7802 49.19 38.7702 49.1 38.7002 49.08L37.6602 48.78C37.6402 48.77 37.6202 48.78 37.6002 48.79L36.2902 49.52C36.2402 49.55 36.2402 49.63 36.3002 49.66L37.2602 50.06C37.2802 50.06 37.3002 50.06 37.3302 50.05Z" fill="#D0E6F8"/>
<path d="M37.3504 49.9401L38.7104 49.1401C38.7404 49.1201 38.7304 49.0801 38.7004 49.0801L37.6804 48.7801C37.6504 48.7601 37.6204 48.7701 37.6004 48.7901L36.3104 49.5201C36.2804 49.5301 36.2904 49.5701 36.3104 49.5801L37.2404 49.9501C37.2704 49.9701 37.3104 49.9601 37.3504 49.9401Z" fill="#D0E6F8"/>
<path d="M39.3302 48.99L40.7202 48.16C40.7802 48.13 40.7702 48.04 40.7002 48.02L39.6602 47.72C39.6402 47.71 39.6202 47.72 39.6002 47.73L38.2902 48.47C38.2402 48.5 38.2402 48.58 38.3002 48.61L39.2602 49.01C39.2902 49 39.3102 49 39.3302 48.99Z" fill="#D0E6F8"/>
<path d="M39.3504 48.88L40.7104 48.08C40.7404 48.06 40.7304 48.02 40.7004 48.02L39.6804 47.72C39.6504 47.7 39.6204 47.71 39.6004 47.73L38.3104 48.46C38.2804 48.47 38.2904 48.51 38.3104 48.52L39.2404 48.89C39.2804 48.9 39.3204 48.9 39.3504 48.88Z" fill="#D0E6F8"/>
<path d="M41.38 47.69L42.77 46.86C42.83 46.83 42.82 46.74 42.75 46.72L41.71 46.42C41.69 46.41 41.67 46.42 41.65 46.43L40.34 47.17C40.29 47.2 40.29 47.28 40.35 47.31L41.31 47.71C41.34 47.71 41.36 47.7 41.38 47.69Z" fill="#D0E6F8"/>
<path d="M41.4002 47.5801L42.7602 46.7801C42.7902 46.7601 42.7802 46.7201 42.7502 46.7201L41.7302 46.4201C41.7002 46.4001 41.6702 46.4101 41.6502 46.4301L40.3602 47.1601C40.3302 47.1701 40.3402 47.2101 40.3602 47.2201L41.2902 47.5901C41.3302 47.6101 41.3702 47.6001 41.4002 47.5801Z" fill="#D0E6F8"/>
<path d="M43.4098 46.5901L44.7998 45.7601C44.8598 45.7301 44.8498 45.6401 44.7798 45.6201L43.7398 45.3201C43.7198 45.3101 43.6998 45.3201 43.6798 45.3301L42.3698 46.0701C42.3198 46.1001 42.3198 46.1801 42.3798 46.2101L43.3398 46.6101C43.3598 46.6001 43.3898 46.6001 43.4098 46.5901Z" fill="#D0E6F8"/>
<path d="M43.43 46.4801L44.79 45.6801C44.82 45.6601 44.81 45.6201 44.78 45.6201L43.76 45.3201C43.73 45.3001 43.7 45.3101 43.68 45.3301L42.39 46.0601C42.36 46.0701 42.37 46.1101 42.39 46.1201L43.32 46.4901C43.35 46.5001 43.39 46.5001 43.43 46.4801Z" fill="#D0E6F8"/>
<path d="M45.2599 45.53L46.6499 44.7C46.7099 44.67 46.6999 44.58 46.6299 44.56L45.5899 44.26C45.5699 44.25 45.5499 44.26 45.5299 44.27L44.2199 45.01C44.1699 45.04 44.1699 45.12 44.2299 45.15L45.1899 45.55C45.2099 45.54 45.2399 45.54 45.2599 45.53Z" fill="#D0E6F8"/>
<path d="M45.2801 45.42L46.6401 44.62C46.6701 44.6 46.6601 44.56 46.6301 44.56L45.6101 44.26C45.5801 44.24 45.5501 44.25 45.5301 44.27L44.2401 45C44.2101 45.01 44.2201 45.05 44.2401 45.06L45.1701 45.43C45.2001 45.44 45.2501 45.44 45.2801 45.42Z" fill="#D0E6F8"/>
<path d="M47.1003 44.55L48.4903 43.72C48.5503 43.69 48.5403 43.6 48.4703 43.58L47.4303 43.28C47.4103 43.27 47.3903 43.28 47.3703 43.29L46.0603 44.03C46.0103 44.06 46.0103 44.14 46.0703 44.17L47.0303 44.57C47.0503 44.56 47.0803 44.56 47.1003 44.55Z" fill="#D0E6F8"/>
<path d="M47.1205 44.4401L48.4805 43.6401C48.5105 43.6201 48.5005 43.5801 48.4705 43.5801L47.4505 43.2801C47.4205 43.2601 47.3905 43.2701 47.3705 43.2901L46.0805 44.0201C46.0505 44.0301 46.0605 44.0701 46.0805 44.0801L47.0105 44.4501C47.0405 44.4601 47.0805 44.4601 47.1205 44.4401Z" fill="#D0E6F8"/>
<path d="M21.7602 68.8001L23.6202 67.6801C23.6902 67.6401 23.6802 67.5301 23.6102 67.5001L21.6602 66.7201C21.6302 66.7101 21.6102 66.7101 21.5802 66.7301L19.7002 67.7901C19.6302 67.8301 19.6302 67.9401 19.7102 67.9701L21.6702 68.8101C21.7102 68.8201 21.7402 68.8101 21.7602 68.8001Z" fill="#D0E6F8"/>
<path d="M21.7304 68.6L23.6404 67.51L21.7004 66.73C21.6504 66.7 21.5904 66.71 21.5504 66.74L19.7104 67.78L21.7304 68.6Z" fill="#D0E6F8"/>
<path d="M24.5005 67.26L26.3605 66.14C26.4305 66.1 26.4205 65.99 26.3505 65.96L24.4005 65.18C24.3705 65.17 24.3505 65.17 24.3205 65.19L22.4405 66.25C22.3705 66.29 22.3705 66.4 22.4505 66.43L24.4105 67.27C24.4405 67.28 24.4705 67.28 24.5005 67.26Z" fill="#D0E6F8"/>
<path d="M24.4604 67.07L26.3704 65.98L24.4304 65.2C24.3804 65.17 24.3204 65.18 24.2804 65.21L22.4404 66.25L24.4604 67.07Z" fill="#D0E6F8"/>
<path d="M27.2803 65.7702L29.1403 64.6502C29.2103 64.6102 29.2003 64.5002 29.1303 64.4702L27.1803 63.6902C27.1503 63.6802 27.1303 63.6802 27.1003 63.7002L25.2203 64.7602C25.1503 64.8002 25.1503 64.9102 25.2303 64.9402L27.1903 65.7802C27.2303 65.7902 27.2603 65.7802 27.2803 65.7702Z" fill="#D0E6F8"/>
<path d="M27.2505 65.5701L29.1605 64.4801L27.2205 63.7001C27.1705 63.6701 27.1105 63.6801 27.0705 63.7101L25.2305 64.7501L27.2505 65.5701Z" fill="#D0E6F8"/>
<path d="M30.0102 64.1901L31.8702 63.0701C31.9402 63.0301 31.9302 62.9201 31.8602 62.8901L29.9102 62.1101C29.8802 62.1001 29.8602 62.1001 29.8302 62.1201L27.9502 63.1801C27.8802 63.2201 27.8802 63.3301 27.9602 63.3601L29.9202 64.2001C29.9502 64.2101 29.9902 64.2101 30.0102 64.1901Z" fill="#D0E6F8"/>
<path d="M29.9804 64.0001L31.8904 62.9101L29.9504 62.1301C29.9004 62.1001 29.8404 62.1101 29.8004 62.1401L27.9604 63.1801L29.9804 64.0001Z" fill="#D0E6F8"/>
<path d="M32.6704 62.7602L34.5304 61.6402C34.6004 61.6002 34.5904 61.4902 34.5204 61.4602L32.5704 60.6802C32.5404 60.6702 32.5204 60.6702 32.4904 60.6902L30.6104 61.7502C30.5404 61.7902 30.5404 61.9002 30.6204 61.9302L32.5804 62.7702C32.6104 62.7702 32.6404 62.7702 32.6704 62.7602Z" fill="#D0E6F8"/>
<path d="M32.6304 62.5601L34.5404 61.4701L32.6004 60.6901C32.5504 60.6601 32.4904 60.6701 32.4504 60.7001L30.6104 61.7401L32.6304 62.5601Z" fill="#D0E6F8"/>
<path d="M35.2104 61.2602L37.0704 60.1402C37.1404 60.1002 37.1304 59.9902 37.0604 59.9602L35.1104 59.1802C35.0804 59.1702 35.0604 59.1702 35.0304 59.1902L33.1504 60.2502C33.0804 60.2902 33.0804 60.4002 33.1604 60.4302L35.1204 61.2702C35.1604 61.2702 35.1904 61.2702 35.2104 61.2602Z" fill="#D0E6F8"/>
<path d="M35.1806 61.0601L37.0906 59.9701L35.1506 59.1901C35.1006 59.1601 35.0406 59.1701 35.0006 59.2001L33.1606 60.2401L35.1806 61.0601Z" fill="#D0E6F8"/>
<path d="M37.9101 59.7501L39.7701 58.6301C39.8401 58.5901 39.8301 58.4801 39.7601 58.4501L37.8101 57.6701C37.7801 57.6601 37.7601 57.6601 37.7301 57.6801L35.8501 58.7401C35.7801 58.7801 35.7801 58.8901 35.8601 58.9201L37.8201 59.7601C37.8501 59.7701 37.8801 59.7701 37.9101 59.7501Z" fill="#D0E6F8"/>
<path d="M37.8701 59.5501L39.7801 58.4601L37.8401 57.6801C37.7901 57.6501 37.7301 57.6601 37.6901 57.6901L35.8501 58.7301L37.8701 59.5501Z" fill="#D0E6F8"/>
<path d="M40.6401 58.2201L42.5001 57.1001C42.5701 57.0601 42.5601 56.9501 42.4901 56.9201L40.5401 56.1401C40.5101 56.1301 40.4901 56.1301 40.4601 56.1501L38.5801 57.2101C38.5101 57.2501 38.5101 57.3601 38.5901 57.3901L40.5501 58.2301C40.5901 58.2301 40.6201 58.2301 40.6401 58.2201Z" fill="#D0E6F8"/>
<path d="M40.6103 58.0201L42.5203 56.9301L40.5803 56.1501C40.5303 56.1201 40.4703 56.1301 40.4303 56.1601L38.5903 57.2001L40.6103 58.0201Z" fill="#D0E6F8"/>
<path d="M43.4302 56.7201L45.2902 55.6001C45.3602 55.5601 45.3502 55.4501 45.2802 55.4201L43.3302 54.6401C43.3002 54.6301 43.2802 54.6301 43.2502 54.6501L41.3702 55.7101C41.3002 55.7501 41.3002 55.8601 41.3802 55.8901L43.3402 56.7301C43.3702 56.7401 43.4002 56.7401 43.4302 56.7201Z" fill="#D0E6F8"/>
<path d="M43.3901 56.5201L45.3001 55.4301L43.3601 54.6501C43.3101 54.6201 43.2501 54.6301 43.2101 54.6601L41.3701 55.7001L43.3901 56.5201Z" fill="#D0E6F8"/>
<path d="M46.1601 55.1502L48.0201 54.0302C48.0901 53.9902 48.0801 53.8802 48.0101 53.8502L46.0601 53.0702C46.0301 53.0602 46.0101 53.0602 45.9801 53.0802L44.1001 54.1402C44.0301 54.1802 44.0301 54.2902 44.1101 54.3202L46.0701 55.1602C46.1001 55.1702 46.1301 55.1602 46.1601 55.1502Z" fill="#D0E6F8"/>
<path d="M46.1201 54.9501L48.0301 53.8601L46.0901 53.0801C46.0401 53.0501 45.9801 53.0601 45.9401 53.0901L44.1001 54.1301L46.1201 54.9501Z" fill="#D0E6F8"/>
<path d="M48.81 53.7101L50.67 52.5901C50.74 52.5501 50.73 52.4401 50.66 52.4101L48.71 51.6301C48.69 51.6201 48.66 51.6201 48.63 51.6301L46.75 52.6901C46.68 52.7301 46.68 52.8401 46.76 52.8701L48.72 53.7101C48.76 53.7301 48.79 53.7301 48.81 53.7101Z" fill="#D0E6F8"/>
<path d="M48.7803 53.5101L50.6903 52.4201L48.7503 51.6401C48.7003 51.6101 48.6403 51.6201 48.6003 51.6501L46.7603 52.6901L48.7803 53.5101Z" fill="#D0E6F8"/>
<path d="M51.3603 52.2101L53.2203 51.0901C53.2903 51.0501 53.2803 50.9401 53.2103 50.9101L51.2603 50.1301C51.2303 50.1201 51.2103 50.1201 51.1803 50.1401L49.3003 51.2001C49.2303 51.2401 49.2303 51.3501 49.3103 51.3801L51.2703 52.2201C51.3003 52.2301 51.3303 52.2301 51.3603 52.2101Z" fill="#D0E6F8"/>
<path d="M51.3203 52.0101L53.2303 50.9201L51.2903 50.1401C51.2403 50.1101 51.1803 50.1201 51.1403 50.1501L49.3003 51.1901L51.3203 52.0101Z" fill="#D0E6F8"/>
<path d="M54.0303 50.6801L55.8903 49.5601C55.9603 49.5201 55.9503 49.4101 55.8803 49.3801L53.9303 48.6001C53.9003 48.5901 53.8803 48.5901 53.8503 48.6101L51.9703 49.6701C51.9003 49.7101 51.9003 49.8201 51.9803 49.8501L53.9403 50.6901C53.9703 50.6901 54.0003 50.6901 54.0303 50.6801Z" fill="#D0E6F8"/>
<path d="M53.9902 50.48L55.9002 49.39L53.9602 48.61C53.9102 48.58 53.8502 48.59 53.8102 48.62L51.9702 49.66L53.9902 50.48Z" fill="#D0E6F8"/>
<path d="M27.2803 68.1901L29.1403 67.0701C29.2103 67.0301 29.2003 66.9201 29.1303 66.8901L27.1803 66.1101C27.1503 66.1001 27.1303 66.1001 27.1003 66.1201L25.2203 67.1801C25.1503 67.2201 25.1503 67.3301 25.2303 67.3601L27.1903 68.2001C27.2303 68.2101 27.2603 68.2101 27.2803 68.1901Z" fill="#D0E6F8"/>
<path d="M27.2505 67.99L29.1605 66.9L27.2205 66.12C27.1705 66.09 27.1105 66.1 27.0705 66.13L25.2305 67.17L27.2505 67.99Z" fill="#D0E6F8"/>
<path d="M30.0703 66.7001L31.9303 65.5801C32.0003 65.5401 31.9903 65.4301 31.9203 65.4001L29.9703 64.6201C29.9403 64.6001 29.9103 64.6101 29.8903 64.6201L28.0103 65.6801C27.9403 65.7201 27.9403 65.8301 28.0203 65.8601L29.9803 66.7001C30.0103 66.7101 30.0403 66.7101 30.0703 66.7001Z" fill="#D0E6F8"/>
<path d="M30.0303 66.5L31.9403 65.4101L30.0003 64.6301C29.9503 64.6001 29.8903 64.61 29.8503 64.64L28.0103 65.68L30.0303 66.5Z" fill="#D0E6F8"/>
<path d="M32.8003 65.1201L34.6603 64.0001C34.7303 63.9601 34.7203 63.8501 34.6503 63.8201L32.7003 63.0401C32.6703 63.0301 32.6503 63.0301 32.6203 63.0501L30.7403 64.1101C30.6703 64.1501 30.6703 64.2601 30.7503 64.2901L32.7103 65.1301C32.7403 65.1401 32.7703 65.1401 32.8003 65.1201Z" fill="#D0E6F8"/>
<path d="M32.7602 64.9201L34.6702 63.8301L32.7302 63.0501C32.6802 63.0201 32.6202 63.0301 32.5802 63.0601L30.7402 64.1001L32.7602 64.9201Z" fill="#D0E6F8"/>
<path d="M35.4502 63.6801L37.3102 62.5601C37.3802 62.5201 37.3702 62.4101 37.3002 62.3801L35.3502 61.6001C35.3202 61.5901 35.3002 61.5901 35.2702 61.6101L33.3902 62.6701C33.3202 62.7101 33.3202 62.8201 33.4002 62.8501L35.3602 63.6901C35.4002 63.7001 35.4302 63.7001 35.4502 63.6801Z" fill="#D0E6F8"/>
<path d="M35.4204 63.49L37.3304 62.4L35.3904 61.62C35.3404 61.59 35.2804 61.6 35.2404 61.63L33.4004 62.67L35.4204 63.49Z" fill="#D0E6F8"/>
<path d="M38.0005 62.1801L39.8605 61.0601C39.9305 61.0201 39.9205 60.9101 39.8505 60.8801L37.9005 60.1001C37.8705 60.0901 37.8505 60.0901 37.8205 60.1101L35.9405 61.1701C35.8705 61.2101 35.8705 61.3201 35.9505 61.3501L37.9105 62.1901C37.9405 62.2001 37.9705 62.2001 38.0005 62.1801Z" fill="#D0E6F8"/>
<path d="M37.9604 61.99L39.8704 60.9L37.9304 60.12C37.8804 60.09 37.8204 60.1 37.7804 60.13L35.9404 61.17L37.9604 61.99Z" fill="#D0E6F8"/>
<path d="M40.6904 60.6801L42.5504 59.5601C42.6204 59.5201 42.6104 59.4101 42.5404 59.3801L40.5904 58.6001C40.5604 58.5901 40.5404 58.5901 40.5104 58.6101L38.6304 59.6701C38.5604 59.7101 38.5604 59.8201 38.6404 59.8501L40.6004 60.6901C40.6404 60.7001 40.6704 60.6901 40.6904 60.6801Z" fill="#D0E6F8"/>
<path d="M40.6606 60.48L42.5706 59.39L40.6306 58.61C40.5806 58.58 40.5206 58.59 40.4806 58.62L38.6406 59.66L40.6606 60.48Z" fill="#D0E6F8"/>
<path d="M43.4302 59.14L45.2902 58.02C45.3602 57.98 45.3502 57.87 45.2802 57.84L43.3302 57.06C43.3002 57.05 43.2802 57.05 43.2502 57.07L41.3702 58.13C41.3002 58.17 41.3002 58.28 41.3802 58.31L43.3402 59.15C43.3702 59.16 43.4002 59.16 43.4302 59.14Z" fill="#D0E6F8"/>
<path d="M43.3901 58.95L45.3001 57.86L43.3601 57.08C43.3101 57.05 43.2501 57.06 43.2101 57.09L41.3701 58.13L43.3901 58.95Z" fill="#D0E6F8"/>
<path d="M46.2104 57.6502L48.0704 56.5302C48.1404 56.4902 48.1304 56.3802 48.0604 56.3502L46.1104 55.5702C46.0804 55.5602 46.0604 55.5602 46.0304 55.5802L44.1504 56.6402C44.0804 56.6802 44.0804 56.7902 44.1604 56.8202L46.1204 57.6602C46.1604 57.6702 46.1904 57.6602 46.2104 57.6502Z" fill="#D0E6F8"/>
<path d="M46.1806 57.4501L48.0906 56.3601L46.1506 55.5801C46.1006 55.5501 46.0406 55.5601 46.0006 55.5901L44.1606 56.6301L46.1806 57.4501Z" fill="#D0E6F8"/>
<path d="M48.9402 56.0801L50.8002 54.9601C50.8702 54.9201 50.8602 54.8101 50.7902 54.7801L48.8402 54.0001C48.8102 53.9901 48.7902 53.9901 48.7602 54.0101L46.8902 55.0601C46.8202 55.1001 46.8202 55.2101 46.9002 55.2401L48.8602 56.0801C48.8902 56.0901 48.9202 56.0901 48.9402 56.0801Z" fill="#D0E6F8"/>
<path d="M48.9101 55.8801L50.8201 54.7901L48.8801 54.0101C48.8301 53.9801 48.7701 53.9901 48.7301 54.0201L46.8901 55.0601L48.9101 55.8801Z" fill="#D0E6F8"/>
<path d="M51.6001 54.6402L53.4601 53.5202C53.5301 53.4802 53.5201 53.3702 53.4501 53.3402L51.5001 52.5602C51.4701 52.5502 51.4501 52.5502 51.4201 52.5702L49.5401 53.6302C49.4701 53.6702 49.4701 53.7802 49.5501 53.8102L51.5101 54.6502C51.5401 54.6602 51.5701 54.6502 51.6001 54.6402Z" fill="#D0E6F8"/>
<path d="M51.56 54.4401L53.47 53.3501L51.53 52.5701C51.48 52.5401 51.42 52.5501 51.38 52.5801L49.54 53.6201L51.56 54.4401Z" fill="#D0E6F8"/>
<path d="M54.1404 53.1402L56.0004 52.0202C56.0704 51.9802 56.0604 51.8702 55.9904 51.8402L54.0404 51.0602C54.0104 51.0502 53.9904 51.0502 53.9604 51.0702L52.0904 52.1202C52.0204 52.1602 52.0204 52.2702 52.1004 52.3002L54.0604 53.1402C54.0904 53.1602 54.1204 53.1502 54.1404 53.1402Z" fill="#D0E6F8"/>
<path d="M54.1103 52.9401L56.0203 51.8501L54.0803 51.0701C54.0303 51.0401 53.9703 51.0501 53.9303 51.0801L52.0903 52.1201L54.1103 52.9401Z" fill="#D0E6F8"/>
<path d="M56.5903 51.6801L58.4503 50.5601C58.5203 50.5201 58.5103 50.4101 58.4403 50.3801L56.4903 49.6001C56.4603 49.5901 56.4403 49.5901 56.4103 49.6101L54.5303 50.6701C54.4603 50.7101 54.4603 50.8201 54.5403 50.8501L56.5003 51.6901C56.5303 51.7001 56.5603 51.7001 56.5903 51.6801Z" fill="#D0E6F8"/>
<path d="M56.5503 51.49L58.4603 50.4L56.5203 49.62C56.4703 49.59 56.4103 49.6 56.3703 49.63L54.5303 50.67L56.5503 51.49Z" fill="#D0E6F8"/>
<path d="M59.1003 50.2901L60.8803 49.2101C60.9503 49.1701 60.9403 49.0701 60.8703 49.0401L59.0003 48.2901C58.9803 48.2801 58.9503 48.2801 58.9303 48.3001L57.1303 49.3201C57.0603 49.3601 57.0703 49.4601 57.1403 49.4901L59.0303 50.3001C59.0503 50.3101 59.0803 50.3001 59.1003 50.2901Z" fill="#D0E6F8"/>
<path d="M59.0704 50.1001L60.9004 49.0501L59.0404 48.3001C58.9904 48.2701 58.9404 48.2801 58.9004 48.3101L57.1304 49.3101L59.0704 50.1001Z" fill="#D0E6F8"/>
<path d="M56.6001 49.3401L58.4601 48.2201C58.5301 48.1801 58.5201 48.0701 58.4501 48.0401L56.5001 47.2601C56.4701 47.2501 56.4501 47.2501 56.4201 47.2701L54.5401 48.3301C54.4701 48.3701 54.4701 48.4801 54.5501 48.5101L56.5101 49.3501C56.5501 49.3601 56.5801 49.3601 56.6001 49.3401Z" fill="#D0E6F8"/>
<path d="M56.5703 49.1401L58.4803 48.0501L56.5403 47.2701C56.4903 47.2401 56.4303 47.2501 56.3903 47.2801L54.5503 48.3201L56.5703 49.1401Z" fill="#D0E6F8"/>
<path d="M30.0703 69.2501L31.9303 68.1301C32.0003 68.0901 31.9903 67.9801 31.9203 67.9501L29.9703 67.1701C29.9403 67.1601 29.9203 67.1601 29.8903 67.1801L28.0103 68.2401C27.9403 68.2801 27.9403 68.3901 28.0203 68.4201L29.9803 69.2601C30.0103 69.2601 30.0403 69.2601 30.0703 69.2501Z" fill="#D0E6F8"/>
<path d="M30.0303 69.0501L31.9403 67.9601L30.0003 67.1801C29.9503 67.1501 29.8903 67.1601 29.8503 67.1901L28.0103 68.2301L30.0303 69.0501Z" fill="#D0E6F8"/>
<path d="M32.79 67.75L34.65 66.62C34.72 66.58 34.71 66.47 34.64 66.44L32.69 65.66C32.66 65.65 32.64 65.65 32.61 65.67L30.73 66.73C30.66 66.77 30.66 66.88 30.74 66.91L32.7 67.75C32.74 67.76 32.77 67.76 32.79 67.75Z" fill="#D0E6F8"/>
<path d="M32.7602 67.55L34.6702 66.46L32.7302 65.68C32.6802 65.65 32.6202 65.66 32.5802 65.69L30.7402 66.73L32.7602 67.55Z" fill="#D0E6F8"/>
<path d="M35.4101 66.1701L37.2701 65.0501C37.3401 65.0101 37.3301 64.9001 37.2601 64.8701L35.3101 64.0901C35.2801 64.0801 35.2601 64.0801 35.2301 64.1001L33.3501 65.1601C33.2801 65.2001 33.2801 65.3101 33.3601 65.3401L35.3201 66.1801C35.3601 66.1901 35.3901 66.1901 35.4101 66.1701Z" fill="#D0E6F8"/>
<path d="M35.3804 65.98L37.2904 64.89L35.3503 64.11C35.3003 64.08 35.2404 64.09 35.2004 64.12L33.3604 65.16L35.3804 65.98Z" fill="#D0E6F8"/>
<path d="M38.0801 64.6901L39.9401 63.5701C40.0101 63.5301 40.0001 63.4201 39.9301 63.3901L37.9801 62.6101C37.9501 62.6001 37.9301 62.6001 37.9001 62.6201L36.0201 63.6801C35.9501 63.7201 35.9501 63.8301 36.0301 63.8601L37.9901 64.7001C38.0201 64.7001 38.0501 64.7001 38.0801 64.6901Z" fill="#D0E6F8"/>
<path d="M38.04 64.49L39.95 63.4L38.01 62.62C37.96 62.59 37.9 62.6 37.86 62.63L36.02 63.67L38.04 64.49Z" fill="#D0E6F8"/>
<path d="M40.6705 63.2L53.3205 56.12C53.5605 56.02 53.5005 55.84 53.3005 55.81L51.5405 55.11C51.4905 55.09 51.4405 55.09 51.3905 55.12L38.8005 62.26C38.6705 62.33 38.6905 62.52 38.8205 62.57L40.5205 63.21C40.5705 63.23 40.6305 63.23 40.6705 63.2Z" fill="#D0E6F8"/>
<path d="M40.6204 63.03L53.4004 55.94C53.4304 55.92 53.4304 55.87 53.4004 55.86L51.5504 55.11C51.5004 55.08 51.4404 55.09 51.4004 55.12L38.8104 62.25C38.7804 62.27 38.7804 62.32 38.8204 62.33L40.5904 63.03C40.5904 63.04 40.6104 63.03 40.6204 63.03Z" fill="#D0E6F8"/>
<path d="M54.1401 55.6801L56.0001 54.5601C56.0701 54.5201 56.0601 54.4101 55.9901 54.3801L54.0401 53.6001C54.0101 53.5901 53.9901 53.5901 53.9601 53.6101L52.0801 54.6701C52.0101 54.7101 52.0101 54.8201 52.0901 54.8501L54.0501 55.6901C54.0901 55.7001 54.1201 55.6901 54.1401 55.6801Z" fill="#D0E6F8"/>
<path d="M54.1103 55.48L56.0203 54.39L54.0803 53.61C54.0303 53.58 53.9703 53.59 53.9303 53.62L52.0903 54.66L54.1103 55.48Z" fill="#D0E6F8"/>
<path d="M56.7305 54.1901L58.5905 53.0701C58.6605 53.0301 58.6505 52.9201 58.5805 52.8901L56.6305 52.1101C56.6005 52.1001 56.5805 52.1001 56.5505 52.1201L54.6705 53.1801C54.6005 53.2201 54.6005 53.3301 54.6805 53.3601L56.6405 54.2001C56.6705 54.2101 56.7005 54.2101 56.7305 54.1901Z" fill="#D0E6F8"/>
<path d="M56.6904 53.99L58.6004 52.9L56.6604 52.12C56.6104 52.09 56.5504 52.1 56.5104 52.13L54.6704 53.17L56.6904 53.99Z" fill="#D0E6F8"/>
<path d="M59.0903 52.7602L60.9503 51.6402C61.0203 51.6002 61.0103 51.4902 60.9403 51.4602L58.9903 50.6802C58.9603 50.6702 58.9403 50.6702 58.9103 50.6902L57.0303 51.7502C56.9603 51.7902 56.9603 51.9002 57.0403 51.9302L59.0003 52.7702C59.0303 52.7702 59.0603 52.7702 59.0903 52.7602Z" fill="#D0E6F8"/>
<path d="M59.0605 52.5601L60.9705 51.4701L59.0305 50.6901C58.9805 50.6601 58.9205 50.6701 58.8805 50.7001L57.0405 51.7401L59.0605 52.5601Z" fill="#D0E6F8"/>
<path d="M61.4504 51.2601L63.2104 50.2001C63.2804 50.1601 63.2704 50.0601 63.2004 50.0301L61.3604 49.2901C61.3404 49.2801 61.3104 49.2801 61.2904 49.3001L59.5204 50.3101C59.4504 50.3501 59.4604 50.4501 59.5304 50.4801L61.3904 51.2701C61.4004 51.2801 61.4304 51.2701 61.4504 51.2601Z" fill="#D0E6F8"/>
<path d="M61.4203 51.0701L63.2203 50.0401L61.3903 49.3001C61.3403 49.2701 61.2903 49.2801 61.2503 49.3101L59.5103 50.3001L61.4203 51.0701Z" fill="#D0E6F8"/>
<path d="M24.3203 70.2L26.4603 68.82C26.6003 68.74 26.5903 68.56 26.4403 68.5L24.5503 67.7C24.5003 67.68 24.4503 67.68 24.4003 67.71L22.3203 68.96C22.2103 69.05 22.2103 69.32 22.3503 69.36L24.1603 70.21C24.2203 70.23 24.2703 70.23 24.3203 70.2Z" fill="#D0E6F8"/>
<path d="M24.4605 69.89L26.4105 68.67C26.4805 68.63 26.4705 68.52 26.4005 68.49L24.5505 67.7C24.5005 67.66 24.4405 67.68 24.3905 67.71L22.4605 68.87C22.3505 68.94 22.3605 69.11 22.4705 69.17L24.0605 69.92C24.2005 69.97 24.3405 69.97 24.4605 69.89Z" fill="#D0E6F8"/>
<path d="M27.1304 71.2L29.2704 69.82C29.4104 69.74 29.4004 69.56 29.2504 69.5L27.3604 68.7C27.3104 68.68 27.2604 68.68 27.2104 68.71L25.1304 69.96C25.0204 70.05 25.0204 70.32 25.1604 70.36L26.9704 71.21C27.0304 71.24 27.0904 71.23 27.1304 71.2Z" fill="#D0E6F8"/>
<path d="M27.2803 70.89L29.2303 69.67C29.3003 69.63 29.2903 69.52 29.2203 69.49L27.3703 68.7C27.3203 68.66 27.2603 68.68 27.2103 68.71L25.2803 69.87C25.1703 69.94 25.1803 70.11 25.2903 70.17L26.8903 70.92C27.0103 70.98 27.1603 70.97 27.2803 70.89Z" fill="#D0E6F8"/>
<path d="M13.6401 65.54L15.5101 64.43C15.5801 64.39 15.5701 64.28 15.5001 64.25L13.5601 63.45C13.5301 63.44 13.5101 63.44 13.4801 63.45L11.6001 64.5C11.5301 64.54 11.5301 64.65 11.6101 64.68L13.5701 65.54C13.5901 65.56 13.6201 65.56 13.6401 65.54Z" fill="#D0E6F8"/>
<path d="M13.6101 65.35L15.5301 64.28L13.6001 63.48C13.5501 63.45 13.4901 63.46 13.4501 63.49L11.6001 64.52L13.6101 65.35Z" fill="#D0E6F8"/>
<path d="M16.3901 64.0301L18.2601 62.9201C18.3301 62.8801 18.3201 62.7701 18.2501 62.7401L16.3101 61.9401C16.2801 61.9301 16.2601 61.9301 16.2301 61.9401L14.3501 62.9901C14.2801 63.0301 14.2801 63.1401 14.3601 63.1701L16.3201 64.0301C16.3301 64.0501 16.3601 64.0501 16.3901 64.0301Z" fill="#D0E6F8"/>
<path d="M16.3601 63.8301L18.2801 62.7601L16.3501 61.9601C16.3001 61.9301 16.2401 61.9401 16.2001 61.9701L14.3501 63.0001L16.3601 63.8301Z" fill="#D0E6F8"/>
<path d="M19.1899 62.56L21.0599 61.45C21.1299 61.41 21.1199 61.3 21.0499 61.27L19.1099 60.47C19.0799 60.46 19.0599 60.46 19.0299 60.47L17.1499 61.52C17.0799 61.56 17.0799 61.67 17.1599 61.7L19.1199 62.56C19.1299 62.58 19.1599 62.58 19.1899 62.56Z" fill="#D0E6F8"/>
<path d="M19.1599 62.36L21.0799 61.29L19.1499 60.49C19.0999 60.46 19.0399 60.47 18.9999 60.5L17.1499 61.53L19.1599 62.36Z" fill="#D0E6F8"/>
<path d="M21.9302 61.0101L23.8002 59.9001C23.8702 59.8601 23.8602 59.7501 23.7902 59.7201L21.8502 58.9201C21.8202 58.9101 21.8002 58.9101 21.7702 58.9201L19.8902 59.9701C19.8202 60.0101 19.8202 60.1201 19.9002 60.1501L21.8602 61.0101C21.8702 61.0301 21.9002 61.0301 21.9302 61.0101Z" fill="#D0E6F8"/>
<path d="M21.9001 60.8101L23.8201 59.7401L21.8901 58.9401C21.8401 58.9101 21.7801 58.9201 21.7401 58.9501L19.8901 59.9801L21.9001 60.8101Z" fill="#D0E6F8"/>
<path d="M24.6001 59.6001L26.4701 58.4901C26.5401 58.4501 26.5301 58.3401 26.4601 58.3101L24.5201 57.5101C24.4901 57.5001 24.4701 57.5001 24.4401 57.5101L22.5601 58.5601C22.4901 58.6001 22.4901 58.7101 22.5701 58.7401L24.5301 59.6001C24.5401 59.6201 24.5701 59.6101 24.6001 59.6001Z" fill="#D0E6F8"/>
<path d="M24.5701 59.4001L26.4901 58.3301L24.5601 57.5301C24.5101 57.5001 24.4501 57.5101 24.4101 57.5401L22.5601 58.5701L24.5701 59.4001Z" fill="#D0E6F8"/>
<path d="M27.1602 58.1201L29.0302 57.0101C29.1002 56.9701 29.0902 56.8601 29.0202 56.8301L27.0802 56.0301C27.0502 56.0201 27.0302 56.0201 27.0002 56.0301L25.1202 57.0801C25.0502 57.1201 25.0502 57.2301 25.1302 57.2601L27.0902 58.1201C27.1002 58.1401 27.1302 58.1401 27.1602 58.1201Z" fill="#D0E6F8"/>
<path d="M27.1204 57.9201L29.0404 56.8501L27.1104 56.0501C27.0604 56.0201 27.0004 56.0301 26.9604 56.0601L25.1104 57.0901L27.1204 57.9201Z" fill="#D0E6F8"/>
<path d="M29.8701 56.6401L31.7401 55.5301C31.8101 55.4901 31.8001 55.3801 31.7301 55.3501L29.7901 54.5501C29.7601 54.5401 29.7401 54.5401 29.7101 54.5501L27.8301 55.6001C27.7601 55.6401 27.7601 55.7501 27.8401 55.7801L29.8001 56.6401C29.8101 56.6601 29.8401 56.6601 29.8701 56.6401Z" fill="#D0E6F8"/>
<path d="M29.8303 56.4401L31.7503 55.3701L29.8203 54.5701C29.7703 54.5401 29.7103 54.5501 29.6703 54.5801L27.8203 55.6101L29.8303 56.4401Z" fill="#D0E6F8"/>
<path d="M32.6104 55.1301L34.4804 54.0201C34.5504 53.9801 34.5404 53.8701 34.4704 53.8401L32.5304 53.0401C32.5004 53.0301 32.4804 53.0301 32.4504 53.0401L30.5704 54.0901C30.5004 54.1301 30.5004 54.2401 30.5804 54.2701L32.5404 55.1301C32.5604 55.1501 32.5904 55.1401 32.6104 55.1301Z" fill="#D0E6F8"/>
<path d="M32.5803 54.9301L34.5003 53.8601L32.5703 53.0601C32.5203 53.0301 32.4603 53.0401 32.4203 53.0701L30.5703 54.1001L32.5803 54.9301Z" fill="#D0E6F8"/>
<path d="M35.4102 53.66L37.2802 52.55C37.3502 52.51 37.3402 52.4 37.2702 52.37L35.3302 51.57C35.3002 51.56 35.2802 51.56 35.2502 51.57L33.3702 52.62C33.3002 52.66 33.3002 52.77 33.3802 52.8L35.3402 53.66C35.3602 53.68 35.3902 53.67 35.4102 53.66Z" fill="#D0E6F8"/>
<path d="M35.3801 53.46L37.3001 52.39L35.3701 51.59C35.3201 51.56 35.2601 51.57 35.2201 51.6L33.3701 52.63L35.3801 53.46Z" fill="#D0E6F8"/>
<path d="M38.1499 52.1101L40.0199 51.0001C40.0899 50.9601 40.0799 50.8501 40.0099 50.8201L38.0699 50.0201C38.0399 50.0101 38.0199 50.0101 37.9899 50.0201L36.1099 51.0701C36.0399 51.1101 36.0399 51.2201 36.1199 51.2501L38.0799 52.1101C38.0999 52.1301 38.1299 52.1201 38.1499 52.1101Z" fill="#D0E6F8"/>
<path d="M38.1199 51.9101L40.0399 50.8401L38.1099 50.0401C38.0599 50.0101 37.9999 50.0201 37.9599 50.0501L36.1099 51.0801L38.1199 51.9101Z" fill="#D0E6F8"/>
<path d="M40.8203 50.7L42.6903 49.59C42.7603 49.55 42.7503 49.44 42.6803 49.41L40.7403 48.61C40.7103 48.6 40.6903 48.6 40.6603 48.61L38.7803 49.66C38.7103 49.7 38.7103 49.81 38.7903 49.84L40.7503 50.7C40.7703 50.71 40.8003 50.71 40.8203 50.7Z" fill="#D0E6F8"/>
<path d="M40.7903 50.5001L42.7103 49.4301L40.7803 48.6301C40.7303 48.6001 40.6703 48.6101 40.6303 48.6401L38.7803 49.6701L40.7903 50.5001Z" fill="#D0E6F8"/>
<path d="M43.3804 49.2201L45.2504 48.1101C45.3204 48.0701 45.3104 47.9601 45.2404 47.9301L43.3004 47.1301C43.2704 47.1201 43.2504 47.1201 43.2204 47.1301L41.3404 48.1801C41.2704 48.2201 41.2704 48.3301 41.3504 48.3601L43.3104 49.2201C43.3304 49.2301 43.3604 49.2301 43.3804 49.2201Z" fill="#D0E6F8"/>
<path d="M43.3503 49.0201L45.2703 47.9501L43.3403 47.1501C43.2903 47.1201 43.2303 47.1301 43.1903 47.1601L41.3403 48.1901L43.3503 49.0201Z" fill="#D0E6F8"/>
<path d="M46.0601 47.71L47.9301 46.6C48.0001 46.56 47.9901 46.45 47.9201 46.42L45.9801 45.62C45.9501 45.61 45.9301 45.61 45.9001 45.62L44.0201 46.67C43.9501 46.71 43.9501 46.82 44.0301 46.85L45.9901 47.71C46.0101 47.72 46.0401 47.72 46.0601 47.71Z" fill="#D0E6F8"/>
<path d="M46.03 47.5101L47.95 46.4401L46.02 45.6401C45.97 45.6101 45.91 45.6201 45.87 45.6501L44.02 46.6801L46.03 47.5101Z" fill="#D0E6F8"/>
<path d="M19.1699 64.9801L21.0399 63.8701C21.1099 63.8301 21.0999 63.7201 21.0299 63.6901L19.0899 62.8901C19.0599 62.8801 19.0399 62.8801 19.0099 62.8901L17.1299 63.9401C17.0599 63.9801 17.0599 64.0901 17.1399 64.1201L19.0999 64.9801C19.1099 65.0001 19.1399 65.0001 19.1699 64.9801Z" fill="#D0E6F8"/>
<path d="M19.1301 64.7901L21.0501 63.7201L19.1201 62.9201C19.0701 62.8901 19.0101 62.9001 18.9701 62.9301L17.1201 63.9601L19.1301 64.7901Z" fill="#D0E6F8"/>
<path d="M21.9702 63.5101L23.8402 62.4001C23.9102 62.3601 23.9002 62.2501 23.8302 62.2201L21.8902 61.4201C21.8602 61.4101 21.8402 61.4101 21.8102 61.4201L19.9302 62.4701C19.8602 62.5101 19.8602 62.6201 19.9402 62.6501L21.9002 63.5101C21.9102 63.5301 21.9402 63.5301 21.9702 63.5101Z" fill="#D0E6F8"/>
<path d="M21.9304 63.3201L23.8504 62.2501L21.9204 61.4501C21.8704 61.4201 21.8104 61.4301 21.7704 61.4601L19.9204 62.4901L21.9304 63.3201Z" fill="#D0E6F8"/>
<path d="M24.71 61.96L26.58 60.85C26.65 60.81 26.64 60.7 26.57 60.67L24.63 59.87C24.6 59.86 24.58 59.86 24.55 59.87L22.67 60.92C22.6 60.96 22.6 61.07 22.68 61.1L24.64 61.96C24.65 61.98 24.68 61.98 24.71 61.96Z" fill="#D0E6F8"/>
<path d="M24.6702 61.7701L26.5902 60.7001L24.6602 59.9001C24.6102 59.8701 24.5502 59.8801 24.5102 59.9101L22.6602 60.9401L24.6702 61.7701Z" fill="#D0E6F8"/>
<path d="M27.3804 60.55L29.2504 59.44C29.3204 59.4 29.3104 59.29 29.2404 59.26L27.3004 58.46C27.2704 58.45 27.2504 58.45 27.2204 58.46L25.3404 59.51C25.2704 59.55 25.2704 59.66 25.3504 59.69L27.3104 60.55C27.3204 60.57 27.3504 60.57 27.3804 60.55Z" fill="#D0E6F8"/>
<path d="M27.3406 60.35L29.2606 59.28L27.3306 58.48C27.2806 58.45 27.2206 58.46 27.1806 58.49L25.3306 59.52L27.3406 60.35Z" fill="#D0E6F8"/>
<path d="M29.9302 59.07L31.8002 57.96C31.8702 57.92 31.8602 57.81 31.7902 57.78L29.8502 56.98C29.8202 56.97 29.8002 56.97 29.7702 56.98L27.8902 58.04C27.8202 58.08 27.8202 58.19 27.9002 58.22L29.8602 59.08C29.8802 59.09 29.9102 59.09 29.9302 59.07Z" fill="#D0E6F8"/>
<path d="M29.9001 58.8801L31.8201 57.8101L29.8901 57.0101C29.8401 56.9801 29.7801 56.9901 29.7401 57.0201L27.8901 58.0401L29.9001 58.8801Z" fill="#D0E6F8"/>
<path d="M32.6401 57.5901L34.5101 56.4801C34.5801 56.4401 34.5701 56.3301 34.5001 56.3001L32.5601 55.5001C32.5301 55.4901 32.5101 55.4901 32.4801 55.5001L30.6001 56.5501C30.5301 56.5901 30.5301 56.7001 30.6101 56.7301L32.5701 57.5901C32.5901 57.6101 32.6201 57.6101 32.6401 57.5901Z" fill="#D0E6F8"/>
<path d="M32.6101 57.3901L34.5301 56.3201L32.6001 55.5201C32.5501 55.4901 32.4901 55.5001 32.4501 55.5301L30.6001 56.5601L32.6101 57.3901Z" fill="#D0E6F8"/>
<path d="M35.3901 56.08L37.2601 54.97C37.3301 54.93 37.3201 54.82 37.2501 54.79L35.3101 53.99C35.2801 53.98 35.2601 53.98 35.2301 53.99L33.3501 55.04C33.2801 55.08 33.2801 55.19 33.3601 55.22L35.3201 56.08C35.3301 56.1 35.3701 56.1 35.3901 56.08Z" fill="#D0E6F8"/>
<path d="M35.3601 55.8801L37.2801 54.8101L35.3501 54.0101C35.3001 53.9801 35.2401 53.9901 35.2001 54.0201L33.3501 55.0501L35.3601 55.8801Z" fill="#D0E6F8"/>
<path d="M38.1899 54.6101L40.0599 53.5001C40.1299 53.4601 40.1199 53.3501 40.0499 53.3201L38.1099 52.5201C38.0799 52.5101 38.0599 52.5101 38.0299 52.5201L36.1499 53.5701C36.0799 53.6101 36.0799 53.7201 36.1599 53.7501L38.1099 54.6201C38.1299 54.6301 38.1599 54.6301 38.1899 54.6101Z" fill="#D0E6F8"/>
<path d="M38.1599 54.4101L40.0799 53.3401L38.1499 52.5401C38.0999 52.5101 38.0399 52.5201 37.9999 52.5501L36.1499 53.5801L38.1599 54.4101Z" fill="#D0E6F8"/>
<path d="M40.9302 53.06L42.8002 51.95C42.8702 51.91 42.8602 51.8 42.7902 51.77L40.8502 50.97C40.8202 50.96 40.8002 50.96 40.7702 50.97L38.8902 52.02C38.8202 52.06 38.8202 52.17 38.9002 52.2L40.8602 53.06C40.8802 53.08 40.9102 53.08 40.9302 53.06Z" fill="#D0E6F8"/>
<path d="M40.9001 52.86L42.8201 51.79L40.8901 50.99C40.8401 50.96 40.7801 50.97 40.7401 51L38.8901 52.03L40.9001 52.86Z" fill="#D0E6F8"/>
<path d="M43.6003 51.6501L45.4703 50.5401C45.5403 50.5001 45.5303 50.3901 45.4603 50.3601L43.5203 49.5601C43.4903 49.5501 43.4703 49.5501 43.4403 49.5601L41.5503 50.6201C41.4803 50.6601 41.4803 50.7701 41.5603 50.8001L43.5203 51.6601C43.5503 51.6601 43.5803 51.6601 43.6003 51.6501Z" fill="#D0E6F8"/>
<path d="M43.5703 51.4501L45.4903 50.3801L43.5603 49.5801C43.5103 49.5501 43.4503 49.5601 43.4103 49.5901L41.5503 50.6201L43.5703 51.4501Z" fill="#D0E6F8"/>
<path d="M46.1602 50.17L48.0302 49.06C48.1002 49.02 48.0902 48.91 48.0202 48.88L46.0802 48.08C46.0502 48.07 46.0302 48.07 46.0002 48.08L44.1202 49.13C44.0502 49.17 44.0502 49.28 44.1302 49.31L46.0902 50.17C46.1002 50.19 46.1302 50.18 46.1602 50.17Z" fill="#D0E6F8"/>
<path d="M46.1301 49.97L48.0501 48.9L46.1201 48.1C46.0701 48.07 46.0101 48.08 45.9701 48.11L44.1201 49.14L46.1301 49.97Z" fill="#D0E6F8"/>
<path d="M48.8403 48.66L50.7103 47.55C50.7803 47.51 50.7703 47.4 50.7003 47.37L48.7603 46.57C48.7303 46.56 48.7103 46.56 48.6803 46.57L46.8003 47.62C46.7303 47.66 46.7303 47.77 46.8103 47.8L48.7703 48.66C48.7903 48.68 48.8203 48.67 48.8403 48.66Z" fill="#D0E6F8"/>
<path d="M48.8103 48.46L50.7303 47.39L48.8003 46.59C48.7503 46.56 48.6903 46.57 48.6503 46.6L46.8003 47.63L48.8103 48.46Z" fill="#D0E6F8"/>
<path d="M51.4502 47.17L53.3202 46.06C53.3902 46.02 53.3802 45.91 53.3102 45.88L51.3702 45.08C51.3402 45.07 51.3202 45.07 51.2902 45.08L49.4102 46.13C49.3402 46.17 49.3402 46.28 49.4202 46.31L51.3802 47.17C51.3902 47.19 51.4202 47.19 51.4502 47.17Z" fill="#D0E6F8"/>
<path d="M51.4104 46.97L53.3304 45.9L51.4004 45.1C51.3504 45.07 51.2904 45.08 51.2504 45.11L49.4004 46.14L51.4104 46.97Z" fill="#D0E6F8"/>
<path d="M21.9399 66.06L23.8099 64.95C23.8799 64.91 23.8699 64.8 23.7999 64.77L21.8599 63.97C21.8299 63.96 21.8099 63.96 21.7799 63.97L19.8999 65.02C19.8299 65.06 19.8299 65.17 19.9099 65.2L21.8699 66.06C21.8899 66.08 21.9199 66.08 21.9399 66.06Z" fill="#D0E6F8"/>
<path d="M21.9101 65.87L23.8301 64.8L21.8901 64C21.8401 63.97 21.7801 63.98 21.7401 64.01L19.8901 65.04L21.9101 65.87Z" fill="#D0E6F8"/>
<path d="M24.6802 64.5901L26.5502 63.4801C26.6202 63.4401 26.6102 63.3301 26.5402 63.3001L24.6002 62.5001C24.5702 62.4901 24.5502 62.4901 24.5202 62.5001L22.6402 63.5501C22.5702 63.5901 22.5702 63.7001 22.6502 63.7301L24.6102 64.5901C24.6302 64.6101 24.6602 64.6101 24.6802 64.5901Z" fill="#D0E6F8"/>
<path d="M24.6501 64.3901L26.5701 63.3201L24.6401 62.5201C24.5901 62.4901 24.5301 62.5001 24.4901 62.5301L22.6401 63.5601L24.6501 64.3901Z" fill="#D0E6F8"/>
<path d="M27.3101 63.04L29.1801 61.93C29.2501 61.89 29.2401 61.78 29.1701 61.75L27.2301 60.95C27.2001 60.94 27.1801 60.94 27.1501 60.95L25.2701 62C25.2001 62.04 25.2001 62.15 25.2801 62.18L27.2401 63.04C27.2601 63.06 27.2901 63.05 27.3101 63.04Z" fill="#D0E6F8"/>
<path d="M27.28 62.84L29.2 61.77L27.27 60.97C27.22 60.94 27.16 60.95 27.12 60.98L25.27 62.01L27.28 62.84Z" fill="#D0E6F8"/>
<path d="M29.9902 61.58L31.8602 60.47C31.9302 60.43 31.9202 60.32 31.8502 60.29L29.9102 59.49C29.8802 59.48 29.8602 59.48 29.8302 59.49L27.9502 60.54C27.8802 60.58 27.8802 60.69 27.9602 60.72L29.9202 61.58C29.9402 61.59 29.9702 61.59 29.9902 61.58Z" fill="#D0E6F8"/>
<path d="M29.9602 61.3801L31.8802 60.3101L29.9502 59.5101C29.9002 59.4801 29.8402 59.4901 29.8002 59.5201L27.9502 60.5501L29.9602 61.3801Z" fill="#D0E6F8"/>
<path d="M32.73 60.1501L34.6 59.0401C34.67 59.0001 34.66 58.8901 34.59 58.8601L32.65 58.0601C32.62 58.0501 32.6 58.0501 32.57 58.0601L30.69 59.1101C30.62 59.1501 30.62 59.2601 30.7 59.2901L32.66 60.1501C32.68 60.1701 32.71 60.1601 32.73 60.1501Z" fill="#D0E6F8"/>
<path d="M32.6999 59.9501L34.6199 58.8801L32.6899 58.0801C32.6399 58.0501 32.5799 58.0601 32.5399 58.0901L30.6899 59.1201L32.6999 59.9501Z" fill="#D0E6F8"/>
<path d="M35.3801 58.6501L37.2501 57.5401C37.3201 57.5001 37.3101 57.3901 37.2401 57.3601L35.3001 56.5601C35.2701 56.5501 35.2501 56.5501 35.2201 56.5601L33.3301 57.6201C33.2601 57.6601 33.2601 57.7701 33.3401 57.8001L35.3001 58.6601C35.3201 58.6701 35.3501 58.6601 35.3801 58.6501Z" fill="#D0E6F8"/>
<path d="M35.3401 58.4501L37.2601 57.3801L35.3301 56.5801C35.2801 56.5501 35.2201 56.5601 35.1801 56.5901L33.3301 57.6201L35.3401 58.4501Z" fill="#D0E6F8"/>
<path d="M38.1104 57.17L39.9804 56.06C40.0504 56.02 40.0404 55.91 39.9704 55.88L38.0304 55.08C38.0004 55.07 37.9804 55.07 37.9504 55.08L36.0704 56.13C36.0004 56.17 36.0004 56.28 36.0804 56.31L38.0404 57.17C38.0604 57.19 38.0904 57.19 38.1104 57.17Z" fill="#D0E6F8"/>
<path d="M38.0803 56.98L40.0003 55.91L38.0703 55.11C38.0203 55.08 37.9603 55.09 37.9203 55.12L36.0703 56.15L38.0803 56.98Z" fill="#D0E6F8"/>
<path d="M40.9102 55.69L42.7802 54.58C42.8502 54.54 42.8402 54.43 42.7702 54.4L40.8302 53.6C40.8002 53.59 40.7802 53.59 40.7502 53.6L38.8702 54.65C38.8002 54.69 38.8002 54.8 38.8802 54.83L40.8402 55.69C40.8502 55.71 40.8802 55.71 40.9102 55.69Z" fill="#D0E6F8"/>
<path d="M40.8703 55.5001L42.7904 54.4301L40.8604 53.6301C40.8104 53.6001 40.7504 53.6101 40.7104 53.6401L38.8604 54.6701L40.8703 55.5001Z" fill="#D0E6F8"/>
<path d="M43.5903 54.18L45.4603 53.07C45.5303 53.03 45.5203 52.92 45.4503 52.89L43.5103 52.09C43.4803 52.08 43.4603 52.08 43.4303 52.09L41.5503 53.14C41.4803 53.18 41.4803 53.29 41.5603 53.32L43.5203 54.18C43.5303 54.2 43.5603 54.2 43.5903 54.18Z" fill="#D0E6F8"/>
<path d="M43.5505 53.99L45.4705 52.92L43.5405 52.12C43.4905 52.09 43.4305 52.1 43.3905 52.13L41.5405 53.16L43.5505 53.99Z" fill="#D0E6F8"/>
<path d="M46.1304 52.71L48.0004 51.6C48.0704 51.56 48.0604 51.45 47.9904 51.42L46.0504 50.62C46.0204 50.61 46.0004 50.61 45.9704 50.62L44.0904 51.67C44.0204 51.71 44.0204 51.82 44.1004 51.85L46.0604 52.71C46.0804 52.73 46.1104 52.72 46.1304 52.71Z" fill="#D0E6F8"/>
<path d="M46.1003 52.5101L48.0203 51.4401L46.0903 50.6401C46.0403 50.6101 45.9803 50.6201 45.9403 50.6501L44.0903 51.6801L46.1003 52.5101Z" fill="#D0E6F8"/>
<path d="M48.73 51.2401L50.6 50.1301C50.67 50.0901 50.66 49.9801 50.59 49.9501L48.65 49.1501C48.62 49.1401 48.6 49.1401 48.57 49.1501L46.69 50.2001C46.62 50.2401 46.62 50.3501 46.7 50.3801L48.66 51.2401C48.68 51.2601 48.71 51.2601 48.73 51.2401Z" fill="#D0E6F8"/>
<path d="M48.6999 51.0501L50.6199 49.9801L48.6899 49.1801C48.6399 49.1501 48.5799 49.1601 48.5399 49.1901L46.6899 50.2201L48.6999 51.0501Z" fill="#D0E6F8"/>
<path d="M51.4302 49.6501L53.3002 48.5401C53.3702 48.5001 53.3602 48.3901 53.2902 48.3601L51.3502 47.5601C51.3202 47.5501 51.3002 47.5501 51.2702 47.5601L49.3902 48.6201C49.3202 48.6601 49.3202 48.7701 49.4002 48.8001L51.3602 49.6601C51.3802 49.6701 51.4102 49.6601 51.4302 49.6501Z" fill="#D0E6F8"/>
<path d="M51.4001 49.4501L53.3201 48.3801L51.3901 47.5801C51.3401 47.5501 51.2801 47.5601 51.2401 47.5901L49.3901 48.6201L51.4001 49.4501Z" fill="#D0E6F8"/>
<path d="M53.9502 48.31L55.8202 47.2C55.8902 47.16 55.8802 47.05 55.8102 47.02L53.8702 46.22C53.8402 46.21 53.8202 46.21 53.7902 46.22L51.9102 47.27C51.8402 47.31 51.8402 47.42 51.9202 47.45L53.8802 48.31C53.9002 48.32 53.9302 48.32 53.9502 48.31Z" fill="#D0E6F8"/>
<path d="M53.9202 48.11L55.8402 47.04L53.9102 46.24C53.8602 46.21 53.8002 46.22 53.7602 46.25L51.9102 47.28L53.9202 48.11Z" fill="#D0E6F8"/>
<path d="M48.5204 46.35L50.6804 44.99C50.8204 44.91 50.8104 44.74 50.6604 44.67L48.7704 43.85C48.7204 43.83 48.6704 43.83 48.6204 43.86L46.5304 45.09C46.4104 45.17 46.4204 45.44 46.5504 45.49L48.3604 46.36C48.4104 46.39 48.4704 46.38 48.5204 46.35Z" fill="#D0E6F8"/>
<path d="M48.6604 46.0401L50.6304 44.8401C50.7004 44.8001 50.6904 44.6901 50.6204 44.6601L48.7804 43.8601C48.7304 43.8201 48.6704 43.8301 48.6204 43.8701L46.6804 45.0101C46.5704 45.0801 46.5704 45.2501 46.6904 45.3101L48.2804 46.0701C48.4004 46.1201 48.5504 46.1201 48.6604 46.0401Z" fill="#D0E6F8"/>
<path d="M16.1903 66.97L18.3503 65.61C18.4903 65.53 18.4803 65.36 18.3303 65.29L16.4403 64.47C16.3903 64.45 16.3403 64.45 16.2903 64.48L14.2003 65.71C14.0803 65.79 14.0903 66.06 14.2203 66.11L16.0303 66.98C16.0803 67 16.1403 67 16.1903 66.97Z" fill="#D0E6F8"/>
<path d="M16.3303 66.6601L18.3003 65.4601C18.3703 65.4201 18.3603 65.3101 18.2903 65.2801L16.4503 64.4801C16.4003 64.4401 16.3403 64.4501 16.2903 64.4901L14.3503 65.6301C14.2403 65.7001 14.2403 65.8701 14.3603 65.9301L15.9503 66.6901C16.0703 66.7401 16.2103 66.7301 16.3303 66.6601Z" fill="#D0E6F8"/>
<path d="M18.9901 68L21.1501 66.64C21.2901 66.56 21.2801 66.39 21.1301 66.32L19.2401 65.5C19.1901 65.48 19.1401 65.48 19.0901 65.51L17.0001 66.74C16.8801 66.82 16.8901 67.09 17.0201 67.14L18.8301 68.01C18.8901 68.03 18.9401 68.03 18.9901 68Z" fill="#D0E6F8"/>
<path d="M19.1399 67.6901L21.1099 66.4901C21.1799 66.4501 21.1699 66.3401 21.0999 66.3101L19.2599 65.5101C19.2099 65.4701 19.1499 65.4801 19.0999 65.5201L17.1599 66.6601C17.0499 66.7301 17.0499 66.9001 17.1699 66.9601L18.7599 67.7201C18.8699 67.7701 19.0199 67.7601 19.1399 67.6901Z" fill="#D0E6F8"/>
</g>
<defs>
<clipPath id="clip0_222_1441">
<rect width="80.38" height="82.98" fill="white" transform="translate(0.890137 0.619995)"/>
</clipPath>
</defs>
</svg>
