<svg width="90" height="90" viewBox="0 0 90 90" fill="none" xmlns="http://www.w3.org/2000/svg">
<g clip-path="url(#clip0_339_1258)">
<path d="M63.0301 28.64H59.8901H57.9801H55.7201H53.1201C53.0201 34.84 49.3501 40.03 45.0101 40.03C40.6701 40.03 37.0001 34.84 36.9001 28.64H34.5301H32.2701H30.3901H27.2501H24.1001C24.2101 42 33.5401 52.82 45.0001 52.82C56.4601 52.82 65.7901 42 65.9001 28.64H63.0301Z" fill="#34D1AF"/>
<path d="M30.6999 31.43C30.4399 31.49 30.2699 31.76 30.3299 32.02C30.4099 32.35 30.4899 32.67 30.5799 32.99C30.6399 33.21 30.8399 33.35 31.0499 33.35C31.0899 33.35 31.1399 33.34 31.1799 33.33C31.4399 33.26 31.5999 32.99 31.5299 32.73C31.4499 32.42 31.3699 32.11 31.2899 31.79C31.2299 31.53 30.9599 31.36 30.6999 31.43Z" fill="#EE4342"/>
<path d="M29.3903 36.54C29.2803 36.24 29.1703 35.94 29.0603 35.63C28.9703 35.37 28.6903 35.24 28.4403 35.32C28.1803 35.41 28.0403 35.69 28.1303 35.94C28.2403 36.26 28.3503 36.57 28.4703 36.88C28.5403 37.08 28.7303 37.2 28.9303 37.2C28.9903 37.2 29.0503 37.19 29.1003 37.17C29.3603 37.08 29.4903 36.79 29.3903 36.54Z" fill="#EE4342"/>
<path d="M27.5599 34.03C27.6199 34.25 27.8199 34.4 28.0399 34.4C28.0799 34.4 28.1199 34.39 28.1699 34.38C28.4299 34.31 28.5899 34.04 28.5199 33.78C28.4399 33.47 28.3599 33.16 28.2899 32.84C28.2299 32.58 27.9599 32.41 27.6999 32.47C27.4399 32.53 27.2699 32.8 27.3299 33.06C27.3899 33.39 27.4699 33.71 27.5599 34.03Z" fill="#EE4342"/>
<path d="M27.6599 29.13H28.0599H28.6399H28.7499C29.0199 29.13 29.2399 28.91 29.2399 28.64C29.2399 28.37 29.0199 28.15 28.7499 28.15H28.6399H28.0599H27.6599C27.3899 28.15 27.1699 28.37 27.1699 28.64C27.1699 28.91 27.3899 29.13 27.6599 29.13Z" fill="#EE4342"/>
<path d="M31.1701 34.9C31.2801 35.22 31.4001 35.53 31.5201 35.84C31.6001 36.03 31.7801 36.15 31.9801 36.15C32.0401 36.15 32.1001 36.14 32.1601 36.11C32.4101 36.01 32.5401 35.72 32.4301 35.47C32.3101 35.17 32.2001 34.87 32.0901 34.57C32.0001 34.31 31.7201 34.18 31.4601 34.27C31.2201 34.37 31.0801 34.65 31.1701 34.9Z" fill="#EE4342"/>
<path d="M29.2501 38.73C29.3901 39.04 29.5401 39.34 29.6901 39.63C29.7801 39.8 29.9501 39.9 30.1301 39.9C30.2001 39.9 30.2801 39.88 30.3501 39.85C30.5901 39.73 30.6901 39.43 30.5701 39.19C30.4301 38.9 30.2901 38.61 30.1501 38.32C30.0401 38.07 29.7401 37.97 29.5001 38.08C29.2401 38.2 29.1301 38.49 29.2501 38.73Z" fill="#EE4342"/>
<path d="M31.6099 42.46C31.6999 42.46 31.7999 42.43 31.8799 42.38C32.1099 42.23 32.1699 41.92 32.0199 41.7C31.8399 41.43 31.6699 41.16 31.4999 40.89C31.3599 40.66 31.0599 40.58 30.8199 40.73C30.5899 40.87 30.5099 41.17 30.6599 41.41C30.8299 41.7 31.0099 41.98 31.1999 42.26C31.2899 42.38 31.4499 42.46 31.6099 42.46Z" fill="#EE4342"/>
<path d="M40.7399 48.85C40.4399 48.75 40.1399 48.63 39.8499 48.51C39.5999 48.4 39.3099 48.52 39.2099 48.77C39.0999 49.02 39.2199 49.31 39.4699 49.41C39.7799 49.54 40.0999 49.66 40.4199 49.77C40.4699 49.79 40.5299 49.8 40.5799 49.8C40.7799 49.8 40.9799 49.67 41.0499 49.47C41.1299 49.22 40.9999 48.94 40.7399 48.85Z" fill="#EE4342"/>
<path d="M38.3299 48.33C38.4699 48.09 38.3899 47.79 38.1499 47.66C37.8799 47.5 37.6099 47.33 37.3399 47.16C37.1099 47.01 36.8099 47.07 36.6599 47.3C36.5099 47.53 36.5699 47.83 36.7999 47.98C37.0799 48.17 37.3699 48.35 37.6599 48.52C37.7399 48.57 37.8199 48.59 37.9099 48.59C38.0699 48.58 38.2299 48.49 38.3299 48.33Z" fill="#EE4342"/>
<path d="M43.5101 49.48C43.2001 49.44 42.8902 49.4 42.5702 49.34C42.3002 49.29 42.0502 49.46 41.9902 49.73C41.9402 50 42.1102 50.25 42.3802 50.31C42.7102 50.37 43.0502 50.43 43.3902 50.46C43.4102 50.46 43.4302 50.46 43.4502 50.46C43.7002 50.46 43.9101 50.28 43.9401 50.02C43.9701 49.75 43.7801 49.51 43.5101 49.48Z" fill="#EE4342"/>
<path d="M35.8099 46.01C35.5699 45.81 35.3299 45.59 35.0899 45.37C34.8899 45.18 34.5799 45.19 34.3899 45.39C34.1999 45.59 34.2099 45.9 34.4099 46.09C34.6599 46.32 34.9099 46.55 35.1599 46.76C35.2499 46.84 35.3699 46.88 35.4799 46.88C35.6199 46.88 35.7599 46.82 35.8599 46.71C36.0499 46.49 36.0199 46.18 35.8099 46.01Z" fill="#EE4342"/>
<path d="M33.72 44.68C33.92 44.5 33.95 44.19 33.77 43.99C33.56 43.75 33.36 43.5 33.15 43.25C32.98 43.04 32.67 43 32.46 43.17C32.25 43.34 32.21 43.65 32.38 43.86C32.59 44.12 32.81 44.38 33.03 44.63C33.13 44.74 33.26 44.8 33.4 44.8C33.51 44.8 33.63 44.76 33.72 44.68Z" fill="#EE4342"/>
<path d="M62.7799 32.65C62.8499 32.33 62.9199 32 62.9799 31.67C63.0299 31.4 62.8499 31.15 62.5899 31.1C62.3199 31.05 62.0699 31.23 62.0199 31.49C61.9599 31.81 61.8999 32.13 61.8299 32.44C61.7699 32.71 61.9399 32.97 62.2099 33.03C62.2499 33.04 62.2799 33.04 62.3199 33.04C62.5199 33.04 62.7299 32.88 62.7799 32.65Z" fill="#EE4342"/>
<path d="M61.5301 35.89C61.7401 35.89 61.9301 35.76 62.0001 35.55C62.1001 35.23 62.2001 34.92 62.2901 34.59C62.3701 34.33 62.2101 34.06 61.9501 33.98C61.6901 33.9 61.4201 34.06 61.3401 34.32C61.2501 34.63 61.1601 34.94 61.0601 35.25C60.9801 35.51 61.1201 35.79 61.3801 35.87C61.4301 35.88 61.4801 35.89 61.5301 35.89Z" fill="#EE4342"/>
<path d="M58.3903 34.67C58.4403 34.69 58.4903 34.69 58.5403 34.69C58.7503 34.69 58.9403 34.56 59.0103 34.35C59.1103 34.03 59.2103 33.72 59.3103 33.39C59.3903 33.13 59.2303 32.86 58.9703 32.78C58.7103 32.71 58.4403 32.85 58.3603 33.12C58.2703 33.43 58.1703 33.74 58.0703 34.04C57.9903 34.3 58.1303 34.58 58.3903 34.67Z" fill="#EE4342"/>
<path d="M60.2799 38.6C60.3399 38.63 60.4099 38.64 60.4799 38.64C60.6699 38.64 60.8499 38.53 60.9299 38.35C61.0599 38.05 61.1899 37.74 61.3199 37.43C61.4199 37.18 61.2999 36.89 61.0499 36.79C60.7999 36.69 60.5099 36.81 60.4099 37.06C60.2899 37.36 60.1599 37.66 60.0299 37.95C59.9199 38.2 60.0299 38.49 60.2799 38.6Z" fill="#EE4342"/>
<path d="M32.5702 37.02C32.3302 37.14 32.2302 37.44 32.3502 37.68C32.5002 37.98 32.6602 38.28 32.8202 38.57C32.9102 38.73 33.0802 38.82 33.2502 38.82C33.3302 38.82 33.4102 38.8 33.4902 38.76C33.7302 38.63 33.8102 38.33 33.6802 38.09C33.5302 37.81 33.3802 37.53 33.2302 37.24C33.1102 36.99 32.8102 36.89 32.5702 37.02Z" fill="#EE4342"/>
<path d="M58.0499 35.59C57.7999 35.48 57.5099 35.6 57.4099 35.85C57.2799 36.15 57.1499 36.44 57.0199 36.73C56.8999 36.98 57.0099 37.27 57.2599 37.38C57.3299 37.41 57.3999 37.43 57.4699 37.43C57.6599 37.43 57.8299 37.33 57.9199 37.15C58.0599 36.85 58.1999 36.54 58.3299 36.23C58.4199 35.98 58.2999 35.69 58.0499 35.59Z" fill="#EE4342"/>
<path d="M59.5902 29.9C59.3202 29.85 59.0702 30.03 59.0202 30.3C58.9602 30.62 58.9002 30.94 58.8402 31.25C58.7802 31.52 58.9502 31.78 59.2202 31.83C59.2502 31.84 59.2902 31.84 59.3202 31.84C59.5502 31.84 59.7502 31.68 59.8002 31.45C59.8702 31.13 59.9302 30.8 59.9902 30.47C60.0302 30.2 59.8502 29.94 59.5902 29.9Z" fill="#EE4342"/>
<path d="M34.4702 41.09C34.5702 41.22 34.7102 41.28 34.8602 41.28C34.9602 41.28 35.0702 41.25 35.1602 41.18C35.3802 41.01 35.4202 40.71 35.2502 40.49C35.0602 40.24 34.8702 39.98 34.6902 39.71C34.5402 39.49 34.2302 39.43 34.0102 39.58C33.7902 39.73 33.7302 40.04 33.8802 40.26C34.0702 40.56 34.2702 40.83 34.4702 41.09Z" fill="#EE4342"/>
<path d="M36.5099 43.34C36.5999 43.43 36.7199 43.47 36.8399 43.47C36.9699 43.47 37.0999 43.42 37.1999 43.31C37.3799 43.11 37.3699 42.8 37.1699 42.61C36.9399 42.4 36.7099 42.17 36.4899 41.94C36.2999 41.74 35.9899 41.74 35.7899 41.93C35.5899 42.12 35.5899 42.43 35.7799 42.63C36.0199 42.88 36.2699 43.11 36.5099 43.34Z" fill="#EE4342"/>
<path d="M39.4503 44.33C39.1803 44.17 38.9203 44 38.6603 43.81C38.4403 43.65 38.1303 43.71 37.9703 43.93C37.8103 44.15 37.8703 44.46 38.0903 44.62C38.3703 44.82 38.6603 45 38.9503 45.17C39.0303 45.22 39.1203 45.24 39.2003 45.24C39.3703 45.24 39.5303 45.15 39.6203 45C39.7603 44.77 39.6903 44.47 39.4503 44.33Z" fill="#EE4342"/>
<path d="M41.1399 45.16C40.8899 45.06 40.5999 45.18 40.4999 45.44C40.3999 45.69 40.5199 45.98 40.7799 46.08C41.0999 46.21 41.4199 46.32 41.7499 46.42C41.7999 46.43 41.8399 46.44 41.8899 46.44C42.0999 46.44 42.2999 46.3 42.3599 46.09C42.4399 45.83 42.2899 45.56 42.0299 45.48C41.7299 45.38 41.4299 45.28 41.1399 45.16Z" fill="#EE4342"/>
<path d="M43.7603 46.83C44.1003 46.87 44.4403 46.89 44.7903 46.9H44.8003C45.0703 46.9 45.2903 46.69 45.2903 46.42C45.3003 46.15 45.0803 45.92 44.8103 45.92C44.5003 45.91 44.1803 45.89 43.8703 45.86C43.6003 45.83 43.3603 46.02 43.3303 46.29C43.2903 46.55 43.4903 46.8 43.7603 46.83Z" fill="#EE4342"/>
<path d="M27.9 30.94C27.85 30.62 27.8 30.3 27.76 29.98C27.72 29.71 27.48 29.52 27.21 29.56C26.94 29.6 26.75 29.84 26.79 30.11C26.83 30.44 26.88 30.77 26.94 31.1C26.98 31.34 27.19 31.51 27.42 31.51C27.45 31.51 27.47 31.51 27.5 31.5C27.76 31.46 27.94 31.2 27.9 30.94Z" fill="#EE4342"/>
<path d="M55.5403 45.93C55.6603 45.93 55.7903 45.88 55.8803 45.79C56.1203 45.56 56.3503 45.32 56.5803 45.07C56.7603 44.87 56.7503 44.56 56.5503 44.37C56.3503 44.19 56.0403 44.2 55.8503 44.4C55.6303 44.64 55.4103 44.87 55.1803 45.09C54.9903 45.28 54.9803 45.59 55.1703 45.79C55.2803 45.88 55.4103 45.93 55.5403 45.93Z" fill="#EE4342"/>
<path d="M53.7602 46.36C53.5102 46.56 53.2502 46.75 52.9902 46.93C52.7702 47.09 52.7102 47.39 52.8702 47.62C52.9702 47.76 53.1202 47.83 53.2702 47.83C53.3702 47.83 53.4702 47.8 53.5502 47.74C53.8202 47.55 54.0902 47.35 54.3602 47.14C54.5702 46.97 54.6102 46.66 54.4402 46.45C54.2802 46.22 53.9702 46.19 53.7602 46.36Z" fill="#EE4342"/>
<path d="M56.7903 38.26C56.5503 38.12 56.2503 38.2 56.1203 38.44C55.9603 38.72 55.7903 38.99 55.6203 39.26C55.4703 39.49 55.5403 39.79 55.7703 39.94C55.8503 39.99 55.9503 40.02 56.0403 40.02C56.2003 40.02 56.3603 39.94 56.4503 39.8C56.6303 39.52 56.8103 39.23 56.9803 38.94C57.1103 38.7 57.0303 38.4 56.7903 38.26Z" fill="#EE4342"/>
<path d="M59.56 41.03C59.73 40.74 59.89 40.45 60.05 40.15C60.18 39.91 60.09 39.61 59.85 39.48C59.61 39.35 59.31 39.44 59.18 39.68C59.03 39.97 58.87 40.25 58.71 40.52C58.57 40.75 58.65 41.06 58.89 41.19C58.97 41.24 59.05 41.26 59.14 41.26C59.3 41.27 59.47 41.19 59.56 41.03Z" fill="#EE4342"/>
<path d="M53.22 42.93C53.04 42.73 52.73 42.7 52.53 42.88C52.29 43.09 52.04 43.29 51.79 43.48C51.57 43.64 51.53 43.95 51.7 44.17C51.8 44.3 51.94 44.36 52.09 44.36C52.19 44.36 52.3 44.33 52.39 44.26C52.65 44.06 52.92 43.84 53.18 43.62C53.38 43.45 53.4 43.14 53.22 42.93Z" fill="#EE4342"/>
<path d="M55.1902 40.74C54.9802 40.57 54.6702 40.6 54.5002 40.82C54.3002 41.07 54.0902 41.31 53.8802 41.55C53.7002 41.75 53.7202 42.06 53.9202 42.24C54.0102 42.32 54.1302 42.37 54.2502 42.37C54.3902 42.37 54.5202 42.31 54.6202 42.21C54.8402 41.96 55.0602 41.7 55.2702 41.44C55.4302 41.22 55.4002 40.91 55.1902 40.74Z" fill="#EE4342"/>
<path d="M51.3701 47.93C51.0901 48.08 50.8001 48.22 50.5201 48.35C50.2701 48.46 50.1601 48.75 50.2801 49C50.3601 49.18 50.5401 49.29 50.7301 49.29C50.8001 49.29 50.8701 49.28 50.9301 49.25C51.2301 49.11 51.5401 48.96 51.8401 48.8C52.0801 48.67 52.1701 48.37 52.0401 48.13C51.9101 47.89 51.6101 47.8 51.3701 47.93Z" fill="#EE4342"/>
<path d="M50.87 44.72C50.74 44.48 50.44 44.4 50.2 44.53C49.92 44.68 49.64 44.83 49.36 44.95C49.11 45.06 49 45.35 49.12 45.6C49.2 45.78 49.38 45.89 49.57 45.89C49.64 45.89 49.71 45.88 49.77 45.85C50.08 45.71 50.38 45.56 50.68 45.39C50.92 45.26 51 44.96 50.87 44.72Z" fill="#EE4342"/>
<path d="M57.8801 43.53C58.0801 43.27 58.2801 43 58.4701 42.72C58.6301 42.5 58.5701 42.19 58.3501 42.03C58.1301 41.87 57.8201 41.93 57.6601 42.15C57.4701 42.41 57.2801 42.67 57.0901 42.93C56.9201 43.15 56.9701 43.45 57.1801 43.62C57.2701 43.69 57.3701 43.72 57.4801 43.72C57.6401 43.72 57.7801 43.66 57.8801 43.53Z" fill="#EE4342"/>
<path d="M48.1901 45.93C48.1201 45.67 47.8501 45.51 47.5901 45.58C47.2901 45.66 46.9801 45.72 46.6701 45.78C46.4001 45.82 46.2201 46.08 46.2701 46.35C46.3101 46.59 46.5201 46.76 46.7501 46.76C46.7801 46.76 46.8001 46.76 46.8301 46.75C47.1701 46.69 47.5001 46.62 47.8301 46.54C48.1001 46.46 48.2601 46.2 48.1901 45.93Z" fill="#EE4342"/>
<path d="M45.9503 49.53C45.6403 49.55 45.3203 49.56 45.0003 49.56C44.7303 49.56 44.5103 49.78 44.5103 50.05C44.5103 50.32 44.7303 50.54 45.0003 50.54C45.3403 50.54 45.6803 50.53 46.0203 50.5C46.2903 50.48 46.4903 50.24 46.4803 49.97C46.4503 49.71 46.2103 49.51 45.9503 49.53Z" fill="#EE4342"/>
<path d="M48.7401 49.02C48.4401 49.11 48.1301 49.19 47.8201 49.26C47.5501 49.32 47.3901 49.58 47.4501 49.85C47.5001 50.08 47.7001 50.24 47.9301 50.24C47.9701 50.24 48.0001 50.24 48.0401 50.23C48.3701 50.16 48.7001 50.07 49.0301 49.97C49.2901 49.89 49.4401 49.62 49.3601 49.36C49.2701 49.09 49.0001 48.94 48.7401 49.02Z" fill="#EE4342"/>
<path d="M53.0703 29.62C53.0803 29.62 53.0903 29.62 53.0903 29.62C53.3503 29.62 53.5703 29.41 53.5803 29.15C53.5803 29.14 53.5803 29.13 53.5803 29.13H53.5903C53.8603 29.13 54.0803 28.91 54.0803 28.64C54.0803 28.37 53.8603 28.15 53.5903 28.15H52.6103L52.6003 28.63C52.6003 28.79 52.5903 28.95 52.5903 29.11C52.5903 29.38 52.8003 29.61 53.0703 29.62Z" fill="#EE4342"/>
<path d="M51.8501 34.55C51.9101 34.57 51.9701 34.59 52.0301 34.59C52.2301 34.59 52.4102 34.47 52.4902 34.28C52.6002 34.01 52.7002 33.74 52.7902 33.46C52.8802 33.2 52.7401 32.92 52.4801 32.84C52.2201 32.75 51.9401 32.89 51.8601 33.15C51.7701 33.41 51.6802 33.67 51.5802 33.92C51.4802 34.16 51.6001 34.45 51.8501 34.55Z" fill="#EE4342"/>
<path d="M52.67 32.14C52.7 32.15 52.74 32.15 52.77 32.15C53 32.15 53.2 31.99 53.25 31.76C53.31 31.48 53.36 31.19 53.41 30.9C53.45 30.63 53.27 30.38 53 30.34C52.73 30.3 52.48 30.48 52.44 30.75C52.4 31.02 52.35 31.29 52.29 31.56C52.24 31.82 52.41 32.08 52.67 32.14Z" fill="#EE4342"/>
<path d="M50.59 36.76C50.67 36.82 50.77 36.84 50.86 36.84C51.02 36.84 51.18 36.76 51.27 36.62C51.43 36.38 51.58 36.13 51.73 35.87C51.86 35.63 51.78 35.33 51.54 35.2C51.3 35.07 51 35.15 50.87 35.39C50.74 35.63 50.59 35.86 50.45 36.08C50.3 36.3 50.36 36.61 50.59 36.76Z" fill="#EE4342"/>
<path d="M40.4603 38.65C40.5503 38.73 40.6703 38.78 40.7903 38.78C40.9303 38.78 41.0603 38.72 41.1603 38.62C41.3403 38.42 41.3203 38.11 41.1203 37.93C40.9203 37.76 40.7303 37.57 40.5503 37.37C40.3603 37.17 40.0503 37.16 39.8503 37.34C39.6503 37.52 39.6403 37.84 39.8203 38.04C40.0303 38.24 40.2503 38.45 40.4603 38.65Z" fill="#EE4342"/>
<path d="M49.2102 38.77C49.3302 38.77 49.4402 38.73 49.5402 38.64C49.7602 38.45 49.9702 38.24 50.1802 38.01C50.3602 37.81 50.3502 37.5 50.1502 37.31C49.9502 37.13 49.6402 37.14 49.4502 37.34C49.2602 37.54 49.0702 37.73 48.8802 37.9C48.6802 38.08 48.6602 38.39 48.8402 38.59C48.9402 38.71 49.0802 38.77 49.2102 38.77Z" fill="#EE4342"/>
<path d="M44.5399 40.5C44.6899 40.51 44.8399 40.52 44.9999 40.52C45.1599 40.52 45.3099 40.51 45.4599 40.5C45.7299 40.48 45.9299 40.24 45.9099 39.97C45.8899 39.7 45.6499 39.5 45.3799 39.52C45.1199 39.54 44.8599 39.54 44.6099 39.52C44.3399 39.5 44.0999 39.7 44.0799 39.97C44.0699 40.24 44.2699 40.48 44.5399 40.5Z" fill="#EE4342"/>
<path d="M47.0702 40.12C47.1302 40.12 47.1902 40.11 47.2502 40.09C47.5302 39.98 47.8102 39.85 48.0702 39.7C48.3102 39.57 48.3902 39.27 48.2602 39.03C48.1302 38.79 47.8302 38.71 47.5902 38.84C47.3602 38.97 47.1202 39.08 46.8802 39.17C46.6302 39.27 46.5002 39.56 46.6002 39.81C46.6902 40 46.8802 40.12 47.0702 40.12Z" fill="#EE4342"/>
<path d="M38.2699 35.87C38.4199 36.13 38.5699 36.38 38.7299 36.62C38.8199 36.76 38.9799 36.84 39.1399 36.84C39.2299 36.84 39.3299 36.81 39.4099 36.76C39.6399 36.61 39.6999 36.3 39.5499 36.08C39.3999 35.86 39.2599 35.63 39.1299 35.39C38.9999 35.15 38.6999 35.07 38.4599 35.2C38.2199 35.33 38.1399 35.63 38.2699 35.87Z" fill="#EE4342"/>
<path d="M37.5199 32.84C37.2599 32.93 37.1199 33.2 37.2099 33.46C37.2999 33.74 37.3999 34.02 37.5099 34.28C37.5899 34.47 37.7699 34.59 37.9699 34.59C38.0299 34.59 38.0899 34.58 38.1499 34.55C38.3999 34.45 38.5199 34.16 38.4199 33.91C38.3199 33.66 38.2199 33.4 38.1399 33.14C38.0599 32.89 37.7799 32.75 37.5199 32.84Z" fill="#EE4342"/>
<path d="M37 30.34C36.73 30.38 36.55 30.63 36.59 30.9C36.64 31.19 36.69 31.48 36.75 31.76C36.8 32 37 32.16 37.23 32.16C37.26 32.16 37.3 32.16 37.33 32.15C37.6 32.09 37.77 31.83 37.71 31.57C37.65 31.3 37.6 31.03 37.56 30.76C37.52 30.49 37.27 30.3 37 30.34Z" fill="#EE4342"/>
<path d="M41.9299 39.7C42.1999 39.85 42.4799 39.98 42.7499 40.09C42.8099 40.11 42.8699 40.12 42.9299 40.12C43.1299 40.12 43.3099 40 43.3899 39.81C43.4899 39.56 43.3599 39.27 43.1099 39.17C42.8699 39.08 42.6299 38.96 42.3999 38.84C42.1599 38.71 41.8599 38.79 41.7299 39.03C41.6099 39.27 41.6899 39.57 41.9299 39.7Z" fill="#EE4342"/>
<path d="M36.4002 29.13H36.4102C36.4102 29.14 36.4102 29.15 36.4102 29.15C36.4202 29.41 36.6402 29.62 36.9002 29.62C36.9102 29.62 36.9202 29.62 36.9202 29.62C37.1902 29.61 37.4002 29.38 37.3902 29.11C37.3802 28.95 37.3802 28.79 37.3802 28.63L37.3702 28.15H36.4002C36.1302 28.15 35.9102 28.37 35.9102 28.64C35.9102 28.91 36.1302 29.13 36.4002 29.13Z" fill="#EE4342"/>
<path d="M34.3103 29.13H35.0003C35.2703 29.13 35.4903 28.91 35.4903 28.64C35.4903 28.37 35.2703 28.15 35.0003 28.15H34.3103C34.0403 28.15 33.8203 28.37 33.8203 28.64C33.8203 28.91 34.0403 29.13 34.3103 29.13Z" fill="#EE4342"/>
<path d="M32.2601 29.13H32.9301C33.2001 29.13 33.4201 28.91 33.4201 28.64C33.4201 28.37 33.2001 28.15 32.9301 28.15H32.2401C31.9701 28.15 31.7601 28.37 31.7601 28.64C31.7501 28.91 31.9901 29.13 32.2601 29.13Z" fill="#EE4342"/>
<path d="M25.9802 29.13H26.6702C26.9402 29.13 27.1602 28.91 27.1602 28.64C27.1602 28.37 26.9402 28.15 26.6702 28.15H25.9802C25.7102 28.15 25.4902 28.37 25.4902 28.64C25.4902 28.91 25.7102 29.13 25.9802 29.13Z" fill="#EE4342"/>
<path d="M29.8103 29C29.8103 29.02 29.8003 29.04 29.8103 29.07C29.8503 29.4 29.9003 29.73 29.9503 30.06C29.9903 30.3 30.2003 30.47 30.4403 30.47C30.4703 30.47 30.4903 30.47 30.5203 30.46C30.7903 30.42 30.9703 30.16 30.9303 29.9C30.8903 29.65 30.8503 29.39 30.8203 29.13H30.8503C31.1203 29.13 31.3403 28.91 31.3403 28.64C31.3403 28.37 31.1203 28.15 30.8503 28.15H30.1603C29.8903 28.15 29.6703 28.37 29.6703 28.64C29.6503 28.78 29.7103 28.91 29.8103 29Z" fill="#EE4342"/>
<path d="M24.1001 29.62H24.1101C24.3801 29.61 24.5901 29.39 24.5901 29.13C24.8601 29.13 25.0701 28.91 25.0701 28.64C25.0701 28.37 24.8501 28.15 24.5801 28.15H23.6001V28.65C23.6001 28.82 23.6001 28.98 23.6101 29.15C23.6201 29.41 23.8401 29.62 24.1001 29.62Z" fill="#EE4342"/>
<path d="M25.3402 34.86C25.2702 34.55 25.2002 34.23 25.1302 33.92C25.0802 33.65 24.8102 33.48 24.5502 33.54C24.2802 33.59 24.1102 33.85 24.1702 34.12C24.2402 34.45 24.3102 34.77 24.3902 35.1C24.4402 35.33 24.6502 35.48 24.8702 35.48C24.9102 35.48 24.9502 35.48 24.9902 35.47C25.2402 35.39 25.4102 35.12 25.3402 34.86Z" fill="#EE4342"/>
<path d="M24.4 32.56C24.67 32.52 24.86 32.28 24.82 32.01C24.78 31.69 24.74 31.37 24.71 31.05C24.68 30.78 24.45 30.58 24.17 30.61C23.9 30.64 23.7 30.88 23.73 31.15C23.76 31.48 23.8 31.81 23.84 32.14C23.87 32.39 24.08 32.57 24.33 32.57C24.35 32.56 24.37 32.56 24.4 32.56Z" fill="#EE4342"/>
<path d="M39.8102 51.54C39.5102 51.45 39.2002 51.34 38.9002 51.23C38.6402 51.14 38.3602 51.27 38.2702 51.52C38.1802 51.77 38.3102 52.06 38.5602 52.15C38.8802 52.27 39.1902 52.37 39.5202 52.47C39.5702 52.48 39.6202 52.49 39.6702 52.49C39.8802 52.49 40.0702 52.35 40.1402 52.14C40.2102 51.9 40.0702 51.62 39.8102 51.54Z" fill="#EE4342"/>
<path d="M42.6 52.17C42.28 52.13 41.97 52.07 41.66 52.01C41.39 51.96 41.13 52.13 41.08 52.4C41.03 52.67 41.2 52.93 41.47 52.98C41.8 53.04 42.13 53.1 42.47 53.14C42.49 53.14 42.52 53.14 42.54 53.14C42.78 53.14 42.99 52.96 43.03 52.71C43.06 52.45 42.87 52.2 42.6 52.17Z" fill="#EE4342"/>
<path d="M37.14 50.48C36.85 50.34 36.57 50.19 36.29 50.04C36.05 49.91 35.75 49.99 35.62 50.23C35.49 50.47 35.57 50.77 35.81 50.9C36.1 51.06 36.4 51.22 36.7 51.37C36.77 51.4 36.84 51.42 36.92 51.42C37.1 51.42 37.28 51.32 37.36 51.14C37.49 50.9 37.39 50.6 37.14 50.48Z" fill="#EE4342"/>
<path d="M33.8901 48.46C33.6701 48.29 33.3701 48.34 33.2001 48.55C33.0401 48.77 33.0801 49.07 33.2901 49.24C33.5601 49.44 33.8301 49.64 34.1001 49.83C34.1901 49.89 34.2801 49.92 34.3801 49.92C34.5401 49.92 34.6901 49.85 34.7901 49.71C34.9401 49.49 34.8901 49.18 34.6701 49.03C34.4001 48.85 34.1401 48.66 33.8901 48.46Z" fill="#EE4342"/>
<path d="M63.75 39.2C63.5 39.09 63.21 39.2 63.1 39.45C62.97 39.74 62.83 40.04 62.69 40.32C62.57 40.56 62.67 40.86 62.91 40.98C62.98 41.01 63.05 41.03 63.13 41.03C63.31 41.03 63.49 40.93 63.57 40.76C63.72 40.46 63.86 40.16 64 39.85C64.11 39.61 64 39.31 63.75 39.2Z" fill="#EE4342"/>
<path d="M65.4403 33.56C65.1703 33.51 64.9103 33.68 64.8603 33.94C64.8003 34.26 64.7303 34.57 64.6503 34.88C64.5903 35.14 64.7503 35.41 65.0103 35.47C65.0503 35.48 65.0903 35.48 65.1303 35.48C65.3503 35.48 65.5503 35.33 65.6103 35.1C65.6903 34.78 65.7603 34.45 65.8303 34.12C65.8803 33.88 65.7003 33.62 65.4403 33.56Z" fill="#EE4342"/>
<path d="M65.8199 30.64C65.5499 30.61 65.3099 30.81 65.2799 31.08C65.2499 31.4 65.2099 31.72 65.1699 32.04C65.1299 32.31 65.3199 32.56 65.5899 32.59C65.6099 32.59 65.6299 32.59 65.6499 32.59C65.8899 32.59 66.1099 32.41 66.1399 32.16C66.1799 31.83 66.2199 31.5 66.2499 31.17C66.2899 30.91 66.0899 30.67 65.8199 30.64Z" fill="#EE4342"/>
<path d="M31.7199 46.56C31.5299 46.37 31.2199 46.37 31.0199 46.56C30.8299 46.75 30.8299 47.06 31.0199 47.26C31.2599 47.5 31.4999 47.73 31.7399 47.96C31.8299 48.05 31.9499 48.09 32.0699 48.09C32.1999 48.09 32.3399 48.04 32.4299 47.93C32.6099 47.73 32.5999 47.42 32.3999 47.23C32.1799 47.01 31.9499 46.79 31.7199 46.56Z" fill="#EE4342"/>
<path d="M64.7499 36.43C64.4899 36.35 64.2099 36.49 64.1299 36.75C64.0299 37.06 63.9299 37.36 63.8199 37.66C63.7299 37.92 63.8599 38.2 64.1199 38.29C64.1799 38.31 64.2299 38.32 64.2899 38.32C64.4899 38.32 64.6799 38.2 64.7499 37.99C64.8599 37.68 64.9699 37.36 65.0699 37.04C65.1499 36.79 65.0099 36.51 64.7499 36.43Z" fill="#EE4342"/>
<path d="M62.4502 41.85C62.2202 41.71 61.9102 41.79 61.7802 42.02C61.6202 42.3 61.4502 42.57 61.2702 42.84C61.1202 43.07 61.1902 43.37 61.4202 43.52C61.5002 43.57 61.6002 43.6 61.6902 43.6C61.8502 43.6 62.0102 43.52 62.1002 43.38C62.2802 43.1 62.4602 42.82 62.6302 42.53C62.7602 42.29 62.6802 41.99 62.4502 41.85Z" fill="#EE4342"/>
<path d="M48.3099 52.01C47.9999 52.07 47.6799 52.12 47.3599 52.16C47.0899 52.2 46.8999 52.44 46.9399 52.71C46.9699 52.96 47.1799 53.14 47.4299 53.14C47.4499 53.14 47.4699 53.14 47.4999 53.14C47.8399 53.09 48.1699 53.04 48.4999 52.98C48.7699 52.93 48.9399 52.67 48.8899 52.4C48.8399 52.14 48.5799 51.96 48.3099 52.01Z" fill="#EE4342"/>
<path d="M56.09 48.48C55.84 48.67 55.58 48.86 55.31 49.04C55.09 49.19 55.03 49.5 55.18 49.72C55.28 49.86 55.43 49.93 55.59 49.93C55.69 49.93 55.78 49.9 55.87 49.84C56.15 49.65 56.42 49.45 56.68 49.25C56.9 49.09 56.94 48.78 56.77 48.56C56.61 48.36 56.3 48.32 56.09 48.48Z" fill="#EE4342"/>
<path d="M29.8301 44.39C29.6601 44.17 29.3601 44.13 29.1401 44.3C28.9201 44.47 28.8801 44.77 29.0501 44.99C29.2501 45.26 29.4601 45.52 29.6801 45.77C29.7801 45.89 29.9201 45.95 30.0601 45.95C30.1701 45.95 30.2801 45.91 30.3801 45.84C30.5901 45.67 30.6201 45.36 30.4401 45.15C30.2201 44.89 30.0201 44.64 29.8301 44.39Z" fill="#EE4342"/>
<path d="M53.6802 50.05C53.4002 50.2 53.1202 50.35 52.8302 50.49C52.5902 50.61 52.4802 50.9 52.6002 51.15C52.6902 51.32 52.8602 51.43 53.0402 51.43C53.1102 51.43 53.1902 51.41 53.2602 51.38C53.5602 51.23 53.8602 51.08 54.1502 50.92C54.3902 50.79 54.4702 50.49 54.3402 50.25C54.2202 50.01 53.9202 49.92 53.6802 50.05Z" fill="#EE4342"/>
<path d="M58.2502 46.58C58.0202 46.81 57.7902 47.03 57.5602 47.25C57.3602 47.43 57.3502 47.75 57.5302 47.95C57.6302 48.06 57.7602 48.11 57.8902 48.11C58.0102 48.11 58.1302 48.07 58.2202 47.98C58.4702 47.75 58.7102 47.52 58.9402 47.28C59.1302 47.09 59.1302 46.78 58.9402 46.58C58.7602 46.39 58.4502 46.39 58.2502 46.58Z" fill="#EE4342"/>
<path d="M26.1699 37.63C26.0599 37.33 25.9599 37.02 25.8599 36.72C25.7799 36.46 25.4999 36.32 25.2399 36.4C24.9799 36.48 24.8399 36.76 24.9199 37.02C25.0199 37.34 25.1299 37.66 25.2399 37.97C25.3099 38.17 25.4999 38.3 25.6999 38.3C25.7599 38.3 25.8099 38.29 25.8699 38.27C26.1299 38.17 26.2599 37.89 26.1699 37.63Z" fill="#EE4342"/>
<path d="M27.2999 40.3C27.1599 40.01 27.0199 39.72 26.8899 39.43C26.7799 39.18 26.4899 39.07 26.2399 39.18C25.9899 39.29 25.8799 39.58 25.9899 39.83C26.1299 40.14 26.2699 40.44 26.4099 40.74C26.4999 40.91 26.6699 41.02 26.8499 41.02C26.9199 41.02 26.9999 41 27.0699 40.97C27.3099 40.84 27.4199 40.54 27.2999 40.3Z" fill="#EE4342"/>
<path d="M45.4603 52.32C45.3103 52.32 45.1503 52.33 45.0003 52.33C44.8403 52.33 44.6703 52.33 44.5103 52.32C44.2403 52.3 44.0103 52.53 44.0003 52.8C43.9903 53.07 44.2103 53.3 44.4803 53.31C44.6503 53.31 44.8103 53.32 44.9803 53.32C45.1403 53.32 45.3203 53.32 45.4903 53.31C45.7603 53.3 45.9803 53.08 45.9703 52.81C45.9603 52.54 45.7203 52.31 45.4603 52.32Z" fill="#EE4342"/>
<path d="M60.1501 44.41C59.9501 44.67 59.7501 44.92 59.5501 45.16C59.3801 45.37 59.4001 45.68 59.6101 45.85C59.7001 45.93 59.8101 45.96 59.9301 45.96C60.0701 45.96 60.2101 45.9 60.3101 45.78C60.5201 45.52 60.7301 45.26 60.9401 45C61.1101 44.78 61.0701 44.48 60.8501 44.31C60.6301 44.16 60.3201 44.2 60.1501 44.41Z" fill="#EE4342"/>
<path d="M51.0701 51.25C50.7701 51.36 50.4701 51.46 50.1601 51.56C49.9001 51.64 49.7501 51.92 49.8301 52.18C49.9001 52.39 50.0901 52.53 50.3001 52.53C50.3501 52.53 50.4001 52.52 50.4401 52.51C50.7601 52.41 51.0801 52.3 51.4001 52.19C51.6601 52.1 51.7901 51.81 51.6901 51.56C51.6101 51.28 51.3301 51.15 51.0701 51.25Z" fill="#EE4342"/>
<path d="M28.21 41.99C28.07 41.76 27.77 41.68 27.54 41.82C27.31 41.96 27.23 42.26 27.37 42.49C27.54 42.78 27.72 43.06 27.9 43.34C27.99 43.49 28.15 43.57 28.31 43.57C28.4 43.57 28.49 43.54 28.58 43.49C28.81 43.34 28.87 43.04 28.73 42.81C28.54 42.54 28.38 42.27 28.21 41.99Z" fill="#EE4342"/>
<path d="M65.4099 28.15C65.1399 28.15 64.9199 28.37 64.9199 28.64C64.9199 28.91 65.1399 29.13 65.3999 29.13C65.3999 29.4 65.6099 29.62 65.8799 29.62H65.8899C66.1599 29.62 66.3799 29.41 66.3799 29.14C66.3799 28.97 66.3899 28.81 66.3899 28.64V28.14H65.4099V28.15Z" fill="#EE4342"/>
<path d="M59.1599 29.13H59.8499C59.8699 29.13 59.8799 29.12 59.8999 29.12C59.9199 29.12 59.9299 29.13 59.9499 29.13H60.9299C60.9799 29.13 61.0299 29.12 61.0799 29.1C61.1299 29.12 61.1799 29.13 61.2299 29.13H61.9199C62.1099 29.13 62.2799 29.01 62.3599 28.85C62.3399 29.09 62.3099 29.33 62.2799 29.57C62.2499 29.84 62.4399 30.09 62.7099 30.12C62.7299 30.12 62.7499 30.12 62.7699 30.12C63.0199 30.12 63.2299 29.94 63.2599 29.69C63.2799 29.5 63.2999 29.32 63.3199 29.13H63.9999C64.2699 29.13 64.4899 28.91 64.4899 28.64C64.4899 28.37 64.2699 28.15 63.9999 28.15H63.3099C63.2199 28.15 63.1499 28.18 63.0799 28.22C63.0299 28.2 62.9799 28.18 62.9199 28.17C62.6599 28.15 62.4399 28.33 62.3999 28.57C62.3599 28.33 62.1699 28.15 61.9199 28.15H61.2299C61.1799 28.15 61.1299 28.16 61.0799 28.18C61.0299 28.16 60.9799 28.15 60.9299 28.15H59.9499C59.9299 28.15 59.9199 28.16 59.8999 28.16C59.8799 28.16 59.8699 28.15 59.8499 28.15H59.1599C58.8899 28.15 58.6699 28.37 58.6699 28.64C58.6699 28.91 58.8899 29.13 59.1599 29.13Z" fill="#EE4342"/>
<path d="M57.0802 29.13H57.7702C58.0402 29.13 58.2602 28.91 58.2602 28.64C58.2602 28.37 58.0402 28.15 57.7702 28.15H57.0802C56.8102 28.15 56.5902 28.37 56.5902 28.64C56.5802 28.91 56.8002 29.13 57.0802 29.13Z" fill="#EE4342"/>
<path d="M54.99 29.13H55.68C55.95 29.13 56.17 28.91 56.17 28.64C56.17 28.37 55.95 28.15 55.68 28.15H54.99C54.72 28.15 54.5 28.37 54.5 28.64C54.5 28.91 54.72 29.13 54.99 29.13Z" fill="#EE4342"/>
<path d="M36.3801 51.33C39.2741 51.33 41.6201 48.984 41.6201 46.09C41.6201 43.1961 39.2741 40.85 36.3801 40.85C33.4862 40.85 31.1401 43.1961 31.1401 46.09C31.1401 48.984 33.4862 51.33 36.3801 51.33Z" fill="#FFC040"/>
<path d="M35.7599 52.27C35.7199 52.27 35.6799 52.27 35.6399 52.26C35.2499 52.21 34.8699 52.13 34.4999 52.01C33.9799 51.85 33.6999 51.29 33.8599 50.77C33.8699 50.75 33.8799 50.72 33.8899 50.7C33.8799 50.72 33.8599 50.74 33.8399 50.76C33.4999 51.18 32.8799 51.24 32.4599 50.9C32.1599 50.65 31.8799 50.38 31.6299 50.08C31.2799 49.66 31.3299 49.04 31.7499 48.69C31.7699 48.67 31.7899 48.66 31.8099 48.64C31.7899 48.65 31.7599 48.66 31.7399 48.67C31.2299 48.84 30.6699 48.57 30.4899 48.05C30.3699 47.68 30.2799 47.3 30.2199 46.91C30.1499 46.37 30.5199 45.88 31.0599 45.8C31.0799 45.8 31.1099 45.79 31.1299 45.79C31.1099 45.79 31.0799 45.78 31.0599 45.78C30.5299 45.65 30.2099 45.12 30.3399 44.59C30.4299 44.21 30.5599 43.84 30.7199 43.49C30.9499 42.99 31.5299 42.78 32.0199 43C32.0399 43.01 32.0699 43.02 32.0899 43.03C32.0699 43.01 32.0499 43 32.0399 42.98C31.6599 42.59 31.6699 41.97 32.0599 41.59C32.3399 41.32 32.6499 41.07 32.9699 40.86C33.4199 40.56 34.0299 40.69 34.3299 41.14C34.3399 41.16 34.3599 41.18 34.3699 41.2C34.3599 41.18 34.3599 41.15 34.3499 41.13C34.2399 40.6 34.5799 40.08 35.1099 39.97C35.4899 39.89 35.8799 39.85 36.2699 39.84C36.2799 39.84 36.2799 39.84 36.2899 39.84C36.8299 39.84 37.2599 40.27 37.2699 40.81C37.2699 40.84 37.2699 40.86 37.2699 40.89C37.2799 40.86 37.2899 40.84 37.2899 40.81C37.4799 40.3 38.0499 40.04 38.5599 40.23C38.9199 40.37 39.2799 40.54 39.6099 40.74C40.0699 41.02 40.2199 41.63 39.9399 42.09C39.9299 42.11 39.9099 42.13 39.8999 42.15C39.9199 42.13 39.9399 42.12 39.9599 42.1C40.3899 41.77 41.0099 41.85 41.3399 42.29C41.5799 42.6 41.7799 42.93 41.9599 43.28C42.1999 43.77 41.9999 44.36 41.5199 44.6C41.4999 44.61 41.4699 44.62 41.4499 44.63C41.4699 44.63 41.4999 44.62 41.5199 44.62C42.0599 44.57 42.5399 44.98 42.5799 45.52C42.5899 45.7 42.5999 45.87 42.5999 46.05C42.5999 46.44 42.5599 46.83 42.4899 47.21C42.3899 47.74 41.8699 48.09 41.3399 47.99C41.3099 47.99 41.2899 47.98 41.2699 47.97C41.2899 47.98 41.3099 47.99 41.3399 48.01C41.7999 48.3 41.9399 48.91 41.6499 49.37C41.4399 49.7 41.1999 50.01 40.9399 50.29C40.5699 50.69 39.9499 50.71 39.5499 50.34C39.5299 50.32 39.5099 50.3 39.4999 50.29C39.5099 50.31 39.5199 50.33 39.5399 50.36C39.7699 50.85 39.5699 51.44 39.0699 51.67C38.7199 51.84 38.3499 51.97 37.9699 52.07C37.4499 52.21 36.9099 51.89 36.7699 51.37C36.7599 51.35 36.7599 51.32 36.7499 51.3C36.7499 51.32 36.7499 51.35 36.7399 51.37C36.6699 51.91 36.2499 52.27 35.7599 52.27ZM34.7999 50.1C34.8999 50.1 34.9999 50.11 35.0999 50.15C35.3499 50.23 35.6099 50.29 35.8799 50.32C36.3199 50.37 36.6599 50.71 36.7299 51.12C36.7499 50.7 37.0399 50.32 37.4599 50.21C37.7199 50.14 37.9699 50.05 38.2099 49.94C38.6099 49.75 39.0699 49.85 39.3599 50.16C39.1499 49.79 39.1899 49.32 39.4999 49C39.6799 48.81 39.8499 48.59 39.9899 48.37C40.2299 48 40.6699 47.84 41.0799 47.95C40.7099 47.75 40.4899 47.33 40.5699 46.9C40.6199 46.64 40.6399 46.37 40.6399 46.1C40.6399 45.98 40.6299 45.85 40.6199 45.73C40.5799 45.29 40.8399 44.89 41.2299 44.74C40.8199 44.81 40.3899 44.6 40.1899 44.21C40.0699 43.97 39.9299 43.74 39.7699 43.53C39.4999 43.18 39.5099 42.7 39.7499 42.36C39.4399 42.64 38.9599 42.69 38.5899 42.46C38.3599 42.32 38.1199 42.2 37.8699 42.11C37.4599 41.95 37.2099 41.55 37.2299 41.13C37.1099 41.54 36.7399 41.84 36.2999 41.84C36.0299 41.84 35.7699 41.87 35.5099 41.93C35.0799 42.02 34.6499 41.81 34.4499 41.44C34.5699 41.84 34.4099 42.29 34.0399 42.54C33.8199 42.69 33.6099 42.85 33.4199 43.04C33.0999 43.35 32.6299 43.4 32.2599 43.2C32.5699 43.48 32.6799 43.94 32.4999 44.34C32.3899 44.58 32.2999 44.83 32.2399 45.09C32.1399 45.52 31.7599 45.81 31.3399 45.84C31.7599 45.91 32.0999 46.24 32.1599 46.68C32.1999 46.94 32.2599 47.2 32.3399 47.46C32.4799 47.88 32.3199 48.32 31.9899 48.57C32.3799 48.41 32.8399 48.51 33.1299 48.84C33.2999 49.04 33.4899 49.23 33.6999 49.4C34.0399 49.68 34.1499 50.14 33.9899 50.53C34.1699 50.26 34.4699 50.1 34.7999 50.1Z" fill="#FFC040"/>
<path d="M36.3902 51.0501C36.1402 51.0601 35.8602 51.0301 35.6002 50.9901C35.0602 50.9001 34.7002 50.4001 34.7802 49.8601C34.7902 49.8301 34.7902 49.7901 34.8002 49.7601C34.7802 49.7901 34.7602 49.8201 34.7402 49.8401C34.4102 50.2701 33.7902 50.3501 33.3602 50.0201C33.0402 49.7701 32.7402 49.4801 32.4902 49.1601C32.1502 48.7301 32.2202 48.1201 32.6502 47.7801C32.6802 47.7601 32.7002 47.7401 32.7302 47.7201C32.7002 47.7301 32.6602 47.7401 32.6302 47.7401C32.0902 47.8401 31.5802 47.4801 31.4902 46.9401C31.4402 46.6501 31.4102 46.3601 31.4102 46.0701C31.4102 45.9501 31.4102 45.8401 31.4202 45.7201C31.4602 45.1801 31.9302 44.7701 32.4702 44.8101C32.5002 44.8101 32.5402 44.8201 32.5702 44.8201C32.5402 44.8101 32.5102 44.7901 32.4802 44.7701C32.0202 44.4801 31.8802 43.8701 32.1802 43.4101C32.4002 43.0601 32.6602 42.7501 32.9602 42.4601C33.3502 42.0901 33.9802 42.1001 34.3502 42.5001C34.3702 42.5201 34.4002 42.5501 34.4202 42.5801C34.4102 42.5501 34.4002 42.5201 34.3902 42.4801C34.2502 41.9601 34.5602 41.4101 35.0802 41.2701C35.4702 41.1601 35.8802 41.1101 36.2902 41.1001C36.8502 41.0701 37.2802 41.5201 37.2902 42.0701C37.2902 42.1001 37.2902 42.1401 37.2902 42.1701C37.3002 42.1401 37.3202 42.1101 37.3302 42.0801C37.5802 41.6001 38.1702 41.4101 38.6602 41.6601C39.0202 41.8501 39.3602 42.0801 39.6702 42.3501C40.0802 42.7101 40.1202 43.3301 39.7602 43.7401C39.7402 43.7701 39.7102 43.7901 39.6902 43.8101C39.7202 43.8001 39.7502 43.7801 39.7802 43.7701C40.2902 43.5801 40.8602 43.8401 41.0402 44.3501C41.1802 44.7301 41.2802 45.1401 41.3202 45.5401C41.3302 45.6301 41.3302 45.7201 41.3102 45.8101C41.3302 45.8901 41.3502 45.9801 41.3502 46.0701C41.3502 46.4801 41.3002 46.8901 41.2002 47.2801C41.0702 47.8101 40.5302 48.1301 40.0102 47.9901C39.9802 47.9801 39.9502 47.9701 39.9102 47.9601C39.9402 47.9801 39.9602 48.0001 39.9902 48.0201C40.3902 48.3901 40.4202 49.0101 40.0502 49.4101C39.7702 49.7101 39.4602 49.9801 39.1202 50.2001C38.6702 50.5001 38.0602 50.3701 37.7602 49.9201C37.7402 49.8901 37.7202 49.8601 37.7102 49.8301C37.7202 49.8601 37.7202 49.9001 37.7202 49.9301C37.7702 50.4701 37.3702 50.9501 36.8202 51.0001C36.6802 51.0501 36.5302 51.0501 36.3902 51.0501ZM36.7302 49.0701C37.1002 49.0701 37.4402 49.2801 37.6002 49.6001C37.5302 49.2201 37.6802 48.8201 38.0202 48.5901C38.2302 48.4501 38.4102 48.2901 38.5802 48.1101C38.8602 47.8101 39.2802 47.7201 39.6402 47.8501C39.3302 47.6201 39.1702 47.2201 39.2702 46.8201C39.3302 46.5801 39.3602 46.3401 39.3602 46.0901C39.3602 46.0301 39.3602 45.9801 39.3702 45.9301C39.3602 45.8801 39.3502 45.8301 39.3402 45.7701C39.3102 45.5201 39.2602 45.2801 39.1702 45.0501C39.0302 44.6701 39.1402 44.2501 39.4202 43.9901C39.0702 44.1601 38.6402 44.1201 38.3402 43.8401C38.1502 43.6801 37.9502 43.5401 37.7302 43.4201C37.3702 43.2301 37.1702 42.8501 37.2002 42.4701C37.0602 42.8301 36.7102 43.0901 36.3002 43.0901C36.0502 43.0901 35.8002 43.1301 35.5702 43.1901C35.1702 43.3001 34.7702 43.1501 34.5302 42.8401C34.6702 43.2001 34.5902 43.6301 34.2902 43.9101C34.1102 44.0801 33.9502 44.2701 33.8202 44.4801C33.6002 44.8301 33.2002 44.9901 32.8202 44.9201C33.1602 45.0901 33.3902 45.4601 33.3602 45.8701C33.3602 45.9401 33.3502 46.0101 33.3502 46.0801C33.3502 46.2601 33.3702 46.4401 33.4002 46.6101C33.4702 47.0101 33.2902 47.4001 32.9602 47.6101C33.3302 47.5001 33.7502 47.6201 34.0002 47.9401C34.1502 48.1301 34.3302 48.3101 34.5302 48.4601C34.8502 48.7101 34.9802 49.1201 34.8802 49.4901C35.0802 49.1601 35.4702 48.9701 35.8702 49.0301C36.0302 49.0501 36.1702 49.0701 36.3502 49.0701C36.4402 49.0701 36.5302 49.0701 36.6102 49.0601C36.6802 49.0701 36.7102 49.0701 36.7302 49.0701Z" fill="white"/>
<path d="M36.3797 48.0001C37.4346 48.0001 38.2897 47.1449 38.2897 46.0901C38.2897 45.0352 37.4346 44.1801 36.3797 44.1801C35.3249 44.1801 34.4697 45.0352 34.4697 46.0901C34.4697 47.1449 35.3249 48.0001 36.3797 48.0001Z" fill="white"/>
<path d="M53.9002 51.33C56.7941 51.33 59.1402 48.984 59.1402 46.09C59.1402 43.1961 56.7941 40.85 53.9002 40.85C51.0062 40.85 48.6602 43.1961 48.6602 46.09C48.6602 48.984 51.0062 51.33 53.9002 51.33Z" fill="#FFC040"/>
<path d="M53.2799 52.27C53.2399 52.27 53.1999 52.27 53.1599 52.26C52.7699 52.21 52.3899 52.13 52.0199 52.01C51.4999 51.85 51.2199 51.29 51.3799 50.77C51.3899 50.75 51.3999 50.72 51.4099 50.7C51.3999 50.72 51.3799 50.74 51.3599 50.76C51.0199 51.18 50.3999 51.24 49.9799 50.9C49.6799 50.65 49.3999 50.38 49.1499 50.08C48.7999 49.66 48.8499 49.04 49.2699 48.69C49.2899 48.67 49.3099 48.66 49.3299 48.64C49.3099 48.65 49.2799 48.66 49.2599 48.67C48.7499 48.84 48.1899 48.57 48.0099 48.05C47.8899 47.68 47.7999 47.3 47.7399 46.91C47.6699 46.37 48.0399 45.88 48.5799 45.8C48.5999 45.8 48.6299 45.79 48.6499 45.79C48.6299 45.79 48.5999 45.78 48.5799 45.78C48.0499 45.65 47.7299 45.12 47.8599 44.59C47.9499 44.21 48.0799 43.84 48.2399 43.49C48.4699 42.99 49.0499 42.78 49.5399 43C49.5599 43.01 49.5899 43.02 49.6099 43.03C49.5899 43.01 49.5699 43 49.5599 42.98C49.1799 42.59 49.1899 41.97 49.5799 41.59C49.8599 41.32 50.1699 41.07 50.4899 40.86C50.9399 40.56 51.5499 40.69 51.8499 41.14C51.8599 41.16 51.8799 41.18 51.8899 41.2C51.8799 41.18 51.8799 41.15 51.8699 41.13C51.7599 40.6 52.0999 40.08 52.6299 39.97C53.0099 39.89 53.3999 39.85 53.7899 39.84C53.7999 39.84 53.7999 39.84 53.8099 39.84C54.3499 39.84 54.7799 40.27 54.7899 40.81C54.7899 40.84 54.7899 40.86 54.7899 40.89C54.7999 40.86 54.8099 40.84 54.8099 40.81C54.9999 40.3 55.5699 40.04 56.0799 40.23C56.4399 40.37 56.7999 40.54 57.1299 40.74C57.5899 41.02 57.7399 41.63 57.4599 42.09C57.4499 42.11 57.4299 42.13 57.4199 42.15C57.4399 42.13 57.4599 42.12 57.4799 42.1C57.9099 41.77 58.5299 41.85 58.8599 42.29C59.0999 42.6 59.2999 42.93 59.4799 43.28C59.7199 43.77 59.5199 44.36 59.0399 44.6C59.0199 44.61 58.9899 44.62 58.9699 44.63C58.9899 44.63 59.0199 44.62 59.0399 44.62C59.5799 44.57 60.0599 44.98 60.0999 45.52C60.1099 45.7 60.1199 45.87 60.1199 46.05C60.1199 46.44 60.0799 46.83 60.0099 47.21C59.9099 47.74 59.3899 48.09 58.8599 47.99C58.8299 47.99 58.8099 47.98 58.7899 47.97C58.8099 47.98 58.8299 47.99 58.8599 48.01C59.3199 48.3 59.4599 48.91 59.1699 49.37C58.9599 49.7 58.7199 50.01 58.4599 50.29C58.0899 50.69 57.4699 50.71 57.0699 50.34C57.0499 50.32 57.0299 50.3 57.0199 50.29C57.0299 50.31 57.0399 50.33 57.0599 50.36C57.2899 50.85 57.0899 51.44 56.5899 51.67C56.2399 51.84 55.8699 51.97 55.4899 52.07C54.9699 52.21 54.4299 51.89 54.2899 51.37C54.2799 51.35 54.2799 51.32 54.2699 51.3C54.2699 51.32 54.2699 51.35 54.2599 51.37C54.1899 51.91 53.7699 52.27 53.2799 52.27ZM52.3199 50.1C52.4199 50.1 52.5199 50.11 52.6199 50.15C52.8699 50.23 53.1299 50.29 53.3999 50.32C53.8399 50.37 54.1799 50.71 54.2499 51.12C54.2699 50.7 54.5599 50.32 54.9799 50.21C55.2399 50.14 55.4899 50.05 55.7299 49.94C56.1299 49.75 56.5899 49.85 56.8799 50.16C56.6699 49.79 56.7099 49.32 57.0199 49C57.1999 48.81 57.3699 48.59 57.5099 48.37C57.7499 48 58.1899 47.84 58.5999 47.95C58.2299 47.75 58.0099 47.33 58.0899 46.9C58.1399 46.64 58.1599 46.37 58.1599 46.1C58.1599 45.98 58.1499 45.85 58.1399 45.73C58.0999 45.29 58.3599 44.89 58.7499 44.74C58.3399 44.81 57.9099 44.6 57.7099 44.21C57.5899 43.97 57.4499 43.74 57.2899 43.53C57.0199 43.18 57.0299 42.7 57.2699 42.36C56.9599 42.64 56.4799 42.69 56.1099 42.46C55.8799 42.32 55.6399 42.2 55.3899 42.11C54.9799 41.95 54.7299 41.55 54.7499 41.13C54.6299 41.54 54.2599 41.84 53.8199 41.84C53.5499 41.84 53.2899 41.87 53.0299 41.93C52.5999 42.02 52.1699 41.81 51.9699 41.44C52.0899 41.84 51.9299 42.29 51.5599 42.54C51.3399 42.69 51.1299 42.85 50.9399 43.04C50.6199 43.35 50.1499 43.4 49.7799 43.2C50.0899 43.48 50.1999 43.94 50.0199 44.34C49.9099 44.58 49.8199 44.83 49.7599 45.09C49.6599 45.52 49.2799 45.81 48.8599 45.84C49.2799 45.91 49.6199 46.24 49.6799 46.68C49.7199 46.94 49.7799 47.2 49.8599 47.46C49.9999 47.88 49.8399 48.32 49.5099 48.57C49.8999 48.41 50.3599 48.51 50.6499 48.84C50.8199 49.04 51.0099 49.23 51.2199 49.4C51.5599 49.68 51.6699 50.14 51.5099 50.53C51.6899 50.26 51.9899 50.1 52.3199 50.1Z" fill="#FFC040"/>
<path d="M53.9102 51.0501C53.6602 51.0601 53.3802 51.0301 53.1202 50.9901C52.5802 50.9001 52.2202 50.4001 52.3002 49.8601C52.3102 49.8301 52.3102 49.7901 52.3202 49.7601C52.3002 49.7901 52.2802 49.8201 52.2602 49.8401C51.9302 50.2701 51.3102 50.3501 50.8802 50.0201C50.5602 49.7701 50.2602 49.4801 50.0102 49.1601C49.6702 48.7301 49.7402 48.1201 50.1702 47.7801C50.2002 47.7601 50.2202 47.7401 50.2502 47.7201C50.2202 47.7301 50.1802 47.7401 50.1502 47.7401C49.6102 47.8401 49.1002 47.4801 49.0102 46.9401C48.9602 46.6501 48.9302 46.3601 48.9302 46.0701C48.9302 45.9501 48.9302 45.8401 48.9402 45.7201C48.9802 45.1801 49.4502 44.7701 49.9902 44.8101C50.0202 44.8101 50.0602 44.8201 50.0902 44.8201C50.0602 44.8101 50.0302 44.7901 50.0002 44.7701C49.5402 44.4801 49.4002 43.8701 49.7002 43.4101C49.9202 43.0601 50.1802 42.7501 50.4802 42.4601C50.8702 42.0901 51.5002 42.1001 51.8702 42.5001C51.8902 42.5201 51.9202 42.5501 51.9402 42.5801C51.9302 42.5501 51.9202 42.5201 51.9102 42.4801C51.7702 41.9601 52.0802 41.4101 52.6002 41.2701C52.9902 41.1601 53.4002 41.1101 53.8102 41.1001C54.3702 41.0701 54.8002 41.5201 54.8102 42.0701C54.8102 42.1001 54.8102 42.1401 54.8102 42.1701C54.8202 42.1401 54.8402 42.1101 54.8502 42.0801C55.1002 41.6001 55.6902 41.4101 56.1802 41.6601C56.5402 41.8501 56.8802 42.0801 57.1902 42.3501C57.6002 42.7101 57.6402 43.3301 57.2802 43.7401C57.2602 43.7701 57.2302 43.7901 57.2102 43.8101C57.2402 43.8001 57.2702 43.7801 57.3002 43.7701C57.8102 43.5801 58.3802 43.8401 58.5602 44.3501C58.7002 44.7301 58.8002 45.1401 58.8402 45.5401C58.8502 45.6301 58.8502 45.7201 58.8302 45.8101C58.8502 45.8901 58.8702 45.9801 58.8702 46.0701C58.8702 46.4801 58.8202 46.8901 58.7202 47.2801C58.5902 47.8101 58.0502 48.1301 57.5302 47.9901C57.5002 47.9801 57.4702 47.9701 57.4302 47.9601C57.4602 47.9801 57.4802 48.0001 57.5102 48.0201C57.9102 48.3901 57.9402 49.0101 57.5702 49.4101C57.2902 49.7101 56.9802 49.9801 56.6402 50.2001C56.1902 50.5001 55.5802 50.3701 55.2802 49.9201C55.2602 49.8901 55.2402 49.8601 55.2302 49.8301C55.2402 49.8601 55.2402 49.9001 55.2402 49.9301C55.2902 50.4701 54.8902 50.9501 54.3402 51.0001C54.2002 51.0501 54.0502 51.0501 53.9102 51.0501ZM54.2502 49.0701C54.6202 49.0701 54.9602 49.2801 55.1202 49.6001C55.0502 49.2201 55.2002 48.8201 55.5402 48.5901C55.7502 48.4501 55.9302 48.2901 56.1002 48.1101C56.3802 47.8101 56.8002 47.7201 57.1602 47.8501C56.8502 47.6201 56.6902 47.2201 56.7902 46.8201C56.8502 46.5801 56.8802 46.3401 56.8802 46.0901C56.8802 46.0301 56.8802 45.9801 56.8902 45.9301C56.8802 45.8801 56.8702 45.8301 56.8602 45.7701C56.8302 45.5201 56.7802 45.2801 56.6902 45.0501C56.5502 44.6701 56.6602 44.2501 56.9402 43.9901C56.5902 44.1601 56.1602 44.1201 55.8602 43.8401C55.6702 43.6801 55.4702 43.5401 55.2502 43.4201C54.8902 43.2301 54.6902 42.8501 54.7202 42.4701C54.5802 42.8301 54.2302 43.0901 53.8202 43.0901C53.5702 43.0901 53.3202 43.1301 53.0902 43.1901C52.6902 43.3001 52.2902 43.1501 52.0502 42.8401C52.1902 43.2001 52.1102 43.6301 51.8102 43.9101C51.6302 44.0801 51.4702 44.2701 51.3402 44.4801C51.1202 44.8301 50.7202 44.9901 50.3402 44.9201C50.6802 45.0901 50.9102 45.4601 50.8802 45.8701C50.8802 45.9401 50.8702 46.0101 50.8702 46.0801C50.8702 46.2601 50.8902 46.4401 50.9202 46.6101C50.9902 47.0101 50.8102 47.4001 50.4802 47.6101C50.8502 47.5001 51.2702 47.6201 51.5202 47.9401C51.6702 48.1301 51.8502 48.3101 52.0502 48.4601C52.3702 48.7101 52.5002 49.1201 52.4002 49.4901C52.6002 49.1601 52.9902 48.9701 53.3902 49.0301C53.5502 49.0501 53.6902 49.0701 53.8702 49.0701C53.9602 49.0701 54.0502 49.0701 54.1302 49.0601C54.2002 49.0701 54.2302 49.0701 54.2502 49.0701Z" fill="white"/>
<path d="M53.8997 48.0001C54.9546 48.0001 55.8097 47.1449 55.8097 46.0901C55.8097 45.0352 54.9546 44.1801 53.8997 44.1801C52.8449 44.1801 51.9897 45.0352 51.9897 46.0901C51.9897 47.1449 52.8449 48.0001 53.8997 48.0001Z" fill="white"/>
<path d="M45.1198 60.87C49.5988 60.87 53.2298 57.239 53.2298 52.76C53.2298 48.281 49.5988 44.65 45.1198 44.65C40.6407 44.65 37.0098 48.281 37.0098 52.76C37.0098 57.239 40.6407 60.87 45.1198 60.87Z" fill="#BD502F"/>
<path d="M45.1199 61.85H45.0499C44.5099 61.84 44.0699 61.4 44.0799 60.85C44.0799 60.84 44.0799 60.82 44.0799 60.81C44.0799 60.83 44.0699 60.84 44.0699 60.86C43.9399 61.39 43.3999 61.71 42.8699 61.57C42.5099 61.48 42.1599 61.37 41.8199 61.23C41.3099 61.03 41.0599 60.46 41.2599 59.96C41.2699 59.95 41.2699 59.93 41.2799 59.92C41.2699 59.93 41.2599 59.95 41.2499 59.96C40.9399 60.4 40.3199 60.51 39.8799 60.2C39.5799 59.99 39.2899 59.76 39.0199 59.51C38.6199 59.15 38.5899 58.52 38.9499 58.12C38.9599 58.11 38.9699 58.1 38.9799 58.08C38.9699 58.09 38.9499 58.1 38.9399 58.11C38.4899 58.41 37.8799 58.29 37.5699 57.84C37.3599 57.54 37.1799 57.22 37.0099 56.89C36.7599 56.41 36.9599 55.81 37.4399 55.57C37.4499 55.56 37.4699 55.56 37.4799 55.55C37.4599 55.55 37.4499 55.56 37.4299 55.56C36.8999 55.68 36.3699 55.35 36.2499 54.82C36.1699 54.46 36.1099 54.1 36.0699 53.73C36.0099 53.19 36.4099 52.7 36.9499 52.65C36.9599 52.65 36.9799 52.65 36.9899 52.65C36.9799 52.65 36.9599 52.65 36.9499 52.64C36.4099 52.57 36.0299 52.07 36.1099 51.53C36.1599 51.17 36.2299 50.8 36.3199 50.45C36.4599 49.92 36.9899 49.61 37.5199 49.75C37.5399 49.75 37.5499 49.76 37.5699 49.76C37.5499 49.75 37.5399 49.74 37.5199 49.74C37.0399 49.48 36.8699 48.88 37.1299 48.4C37.3099 48.08 37.4999 47.77 37.7199 47.47C38.0399 47.03 38.6499 46.93 39.0899 47.24C39.0999 47.25 39.1199 47.26 39.1299 47.27C39.1199 47.26 39.1099 47.25 39.0999 47.23C38.7499 46.82 38.7999 46.2 39.2099 45.84C39.4899 45.6 39.7799 45.38 40.0899 45.18C40.5399 44.88 41.1499 45 41.4499 45.46C41.4599 45.47 41.4699 45.49 41.4799 45.5C41.4699 45.48 41.4699 45.47 41.4599 45.45C41.2799 44.94 41.5399 44.37 42.0599 44.19C42.4099 44.07 42.7599 43.96 43.1199 43.88C43.6499 43.76 44.1799 44.09 44.2999 44.63C44.2999 44.65 44.3099 44.66 44.3099 44.68C44.3099 44.66 44.3099 44.65 44.3099 44.63C44.3199 44.09 44.7799 43.65 45.3099 43.67C45.6799 43.68 46.0499 43.71 46.4099 43.76C46.9499 43.84 47.3199 44.34 47.2499 44.87C47.2499 44.89 47.2399 44.91 47.2399 44.92C47.2499 44.9 47.2499 44.89 47.2599 44.87C47.4599 44.37 48.0399 44.12 48.5399 44.33C48.8799 44.47 49.2099 44.63 49.5399 44.81C50.0099 45.07 50.1899 45.67 49.9199 46.15C49.9099 46.16 49.8999 46.18 49.8999 46.19C49.9099 46.18 49.9199 46.17 49.9299 46.16C50.2999 45.76 50.9199 45.74 51.3199 46.11C51.5899 46.36 51.8399 46.63 52.0799 46.91C52.4299 47.33 52.3799 47.95 51.9599 48.3C51.9499 48.31 51.9399 48.32 51.9199 48.33C51.9299 48.32 51.9499 48.32 51.9599 48.31C52.4499 48.07 53.0399 48.27 53.2799 48.76C53.4399 49.09 53.5899 49.43 53.7099 49.78C53.8899 50.29 53.6199 50.85 53.0999 51.03C53.0899 51.03 53.0699 51.04 53.0599 51.04C53.0699 51.04 53.0899 51.04 53.1099 51.03C53.6499 50.98 54.1299 51.38 54.1799 51.92C54.1999 52.2 54.2199 52.48 54.2199 52.76C54.2199 53.13 54.1999 53.5 54.1499 53.86C54.0799 54.4 53.5899 54.79 53.0499 54.72C53.0299 54.72 53.0199 54.72 52.9999 54.71C53.0199 54.72 53.0299 54.72 53.0499 54.73C53.5599 54.92 53.8099 55.49 53.6199 56C53.4899 56.34 53.3399 56.68 53.1599 57C52.9099 57.48 52.3099 57.66 51.8299 57.41C51.8099 57.4 51.7999 57.39 51.7799 57.38C51.7899 57.39 51.8099 57.4 51.8199 57.41C52.2299 57.77 52.2599 58.39 51.8999 58.8C51.6599 59.07 51.3899 59.33 51.1199 59.58C50.7099 59.94 50.0899 59.9 49.7299 59.49C49.7199 59.48 49.7099 59.47 49.6999 59.46C49.7099 59.47 49.7099 59.49 49.7199 59.5C49.9699 59.98 49.7799 60.58 49.2999 60.83C48.9699 61 48.6299 61.15 48.2899 61.28C47.7799 61.47 47.2099 61.21 47.0199 60.7C47.0799 61.24 46.6899 61.73 46.1499 61.79C45.8099 61.83 45.4699 61.85 45.1199 61.85ZM42.1799 59.33C42.2999 59.33 42.4199 59.35 42.5399 59.4C42.8099 59.5 43.0799 59.59 43.3599 59.66C43.8199 59.78 44.1299 60.21 44.0999 60.67C44.1899 60.22 44.5799 59.86 45.0799 59.88C45.0799 59.88 45.0799 59.88 45.0899 59.88C45.3999 59.88 45.6799 59.86 45.9399 59.83C46.4199 59.77 46.8499 60.07 46.9899 60.5C46.9199 60.05 47.1699 59.59 47.6199 59.43C47.8899 59.33 48.1499 59.21 48.4099 59.08C48.8299 58.86 49.3399 58.98 49.6299 59.33C49.3999 58.93 49.4799 58.42 49.8299 58.1C50.0499 57.91 50.2499 57.71 50.4399 57.49C50.7599 57.13 51.2799 57.06 51.6799 57.3C51.3199 57.01 51.1999 56.5 51.4299 56.07C51.5599 55.81 51.6799 55.55 51.7899 55.28C51.9599 54.83 52.4199 54.58 52.8799 54.66C52.4399 54.52 52.1499 54.08 52.2099 53.61C52.2399 53.32 52.2599 53.03 52.2599 52.75C52.2599 52.53 52.2499 52.31 52.2299 52.09C52.1899 51.62 52.4899 51.19 52.9299 51.06C52.4699 51.12 52.0299 50.86 51.8699 50.41C51.7799 50.14 51.6599 49.87 51.5399 49.61C51.3299 49.18 51.4599 48.67 51.8199 48.4C51.4199 48.62 50.8999 48.54 50.5899 48.17C50.4099 47.95 50.2099 47.74 49.9899 47.54C49.6399 47.21 49.5799 46.69 49.8199 46.3C49.5199 46.65 49.0099 46.75 48.5899 46.52C48.3399 46.38 48.0799 46.25 47.8099 46.15C47.3699 45.97 47.1199 45.5 47.2199 45.05C47.0699 45.49 46.6199 45.77 46.1499 45.7C45.8699 45.66 45.5799 45.64 45.2899 45.63C44.8099 45.62 44.4199 45.27 44.3399 44.82C44.3499 45.28 44.0399 45.7 43.5699 45.8C43.2899 45.86 43.0099 45.94 42.7399 46.04C42.2899 46.2 41.7999 46.01 41.5599 45.62C41.7399 46.05 41.5899 46.55 41.1899 46.81C40.9499 46.97 40.7199 47.14 40.4999 47.33C40.1399 47.64 39.6099 47.64 39.2499 47.35C39.5699 47.69 39.6099 48.21 39.3299 48.6C39.1599 48.83 39.0099 49.08 38.8699 49.33C38.6399 49.75 38.1499 49.93 37.7099 49.8C38.1299 50 38.3499 50.47 38.2299 50.94C38.1599 51.22 38.0999 51.5 38.0599 51.79C37.9999 52.26 37.6099 52.61 37.1499 52.64C37.6099 52.68 37.9899 53.04 38.0399 53.52C38.0699 53.8 38.1199 54.09 38.1799 54.37C38.2899 54.84 38.0499 55.3 37.6299 55.49C38.0699 55.36 38.5599 55.56 38.7699 55.99C38.8999 56.25 39.0499 56.5 39.2099 56.73C39.4799 57.13 39.4199 57.65 39.0899 57.97C39.4599 57.69 39.9799 57.71 40.3399 58.03C40.5499 58.22 40.7799 58.41 41.0199 58.57C41.4099 58.85 41.5399 59.35 41.3499 59.77C41.5299 59.5 41.8499 59.33 42.1799 59.33Z" fill="#FFC040"/>
<path d="M45.1202 57.7101C44.8502 57.7101 44.5702 57.6901 44.3002 57.6401C43.7602 57.5501 43.4002 57.0401 43.4902 56.5101C43.5002 56.4801 43.5002 56.4401 43.5102 56.4101C43.4902 56.4401 43.4702 56.4701 43.4502 56.4901C43.1202 56.9201 42.5002 56.9901 42.0702 56.6601C41.7502 56.4101 41.4602 56.1201 41.2102 55.7901C40.8802 55.3601 40.9502 54.7401 41.3802 54.4101C41.4102 54.3901 41.4302 54.3701 41.4602 54.3501C41.4302 54.3601 41.3902 54.3701 41.3602 54.3701C40.8202 54.4601 40.3202 54.0901 40.2302 53.5601C40.1902 53.3001 40.1602 53.0201 40.1602 52.7501C40.1602 52.6101 40.1702 52.4701 40.1802 52.3401C40.2202 51.8001 40.7002 51.4001 41.2402 51.4401C41.2702 51.4401 41.3102 51.4501 41.3402 51.4501C41.3102 51.4301 41.2802 51.4201 41.2502 51.4001C40.8002 51.1001 40.6702 50.4901 40.9702 50.0401C41.1902 49.7001 41.4602 49.3901 41.7602 49.1101C42.1602 48.7401 42.7802 48.7701 43.1502 49.1701C43.1702 49.2001 43.2002 49.2201 43.2202 49.2501C43.2102 49.2201 43.2002 49.1901 43.1902 49.1501C43.0602 48.6201 43.3802 48.0901 43.9102 47.9601C44.3002 47.8601 44.7102 47.8101 45.1102 47.8101C45.6502 47.8101 46.1002 48.2501 46.1002 48.7901C46.1002 48.8301 46.1002 48.8701 46.0902 48.9101C46.1002 48.8701 46.1202 48.8401 46.1402 48.8001C46.4002 48.3201 47.0002 48.1501 47.4802 48.4101C47.8402 48.6101 48.1702 48.8501 48.4702 49.1201C48.8702 49.4901 48.8902 50.1101 48.5202 50.5101C48.5002 50.5301 48.4702 50.5601 48.4502 50.5801C48.4802 50.5701 48.5102 50.5501 48.5402 50.5401C49.0502 50.3601 49.6102 50.6401 49.7902 51.1601C49.9202 51.5501 50.0002 51.9501 50.0402 52.3601C50.0502 52.4301 50.0402 52.4901 50.0402 52.5601C50.0502 52.6201 50.0602 52.6901 50.0602 52.7601C50.0602 53.1701 50.0102 53.5801 49.9102 53.9801C49.7802 54.5101 49.2402 54.8301 48.7102 54.6901C48.6802 54.6801 48.6402 54.6701 48.6102 54.6601C48.6402 54.6801 48.6602 54.7001 48.6902 54.7201C49.0902 55.0901 49.1202 55.7101 48.7502 56.1101C48.4702 56.4101 48.1602 56.6801 47.8202 56.9001C47.3702 57.2001 46.7602 57.0701 46.4602 56.6101C46.4402 56.5801 46.4202 56.5501 46.4102 56.5201C46.4202 56.5501 46.4202 56.5901 46.4202 56.6201C46.4602 57.1601 46.0602 57.6401 45.5202 57.6801C45.3902 57.7101 45.2602 57.7101 45.1202 57.7101ZM45.4502 55.7301C45.8302 55.7301 46.1602 55.9401 46.3202 56.2601C46.2502 55.8801 46.4102 55.4801 46.7502 55.2601C46.9602 55.1301 47.1502 54.9601 47.3102 54.7801C47.5902 54.4801 48.0102 54.3901 48.3702 54.5201C48.0602 54.2901 47.9102 53.8901 48.0102 53.4901C48.0702 53.2501 48.1002 53.0101 48.1002 52.7601C48.1002 52.7201 48.1002 52.6801 48.1102 52.6401C48.1002 52.6001 48.1002 52.5601 48.0902 52.5201C48.0702 52.2701 48.0202 52.0301 47.9402 51.8001C47.8102 51.4101 47.9302 51.0001 48.2202 50.7501C47.8702 50.9101 47.4402 50.8601 47.1402 50.5801C46.9602 50.4101 46.7602 50.2701 46.5402 50.1501C46.1802 49.9501 45.9902 49.5601 46.0302 49.1701C45.8902 49.5301 45.5302 49.7901 45.1202 49.7901C44.8702 49.7901 44.6202 49.8201 44.3802 49.8801C43.9802 49.9801 43.5802 49.8201 43.3502 49.5101C43.4802 49.8701 43.3902 50.2901 43.0902 50.5701C42.9102 50.7401 42.7502 50.9301 42.6102 51.1301C42.3902 51.4701 41.9902 51.6301 41.6102 51.5601C41.9502 51.7401 42.1702 52.1101 42.1402 52.5201C42.1302 52.6001 42.1302 52.6901 42.1302 52.7701C42.1302 52.9301 42.1402 53.1001 42.1702 53.2601C42.2402 53.6601 42.0502 54.0501 41.7202 54.2501C42.0902 54.1501 42.5002 54.2701 42.7602 54.6001C42.9102 54.7901 43.0902 54.9701 43.2802 55.1201C43.6002 55.3701 43.7302 55.7801 43.6202 56.1601C43.8202 55.8301 44.2102 55.6501 44.6102 55.7101C44.8502 55.7501 45.1102 55.7601 45.3502 55.7401C45.3902 55.7301 45.4202 55.7301 45.4502 55.7301Z" fill="#FFC040"/>
<path d="M45.1199 55.74C46.7492 55.74 48.0699 54.4193 48.0699 52.79C48.0699 51.1608 46.7492 49.84 45.1199 49.84C43.4907 49.84 42.1699 51.1608 42.1699 52.79C42.1699 54.4193 43.4907 55.74 45.1199 55.74Z" fill="#BD502F"/>
<path d="M41.62 47.7501L39.88 46.0101C37.93 44.0601 37.93 40.9001 39.88 38.9501L41.62 37.2101C43.57 35.2601 46.73 35.2601 48.68 37.2101L50.42 38.9501C52.37 40.9001 52.37 44.0601 50.42 46.0101L48.68 47.7501C46.73 49.7001 43.57 49.7001 41.62 47.7501Z" fill="#FFC040"/>
<path d="M44.4799 51.16C44.3899 51.16 44.2999 51.15 44.2099 51.12C43.7699 51 43.3599 50.78 42.9999 50.49C42.9499 50.45 42.9099 50.41 42.8699 50.36C42.8199 50.33 42.7699 50.29 42.7299 50.24L42.0299 49.54C41.6499 49.16 41.6499 48.53 42.0299 48.15C42.4099 47.77 43.0399 47.77 43.4199 48.15L44.1199 48.85C44.1399 48.87 44.1599 48.89 44.1799 48.91C44.1999 48.92 44.2199 48.94 44.2399 48.96C44.3899 49.08 44.5699 49.17 44.7599 49.23C45.0699 49.32 45.3099 49.55 45.4199 49.83C45.4499 49.53 45.6199 49.25 45.8999 49.08C46.0099 49.02 46.1099 48.94 46.1999 48.85L46.4499 48.6C46.8299 48.22 47.4499 48.22 47.8299 48.59C47.4599 48.2 47.4599 47.59 47.8399 47.21L48.5399 46.51C48.9199 46.13 49.5399 46.13 49.9299 46.51C49.5499 46.13 49.5499 45.51 49.9299 45.12L50.6299 44.42C50.9799 44.07 51.5399 44.04 51.9199 44.33C51.6399 44.03 51.5699 43.57 51.7799 43.18C51.8799 43.01 51.9299 42.82 51.9499 42.62C51.9799 42.3 52.1699 42.02 52.4299 41.87C52.1299 41.89 51.8199 41.77 51.6099 41.52C51.5799 41.49 51.5499 41.46 51.5199 41.42L50.9699 40.87C50.5899 40.49 50.5899 39.87 50.9699 39.48C50.5899 39.86 49.9699 39.86 49.5799 39.48L48.8799 38.78C48.4999 38.4 48.4999 37.78 48.8799 37.39C48.4999 37.77 47.8799 37.77 47.4899 37.39L46.7899 36.69C46.4699 36.37 46.4199 35.89 46.6199 35.52C46.3599 35.77 45.9799 35.86 45.6199 35.74C45.4299 35.68 45.2399 35.65 45.0399 35.66C44.7099 35.68 44.4099 35.54 44.2099 35.31C44.2899 35.63 44.1999 35.99 43.9499 36.24L43.2499 36.94C42.8699 37.32 42.2399 37.32 41.8599 36.94C41.4799 36.56 41.4799 35.93 41.8599 35.55L42.5599 34.85C42.9399 34.47 43.5699 34.47 43.9499 34.85C43.9699 34.87 43.9899 34.89 44.0099 34.92C44.0099 34.9 43.9999 34.84 43.9999 34.79C43.9599 34.25 44.3699 33.78 44.9099 33.74C45.3699 33.71 45.8299 33.77 46.2699 33.92C46.7799 34.1 47.0599 34.66 46.8799 35.17C46.8599 35.23 46.8399 35.28 46.8099 35.33C47.1999 34.96 47.8099 34.96 48.1899 35.34L48.8899 36.04C49.2699 36.42 49.2699 37.04 48.8899 37.43C49.2699 37.05 49.8899 37.05 50.2799 37.43L50.9799 38.13C51.3599 38.51 51.3599 39.13 50.9799 39.52C51.3599 39.14 51.9899 39.14 52.3699 39.52L52.9199 40.07C52.9899 40.14 53.0599 40.21 53.1199 40.29C53.4699 40.71 53.4199 41.33 52.9999 41.68C52.9599 41.72 52.9099 41.75 52.8599 41.78C52.9099 41.78 52.9699 41.78 53.0299 41.78C53.5699 41.84 53.9599 42.32 53.9099 42.86C53.8599 43.32 53.7299 43.76 53.4999 44.17C53.2399 44.65 52.6399 44.82 52.1599 44.56C52.1199 44.54 52.0699 44.51 52.0399 44.48C52.3999 44.87 52.3899 45.47 52.0199 45.85L51.3199 46.55C50.9399 46.93 50.3199 46.93 49.9299 46.55C50.3099 46.93 50.3099 47.55 49.9299 47.94L49.2299 48.64C48.8499 49.02 48.2299 49.02 47.8499 48.65C48.2199 49.03 48.2199 49.65 47.8399 50.03L47.5899 50.28C47.3799 50.49 47.1399 50.67 46.8899 50.82C46.4199 51.09 45.8199 50.93 45.5399 50.46C45.5099 50.41 45.4899 50.36 45.4699 50.31C45.4599 50.36 45.4499 50.42 45.4399 50.47C45.3099 50.87 44.9099 51.16 44.4799 51.16ZM41.3299 48.44C41.0799 48.44 40.8299 48.34 40.6299 48.15L39.9299 47.45C39.5499 47.07 39.5499 46.44 39.9299 46.06C40.3099 45.68 40.9399 45.68 41.3199 46.06L42.0199 46.76C42.3999 47.14 42.3999 47.77 42.0199 48.15C41.8299 48.35 41.5799 48.44 41.3299 48.44ZM39.2399 46.36C38.9899 46.36 38.7399 46.26 38.5399 46.07L37.8399 45.37C37.4599 44.99 37.4599 44.36 37.8399 43.98C37.7899 44 37.7299 44.02 37.6699 44.04C37.1399 44.17 36.6099 43.85 36.4799 43.32C36.4099 43.05 36.3799 42.77 36.3799 42.49C36.3799 42.31 36.3899 42.13 36.4199 41.95C36.4999 41.41 37.0099 41.04 37.5399 41.13C37.5999 41.14 37.6499 41.15 37.7099 41.17C37.6999 41.16 37.6899 41.15 37.6799 41.14C37.2999 40.76 37.2999 40.13 37.6799 39.75L38.3799 39.05C38.7599 38.67 39.3899 38.67 39.7699 39.05C40.1499 39.43 40.1499 40.06 39.7699 40.44L39.0699 41.14C38.7999 41.42 38.3999 41.49 38.0499 41.37C38.2799 41.59 38.4099 41.91 38.3499 42.24C38.3399 42.32 38.3299 42.39 38.3299 42.47C38.3299 42.59 38.3399 42.71 38.3699 42.83C38.4599 43.18 38.3499 43.53 38.1099 43.76C38.4699 43.6 38.9099 43.67 39.2099 43.96L39.9099 44.66C40.2899 45.04 40.2899 45.67 39.9099 46.05C39.7399 46.26 39.4899 46.36 39.2399 46.36ZM40.4799 39.35C40.2299 39.35 39.9799 39.25 39.7799 39.06C39.3999 38.68 39.3999 38.05 39.7799 37.67L40.4799 36.97C40.8599 36.59 41.4899 36.59 41.8699 36.97C42.2499 37.35 42.2499 37.98 41.8699 38.36L41.1699 39.06C40.9799 39.25 40.7299 39.35 40.4799 39.35Z" fill="#BD502F"/>
<path d="M44.47 49.06C44.38 49.06 44.29 49.05 44.2 49.02C43.75 48.89 43.35 48.68 42.99 48.38C42.94 48.34 42.9 48.3 42.86 48.26C42.81 48.23 42.77 48.19 42.73 48.15L42.03 47.45C41.65 47.07 41.65 46.44 42.03 46.06C42.41 45.68 43.04 45.68 43.42 46.06L44.12 46.76C44.14 46.78 44.16 46.8 44.17 46.82C44.19 46.83 44.21 46.85 44.23 46.87C44.38 46.99 44.56 47.09 44.75 47.14C45.06 47.23 45.3 47.46 45.4 47.75C45.43 47.45 45.61 47.17 45.89 47.01C46 46.95 46.11 46.86 46.2 46.77L46.43 46.54C46.81 46.16 47.44 46.16 47.82 46.54C48.2 46.92 48.2 47.55 47.82 47.93L47.59 48.16C47.37 48.38 47.13 48.56 46.86 48.72C46.39 48.99 45.79 48.83 45.52 48.35C45.49 48.3 45.47 48.25 45.45 48.2C45.44 48.25 45.43 48.31 45.42 48.36C45.28 48.78 44.89 49.06 44.47 49.06ZM48.51 46.82C48.26 46.82 48.01 46.72 47.81 46.53C47.43 46.15 47.43 45.52 47.81 45.14L48.51 44.44C48.86 44.09 49.42 44.06 49.81 44.36C49.53 44.06 49.46 43.59 49.67 43.21C49.77 43.04 49.83 42.85 49.85 42.65C49.88 42.33 50.07 42.06 50.34 41.9C50.04 41.92 49.73 41.8 49.52 41.55C49.49 41.52 49.46 41.48 49.43 41.45L48.89 40.91C48.51 40.53 48.51 39.91 48.88 39.53C48.5 39.9 47.88 39.9 47.5 39.52L46.8 38.82C46.48 38.5 46.43 38.02 46.64 37.64C46.38 37.89 46 37.98 45.64 37.86C45.48 37.81 45.33 37.78 45.15 37.78C45.12 37.78 45.09 37.78 45.06 37.78C44.73 37.8 44.43 37.66 44.24 37.42C44.32 37.74 44.23 38.1 43.98 38.35L43.28 39.05C42.9 39.43 42.28 39.43 41.9 39.06C42.27 39.44 42.27 40.06 41.89 40.44L41.19 41.14C40.91 41.42 40.52 41.49 40.17 41.37C40.4 41.59 40.53 41.91 40.47 42.25C40.46 42.33 40.45 42.41 40.45 42.48C40.45 42.6 40.46 42.72 40.49 42.83C40.58 43.18 40.46 43.53 40.23 43.76C40.59 43.6 41.03 43.67 41.33 43.96L42.03 44.66C42.41 45.04 42.41 45.67 42.03 46.05C41.65 46.43 41.02 46.43 40.64 46.05L39.94 45.35C39.56 44.97 39.56 44.34 39.94 43.96C39.89 43.98 39.83 44 39.77 44.02C39.24 44.15 38.71 43.83 38.58 43.3C38.51 43.03 38.48 42.75 38.48 42.48C38.48 42.3 38.49 42.12 38.52 41.94C38.6 41.4 39.11 41.04 39.65 41.12C39.71 41.13 39.76 41.14 39.82 41.16C39.81 41.15 39.8 41.14 39.79 41.13C39.41 40.75 39.41 40.12 39.79 39.74L40.49 39.04C40.87 38.66 41.49 38.66 41.87 39.03C41.5 38.65 41.5 38.03 41.88 37.65L42.58 36.95C42.96 36.57 43.59 36.57 43.97 36.95C43.99 36.97 44.01 37 44.03 37.02C44.02 36.97 44.01 36.91 44 36.85C43.96 36.31 44.37 35.84 44.92 35.8C45 35.79 45.07 35.79 45.15 35.79C45.53 35.79 45.91 35.85 46.27 35.98C46.78 36.16 47.06 36.72 46.88 37.23C46.86 37.29 46.84 37.34 46.81 37.39C47.2 37.02 47.81 37.03 48.19 37.41L48.89 38.11C49.27 38.49 49.27 39.11 48.9 39.49C49.29 39.12 49.9 39.12 50.28 39.5L50.82 40.04C50.9 40.11 50.97 40.19 51.03 40.27C51.38 40.69 51.32 41.31 50.9 41.66C50.86 41.7 50.81 41.73 50.76 41.76C50.81 41.76 50.87 41.76 50.92 41.76C51.46 41.82 51.85 42.3 51.79 42.84C51.74 43.3 51.6 43.74 51.38 44.15C51.11 44.62 50.52 44.8 50.04 44.53C50 44.51 49.96 44.48 49.92 44.45C50.28 44.84 50.27 45.44 49.9 45.82L49.2 46.52C49.01 46.72 48.76 46.82 48.51 46.82Z" fill="white"/>
<path d="M45.1497 46.7301C44.8397 46.7301 44.5397 46.6901 44.2397 46.6101C43.9197 46.5201 43.6796 46.2901 43.5696 46.0001C43.2696 46.0501 42.9396 45.9601 42.7096 45.7301L42.0096 45.0301C41.6296 44.6501 41.6296 44.0201 42.0096 43.6401C42.0396 43.6101 42.0596 43.5901 42.0896 43.5701C42.0396 43.5801 41.9796 43.5901 41.9196 43.5901C41.3696 43.6201 40.9196 43.1901 40.8896 42.6501C40.8896 42.6001 40.8896 42.5501 40.8896 42.4901C40.8896 42.0801 40.9596 41.6801 41.0996 41.2901C41.2896 40.7801 41.8496 40.5201 42.3596 40.7101C42.4096 40.7301 42.4696 40.7501 42.5196 40.7801C42.1496 40.3901 42.1596 39.7801 42.5396 39.4101L42.6996 39.2501C42.9496 39.0001 43.2397 38.7901 43.5597 38.6201C44.0397 38.3701 44.6396 38.5601 44.8896 39.0401C44.9196 39.0901 44.9396 39.1401 44.9496 39.1901C44.9596 39.1401 44.9697 39.0801 44.9897 39.0301C45.1597 38.5201 45.7197 38.2401 46.2397 38.4101C46.6797 38.5601 47.0796 38.7901 47.4296 39.1001C47.8396 39.4601 47.8696 40.0801 47.5096 40.4901L47.4996 40.5001C47.5396 40.4701 47.5796 40.4401 47.6196 40.4201C48.0996 40.1601 48.6996 40.3301 48.9596 40.8001C49.1796 41.2101 49.3196 41.6501 49.3696 42.1101C49.4296 42.6501 49.0297 43.1301 48.4897 43.1901C48.4297 43.2001 48.3797 43.2001 48.3297 43.1901C48.3797 43.2201 48.4197 43.2501 48.4697 43.2901C48.8897 43.6401 48.9396 44.2601 48.5896 44.6801C48.5296 44.7601 48.4596 44.8301 48.3896 44.9001L47.8496 45.4401C47.4696 45.8201 46.8396 45.8201 46.4596 45.4401C46.4496 45.4301 46.4396 45.4201 46.4196 45.4001C46.4396 45.4501 46.4496 45.5101 46.4596 45.5701C46.5296 46.1101 46.1496 46.6001 45.6096 46.6801C45.4596 46.7201 45.2997 46.7301 45.1497 46.7301ZM45.4796 44.7401C45.7596 44.7401 46.0296 44.8601 46.2096 45.0701C46.0996 44.7301 46.1796 44.3501 46.4496 44.0801L46.9897 43.5401C47.0197 43.5101 47.0497 43.4801 47.0797 43.4401C47.2897 43.1901 47.5997 43.0701 47.8997 43.0901C47.6397 42.9401 47.4496 42.6701 47.4196 42.3401C47.3996 42.1401 47.3396 41.9501 47.2496 41.7801C47.0396 41.4001 47.1096 40.9401 47.3896 40.6401C47.0196 40.9201 46.4996 40.9101 46.1396 40.5901C45.9896 40.4601 45.8197 40.3601 45.6297 40.3001C45.3197 40.2001 45.0996 39.9501 45.0096 39.6601C44.9596 39.9601 44.7797 40.2301 44.4897 40.3801C44.3597 40.4501 44.2296 40.5401 44.1196 40.6501L43.9596 40.8101C43.6396 41.1301 43.1396 41.1901 42.7696 40.9601C43.0196 41.2201 43.1096 41.6201 42.9796 41.9801C42.9196 42.1401 42.8896 42.3201 42.8896 42.4901V42.5601C42.8996 42.8901 42.7596 43.1801 42.5196 43.3701C42.8396 43.3001 43.1796 43.3901 43.4296 43.6401L44.1297 44.3401C44.2297 44.4401 44.3096 44.5701 44.3596 44.7001C44.4996 44.6801 44.6396 44.6801 44.7796 44.7201C44.9696 44.7701 45.1696 44.7901 45.3696 44.7601C45.3896 44.7401 45.4296 44.7401 45.4796 44.7401Z" fill="#BD502F"/>
</g>
<defs>
<clipPath id="clip0_339_1258">
<rect width="90" height="90" fill="white"/>
</clipPath>
</defs>
</svg>
