<svg width="90" height="90" viewBox="0 0 90 90" fill="none" xmlns="http://www.w3.org/2000/svg">
<g clip-path="url(#clip0_339_1450)">
<path d="M73.1596 44.83V46.08L73.0796 46.2L72.4196 47.16V49.44L72.1496 49.9L71.8296 50.44L71.6596 50.74L70.6796 52.4L70.4996 52.7L70.1396 53.31H68.5496L68.3696 53.07L67.4096 51.77V49.04L67.2196 48.74L67.0396 48.45L65.9696 46.78L65.9296 46.7H64.7296L62.8496 44.88V42.66L63.0396 42.42L63.2496 42.15L64.4396 40.61L64.6196 40.38H66.6096L66.8196 40.61L67.6696 41.51L67.9396 41.23L68.1696 40.99L68.3196 40.84H69.2896L70.8596 41.6L71.1696 41.75V41.76L71.6796 43.29L72.0196 43.64L72.2496 43.88L73.1596 44.83Z" fill="#FD3952"/>
<path d="M63.9896 45.94L65.3496 44.63L66.5296 45.77L65.5796 46.69H65.9396L65.9896 46.77L66.7796 46L68.1796 47.35L67.0596 48.44L67.2396 48.73L68.4196 47.59L69.7796 48.9L68.4196 50.21L67.4296 49.25V49.72L68.1796 50.45L67.4296 51.18V51.65L68.4196 50.69L69.6496 51.87L68.3896 53.08L68.5596 53.32H68.6196L69.8796 52.1L70.5096 52.71L70.6796 52.42L70.1196 51.87L71.4796 50.56L71.6696 50.74L71.8396 50.44L71.7196 50.32L72.1596 49.9V49.89L72.4296 49.43V49.17L71.4796 50.09L70.2496 48.9L71.6496 47.55L72.4296 48.31V47.84L71.8896 47.31L73.0696 46.17L73.0896 46.19L73.1696 46.07V45.61L73.0696 45.71L71.7196 44.4L72.2696 43.87L72.0396 43.63L71.4796 44.17L70.0796 42.82L71.1796 41.75V41.74L70.8696 41.59L69.8396 42.58L68.6596 41.44L69.2996 40.82H68.7996L68.4096 41.2L68.1796 40.98L67.9496 41.22L68.1696 41.44L66.9896 42.58L65.8796 41.51L66.8296 40.59L66.6196 40.36H66.5796L65.6396 41.27L64.6996 40.36H64.6296L64.4496 40.59L65.3996 41.5L63.9996 42.85L63.2496 42.13L63.0396 42.39L63.7496 43.08L62.8496 43.95V44.42L63.9896 43.32L65.0996 44.39L63.7396 45.7M71.2196 44.41L70.0396 45.55L68.6396 44.2L69.8196 43.06L71.2196 44.41ZM68.3996 41.68L69.5796 42.82L68.3996 43.96L67.2196 42.82L68.3996 41.68ZM64.2296 43.11L65.6296 41.76L66.7396 42.83L65.3396 44.18L64.2296 43.11ZM65.5796 44.41L66.9796 43.06L68.1596 44.2L66.7696 45.55L65.5796 44.41ZM67.0096 45.78L68.4096 44.43L69.8096 45.78L68.4096 47.13L67.0096 45.78ZM71.2296 50.32L69.8696 51.63L68.6396 50.44L69.9996 49.14L71.2296 50.32ZM69.9996 48.67L68.6396 47.36L70.0396 46.01L71.3996 47.32L69.9996 48.67ZM71.6396 47.09L70.2796 45.78L71.4596 44.64L72.8096 45.95L71.6396 47.09Z" fill="#FF8DA6"/>
<path d="M27.1498 44.65V45.91L27.0598 46.03L26.3998 46.99V49.26L26.1298 49.72V49.73L25.8198 50.27L25.6398 50.56L24.6598 52.23L24.4898 52.53L24.1298 53.14H22.5298L22.3598 52.9L21.3998 51.6V48.87L21.1998 48.57L21.0198 48.28L19.9598 46.61L19.9098 46.53H18.7198L16.8398 44.71V42.49L17.0198 42.24L17.2298 41.98L18.4298 40.44L18.5998 40.21H20.5998L20.8098 40.44L21.6498 41.34L21.9198 41.06L22.1498 40.82L22.3098 40.66H23.2698L24.8398 41.43L25.1498 41.58L25.1598 41.59L25.6698 43.11L26.0098 43.47L26.2398 43.71L27.1498 44.65Z" fill="#FD3952"/>
<path d="M17.9698 45.77L19.3298 44.46L20.5098 45.6L19.5598 46.52H19.9198L19.9698 46.6L20.7598 45.83L22.1598 47.18L21.0398 48.27L21.2198 48.56L22.3998 47.42L23.7598 48.73L22.3998 50.04L21.4098 49.08V49.55L22.1598 50.28L21.4098 51.01V51.48L22.3998 50.52L23.6298 51.7L22.3698 52.91L22.5398 53.15H22.5998L23.8598 51.93L24.4898 52.54L24.6598 52.25L24.0998 51.7L25.4598 50.39L25.6498 50.57L25.8198 50.27L25.6998 50.15L26.1398 49.73V49.72L26.4098 49.26V49L25.4598 49.92L24.2298 48.73L25.6298 47.38L26.4098 48.14V47.67L25.8698 47.14L27.0498 46L27.0698 46.02L27.1498 45.9V45.44L27.0498 45.54L25.6998 44.23L26.2498 43.7L26.0198 43.46L25.4498 44L24.0498 42.65L25.1498 41.58V41.57L24.8398 41.42L23.8098 42.41L22.6298 41.27L23.2698 40.65H22.7798L22.3898 41.03L22.1598 40.81L21.9298 41.05L22.1498 41.27L20.9698 42.41L19.8598 41.34L20.8098 40.42L20.5998 40.19H20.5598L19.6198 41.1L18.6798 40.19H18.5998L18.4198 40.42L19.3698 41.33L17.9698 42.68L17.2198 41.96L17.0098 42.22L17.7198 42.91L16.8198 43.78V44.25L17.9598 43.15L19.0698 44.22L17.7098 45.53M25.2098 44.24L24.0298 45.38L22.6298 44.03L23.8098 42.89L25.2098 44.24ZM22.3898 41.51L23.5698 42.65L22.3898 43.79L21.2098 42.65L22.3898 41.51ZM18.2198 42.93L19.6198 41.58L20.7298 42.65L19.3298 44L18.2198 42.93ZM19.5698 44.24L20.9698 42.89L22.1498 44.03L20.7598 45.38L19.5698 44.24ZM20.9898 45.61L22.3898 44.26L23.7898 45.61L22.3898 46.96L20.9898 45.61ZM25.2098 50.15L23.8498 51.46L22.6198 50.27L23.9798 48.96L25.2098 50.15ZM23.9898 48.5L22.6298 47.19L24.0298 45.84L25.3898 47.15L23.9898 48.5ZM25.6198 46.92L24.2598 45.61L25.4398 44.47L26.7898 45.78L25.6198 46.92Z" fill="#FF8DA6"/>
</g>
<defs>
<clipPath id="clip0_339_1450">
<rect width="90" height="90" fill="white"/>
</clipPath>
</defs>
</svg>
