<svg width="57" height="18" viewBox="0 0 57 18" fill="none" xmlns="http://www.w3.org/2000/svg">
<g clip-path="url(#clip0_222_1820)">
<path d="M49.6797 5.24005H50.3497V4.06005L51.4997 3.00005V0.800049H50.8297V2.70005L49.6797 3.77005V5.24005Z" fill="black"/>
<path d="M56.6596 8.94011V10.1901L56.5696 10.3101L55.9096 11.2701V13.5501L55.6396 14.0101L55.3196 14.5501L55.1496 14.8501L54.1696 16.5201L53.9896 16.8101L53.6396 17.4201H52.0396L51.8696 17.1901L50.8996 15.8801V13.1501L50.7096 12.8501L50.5296 12.5601L49.4696 10.8901L49.4196 10.8101H48.2296L46.3496 8.99011V6.77011L46.5296 6.53011L46.7396 6.26011L47.9296 4.72011L48.1096 4.49011H50.0996L50.3196 4.72011L51.1596 5.62011L51.4296 5.35011L51.6596 5.11011L51.8096 4.95011H52.7796L54.3496 5.71011L54.6596 5.86011V5.87011L55.1696 7.40011L55.5096 7.75011L55.7496 7.99011L56.6596 8.94011Z" fill="#FD3952"/>
<path d="M47.4798 10.0501L48.8398 8.7401L50.0198 9.8801L49.0698 10.8001H49.4298L49.4798 10.8801L50.2698 10.1101L51.6698 11.4601L50.5498 12.5501L50.7298 12.8401L51.9098 11.7001L53.2698 13.0101L51.9098 14.3201L50.9198 13.3601V13.8301L51.6698 14.5601L50.9198 15.2901V15.7601L51.9098 14.8001L53.1398 15.9801L51.8798 17.1901L52.0498 17.4301H52.1098L53.3698 16.2101L53.9998 16.8201L54.1698 16.5301L53.6098 15.9801L54.9698 14.6701L55.1598 14.8501L55.3298 14.5501L55.2098 14.4301L55.6498 14.0101V14.0001L55.9198 13.5401V13.2801L54.9698 14.2001L53.7398 13.0101L55.1398 11.6601L55.9198 12.4201V11.9501L55.3798 11.4201L56.5598 10.2801L56.5798 10.3001L56.6598 10.1801V9.7301L56.5598 9.8301L55.2098 8.5201L55.7598 7.9901L55.5298 7.7501L54.9698 8.2901L53.5698 6.9401L54.6698 5.8701V5.8601L54.3598 5.7101L53.3198 6.7001L52.1298 5.5601L52.7698 4.9401H52.2798L51.8898 5.3201L51.6598 5.1001L51.4298 5.3501L51.6498 5.5701L50.4698 6.7001L49.3598 5.6301L50.3098 4.7101L50.0998 4.4801H50.0598L49.1198 5.4001L48.1798 4.4901H48.1098L47.9298 4.7201L48.8798 5.6301L47.4798 6.9801L46.7298 6.2601L46.5298 6.5301L47.2398 7.2201L46.3398 8.0901V8.5601L47.4798 7.4601L48.5898 8.5301L47.2298 9.8401M54.7098 8.5201L53.5298 9.6601L52.1298 8.3101L53.3098 7.1701L54.7098 8.5201ZM51.8898 5.7901L53.0698 6.9301L51.8898 8.0701L50.7098 6.9301L51.8898 5.7901ZM47.7298 7.2201L49.1298 5.8701L50.2398 6.9401L48.8398 8.2901L47.7298 7.2201ZM49.0798 8.5201L50.4798 7.1701L51.6598 8.3101L50.2698 9.6601L49.0798 8.5201ZM50.4998 9.8901L51.8998 8.5401L53.2998 9.8901L51.8998 11.2401L50.4998 9.8901ZM54.7198 14.4301L53.3598 15.7401L52.1298 14.5501L53.4898 13.2401L54.7198 14.4301ZM53.4898 12.7801L52.1298 11.4701L53.5298 10.1201L54.8898 11.4301L53.4898 12.7801ZM55.1298 11.2001L53.7698 9.8901L54.9498 8.7501L56.2998 10.0601L55.1298 11.2001Z" fill="#FF8DA6"/>
<path d="M6.73992 5.24005H6.06992V4.06005L4.91992 3.00005V0.800049H5.58992V2.70005L6.73992 3.77005V5.24005Z" fill="black"/>
<path d="M10.6401 8.77007V10.0201L10.5601 10.1401L9.90008 11.1001V13.3801L9.63008 13.8401H9.62008L9.31008 14.3801L9.13008 14.6701L8.15008 16.3401L7.98008 16.6401L7.62008 17.2501H6.03008L5.85008 17.0101L4.89008 15.7101V12.9801L4.70008 12.6801L4.52008 12.3901L3.45008 10.7201L3.41008 10.6401H2.21008L0.330078 8.82007V6.60007L0.520078 6.36007L0.720078 6.09007L1.92008 4.55007L2.10008 4.32007H4.09008L4.30008 4.55007L5.15008 5.45007L5.41008 5.17007L5.65008 4.93007L5.80008 4.78007H6.77008L8.33008 5.54007L8.65008 5.69007V5.70007L9.16008 7.23007L9.50008 7.58007L9.73008 7.82007L10.6401 8.77007Z" fill="#FD3952"/>
<path d="M1.46008 9.88007L2.82008 8.57007L4.00008 9.71007L3.05008 10.6401H3.41008L3.46008 10.7201L4.25008 9.95007L5.65008 11.3001L4.53008 12.3901L4.71008 12.6801L5.89008 11.5401L7.25008 12.8501L5.89008 14.1601L4.90008 13.2001V13.6701L5.65008 14.4001L4.90008 15.1301V15.6001L5.89008 14.6401L7.11008 15.8001L5.85008 17.0101L6.02008 17.2501H6.08008L7.34008 16.0301L7.97008 16.6401L8.14008 16.3501L7.59008 15.8001L8.95008 14.4901L9.14008 14.6701L9.31008 14.3701L9.19008 14.2501L9.63008 13.8301V13.8201L9.90008 13.3601V13.1001L8.95008 14.0201L7.72008 12.8301L9.12008 11.4801L9.90008 12.2401V11.7701L9.36008 11.2401L10.5401 10.1001L10.5601 10.1201L10.6401 10.0001V9.56007L10.5401 9.66007L9.18008 8.35007L9.73008 7.82007L9.50008 7.58007L8.94008 8.12007L7.54008 6.77007L8.64008 5.70007V5.69007L8.33008 5.54007L7.30008 6.53007L6.12008 5.39007L6.76008 4.77007H6.27008L5.88008 5.16007L5.65008 4.93007L5.41008 5.17007L5.63008 5.39007L4.46008 6.53007L3.35008 5.47007L4.30008 4.55007L4.09008 4.32007H4.05008L3.11008 5.23007L2.16008 4.32007H2.10008L1.92008 4.55007L2.87008 5.46007L1.47008 6.81007L0.720078 6.09007L0.520078 6.36007L1.23008 7.05007L0.330078 7.92007V8.39007L1.47008 7.29007L2.58008 8.36007L1.22008 9.65007M8.70008 8.35007L7.52008 9.49007L6.12008 8.14007L7.30008 7.00007L8.70008 8.35007ZM5.88008 5.62007L7.06008 6.76007L5.88008 7.91007L4.70008 6.77007L5.88008 5.62007ZM1.71008 7.05007L3.11008 5.70007L4.22008 6.77007L2.82008 8.12007L1.71008 7.05007ZM3.06008 8.35007L4.46008 7.00007L5.64008 8.14007L4.25008 9.49007L3.06008 8.35007ZM4.49008 9.72007L5.89008 8.37007L7.29008 9.72007L5.89008 11.0701L4.49008 9.72007ZM8.71008 14.2601L7.35008 15.5701L6.12008 14.3801L7.48008 13.0701L8.71008 14.2601ZM7.48008 12.6101L6.12008 11.3001L7.52008 9.95007L8.88008 11.2601L7.48008 12.6101ZM9.11008 11.0301L7.76008 9.72007L8.94008 8.58007L10.2901 9.89007L9.11008 11.0301Z" fill="#FF8DA6"/>
</g>
<defs>
<clipPath id="clip0_222_1820">
<rect width="56.33" height="16.62" fill="white" transform="translate(0.330078 0.800049)"/>
</clipPath>
</defs>
</svg>
