<svg width="47" height="65" viewBox="0 0 47 65" fill="none" xmlns="http://www.w3.org/2000/svg">
<g clip-path="url(#clip0_222_1784)">
<path d="M46.0398 59.0799L42.6298 62.6499C42.2298 63.0699 41.5598 63.0699 41.1498 62.6499L40.8398 62.3299L45.6898 57.2599L46.0098 57.5799C46.4298 57.9999 46.4398 58.6699 46.0398 59.0799Z" fill="#2A3F51"/>
<path d="M15.2498 24.7499L11.8298 25.4299L7.88982 30.1099C7.88982 30.1099 6.77982 33.3399 7.88982 36.4799C8.99982 39.6199 20.2198 67.7199 40.8398 62.4599L45.6898 57.2999C45.6898 55.8799 45.1198 54.5099 44.1098 53.5099L15.2498 24.7499Z" fill="#3B54B5"/>
<path d="M23.7296 61.0099L9.32961 46.6099C5.68961 42.9699 5.68961 37.0199 9.32961 33.3799L10.0396 32.6699C13.1296 29.5799 18.1796 29.5799 21.2596 32.6699L38.3696 49.7799C41.4596 52.8699 41.4596 57.9199 38.3696 60.9999C34.3196 65.0599 27.7696 65.0599 23.7296 61.0099Z" fill="#E34B3D"/>
<path d="M28.8296 59.23L10.3996 40.8C8.90959 39.31 8.03959 37.42 7.76959 35.47C5.80959 39.02 6.31959 43.61 9.32959 46.61L23.7296 61.01C27.3096 64.59 32.8596 64.99 36.8996 62.23C33.9996 62.44 31.0396 61.44 28.8296 59.23Z" fill="#C02632"/>
<path d="M13.4297 26.0099L8.62966 29.7999C8.62966 29.7999 7.57966 28.9399 6.26966 26.8099C6.00966 26.3999 5.73966 25.9399 5.45966 25.4199C4.86966 24.3099 4.25966 22.9699 3.68966 21.3599C3.50966 20.8499 3.32966 20.3299 3.15966 19.7699C2.74966 18.4299 2.37966 16.9399 2.04966 15.2799C1.93966 14.7099 1.83966 14.1199 1.73966 13.5099C1.49966 12.0499 1.30966 10.4599 1.18966 8.74993C1.14966 8.13993 1.10966 7.49993 1.07966 6.84993C0.979663 4.79993 0.959663 2.56993 1.04966 0.179932H7.41966C7.41966 0.179932 7.35966 0.839932 7.31966 1.96993C7.29966 2.53993 7.29966 3.21993 7.29966 3.99993C7.30966 5.40993 7.35966 7.11993 7.54966 8.99993C7.60966 9.59993 7.66966 10.2199 7.74966 10.8499C7.94966 12.3599 8.22966 13.9499 8.60966 15.5399C8.73966 16.0899 8.88966 16.6599 9.04966 17.2099C9.46966 18.6399 9.97966 20.0599 10.6197 21.4199C10.8397 21.9099 11.0797 22.3899 11.3397 22.8699C11.9397 23.9799 12.6297 25.0399 13.4297 26.0099Z" fill="#111E2B"/>
<path d="M7.32959 1.96997C7.29959 2.53997 7.29959 3.21997 7.29959 3.99997L1.19959 8.76997C1.14959 8.13997 1.10959 7.49997 1.07959 6.84997L7.32959 1.96997Z" fill="#2A3F51"/>
<path d="M7.73951 10.8499L2.05951 15.2899C1.94951 14.7199 1.84951 14.1299 1.74951 13.5199L7.53951 8.99988C7.59951 9.59988 7.65951 10.2199 7.73951 10.8499Z" fill="#2A3F51"/>
<path d="M9.03943 17.2099L3.69943 21.3799C3.51943 20.8699 3.33943 20.3499 3.16943 19.7899L8.59943 15.5499C8.72943 16.0899 8.87943 16.6499 9.03943 17.2099Z" fill="#2A3F51"/>
<path d="M11.3297 22.8699L6.27973 26.8199C6.01973 26.4099 5.74973 25.9499 5.46973 25.4299L10.6097 21.4199C10.8297 21.9099 11.0697 22.3899 11.3297 22.8699Z" fill="#2A3F51"/>
<path d="M13.7996 26.1799L8.54961 30.2899L7.59961 29.0099L12.8196 24.9299L13.7996 26.1799Z" fill="#2A3F51"/>
<mask id="mask0_222_1784" style="mask-type:luminance" maskUnits="userSpaceOnUse" x="6" y="30" width="35" height="35">
<path d="M23.7296 61.0099L9.32961 46.6099C5.68961 42.9699 5.68961 37.0199 9.32961 33.3799L10.0396 32.6699C13.1296 29.5799 18.1796 29.5799 21.2596 32.6699L38.3696 49.7799C41.4596 52.8699 41.4596 57.9199 38.3696 60.9999C34.3196 65.0599 27.7696 65.0599 23.7296 61.0099Z" fill="white"/>
</mask>
<g mask="url(#mask0_222_1784)">
<path d="M25.8295 77.5999L25.8495 77.5799H30.6895V82.4599H31.1595V77.4499L34.6295 73.9799L34.4095 73.7599V68.9799L37.4795 65.91L37.4995 65.9299L37.5195 65.91H42.3595V70.7899H42.8295V65.7799L46.2995 62.3099L46.0795 62.0899V57.3099L49.5495 53.8399L49.2195 53.5099L49.1995 53.5299H44.3595V48.6599L44.0295 48.3299L44.0095 48.3499H39.1695V43.4799L38.8395 43.1499L38.8195 43.1699H33.9795V38.2999L33.6495 37.9699L33.6295 37.9899H28.7895V33.1199L28.4595 32.7899L28.4395 32.8099H23.5995V27.9399L23.2695 27.6099L23.2495 27.6299H18.4095V22.7599L18.0795 22.4299L18.0595 22.4499H13.2195V17.5699H12.7495V22.5799L9.27945 26.0499L9.49945 26.2699V31.0499L6.42945 34.1199L6.40945 34.0999L6.38945 34.1199H1.54945V29.2399H1.07945V34.2499L-2.39055 37.7199L-2.17055 37.9399V42.7199L-5.24055 45.7899L-5.26055 45.7699L-5.28055 45.7899H-10.1205V40.9099H-10.5905V45.9199L-14.0605 49.3899L-13.8405 49.6099V54.3899L-17.3105 57.8599L-16.9805 58.1899L-16.9605 58.1699H-12.1205V63.0399L-11.7905 63.3699L-11.7705 63.3499H-6.93055V68.2199L-6.60055 68.5499L-6.58055 68.5299H-1.74055V73.3999L-1.41055 73.7299L-1.39055 73.7099H3.44945V78.5799L3.77945 78.91L3.79945 78.8899H8.63945V83.7599L8.96945 84.09L8.98945 84.0699H13.8295V88.9399L14.1595 89.2699L14.1795 89.2499H19.0195V94.1299H19.4895V89.1199L22.9595 85.6499L22.7395 85.4299V80.6499L25.8095 77.5799L25.8295 77.5999ZM17.7695 85.3299V80.7799H22.2695V85.3299H17.7695ZM12.5795 80.1499V75.5999H17.0795V80.1499H12.5795ZM7.38945 74.9599V70.41H11.8895V74.9599H7.38945ZM2.20945 69.7699V65.2199H6.70945V69.7699H2.20945ZM-2.98055 64.5799V60.0299H1.51945V64.5799H-2.98055ZM-8.17055 59.3899V54.8399H-3.67055V59.3899H-8.17055ZM-13.3605 54.2099V49.6599H-8.86055V54.2099H-13.3605ZM14.4895 26.3199V30.8699H9.98945V26.3199H14.4895ZM19.6695 31.4999V36.0499H15.1695V31.4999H19.6695ZM24.8595 36.6899V41.2399H20.3595V36.6899H24.8595ZM30.0495 41.8799V46.4299H25.5495V41.8799H30.0495ZM35.2395 47.0699V51.6199H30.7395V47.0699H35.2395ZM40.4295 52.2599V56.8099H35.9295V52.2599H40.4295ZM45.6095 57.4499V61.9999H41.1095V57.4499H45.6095ZM-8.39055 49.5199L-5.39055 46.5199V51.0599L-8.39055 54.0599V49.5199ZM3.27945 37.8499L6.27945 34.8499V39.3899L3.27945 42.3899V37.8499ZM40.6495 62.1299L37.6495 65.1299V60.5899L40.6495 57.5899V62.1299ZM28.9695 73.7999L25.9695 76.7999V72.2599L28.9695 69.2599V73.7999ZM15.8295 71.6799V67.2099H20.3095V71.6799H15.8295ZM10.6395 66.4899V62.0199H15.1195V66.4899H10.6395ZM5.45945 61.2999V56.8299H9.93945V61.2999H5.45945ZM0.269453 56.1099V51.6399H4.74945V56.1099H0.269453ZM16.4195 39.9699V44.4399H11.9395V39.9699H16.4195ZM21.6095 45.1599V49.6299H17.1295V45.1599H21.6095ZM26.7995 50.3499V54.8199H22.3195V50.3499H26.7995ZM31.9895 55.5399V60.0099H27.5095V55.5399H31.9895ZM28.8895 63.4599H24.3795L27.3595 60.4799H31.8695L28.8895 63.4599ZM19.0695 63.2899V58.7399H23.5695V63.2899H19.0695ZM13.8795 58.0999V53.5499H18.3795V58.0999H13.8795ZM8.68945 52.9099V48.3599H13.1895V52.9099H8.68945ZM27.0395 60.1399L24.0395 63.1399V58.5999L27.0395 55.5999V60.1399ZM23.6995 58.2699H19.1895L22.1695 55.2899H26.6795L23.6995 58.2699ZM21.8495 54.9499L18.8495 57.9499V53.4199L21.8495 50.4199V54.9499ZM18.5195 53.0799H14.0095L16.9895 50.0999H21.4995L18.5195 53.0799ZM16.6595 49.7699L13.6595 52.7699V48.2299L16.6595 45.2299V49.7699ZM13.3295 47.8899H8.81945L11.7995 44.9099H16.3095L13.3295 47.8899ZM11.4695 44.5799L8.46945 47.5799V43.0499L11.4695 40.0499V44.5799ZM7.99945 43.1799V47.7299H3.49945V43.1799H7.99945ZM3.35945 48.1899H7.86945L4.88945 51.1699H0.379454L3.35945 48.1899ZM5.21945 51.5099L8.21945 48.5099V53.0499L5.21945 56.0499V51.5099ZM8.54945 53.3799H13.0595L10.0795 56.3599H5.56945L8.54945 53.3799ZM10.4095 56.6999L13.4095 53.6999V58.2399L10.4095 61.2399V56.6999ZM13.7395 58.5699H18.2495L15.2695 61.5499H10.7595L13.7395 58.5699ZM15.5995 61.8899L18.5995 58.8899V63.4199L15.5995 66.4199V61.8899ZM18.9295 63.7599H23.4395L20.4595 66.7399H15.9495L18.9295 63.7599ZM20.7895 67.0699L23.7895 64.0699V68.5999L20.7895 71.5999V67.0699ZM24.2495 68.4699V63.9199H28.7495V68.4699H24.2495ZM32.2195 65.3299L29.2195 68.3299V63.7899L32.2195 60.7899V65.3299ZM8.13945 42.7099H3.62945L6.60945 39.7299H11.1195L8.13945 42.7099ZM0.0294533 46.3199L3.02945 43.3199V47.8599L0.0294533 50.8599V46.3199ZM24.1095 68.9399H28.6195L25.6395 71.9199H21.1295L24.1095 68.9399ZM32.6895 65.1899V60.7199H37.1795V65.1899H32.6895ZM40.2995 57.2699L37.3195 60.2499H32.8095L35.7895 57.2699H40.2995ZM35.4595 56.9399L32.4595 59.9399V55.4099L35.4595 52.4099V56.9399ZM35.1095 52.0799L32.1295 55.0599H27.6195L30.5995 52.0799H35.1095ZM30.2695 51.7499L27.2695 54.7499V50.2199L30.2695 47.2199V51.7499ZM29.9195 46.8999L26.9395 49.8799H22.4295L25.4095 46.8999H29.9195ZM25.0795 46.5599L22.0795 49.5599V45.0199L25.0795 42.0199V46.5599ZM24.7295 41.7099L21.7495 44.6899H17.2395L20.2195 41.7099H24.7295ZM19.8895 41.3699L16.8895 44.3699V39.8299L19.8895 36.8299V41.3699ZM19.5395 36.5199L16.5595 39.4999H12.0495L15.0295 36.5199H19.5395ZM14.7095 36.1899L11.7095 39.1899V34.6499L14.7095 31.6499V36.1899ZM11.2395 34.7799V39.2499H6.75945V34.7799H11.2395ZM-0.440546 46.4599V50.9299H-4.93055V46.4599H-0.440546ZM-8.04055 54.3799L-5.06055 51.3999H-0.550547L-3.53055 54.3799H-8.04055ZM-3.20055 54.7099L-0.200546 51.7099V56.2399L-3.20055 59.2399V54.7099ZM-2.85055 59.5699L0.129454 56.5899H4.63945L1.65945 59.5699H-2.85055ZM1.98945 59.8999L4.98945 56.8999V61.4399L1.98945 64.4399V59.8999ZM2.32945 64.7499L5.30945 61.7699H9.81945L6.83945 64.7499H2.32945ZM7.16945 65.09L10.1695 62.0899V66.6199L7.16945 69.6199V65.09ZM7.51945 69.9399L10.4995 66.9599H15.0095L12.0295 69.9399H7.51945ZM12.3595 70.2799L15.3595 67.2799V71.8199L12.3595 74.8199V70.2799ZM12.7095 75.1299L15.6895 72.1499H20.1995L17.2195 75.1299H12.7095ZM17.5495 75.4599L20.5495 72.4599V76.9999L17.5495 79.9999V75.4599ZM21.0195 76.8599V72.3899H25.4995V76.8599H21.0195ZM29.4395 73.66V69.1199H33.9395V73.66H29.4395ZM29.5695 68.6499L32.5495 65.6699H37.0595L34.0795 68.6499H29.5695ZM14.3595 31.3299L11.3795 34.3099H6.86945L9.84945 31.3299H14.3595ZM2.80945 37.9899V42.5299H-1.69055V37.9899H2.80945ZM2.67945 43.0099L-0.300547 45.9899H-4.81055L-1.83055 43.0099H2.67945ZM17.8995 80.3199L20.8795 77.34H25.3895L22.4095 80.3199H17.8995ZM29.2995 74.1299H33.8095L30.8295 77.1099H26.3195L29.2995 74.1299ZM40.9795 62.4599H45.4895L42.5095 65.4399H37.9995L40.9795 62.4599ZM45.7495 56.9799H41.2395L44.2195 53.9999H48.7295L45.7495 56.9799ZM43.8995 53.6599L40.8995 56.6599V52.1199L43.8995 49.1199V53.6599ZM40.5595 51.7899H36.0495L39.0295 48.8099H43.5395L40.5595 51.7899ZM38.7095 48.4699L35.7095 51.4699V46.9299L38.7095 43.9299V48.4699ZM35.3795 46.5999H30.8695L33.8495 43.6199H38.3595L35.3795 46.5999ZM33.5195 43.2799L30.5195 46.2799V41.7499L33.5195 38.7499V43.2799ZM30.1895 41.4099H25.6795L28.6595 38.4299H33.1695L30.1895 41.4099ZM28.3295 38.0899L25.3295 41.0899V36.5499L28.3295 33.5499V38.0899ZM24.9995 36.2199H20.4895L23.4695 33.2399H27.9795L24.9995 36.2199ZM23.1395 32.9099L20.1395 35.9099V31.3799L23.1395 28.3799V32.9099ZM19.8095 31.0299H15.2995L18.2795 28.0499H22.7895L19.8095 31.0299ZM17.9495 27.7199L14.9495 30.7199V26.1799L17.9495 23.1799V27.7199ZM14.6195 25.8499H10.1095L13.0895 22.8699H17.5995L14.6195 25.8499ZM2.94945 37.5199H-1.56055L1.41945 34.5399H5.92945L2.94945 37.5199ZM-8.72055 49.1899H-13.2305L-10.2505 46.2099H-5.74055L-8.72055 49.1899ZM-13.5005 54.6799H-8.99055L-11.9705 57.6599H-16.4805L-13.5005 54.6799ZM-11.6405 57.9899L-8.64055 54.9899V59.5299L-11.6405 62.5299V57.9899ZM-8.31055 59.8599H-3.80055L-6.78055 62.8399H-11.2905L-8.31055 59.8599ZM-6.45055 63.1799L-3.45055 60.1799V64.7199L-6.45055 67.7199V63.1799ZM-3.12055 65.0499H1.38945L-1.59055 68.0299H-6.10055L-3.12055 65.0499ZM-1.26055 68.3699L1.73945 65.3699V69.91L-1.26055 72.91V68.3699ZM2.06945 70.2399H6.57945L3.59945 73.2199H-0.910545L2.06945 70.2399ZM3.92945 73.5599L6.92945 70.5599V75.09L3.92945 78.09V73.5599ZM7.24945 75.4299H11.7595L8.77945 78.41H4.26945L7.24945 75.4299ZM9.10945 78.7499L12.1095 75.7499V80.2799L9.10945 83.2799V78.7499ZM12.4395 80.6199H16.9495L13.9695 83.5999H9.45945L12.4395 80.6199ZM14.2995 83.9299L17.2995 80.9299V85.4699L14.2995 88.4699V83.9299ZM17.6295 85.7999H22.1395L19.1595 88.7799H14.6495L17.6295 85.7999Z" fill="#EA5C34"/>
</g>
<path d="M13.4297 37.58L14.8597 38.98" stroke="#FDDFE0" stroke-width="1.5" stroke-miterlimit="10" stroke-linecap="round"/>
<path d="M16.9297 40.99L20.0197 44.01" stroke="#FDDFE0" stroke-width="1.5" stroke-miterlimit="10" stroke-linecap="round" stroke-dasharray="2.88 2.88"/>
<path d="M21.0596 45.0199L28.2896 52.0599" stroke="#FDDFE0" stroke-width="1.5" stroke-miterlimit="10" stroke-linecap="round" stroke-dasharray="2.88 2.88"/>
<path d="M29.3198 53.0699L30.7498 54.4599" stroke="#FDDFE0" stroke-width="1.5" stroke-miterlimit="10" stroke-linecap="round"/>
<path d="M31.5397 54.84H32.7697L34.1097 57.92C34.3697 58.52 34.2997 59.23 33.9397 59.76C33.4397 60.48 32.5397 60.67 31.8397 60.21L31.7097 60.13C31.1297 59.75 30.8297 59.01 30.9597 58.28L31.5397 54.84Z" fill="#141F2B"/>
</g>
<defs>
<clipPath id="clip0_222_1784">
<rect width="45.45" height="63.86" fill="white" transform="translate(0.879883 0.179932)"/>
</clipPath>
</defs>
</svg>
