<svg width="90" height="90" viewBox="0 0 90 90" fill="none" xmlns="http://www.w3.org/2000/svg">
<g clip-path="url(#clip0_339_1420)">
<path fill-rule="evenodd" clip-rule="evenodd" d="M48.8996 43.04V43.3H47.0796V42.77H48.6396C48.7896 42.78 48.8996 42.89 48.8996 43.04Z" fill="#646B82"/>
<path opacity="0.1" fill-rule="evenodd" clip-rule="evenodd" d="M48.1696 43.3H47.0796V42.77H47.8596C47.9796 42.94 48.0896 43.12 48.1696 43.3Z" fill="black"/>
<path fill-rule="evenodd" clip-rule="evenodd" d="M41.0898 43.04V43.3H42.9098V42.77H41.3498C41.2098 42.78 41.0898 42.89 41.0898 43.04Z" fill="#646B82"/>
<path opacity="0.1" fill-rule="evenodd" clip-rule="evenodd" d="M41.8496 43.3H42.9196V42.77H42.1596C42.0396 42.94 41.9396 43.12 41.8496 43.3Z" fill="black"/>
<path fill-rule="evenodd" clip-rule="evenodd" d="M41.0898 46.58V46.32H42.9098V46.85H41.3498C41.2098 46.84 41.0898 46.72 41.0898 46.58Z" fill="#646B82"/>
<path opacity="0.1" fill-rule="evenodd" clip-rule="evenodd" d="M41.8496 46.31H42.9196V46.84H42.1596C42.0396 46.67 41.9396 46.5 41.8496 46.31Z" fill="black"/>
<path fill-rule="evenodd" clip-rule="evenodd" d="M48.8996 46.57V46.31H47.0796V46.84H48.6396C48.7896 46.84 48.8996 46.72 48.8996 46.57Z" fill="#646B82"/>
<path opacity="0.1" fill-rule="evenodd" clip-rule="evenodd" d="M48.1696 46.31H47.0796V46.84H47.8596C47.9796 46.67 48.0896 46.5 48.1696 46.31Z" fill="black"/>
<path fill-rule="evenodd" clip-rule="evenodd" d="M45.3996 48.03V48.44C45.3996 48.49 45.3596 48.54 45.2996 48.54H44.6996C44.6496 48.54 44.5996 48.5 44.5996 48.44V48.03H45.3996Z" fill="#646B82"/>
<path opacity="0.05" fill-rule="evenodd" clip-rule="evenodd" d="M45.3195 48.54C45.3095 48.54 45.3095 48.54 45.2995 48.54H45.2495V48.08H45.3195V48.54Z" fill="black"/>
<path opacity="0.05" d="M45.1794 48.09H45.1094V48.55H45.1794V48.09Z" fill="black"/>
<path opacity="0.05" d="M45.0295 48.09H44.9595V48.55H45.0295V48.09Z" fill="black"/>
<path opacity="0.05" d="M44.8893 48.09H44.8193V48.55H44.8893V48.09Z" fill="black"/>
<path opacity="0.05" fill-rule="evenodd" clip-rule="evenodd" d="M44.7394 48.54H44.7094C44.6994 48.54 44.6794 48.54 44.6694 48.53V48.08H44.7394V48.54Z" fill="black"/>
<path opacity="0.1" fill-rule="evenodd" clip-rule="evenodd" d="M45.3996 48.47C45.3896 48.51 45.3496 48.54 45.2996 48.54H44.6996C44.6496 48.54 44.6196 48.51 44.5996 48.47H45.3996Z" fill="white"/>
<path d="M51.4798 43.3H38.5298V46.3101H51.4798V43.3Z" fill="#17212E"/>
<path opacity="0.1" fill-rule="evenodd" clip-rule="evenodd" d="M48.17 46.31H41.84C41.62 45.85 41.5 45.34 41.5 44.8C41.5 44.26 41.62 43.75 41.84 43.29H48.17C48.39 43.75 48.51 44.26 48.51 44.8C48.51 45.35 48.39 45.86 48.17 46.31Z" fill="black"/>
<path d="M45.0097 48.16C46.8598 48.16 48.3597 46.6602 48.3597 44.81C48.3597 42.9599 46.8598 41.46 45.0097 41.46C43.1595 41.46 41.6597 42.9599 41.6597 44.81C41.6597 46.6602 43.1595 48.16 45.0097 48.16Z" fill="#515970"/>
<path d="M45.0098 47.5C46.4955 47.5 47.6998 46.2956 47.6998 44.81C47.6998 43.3244 46.4955 42.12 45.0098 42.12C43.5242 42.12 42.3198 43.3244 42.3198 44.81C42.3198 46.2956 43.5242 47.5 45.0098 47.5Z" fill="#F2F5FF"/>
<path fill-rule="evenodd" clip-rule="evenodd" d="M46.3099 42.5L46.3599 42.53L46.1699 42.86C46.1599 42.85 46.1399 42.84 46.1199 42.83L46.3099 42.5ZM46.9599 43.65L47.2899 43.46L47.3199 43.51L46.9899 43.7C46.9799 43.68 46.9699 43.66 46.9599 43.65ZM47.2799 44.78H47.6599V44.83H47.2799C47.2799 44.82 47.2799 44.81 47.2799 44.8C47.2799 44.79 47.2799 44.79 47.2799 44.78ZM46.9899 45.92L47.3199 46.11L47.2899 46.16L46.9599 45.97C46.9699 45.95 46.9799 45.93 46.9899 45.92ZM46.1699 46.76L46.3599 47.09L46.3099 47.12L46.1199 46.79C46.1399 46.78 46.1499 46.77 46.1699 46.76ZM45.0399 47.07V47.45H44.9899V47.07C44.9999 47.07 45.0099 47.07 45.0199 47.07C45.0299 47.07 45.0299 47.07 45.0399 47.07ZM43.8999 46.78L43.7099 47.11L43.6599 47.08L43.8499 46.75C43.8699 46.77 43.8799 46.78 43.8999 46.78ZM43.0599 45.96L42.7299 46.15L42.6999 46.1L43.0299 45.91C43.0399 45.93 43.0499 45.95 43.0599 45.96ZM42.7399 44.83H42.3599V44.78H42.7399C42.7399 44.79 42.7399 44.8 42.7399 44.81C42.7399 44.82 42.7399 44.82 42.7399 44.83ZM43.0299 43.69L42.6999 43.5L42.7299 43.45L43.0599 43.64C43.0499 43.66 43.0399 43.68 43.0299 43.69ZM43.8499 42.85L43.6599 42.52L43.7099 42.49L43.8999 42.82C43.8799 42.84 43.8699 42.85 43.8499 42.85ZM44.9899 42.54V42.16H45.0399V42.54C45.0299 42.54 45.0199 42.54 45.0099 42.54C44.9999 42.54 44.9899 42.54 44.9899 42.54Z" fill="#333333"/>
<path fill-rule="evenodd" clip-rule="evenodd" d="M45.8998 43.4L44.8198 45.2C44.8098 45.22 44.7798 45.23 44.7598 45.22C44.7398 45.21 44.7298 45.18 44.7398 45.16L45.8198 43.36C45.8298 43.34 45.8598 43.33 45.8798 43.34C45.9098 43.35 45.9098 43.38 45.8998 43.4Z" fill="#B6BDD6"/>
<path fill-rule="evenodd" clip-rule="evenodd" d="M46.1398 46.6L44.8198 44.4C44.8098 44.38 44.7798 44.37 44.7598 44.38C44.7398 44.39 44.7298 44.42 44.7398 44.44L46.0598 46.64C46.0698 46.66 46.0998 46.67 46.1198 46.66C46.1398 46.65 46.1498 46.63 46.1398 46.6Z" fill="#B6BDD6"/>
<path fill-rule="evenodd" clip-rule="evenodd" d="M45.3998 44.76V44.7901H45.5598C45.5698 44.7901 45.5798 44.8001 45.5798 44.8101C45.5798 44.8201 45.5698 44.8301 45.5598 44.8301H45.3998V44.8601C45.3998 44.8701 45.3898 44.8801 45.3798 44.8801H45.2098C45.1998 44.8801 45.1898 44.8701 45.1898 44.8601V44.8301L43.1098 44.82C43.0998 44.82 43.0898 44.81 43.0898 44.8C43.0898 44.79 43.0998 44.78 43.1098 44.78L45.1898 44.7901V44.76C45.1898 44.75 45.1998 44.7401 45.2098 44.7401H45.3798C45.3998 44.7401 45.3998 44.75 45.3998 44.76Z" fill="#677199"/>
<path fill-rule="evenodd" clip-rule="evenodd" d="M44.8696 44.81C44.8696 44.89 44.9396 44.96 45.0196 44.96C45.0996 44.96 45.1696 44.89 45.1696 44.81C45.1696 44.73 45.0996 44.66 45.0196 44.66C44.9296 44.66 44.8696 44.73 44.8696 44.81Z" fill="#919ABF"/>
<path fill-rule="evenodd" clip-rule="evenodd" d="M44.9297 44.81C44.9297 44.85 44.9597 44.89 45.0097 44.89C45.0497 44.89 45.0897 44.86 45.0897 44.81C45.0897 44.77 45.0597 44.73 45.0097 44.73C44.9697 44.73 44.9297 44.76 44.9297 44.81Z" fill="#A7B0D1"/>
</g>
<defs>
<clipPath id="clip0_339_1420">
<rect width="90" height="90" fill="white"/>
</clipPath>
</defs>
</svg>
