<svg width="22" height="56" viewBox="0 0 22 56" fill="none" xmlns="http://www.w3.org/2000/svg">
<g clip-path="url(#clip0_222_1757)">
<path d="M21.28 0.429932L12.38 30.4099C12.17 31.0999 11.55 31.5699 10.82 31.5699C10.82 31.5699 10.82 31.5699 10.81 31.5699C10.5 31.5699 10.2 31.4799 9.95002 31.3099C9.62002 31.1099 9.38002 30.7899 9.27002 30.3999L6.16002 20.0499L3.20002 10.1899L2.13002 6.60993L0.27002 0.429932H2.59002L4.24002 6.01993L5.30002 9.60993L8.09002 19.0399L10.78 28.1199L10.82 28.2699L19.1 0.429932H21.28Z" fill="#498EF4"/>
<path d="M5.29988 9.6099L3.19988 10.1899L2.12988 6.6099L4.23988 6.0199L5.29988 9.6099Z" fill="#4850C6"/>
<path d="M10.7902 28.1099L9.96016 31.3099C9.63016 31.1099 9.39016 30.7899 9.28016 30.3999L6.16016 20.0499L8.09016 19.0299L10.7902 28.1099Z" fill="#4850C6"/>
<path d="M19.6 30.0399H1.95996V55.7799H19.6V30.0399Z" fill="#EB473E"/>
<path d="M17.8102 35.1199H3.74023V54.0899H17.8102V35.1199Z" fill="#F5F5F5"/>
<path d="M11.0102 27.6399H10.6502L9.97021 28.7999H11.5802L11.0102 27.6399Z" fill="#C2BBBD"/>
<path d="M11.5801 31.4299V28.7999H9.97012V31.4299H9.17012C8.87012 31.4299 8.62012 31.6799 8.62012 31.9799V32.4799C8.62012 32.7799 8.87012 33.0299 9.17012 33.0299H12.3901C12.6901 33.0299 12.9401 32.7799 12.9401 32.4799V31.8799C12.9401 31.6299 12.7401 31.4299 12.4901 31.4299H11.5801Z" fill="#F5F5F5"/>
<path d="M12.9401 32.2299H8.62012V33.0299H12.9401V32.2299Z" fill="#C2BBBD"/>
<path d="M17.81 52.8799H3.70996V54.0999H17.81V52.8799Z" fill="#3C9657"/>
<path d="M17.81 51.6599H3.70996V52.8799H17.81V51.6599Z" fill="#86CA4E"/>
</g>
<defs>
<clipPath id="clip0_222_1757">
<rect width="21.01" height="55.36" fill="white" transform="translate(0.27002 0.429932)"/>
</clipPath>
</defs>
</svg>
