<svg width="90" height="90" viewBox="0 0 90 90" fill="none" xmlns="http://www.w3.org/2000/svg">
<g clip-path="url(#clip0_339_887)">
<path d="M5.30006 67.98L5.98006 68.49L6.11006 28.29L5.25006 27.75C5.06006 27.63 4.81006 27.77 4.81006 27.99V67.09C4.81006 67.45 4.99006 67.79 5.30006 67.98Z" fill="#4486F4"/>
<path d="M6.68014 70.09L6.64014 68.28L40.1001 84.62V86.35C40.1001 86.45 40.0001 86.52 39.9101 86.47L6.96014 70.53C6.79014 70.45 6.68014 70.28 6.68014 70.09Z" fill="#394097"/>
<path d="M85.1201 57.02L85.1401 58.43C85.1401 58.76 84.7901 59.03 84.5501 59.17L40.3601 86.41C40.2501 86.48 40.1001 86.4 40.1001 86.26V84.62L85.1201 57.02Z" fill="#D0E6F8"/>
<path d="M5.97998 28.43L51.19 4.33002V43.37L5.97998 68.49V28.43Z" fill="#2142AD"/>
<path d="M8.33018 28.76L49.7702 6.62003C50.0602 6.46003 50.4102 6.68003 50.4102 7.01003V41.88C50.4102 42.32 50.1702 42.72 49.7902 42.93L8.72018 65.38C8.25018 65.64 7.68018 65.3 7.68018 64.77V29.85C7.68018 29.39 7.93018 28.97 8.33018 28.76Z" fill="#202977"/>
<path d="M6.97009 68.97L39.0201 84.5C39.6901 84.83 40.4901 84.79 41.1201 84.4L84.9201 57.55C85.3201 57.3 85.2701 56.7 84.8301 56.53L51.4401 43.47C51.2801 43.41 51.1001 43.42 50.9501 43.5L6.94009 67.95C6.53009 68.18 6.55009 68.77 6.97009 68.97Z" fill="#4486F4"/>
<path d="M13.98 67.89L29.85 74.93C30.37 75.16 30.97 75.13 31.46 74.84L67.79 53.54C68.37 53.2 68.36 52.45 67.61 52.25L51.41 45.48C51.12 45.39 50.88 45.4 50.61 45.54L13.89 66.21C13.33 66.53 13.39 67.62 13.98 67.89Z" fill="#4D3761"/>
<path d="M45.6098 69.93L52.6598 73.49C52.8698 73.6 53.1198 73.59 53.3198 73.46L68.2698 64.41C68.7598 64.12 68.6898 63.39 68.1598 63.19L60.7498 60.29C60.5598 60.21 60.3398 60.23 60.1598 60.33L45.5698 68.72C45.0998 69 45.1198 69.69 45.6098 69.93Z" fill="#4850C6"/>
<path d="M51.1899 4.33001L50.25 3.62001C50.06 3.50001 49.8199 3.47001 49.6199 3.58001L5.08995 27.54C4.95995 27.61 4.94995 27.8 5.07995 27.88L6.09995 28.51L51.1899 4.33001Z" fill="#4486F4"/>
<path d="M15.3 67.22L16.69 66.39C16.75 66.36 16.74 66.27 16.67 66.25L15.63 65.95C15.61 65.94 15.59 65.95 15.57 65.96L14.26 66.7C14.21 66.73 14.21 66.81 14.27 66.84L15.23 67.24C15.25 67.23 15.27 67.23 15.3 67.22Z" fill="#D0E6F8"/>
<path d="M15.3202 67.11L16.6802 66.31C16.7102 66.29 16.7002 66.25 16.6702 66.25L15.6502 65.95C15.6202 65.93 15.5902 65.94 15.5702 65.96L14.2802 66.69C14.2502 66.7 14.2602 66.74 14.2802 66.75L15.2102 67.12C15.2402 67.13 15.2802 67.13 15.3202 67.11Z" fill="#D0E6F8"/>
<path d="M17.32 66.11L18.71 65.28C18.77 65.25 18.76 65.16 18.69 65.14L17.65 64.84C17.63 64.83 17.61 64.84 17.59 64.85L16.28 65.59C16.23 65.62 16.23 65.7 16.29 65.73L17.25 66.13C17.28 66.13 17.3 66.13 17.32 66.11Z" fill="#D0E6F8"/>
<path d="M17.3402 66.01L18.7002 65.21C18.7302 65.19 18.7202 65.15 18.6902 65.15L17.6702 64.85C17.6402 64.83 17.6102 64.84 17.5902 64.86L16.3002 65.59C16.2702 65.6 16.2802 65.64 16.3002 65.65L17.2302 66.02C17.2702 66.03 17.3102 66.03 17.3402 66.01Z" fill="#D0E6F8"/>
<path d="M19.3298 65.05L20.7198 64.22C20.7798 64.19 20.7698 64.1 20.6998 64.08L19.6598 63.78C19.6398 63.77 19.6198 63.78 19.5998 63.79L18.2898 64.53C18.2398 64.56 18.2398 64.64 18.2998 64.67L19.2598 65.07C19.2798 65.07 19.3098 65.07 19.3298 65.05Z" fill="#D0E6F8"/>
<path d="M19.35 64.95L20.7099 64.15C20.7399 64.13 20.73 64.09 20.7 64.09L19.68 63.79C19.65 63.77 19.62 63.78 19.6 63.8L18.3099 64.53C18.2799 64.54 18.2899 64.58 18.3099 64.59L19.2399 64.96C19.2699 64.97 19.31 64.97 19.35 64.95Z" fill="#D0E6F8"/>
<path d="M21.2301 63.9601L22.6201 63.1301C22.6801 63.1001 22.6701 63.0101 22.6001 62.9901L21.5601 62.6901C21.5401 62.6801 21.5201 62.6901 21.5001 62.7001L20.1901 63.4401C20.1401 63.4701 20.1401 63.5501 20.2001 63.5801L21.1601 63.9801C21.1801 63.9701 21.2101 63.9701 21.2301 63.9601Z" fill="#D0E6F8"/>
<path d="M21.2503 63.85L22.6103 63.05C22.6403 63.03 22.6303 62.99 22.6003 62.99L21.5803 62.69C21.5503 62.67 21.5203 62.68 21.5003 62.7L20.2103 63.43C20.1803 63.44 20.1903 63.48 20.2103 63.49L21.1403 63.86C21.1703 63.88 21.2103 63.87 21.2503 63.85Z" fill="#D0E6F8"/>
<path d="M23.2502 62.86L24.6402 62.03C24.7002 62 24.6902 61.91 24.6202 61.89L23.5802 61.59C23.5602 61.58 23.5402 61.59 23.5202 61.6L22.2102 62.34C22.1602 62.37 22.1602 62.45 22.2202 62.48L23.1802 62.88C23.2102 62.87 23.2302 62.87 23.2502 62.86Z" fill="#D0E6F8"/>
<path d="M23.2801 62.75L24.6401 61.95C24.6701 61.93 24.6601 61.89 24.6301 61.89L23.6101 61.59C23.5801 61.57 23.5501 61.58 23.5301 61.6L22.2401 62.33C22.2101 62.34 22.2201 62.38 22.2401 62.39L23.1701 62.76C23.2001 62.77 23.2401 62.77 23.2801 62.75Z" fill="#D0E6F8"/>
<path d="M25.2599 61.79L26.6499 60.96C26.7099 60.93 26.6999 60.84 26.6299 60.82L25.5899 60.52C25.5699 60.51 25.5499 60.52 25.5299 60.53L24.2199 61.27C24.1699 61.3 24.1699 61.38 24.2299 61.41L25.1899 61.81C25.2199 61.81 25.2399 61.81 25.2599 61.79Z" fill="#D0E6F8"/>
<path d="M25.2801 61.69L26.6401 60.89C26.6701 60.87 26.6601 60.83 26.6301 60.83L25.6101 60.53C25.5801 60.51 25.5501 60.52 25.5301 60.54L24.2401 61.27C24.2101 61.28 24.2201 61.32 24.2401 61.33L25.1701 61.7C25.2101 61.71 25.2501 61.71 25.2801 61.69Z" fill="#D0E6F8"/>
<path d="M27.1701 60.68L28.5601 59.85C28.6201 59.82 28.6101 59.73 28.5401 59.71L27.5001 59.41C27.4801 59.4 27.4601 59.41 27.4401 59.42L26.1301 60.16C26.0801 60.19 26.0801 60.27 26.1401 60.3L27.1001 60.7C27.1301 60.7 27.1501 60.7 27.1701 60.68Z" fill="#D0E6F8"/>
<path d="M27.1903 60.58L28.5503 59.78C28.5803 59.76 28.5703 59.72 28.5403 59.72L27.5203 59.42C27.4903 59.4 27.4603 59.41 27.4403 59.43L26.1503 60.16C26.1203 60.17 26.1303 60.21 26.1503 60.22L27.0803 60.59C27.1203 60.6 27.1603 60.6 27.1903 60.58Z" fill="#D0E6F8"/>
<path d="M29.1999 59.5801L30.5899 58.75C30.6499 58.72 30.6399 58.63 30.5699 58.61L29.5299 58.3101C29.5099 58.3001 29.4899 58.31 29.4699 58.32L28.1599 59.0601C28.1099 59.0901 28.1099 59.1701 28.1699 59.2001L29.1299 59.6C29.1499 59.59 29.1799 59.5901 29.1999 59.5801Z" fill="#D0E6F8"/>
<path d="M29.2201 59.47L30.5801 58.67C30.6101 58.65 30.6001 58.61 30.5701 58.61L29.5501 58.31C29.5201 58.29 29.4901 58.3 29.4701 58.32L28.1801 59.05C28.1501 59.06 28.1601 59.1 28.1801 59.11L29.1101 59.48C29.1401 59.49 29.1801 59.49 29.2201 59.47Z" fill="#D0E6F8"/>
<path d="M31.2101 58.5201L32.6001 57.6901C32.6601 57.6601 32.6501 57.5701 32.5801 57.5501L31.5401 57.2501C31.5201 57.2401 31.5001 57.2501 31.4801 57.2601L30.1701 58.0001C30.1201 58.0301 30.1201 58.1101 30.1801 58.1401L31.1401 58.5401C31.1601 58.5301 31.1801 58.5301 31.2101 58.5201Z" fill="#D0E6F8"/>
<path d="M31.2303 58.41L32.5903 57.61C32.6203 57.59 32.6103 57.55 32.5803 57.55L31.5603 57.25C31.5303 57.23 31.5003 57.24 31.4803 57.26L30.1903 57.99C30.1603 58 30.1703 58.04 30.1903 58.05L31.1203 58.42C31.1503 58.43 31.1903 58.43 31.2303 58.41Z" fill="#D0E6F8"/>
<path d="M33.1901 57.34L34.5801 56.51C34.6401 56.48 34.6301 56.39 34.5601 56.37L33.5201 56.07C33.5001 56.06 33.4801 56.07 33.4601 56.08L32.1501 56.82C32.1001 56.85 32.1001 56.93 32.1601 56.96L33.1201 57.36C33.1401 57.36 33.1701 57.36 33.1901 57.34Z" fill="#D0E6F8"/>
<path d="M33.2103 57.24L34.5703 56.44C34.6003 56.42 34.5903 56.38 34.5603 56.38L33.5403 56.08C33.5103 56.06 33.4803 56.07 33.4603 56.09L32.1703 56.82C32.1403 56.83 32.1503 56.87 32.1703 56.88L33.1003 57.25C33.1303 57.26 33.1703 57.26 33.2103 57.24Z" fill="#D0E6F8"/>
<path d="M35.2101 56.24L36.6001 55.41C36.6601 55.38 36.6501 55.29 36.5801 55.27L35.5401 54.97C35.5201 54.96 35.5001 54.97 35.4801 54.98L34.1701 55.72C34.1201 55.75 34.1201 55.83 34.1801 55.86L35.1401 56.26C35.1701 56.25 35.1901 56.25 35.2101 56.24Z" fill="#D0E6F8"/>
<path d="M35.2303 56.13L36.5903 55.33C36.6203 55.31 36.6103 55.27 36.5803 55.27L35.5603 54.97C35.5303 54.95 35.5003 54.96 35.4803 54.98L34.1903 55.71C34.1603 55.72 34.1703 55.76 34.1903 55.77L35.1203 56.14C35.1603 56.15 35.2003 56.15 35.2303 56.13Z" fill="#D0E6F8"/>
<path d="M37.2199 55.18L38.6099 54.35C38.6699 54.32 38.6599 54.23 38.5899 54.21L37.5499 53.91C37.5299 53.9 37.5099 53.91 37.4899 53.92L36.1799 54.66C36.1299 54.69 36.1299 54.77 36.1899 54.8L37.1499 55.2C37.1699 55.19 37.1999 55.19 37.2199 55.18Z" fill="#D0E6F8"/>
<path d="M37.2401 55.07L38.6001 54.27C38.6301 54.25 38.6201 54.21 38.5901 54.21L37.5701 53.91C37.5401 53.89 37.5101 53.9 37.4901 53.92L36.2001 54.65C36.1701 54.66 36.1801 54.7 36.2001 54.71L37.1301 55.08C37.1601 55.09 37.2101 55.09 37.2401 55.07Z" fill="#D0E6F8"/>
<path d="M39.2199 54.05L40.6099 53.22C40.6699 53.19 40.6599 53.1 40.5899 53.08L39.5499 52.78C39.5299 52.77 39.5099 52.78 39.4899 52.79L38.1799 53.53C38.1299 53.56 38.1299 53.64 38.1899 53.67L39.1499 54.07C39.1699 54.06 39.1999 54.06 39.2199 54.05Z" fill="#D0E6F8"/>
<path d="M39.2401 53.94L40.6001 53.14C40.6301 53.12 40.6201 53.08 40.5901 53.08L39.5701 52.78C39.5401 52.76 39.5101 52.77 39.4901 52.79L38.2001 53.52C38.1701 53.53 38.1801 53.57 38.2001 53.58L39.1301 53.95C39.1601 53.96 39.2001 53.96 39.2401 53.94Z" fill="#D0E6F8"/>
<path d="M41.2399 52.94L42.6299 52.11C42.6899 52.08 42.6799 51.99 42.6099 51.97L41.5699 51.67C41.5499 51.66 41.5299 51.67 41.5099 51.68L40.1999 52.42C40.1499 52.45 40.1499 52.53 40.2099 52.56L41.1699 52.96C41.1999 52.96 41.2199 52.95 41.2399 52.94Z" fill="#D0E6F8"/>
<path d="M41.2601 52.83L42.6201 52.03C42.6501 52.01 42.6401 51.97 42.6101 51.97L41.5901 51.67C41.5601 51.65 41.5301 51.66 41.5101 51.68L40.2201 52.41C40.1901 52.42 40.2001 52.46 40.2201 52.47L41.1501 52.84C41.1901 52.86 41.2301 52.85 41.2601 52.83Z" fill="#D0E6F8"/>
<path d="M43.2502 51.88L44.6402 51.05C44.7002 51.02 44.6902 50.93 44.6202 50.91L43.5802 50.61C43.5602 50.6 43.5402 50.61 43.5202 50.62L42.2102 51.36C42.1602 51.39 42.1602 51.47 42.2202 51.5L43.1802 51.9C43.2002 51.89 43.2302 51.89 43.2502 51.88Z" fill="#D0E6F8"/>
<path d="M43.2704 51.77L44.6304 50.97C44.6604 50.95 44.6504 50.91 44.6204 50.91L43.6004 50.61C43.5704 50.59 43.5404 50.6 43.5204 50.62L42.2304 51.35C42.2004 51.36 42.2104 51.4 42.2304 51.41L43.1604 51.78C43.1904 51.8 43.2404 51.79 43.2704 51.77Z" fill="#D0E6F8"/>
<path d="M45.3 50.5801L46.69 49.75C46.75 49.72 46.74 49.63 46.67 49.61L45.63 49.3101C45.61 49.3001 45.59 49.31 45.57 49.32L44.26 50.0601C44.21 50.0901 44.21 50.1701 44.27 50.2001L45.23 50.6C45.25 50.6 45.28 50.6001 45.3 50.5801Z" fill="#D0E6F8"/>
<path d="M45.3202 50.48L46.6802 49.68C46.7102 49.66 46.7002 49.62 46.6702 49.62L45.6502 49.32C45.6202 49.3 45.5902 49.31 45.5702 49.33L44.2802 50.06C44.2502 50.07 44.2602 50.11 44.2802 50.12L45.2102 50.49C45.2402 50.5 45.2902 50.5 45.3202 50.48Z" fill="#D0E6F8"/>
<path d="M47.3298 49.48L48.7198 48.65C48.7798 48.62 48.7698 48.53 48.6998 48.51L47.6598 48.21C47.6398 48.2 47.6198 48.21 47.5998 48.22L46.2898 48.96C46.2398 48.99 46.2398 49.07 46.2998 49.1L47.2598 49.5C47.2798 49.49 47.3098 49.49 47.3298 49.48Z" fill="#D0E6F8"/>
<path d="M47.3499 49.37L48.7099 48.57C48.7399 48.55 48.7299 48.51 48.6999 48.51L47.6799 48.21C47.6499 48.19 47.6199 48.2 47.5999 48.22L46.3099 48.95C46.2799 48.96 46.2899 49 46.3099 49.01L47.2399 49.38C47.2699 49.39 47.3099 49.39 47.3499 49.37Z" fill="#D0E6F8"/>
<path d="M49.1799 48.42L50.5699 47.59C50.6299 47.56 50.6198 47.47 50.5498 47.45L49.5098 47.15C49.4898 47.14 49.4699 47.15 49.4499 47.16L48.1398 47.9C48.0898 47.93 48.0899 48.01 48.1499 48.04L49.1099 48.44C49.1299 48.43 49.1599 48.43 49.1799 48.42Z" fill="#D0E6F8"/>
<path d="M49.2 48.31L50.56 47.51C50.59 47.49 50.58 47.45 50.55 47.45L49.53 47.15C49.5 47.13 49.47 47.14 49.45 47.16L48.16 47.89C48.13 47.9 48.14 47.94 48.16 47.95L49.09 48.32C49.12 48.33 49.16 48.33 49.2 48.31Z" fill="#D0E6F8"/>
<path d="M51.0202 47.44L52.4102 46.61C52.4702 46.58 52.4602 46.49 52.3902 46.47L51.3502 46.17C51.3302 46.16 51.3102 46.17 51.2902 46.18L49.9802 46.92C49.9302 46.95 49.9302 47.03 49.9902 47.06L50.9502 47.46C50.9702 47.45 51.0002 47.45 51.0202 47.44Z" fill="#D0E6F8"/>
<path d="M51.0404 47.33L52.4004 46.53C52.4304 46.51 52.4204 46.47 52.3904 46.47L51.3704 46.17C51.3404 46.15 51.3104 46.16 51.2904 46.18L50.0004 46.91C49.9704 46.92 49.9804 46.96 50.0004 46.97L50.9304 47.34C50.9604 47.36 51.0004 47.35 51.0404 47.33Z" fill="#D0E6F8"/>
<path d="M25.6802 71.69L27.5402 70.57C27.6102 70.53 27.6002 70.42 27.5302 70.39L25.5802 69.61C25.5502 69.6 25.5302 69.6 25.5002 69.62L23.6202 70.68C23.5502 70.72 23.5502 70.83 23.6302 70.86L25.5902 71.7C25.6302 71.71 25.6602 71.71 25.6802 71.69Z" fill="#D0E6F8"/>
<path d="M25.6504 71.49L27.5604 70.4L25.6204 69.62C25.5704 69.59 25.5104 69.6 25.4704 69.63L23.6304 70.67L25.6504 71.49Z" fill="#D0E6F8"/>
<path d="M28.4101 70.15L30.2701 69.03C30.3401 68.99 30.3301 68.88 30.2601 68.85L28.3101 68.07C28.2801 68.06 28.2601 68.06 28.2301 68.08L26.3501 69.14C26.2801 69.18 26.2801 69.29 26.3601 69.32L28.3201 70.16C28.3601 70.17 28.3901 70.17 28.4101 70.15Z" fill="#D0E6F8"/>
<path d="M28.3804 69.96L30.2904 68.87L28.3504 68.09C28.3004 68.06 28.2404 68.07 28.2004 68.1L26.3604 69.14L28.3804 69.96Z" fill="#D0E6F8"/>
<path d="M31.2002 68.66L33.0602 67.54C33.1302 67.5 33.1202 67.39 33.0502 67.36L31.1002 66.58C31.0702 66.57 31.0502 66.57 31.0202 66.59L29.1402 67.65C29.0702 67.69 29.0702 67.8 29.1502 67.83L31.1102 68.67C31.1502 68.68 31.1802 68.68 31.2002 68.66Z" fill="#D0E6F8"/>
<path d="M31.1704 68.46L33.0804 67.37L31.1404 66.59C31.0904 66.56 31.0304 66.57 30.9904 66.6L29.1504 67.64L31.1704 68.46Z" fill="#D0E6F8"/>
<path d="M33.9302 67.09L35.7902 65.97C35.8602 65.93 35.8502 65.82 35.7802 65.79L33.8302 65C33.8002 64.99 33.7802 64.99 33.7502 65.01L31.8702 66.07C31.8002 66.11 31.8002 66.22 31.8802 66.25L33.8402 67.09C33.8702 67.1 33.9002 67.1 33.9302 67.09Z" fill="#D0E6F8"/>
<path d="M33.8901 66.8901L35.8001 65.8001L33.8601 65.0201C33.8101 64.9901 33.7501 65.0001 33.7101 65.0301L31.8701 66.0701L33.8901 66.8901Z" fill="#D0E6F8"/>
<path d="M36.5903 65.65L38.4503 64.53C38.5203 64.49 38.5103 64.38 38.4403 64.35L36.4903 63.57C36.4603 63.56 36.4403 63.56 36.4103 63.58L34.5303 64.64C34.4603 64.68 34.4603 64.79 34.5403 64.82L36.5003 65.66C36.5303 65.67 36.5603 65.66 36.5903 65.65Z" fill="#D0E6F8"/>
<path d="M36.5503 65.45L38.4603 64.36L36.5203 63.58C36.4703 63.55 36.4103 63.56 36.3703 63.59L34.5303 64.63L36.5503 65.45Z" fill="#D0E6F8"/>
<path d="M39.1304 64.15L40.9904 63.03C41.0604 62.99 41.0504 62.88 40.9804 62.85L39.0304 62.07C39.0004 62.06 38.9804 62.06 38.9504 62.08L37.0704 63.14C37.0004 63.18 37.0004 63.29 37.0804 63.32L39.0404 64.16C39.0804 64.17 39.1104 64.16 39.1304 64.15Z" fill="#D0E6F8"/>
<path d="M39.1003 63.95L41.0003 62.86L39.0603 62.08C39.0103 62.05 38.9503 62.06 38.9103 62.09L37.0703 63.13L39.1003 63.95Z" fill="#D0E6F8"/>
<path d="M41.8301 62.64L43.6901 61.52C43.7601 61.48 43.7501 61.37 43.6801 61.34L41.7301 60.56C41.7001 60.55 41.6801 60.55 41.6501 60.57L39.7701 61.63C39.7001 61.67 39.7001 61.78 39.7801 61.81L41.7401 62.65C41.7701 62.66 41.8001 62.66 41.8301 62.64Z" fill="#D0E6F8"/>
<path d="M41.79 62.45L43.7 61.36L41.76 60.58C41.71 60.55 41.65 60.56 41.61 60.59L39.77 61.63L41.79 62.45Z" fill="#D0E6F8"/>
<path d="M44.56 61.11L46.42 59.99C46.49 59.95 46.48 59.84 46.41 59.81L44.46 59.03C44.43 59.02 44.41 59.02 44.38 59.04L42.5 60.1C42.43 60.14 42.43 60.25 42.51 60.28L44.47 61.12C44.5 61.13 44.54 61.12 44.56 61.11Z" fill="#D0E6F8"/>
<path d="M44.53 60.91L46.44 59.82L44.5 59.04C44.45 59.01 44.39 59.02 44.35 59.05L42.5 60.1L44.53 60.91Z" fill="#D0E6F8"/>
<path d="M47.3501 59.61L49.2101 58.49C49.2801 58.45 49.2701 58.34 49.2001 58.31L47.2501 57.53C47.2201 57.52 47.2001 57.52 47.1701 57.54L45.2901 58.6C45.2201 58.64 45.2201 58.75 45.3001 58.78L47.2601 59.62C47.2901 59.63 47.3201 59.63 47.3501 59.61Z" fill="#D0E6F8"/>
<path d="M47.31 59.42L49.22 58.33L47.28 57.55C47.23 57.52 47.17 57.53 47.13 57.56L45.29 58.6L47.31 59.42Z" fill="#D0E6F8"/>
<path d="M50.0703 58.04L51.9303 56.92C52.0003 56.88 51.9903 56.77 51.9203 56.74L49.9703 55.96C49.9403 55.95 49.9203 55.95 49.8903 55.97L48.0103 57.03C47.9403 57.07 47.9403 57.18 48.0203 57.21L49.9803 58.05C50.0203 58.06 50.0503 58.05 50.0703 58.04Z" fill="#D0E6F8"/>
<path d="M50.0405 57.84L51.9505 56.75L50.0105 55.97C49.9605 55.94 49.9005 55.95 49.8605 55.98L48.0205 57.02L50.0405 57.84Z" fill="#D0E6F8"/>
<path d="M52.73 56.6L54.59 55.48C54.66 55.44 54.65 55.33 54.58 55.3L52.63 54.52C52.6 54.51 52.58 54.51 52.55 54.53L50.67 55.59C50.6 55.63 50.6 55.74 50.68 55.77L52.64 56.61C52.68 56.62 52.71 56.62 52.73 56.6Z" fill="#D0E6F8"/>
<path d="M52.7002 56.41L54.6102 55.32L52.6702 54.54C52.6202 54.51 52.5602 54.52 52.5202 54.55L50.6802 55.59L52.7002 56.41Z" fill="#D0E6F8"/>
<path d="M55.2803 55.1L57.1403 53.98C57.2103 53.94 57.2003 53.83 57.1303 53.8L55.1803 53.02C55.1503 53.01 55.1303 53.01 55.1003 53.03L53.2203 54.09C53.1503 54.13 53.1503 54.24 53.2303 54.27L55.1903 55.11C55.2203 55.12 55.2503 55.12 55.2803 55.1Z" fill="#D0E6F8"/>
<path d="M55.2402 54.91L57.1502 53.82L55.2102 53.04C55.1602 53.01 55.1002 53.02 55.0602 53.05L53.2202 54.09L55.2402 54.91Z" fill="#D0E6F8"/>
<path d="M57.9399 53.57L59.7999 52.45C59.8699 52.41 59.8599 52.3 59.7899 52.27L57.8399 51.49C57.8099 51.48 57.7899 51.48 57.7599 51.5L55.8799 52.56C55.8099 52.6 55.8099 52.71 55.8899 52.74L57.8499 53.58C57.8899 53.59 57.9199 53.58 57.9399 53.57Z" fill="#D0E6F8"/>
<path d="M57.9101 53.37L59.8201 52.28L57.8801 51.5C57.8301 51.47 57.7701 51.48 57.7301 51.51L55.8901 52.55L57.9101 53.37Z" fill="#D0E6F8"/>
<path d="M31.2002 71.08L33.0602 69.96C33.1302 69.92 33.1202 69.81 33.0502 69.78L31.1002 69C31.0702 68.99 31.0502 68.99 31.0202 69.01L29.1402 70.07C29.0702 70.11 29.0702 70.22 29.1502 70.25L31.1102 71.09C31.1402 71.1 31.1802 71.1 31.2002 71.08Z" fill="#D0E6F8"/>
<path d="M31.1704 70.8801L33.0804 69.7901L31.1404 69.0101C31.0904 68.9801 31.0304 68.9901 30.9904 69.0201L29.1504 70.0601L31.1704 70.8801Z" fill="#D0E6F8"/>
<path d="M33.9902 69.59L35.8502 68.47C35.9202 68.43 35.9102 68.32 35.8402 68.29L33.8902 67.51C33.8602 67.5 33.8402 67.5 33.8102 67.52L31.9302 68.58C31.8602 68.62 31.8602 68.73 31.9402 68.76L33.9002 69.6C33.9302 69.6 33.9602 69.6 33.9902 69.59Z" fill="#D0E6F8"/>
<path d="M33.9502 69.39L35.8602 68.3L33.9202 67.52C33.8702 67.49 33.8102 67.5 33.7702 67.53L31.9302 68.57L33.9502 69.39Z" fill="#D0E6F8"/>
<path d="M36.7102 68.01L38.5702 66.89C38.6402 66.85 38.6302 66.74 38.5602 66.71L36.6102 65.93C36.5802 65.92 36.5602 65.92 36.5302 65.94L34.6602 67C34.5902 67.04 34.5902 67.15 34.6702 67.18L36.6302 68.02C36.6602 68.03 36.6902 68.03 36.7102 68.01Z" fill="#D0E6F8"/>
<path d="M36.6802 67.82L38.5902 66.73L36.6502 65.95C36.6002 65.92 36.5402 65.93 36.5002 65.96L34.6602 67L36.6802 67.82Z" fill="#D0E6F8"/>
<path d="M39.3701 66.58L41.2301 65.46C41.3001 65.42 41.2901 65.31 41.2201 65.28L39.2701 64.5C39.2401 64.49 39.2201 64.49 39.1901 64.51L37.3101 65.57C37.2401 65.61 37.2401 65.72 37.3201 65.75L39.2801 66.59C39.3201 66.59 39.3501 66.59 39.3701 66.58Z" fill="#D0E6F8"/>
<path d="M39.3403 66.3801L41.2503 65.2901L39.3103 64.5101C39.2603 64.4801 39.2003 64.4901 39.1603 64.5201L37.3203 65.5601L39.3403 66.3801Z" fill="#D0E6F8"/>
<path d="M41.9204 65.08L43.7804 63.96C43.8504 63.92 43.8404 63.81 43.7704 63.78L41.8204 63C41.7904 62.99 41.7704 62.99 41.7404 63.01L39.8604 64.07C39.7904 64.11 39.7904 64.22 39.8704 64.25L41.8304 65.09C41.8604 65.09 41.8904 65.09 41.9204 65.08Z" fill="#D0E6F8"/>
<path d="M41.8804 64.88L43.7904 63.79L41.8503 63.01C41.8003 62.98 41.7404 62.99 41.7004 63.02L39.8604 64.06L41.8804 64.88Z" fill="#D0E6F8"/>
<path d="M44.6103 63.57L46.4703 62.45C46.5403 62.41 46.5303 62.3 46.4603 62.27L44.5103 61.49C44.4803 61.48 44.4603 61.48 44.4303 61.5L42.5503 62.56C42.4803 62.6 42.4803 62.71 42.5603 62.74L44.5203 63.58C44.5603 63.59 44.5903 63.59 44.6103 63.57Z" fill="#D0E6F8"/>
<path d="M44.5805 63.37L46.4905 62.28L44.5505 61.5C44.5005 61.47 44.4405 61.48 44.4005 61.51L42.5605 62.55L44.5805 63.37Z" fill="#D0E6F8"/>
<path d="M47.3501 62.04L49.2101 60.92C49.2801 60.88 49.2701 60.77 49.2001 60.74L47.2501 59.96C47.2201 59.95 47.2001 59.95 47.1701 59.97L45.2901 61.03C45.2201 61.07 45.2201 61.18 45.3001 61.21L47.2601 62.05C47.2901 62.05 47.3201 62.05 47.3501 62.04Z" fill="#D0E6F8"/>
<path d="M47.31 61.84L49.22 60.75L47.28 59.97C47.23 59.94 47.17 59.95 47.13 59.98L45.29 61.02L47.31 61.84Z" fill="#D0E6F8"/>
<path d="M50.1304 60.54L51.9904 59.42C52.0604 59.38 52.0504 59.27 51.9804 59.24L50.0304 58.46C50.0004 58.45 49.9804 58.45 49.9504 58.47L48.0704 59.53C48.0004 59.57 48.0004 59.68 48.0804 59.71L50.0404 60.55C50.0804 60.56 50.1104 60.56 50.1304 60.54Z" fill="#D0E6F8"/>
<path d="M50.1003 60.34L52.0003 59.26L50.0603 58.48C50.0103 58.45 49.9503 58.46 49.9103 58.49L48.0703 59.53L50.1003 60.34Z" fill="#D0E6F8"/>
<path d="M52.8603 58.97L54.7203 57.85C54.7903 57.81 54.7803 57.7 54.7103 57.67L52.7603 56.89C52.7303 56.88 52.7103 56.88 52.6803 56.9L50.8003 57.96C50.7303 58 50.7303 58.11 50.8103 58.14L52.7703 58.98C52.8003 58.98 52.8303 58.98 52.8603 58.97Z" fill="#D0E6F8"/>
<path d="M52.8203 58.77L54.7303 57.68L52.7903 56.9C52.7403 56.87 52.6803 56.88 52.6403 56.91L50.8003 57.95L52.8203 58.77Z" fill="#D0E6F8"/>
<path d="M55.52 57.53L57.38 56.41C57.45 56.37 57.44 56.26 57.37 56.23L55.42 55.45C55.39 55.44 55.37 55.44 55.34 55.46L53.46 56.52C53.39 56.56 53.39 56.67 53.47 56.7L55.43 57.54C55.46 57.55 55.49 57.55 55.52 57.53Z" fill="#D0E6F8"/>
<path d="M55.48 57.33L57.39 56.24L55.45 55.46C55.4 55.43 55.34 55.44 55.3 55.47L53.46 56.51L55.48 57.33Z" fill="#D0E6F8"/>
<path d="M58.06 56.03L59.92 54.91C59.99 54.87 59.98 54.76 59.91 54.73L57.96 53.95C57.93 53.94 57.91 53.94 57.88 53.96L56 55.02C55.93 55.06 55.93 55.17 56.01 55.2L57.97 56.04C58.01 56.05 58.04 56.05 58.06 56.03Z" fill="#D0E6F8"/>
<path d="M58.0303 55.83L59.9403 54.74L58.0003 53.96C57.9503 53.93 57.8903 53.94 57.8503 53.97L56.0103 55.01L58.0303 55.83Z" fill="#D0E6F8"/>
<path d="M60.5102 54.58L62.3702 53.46C62.4402 53.42 62.4302 53.31 62.3602 53.28L60.4102 52.5C60.3802 52.49 60.3602 52.49 60.3302 52.51L58.4502 53.57C58.3802 53.61 58.3802 53.72 58.4602 53.75L60.4202 54.59C60.4502 54.59 60.4802 54.59 60.5102 54.58Z" fill="#D0E6F8"/>
<path d="M60.4702 54.38L62.3802 53.29L60.4402 52.51C60.3902 52.48 60.3302 52.49 60.2902 52.52L58.4502 53.56L60.4702 54.38Z" fill="#D0E6F8"/>
<path d="M63.0202 53.18L64.8002 52.1C64.8702 52.06 64.8602 51.96 64.7902 51.93L62.9202 51.18C62.9002 51.17 62.8702 51.17 62.8502 51.19L61.0502 52.21C60.9802 52.25 60.9902 52.35 61.0602 52.38L62.9502 53.19C62.9702 53.2 62.9902 53.2 63.0202 53.18Z" fill="#D0E6F8"/>
<path d="M62.9903 52.9901L64.8203 51.94L62.9603 51.19C62.9103 51.16 62.8603 51.1701 62.8203 51.2001L61.0503 52.2001L62.9903 52.9901Z" fill="#D0E6F8"/>
<path d="M60.52 52.23L62.38 51.11C62.45 51.07 62.44 50.96 62.37 50.93L60.42 50.15C60.39 50.14 60.37 50.14 60.34 50.16L58.46 51.22C58.39 51.26 58.39 51.37 58.47 51.4L60.43 52.24C60.47 52.25 60.5 52.25 60.52 52.23Z" fill="#D0E6F8"/>
<path d="M60.4902 52.03L62.4002 50.94L60.4602 50.16C60.4102 50.13 60.3502 50.14 60.3102 50.17L58.4702 51.21L60.4902 52.03Z" fill="#D0E6F8"/>
<path d="M33.9902 72.14L35.8502 71.02C35.9202 70.98 35.9102 70.87 35.8402 70.84L33.8902 70.06C33.8602 70.05 33.8402 70.05 33.8102 70.07L31.9302 71.13C31.8602 71.17 31.8602 71.28 31.9402 71.31L33.9002 72.15C33.9302 72.15 33.9602 72.15 33.9902 72.14Z" fill="#D0E6F8"/>
<path d="M33.9502 71.94L35.8602 70.85L33.9202 70.07C33.8702 70.04 33.8102 70.05 33.7702 70.08L31.9302 71.12L33.9502 71.94Z" fill="#D0E6F8"/>
<path d="M36.7099 70.64L38.5699 69.52C38.6399 69.48 38.6299 69.37 38.5599 69.34L36.6099 68.56C36.5799 68.55 36.5599 68.55 36.5299 68.57L34.6499 69.63C34.5799 69.67 34.5799 69.78 34.6599 69.81L36.6199 70.65C36.6599 70.66 36.6899 70.65 36.7099 70.64Z" fill="#D0E6F8"/>
<path d="M36.6802 70.44L38.5902 69.35L36.6502 68.57C36.6002 68.54 36.5402 68.55 36.5002 68.58L34.6602 69.62L36.6802 70.44Z" fill="#D0E6F8"/>
<path d="M39.3301 69.07L41.1901 67.95C41.2601 67.91 41.2501 67.8 41.1801 67.77L39.2301 66.99C39.2001 66.98 39.1801 66.98 39.1501 67L37.2701 68.06C37.2001 68.1 37.2001 68.21 37.2801 68.24L39.2401 69.08C39.2801 69.08 39.3101 69.08 39.3301 69.07Z" fill="#D0E6F8"/>
<path d="M39.3003 68.87L41.2103 67.78L39.2703 67C39.2203 66.97 39.1603 66.98 39.1203 67.01L37.2803 68.05L39.3003 68.87Z" fill="#D0E6F8"/>
<path d="M42 67.58L43.86 66.46C43.93 66.42 43.92 66.31 43.85 66.28L41.9 65.5C41.87 65.49 41.85 65.49 41.82 65.51L39.94 66.57C39.87 66.61 39.87 66.72 39.95 66.75L41.91 67.59C41.94 67.6 41.97 67.59 42 67.58Z" fill="#D0E6F8"/>
<path d="M41.9599 67.3801L43.8699 66.2901L41.9299 65.5101C41.8799 65.4801 41.8199 65.4901 41.7799 65.5201L39.9399 66.5601L41.9599 67.3801Z" fill="#D0E6F8"/>
<path d="M44.5904 66.09L57.2404 59.01C57.4804 58.91 57.4204 58.73 57.2204 58.7L55.4604 58C55.4104 57.98 55.3604 57.98 55.3104 58.01L42.7204 65.15C42.5904 65.22 42.6104 65.41 42.7404 65.46L44.4404 66.1C44.4904 66.12 44.5404 66.12 44.5904 66.09Z" fill="#D0E6F8"/>
<path d="M44.5406 65.92L57.3206 58.83C57.3506 58.81 57.3506 58.76 57.3206 58.75L55.4606 58C55.4106 57.97 55.3506 57.98 55.3106 58.01L42.7206 65.14C42.6906 65.16 42.6906 65.21 42.7306 65.22L44.5006 65.92C44.5106 65.93 44.5206 65.93 44.5406 65.92Z" fill="#D0E6F8"/>
<path d="M58.06 58.57L59.92 57.45C59.99 57.41 59.98 57.3 59.91 57.27L57.96 56.49C57.93 56.48 57.91 56.48 57.88 56.5L56 57.56C55.93 57.6 55.93 57.71 56.01 57.74L57.97 58.58C58 58.59 58.03 58.59 58.06 58.57Z" fill="#D0E6F8"/>
<path d="M58.03 58.37L59.94 57.28L58 56.5C57.95 56.47 57.89 56.48 57.85 56.51L56 57.56L58.03 58.37Z" fill="#D0E6F8"/>
<path d="M60.6401 57.08L62.5001 55.96C62.5701 55.92 62.5601 55.81 62.4901 55.78L60.5401 55C60.5101 54.99 60.4901 54.99 60.4601 55.01L58.5801 56.07C58.5101 56.11 58.5101 56.22 58.5901 56.25L60.5501 57.09C60.5901 57.1 60.6201 57.1 60.6401 57.08Z" fill="#D0E6F8"/>
<path d="M60.6103 56.88L62.5203 55.79L60.5803 55.01C60.5303 54.98 60.4703 54.99 60.4303 55.02L58.5903 56.06L60.6103 56.88Z" fill="#D0E6F8"/>
<path d="M63.0102 55.65L64.8702 54.53C64.9402 54.49 64.9302 54.38 64.8602 54.35L62.9102 53.57C62.8802 53.56 62.8602 53.56 62.8302 53.58L60.9502 54.64C60.8802 54.68 60.8802 54.79 60.9602 54.82L62.9202 55.66C62.9502 55.67 62.9802 55.66 63.0102 55.65Z" fill="#D0E6F8"/>
<path d="M62.9702 55.45L64.8802 54.36L62.9402 53.58C62.8902 53.55 62.8302 53.56 62.7902 53.59L60.9502 54.63L62.9702 55.45Z" fill="#D0E6F8"/>
<path d="M65.3703 54.15L67.1303 53.09C67.2003 53.05 67.1903 52.95 67.1203 52.92L65.2803 52.18C65.2603 52.17 65.2303 52.17 65.2103 52.19L63.4403 53.2C63.3703 53.24 63.3803 53.34 63.4503 53.37L65.3103 54.16C65.3203 54.17 65.3503 54.17 65.3703 54.15Z" fill="#D0E6F8"/>
<path d="M65.3402 53.97L67.1402 52.94L65.3102 52.2C65.2602 52.17 65.2102 52.18 65.1702 52.21L63.4302 53.2L65.3402 53.97Z" fill="#D0E6F8"/>
<path d="M28.2402 73.09L30.3802 71.7101C30.5202 71.6301 30.5102 71.4501 30.3602 71.3901L28.4702 70.59C28.4202 70.57 28.3702 70.5701 28.3202 70.6001L26.2402 71.8501C26.1302 71.9401 26.1302 72.2101 26.2702 72.2501L28.0802 73.1001C28.1302 73.1301 28.1902 73.12 28.2402 73.09Z" fill="#D0E6F8"/>
<path d="M28.3804 72.78L30.3304 71.56C30.4004 71.52 30.3904 71.41 30.3204 71.38L28.4704 70.59C28.4204 70.55 28.3604 70.57 28.3104 70.6L26.3804 71.76C26.2704 71.83 26.2804 72 26.3904 72.06L27.9804 72.81C28.1204 72.87 28.2604 72.86 28.3804 72.78Z" fill="#D0E6F8"/>
<path d="M31.0503 74.1001L33.1903 72.7201C33.3303 72.6401 33.3203 72.4601 33.1703 72.4001L31.2803 71.6001C31.2303 71.5801 31.1803 71.5801 31.1303 71.6101L29.0503 72.8601C28.9403 72.9501 28.9403 73.2201 29.0803 73.2601L30.8903 74.1101C30.9503 74.1301 31.0103 74.1301 31.0503 74.1001Z" fill="#D0E6F8"/>
<path d="M31.1905 73.79L33.1405 72.57C33.2105 72.53 33.2005 72.42 33.1305 72.39L31.2805 71.6C31.2305 71.56 31.1705 71.58 31.1205 71.61L29.1905 72.77C29.0805 72.84 29.0905 73.01 29.2005 73.07L30.7905 73.82C30.9305 73.87 31.0805 73.86 31.1905 73.79Z" fill="#D0E6F8"/>
<path d="M17.5601 68.44L19.4301 67.33C19.5001 67.29 19.4901 67.18 19.4201 67.15L17.4801 66.35C17.4501 66.34 17.4301 66.34 17.4001 66.35L15.5201 67.4C15.4501 67.44 15.4501 67.55 15.5301 67.58L17.4901 68.44C17.5001 68.45 17.5301 68.45 17.5601 68.44Z" fill="#D0E6F8"/>
<path d="M17.53 68.24L19.45 67.17L17.52 66.37C17.47 66.34 17.41 66.35 17.37 66.38L15.52 67.41L17.53 68.24Z" fill="#D0E6F8"/>
<path d="M20.3101 66.92L22.1801 65.81C22.2501 65.77 22.2401 65.66 22.1701 65.63L20.2301 64.83C20.2001 64.82 20.1801 64.82 20.1501 64.83L18.2701 65.88C18.2001 65.92 18.2001 66.03 18.2801 66.06L20.2401 66.92C20.2501 66.94 20.2801 66.94 20.3101 66.92Z" fill="#D0E6F8"/>
<path d="M20.2703 66.73L22.1903 65.66L20.2603 64.86C20.2103 64.83 20.1503 64.84 20.1103 64.87L18.2603 65.9L20.2703 66.73Z" fill="#D0E6F8"/>
<path d="M23.1099 65.45L24.9799 64.34C25.0499 64.3 25.0399 64.19 24.9699 64.16L23.0299 63.36C22.9999 63.35 22.9799 63.35 22.9499 63.36L21.0699 64.41C20.9999 64.45 20.9999 64.56 21.0799 64.59L23.0399 65.45C23.0499 65.47 23.0799 65.47 23.1099 65.45Z" fill="#D0E6F8"/>
<path d="M23.0701 65.2601L24.9901 64.1901L23.0601 63.3901C23.0101 63.3601 22.9501 63.3701 22.9101 63.4001L21.0601 64.4301L23.0701 65.2601Z" fill="#D0E6F8"/>
<path d="M25.8501 63.9L27.7201 62.79C27.7901 62.75 27.7801 62.64 27.7101 62.61L25.7701 61.81C25.7401 61.8 25.7201 61.8 25.6901 61.81L23.8101 62.86C23.7401 62.9 23.7401 63.01 23.8201 63.04L25.7801 63.9C25.7901 63.92 25.8201 63.92 25.8501 63.9Z" fill="#D0E6F8"/>
<path d="M25.8201 63.71L27.7401 62.64L25.8101 61.84C25.7601 61.81 25.7001 61.82 25.6601 61.85L23.8101 62.88L25.8201 63.71Z" fill="#D0E6F8"/>
<path d="M28.52 62.49L30.39 61.38C30.46 61.34 30.45 61.23 30.38 61.2L28.44 60.4C28.41 60.39 28.39 60.39 28.36 60.4L26.48 61.45C26.41 61.49 26.41 61.6 26.49 61.63L28.45 62.49C28.46 62.51 28.49 62.51 28.52 62.49Z" fill="#D0E6F8"/>
<path d="M28.49 62.29L30.41 61.22L28.48 60.42C28.43 60.39 28.37 60.4 28.33 60.43L26.48 61.46L28.49 62.29Z" fill="#D0E6F8"/>
<path d="M31.0801 61.01L32.9501 59.9C33.0201 59.86 33.0101 59.75 32.9401 59.72L31.0001 58.92C30.9701 58.91 30.9501 58.91 30.9201 58.92L29.0401 59.97C28.9701 60.01 28.9701 60.12 29.0501 60.15L31.0101 61.01C31.0201 61.03 31.0501 61.03 31.0801 61.01Z" fill="#D0E6F8"/>
<path d="M31.0403 60.8201L32.9603 59.7501L31.0303 58.9501C30.9803 58.9201 30.9203 58.9301 30.8803 58.9601L29.0303 59.9901L31.0403 60.8201Z" fill="#D0E6F8"/>
<path d="M33.7803 59.53L35.6503 58.42C35.7203 58.38 35.7103 58.27 35.6403 58.24L33.7003 57.44C33.6703 57.43 33.6503 57.43 33.6203 57.44L31.7403 58.49C31.6703 58.53 31.6703 58.64 31.7503 58.67L33.7103 59.53C33.7303 59.55 33.7603 59.55 33.7803 59.53Z" fill="#D0E6F8"/>
<path d="M33.7502 59.33L35.6702 58.26L33.7402 57.46C33.6902 57.43 33.6302 57.44 33.5902 57.47L31.7402 58.5L33.7502 59.33Z" fill="#D0E6F8"/>
<path d="M36.5303 58.02L38.4003 56.91C38.4703 56.87 38.4603 56.76 38.3903 56.73L36.4503 55.93C36.4203 55.92 36.4003 55.92 36.3703 55.93L34.4903 56.98C34.4203 57.02 34.4203 57.13 34.5003 57.16L36.4603 58.02C36.4803 58.04 36.5103 58.04 36.5303 58.02Z" fill="#D0E6F8"/>
<path d="M36.5002 57.82L38.4202 56.75L36.4902 55.95C36.4402 55.92 36.3802 55.93 36.3402 55.96L34.4902 56.99L36.5002 57.82Z" fill="#D0E6F8"/>
<path d="M39.3301 56.55L41.2001 55.44C41.2701 55.4 41.2601 55.29 41.1901 55.26L39.2501 54.46C39.2201 54.45 39.2001 54.45 39.1701 54.46L37.2901 55.51C37.2201 55.55 37.2201 55.66 37.3001 55.69L39.2601 56.55C39.2801 56.57 39.3101 56.57 39.3301 56.55Z" fill="#D0E6F8"/>
<path d="M39.3 56.35L41.22 55.28L39.29 54.48C39.24 54.45 39.18 54.46 39.14 54.49L37.29 55.52L39.3 56.35Z" fill="#D0E6F8"/>
<path d="M42.0698 55L43.9398 53.89C44.0098 53.85 43.9998 53.74 43.9298 53.71L41.9898 52.91C41.9598 52.9 41.9398 52.9 41.9098 52.91L40.0298 53.96C39.9598 54 39.9598 54.11 40.0398 54.14L41.9998 55C42.0198 55.02 42.0498 55.02 42.0698 55Z" fill="#D0E6F8"/>
<path d="M42.0398 54.8L43.9598 53.73L42.0298 52.93C41.9798 52.9 41.9198 52.91 41.8798 52.94L40.0298 53.97L42.0398 54.8Z" fill="#D0E6F8"/>
<path d="M44.7402 53.59L46.6102 52.48C46.6802 52.44 46.6702 52.33 46.6002 52.3L44.6602 51.5C44.6302 51.49 44.6102 51.49 44.5802 51.5L42.7002 52.55C42.6302 52.59 42.6302 52.7 42.7102 52.73L44.6702 53.59C44.6902 53.6 44.7202 53.6 44.7402 53.59Z" fill="#D0E6F8"/>
<path d="M44.7102 53.39L46.6302 52.32L44.7002 51.52C44.6502 51.49 44.5902 51.5 44.5502 51.53L42.7002 52.56L44.7102 53.39Z" fill="#D0E6F8"/>
<path d="M47.3003 52.11L49.1703 51C49.2403 50.96 49.2303 50.85 49.1603 50.82L47.2203 50.02C47.1903 50.01 47.1703 50.01 47.1403 50.02L45.2603 51.07C45.1903 51.11 45.1903 51.22 45.2703 51.25L47.2303 52.11C47.2403 52.13 47.2703 52.12 47.3003 52.11Z" fill="#D0E6F8"/>
<path d="M47.2703 51.91L49.1903 50.84L47.2603 50.04C47.2103 50.01 47.1503 50.02 47.1103 50.05L45.2603 51.08L47.2703 51.91Z" fill="#D0E6F8"/>
<path d="M49.98 50.6L51.85 49.49C51.92 49.45 51.91 49.34 51.84 49.31L49.9 48.51C49.87 48.5 49.85 48.5 49.82 48.51L47.94 49.56C47.87 49.6 47.87 49.71 47.95 49.74L49.91 50.6C49.93 50.62 49.96 50.61 49.98 50.6Z" fill="#D0E6F8"/>
<path d="M49.9499 50.4L51.8699 49.33L49.9399 48.53C49.8899 48.5 49.8299 48.51 49.7899 48.54L47.9399 49.57L49.9499 50.4Z" fill="#D0E6F8"/>
<path d="M23.0801 67.88L24.9501 66.77C25.0201 66.73 25.0101 66.62 24.9401 66.59L23.0001 65.79C22.9701 65.78 22.9501 65.78 22.9201 65.79L21.0401 66.84C20.9701 66.88 20.9701 66.99 21.0501 67.02L23.0001 67.88C23.0301 67.89 23.0601 67.89 23.0801 67.88Z" fill="#D0E6F8"/>
<path d="M23.05 67.68L24.97 66.61L23.04 65.81C22.99 65.78 22.93 65.79 22.89 65.82L21.04 66.85L23.05 67.68Z" fill="#D0E6F8"/>
<path d="M25.8799 66.41L27.7499 65.3C27.8199 65.26 27.8099 65.15 27.7399 65.12L25.7999 64.32C25.7699 64.31 25.7499 64.31 25.7199 64.32L23.8399 65.37C23.7699 65.41 23.7699 65.52 23.8499 65.55L25.8099 66.41C25.8299 66.42 25.8599 66.42 25.8799 66.41Z" fill="#D0E6F8"/>
<path d="M25.8498 66.21L27.7698 65.14L25.8398 64.34C25.7898 64.31 25.7298 64.32 25.6898 64.35L23.8398 65.38L25.8498 66.21Z" fill="#D0E6F8"/>
<path d="M28.6201 64.86L30.4901 63.75C30.5601 63.71 30.5501 63.6 30.4801 63.57L28.5401 62.77C28.5101 62.76 28.4901 62.76 28.4601 62.77L26.5801 63.82C26.5101 63.86 26.5101 63.97 26.5901 64L28.5501 64.86C28.5701 64.87 28.6001 64.87 28.6201 64.86Z" fill="#D0E6F8"/>
<path d="M28.5901 64.66L30.5101 63.59L28.5801 62.79C28.5301 62.76 28.4701 62.77 28.4301 62.8L26.5801 63.83L28.5901 64.66Z" fill="#D0E6F8"/>
<path d="M31.3003 63.44L33.1703 62.33C33.2403 62.29 33.2303 62.18 33.1603 62.15L31.2203 61.35C31.1903 61.34 31.1703 61.34 31.1403 61.35L29.2603 62.4C29.1903 62.44 29.1903 62.55 29.2703 62.58L31.2303 63.44C31.2403 63.46 31.2703 63.46 31.3003 63.44Z" fill="#D0E6F8"/>
<path d="M31.2605 63.2501L33.1805 62.1801L31.2505 61.3801C31.2005 61.3501 31.1405 61.3601 31.1005 61.3901L29.2505 62.4201L31.2605 63.2501Z" fill="#D0E6F8"/>
<path d="M33.8501 61.96L35.7201 60.85C35.7901 60.81 35.7801 60.7 35.7101 60.67L33.7701 59.87C33.7401 59.86 33.7201 59.86 33.6901 59.87L31.8101 60.92C31.7401 60.96 31.7401 61.07 31.8201 61.1L33.7801 61.96C33.8001 61.98 33.8301 61.98 33.8501 61.96Z" fill="#D0E6F8"/>
<path d="M33.8201 61.77L35.7401 60.7L33.8101 59.9C33.7601 59.87 33.7001 59.88 33.6601 59.91L31.8101 60.94L33.8201 61.77Z" fill="#D0E6F8"/>
<path d="M36.5601 60.48L38.4301 59.37C38.5001 59.33 38.4901 59.22 38.4201 59.19L36.4801 58.39C36.4501 58.38 36.4301 58.38 36.4001 58.39L34.5201 59.44C34.4501 59.48 34.4501 59.59 34.5301 59.62L36.4901 60.48C36.5101 60.5 36.5401 60.5 36.5601 60.48Z" fill="#D0E6F8"/>
<path d="M36.53 60.29L38.45 59.22L36.52 58.42C36.47 58.39 36.41 58.4 36.37 58.43L34.52 59.46L36.53 60.29Z" fill="#D0E6F8"/>
<path d="M39.3101 58.97L41.1801 57.86C41.2501 57.82 41.2401 57.71 41.1701 57.68L39.2301 56.88C39.2001 56.87 39.1801 56.87 39.1501 56.88L37.2701 57.93C37.2001 57.97 37.2001 58.08 37.2801 58.11L39.2401 58.97C39.2501 58.99 39.2801 58.99 39.3101 58.97Z" fill="#D0E6F8"/>
<path d="M39.28 58.78L41.2 57.71L39.27 56.91C39.22 56.88 39.16 56.89 39.12 56.92L37.27 57.95L39.28 58.78Z" fill="#D0E6F8"/>
<path d="M42.1099 57.5L43.9799 56.39C44.0499 56.35 44.0399 56.24 43.9699 56.21L42.0299 55.41C41.9999 55.4 41.9799 55.4 41.9499 55.41L40.0699 56.46C39.9999 56.5 39.9999 56.61 40.0799 56.64L42.0399 57.5C42.0499 57.52 42.0799 57.52 42.1099 57.5Z" fill="#D0E6F8"/>
<path d="M42.0798 57.3101L43.9998 56.2401L42.0698 55.44C42.0198 55.41 41.9598 55.4201 41.9198 55.4501L40.0698 56.48L42.0798 57.3101Z" fill="#D0E6F8"/>
<path d="M44.8501 55.95L46.7201 54.84C46.7901 54.8 46.7801 54.69 46.7101 54.66L44.7701 53.86C44.7401 53.85 44.7201 53.85 44.6901 53.86L42.8101 54.91C42.7401 54.95 42.7401 55.06 42.8201 55.09L44.7801 55.95C44.7901 55.97 44.8201 55.97 44.8501 55.95Z" fill="#D0E6F8"/>
<path d="M44.8201 55.7501L46.7401 54.6801L44.8101 53.8801C44.7601 53.8501 44.7001 53.8601 44.6601 53.8901L42.8101 54.9201L44.8201 55.7501Z" fill="#D0E6F8"/>
<path d="M47.52 54.54L49.39 53.43C49.46 53.39 49.45 53.28 49.38 53.25L47.44 52.45C47.41 52.44 47.39 52.44 47.36 52.45L45.48 53.5C45.41 53.54 45.41 53.65 45.49 53.68L47.45 54.54C47.46 54.56 47.49 54.55 47.52 54.54Z" fill="#D0E6F8"/>
<path d="M47.49 54.34L49.41 53.27L47.48 52.47C47.43 52.44 47.37 52.45 47.33 52.48L45.48 53.51L47.49 54.34Z" fill="#D0E6F8"/>
<path d="M50.0801 53.06L51.9501 51.95C52.0201 51.91 52.0101 51.8 51.9401 51.77L50.0001 50.97C49.9701 50.96 49.9501 50.96 49.9201 50.97L48.0401 52.02C47.9701 52.06 47.9701 52.17 48.0501 52.2L50.0101 53.06C50.0201 53.08 50.0501 53.08 50.0801 53.06Z" fill="#D0E6F8"/>
<path d="M50.0403 52.86L51.9603 51.79L50.0303 50.99C49.9803 50.96 49.9203 50.97 49.8803 51L48.0303 52.03L50.0403 52.86Z" fill="#D0E6F8"/>
<path d="M52.7603 51.55L54.6303 50.44C54.7003 50.4 54.6903 50.29 54.6203 50.26L52.6803 49.46C52.6503 49.45 52.6303 49.45 52.6003 49.46L50.7203 50.51C50.6503 50.55 50.6503 50.66 50.7303 50.69L52.6903 51.55C52.7003 51.57 52.7303 51.57 52.7603 51.55Z" fill="#D0E6F8"/>
<path d="M52.7302 51.35L54.6502 50.28L52.7202 49.48C52.6702 49.45 52.6102 49.46 52.5702 49.49L50.7202 50.52L52.7302 51.35Z" fill="#D0E6F8"/>
<path d="M55.3701 50.06L57.2401 48.95C57.3101 48.91 57.3001 48.8 57.2301 48.77L55.2901 47.97C55.2601 47.96 55.2401 47.96 55.2101 47.97L53.3301 49.02C53.2601 49.06 53.2601 49.17 53.3401 49.2L55.3001 50.06C55.3101 50.08 55.3401 50.08 55.3701 50.06Z" fill="#D0E6F8"/>
<path d="M55.3303 49.86L57.2503 48.79L55.3203 48C55.2703 47.97 55.2103 47.98 55.1703 48.01L53.3203 49.04L55.3303 49.86Z" fill="#D0E6F8"/>
<path d="M25.8599 68.96L27.7299 67.85C27.7999 67.81 27.7899 67.7 27.7199 67.67L25.7799 66.87C25.7499 66.86 25.7299 66.86 25.6999 66.87L23.8199 67.92C23.7499 67.96 23.7499 68.07 23.8299 68.1L25.7899 68.96C25.7999 68.97 25.8299 68.97 25.8599 68.96Z" fill="#D0E6F8"/>
<path d="M25.8298 68.76L27.7498 67.69L25.8198 66.89C25.7698 66.86 25.7098 66.87 25.6698 66.9L23.8198 67.93L25.8298 68.76Z" fill="#D0E6F8"/>
<path d="M28.6001 67.48L30.4701 66.37C30.5401 66.33 30.5301 66.22 30.4601 66.19L28.5201 65.39C28.4901 65.38 28.4701 65.38 28.4401 65.39L26.5601 66.44C26.4901 66.48 26.4901 66.59 26.5701 66.62L28.5301 67.48C28.5401 67.5 28.5701 67.5 28.6001 67.48Z" fill="#D0E6F8"/>
<path d="M28.5701 67.28L30.4901 66.21L28.5601 65.41C28.5101 65.38 28.4501 65.39 28.4101 65.42L26.5601 66.45L28.5701 67.28Z" fill="#D0E6F8"/>
<path d="M31.23 65.93L33.1 64.82C33.17 64.78 33.16 64.67 33.09 64.64L31.15 63.84C31.12 63.83 31.1 63.83 31.07 63.84L29.19 64.89C29.12 64.93 29.12 65.04 29.2 65.07L31.16 65.93C31.18 65.95 31.21 65.95 31.23 65.93Z" fill="#D0E6F8"/>
<path d="M31.1999 65.73L33.1199 64.66L31.1899 63.86C31.1399 63.83 31.0799 63.84 31.0399 63.87L29.1899 64.9L31.1999 65.73Z" fill="#D0E6F8"/>
<path d="M33.9102 64.47L35.7802 63.36C35.8502 63.32 35.8402 63.21 35.7702 63.18L33.8302 62.38C33.8002 62.37 33.7802 62.37 33.7502 62.38L31.8702 63.43C31.8002 63.47 31.8002 63.58 31.8802 63.61L33.8402 64.47C33.8502 64.48 33.8802 64.48 33.9102 64.47Z" fill="#D0E6F8"/>
<path d="M33.8801 64.27L35.8001 63.2L33.8701 62.4C33.8201 62.37 33.7601 62.38 33.7201 62.41L31.8701 63.44L33.8801 64.27Z" fill="#D0E6F8"/>
<path d="M36.6499 63.04L38.5199 61.93C38.5899 61.89 38.5799 61.78 38.5099 61.75L36.5699 60.95C36.5399 60.94 36.5199 60.94 36.4899 60.95L34.6099 62C34.5399 62.04 34.5399 62.15 34.6199 62.18L36.5799 63.04C36.5899 63.06 36.6199 63.06 36.6499 63.04Z" fill="#D0E6F8"/>
<path d="M36.6199 62.84L38.5399 61.77L36.6099 60.97C36.5599 60.94 36.4999 60.95 36.4599 60.98L34.6099 62.01L36.6199 62.84Z" fill="#D0E6F8"/>
<path d="M39.29 61.54L41.16 60.43C41.23 60.39 41.22 60.28 41.15 60.25L39.21 59.45C39.18 59.44 39.16 59.44 39.13 59.45L37.25 60.5C37.18 60.54 37.18 60.65 37.26 60.68L39.22 61.54C39.24 61.56 39.27 61.56 39.29 61.54Z" fill="#D0E6F8"/>
<path d="M39.26 61.34L41.18 60.27L39.25 59.47C39.2 59.44 39.14 59.45 39.1 59.48L37.25 60.51L39.26 61.34Z" fill="#D0E6F8"/>
<path d="M42.0303 60.07L43.9003 58.96C43.9703 58.92 43.9603 58.81 43.8903 58.78L41.9503 57.98C41.9203 57.97 41.9003 57.97 41.8703 57.98L39.9903 59.03C39.9203 59.07 39.9203 59.18 40.0003 59.21L41.9603 60.07C41.9803 60.08 42.0103 60.08 42.0303 60.07Z" fill="#D0E6F8"/>
<path d="M42.0002 59.87L43.9202 58.8L41.9902 58C41.9402 57.97 41.8802 57.98 41.8402 58.01L39.9902 59.04L42.0002 59.87Z" fill="#D0E6F8"/>
<path d="M44.8198 58.59L46.6898 57.48C46.7598 57.44 46.7498 57.33 46.6798 57.3L44.7398 56.5C44.7098 56.49 44.6898 56.49 44.6598 56.5L42.7798 57.55C42.7098 57.59 42.7098 57.7 42.7898 57.73L44.7498 58.59C44.7698 58.6 44.7998 58.6 44.8198 58.59Z" fill="#D0E6F8"/>
<path d="M44.7898 58.39L46.7098 57.32L44.7798 56.52C44.7298 56.49 44.6698 56.5 44.6298 56.53L42.7798 57.56L44.7898 58.39Z" fill="#D0E6F8"/>
<path d="M47.5 57.08L49.37 55.97C49.44 55.93 49.43 55.82 49.36 55.79L47.42 54.99C47.39 54.98 47.37 54.98 47.34 54.99L45.46 56.04C45.39 56.08 45.39 56.19 45.47 56.22L47.43 57.08C47.45 57.09 47.48 57.09 47.5 57.08Z" fill="#D0E6F8"/>
<path d="M47.47 56.8801L49.39 55.8101L47.46 55.0101C47.41 54.9801 47.35 54.9901 47.31 55.0201L45.46 56.0501L47.47 56.8801Z" fill="#D0E6F8"/>
<path d="M50.0503 55.6L51.9203 54.49C51.9903 54.45 51.9803 54.34 51.9103 54.31L49.9703 53.51C49.9403 53.5 49.9203 53.5 49.8903 53.51L48.0103 54.56C47.9403 54.6 47.9403 54.71 48.0203 54.74L49.9803 55.6C50.0003 55.62 50.0303 55.62 50.0503 55.6Z" fill="#D0E6F8"/>
<path d="M50.0203 55.4L51.9403 54.33L50.0103 53.53C49.9603 53.5 49.9003 53.51 49.8603 53.54L48.0103 54.57L50.0203 55.4Z" fill="#D0E6F8"/>
<path d="M52.6501 54.14L54.5201 53.03C54.5901 52.99 54.5801 52.88 54.5101 52.85L52.5701 52.05C52.5401 52.04 52.5201 52.04 52.4901 52.05L50.6001 53.1C50.5301 53.14 50.5301 53.25 50.6101 53.28L52.5701 54.14C52.6001 54.15 52.6301 54.15 52.6501 54.14Z" fill="#D0E6F8"/>
<path d="M52.6201 53.94L54.5401 52.87L52.6101 52.07C52.5601 52.04 52.5001 52.05 52.4601 52.08L50.6001 53.1L52.6201 53.94Z" fill="#D0E6F8"/>
<path d="M55.3501 52.54L57.2201 51.43C57.2901 51.39 57.2801 51.28 57.2101 51.25L55.2701 50.45C55.2401 50.44 55.2201 50.44 55.1901 50.45L53.3101 51.5C53.2401 51.54 53.2401 51.65 53.3201 51.68L55.2801 52.54C55.3001 52.56 55.3301 52.56 55.3501 52.54Z" fill="#D0E6F8"/>
<path d="M55.3201 52.34L57.2401 51.27L55.3101 50.47C55.2601 50.44 55.2001 50.45 55.1601 50.48L53.3101 51.51L55.3201 52.34Z" fill="#D0E6F8"/>
<path d="M57.8701 51.2L59.7401 50.09C59.8101 50.05 59.8001 49.94 59.7301 49.91L57.7901 49.11C57.7601 49.1 57.7401 49.1 57.7101 49.11L55.8301 50.16C55.7601 50.2 55.7601 50.31 55.8401 50.34L57.8001 51.2C57.8201 51.21 57.8501 51.21 57.8701 51.2Z" fill="#D0E6F8"/>
<path d="M57.8401 51.0001L59.7601 49.9301L57.8301 49.1301C57.7801 49.1001 57.7201 49.1101 57.6801 49.1401L55.8301 50.1701L57.8401 51.0001Z" fill="#D0E6F8"/>
<path d="M52.4403 49.24L54.6003 47.88C54.7403 47.8 54.7303 47.63 54.5803 47.56L52.6903 46.74C52.6403 46.72 52.5903 46.72 52.5403 46.75L50.4503 47.98C50.3303 48.06 50.3403 48.33 50.4703 48.38L52.2803 49.25C52.3303 49.28 52.3903 49.27 52.4403 49.24Z" fill="#D0E6F8"/>
<path d="M52.5803 48.94L54.5503 47.74C54.6203 47.7 54.6103 47.59 54.5403 47.56L52.7003 46.76C52.6503 46.72 52.5903 46.73 52.5403 46.77L50.6003 47.9C50.4903 47.97 50.4903 48.14 50.6103 48.2L52.2003 48.96C52.3203 49.02 52.4603 49.01 52.5803 48.94Z" fill="#D0E6F8"/>
<path d="M20.1102 69.86L22.2702 68.5C22.4102 68.42 22.4002 68.25 22.2502 68.18L20.3602 67.36C20.3102 67.34 20.2602 67.34 20.2102 67.37L18.1202 68.6C18.0002 68.68 18.0102 68.95 18.1402 69L19.9502 69.87C20.0002 69.89 20.0602 69.89 20.1102 69.86Z" fill="#D0E6F8"/>
<path d="M20.2503 69.55L22.2203 68.35C22.2903 68.31 22.2803 68.2 22.2103 68.17L20.3703 67.37C20.3203 67.33 20.2603 67.34 20.2103 67.38L18.2703 68.52C18.1603 68.59 18.1603 68.76 18.2803 68.82L19.8703 69.58C19.9903 69.63 20.1303 69.63 20.2503 69.55Z" fill="#D0E6F8"/>
<path d="M22.91 70.89L25.07 69.53C25.21 69.45 25.2 69.28 25.05 69.21L23.16 68.39C23.11 68.37 23.06 68.37 23.01 68.4L20.92 69.63C20.8 69.71 20.81 69.98 20.94 70.03L22.75 70.9C22.8 70.92 22.86 70.92 22.91 70.89Z" fill="#D0E6F8"/>
<path d="M23.0501 70.58L25.0201 69.38C25.0901 69.34 25.0801 69.23 25.0101 69.2L23.1701 68.4C23.1201 68.36 23.0601 68.37 23.0101 68.41L21.0701 69.55C20.9601 69.62 20.9601 69.79 21.0801 69.85L22.6701 70.61C22.7901 70.66 22.9401 70.65 23.0501 70.58Z" fill="#D0E6F8"/>
</g>
<defs>
<clipPath id="clip0_339_887">
<rect width="90" height="90" fill="white"/>
</clipPath>
</defs>
</svg>
