<svg width="14" height="8" viewBox="0 0 14 8" fill="none" xmlns="http://www.w3.org/2000/svg">
<g clip-path="url(#clip0_222_1991)">
<path fill-rule="evenodd" clip-rule="evenodd" d="M7.27998 7.10999V7.51999C7.27998 7.56999 7.23998 7.61999 7.17998 7.61999H6.57998C6.52998 7.61999 6.47998 7.57999 6.47998 7.51999V7.10999H7.27998Z" fill="#FCA503"/>
<path fill-rule="evenodd" clip-rule="evenodd" d="M11.0602 1.91998V1.98998C11.0602 2.12998 10.9502 2.23998 10.8102 2.23998H8.41016V1.34998L10.8002 1.66998C10.9402 1.68998 11.0602 1.77998 11.0602 1.91998Z" fill="#FCCB02"/>
<path opacity="0.1" fill-rule="evenodd" clip-rule="evenodd" d="M9.90016 2.23998H8.41016V1.34998L9.31016 1.46998C9.54016 1.69998 9.74016 1.95998 9.90016 2.23998Z" fill="black"/>
<path fill-rule="evenodd" clip-rule="evenodd" d="M11.0602 5.98992V5.91992C11.0602 5.77992 10.9502 5.66992 10.8102 5.66992H8.41016V6.55992L10.8002 6.23992C10.9402 6.22992 11.0602 6.12992 11.0602 5.98992Z" fill="#FCCB02"/>
<path opacity="0.1" fill-rule="evenodd" clip-rule="evenodd" d="M9.91016 5.66992H8.41016V6.55992L9.31016 6.43992C9.55016 6.20992 9.75016 5.94992 9.91016 5.66992Z" fill="black"/>
<path d="M13.3603 2.26001H10.5503V5.66001H13.3603V2.26001Z" fill="#FCA503"/>
<path d="M10.8001 2.23999H10.3501V5.66999H10.8001V2.23999Z" fill="#FCCB02"/>
<path fill-rule="evenodd" clip-rule="evenodd" d="M2.70996 1.91998V1.98998C2.70996 2.12998 2.81996 2.23998 2.95996 2.23998H5.34996V1.34998L2.95996 1.66998C2.81996 1.68998 2.70996 1.77998 2.70996 1.91998Z" fill="#FCCB02"/>
<path fill-rule="evenodd" clip-rule="evenodd" d="M2.70996 5.98992V5.91992C2.70996 5.77992 2.81996 5.66992 2.95996 5.66992H5.34996V6.55992L2.95996 6.23992C2.81996 6.22992 2.70996 6.12992 2.70996 5.98992Z" fill="#FCCB02"/>
<path d="M3.22016 2.26001H0.410156V5.66001H3.22016V2.26001Z" fill="#FCA503"/>
<path d="M3.42021 2.23999H2.97021V5.66999H3.42021V2.23999Z" fill="#FCCB02"/>
<path opacity="0.1" fill-rule="evenodd" clip-rule="evenodd" d="M3.8501 2.23998H5.3501V1.34998L4.4501 1.46998C4.2101 1.69998 4.0101 1.95998 3.8501 2.23998Z" fill="black"/>
<path opacity="0.1" fill-rule="evenodd" clip-rule="evenodd" d="M3.8501 5.66992H5.3501V6.55992L4.4401 6.43992C4.2101 6.20992 4.0101 5.94992 3.8501 5.66992Z" fill="black"/>
<path d="M6.88002 7.31998C8.7357 7.31998 10.24 5.81565 10.24 3.95998C10.24 2.1043 8.7357 0.599976 6.88002 0.599976C5.02434 0.599976 3.52002 2.1043 3.52002 3.95998C3.52002 5.81565 5.02434 7.31998 6.88002 7.31998Z" fill="#FCCB02"/>
<path d="M6.88006 6.77001C8.4375 6.77001 9.70006 5.50745 9.70006 3.95C9.70006 2.39256 8.4375 1.13 6.88006 1.13C5.32262 1.13 4.06006 2.39256 4.06006 3.95C4.06006 5.50745 5.32262 6.77001 6.88006 6.77001Z" fill="#1A2423"/>
<path fill-rule="evenodd" clip-rule="evenodd" d="M9.23016 5.30998C9.24016 5.28998 9.24016 5.24998 9.21016 5.23998L8.90016 5.05998C8.88016 5.08998 8.86016 5.11998 8.85016 5.14998L9.17016 5.32998C9.19016 5.33998 9.22016 5.33998 9.23016 5.30998ZM9.18016 3.99998H9.55016C9.58016 3.99998 9.60016 3.97998 9.60016 3.94998C9.60016 3.91998 9.58016 3.89998 9.55016 3.89998H9.18016C9.18016 3.91998 9.18016 3.92998 9.18016 3.94998C9.18016 3.96998 9.18016 3.97998 9.18016 3.99998ZM8.90016 2.83998L9.22016 2.65998C9.24016 2.64998 9.25016 2.60998 9.24016 2.58998C9.22016 2.55998 9.19016 2.55998 9.16016 2.56998L8.85016 2.74998C8.86016 2.77998 8.88016 2.80998 8.90016 2.83998ZM8.07016 1.97998L8.25016 1.65998C8.26016 1.63998 8.26016 1.59998 8.23016 1.58998C8.21016 1.57998 8.18016 1.58998 8.17016 1.60998L7.98016 1.92998C8.01016 1.94998 8.04016 1.95998 8.07016 1.97998ZM6.93016 1.64998V1.27998C6.93016 1.24998 6.91016 1.22998 6.88016 1.22998C6.85016 1.22998 6.83016 1.24998 6.83016 1.27998V1.64998C6.85016 1.64998 6.86016 1.64998 6.88016 1.64998C6.89016 1.64998 6.91016 1.64998 6.93016 1.64998ZM5.77016 1.92998L5.59016 1.60998C5.57016 1.58998 5.54016 1.57998 5.52016 1.58998C5.49016 1.60998 5.48016 1.63998 5.50016 1.65998L5.69016 1.97998C5.71016 1.95998 5.74016 1.94998 5.77016 1.92998ZM4.91016 2.74998L4.59016 2.56998C4.56016 2.55998 4.53016 2.55998 4.52016 2.58998C4.50016 2.60998 4.51016 2.63998 4.54016 2.65998L4.86016 2.84998C4.88016 2.80998 4.89016 2.77998 4.91016 2.74998ZM4.58016 3.89998H4.21016C4.18016 3.89998 4.16016 3.91998 4.16016 3.94998C4.16016 3.97998 4.18016 3.99998 4.21016 3.99998H4.58016C4.58016 3.97998 4.58016 3.96998 4.58016 3.94998C4.58016 3.92998 4.58016 3.91998 4.58016 3.89998ZM4.86016 5.05998L4.54016 5.23998C4.51016 5.24998 4.50016 5.28998 4.52016 5.30998C4.53016 5.32998 4.57016 5.33998 4.59016 5.32998L4.91016 5.13998C4.89016 5.11998 4.88016 5.08998 4.86016 5.05998ZM5.68016 5.91998L5.50016 6.23998C5.48016 6.25998 5.49016 6.28998 5.52016 6.30998C5.54016 6.31998 5.58016 6.31998 5.59016 6.28998L5.78016 5.96998C5.74016 5.94998 5.71016 5.92998 5.68016 5.91998ZM6.83016 6.24998V6.61998C6.83016 6.64998 6.85016 6.66998 6.88016 6.66998C6.91016 6.66998 6.93016 6.64998 6.93016 6.61998V6.24998C6.91016 6.24998 6.90016 6.24998 6.88016 6.24998C6.86016 6.24998 6.84016 6.24998 6.83016 6.24998ZM7.98016 5.96998L8.16016 6.28998C8.18016 6.30998 8.21016 6.31998 8.24016 6.30998C8.26016 6.29998 8.27016 6.25998 8.26016 6.23998L8.07016 5.91998C8.04016 5.93998 8.01016 5.94998 7.98016 5.96998Z" fill="#FCCB02"/>
<path fill-rule="evenodd" clip-rule="evenodd" d="M7.68018 2.52994L6.96018 3.89994C6.94018 3.86994 6.91018 3.84994 6.88018 3.83994L7.59018 2.47994C7.63018 2.41994 7.70018 2.47994 7.68018 2.52994ZM6.89018 4.03994L6.76018 4.28994C6.72018 4.34994 6.63018 4.31994 6.67018 4.23994L6.80018 3.98994C6.82018 4.01994 6.85018 4.02994 6.89018 4.03994Z" fill="#FCCB02"/>
<path fill-rule="evenodd" clip-rule="evenodd" d="M7.98018 5.75994L6.98018 3.97994C6.96018 4.00994 6.93018 4.02994 6.90018 4.03994L7.90018 5.80994C7.92018 5.85994 8.01018 5.81994 7.98018 5.75994ZM6.91018 3.85994L6.76018 3.58994C6.72018 3.52994 6.63018 3.56994 6.67018 3.63994L6.81018 3.88994C6.84018 3.86994 6.87018 3.85994 6.91018 3.85994Z" fill="#FCCB02"/>
<path fill-rule="evenodd" clip-rule="evenodd" d="M6.99002 3.94997C6.99002 4.00997 6.94002 4.05997 6.88002 4.05997C6.82002 4.05997 6.77002 4.00997 6.77002 3.94997C6.77002 3.88997 6.82002 3.83997 6.88002 3.83997C6.94002 3.83997 6.99002 3.88997 6.99002 3.94997Z" fill="#FDDA0D"/>
<path fill-rule="evenodd" clip-rule="evenodd" d="M5.38004 2.74993L6.83004 3.89993C6.86004 3.87993 6.90004 3.86993 6.93004 3.89993C6.96004 3.91993 6.97004 3.95993 6.95004 3.99993L7.04004 4.06993C7.05004 4.05993 7.06004 4.05993 7.07004 4.06993L7.22004 4.18993C7.23004 4.19993 7.23004 4.20993 7.22004 4.21993L7.20004 4.22993C7.19004 4.23993 7.18004 4.23993 7.17004 4.22993L7.02004 4.11993C7.01004 4.10993 7.01004 4.09993 7.01004 4.08993V4.07993L6.93004 4.00993C6.90004 4.02993 6.86004 4.03993 6.83004 4.00993C6.80004 3.98993 6.79004 3.94993 6.81004 3.90993L5.36004 2.76993C5.35004 2.76993 5.35004 2.74993 5.36004 2.74993C5.37004 2.74993 5.37004 2.73993 5.38004 2.74993Z" fill="#FCB103"/>
</g>
<defs>
<clipPath id="clip0_222_1991">
<rect width="12.95" height="7.02" fill="white" transform="translate(0.410156 0.599976)"/>
</clipPath>
</defs>
</svg>
