<svg width="90" height="90" viewBox="0 0 90 90" fill="none" xmlns="http://www.w3.org/2000/svg">
<g clip-path="url(#clip0_339_1378)">
<path d="M54.45 49.52H36.5V40.92L44.85 42.02L54.45 40.92V49.52Z" fill="#B27B2B"/>
<path d="M57.4998 43.83C57.2498 43.67 56.9698 43.59 56.6998 43.57C57.1198 42.92 57.0598 42.04 56.5098 41.45C55.8598 40.76 54.7598 40.73 54.0698 41.38L53.6398 41.79C53.4498 41.97 52.8098 42.49 51.0098 43.42C49.3998 44.26 47.6298 45 45.8498 45.02C44.7898 45.03 43.5698 44.98 42.2298 44.86C40.3998 44.7 38.7198 43.8 37.4298 42.8C37.0898 42.54 36.7698 42.24 36.4698 41.93C38.5798 43.41 41.5898 43.97 45.4798 43.97C50.6698 43.97 54.6598 40.91 54.8198 40.77C55.5298 40.14 55.6098 39.06 54.9798 38.34C54.3598 37.62 53.2698 37.55 52.5498 38.17C52.5198 38.2 49.3498 40.9 45.4798 40.9C42.8798 40.9 39.4198 40.47 37.7098 38.44L37.6198 38.33C36.9898 37.62 35.8998 37.55 35.1898 38.18C34.4798 38.81 34.4098 39.9 35.0398 40.61L35.0898 40.67C35.1998 40.8 35.3198 40.93 35.4398 41.05C34.8598 40.8 34.1598 40.88 33.6498 41.32C32.9898 41.89 32.8698 42.85 33.3298 43.56C33.0698 43.58 32.8098 43.65 32.5598 43.79C31.7398 44.28 31.4798 45.34 31.9698 46.16C34.3498 50.13 38.9298 52.17 45.5798 52.22C45.6198 52.22 45.6598 52.22 45.6998 52.22C52.0798 52.22 56.8498 48.1 58.0598 46.2C58.5398 45.41 58.2998 44.35 57.4998 43.83ZM45.5798 49.17C41.1198 49.17 38.2598 48.06 36.3898 46.27C37.9998 47.24 39.8798 47.85 41.8998 48.02C43.1998 48.14 44.4098 48.19 45.4898 48.19C45.6198 48.19 45.7498 48.19 45.8798 48.19C48.1898 48.16 50.5098 47.57 52.5998 46.49C52.9898 46.29 53.3498 46.09 53.6798 45.9C52.0798 47.33 49.2798 49.16 45.6698 49.16C45.6398 49.17 45.6098 49.17 45.5798 49.17Z" fill="#FEBD3F"/>
<path d="M54.9801 38.36C54.3601 37.65 53.2701 37.57 52.5501 38.19C52.5501 38.19 52.4001 38.32 52.1401 38.51C53.2101 38.75 54.0201 39.71 54.0201 40.86C54.0201 41.05 53.9901 41.22 53.9501 41.4C54.4801 41.07 54.7901 40.83 54.8301 40.79C55.5301 40.16 55.6001 39.08 54.9801 38.36ZM57.5001 43.83C57.2501 43.67 56.9701 43.59 56.7001 43.57C57.1201 42.92 57.0601 42.04 56.5101 41.45C55.8501 40.76 54.7701 40.73 54.0701 41.39L53.9001 41.55C54.9101 41.83 55.6601 42.75 55.6601 43.85C55.6601 44.17 55.6001 44.47 55.4801 44.74C56.5701 44.87 57.4501 45.72 57.5901 46.8C57.7701 46.58 57.9201 46.39 58.0301 46.21C58.5401 45.41 58.3001 44.35 57.5001 43.83ZM38.1901 38.95C38.0201 38.8 37.8501 38.63 37.7101 38.46L37.6201 38.35C36.9901 37.64 35.9001 37.57 35.1901 38.2C34.4801 38.83 34.4101 39.92 35.0401 40.63L35.0801 40.68C35.1901 40.81 35.3101 40.94 35.4301 41.06C34.8401 40.81 34.1501 40.89 33.6401 41.33C32.9701 41.9 32.8601 42.86 33.3201 43.57C33.0501 43.59 32.7901 43.66 32.5501 43.8C31.7301 44.29 31.4701 45.35 31.9601 46.17C32.2201 46.6 32.5001 47 32.8101 47.39C32.8801 46.22 33.7901 45.29 34.9401 45.16C34.8301 44.88 34.7601 44.58 34.7601 44.27C34.7601 43.17 35.5001 42.26 36.5001 41.97C36.4901 41.96 36.4901 41.96 36.4801 41.95C36.4901 41.96 36.5001 41.96 36.5101 41.97C36.4501 41.75 36.4001 41.52 36.4001 41.28C36.3901 40.16 37.1501 39.22 38.1901 38.95Z" fill="#DEA036"/>
<path d="M44.42 42.93C41.23 42.93 39.92 41.97 39.78 41.86C39.53 41.66 39.4801 41.29 39.6801 41.04C39.8801 40.79 40.2401 40.75 40.4901 40.94C40.5201 40.96 41.64 41.76 44.41 41.76C44.73 41.76 44.9901 42.02 44.9901 42.34C44.9901 42.66 44.74 42.93 44.42 42.93Z" fill="#FFEED2"/>
<path d="M44.2598 47.23C40.2198 47.23 38.5698 46.01 38.3898 45.88C38.0698 45.63 38.0198 45.16 38.2698 44.84C38.5198 44.52 38.9798 44.47 39.2998 44.71C39.3398 44.74 40.7598 45.75 44.2598 45.75C44.6698 45.75 44.9998 46.08 44.9998 46.49C44.9998 46.9 44.6698 47.23 44.2598 47.23Z" fill="#FFEED2"/>
<path d="M43.7403 51.26C39.7003 51.26 38.0503 50.04 37.8703 49.91C37.5503 49.66 37.5003 49.19 37.7503 48.87C38.0003 48.55 38.4603 48.5 38.7803 48.74C38.8203 48.77 40.2403 49.78 43.7403 49.78C44.1503 49.78 44.4803 50.11 44.4803 50.52C44.4803 50.93 44.1503 51.26 43.7403 51.26Z" fill="#FFEED2"/>
</g>
<defs>
<clipPath id="clip0_339_1378">
<rect width="90" height="90" fill="white"/>
</clipPath>
</defs>
</svg>
