<svg width="90" height="90" viewBox="0 0 90 90" fill="none" xmlns="http://www.w3.org/2000/svg">
<g clip-path="url(#clip0_339_1391)">
<path fill-rule="evenodd" clip-rule="evenodd" d="M45.3898 48V48.41C45.3898 48.46 45.3498 48.51 45.2898 48.51H44.6898C44.6398 48.51 44.5898 48.47 44.5898 48.41V48H45.3898Z" fill="#FCA503"/>
<path fill-rule="evenodd" clip-rule="evenodd" d="M49.1698 42.81V42.88C49.1698 43.02 49.0598 43.13 48.9198 43.13H46.5298V42.24L48.9198 42.56C49.0598 42.58 49.1698 42.67 49.1698 42.81Z" fill="#FCCB02"/>
<path opacity="0.1" fill-rule="evenodd" clip-rule="evenodd" d="M48.0198 43.13H46.5298V42.24L47.4198 42.36C47.6598 42.59 47.8598 42.85 48.0198 43.13Z" fill="black"/>
<path fill-rule="evenodd" clip-rule="evenodd" d="M49.1698 46.88V46.81C49.1698 46.67 49.0598 46.56 48.9198 46.56H46.5298V47.45L48.9198 47.13C49.0598 47.12 49.1698 47.02 49.1698 46.88Z" fill="#FCCB02"/>
<path opacity="0.1" fill-rule="evenodd" clip-rule="evenodd" d="M48.0198 46.56H46.5298V47.45L47.4298 47.33C47.6598 47.1 47.8598 46.84 48.0198 46.56Z" fill="black"/>
<path d="M51.4697 43.15H48.6597V46.55H51.4697V43.15Z" fill="#FCA503"/>
<path d="M48.91 43.13H48.46V46.56H48.91V43.13Z" fill="#FCCB02"/>
<path fill-rule="evenodd" clip-rule="evenodd" d="M40.8296 42.81V42.88C40.8296 43.02 40.9396 43.13 41.0796 43.13H43.4696V42.24L41.0796 42.56C40.9396 42.58 40.8296 42.67 40.8296 42.81Z" fill="#FCCB02"/>
<path fill-rule="evenodd" clip-rule="evenodd" d="M40.8296 46.88V46.81C40.8296 46.67 40.9396 46.56 41.0796 46.56H43.4696V47.45L41.0796 47.13C40.9396 47.12 40.8296 47.02 40.8296 46.88Z" fill="#FCCB02"/>
<path d="M41.3398 43.15H38.5298V46.55H41.3398V43.15Z" fill="#FCA503"/>
<path d="M41.5398 43.13H41.0898V46.56H41.5398V43.13Z" fill="#FCCB02"/>
<path opacity="0.1" fill-rule="evenodd" clip-rule="evenodd" d="M41.9697 43.13H43.4697V42.24L42.5597 42.36C42.3297 42.59 42.1297 42.85 41.9697 43.13Z" fill="black"/>
<path opacity="0.1" fill-rule="evenodd" clip-rule="evenodd" d="M41.9697 46.56H43.4697V47.45L42.5597 47.33C42.3297 47.1 42.1297 46.84 41.9697 46.56Z" fill="black"/>
<path d="M44.9899 48.21C46.8456 48.21 48.3499 46.7057 48.3499 44.85C48.3499 42.9943 46.8456 41.49 44.9899 41.49C43.1342 41.49 41.6299 42.9943 41.6299 44.85C41.6299 46.7057 43.1342 48.21 44.9899 48.21Z" fill="#FCCB02"/>
<path d="M44.9899 47.66C46.5474 47.66 47.8099 46.3975 47.8099 44.84C47.8099 43.2826 46.5474 42.02 44.9899 42.02C43.4325 42.02 42.1699 43.2826 42.1699 44.84C42.1699 46.3975 43.4325 47.66 44.9899 47.66Z" fill="#1A2423"/>
<path fill-rule="evenodd" clip-rule="evenodd" d="M47.35 46.2C47.36 46.18 47.36 46.14 47.33 46.13L47.01 45.95C46.99 45.98 46.98 46.01 46.96 46.04L47.28 46.22C47.31 46.23 47.34 46.23 47.35 46.2ZM47.3 44.89H47.67C47.7 44.89 47.72 44.87 47.72 44.84C47.72 44.81 47.7 44.79 47.67 44.79H47.3C47.3 44.81 47.3 44.82 47.3 44.84C47.3 44.86 47.3 44.87 47.3 44.89ZM47.01 43.73L47.33 43.55C47.35 43.54 47.36 43.5 47.35 43.48C47.34 43.46 47.3 43.45 47.28 43.46L46.96 43.64C46.98 43.67 47 43.7 47.01 43.73ZM46.19 42.87L46.37 42.55C46.38 42.53 46.38 42.49 46.35 42.48C46.33 42.47 46.29 42.47 46.28 42.5L46.1 42.82C46.13 42.84 46.16 42.85 46.19 42.87ZM45.04 42.54V42.17C45.04 42.14 45.02 42.12 44.99 42.12C44.96 42.12 44.94 42.14 44.94 42.17V42.54C44.96 42.54 44.97 42.54 44.99 42.54C45.01 42.54 45.03 42.54 45.04 42.54ZM43.89 42.82L43.7 42.5C43.69 42.48 43.65 42.47 43.63 42.48C43.61 42.49 43.6 42.53 43.61 42.55L43.8 42.87C43.83 42.85 43.86 42.84 43.89 42.82ZM43.03 43.64L42.71 43.45C42.69 43.44 42.65 43.44 42.64 43.47C42.63 43.49 42.63 43.53 42.66 43.54L42.98 43.73C42.99 43.7 43.01 43.67 43.03 43.64ZM42.69 44.79H42.32C42.29 44.79 42.27 44.81 42.27 44.84C42.27 44.87 42.29 44.89 42.32 44.89H42.69C42.69 44.87 42.69 44.86 42.69 44.84C42.69 44.82 42.69 44.8 42.69 44.79ZM42.98 45.95L42.66 46.14C42.64 46.15 42.63 46.19 42.64 46.21C42.65 46.23 42.69 46.24 42.71 46.23L43.03 46.04C43.01 46.01 42.99 45.98 42.98 45.95ZM43.8 46.81L43.61 47.13C43.6 47.15 43.6 47.19 43.63 47.2C43.65 47.21 43.69 47.21 43.7 47.18L43.89 46.86C43.86 46.84 43.83 46.82 43.8 46.81ZM44.94 47.14V47.51C44.94 47.54 44.96 47.56 44.99 47.56C45.02 47.56 45.04 47.54 45.04 47.51V47.14C45.02 47.14 45.01 47.14 44.99 47.14C44.98 47.14 44.96 47.14 44.94 47.14ZM46.1 46.86L46.28 47.18C46.29 47.2 46.33 47.21 46.35 47.2C46.37 47.19 46.38 47.15 46.37 47.13L46.19 46.81C46.16 46.83 46.13 46.84 46.1 46.86Z" fill="#FCCB02"/>
<path fill-rule="evenodd" clip-rule="evenodd" d="M45.7998 43.42L45.0798 44.79C45.0598 44.76 45.0298 44.74 44.9998 44.73L45.7098 43.37C45.7398 43.31 45.8198 43.37 45.7998 43.42ZM44.9998 44.93L44.8698 45.18C44.8398 45.24 44.7398 45.21 44.7798 45.13L44.9098 44.88C44.9398 44.91 44.9698 44.92 44.9998 44.93Z" fill="#FCCB02"/>
<path fill-rule="evenodd" clip-rule="evenodd" d="M46.0898 46.65L45.0898 44.87C45.0698 44.9 45.0398 44.92 45.0098 44.94L46.0098 46.71C46.0398 46.75 46.1298 46.71 46.0898 46.65ZM45.0198 44.75L44.8698 44.48C44.8398 44.42 44.7398 44.45 44.7798 44.53L44.9198 44.78C44.9498 44.76 44.9898 44.75 45.0198 44.75Z" fill="#FCCB02"/>
<path fill-rule="evenodd" clip-rule="evenodd" d="M45.0999 44.84C45.0999 44.9 45.0499 44.95 44.9899 44.95C44.9299 44.95 44.8799 44.9 44.8799 44.84C44.8799 44.78 44.9299 44.73 44.9899 44.73C45.0499 44.73 45.0999 44.78 45.0999 44.84Z" fill="#FDDA0D"/>
<path fill-rule="evenodd" clip-rule="evenodd" d="M43.4999 43.64L44.9499 44.79C44.9799 44.77 45.0199 44.76 45.0499 44.79C45.0799 44.81 45.0899 44.85 45.0699 44.89L45.1599 44.96C45.1699 44.95 45.1799 44.95 45.1899 44.96L45.3399 45.08C45.3499 45.09 45.3499 45.1 45.3399 45.11L45.3099 45.14C45.2999 45.15 45.2899 45.15 45.2799 45.14L45.1299 45.02C45.1199 45.01 45.1199 45 45.1299 44.99V44.98L45.0399 44.91C45.0099 44.93 44.9699 44.94 44.9399 44.91C44.9099 44.89 44.8999 44.85 44.9199 44.81L43.4699 43.66C43.4599 43.66 43.4599 43.64 43.4699 43.64C43.4799 43.64 43.4899 43.63 43.4999 43.64Z" fill="#FCB103"/>
</g>
<defs>
<clipPath id="clip0_339_1391">
<rect width="90" height="90" fill="white"/>
</clipPath>
</defs>
</svg>
