<svg width="133" height="254" viewBox="0 0 133 254" fill="none" xmlns="http://www.w3.org/2000/svg">
<g clip-path="url(#clip0_224_3561)">
<path d="M88.1798 243.09C103.047 243.09 115.1 222.065 115.1 196.13C115.1 170.195 103.047 149.17 88.1798 149.17C73.3123 149.17 61.2598 170.195 61.2598 196.13C61.2598 222.065 73.3123 243.09 88.1798 243.09Z" fill="#808080"/>
<path d="M123.42 253.8C118.21 253.8 114.12 246.87 114.12 238.01C114.12 229.16 118.2 222.22 123.42 222.22C128.63 222.22 132.72 229.15 132.72 238.01C132.72 246.87 128.63 253.8 123.42 253.8ZM123.42 226.23C120.92 226.23 118.12 231.27 118.12 238.02C118.12 244.77 120.92 249.81 123.42 249.81C125.92 249.81 128.72 244.77 128.72 238.02C128.72 231.27 125.92 226.23 123.42 226.23Z" fill="#686868"/>
<path d="M123.42 249.81C126.866 249.81 129.66 244.531 129.66 238.02C129.66 231.508 126.866 226.23 123.42 226.23C119.973 226.23 117.18 231.508 117.18 238.02C117.18 244.531 119.973 249.81 123.42 249.81Z" fill="#CFCFCF"/>
<path d="M87.6302 253.8C71.1002 253.8 58.1602 228.14 58.1602 195.37C58.1602 162.61 71.1102 136.94 87.6302 136.94C104.16 136.94 117.1 162.6 117.1 195.37C117.1 228.14 104.16 253.8 87.6302 253.8ZM87.6302 140.95C73.8202 140.95 62.1602 165.87 62.1602 195.38C62.1602 224.88 73.8202 249.81 87.6302 249.81C101.44 249.81 113.1 224.89 113.1 195.38C113.1 165.88 101.44 140.95 87.6302 140.95Z" fill="#686868"/>
<path d="M123.42 232C123.4 232 123.39 232 123.37 232C122.27 231.97 121.39 231.06 121.42 229.95C121.44 229.16 121.45 218.69 121.44 217.69C121.27 179.21 92.92 170.57 92.63 170.49C91.57 170.18 90.96 169.07 91.26 168.01C91.57 166.95 92.68 166.33 93.74 166.64C94.06 166.73 125.26 176.22 125.44 217.67C125.44 218.25 125.44 229.13 125.41 230.05C125.39 231.13 124.5 232 123.42 232Z" fill="#CFCFCF"/>
<path d="M119.65 169.56H41.0098V158.27H108.35C114.59 158.27 119.65 163.32 119.65 169.56Z" fill="#808080"/>
<path d="M84.6301 96.83H27.3101V158.36H84.6301V96.83Z" fill="#9F9F9F"/>
<path d="M52.1998 31.8299C55.5743 31.8299 58.3098 29.0944 58.3098 25.7199C58.3098 22.3455 55.5743 19.6099 52.1998 19.6099C48.8254 19.6099 46.0898 22.3455 46.0898 25.7199C46.0898 29.0944 48.8254 31.8299 52.1998 31.8299Z" fill="#A19696"/>
<path d="M50.9196 22.5899C49.2196 22.6699 47.8696 24.0699 47.8696 25.7799H50.9196V22.5899Z" fill="#8B7979"/>
<path d="M84.5099 31.8299C87.8844 31.8299 90.6199 29.0944 90.6199 25.7199C90.6199 22.3455 87.8844 19.6099 84.5099 19.6099C81.1354 19.6099 78.3999 22.3455 78.3999 25.7199C78.3999 29.0944 81.1354 31.8299 84.5099 31.8299Z" fill="#A29797"/>
<path d="M89.23 25.7199C89.15 24.0199 87.75 22.6699 86.04 22.6699V25.7199H89.23Z" fill="#8B7979"/>
<path d="M74.6697 48.7H63.1797V62.2299H74.6697V48.7Z" fill="#BDBDBD"/>
<path d="M63.1797 53.6499C64.9697 54.2799 67.1597 54.6599 69.5297 54.6599C71.3897 54.6599 73.1397 54.4299 74.6697 54.0299V47.2599H63.1797V53.6499Z" fill="#8B7979"/>
<path d="M68.4097 51.3799C59.4597 51.3799 52.1997 44.1199 52.1997 35.1699V16.2699C52.1997 7.31994 59.4597 0.0599365 68.4097 0.0599365C77.3597 0.0599365 84.6197 7.31994 84.6197 16.2699V35.1599C84.6297 44.1199 77.3697 51.3799 68.4097 51.3799Z" fill="#BDBDBD"/>
<path d="M55.21 35.17V6.88995C53.33 9.53995 52.21 12.77 52.21 16.27V35.16C52.21 44.11 59.47 51.37 68.42 51.37C68.93 51.37 69.43 51.34 69.92 51.29C61.67 50.54 55.21 43.61 55.21 35.17Z" fill="#8B7979"/>
<path d="M87.6299 74.61V104.8H44.6499V74.61C44.6499 73.72 44.7299 72.84 44.8999 72C45.7899 67.31 48.0599 63.4699 52.3999 61.7799C53.9599 61.1599 55.6599 60.8199 57.4399 60.8199H73.8499C81.4599 60.8199 87.6299 66.99 87.6299 74.61Z" fill="#BDBDBD"/>
<path d="M24.7899 84.9799C24.7699 85.2299 24.7999 85.2499 24.8099 85.1899C24.7999 85.1099 24.7999 85.0499 24.7999 84.9999C24.7999 84.9999 24.7999 84.9899 24.7899 84.9799Z" fill="#BDBDBD"/>
<path d="M34.0898 72.0299C33.1598 71.4399 31.9198 71.7099 31.3298 72.6399L29.1698 75.8199C28.9698 76.1099 28.5198 75.9999 28.4798 75.6499L27.9698 71.7099L29.5998 59.1099C29.7298 58.1299 29.1798 57.1199 28.2298 56.8399C27.0198 56.4699 25.7998 57.2899 25.6498 58.4899L23.8698 72.2499L23.7798 72.2599V56.7599C23.7798 55.7599 23.0998 54.8399 22.1198 54.6799C20.8698 54.4799 19.7798 55.4399 19.7798 56.6499V59.3399C19.5198 58.4499 18.6698 57.7999 17.6698 57.8899C16.6198 57.9899 15.8598 58.9499 15.8598 59.9999V63.6599C15.4698 63.2399 14.9198 62.9799 14.3198 62.9999C13.2198 63.0399 12.3598 63.9699 12.3998 65.0799L13.3698 76.6999C13.4998 79.4899 15.3198 83.5299 15.3198 83.5299C15.6298 84.3299 16.9798 86.1799 17.7798 86.1799C18.0198 86.1799 17.6698 84.7699 17.8998 84.6799C18.4698 84.4599 18.8798 83.9999 19.0698 83.4599C19.4398 83.7999 19.9198 84.0099 20.4198 84.0099C20.6898 84.0099 20.9598 83.9599 21.2198 83.8399C21.4598 83.7299 21.6698 83.5899 21.8498 83.4099C22.1198 84.2499 22.8898 84.8099 23.7498 84.8099C23.9298 84.8099 24.1098 84.7899 24.2898 84.7399C24.6398 84.6399 24.7698 84.8099 24.8098 84.9799C24.8098 84.9699 24.8098 84.9699 24.8098 84.9499C24.8098 84.9499 24.8098 84.9699 24.8098 84.9999C24.8298 85.0799 24.8298 85.1499 24.8198 85.1899C24.8598 85.6999 25.0598 86.7299 26.2498 85.3399L31.5398 79.4999L34.7198 74.7999C35.2998 73.8599 35.0198 72.6299 34.0898 72.0299Z" fill="#BDBDBD"/>
<path d="M34.09 72.0299C33.16 71.4399 31.92 71.7099 31.33 72.6399L29.17 75.8199C28.97 76.1099 28.52 75.9999 28.48 75.6499L28.59 71.7099L29.6 59.1099C29.73 58.1299 29.18 57.1199 28.23 56.8399C27.02 56.4699 25.8 57.2899 25.65 58.4899L23.87 68.5499L23.77 56.7599C23.77 55.7599 23.09 54.8399 22.11 54.6799C20.86 54.4799 19.77 55.4399 19.77 56.6499V59.3399C19.51 58.4499 18.66 57.7999 17.66 57.8899C16.61 57.9899 15.85 58.9499 15.85 59.9999V63.6599C15.46 63.2399 14.91 62.9799 14.31 62.9999C13.21 63.0399 12.35 63.9699 12.39 65.0799L13.36 76.6999C13.49 79.4899 15.31 83.5299 15.31 83.5299C15.62 84.3299 16.97 86.1799 17.77 86.1799C18.01 86.1799 17.66 84.7699 17.89 84.6799C18.46 84.4599 18.87 83.9999 19.06 83.4599C19.43 83.7999 19.91 84.0099 20.41 84.0099C20.68 84.0099 20.95 83.9599 21.21 83.8399C21.45 83.7299 21.66 83.5899 21.84 83.4099C22.11 84.2499 22.88 84.8099 23.74 84.8099C23.92 84.8099 24.1 84.7899 24.28 84.7399C24.63 84.6399 24.76 84.8099 24.8 84.9799C24.8 84.9699 24.8 84.9699 24.8 84.9499C24.8 84.9499 24.8 84.9699 24.8 84.9999C24.82 85.0799 24.82 85.1499 24.81 85.1899C24.85 85.6999 25.05 86.7299 26.24 85.3399L31.53 79.4999L34.71 74.7999C35.3 73.8599 35.02 72.6299 34.09 72.0299Z" fill="#BDBDBD"/>
<path d="M87.6297 100.4C87.6297 100.4 95.0497 109.93 95.0497 128.83L95.0697 163.92H49.4297V100.41H87.6297V100.4Z" fill="#BDBDBD"/>
<path d="M87.6299 227.71C85.1399 227.71 83.1299 225.7 83.1299 223.21V155.81C83.1299 153.32 85.1399 151.31 87.6299 151.31C90.1199 151.31 92.1299 153.32 92.1299 155.81V223.21C92.1299 225.69 90.1199 227.71 87.6299 227.71Z" fill="#6D6161"/>
<path d="M110.16 239.42H83.1396V223.21H95.4797C103.59 223.21 110.16 229.78 110.16 237.89V239.42Z" fill="#6D6161"/>
<path d="M70.71 228.21C67.95 228.21 65.71 225.97 65.71 223.21V155.81C65.71 153.05 67.95 150.81 70.71 150.81C73.47 150.81 75.71 153.05 75.71 155.81V223.21C75.71 225.97 73.47 228.21 70.71 228.21Z" fill="#BDBDBD"/>
<path d="M92.6601 239.42H65.6401V223.21H77.9801C86.0901 223.21 92.6601 229.78 92.6601 237.89V239.42Z" fill="#BDBDBD"/>
<path d="M37.0099 157.42C34.7999 157.42 33.0099 155.63 33.0099 153.42V120.02C31.5199 99.8999 2.55993 86.7899 2.23993 86.6399C0.259927 85.6699 -0.570073 83.2699 0.399927 81.2899C1.36993 79.3099 3.75993 78.4799 5.74993 79.4499C7.22993 80.1699 39.3299 94.8699 40.9999 119.61L41.0099 119.88V157.42C41.0099 159.63 39.2199 157.42 37.0099 157.42Z" fill="#BCBCBC"/>
<path d="M115.14 244.53H47.62C46.07 244.53 49.43 243.02 49.43 241.15C49.43 239.28 51.79 237.77 53.34 237.77H115.13C116.68 237.77 118.49 239.28 118.49 241.15C118.5 243.01 116.69 244.53 115.14 244.53Z" fill="#9F9F9F"/>
<path d="M73.1199 249.81C76.5661 249.81 79.3599 244.531 79.3599 238.02C79.3599 231.508 76.5661 226.23 73.1199 226.23C69.6736 226.23 66.8799 231.508 66.8799 238.02C66.8799 244.531 69.6736 249.81 73.1199 249.81Z" fill="#CFCFCF"/>
<path d="M52.4 61.7799C51.59 62.0999 50.81 62.4899 50.08 62.9499C46.14 65.4299 43.9 69.9099 43.9 74.5699V103.16C43.85 103.49 43.76 103.81 43.65 104.12C42.36 107.65 37.3 110 33.27 109.69C31.74 109.56 30.36 108.98 29.06 107.9C26.92 106.13 25.7 103.36 25.7 100.31V86.0999C25.7 86.0199 25.68 85.9499 25.68 85.8799C25.84 85.7699 26.03 85.5899 26.25 85.3299C21.61 80.6099 26.49 76.1999 26.49 76.1999C23.22 76.5799 19.79 74.0199 19.79 70.7299V59.3399C19.53 58.4499 18.68 57.7999 17.68 57.8899C16.63 57.9899 15.87 58.9499 15.87 59.9999V63.6599C15.48 63.2399 14.93 62.9799 14.33 62.9999C13.23 63.0399 12.37 63.9699 12.41 65.0799L13.38 76.6999C13.51 79.4899 15.33 83.5299 15.33 83.5299C15.52 84.0399 16.14 84.9599 16.77 85.5799C16.75 85.7499 16.72 85.9199 16.72 86.0999V100.31C16.72 106.05 19.13 111.34 23.33 114.83C26.07 117.1 29.18 118.39 32.58 118.66C33.07 118.7 33.57 118.72 34.07 118.72C42.35 118.72 51.28 113.44 52.77 104.8C52.82 104.53 52.86 104.25 52.89 103.97L52.92 103.72V63.8399C52.9 63.0999 52.72 62.3999 52.4 61.7799Z" fill="#8B7979"/>
<path d="M113.3 164.72C113.55 161.94 112.3 157.69 112.3 157.69C112.11 156.86 110.33 154.07 110.32 153.72C108.33 87.2499 84.0301 65.2399 83.0001 64.3399C81.1401 62.7099 78.3301 62.8999 76.6801 64.7499C75.0401 66.5999 75.2101 69.4399 77.0501 71.0899C77.2701 71.2899 99.4701 91.9499 101.33 153.99C101.34 154.23 101.38 154.45 101.42 154.68L95.6901 159.5L91.9001 163.73C91.1901 164.57 91.2901 165.83 92.1301 166.55C92.9701 167.26 94.2301 167.16 94.9501 166.32L97.5201 163.46C97.7501 163.2 98.1901 163.37 98.1801 163.72L98.1501 167.69L97.7201 173.4C97.4601 174.36 97.8701 175.42 98.7701 175.84C99.9201 176.37 101.23 175.73 101.55 174.55L101.24 177.76C101.11 178.75 101.65 179.75 102.61 180.05C103.82 180.42 105.03 179.62 105.19 178.41L105.55 175.75C105.68 176.67 106.44 177.47 107.44 177.47C109.01 177.47 109.35 175.44 109.35 175.44C109.68 175.91 110.53 176.48 111.14 176.54C112.24 176.65 113.22 175.84 113.32 174.74L113.3 164.72Z" fill="#BDBDBD"/>
<path d="M120.47 174.46H44.6499V168.56H120.47C122.1 168.56 123.42 169.88 123.42 171.51C123.42 173.14 122.1 174.46 120.47 174.46Z" fill="#BCBCBC"/>
<path d="M73.1201 233.56C73.1001 233.56 73.0901 233.56 73.0701 233.56C71.9701 233.53 71.0901 232.62 71.1201 231.51C71.1401 230.72 71.1501 220.25 71.1401 219.25C70.9701 180.89 44.2101 172.39 43.0701 172.04C42.0101 171.72 41.4101 170.61 41.7301 169.55C42.0501 168.49 43.1501 167.89 44.2101 168.2C44.5201 168.29 74.9601 177.79 75.1301 219.22C75.1301 219.8 75.1301 230.68 75.1001 231.6C75.0901 232.69 74.2001 233.56 73.1201 233.56Z" fill="#CFCFCF"/>
<path d="M33.5901 253.8C17.0601 253.8 4.12012 228.14 4.12012 195.37C4.12012 162.61 17.0701 136.94 33.5901 136.94C50.1101 136.94 63.0601 162.6 63.0601 195.37C63.0601 228.14 50.1101 253.8 33.5901 253.8ZM33.5901 140.95C19.7801 140.95 8.12012 165.87 8.12012 195.38C8.12012 224.88 19.7901 249.81 33.5901 249.81C47.3901 249.81 59.0601 224.89 59.0601 195.38C59.0601 165.88 47.3901 140.95 33.5901 140.95Z" fill="#BABABA"/>
<path d="M31.0098 240.83C41.1829 240.83 49.4298 220.311 49.4298 195C49.4298 169.689 41.1829 149.17 31.0098 149.17C20.8368 149.17 12.5898 169.689 12.5898 195C12.5898 220.311 20.8368 240.83 31.0098 240.83Z" fill="#E7E7E7"/>
<path d="M30.2598 243.09C18.6698 243.09 9.58984 222.13 9.58984 195.38C9.58984 168.63 18.6698 147.67 30.2598 147.67C41.8498 147.67 50.9298 168.63 50.9298 195.38C50.9298 222.13 41.8498 243.09 30.2598 243.09ZM30.2598 150.67C20.6798 150.67 12.5898 171.15 12.5898 195.38C12.5898 219.61 20.6798 240.09 30.2598 240.09C39.8398 240.09 47.9298 219.61 47.9298 195.38C47.9298 171.15 39.8398 150.67 30.2598 150.67Z" fill="#CFCFCF"/>
<path d="M28.4697 203.81C30.4027 203.81 31.9697 200.036 31.9697 195.38C31.9697 190.724 30.4027 186.95 28.4697 186.95C26.5367 186.95 24.9697 190.724 24.9697 195.38C24.9697 200.036 26.5367 203.81 28.4697 203.81Z" fill="#AAAAAA"/>
<path d="M42.1099 196.38C41.5799 196.38 41.1399 195.97 41.1099 195.43C39.6899 167.87 34.5299 162.02 31.5799 160.99C28.5799 159.94 25.7499 163.07 25.7199 163.1C25.3499 163.51 24.7199 163.55 24.3099 163.19C23.8999 162.83 23.8599 162.2 24.2199 161.78C24.3699 161.61 27.9599 157.61 32.2299 159.1C38.3199 161.22 41.9799 173.41 43.1099 195.33C43.1399 195.88 42.7099 196.35 42.1599 196.38C42.1499 196.38 42.1299 196.38 42.1099 196.38Z" fill="#AAAAAA"/>
<path d="M30.88 222.17C30.78 222.17 30.68 222.16 30.59 222.13C23.58 219.98 23.5 210.92 23.5 210.54C23.5 209.99 23.95 209.54 24.5 209.54C25.05 209.54 25.5 209.99 25.5 210.54C25.5 210.62 25.59 218.51 31.18 220.22C31.71 220.38 32.01 220.94 31.84 221.47C31.71 221.89 31.31 222.17 30.88 222.17Z" fill="#AAAAAA"/>
<path d="M73.1198 253.8C67.9098 253.8 63.8198 246.87 63.8198 238.01C63.8198 229.16 67.8998 222.22 73.1198 222.22C78.3298 222.22 82.4198 229.15 82.4198 238.01C82.4098 246.87 78.3298 253.8 73.1198 253.8ZM73.1198 226.23C70.6198 226.23 67.8198 231.27 67.8198 238.02C67.8198 244.77 70.6198 249.81 73.1198 249.81C75.6198 249.81 78.4198 244.77 78.4198 238.02C78.4098 231.27 75.6198 226.23 73.1198 226.23Z" fill="#BABABA"/>
</g>
<defs>
<clipPath id="clip0_224_3561">
<rect width="132.72" height="253.74" fill="white" transform="translate(0 0.0599365)"/>
</clipPath>
</defs>
</svg>
