<svg width="112" height="288" viewBox="0 0 112 288" fill="none" xmlns="http://www.w3.org/2000/svg">
<g clip-path="url(#clip0_224_3501)">
<path d="M110.23 160.49C110.08 157.7 107.92 153.66 107.92 153.66C107.76 153.32 107.37 152.77 106.9 152.27C104.62 87.6899 88.3397 67.9799 87.6397 67.1699C85.8397 65.0699 82.6697 64.8099 80.5697 66.6099C78.4697 68.4099 78.2097 71.5399 80.0097 73.6399C80.1597 73.8199 94.2797 91.7299 96.7797 149.59H95.3597V151.51C95.2397 151.61 95.1097 151.72 94.9597 151.86C95.0397 151.78 88.6997 157.7 88.6997 157.7L84.9297 162.4C84.2297 163.33 84.5497 164.57 85.6597 165.16C86.7697 165.75 88.2297 165.48 88.9297 164.55L91.4897 161.37C91.7197 161.08 92.2597 161.19 92.3097 161.54L92.1797 165.48L90.9897 178.08C90.8397 179.06 91.4897 180.07 92.6097 180.35C94.0497 180.72 95.4797 179.9 95.6697 178.7L97.7797 168.64L97.8697 180.45C97.8697 181.45 98.6797 182.37 99.8397 182.53C101.32 182.73 102.61 181.77 102.61 180.56V177.87C102.91 178.76 103.92 179.41 105.1 179.32C106.34 179.22 107.24 178.26 107.24 177.21V173.55C107.7 173.97 108.35 174.23 109.07 174.21C110.38 174.17 111.4 173.24 111.35 172.13L110.23 160.49Z" fill="#8B7979"/>
<path d="M62.1498 157.86C61.9698 153.44 57.8098 148.93 51.1698 148.93C46.7498 148.93 41.1298 153.45 41.3098 157.86L42.3698 272.25C25.1398 272.25 26.0298 287.06 26.0298 287.06H60.4198L62.1498 157.86Z" fill="#BDBDBD"/>
<path d="M65.1396 157.86C65.3196 153.44 69.4797 148.93 76.1197 148.93C80.5397 148.93 86.1596 153.45 85.9796 157.86L84.9196 272.25C102.15 272.25 101.26 287.06 101.26 287.06H66.8697L65.1396 157.86Z" fill="#BDBDBD"/>
<path d="M44.0897 64.4698V66.5599C44.0897 90.6999 43.5497 101.52 39.5497 110C36.3097 116.86 30.9697 118.81 23.8497 118.81C6.9997 118.81 4.3197 99.5298 5.3597 83.0698L17.3597 84.6398C17.3597 88.8298 16.6097 99.7999 24.6197 99.7999C31.0897 99.7999 32.4097 88.5999 32.5397 81.0899C34.4597 74.4999 38.2997 67.8498 44.0897 64.4698Z" fill="#8B7979"/>
<path d="M26.6698 71.32C25.5598 70.73 24.0998 71 23.3998 71.93L20.8398 75.11C20.6098 75.4 20.0698 75.29 20.0198 74.94L19.4098 71L21.3398 58.4C21.4898 57.42 20.8398 56.41 19.7198 56.13C18.2798 55.76 16.8498 56.58 16.6598 57.78L14.5498 71.54L14.4498 71.55V56.05C14.4498 55.05 13.6398 54.13 12.4798 53.97C10.9998 53.77 9.70977 54.73 9.70977 55.94V58.63C9.40977 57.74 8.39977 57.09 7.21977 57.18C5.97977 57.28 5.07977 58.24 5.07977 59.29V62.95C4.60977 62.54 3.95977 62.28 3.23977 62.3C1.92977 62.34 0.90977 63.27 0.95977 64.37L2.10977 75.99C2.25977 78.78 4.41977 82.82 4.41977 82.82C4.58977 83.18 5.01977 83.77 5.51977 84.3V86.9H16.9698V84.98C17.0898 84.88 17.2198 84.77 17.3698 84.63L23.6298 78.79L27.3998 74.09C28.0998 73.15 27.7698 71.92 26.6698 71.32Z" fill="#8B7979"/>
<path d="M26.6697 71.3199C25.5597 70.7299 24.0997 70.9999 23.3997 71.9299L20.8397 75.1099C20.6097 75.3999 20.0697 75.2899 20.0197 74.9399L20.1497 70.9999L21.3397 58.3999C21.4897 57.4199 20.8397 56.4099 19.7197 56.1299C18.2797 55.7599 16.8497 56.5799 16.6597 57.7799L14.5497 67.8399L14.4597 56.0299C14.4597 55.0299 13.6497 54.1099 12.4897 53.9499C11.0097 53.7499 9.71973 54.7099 9.71973 55.9199V58.6099V69.9999C9.71973 73.2899 13.7897 75.8499 17.6597 75.4699C17.6597 75.4699 11.8897 79.8699 17.3797 84.5999C17.2597 84.7199 23.6397 78.7599 23.6397 78.7599L27.4097 74.0599C28.0997 73.1499 27.7697 71.9199 26.6697 71.3199Z" fill="#BDBDBD"/>
<path d="M100.96 137.38C100.96 153.22 84.5795 166.06 64.3695 166.06C54.3995 166.06 45.3495 162.93 38.7595 157.86C31.9695 152.66 27.7695 145.41 27.7695 137.38C27.7695 133.2 28.9195 129.22 30.9695 125.63C31.3995 124.89 31.8595 124.17 32.3595 123.46V84.56C32.3595 81.96 32.7795 79.45 33.5595 77.07C34.5695 73.91 36.2195 70.99 38.3795 68.45C38.4995 68.31 38.6295 68.16 38.7595 68.02C40.9895 65.45 43.7695 63.27 46.9195 61.6C51.2895 59.28 56.3595 57.95 61.7995 57.95H65.8495C82.1095 57.95 95.2895 69.86 95.2895 84.56V122.05C98.8695 126.49 100.96 131.74 100.96 137.38Z" fill="#BDBDBD"/>
<path d="M38.3793 68.4499C36.2193 70.9899 34.5693 73.9099 33.5593 77.0699C32.7693 79.4499 32.3593 81.9599 32.3593 84.5599V123.46C32.3493 123.47 32.3493 123.48 32.3393 123.49C32.2493 123.62 32.1693 123.75 32.0793 123.88C31.8993 124.14 31.7193 124.4 31.5593 124.67C31.4693 124.82 31.3793 124.97 31.2893 125.11C31.1893 125.28 31.0793 125.45 30.9793 125.63H30.9893C28.9293 129.22 27.7793 133.19 27.7793 137.38C27.7793 145.41 31.9793 152.66 38.7693 157.86V125.63V116.9V68.0199C38.6293 68.1599 38.4993 68.3099 38.3793 68.4499Z" fill="#8B7979"/>
<path d="M48.4196 32.17C51.794 32.17 54.5296 29.4344 54.5296 26.06C54.5296 22.6855 51.794 19.95 48.4196 19.95C45.0451 19.95 42.3096 22.6855 42.3096 26.06C42.3096 29.4344 45.0451 32.17 48.4196 32.17Z" fill="#A19696"/>
<path d="M47.1496 22.9299C45.4496 23.0099 44.0996 24.4099 44.0996 26.1199H47.1496V22.9299Z" fill="#8B7979"/>
<path d="M80.7296 32.17C84.1041 32.17 86.8396 29.4344 86.8396 26.06C86.8396 22.6855 84.1041 19.95 80.7296 19.95C77.3552 19.95 74.6196 22.6855 74.6196 26.06C74.6196 29.4344 77.3552 32.17 80.7296 32.17Z" fill="#A29797"/>
<path d="M85.4498 26.06C85.3698 24.36 83.9698 23.01 82.2598 23.01V26.06H85.4498Z" fill="#8B7979"/>
<path d="M73.5796 48.95H54.5396V62.48H73.5796V48.95Z" fill="#BDBDBD"/>
<path d="M54.5396 53.8999C57.4996 54.5299 61.1295 54.9099 65.0695 54.9099C68.1495 54.9099 71.0495 54.6799 73.5895 54.2799V47.5099H54.5396V53.8999Z" fill="#8B7979"/>
<path d="M64.6397 51.7199C55.6897 51.7199 48.4297 44.4599 48.4297 35.5099V16.6099C48.4197 7.6599 55.6797 0.399902 64.6397 0.399902C73.5897 0.399902 80.8497 7.6599 80.8497 16.6099V35.4999C80.8497 44.4599 73.5897 51.7199 64.6397 51.7199Z" fill="#BDBDBD"/>
<path d="M51.4297 35.5099V7.22986C49.5497 9.87986 48.4297 13.1099 48.4297 16.6099V35.4999C48.4297 44.4499 55.6897 51.7099 64.6397 51.7099C65.1497 51.7099 65.6497 51.6799 66.1397 51.6299C57.8897 50.8799 51.4297 43.9499 51.4297 35.5099Z" fill="#8B7979"/>
</g>
<defs>
<clipPath id="clip0_224_3501">
<rect width="110.43" height="286.66" fill="white" transform="translate(0.959961 0.399902)"/>
</clipPath>
</defs>
</svg>
