<svg width="100" height="288" viewBox="0 0 100 288" fill="none" xmlns="http://www.w3.org/2000/svg">
<g clip-path="url(#clip0_224_3444)">
<path d="M12.3998 83.6049C12.3798 83.8549 12.4098 83.8749 12.4198 83.8149C12.4098 83.7349 12.4098 83.6749 12.4098 83.6249C12.4098 83.6149 12.3998 83.6149 12.3998 83.6049Z" fill="#BDBDBD"/>
<path d="M21.6996 70.6549C20.7696 70.0649 19.5296 70.3349 18.9396 71.2649L16.7796 74.4449C16.5796 74.7349 16.1296 74.6249 16.0896 74.2749L15.5796 70.3349L17.2096 57.7349C17.3396 56.7549 16.7896 55.7449 15.8396 55.4649C14.6296 55.0949 13.4096 55.9149 13.2596 57.1149L11.4796 70.8749L11.3896 70.8849V55.3849C11.3896 54.3849 10.7096 53.4649 9.72964 53.3049C8.47964 53.1049 7.38964 54.0649 7.38964 55.2749V57.9649C7.12964 57.0749 6.27964 56.4249 5.27964 56.5149C4.22964 56.6149 3.46964 57.5749 3.46964 58.6249V62.2849C3.07964 61.8649 2.52964 61.6049 1.92964 61.6249C0.829641 61.6649 -0.0303586 62.5949 0.00964145 63.7049L0.979641 75.3249C1.10964 78.1149 2.92964 82.1549 2.92964 82.1549C3.23964 82.9549 4.58964 84.8049 5.38964 84.8049C5.62964 84.8049 5.27964 83.3949 5.50964 83.3049C6.07964 83.0849 6.48964 82.6249 6.67964 82.0849C7.03964 82.4349 7.50964 82.6349 8.01964 82.6349C8.28964 82.6349 8.55964 82.5849 8.81964 82.4649C9.05964 82.3549 9.26964 82.2149 9.44964 82.0349C9.71964 82.8749 10.4896 83.4349 11.3496 83.4349C11.5296 83.4349 11.7096 83.4149 11.8896 83.3649C12.2396 83.2649 12.3696 83.4349 12.4096 83.6049C12.4096 83.5949 12.4096 83.5949 12.4096 83.5749C12.4096 83.5749 12.4096 83.5949 12.4096 83.6249C12.4296 83.7049 12.4296 83.7749 12.4196 83.8149C12.4596 84.3249 12.6596 85.3549 13.8496 83.9649L19.1396 78.1249L22.3196 73.4249C22.9096 72.4849 22.6296 71.2449 21.6996 70.6549Z" fill="#BDBDBD"/>
<path d="M21.6994 70.6549C20.7694 70.0649 19.5294 70.3349 18.9394 71.2649L16.7794 74.4449C16.5794 74.7349 16.1294 74.6249 16.0894 74.2749L16.1994 70.3349L17.2094 57.7349C17.3394 56.7549 16.7894 55.7449 15.8394 55.4649C14.6294 55.0949 13.4094 55.9149 13.2594 57.1149L11.4794 67.1749L11.3994 55.3649C11.3994 54.3649 10.7194 53.4449 9.73941 53.2849C8.48941 53.0849 7.39941 54.0449 7.39941 55.2549V57.9449C7.13941 57.0549 6.28941 56.4049 5.28941 56.4949C4.23941 56.5949 3.47941 57.5549 3.47941 58.6049V62.2649C3.08941 61.8449 2.53941 61.5849 1.93941 61.6049C0.839407 61.6449 -0.0205929 62.5749 0.0194071 63.6849L0.989407 75.3049C1.11941 78.0949 2.93941 82.1349 2.93941 82.1349C3.24941 82.9349 4.59941 84.7849 5.39941 84.7849C5.63941 84.7849 5.28941 83.3749 5.51941 83.2849C6.08941 83.0649 6.49941 82.6049 6.68941 82.0649C7.03941 82.4349 7.50941 82.6349 8.01941 82.6349C8.28941 82.6349 8.55941 82.5849 8.81941 82.4649C9.05941 82.3549 9.26941 82.2149 9.44941 82.0349C9.71941 82.8749 10.4894 83.4349 11.3494 83.4349C11.5294 83.4349 11.7094 83.4149 11.8894 83.3649C12.2394 83.2649 12.3694 83.4349 12.4094 83.6049C12.4094 83.5949 12.4094 83.5949 12.4094 83.5749C12.4094 83.5749 12.4094 83.5949 12.4094 83.6249C12.4294 83.7049 12.4294 83.7749 12.4194 83.8149C12.4594 84.3249 12.6594 85.3549 13.8494 83.9649L19.1394 78.1249L22.3194 73.4249C22.9094 72.4849 22.6294 71.2449 21.6994 70.6549Z" fill="#BDBDBD"/>
<path d="M40.4999 62.4649V102.345L40.4699 102.595C40.4399 102.875 40.3999 103.155 40.3499 103.425C39.8299 106.415 38.4299 109.005 36.4599 111.105C35.5099 112.135 34.4299 113.045 33.2499 113.825C29.8499 116.095 25.6699 117.345 21.6499 117.345C21.1499 117.345 20.6499 117.325 20.1599 117.285C16.7599 117.015 13.6499 115.725 10.9099 113.455C6.70988 109.965 4.29988 104.675 4.29988 98.9349V84.7249C4.29988 84.5549 4.32988 84.3849 4.34988 84.2049C4.18988 84.0549 4.03988 83.8849 3.88988 83.6949C3.80988 83.6049 3.73988 83.5149 3.66988 83.4249C3.60988 83.3449 3.55988 83.2649 3.50988 83.1949C3.22988 82.8049 3.00988 82.4249 2.90988 82.1549C2.90988 82.1549 1.09988 78.1249 0.969876 75.3249L-0.000124178 63.7049C-0.0401242 62.6049 0.819876 61.6749 1.91988 61.6349C2.51988 61.6149 3.07988 61.8749 3.45988 62.2849V58.6349C3.45988 57.5749 4.21988 56.6249 5.26988 56.5249C6.26988 56.4349 7.11988 57.0749 7.37988 57.9649V69.3649C7.37988 72.6549 10.8099 75.2149 14.0799 74.8349C14.0799 74.8349 9.20988 79.2349 13.8499 83.9649C13.6199 84.2249 13.4399 84.3949 13.2799 84.5049C13.2799 84.5849 13.2999 84.6549 13.2999 84.7249V98.9349C13.2999 101.985 14.5199 104.755 16.6599 106.525C17.9599 107.605 19.3399 108.185 20.8699 108.315C23.5999 108.525 26.7899 107.515 28.9799 105.745C30.0199 104.905 30.8299 103.885 31.2499 102.745C31.3599 102.435 31.4499 102.115 31.4999 101.785V73.1949C31.4999 69.0449 33.2799 65.0349 36.4599 62.4649C36.8499 62.1449 37.2499 61.8449 37.6799 61.5749C38.4099 61.1149 39.1899 60.7249 39.9999 60.4049C40.3199 61.0249 40.4999 61.7249 40.4999 62.4649Z" fill="#8B7979"/>
<path d="M99.5598 162.035C99.8098 159.255 98.5598 155.005 98.5598 155.005C98.3698 154.175 96.5898 151.385 96.5798 151.035C94.5898 84.565 74.7198 63.945 73.8598 62.875C71.6998 60.225 69.2598 59.305 60.0098 59.495C57.5398 59.545 62.8198 68.055 64.6598 69.715C64.8798 69.915 85.7298 89.275 87.5898 151.305C87.5998 151.545 87.6398 151.765 87.6798 151.995L81.9498 156.815L78.1598 161.045C77.4498 161.885 77.5498 163.145 78.3898 163.865C79.2298 164.575 80.4898 164.475 81.2098 163.635L83.7798 160.775C84.0098 160.515 84.4498 160.685 84.4398 161.035L84.4098 165.005L83.9798 170.715C83.7198 171.675 84.1298 172.735 85.0298 173.155C86.1798 173.685 87.4898 173.045 87.8098 171.865L87.4998 175.075C87.3698 176.065 87.9098 177.065 88.8698 177.365C90.0798 177.735 91.2898 176.935 91.4498 175.725L91.8098 173.065C91.9398 173.985 92.6998 174.785 93.6998 174.785C95.2698 174.785 95.6098 172.755 95.6098 172.755C95.9398 173.225 96.7898 173.795 97.3998 173.855C98.4998 173.965 99.4798 173.155 99.5798 172.055L99.5598 162.035Z" fill="#BDBDBD"/>
<path d="M39.2697 32.205C42.6441 32.205 45.3797 29.4694 45.3797 26.095C45.3797 22.7205 42.6441 19.985 39.2697 19.985C35.8952 19.985 33.1597 22.7205 33.1597 26.095C33.1597 29.4694 35.8952 32.205 39.2697 32.205Z" fill="#A19696"/>
<path d="M37.9895 22.965C36.2895 23.045 34.9395 24.445 34.9395 26.155H37.9895V22.965Z" fill="#8B7979"/>
<path d="M71.5695 32.205C74.9439 32.205 77.6795 29.4694 77.6795 26.095C77.6795 22.7205 74.9439 19.985 71.5695 19.985C68.195 19.985 65.4595 22.7205 65.4595 26.095C65.4595 29.4694 68.195 32.205 71.5695 32.205Z" fill="#A29797"/>
<path d="M76.2896 26.095C76.2096 24.395 74.8096 23.045 73.0996 23.045V26.095H76.2896Z" fill="#8B7979"/>
<path d="M61.7395 49.075H48.7695V62.6049H61.7395V49.075Z" fill="#BDBDBD"/>
<path d="M48.7695 54.0249C50.7895 54.6549 53.2595 55.0349 55.9395 55.0349C58.0395 55.0349 60.0095 54.8049 61.7395 54.4049V47.6349H48.7695V54.0249Z" fill="#8B7979"/>
<path d="M55.4795 51.7549C46.5295 51.7549 39.2695 44.4949 39.2695 35.5449V16.6449C39.2695 7.69494 46.5195 0.434937 55.4795 0.434937C64.4295 0.434937 71.6895 7.69494 71.6895 16.6449V35.5349C71.6895 44.4949 64.4295 51.7549 55.4795 51.7549Z" fill="#BDBDBD"/>
<path d="M42.2695 35.5449V7.26489C40.3895 9.91489 39.2695 13.1449 39.2695 16.6449V35.5349C39.2695 44.4849 46.5295 51.7449 55.4795 51.7449C55.9895 51.7449 56.4895 51.7149 56.9795 51.6649C48.7295 50.9149 42.2695 43.9849 42.2695 35.5449Z" fill="#8B7979"/>
<path d="M64.0498 59.4449H45.0498C43.2698 59.4449 41.5698 59.7849 40.0098 60.4049C35.6698 62.0949 33.3998 65.935 32.5098 70.625C32.3398 71.465 32.2598 72.345 32.2598 73.235V103.425L35.9998 103.605L36.7798 141.955C36.9898 152.425 45.5398 160.805 56.0098 160.805C66.6298 160.805 75.2398 152.195 75.2398 141.575V105.485V103.865V73.235C75.2298 65.615 71.6598 59.4449 64.0498 59.4449Z" fill="#BDBDBD"/>
<path d="M36.46 62.465V111.105C35.51 112.135 34.43 113.045 33.25 113.825H28.98V105.745C30.02 104.905 30.83 103.885 31.25 102.745C31.36 102.435 31.45 102.115 31.5 101.785V73.195C31.5 69.045 33.28 65.035 36.46 62.465Z" fill="#8B7979"/>
<path d="M72.4001 270.815H69.0601V151.035C69.0601 148.545 67.0501 146.535 64.5601 146.535C62.0701 146.535 60.0601 148.545 60.0601 151.035V270.815V280.625V287.025H87.0801V285.495C87.0801 277.395 80.5001 270.815 72.4001 270.815Z" fill="#BDBDBD"/>
<path d="M47.5097 146.535C45.0197 146.535 43.0097 148.545 43.0097 151.035V270.815H39.6697C31.5597 270.815 24.9897 277.385 24.9897 285.495V287.025H52.0097V280.625V270.815V151.035C52.0097 148.555 49.9997 146.535 47.5097 146.535Z" fill="#BDBDBD"/>
</g>
<defs>
<clipPath id="clip0_224_3444">
<rect width="99.59" height="286.59" fill="white" transform="translate(0 0.434937)"/>
</clipPath>
</defs>
</svg>
