<svg width="51" height="54" viewBox="0 0 51 54" fill="none" xmlns="http://www.w3.org/2000/svg">
<g clip-path="url(#clip0_301_5612)">
<path d="M44.4702 49.22H33.2302C33.2102 48.44 33.2002 47.68 33.2002 46.94C33.2002 45.79 33.2302 44.68 33.2702 43.6C33.4002 40.5 33.6802 37.69 34.0402 35.22C34.2402 33.75 34.4702 32.41 34.7002 31.2C35.5902 26.64 36.5302 23.98 36.5302 23.98C39.1902 17.65 40.9002 22.16 41.3802 23.6C41.4402 23.79 41.4902 23.93 41.5102 23.98C41.7302 24.51 41.9302 25.21 42.1302 26.02C42.5402 27.72 42.8802 29.93 43.1802 32.33V32.34C43.2902 33.29 43.4002 34.25 43.5002 35.23V35.24C44.1802 42.09 44.4702 49.22 44.4702 49.22Z" fill="#F26548"/>
<path d="M50.8498 11.52C50.8498 12.18 50.7098 12.83 50.4298 13.45C47.9398 18.97 43.2298 26.13 32.8398 28.45C31.7898 28.69 30.6898 28.87 29.5298 29C28.2798 29.14 26.9598 29.22 25.5598 29.22C24.1498 29.11 22.7998 28.94 21.5098 28.72C20.6798 28.59 19.8698 28.43 19.0798 28.25C16.6698 27.7 14.4798 26.96 12.5198 26.04C11.8398 25.72 11.1798 25.39 10.5598 25.03C8.81976 24.04 7.28976 22.89 5.96976 21.6C5.44976 21.1 4.95976 20.57 4.50976 20.02C3.21976 18.46 2.17976 16.73 1.41976 14.86C1.34976 14.69 1.27976 14.53 1.21976 14.36C0.71976 13.02 0.819759 11.54 1.53976 10.3L1.94976 9.60001C5.41976 3.95001 8.84976 1.58001 12.1198 0.460008C12.9898 0.160008 13.9098 0.650008 14.1598 1.53001C14.6098 3.12001 15.4498 5.59001 16.8798 7.87001C17.0698 8.18001 17.2698 8.48001 17.4898 8.78001C18.5098 10.22 19.7798 11.5 21.3498 12.36C21.6698 12.54 22.0098 12.7 22.3598 12.83C23.3198 13.22 24.3898 13.43 25.5698 13.43C33.0298 13.43 36.5498 5.14001 37.7998 1.41001C38.1098 0.490008 39.0598 -0.0299915 39.9898 0.180008C40.0398 0.190008 40.0898 0.200008 40.1398 0.220008C40.9198 0.460008 41.6598 0.750008 42.3798 1.11001C43.0498 1.42001 43.6898 1.78001 44.2998 2.18001C45.0498 2.67001 45.7698 3.22001 46.4298 3.83001C47.3198 4.66001 48.1098 5.57001 48.7998 6.57001C49.2298 7.19001 49.6198 7.85001 49.9598 8.54001C50.1798 8.95001 50.3598 9.37001 50.5298 9.81001C50.7398 10.34 50.8498 10.93 50.8498 11.52Z" fill="#F26548"/>
<path d="M39.98 0.159984C39.57 4.30998 36.9 8.11998 34.89 10.46C33.14 12.49 30.78 13.94 28.13 14.35C22.55 15.2 19.17 11.46 13.99 10.18C8.61999 8.82998 3.07999 13.32 1.40999 14.83C1.33999 14.66 1.26999 14.5 1.20999 14.33C0.709994 12.99 0.809994 11.51 1.52999 10.27L1.93999 9.56998C5.40999 3.91998 8.83999 1.54998 12.11 0.429984C12.98 0.129984 13.9 0.619984 14.15 1.49998C15.17 5.11998 18.29 13.4 25.56 13.4C33.02 13.4 36.54 5.10998 37.79 1.37998C38.09 0.459984 39.04 -0.0500156 39.98 0.159984Z" fill="#9D322E"/>
<path d="M29.64 27.08C29.64 27.08 25.74 38.05 26.13 53.9H38.08C38.08 53.9 37.21 32.59 34.93 27.08C34.76 26.65 32.86 19.45 29.64 27.08Z" fill="#F26548"/>
<path d="M31.2499 28.49L32.3899 33.85L33.4199 28.48C33.4799 28.06 33.3699 27.63 33.1199 27.32L33.1099 27.31C32.6799 26.78 31.9799 26.78 31.5499 27.31C31.2999 27.62 31.1899 28.06 31.2499 28.49Z" fill="#801E1D"/>
<path d="M14.6499 22.3C16.5499 24.27 19.5399 24.51 22.1099 24.83C24.7699 25.14 27.4599 24.95 29.9399 23.8L29.9199 23.65C29.2399 23.51 28.5899 23.46 27.9299 23.43C24.0999 23.18 20.1999 24.23 16.4499 23.06C15.8499 22.87 15.2299 22.63 14.7699 22.22L14.6499 22.3Z" fill="#801E1D"/>
<path d="M40.57 17.0599C39.88 17.4499 39.2 17.8599 38.53 18.2799C38.2 18.4899 37.79 18.5799 37.56 18.8899C37.32 19.1999 37.13 19.5299 37 20.0599L37.07 20.1899C38.09 20.4299 38.8 19.9299 39.28 19.1499C39.8 18.5299 40.26 17.8699 40.66 17.1599C40.67 17.1699 40.57 17.0599 40.57 17.0599Z" fill="#801E1D"/>
</g>
<defs>
<clipPath id="clip0_301_5612">
<rect width="49.95" height="53.78" fill="white" transform="translate(0.899902 0.109985)"/>
</clipPath>
</defs>
</svg>
