<svg width="54" height="80" viewBox="0 0 54 80" fill="none" xmlns="http://www.w3.org/2000/svg">
<g clip-path="url(#clip0_301_636)">
<path d="M50.8698 18.705V79.425H49.5898V72.405H48.1198V79.425H47.0098V72.405H45.5398V79.425H44.4298V72.405H42.9698V79.425H41.8498V72.405H40.3898V79.425H39.2698V72.405H37.8098V79.425H36.6898V72.405H35.2298V79.425H34.0098V30.915C42.4398 27.975 50.8698 18.705 50.8698 18.705Z" fill="#4DA6FF"/>
<path d="M50.86 51.4249H34V55.7349H50.86V51.4249Z" fill="#FFFFEB"/>
<path d="M50.86 39.4249H34V43.7349H50.86V39.4249Z" fill="#FFFFEB"/>
<path d="M50.86 63.4249H34V67.7349H50.86V63.4249Z" fill="#FFFFEB"/>
<path d="M50.8698 18.705V25.605C47.1098 30.505 41.5398 33.785 34.0098 35.675V30.915C42.4398 27.975 50.8698 18.705 50.8698 18.705Z" fill="#3C86AC"/>
<path d="M53.4497 15.9849C53.3697 16.6249 53.1997 17.2649 52.9297 17.8849C52.5397 18.7649 52.0297 19.7449 51.3497 20.7749C50.0697 22.7249 48.1897 24.8549 45.4297 26.9049H45.4197C44.1897 27.8149 42.7797 28.7049 41.1797 29.5449C39.0397 30.6649 36.5597 31.7049 33.6597 32.6049C33.6597 32.6049 32.0797 33.0649 29.5597 33.3349C28.1497 33.4849 26.4397 33.5749 24.5597 33.4949C20.9497 33.3449 16.6897 32.5549 12.5797 30.3249C11.1697 29.5649 9.78971 28.6349 8.44971 27.4949C7.07971 26.3449 5.76971 24.9749 4.54971 23.3649C3.39971 21.8549 2.32971 20.1349 1.36971 18.1649C0.0597066 15.4949 0.419707 12.3149 2.37971 10.0849C3.89971 8.35493 6.15971 6.43493 9.39971 5.17493C9.87971 4.98493 10.3797 4.81493 10.8997 4.65493C10.9097 4.65493 10.9297 4.64493 10.9397 4.64493C10.9397 4.64493 12.3097 3.35493 13.9397 2.11493C14.3497 1.79493 14.7897 1.48493 15.2197 1.19493C16.3597 0.434925 17.9197 0.904925 18.3997 2.18493C19.2697 4.55493 21.0397 8.03492 24.0897 8.85493C28.4197 10.0249 33.7097 8.73493 35.6497 1.92493C36.0097 0.634925 37.6497 0.114925 38.6097 1.04493L38.6397 1.07493C38.6397 1.07493 39.0997 1.21493 39.7397 1.53493C40.7797 2.05493 42.3097 3.03493 43.1097 4.58493C43.1097 4.58493 43.4097 4.68493 43.9297 4.88493C45.4797 5.51493 48.9297 7.14493 51.6997 10.2449C53.1097 11.8249 53.7297 13.9449 53.4497 15.9849Z" fill="#4DA6FF"/>
<path d="M16.1399 13.6449L7.93994 27.2349C9.27994 28.3749 10.6599 29.3049 12.0699 30.0649L20.6799 15.8049L16.1399 13.6449Z" fill="#FFFFEB"/>
<path d="M29.0498 16.5449V33.0749C27.6398 33.2249 25.9298 33.3149 24.0498 33.2349V16.5449H29.0498Z" fill="#FFFFEB"/>
<path d="M37.0901 13.585L45.4201 26.905C44.1901 27.815 42.7801 28.705 41.1801 29.545L32.5601 15.745L37.0901 13.585Z" fill="#FFFFEB"/>
<path d="M42.6997 6.92493L53.4497 15.9849C53.3697 16.6249 53.2697 17.1649 52.9997 17.7849C52.6097 18.6649 52.0997 19.6449 51.4197 20.6749L39.9497 11.1649L42.6997 6.92493Z" fill="#FFFFEB"/>
<path d="M43.1099 4.5849C42.3699 2.9249 40.2699 1.7949 39.2299 1.2749C39.2299 1.2749 36.4299 11.8049 26.5499 11.8449C18.2899 11.8749 14.7899 5.8349 13.4999 2.4149C11.8699 3.6549 10.9299 4.6449 10.9299 4.6449C10.9199 4.6449 4.88994 6.4749 1.85994 9.8249C-0.130062 12.0249 -0.460061 15.2349 0.849939 17.9049C1.80994 19.8749 2.87994 21.5949 4.02994 23.1049C6.48994 20.5249 10.8299 16.1149 13.0699 13.8449C13.8699 13.0349 14.9499 13.1949 15.8699 13.8549C16.2799 14.1549 16.7099 14.4349 17.0299 14.6149C22.9799 17.8349 30.4699 17.4949 36.2999 14.0649C41.5399 10.9849 43.5299 6.7949 43.9199 4.8849C43.4099 4.6849 43.1099 4.5849 43.1099 4.5849Z" fill="#3C86AC"/>
</g>
<defs>
<clipPath id="clip0_301_636">
<rect width="53.44" height="78.85" fill="white" transform="translate(0.0800781 0.574951)"/>
</clipPath>
</defs>
</svg>
