<svg width="24" height="20" viewBox="0 0 24 20" fill="none" xmlns="http://www.w3.org/2000/svg">
<g clip-path="url(#clip0_301_732)">
<path d="M11.8997 16.835C8.88973 16.835 6.51973 15.845 4.83973 13.885C0.949726 9.34505 2.13973 1.26505 2.18973 0.925049L2.81973 1.02505C2.80973 1.10505 1.61973 9.15505 5.31973 13.475C6.86973 15.285 9.07973 16.195 11.8897 16.195C17.6397 16.195 21.1597 15.455 21.1597 0.975049H21.7997C21.8097 14.635 18.8897 16.835 11.8997 16.835Z" fill="#333C83"/>
<path d="M1.51963 4.72509L0.879629 4.07509C0.449629 3.64509 0.449629 2.92509 0.879629 2.49509L1.51963 1.85509C1.94963 1.42509 2.66963 1.42509 3.09963 1.85509L3.73963 2.49509C4.16963 2.92509 4.16963 3.64509 3.73963 4.07509L3.09963 4.72509C2.66963 5.15509 1.94963 5.15509 1.51963 4.72509Z" fill="#474DC0"/>
<path d="M1.75986 9.46509L1.11986 8.82509C0.689863 8.39509 0.689863 7.67509 1.11986 7.24509L1.75986 6.60509C2.18986 6.17509 2.90986 6.17509 3.33986 6.60509L3.97986 7.24509C4.40986 7.67509 4.40986 8.39509 3.97986 8.82509L3.34986 9.46509C2.90986 9.90509 2.19986 9.90509 1.75986 9.46509Z" fill="#474DC0"/>
<path d="M3.17953 13.6651L2.44953 12.9451C1.95953 12.4551 1.95953 11.6551 2.44953 11.1651L3.17953 10.4351C3.66953 9.94513 4.46953 9.94513 4.95953 10.4351L5.68953 11.1651C6.17953 11.6551 6.17953 12.4551 5.68953 12.9451L4.95953 13.6751C4.46953 14.1551 3.66953 14.1551 3.17953 13.6651Z" fill="#474DC0"/>
<path d="M21.1895 13.955L21.9195 13.225C22.4095 12.735 22.4095 11.935 21.9195 11.445L21.1895 10.725C20.6995 10.235 19.8995 10.235 19.4095 10.725L18.6795 11.455C18.1895 11.945 18.1895 12.745 18.6795 13.235L19.4095 13.965C19.8995 14.445 20.6995 14.445 21.1895 13.955Z" fill="#474DC0"/>
<path d="M17.8795 16.9351L18.6095 16.2051C19.0995 15.7151 19.0995 14.9151 18.6095 14.4251L17.8795 13.6951C17.3895 13.2051 16.5895 13.2051 16.0995 13.6951L15.3695 14.4251C14.8795 14.9151 14.8795 15.7151 15.3695 16.2051L16.0995 16.9351C16.5895 17.4251 17.3895 17.4251 17.8795 16.9351Z" fill="#474DC0"/>
<path d="M7.97955 16.9351L8.70955 16.2051C9.19955 15.7151 9.19955 14.9151 8.70955 14.4251L7.97955 13.6951C7.48955 13.2051 6.68955 13.2051 6.19955 13.6951L5.46955 14.4251C4.97955 14.9151 4.97955 15.7151 5.46955 16.2051L6.19955 16.9351C6.68955 17.4251 7.48955 17.4251 7.97955 16.9351Z" fill="#474DC0"/>
<path d="M13.1694 18.615L14.0894 17.695C14.7094 17.075 14.7094 16.055 14.0894 15.425L13.1694 14.505C12.5494 13.885 11.5294 13.885 10.8994 14.505L9.98941 15.425C9.36941 16.045 9.36941 17.065 9.98941 17.695L10.9094 18.615C11.5294 19.235 12.5494 19.235 13.1694 18.615Z" fill="#474DC0"/>
<path d="M20.6996 4.72509L20.0496 4.07509C19.6196 3.64509 19.6196 2.92509 20.0496 2.49509L20.6896 1.85509C21.1196 1.42509 21.8396 1.42509 22.2696 1.85509L22.9096 2.49509C23.3396 2.92509 23.3396 3.64509 22.9096 4.07509L22.2796 4.72509C21.8396 5.15509 21.1296 5.15509 20.6996 4.72509Z" fill="#474DC0"/>
<path d="M20.3697 9.46509L19.7297 8.82509C19.2997 8.39509 19.2997 7.67509 19.7297 7.24509L20.3697 6.60509C20.7997 6.17509 21.5197 6.17509 21.9497 6.60509L22.5897 7.24509C23.0197 7.67509 23.0197 8.39509 22.5897 8.82509L21.9497 9.46509C21.5197 9.90509 20.7997 9.90509 20.3697 9.46509Z" fill="#474DC0"/>
</g>
<defs>
<clipPath id="clip0_301_732">
<rect width="22.7" height="18.15" fill="white" transform="translate(0.549805 0.925049)"/>
</clipPath>
</defs>
</svg>
