<svg width="63" height="92" viewBox="0 0 63 92" fill="none" xmlns="http://www.w3.org/2000/svg">
<g clip-path="url(#clip0_301_8441)">
<path d="M59.83 21.28V91.77H58.34V83.62H56.63V91.77H55.34V83.62H53.63V91.77H52.34V83.62H50.65V91.77H49.35V83.62H47.66V91.77H46.36V83.62H44.67V91.77H43.37V83.62H41.67V91.77H40.25V35.46C50.04 32.04 59.83 21.28 59.83 21.28Z" fill="#CFFF70"/>
<path d="M59.8298 21.28V29.29C55.4598 34.98 48.9998 38.79 40.2598 40.98V35.45C50.0398 32.04 59.8298 21.28 59.8298 21.28Z" fill="#177F6D"/>
<path d="M62.8299 18.12C62.7399 18.86 62.5399 19.61 62.2299 20.33C61.7799 21.35 61.1899 22.49 60.3999 23.69C60.2299 23.96 60.0299 24.24 59.8299 24.51C58.3799 26.54 56.3499 28.71 53.5299 30.8H53.5199C53.3099 30.95 53.0999 31.11 52.8799 31.25C52.5699 31.48 52.2399 31.69 51.9199 31.91C50.8999 32.58 49.7999 33.23 48.5999 33.86C47.8299 34.25 47.0299 34.65 46.1999 35.02C45.8499 35.18 45.4999 35.35 45.1299 35.48C43.6399 36.13 42.0199 36.72 40.2699 37.28C40.1399 37.33 40.0099 37.36 39.8799 37.41C39.8799 37.41 39.6799 37.47 39.3099 37.56C39.0299 37.62 38.6499 37.71 38.1799 37.79H38.1699C37.3799 37.95 36.3499 38.13 35.1199 38.25C34.2299 38.34 33.2199 38.42 32.1399 38.46C31.7699 38.46 31.3699 38.47 30.9799 38.47C30.4499 38.47 29.8899 38.46 29.3199 38.44C27.9199 38.38 26.4299 38.24 24.8999 37.98C24.5299 37.92 24.1499 37.85 23.7599 37.77C21.7999 37.38 19.7799 36.77 17.7599 35.9C17.4099 35.75 17.0599 35.6 16.7199 35.41C16.2799 35.21 15.8499 34.99 15.4199 34.76C13.9699 33.98 12.5499 33.04 11.1699 31.93C10.9799 31.78 10.8099 31.63 10.6199 31.48C10.4999 31.39 10.3899 31.28 10.2699 31.19C8.75989 29.94 7.03989 28.57 5.72989 26.84C5.36989 26.38 5.04989 25.89 4.73989 25.37C4.73989 25.37 4.73989 25.37 4.73989 25.36C3.89989 23.93 3.20989 22.33 2.38989 20.66C0.869893 17.56 1.28989 13.87 3.55989 11.28C5.09989 9.53001 7.30989 7.60001 10.3499 6.16001C10.6099 6.04001 10.8499 5.94001 11.0899 5.85001C11.2899 5.75001 11.4999 5.66001 11.7099 5.58001C11.8299 5.53001 11.9399 5.49001 12.0599 5.46001C12.3799 5.33001 12.6699 5.23001 12.8899 5.16001C12.9599 5.14001 13.0299 5.11001 13.0999 5.09001C13.3399 5.01001 13.4799 4.96001 13.4799 4.96001C13.4799 4.96001 13.4799 4.96001 13.4899 4.95001C13.4999 4.94001 13.5199 4.92001 13.5499 4.89001C13.5599 4.88001 13.5699 4.86001 13.5999 4.84001C13.9499 4.53001 15.0999 3.48001 16.4799 2.39001C16.6399 2.27001 16.8099 2.15001 16.9699 2.02001C17.4499 1.65001 17.9599 1.29001 18.4599 0.950013C19.7799 0.0700133 21.5899 0.610013 22.1499 2.10001C23.1599 4.85001 25.2099 8.89001 28.7599 9.84001C33.7899 11.2 39.9299 9.70001 42.1799 1.79001C42.5999 0.290013 44.4999 -0.309987 45.6199 0.770013L45.6499 0.800013C45.6499 0.800013 45.9099 0.880013 46.3199 1.06001C46.4699 1.12001 46.6499 1.20001 46.8299 1.29001C46.8599 1.31001 46.8999 1.32001 46.9199 1.34001C47.5199 1.64001 48.2699 2.07001 48.9699 2.66001C49.1599 2.81001 49.3299 2.96001 49.4999 3.12001C50.0099 3.62001 50.4799 4.20001 50.8199 4.87001C50.8199 4.87001 51.1699 4.99001 51.7699 5.22001C53.5699 5.95001 57.5699 7.84001 60.7899 11.44C62.4399 13.29 63.1599 15.75 62.8299 18.12Z" fill="#CFFF70"/>
<path d="M50.83 4.89005C49.97 2.96005 47.53 1.65005 46.33 1.05005C46.33 1.05005 43.08 13.27 31.61 13.32C22.02 13.35 17.96 6.34005 16.47 2.37005C14.58 3.81005 13.49 4.96005 13.49 4.96005C13.48 4.96005 6.47997 7.09005 2.95997 10.97C0.649972 13.53 0.269972 17.25 1.78997 20.35C2.89997 22.64 4.14997 24.63 5.47997 26.39C8.33997 23.4 13.37 18.27 15.97 15.63C16.9 14.69 18.15 14.87 19.22 15.64C19.7 15.99 20.19 16.3201 20.57 16.5201C27.48 20.26 36.17 19.87 42.94 15.88C49.02 12.3 51.33 7.44005 51.79 5.22005C51.18 5.01005 50.83 4.89005 50.83 4.89005Z" fill="#177F6D"/>
<path d="M56.8001 39.4401H55.6401V44.6801H56.8001V39.4401Z" fill="#174D62"/>
<path d="M49.0902 47.54H47.9302V52.78H49.0902V47.54Z" fill="#174D62"/>
<path d="M53.93 53.96H52.77V59.2H53.93V53.96Z" fill="#174D62"/>
<path d="M56.8001 58.21H55.6401V63.45H56.8001V58.21Z" fill="#174D62"/>
<path d="M51.3602 72.73H50.2002V77.97H51.3602V72.73Z" fill="#174D62"/>
<path d="M44.45 64.09H43.29V68.04H44.45V64.09Z" fill="#174D62"/>
<path d="M51.6401 13.0601L55.6501 16.1301" stroke="#174D62" stroke-miterlimit="10"/>
<path d="M51.3101 19.36L54.6101 22.1" stroke="#174D62" stroke-miterlimit="10"/>
<path d="M14.1097 28.51L11.1397 31.93C10.9497 31.78 10.7797 31.63 10.5897 31.48C10.4697 31.39 10.3597 31.28 10.2397 31.19L13.2197 27.74L14.1097 28.51Z" fill="#174D62"/>
<path d="M19.6799 32.0999L17.7299 35.9099C17.3799 35.7599 17.0299 35.6099 16.6899 35.4199L18.6499 31.5699L19.6799 32.0999Z" fill="#174D62"/>
<path d="M25.78 34.1899L24.87 37.9899C24.5 37.9299 24.12 37.8599 23.73 37.7799L24.65 33.9299L25.78 34.1899Z" fill="#174D62"/>
<path d="M32.1097 34.79V38.47C31.7397 38.47 31.3397 38.48 30.9497 38.48V34.79H32.1097Z" fill="#174D62"/>
<path d="M39.2896 37.57C39.0096 37.63 38.6296 37.72 38.1596 37.8H38.1496L37.2896 34.19L38.4296 33.92L39.2896 37.57Z" fill="#174D62"/>
<path d="M46.1799 35.0299C45.8299 35.1899 45.4799 35.3599 45.1099 35.4899L43.3799 32.0999L44.4099 31.5699L46.1799 35.0299Z" fill="#174D62"/>
<path d="M52.87 31.25C52.56 31.48 52.23 31.69 51.91 31.91L48.96 28.51L49.84 27.74L52.87 31.25Z" fill="#174D62"/>
</g>
<defs>
<clipPath id="clip0_301_8441">
<rect width="62.04" height="91.54" fill="white" transform="translate(0.870117 0.22998)"/>
</clipPath>
</defs>
</svg>
