<svg width="71" height="76" viewBox="0 0 71 76" fill="none" xmlns="http://www.w3.org/2000/svg">
<g clip-path="url(#clip0_302_105)">
<path d="M61.1902 68.93H45.5302C45.5002 67.85 45.4902 66.79 45.4902 65.75C45.4902 64.15 45.5302 62.6 45.5902 61.1C45.7702 56.79 46.1602 52.87 46.6602 49.43C46.9402 47.39 47.2602 45.52 47.5802 43.83C48.8202 37.48 50.1302 33.78 50.1302 33.78C53.8402 24.97 56.2102 31.25 56.8802 33.25C56.9702 33.52 57.0302 33.71 57.0602 33.78C57.3702 34.52 57.6502 35.49 57.9202 36.62C58.4902 38.98 58.9702 42.07 59.3802 45.41V45.42C59.5402 46.74 59.6902 48.08 59.8302 49.44V49.45C60.7802 59 61.1902 68.93 61.1902 68.93Z" fill="#F26548"/>
<path d="M70.0601 16.44C70.0601 17.36 69.8601 18.27 69.4701 19.13C66.0001 26.81 59.4401 36.79 44.9801 40.01C43.5201 40.34 41.9901 40.6 40.3701 40.77C38.6301 40.97 36.7901 41.07 34.8401 41.07C32.8801 40.91 31.0001 40.68 29.2001 40.37C28.0401 40.19 26.9101 39.96 25.8201 39.71C22.4601 38.94 19.4101 37.91 16.6801 36.63C15.7301 36.19 14.8201 35.72 13.9501 35.22C11.5301 33.84 9.40014 32.24 7.56014 30.44C6.84014 29.74 6.16014 29.01 5.53014 28.24C3.73014 26.07 2.29014 23.66 1.23014 21.05C1.13014 20.82 1.04014 20.59 0.950143 20.36C0.250143 18.5 0.400143 16.43 1.39014 14.71L1.96014 13.73C6.79014 5.87 11.5601 2.57 16.1201 1.01C17.3301 0.590003 18.6101 1.27 18.9601 2.5C19.5801 4.71 20.7601 8.15 22.7401 11.33C23.0101 11.76 23.2901 12.18 23.5901 12.6C25.0101 14.6 26.7801 16.39 28.9601 17.58C29.4101 17.83 29.8801 18.05 30.3701 18.23C31.7101 18.77 33.2001 19.07 34.8401 19.07C45.2301 19.07 50.1301 7.53 51.8701 2.33C52.3001 1.05 53.6201 0.330003 54.9201 0.620003C54.9901 0.630003 55.0601 0.650003 55.1301 0.670003C56.2101 1 57.2501 1.41 58.2501 1.91C59.1801 2.34 60.0701 2.84 60.9201 3.4C61.9701 4.08 62.9601 4.85 63.8801 5.7C65.1201 6.85 66.2201 8.12 67.1801 9.51C67.7801 10.38 68.3201 11.29 68.7901 12.25C69.0901 12.82 69.3501 13.41 69.5901 14.02C69.9001 14.8 70.0601 15.62 70.0601 16.44Z" fill="#F26548"/>
<path d="M54.9201 0.620003C54.3501 6.4 50.6401 11.71 47.8401 14.96C45.4101 17.79 42.1201 19.81 38.4301 20.37C30.6601 21.55 25.9501 16.35 18.7501 14.56C11.2701 12.7 3.55014 18.95 1.23014 21.05C1.13014 20.82 1.04014 20.59 0.950143 20.36C0.250143 18.5 0.400143 16.43 1.39014 14.71L1.96014 13.73C6.79014 5.87 11.5601 2.57 16.1201 1.01C17.3301 0.590003 18.6101 1.27 18.9601 2.5C20.3801 7.54 24.7201 19.07 34.8401 19.07C45.2301 19.07 50.1301 7.53 51.8701 2.33C52.3001 1.05 53.6201 0.330003 54.9201 0.620003Z" fill="#9D322E"/>
<path d="M40.5399 38.11C40.5399 38.11 35.1199 53.39 35.6599 75.44H52.2899C52.2899 75.44 51.0799 45.77 47.9099 38.11C47.6599 37.51 45.0099 27.48 40.5399 38.11Z" fill="#F26548"/>
<path d="M42.78 40.08L44.36 47.54L45.79 40.06C45.87 39.47 45.72 38.87 45.37 38.45L45.36 38.43C44.76 37.69 43.78 37.69 43.19 38.43C42.84 38.86 42.69 39.48 42.78 40.08Z" fill="#801E1D"/>
<path d="M19.6699 31.46C22.3199 34.2 26.4799 34.53 30.0599 34.98C33.7699 35.41 37.5099 35.14 40.9599 33.54L40.9299 33.33C39.9899 33.14 39.0699 33.06 38.1599 33.02C32.8299 32.67 27.3999 34.13 22.1799 32.5C21.3499 32.23 20.4799 31.9 19.8399 31.33L19.6699 31.46Z" fill="#801E1D"/>
<path d="M55.7403 24.17C54.7803 24.72 53.8303 25.29 52.9003 25.87C52.4403 26.16 51.8703 26.29 51.5603 26.72C51.2303 27.15 50.9603 27.61 50.7803 28.35L50.8803 28.52C52.3003 28.86 53.2803 28.15 53.9603 27.07C54.6903 26.21 55.3203 25.28 55.8903 24.3C55.8903 24.31 55.7403 24.17 55.7403 24.17Z" fill="#801E1D"/>
</g>
<defs>
<clipPath id="clip0_302_105">
<rect width="69.54" height="74.88" fill="white" transform="translate(0.52002 0.560059)"/>
</clipPath>
</defs>
</svg>
