<svg width="55" height="80" viewBox="0 0 55 80" fill="none" xmlns="http://www.w3.org/2000/svg">
<g clip-path="url(#clip0_301_697)">
<path d="M51.7399 18.705V79.425H50.4599V72.405H48.9899V79.425H47.8799V72.405H46.4099V79.425H45.2999V72.405H43.8399V79.425H42.7199V72.405H41.2599V79.425H40.1399V72.405H38.6799V79.425H37.5599V72.405H36.0999V79.425H34.8799V30.915C43.3099 27.975 51.7399 18.705 51.7399 18.705Z" fill="#FFE478"/>
<path d="M51.7496 18.705V25.605C47.9896 30.505 42.4196 33.785 34.8896 35.675V30.915C43.3196 27.975 51.7496 18.705 51.7496 18.705Z" fill="#A42B35"/>
<path d="M51.7399 51.0049V79.4249H50.4599V72.4049H48.9899V79.4249H47.8799V72.4049H46.4099V79.4249H45.2999V72.4049H43.8399V79.4249H42.7199V72.4049H41.2599V79.4249H40.1399V72.4049H38.6799V79.4249H37.5599V72.4049H36.0999V79.4249H34.8799V51.0049H51.7399Z" fill="#FD3952"/>
<path d="M40.6199 1.5349C40.6099 1.5349 40.6099 1.5349 40.6099 1.5249C41.1799 1.8349 41.8999 2.2649 42.5399 2.7949C41.8899 2.2349 41.1799 1.8149 40.6199 1.5349Z" fill="#FFE478"/>
<path d="M52.5799 10.2449C49.8099 7.14489 46.3599 5.51489 44.8099 4.88489C44.4199 6.79489 42.4299 10.9849 37.1899 14.0649C34.3699 15.7249 31.1699 16.6449 27.9399 16.8149V33.5149C28.8499 33.4849 29.6799 33.4249 30.4399 33.3449C32.9599 33.0749 34.5399 32.6149 34.5399 32.6149C37.4399 31.7149 39.9199 30.6749 42.0599 29.5549C43.6599 28.7149 45.0699 27.8249 46.2999 26.9149H46.3099C49.0699 24.8649 50.9499 22.7349 52.2299 20.7849C52.9099 19.7549 53.4199 18.7749 53.8099 17.8949C54.0799 17.2749 54.2499 16.6349 54.3299 15.9949C54.6099 13.9449 53.9899 11.8249 52.5799 10.2449Z" fill="#FD3952"/>
<path d="M43.99 4.58493C43.68 3.89493 43.14 3.30493 42.54 2.80493C43.1 3.28493 43.62 3.87493 43.99 4.58493Z" fill="#996824"/>
<path d="M40.1101 1.2749C40.1101 1.2749 40.1101 1.2849 40.1001 1.3049C40.2501 1.3649 40.4101 1.4449 40.6001 1.5349C40.4301 1.4349 40.2601 1.3449 40.1101 1.2749Z" fill="#996824"/>
<path d="M11.8202 4.64492C11.8202 4.64492 12.9602 3.57492 14.4002 2.44492C14.4002 2.43492 14.3902 2.42492 14.3902 2.41492C12.7602 3.65492 11.8202 4.64492 11.8202 4.64492C11.8202 4.64492 11.3702 4.78492 10.6602 5.04492C11.0302 4.91492 11.3902 4.77492 11.7802 4.65492C11.7902 4.65492 11.8102 4.64492 11.8202 4.64492Z" fill="#996824"/>
<path d="M10.2802 5.17492C10.1602 5.22492 10.0402 5.28492 9.91016 5.33492C10.1902 5.22492 10.4402 5.12492 10.6602 5.04492C10.5402 5.09492 10.4002 5.12492 10.2802 5.17492Z" fill="#FFE478"/>
<path d="M17.9302 14.6149C17.6002 14.4349 17.1802 14.1549 16.7702 13.8549C15.8502 13.1849 14.7702 13.0349 13.9702 13.8449C11.7402 16.1049 7.43021 20.4949 4.97021 23.0749C5.05021 23.1849 5.12021 23.2949 5.20021 23.4049C6.42021 25.0149 7.98022 26.3549 9.35021 27.5049C10.6902 28.6449 12.0702 29.5749 13.4802 30.3349C17.5902 32.5649 21.8502 33.3549 25.4602 33.5049C26.3302 33.5449 27.1702 33.5449 27.9602 33.5149V16.8149C24.4902 16.9849 21.0002 16.2749 17.9302 14.6149Z" fill="#FFE478"/>
<path d="M39.5199 1.07493L39.4899 1.04493C38.5299 0.114925 36.8899 0.634925 36.5299 1.92493C35.0199 7.23493 31.4799 9.18493 27.9399 9.23493C26.9299 9.25493 25.9299 9.11493 24.9699 8.85493C21.9199 8.03492 20.1499 4.55493 19.2799 2.18493C18.7999 0.904925 17.2399 0.434925 16.0999 1.19493C15.6699 1.48493 15.2299 1.79493 14.8199 2.11493C14.6799 2.22493 14.5399 2.33493 14.3999 2.44493C15.6999 5.87493 19.1999 11.8749 27.4299 11.8449C27.5999 11.8449 27.7699 11.8349 27.9399 11.8249C37.1499 11.4449 39.9599 1.82493 40.0999 1.29493C39.7599 1.15493 39.5199 1.07493 39.5199 1.07493Z" fill="#FD3952"/>
<path d="M43.9901 4.58493C43.6201 3.87493 43.1001 3.28493 42.5401 2.80493C41.8901 2.26493 41.1801 1.83493 40.6101 1.53493C40.4201 1.44493 40.2601 1.36493 40.1101 1.30493C39.9601 1.82493 37.1501 11.4449 27.9401 11.8249C27.7701 11.8349 27.6001 11.8449 27.4301 11.8449C19.1901 11.8749 15.7001 5.87493 14.4001 2.44493C12.9601 3.57493 11.8201 4.64493 11.8201 4.64493C11.8101 4.64493 11.7901 4.65493 11.7801 4.65493C11.3901 4.77493 11.0301 4.91493 10.6601 5.04493C10.4401 5.12493 10.1901 5.22493 9.91008 5.33493C7.88008 6.15493 4.70008 7.67493 2.75008 9.82493C0.760075 12.0249 0.430075 15.2349 1.74008 17.9049C2.70008 19.8749 3.77008 21.5949 4.92008 23.1049C4.93008 23.0949 4.94008 23.0849 4.95008 23.0749C7.42008 20.4949 11.7201 16.1049 13.9501 13.8449C14.7501 13.0349 15.8301 13.1949 16.7501 13.8549C17.1601 14.1549 17.5901 14.4349 17.9101 14.6149C20.9901 16.2749 24.4701 16.9849 27.9301 16.8149C31.1601 16.6549 34.3601 15.7249 37.1801 14.0649C42.4201 10.9849 44.4101 6.79493 44.8001 4.88493C44.2901 4.68493 43.9901 4.58493 43.9901 4.58493Z" fill="#A42B35"/>
</g>
<defs>
<clipPath id="clip0_301_697">
<rect width="53.44" height="78.85" fill="white" transform="translate(0.959961 0.574951)"/>
</clipPath>
</defs>
</svg>
