<svg width="54" height="80" viewBox="0 0 54 80" fill="none" xmlns="http://www.w3.org/2000/svg">
<g clip-path="url(#clip0_302_57)">
<path d="M51.3297 18.705V79.425H50.0497V72.405H48.5797V79.425H47.4697V72.405H45.9997V79.425H44.8897V72.405H43.4297V79.425H42.3097V72.405H40.8497V79.425H39.7297V72.405H38.2697V79.425H37.1497V72.405H35.6897V79.425H34.4697V30.915C42.8997 27.975 51.3297 18.705 51.3297 18.705Z" fill="#4DA6FF"/>
<path d="M51.32 51.4249H34.46V55.7349H51.32V51.4249Z" fill="#FFFFEB"/>
<path d="M51.32 39.4249H34.46V43.7349H51.32V39.4249Z" fill="#FFFFEB"/>
<path d="M51.32 63.4249H34.46V67.7349H51.32V63.4249Z" fill="#FFFFEB"/>
<path d="M51.3297 18.705V25.605C47.5697 30.505 41.9997 33.785 34.4697 35.675V30.915C42.8997 27.975 51.3297 18.705 51.3297 18.705Z" fill="#3C86AC"/>
<path d="M53.9097 15.9849C53.8297 16.6249 53.6597 17.2649 53.3897 17.8849C52.9997 18.7649 52.4897 19.7449 51.8097 20.7749C50.5297 22.7249 48.6497 24.8549 45.8897 26.9049H45.8797C44.6497 27.8149 43.2397 28.7049 41.6397 29.5449C39.4997 30.6649 37.0197 31.7049 34.1197 32.6049C34.1197 32.6049 32.5397 33.0649 30.0197 33.3349C28.6097 33.4849 26.8997 33.5749 25.0197 33.4949C21.4097 33.3449 17.1497 32.5549 13.0397 30.3249C11.6297 29.5649 10.2497 28.6349 8.90967 27.4949C7.53967 26.3449 6.22967 24.9749 5.00967 23.3649C3.85967 21.8549 2.78967 20.1349 1.82967 18.1649C0.519668 15.4949 0.879668 12.3149 2.83967 10.0849C4.35967 8.35493 6.61967 6.43493 9.85967 5.17493C10.3397 4.98493 10.8397 4.81493 11.3597 4.65493C11.3697 4.65493 11.3897 4.64493 11.3997 4.64493C11.3997 4.64493 12.7697 3.35493 14.3997 2.11493C14.8097 1.79493 15.2497 1.48493 15.6797 1.19493C16.8197 0.434925 18.3797 0.904925 18.8597 2.18493C19.7297 4.55493 21.4997 8.03493 24.5497 8.85493C28.8797 10.0249 34.1697 8.73493 36.1097 1.92493C36.4697 0.634925 38.1097 0.114925 39.0697 1.04493L39.0997 1.07493C39.0997 1.07493 39.5597 1.21493 40.1997 1.53493C41.2397 2.05493 42.7697 3.03493 43.5697 4.58493C43.5697 4.58493 43.8697 4.68493 44.3897 4.88493C45.9397 5.51493 49.3897 7.14493 52.1597 10.2449C53.5697 11.8249 54.1897 13.9449 53.9097 15.9849Z" fill="#4DA6FF"/>
<path d="M16.5999 13.6449L8.3999 27.2349C9.7399 28.3749 11.1199 29.3049 12.5299 30.0649L21.1399 15.8049L16.5999 13.6449Z" fill="#FFFFEB"/>
<path d="M29.5098 16.5449V33.0749C28.0998 33.2249 26.3898 33.3149 24.5098 33.2349V16.5449H29.5098Z" fill="#FFFFEB"/>
<path d="M37.55 13.585L45.88 26.905C44.65 27.815 43.24 28.705 41.64 29.545L33.02 15.745L37.55 13.585Z" fill="#FFFFEB"/>
<path d="M43.1597 6.92493L53.9097 15.9849C53.8297 16.6249 53.7297 17.1649 53.4597 17.7849C53.0697 18.6649 52.5597 19.6449 51.8797 20.6749L40.4097 11.1649L43.1597 6.92493Z" fill="#FFFFEB"/>
<path d="M43.5699 4.5849C42.8299 2.9249 40.7299 1.7949 39.6899 1.2749C39.6899 1.2749 36.8899 11.8049 27.0099 11.8449C18.7499 11.8749 15.2499 5.8349 13.9599 2.4149C12.3299 3.6549 11.3899 4.6449 11.3899 4.6449C11.3799 4.6449 5.3499 6.4749 2.3199 9.8249C0.329899 12.0249 -0.000100493 15.2349 1.3099 17.9049C2.2699 19.8749 3.3399 21.5949 4.4899 23.1049C6.9499 20.5249 11.2899 16.1149 13.5299 13.8449C14.3299 13.0349 15.4099 13.1949 16.3299 13.8549C16.7399 14.1549 17.1699 14.4349 17.4899 14.6149C23.4399 17.8349 30.9299 17.4949 36.7599 14.0649C41.9999 10.9849 43.9899 6.7949 44.3799 4.8849C43.8699 4.6849 43.5699 4.5849 43.5699 4.5849Z" fill="#3C86AC"/>
</g>
<defs>
<clipPath id="clip0_302_57">
<rect width="53.44" height="78.85" fill="white" transform="translate(0.540039 0.574951)"/>
</clipPath>
</defs>
</svg>
