<svg width="56" height="82" viewBox="0 0 56 82" fill="none" xmlns="http://www.w3.org/2000/svg">
<g clip-path="url(#clip0_301_11561)">
<path d="M52.4899 19.1699V81.4199H51.1799V74.2199H49.6699V81.4199H48.5299V74.2199H47.0299V81.4199H45.8899V74.2199H44.3899V81.4199H43.2399V74.2199H41.7399V81.4199H40.5899V74.2199H39.0899V81.4199H37.9399V74.2199H36.4399V81.4199H35.1899V31.6799C43.8499 28.6699 52.4899 19.1699 52.4899 19.1699Z" fill="#4DA6FF"/>
<path d="M52.49 52.71H35.21V57.13H52.49V52.71Z" fill="#FFFFEB"/>
<path d="M52.49 40.4099H35.21V44.8299H52.49V40.4099Z" fill="#FFFFEB"/>
<path d="M52.49 65.0099H35.21V69.4299H52.49V65.0099Z" fill="#FFFFEB"/>
<path d="M52.49 19.1699V26.2399C48.64 31.2599 42.93 34.6299 35.21 36.5699V31.6799C43.85 28.6699 52.49 19.1699 52.49 19.1699Z" fill="#3C86AC"/>
<path d="M55.1501 16.3799C55.0701 17.0399 54.8901 17.6899 54.6201 18.3299C54.2201 19.2299 53.7001 20.2399 53.0001 21.2899C51.6901 23.2899 49.7601 25.4699 46.9301 27.5699H46.9201C45.6601 28.4999 44.2101 29.4199 42.5701 30.2799C40.3801 31.4299 37.8301 32.4899 34.8601 33.4199C34.8601 33.4199 33.2401 33.8899 30.6601 34.1699C29.2101 34.3199 27.4601 34.4199 25.5301 34.3299C21.8301 34.1799 17.4601 33.3699 13.2501 31.0799C11.8001 30.2999 10.3901 29.3499 9.02007 28.1799C7.62007 26.9999 6.27007 25.5999 5.02007 23.9499C3.84007 22.3999 2.74007 20.6399 1.76007 18.6199C0.420068 15.8799 0.790067 12.6199 2.80007 10.3399C4.36007 8.56992 6.68007 6.59992 10.0001 5.30992C10.4901 5.11992 11.0001 4.93992 11.5401 4.77992C11.5501 4.77992 11.5701 4.76992 11.5801 4.76992C11.5801 4.76992 12.9801 3.44992 14.6601 2.17992C15.0801 1.84992 15.5301 1.52992 15.9701 1.23992C17.1401 0.459917 18.7401 0.939917 19.2301 2.24992C20.1201 4.67992 21.9401 8.24992 25.0601 9.08992C29.5001 10.2899 34.9201 8.96992 36.9101 1.98992C37.2801 0.669917 38.9601 0.129917 39.9401 1.08992L39.9701 1.11992C39.9701 1.11992 40.4401 1.25992 41.1001 1.58992C42.1701 2.11992 43.7301 3.12992 44.5501 4.71992C44.5501 4.71992 44.8601 4.81992 45.3901 5.02992C46.9801 5.67992 50.5201 7.34992 53.3601 10.5199C54.8001 12.1199 55.4401 14.2899 55.1501 16.3799Z" fill="#4DA6FF"/>
<path d="M16.9002 13.9799L8.49023 27.9099C9.86023 29.0799 11.2802 30.0299 12.7202 30.8099L21.5502 16.1899L16.9002 13.9799Z" fill="#FFFFEB"/>
<path d="M30.13 16.95V33.9C28.68 34.0499 26.93 34.15 25 34.0599V16.95H30.13Z" fill="#FFFFEB"/>
<path d="M38.38 13.9199L46.92 27.5799C45.66 28.5099 44.21 29.4299 42.57 30.2899L33.73 16.1299L38.38 13.9199Z" fill="#FFFFEB"/>
<path d="M44.1301 7.08997L55.1501 16.38C55.0701 17.04 54.9601 17.59 54.6801 18.22C54.2801 19.12 53.7601 20.13 53.0601 21.18L41.3101 11.43L44.1301 7.08997Z" fill="#FFFFEB"/>
<path d="M44.55 4.68993C43.79 2.97993 41.64 1.82993 40.57 1.29993C40.57 1.29993 37.7 12.0999 27.57 12.1399C19.1 12.1699 15.52 5.97993 14.2 2.46993C12.53 3.73993 11.57 4.75993 11.57 4.75993C11.56 4.75993 5.38003 6.63993 2.27003 10.0699C0.230031 12.3299 -0.109969 15.6199 1.23003 18.3499C2.21003 20.3699 3.31003 22.1299 4.49003 23.6799C7.01003 21.0399 11.46 16.5099 13.75 14.1799C14.57 13.3499 15.67 13.5099 16.62 14.1899C17.05 14.4999 17.48 14.7899 17.81 14.9699C23.91 18.2699 31.59 17.9199 37.56 14.4099C42.93 11.2499 44.97 6.95993 45.37 4.99993C44.86 4.79993 44.55 4.68993 44.55 4.68993Z" fill="#3C86AC"/>
</g>
<defs>
<clipPath id="clip0_301_11561">
<rect width="54.79" height="80.84" fill="white" transform="translate(0.430176 0.579956)"/>
</clipPath>
</defs>
</svg>
