<svg width="56" height="82" viewBox="0 0 56 82" fill="none" xmlns="http://www.w3.org/2000/svg">
<g clip-path="url(#clip0_301_5686)">
<path d="M52.7102 19.1699V81.4199H51.4002V74.2199H49.8902V81.4199H48.7502V74.2199H47.2502V81.4199H46.1102V74.2199H44.6102V81.4199H43.4602V74.2199H41.9602V81.4199H40.8102V74.2199H39.3102V81.4199H38.1602V74.2199H36.6602V81.4199H35.4102V31.6899C44.0702 28.6699 52.7102 19.1699 52.7102 19.1699Z" fill="#FFE478"/>
<path d="M52.7102 19.1599V26.2299C48.8602 31.2499 43.1502 34.6199 35.4302 36.5599V31.6799C44.0702 28.6699 52.7102 19.1599 52.7102 19.1599Z" fill="#A42B35"/>
<path d="M52.7102 52.28V81.42H51.4002V74.22H49.8902V81.42H48.7502V74.22H47.2502V81.42H46.1102V74.22H44.6102V81.42H43.4602V74.22H41.9702V81.42H40.8202V74.22H39.3202V81.42H38.1702V74.22H36.6802V81.42H35.4302V52.28H52.7102Z" fill="#FD3952"/>
<path d="M41.3098 1.56994C41.2998 1.56994 41.2998 1.56994 41.2998 1.55994C41.8898 1.86994 42.6198 2.30994 43.2798 2.86994C42.6098 2.28994 41.8898 1.84994 41.3098 1.56994Z" fill="#FFE478"/>
<path d="M53.5701 10.5C50.7301 7.32001 47.1901 5.65001 45.6001 5.01001C45.2001 6.97001 43.1601 11.26 37.7901 14.42C34.9001 16.12 31.6201 17.07 28.3101 17.24V34.36C29.2401 34.33 30.0901 34.27 30.8701 34.19C33.4501 33.91 35.0701 33.44 35.0701 33.44C38.0401 32.52 40.5901 31.45 42.7801 30.3C44.4201 29.44 45.8701 28.53 47.1301 27.59H47.1401C49.9701 25.49 51.9001 23.3 53.2101 21.31C53.9101 20.25 54.4301 19.25 54.8301 18.35C55.1101 17.71 55.2801 17.06 55.3601 16.4C55.6501 14.29 55.0201 12.12 53.5701 10.5Z" fill="#FD3952"/>
<path d="M44.7698 4.69C44.4498 3.98 43.8998 3.38 43.2798 2.87C43.8498 3.36 44.3898 3.96 44.7698 4.69Z" fill="#996824"/>
<path d="M40.7898 1.29993C40.7898 1.29993 40.7898 1.30993 40.7798 1.32993C40.9298 1.38993 41.0998 1.46993 41.2898 1.56993C41.1098 1.45993 40.9398 1.36993 40.7898 1.29993Z" fill="#996824"/>
<path d="M11.7901 4.75997C11.7901 4.75997 12.9601 3.65997 14.4301 2.49997C14.4301 2.48997 14.4201 2.47997 14.4201 2.46997C12.7501 3.73997 11.7901 4.74997 11.7901 4.75997C11.7901 4.75997 11.3201 4.89997 10.6001 5.16997C10.9801 5.02997 11.3501 4.88997 11.7501 4.76997C11.7601 4.76997 11.7801 4.75997 11.7901 4.75997Z" fill="#996824"/>
<path d="M10.2101 5.29991C10.0801 5.34991 9.96008 5.40991 9.83008 5.45991C10.1101 5.34991 10.3701 5.24991 10.6001 5.15991C10.4701 5.20991 10.3301 5.24991 10.2101 5.29991Z" fill="#FFE478"/>
<path d="M18.04 14.97C17.71 14.79 17.27 14.5 16.85 14.19C15.9 13.51 14.8 13.35 13.98 14.18C11.7 16.5 7.28 21 4.75 23.64C4.83 23.75 4.9 23.87 4.98 23.98C6.23 25.63 7.83 27 9.23 28.18C10.6 29.35 12.02 30.3 13.46 31.08C17.67 33.37 22.04 34.18 25.74 34.33C26.63 34.37 27.49 34.37 28.3 34.34V17.22C24.77 17.4 21.2 16.68 18.04 14.97Z" fill="#FFE478"/>
<path d="M40.1799 1.09997L40.1499 1.05997C39.1699 0.109967 37.4799 0.639967 37.1199 1.95997C35.5699 7.39997 31.9399 9.39997 28.3099 9.44997C27.2699 9.46997 26.2499 9.32997 25.2699 9.05997C22.1399 8.21997 20.3299 4.64997 19.4399 2.21997C18.9499 0.909967 17.3499 0.429967 16.1799 1.20997C15.7399 1.50997 15.2899 1.82997 14.8699 2.14997C14.7199 2.25997 14.5799 2.36997 14.4399 2.48997C15.7699 5.99997 19.3599 12.16 27.7999 12.13C27.9799 12.13 28.1499 12.12 28.3199 12.11C37.7499 11.72 40.6299 1.85997 40.7799 1.31997C40.4199 1.16997 40.1799 1.09997 40.1799 1.09997Z" fill="#FD3952"/>
<path d="M44.77 4.68994C44.39 3.95994 43.85 3.35994 43.28 2.85994C42.62 2.30994 41.89 1.86994 41.3 1.54994C41.11 1.44994 40.94 1.37994 40.79 1.30994C40.64 1.83994 37.76 11.7099 28.32 12.0999C28.15 12.1099 27.98 12.1199 27.8 12.1199C19.36 12.1499 15.77 5.99994 14.44 2.47994C12.97 3.63994 11.8 4.73994 11.8 4.73994C11.79 4.73994 11.77 4.74994 11.76 4.74994C11.36 4.86994 10.99 5.00994 10.61 5.14994C10.38 5.23994 10.12 5.32994 9.84001 5.44994C7.76001 6.28994 4.50001 7.84994 2.50001 10.0499C0.460011 12.3099 0.120011 15.5999 1.46001 18.3299C2.44001 20.3499 3.54001 22.1099 4.72001 23.6599C4.73001 23.6499 4.74001 23.6399 4.75001 23.6199C7.28001 20.9699 11.69 16.4799 13.98 14.1599C14.8 13.3299 15.9 13.4899 16.85 14.1699C17.28 14.4799 17.71 14.7699 18.04 14.9499C21.19 16.6599 24.77 17.3799 28.31 17.1999C31.62 17.0299 34.91 16.0799 37.79 14.3799C43.16 11.2199 45.2 6.92994 45.6 4.96994C45.07 4.79994 44.77 4.68994 44.77 4.68994Z" fill="#A42B35"/>
</g>
<defs>
<clipPath id="clip0_301_5686">
<rect width="54.78" height="80.84" fill="white" transform="translate(0.649902 0.579956)"/>
</clipPath>
</defs>
</svg>
