<svg width="32" height="26" viewBox="0 0 32 26" fill="none" xmlns="http://www.w3.org/2000/svg">
<g clip-path="url(#clip0_301_8407)">
<path d="M16.3505 22.25C12.2805 22.25 9.07047 20.91 6.80047 18.26C1.53047 12.11 3.14047 1.17997 3.21047 0.719971L4.07047 0.849971C4.05047 0.959971 2.44047 11.85 7.46047 17.7C9.56047 20.14 12.5505 21.38 16.3505 21.38C24.1305 21.38 28.8905 20.39 28.8905 0.779971H29.7605C29.7505 19.27 25.8005 22.25 16.3505 22.25Z" fill="#333C83"/>
<path d="M2.30029 5.85998L1.43029 4.98998C0.840293 4.39998 0.840293 3.43998 1.43029 2.84998L2.30029 1.97998C2.89029 1.38998 3.85029 1.38998 4.44029 1.97998L5.31029 2.84998C5.90029 3.43998 5.90029 4.39998 5.31029 4.98998L4.44029 5.85998C3.85029 6.44998 2.89029 6.44998 2.30029 5.85998Z" fill="#474DC0"/>
<path d="M2.63037 12.28L1.76037 11.41C1.17037 10.82 1.17037 9.86002 1.76037 9.27002L2.63037 8.40002C3.22037 7.81002 4.18037 7.81002 4.77037 8.40002L5.64037 9.27002C6.23037 9.86002 6.23037 10.82 5.64037 11.41L4.77037 12.28C4.18037 12.87 3.22037 12.87 2.63037 12.28Z" fill="#474DC0"/>
<path d="M4.5502 17.96L3.5702 16.98C2.9102 16.32 2.9102 15.23 3.5702 14.57L4.5502 13.59C5.2102 12.93 6.3002 12.93 6.9602 13.59L7.9402 14.57C8.60019 15.23 8.60019 16.32 7.9402 16.98L6.9602 17.96C6.3002 18.63 5.2102 18.63 4.5502 17.96Z" fill="#474DC0"/>
<path d="M28.9202 18.35L29.9002 17.37C30.5602 16.71 30.5602 15.62 29.9002 14.96L28.9202 13.98C28.2602 13.32 27.1702 13.32 26.5102 13.98L25.5302 14.96C24.8702 15.62 24.8702 16.71 25.5302 17.37L26.5102 18.35C27.1702 19.01 28.2602 19.01 28.9202 18.35Z" fill="#474DC0"/>
<path d="M24.4402 22.39L25.4202 21.41C26.0802 20.75 26.0802 19.66 25.4202 19L24.4402 18.02C23.7802 17.36 22.6902 17.36 22.0302 18.02L21.0502 19C20.3902 19.66 20.3902 20.75 21.0502 21.41L22.0302 22.39C22.6902 23.05 23.7802 23.05 24.4402 22.39Z" fill="#474DC0"/>
<path d="M11.0505 22.39L12.0305 21.41C12.6905 20.75 12.6905 19.66 12.0305 19L11.0505 18.02C10.3905 17.36 9.3005 17.36 8.6405 18.02L7.6605 19C6.9905 19.66 6.9905 20.74 7.6505 21.41L8.6305 22.39C9.3005 23.05 10.3805 23.05 11.0505 22.39Z" fill="#474DC0"/>
<path d="M18.0701 24.65L19.3201 23.4C20.1601 22.56 20.1601 21.18 19.3201 20.33L18.0701 19.08C17.2301 18.24 15.8501 18.24 15.0001 19.08L13.7501 20.33C12.9101 21.17 12.9101 22.55 13.7501 23.4L15.0001 24.65C15.8501 25.5 17.2301 25.5 18.0701 24.65Z" fill="#474DC0"/>
<path d="M28.2505 5.85998L27.3805 4.98998C26.7905 4.39998 26.7905 3.43998 27.3805 2.84998L28.2505 1.97998C28.8405 1.38998 29.8005 1.38998 30.3905 1.97998L31.2605 2.84998C31.8505 3.43998 31.8505 4.39998 31.2605 4.98998L30.3905 5.85998C29.8005 6.44998 28.8405 6.44998 28.2505 5.85998Z" fill="#474DC0"/>
<path d="M27.8101 12.28L26.9401 11.41C26.3501 10.82 26.3501 9.86002 26.9401 9.27002L27.8101 8.40002C28.4001 7.81002 29.3601 7.81002 29.9501 8.40002L30.8201 9.27002C31.4101 9.86002 31.4101 10.82 30.8201 11.41L29.9501 12.28C29.3601 12.87 28.4001 12.87 27.8101 12.28Z" fill="#474DC0"/>
</g>
<defs>
<clipPath id="clip0_301_8407">
<rect width="30.71" height="24.56" fill="white" transform="translate(0.990234 0.719971)"/>
</clipPath>
</defs>
</svg>
