<svg width="70" height="80" viewBox="0 0 70 80" fill="none" xmlns="http://www.w3.org/2000/svg">
<g clip-path="url(#clip0_302_3)">
<path d="M60.66 69.0399H45C44.97 67.9599 44.96 66.8999 44.96 65.8599C44.96 64.2599 45 62.7099 45.06 61.2099C45.24 56.8999 45.63 52.9799 46.13 49.5399C46.41 47.4999 46.73 45.6299 47.05 43.9399C48.29 37.5899 49.6 33.8899 49.6 33.8899C53.31 25.0799 55.68 31.3599 56.35 33.3599C56.44 33.6299 56.5 33.8199 56.53 33.8899C56.84 34.6299 57.12 35.5999 57.39 36.7299C57.96 39.0899 58.44 42.1799 58.85 45.5199V45.5299C59.01 46.8499 59.16 48.1899 59.3 49.5499V49.5599C60.25 59.1099 60.66 69.0399 60.66 69.0399Z" fill="#BD502F"/>
<path d="M69.5399 16.5499C69.5399 16.7599 69.5299 16.9799 69.4999 17.1899C69.4399 17.8899 69.2499 18.5799 68.9499 19.2399C68.7899 19.5999 68.6199 19.9599 68.4499 20.3199C67.7899 21.6899 67.0399 23.1299 66.1499 24.5699C65.3999 25.7899 64.5599 27.0099 63.6099 28.2099C62.3299 29.8399 60.8599 31.4299 59.1499 32.8999C55.4599 36.0799 50.6999 38.7299 44.4599 40.1199C42.9999 40.4499 41.4699 40.7099 39.8499 40.8799C38.1099 41.0799 36.2699 41.1799 34.3199 41.1799C32.3599 41.0199 30.4799 40.7899 28.6799 40.4799C27.5199 40.2999 26.3899 40.0699 25.2999 39.8199C21.9399 39.0499 18.8899 38.0199 16.1599 36.7399C15.2099 36.2999 14.2999 35.8299 13.4299 35.3299C11.0099 33.9499 8.87988 32.3499 7.03988 30.5499C6.31988 29.8499 5.63988 29.1199 5.00988 28.3499C3.20988 26.1799 1.76988 23.7699 0.709884 21.1599C0.609884 20.9299 0.909884 20.4299 0.819884 20.1999C0.119884 18.3399 0.849884 18.3299 1.83988 16.6099L2.55988 14.7199C7.39988 6.85987 11.0699 3.75987 15.6299 2.19987C16.8399 1.77987 17.8899 1.73987 18.2399 2.96987C18.8599 5.17987 22.1799 12.7999 22.4799 13.2199C23.8999 15.2199 26.0499 16.5599 28.2299 17.7499C28.6799 17.9999 29.2899 18.3899 29.7799 18.5699C31.1199 19.1099 34.3799 19.7299 36.0199 19.7299C46.4099 19.7299 50.1299 8.41987 51.8699 3.21987C52.2999 1.93987 53.0999 0.439868 54.3999 0.729868C54.4699 0.739868 54.5399 0.759868 54.6099 0.779868C55.6899 1.10987 56.7299 1.51987 57.7299 2.01987C58.6599 2.44987 59.5499 2.94987 60.3999 3.50987C61.4499 4.18987 62.4399 4.95987 63.3599 5.80987C64.2099 6.59987 64.9899 7.43987 65.6999 8.33987C66.0399 8.74987 66.3599 9.17987 66.6599 9.61987C67.2599 10.4899 67.7999 11.3999 68.2699 12.3599C68.5699 12.9299 68.8299 13.5199 69.0699 14.1299C69.3799 14.9099 69.5399 15.7299 69.5399 16.5499Z" fill="#F7ECB9"/>
<path d="M19.1401 31.5698C21.7901 34.3098 25.9501 34.6398 29.5301 35.0898C33.2401 35.5198 36.9801 35.2498 40.4301 33.6498L40.4001 33.4398C39.4601 33.2498 38.5401 33.1698 37.6301 33.1298C32.3001 32.7798 26.8701 34.2398 21.6501 32.6098C20.8201 32.3398 19.9501 32.0098 19.3101 31.4398L19.1401 31.5698Z" fill="#BD502F"/>
<path d="M55.2203 24.2699C54.2603 24.8199 53.3103 25.3899 52.3803 25.9699C51.9203 26.2599 51.3503 26.3899 51.0403 26.8199C50.7103 27.2499 50.4403 27.7099 50.2603 28.4499L50.3603 28.6199C51.7803 28.9599 52.7603 28.2499 53.4403 27.1699C54.1703 26.3099 54.8003 25.3799 55.3703 24.3999C55.3703 24.4099 55.2203 24.2699 55.2203 24.2699Z" fill="#BD502F"/>
<path d="M51.3503 2.43987C49.6103 7.63987 44.7103 19.1799 34.3203 19.1799C33.0203 19.1799 31.8203 18.9899 30.7103 18.6499C30.4503 18.9599 30.1503 19.2499 29.8203 19.4999C32.2703 20.4199 34.8503 20.9399 37.9103 20.4799C41.6003 19.9199 44.8903 17.8999 47.3203 15.0699C50.1203 11.8199 53.8303 6.50987 54.4003 0.729866C53.1003 0.439866 51.7803 1.15987 51.3503 2.43987Z" fill="#BD502F"/>
<path d="M24.1801 14.1399C23.8701 13.7799 23.5801 13.3999 23.3001 13.0199C22.9301 13.4899 22.4901 13.8999 21.9801 14.2199C20.8701 13.3199 19.3901 12.9999 18.0201 13.3499C17.4401 11.3899 15.9701 9.72989 13.9201 8.97989C14.3001 6.47989 16.4401 4.54989 19.0301 4.49989C18.7901 3.80989 18.6001 3.16989 18.4401 2.60989C18.0901 1.37989 16.8101 0.699886 15.6001 1.11989C11.0401 2.67989 6.27012 5.97989 1.44012 13.8399L0.870124 14.8199C-0.119876 16.5399 -0.269876 18.6099 0.430124 20.4699C0.520124 20.6999 0.610124 20.9299 0.710124 21.1599C1.76012 20.2199 3.89012 18.4299 6.61012 16.9299C6.61012 16.9299 6.62012 16.9299 6.62012 16.9199C6.27012 15.8799 6.22012 14.7399 6.59012 13.6099C7.49012 10.8399 10.4701 9.31989 13.2401 10.2199C15.0201 10.7999 16.2801 12.2299 16.7201 13.9099C16.5201 14.0399 16.3301 14.1899 16.1501 14.3499C16.8501 14.3799 17.5401 14.4899 18.2301 14.6599C18.2801 14.6699 18.3401 14.6899 18.3901 14.6999C18.4001 14.6999 18.4001 14.6999 18.4101 14.6999C18.6501 14.6399 18.8901 14.5999 19.1501 14.5999C20.1101 14.5999 20.9601 15.0499 21.5201 15.7399C21.5301 15.7399 21.5301 15.7399 21.5401 15.7499C22.2001 16.0099 22.8501 16.2999 23.4901 16.5899C23.3801 16.1299 23.1901 15.6799 22.9301 15.2799C23.3901 14.9599 23.8201 14.5799 24.1801 14.1399Z" fill="#BD502F"/>
<path d="M16.0601 17.6998C16.0601 19.3998 17.4401 20.7798 19.1401 20.7798C20.8401 20.7798 22.2201 19.3998 22.2201 17.6998C22.2201 16.9598 21.9501 16.2898 21.5101 15.7598C20.5201 15.3498 19.4901 14.9998 18.4001 14.7198C17.0601 15.0498 16.0601 16.2498 16.0601 17.6998Z" fill="#EB564B"/>
<path d="M19.1399 14.6199C18.8899 14.6199 18.6399 14.6599 18.3999 14.7199C19.4899 14.9999 20.5199 15.3499 21.5099 15.7599C20.9499 15.0699 20.0999 14.6199 19.1399 14.6199Z" fill="#99221F"/>
<path d="M17.5 21.8699C16.18 21.3499 15.17 20.2199 14.8 18.8399C13.06 18.7399 11.31 19.4899 10.22 21.0099C8.50999 23.3699 9.02999 26.6699 11.39 28.3799C13.53 29.9299 16.44 29.6499 18.24 27.8199C17.03 26.0099 16.82 23.7999 17.5 21.8699Z" fill="#EB564B"/>
<path d="M22.6001 20.5498C21.7001 21.6398 20.3101 22.2598 18.8801 22.1798C18.2501 23.7998 18.4201 25.6998 19.5201 27.2098C21.2301 29.5698 24.5301 30.0898 26.8901 28.3798C29.0301 26.8298 29.6601 23.9698 28.4801 21.6898C26.3901 22.2798 24.2301 21.7998 22.6001 20.5498Z" fill="#EB564B"/>
<path d="M23.3203 19.3299C24.6703 20.4299 26.5303 20.8499 28.3003 20.2699C28.8603 20.0899 29.3703 19.8299 29.8203 19.4999C27.6803 18.6999 25.6403 17.5999 23.4803 16.5999C23.7103 17.4899 23.6603 18.4499 23.3203 19.3299Z" fill="#EB564B"/>
<path d="M30.7099 18.6499C28.0499 17.8399 25.8999 16.1599 24.1799 14.1399C23.8199 14.5799 23.3899 14.9599 22.9199 15.2899C23.1799 15.6899 23.3699 16.1399 23.4799 16.5999C25.6399 17.5999 27.6799 18.6999 29.8199 19.4999C30.1499 19.2499 30.4499 18.9599 30.7099 18.6499Z" fill="#99221F"/>
<path d="M13.9199 8.97988C15.9699 9.72988 17.4399 11.3899 18.0199 13.3499C19.3899 12.9999 20.8699 13.3199 21.9799 14.2199C22.4899 13.8999 22.9299 13.4899 23.2999 13.0199C21.2299 10.2399 19.8699 7.00988 19.0299 4.49988C16.4399 4.54988 14.2999 6.47988 13.9199 8.97988Z" fill="#99221F"/>
<path d="M6.62988 16.9299C7.05988 18.2199 7.96988 19.3299 9.23988 19.9699C10.5899 18.2599 12.6199 17.3699 14.6699 17.4299C14.7399 16.2499 15.2799 15.1499 16.1599 14.3699C12.7399 14.1399 9.37988 15.3899 6.62988 16.9299Z" fill="#EB564B"/>
<path d="M13.2402 10.2298C10.4702 9.32982 7.49015 10.8498 6.59015 13.6198C6.23015 14.7398 6.28015 15.8898 6.62015 16.9298C9.38015 15.3898 12.7302 14.1498 16.1502 14.3698C16.3302 14.2098 16.5102 14.0598 16.7202 13.9298C16.2802 12.2398 15.0202 10.8098 13.2402 10.2298Z" fill="#99221F"/>
<path d="M68.45 20.3198C67.79 21.6898 67.04 23.1298 66.15 24.5698C65.98 24.5998 65.8 24.6198 65.62 24.6198C63.92 24.6198 62.54 23.2398 62.54 21.5398C62.54 19.8398 63.92 18.4598 65.62 18.4598C66.89 18.4598 67.98 19.2298 68.45 20.3198Z" fill="#EB564B"/>
<path d="M63.98 25.7099C63.7 26.5099 63.57 27.3599 63.61 28.2099C62.33 29.8399 60.86 31.4299 59.15 32.8999C58.7 32.7399 58.27 32.5099 57.86 32.2199C55.51 30.4999 54.98 27.1999 56.7 24.8399C57.79 23.3299 59.54 22.5699 61.28 22.6799C61.64 24.0599 62.66 25.1899 63.98 25.7099Z" fill="#EB564B"/>
<path d="M69.5399 16.5498C69.5399 16.7598 69.5299 16.9798 69.4999 17.1898C69.1999 17.5298 68.8499 17.8198 68.4599 18.0698C67.3499 17.1598 65.8699 16.8398 64.4999 17.1998C63.9199 15.2398 62.4499 13.5698 60.3999 12.8198C60.7899 10.2798 62.9799 8.33984 65.6199 8.33984H65.6999C66.0399 8.74984 66.3599 9.17984 66.6599 9.61984C67.2599 10.4898 67.7999 11.3998 68.2699 12.3598C68.5699 12.9298 68.8299 13.5198 69.0699 14.1298C69.3799 14.9098 69.5399 15.7298 69.5399 16.5498Z" fill="#EB564B"/>
<path d="M61.1501 21.2598C61.2401 19.8498 61.9901 18.5298 63.2001 17.7598C62.7601 16.0798 61.5001 14.6498 59.7201 14.0698C56.9501 13.1698 53.9701 14.6898 53.0701 17.4598C52.2501 19.9698 53.4201 22.6598 55.7201 23.8098C57.0701 22.0898 59.1001 21.2098 61.1501 21.2598Z" fill="#EB564B"/>
<path d="M41.8802 38.2098C41.8802 38.2098 36.4602 53.4898 37.0002 75.5398H53.6302C53.6302 75.5398 52.4202 45.8698 49.2502 38.2098C49.0002 37.6198 46.3502 27.5898 41.8802 38.2098Z" fill="#F7ECB9"/>
<path d="M44.1202 40.1799L45.7002 47.6399L47.1302 40.1599C47.2102 39.5699 47.0602 38.9699 46.7102 38.5499L46.7002 38.5299C46.1002 37.7899 45.1202 37.7899 44.5302 38.5299C44.1802 38.9699 44.0202 39.5899 44.1202 40.1799Z" fill="#BD502F"/>
<mask id="mask0_302_3" style="mask-type:luminance" maskUnits="userSpaceOnUse" x="36" y="33" width="18" height="43">
<path d="M41.8802 38.2098C41.8802 38.2098 36.4602 53.4898 37.0002 75.5398H53.6302C53.6302 75.5398 52.4202 45.8698 49.2502 38.2098C49.0002 37.6198 46.3502 27.5898 41.8802 38.2098Z" fill="white"/>
</mask>
<g mask="url(#mask0_302_3)">
<path d="M36.6303 70.7298C38.3313 70.7298 39.7103 69.3509 39.7103 67.6498C39.7103 65.9488 38.3313 64.5698 36.6303 64.5698C34.9293 64.5698 33.5503 65.9488 33.5503 67.6498C33.5503 69.3509 34.9293 70.7298 36.6303 70.7298Z" fill="#EB564B"/>
<path d="M40.0901 70.4999C39.1901 71.5899 37.8001 72.2099 36.3701 72.1299C35.7401 73.7499 35.9201 75.6499 37.0101 77.1599C38.7201 79.5199 42.0201 80.0399 44.3801 78.3299C46.5201 76.7799 47.1501 73.9199 45.9701 71.6399C43.8801 72.2299 41.7101 71.7499 40.0901 70.4999Z" fill="#EB564B"/>
<path d="M40.4102 65.2398C41.1702 66.4398 41.3302 67.9398 40.8102 69.2798C42.1502 70.3798 44.0202 70.7998 45.7902 70.2198C48.5602 69.3198 50.0802 66.3398 49.1802 63.5698C48.3602 61.0598 45.8402 59.5698 43.3102 59.9898C43.2202 62.1698 42.1002 64.0798 40.4102 65.2398Z" fill="#EB564B"/>
<path d="M35.5102 63.3098C36.8802 62.9598 38.3602 63.2698 39.4702 64.1798C40.9302 63.2398 41.9102 61.5998 41.9102 59.7298C41.9102 56.8098 39.5502 54.4498 36.6302 54.4498C33.9902 54.4498 31.8002 56.3898 31.4102 58.9298C33.4502 59.6798 34.9202 61.3498 35.5102 63.3098Z" fill="#EB564B"/>
</g>
</g>
<defs>
<clipPath id="clip0_302_3">
<rect width="69.54" height="78.66" fill="white" transform="translate(0 0.669922)"/>
</clipPath>
</defs>
</svg>
