<svg width="54" height="80" viewBox="0 0 54 80" fill="none" xmlns="http://www.w3.org/2000/svg">
<g clip-path="url(#clip0_302_160)">
<path d="M51.2799 18.705V79.425H49.9999V72.405H48.5299V79.425H47.4199V72.405H45.9499V79.425H44.8399V72.405H43.3799V79.425H42.2599V72.405H40.7999V79.425H39.6799V72.405H38.2199V79.425H37.0999V72.405H35.6399V79.425H34.4199V30.915C42.8499 27.975 51.2799 18.705 51.2799 18.705Z" fill="#FFE478"/>
<path d="M51.2897 18.705V25.605C47.5297 30.505 41.9597 33.785 34.4297 35.675V30.915C42.8597 27.975 51.2897 18.705 51.2897 18.705Z" fill="#A42B35"/>
<path d="M51.2799 51.0049V79.4249H49.9999V72.4049H48.5299V79.4249H47.4199V72.4049H45.9499V79.4249H44.8399V72.4049H43.3799V79.4249H42.2599V72.4049H40.7999V79.4249H39.6799V72.4049H38.2199V79.4249H37.0999V72.4049H35.6399V79.4249H34.4199V51.0049H51.2799Z" fill="#FD3952"/>
<path d="M40.1599 1.5349C40.1499 1.5349 40.1499 1.5349 40.1499 1.5249C40.7199 1.8349 41.4399 2.2649 42.0799 2.7949C41.4299 2.2349 40.7199 1.8149 40.1599 1.5349Z" fill="#FFE478"/>
<path d="M52.12 10.2449C49.35 7.14489 45.9 5.51489 44.35 4.88489C43.96 6.79489 41.97 10.9849 36.73 14.0649C33.91 15.7249 30.71 16.6449 27.48 16.8149V33.5149C28.39 33.4849 29.22 33.4249 29.98 33.3449C32.5 33.0749 34.08 32.6149 34.08 32.6149C36.98 31.7149 39.46 30.6749 41.6 29.5549C43.2 28.7149 44.61 27.8249 45.84 26.9149H45.85C48.61 24.8649 50.49 22.7349 51.77 20.7849C52.45 19.7549 52.96 18.7749 53.35 17.8949C53.62 17.2749 53.79 16.6349 53.87 15.9949C54.15 13.9449 53.53 11.8249 52.12 10.2449Z" fill="#FD3952"/>
<path d="M43.5301 4.58493C43.2201 3.89493 42.6801 3.30493 42.0801 2.80493C42.6401 3.28493 43.1601 3.87493 43.5301 4.58493Z" fill="#996824"/>
<path d="M39.6501 1.2749C39.6501 1.2749 39.6501 1.2849 39.6401 1.3049C39.7901 1.3649 39.9501 1.4449 40.1401 1.5349C39.9701 1.4349 39.8001 1.3449 39.6501 1.2749Z" fill="#996824"/>
<path d="M11.3602 4.64492C11.3602 4.64492 12.5002 3.57492 13.9402 2.44492C13.9402 2.43492 13.9302 2.42492 13.9302 2.41492C12.3002 3.65492 11.3602 4.64492 11.3602 4.64492C11.3602 4.64492 10.9102 4.78492 10.2002 5.04492C10.5702 4.91492 10.9302 4.77492 11.3202 4.65492C11.3302 4.65492 11.3502 4.64492 11.3602 4.64492Z" fill="#996824"/>
<path d="M9.8202 5.17492C9.7002 5.22492 9.5802 5.28492 9.4502 5.33492C9.7302 5.22492 9.9802 5.12492 10.2002 5.04492C10.0802 5.09492 9.9402 5.12492 9.8202 5.17492Z" fill="#FFE478"/>
<path d="M17.4703 14.6149C17.1403 14.4349 16.7203 14.1549 16.3103 13.8549C15.3903 13.1849 14.3103 13.0349 13.5103 13.8449C11.2803 16.1049 6.97025 20.4949 4.51025 23.0749C4.59025 23.1849 4.66025 23.2949 4.74025 23.4049C5.96025 25.0149 7.52025 26.3549 8.89025 27.5049C10.2303 28.6449 11.6103 29.5749 13.0203 30.3349C17.1303 32.5649 21.3903 33.3549 25.0003 33.5049C25.8703 33.5449 26.7103 33.5449 27.5003 33.5149V16.8149C24.0303 16.9849 20.5403 16.2749 17.4703 14.6149Z" fill="#FFE478"/>
<path d="M39.0599 1.07493L39.0299 1.04493C38.0699 0.114925 36.4299 0.634925 36.0699 1.92493C34.5599 7.23493 31.0199 9.18493 27.4799 9.23493C26.4699 9.25493 25.4699 9.11493 24.5099 8.85493C21.4599 8.03493 19.6899 4.55493 18.8199 2.18493C18.3399 0.904925 16.7799 0.434925 15.6399 1.19493C15.2099 1.48493 14.7699 1.79493 14.3599 2.11493C14.2199 2.22493 14.0799 2.33493 13.9399 2.44493C15.2399 5.87493 18.7399 11.8749 26.9699 11.8449C27.1399 11.8449 27.3099 11.8349 27.4799 11.8249C36.6899 11.4449 39.4999 1.82493 39.6399 1.29493C39.2999 1.15493 39.0599 1.07493 39.0599 1.07493Z" fill="#FD3952"/>
<path d="M43.5301 4.58493C43.1601 3.87493 42.6401 3.28493 42.0801 2.80493C41.4301 2.26493 40.7201 1.83493 40.1501 1.53493C39.9601 1.44493 39.8001 1.36493 39.6501 1.30493C39.5001 1.82493 36.6901 11.4449 27.4801 11.8249C27.3101 11.8349 27.1401 11.8449 26.9701 11.8449C18.7301 11.8749 15.2401 5.87493 13.9401 2.44493C12.5001 3.57493 11.3601 4.64493 11.3601 4.64493C11.3501 4.64493 11.3301 4.65493 11.3201 4.65493C10.9301 4.77493 10.5701 4.91493 10.2001 5.04493C9.98011 5.12493 9.73011 5.22493 9.45011 5.33493C7.42011 6.15493 4.24011 7.67493 2.29011 9.82493C0.300114 12.0249 -0.0298856 15.2349 1.28011 17.9049C2.24011 19.8749 3.31011 21.5949 4.46011 23.1049C4.47011 23.0949 4.48011 23.0849 4.49011 23.0749C6.96011 20.4949 11.2601 16.1049 13.4901 13.8449C14.2901 13.0349 15.3701 13.1949 16.2901 13.8549C16.7001 14.1549 17.1301 14.4349 17.4501 14.6149C20.5301 16.2749 24.0101 16.9849 27.4701 16.8149C30.7001 16.6549 33.9001 15.7249 36.7201 14.0649C41.9601 10.9849 43.9501 6.79493 44.3401 4.88493C43.8301 4.68493 43.5301 4.58493 43.5301 4.58493Z" fill="#A42B35"/>
</g>
<defs>
<clipPath id="clip0_302_160">
<rect width="53.44" height="78.85" fill="white" transform="translate(0.5 0.574951)"/>
</clipPath>
</defs>
</svg>
