<svg width="56" height="82" viewBox="0 0 56 82" fill="none" xmlns="http://www.w3.org/2000/svg">
<g clip-path="url(#clip0_301_5648)">
<path d="M52.9299 19.1699V81.4199H51.6199V74.2199H50.1099V81.4199H48.9699V74.2199H47.4699V81.4199H46.3299V74.2199H44.8299V81.4199H43.6799V74.2199H42.1799V81.4199H41.0299V74.2199H39.5299V81.4199H38.3799V74.2199H36.8799V81.4199H35.6299V31.6899C44.2899 28.6699 52.9299 19.1699 52.9299 19.1699Z" fill="#CFFF70"/>
<path d="M52.9299 19.1699V26.2399C49.0799 31.2599 43.3699 34.6299 35.6499 36.5699V31.6899C44.2899 28.6699 52.9299 19.1699 52.9299 19.1699Z" fill="#177F6D"/>
<path d="M55.5898 16.3799C55.5098 17.0399 55.3298 17.6899 55.0598 18.3299C54.6598 19.2299 54.1398 20.2399 53.4398 21.2899C53.2898 21.5299 53.1098 21.7699 52.9398 22.0199C51.6598 23.8099 49.8598 25.7299 47.3698 27.5799H47.3598C47.1798 27.7099 46.9898 27.8599 46.7998 27.9799C46.5198 28.1899 46.2398 28.3699 45.9498 28.5599C45.0498 29.1499 44.0698 29.7299 43.0198 30.2799C42.3398 30.6299 41.6398 30.9799 40.8998 31.3099C40.5898 31.4499 40.2798 31.5999 39.9598 31.7199C38.6498 32.2899 37.2098 32.8199 35.6598 33.3099C35.5498 33.3499 35.4298 33.3799 35.3098 33.4199C35.3098 33.4199 35.1398 33.4699 34.8098 33.5499C34.5598 33.5999 34.2298 33.6799 33.8198 33.7599H33.8098C33.1098 33.8999 32.1998 34.0599 31.1098 34.1699C30.3198 34.2499 29.4298 34.3199 28.4798 34.3499C28.1498 34.3499 27.7998 34.3599 27.4498 34.3599C26.9798 34.3599 26.4898 34.3499 25.9798 34.3299C24.7398 34.2799 23.4298 34.1599 22.0698 33.9199C21.7398 33.8699 21.3998 33.8099 21.0698 33.7399C19.3398 33.3899 17.5498 32.8599 15.7698 32.0899C15.4598 31.9599 15.1498 31.8199 14.8498 31.6599C14.4598 31.4899 14.0798 31.2899 13.6998 31.0899C12.4198 30.3999 11.1698 29.5699 9.94977 28.5899C9.78977 28.4599 9.62978 28.3199 9.46978 28.1899C9.36978 28.1099 9.25977 28.0199 9.15977 27.9299C7.82977 26.8199 6.30977 25.6099 5.14977 24.0899C4.82977 23.6799 4.54977 23.2499 4.27977 22.7899C4.27977 22.7899 4.27977 22.7899 4.27977 22.7799C3.53977 21.5199 2.92977 20.0999 2.20977 18.6299C0.869775 15.8899 1.23977 12.6299 3.24977 10.3499C4.60977 8.79992 6.55977 7.09992 9.24977 5.82992C9.47977 5.72992 9.68977 5.63992 9.90977 5.54992C10.0798 5.45992 10.2698 5.38992 10.4498 5.30992C10.5498 5.26992 10.6598 5.22992 10.7598 5.20992C11.0598 5.09992 11.3098 5.00992 11.5098 4.93992C11.5698 4.91992 11.6298 4.89992 11.6898 4.87992C11.9098 4.80992 12.0298 4.76992 12.0298 4.76992C12.0298 4.76992 12.0298 4.76992 12.0398 4.75992C12.0498 4.74992 12.0698 4.72992 12.0898 4.70992C12.0998 4.69992 12.1098 4.67992 12.1298 4.66992C12.4398 4.38992 13.4498 3.46992 14.6698 2.50992C14.8098 2.40992 14.9598 2.28992 15.0998 2.17992C15.5198 1.84992 15.9698 1.52992 16.4098 1.23992C17.5798 0.459917 19.1798 0.939917 19.6698 2.24992C20.5598 4.67992 22.3798 8.24992 25.4998 9.08992C29.9398 10.2899 35.3598 8.96992 37.3498 1.98992C37.7198 0.669917 39.3998 0.129917 40.3798 1.08992L40.4098 1.11992C40.4098 1.11992 40.6398 1.18992 40.9998 1.34992C41.1298 1.39992 41.2898 1.46992 41.4498 1.55992C41.4798 1.57992 41.5098 1.58992 41.5298 1.59992C42.0598 1.86992 42.7198 2.24992 43.3398 2.76992C43.4998 2.89992 43.6598 3.03992 43.8098 3.17992C44.2598 3.61992 44.6698 4.12992 44.9798 4.72992C44.9798 4.72992 45.2898 4.82992 45.8198 5.03992C47.4098 5.68992 50.9498 7.35992 53.7898 10.5399C55.2398 12.1199 55.8698 14.2899 55.5898 16.3799Z" fill="#CFFF70"/>
<path d="M44.99 4.69994C44.23 2.98994 42.08 1.83994 41.01 1.30994C41.01 1.30994 38.14 12.1099 28.01 12.1499C19.54 12.1799 15.96 5.98994 14.64 2.47994C12.97 3.74994 12.01 4.76994 12.01 4.76994C12 4.76994 5.81997 6.64994 2.70997 10.0799C0.669972 12.3399 0.329972 15.6299 1.66997 18.3599C2.64997 20.3799 3.74997 22.1399 4.92997 23.6899C7.44997 21.0499 11.9 16.5199 14.19 14.1899C15.01 13.3599 16.11 13.5199 17.06 14.1999C17.49 14.5099 17.92 14.7999 18.25 14.9799C24.35 18.2799 32.03 17.9299 38 14.4199C43.37 11.2599 45.41 6.96994 45.81 5.00994C45.3 4.79994 44.99 4.69994 44.99 4.69994Z" fill="#177F6D"/>
<path d="M50.26 35.2H49.23V39.82H50.26V35.2Z" fill="#174D62"/>
<path d="M43.4602 42.3599H42.4302V46.9799H43.4602V42.3599Z" fill="#174D62"/>
<path d="M47.7302 48.0299H46.7002V52.6499H47.7302V48.0299Z" fill="#174D62"/>
<path d="M50.26 51.7799H49.23V56.3999H50.26V51.7799Z" fill="#174D62"/>
<path d="M45.4602 64.6099H44.4302V69.2299H45.4602V64.6099Z" fill="#174D62"/>
<path d="M39.3601 56.97H38.3301V60.46H39.3601V56.97Z" fill="#174D62"/>
<path d="M45.71 11.9099L49.24 14.6199" stroke="#174D62" stroke-miterlimit="10"/>
<path d="M45.4102 17.47L48.3302 19.89" stroke="#174D62" stroke-miterlimit="10"/>
<path d="M12.5599 25.5599L9.9399 28.5799C9.7799 28.4499 9.6199 28.3099 9.4599 28.1799C9.3599 28.0999 9.2499 28.0099 9.1499 27.9199L11.7799 24.8799L12.5599 25.5599Z" fill="#174D62"/>
<path d="M17.4798 28.7199L15.7598 32.0799C15.4498 31.9499 15.1398 31.8099 14.8398 31.6499L16.5698 28.2499L17.4798 28.7199Z" fill="#174D62"/>
<path d="M22.8601 30.5698L22.0601 33.9198C21.7301 33.8698 21.3901 33.8098 21.0601 33.7398L21.8701 30.3398L22.8601 30.5698Z" fill="#174D62"/>
<path d="M28.4597 31.0999V34.3499C28.1297 34.3499 27.7797 34.3599 27.4297 34.3599V31.0999H28.4597Z" fill="#174D62"/>
<path d="M34.8 33.5498C34.55 33.5998 34.22 33.6798 33.81 33.7598H33.8L33.04 30.5698L34.04 30.3298L34.8 33.5498Z" fill="#174D62"/>
<path d="M40.8899 31.3099C40.5799 31.4499 40.2699 31.5999 39.9499 31.7199L38.4199 28.7299L39.3299 28.2599L40.8899 31.3099Z" fill="#174D62"/>
<path d="M46.7898 27.9799C46.5098 28.1899 46.2298 28.3699 45.9398 28.5599L43.3398 25.5599L44.1198 24.8799L46.7898 27.9799Z" fill="#174D62"/>
</g>
<defs>
<clipPath id="clip0_301_5648">
<rect width="54.78" height="80.84" fill="white" transform="translate(0.870117 0.579956)"/>
</clipPath>
</defs>
</svg>
