<svg width="39" height="33" viewBox="0 0 39 33" fill="none" xmlns="http://www.w3.org/2000/svg">
<g clip-path="url(#clip0_225_3925)">
<path d="M8.43994 27.6949C8.43994 27.6949 18.0199 36.8849 30.6399 27.6949" stroke="#9F644B" stroke-width="2" stroke-miterlimit="10" stroke-linecap="round"/>
<path d="M2.1197 4.82493H12.0797C12.8297 4.82493 13.4397 4.21493 13.4397 3.46493C13.4397 3.11493 13.5497 2.22493 13.3397 1.81493C13.0897 1.34493 12.4797 1.36493 12.0797 1.36493H2.1197C1.8097 1.36493 1.0997 1.45493 0.879704 1.77493C0.549704 2.23493 0.759704 3.01493 0.759704 3.46493C0.759704 4.21493 1.3697 4.82493 2.1197 4.82493Z" fill="#AD7153"/>
<path d="M2.11977 3.68494H12.0798C12.8298 3.68494 13.4398 3.07494 13.4398 2.32494C13.4398 1.57494 12.8298 0.964935 12.0798 0.964935H2.11977C1.36977 0.964935 0.759766 1.57494 0.759766 2.32494C0.759766 3.07494 1.36977 3.68494 2.11977 3.68494Z" fill="#0B1022"/>
<path d="M26.7598 4.82493H36.7198C37.4698 4.82493 38.0798 4.21493 38.0798 3.46493C38.0798 3.11493 38.1898 2.22493 37.9798 1.81493C37.7298 1.34493 37.1198 1.36493 36.7198 1.36493H26.7598C26.4498 1.36493 25.7398 1.45493 25.5198 1.77493C25.1898 2.23493 25.3998 3.01493 25.3998 3.46493C25.3998 4.21493 26.0098 4.82493 26.7598 4.82493Z" fill="#AD7153"/>
<path d="M26.7599 3.68494H36.7199C37.4699 3.68494 38.0799 3.07494 38.0799 2.32494C38.0799 1.57494 37.4699 0.964935 36.7199 0.964935H26.7599C26.0099 0.964935 25.3999 1.57494 25.3999 2.32494C25.3999 3.07494 26.0099 3.68494 26.7599 3.68494Z" fill="#0B1022"/>
<path d="M23.1896 23.1949C23.1896 25.1849 21.1596 26.7349 18.9096 26.1249C17.5096 25.7449 16.5696 24.4649 16.6096 23.1049C16.6096 23.0949 16.6096 23.0849 16.6096 23.0749C16.6196 22.8049 16.9896 22.7049 17.1396 22.9349C17.7296 23.7749 18.7396 24.3249 19.8896 24.3249C21.3496 24.3349 23.1896 22.8549 23.1896 23.1949Z" fill="#A2674D"/>
<path opacity="0.25" d="M22.6795 17.8549C22.6795 17.8549 22.6795 21.2549 19.0195 22.0249C19.0195 22.0249 20.6095 22.5149 21.9895 21.6949C22.7795 21.2249 23.2195 20.3749 23.1895 19.4549C23.1695 18.9549 23.0395 18.3849 22.6795 17.8549Z" fill="#A2674D"/>
<path d="M10.8696 12.4449C11.8802 12.4449 12.6996 11.2361 12.6996 9.74492C12.6996 8.25375 11.8802 7.04492 10.8696 7.04492C9.85887 7.04492 9.03955 8.25375 9.03955 9.74492C9.03955 11.2361 9.85887 12.4449 10.8696 12.4449Z" fill="#0A1021"/>
<path d="M28.9096 12.4449C29.9203 12.4449 30.7396 11.2361 30.7396 9.74492C30.7396 8.25375 29.9203 7.04492 28.9096 7.04492C27.8989 7.04492 27.0796 8.25375 27.0796 9.74492C27.0796 11.2361 27.8989 12.4449 28.9096 12.4449Z" fill="#0A1021"/>
</g>
<defs>
<clipPath id="clip0_225_3925">
<rect width="37.42" height="31.81" fill="white" transform="translate(0.689941 0.964935)"/>
</clipPath>
</defs>
</svg>
