<svg width="36" height="29" viewBox="0 0 36 29" fill="none" xmlns="http://www.w3.org/2000/svg">
<g clip-path="url(#clip0_225_3868)">
<path d="M23.4298 27.8249C23.4298 27.8249 19.7698 23.8649 15.5498 27.8249" stroke="#9F644B" stroke-width="2" stroke-miterlimit="10" stroke-linecap="round"/>
<path d="M1.84982 4.73492L11.3898 7.60492C12.1098 7.82492 12.8698 7.41492 13.0898 6.69492C13.1898 6.35492 13.5598 5.54492 13.4698 5.08492C13.3698 4.56492 12.7798 4.40492 12.3898 4.29492L2.84982 1.42492C2.54982 1.33492 1.84982 1.22492 1.53982 1.46492C1.08982 1.80492 1.06982 2.61492 0.939818 3.04492C0.719818 3.76492 1.12982 4.52492 1.84982 4.73492Z" fill="#AD7153"/>
<path d="M2.18004 3.65492L11.72 6.52492C12.44 6.74492 13.2 6.33492 13.42 5.61492C13.64 4.89492 13.23 4.13492 12.51 3.91492L2.96004 1.04492C2.24004 0.824921 1.48004 1.23492 1.26004 1.95492C1.05004 2.67492 1.46004 3.43492 2.18004 3.65492Z" fill="#0B1022"/>
<path d="M25.4597 7.66494L34.9497 4.65494C35.6697 4.42494 36.0597 3.66494 35.8397 2.94494C35.7297 2.61494 35.5797 1.72494 35.2397 1.40494C34.8597 1.03494 34.2897 1.23494 33.8997 1.35494L24.4097 4.36494C24.1197 4.45494 23.4697 4.76494 23.3497 5.13494C23.1797 5.67494 23.6097 6.35494 23.7497 6.77494C23.9697 7.49494 24.7397 7.89494 25.4597 7.66494Z" fill="#AD7153"/>
<path d="M25.1096 6.58493L34.5996 3.57493C35.3196 3.34493 35.7096 2.58493 35.4896 1.86493C35.2596 1.14493 34.4996 0.754927 33.7796 0.974927L24.2896 3.98493C23.5696 4.21493 23.1796 4.97493 23.3996 5.69493C23.6296 6.41493 24.3996 6.81493 25.1096 6.58493Z" fill="#0B1022"/>
<path d="M22.4098 16.6349C22.4098 18.6249 20.3798 20.1749 18.1298 19.5649C16.7298 19.1849 15.7898 17.9049 15.8298 16.5449C15.8298 16.5349 15.8298 16.5249 15.8298 16.5149C15.8398 16.2449 16.2098 16.1449 16.3598 16.3749C16.9498 17.2149 17.9598 17.7649 19.1098 17.7649C20.5698 17.7749 22.4098 16.2949 22.4098 16.6349Z" fill="#A2674D"/>
<path opacity="0.25" d="M21.89 11.2849C21.89 11.2849 21.89 14.6849 18.23 15.4549C18.23 15.4549 19.82 15.9449 21.2 15.1249C21.99 14.6549 22.43 13.8049 22.4 12.8849C22.39 12.3949 22.26 11.8149 21.89 11.2849Z" fill="#A2674D"/>
<path d="M9.7299 9.16492C10.7406 9.16492 11.5599 7.95609 11.5599 6.46492C11.5599 4.97375 10.7406 3.76492 9.7299 3.76492C8.71922 3.76492 7.8999 4.97375 7.8999 6.46492C7.8999 7.95609 8.71922 9.16492 9.7299 9.16492Z" fill="#0A1021"/>
<path d="M27.7699 9.16492C28.7806 9.16492 29.5999 7.95609 29.5999 6.46492C29.5999 4.97375 28.7806 3.76492 27.7699 3.76492C26.7593 3.76492 25.9399 4.97375 25.9399 6.46492C25.9399 7.95609 26.7593 9.16492 27.7699 9.16492Z" fill="#0A1021"/>
<path d="M16.9501 2.17493C16.9501 2.17493 18.3501 5.32493 16.3101 6.36493C16.3101 6.37493 16.7401 3.67493 16.9501 2.17493Z" fill="#A2674D"/>
<path d="M20.2796 2.17493C20.2796 2.17493 18.8796 5.32493 20.9196 6.36493C20.9196 6.37493 20.4896 3.67493 20.2796 2.17493Z" fill="#A2674D"/>
</g>
<defs>
<clipPath id="clip0_225_3868">
<rect width="35.02" height="27.91" fill="white" transform="translate(0.879883 0.914917)"/>
</clipPath>
</defs>
</svg>
