<svg width="38" height="36" viewBox="0 0 38 36" fill="none" xmlns="http://www.w3.org/2000/svg">
<g clip-path="url(#clip0_225_3817)">
<path d="M9.39982 14.1749C10.4105 14.1749 11.2298 12.9661 11.2298 11.4749C11.2298 9.98376 10.4105 8.77493 9.39982 8.77493C8.38914 8.77493 7.56982 9.98376 7.56982 11.4749C7.56982 12.9661 8.38914 14.1749 9.39982 14.1749Z" fill="#0A1021"/>
<path d="M26.3398 12.8849C26.3398 12.8849 26.3998 11.4849 28.0998 11.4849C29.7898 11.4849 29.7798 12.8849 29.7798 12.8849" stroke="#0A1021" stroke-miterlimit="10" stroke-linecap="round"/>
<path d="M7.56982 30.5149C7.56982 30.5149 17.1498 39.7049 29.7698 30.5149" stroke="#B47759" stroke-width="2" stroke-miterlimit="10" stroke-linecap="round"/>
<path d="M5.1899 17.7549C6.17849 17.7549 6.9799 16.9535 6.9799 15.9649C6.9799 14.9763 6.17849 14.1749 5.1899 14.1749C4.20131 14.1749 3.3999 14.9763 3.3999 15.9649C3.3999 16.9535 4.20131 17.7549 5.1899 17.7549Z" fill="#B47759"/>
<path d="M21.2098 23.7849C21.2098 25.4249 19.6398 26.7149 17.9098 26.2149C16.8298 25.9049 16.1098 24.8449 16.1298 23.7149C16.1298 23.7049 16.1298 23.6949 16.1298 23.6949C16.1398 23.4749 16.4198 23.3949 16.5398 23.5749C16.9898 24.2649 17.7698 24.7249 18.6598 24.7249C19.7898 24.7349 21.2098 23.5049 21.2098 23.7849Z" fill="#A2674D"/>
<path d="M1.36 3.99491H11.32C12.07 3.99491 12.68 3.38491 12.68 2.63491C12.68 2.28491 12.79 1.39491 12.58 0.984913C12.33 0.514913 11.72 0.534913 11.32 0.534913L1.36 1.26491C0.61 1.26491 0 1.87491 0 2.63491C0 3.38491 0.61 3.99491 1.36 3.99491Z" fill="#AD7153"/>
<path d="M26.2999 9.32492H36.2599C37.0099 9.32492 37.6199 8.71492 37.6199 7.96492C37.6199 7.21492 37.0099 6.60492 36.2599 6.60492H26.2999C25.5499 6.60492 24.9399 7.21492 24.9399 7.96492C24.9399 8.71492 25.5499 9.32492 26.2999 9.32492Z" fill="#0B1022"/>
<path d="M1.36 2.85492H11.32C12.07 2.85492 12.68 2.24492 12.68 1.49492C12.68 0.744918 12.07 0.134918 11.32 0.134918H1.36C0.61 0.134918 0 0.744918 0 1.49492C0 2.24492 0.61 2.85492 1.36 2.85492Z" fill="#0B1022"/>
</g>
<defs>
<clipPath id="clip0_225_3817">
<rect width="37.62" height="35.47" fill="white" transform="translate(0 0.134918)"/>
</clipPath>
</defs>
</svg>
