<svg width="37" height="34" viewBox="0 0 37 34" fill="none" xmlns="http://www.w3.org/2000/svg">
<g clip-path="url(#clip0_225_3885)">
<path d="M1.2599 7.22491L11.7699 7.09491C12.4899 7.31491 13.2499 6.90491 13.4699 6.18491C13.5699 5.84491 13.9399 5.03491 13.8499 4.57491C13.7499 4.05491 13.1599 3.89491 12.7699 3.78491L3.2199 0.914906C2.9199 0.824906 2.2199 0.714906 1.9099 0.954906C1.4599 1.30491 1.4399 2.11491 1.3099 2.53491C1.0999 3.25491 0.539895 7.01491 1.2599 7.22491Z" fill="#AD7153"/>
<path d="M2.55001 3.14492L12.09 6.01492C12.81 6.23492 13.57 5.82492 13.79 5.10492C14.01 4.38492 13.6 3.62492 12.88 3.40492L3.34001 0.544921C2.62001 0.324921 1.86001 0.734921 1.64001 1.45492C1.42001 2.17492 1.83001 2.93492 2.55001 3.14492Z" fill="#0B1022"/>
<path d="M25.8298 7.16494L35.3198 7.22494C36.0398 6.99494 36.4298 3.15494 36.2098 2.44494C36.0998 2.11494 35.9498 1.22494 35.6098 0.904939C35.2298 0.534939 34.6598 0.734939 34.2698 0.854939L24.7798 3.86494C24.4898 3.95494 23.8398 4.26494 23.7198 4.63494C23.5498 5.17494 23.9798 5.85494 24.1198 6.27494C24.3498 6.99494 25.1098 7.39494 25.8298 7.16494Z" fill="#AD7153"/>
<path d="M25.49 6.08493L34.98 3.07493C35.7 2.84493 36.09 2.08493 35.87 1.36493C35.64 0.644927 34.88 0.254927 34.16 0.474927L24.67 3.48493C23.95 3.71493 23.56 4.47493 23.78 5.19493C24.01 5.91493 24.77 6.31493 25.49 6.08493Z" fill="#0B1022"/>
<path d="M22.78 16.1349C22.78 18.1249 20.75 19.6749 18.5 19.0649C17.1 18.6849 16.16 17.4049 16.2 16.0449C16.2 16.0349 16.2 16.0249 16.2 16.0149C16.21 15.7449 16.58 15.6449 16.73 15.8749C17.32 16.7149 18.33 17.2649 19.48 17.2649C20.95 17.2649 22.78 15.7849 22.78 16.1349Z" fill="#A2674D"/>
<path opacity="0.25" d="M22.2699 10.7849C22.2699 10.7849 22.2699 14.1849 18.6099 14.9549C18.6099 14.9549 20.1999 15.4449 21.5799 14.6249C22.3699 14.1549 22.8099 13.3049 22.7799 12.3849C22.7599 11.8949 22.6399 11.3149 22.2699 10.7849Z" fill="#A2674D"/>
<path d="M10.1098 8.66492C11.1205 8.66492 11.9398 7.45609 11.9398 5.96492C11.9398 4.47375 11.1205 3.26492 10.1098 3.26492C9.0991 3.26492 8.27979 4.47375 8.27979 5.96492C8.27979 7.45609 9.0991 8.66492 10.1098 8.66492Z" fill="#0A1021"/>
<path d="M28.1498 8.66492C29.1605 8.66492 29.9798 7.45609 29.9798 5.96492C29.9798 4.47375 29.1605 3.26492 28.1498 3.26492C27.1391 3.26492 26.3198 4.47375 26.3198 5.96492C26.3198 7.45609 27.1391 8.66492 28.1498 8.66492Z" fill="#0A1021"/>
<path d="M16.2998 6.23492C16.2798 6.23492 16.2598 6.23492 16.2298 6.23492C15.5598 6.19492 15.0398 5.48492 15.0798 4.65492L15.2098 1.71492C15.2498 0.88492 15.8298 0.23492 16.4898 0.29492C17.1598 0.33492 17.6798 1.04492 17.6398 1.87492L17.5098 4.81492C17.4798 5.61492 16.9398 6.23492 16.2998 6.23492Z" fill="#A2674D"/>
<path d="M21.5697 6.23492C21.5897 6.23492 21.6097 6.23492 21.6397 6.23492C22.3097 6.19492 22.8297 5.48492 22.7897 4.65492L22.6597 1.71492C22.6197 0.88492 22.0397 0.23492 21.3797 0.29492C20.7097 0.33492 20.1897 1.04492 20.2297 1.87492L20.3597 4.81492C20.3897 5.61492 20.9297 6.23492 21.5697 6.23492Z" fill="#A2674D"/>
<path d="M22.7798 33.4449H17.0698C16.2398 33.4449 15.5698 32.7749 15.5698 31.9449C15.5698 31.1149 16.2398 30.4449 17.0698 30.4449H22.7798C23.6098 30.4449 24.2798 31.1149 24.2798 31.9449C24.2798 32.7749 23.6098 33.4449 22.7798 33.4449Z" fill="#A2674D"/>
<path d="M12.5701 25.7049L13.2201 25.1449C14.9901 23.6249 17.2401 22.7949 19.5801 22.7949C22.1701 22.7949 24.6601 23.8249 26.4901 25.6549L26.5901 25.7549C27.7901 26.9549 27.7901 28.9049 26.5901 30.1049L26.4801 30.2149C25.9001 30.7949 25.1201 31.1149 24.3001 31.1149H14.5601C13.5201 31.1149 12.5501 30.5849 11.9801 29.7149C11.1501 28.4249 11.4001 26.7049 12.5701 25.7049Z" fill="white" stroke="#AD7153" stroke-miterlimit="10"/>
</g>
<defs>
<clipPath id="clip0_225_3885">
<rect width="35.37" height="33.15" fill="white" transform="translate(0.899902 0.294922)"/>
</clipPath>
</defs>
</svg>
