<svg width="55" height="32" viewBox="0 0 55 32" fill="none" xmlns="http://www.w3.org/2000/svg">
<g clip-path="url(#clip0_222_808)">
<path d="M0.997559 24.109C1.02756 25.109 1.93756 27.259 4.87756 29.289C17.8776 33.779 43.4876 31.639 49.5376 29.379C54.7276 27.439 54.5076 22.889 54.2576 23.089L0.997559 24.109Z" fill="#61749B"/>
<path d="M27.8078 18.9291C42.7678 18.9291 54.8978 21.1391 54.8978 23.8791C54.8978 26.6091 42.7678 28.8291 27.8078 28.8291C12.8478 28.8291 0.717773 26.6191 0.717773 23.8791C0.717773 21.1391 12.8478 18.9291 27.8078 18.9291Z" fill="#1B2447"/>
<path d="M27.7677 26.509C41.7847 26.509 53.1477 24.9152 53.1477 22.949C53.1477 20.9829 41.7847 19.389 27.7677 19.389C13.7507 19.389 2.3877 20.9829 2.3877 22.949C2.3877 24.9152 13.7507 26.509 27.7677 26.509Z" fill="#3A4C77"/>
<path d="M10.1577 8.82909C16.6677 -1.93091 38.0177 -1.0609 44.5477 7.51909C47.6777 11.6391 47.7577 24.0791 47.6977 24.9691L7.54771 25.0391C8.43771 21.8791 5.60771 16.3491 10.1577 8.82909Z" fill="#1B2447"/>
<path d="M7.51758 20.4391C21.4076 22.8691 34.1276 21.8091 47.6676 20.0691L48.0376 24.6891C34.0476 27.9491 21.2576 26.6091 7.59758 25.1091L7.51758 20.4391Z" fill="#61749B"/>
</g>
<defs>
<clipPath id="clip0_222_808">
<rect width="54.18" height="31" fill="white" transform="translate(0.720215 0.919922)"/>
</clipPath>
</defs>
</svg>
