<svg width="85" height="90" viewBox="0 0 85 90" fill="none" xmlns="http://www.w3.org/2000/svg">
<g clip-path="url(#clip0_340_297)">
<path d="M63.9903 24.09C63.9903 24.28 63.9903 24.47 63.9703 24.65C63.9703 24.89 63.9603 25.12 63.9403 25.35C63.9003 25.93 63.8303 26.5 63.7303 27.06C63.6403 27.6 63.5203 28.13 63.3603 28.65C63.1603 29.42 62.8903 30.17 62.5703 30.9C62.3303 31.48 62.0503 32.04 61.7403 32.59L61.7303 32.6L61.7203 32.59C60.6203 31.66 59.2003 31.1 57.6503 31.1H57.2103C55.3903 31.1 53.9003 31.13 52.2703 32.07C50.1503 33.29 46.3403 33.73 42.5003 33.73C38.6703 33.73 34.3903 33.04 32.2703 31.82C31.4803 31.36 30.8103 31.17 30.1303 31.1H27.3603C26.9903 31.1 26.6303 31.13 26.2903 31.2C25.1503 31.38 24.1203 31.88 23.2803 32.59L23.2703 32.6C23.2603 32.6 23.2603 32.59 23.2603 32.59C23.0103 32.15 22.7803 31.7 22.5803 31.24C22.1903 30.41 21.8803 29.54 21.6403 28.65C21.4803 28.13 21.3603 27.6 21.2703 27.06C21.1703 26.5 21.1003 25.93 21.0603 25.35C21.0403 25.12 21.0303 24.89 21.0303 24.65C21.0103 24.47 21.0103 24.28 21.0103 24.09C21.0103 23.27 21.0703 22.47 21.1903 21.68C22.5203 12.28 31.5603 5.01001 42.5003 5.01001C53.4503 5.01001 62.4903 12.28 63.8103 21.68C63.9303 22.47 63.9903 23.27 63.9903 24.09Z" fill="#8FDE5D"/>
<path d="M39.3999 16.1801H28.4199C27.8699 16.1801 27.4199 15.7301 27.4199 15.1801C27.4199 14.6301 27.8699 14.1801 28.4199 14.1801H39.3999C39.9499 14.1801 40.3999 14.6301 40.3999 15.1801C40.3999 15.7301 39.9499 16.1801 39.3999 16.1801Z" fill="#3CA370"/>
<path d="M51.63 23.45H33.37C32.45 23.45 31.71 22.54 31.71 21.41C31.71 20.28 32.45 19.37 33.37 19.37H51.64C52.56 19.37 53.3 20.28 53.3 21.41C53.3 22.54 52.55 23.45 51.63 23.45Z" fill="#3CA370"/>
<path d="M34.3003 69.94V84.99H21.0103V37.44C21.0103 35.84 21.6003 34.39 22.5803 33.28V51.74C22.5803 57.05 24.6503 61.88 28.0403 65.46C28.6503 66.12 29.3203 66.74 30.0403 67.31C31.2203 68.27 32.5203 69.09 33.9103 69.76C34.0403 69.82 34.1703 69.88 34.3003 69.94Z" fill="#3D6E70"/>
<path d="M52.2699 32.07C50.1499 33.29 46.3399 33.73 42.4999 33.73C38.6699 33.73 34.3899 33.04 32.2699 31.82C31.4799 31.36 30.8099 31.17 30.1299 31.1H57.2099C55.3899 31.1 53.8999 31.13 52.2699 32.07Z" fill="#3D6E70"/>
<path d="M63.99 37.45V84.9899H50.29V70.19C57.5 67.17 62.57 60.05 62.57 51.74V33.45C63.46 34.54 63.99 35.93 63.99 37.45Z" fill="#3D6E70"/>
<path d="M30.04 67.31V72.57C30.04 73.13 29.59 73.57 29.04 73.57C28.49 73.57 28.04 73.13 28.04 72.57V65.46C28.65 66.12 29.32 66.74 30.04 67.31Z" fill="#323E4F"/>
<path d="M34.3002 69.94V70.81C34.0602 70.63 33.9102 70.34 33.9102 70.02V69.76C34.0402 69.82 34.1702 69.88 34.3002 69.94Z" fill="#323E4F"/>
<path d="M67.8599 33V84.99H63.9899V37.45C63.9899 35.93 63.4599 34.54 62.5699 33.45C62.4299 33.28 62.2899 33.12 62.1299 32.96C61.9999 32.83 61.8699 32.71 61.7299 32.6L61.7199 32.59C60.6199 31.66 59.1999 31.1 57.6499 31.1H57.2099C55.3899 31.1 53.8999 31.13 52.2699 32.07C50.1499 33.29 46.3399 33.73 42.4999 33.73C38.6699 33.73 34.3899 33.04 32.2699 31.82C31.4799 31.36 30.8099 31.17 30.1299 31.1C29.8699 31.07 29.5999 31.06 29.3199 31.06C28.7399 31.06 28.1099 31.1 27.3599 31.1C26.9899 31.1 26.6299 31.13 26.2899 31.2C25.1499 31.38 24.1199 31.88 23.2799 32.59L23.2699 32.6C23.0199 32.8 22.7899 33.03 22.5799 33.28C21.5999 34.39 21.0099 35.84 21.0099 37.44V84.99H17.1499V33C17.1499 31.31 17.8099 29.78 18.8799 28.65C18.9799 28.53 19.0899 28.43 19.2099 28.33C19.7299 27.84 20.3299 27.45 20.9899 27.16C21.0799 27.12 21.1799 27.09 21.2699 27.06C21.7099 26.89 22.1699 26.77 22.6499 26.71C22.6599 26.71 22.6599 26.71 22.6599 26.71C22.9299 26.67 23.2099 26.65 23.4899 26.65H61.5199C61.8499 26.65 62.1699 26.68 62.4899 26.73C62.9199 26.79 63.3299 26.9 63.7299 27.06C63.8299 27.08 63.9199 27.12 64.0199 27.16C64.6799 27.45 65.2799 27.84 65.7999 28.33C65.9199 28.42 66.0299 28.53 66.1299 28.65C67.1999 29.78 67.8599 31.31 67.8599 33Z" fill="#8FDE5D"/>
<path d="M65.2203 25.35H19.7803C18.9503 25.35 18.2803 24.34 18.2803 23.51C18.2803 22.68 18.9503 21.67 19.7803 21.67H65.2303C66.0603 21.67 66.7303 22.68 66.7303 23.51C66.7303 24.34 66.0503 25.35 65.2203 25.35Z" fill="#243589"/>
<path d="M68.46 26.65C68.46 27.75 67.57 28.65 66.46 28.65H18.54C17.43 28.65 16.54 27.75 16.54 26.65C16.54 25.54 17.43 24.65 18.54 24.65H66.45C67.56 24.65 68.46 25.54 68.46 26.65Z" fill="#172460"/>
<path d="M20.9802 27.03V28.65H19.2002V27.03C19.2002 26.54 19.6002 26.14 20.0902 26.14C20.5902 26.14 20.9802 26.54 20.9802 27.03Z" fill="#3C50C6"/>
<path d="M25.9602 27.03V28.65H24.1802V27.03C24.1802 26.54 24.5802 26.14 25.0702 26.14C25.5702 26.14 25.9602 26.54 25.9602 27.03Z" fill="#3C50C6"/>
<path d="M30.9502 27.03V28.65H29.1602V27.03C29.1602 26.54 29.5602 26.14 30.0502 26.14H30.0602C30.5502 26.14 30.9502 26.54 30.9502 27.03Z" fill="#3C50C6"/>
<path d="M35.9301 27.03V28.65H34.1401V27.03C34.1401 26.54 34.5401 26.14 35.0301 26.14H35.0401C35.5301 26.14 35.9301 26.54 35.9301 27.03Z" fill="#3C50C6"/>
<path d="M40.9101 27.03V28.65H39.1201V27.03C39.1201 26.54 39.5201 26.14 40.0101 26.14H40.0201C40.5101 26.14 40.9101 26.54 40.9101 27.03Z" fill="#3C50C6"/>
<path d="M45.8901 27.03V28.65H44.1001V27.03C44.1001 26.54 44.5001 26.14 44.9901 26.14H45.0001C45.4901 26.14 45.8901 26.54 45.8901 27.03Z" fill="#3C50C6"/>
<path d="M50.8603 27.03V28.65H49.0703V27.03C49.0703 26.54 49.4703 26.14 49.9603 26.14H49.9703C50.4703 26.14 50.8603 26.54 50.8603 27.03Z" fill="#3C50C6"/>
<path d="M55.8403 27.03V28.65H54.0503V27.03C54.0503 26.54 54.4503 26.14 54.9403 26.14H54.9503C55.4503 26.14 55.8403 26.54 55.8403 27.03Z" fill="#3C50C6"/>
<path d="M60.8103 27.03V28.65H59.0303V27.03C59.0303 26.54 59.4303 26.14 59.9203 26.14C60.4203 26.14 60.8103 26.54 60.8103 27.03Z" fill="#3C50C6"/>
<path d="M65.7903 27.03V28.65H64.0103V27.03C64.0103 26.54 64.4103 26.14 64.9003 26.14C65.4003 26.14 65.7903 26.54 65.7903 27.03Z" fill="#3C50C6"/>
</g>
<defs>
<clipPath id="clip0_340_297">
<rect width="85" height="90" fill="white"/>
</clipPath>
</defs>
</svg>
