<svg width="85" height="90" viewBox="0 0 85 90" fill="none" xmlns="http://www.w3.org/2000/svg">
<g clip-path="url(#clip0_340_350)">
<path d="M42.8599 13.2V63.1399C46.0899 57.5699 48.1399 45.8099 48.1399 36.4599C48.1399 27.1199 46.0899 18.77 42.8599 13.2Z" fill="#F2A65E"/>
<path d="M37.5698 36.4599C37.5698 45.8099 39.6198 57.5599 42.8498 63.1399V13.2C39.6298 18.77 37.5698 27.1199 37.5698 36.4599Z" fill="#FFE478"/>
<path d="M40.1297 67.6099C42.1997 61.6299 41.8797 49.7499 40.0197 40.5399C38.1597 31.3399 34.4697 23.4299 30.1797 18.4299C28.1097 24.4099 27.7497 32.9499 29.6097 42.1399C31.4697 51.3499 35.8397 62.6199 40.1297 67.6099Z" fill="#FFE478"/>
<path d="M37.1398 68.36C38.6598 61.98 37.0198 50.13 34.0598 41.26C31.0998 32.4 26.3598 25.18 21.3098 20.99C19.7898 27.37 20.3498 35.99 23.3098 44.85C26.2698 53.72 32.0898 64.18 37.1398 68.36Z" fill="#F2A65E"/>
<path d="M35.0497 70.37C35.6097 63.83 33.1097 55.07 28.8597 46.74C24.6197 38.42 18.8597 31.97 13.2497 28.58C12.6897 35.12 14.5197 43.56 18.7597 51.88C23.0097 60.22 29.4297 66.98 35.0497 70.37Z" fill="#FFE478"/>
<path d="M38.31 68.2999C37.1 62.8299 31.44 54.3399 25.87 48.6199C20.3 42.9099 13.97 39.1199 8.54004 37.7799C9.75004 43.2499 13.38 49.6699 18.95 55.3699C24.52 61.0899 32.87 66.9599 38.31 68.2999Z" fill="#F2A65E"/>
<path d="M33.94 71.06C32.13 65.87 26.72 59.06 20.62 54.15C14.53 49.24 7.90996 46.28 2.45996 45.61C4.26996 50.8 8.56996 56.63 14.66 61.54C20.76 66.46 28.48 70.39 33.94 71.06Z" fill="#FFE478"/>
<path d="M29.9797 73.6799C28.6997 69.8899 20.3397 62.8799 15.9097 59.8899C11.4897 56.9099 6.66969 55.5099 2.67969 55.7399C3.95969 59.5299 7.05969 63.4699 11.4797 66.4599C15.9097 69.4399 25.9897 73.8999 29.9797 73.6799Z" fill="#F2A65E"/>
<path d="M56.1096 42.1499C57.9696 32.9499 57.6096 24.4099 55.5396 18.4399C51.2496 23.4399 47.5596 31.3499 45.6996 40.5499C43.8396 49.7599 43.5196 61.6399 45.5896 67.6199C49.8796 62.6199 54.2396 51.3499 56.1096 42.1499Z" fill="#F2A65E"/>
<path d="M1.60986 64.74C1.60986 64.74 7.62986 73.73 21.7799 74.09C21.7799 74.09 30.5699 74.96 31.0499 73.4C31.2699 72.72 18.8399 62.84 1.60986 64.74Z" fill="#FFE478"/>
<path d="M62.4099 44.86C65.3699 36 65.9299 27.38 64.4099 21C59.3599 25.19 54.6199 32.41 51.6599 41.27C48.6999 50.14 47.7999 58.32 49.3199 64.71C54.3599 60.51 59.4399 53.72 62.4099 44.86Z" fill="#FFE478"/>
<path d="M67.4997 51.89C71.7397 43.57 73.5697 35.12 73.0097 28.59C67.3997 31.98 61.6397 38.43 57.3997 46.75C53.1597 55.08 50.3497 63.84 50.8997 70.38C56.5197 66.98 63.2597 60.22 67.4997 51.89Z" fill="#F2A65E"/>
<path d="M67.4098 55.2399C72.9298 49.5799 76.5398 43.2099 77.7398 37.7799C72.3498 39.1099 66.0698 42.8699 60.5398 48.5299C55.0098 54.1999 51.4798 60.7199 50.2798 66.1499C55.6798 64.8299 61.8798 60.9099 67.4098 55.2399Z" fill="#FFE478"/>
<path d="M70.6701 61.54C76.7601 56.63 81.0601 50.8 82.8701 45.61C77.4101 46.28 70.8001 49.24 64.7101 54.15C58.6101 59.07 52.6501 66.24 50.8301 71.43C56.2901 70.75 64.5701 66.46 70.6701 61.54Z" fill="#F2A65E"/>
<path d="M74.0797 65.12C78.4997 62.14 81.5897 58.19 82.8797 54.4C78.8897 54.17 74.0697 55.57 69.6497 58.55C65.2297 61.54 60.5197 66.57 59.2397 70.36C63.2297 70.59 69.6597 68.11 74.0797 65.12Z" fill="#FFE478"/>
<path d="M83.3897 64.42C83.3897 64.42 77.3697 73.41 63.2197 73.77C63.2197 73.77 55.1197 74.32 54.8297 72.97C54.5797 71.79 66.1597 62.52 83.3897 64.42Z" fill="#F2A65E"/>
<path d="M43.0499 59.03C42.9799 59.03 42.9199 59.04 42.8599 59.04V73.34C48.8299 73.34 58.3199 73.93 62.9599 76.81C62.2599 67.34 53.7299 59.03 43.0499 59.03Z" fill="#EB564B"/>
<path d="M22.7598 76.8C27.3898 73.92 36.6098 73.33 42.8598 73.33V59.03C32.2598 59.14 23.4498 67.39 22.7598 76.8Z" fill="#964253"/>
<path d="M42.8598 71.47C43.7103 71.47 44.3998 70.7805 44.3998 69.93C44.3998 69.0794 43.7103 68.39 42.8598 68.39C42.0093 68.39 41.3198 69.0794 41.3198 69.93C41.3198 70.7805 42.0093 71.47 42.8598 71.47Z" fill="#FFFFEB"/>
<path d="M38.5296 71.07C39.1593 71.07 39.6696 70.5596 39.6696 69.93C39.6696 69.3004 39.1593 68.79 38.5296 68.79C37.9 68.79 37.3896 69.3004 37.3896 69.93C37.3896 70.5596 37.9 71.07 38.5296 71.07Z" fill="#FFFFEB"/>
<path d="M34.2098 70.84C34.7124 70.84 35.1198 70.4325 35.1198 69.93C35.1198 69.4274 34.7124 69.02 34.2098 69.02C33.7072 69.02 33.2998 69.4274 33.2998 69.93C33.2998 70.4325 33.7072 70.84 34.2098 70.84Z" fill="#FFFFEB"/>
<path d="M51.4998 70.84C52.0024 70.84 52.4098 70.4325 52.4098 69.93C52.4098 69.4274 52.0024 69.02 51.4998 69.02C50.9973 69.02 50.5898 69.4274 50.5898 69.93C50.5898 70.4325 50.9973 70.84 51.4998 70.84Z" fill="#FFFFEB"/>
<path d="M47.18 71.07C47.8096 71.07 48.32 70.5596 48.32 69.93C48.32 69.3004 47.8096 68.79 47.18 68.79C46.5504 68.79 46.04 69.3004 46.04 69.93C46.04 70.5596 46.5504 71.07 47.18 71.07Z" fill="#FFFFEB"/>
</g>
<defs>
<clipPath id="clip0_340_350">
<rect width="85" height="90" fill="white"/>
</clipPath>
</defs>
</svg>
