<svg width="85" height="90" viewBox="0 0 85 90" fill="none" xmlns="http://www.w3.org/2000/svg">
<g clip-path="url(#clip0_340_109)">
<path d="M50.37 47.18C50.58 46.59 50.66 45.97 50.69 45.34L50.86 41.06C50.91 39.69 52.05 38.67 53.42 38.65C54.69 38.64 55.96 38.09 56.86 37C58.29 35.28 58.21 32.68 56.7 31.04C54.94 29.14 51.97 29.09 50.15 30.91C49.25 31.81 48.81 32.99 48.83 34.18C48.85 35.57 47.75 36.71 46.35 36.73L42.4 36.78C40.88 36.8 39.38 37.3 38.23 38.31C38.13 38.4 38.03 38.49 37.94 38.58L27.24 49.31C27.06 49.49 27.06 49.79 27.24 49.98C27.42 50.16 27.72 50.16 27.91 49.98L35.14 42.75C35.42 42.47 35.87 42.47 36.15 42.75C36.43 43.03 36.43 43.48 36.15 43.76L28.92 50.99C28.74 51.17 28.74 51.47 28.92 51.66L28.97 51.71C29.15 51.89 29.45 51.89 29.64 51.71L36.87 44.48C37.15 44.2 37.6 44.2 37.88 44.48C38.16 44.76 38.16 45.21 37.88 45.49L30.65 52.72C30.47 52.9 30.47 53.2 30.65 53.39L30.7 53.44C30.88 53.62 31.18 53.62 31.37 53.44L38.6 46.21C38.88 45.93 39.33 45.93 39.61 46.21C39.89 46.49 39.89 46.94 39.61 47.22L32.38 54.45C32.2 54.63 32.2 54.93 32.38 55.12L32.43 55.17C32.61 55.35 32.91 55.35 33.1 55.17L40.33 47.94C40.61 47.66 41.06 47.66 41.34 47.94C41.62 48.22 41.62 48.67 41.34 48.95L34.11 56.18C33.93 56.36 33.93 56.66 34.11 56.85L34.16 56.9C34.34 57.08 34.64 57.08 34.83 56.9L42.06 49.67C42.34 49.39 42.79 49.39 43.07 49.67C43.35 49.95 43.35 50.4 43.07 50.68L35.84 57.91C35.66 58.09 35.66 58.39 35.84 58.58L35.89 58.63C36.07 58.81 36.37 58.81 36.56 58.63L43.79 51.4C44.07 51.12 44.52 51.12 44.8 51.4C45.08 51.68 45.08 52.13 44.8 52.41L37.57 59.64C37.39 59.82 37.39 60.12 37.57 60.31C37.75 60.49 38.05 60.49 38.24 60.31L48.9 49.65C49.54 48.92 50.06 48.09 50.37 47.18ZM52 35.51C51.27 34.78 51.27 33.59 52 32.85C52.73 32.12 53.92 32.12 54.66 32.85C55.39 33.58 55.39 34.77 54.66 35.5C53.91 36.24 52.73 36.24 52 35.51Z" fill="#CFFF70"/>
<path d="M55.6401 36.5C55.5601 36.42 55.5601 36.29 55.6401 36.21C56.7501 35.1 56.7701 33.33 55.6901 32.25C55.6101 32.17 55.6101 32.04 55.6901 31.96C55.7701 31.88 55.9001 31.88 55.9801 31.96C57.2201 33.2 57.2001 35.24 55.9301 36.5C55.8501 36.58 55.7201 36.58 55.6401 36.5Z" fill="#FFFCEE"/>
<path d="M51.3399 36.88C51.3299 36.87 51.3099 36.85 51.2999 36.84C51.2199 36.76 51.2299 36.63 51.3099 36.55C51.3899 36.47 51.5199 36.48 51.5999 36.56C51.9399 36.92 52.5499 37.2 53.1899 37.27C53.8499 37.35 54.4399 37.2 54.7699 36.89C54.8499 36.81 54.9799 36.82 55.0599 36.9C55.1399 36.98 55.1299 37.11 55.0499 37.19C54.6199 37.59 53.9299 37.77 53.1399 37.68C52.4299 37.59 51.7599 37.29 51.3399 36.88Z" fill="#FFFCEE"/>
<path d="M47.9999 48.98C47.9199 48.9 47.9199 48.77 47.9999 48.69C49.1299 47.56 49.6699 45.95 49.4799 44.28C49.4699 44.17 49.5499 44.07 49.6599 44.05C49.7699 44.04 49.8699 44.12 49.8899 44.23C50.0999 46.02 49.5099 47.75 48.2899 48.97C48.2099 49.06 48.0799 49.06 47.9999 48.98Z" fill="#FFFCEE"/>
</g>
<defs>
<clipPath id="clip0_340_109">
<rect width="85" height="90" fill="white"/>
</clipPath>
</defs>
</svg>
