<svg width="85" height="90" viewBox="0 0 85 90" fill="none" xmlns="http://www.w3.org/2000/svg">
<g clip-path="url(#clip0_340_337)">
<path d="M64.8604 79.25C64.8604 79.25 64.6404 79.65 64.2104 80.3C63.8204 80.88 63.5004 81.96 62.4904 82.55C48.0604 91.16 18.5704 82.5 18.5704 82.5C18.5704 82.5 18.5304 73.29 23.8304 71.11C23.8304 71.11 22.0704 66.8 25.4204 64.51C25.4204 64.51 20.4804 59.57 18.2004 54.57C17.9204 53.96 17.6804 53.36 17.5004 52.76C16.3604 49.08 16.3804 41.32 16.5304 36.53C16.5404 36.17 16.5504 35.83 16.5604 35.51C16.6304 33.65 16.7004 32.43 16.7004 32.43C16.7004 32.43 17.5904 30.23 18.9304 28.45C20.1204 26.87 21.6804 25.62 23.2904 26.53V47.84C23.2904 49.26 23.4204 50.67 23.7004 52.05V52.06C24.5504 56.32 26.7004 60.24 30.0104 63.14C32.0804 64.95 34.7204 66.49 38.0804 67.29C40.9104 67.96 43.5904 67.88 46.0704 67.28C53.2904 65.53 58.7604 59.31 61.3204 54.26C61.5204 53.89 61.6904 53.53 61.8504 53.16C62.0504 52.73 62.2204 52.43 62.3904 52.25C62.5504 52.07 63.0204 52.2 63.1004 52.34C63.3204 52.68 63.4804 53.3 63.6304 54.13C63.8404 55.34 63.9804 56.98 64.0704 58.81C64.4504 65.17 64.8604 79.25 64.8604 79.25Z" fill="#FF6B97"/>
<path d="M23.72 52.0599V52.0699C22.18 53.4099 19.97 54.1699 18.21 54.5799C17.93 53.9699 17.69 53.3699 17.51 52.7699C16.37 49.0899 16.39 41.3299 16.54 36.5399C16.52 36.5799 16.49 36.6099 16.47 36.6499C16.47 36.6499 16.37 36.3399 16.23 35.7699L16.57 35.5099L17.59 34.7299L17.95 34.4599L20.92 28.6299L23.34 27.1499C23.31 27.2599 23.33 31.2999 23.31 31.4099V47.8299C23.31 49.2699 23.44 50.6799 23.72 52.0599Z" fill="#80366B"/>
<path d="M64.3002 52.5099L64.2702 53.5199L64.0902 58.8299L63.5802 74.7599L61.9302 82.8899C60.9002 83.6199 57.8802 84.6199 57.8802 84.6199C57.8802 84.6199 57.8402 71.5099 57.7102 68.7099C57.5302 64.8399 54.3702 66.2299 54.3702 66.2299C45.1202 73.8799 35.1402 74.0999 29.8102 73.4699C24.3502 72.8199 25.6702 69.7499 30.5502 70.5599C35.0702 71.2999 41.0702 69.8599 41.0702 69.8599C42.9302 69.3999 44.6002 68.4899 46.0802 67.2999C53.3002 65.5499 58.7702 59.3299 61.3302 54.2799L62.4002 52.2699L63.1102 52.3599L64.3002 52.5099Z" fill="#80366B"/>
<path d="M27.3999 77.06C27.3999 77.06 40.9299 77.65 48.0599 74.22C48.0599 74.22 45.2899 77.65 38.5499 78.51C31.3399 79.44 27.3999 77.06 27.3999 77.06Z" fill="#80366B"/>
<path d="M23.3401 27.1699C23.3101 27.2799 23.3301 31.3199 23.3101 31.4299C22.7801 34.1999 19.4801 38.4199 18.2501 37.1899C17.7001 36.6399 17.5701 35.7799 17.5801 35.0199C17.5801 35.0099 17.5801 34.9999 17.5801 34.9999C17.5801 34.9199 17.5901 34.8299 17.5901 34.7499L17.9501 34.4799L20.9201 28.6499L23.3401 27.1699Z" fill="#5A265E"/>
<path d="M66.6101 47.9199V81.9599C66.6101 82.5399 66.3801 83.0999 65.9801 83.4999L65.6101 83.8599C65.1901 84.2799 64.6301 84.4999 64.0701 84.4999C63.6601 84.4999 63.2501 84.3899 62.8901 84.1599C62.2601 83.7699 61.8801 83.0599 61.8801 82.3199L61.3501 54.2499L66.6101 47.9199Z" fill="#FF6B97"/>
<path d="M66.6101 49.91C65.9501 51.31 64.1101 54.49 61.3401 55.67L61.3501 54.26L61.4901 29.04C61.4901 28.83 61.4801 28.63 61.4601 28.41C61.3301 26.92 60.6601 25.51 59.5901 24.44C59.5001 24.35 59.3901 24.24 59.2901 24.14C56.2701 21.1 51.8301 18.44 45.7601 17.34C44.1601 17.05 42.5101 17.23 40.9901 17.79C37.1701 19.19 29.4401 22.48 23.7301 27.85C21.8001 29.66 19.8301 31.82 17.9601 34.48C17.8401 34.66 17.7101 34.81 17.5901 35C17.5901 35 17.5901 35.01 17.5901 35.02C17.2501 35.52 16.9001 36.02 16.5501 36.55C16.5301 36.59 16.5001 36.62 16.4801 36.66C16.4801 36.66 16.3801 36.35 16.2401 35.78C15.4101 32.36 13.1501 19.63 22.9701 11.29C32.1701 3.48996 41.1001 3.48996 45.6801 3.66996C50.2601 3.84996 61.5201 7.36995 66.6201 17.96C70.4801 26 70.7101 41.3 66.6101 49.91Z" fill="#FF6B97"/>
<path d="M61.8701 28.8799C61.8701 28.8799 61.7001 28.6999 61.4601 28.4099C61.3301 26.9199 60.6601 25.5099 59.5901 24.4399C59.5001 24.3499 59.3901 24.2399 59.2901 24.1399C59.3501 23.5099 59.3401 22.5299 59.3101 21.5199C59.2401 19.2299 58.4401 17.0199 57.0701 15.1899L52.8501 9.54993C54.8101 10.7299 56.8301 12.4199 58.4601 13.9299C58.5901 14.0499 58.7601 14.2299 58.9501 14.4499C61.0501 16.8399 62.0901 19.9899 61.8601 23.1699L61.8701 28.8799Z" fill="#80366B"/>
<path d="M19.2603 26.5399C19.2603 26.5399 24.2303 15.5999 32.8103 12.8099C32.8203 12.8099 22.6503 21.6799 19.2603 26.5399Z" fill="#80366B"/>
</g>
<defs>
<clipPath id="clip0_340_337">
<rect width="85" height="90" fill="white"/>
</clipPath>
</defs>
</svg>
