<svg width="85" height="90" viewBox="0 0 85 90" fill="none" xmlns="http://www.w3.org/2000/svg">
<g clip-path="url(#clip0_340_155)">
<path d="M15.6875 52.6892C15.7175 53.6892 16.6275 55.8392 19.5675 57.8692C32.5675 62.3592 58.1775 60.2192 64.2275 57.9592C69.4175 56.0192 69.1975 51.4692 68.9475 51.6692L15.6875 52.6892Z" fill="#61749B"/>
<path d="M42.4977 47.5092C57.4577 47.5092 69.5877 49.7192 69.5877 52.4592C69.5877 55.1892 57.4577 57.4092 42.4977 57.4092C27.5377 57.4092 15.4077 55.1992 15.4077 52.4592C15.4077 49.7192 27.5377 47.5092 42.4977 47.5092Z" fill="#1B2447"/>
<path d="M42.4576 55.0891C56.4746 55.0891 67.8376 53.4952 67.8376 51.5291C67.8376 49.563 56.4746 47.9691 42.4576 47.9691C28.4407 47.9691 17.0776 49.563 17.0776 51.5291C17.0776 53.4952 28.4407 55.0891 42.4576 55.0891Z" fill="#3A4C77"/>
<path d="M24.8477 37.4092C31.3577 26.6492 52.7076 27.5192 59.2376 36.0992C62.3676 40.2192 62.4476 52.6592 62.3876 53.5492L22.2376 53.6192C23.1276 50.4592 20.2976 44.9292 24.8477 37.4092Z" fill="#1B2447"/>
<path d="M22.2075 49.0292C36.0975 51.4592 48.8175 50.3992 62.3575 48.6592L62.7275 53.2792C48.7375 56.5392 35.9475 55.1992 22.2875 53.6992L22.2075 49.0292Z" fill="#61749B"/>
</g>
<defs>
<clipPath id="clip0_340_155">
<rect width="85" height="90" fill="white"/>
</clipPath>
</defs>
</svg>
