<svg width="32" height="31" viewBox="0 0 32 31" fill="none" xmlns="http://www.w3.org/2000/svg">
<g clip-path="url(#clip0_222_699)">
<path d="M24.1898 17.605C24.3998 17.015 24.4798 16.395 24.5098 15.765L24.6798 11.485C24.7298 10.115 25.8698 9.09497 27.2398 9.07497C28.5098 9.06497 29.7898 8.51497 30.6798 7.42497C32.1098 5.70497 32.0298 3.10497 30.5198 1.46497C28.7598 -0.435033 25.7898 -0.485033 23.9698 1.33497C23.0698 2.23497 22.6298 3.41497 22.6498 4.60497C22.6698 5.99497 21.5698 7.13497 20.1698 7.15497L16.2198 7.20497C14.6998 7.22497 13.1998 7.72497 12.0498 8.73497C11.9498 8.82497 11.8498 8.91497 11.7598 9.00497L1.0598 19.735C0.879805 19.915 0.879805 20.215 1.0598 20.405C1.2398 20.585 1.5398 20.585 1.7298 20.405L8.9598 13.175C9.2398 12.895 9.6898 12.895 9.9698 13.175C10.2498 13.455 10.2498 13.905 9.9698 14.185L2.7398 21.415C2.5598 21.595 2.5598 21.895 2.7398 22.085L2.7898 22.135C2.9698 22.315 3.2698 22.315 3.4598 22.135L10.6898 14.905C10.9698 14.625 11.4198 14.625 11.6998 14.905C11.9798 15.185 11.9798 15.635 11.6998 15.915L4.4698 23.145C4.2898 23.325 4.2898 23.625 4.4698 23.815L4.5198 23.865C4.6998 24.045 4.9998 24.045 5.1898 23.865L12.4198 16.635C12.6998 16.355 13.1498 16.355 13.4298 16.635C13.7098 16.915 13.7098 17.365 13.4298 17.645L6.1998 24.875C6.0198 25.055 6.0198 25.355 6.1998 25.545L6.2498 25.595C6.4298 25.775 6.7298 25.775 6.9198 25.595L14.1498 18.365C14.4298 18.085 14.8798 18.085 15.1598 18.365C15.4398 18.645 15.4398 19.095 15.1598 19.375L7.9298 26.605C7.7498 26.785 7.7498 27.085 7.9298 27.275L7.9798 27.325C8.1598 27.505 8.4598 27.505 8.6498 27.325L15.8798 20.095C16.1598 19.815 16.6098 19.815 16.8898 20.095C17.1698 20.375 17.1698 20.825 16.8898 21.105L9.6198 28.295C9.4398 28.475 9.4398 28.775 9.6198 28.965L9.6698 29.015C9.8498 29.195 10.1498 29.195 10.3398 29.015L17.5698 21.785C17.8498 21.505 18.2998 21.505 18.5798 21.785C18.8598 22.065 18.8598 22.515 18.5798 22.795L11.3498 30.015C11.1698 30.195 11.1698 30.495 11.3498 30.685C11.5298 30.865 11.8298 30.865 12.0198 30.685L22.6798 20.025C23.3598 19.335 23.8798 18.505 24.1898 17.605ZM25.8198 5.93497C25.0898 5.20497 25.0898 4.01497 25.8198 3.27497C26.5498 2.54497 27.7398 2.54497 28.4798 3.27497C29.2098 4.00497 29.2098 5.19497 28.4798 5.92497C27.7298 6.66497 26.5498 6.66497 25.8198 5.93497Z" fill="#CFFF70"/>
<path d="M29.4599 6.92495C29.3799 6.84495 29.3799 6.71495 29.4599 6.63495C30.5699 5.52495 30.5899 3.75495 29.5099 2.67495C29.4299 2.59495 29.4299 2.46495 29.5099 2.38495C29.5899 2.30495 29.7199 2.30495 29.7999 2.38495C31.0399 3.62495 31.0199 5.66495 29.7499 6.92495C29.6699 7.00495 29.5399 7.00495 29.4599 6.92495Z" fill="#FFFCEE"/>
<path d="M25.1597 7.29502C25.1497 7.28502 25.1297 7.26502 25.1197 7.25502C25.0397 7.17502 25.0497 7.04502 25.1297 6.96502C25.2097 6.88502 25.3397 6.89502 25.4197 6.97502C25.7597 7.33502 26.3697 7.61502 27.0097 7.68502C27.6697 7.76502 28.2597 7.61502 28.5897 7.30502C28.6697 7.22502 28.7997 7.23502 28.8797 7.31502C28.9597 7.39502 28.9497 7.52502 28.8697 7.60502C28.4397 8.00502 27.7497 8.18502 26.9597 8.09502C26.2397 8.00502 25.5797 7.71502 25.1597 7.29502Z" fill="#FFFCEE"/>
<path d="M21.8198 19.395C21.7398 19.315 21.7398 19.185 21.8198 19.105C22.9498 17.975 23.4898 16.365 23.2998 14.695C23.2898 14.585 23.3698 14.485 23.4798 14.465C23.5898 14.455 23.6898 14.535 23.7098 14.645C23.9198 16.435 23.3298 18.165 22.1098 19.385C22.0298 19.475 21.8998 19.475 21.8198 19.395Z" fill="#FFFCEE"/>
</g>
<defs>
<clipPath id="clip0_222_699">
<rect width="30.8" height="30.81" fill="white" transform="translate(0.919922 0.0150146)"/>
</clipPath>
</defs>
</svg>
