<svg width="85" height="90" viewBox="0 0 85 90" fill="none" xmlns="http://www.w3.org/2000/svg">
<g clip-path="url(#clip0_340_279)">
<path d="M58.6001 49.12C54.3001 51.14 48.6601 52.37 42.4901 52.37C36.3201 52.37 30.6901 51.15 26.3901 49.12C26.5001 45.36 29.0401 42.03 32.9001 39.93C35.5801 38.48 38.9001 37.62 42.4901 37.62C50.2701 37.62 56.7701 41.65 58.2701 47C58.4701 47.7 58.5801 48.4 58.6001 49.12Z" fill="#FF6B97"/>
<path d="M58.2799 47.01C54.5399 47.82 49.8999 47.68 45.1199 46.41C40.0599 45.06 35.7699 42.69 32.9199 39.93C35.5999 38.48 38.9199 37.62 42.5099 37.62C50.2799 37.63 56.7799 41.66 58.2799 47.01Z" fill="#FF6B97"/>
<path d="M29.8701 48.8201C29.8001 48.8201 29.7301 48.8101 29.6701 48.7801C28.9201 48.5101 28.5101 48.3301 28.5001 48.3201C28.2001 48.1801 28.0601 47.8201 28.2001 47.5201C28.3401 47.2201 28.7001 47.0801 29.0001 47.2201C29.0001 47.2201 29.3901 47.3901 30.0801 47.6401C30.3901 47.7501 30.5601 48.1001 30.4501 48.4101C30.3501 48.6701 30.1201 48.8201 29.8701 48.8201Z" fill="#FF6B97"/>
<path d="M39.0402 50.75C39.0202 50.75 39.0102 50.75 38.9902 50.75C38.2002 50.68 37.4002 50.59 36.6202 50.48C36.2902 50.43 36.0602 50.12 36.1102 49.79C36.1602 49.46 36.4602 49.23 36.8002 49.28C37.5602 49.39 38.3302 49.48 39.1002 49.54C39.4302 49.57 39.6802 49.86 39.6502 50.2C39.6202 50.51 39.3502 50.75 39.0402 50.75ZM34.3902 50.07C34.3502 50.07 34.3102 50.07 34.2702 50.06C33.4802 49.9 32.7002 49.71 31.9502 49.5C31.6302 49.41 31.4402 49.08 31.5302 48.76C31.6202 48.44 31.9502 48.25 32.2702 48.34C33.0002 48.54 33.7502 48.72 34.5202 48.88C34.8502 48.95 35.0602 49.27 34.9902 49.6C34.9302 49.88 34.6702 50.07 34.3902 50.07Z" fill="#FF6B97"/>
<path d="M42.5001 50.9C42.1201 50.9 41.7401 50.89 41.3701 50.88C41.0401 50.87 40.7701 50.59 40.7801 50.26C40.7901 49.93 41.0701 49.66 41.4001 49.67C42.1601 49.69 42.9601 49.69 43.7101 49.66C44.0401 49.65 44.3201 49.91 44.3401 50.24C44.3501 50.57 44.0901 50.85 43.7601 50.87C43.3501 50.89 42.9301 50.9 42.5001 50.9ZM46.0801 50.72C45.7701 50.72 45.5101 50.49 45.4801 50.17C45.4501 49.84 45.6901 49.54 46.0201 49.51C46.7801 49.44 47.5601 49.34 48.3101 49.21C48.6401 49.16 48.9501 49.38 49.0001 49.71C49.0501 50.04 48.8301 50.35 48.5001 50.4C47.7201 50.53 46.9201 50.63 46.1301 50.71C46.1201 50.72 46.1001 50.72 46.0801 50.72ZM50.7201 49.97C50.4401 49.97 50.1901 49.78 50.1301 49.5C50.0601 49.17 50.2601 48.85 50.5801 48.77C51.3401 48.6 52.0901 48.4 52.8101 48.18C53.1301 48.08 53.4701 48.26 53.5601 48.58C53.6601 48.9 53.4801 49.24 53.1601 49.33C52.4101 49.56 51.6301 49.76 50.8501 49.94C50.8101 49.96 50.7601 49.97 50.7201 49.97Z" fill="#FF6B97"/>
<path d="M55.2102 48.6C54.9702 48.6 54.7402 48.45 54.6502 48.21C54.5302 47.9 54.6802 47.55 54.9902 47.43C55.6802 47.16 56.0502 46.98 56.0602 46.98C56.3602 46.83 56.7202 46.96 56.8702 47.25C57.0202 47.55 56.9002 47.91 56.6002 48.06C56.5802 48.07 56.1802 48.27 55.4402 48.56C55.3602 48.59 55.2902 48.6 55.2102 48.6Z" fill="#FF6B97"/>
</g>
<defs>
<clipPath id="clip0_340_279">
<rect width="85" height="90" fill="white"/>
</clipPath>
</defs>
</svg>
