<svg width="85" height="90" viewBox="0 0 85 90" fill="none" xmlns="http://www.w3.org/2000/svg">
<g clip-path="url(#clip0_340_764)">
<path fill-rule="evenodd" clip-rule="evenodd" d="M42.5299 28.4V28.41C61.5999 30.64 63.3499 36.65 62.8899 52.28C52.8099 45.26 32.1699 45.26 22.0899 52.28C21.6399 36.65 23.3799 30.64 42.4599 28.41V28.4L42.4899 28.41L42.5299 28.4Z" fill="#FFB570"/>
<path fill-rule="evenodd" clip-rule="evenodd" d="M43.34 28.52C49.44 29.29 53.69 30.48 56.64 32.28C60.22 36.51 60.9 43.47 60.86 51.04C51.09 45.75 34.48 45.68 24.54 50.83C24.5 43.06 25.26 35.96 29.17 31.82C32.12 30.24 36.23 29.19 41.94 28.48C42.21 28.58 42.47 28.65 42.69 28.66C42.89 28.65 43.11 28.6 43.34 28.52Z" fill="#EB564B"/>
<path fill-rule="evenodd" clip-rule="evenodd" d="M41.1598 28.66H44.2398C44.5598 28.66 44.8298 28.4 44.8298 28.08C44.8298 27.76 44.5698 27.49 44.2398 27.49H41.1598C40.8398 27.49 40.5698 27.75 40.5698 28.08C40.5798 28.39 40.8398 28.66 41.1598 28.66Z" fill="#EB473E"/>
<path fill-rule="evenodd" clip-rule="evenodd" d="M62.8999 52.98C63.6799 55.04 64.1799 57.08 64.5099 59.12C65.1399 62.85 64.9799 63.24 61.1399 61.48C44.6499 53.96 39.8599 53.9 23.8599 61.48C20.0499 63.29 19.8599 62.85 20.4899 59.12C20.8299 57.08 21.3299 55.04 22.0999 52.98C27.9299 44.84 56.5799 44.81 62.8999 52.98Z" fill="#FFB570"/>
<path fill-rule="evenodd" clip-rule="evenodd" d="M62.8999 52.29C63.6799 54.35 64.1799 56.39 64.5099 58.42C65.1399 62.16 64.9899 62.53 61.1399 60.79C44.6499 53.34 39.8599 53.33 23.8599 60.79C20.0399 62.58 19.8599 62.16 20.4899 58.42C20.8299 56.39 21.3299 54.35 22.0999 52.29C27.9299 44.16 56.5799 44.13 62.8999 52.29Z" fill="#B0305C"/>
</g>
<defs>
<clipPath id="clip0_340_764">
<rect width="85" height="90" fill="white"/>
</clipPath>
</defs>
</svg>
