<svg width="85" height="90" viewBox="0 0 85 90" fill="none" xmlns="http://www.w3.org/2000/svg">
<g clip-path="url(#clip0_340_2)">
<path d="M42.5019 41.434C60.0619 41.434 74.2919 46.104 74.2919 51.854C74.2919 57.614 60.0619 62.274 42.5019 62.274C24.9419 62.274 10.7119 57.604 10.7119 51.854C10.7119 46.104 24.9419 41.434 42.5019 41.434Z" fill="#F2A65E"/>
<path d="M21.9217 46.584L20.4717 51.064C28.9717 61.884 57.4717 62.004 64.6617 50.534L63.6017 46.574C50.3217 52.414 36.6017 54.074 21.9217 46.584Z" fill="#08757E"/>
<path d="M38.282 27.854C38.282 27.854 32.972 28.004 30.632 29.834C25.652 33.714 21.792 46.984 21.792 46.984C34.122 53.794 46.922 57.324 63.872 46.584C63.872 46.584 59.752 33.574 54.242 29.564C52.502 28.304 48.702 27.714 48.702 27.714C48.752 27.744 45.282 29.344 42.242 28.774C41.072 28.554 38.282 27.854 38.282 27.854Z" fill="#F2A65E"/>
<path d="M36.2018 29.7439C36.2018 29.7439 35.8218 30.1239 36.0318 30.6239C36.8418 33.2439 44.2918 33.0639 48.1718 30.3639C48.9518 29.8239 48.0418 29.3039 48.0418 29.3039C48.0418 29.3039 49.6718 29.2939 49.6218 29.9639C49.5718 30.7339 48.9918 31.0639 48.3018 31.4139C43.7018 33.7639 37.6818 34.5739 35.1118 30.0939C34.6018 29.2039 39.5918 28.7739 39.5918 28.7739L36.2018 29.7439Z" fill="#BF7F21"/>
</g>
<defs>
<clipPath id="clip0_340_2">
<rect width="85" height="90" fill="white"/>
</clipPath>
</defs>
</svg>
