<svg width="83" height="64" viewBox="0 0 83 64" fill="none" xmlns="http://www.w3.org/2000/svg">
<g clip-path="url(#clip0_222_557)">
<path d="M41.8198 0.0449219V49.9849C45.0498 44.4149 47.0998 32.6549 47.0998 23.3049C47.1098 13.9749 45.0498 5.61492 41.8198 0.0449219Z" fill="#F2A65E"/>
<path d="M36.54 23.3149C36.54 32.6649 38.59 44.4149 41.82 49.9949V0.0449219C38.6 5.61492 36.54 13.9749 36.54 23.3149Z" fill="#FFE478"/>
<path d="M39.0901 54.4649C41.1601 48.4849 40.8401 36.6049 38.9801 27.3949C37.1201 18.1949 33.4301 10.2849 29.1401 5.28491C27.0701 11.2649 26.7101 19.8049 28.5701 28.9949C30.4401 38.2049 34.8001 49.4649 39.0901 54.4649Z" fill="#FFE478"/>
<path d="M36.1002 55.215C37.6202 48.835 35.9802 36.985 33.0202 28.115C30.0602 19.255 25.3202 12.035 20.2702 7.84497C18.7502 14.225 19.3102 22.845 22.2702 31.705C25.2402 40.575 31.0502 51.025 36.1002 55.215Z" fill="#F2A65E"/>
<path d="M34.0102 57.2249C34.5702 50.6849 32.0702 41.9249 27.8202 33.5949C23.5802 25.2749 17.8202 18.8249 12.2102 15.4349C11.6502 21.9749 13.4802 30.4149 17.7202 38.7349C21.9702 47.0649 28.4002 53.8349 34.0102 57.2249Z" fill="#FFE478"/>
<path d="M37.2803 55.1449C36.0703 49.6749 30.4103 41.1849 24.8403 35.4649C19.2703 29.7549 12.9403 25.9649 7.51025 24.6249C8.72025 30.0949 12.3503 36.5149 17.9203 42.2149C23.4803 47.9449 31.8403 53.8149 37.2803 55.1449Z" fill="#F2A65E"/>
<path d="M32.9102 57.905C31.1002 52.715 25.6902 45.905 19.5902 40.995C13.5002 36.085 6.88018 33.125 1.43018 32.455C3.24018 37.645 7.54018 43.475 13.6302 48.385C19.7302 53.305 27.4502 57.235 32.9102 57.905Z" fill="#FFE478"/>
<path d="M28.9499 60.5249C27.6699 56.7349 19.3099 49.7249 14.8799 46.7349C10.4599 43.7549 5.6399 42.3549 1.6499 42.5849C2.9299 46.3749 6.0299 50.3149 10.4499 53.3049C14.8799 56.2949 24.9599 60.7549 28.9499 60.5249Z" fill="#F2A65E"/>
<path d="M55.0701 28.9949C56.9301 19.7949 56.5701 11.2549 54.5001 5.28491C50.2101 10.2849 46.5201 18.1949 44.6601 27.3949C42.8001 36.6049 42.4801 48.4849 44.5501 54.4649C48.8401 49.4649 53.2101 38.2049 55.0701 28.9949Z" fill="#F2A65E"/>
<path d="M0.580078 51.5849C0.580078 51.5849 6.60008 60.5749 20.7501 60.9349C20.7501 60.9349 29.5401 61.8049 30.0201 60.2449C30.2401 59.5749 17.8101 49.6849 0.580078 51.5849Z" fill="#FFE478"/>
<path d="M61.3698 31.705C64.3298 22.845 64.8898 14.225 63.3698 7.84497C58.3198 12.035 53.5798 19.255 50.6198 28.115C47.6598 36.985 46.7598 45.165 48.2798 51.555C53.3298 47.365 58.4098 40.575 61.3698 31.705Z" fill="#FFE478"/>
<path d="M66.4699 38.7349C70.7099 30.4149 72.5399 21.9649 71.9799 15.4349C66.3699 18.8249 60.6099 25.2749 56.3699 33.5949C52.1299 41.9249 49.3199 50.6849 49.8699 57.2249C55.4899 53.8349 62.2199 47.0649 66.4699 38.7349Z" fill="#F2A65E"/>
<path d="M66.3702 42.0949C71.8902 36.4349 75.5002 30.0649 76.7002 24.6349C71.3102 25.9649 65.0302 29.7249 59.5002 35.3849C53.9702 41.0549 50.4402 47.5749 49.2402 53.0049C54.6402 51.6749 60.8402 47.7549 66.3702 42.0949Z" fill="#FFE478"/>
<path d="M69.6403 48.385C75.7303 43.475 80.0303 37.645 81.8403 32.455C76.3803 33.125 69.7703 36.085 63.6803 40.995C57.5803 45.915 51.6203 53.085 49.8003 58.275C55.2603 57.605 63.5403 53.305 69.6403 48.385Z" fill="#F2A65E"/>
<path d="M73.05 51.9649C77.47 48.9849 80.56 45.0349 81.85 41.2449C77.86 41.0149 73.04 42.4149 68.62 45.3949C64.2 48.3849 59.49 53.4149 58.21 57.2049C62.2 57.4349 68.62 54.9549 73.05 51.9649Z" fill="#FFE478"/>
<path d="M82.3501 51.2649C82.3501 51.2649 76.3301 60.2549 62.1801 60.6149C62.1801 60.6149 54.0801 61.1649 53.7901 59.8149C53.5401 58.6349 65.1201 49.3649 82.3501 51.2649Z" fill="#F2A65E"/>
<path d="M42.0201 45.8749C41.9501 45.8749 41.8901 45.8849 41.8301 45.8849V60.1849C47.8001 60.1849 57.2901 60.7749 61.9301 63.6549C61.2301 54.1849 52.7001 45.8749 42.0201 45.8749Z" fill="#EB564B"/>
<path d="M21.73 63.6549C26.36 60.7749 35.58 60.1849 41.83 60.1849V45.8849C31.23 45.9849 22.42 54.2449 21.73 63.6549Z" fill="#964253"/>
<path d="M41.8198 58.3149C42.6703 58.3149 43.3598 57.6254 43.3598 56.7749C43.3598 55.9243 42.6703 55.2349 41.8198 55.2349C40.9693 55.2349 40.2798 55.9243 40.2798 56.7749C40.2798 57.6254 40.9693 58.3149 41.8198 58.3149Z" fill="#FFFFEB"/>
<path d="M37.4999 57.9149C38.1295 57.9149 38.6399 57.4045 38.6399 56.7749C38.6399 56.1453 38.1295 55.6349 37.4999 55.6349C36.8703 55.6349 36.3599 56.1453 36.3599 56.7749C36.3599 57.4045 36.8703 57.9149 37.4999 57.9149Z" fill="#FFFFEB"/>
<path d="M33.18 57.6849C33.6826 57.6849 34.09 57.2774 34.09 56.7749C34.09 56.2723 33.6826 55.8649 33.18 55.8649C32.6774 55.8649 32.27 56.2723 32.27 56.7749C32.27 57.2774 32.6774 57.6849 33.18 57.6849Z" fill="#FFFFEB"/>
<path d="M50.4701 57.6849C50.9726 57.6849 51.3801 57.2774 51.3801 56.7749C51.3801 56.2723 50.9726 55.8649 50.4701 55.8649C49.9675 55.8649 49.5601 56.2723 49.5601 56.7749C49.5601 57.2774 49.9675 57.6849 50.4701 57.6849Z" fill="#FFFFEB"/>
<path d="M46.1503 57.9149C46.7799 57.9149 47.2903 57.4045 47.2903 56.7749C47.2903 56.1453 46.7799 55.6349 46.1503 55.6349C45.5206 55.6349 45.0103 56.1453 45.0103 56.7749C45.0103 57.4045 45.5206 57.9149 46.1503 57.9149Z" fill="#FFFFEB"/>
</g>
<defs>
<clipPath id="clip0_222_557">
<rect width="81.77" height="63.61" fill="white" transform="translate(0.580078 0.0449219)"/>
</clipPath>
</defs>
</svg>
