<svg width="85" height="90" viewBox="0 0 85 90" fill="none" xmlns="http://www.w3.org/2000/svg">
<g clip-path="url(#clip0_340_10)">
<path d="M30.5899 45.95L27.8299 51.07C27.8299 51.07 24.5799 54.43 23.4299 55.59C22.2699 56.75 18.7199 57.49 18.9799 56.06C18.9999 56 18.9999 55.93 18.9999 55.87C19.0299 55.41 18.8399 54.89 18.5899 54.39C18.5899 54.38 18.5799 54.38 18.5799 54.38C18.0399 53.36 17.1799 52.47 17.1799 52.47C17.1399 52.34 17.0999 52.21 17.0799 52.09C16.9699 51.66 16.9199 51.27 16.9199 50.93C16.9299 50 17.3199 49.36 18.0099 48.94C18.5299 48.62 19.2299 48.43 20.0699 48.34C21.0899 48.22 21.5499 47.6 21.7499 47.08C21.7499 47.08 21.7499 47.08 21.7599 47.08C21.9199 46.66 21.9199 46.3 21.9199 46.3L22.7199 44.78L29.9899 40.15L30.5899 45.95Z" fill="#E4E7F9"/>
<path d="M40.5998 36.2999C40.5998 36.2999 41.6498 28.8 16.5498 27.95C16.5498 27.95 24.9798 40.76 38.3698 39.61C38.3598 39.61 43.1498 39.9499 40.5998 36.2999Z" fill="#4DA6FF"/>
<path d="M44.3997 36.3C44.3997 36.3 46.8797 26.46 68.4497 27.95C68.4497 27.95 60.0197 40.76 46.6297 39.61C46.6397 39.61 41.8497 39.95 44.3997 36.3Z" fill="#4DA6FF"/>
<path d="M46.7597 36.33C53.3297 36.17 56.6597 34.66 58.7997 33.77C58.8197 33.76 58.8297 33.79 58.8197 33.8C58.3397 34.35 54.8397 38.26 50.3097 39.46C49.5697 39.66 48.7097 39.62 47.9997 39.33C47.3997 39.08 47.3097 38.53 47.6197 38.06C47.8597 37.7 46.3097 36.34 46.7597 36.33Z" fill="#4B5BAB"/>
<path d="M67.3499 54.76C67.3499 54.76 67.3299 54.77 67.2999 54.79C67.0799 54.91 66.2799 55.41 66.1299 56.59C66.0699 57.13 66.1299 57.82 66.4599 58.68C67.6199 61.71 65.2499 62.2 65.2499 62.2H62.4399C62.4399 62.2 62.3899 60.99 62.4399 58.62C62.4999 56.25 61.1199 55.76 58.2499 53.88C55.3899 52.01 53.5699 49.03 53.5699 49.03C49.9899 45.23 36.8499 47.9 34.7199 47.88C32.5999 47.85 28.2199 53.5 25.4599 54.76C22.7099 56.03 23.1999 61.95 23.1999 61.95H20.3299C19.7899 61.95 19.2499 61.74 18.9099 61.32C18.2999 60.56 18.7899 59.74 19.0199 59.44C19.3199 59.05 19.5599 58.53 19.5599 57.78C19.5599 57.04 18.9599 56.79 18.9599 56.79C18.8099 56.19 18.6799 55.95 18.9999 55.86C19.2699 55.78 19.8599 55.8 21.0599 55.8C22.9999 55.8 23.2899 54.17 23.2899 54.17C22.1399 54.64 21.0499 54.79 20.1999 54.82C19.6199 54.84 19.0599 54.68 18.5899 54.38C18.5899 54.37 18.5799 54.37 18.5799 54.37C18.0399 53.35 17.1799 52.46 17.1799 52.46C17.1399 52.33 17.0999 52.2 17.0799 52.08H18.9399C26.2999 52.08 28.3999 48.28 28.5199 48.04C26.5499 50.27 19.3299 51.64 16.9199 50.92C16.9299 49.99 17.3199 49.35 18.0099 48.93C18.9599 48.71 20.3299 48.47 22.3199 48.19C29.6399 47.17 29.3499 42.6 29.3499 42.6C28.1499 46.53 22.0099 47.05 21.7499 47.07C21.7399 47.07 21.7399 47.07 21.7399 47.07C21.7899 40.87 24.6699 39.42 28.1099 39.58C31.5399 39.73 31.7599 39.05 31.7599 39.05C42.5699 33.22 49.8299 38.77 52.8599 39.58C55.0399 40.16 57.9999 39.91 59.4799 39.72C60.3499 39.61 61.2499 39.81 61.9199 40.38C63.6299 41.81 62.7999 44.17 63.1699 46.43C63.4799 48.38 65.3299 49.25 66.3899 49.6C67.1999 49.86 67.8999 50.45 68.1899 51.26C68.8099 53.06 67.3499 54.76 67.3499 54.76Z" fill="#4DA6FF"/>
<path d="M67.6 54.75C67.38 54.87 66.58 55.37 66.43 56.55C64.12 55.93 63.25 54.72 63.25 54.72C65.46 55.65 67.28 54.9 67.6 54.75Z" fill="#4B5BAB"/>
<path d="M46.0097 36.3501C44.9697 36.9101 43.1497 37.8101 41.4597 38.3301C41.2997 38.3801 41.1497 38.4201 40.9997 38.4601C40.6797 38.5401 40.3697 38.6101 40.0697 38.6501C39.8997 38.6801 39.7397 38.7001 39.5797 38.7101H39.5697C38.8797 38.7601 38.3497 38.1101 38.4697 37.4301C38.7197 35.9001 39.4897 33.3601 41.7297 33.0701C42.8397 32.9301 43.7797 33.2101 44.5497 33.6401H44.5597C44.6597 33.7001 44.7497 33.7601 44.8397 33.8201C45.1297 34.0001 45.3997 34.2101 45.6297 34.4201C45.8597 34.6301 46.0497 34.8301 46.2097 35.0201C46.2297 35.0301 46.2397 35.0501 46.2497 35.0601C46.5997 35.4701 46.4897 36.1001 46.0097 36.3501Z" fill="#4B5BAB"/>
<path d="M41.7496 34.13C41.7496 34.01 41.7596 33.89 41.8596 33.8C41.9896 33.68 42.1796 33.7 42.2796 33.85C42.3396 33.94 42.4196 34.01 42.4396 34.12C42.4596 34.22 42.4796 34.31 42.4796 34.41C42.4796 34.62 42.2496 34.76 42.0596 34.67C41.9096 34.6 41.7296 34.37 41.7496 34.13Z" fill="#E4E7F9"/>
<path d="M43.3798 37.0601C43.3998 37.2101 43.2898 37.3001 43.1898 37.4001C43.0998 37.4901 42.9998 37.5301 42.8698 37.5001C42.8198 37.4901 42.7798 37.4701 42.7298 37.4701C42.5898 37.4501 42.4798 37.2401 42.5698 37.1101C42.5998 37.0601 42.6298 37.0001 42.6598 36.9401C42.7398 36.7901 42.9698 36.6701 43.1398 36.7001C43.2698 36.7201 43.3698 36.8301 43.3898 36.9701C43.3898 36.9901 43.3798 37.0201 43.3798 37.0601Z" fill="#E4E7F9"/>
<path d="M46.2096 35.02C46.1796 35.19 46.0495 35.28 45.8495 35.29C45.8395 35.29 45.8396 35.29 45.8296 35.28C45.8196 35.26 45.8096 35.26 45.7996 35.27C45.7896 35.26 45.7896 35.26 45.7796 35.26C45.7696 35.25 45.7696 35.25 45.7496 35.24C45.6496 35.16 45.5595 35.06 45.5095 34.93C45.4695 34.8 45.4596 34.66 45.5196 34.53C45.5496 34.48 45.5796 34.45 45.6196 34.42C45.8596 34.63 46.0496 34.83 46.2096 35.02Z" fill="#E4E7F9"/>
<path d="M40.4998 37.2901C40.4798 37.3101 40.4498 37.3301 40.4298 37.3501C40.3298 37.4101 40.2098 37.4001 40.1298 37.3201C40.0198 37.2101 39.9798 37.0701 39.9598 36.9201C39.9498 36.8301 39.9698 36.7301 39.9798 36.6401C39.9898 36.5401 40.0598 36.4801 40.1598 36.4601C40.2498 36.4401 40.3398 36.4601 40.3998 36.5301C40.5198 36.6901 40.6198 36.8601 40.5998 37.0801C40.5698 37.1601 40.5998 37.2501 40.4998 37.2901Z" fill="#E4E7F9"/>
<path d="M40.2695 34.9001C40.1795 34.9001 40.0895 34.8801 40.0395 34.7701C40.0195 34.7201 40.0095 34.6801 40.0295 34.6301C40.0595 34.5401 40.0995 34.4501 40.1295 34.3701C40.1495 34.3001 40.2195 34.2801 40.2695 34.2501C40.3395 34.2101 40.4095 34.2001 40.4795 34.1901C40.5595 34.1801 40.6295 34.2101 40.6795 34.2801C40.7595 34.3701 40.7795 34.4801 40.7295 34.5901C40.6495 34.7801 40.4695 34.9001 40.2695 34.9001Z" fill="#E4E7F9"/>
<path d="M42.4297 36.04C42.4397 36.14 42.4397 36.23 42.3497 36.29C42.2697 36.34 42.1397 36.34 42.0697 36.27C41.8497 36.06 41.8297 35.79 41.8997 35.54C41.9297 35.43 42.1097 35.37 42.2097 35.48C42.3297 35.61 42.4197 35.76 42.4297 35.95C42.4297 35.98 42.4297 36.01 42.4297 36.04Z" fill="#E4E7F9"/>
<path d="M44.5397 36.09C44.5597 36.23 44.3897 36.35 44.2397 36.3C44.0897 36.25 43.9897 36.14 43.9097 36C43.8597 35.92 43.8397 35.84 43.8497 35.74C43.8697 35.61 44.0197 35.53 44.1297 35.56C44.1397 35.56 44.1497 35.57 44.1597 35.57C44.3397 35.63 44.5497 35.88 44.5397 36.09Z" fill="#E4E7F9"/>
<path d="M41.3398 37.1301C41.4098 37.0801 41.4598 37.0201 41.5398 36.9801C41.6498 36.9301 41.7498 36.9101 41.8598 36.9701C41.8898 36.9901 41.9198 37.0201 41.9498 37.0401C42.0098 37.1401 42.0098 37.2401 41.9798 37.3501C41.9698 37.3801 41.9698 37.4001 41.9398 37.4201C41.8398 37.4901 41.7398 37.5601 41.6098 37.5901C41.3998 37.6301 41.1898 37.4301 41.2898 37.2101C41.3098 37.1801 41.3198 37.1501 41.3398 37.1301Z" fill="#E4E7F9"/>
<path d="M40.8396 35.85C40.7596 35.83 40.6696 35.84 40.6296 35.74C40.5996 35.67 40.5796 35.61 40.6196 35.54C40.6696 35.43 40.7196 35.33 40.8296 35.26C40.9896 35.16 41.1696 35.18 41.2796 35.33C41.3496 35.42 41.3296 35.52 41.2796 35.6C41.1896 35.74 41.0596 35.82 40.8996 35.86C40.8796 35.85 40.8596 35.85 40.8396 35.85Z" fill="#E4E7F9"/>
<path d="M38.9695 37.25C39.0495 37.23 39.0995 37.28 39.1295 37.35C39.1795 37.47 39.1795 37.57 39.0995 37.68C39.0495 37.74 38.9995 37.8 38.9395 37.85C38.8095 37.96 38.5895 37.91 38.5395 37.75C38.5195 37.68 38.4895 37.59 38.5295 37.51C38.5895 37.4 38.6495 37.3 38.7895 37.28C38.8395 37.27 38.8995 37.24 38.9695 37.25Z" fill="#E4E7F9"/>
<path d="M44.8698 33.99C44.8698 34.02 44.8598 34.05 44.8598 34.08C44.8498 34.23 44.7698 34.31 44.6198 34.3C44.4598 34.3 44.2998 34.18 44.2798 34.03C44.2598 33.9 44.3298 33.78 44.4198 33.7C44.4498 33.67 44.4998 33.65 44.5598 33.65H44.5698C44.6698 33.71 44.7598 33.77 44.8498 33.83C44.8698 33.88 44.8698 33.93 44.8698 33.99Z" fill="#E4E7F9"/>
<path d="M42.9995 34.7901C42.9695 34.6401 43.0595 34.5501 43.1695 34.4801C43.1995 34.4601 43.2295 34.4501 43.2595 34.4301C43.3895 34.3201 43.5295 34.3601 43.6695 34.4201C43.7395 34.4501 43.7795 34.5501 43.7395 34.6101C43.6395 34.7901 43.3795 34.9901 43.1195 34.9101C43.1095 34.9001 43.0895 34.9001 43.0695 34.8901C43.0295 34.8601 43.0195 34.8101 42.9995 34.7901Z" fill="#E4E7F9"/>
<path d="M39.4394 35.8901C39.4394 35.9001 39.4394 35.9201 39.4394 35.9301C39.3794 36.0501 39.3294 36.1701 39.2094 36.2501C39.1194 36.3101 39.0294 36.3101 38.9694 36.2601C38.8694 36.1801 38.8494 36.1001 38.8894 35.9901C38.9294 35.8801 39.0094 35.7901 39.0894 35.7001C39.1494 35.6401 39.2394 35.6301 39.3194 35.6601C39.3494 35.6701 39.3794 35.6801 39.3694 35.7201C39.3594 35.7401 39.3694 35.7501 39.3794 35.7601C39.4394 35.8101 39.4394 35.8101 39.4394 35.8901Z" fill="#E4E7F9"/>
<path d="M40.0698 38.66C39.8998 38.69 39.7398 38.71 39.5798 38.72H39.5698C39.5798 38.59 39.6898 38.46 39.8198 38.45C39.8998 38.44 39.9598 38.47 40.0098 38.53C40.0398 38.56 40.0598 38.61 40.0698 38.66Z" fill="#E4E7F9"/>
<path d="M45.4298 36.4501C45.2498 36.4501 45.1598 36.3001 45.2298 36.1401C45.2698 36.0501 45.3298 35.9701 45.4198 35.9301C45.5998 35.8501 45.7398 36.0001 45.7298 36.1701C45.7298 36.3001 45.5698 36.4501 45.4298 36.4501Z" fill="#E4E7F9"/>
<path d="M41.4598 38.3301C41.2998 38.3801 41.1498 38.4201 40.9998 38.4601C40.9698 38.3801 41.0098 38.2901 41.0798 38.2501C41.2398 38.1601 41.3798 38.2001 41.4598 38.3301Z" fill="#E4E7F9"/>
<path d="M43.4299 33.4C43.4799 33.4 43.5199 33.41 43.5499 33.43C43.5799 33.45 43.6099 33.47 43.6399 33.48C43.7499 33.54 43.7699 33.58 43.7499 33.68C43.7299 33.79 43.6399 33.87 43.5399 33.88C43.4299 33.89 43.3499 33.84 43.2899 33.75C43.2299 33.66 43.2399 33.57 43.2899 33.47C43.3299 33.41 43.3899 33.41 43.4299 33.4Z" fill="#E4E7F9"/>
<path d="M44.6096 34.98C44.6096 34.97 44.6096 34.95 44.6096 34.93C44.6196 34.83 44.6795 34.77 44.7795 34.76C44.8795 34.75 44.9496 34.79 44.9896 34.88C45.0096 34.92 45.0196 34.97 45.0196 35.01C45.0296 35.13 44.9795 35.19 44.8495 35.22C44.7495 35.24 44.6496 35.19 44.6096 35.09C44.5996 35.06 44.5996 35.03 44.6096 34.98Z" fill="#E4E7F9"/>
<path d="M40.4995 37.2901C40.5395 37.2301 40.5695 37.1601 40.5895 37.0801C40.5895 37.1201 40.5895 37.1501 40.5895 37.1901C40.5895 37.2601 40.5695 37.2901 40.4995 37.2901Z" fill="#E4E7F9"/>
<path d="M41.9596 37.0401C41.9096 37.0501 41.8796 37.0101 41.8696 36.9701C41.9196 36.9601 41.9396 37.0001 41.9596 37.0401Z" fill="#E4E7F9"/>
<path d="M42.9995 34.79C43.0395 34.81 43.0495 34.85 43.0695 34.88C43.0095 34.87 42.9995 34.83 42.9995 34.79Z" fill="#E4E7F9"/>
<path d="M41.3396 37.13C41.3296 37.16 41.3196 37.18 41.2896 37.2C41.2996 37.17 41.3096 37.14 41.3396 37.13Z" fill="#E4E7F9"/>
<path d="M45.7896 35.26C45.8196 35.26 45.8396 35.26 45.8596 35.28C45.8296 35.29 45.7996 35.29 45.7896 35.26Z" fill="#E4E7F9"/>
<path d="M43.0698 34.88C43.0898 34.88 43.0998 34.89 43.1198 34.9C43.0898 34.9 43.0798 34.89 43.0698 34.88Z" fill="#E4E7F9"/>
<path d="M45.7598 35.2401C45.7698 35.2501 45.7798 35.2501 45.7798 35.2601C45.7798 35.2601 45.7698 35.2501 45.7598 35.2401Z" fill="#E4E7F9"/>
<path d="M46.0598 35.12L46.0698 35.13L46.0598 35.14L46.0498 35.13C46.0498 35.13 46.0498 35.12 46.0598 35.12Z" fill="#E4E7F9"/>
<path d="M39.4399 38.85C39.4399 38.85 41.0299 36.06 46.0699 35.51C46.0699 35.51 50.1699 34.36 50.5399 36.92C50.6399 37.58 49.7599 38.33 49.7599 38.33C49.7599 38.33 51.3399 38.16 51.6399 39.03C52.2999 40.96 50.1099 41.61 48.0099 41.66C45.5699 41.71 39.4399 38.85 39.4399 38.85Z" fill="#4DA6FF"/>
<path d="M51.7297 43.26C51.6997 43.38 51.6697 43.51 51.6097 43.63C51.6097 43.63 51.6097 43.63 51.6097 43.64C51.5097 43.89 51.3597 44.13 51.1597 44.37C50.6097 45.04 49.6997 45.77 48.4297 46.79C47.0397 47.91 45.7197 48.61 44.5097 48.95C44.2697 49.01 44.0297 49.07 43.7997 49.11C43.2797 49.2 42.7697 49.23 42.2797 49.18C42.1497 49.17 42.0297 49.15 41.9097 49.13C39.9697 48.82 38.4297 47.46 37.3997 45.43C37.3897 45.42 37.3897 45.4 37.3797 45.39C37.3697 45.38 37.3697 45.37 37.3697 45.36C37.2097 45.05 37.0697 44.72 36.9397 44.38C36.9297 44.36 36.9197 44.33 36.9097 44.32C36.6097 43.54 36.3597 42.84 36.1897 42.22C36.1097 41.94 36.0397 41.67 35.9997 41.42C35.9997 41.41 35.9997 41.41 35.9997 41.41C35.9397 41.09 35.9197 40.79 35.9297 40.51C35.9297 40.36 35.9397 40.22 35.9697 40.08C35.9697 40.07 35.9797 40.07 35.9797 40.05C35.9797 40.04 35.9797 40.03 35.9897 40.02C36.0897 39.53 36.3297 39.11 36.7597 38.75C37.4397 38.17 38.3597 38.02 39.1897 38.24C39.4197 38.3 39.6397 38.4 39.8497 38.52C39.8597 38.52 39.8697 38.53 39.8797 38.53L41.8197 39.65L42.4197 40L42.6797 40.15C42.8797 40.27 43.0897 40.37 43.2997 40.45C43.6497 40.61 44.0197 40.72 44.3897 40.79C44.8897 40.89 45.4097 40.91 45.9197 40.86L46.0797 40.85L46.6197 40.8L48.8497 40.59L49.1497 40.56C49.3797 40.53 49.5997 40.53 49.7997 40.56C51.0797 40.74 52.0297 41.95 51.7297 43.26Z" fill="#4B5BAB"/>
<path d="M37.7596 41.5C37.7696 41.5 37.7696 41.5 37.7796 41.5C37.9596 41.58 38.1396 41.67 38.2396 41.86C38.2896 41.96 38.3196 42.06 38.2796 42.17C38.2796 42.18 38.2796 42.18 38.2796 42.19C38.2496 42.6 37.9896 42.85 37.6596 43.04C37.4496 43.18 37.2796 43.01 37.0996 42.95C37.0596 42.94 36.9996 42.89 36.9796 42.84C36.9596 42.82 36.9696 42.79 36.9396 42.77C36.8696 42.61 36.8996 42.44 36.9496 42.29C37.0696 41.95 37.2696 41.67 37.6296 41.54C37.6596 41.49 37.7196 41.56 37.7596 41.5Z" fill="#E4E7F9"/>
<path d="M44.3999 40.7901C44.3699 40.8501 44.3399 40.9101 44.2899 40.9601C44.1599 41.1001 44.0199 41.2101 43.8399 41.2801C43.6799 41.3301 43.5199 41.3401 43.3699 41.2501C43.3599 41.2401 43.3399 41.2301 43.3299 41.2201C43.2499 41.1101 43.1699 41.0001 43.1699 40.8701C43.1699 40.8201 43.1799 40.7801 43.1999 40.7301C43.2299 40.6301 43.2799 40.5401 43.3199 40.4401C43.6599 40.6101 44.0299 40.7201 44.3999 40.7901Z" fill="#E4E7F9"/>
<path d="M46.0196 43.03C46.0296 43.38 45.6596 43.6 45.3596 43.42C45.0996 43.27 44.9596 43.03 44.9196 42.73C44.9096 42.6 44.9096 42.47 44.9496 42.34C45.0396 42.04 45.3396 41.94 45.6196 42.09C45.6296 42.1 45.6396 42.1 45.6496 42.11C45.7496 42.28 45.9296 42.41 45.9596 42.62C45.9796 42.76 46.0196 42.89 46.0196 43.03Z" fill="#E4E7F9"/>
<path d="M40.2396 40.8501C40.1696 40.8601 40.0996 40.8401 40.0296 40.8301C39.8196 40.7801 39.6896 40.6101 39.7196 40.3901C39.7296 40.3001 39.7496 40.2101 39.7796 40.1301C39.8996 39.7501 40.0796 39.6401 40.4696 39.5701C40.5896 39.5501 40.6996 39.6201 40.7796 39.7201C41.0096 40.0301 40.9296 40.5101 40.6196 40.7201C40.4996 40.8001 40.3796 40.8601 40.2396 40.8501Z" fill="#E4E7F9"/>
<path d="M46.5297 46.58C46.6397 46.53 46.7397 46.47 46.8597 46.46C47.0597 46.43 47.2097 46.5 47.3097 46.68C47.4397 46.93 47.4097 47.19 47.2097 47.4L47.1997 47.41C46.9097 47.78 46.6697 47.71 46.3097 47.59C46.1597 47.54 46.0797 47.3 46.1397 47.15C46.1897 47.02 46.2597 46.9 46.3197 46.78C46.3897 46.71 46.4297 46.62 46.5297 46.58Z" fill="#E4E7F9"/>
<path d="M51.3799 44.11C51.3899 44.1 51.4099 44.11 51.4099 44.12C51.3999 44.13 51.3999 44.14 51.3999 44.15C51.3899 44.14 51.3899 44.14 51.3799 44.13C51.3699 44.12 51.3799 44.11 51.3799 44.11Z" fill="#E4E7F9"/>
<path d="M51.6095 43.63C51.5095 43.88 51.3595 44.12 51.1595 44.36C51.0795 44.36 50.9995 44.33 50.9395 44.28C50.6895 44.09 50.5295 43.85 50.5395 43.5C50.5295 43.42 50.5595 43.33 50.6095 43.23C50.7095 43.02 50.9095 42.95 51.1195 43.04C51.2495 43.1 51.3695 43.17 51.4195 43.31C51.4495 43.37 51.4895 43.41 51.5295 43.46C51.5695 43.52 51.5895 43.58 51.6095 43.63Z" fill="#E4E7F9"/>
<path d="M39.5897 46.5001C39.6097 46.6501 39.5497 46.7601 39.4597 46.8601C39.3297 47.0101 39.1597 47.0401 38.9897 46.9301C38.9297 46.8901 38.8697 46.8701 38.8097 46.8301C38.6997 46.7701 38.5997 46.6801 38.5897 46.5501C38.5697 46.3701 38.5497 46.1901 38.5497 46.0101C38.5397 45.7401 38.7197 45.6301 38.9597 45.6601C39.1797 45.6801 39.3397 45.7901 39.4297 45.9901C39.4997 46.1601 39.6097 46.3201 39.5897 46.5001Z" fill="#E4E7F9"/>
<path d="M37.3397 39.18C37.3297 39.06 37.3597 38.92 37.4797 38.82C37.6097 38.71 37.7597 38.65 37.9297 38.71C38.0297 38.75 38.1397 38.77 38.2197 38.85C38.2697 38.9 38.3297 38.96 38.3397 39.03C38.3597 39.19 38.3997 39.34 38.3797 39.5C38.3497 39.68 38.2497 39.77 38.0997 39.83C37.7097 39.97 37.3197 39.68 37.3397 39.27C37.3397 39.25 37.3397 39.23 37.3397 39.18Z" fill="#E4E7F9"/>
<path d="M42.8599 46.21C43.1099 46.48 43.2499 46.78 43.1899 47.15C43.1599 47.32 43.0299 47.44 42.8699 47.49C42.7099 47.54 42.5699 47.49 42.4599 47.35C42.3199 47.17 42.2399 46.97 42.2499 46.75C42.2599 46.58 42.2199 46.39 42.3399 46.23C42.5099 46.17 42.6799 46.12 42.8599 46.21Z" fill="#E4E7F9"/>
<path d="M41.5997 42.34C41.6097 42.44 41.5897 42.52 41.4997 42.6C41.2197 42.84 40.9597 42.84 40.7197 42.57C40.5997 42.44 40.4997 42.3 40.4897 42.11C40.4797 41.94 40.5497 41.8 40.6997 41.72C41.1497 41.45 41.6497 41.88 41.5997 42.34Z" fill="#E4E7F9"/>
<path d="M49.8196 40.56C49.8096 40.66 49.8296 40.74 49.7796 40.81C49.6796 40.91 49.5696 41 49.4396 41.06C49.2896 41.12 49.0796 41.01 48.9696 40.83C48.9196 40.76 48.8796 40.68 48.8696 40.59L49.1696 40.56C49.3996 40.53 49.6196 40.53 49.8196 40.56Z" fill="#E4E7F9"/>
<path d="M37.6297 45.29C37.5497 45.31 37.4697 45.35 37.3997 45.39C37.3897 45.38 37.3897 45.37 37.3897 45.36C37.2297 45.05 37.0897 44.72 36.9597 44.38C36.9497 44.36 36.9397 44.33 36.9297 44.32C37.0897 44.23 37.1697 44.26 37.3397 44.39C37.5197 44.54 37.6197 44.73 37.6797 44.96C37.6997 45.07 37.7197 45.19 37.6297 45.29Z" fill="#E4E7F9"/>
<path d="M42.7195 43.79C42.5995 43.78 42.4495 43.78 42.3695 43.61C42.3295 43.53 42.3195 43.45 42.3495 43.36C42.3995 43.23 42.4495 43.1 42.4895 42.98C42.4995 42.94 42.5295 42.91 42.5595 42.89C42.6995 42.78 42.8695 42.73 43.0495 42.7C43.1595 42.69 43.2595 42.74 43.3295 42.83C43.4395 42.97 43.4795 43.12 43.3995 43.3C43.2795 43.59 43.0195 43.79 42.7195 43.79Z" fill="#E4E7F9"/>
<path d="M45.7099 45.9301C45.5299 45.9701 45.4099 45.8701 45.3099 45.7401C45.0699 45.4401 45.0599 45.11 45.1499 44.76C45.1999 44.56 45.4299 44.4901 45.5999 44.6301C45.7399 44.7501 45.8299 44.9101 45.8999 45.0801C45.9699 45.2701 45.9699 45.47 45.9599 45.67C45.9599 45.75 45.8999 45.8001 45.8599 45.8601C45.8499 45.8901 45.8099 45.8801 45.7899 45.9001C45.7599 45.9201 45.7299 45.9101 45.7099 45.9301Z" fill="#E4E7F9"/>
<path d="M48.6995 45.9C48.6895 45.9 48.6795 45.9 48.6695 45.9C48.6495 45.88 48.6195 45.89 48.5995 45.87C48.5795 45.85 48.5495 45.86 48.5295 45.84C48.3795 45.72 48.2395 45.59 48.1495 45.42C48.0895 45.31 48.0695 45.21 48.0895 45.09C48.1195 44.86 48.3495 44.71 48.5695 44.8C48.8495 44.91 49.1695 45.3 49.1195 45.66C49.1195 45.69 49.0995 45.71 49.0895 45.74C48.9695 45.82 48.8595 45.93 48.6995 45.9Z" fill="#E4E7F9"/>
<path d="M44.3199 47.1301C44.4199 47.0501 44.4999 46.9501 44.6199 46.8901C44.7499 46.8301 44.8799 46.8001 45.0299 46.8501C45.1199 46.8601 45.1599 46.9501 45.2399 46.9801C45.3299 47.1101 45.3199 47.2501 45.2999 47.3901C45.2899 47.4501 45.2599 47.5001 45.2199 47.5401C45.0599 47.6801 44.8799 47.7901 44.6599 47.7901C44.3299 47.7901 44.1199 47.4601 44.2599 47.2201C44.2799 47.2001 44.2899 47.1601 44.3199 47.1301Z" fill="#E4E7F9"/>
<path d="M43.8297 44.22C43.9997 44.22 44.1297 44.31 44.2297 44.44C44.3097 44.55 44.2897 44.74 44.1997 44.86C44.0897 44.99 43.9597 45.09 43.7997 45.17C43.6597 45.24 43.5097 45.21 43.3697 45.18C43.2797 45.16 43.1797 44.98 43.1897 44.87C43.2197 44.66 43.4297 44.27 43.7597 44.23C43.7897 44.23 43.8097 44.22 43.8297 44.22Z" fill="#E4E7F9"/>
<path d="M40.6798 43.9601C40.6898 44.2501 40.4698 44.4401 40.2398 44.3901C40.0998 44.3601 40.0198 44.2301 39.9398 44.1301C39.8198 43.9901 39.7998 43.8101 39.7998 43.6301C39.7998 43.4801 39.8898 43.3801 40.0198 43.3101C40.1498 43.2501 40.2698 43.2701 40.3798 43.3601C40.5898 43.5301 40.6498 43.7601 40.6798 43.9601Z" fill="#E4E7F9"/>
<path d="M40.9096 48.01C40.8596 48.06 40.7996 48.11 40.7496 48.16C40.6296 48.28 40.4796 48.3 40.3196 48.27C40.1796 48.24 40.1196 48.12 40.0796 48C40.0096 47.77 40.0996 47.52 40.3096 47.4C40.4696 47.31 40.6596 47.28 40.8496 47.3C40.8896 47.3 40.9096 47.33 40.9296 47.36C41.0096 47.51 41.0796 47.67 41.0096 47.84C40.9896 47.87 40.9696 47.91 40.9396 47.94C40.9296 47.96 40.9396 48 40.9096 48.01Z" fill="#E4E7F9"/>
<path d="M49.2199 42.8901C48.9899 42.8801 48.7498 42.7101 48.7098 42.4801C48.6798 42.2801 48.7698 42.1101 48.9198 41.9801C49.0298 41.8801 49.2399 41.8801 49.3799 41.9601C49.5299 42.0401 49.6198 42.2401 49.5998 42.4101C49.5898 42.4601 49.5799 42.5101 49.5799 42.5601C49.5799 42.7801 49.4399 42.9001 49.2199 42.8901Z" fill="#E4E7F9"/>
<path d="M46.8699 43.72C46.7499 43.51 46.7699 43.37 46.9599 43.23C47.0299 43.18 47.0999 43.12 47.1799 43.07C47.1899 43.06 47.1999 43.05 47.2199 43.04C47.2399 43.02 47.2699 43.02 47.2899 43.01C47.4599 42.92 47.6299 42.98 47.7999 43.04C47.9299 43.09 47.9799 43.25 47.8999 43.37C47.7699 43.57 47.5999 43.73 47.3599 43.78C47.2399 43.8 47.1099 43.86 46.9799 43.79C46.9599 43.77 46.9299 43.78 46.9099 43.76C46.8899 43.74 46.8799 43.73 46.8699 43.72Z" fill="#E4E7F9"/>
<path d="M46.6396 40.8C46.6196 40.83 46.5996 40.8501 46.5796 40.8601C46.4596 40.9601 46.3296 40.99 46.1996 40.92C46.1596 40.9 46.1296 40.87 46.0996 40.84L46.6396 40.8Z" fill="#E4E7F9"/>
<path d="M38.6597 44.0301C38.5897 44.0301 38.5297 44.0101 38.4797 43.9801C38.3197 43.8901 38.2597 43.6901 38.3897 43.5501C38.5197 43.4001 38.6597 43.2501 38.8697 43.1901C39.0797 43.1401 39.3297 43.3301 39.3197 43.5501C39.3197 43.5801 39.3097 43.6201 39.2997 43.6501C39.1297 43.8501 38.9097 43.9701 38.6597 44.0301Z" fill="#E4E7F9"/>
<path d="M42.2899 49.1701C42.1599 49.1601 42.0399 49.1401 41.9199 49.1201C41.9699 49.1001 42.0099 49.0801 42.0599 49.0801C42.1499 49.0801 42.2299 49.1101 42.2899 49.1701Z" fill="#E4E7F9"/>
<path d="M41.4596 45.35C41.3996 45.45 41.3296 45.55 41.2796 45.65C41.2296 45.75 41.1396 45.8 41.0496 45.84C40.9396 45.88 40.8296 45.87 40.7296 45.79C40.6296 45.7 40.5896 45.6 40.6196 45.47C40.6396 45.39 40.6696 45.32 40.7196 45.26C40.7596 45.21 40.7996 45.17 40.8296 45.11C40.9196 44.94 41.0696 44.88 41.2596 44.91C41.3696 45.04 41.5596 45.13 41.4596 45.35Z" fill="#E4E7F9"/>
<path d="M44.5097 48.95C44.2697 49.01 44.0297 49.07 43.7997 49.11C43.7697 48.99 43.8097 48.86 43.9197 48.8C44.2197 48.65 44.4197 48.76 44.5097 48.95Z" fill="#E4E7F9"/>
<path d="M36.4698 41.91C36.4698 42.07 36.3798 42.17 36.2198 42.21C36.2098 42.21 36.2098 42.22 36.1998 42.21C36.1198 41.93 36.0498 41.66 36.0098 41.41C36.0098 41.4 36.0098 41.4 36.0098 41.4C36.1098 41.38 36.2198 41.41 36.2898 41.48C36.4098 41.61 36.4598 41.76 36.4698 41.91Z" fill="#E4E7F9"/>
<path d="M42.4496 40.1C42.4496 40.1 42.4496 40.12 42.4396 40.14C42.3796 40.29 42.1096 40.38 41.9896 40.29C41.9196 40.23 41.8696 40.15 41.8296 40.08C41.7496 39.93 41.7696 39.79 41.8296 39.65L42.4296 40C42.4396 40.03 42.4496 40.06 42.4496 40.1Z" fill="#E4E7F9"/>
<path d="M47.4096 41.53C47.5996 41.51 47.7296 41.63 47.8696 41.72C47.9696 41.78 47.9496 41.98 47.8696 42.1C47.7496 42.26 47.4896 42.3 47.3396 42.15C47.1696 41.99 47.1096 41.82 47.2796 41.59C47.2896 41.58 47.2996 41.57 47.3196 41.56C47.3396 41.53 47.3896 41.57 47.4096 41.53Z" fill="#E4E7F9"/>
<path d="M39.8296 38.82C39.7496 38.88 39.6596 38.94 39.5596 38.88C39.3796 38.78 39.2296 38.64 39.1596 38.44C39.1296 38.37 39.1496 38.29 39.1996 38.23C39.4296 38.29 39.6496 38.39 39.8596 38.51C39.8696 38.54 39.8796 38.56 39.8896 38.59C39.8996 38.68 39.8996 38.76 39.8296 38.82Z" fill="#E4E7F9"/>
<path d="M49.2095 43.91C49.2095 43.89 49.2095 43.87 49.2095 43.84C49.2295 43.67 49.2995 43.59 49.4595 43.57C49.6295 43.55 49.7295 43.61 49.7895 43.77C49.7995 43.8 49.8095 43.83 49.8195 43.87C49.8395 43.99 49.8495 44.11 49.7395 44.19C49.6395 44.26 49.4495 44.29 49.3595 44.23C49.2295 44.16 49.1695 44.06 49.2095 43.91Z" fill="#E4E7F9"/>
<path d="M36.9697 42.8301C36.9997 42.8401 37.0297 42.8401 37.0597 42.8101C37.0797 42.7901 37.1097 42.8101 37.1297 42.8201C37.1697 42.8401 37.0597 42.9701 37.2097 42.9101C37.2697 42.8801 37.2897 42.9801 37.3497 43.0101C37.4597 43.0601 37.5497 43.0501 37.6497 43.0201C37.4897 43.1601 37.3297 43.0801 37.1797 43.0201C37.0897 42.9901 36.9797 42.9601 36.9697 42.8301Z" fill="#E4E7F9"/>
<path d="M42.8596 46.21C42.7896 46.21 42.7196 46.15 42.6596 46.24C42.6296 46.28 42.5796 46.25 42.5296 46.25C42.4596 46.25 42.3996 46.21 42.3296 46.25C42.4396 46.09 42.7196 46.06 42.8596 46.21Z" fill="#E4E7F9"/>
<path d="M41.4598 45.35C41.4598 45.32 41.4598 45.29 41.4598 45.27C41.4498 45.11 41.4498 45.11 41.2898 45.09C41.2998 45.03 41.2998 44.97 41.2598 44.91C41.4698 44.96 41.5498 45.12 41.4598 45.35Z" fill="#E4E7F9"/>
<path d="M37.6297 45.2901C37.5597 45.3401 37.4896 45.3901 37.4196 45.4301C37.4096 45.4201 37.4097 45.4001 37.3997 45.3901C37.3897 45.3801 37.3896 45.3701 37.3896 45.3601C37.4096 45.3501 37.4396 45.3301 37.4496 45.3301C37.4996 45.3001 37.5597 45.2801 37.6297 45.2901Z" fill="#E4E7F9"/>
<path d="M43.1997 40.74C43.1997 40.8 43.1997 40.86 43.1997 40.92C43.1997 40.97 43.1897 41.02 43.2697 41.02C43.3097 41.02 43.3297 41.05 43.3197 41.09C43.3097 41.14 43.3297 41.18 43.3297 41.22C43.1497 41.11 43.0897 40.97 43.1997 40.74Z" fill="#E4E7F9"/>
<path d="M48.6997 45.9C48.7597 45.79 48.8897 45.84 48.9697 45.78C48.9997 45.76 49.0397 45.75 49.0797 45.73C48.9497 45.91 48.8597 45.95 48.6997 45.9Z" fill="#E4E7F9"/>
<path d="M46.5298 46.5801C46.4698 46.6601 46.3998 46.7301 46.3198 46.7801C46.3598 46.6901 46.3898 46.5801 46.5298 46.5801Z" fill="#E4E7F9"/>
<path d="M45.2398 46.99C45.1398 47 45.0998 46.9 45.0298 46.86C45.1298 46.85 45.1998 46.9 45.2398 46.99Z" fill="#E4E7F9"/>
<path d="M37.7596 41.5C37.7396 41.61 37.6696 41.53 37.6196 41.54C37.6596 41.49 37.7096 41.49 37.7596 41.5Z" fill="#E4E7F9"/>
<path d="M40.9497 47.95C40.9497 47.9 40.9797 47.87 41.0197 47.85C41.0197 47.89 40.9997 47.93 40.9497 47.95Z" fill="#E4E7F9"/>
<path d="M44.3195 47.13C44.3095 47.17 44.2895 47.21 44.2495 47.23C44.2495 47.18 44.2695 47.15 44.3195 47.13Z" fill="#E4E7F9"/>
<path d="M47.4096 41.53C47.3796 41.56 47.3496 41.57 47.3096 41.57C47.3396 41.53 47.3696 41.53 47.4096 41.53Z" fill="#E4E7F9"/>
<path d="M40.9097 48.0101C40.9097 47.9801 40.9197 47.9601 40.9497 47.9501C40.9497 47.9801 40.9397 48.0001 40.9097 48.0101Z" fill="#E4E7F9"/>
<path d="M45.7095 45.93C45.7295 45.91 45.7495 45.9 45.7795 45.9C45.7595 45.92 45.7395 45.93 45.7095 45.93Z" fill="#E4E7F9"/>
<path d="M48.5996 45.87C48.6296 45.87 48.6496 45.88 48.6696 45.9C48.6396 45.9 48.6196 45.89 48.5996 45.87Z" fill="#E4E7F9"/>
<path d="M45.7798 45.9C45.7998 45.88 45.8198 45.87 45.8498 45.86C45.8298 45.89 45.8098 45.9 45.7798 45.9Z" fill="#E4E7F9"/>
<path d="M48.5298 45.8301C48.5598 45.8301 48.5798 45.8401 48.5998 45.8601C48.5698 45.8701 48.5498 45.8601 48.5298 45.8301Z" fill="#E4E7F9"/>
<path d="M46.8999 43.75C46.9299 43.75 46.9499 43.76 46.9699 43.78C46.9399 43.78 46.9199 43.77 46.8999 43.75Z" fill="#E4E7F9"/>
<path d="M47.2795 43C47.2595 43.02 47.2395 43.03 47.2095 43.03C47.2195 43.01 47.2495 43 47.2795 43Z" fill="#E4E7F9"/>
<path d="M36.9399 42.76C36.9699 42.77 36.9799 42.8 36.9799 42.83C36.9499 42.81 36.9399 42.79 36.9399 42.76Z" fill="#E4E7F9"/>
<path d="M47.2099 43.04C47.1999 43.05 47.1899 43.06 47.1699 43.07C47.1799 43.06 47.1999 43.05 47.2099 43.04Z" fill="#E4E7F9"/>
<path d="M51.3996 44.1201C51.3896 44.1301 51.3896 44.1401 51.3896 44.1501C51.3796 44.1401 51.3796 44.1401 51.3696 44.1301C51.3696 44.1201 51.3796 44.1201 51.3796 44.1201C51.3896 44.1001 51.3996 44.1101 51.3996 44.1201Z" fill="#E4E7F9"/>
</g>
<defs>
<clipPath id="clip0_340_10">
<rect width="85" height="90" fill="white"/>
</clipPath>
</defs>
</svg>
