<svg width="34" height="15" viewBox="0 0 34 15" fill="none" xmlns="http://www.w3.org/2000/svg">
<g clip-path="url(#clip0_222_815)">
<path d="M33.1099 11.5399C28.8099 13.5599 23.1699 14.7899 16.9999 14.7899C10.8299 14.7899 5.1999 13.5699 0.899902 11.5399C1.0099 7.77993 3.5499 4.44993 7.4099 2.35993C10.0899 0.909927 13.4099 0.0499268 16.9999 0.0499268C24.7799 0.0499268 31.2799 4.07993 32.7799 9.42993C32.9699 10.1199 33.0899 10.8199 33.1099 11.5399Z" fill="#1B2447"/>
<path d="M32.7799 9.42993C29.0399 10.2399 24.3999 10.0999 19.6199 8.82993C14.5599 7.47993 10.2699 5.10993 7.41992 2.34993C10.0899 0.909927 13.4099 0.0499268 16.9999 0.0499268C24.7899 0.0499268 31.2799 4.07993 32.7799 9.42993Z" fill="#2C3379"/>
<path d="M4.37005 11.24C4.30005 11.24 4.23005 11.23 4.17005 11.2C3.42005 10.93 3.01005 10.75 3.00005 10.74C2.70005 10.6 2.56005 10.24 2.70005 9.93999C2.84005 9.63999 3.20005 9.49999 3.50005 9.63999C3.50005 9.63999 3.89005 9.80999 4.58005 10.06C4.89005 10.17 5.06005 10.52 4.95005 10.83C4.85005 11.09 4.62005 11.24 4.37005 11.24Z" fill="#4369DB"/>
<path d="M13.5399 13.1699C13.5199 13.1699 13.5099 13.1699 13.4899 13.1699C12.6999 13.0999 11.8999 13.0099 11.1199 12.8999C10.7899 12.8499 10.5599 12.5399 10.6099 12.2099C10.6599 11.8799 10.9599 11.6499 11.2999 11.6999C12.0599 11.8099 12.8299 11.8999 13.5999 11.9599C13.9299 11.9899 14.1799 12.2799 14.1499 12.6199C14.1199 12.9299 13.8599 13.1699 13.5399 13.1699ZM8.89994 12.4899C8.85994 12.4899 8.81994 12.4899 8.77994 12.4799C7.98994 12.3199 7.20994 12.1299 6.45994 11.9199C6.13994 11.8299 5.94994 11.4999 6.03994 11.1799C6.12994 10.8599 6.45994 10.6699 6.77994 10.7599C7.50994 10.9599 8.25994 11.1399 9.02994 11.2999C9.35994 11.3699 9.56994 11.6899 9.49994 12.0199C9.42994 12.2899 9.17994 12.4899 8.89994 12.4899Z" fill="#4369DB"/>
<path d="M17.0001 13.3099C16.6201 13.3099 16.2401 13.2999 15.8701 13.2899C15.5401 13.2799 15.2701 12.9999 15.2801 12.6699C15.2901 12.3399 15.5701 12.0699 15.9001 12.0799C16.6601 12.0999 17.4601 12.0999 18.2101 12.0699C18.5401 12.0599 18.8201 12.3199 18.8401 12.6499C18.8501 12.9799 18.5901 13.2599 18.2601 13.2799C17.8501 13.3099 17.4301 13.3099 17.0001 13.3099ZM20.5801 13.1399C20.2701 13.1399 20.0101 12.9099 19.9801 12.5899C19.9501 12.2599 20.1901 11.9599 20.5201 11.9299C21.2801 11.8599 22.0601 11.7599 22.8101 11.6299C23.1401 11.5799 23.4501 11.7999 23.5001 12.1299C23.5501 12.4599 23.3301 12.7699 23.0001 12.8199C22.2201 12.9499 21.4201 13.0499 20.6301 13.1299C20.6201 13.1399 20.6001 13.1399 20.5801 13.1399ZM25.2201 12.3899C24.9401 12.3899 24.6901 12.1999 24.6301 11.9199C24.5601 11.5899 24.7601 11.2699 25.0801 11.1899C25.8401 11.0199 26.5901 10.8199 27.3101 10.5999C27.6301 10.4999 27.9701 10.6799 28.0601 10.9999C28.1601 11.3199 27.9801 11.6599 27.6601 11.7499C26.9101 11.9799 26.1301 12.1799 25.3501 12.3599C25.3101 12.3799 25.2601 12.3899 25.2201 12.3899Z" fill="#4369DB"/>
<path d="M29.7199 11.02C29.4799 11.02 29.2499 10.87 29.1599 10.63C29.0399 10.32 29.1899 9.96996 29.4999 9.84996C30.1899 9.57996 30.5599 9.39996 30.5699 9.39996C30.8699 9.24996 31.2299 9.37996 31.3799 9.66996C31.5299 9.96996 31.4099 10.33 31.1099 10.48C31.0899 10.49 30.6899 10.69 29.9499 10.98C29.8599 11.01 29.7899 11.02 29.7199 11.02Z" fill="#4369DB"/>
</g>
<defs>
<clipPath id="clip0_222_815">
<rect width="32.21" height="14.74" fill="white" transform="translate(0.899902 0.0499268)"/>
</clipPath>
</defs>
</svg>
