<svg width="85" height="90" viewBox="0 0 85 90" fill="none" xmlns="http://www.w3.org/2000/svg">
<g clip-path="url(#clip0_340_448)">
<path d="M20.3599 24.64C20.3599 24.64 20.1599 10.99 43.8099 6.98C58.9499 4.41 66.8299 12.61 70.3899 19.35C72.5299 23.41 71.8799 29.03 69.0799 32.66C67.9399 34.14 66.6999 35.51 65.6199 36.16C65.6199 36.16 59.6199 12.03 20.3599 24.64Z" fill="#1483B6"/>
<path d="M21.66 44.94C21.36 45.68 20.36 45.78 19.95 45.1C16.67 39.72 8.59997 27.78 17.98 14.95C26.67 3.08 57.69 0.400001 51 16.64C50.3 18.34 48.01 19.65 44.55 20.69C36.04 23.26 24.2 38.68 21.66 44.94Z" fill="#EB473E"/>
<mask id="mask0_340_448" style="mask-type:luminance" maskUnits="userSpaceOnUse" x="13" y="5" width="39" height="41">
<path d="M21.66 44.94C21.36 45.68 20.36 45.78 19.95 45.1C16.67 39.72 8.59997 27.78 17.98 14.95C26.67 3.08 57.69 0.400001 51 16.64C50.3 18.34 48.01 19.65 44.55 20.69C36.04 23.26 24.2 38.68 21.66 44.94Z" fill="white"/>
</mask>
<g mask="url(#mask0_340_448)">
<path d="M53.7197 20.59V20.56L57.1497 17.14L60.5997 20.59L60.9297 20.26L57.3897 16.72V11.81H57.0797L53.6997 8.42998V4.07998H53.7297V4.04998L57.1597 0.629981L60.6097 4.07998L60.9397 3.74998L57.3897 0.199981V-4.71002H57.0797L53.6997 -8.08002V-12.99H53.2297V-12.96L49.7997 -9.54002L46.3597 -12.98V-13H45.8897V-12.97L42.4697 -9.55002L39.0297 -13H38.5597V-12.97L35.1397 -9.55002L31.6897 -13H31.2197V-12.97L27.7997 -9.56002L24.3597 -13V-13.01H23.8897V-12.98L20.4597 -9.56002L17.0197 -13V-13.01H16.5497V-12.98L13.1197 -9.56002L9.67975 -13V-13.01H9.20975V-12.98L5.78975 -9.57002L2.33975 -13.02L2.00975 -12.69L5.54975 -9.14002V-4.23002H5.85975L9.23975 -0.850019V3.48998H9.19975V3.51998L5.77975 6.93998L2.32975 3.48998L1.99975 3.81998L5.53975 7.35998V12.27H5.84975L9.22975 15.65V20H9.19975V20.02L5.76975 23.44L2.31975 20L1.98975 20.33L5.52975 23.88V28.79H5.83975L9.21975 32.17V37.08H9.68975V37.05L13.1097 33.63L16.5497 37.07V37.08H17.0197V37.05L20.4497 33.63L23.8897 37.07V37.08H24.3597V37.05L27.7797 33.63L31.2197 37.07H31.6897V37.04L35.1197 33.62L38.5597 37.06H39.0297V37.03L42.4597 33.61L45.8997 37.05H46.3697V37.02L49.7997 33.6L53.2397 37.04H53.7097V37.01L57.1397 33.59L60.5897 37.04L60.9197 36.71L57.3797 33.16V28.25H57.0697L53.6897 24.87V20.53H53.7197V20.59ZM56.9097 16.71L53.7197 19.9V15.68L56.9097 12.49V16.71ZM56.9197 0.199981L53.7297 3.38998V-0.830019L56.9197 -4.02002V0.199981ZM53.4697 -7.66002L56.6797 -4.44002L53.4897 -1.26002L50.2797 -4.48002L53.4697 -7.66002ZM50.0297 11.61V7.38998L53.2197 4.19998V8.41998L50.0297 11.61ZM50.0397 12.47L53.2497 15.68V19.92L50.0397 16.71V12.47ZM53.2597 -0.830019V3.40998L50.0497 0.199981V-4.04002L53.2597 -0.830019ZM50.0397 -9.12002L53.2297 -12.31V-8.09002L50.0397 -4.90002V-9.12002ZM49.8197 0.629981L52.9797 3.78998L49.7997 6.95998L46.6397 3.79998L49.8197 0.629981ZM42.7097 12.47L45.9197 15.68V19.92L42.7097 16.71V12.47ZM42.6997 11.6V7.37998L45.8897 4.18998V8.40998L42.6997 11.6ZM42.9397 12.03L46.1297 8.84998L49.3397 12.06L46.1497 15.24L42.9397 12.03ZM42.7097 0.199981V-4.04002L45.9197 -0.830019V3.40998L42.7097 0.199981ZM46.3597 8.41998V4.17998L49.5697 7.38998V11.63L46.3597 8.41998ZM46.3497 20.69L49.5597 23.9V28.14L46.3497 24.93V20.69ZM46.3797 15.67L49.5697 12.48V16.7L46.3797 19.89V15.67ZM49.5797 0.199981L46.3897 3.38998V-0.830019L49.5797 -4.02002V0.199981ZM46.3697 -12.33L49.5797 -9.12002V-4.88002L46.3697 -8.09002V-12.33ZM46.1297 -7.66002L49.3397 -4.44002L46.1497 -1.26002L42.9397 -4.48002L46.1297 -7.66002ZM42.7097 -9.12002L45.8997 -12.31V-8.09002L42.6997 -4.90002L42.7097 -9.12002ZM42.4797 0.629981L45.6397 3.78998L42.4697 6.95998L39.2997 3.79998L42.4797 0.629981ZM35.3697 12.46L38.5697 15.67V19.91L35.3697 16.7V12.46ZM35.3597 11.6V7.37998L38.5497 4.18998V8.40998L35.3597 11.6ZM35.5997 12.03L38.7797 8.84998L41.9997 12.06L38.8197 15.24L35.5997 12.03ZM35.3797 0.189981V-4.05002L38.5797 -0.840019V3.39998L35.3797 0.189981ZM39.0197 8.41998V4.17998L42.2297 7.38998V11.63L39.0197 8.41998ZM39.0097 20.69L42.2197 23.9V28.14L39.0097 24.93V20.69ZM39.0497 15.67L42.2397 12.48V16.7L39.0497 19.89V15.67ZM42.2397 0.199981L39.0497 3.38998V-0.830019L42.2397 -4.02002V0.199981ZM39.0297 -12.33L42.2397 -9.12002V-4.88002L39.0297 -8.09002V-12.33ZM38.7897 -7.66002L41.9997 -4.44002L38.8197 -1.26002L35.6097 -4.48002L38.7897 -7.66002ZM35.3697 -9.12002L38.5597 -12.31V-8.09002L35.3697 -4.90002V-9.12002ZM35.1397 0.619981L38.2997 3.77998L35.1297 6.94998L31.9697 3.78998L35.1397 0.619981ZM28.0297 12.46L31.2397 15.67V19.91L28.0297 16.7V12.46ZM28.0197 11.6V7.37998L31.2097 4.18998V8.40998L28.0197 11.6ZM28.2597 12.02L31.4397 8.83998L34.6497 12.05L31.4697 15.23L28.2597 12.02ZM28.0397 0.189981V-4.05002L31.2497 -0.840019V3.39998L28.0397 0.189981ZM31.6797 8.40998V4.16998L34.8897 7.37998V11.62L31.6797 8.40998ZM31.6797 20.68L34.8897 23.89V28.13L31.6797 24.92V20.68ZM31.7097 15.67L34.8997 12.48V16.7L31.7097 19.89V15.67ZM34.9097 0.189981L31.7197 3.37998V-0.840019L34.9097 -4.03002V0.189981ZM31.6897 -12.33L34.8997 -9.12002V-4.88002L31.6897 -8.09002V-12.33ZM31.4497 -7.67002L34.6597 -4.45002L31.4797 -1.27002L28.2697 -4.49002L31.4497 -7.67002ZM28.0297 -9.13002L31.2197 -12.32V-8.10002L28.0297 -4.91002V-9.13002ZM27.7997 0.619981L30.9597 3.77998L27.7897 6.94998L24.6297 3.78998L27.7997 0.619981ZM20.6997 12.46L23.9097 15.67V19.91L20.6997 16.7V12.46ZM20.6897 11.59V7.36998L23.8797 4.17998V8.39998L20.6897 11.59ZM20.9297 12.02L24.1097 8.83998L27.3197 12.05L24.1397 15.23L20.9297 12.02ZM20.6997 0.189981V-4.05002L23.9097 -0.840019V3.39998L20.6997 0.189981ZM24.3497 8.40998V4.16998L27.5597 7.37998V11.62L24.3497 8.40998ZM24.3397 20.68L27.5497 23.89V28.13L24.3397 24.92V20.68ZM24.3697 15.66L27.5597 12.47V16.69L24.3697 19.88V15.66ZM27.5697 0.189981L24.3797 3.37998V-0.840019L27.5697 -4.03002V0.189981ZM24.3497 -12.34L27.5597 -9.13002V-4.89002L24.3497 -8.10002V-12.34ZM24.1197 -7.67002L27.3297 -4.45002L24.1497 -1.27002L20.9397 -4.49002L24.1197 -7.67002ZM20.6997 -9.13002L23.8897 -12.32V-8.10002L20.6997 -4.91002V-9.13002ZM20.4697 0.619981L23.6297 3.77998L20.4597 6.94998L17.2997 3.78998L20.4697 0.619981ZM13.3597 12.45L16.5697 15.66V19.9L13.3597 16.69V12.45ZM13.3497 11.59V7.36998L16.5397 4.17998V8.39998L13.3497 11.59ZM13.5897 12.02L16.7697 8.83998L19.9797 12.05L16.7997 15.23L13.5897 12.02ZM13.3697 0.179981V-4.06002L16.5797 -0.850019V3.38998L13.3697 0.179981ZM17.0097 8.40998V4.16998L20.2197 7.37998V11.62L17.0097 8.40998ZM16.9997 20.68L20.2097 23.89V28.13L16.9997 24.91V20.68ZM17.0397 15.66L20.2297 12.47V16.69L17.0397 19.88V15.66ZM20.2297 0.189981L17.0397 3.37998V-0.840019L20.2297 -4.03002V0.189981ZM17.0197 -12.34L20.2297 -9.13002V-4.89002L17.0197 -8.10002V-12.34ZM16.7797 -7.67002L19.9997 -4.46002L16.8197 -1.28002L13.5997 -4.49002L16.7797 -7.67002ZM13.3597 -9.13002L16.5497 -12.32V-8.10002L13.3597 -4.91002V-9.13002ZM13.1297 0.609981L16.2897 3.76998L13.1197 6.93998L9.95975 3.77998L13.1297 0.609981ZM12.8897 12.47V16.69L9.69975 19.88V15.66L12.8897 12.47ZM12.8797 11.61L9.66975 8.39998V4.15998L12.8797 7.36998V11.61ZM12.8997 0.179981L9.70975 3.36998V-0.850019L12.8997 -4.04002V0.179981ZM9.67975 -12.34L12.8897 -9.13002V-4.89002L9.67975 -8.10002V-12.34ZM6.01975 -9.14002L9.20975 -12.33V-8.11002L6.01975 -4.92002V-9.14002ZM6.25975 -4.50002L9.43975 -7.68002L12.6497 -4.46002L9.46975 -1.28002L6.25975 -4.50002ZM6.00975 7.36998L9.19975 4.17998V8.39998L6.00975 11.59V7.36998ZM6.24975 12.01L9.42975 8.82998L12.6397 12.04L9.45975 15.22L6.24975 12.01ZM12.8697 23.88V28.12L9.65975 24.91V20.67L12.8697 23.88ZM6.00975 23.88L9.19975 20.69V24.91L5.99975 28.09L6.00975 23.88ZM9.45975 31.73L6.24975 28.51L9.42975 25.33L12.6397 28.55L9.45975 31.73ZM12.8797 33.2L9.68975 36.39V32.17L12.8797 28.98V33.2ZM13.1097 23.45L9.94975 20.29L13.1197 17.12L16.2797 20.28L13.1097 23.45ZM13.3397 23.88L16.5297 20.69V24.91L13.3397 28.1V23.88ZM16.5597 36.41L13.3497 33.2V28.96L16.5597 32.17V36.41ZM16.7997 31.74L13.5897 28.52L16.7697 25.34L19.9797 28.56L16.7997 31.74ZM20.2197 33.2L17.0297 36.39V32.17L20.2197 28.98V33.2ZM20.4397 23.45L17.2797 20.29L20.4497 17.12L23.6097 20.28L20.4397 23.45ZM20.6797 23.88L23.8697 20.69V24.91L20.6797 28.1V23.88ZM23.8897 36.41L20.6797 33.2V28.96L23.8897 32.17V36.41ZM24.1297 31.74L20.9197 28.52L24.0997 25.34L27.3097 28.56L24.1297 31.74ZM27.5497 33.2L24.3597 36.39V32.17L27.5497 28.98V33.2ZM27.7797 23.46L24.6197 20.3L27.7897 17.13L30.9497 20.29L27.7797 23.46ZM28.0197 23.89L31.2097 20.7V24.92L28.0197 28.11V23.89ZM31.2297 36.41L28.0197 33.2V28.96L31.2297 32.17V36.41ZM31.4697 31.74L28.2597 28.52L31.4397 25.34L34.6497 28.56L31.4697 31.74ZM34.8897 33.21L31.6997 36.4V32.18L34.8897 28.99V33.21ZM35.1197 23.46L31.9597 20.3L35.1297 17.13L38.2897 20.29L35.1197 23.46ZM35.3497 23.89L38.5397 20.7V24.92L35.3497 28.11V23.89ZM38.5697 36.42L35.3697 33.21V28.97L38.5697 32.18V36.42ZM38.8097 31.75L35.5997 28.53L38.7797 25.35L41.9897 28.57L38.8097 31.75ZM42.2297 33.21L39.0397 36.4V32.18L42.2297 28.99V33.21ZM42.4597 23.46L39.2997 20.3L42.4697 17.13L45.6297 20.29L42.4597 23.46ZM42.6897 23.89L45.8797 20.7V24.92L42.6897 28.11V23.89ZM45.9097 36.42L42.6997 33.21V28.97L45.9097 32.18V36.42ZM46.1397 31.75L42.9297 28.53L46.1197 25.35L49.3297 28.57L46.1397 31.75ZM49.5697 33.21L46.3797 36.4V32.18L49.5697 29V33.21ZM49.7897 23.47L46.6297 20.31L49.7997 17.14L52.9597 20.3L49.7897 23.47ZM50.0297 23.9L53.2197 20.71V24.93L50.0297 28.12V23.9ZM53.2397 36.42L50.0297 33.21V28.97L53.2397 32.18V36.42ZM56.8997 33.22L53.7097 36.41V32.19L56.9097 29L56.8997 33.22ZM56.6597 28.58L53.4697 31.76L50.2597 28.54L53.4497 25.36L56.6597 28.58ZM53.4897 15.25L50.2797 12.04L53.4697 8.85998L56.6797 12.07L53.4897 15.25Z" fill="#EDA4AE"/>
</g>
<path d="M56.0699 26.35H26.6899V41.67H56.0699V26.35Z" fill="#AF252F"/>
<path d="M12.5099 56.17C12.2099 56.91 11.2099 57.01 10.7999 56.33C7.5199 50.95 -1.3801 36.74 10.4899 26.18C22.2799 15.68 50.6699 17.22 52.0399 22.45C52.7999 25.34 49.7399 27.63 35.3899 31.93C22.1799 35.88 15.0499 49.91 12.5099 56.17Z" fill="#4850C6"/>
<path opacity="0.7" d="M35.3799 31.92C22.1799 35.88 15.0399 49.91 12.4999 56.18C12.1999 56.91 11.2099 57.01 10.7899 56.33C9.39986 54.05 6.99986 50.17 5.60986 45.65C7.22986 40.63 10.9099 35.2 15.2899 31.31C24.1299 23.45 41.2699 21.61 52.1199 23C52.3399 25.64 48.7899 27.9 35.3799 31.92Z" fill="#3D409A"/>
<path d="M18.6002 55.13C18.6002 55.13 18.3702 39.07 46.2002 34.35C64.0202 31.33 73.2902 40.97 77.4802 48.9C80.0002 53.67 79.2402 60.29 75.9402 64.56C74.6002 66.3 73.1402 67.91 71.8602 68.68C71.8602 68.69 64.8002 40.3 18.6002 55.13Z" fill="#EB473E"/>
<path d="M75.1602 65.5399C74.0402 66.8999 72.8902 68.0699 71.8602 68.6999C71.8602 68.6999 64.7902 40.2999 18.6002 55.1399C18.6002 55.1399 18.5902 54.4599 18.8202 53.3399C22.3602 48.8699 29.2602 43.9599 42.6602 41.6899C60.4702 38.6699 69.7402 48.3199 73.9302 56.2399C75.3902 58.9999 75.7502 62.3599 75.1602 65.5399Z" fill="#AF252F"/>
<path d="M80.4801 41.02C80.4601 41.71 80.4001 42.39 80.3001 43.07C80.0101 45.25 79.3901 47.36 78.6301 49.3C78.5701 49.45 78.5101 49.61 78.4401 49.76C78.0801 50.65 77.6901 51.5 77.3001 52.31C76.9601 52.98 76.6301 53.61 76.3001 54.21C75.5201 55.64 74.7701 56.85 74.2001 57.8C74.1701 57.85 74.1301 57.9 74.0901 57.94C73.6301 58.45 72.7701 58.32 72.4901 57.64C72.4201 57.48 72.3601 57.31 72.2901 57.14C71.6701 55.67 70.8201 53.83 69.7301 51.82C69.6501 51.66 69.5601 51.5 69.4701 51.34C69.0201 50.53 68.5301 49.7 67.9901 48.85C67.6301 48.27 67.2501 47.68 66.8401 47.1C66.3801 46.42 65.8901 45.74 65.3701 45.07C64.2601 43.61 63.0301 42.19 61.6701 40.85C60.8201 39.99 59.9201 39.18 58.9601 38.42C58.4701 38.01 57.9601 37.63 57.4401 37.26C57.0301 36.97 56.6101 36.69 56.1901 36.43C55.7601 36.15 55.3301 35.89 54.8801 35.64C53.3001 34.75 51.6101 34.01 49.8001 33.45C49.7401 33.43 49.6701 33.41 49.6101 33.39C49.0201 33.21 48.4601 33.04 47.9101 32.87C47.4101 32.72 46.9301 32.57 46.4601 32.42C45.7201 32.18 45.0101 31.95 44.3401 31.73C37.2501 29.36 34.1301 27.64 33.1801 25.94C32.9501 25.52 32.8501 25.1 32.8501 24.68C32.8501 24.42 32.8901 24.17 32.9601 23.91C32.9701 23.89 32.9701 23.86 32.9901 23.84C33.0601 23.6 33.1901 23.36 33.3801 23.14C33.6201 22.85 33.9501 22.57 34.3701 22.31C35.2001 21.79 36.3601 21.33 37.7701 20.96C38.5701 20.75 39.4501 20.57 40.4001 20.41C41.0501 20.31 41.7301 20.21 42.4401 20.13C42.6601 20.11 42.8801 20.09 43.1101 20.07C43.4901 20.03 43.8901 20 44.2901 19.98C45.2801 19.91 46.3101 19.86 47.3701 19.86C47.6501 19.85 47.9201 19.85 48.2001 19.85H48.2101C50.2401 19.86 52.3701 19.97 54.5201 20.21C55.0501 20.27 55.5801 20.34 56.1101 20.41C56.7601 20.5 57.4201 20.6 58.0701 20.71C58.7601 20.84 59.4501 20.97 60.1301 21.12C60.7201 21.24 61.3001 21.38 61.8801 21.53C62.9501 21.8 64.0101 22.11 65.0401 22.46C66.6801 23.01 68.2501 23.68 69.7101 24.44C69.7201 24.44 69.7201 24.43 69.7301 24.43C69.7301 24.44 69.7301 24.44 69.7301 24.45C69.8801 24.53 70.0401 24.59 70.1901 24.67C71.4701 25.36 72.6601 26.13 73.7301 27C73.9901 27.2 74.2501 27.42 74.5001 27.64C76.9301 29.8 78.4901 32.11 79.4001 34.47C79.4201 34.49 79.4201 34.52 79.4301 34.54C79.5001 34.7 79.5601 34.87 79.6001 35.03C79.8801 35.8 80.0801 36.57 80.2101 37.35C80.4401 38.58 80.5201 39.81 80.4801 41.02Z" fill="#FDCE83"/>
<path d="M33.5102 24.03C33.3302 23.97 33.1502 23.9 32.9902 23.84C33.0602 23.6 33.1902 23.36 33.3802 23.14C33.4502 23.43 33.5002 23.73 33.5102 24.03Z" fill="#E36F7C"/>
<path d="M33.5101 24.4299C33.4901 24.9599 33.3701 25.4699 33.1801 25.9399C32.9501 25.5199 32.8501 25.0999 32.8501 24.6799C33.0601 24.5899 33.2801 24.5099 33.5101 24.4299Z" fill="#E36F7C"/>
<path d="M38.2502 28.7299C37.3802 26.1599 36.5202 25.2999 33.9502 24.4299C34.0602 26.7599 35.9202 28.6299 38.2502 28.7299Z" fill="#E36F7C"/>
<path d="M37.7702 20.96C37.0102 22.6 36.0502 23.31 33.9502 24.03C33.9802 23.42 34.1202 22.84 34.3702 22.31C35.2002 21.79 36.3602 21.33 37.7702 20.96Z" fill="#E36F7C"/>
<path d="M47.2899 24.03C44.8399 23.19 43.9399 22.37 43.1099 20.07C43.4899 20.03 43.8899 20 44.2899 19.98C45.9799 20.58 47.2099 22.16 47.2899 24.03Z" fill="#E36F7C"/>
<path d="M42.5803 28.7299C41.7103 26.1599 40.8503 25.2999 38.2803 24.4299C38.3903 26.7599 40.2503 28.6299 42.5803 28.7299Z" fill="#E36F7C"/>
<path d="M47.2902 24.4299C44.7202 25.2999 43.8602 26.1599 42.9902 28.7299C45.3202 28.6299 47.1902 26.7599 47.2902 24.4299Z" fill="#E36F7C"/>
<path d="M42.4403 20.13C41.6103 22.38 40.7103 23.2 38.2803 24.03C38.3503 22.5 39.1803 21.17 40.4003 20.41C41.0503 20.31 41.7303 20.21 42.4403 20.13Z" fill="#E36F7C"/>
<path d="M51.6201 24.03C49.1001 23.17 48.2201 22.32 47.3701 19.86C47.6501 19.85 47.9201 19.85 48.2001 19.85H48.2101C50.1101 20.33 51.5301 22.01 51.6201 24.03Z" fill="#E36F7C"/>
<path d="M51.6203 24.4299C49.0503 25.2999 48.1903 26.1599 47.3203 28.7299C49.6503 28.6299 51.5203 26.7599 51.6203 24.4299Z" fill="#E36F7C"/>
<path d="M56.3601 28.7299C55.4901 26.1599 54.6301 25.2999 52.0601 24.4299C52.1701 26.7599 54.0301 28.6299 56.3601 28.7299Z" fill="#E36F7C"/>
<path d="M56.1101 20.41C55.3101 22.45 54.3901 23.23 52.0601 24.03C52.1301 22.36 53.1101 20.93 54.5201 20.21C55.0501 20.27 55.5801 20.34 56.1101 20.41Z" fill="#E36F7C"/>
<path d="M65.3999 24.03C63.5599 23.4 62.5899 22.78 61.8799 21.53C62.9499 21.8 64.0099 22.11 65.0399 22.46C65.2499 22.94 65.3799 23.48 65.3999 24.03Z" fill="#E36F7C"/>
<path d="M60.6901 28.7299C59.8201 26.1599 58.9601 25.2999 56.3901 24.4299C56.5001 26.7599 58.3601 28.6299 60.6901 28.7299Z" fill="#E36F7C"/>
<path d="M65.4001 24.4299C62.8301 25.2999 61.9701 26.1599 61.1001 28.7299C63.4301 28.6299 65.3001 26.7599 65.4001 24.4299Z" fill="#E36F7C"/>
<path d="M60.1301 21.12C59.3901 22.65 58.4201 23.33 56.3901 24.03C56.4501 22.69 57.0901 21.51 58.0701 20.71C58.7601 20.84 59.4501 20.97 60.1301 21.12Z" fill="#E36F7C"/>
<path d="M69.7302 24.4299C67.1602 25.2999 66.3002 26.1599 65.4302 28.7299C67.7602 28.6299 69.6302 26.7599 69.7302 24.4299Z" fill="#E36F7C"/>
<path d="M74.4699 28.7299C72.2199 28.6299 70.3999 26.8899 70.1899 24.6699C71.4699 25.3599 72.6599 26.1299 73.7299 26.9999C73.9999 27.4699 74.2299 28.0399 74.4699 28.7299Z" fill="#E36F7C"/>
<path d="M47.4703 30.25C47.1603 31.16 46.8503 31.86 46.4603 32.42C45.7203 32.18 45.0103 31.95 44.3403 31.73C45.1203 30.87 46.2303 30.31 47.4703 30.25Z" fill="#E36F7C"/>
<path d="M52.21 30.25C53.08 32.82 53.94 33.68 56.51 34.55C56.41 32.22 54.54 30.35 52.21 30.25Z" fill="#E36F7C"/>
<path d="M56.5099 34.96C56.4899 35.48 56.3799 35.98 56.1899 36.43C55.7599 36.15 55.3299 35.89 54.8799 35.64C55.3299 35.39 55.8699 35.17 56.5099 34.96Z" fill="#E36F7C"/>
<path d="M51.8102 30.25C51.2702 31.83 50.7302 32.77 49.8002 33.45C49.7402 33.43 49.6702 33.41 49.6102 33.39C49.0202 33.21 48.4602 33.04 47.9102 32.87C48.6002 31.38 50.0702 30.33 51.8102 30.25Z" fill="#E36F7C"/>
<path d="M56.5503 30.25C57.4203 32.82 58.2803 33.68 60.8503 34.55C60.7403 32.22 58.8803 30.35 56.5503 30.25Z" fill="#E36F7C"/>
<path d="M60.8499 34.96C60.7799 36.39 60.0499 37.65 58.9599 38.42C58.4699 38.01 57.9599 37.63 57.4399 37.26C58.1499 36.14 59.0999 35.55 60.8499 34.96Z" fill="#E36F7C"/>
<path d="M61.29 34.96C61.39 37.29 63.26 39.16 65.59 39.26C64.71 36.69 63.85 35.83 61.29 34.96Z" fill="#E36F7C"/>
<path d="M61.29 34.55C63.86 33.68 64.72 32.82 65.59 30.25C63.26 30.35 61.39 32.22 61.29 34.55Z" fill="#E36F7C"/>
<path d="M70.3203 30.25C71.1903 32.82 72.0503 33.68 74.6203 34.55C74.5203 32.22 72.6603 30.35 70.3203 30.25Z" fill="#E36F7C"/>
<path d="M65.6201 34.96C65.7201 37.29 67.5901 39.16 69.9201 39.26C69.0501 36.69 68.1801 35.83 65.6201 34.96Z" fill="#E36F7C"/>
<path d="M70.3203 39.26C72.6503 39.16 74.5203 37.29 74.6203 34.96C72.0603 35.83 71.2003 36.69 70.3203 39.26Z" fill="#E36F7C"/>
<path d="M65.6201 34.55C68.1901 33.68 69.0501 32.82 69.9201 30.25C67.5901 30.35 65.7201 32.22 65.6201 34.55Z" fill="#E36F7C"/>
<path d="M74.6602 30.25C75.5302 32.82 76.3902 33.68 78.9602 34.55C78.8502 32.22 76.9902 30.35 74.6602 30.25Z" fill="#E36F7C"/>
<path d="M74.6602 39.26C76.9902 39.16 78.8602 37.29 78.9602 34.96C76.3902 35.83 75.5302 36.69 74.6602 39.26Z" fill="#E36F7C"/>
<path d="M80.2101 37.35C79.7301 36.67 79.4401 35.85 79.3901 34.96C79.4601 34.98 79.5301 35.01 79.6001 35.03C79.8801 35.8 80.0801 36.57 80.2101 37.35Z" fill="#E36F7C"/>
<path d="M79.4301 34.54C79.4201 34.54 79.4001 34.55 79.3901 34.55C79.3901 34.52 79.3901 34.5 79.4001 34.47C79.4201 34.49 79.4201 34.52 79.4301 34.54Z" fill="#E36F7C"/>
<path d="M65.3999 45.08C65.3899 45.08 65.3799 45.07 65.3699 45.07C64.2599 43.61 63.0299 42.19 61.6699 40.85C63.7299 41.19 65.3099 42.94 65.3999 45.08Z" fill="#E36F7C"/>
<path d="M65.4302 40.77C66.3002 43.34 67.1602 44.2 69.7302 45.07C69.6302 42.75 67.7602 40.88 65.4302 40.77Z" fill="#E36F7C"/>
<path d="M69.7303 45.49C69.6703 46.86 69.0003 48.06 67.9903 48.85C67.6303 48.27 67.2503 47.68 66.8403 47.1C67.5003 46.4 68.3803 45.95 69.7303 45.49Z" fill="#E36F7C"/>
<path d="M74.4699 49.78C73.5999 47.21 72.7399 46.35 70.1699 45.48C70.2799 47.81 72.1399 49.68 74.4699 49.78Z" fill="#E36F7C"/>
<path d="M74.4699 40.77C72.1399 40.87 70.2699 42.74 70.1699 45.07C72.7399 44.2 73.5999 43.34 74.4699 40.77Z" fill="#E36F7C"/>
<path d="M80.48 41.02C80.46 41.71 80.4 42.39 80.3 43.07C79.88 42.49 79.55 41.76 79.21 40.78C79.65 40.8 80.08 40.88 80.48 41.02Z" fill="#E36F7C"/>
<path d="M78.63 49.3C78.57 49.45 78.51 49.61 78.44 49.76C76.28 49.48 74.6 47.7 74.5 45.49C76.9 46.3 77.81 47.1 78.63 49.3Z" fill="#E36F7C"/>
<path d="M74.5 45.08C77.07 44.21 77.93 43.35 78.8 40.78C76.47 40.88 74.61 42.75 74.5 45.08Z" fill="#E36F7C"/>
<path d="M70.3203 51.2999C71.1903 53.8699 72.0503 54.7299 74.6203 55.5999C74.5203 53.2699 72.6603 51.3999 70.3203 51.2999Z" fill="#E36F7C"/>
<path d="M74.62 56.01C74.59 56.7 74.4 57.36 74.09 57.94C73.63 58.45 72.77 58.32 72.49 57.64C72.42 57.48 72.36 57.31 72.29 57.14C72.87 56.69 73.62 56.35 74.62 56.01Z" fill="#E36F7C"/>
<path d="M69.9202 51.2999C69.8602 51.4799 69.8002 51.6499 69.7302 51.8199C69.6502 51.6599 69.5602 51.4999 69.4702 51.3399C69.6202 51.3199 69.7702 51.3099 69.9202 51.2999Z" fill="#E36F7C"/>
<path d="M77.2999 52.3099C76.9599 52.9799 76.6299 53.6099 76.2999 54.2099C75.5799 53.5499 75.1199 52.6699 74.6499 51.2999C75.6499 51.3399 76.5699 51.7199 77.2999 52.3099Z" fill="#E36F7C"/>
<path d="M35.3802 31.92C22.1802 35.88 15.0402 49.91 12.5002 56.18C12.2002 56.91 11.2102 57.01 10.7902 56.33C9.40023 54.05 7.00023 50.17 5.61023 45.65C3.71023 39.54 3.66023 32.25 10.4902 26.18C22.2802 15.68 50.6702 17.22 52.0302 22.44C52.0802 22.63 52.1202 22.81 52.1202 23C52.3402 25.64 48.7902 27.9 35.3802 31.92Z" fill="#4850C6"/>
<path d="M66.05 56.5201C66.05 56.5201 67.14 39.33 39.31 34.6C21.49 31.58 9.61 41.78 5.83 49.92C0.500004 61.41 12.91 70.67 14.18 71.45C14.19 71.45 19.86 41.6901 66.05 56.5201Z" fill="#1483B6"/>
<path d="M75.9302 64.57C75.6802 64.9 75.4202 65.2301 75.1602 65.5401C74.0402 66.9001 72.8902 68.07 71.8602 68.7C71.8602 68.7 64.7902 40.3 18.6002 55.14C18.6002 55.14 18.5902 54.46 18.8202 53.34C19.6902 49.01 24.0902 38.11 46.2002 34.36C64.0102 31.33 73.2802 40.98 77.4702 48.91C80.0002 53.68 79.2302 60.3 75.9302 64.57Z" fill="#EB473E"/>
<path d="M69.9296 79.5599C68.9396 81.4799 67.9396 83.1099 67.2096 84.2999C66.7996 84.9799 65.7996 84.8799 65.4996 84.1399C62.9596 77.8799 51.1296 62.4599 42.6196 59.8899C39.1596 58.8399 37.2196 57.3399 36.1696 55.8299C34.9196 54.0599 34.8296 51.7799 35.7096 49.8699C35.9896 49.2499 36.3796 48.6599 36.8596 48.1499C42.7496 41.9099 55.7196 43.6499 67.5196 54.1399C76.7596 62.3699 73.4196 72.7999 69.9296 79.5599Z" fill="#4850C6"/>
<mask id="mask1_340_448" style="mask-type:luminance" maskUnits="userSpaceOnUse" x="35" y="44" width="39" height="41">
<path d="M65.4999 84.14C65.7999 84.88 66.7999 84.98 67.2099 84.3C70.4899 78.92 79.3898 64.71 67.5198 54.15C55.7298 43.65 42.7499 41.91 36.8699 48.15C34.8999 50.24 34.5199 53.48 36.1699 55.84C37.2299 57.34 39.1599 58.85 42.6199 59.89C51.1299 62.46 62.9699 77.87 65.4999 84.14Z" fill="white"/>
</mask>
<g mask="url(#mask1_340_448)">
<path d="M73.2801 76.85V76.82L76.7101 73.4L80.1601 76.85L80.4901 76.52L76.9501 72.98V68.07H76.6401L73.2601 64.69V60.34H73.2901V60.31L76.7201 56.89L80.1701 60.34L80.5001 60.01L76.9601 56.46V51.55H76.6501L73.2701 48.17V43.26H72.8001V43.29L69.3701 46.71L65.9301 43.27V43.26H65.4601V43.29L62.0401 46.71L58.6001 43.27V43.26H58.1301V43.29L54.7101 46.71L51.2701 43.27V43.26H50.8001V43.29L47.3801 46.71L43.9401 43.27V43.26H43.4701V43.29L40.0401 46.71L36.6001 43.27V43.26H36.1301V43.29L32.7001 46.71L29.2601 43.27V43.26H28.7901V43.29L25.3601 46.71L21.9101 43.26L21.5801 43.59L25.1201 47.14V52.05H25.4301L28.8101 55.43V59.77H28.7801V59.8L25.3501 63.22L21.9001 59.77L21.5701 60.1L25.1101 63.64V68.55H25.4201L28.8001 71.93V76.28H28.7701V76.3L25.3401 79.72L21.8901 76.27L21.5601 76.6L25.1001 80.15V85.06H25.4101L28.7901 88.44V93.35H29.2601V93.32L32.6801 89.9L36.1201 93.34V93.35H36.5901V93.32L40.0201 89.9L43.4601 93.34V93.35H43.9301V93.32L47.3501 89.9L50.7901 93.34H51.2601V93.31L54.6901 89.89L58.1301 93.33H58.6001V93.3L62.0301 89.88L65.4701 93.32H65.9401V93.29L69.3701 89.87L72.8101 93.31H73.2801V93.28L76.7101 89.86L80.1601 93.31L80.4901 92.98L76.9501 89.43V84.52H76.6401L73.2601 81.14V76.8H73.2801V76.85ZM76.4701 72.97L73.2801 76.16V71.94L76.4701 68.75V72.97ZM76.4801 56.47L73.2901 59.66V55.44L76.4801 52.25V56.47ZM73.0201 48.61L76.2301 51.83L73.0501 55L69.8401 51.78L73.0201 48.61ZM69.5901 67.87V63.65L72.7801 60.46V64.68L69.5901 67.87ZM69.6001 68.73L72.8101 71.94V76.18L69.6001 72.97V68.73ZM72.8201 55.43V59.67L69.6101 56.46V52.22L72.8201 55.43ZM69.6001 47.15L72.7901 43.96V48.18L69.6001 51.37V47.15ZM69.3701 56.89L72.5301 60.05L69.3601 63.22L66.2001 60.06L69.3701 56.89ZM62.2701 68.73L65.4801 71.94V76.18L62.2701 72.97V68.73ZM62.2501 67.87V63.65L65.4401 60.46V64.68L62.2501 67.87ZM62.4901 68.29L65.6801 65.11L68.8901 68.32L65.7001 71.5L62.4901 68.29ZM62.2701 56.46V52.22L65.4801 55.43V59.67L62.2701 56.46ZM65.9101 64.68V60.44L69.1201 63.65V67.89L65.9101 64.68ZM65.9101 76.95L69.1201 80.16V84.4L65.9101 81.19V76.95ZM65.9401 71.94L69.1301 68.75V72.97L65.9401 76.16V71.94ZM69.1401 56.46L65.9501 59.65V55.43L69.1401 52.24V56.46ZM65.9201 43.94L69.1301 47.15V51.39L65.9201 48.18V43.94ZM65.6901 48.61L68.9001 51.83L65.7201 55L62.5101 51.78L65.6901 48.61ZM62.2601 47.14L65.4501 43.95V48.17L62.2601 51.36V47.14ZM62.0401 56.89L65.2001 60.05L62.0301 63.22L58.8701 60.06L62.0401 56.89ZM54.9301 68.73L58.1301 71.94V76.18L54.9301 72.97V68.73ZM54.9201 67.86V63.64L58.1101 60.45V64.67L54.9201 67.86ZM55.1601 68.29L58.3401 65.11L61.5501 68.32L58.3701 71.5L55.1601 68.29ZM54.9401 56.46V52.22L58.1401 55.43V59.67L54.9401 56.46ZM58.5801 64.68V60.44L61.7901 63.65V67.89L58.5801 64.68ZM58.5701 76.95L61.7801 80.16V84.4L58.5701 81.19V76.95ZM58.6001 71.94L61.7901 68.75V72.97L58.6001 76.16V71.94ZM61.8001 56.46L58.6101 59.65V55.43L61.8001 52.24V56.46ZM58.5901 43.93L61.8001 47.14V51.38L58.5901 48.17V43.93ZM58.3501 48.6L61.5601 51.82L58.3801 55L55.1701 51.78L58.3501 48.6ZM54.9301 47.14L58.1201 43.95V48.17L54.9301 51.36V47.14ZM54.7001 56.89L57.8601 60.05L54.6901 63.22L51.5301 60.06L54.7001 56.89ZM47.5901 68.72L50.8001 71.93V76.17L47.5901 72.96V68.72ZM47.5801 67.86V63.64L50.7701 60.45V64.67L47.5801 67.86ZM47.8201 68.29L51.0001 65.11L54.2101 68.32L51.0301 71.5L47.8201 68.29ZM47.6001 56.45V52.21L50.8101 55.42V59.66L47.6001 56.45ZM51.2401 64.68V60.44L54.4501 63.65V67.89L51.2401 64.68ZM51.2401 76.95L54.4501 80.16V84.4L51.2401 81.19V76.95ZM51.2701 71.93L54.4601 68.74V72.96L51.2701 76.15V71.93ZM54.4601 56.46L51.2701 59.65V55.43L54.4601 52.24V56.46ZM51.2501 43.93L54.4601 47.14V51.38L51.2501 48.17V43.93ZM51.0101 48.6L54.2201 51.82L51.0401 55L47.8301 51.78L51.0101 48.6ZM47.5901 47.14L50.7801 43.95V48.17L47.5901 51.36V47.14ZM47.3601 56.88L50.5201 60.04L47.3501 63.21L44.1901 60.05L47.3601 56.88ZM40.2501 68.72L43.4601 71.93V76.17L40.2501 72.96V68.72ZM40.2401 67.86V63.64L43.4301 60.45V64.67L40.2401 67.86ZM40.4801 68.28L43.6601 65.1L46.8701 68.31L43.7001 71.5L40.4801 68.28ZM40.2601 56.45V52.21L43.4701 55.42V59.66L40.2601 56.45ZM43.9001 64.67V60.43L47.1101 63.64V67.88L43.9001 64.67ZM43.9001 76.94L47.1101 80.15V84.39L43.9001 81.18V76.94ZM43.9301 71.93L47.1201 68.74V72.96L43.9301 76.15V71.93ZM47.1301 56.45L43.9401 59.64V55.42L47.1301 52.23V56.45ZM43.9101 43.93L47.1201 47.14V51.38L43.9101 48.17V43.93ZM43.6701 48.6L46.8801 51.82L43.7001 55L40.4901 51.78L43.6701 48.6ZM40.2501 47.13L43.4401 43.94V48.16L40.2501 51.35V47.13ZM40.0201 56.88L43.1801 60.04L40.0101 63.21L36.8501 60.05L40.0201 56.88ZM32.9201 68.72L36.1301 71.93V76.17L32.9201 72.96V68.72ZM32.9101 67.85V63.63L36.1001 60.44V64.66L32.9101 67.85ZM33.1501 68.28L36.3301 65.1L39.5401 68.31L36.3601 71.49L33.1501 68.28ZM32.9201 56.45V52.21L36.1301 55.42V59.66L32.9201 56.45ZM36.5701 64.67V60.43L39.7801 63.64V67.88L36.5701 64.67ZM36.5601 76.94L39.7701 80.15V84.39L36.5601 81.18V76.94ZM36.5901 71.92L39.7801 68.73V72.95L36.5901 76.14V71.92ZM39.7901 56.45L36.6001 59.64V55.42L39.7901 52.23V56.45ZM36.5801 43.92L39.7901 47.13V51.37L36.5801 48.16V43.92ZM36.3401 48.59L39.5501 51.81L36.3701 54.99L33.1601 51.77L36.3401 48.59ZM32.9101 47.13L36.1001 43.94V48.16L32.9101 51.35V47.13ZM32.6901 56.88L35.8501 60.04L32.6801 63.21L29.5201 60.05L32.6901 56.88ZM32.4501 68.74V72.96L29.2601 76.15V71.93L32.4501 68.74ZM32.4401 67.87L29.2301 64.66V60.42L32.4401 63.63V67.87ZM32.4501 56.45L29.2601 59.64V55.42L32.4501 52.23V56.45ZM29.2401 43.92L32.4501 47.13V51.37L29.2401 48.16V43.92ZM25.5801 47.13L28.7701 43.94V48.16L25.5801 51.35V47.13ZM25.8201 51.77L29.0001 48.59L32.2101 51.81L29.0301 54.99L25.8201 51.77ZM25.5701 63.63L28.7601 60.44V64.66L25.5701 67.85V63.63ZM25.8101 68.28L28.9901 65.1L32.2001 68.31L29.0201 71.49L25.8101 68.28ZM32.4301 80.14V84.38L29.2201 81.17V76.93L32.4301 80.14ZM25.5601 80.14L28.7501 76.95V81.17L25.5601 84.36V80.14ZM29.0201 88L25.8101 84.78L28.9901 81.6L32.2001 84.82L29.0201 88ZM32.4401 89.46L29.2501 92.65V88.43L32.4401 85.24V89.46ZM32.6701 79.71L29.5101 76.55L32.6801 73.38L35.8401 76.54L32.6701 79.71ZM32.9001 80.14L36.0901 76.95V81.17L32.9001 84.36V80.14ZM36.1201 92.67L32.9101 89.46V85.22L36.1201 88.43V92.67ZM36.3501 88L33.1401 84.78L36.3201 81.6L39.5301 84.82L36.3501 88ZM39.7801 89.46L36.5901 92.65V88.43L39.7801 85.24V89.46ZM40.0001 79.72L36.8401 76.56L40.0101 73.39L43.1701 76.55L40.0001 79.72ZM40.2401 80.15L43.4301 76.96V81.18L40.2401 84.37V80.15ZM43.4501 92.67L40.2401 89.46V85.22L43.4501 88.43V92.67ZM43.6901 88.01L40.4801 84.79L43.6601 81.61L46.8701 84.83L43.6901 88.01ZM47.1101 89.47L43.9201 92.66V88.44L47.1101 85.25V89.47ZM47.3401 79.72L44.1801 76.56L47.3501 73.39L50.5101 76.55L47.3401 79.72ZM47.5701 80.15L50.7601 76.96V81.18L47.5701 84.37V80.15ZM50.7901 92.68L47.5801 89.47V85.23L50.7901 88.44V92.68ZM51.0301 88.01L47.8201 84.79L51.0001 81.61L54.2101 84.83L51.0301 88.01ZM54.4501 89.47L51.2601 92.66V88.44L54.4501 85.25V89.47ZM54.6801 79.72L51.5201 76.56L54.6901 73.39L57.8501 76.55L54.6801 79.72ZM54.9101 80.15L58.1001 76.96V81.18L54.9101 84.37V80.15ZM58.1201 92.68L54.9201 89.47V85.23L58.1201 88.44V92.68ZM58.3601 88.01L55.1501 84.79L58.3301 81.61L61.5401 84.83L58.3601 88.01ZM61.7901 89.47L58.6001 92.66V88.44L61.7901 85.25V89.47ZM62.0101 79.73L58.8501 76.57L62.0201 73.4L65.1801 76.56L62.0101 79.73ZM62.2501 80.16L65.4401 76.97V81.19L62.2501 84.38V80.16ZM65.4601 92.68L62.2501 89.47V85.23L65.4601 88.44V92.68ZM65.7001 88.02L62.4901 84.8L65.6801 81.62L68.8901 84.84L65.7001 88.02ZM69.1201 89.48L65.9301 92.67V88.45L69.1201 85.26V89.48ZM69.3501 79.73L66.1901 76.57L69.3601 73.4L72.5201 76.56L69.3501 79.73ZM69.5901 80.16L72.7801 76.97V81.19L69.5901 84.38V80.16ZM72.8001 92.69L69.5901 89.48V85.24L72.8001 88.45V92.69ZM76.4601 89.48L73.2701 92.67V88.45L76.4601 85.26V89.48ZM76.2201 84.84L73.0301 88.02L69.8201 84.8L73.0101 81.62L76.2201 84.84ZM73.0401 71.51L69.8301 68.3L73.0201 65.12L76.2301 68.33L73.0401 71.51Z" fill="#7CCEEC"/>
</g>
<path opacity="0.7" d="M69.9298 79.56C68.9398 81.48 67.9398 83.11 67.2098 84.3C66.7998 84.98 65.8298 84.87 65.4998 84.14C62.7198 78.1 51.0398 62.15 42.6198 59.89C37.1498 58.42 34.7398 54.66 35.1398 52.19C42.6798 50.48 51.9698 55.53 61.5098 64.64C65.1598 68.13 67.3198 71.45 69.9298 79.56Z" fill="#3D409A"/>
<path d="M21.6598 84.14C21.3598 84.88 20.3598 84.98 19.9498 84.3C16.6698 78.92 7.76981 64.71 19.6398 54.15C31.4298 43.65 44.4098 41.91 50.2898 48.15C52.2598 50.24 52.6398 53.48 50.9898 55.84C49.9298 57.34 47.9998 58.85 44.5398 59.89C36.0398 62.46 24.1998 77.87 21.6598 84.14Z" fill="#E36F7C"/>
<mask id="mask2_340_448" style="mask-type:luminance" maskUnits="userSpaceOnUse" x="13" y="44" width="40" height="41">
<path d="M21.6598 84.14C21.3598 84.88 20.3598 84.98 19.9498 84.3C16.6698 78.92 7.76981 64.71 19.6398 54.15C31.4298 43.65 44.4098 41.91 50.2898 48.15C52.2598 50.24 52.6398 53.48 50.9898 55.84C49.9298 57.34 47.9998 58.85 44.5398 59.89C36.0398 62.46 24.1998 77.87 21.6598 84.14Z" fill="white"/>
</mask>
<g mask="url(#mask2_340_448)">
<path d="M19.5998 49.8399C19.4998 47.5099 17.6298 45.6399 15.2998 45.5399C16.1698 48.0999 17.0298 48.9599 19.5998 49.8399Z" fill="#FDCE83"/>
<path d="M14.8898 54.54C14.0198 51.97 13.1598 51.11 10.5898 50.24C10.6898 52.57 12.5598 54.44 14.8898 54.54Z" fill="#FDCE83"/>
<path d="M19.5998 50.24C17.0298 51.11 16.1698 51.97 15.2998 54.54C17.6298 54.44 19.4898 52.57 19.5998 50.24Z" fill="#FDCE83"/>
<path d="M10.5898 49.8399C13.1598 48.9699 14.0198 48.1099 14.8898 45.5399C12.5598 45.6399 10.6898 47.5099 10.5898 49.8399Z" fill="#FDCE83"/>
<path d="M19.6299 45.53C20.4999 48.1 21.3599 48.96 23.9299 49.83C23.8199 47.51 21.9599 45.64 19.6299 45.53Z" fill="#FDCE83"/>
<path d="M23.9299 50.24C21.3599 51.11 20.4999 51.97 19.6299 54.54C21.9599 54.44 23.8199 52.57 23.9299 50.24Z" fill="#FDCE83"/>
<path d="M28.6701 54.54C27.8001 51.97 26.9401 51.11 24.3701 50.24C24.4701 52.57 26.3401 54.44 28.6701 54.54Z" fill="#FDCE83"/>
<path d="M28.6701 45.53C26.3401 45.63 24.4701 47.5 24.3701 49.83C26.9301 48.96 27.8001 48.1 28.6701 45.53Z" fill="#FDCE83"/>
<path d="M37.7102 49.8399C37.6102 47.5099 35.7402 45.6399 33.4102 45.5399C34.2802 48.0999 35.1402 48.9599 37.7102 49.8399Z" fill="#FDCE83"/>
<path d="M32.9997 54.54C32.1297 51.97 31.2697 51.11 28.6997 50.24C28.7997 52.57 30.6697 54.44 32.9997 54.54Z" fill="#FDCE83"/>
<path d="M37.7102 50.24C35.1402 51.11 34.2802 51.97 33.4102 54.54C35.7402 54.44 37.6002 52.57 37.7102 50.24Z" fill="#FDCE83"/>
<path d="M28.6997 49.8399C31.2697 48.9699 32.1297 48.1099 32.9997 45.5399C30.6697 45.6399 28.7997 47.5099 28.6997 49.8399Z" fill="#FDCE83"/>
<path d="M37.7397 45.53C38.6097 48.1 39.4697 48.96 42.0397 49.83C41.9297 47.51 40.0697 45.64 37.7397 45.53Z" fill="#FDCE83"/>
<path d="M42.0397 50.24C39.4697 51.11 38.6097 51.97 37.7397 54.54C40.0697 54.44 41.9297 52.57 42.0397 50.24Z" fill="#FDCE83"/>
<path d="M46.78 54.54C45.91 51.97 45.05 51.11 42.48 50.24C42.58 52.57 44.45 54.44 46.78 54.54Z" fill="#FDCE83"/>
<path d="M46.78 45.53C44.45 45.63 42.58 47.5 42.48 49.83C45.05 48.96 45.91 48.1 46.78 45.53Z" fill="#FDCE83"/>
<path d="M55.82 49.8399C55.71 47.5099 53.85 45.6399 51.52 45.5399C52.39 48.0999 53.25 48.9599 55.82 49.8399Z" fill="#FDCE83"/>
<path d="M51.1101 54.54C50.2401 51.97 49.3801 51.11 46.8101 50.24C46.9101 52.57 48.7801 54.44 51.1101 54.54Z" fill="#FDCE83"/>
<path d="M55.82 50.24C53.25 51.11 52.39 51.97 51.52 54.54C53.85 54.44 55.71 52.57 55.82 50.24Z" fill="#FDCE83"/>
<path d="M46.8101 49.8399C49.3801 48.9699 50.2401 48.1099 51.1101 45.5399C48.7801 45.6399 46.9101 47.5099 46.8101 49.8399Z" fill="#FDCE83"/>
<path d="M10.7397 56.0599C11.6097 58.6299 12.4697 59.4899 15.0397 60.3599C14.9397 58.0299 13.0697 56.1699 10.7397 56.0599Z" fill="#FDCE83"/>
<path d="M10.7397 65.07C13.0697 64.97 14.9397 63.1 15.0397 60.77C12.4697 61.64 11.6097 62.5 10.7397 65.07Z" fill="#FDCE83"/>
<path d="M15.48 60.77C15.58 63.1 17.45 64.97 19.78 65.07C18.91 62.5 18.05 61.64 15.48 60.77Z" fill="#FDCE83"/>
<path d="M15.48 60.3599C18.05 59.4899 18.91 58.6299 19.78 56.0599C17.45 56.1699 15.59 58.0299 15.48 60.3599Z" fill="#FDCE83"/>
<path d="M24.52 56.0599C25.39 58.6299 26.25 59.4899 28.82 60.3599C28.72 58.0299 26.85 56.1699 24.52 56.0599Z" fill="#FDCE83"/>
<path d="M19.8101 60.77C19.9101 63.1 21.7801 64.97 24.1101 65.07C23.2401 62.5 22.3801 61.64 19.8101 60.77Z" fill="#FDCE83"/>
<path d="M24.52 65.07C26.85 64.97 28.72 63.1 28.82 60.77C26.25 61.64 25.39 62.5 24.52 65.07Z" fill="#FDCE83"/>
<path d="M19.8101 60.3599C22.3801 59.4899 23.2401 58.6299 24.1101 56.0599C21.7801 56.1699 19.9201 58.0299 19.8101 60.3599Z" fill="#FDCE83"/>
<path d="M28.8501 56.0599C29.7201 58.6299 30.5801 59.4899 33.1501 60.3599C33.0501 58.0299 31.1801 56.1699 28.8501 56.0599Z" fill="#FDCE83"/>
<path d="M28.8501 65.07C31.1801 64.97 33.0501 63.1 33.1501 60.77C30.5801 61.64 29.7201 62.5 28.8501 65.07Z" fill="#FDCE83"/>
<path d="M33.5898 60.77C33.6898 63.1 35.5598 64.97 37.8898 65.07C37.0198 62.5 36.1598 61.64 33.5898 60.77Z" fill="#FDCE83"/>
<path d="M33.5898 60.3599C36.1598 59.4899 37.0198 58.6299 37.8898 56.0599C35.5598 56.1699 33.6998 58.0299 33.5898 60.3599Z" fill="#FDCE83"/>
<path d="M42.6299 56.0599C43.4999 58.6299 44.3599 59.4899 46.9299 60.3599C46.8299 58.0299 44.9599 56.1699 42.6299 56.0599Z" fill="#FDCE83"/>
<path d="M37.9199 60.77C38.0199 63.1 39.8899 64.97 42.2199 65.07C41.3499 62.5 40.4899 61.64 37.9199 60.77Z" fill="#FDCE83"/>
<path d="M42.6299 65.07C44.9599 64.97 46.8299 63.1 46.9299 60.77C44.3599 61.64 43.4999 62.5 42.6299 65.07Z" fill="#FDCE83"/>
<path d="M37.9199 60.3599C40.4899 59.4899 41.3499 58.6299 42.2199 56.0599C39.8899 56.1699 38.0299 58.0299 37.9199 60.3599Z" fill="#FDCE83"/>
<path d="M46.96 56.0599C47.83 58.6299 48.69 59.4899 51.26 60.3599C51.16 58.0299 49.29 56.1699 46.96 56.0599Z" fill="#FDCE83"/>
<path d="M46.96 65.07C49.29 64.97 51.16 63.1 51.26 60.77C48.7 61.64 47.83 62.5 46.96 65.07Z" fill="#FDCE83"/>
<path d="M51.6997 60.77C51.7997 63.1 53.6697 64.97 55.9997 65.07C55.1297 62.5 54.2697 61.64 51.6997 60.77Z" fill="#FDCE83"/>
<path d="M51.6997 60.3599C54.2697 59.4899 55.1297 58.6299 55.9997 56.0599C53.6697 56.1699 51.7997 58.0299 51.6997 60.3599Z" fill="#FDCE83"/>
<path d="M19.5998 70.89C19.4998 68.56 17.6298 66.69 15.2998 66.59C16.1698 69.15 17.0298 70.02 19.5998 70.89Z" fill="#FDCE83"/>
<path d="M14.8898 75.6C14.0198 73.03 13.1598 72.17 10.5898 71.3C10.6898 73.63 12.5598 75.49 14.8898 75.6Z" fill="#FDCE83"/>
<path d="M19.5998 71.3C17.0298 72.17 16.1698 73.03 15.2998 75.6C17.6298 75.49 19.4898 73.63 19.5998 71.3Z" fill="#FDCE83"/>
<path d="M10.5898 70.89C13.1598 70.02 14.0198 69.16 14.8898 66.59C12.5598 66.69 10.6898 68.56 10.5898 70.89Z" fill="#FDCE83"/>
<path d="M19.6299 66.59C20.4999 69.16 21.3599 70.02 23.9299 70.89C23.8199 68.56 21.9599 66.69 19.6299 66.59Z" fill="#FDCE83"/>
<path d="M23.9299 71.3C21.3599 72.17 20.4999 73.03 19.6299 75.6C21.9599 75.49 23.8199 73.63 23.9299 71.3Z" fill="#FDCE83"/>
<path d="M28.6701 75.6C27.8001 73.03 26.9401 72.17 24.3701 71.3C24.4701 73.63 26.3401 75.49 28.6701 75.6Z" fill="#FDCE83"/>
<path d="M28.6701 66.59C26.3401 66.69 24.4701 68.56 24.3701 70.89C26.9301 70.02 27.8001 69.15 28.6701 66.59Z" fill="#FDCE83"/>
<path d="M37.7102 70.89C37.6102 68.56 35.7402 66.69 33.4102 66.59C34.2802 69.15 35.1402 70.02 37.7102 70.89Z" fill="#FDCE83"/>
<path d="M32.9997 75.6C32.1297 73.03 31.2697 72.17 28.6997 71.3C28.7997 73.63 30.6697 75.49 32.9997 75.6Z" fill="#FDCE83"/>
<path d="M37.7102 71.3C35.1402 72.17 34.2802 73.03 33.4102 75.6C35.7402 75.49 37.6002 73.63 37.7102 71.3Z" fill="#FDCE83"/>
<path d="M28.6997 70.89C31.2697 70.02 32.1297 69.16 32.9997 66.59C30.6697 66.69 28.7997 68.56 28.6997 70.89Z" fill="#FDCE83"/>
<path d="M37.7397 66.59C38.6097 69.16 39.4697 70.02 42.0397 70.89C41.9297 68.56 40.0697 66.69 37.7397 66.59Z" fill="#FDCE83"/>
<path d="M42.0397 71.3C39.4697 72.17 38.6097 73.03 37.7397 75.6C40.0697 75.49 41.9297 73.63 42.0397 71.3Z" fill="#FDCE83"/>
<path d="M46.78 75.6C45.91 73.03 45.05 72.17 42.48 71.3C42.58 73.63 44.45 75.49 46.78 75.6Z" fill="#FDCE83"/>
<path d="M46.78 66.59C44.45 66.69 42.58 68.56 42.48 70.89C45.05 70.02 45.91 69.15 46.78 66.59Z" fill="#FDCE83"/>
<path d="M55.82 70.89C55.71 68.56 53.85 66.69 51.52 66.59C52.39 69.15 53.25 70.02 55.82 70.89Z" fill="#FDCE83"/>
<path d="M51.1101 75.6C50.2401 73.03 49.3801 72.17 46.8101 71.3C46.9101 73.63 48.7801 75.49 51.1101 75.6Z" fill="#FDCE83"/>
<path d="M55.82 71.3C53.25 72.17 52.39 73.03 51.52 75.6C53.85 75.49 55.71 73.63 55.82 71.3Z" fill="#FDCE83"/>
<path d="M46.8101 70.89C49.3801 70.02 50.2401 69.16 51.1101 66.59C48.7801 66.69 46.9101 68.56 46.8101 70.89Z" fill="#FDCE83"/>
<path d="M10.7397 77.11C11.6097 79.68 12.4697 80.54 15.0397 81.41C14.9397 79.08 13.0697 77.22 10.7397 77.11Z" fill="#FDCE83"/>
<path d="M10.7397 86.1199C13.0697 86.0199 14.9397 84.1499 15.0397 81.8199C12.4697 82.6899 11.6097 83.5599 10.7397 86.1199Z" fill="#FDCE83"/>
<path d="M15.48 81.8199C15.58 84.1499 17.45 86.0199 19.78 86.1199C18.91 83.5599 18.05 82.6899 15.48 81.8199Z" fill="#FDCE83"/>
<path d="M15.48 81.41C18.05 80.54 18.91 79.68 19.78 77.11C17.45 77.22 15.59 79.08 15.48 81.41Z" fill="#FDCE83"/>
<path d="M24.52 77.11C25.39 79.68 26.25 80.54 28.82 81.41C28.72 79.08 26.85 77.22 24.52 77.11Z" fill="#FDCE83"/>
<path d="M19.8101 81.8199C19.9101 84.1499 21.7801 86.0199 24.1101 86.1199C23.2401 83.5599 22.3801 82.6899 19.8101 81.8199Z" fill="#FDCE83"/>
<path d="M24.52 86.1199C26.85 86.0199 28.72 84.1499 28.82 81.8199C26.25 82.6899 25.39 83.5599 24.52 86.1199Z" fill="#FDCE83"/>
<path d="M19.8101 81.41C22.3801 80.54 23.2401 79.68 24.1101 77.11C21.7801 77.22 19.9201 79.08 19.8101 81.41Z" fill="#FDCE83"/>
<path d="M28.8501 77.11C29.7201 79.68 30.5801 80.54 33.1501 81.41C33.0501 79.08 31.1801 77.22 28.8501 77.11Z" fill="#FDCE83"/>
<path d="M28.8501 86.1199C31.1801 86.0199 33.0501 84.1499 33.1501 81.8199C30.5801 82.6899 29.7201 83.5599 28.8501 86.1199Z" fill="#FDCE83"/>
<path d="M33.5898 81.8199C33.6898 84.1499 35.5598 86.0199 37.8898 86.1199C37.0198 83.5599 36.1598 82.6899 33.5898 81.8199Z" fill="#FDCE83"/>
<path d="M33.5898 81.41C36.1598 80.54 37.0198 79.68 37.8898 77.11C35.5598 77.22 33.6998 79.08 33.5898 81.41Z" fill="#FDCE83"/>
<path d="M42.6299 77.11C43.4999 79.68 44.3599 80.54 46.9299 81.41C46.8299 79.08 44.9599 77.22 42.6299 77.11Z" fill="#FDCE83"/>
<path d="M37.9199 81.8199C38.0199 84.1499 39.8899 86.0199 42.2199 86.1199C41.3499 83.5599 40.4899 82.6899 37.9199 81.8199Z" fill="#FDCE83"/>
<path d="M42.6299 86.1199C44.9599 86.0199 46.8299 84.1499 46.9299 81.8199C44.3599 82.6899 43.4999 83.5599 42.6299 86.1199Z" fill="#FDCE83"/>
<path d="M37.9199 81.41C40.4899 80.54 41.3499 79.68 42.2199 77.11C39.8899 77.22 38.0299 79.08 37.9199 81.41Z" fill="#FDCE83"/>
<path d="M46.96 77.11C47.83 79.68 48.69 80.54 51.26 81.41C51.16 79.08 49.29 77.22 46.96 77.11Z" fill="#FDCE83"/>
<path d="M46.96 86.1199C49.29 86.0199 51.16 84.1499 51.26 81.8199C48.7 82.6899 47.83 83.5599 46.96 86.1199Z" fill="#FDCE83"/>
<path d="M51.6997 81.8199C51.7997 84.1499 53.6697 86.0199 55.9997 86.1199C55.1297 83.5599 54.2697 82.6899 51.6997 81.8199Z" fill="#FDCE83"/>
<path d="M51.6997 81.41C54.2697 80.54 55.1297 79.68 55.9997 77.11C53.6697 77.22 51.7997 79.08 51.6997 81.41Z" fill="#FDCE83"/>
</g>
</g>
<defs>
<clipPath id="clip0_340_448">
<rect width="85" height="90" fill="white"/>
</clipPath>
</defs>
</svg>
