<svg width="63" height="86" viewBox="0 0 63 86" fill="none" xmlns="http://www.w3.org/2000/svg">
<g clip-path="url(#clip0_301_14602)">
<path d="M35.5399 80.77H51.7899C57.7899 80.77 62.6599 75.8999 62.6599 69.8999V36.57C62.6599 30.57 57.7899 25.7 51.7899 25.7H35.5399C29.5399 25.7 24.6699 30.57 24.6699 36.57V69.8999C24.6599 75.91 29.5299 80.77 35.5399 80.77Z" fill="#4DA6FF"/>
<path d="M22.7695 14.85C22.7695 7.00999 28.8095 0.619995 36.2195 0.619995C43.6395 0.619995 49.6695 7.00999 49.6695 14.85C49.6695 22.69 43.6295 29.08 36.2195 29.08C28.8095 29.08 22.7695 22.7 22.7695 14.85ZM25.2495 14.85C25.2495 21.25 30.1695 26.46 36.2195 26.46C42.2695 26.46 47.1895 21.25 47.1895 14.85C47.1895 8.44999 42.2695 3.24 36.2195 3.24C30.1695 3.24 25.2495 8.44999 25.2495 14.85Z" fill="#4B5BAB"/>
<path d="M19.8396 85.38H43.2596C51.2996 85.38 57.8096 78.86 57.8096 70.83V24.32C57.8096 16.28 51.2896 9.77002 43.2596 9.77002H19.8396C11.7996 9.77002 5.28955 16.29 5.28955 24.32V70.83C5.28955 78.87 11.7996 85.38 19.8396 85.38Z" fill="#473B78"/>
<path d="M14.8098 85.38H38.2198C46.2598 85.38 52.7698 78.86 52.7698 70.83V24.32C52.7698 16.28 46.2498 9.77002 38.2198 9.77002H14.8098C6.77977 9.77002 0.259766 16.28 0.259766 24.32V70.83C0.259766 78.87 6.77977 85.38 14.8098 85.38Z" fill="#4B5BAB"/>
<path d="M53.6798 25.7C54.2898 25.7 54.7998 25.19 54.7798 24.58C54.5698 19.94 53.3098 16.18 50.2698 13.73C45.1098 9.59004 38.3598 9.24004 38.0698 9.27004L38.2498 11.45C38.3098 11.45 44.6698 11.49 48.7998 15.36C50.8298 17.26 52.3998 20.63 52.5898 24.64C52.6098 25.22 53.0798 25.7 53.6798 25.7Z" fill="#19ACEC"/>
</g>
<defs>
<clipPath id="clip0_301_14602">
<rect width="62.4" height="84.76" fill="white" transform="translate(0.259766 0.619995)"/>
</clipPath>
</defs>
</svg>
