<svg width="60" height="126" viewBox="0 0 60 126" fill="none" xmlns="http://www.w3.org/2000/svg">
<g clip-path="url(#clip0_301_8223)">
<path d="M29.4803 94.465C26.3503 94.465 23.1103 90.895 20.8303 87.715C20.3703 87.065 20.2103 86.255 20.3903 85.495C20.5803 84.705 21.1103 84.025 21.8403 83.635C23.8303 82.585 24.8103 80.375 24.6603 77.2649C24.5503 74.8849 23.1403 71.735 21.6403 68.395C18.5903 61.585 15.1303 53.865 20.9003 48.8049C25.1603 45.0649 28.9303 44.905 31.3503 45.425C35.6003 46.345 38.5303 49.785 39.7503 52.465L39.8003 52.605C39.9203 53.025 42.6503 62.925 41.4503 73.645C40.2703 84.165 35.6903 92.855 30.5503 94.315C30.1903 94.415 29.8403 94.465 29.4803 94.465ZM29.2703 47.195C26.9403 47.195 24.5803 48.2349 22.2203 50.3049C17.5603 54.3849 20.5603 61.085 23.4703 67.565C25.0503 71.085 26.5303 74.4049 26.6603 77.1649C26.9103 82.4049 24.3303 84.575 22.7703 85.395C22.5503 85.515 22.3903 85.715 22.3303 85.945C22.2903 86.095 22.2903 86.315 22.4503 86.545C25.4203 90.705 28.2403 92.885 30.0003 92.385C33.7303 91.325 38.2803 83.945 39.4603 73.4149C40.5603 63.555 38.1403 54.125 37.8903 53.205C36.7703 50.795 34.1903 48.065 30.9203 47.365C30.3803 47.255 29.8303 47.195 29.2703 47.195Z" fill="#FF9166"/>
<path fill-rule="evenodd" clip-rule="evenodd" d="M59.2903 121.195H14.0103V84.085H56.3903L58.1203 106.215L59.2903 121.195Z" fill="#FF9166"/>
<path fill-rule="evenodd" clip-rule="evenodd" d="M59.2903 121.195H14.0103V106.215H58.1203L58.2603 108.035L58.5003 111.035L59.2903 121.195Z" fill="#E36956"/>
<path fill-rule="evenodd" clip-rule="evenodd" d="M14.0101 84.085V121.195H0.390137L4.48014 84.085L5.65014 84.105L5.64014 84.945C5.64014 85.325 5.94014 85.635 6.32014 85.635H7.40014C7.83014 85.635 8.17014 85.285 8.17014 84.865C8.17014 84.435 8.52014 84.095 8.94014 84.095H9.31014C9.74014 84.095 10.0801 84.445 10.0801 84.865V85.125C10.0801 85.845 10.6601 86.425 11.3801 86.425H11.8601C12.2901 86.425 12.6301 86.075 12.6301 85.655L12.6701 84.625C12.6701 84.355 12.8601 84.125 13.1301 84.085H14.0101Z" fill="#A3524A"/>
<path fill-rule="evenodd" clip-rule="evenodd" d="M54.8601 125.615H4.82014C2.38014 125.615 0.390137 123.635 0.390137 121.185H59.2901C59.2901 123.635 57.3101 125.615 54.8601 125.615Z" fill="#A3524A"/>
<path d="M6.27002 116.485H6.26002C5.85002 116.475 5.52002 116.135 5.52002 115.725L5.99002 90.1749C6.00002 89.7649 6.33002 89.4449 6.75002 89.4349C7.16002 89.4449 7.49002 89.7849 7.49002 90.1949L7.02002 115.745C7.01002 116.165 6.67002 116.485 6.27002 116.485Z" fill="#FF9166"/>
<path d="M58.5002 111.035H27.1602C26.3302 111.035 25.6602 110.365 25.6602 109.535C25.6602 108.705 26.3302 108.035 27.1602 108.035H58.2602L58.5002 111.035Z" fill="#FF9166"/>
<path d="M50.6504 116.855H37.6304C36.8004 116.855 36.1304 116.185 36.1304 115.355C36.1304 114.525 36.8004 113.855 37.6304 113.855H50.6504C51.4804 113.855 52.1504 114.525 52.1504 115.355C52.1504 116.185 51.4804 116.855 50.6504 116.855Z" fill="#FF9166"/>
<path d="M27.8303 91.9149L27.4303 83.6849C27.4003 83.1349 26.9103 82.7049 26.3803 82.7349C25.8303 82.7649 25.4003 83.2349 25.4303 83.7849L25.8303 92.0249C24.0703 92.5449 22.7803 94.1549 22.7803 96.0749C22.7803 98.4149 24.6803 100.315 27.0203 100.315C29.3603 100.315 31.2603 98.4149 31.2603 96.0749C31.2803 94.0149 29.7903 92.2949 27.8303 91.9149ZM27.0303 99.3249C25.2403 99.3249 23.7903 97.8649 23.7903 96.0849C23.7903 94.7049 24.6603 93.5249 25.8903 93.0649L26.0403 96.1349C26.0703 96.6749 26.5103 97.0849 27.0403 97.0849C27.0603 97.0849 27.0703 97.0849 27.0903 97.0849C27.6403 97.0549 28.0703 96.5849 28.0403 96.0349L27.8903 92.9649C29.2603 93.3449 30.2803 94.5849 30.2803 96.0849C30.2803 97.8649 28.8203 99.3249 27.0303 99.3249Z" fill="#964253"/>
<path d="M47.6104 91.9049L46.8304 83.1349C46.7804 82.5849 46.3104 82.1849 45.7504 82.2249C45.2004 82.2749 44.7904 82.7549 44.8404 83.3049L45.6104 92.0449C43.9004 92.5949 42.6504 94.1749 42.6504 96.0649C42.6504 98.4049 44.5504 100.305 46.8904 100.305C49.2304 100.305 51.1304 98.4049 51.1304 96.0649C51.1504 93.9849 49.6204 92.2449 47.6104 91.9049ZM46.9004 99.3249C45.1104 99.3249 43.6604 97.8649 43.6604 96.0849C43.6604 94.7149 44.5104 93.5549 45.7104 93.0749L45.9104 95.3249C45.9604 95.8449 46.3904 96.2349 46.9104 96.2349C46.9404 96.2349 46.9704 96.2349 47.0004 96.2349C47.5504 96.1849 47.9604 95.7049 47.9104 95.1549L47.7204 92.9649C49.1204 93.3249 50.1604 94.5849 50.1604 96.0949C50.1504 97.8649 48.6904 99.3249 46.9004 99.3249Z" fill="#964253"/>
<path d="M26.6704 84.775L26.1104 82.855C26.2804 82.805 43.3804 77.215 43.9204 39.755L44.9204 0.41501L46.9204 0.38501L45.9204 39.755C45.3504 78.875 27.4304 84.545 26.6704 84.775Z" fill="#964253"/>
</g>
<defs>
<clipPath id="clip0_301_8223">
<rect width="58.9" height="125.23" fill="white" transform="translate(0.390137 0.38501)"/>
</clipPath>
</defs>
</svg>
