<svg width="58" height="78" viewBox="0 0 58 78" fill="none" xmlns="http://www.w3.org/2000/svg">
<g clip-path="url(#clip0_301_804)">
<path d="M23.8598 73.5251H10.8798C4.87977 73.5251 0.00976562 68.6551 0.00976562 62.6451V34.0551C0.00976562 28.0551 4.87977 23.1851 10.8798 23.1851H23.8598C29.8598 23.1851 34.7298 28.0551 34.7298 34.0551V62.6451C34.7298 68.6551 29.8698 73.5251 23.8598 73.5251Z" fill="#4DA6FF"/>
<path d="M24.1696 26.285C17.3896 26.285 11.8696 20.445 11.8696 13.275C11.8696 6.10501 17.3896 0.265015 24.1696 0.265015C30.9496 0.265015 36.4696 6.10501 36.4696 13.275C36.4696 20.445 30.9496 26.285 24.1696 26.285ZM24.1696 2.66501C18.6396 2.66501 14.1396 7.42501 14.1396 13.275C14.1396 19.125 18.6396 23.885 24.1696 23.885C29.6996 23.885 34.1996 19.125 34.1996 13.275C34.1896 7.42501 29.6996 2.66501 24.1696 2.66501Z" fill="#4B5BAB"/>
<path d="M37.8899 77.735H18.9899C10.9499 77.735 4.43994 71.215 4.43994 63.185V23.185C4.43994 15.145 10.9599 8.63501 18.9899 8.63501H37.8799C45.9199 8.63501 52.4299 15.155 52.4299 23.185V63.185C52.4399 71.215 45.9299 77.735 37.8899 77.735Z" fill="#473B78"/>
<path d="M42.4796 77.735H23.5896C15.5496 77.735 9.03955 71.215 9.03955 63.185V23.185C9.03955 15.145 15.5596 8.63501 23.5896 8.63501H42.4796C50.5196 8.63501 57.0296 15.155 57.0296 23.185V63.185C57.0396 71.215 50.5196 77.735 42.4796 77.735Z" fill="#4B5BAB"/>
<path d="M8.21962 23.185C7.65962 23.185 7.18962 22.715 7.21962 22.155C7.40962 17.915 8.55962 14.475 11.3396 12.245C16.0596 8.45502 22.2196 8.14502 22.4896 8.16502L22.3196 10.155C22.2596 10.155 16.4496 10.195 12.6796 13.725C10.8196 15.465 9.38962 18.535 9.20962 22.205C9.18962 22.745 8.75962 23.185 8.21962 23.185Z" fill="#19ACEC"/>
</g>
<g style="transform: translate(9px, 9px)" clip-path="url(#clip0_301_814)">
<path d="M2.10025 65.6399C1.56025 65.6399 1.02025 65.4299 0.62025 65.0099C-0.16975 64.1899 -0.14975 62.8899 0.66025 62.0899C0.76025 61.9999 6.20025 56.5999 8.39025 49.1099C8.71025 48.0199 9.86025 47.3899 10.9502 47.7099C12.0402 48.0299 12.6702 49.1799 12.3503 50.2699C9.85025 58.8699 3.80025 64.7999 3.54025 65.0499C3.14025 65.4399 2.62025 65.6399 2.10025 65.6399Z" fill="#473B78"/>
<path d="M9.69011 55.91C9.27011 55.91 8.85011 55.85 8.43011 55.71C6.26011 55.02 5.06011 52.69 5.75011 50.52C10.1501 36.78 8.89011 4.97997 8.88011 4.65997C8.79011 2.37997 10.5601 0.459973 12.8301 0.359973C15.1201 0.259973 17.0301 2.03997 17.1301 4.30997C17.1901 5.66997 18.4601 37.89 13.6201 53.03C13.0601 54.79 11.4401 55.91 9.69011 55.91Z" fill="#4DA6FF"/>
</g>
<defs>
<clipPath id="clip0_301_804">
<rect width="57.03" height="77.47" fill="white" transform="translate(0.00976562 0.265015)"/>
</clipPath>
</defs>
</svg>
