<svg width="61" height="124" viewBox="0 0 61 124" fill="none" xmlns="http://www.w3.org/2000/svg">
<g clip-path="url(#clip0_301_759)">
<path d="M6.48969 100.76L4.67969 99.91L20.0297 68.8V72.69L6.48969 100.76Z" fill="#F2A65E"/>
<path d="M33.4997 107.13V118.16C33.4997 119.38 32.8397 120.48 31.7997 121.22C31.5597 121.4 31.2897 121.55 31.0097 121.68C30.2897 122.02 29.4597 122.22 28.5797 122.22H6.83967C6.74967 122.22 6.64967 122.22 6.54967 122.21C6.16967 122.19 5.79967 122.14 5.44967 122.05C5.41967 122.04 5.38967 122.04 5.35967 122.03C5.24967 122 5.12967 121.97 5.02967 121.93C4.80967 121.86 4.58967 121.77 4.38967 121.67C3.17967 121.1 2.28967 120.11 2.00967 118.96C1.97967 118.85 1.95967 118.73 1.93967 118.61C1.91967 118.46 1.90967 118.31 1.90967 118.15V107.12C1.90967 106.99 1.92967 106.86 1.95967 106.73C2.01967 106.43 2.16967 106.15 2.36967 105.9C2.84967 105.31 3.65967 104.93 4.56967 104.93H30.8397C32.3097 104.94 33.4997 105.93 33.4997 107.13Z" fill="#F2A65E"/>
<path d="M32.91 102.06V104.8L17.76 110.34L2.5 104.76V102.06C2.5 100.66 3.65 99.51 5.06 99.51H30.36C31.76 99.51 32.91 100.66 32.91 102.06Z" fill="#F2A65E"/>
<path d="M32.3897 109.23L28.7197 112.71L25.4197 109.56L27.9097 107.2L25.6897 108.04L24.7597 108.92L24.3497 108.54L23.3697 108.91L24.0997 109.56L21.2697 112.26L19.3497 110.43L18.3897 110.79L20.5997 112.9L17.7697 115.6L14.9397 112.9L16.3597 111.55L15.3997 111.19L14.2797 112.27L11.6897 109.8L9.61967 109.02L10.0897 109.56L7.25967 112.26L4.42967 109.56L6.36967 107.79L5.39967 107.42L3.75967 108.91L1.90967 107.18V108.44L3.08967 109.54L1.90967 110.66V111.94L3.75967 110.17L6.58967 112.87L3.29967 116.01L1.90967 114.7V115.97L2.62967 116.65L1.90967 117.34V118.13C1.90967 118.29 1.91967 118.44 1.93967 118.59L3.28967 117.29L6.12967 119.98L4.38967 121.65C4.58967 121.75 4.79967 121.83 5.02967 121.91C5.13967 121.95 5.24967 121.98 5.35967 122.01L6.80967 120.62L8.46967 122.2H9.81967L7.48967 119.98L10.7597 116.85L13.5897 119.55L10.8197 122.2H12.1597L14.2597 120.2L16.3597 122.2H17.6997L14.9297 119.55L17.7597 116.85L21.0397 119.98L18.6997 122.2H20.0497L21.7097 120.62L23.3597 122.2H24.6997L22.3797 119.98L25.2097 117.29L28.0297 119.98L25.6897 122.2H27.0397L28.6897 120.62L29.9497 121.82C30.2497 121.68 30.5197 121.51 30.7597 121.32L29.3597 119.98L32.1997 117.29L32.3897 117.47V115.84L32.2097 116.02L29.3897 113.33L32.3897 110.49V109.23ZM6.80967 119.37L3.96967 116.68L7.24967 113.54L10.0797 116.24L6.80967 119.37ZM7.92967 112.9L10.7497 110.2L13.5797 112.9L10.7497 115.6L7.92967 112.9ZM14.2597 118.94L11.4297 116.24L14.2597 113.54L17.0897 116.24L14.2597 118.94ZM21.6997 119.37L18.4197 116.24L21.2397 113.54L24.5297 116.68L21.6997 119.37ZM21.9197 112.9L24.7497 110.2L28.0497 113.35L25.2097 116.04L21.9197 112.9ZM31.5297 116.68L28.6997 119.37L25.8797 116.68L28.7097 113.99L31.5297 116.68Z" fill="#835429"/>
<path d="M29.0097 102H26.9097L57.8397 0.560059L60.1097 0.590059L29.0097 102Z" fill="#F2A65E"/>
<path d="M28.2399 123.44H7.1699C7.0499 123.44 6.9199 123.44 6.7899 123.43C6.3199 123.4 5.8499 123.33 5.3899 123.22C4.4999 122.99 3.6799 122.59 2.9999 122.07C2.6699 121.81 2.3799 121.54 2.1399 121.26C1.8499 120.93 1.5999 120.55 1.3999 120.14C1.1899 119.73 1.0499 119.28 0.959902 118.82C0.919902 118.53 0.899902 118.26 0.899902 118V107.41C0.899902 107.27 0.909902 107.15 0.919902 107.02C1.0199 106.37 1.2499 105.84 1.5899 105.39C1.7199 105.22 1.8599 105.06 2.0199 104.91L2.6999 104.29L17.7199 109.94L32.7499 104.28L33.4299 104.93C33.9999 105.48 34.3699 106.16 34.4899 106.92C34.5099 107.13 34.5199 107.26 34.5199 107.4V117.99C34.5199 119.56 33.7399 121.05 32.3799 122.09C32.0499 122.33 31.7199 122.54 31.3699 122.71C30.4099 123.19 29.3299 123.44 28.2399 123.44ZM3.8999 107.97V118C3.8999 118.11 3.9099 118.21 3.9299 118.31C3.9599 118.47 4.0099 118.64 4.0999 118.8C4.1899 118.98 4.2899 119.14 4.4199 119.28C4.5499 119.43 4.6799 119.56 4.8499 119.69C5.1999 119.96 5.6499 120.18 6.1399 120.31C6.3999 120.37 6.6799 120.42 6.9399 120.43L7.1799 120.44H28.2499C28.8799 120.44 29.4999 120.3 30.0299 120.03C30.2199 119.93 30.4099 119.82 30.5799 119.69C30.9199 119.43 31.5199 118.85 31.5199 117.99V107.96L17.6399 113.19L17.1199 112.93L3.8999 107.97Z" fill="#FFE478"/>
<path d="M34.0099 104.43C34.0099 104.71 33.8399 104.95 33.5799 105.05L33.4899 105.08L17.7299 110.83L1.93992 105.08L1.84992 105.05C1.58992 104.96 1.41992 104.71 1.41992 104.43C1.41992 104.05 1.72992 103.77 2.07992 103.77C2.14992 103.77 2.22992 103.78 2.29992 103.81L2.57992 103.91L17.7399 109.43L32.8799 103.91L33.1499 103.81C33.5599 103.66 34.0099 103.98 34.0099 104.43Z" fill="#835429"/>
<path d="M18.6001 111.56H16.8201C16.3101 111.56 15.8901 111.15 15.8901 110.63V109.34C15.8901 108.83 16.3001 108.41 16.8201 108.41H18.6001C19.1101 108.41 19.5301 108.82 19.5301 109.34V110.63C19.5201 111.15 19.1101 111.56 18.6001 111.56Z" fill="white"/>
</g>
<defs>
<clipPath id="clip0_301_759">
<rect width="59.21" height="122.88" fill="white" transform="translate(0.899902 0.560059)"/>
</clipPath>
</defs>
</svg>
