<svg width="18" height="66" viewBox="0 0 18 66" fill="none" xmlns="http://www.w3.org/2000/svg">
<g clip-path="url(#clip0_301_814)">
<path d="M2.10025 65.6399C1.56025 65.6399 1.02025 65.4299 0.62025 65.0099C-0.16975 64.1899 -0.14975 62.8899 0.66025 62.0899C0.76025 61.9999 6.20025 56.5999 8.39025 49.1099C8.71025 48.0199 9.86025 47.3899 10.9502 47.7099C12.0402 48.0299 12.6702 49.1799 12.3503 50.2699C9.85025 58.8699 3.80025 64.7999 3.54025 65.0499C3.14025 65.4399 2.62025 65.6399 2.10025 65.6399Z" fill="#473B78"/>
<path d="M9.69011 55.91C9.27011 55.91 8.85011 55.85 8.43011 55.71C6.26011 55.02 5.06011 52.69 5.75011 50.52C10.1501 36.78 8.89011 4.97997 8.88011 4.65997C8.79011 2.37997 10.5601 0.459973 12.8301 0.359973C15.1201 0.259973 17.0301 2.03997 17.1301 4.30997C17.1901 5.66997 18.4601 37.89 13.6201 53.03C13.0601 54.79 11.4401 55.91 9.69011 55.91Z" fill="#4DA6FF"/>
</g>
<defs>
<clipPath id="clip0_301_814">
<rect width="17.28" height="65.28" fill="white" transform="translate(0.0400391 0.359985)"/>
</clipPath>
</defs>
</svg>
