<svg width="47" height="114" viewBox="0 0 47 114" fill="none" xmlns="http://www.w3.org/2000/svg">
<g clip-path="url(#clip0_301_14571)">
<path d="M23.1601 88.415C19.1201 87.265 15.5101 80.435 14.5901 72.155C13.6501 63.715 15.7901 55.935 15.8901 55.605L15.9301 55.495C16.8901 53.395 19.1901 50.675 22.5401 49.955C24.4401 49.545 27.4001 49.675 30.7601 52.615C35.3001 56.595 32.5801 62.665 30.1801 68.015C29.0001 70.645 27.8901 73.125 27.8001 74.995C27.6801 77.445 28.4501 79.175 30.0201 80.005C30.6001 80.315 31.0101 80.845 31.1601 81.465C31.3001 82.065 31.1801 82.705 30.8101 83.215C29.0201 85.715 26.4701 88.525 24.0101 88.525C23.7201 88.535 23.4401 88.495 23.1601 88.415ZM22.8601 51.505C20.2901 52.055 18.2601 54.205 17.3801 56.095C17.1901 56.815 15.2801 64.235 16.1501 71.985C17.0801 80.265 20.6601 86.075 23.5901 86.905C24.9701 87.295 27.1901 85.575 29.5201 82.305C29.6501 82.125 29.6401 81.945 29.6201 81.835C29.5801 81.655 29.4501 81.495 29.2801 81.405C28.0601 80.755 26.0301 79.055 26.2201 74.935C26.3201 72.765 27.4901 70.155 28.7301 67.385C31.0101 62.285 33.3701 57.015 29.7101 53.805C27.8601 52.175 26.0001 51.365 24.1701 51.365C23.7301 51.365 23.3001 51.405 22.8601 51.505Z" fill="#FF9166"/>
<path fill-rule="evenodd" clip-rule="evenodd" d="M0.560059 109.555H36.1701V80.365H2.84006L1.48006 97.775L0.560059 109.555Z" fill="#FF9166"/>
<path fill-rule="evenodd" clip-rule="evenodd" d="M0.560059 109.555H36.1701V97.775H1.48006L1.37006 99.205L1.18006 101.565L0.560059 109.555Z" fill="#E36956"/>
<path fill-rule="evenodd" clip-rule="evenodd" d="M36.1699 80.365V109.555H46.8799L43.6699 80.365L42.7499 80.375L42.7599 81.035C42.7599 81.335 42.5199 81.585 42.2199 81.585H41.3699C41.0299 81.585 40.7599 81.315 40.7599 80.975C40.7599 80.635 40.4899 80.365 40.1499 80.365H39.8599C39.5199 80.365 39.2499 80.635 39.2499 80.975V81.185C39.2499 81.755 38.7899 82.205 38.2299 82.205H37.8499C37.5099 82.205 37.2399 81.935 37.2499 81.595L37.2199 80.785C37.2199 80.575 37.0699 80.395 36.8599 80.365H36.1699Z" fill="#A3524A"/>
<path fill-rule="evenodd" clip-rule="evenodd" d="M4.04006 113.035H43.4001C45.3201 113.035 46.8801 111.475 46.8801 109.555H0.560059C0.560059 111.475 2.12006 113.035 4.04006 113.035Z" fill="#A3524A"/>
<path d="M42.2603 105.855H42.2703C42.6003 105.845 42.8503 105.585 42.8503 105.255L42.4803 85.155C42.4703 84.825 42.2103 84.575 41.8803 84.575C41.5503 84.585 41.3003 84.8449 41.3003 85.1749L41.6703 105.275C41.6803 105.605 41.9403 105.855 42.2603 105.855Z" fill="#FF9166"/>
<path d="M1.18018 101.565H25.8302C26.4802 101.565 27.0102 101.035 27.0102 100.385C27.0102 99.735 26.4802 99.205 25.8302 99.205H1.37018L1.18018 101.565Z" fill="#FF9166"/>
<path d="M7.36018 106.145H17.6002C18.2502 106.145 18.7802 105.615 18.7802 104.965C18.7802 104.315 18.2502 103.785 17.6002 103.785H7.36018C6.71018 103.785 6.18018 104.315 6.18018 104.965C6.18018 105.615 6.70018 106.145 7.36018 106.145Z" fill="#FF9166"/>
<path d="M22.5898 89.8049C22.5898 91.6449 24.0898 93.145 25.9298 93.145C27.7698 93.145 29.2698 91.6449 29.2698 89.8049C29.2698 88.2949 28.2498 87.025 26.8698 86.615L27.1798 80.1349C27.1998 79.7049 26.8698 79.3349 26.4298 79.3149C26.0098 79.2949 25.6298 79.6249 25.6098 80.0649L25.2998 86.535C23.7598 86.825 22.5898 88.1849 22.5898 89.8049ZM23.3798 89.8049C23.3798 88.6349 24.1798 87.645 25.2598 87.355L25.1398 89.765C25.1198 90.195 25.4498 90.565 25.8898 90.585C25.8998 90.585 25.9198 90.585 25.9298 90.585C26.3498 90.585 26.6898 90.255 26.7098 89.835L26.8298 87.4149C27.7898 87.7849 28.4798 88.705 28.4798 89.795C28.4798 91.205 27.3398 92.3449 25.9298 92.3449C24.5198 92.3449 23.3798 91.2149 23.3798 89.8049Z" fill="#964253"/>
<path d="M6.95996 89.805C6.95996 91.645 8.45996 93.145 10.3 93.145C12.14 93.145 13.64 91.645 13.64 89.805C13.64 88.315 12.66 87.075 11.31 86.645L11.92 79.775C11.96 79.345 11.64 78.965 11.21 78.925C10.76 78.895 10.4 79.205 10.36 79.635L9.74996 86.525C8.16996 86.795 6.95996 88.155 6.95996 89.805ZM7.74996 89.805C7.74996 88.615 8.56996 87.625 9.66996 87.345L9.51996 89.065C9.47996 89.495 9.79996 89.875 10.23 89.915C10.25 89.915 10.28 89.915 10.3 89.915C10.7 89.915 11.05 89.605 11.08 89.195L11.24 87.425C12.18 87.805 12.85 88.715 12.85 89.795C12.85 91.205 11.71 92.345 10.3 92.345C8.88996 92.345 7.74996 91.215 7.74996 89.805Z" fill="#964253"/>
<path d="M26.2201 80.915L26.6601 79.405C26.5201 79.365 13.0801 74.975 12.6501 45.505L12.9801 0.984966L11.4101 0.964966L11.0801 45.505C11.5201 76.275 25.6201 80.735 26.2201 80.915Z" fill="#964253"/>
</g>
<defs>
<clipPath id="clip0_301_14571">
<rect width="46.32" height="112.07" fill="white" transform="translate(0.560059 0.964966)"/>
</clipPath>
</defs>
</svg>
