<svg width="68" height="92" viewBox="0 0 68 92" fill="none" xmlns="http://www.w3.org/2000/svg">
<g clip-path="url(#clip0_301_8254)">
<path d="M30.3 86.64H11.16C5.16004 86.64 0.290039 81.78 0.290039 75.77V38.25C0.290039 32.25 5.16004 27.38 11.16 27.38H30.3C36.3 27.38 41.17 32.25 41.17 38.25V75.77C41.17 81.78 36.3 86.64 30.3 86.64Z" fill="#4DA6FF"/>
<path d="M28.73 31.03C20.75 31.03 14.25 24.16 14.25 15.71C14.25 7.26003 20.75 0.400024 28.73 0.400024C36.71 0.400024 43.21 7.27003 43.21 15.71C43.21 24.15 36.71 31.03 28.73 31.03ZM28.73 3.23002C22.22 3.23002 16.93 8.83002 16.93 15.72C16.93 22.61 22.23 28.21 28.73 28.21C35.23 28.21 40.53 22.61 40.53 15.72C40.54 8.83002 35.24 3.23002 28.73 3.23002Z" fill="#4B5BAB"/>
<path d="M47.4603 91.6H20.0603C12.0203 91.6 5.51025 85.08 5.51025 77.05V24.8C5.51025 16.76 12.0303 10.25 20.0603 10.25H47.4603C55.5003 10.25 62.0103 16.77 62.0103 24.8V77.05C62.0203 85.09 55.5003 91.6 47.4603 91.6Z" fill="#473B78"/>
<path d="M52.8802 91.6H25.4802C17.4402 91.6 10.9302 85.08 10.9302 77.05V24.8C10.9302 16.76 17.4502 10.25 25.4802 10.25H52.8802C60.9202 10.25 67.4302 16.77 67.4302 24.8V77.05C67.4302 85.09 60.9102 91.6 52.8802 91.6Z" fill="#4B5BAB"/>
<path d="M9.95998 27.38C9.29998 27.38 8.74998 26.83 8.77998 26.17C8.99998 21.18 10.36 17.13 13.63 14.5C19.19 10.04 26.44 9.67002 26.76 9.70002L26.56 12.05C26.49 12.05 19.65 12.1 15.21 16.25C13.02 18.3 11.33 21.92 11.13 26.23C11.1 26.87 10.59 27.38 9.95998 27.38Z" fill="#19ACEC"/>
</g>
<g style="transform: translate(10px, 10px)" clip-path="url(#clip0_301_8264)">
<path d="M2.86003 77.425C2.23003 77.425 1.59003 77.175 1.12003 76.685C0.190028 75.725 0.210028 74.185 1.17003 73.245C1.28003 73.135 7.69003 66.785 10.27 57.965C10.65 56.675 12 55.945 13.28 56.315C14.57 56.695 15.31 58.045 14.93 59.325C11.98 69.455 4.85003 76.445 4.55003 76.735C4.08003 77.195 3.47003 77.425 2.86003 77.425Z" fill="#473B78"/>
<path d="M11.7901 65.975C11.3001 65.975 10.8001 65.905 10.3101 65.745C7.75011 64.925 6.34011 62.195 7.16011 59.635C12.3301 43.445 10.8501 6.01499 10.8401 5.63499C10.7301 2.95499 12.8101 0.694988 15.4901 0.574988C18.1801 0.454988 20.4401 2.54499 20.5501 5.23499C20.6201 6.84499 22.1101 44.765 16.4201 62.595C15.7601 64.655 13.8501 65.975 11.7901 65.975Z" fill="#4DA6FF"/>
</g>
<defs>
<clipPath id="clip0_301_8254">
<rect width="67.14" height="91.2" fill="white" transform="translate(0.290039 0.400024)"/>
</clipPath>
</defs>
</svg>
