<svg width="51" height="98" viewBox="0 0 51 98" fill="none" xmlns="http://www.w3.org/2000/svg">
<g clip-path="url(#clip0_301_5484)">
<path d="M25.2599 71.465C22.6099 71.465 19.8599 68.445 17.9299 65.745C17.5399 65.195 17.3999 64.515 17.5599 63.865C17.7199 63.195 18.1699 62.615 18.7899 62.295C20.4799 61.405 21.3099 59.535 21.1799 56.895C21.0899 54.885 19.8899 52.205 18.6199 49.375C16.0399 43.605 13.1099 37.065 17.9899 32.775C21.5999 29.605 24.7999 29.465 26.8399 29.905C30.4399 30.685 32.9299 33.605 33.9599 35.875L33.9999 35.995C34.0999 36.345 36.4099 44.735 35.3999 53.835C34.3999 62.755 30.5199 70.115 26.1599 71.355C25.8699 71.425 25.5699 71.465 25.2599 71.465ZM25.0899 31.405C23.1199 31.405 21.1099 32.285 19.1199 34.035C15.1699 37.495 17.7199 43.175 20.1699 48.665C21.5099 51.645 22.7699 54.465 22.8799 56.795C23.0899 61.235 20.9099 63.075 19.5899 63.775C19.3999 63.875 19.2699 64.045 19.2199 64.245C19.1899 64.375 19.1799 64.565 19.3199 64.755C21.8299 68.275 24.2299 70.125 25.7199 69.705C28.8799 68.815 32.7399 62.555 33.7399 53.625C34.6699 45.265 32.6199 37.275 32.4099 36.495C31.4599 34.455 29.2799 32.145 26.5099 31.545C26.0299 31.455 25.5599 31.405 25.0899 31.405Z" fill="#FF9166"/>
<path fill-rule="evenodd" clip-rule="evenodd" d="M50.5299 94.125H12.1499V62.665H48.0699L49.5399 81.425L50.5299 94.125Z" fill="#FF9166"/>
<path fill-rule="evenodd" clip-rule="evenodd" d="M50.5299 94.125H12.1499V81.425H49.5399L49.6599 82.965L49.8599 85.515L50.5299 94.125Z" fill="#E36956"/>
<path fill-rule="evenodd" clip-rule="evenodd" d="M12.1499 62.665V94.115H0.609863L4.07986 62.665L5.06986 62.685L5.05986 63.395C5.05986 63.715 5.31986 63.985 5.63986 63.985H6.55986C6.91986 63.985 7.21986 63.695 7.21986 63.325C7.21986 62.965 7.50986 62.665 7.87986 62.665H8.18986C8.54986 62.665 8.84986 62.955 8.84986 63.325V63.545C8.84986 64.155 9.33986 64.645 9.94986 64.645H10.3599C10.7199 64.645 11.0099 64.345 11.0099 63.985L11.0499 63.115C11.0499 62.885 11.2199 62.695 11.4399 62.665H12.1499Z" fill="#A3524A"/>
<path fill-rule="evenodd" clip-rule="evenodd" d="M46.7799 97.865H4.35986C2.28986 97.865 0.609863 96.185 0.609863 94.115H50.5199C50.5299 96.185 48.8499 97.865 46.7799 97.865Z" fill="#A3524A"/>
<path d="M5.58973 90.1351H5.57973C5.22973 90.1251 4.94973 89.8351 4.95973 89.4851L5.35973 67.8251C5.36973 67.4751 5.64973 67.2051 6.00973 67.2051C6.35973 67.2151 6.63973 67.5051 6.62973 67.8551L6.22973 89.5151C6.21973 89.8651 5.93973 90.1351 5.58973 90.1351Z" fill="#FF9166"/>
<path d="M49.8598 85.5151H23.2998C22.5998 85.5151 22.0298 84.9451 22.0298 84.2451C22.0298 83.5451 22.5998 82.9751 23.2998 82.9751H49.6598L49.8598 85.5151Z" fill="#FF9166"/>
<path d="M43.2099 90.445H32.1699C31.4699 90.445 30.8999 89.875 30.8999 89.175C30.8999 88.475 31.4699 87.905 32.1699 87.905H43.2099C43.9099 87.905 44.4799 88.475 44.4799 89.175C44.4799 89.875 43.9099 90.445 43.2099 90.445Z" fill="#FF9166"/>
<path d="M23.8698 69.3151L23.5298 62.3451C23.5098 61.8751 23.0898 61.5151 22.6398 61.5351C22.1698 61.5551 21.8098 61.9551 21.8298 62.4251L22.1698 69.4051C20.6798 69.8451 19.5898 71.2151 19.5898 72.8351C19.5898 74.8151 21.1998 76.4351 23.1898 76.4351C25.1798 76.4351 26.7898 74.8251 26.7898 72.8351C26.7898 71.0851 25.5298 69.6251 23.8698 69.3151ZM23.1898 75.5851C21.6698 75.5851 20.4398 74.3551 20.4398 72.8351C20.4398 71.6651 21.1798 70.6651 22.2198 70.2751L22.3498 72.8751C22.3698 73.3251 22.7498 73.6851 23.1998 73.6851C23.2098 73.6851 23.2298 73.6851 23.2398 73.6851C23.7098 73.6651 24.0698 73.2651 24.0498 72.7951L23.9198 70.1951C25.0898 70.5151 25.9498 71.5751 25.9498 72.8351C25.9398 74.3551 24.7098 75.5851 23.1898 75.5851Z" fill="#964253"/>
<path d="M40.6297 69.305L39.9697 61.875C39.9297 61.405 39.5297 61.075 39.0497 61.105C38.5797 61.145 38.2397 61.555 38.2797 62.025L38.9397 69.435C37.4897 69.895 36.4297 71.245 36.4297 72.845C36.4297 74.825 38.0397 76.445 40.0297 76.445C42.0097 76.445 43.6297 74.835 43.6297 72.845C43.6297 71.065 42.3297 69.595 40.6297 69.305ZM40.0297 75.585C38.5097 75.585 37.2797 74.355 37.2797 72.835C37.2797 71.675 37.9997 70.685 39.0197 70.285L39.1897 72.185C39.2297 72.625 39.5997 72.955 40.0297 72.955C40.0497 72.955 40.0797 72.955 40.1097 72.955C40.5797 72.915 40.9197 72.505 40.8797 72.035L40.7197 70.175C41.9097 70.475 42.7897 71.545 42.7897 72.825C42.7797 74.355 41.5497 75.585 40.0297 75.585Z" fill="#964253"/>
<path d="M22.8797 63.255L22.4097 61.625C22.5597 61.585 37.0497 56.845 37.5097 25.095L37.1397 0.15501L38.8397 0.13501L39.1997 25.095C38.7197 58.255 23.5297 63.065 22.8797 63.255Z" fill="#964253"/>
</g>
<defs>
<clipPath id="clip0_301_5484">
<rect width="49.92" height="97.73" fill="white" transform="translate(0.609863 0.13501)"/>
</clipPath>
</defs>
</svg>
