<svg width="68" height="92" viewBox="0 0 68 92" fill="none" xmlns="http://www.w3.org/2000/svg">
<g clip-path="url(#clip0_301_11374)">
<path d="M30.4499 86.64H11.3099C5.30994 86.64 0.439941 81.78 0.439941 75.77V38.25C0.439941 32.25 5.30994 27.38 11.3099 27.38H30.4499C36.4499 27.38 41.3199 32.25 41.3199 38.25V75.77C41.3199 81.78 36.4499 86.64 30.4499 86.64Z" fill="#4DA6FF"/>
<path d="M28.8799 31.03C20.8999 31.03 14.3999 24.16 14.3999 15.71C14.3999 7.26003 20.8999 0.400024 28.8799 0.400024C36.8599 0.400024 43.3599 7.27003 43.3599 15.71C43.3599 24.15 36.8599 31.03 28.8799 31.03ZM28.8799 3.23002C22.3699 3.23002 17.0799 8.83002 17.0799 15.72C17.0799 22.61 22.3799 28.21 28.8799 28.21C35.3799 28.21 40.6799 22.61 40.6799 15.72C40.6899 8.83002 35.3899 3.23002 28.8799 3.23002Z" fill="#4B5BAB"/>
<path d="M47.6102 91.6H20.2102C12.1702 91.6 5.66016 85.08 5.66016 77.05V24.8C5.66016 16.76 12.1802 10.25 20.2102 10.25H47.6102C55.6502 10.25 62.1602 16.77 62.1602 24.8V77.05C62.1702 85.09 55.6502 91.6 47.6102 91.6Z" fill="#473B78"/>
<path d="M53.0301 91.6H25.6301C17.5901 91.6 11.0801 85.08 11.0801 77.05V24.8C11.0801 16.76 17.6001 10.25 25.6301 10.25H53.0301C61.0701 10.25 67.5801 16.77 67.5801 24.8V77.05C67.5801 85.09 61.0601 91.6 53.0301 91.6Z" fill="#4B5BAB"/>
<path d="M10.1099 27.38C9.44988 27.38 8.89988 26.83 8.92988 26.17C9.14988 21.18 10.5099 17.13 13.7799 14.5C19.3399 10.04 26.5899 9.67002 26.9099 9.70002L26.7099 12.05C26.6399 12.05 19.7999 12.1 15.3599 16.25C13.1699 18.3 11.4799 21.92 11.2799 26.23C11.2499 26.87 10.7399 27.38 10.1099 27.38Z" fill="#19ACEC"/>
</g>
<defs>
<clipPath id="clip0_301_11374">
<rect width="67.14" height="91.2" fill="white" transform="translate(0.439941 0.400024)"/>
</clipPath>
</defs>
</svg>
