<svg width="21" height="78" viewBox="0 0 21 78" fill="none" xmlns="http://www.w3.org/2000/svg">
<g clip-path="url(#clip0_301_8264)">
<path d="M2.86003 77.425C2.23003 77.425 1.59003 77.175 1.12003 76.685C0.190028 75.725 0.210028 74.185 1.17003 73.245C1.28003 73.135 7.69003 66.785 10.27 57.965C10.65 56.675 12 55.945 13.28 56.315C14.57 56.695 15.31 58.045 14.93 59.325C11.98 69.455 4.85003 76.445 4.55003 76.735C4.08003 77.195 3.47003 77.425 2.86003 77.425Z" fill="#473B78"/>
<path d="M11.7901 65.975C11.3001 65.975 10.8001 65.905 10.3101 65.745C7.75011 64.925 6.34011 62.195 7.16011 59.635C12.3301 43.445 10.8501 6.01499 10.8401 5.63499C10.7301 2.95499 12.8101 0.694988 15.4901 0.574988C18.1801 0.454988 20.4401 2.54499 20.5501 5.23499C20.6201 6.84499 22.1101 44.765 16.4201 62.595C15.7601 64.655 13.8501 65.975 11.7901 65.975Z" fill="#4DA6FF"/>
</g>
<defs>
<clipPath id="clip0_301_8264">
<rect width="20.34" height="76.85" fill="white" transform="translate(0.430176 0.574951)"/>
</clipPath>
</defs>
</svg>
