<svg width="63" height="86" viewBox="0 0 63 86" fill="none" xmlns="http://www.w3.org/2000/svg">
<g clip-path="url(#clip0_301_5515)">
<path d="M27.6498 80.77H11.3998C5.39979 80.77 0.529785 75.91 0.529785 69.8999V36.57C0.529785 30.57 5.39979 25.7 11.3998 25.7H27.6498C33.6498 25.7 38.5198 30.57 38.5198 36.57V69.8999C38.5198 75.91 33.6598 80.77 27.6498 80.77Z" fill="#4DA6FF"/>
<path d="M26.9598 29.09C19.5398 29.09 13.5098 22.7 13.5098 14.86C13.5098 7.01999 19.5498 0.619995 26.9598 0.619995C34.3698 0.619995 40.4098 7.00999 40.4098 14.85C40.4098 22.69 34.3798 29.09 26.9598 29.09ZM26.9598 3.25C20.9098 3.25 15.9898 8.45999 15.9898 14.86C15.9898 21.26 20.9098 26.47 26.9598 26.47C33.0098 26.47 37.9298 21.25 37.9298 14.85C37.9298 8.44999 33.0098 3.25 26.9598 3.25Z" fill="#4B5BAB"/>
<path d="M43.3499 85.38H19.9299C11.8899 85.38 5.37988 78.86 5.37988 70.83V24.32C5.37988 16.28 11.8999 9.77002 19.9299 9.77002H43.3399C51.3799 9.77002 57.8899 16.29 57.8899 24.32V70.83C57.8999 78.87 51.3799 85.38 43.3499 85.38Z" fill="#473B78"/>
<path d="M48.3697 85.38H24.9597C16.9197 85.38 10.4097 78.86 10.4097 70.83V24.32C10.4097 16.28 16.9297 9.77002 24.9597 9.77002H48.3697C56.4097 9.77002 62.9197 16.29 62.9197 24.32V70.83C62.9297 78.87 56.4097 85.38 48.3697 85.38Z" fill="#4B5BAB"/>
<path d="M9.50975 25.7C8.89975 25.7 8.38975 25.19 8.40975 24.58C8.61975 19.94 9.87975 16.18 12.9197 13.73C18.0797 9.59004 24.8297 9.24004 25.1197 9.27004L24.9397 11.45C24.8797 11.45 18.5197 11.49 14.3897 15.36C12.3597 17.26 10.7897 20.63 10.5997 24.64C10.5797 25.22 10.1097 25.7 9.50975 25.7Z" fill="#19ACEC"/>
</g>
<defs>
<clipPath id="clip0_301_5515">
<rect width="62.4" height="84.76" fill="white" transform="translate(0.529785 0.619995)"/>
</clipPath>
</defs>
</svg>
