<svg width="21" height="74" viewBox="0 0 21 74" fill="none" xmlns="http://www.w3.org/2000/svg">
<g clip-path="url(#clip0_301_5525)">
<path d="M3.24027 73.595C2.64027 73.595 2.03027 73.355 1.58027 72.895C0.690273 71.975 0.710273 70.515 1.63027 69.625C1.74027 69.515 7.84027 63.465 10.3003 55.075C10.6603 53.845 11.9403 53.145 13.1703 53.505C14.4003 53.865 15.1003 55.145 14.7403 56.375C11.9303 66.005 5.14027 72.665 4.86027 72.945C4.41027 73.375 3.83027 73.595 3.24027 73.595Z" fill="#473B78"/>
<path d="M11.7502 62.695C11.2802 62.695 10.8102 62.625 10.3402 62.475C7.90021 61.695 6.56021 59.095 7.34021 56.655C12.2602 41.235 10.8602 5.58498 10.8402 5.22498C10.7402 2.67498 12.7202 0.514984 15.2802 0.404984C17.8502 0.294984 19.9902 2.28498 20.1002 4.83498C20.1602 6.36498 21.5902 42.485 16.1702 59.465C15.5302 61.435 13.7102 62.695 11.7502 62.695Z" fill="#4DA6FF"/>
</g>
<defs>
<clipPath id="clip0_301_5525">
<rect width="19.38" height="73.19" fill="white" transform="translate(0.930176 0.405029)"/>
</clipPath>
</defs>
</svg>
