<svg width="55" height="114" viewBox="0 0 55 114" fill="none" xmlns="http://www.w3.org/2000/svg">
<g clip-path="url(#clip0_301_14539)">
<path d="M48.96 90.425L50.77 89.575L42.54 73.245V77.135L48.96 90.425Z" fill="#F2A65E"/>
<path d="M21.96 96.795V107.825C21.96 109.045 22.62 110.145 23.66 110.885C23.9 111.065 24.17 111.215 24.45 111.345C25.17 111.685 26 111.885 26.88 111.885H48.61C48.7 111.885 48.8 111.885 48.9 111.875C49.28 111.855 49.65 111.805 50 111.715C50.03 111.705 50.06 111.705 50.09 111.695C50.2 111.665 50.32 111.635 50.42 111.595C50.64 111.525 50.86 111.435 51.06 111.335C52.27 110.765 53.16 109.775 53.44 108.625C53.47 108.515 53.49 108.395 53.51 108.275C53.53 108.125 53.54 107.975 53.54 107.815V96.795C53.54 96.665 53.52 96.535 53.49 96.405C53.43 96.105 53.28 95.825 53.08 95.575C52.6 94.985 51.79 94.605 50.88 94.605H24.61C23.15 94.605 21.96 95.595 21.96 96.795Z" fill="#F2A65E"/>
<path d="M22.54 91.7251V94.465L37.69 100.005L52.95 94.425V91.7251C52.95 90.3251 51.8 89.175 50.39 89.175H25.09C23.69 89.175 22.54 90.3251 22.54 91.7251Z" fill="#F2A65E"/>
<path d="M23.0703 100.165L26.0703 103.005L23.2503 105.695L23.0703 105.515V107.145L23.2603 106.965L26.1003 109.655L24.7003 110.995C24.9503 111.175 25.2203 111.345 25.5103 111.495L26.7703 110.295L28.4203 111.875H29.7703L27.4303 109.655L30.2503 106.965L33.0803 109.655L30.7603 111.875H32.1003L33.7503 110.295L35.4103 111.875H36.7603L34.4203 109.655L37.7003 106.525L40.5303 109.225L37.7603 111.875H39.1003L41.2003 109.875L43.3003 111.875H44.6403L41.8703 109.225L44.7003 106.525L47.9703 109.655L45.6403 111.875H46.9903L48.6503 110.295L50.1003 111.685C50.2103 111.655 50.3303 111.625 50.4303 111.585C50.6503 111.515 50.8703 111.425 51.0703 111.325L49.3303 109.655L52.1703 106.965L53.5203 108.265C53.5403 108.115 53.5503 107.965 53.5503 107.805V107.015L52.8303 106.325L53.5503 105.645V104.375L52.1603 105.685L48.8703 102.545L51.7003 99.845L53.5503 101.615V100.335L52.3703 99.215L53.5503 98.115V96.855L51.7003 98.585L50.0603 97.095L49.0903 97.465L51.0303 99.235L48.2003 101.935L45.3703 99.235L45.8603 98.685L43.7903 99.465L41.2003 101.935L40.0803 100.855L39.1203 101.215L40.5403 102.565L37.7103 105.265L34.8803 102.565L37.0903 100.455L36.1303 100.095L34.2103 101.925L31.3803 99.225L32.1103 98.575L31.1303 98.205L30.7203 98.585L29.7903 97.705L27.5703 96.865L30.0603 99.225L26.7603 102.375L23.0703 98.895V100.165ZM45.3703 105.905L48.2003 103.205L51.4803 106.345L48.6403 109.035L45.3703 105.905ZM44.7003 105.255L41.8703 102.555L44.7003 99.855L47.5203 102.555L44.7003 105.255ZM38.3703 105.905L41.2003 103.205L44.0303 105.905L41.2003 108.605L38.3703 105.905ZM30.9203 106.345L34.2103 103.205L37.0303 105.905L33.7503 109.035L30.9203 106.345ZM30.2503 105.705L27.4103 103.015L30.7103 99.865L33.5403 102.565L30.2503 105.705ZM26.7403 103.645L29.5703 106.335L26.7503 109.025L23.9203 106.335L26.7403 103.645Z" fill="#835429"/>
<path d="M26.4402 91.665H28.5502L3.2302 0.89502L0.950195 0.92502L26.4402 91.665Z" fill="#F2A65E"/>
<path d="M24.0904 112.385C23.7404 112.205 23.4004 112.005 23.0804 111.765C21.7204 110.725 20.9404 109.235 20.9404 107.665V97.0751C20.9404 96.9351 20.9504 96.8051 20.9704 96.5951C21.0904 95.8451 21.4504 95.1551 22.0304 94.6051L22.7104 93.9551L37.7404 99.6151L52.7604 93.9651L53.4404 94.5851C53.6004 94.7351 53.7404 94.8951 53.8704 95.0651C54.2104 95.5151 54.4404 96.0451 54.5404 96.6951C54.5504 96.8251 54.5604 96.9451 54.5604 97.0851V107.675C54.5604 107.935 54.5404 108.205 54.4904 108.485C54.4104 108.945 54.2604 109.395 54.0504 109.805C53.8504 110.215 53.5904 110.595 53.3104 110.925C53.0704 111.205 52.7904 111.475 52.4504 111.735C51.7704 112.255 50.9504 112.655 50.0604 112.885C49.6004 112.995 49.1304 113.065 48.6604 113.095C48.5404 113.095 48.4104 113.105 48.2804 113.105H27.2204C26.1204 113.105 25.0404 112.855 24.0904 112.385ZM38.3404 102.605L37.8204 102.865L23.9404 97.6351V107.665C23.9404 108.515 24.5404 109.105 24.8804 109.365C25.0504 109.495 25.2404 109.605 25.4304 109.705C25.9604 109.975 26.5804 110.115 27.2104 110.115H48.2804L48.5204 110.105C48.7804 110.095 49.0604 110.045 49.3204 109.985C49.8004 109.855 50.2504 109.645 50.6104 109.365C50.7804 109.235 50.9104 109.105 51.0404 108.955C51.1704 108.815 51.2704 108.655 51.3604 108.475C51.4404 108.305 51.5004 108.135 51.5304 107.985C51.5504 107.885 51.5604 107.775 51.5604 107.675V97.6251L38.3404 102.605Z" fill="#FFE478"/>
<path d="M21.4502 94.0951C21.4502 94.3751 21.6202 94.6151 21.8802 94.7151L21.9702 94.7451L37.7302 100.495L53.5202 94.7451L53.6102 94.7151C53.8702 94.6251 54.0402 94.3751 54.0402 94.0951C54.0402 93.7151 53.7302 93.4351 53.3802 93.4351C53.3102 93.4351 53.2302 93.4451 53.1602 93.4751L52.8802 93.5751L37.7402 99.0951L22.6002 93.5751L22.3302 93.4751C21.9002 93.3251 21.4502 93.6451 21.4502 94.0951Z" fill="#835429"/>
<path d="M36.8602 101.225H38.6402C39.1502 101.225 39.5702 100.815 39.5702 100.295V99.0051C39.5702 98.4951 39.1602 98.0751 38.6402 98.0751H36.8602C36.3502 98.0751 35.9302 98.4851 35.9302 99.0051V100.295C35.9302 100.815 36.3502 101.225 36.8602 101.225Z" fill="white"/>
</g>
<defs>
<clipPath id="clip0_301_14539">
<rect width="53.61" height="112.21" fill="white" transform="translate(0.950195 0.89502)"/>
</clipPath>
</defs>
</svg>
