<svg width="74" height="126" viewBox="0 0 74 126" fill="none" xmlns="http://www.w3.org/2000/svg">
<g clip-path="url(#clip0_301_8209)">
<path d="M5.87982 102.64L4.06982 101.78L16.4698 75.6299V79.5199L5.87982 102.64Z" fill="#F2A65E"/>
<path d="M32.8898 109V120.03C32.8898 121.25 32.2298 122.35 31.1898 123.09C30.9498 123.27 30.6798 123.42 30.3998 123.55C29.6798 123.89 28.8498 124.09 27.9698 124.09H6.2298C6.1398 124.09 6.0398 124.09 5.93981 124.08C5.5598 124.06 5.1898 124.01 4.8398 123.92C4.8098 123.91 4.7798 123.91 4.7498 123.9C4.6398 123.87 4.5198 123.84 4.4198 123.8C4.1998 123.73 3.9798 123.64 3.7798 123.54C2.5698 122.97 1.6798 121.98 1.3998 120.83C1.3698 120.72 1.3498 120.6 1.3298 120.48C1.3098 120.33 1.2998 120.18 1.2998 120.02V108.99C1.2998 108.86 1.3198 108.73 1.3498 108.6C1.4098 108.3 1.5598 108.02 1.7598 107.77C2.2398 107.18 3.0498 106.8 3.9598 106.8H30.2298C31.6998 106.81 32.8898 107.8 32.8898 109Z" fill="#F2A65E"/>
<path d="M32.3001 103.94V106.68L17.1501 112.22L1.89014 106.63V103.93C1.89014 102.53 3.04014 101.38 4.45014 101.38H29.7501C31.1501 101.38 32.3001 102.53 32.3001 103.94Z" fill="#F2A65E"/>
<path d="M31.7798 111.1L28.1098 114.58L24.8098 111.43L27.2998 109.07L25.0798 109.91L24.1498 110.79L23.7398 110.41L22.7598 110.78L23.4898 111.43L20.6598 114.13L18.7398 112.3L17.7798 112.66L19.9898 114.77L17.1598 117.47L14.3298 114.77L15.7498 113.42L14.7898 113.06L13.6698 114.14L11.0798 111.67L9.00982 110.89L9.49982 111.44L6.66982 114.14L3.83982 111.44L5.77982 109.67L4.80982 109.3L3.16982 110.79L1.31982 109.06V110.32L2.49982 111.42L1.31982 112.54V113.82L3.16982 112.05L5.99982 114.75L2.70982 117.89L1.31982 116.58V117.85L2.03982 118.53L1.31982 119.22V120.01C1.31982 120.17 1.32982 120.32 1.34982 120.47L2.69982 119.17L5.53982 121.86L3.79982 123.53C3.99982 123.63 4.20982 123.71 4.43982 123.79C4.54982 123.83 4.65982 123.86 4.76982 123.89L6.21982 122.5L7.87982 124.08H9.22982L6.89982 121.86L10.1698 118.73L12.9998 121.43L10.2298 124.08H11.5698L13.6698 122.08L15.7698 124.08H17.1098L14.3398 121.43L17.1698 118.73L20.4498 121.86L18.1098 124.08H19.4598L21.1198 122.5L22.7698 124.08H24.1098L21.7898 121.86L24.6198 119.17L27.4398 121.86L25.0998 124.08H26.4498L28.0998 122.5L29.3598 123.7C29.6598 123.56 29.9298 123.39 30.1698 123.2L28.7698 121.86L31.6098 119.17L31.7998 119.35V117.72L31.6198 117.9L28.7998 115.21L31.7998 112.37V111.1H31.7798ZM6.19982 121.24L3.35982 118.55L6.63982 115.41L9.46982 118.11L6.19982 121.24ZM7.31982 114.77L10.1398 112.07L12.9698 114.77L10.1398 117.47L7.31982 114.77ZM13.6498 120.81L10.8198 118.11L13.6498 115.41L16.4798 118.11L13.6498 120.81ZM21.0898 121.24L17.8098 118.11L20.6298 115.41L23.9198 118.55L21.0898 121.24ZM21.3098 114.77L24.1398 112.07L27.4398 115.22L24.5998 117.91L21.3098 114.77ZM30.9198 118.55L28.0898 121.24L25.2698 118.55L28.0998 115.86L30.9198 118.55Z" fill="#835429"/>
<path d="M28.3998 103.87H26.2998L71.1098 0.689941L73.3898 0.719941L28.3998 103.87Z" fill="#F2A65E"/>
<path d="M27.63 125.31H6.56004C6.44004 125.31 6.31004 125.31 6.18004 125.3C5.71004 125.27 5.24004 125.2 4.78004 125.09C3.89004 124.86 3.07004 124.46 2.39004 123.94C2.06004 123.68 1.77004 123.41 1.53004 123.13C1.24004 122.8 0.990039 122.42 0.790039 122.01C0.580039 121.6 0.440039 121.15 0.350039 120.69C0.310039 120.4 0.290039 120.14 0.290039 119.87V109.29C0.290039 109.15 0.300039 109.03 0.310039 108.9C0.410039 108.25 0.640039 107.72 0.980039 107.27C1.11004 107.1 1.25004 106.94 1.41004 106.79L2.09004 106.17L17.11 111.82L32.14 106.16L32.82 106.81C33.39 107.36 33.76 108.04 33.88 108.8C33.9 109.01 33.91 109.14 33.91 109.28V119.87C33.91 121.44 33.13 122.93 31.77 123.97C31.44 124.21 31.11 124.42 30.76 124.59C29.8 125.06 28.72 125.31 27.63 125.31ZM3.29004 109.84V119.87C3.29004 119.98 3.30004 120.08 3.32004 120.18C3.35004 120.34 3.40004 120.51 3.49004 120.67C3.58004 120.85 3.68004 121.01 3.81004 121.15C3.94004 121.3 4.07004 121.43 4.24004 121.56C4.59004 121.83 5.04004 122.05 5.53004 122.18C5.79004 122.24 6.07004 122.29 6.33004 122.3L6.57004 122.31H27.64C28.27 122.31 28.89 122.17 29.42 121.9C29.61 121.8 29.8 121.69 29.97 121.56C30.31 121.3 30.91 120.72 30.91 119.86V109.83L17.03 115.06L16.51 114.8L3.29004 109.84Z" fill="#FFE478"/>
<path d="M33.4001 106.3C33.4001 106.58 33.2301 106.82 32.9701 106.92L32.8801 106.95L17.1201 112.7L1.33006 106.95L1.24006 106.92C0.980059 106.83 0.810059 106.58 0.810059 106.3C0.810059 105.92 1.12006 105.64 1.47006 105.64C1.54006 105.64 1.62006 105.65 1.69006 105.68L1.97006 105.78L17.1301 111.3L32.2701 105.78L32.5401 105.68C32.9501 105.53 33.4001 105.85 33.4001 106.3Z" fill="#835429"/>
<path d="M17.9903 113.43H16.2103C15.7003 113.43 15.2803 113.02 15.2803 112.5V111.21C15.2803 110.7 15.6903 110.28 16.2103 110.28H17.9903C18.5003 110.28 18.9203 110.69 18.9203 111.21V112.5C18.9103 113.02 18.5003 113.43 17.9903 113.43Z" fill="white"/>
</g>
<defs>
<clipPath id="clip0_301_8209">
<rect width="73.1" height="124.62" fill="white" transform="translate(0.290039 0.689941)"/>
</clipPath>
</defs>
</svg>
