<svg width="9" height="18" viewBox="0 0 9 18" fill="none" xmlns="http://www.w3.org/2000/svg">
<g clip-path="url(#clip0_222_1437)">
<path d="M2.38002 6.66496C2.38002 6.66496 2.42002 5.75496 1.35002 4.61496C0.0400234 3.21496 1.26002 1.05496 2.99002 0.904956C5.05002 0.734956 8.41002 1.55496 8.80002 6.05496C9.16002 10.185 8.53002 13.405 4.98002 16.595C4.07002 17.415 2.68002 17.595 1.68002 16.895C1.42002 16.705 1.18002 16.465 0.990023 16.145L0.880023 15.915C0.880023 15.915 5.66002 15.105 6.45002 9.40496C7.19002 4.10496 3.82002 0.514956 2.22002 2.11496C1.71002 2.62496 1.42002 3.42496 2.23002 4.43496C2.92002 5.29496 3.01002 5.80496 3.11002 7.35496C3.21002 8.49496 2.38002 6.66496 2.38002 6.66496Z" fill="#BC503A"/>
<path d="M1.67 9.54496C2.59232 9.54496 3.34 8.79727 3.34 7.87496C3.34 6.95264 2.59232 6.20496 1.67 6.20496C0.747684 6.20496 0 6.95264 0 7.87496C0 8.79727 0.747684 9.54496 1.67 9.54496Z" fill="#F26548"/>
</g>
<defs>
<clipPath id="clip0_222_1437">
<rect width="8.89" height="16.45" fill="white" transform="translate(0 0.88501)"/>
</clipPath>
</defs>
</svg>
