<svg width="46" height="50" viewBox="0 0 46 50" fill="none" xmlns="http://www.w3.org/2000/svg">
<g clip-path="url(#clip0_301_10978)">
<path d="M0.930176 42.44V49.46H45.4402V47.27C45.3502 43.95 44.0602 38.27 40.2702 34.08C39.6002 33.33 38.8402 32.62 37.9902 32C35.4002 30.05 31.9902 28.76 27.5402 28.76H27.5302C25.8102 28.76 24.7002 28.68 24.7002 28.68C24.7002 28.68 24.7002 28.06 24.7002 27.02C24.7002 24.28 24.6902 18.61 24.6902 13.36V9.76004C24.6802 6.20004 24.6802 3.28004 24.6802 2.32004C24.6802 1.96004 24.5702 1.63004 24.3802 1.35004C24.0702 0.860039 23.5202 0.540039 22.8902 0.540039H2.75018C1.75018 0.540039 0.960176 1.33004 0.950176 2.32004V10.89L0.940176 14.46V29.22L0.930176 42.44Z" fill="#9DAADA"/>
<path d="M17.77 27.13H20.55C21.41 27.13 22.11 26.43 22.11 25.57V21.56C22.11 20.7 21.41 20 20.55 20H17.77C16.91 20 16.21 20.7 16.21 21.56V25.57C16.21 26.43 16.91 27.13 17.77 27.13Z" fill="#BAEEE6"/>
<path d="M17.1902 11.6701H20.6302C21.4502 11.6701 22.1102 11.0101 22.1102 10.1901V5.37014C22.1102 4.21014 20.8402 3.50014 19.8502 4.10014L16.4102 6.19014C15.9702 6.46014 15.7002 6.94014 15.7002 7.46014V10.1901C15.7102 11.0101 16.3702 11.6701 17.1902 11.6701Z" fill="#BAEEE6"/>
<path d="M41.7902 44.1601C41.7902 44.1601 42.0202 39.8901 39.7002 37.7401C39.2902 37.3601 38.6602 37.3601 38.2102 37.6901L32.4002 42.0201C32.1102 42.2401 31.9302 42.5901 31.9302 42.9701C31.9302 43.6301 32.4602 44.1601 33.1202 44.1601H41.7902Z" fill="#BAEEE6"/>
<path d="M11.0703 49.46H16.5903L25.6103 43.61L29.4203 49.46H33.0003L28.1203 41.97L40.2703 34.08C39.6003 33.33 38.8403 32.62 37.9903 32L11.0703 49.46Z" fill="#7381CC"/>
<path d="M0.939941 14.46L22.3999 0.540039H16.8999L0.949941 10.89L0.939941 14.46Z" fill="#7381CC"/>
<path d="M0.930176 42.44V46.02L27.5302 28.76C25.8102 28.76 24.7002 28.68 24.7002 28.68C24.7002 28.68 24.7002 28.06 24.7002 27.02L13.5302 34.27L7.21018 25.03L17.2002 18.36H17.3002V18.3L24.6902 13.36V9.76001L16.2902 15.36H0.940176V18.36H11.8002L0.940176 25.61V29.22L4.71018 26.7L11.0202 35.9L0.930176 42.44Z" fill="#7381CC"/>
</g>
<defs>
<clipPath id="clip0_301_10978">
<rect width="44.51" height="48.92" fill="white" transform="translate(0.930176 0.540039)"/>
</clipPath>
</defs>
</svg>
