<svg width="19" height="54" viewBox="0 0 19 54" fill="none" xmlns="http://www.w3.org/2000/svg">
<g clip-path="url(#clip0_301_5161)">
<path d="M3.54996 27.6501C3.55996 26.9501 3.55996 26.2501 3.55996 25.5801C3.55996 25.0601 3.54996 24.5601 3.52996 24.0601C3.50996 23.6301 3.47996 23.2001 3.44996 22.7901C2.41996 9.95007 0.549961 2.93007 0.549961 2.93007L11.41 0.320068C13.36 7.16007 14.56 11.8701 14.86 20.0901C14.88 20.5201 14.94 20.9401 14.96 21.3701C15.02 22.3601 15.06 23.3501 15.06 24.3301V33.6901C15.06 35.1001 16.28 37.1101 17.11 38.2501C17.47 38.7401 17.72 39.2301 17.89 39.6701C18.07 40.1601 18.16 40.5901 18.21 40.9301C18.27 41.3601 18.25 41.6401 18.25 41.6401L18.81 53.6801L1.48996 53.4401V48.8201C1.48996 48.4501 1.46996 48.1501 1.36996 47.9201C1.13996 47.4201 0.789961 47.8101 0.789961 47.8101L0.209961 41.9001L2.50996 39.5201C3.49996 38.4701 3.45996 36.4001 3.47996 35.1901C3.48996 34.7501 3.48996 34.2501 3.49996 33.6901C3.50996 33.2901 3.50996 32.8601 3.50996 32.4201C3.51996 31.3301 3.53996 30.1401 3.53996 28.9301C3.54996 28.5001 3.54996 28.0701 3.54996 27.6501Z" fill="#9DAADA"/>
<path d="M3.43994 22.7801L14.8499 20.0801C14.8899 20.5101 14.9299 20.9301 14.9499 21.3601L3.52994 24.0601C3.50994 23.6301 3.47994 23.2001 3.43994 22.7801Z" fill="#7381CC"/>
<path d="M3.5498 28.9301C3.5498 28.5001 3.5598 28.0801 3.5598 27.6601L15.0598 27.0701V28.3401L3.5498 28.9301Z" fill="#7381CC"/>
<path d="M3.5 33.6902C3.51 33.2902 3.51 32.8602 3.51 32.4202H8.99C9.34 32.4202 9.63 32.7102 9.63 33.0602C9.63 33.4102 9.34 33.7002 8.99 33.7002H3.5V33.6902Z" fill="#7381CC"/>
<path d="M1.37012 47.9202L17.8801 39.6702C18.0601 40.1602 18.1501 40.5902 18.2001 40.9302L1.49012 49.2902V48.8202C1.49012 48.4502 1.44012 48.1602 1.37012 47.9202Z" fill="#7381CC"/>
<path d="M1.48975 51.3801V50.1101H18.6397L18.6897 51.3801H1.48975Z" fill="#7381CC"/>
<path d="M11.31 15.9302H12.12C13 15.9302 13.72 16.6502 13.72 17.5302C13.72 18.4102 13 19.1302 12.12 19.1302H11.31C10.43 19.1302 9.70996 18.4102 9.70996 17.5302C9.70996 16.6502 10.43 15.9302 11.31 15.9302Z" fill="#BAEEE6"/>
</g>
<defs>
<clipPath id="clip0_301_5161">
<rect width="18.59" height="53.36" fill="white" transform="translate(0.209961 0.320068)"/>
</clipPath>
</defs>
</svg>
