<svg width="136" height="252" viewBox="0 0 136 252" fill="none" xmlns="http://www.w3.org/2000/svg">
<g clip-path="url(#clip0_301_8174)">
<path d="M129.24 151.5H100.07V155.5H129.24V151.5Z" fill="#97AEB7"/>
<path d="M129.24 84.23H100.07V89.23H129.24V84.23Z" fill="#567C8A"/>
<path d="M116.65 180.65H112.65V236.79H116.65V180.65Z" fill="#97AEB7"/>
<path d="M114.65 184.56L98.0703 156.69V11.1699H102.07V155.59L114.65 176.74L127.24 155.59V11.1699H131.24V156.69L114.65 184.56Z" fill="#97AEB7"/>
<path d="M129.95 12.58H99.3602C96.2602 12.58 93.7402 10.07 93.7402 6.95998V6.59998C93.7402 3.49998 96.2502 0.97998 99.3602 0.97998H129.95C133.05 0.97998 135.57 3.48998 135.57 6.59998V6.95998C135.56 10.06 133.05 12.58 129.95 12.58Z" fill="#0E1F2B"/>
<path d="M120.5 228.88C120.17 225.94 117.68 223.65 114.65 223.65C111.62 223.65 109.13 225.94 108.8 228.88H108.76V251.02H120.53V228.88H120.5Z" fill="#0E1F2B"/>
<path d="M18.1727 146.439L17.1055 150.294L45.2195 158.076L46.2867 154.221L18.1727 146.439Z" fill="#97AEB7"/>
<path d="M36.1206 81.5992L34.7866 86.4182L62.9007 94.2008L64.2347 89.3818L36.1206 81.5992Z" fill="#567C8A"/>
<path d="M22.5265 177.885L7.54834 231.993L11.4035 233.06L26.3817 178.952L22.5265 177.885Z" fill="#97AEB7"/>
<path d="M23.3999 182.19L14.8599 150.9L53.6799 10.6599L57.5399 11.7299L19.0099 150.91L25.4899 174.65L43.2599 157.63L81.7899 18.4399L85.6499 19.5099L46.8199 159.75L23.3999 182.19Z" fill="#97AEB7"/>
<path d="M84.0298 20.5199L54.5498 12.3599C51.5598 11.5299 49.8098 8.43986 50.6398 5.44986L50.7398 5.09986C51.5698 2.10986 54.6598 0.359863 57.6498 1.18986L87.1298 9.34986C90.1198 10.1799 91.8698 13.2699 91.0398 16.2599L90.9398 16.6099C90.1098 19.5999 87.0198 21.3499 84.0298 20.5199Z" fill="#0E1F2B"/>
<path d="M17.22 226.47C17.69 223.55 15.9 220.68 12.98 219.87C10.06 219.06 7.05 220.6 5.95 223.35L5.91 223.34L0 244.67L11.35 247.81L17.26 226.47H17.22Z" fill="#0E1F2B"/>
</g>
<defs>
<clipPath id="clip0_301_8174">
<rect width="135.56" height="250.04" fill="white" transform="translate(0 0.97998)"/>
</clipPath>
</defs>
</svg>
