<svg width="30" height="86" viewBox="0 0 30 86" fill="none" xmlns="http://www.w3.org/2000/svg">
<g clip-path="url(#clip0_301_14228)">
<path d="M15.72 85.2551C15.37 85.2551 15.02 85.2051 14.68 85.0951C13.08 84.6051 12.06 82.9151 12.3 81.1751L12.41 79.9851C12.05 80.1051 11.67 80.1751 11.28 80.1751C10.77 80.1751 10.28 80.0651 9.81002 79.8451C8.34002 79.1651 7.55002 77.4351 7.95002 75.7751L8.34002 70.5551L8.23002 70.5451L8.48002 67.2551L8.49002 65.3751L6.24002 67.8651C5.60002 68.6251 4.64002 69.0651 3.62002 69.0651C2.80002 69.0651 2.01002 68.7751 1.38002 68.2451C0.670023 67.6451 0.240022 66.8151 0.160022 65.8951C0.0800225 64.9751 0.370022 64.0751 0.970022 63.3751L5.70002 58.0851L12.19 52.4351C12.18 52.2551 12.09 51.1051 12.09 51.1051L11.98 49.5451C10.29 27.7951 8.57002 12.1451 7.02002 4.20512C6.50002 3.86512 6.17002 3.28512 6.17002 2.63512C6.17002 1.59512 7.02002 0.745117 8.06002 0.745117H19.81C20.85 0.745117 21.7 1.59512 21.7 2.63512C21.7 3.26512 21.39 3.81512 20.92 4.16512C23.25 17.5451 24.74 32.2851 25.35 47.9751L25.4 49.5051C25.42 50.1551 25.45 50.8051 25.47 51.4551C25.51 51.5151 25.56 51.5951 25.62 51.6951C26.06 52.4051 26.99 53.8951 27.76 56.1951C27.94 56.7151 28.12 57.3151 28.29 57.9651C28.84 60.1351 29.13 62.4951 29.15 64.9851L29.17 68.9251L29.2 77.5851C29.02 79.4651 27.54 80.8151 25.75 80.8151C25.63 80.8151 25.51 80.8051 25.39 80.7951C24.85 80.7451 24.26 80.4951 23.73 80.1651C23.22 81.0951 22.33 81.9551 20.94 81.9551C20.33 81.9551 19.76 81.7851 19.26 81.4751L19.15 82.2551C18.92 83.9651 17.45 85.2551 15.72 85.2551Z" fill="#49535C"/>
<path d="M28.2102 77.1451C28.0802 78.4951 26.8702 79.4951 25.5102 79.3551C24.7702 79.2851 23.7102 78.5751 23.3102 78.0051C23.3102 78.0051 22.9002 80.5051 20.9602 80.5051C19.7202 80.5051 18.7902 79.5251 18.6302 78.3851L18.1802 81.6751C17.9802 83.1551 16.4902 84.1551 14.9902 83.6951C13.8202 83.3351 13.1402 82.0951 13.3102 80.8751L13.6902 76.9151C13.3002 78.3651 11.6802 79.1651 10.2602 78.5051C9.15023 77.9951 8.65023 76.6851 8.97023 75.5051L9.50023 68.4651L9.52023 65.4051L10.8402 54.5351L10.9902 54.4051L12.0702 53.4651L13.2702 52.4251C13.2602 52.3951 13.2102 51.7351 13.1202 50.5951C13.0902 50.1451 13.0502 49.6351 13.0102 49.0451C12.2702 39.6151 10.1102 13.0551 7.74023 2.19507H19.6602C21.9402 14.8151 23.6802 29.8251 24.3702 47.5751C24.3802 48.0151 24.4002 48.4551 24.4102 48.8951C24.4402 49.6751 24.4702 50.4551 24.4902 51.2451C24.5002 51.4951 25.7902 52.9951 26.8302 56.0751C27.0102 56.5951 27.1802 57.1651 27.3402 57.7751C27.8202 59.6551 28.1702 61.9851 28.1702 64.8151L28.2102 77.1451Z" fill="#4E6171"/>
<path d="M6.44012 58.3652L1.77012 63.5852C0.89012 64.6252 1.02012 66.1752 2.06012 67.0552C3.10012 67.9352 4.65012 67.8052 5.53012 66.7652L8.71012 63.2452C9.00012 62.9252 9.53012 63.1352 9.53012 63.5652L9.52012 65.4052L10.8401 54.5352L6.44012 58.3652Z" fill="#111E2B"/>
<path d="M15.9802 2.79497L15.9302 2.34497H12.2202L12.3502 2.95497C13.7202 9.31497 16.1302 23.005 17.3502 30.055C17.4202 30.475 18.0502 30.415 18.0402 29.985C17.6802 18.945 16.0002 2.98497 15.9802 2.79497Z" fill="#738293"/>
<path d="M19.4801 57.675C20.7945 57.675 21.8601 56.6095 21.8601 55.295C21.8601 53.9806 20.7945 52.915 19.4801 52.915C18.1657 52.915 17.1001 53.9806 17.1001 55.295C17.1001 56.6095 18.1657 57.675 19.4801 57.675Z" fill="#111E2B"/>
<path d="M26.8302 56.0751C26.1202 59.4751 23.0902 62.0351 19.4902 62.0351C15.3502 62.0351 11.9902 58.6751 11.9902 54.5351C11.9902 54.1751 12.0202 53.8151 12.0702 53.4651L10.9902 54.4051V54.5351C10.9902 59.2251 14.8002 63.0351 19.4902 63.0351C23.0202 63.0351 26.0702 60.8651 27.3402 57.7751C27.1802 57.1651 27.0102 56.5951 26.8302 56.0751Z" fill="#111E2B"/>
<path d="M14.5903 71.6551L14.5703 69.5151H19.9403V71.6551H14.5903Z" fill="#D0E2EA"/>
<path d="M19.9399 67.6251L24.0999 67.4651C24.6199 67.4651 25.0499 67.8851 25.0499 68.4151C25.0499 68.9351 24.6299 69.3651 24.0999 69.3651L19.9399 69.5251V67.6251Z" fill="#D0E2EA"/>
<path d="M25.2801 66.085L28.2701 65.675L28.2101 67.595L25.5401 67.955C25.0201 68.025 24.5501 67.6651 24.4701 67.1451C24.4001 66.6451 24.7601 66.165 25.2801 66.085Z" fill="#D0E2EA"/>
<path d="M9.34033 69.1852L9.48033 67.2952L14.5703 67.6252V69.5152L9.34033 69.1852Z" fill="#D0E2EA"/>
</g>
<defs>
<clipPath id="clip0_301_14228">
<rect width="29.02" height="84.51" fill="white" transform="translate(0.169922 0.745117)"/>
</clipPath>
</defs>
</svg>
