<svg width="136" height="252" viewBox="0 0 136 252" fill="none" xmlns="http://www.w3.org/2000/svg">
<g clip-path="url(#clip0_301_3141)">
<path d="M129.24 151.5H100.07V155.5H129.24V151.5Z" fill="#97AEB7"/>
<path d="M129.24 84.23H100.07V89.23H129.24V84.23Z" fill="#567C8A"/>
<path d="M116.65 180.65H112.65V236.79H116.65V180.65Z" fill="#97AEB7"/>
<path d="M114.65 184.56L98.0703 156.69V11.1699H102.07V155.59L114.65 176.74L127.24 155.59V11.1699H131.24V156.69L114.65 184.56Z" fill="#97AEB7"/>
<path d="M129.95 12.58H99.3602C96.2602 12.58 93.7402 10.07 93.7402 6.95998V6.59998C93.7402 3.49998 96.2502 0.97998 99.3602 0.97998H129.95C133.05 0.97998 135.57 3.48998 135.57 6.59998V6.95998C135.56 10.06 133.05 12.58 129.95 12.58Z" fill="#0E1F2B"/>
<path d="M120.5 228.88C120.17 225.94 117.68 223.65 114.65 223.65C111.62 223.65 109.13 225.94 108.8 228.88H108.76V251.02H120.53V228.88H120.5Z" fill="#0E1F2B"/>
<path d="M18.1751 149.647L17.1079 153.502L45.222 161.285L46.2892 157.43L18.1751 149.647Z" fill="#97AEB7"/>
<path d="M36.1231 84.8077L34.7891 89.6267L62.9031 97.4093L64.2371 92.5903L36.1231 84.8077Z" fill="#567C8A"/>
<path d="M22.5289 181.093L7.55078 235.201L11.406 236.268L26.3841 182.161L22.5289 181.093Z" fill="#97AEB7"/>
<path d="M23.3999 185.4L14.8599 154.11L53.6799 13.8701L57.5399 14.9401L19.0099 154.12L25.4899 177.86L43.2599 160.83L81.7899 21.6501L85.6499 22.7201L46.8199 162.96L23.3999 185.4Z" fill="#97AEB7"/>
<path d="M84.0298 23.7301L54.5498 15.5701C51.5598 14.7401 49.8098 11.6501 50.6398 8.66007L50.7398 8.31007C51.5698 5.32007 54.6598 3.57007 57.6498 4.40007L87.1298 12.5601C90.1198 13.3901 91.8698 16.4801 91.0398 19.4701L90.9398 19.8201C90.1098 22.8001 87.0198 24.5601 84.0298 23.7301Z" fill="#0E1F2B"/>
<path d="M17.22 229.67C17.69 226.75 15.9 223.88 12.98 223.07C10.06 222.26 7.05 223.8 5.95 226.55L5.91 226.54L0 247.88L11.35 251.02L17.26 229.68L17.22 229.67Z" fill="#0E1F2B"/>
</g>
<defs>
<clipPath id="clip0_301_3141">
<rect width="135.56" height="250.04" fill="white" transform="translate(0 0.97998)"/>
</clipPath>
</defs>
</svg>
