<svg width="36" height="34" viewBox="0 0 36 34" fill="none" xmlns="http://www.w3.org/2000/svg">
<g clip-path="url(#clip0_301_5148)">
<path d="M35.2099 32.5751C35.1799 32.5851 35.1399 32.5951 35.1099 32.6051C34.9699 32.6351 34.8399 32.6751 34.7099 32.7251C34.1399 32.8751 33.0999 33.1051 31.7099 33.2251C29.4799 33.4151 26.3399 33.3251 22.7999 32.1351C22.1499 31.9151 21.4799 31.6551 20.7999 31.3551C18.1799 30.1951 15.3899 28.4051 12.6299 25.6951C12.0399 25.5551 11.5199 25.3451 11.2199 25.2051C10.5299 24.8751 9.84992 24.4851 9.19992 24.0751C8.68992 23.7451 8.19992 23.4051 7.71992 23.0351C6.02992 21.7851 4.51992 20.3551 3.36992 19.1551C2.89992 18.6751 2.48992 18.2251 2.13992 17.8451C1.36992 16.9651 0.919922 16.3751 0.919922 16.3751L16.3899 0.695068L17.7099 2.93507L18.2199 3.78507L18.6899 4.48507L19.2699 5.33507L20.3699 6.95507L20.8999 5.99507L25.6699 7.97507C25.3799 9.49507 23.7299 18.2051 24.3699 19.0851C24.6799 19.5051 25.0799 19.8151 25.4399 20.1051C25.7499 20.3651 26.0599 20.5851 26.3999 20.7651C26.9399 21.0851 27.4999 21.3551 28.1099 21.4151C28.6699 21.4651 29.1999 21.4751 29.7299 21.3651C29.7899 21.3651 29.8599 21.3451 29.9199 21.3351C30.7299 21.1451 31.2799 21.0051 32.3899 20.6251L35.2099 32.5751Z" fill="#9DAADA"/>
<path d="M25.44 20.105L21.04 24.325C20.75 24.605 20.28 24.595 20 24.305C19.71 24.005 19.72 23.545 20.02 23.255L24.37 19.085C24.72 19.475 25.08 19.815 25.44 20.105Z" fill="#7381CC"/>
<path d="M28.8801 30.765L28.1201 31.315C27.2901 31.915 26.1401 31.735 25.5401 30.915C24.9401 30.085 25.1201 28.935 25.9401 28.335L26.7001 27.785C27.5301 27.185 28.6801 27.365 29.2801 28.185C29.8901 29.005 29.7101 30.165 28.8801 30.765Z" fill="#BAEEE6"/>
<path d="M35.21 32.575C35.18 32.585 35.14 32.595 35.11 32.605C34.97 32.635 34.84 32.675 34.71 32.725C34.14 32.875 33.1 33.105 31.71 33.225L29.73 21.365C29.79 21.365 29.86 21.345 29.92 21.335C30.73 21.145 31.28 21.005 32.39 20.625L35.21 32.575Z" fill="#7381CC"/>
<path d="M19.2697 5.33496L20.3697 6.95496L9.19973 24.075C8.68973 23.745 8.19973 23.405 7.71973 23.035L19.2697 5.33496Z" fill="#7381CC"/>
<path d="M28.1098 21.4151L22.7998 32.1351C22.1498 31.9151 21.4798 31.6551 20.7998 31.3551L26.3998 20.7651C26.9398 21.0851 27.5098 21.3051 28.1098 21.4151Z" fill="#7381CC"/>
<path d="M17.7099 2.93506L18.2199 3.78506L18.6999 4.48506L3.3699 19.1551C2.8999 18.6751 2.4899 18.2251 2.1499 17.8451L17.7099 2.93506Z" fill="#7381CC"/>
</g>
<defs>
<clipPath id="clip0_301_5148">
<rect width="34.29" height="32.61" fill="white" transform="translate(0.919922 0.695068)"/>
</clipPath>
</defs>
</svg>
