<svg width="41" height="80" viewBox="0 0 41 80" fill="none" xmlns="http://www.w3.org/2000/svg">
<g clip-path="url(#clip0_301_3200)">
<path d="M40.4401 73.5501V76.1501C40.4401 78.5201 40.4401 79.8801 40.4401 79.8801H0.580078V77.6201C0.740078 71.7001 2.59008 67.6001 5.15008 64.7601C5.61008 64.2401 6.10008 63.7701 6.60008 63.3301C10.6801 59.8101 15.8701 58.7901 19.0601 58.5201C20.8301 58.3701 21.9801 58.4401 21.9801 58.4401C21.9801 58.4401 21.9801 58.4001 21.9801 58.3301V50.6301C21.9801 46.9201 21.9801 42.1901 21.9901 37.1201V20.1601C22.0001 12.1501 22.0001 5.15012 22.0001 1.96012C22.0001 1.59012 22.1101 1.25012 22.3101 0.960117C22.6301 0.450117 23.2001 0.120117 23.8501 0.120117H38.5601C39.5901 0.120117 40.4101 0.940117 40.4201 1.96012V20.1601C40.4301 20.8201 40.4301 21.4801 40.4201 22.1601C40.4301 26.2001 40.4301 30.5401 40.4301 34.9701V52.6301C40.4401 61.0001 40.4401 68.5301 40.4401 73.5501Z" fill="#9DAADA"/>
<path d="M40.4201 13.3001L24.4401 0.120117H23.8501C23.2001 0.120117 22.6301 0.450117 22.3101 0.960117L40.4201 15.8901V13.3001Z" fill="#7381CC"/>
<path d="M28.5801 63.77L37.6301 52.63H40.4301V52.32V50.63V49.73L40.1601 49.51L40.4301 49.17V46L38.6201 48.24L24.9501 36.97H40.4301V34.97H22.5201L21.9901 34.53V37.12L37.3601 49.79L36.6701 50.63H21.9801V52.63H35.0501L27.0401 62.5L21.9801 58.33C21.9801 58.4 21.9801 58.44 21.9801 58.44C21.9801 58.44 20.8301 58.37 19.0601 58.52L25.7701 64.06L27.3201 65.33L40.4401 76.15V73.55L28.5801 63.77Z" fill="#7381CC"/>
<path d="M20.6599 73.2701L6.5999 63.3301C6.0999 63.7701 5.6099 64.2401 5.1499 64.7601L19.3899 74.8301L15.2999 79.8801H17.8699L21.0299 75.9901L26.5399 79.8801H29.9899L22.2899 74.4301L20.6599 73.2701Z" fill="#7381CC"/>
<path d="M40.4197 20.1602H21.9897V22.1602H40.4197C40.4297 21.4802 40.4297 20.8202 40.4197 20.1602Z" fill="#7381CC"/>
<path d="M28.7903 32.03H26.1103C25.2503 32.03 24.5503 31.33 24.5503 30.47V26.58C24.5503 25.72 25.2503 25.02 26.1103 25.02H28.7903C29.6503 25.02 30.3503 25.72 30.3503 26.58V30.47C30.3503 31.33 29.6503 32.03 28.7903 32.03Z" fill="#BAEEE6"/>
<path d="M29.01 16.9701H25.89C25.15 16.9701 24.54 16.3701 24.54 15.6201V11.2501C24.54 10.2001 25.69 9.55015 26.58 10.1001L29.7 12.0001C30.1 12.2401 30.35 12.6801 30.35 13.1501V15.6201C30.35 16.3701 29.75 16.9701 29.01 16.9701Z" fill="#BAEEE6"/>
<path d="M4.39006 77.12C4.39006 77.12 4.18006 73.25 6.29006 71.3C6.66006 70.96 7.23006 70.95 7.64006 71.26L12.9001 75.18C13.1701 75.38 13.3301 75.7 13.3301 76.04C13.3301 76.63 12.8501 77.12 12.2501 77.12H4.39006Z" fill="#BAEEE6"/>
</g>
<defs>
<clipPath id="clip0_301_3200">
<rect width="39.86" height="79.76" fill="white" transform="translate(0.580078 0.120117)"/>
</clipPath>
</defs>
</svg>
