<svg width="41" height="50" viewBox="0 0 41 50" fill="none" xmlns="http://www.w3.org/2000/svg">
<g clip-path="url(#clip0_301_5182)">
<path d="M0.77002 43.4V46C0.77002 48.37 0.77002 49.73 0.77002 49.73H40.63V47.47C40.47 41.55 38.62 37.45 36.06 34.61C35.6 34.09 35.11 33.62 34.61 33.18C30.53 29.66 25.34 28.64 22.15 28.37C20.38 28.22 19.23 28.29 19.23 28.29C19.23 28.29 19.23 28.25 19.23 28.18V20.48C19.23 16.77 19.23 12.04 19.22 6.97002V1.70002C19.22 0.910019 18.58 0.27002 17.79 0.27002H2.21002C1.42002 0.27002 0.78002 0.910019 0.78002 1.70002V22.48C0.77002 30.85 0.77002 38.38 0.77002 43.4Z" fill="#9DAADA"/>
<path d="M12.63 33.6201L3.58002 22.4801H0.78002V22.1701V20.4801V19.5801L1.05002 19.3601L0.78002 19.0201V15.8501L2.59002 18.0901L16.26 6.82013H0.78002V4.82013H18.69L19.22 4.38013V6.97013L3.85002 19.6401L4.54002 20.4801H19.23V22.4801H6.16002L14.17 32.3501L19.23 28.1801C19.23 28.2501 19.23 28.2901 19.23 28.2901C19.23 28.2901 20.38 28.2201 22.15 28.3701L15.44 33.9101L13.89 35.1801L0.77002 46.0001V43.4001L12.63 33.6201Z" fill="#7381CC"/>
<path d="M20.5502 43.1202L34.6102 33.1802C35.1102 33.6202 35.6002 34.0902 36.0602 34.6102L21.8202 44.6802L25.9102 49.7302H23.3402L20.1802 45.8402L14.6702 49.7302H11.2202L18.9202 44.2802L20.5502 43.1202Z" fill="#7381CC"/>
<path d="M36.8199 46.9701C36.8199 46.9701 37.0299 43.1001 34.9199 41.1501C34.5499 40.8101 33.9799 40.8001 33.5699 41.1101L28.3099 45.0301C28.0399 45.2301 27.8799 45.5501 27.8799 45.8901C27.8799 46.4801 28.3599 46.9701 28.9599 46.9701H36.8199Z" fill="#BAEEE6"/>
</g>
<defs>
<clipPath id="clip0_301_5182">
<rect width="39.86" height="49.46" fill="white" transform="translate(0.77002 0.27002)"/>
</clipPath>
</defs>
</svg>
