<svg width="51" height="88" viewBox="0 0 51 88" fill="none" xmlns="http://www.w3.org/2000/svg">
<g clip-path="url(#clip0_301_8065)">
<path d="M50.9801 81.0149V83.8849C50.9801 86.4949 50.9801 87.9949 50.9801 87.9949H0.310059V85.5049C0.490059 78.9749 2.53006 74.4549 5.35006 71.3149C5.86006 70.7449 6.40006 70.2249 6.95006 69.7349C11.4501 65.8549 17.1801 64.7249 20.7001 64.4249C22.6501 64.2549 23.9201 64.3349 23.9201 64.3349C23.9201 64.3349 23.9201 64.2949 23.9201 64.2149V55.7249C23.9201 51.6349 23.9201 46.4149 23.9301 40.8249V22.1149C23.9401 13.2749 23.9401 5.55488 23.9401 2.03488C23.9401 1.62488 24.0601 1.25488 24.2801 0.934883C24.6401 0.364883 25.2601 0.00488281 25.9801 0.00488281H48.9101C50.0501 0.00488281 50.9501 0.904883 50.9601 2.03488V22.1149C50.9701 22.8449 50.9701 23.5749 50.9601 24.3249C50.9701 28.7849 50.9701 33.5649 50.9701 38.4549V57.9349C50.9801 67.1649 50.9801 75.4749 50.9801 81.0149Z" fill="#9DAADA"/>
<path d="M50.9603 14.5449L26.6303 0.00488281H25.9803C25.2603 0.00488281 24.6303 0.364883 24.2803 0.934883L50.9603 17.4049V14.5449Z" fill="#7381CC"/>
<path d="M31.6603 69.5448L47.8803 57.9348H50.9703V57.5948V55.7348V54.7448L50.6703 54.5048L50.9703 54.1248V50.6248L48.9703 53.0948L27.1903 40.6548H50.9703V38.4448H24.5103L23.9303 37.9548V40.8148L47.5903 54.8048L46.8303 55.7348H23.9203V57.9448H45.0403L30.0303 68.2948L23.9203 64.2248C23.9203 64.3048 23.9203 64.3448 23.9203 64.3448C23.9203 64.3448 21.0103 64.4548 19.0503 64.6148L50.9803 83.8748V81.0048L31.6603 69.5448Z" fill="#7381CC"/>
<path d="M22.4601 80.7049L6.9501 69.7349C6.4001 70.2249 5.8601 70.7349 5.3501 71.3149L21.0601 82.4249L16.5501 87.9949H19.3901L22.8801 83.7049L28.9601 87.9949H32.7701L24.2801 81.9849L22.4601 80.7049Z" fill="#7381CC"/>
<path d="M50.9602 22.115H23.9302V24.325H50.9602C50.9702 23.565 50.9702 22.845 50.9602 22.115Z" fill="#7381CC"/>
<path d="M31.59 35.2149H28.31C27.45 35.2149 26.75 34.5149 26.75 33.6549V29.0349C26.75 28.1749 27.45 27.4749 28.31 27.4749H31.59C32.45 27.4749 33.15 28.1749 33.15 29.0349V33.6549C33.16 34.5149 32.46 35.2149 31.59 35.2149Z" fill="#BAEEE6"/>
<path d="M31.67 18.5949H28.23C27.41 18.5949 26.75 17.9349 26.75 17.1149V12.2949C26.75 11.1349 28.02 10.4249 29.01 11.0249L32.45 13.1149C32.89 13.3849 33.16 13.8649 33.16 14.3849V17.1149C33.16 17.9249 32.49 18.5949 31.67 18.5949Z" fill="#BAEEE6"/>
<path d="M4.5102 84.945C4.5102 84.945 4.2802 80.675 6.6002 78.525C7.0102 78.145 7.6402 78.145 8.0902 78.475L13.9002 82.805C14.2002 83.025 14.3802 83.385 14.3802 83.755C14.3802 84.415 13.8502 84.945 13.1902 84.945H4.5102Z" fill="#BAEEE6"/>
</g>
<defs>
<clipPath id="clip0_301_8065">
<rect width="50.67" height="87.99" fill="white" transform="translate(0.310059 0.00488281)"/>
</clipPath>
</defs>
</svg>
