<svg width="24" height="54" viewBox="0 0 24 54" fill="none" xmlns="http://www.w3.org/2000/svg">
<g clip-path="url(#clip0_301_14145)">
<path d="M17.72 30.7049C17.71 31.4649 17.71 32.2349 17.71 32.9649C17.71 33.5249 17.72 34.0749 17.75 34.6249C17.77 35.0949 17.8 35.5649 17.84 36.0149C17.97 37.6949 18.18 39.2349 18.4 40.4549C18.71 42.2349 19 43.3649 19 43.3649L8.91 52.8149C8.43 52.3949 7.99 51.8449 7.6 51.2149C6.47 49.4149 5.65 46.9049 5.07 44.5049C4.58 42.4649 4.25 40.3949 4.06 38.3049C4.01 37.8349 3.97 37.3749 3.95 36.9049C3.88 35.8249 3.84 34.7549 3.84 33.6749V23.4749C3.84 21.9349 3.4 20.3949 2.46 19.1549C2.06 18.6249 1.78 18.0949 1.58 17.6049C1.37 17.0749 1.27 16.5949 1.22 16.2249C1.15 15.7549 1.17 15.4549 1.17 15.4549L0.35 6.2249L0.22 4.8349L0 2.3349L20.04 0.524902V7.6249C20.04 8.0249 20.09 8.3449 20.18 8.6049C20.22 8.7349 20.63 8.5549 20.63 8.5549L23.57 13.4049L19.33 18.9649C18.37 19.8949 17.82 21.1649 17.79 22.4849C17.78 22.9649 17.78 23.5149 17.77 24.1149C17.76 24.5549 17.76 25.0149 17.76 25.5049C17.75 26.6949 17.73 27.9949 17.72 29.3149C17.72 29.7749 17.72 30.2449 17.72 30.7049Z" fill="#9DAADA"/>
<path d="M19.0001 43.3548L8.9101 53.4748C8.4301 52.8248 7.8901 51.9748 7.6001 51.2148L18.4001 40.4448C18.7101 42.2248 19.0001 43.3548 19.0001 43.3548Z" fill="#7381CC"/>
<path d="M17.8399 36.005L4.04994 38.305C3.99994 37.835 3.95994 37.375 3.93994 36.905L17.7399 34.615C17.7699 35.095 17.7999 35.555 17.8399 36.005Z" fill="#7381CC"/>
<path d="M17.7198 29.3149C17.7198 29.7849 17.7098 30.2449 17.7098 30.7049H3.83984V29.3149H17.7198Z" fill="#7381CC"/>
<path d="M17.7701 24.115C17.7601 24.555 17.7601 25.015 17.7601 25.505H11.5901C11.1901 25.505 10.8701 25.195 10.8701 24.815C10.8701 24.435 11.1901 24.125 11.5901 24.125H17.7701V24.115Z" fill="#7381CC"/>
<path d="M20.18 8.60499L1.58998 17.605C1.37998 17.075 1.27998 16.595 1.22998 16.225L20.04 7.11499V7.62499C20.04 8.02499 20.09 8.34499 20.18 8.60499Z" fill="#7381CC"/>
<path d="M20.0402 4.83496V6.22496H0.350215L0.220215 4.83496H20.0402Z" fill="#7381CC"/>
<path d="M9.08977 43.4749H7.94977C7.01977 43.4749 6.25977 42.7149 6.25977 41.7849V41.6749C6.25977 40.7449 7.01977 39.9849 7.94977 39.9849H9.08977C10.0198 39.9849 10.7798 40.7449 10.7798 41.6749V41.7849C10.7798 42.7249 10.0298 43.4749 9.08977 43.4749Z" fill="#BAEEE6"/>
</g>
<defs>
<clipPath id="clip0_301_14145">
<rect width="23.58" height="52.95" fill="white" transform="translate(0 0.524902)"/>
</clipPath>
</defs>
</svg>
