<svg width="37" height="106" viewBox="0 0 37 106" fill="none" xmlns="http://www.w3.org/2000/svg">
<g clip-path="url(#clip0_301_8122)">
<path d="M36.3097 96.085C36.0897 98.435 34.2497 100.105 32.0197 100.105C31.8697 100.105 31.7197 100.095 31.5797 100.085C30.9097 100.025 30.1697 99.705 29.5097 99.295C28.8697 100.445 27.7597 101.525 26.0297 101.525C25.2797 101.525 24.5597 101.305 23.9397 100.935L23.8097 101.905C23.5197 104.035 21.6797 105.635 19.5297 105.635C19.0897 105.635 18.6597 105.575 18.2297 105.445C16.2397 104.825 14.9697 102.735 15.2697 100.565L15.4097 99.085C14.9697 99.245 14.4997 99.325 14.0097 99.325C13.3797 99.325 12.7597 99.185 12.1797 98.915C10.3497 98.075 9.36972 95.905 9.85972 93.845L10.3497 87.345L10.2197 87.335L10.5297 83.225L10.5397 80.895L7.73972 83.995C6.93972 84.935 5.73972 85.495 4.46972 85.495C3.44972 85.495 2.45972 85.135 1.68972 84.475C0.809716 83.725 0.269716 82.685 0.169716 81.535C0.0697157 80.395 0.429716 79.275 1.17972 78.395L7.00972 71.875C11.0997 68.125 14.2097 63.715 16.0297 58.855C16.8397 56.695 17.3897 54.455 17.6597 52.145C17.7897 51.065 17.8497 49.975 17.8497 48.875C17.8497 46.315 17.4997 43.825 16.8397 41.425C16.1597 38.965 15.1597 36.595 13.8597 34.355C12.9897 25.505 11.9597 16.315 10.8597 9.18499V0.36499H24.6197C25.9197 0.36499 26.9797 1.42499 26.9797 2.72499C26.9797 3.50499 26.5997 4.19499 26.0097 4.62499C28.9097 21.295 30.7697 39.655 31.5297 59.205L31.5897 61.115C31.6197 61.915 31.6497 62.725 31.6697 63.545C31.7197 63.625 31.7797 63.725 31.8597 63.845C32.4097 64.735 33.5597 66.585 34.5297 69.445C34.7497 70.095 34.9797 70.845 35.1897 71.645C35.8797 74.345 36.2397 77.285 36.2597 80.395L36.2797 85.295L36.3097 96.085Z" fill="#49535C"/>
<path d="M35.0894 95.535C34.9294 97.215 33.4194 98.465 31.7294 98.285C30.8094 98.205 29.4894 97.315 28.9894 96.605C28.9894 96.605 28.4794 99.715 26.0594 99.715C24.5094 99.715 23.3594 98.495 23.1594 97.075L22.5994 101.175C22.3494 103.025 20.4894 104.265 18.6194 103.695C17.1594 103.245 16.3194 101.705 16.5294 100.185L16.9994 95.245C16.5194 97.055 14.4994 98.055 12.7294 97.225C11.3494 96.595 10.7194 94.965 11.1194 93.495L11.7094 85.625L11.7794 84.725L11.7894 83.265L11.8094 80.905L13.4494 67.365L13.6394 67.205L14.9794 66.035L16.4794 64.735C16.4694 64.705 16.3994 63.875 16.2894 62.455C16.2594 61.895 16.2094 61.265 16.1594 60.525C16.1194 60.005 16.0694 59.455 16.0294 58.855C16.8394 56.695 17.3894 54.455 17.6594 52.145C17.7894 51.065 17.8494 49.975 17.8494 48.875C17.8494 46.315 17.4994 43.825 16.8394 41.425C16.1594 38.965 15.1594 36.595 13.8594 34.355C12.9894 25.505 11.9594 16.315 10.8594 9.18504V2.16504H24.4394C27.2794 17.885 29.4494 36.585 30.3094 58.695C30.3194 59.245 30.3394 59.795 30.3594 60.345C30.3894 61.315 30.4294 62.285 30.4594 63.265C30.4694 63.585 32.0794 65.445 33.3694 69.285C33.5994 69.935 33.8094 70.645 34.0094 71.405C34.6094 73.745 35.0394 76.645 35.0394 80.175V81.275L35.0494 83.655L35.0894 95.535Z" fill="#4E6171"/>
<path d="M7.96961 72.135L2.14961 78.645C1.04961 79.945 1.21961 81.875 2.50961 82.965C3.80961 84.065 5.73961 83.895 6.82961 82.605L10.7896 78.215C11.1496 77.815 11.8096 78.075 11.8096 78.615L11.7996 80.905L13.4496 67.365L7.96961 72.135Z" fill="#111E2B"/>
<path d="M19.8494 2.92499L19.7894 2.36499H15.1694L15.3294 3.11499C17.0394 11.045 20.0394 28.095 21.5594 36.875C21.6494 37.405 22.4294 37.325 22.4194 36.785C21.9594 23.035 19.8794 3.14499 19.8494 2.92499Z" fill="#738293"/>
<path d="M24.2097 71.295C25.85 71.295 27.1797 69.9653 27.1797 68.325C27.1797 66.6847 25.85 65.355 24.2097 65.355C22.5695 65.355 21.2397 66.6847 21.2397 68.325C21.2397 69.9653 22.5695 71.295 24.2097 71.295Z" fill="#111E2B"/>
<path d="M33.3696 69.2852C32.4897 73.5252 28.7096 76.7152 24.2296 76.7152C19.0696 76.7152 14.8796 72.5252 14.8796 67.3652C14.8796 66.9152 14.9196 66.4752 14.9796 66.0352L13.6396 67.2052V67.3652C13.6396 73.2152 18.3896 77.9552 24.2296 77.9552C28.6296 77.9552 32.4296 75.2552 34.0096 71.4052C33.8096 70.6452 33.5996 69.9352 33.3696 69.2852Z" fill="#111E2B"/>
<path d="M18.1096 88.7052L18.0996 86.0352H24.7796V88.7052H18.1096Z" fill="#D0E2EA"/>
<path d="M24.7798 83.6751L29.9598 83.4751C30.6098 83.4751 31.1398 84.0051 31.1398 84.6551C31.1398 85.3051 30.6098 85.8351 29.9598 85.8351L24.7798 86.0351V83.6751Z" fill="#D0E2EA"/>
<path d="M31.4394 81.7651L35.1694 81.2551L35.0894 83.6551L31.7594 84.1051C31.1194 84.1951 30.5194 83.7451 30.4294 83.1051C30.3394 82.4551 30.7894 81.8551 31.4394 81.7651Z" fill="#D0E2EA"/>
<path d="M11.5698 85.6151L11.7498 83.2651L18.0998 83.6751V86.0351L11.5698 85.6151Z" fill="#D0E2EA"/>
</g>
<defs>
<clipPath id="clip0_301_8122">
<rect width="36.16" height="105.27" fill="white" transform="translate(0.149902 0.36499)"/>
</clipPath>
</defs>
</svg>
