<svg width="10" height="18" viewBox="0 0 10 18" fill="none" xmlns="http://www.w3.org/2000/svg">
<g clip-path="url(#clip0_302_471)">
<path d="M3.00991 6.55485C3.00991 6.55485 3.04991 5.64485 1.97991 4.50485C0.669906 3.10485 1.88991 0.944848 3.61991 0.794848C5.67991 0.624848 9.03991 1.44485 9.42991 5.94485C9.78991 10.0748 9.15991 13.2948 5.60991 16.4848C4.69991 17.3048 3.30991 17.4848 2.30991 16.7848C2.04991 16.5948 1.80991 16.3548 1.61991 16.0348L1.50991 15.8048C1.50991 15.8048 6.28991 14.9948 7.07991 9.29485C7.81991 3.99485 4.44991 0.404848 2.84991 2.00485C2.33991 2.51485 2.04991 3.31485 2.85991 4.32485C3.54991 5.18485 3.63991 5.69485 3.73991 7.24485C3.83991 8.38485 3.00991 6.55485 3.00991 6.55485Z" fill="#BC503A"/>
<path d="M2.29988 9.43473C3.2222 9.43473 3.96988 8.68704 3.96988 7.76473C3.96988 6.84241 3.2222 6.09473 2.29988 6.09473C1.37757 6.09473 0.629883 6.84241 0.629883 7.76473C0.629883 8.68704 1.37757 9.43473 2.29988 9.43473Z" fill="#F26548"/>
</g>
<defs>
<clipPath id="clip0_302_471">
<rect width="8.89" height="16.45" fill="white" transform="translate(0.629883 0.774902)"/>
</clipPath>
</defs>
</svg>
