<svg width="41" height="50" viewBox="0 0 41 50" fill="none" xmlns="http://www.w3.org/2000/svg">
<g clip-path="url(#clip0_301_5175)">
<path d="M40.7702 43.4V46C40.7702 48.37 40.7702 49.73 40.7702 49.73H0.910156V47.47C1.07016 41.55 2.92016 37.45 5.48016 34.61C5.94016 34.09 6.43016 33.62 6.93016 33.18C11.0102 29.66 16.2002 28.64 19.3902 28.37C21.1602 28.22 22.3102 28.29 22.3102 28.29C22.3102 28.29 22.3102 28.25 22.3102 28.18V20.48C22.3102 16.77 22.3102 12.04 22.3202 6.97002V1.70002C22.3202 0.910019 22.9602 0.27002 23.7502 0.27002H39.3302C40.1202 0.27002 40.7602 0.910019 40.7602 1.70002V22.48C40.7702 30.85 40.7702 38.38 40.7702 43.4Z" fill="#9DAADA"/>
<path d="M28.9101 33.6201L37.9601 22.4801H40.7601V22.1701V20.4801V19.5801L40.4901 19.3601L40.7601 19.0201V15.8501L38.9501 18.0901L25.2801 6.82013H40.7601V4.82013H22.8501L22.3201 4.38013V6.97013L37.6901 19.6401L37.0001 20.4801H22.3101V22.4801H35.3801L27.3701 32.3501L22.3101 28.1801C22.3101 28.2501 22.3101 28.2901 22.3101 28.2901C22.3101 28.2901 21.1601 28.2201 19.3901 28.3701L26.1001 33.9101L27.6501 35.1801L40.7701 46.0001V43.4001L28.9101 33.6201Z" fill="#7381CC"/>
<path d="M20.99 43.1202L6.92998 33.1802C6.42998 33.6202 5.93998 34.0902 5.47998 34.6102L19.72 44.6802L15.63 49.7302H18.2L21.36 45.8402L26.87 49.7302H30.32L22.62 44.2802L20.99 43.1202Z" fill="#7381CC"/>
<path d="M4.72014 46.9701C4.72014 46.9701 4.51014 43.1001 6.62014 41.1501C6.99014 40.8101 7.56014 40.8001 7.97014 41.1101L13.2301 45.0301C13.5001 45.2301 13.6601 45.5501 13.6601 45.8901C13.6601 46.4801 13.1801 46.9701 12.5801 46.9701H4.72014Z" fill="#BAEEE6"/>
</g>
<defs>
<clipPath id="clip0_301_5175">
<rect width="39.86" height="49.46" fill="white" transform="translate(0.910156 0.27002)"/>
</clipPath>
</defs>
</svg>
