<svg width="52" height="88" viewBox="0 0 52 88" fill="none" xmlns="http://www.w3.org/2000/svg">
<g clip-path="url(#clip0_301_8076)">
<path d="M0.97998 81.0149V83.8849C0.97998 86.4949 0.97998 87.9949 0.97998 87.9949H51.65V85.5049C51.47 78.9749 49.43 74.4549 46.61 71.3149C46.1 70.7449 45.56 70.2249 45.01 69.7349C40.51 65.8549 34.78 64.7249 31.26 64.4249C29.31 64.2549 28.04 64.3349 28.04 64.3349C28.04 64.3349 28.04 64.2949 28.04 64.2149V55.7249C28.04 51.6349 28.04 46.4149 28.03 40.8249V22.1149C28.02 13.2749 28.02 5.55488 28.02 2.03488C28.02 1.62488 27.9 1.25488 27.68 0.934883C27.33 0.364883 26.7 0.00488281 25.98 0.00488281H3.04998C1.91998 0.00488281 1.00998 0.904883 0.99998 2.03488V22.1149C0.98998 22.8449 0.98998 23.5749 0.99998 24.3249C0.98998 28.7849 0.98998 33.5649 0.98998 38.4549V57.9349C0.97998 67.1649 0.97998 75.4749 0.97998 81.0149Z" fill="#9DAADA"/>
<path d="M1 14.5449L25.33 0.00488281H25.98C26.7 0.00488281 27.33 0.364883 27.68 0.934883L1 17.4049V14.5449Z" fill="#7381CC"/>
<path d="M20.3 69.5448L4.07998 57.9348H0.98998V57.5948V55.7348V54.7448L1.28998 54.5048L0.98998 54.1248V50.6248L2.98998 53.0948L24.77 40.6648H0.98998V38.4548H27.45L28.03 37.9648V40.8248L4.37998 54.8048L5.13998 55.7348H28.05V57.9448H6.92998L21.94 68.3048L28.05 64.2348C28.05 64.3148 28.05 64.3548 28.05 64.3548C28.05 64.3548 30.96 64.4648 32.92 64.6248L0.97998 83.8848V81.0148L20.3 69.5448Z" fill="#7381CC"/>
<path d="M29.5002 80.7049L45.0102 69.7349C45.5602 70.2249 46.1002 70.7349 46.6102 71.3149L30.9002 82.4249L35.4102 87.9949H32.5802L29.0902 83.7049L23.0102 87.9949H19.2002L27.6902 81.9849L29.5002 80.7049Z" fill="#7381CC"/>
<path d="M1.00018 22.115H28.0302V24.325H1.00018C0.990176 23.565 0.990176 22.845 1.00018 22.115Z" fill="#7381CC"/>
<path d="M20.3701 35.2149H23.6501C24.5101 35.2149 25.2101 34.5149 25.2101 33.6549V29.0349C25.2101 28.1749 24.5101 27.4749 23.6501 27.4749H20.3701C19.5101 27.4749 18.8101 28.1749 18.8101 29.0349V33.6549C18.8101 34.5149 19.5101 35.2149 20.3701 35.2149Z" fill="#BAEEE6"/>
<path d="M20.2898 18.5949H23.7298C24.5498 18.5949 25.2098 17.9349 25.2098 17.1149V12.2949C25.2098 11.1349 23.9398 10.4249 22.9498 11.0249L19.5098 13.1149C19.0698 13.3849 18.7998 13.8649 18.7998 14.3849V17.1149C18.8098 17.9249 19.4698 18.5949 20.2898 18.5949Z" fill="#BAEEE6"/>
<path d="M47.4501 84.945C47.4501 84.945 47.6801 80.675 45.3601 78.525C44.9501 78.145 44.3201 78.145 43.8701 78.475L38.0601 82.805C37.7601 83.025 37.5801 83.385 37.5801 83.755C37.5801 84.415 38.1101 84.945 38.7701 84.945H47.4501Z" fill="#BAEEE6"/>
</g>
<defs>
<clipPath id="clip0_301_8076">
<rect width="50.67" height="87.99" fill="white" transform="translate(0.97998 0.00488281)"/>
</clipPath>
</defs>
</svg>
