<svg width="29" height="50" viewBox="0 0 29 50" fill="none" xmlns="http://www.w3.org/2000/svg">
<g clip-path="url(#clip0_301_10988)">
<path d="M24.5999 28.7899C25.5399 29.0899 26.5199 29.2999 27.7899 29.4199L19.3299 48.9999L19.1699 49.3599L19.1599 49.3499C17.8899 48.7899 16.6999 48.0799 15.5999 47.2499C11.7299 44.3399 8.84992 39.8799 7.17992 34.1299C6.98992 33.4599 6.81992 32.7899 6.65992 32.0899C5.91992 28.8599 5.52992 25.2799 5.51992 21.3799C5.05992 20.8399 4.71992 20.2999 4.52992 19.9499C4.10992 19.1699 3.73992 18.3499 3.41992 17.5099C3.16992 16.8499 2.93992 16.1999 2.73992 15.5299C2.00992 13.1999 1.56992 10.8299 1.30992 8.91988C1.19992 8.14988 1.12992 7.44988 1.06992 6.85988C0.939922 5.49988 0.919922 4.64988 0.919922 4.64988L25.1299 0.629883L24.8399 3.62988L24.7399 4.77988L24.7099 5.75988L24.6699 6.94988L24.5999 9.21988L24.5799 9.84988C24.6499 10.2999 25.3399 10.4299 25.6399 10.0599L26.3099 9.23988L28.9999 15.0099C27.6799 16.2399 21.0499 21.9499 21.0499 23.2199C21.0499 23.8299 21.2199 24.3899 21.3499 24.9099C21.4599 25.3699 21.6099 25.7799 21.7999 26.1799C22.0899 26.8599 22.4199 27.5199 22.9699 27.9599C23.5199 28.3999 23.9199 28.5799 24.5999 28.7899Z" fill="#9DAADA"/>
<path d="M21.34 24.89L14.34 25.84C13.87 25.9 13.44 25.57 13.38 25.11C13.31 24.63 13.64 24.2 14.11 24.14L21.04 23.2C21.1 23.81 21.2 24.37 21.34 24.89Z" fill="#7381CC"/>
<path d="M15.1597 40.4499H13.6097C12.5497 40.4499 11.6997 39.5899 11.6997 38.5399V38.0799C11.6997 37.0199 12.5597 36.1699 13.6097 36.1699H15.1597C16.2197 36.1699 17.0697 37.0299 17.0697 38.0799V38.5399C17.0697 39.5999 16.2197 40.4499 15.1597 40.4499Z" fill="#BAEEE6"/>
<path d="M27.7901 29.4298L19.3301 49.0098L19.1601 49.3598C17.8901 48.7998 16.7001 48.0898 15.6001 47.2598L24.6001 28.7998C25.6301 29.1198 26.5201 29.2998 27.7901 29.4298Z" fill="#7381CC"/>
<path d="M24.6597 6.93994L24.5897 9.20994L3.41975 17.5099C3.16975 16.8499 2.93975 16.1999 2.73975 15.5299L24.6597 6.93994Z" fill="#7381CC"/>
<path d="M22.9502 27.9399L7.18016 34.1299C6.99016 33.4599 6.82016 32.7899 6.66016 32.0899L21.7802 26.1599C22.0802 26.8399 22.4602 27.4299 22.9502 27.9399Z" fill="#7381CC"/>
<path d="M24.8398 3.62988L24.7398 4.77988L24.7098 5.75988L1.31982 8.91988C1.19982 8.14988 1.12982 7.44988 1.06982 6.85988L24.8398 3.62988Z" fill="#7381CC"/>
</g>
<defs>
<clipPath id="clip0_301_10988">
<rect width="28.06" height="48.74" fill="white" transform="translate(0.919922 0.629883)"/>
</clipPath>
</defs>
</svg>
