<svg width="10" height="18" viewBox="0 0 10 18" fill="none" xmlns="http://www.w3.org/2000/svg">
<g clip-path="url(#clip0_302_466)">
<path d="M2.67983 6.55485C2.67983 6.55485 2.71983 5.64485 1.64983 4.50485C0.339828 3.10485 1.55983 0.944848 3.28983 0.794848C5.34983 0.624848 8.70983 1.44485 9.09983 5.94485C9.45983 10.0748 8.82983 13.2948 5.27983 16.4848C4.36983 17.3048 2.97983 17.4848 1.97983 16.7848C1.71983 16.5948 1.47983 16.3548 1.28983 16.0348L1.17983 15.8048C1.17983 15.8048 5.95983 14.9948 6.74983 9.29485C7.48983 3.99485 4.11983 0.404848 2.51983 2.00485C2.00983 2.51485 1.71983 3.31485 2.52983 4.32485C3.21983 5.18485 3.30983 5.69485 3.40983 7.24485C3.50983 8.38485 2.67983 6.55485 2.67983 6.55485Z" fill="#BC503A"/>
<path d="M1.9698 9.43473C2.89212 9.43473 3.6398 8.68704 3.6398 7.76473C3.6398 6.84241 2.89212 6.09473 1.9698 6.09473C1.04749 6.09473 0.299805 6.84241 0.299805 7.76473C0.299805 8.68704 1.04749 9.43473 1.9698 9.43473Z" fill="#F26548"/>
</g>
<defs>
<clipPath id="clip0_302_466">
<rect width="8.89" height="16.45" fill="white" transform="translate(0.299805 0.774902)"/>
</clipPath>
</defs>
</svg>
