<svg width="41" height="80" viewBox="0 0 41 80" fill="none" xmlns="http://www.w3.org/2000/svg">
<g clip-path="url(#clip0_301_14175)">
<path d="M0.189941 73.5501V76.1501C0.189941 78.5201 0.189941 79.8801 0.189941 79.8801H40.0499V77.6201C39.8899 71.7001 38.0399 67.6001 35.4799 64.7601C35.0199 64.2401 34.5299 63.7701 34.0299 63.3301C29.9499 59.8101 24.7599 58.7901 21.5699 58.5201C19.7999 58.3701 18.6499 58.4401 18.6499 58.4401C18.6499 58.4401 18.6499 58.4001 18.6499 58.3301V50.6301C18.6499 46.9201 18.6499 42.1901 18.6399 37.1201V20.1601C18.6299 12.1501 18.6299 5.15012 18.6299 1.96012C18.6299 1.59012 18.5199 1.25012 18.3199 0.960117C17.9999 0.450117 17.4299 0.120117 16.7799 0.120117H2.06994C1.03994 0.120117 0.219941 0.940117 0.209941 1.96012V20.1601C0.199941 20.8201 0.199941 21.4801 0.209941 22.1601C0.199941 26.2001 0.199941 30.5401 0.199941 34.9701V52.6301C0.189941 61.0001 0.189941 68.5301 0.189941 73.5501Z" fill="#9DAADA"/>
<path d="M0.209961 13.3001L16.19 0.120117H16.78C17.43 0.120117 18 0.450117 18.32 0.960117L0.209961 15.8901V13.3001Z" fill="#7381CC"/>
<path d="M12.0499 63.77L2.99994 52.63H0.199941V52.32V50.63V49.73L0.469941 49.51L0.199941 49.17V46L2.00994 48.24L15.6799 36.97H0.199941V34.97H18.1099L18.6399 34.53V37.12L3.26994 49.79L3.95994 50.63H18.6499V52.63H5.57994L13.5899 62.5L18.6499 58.33C18.6499 58.4 18.6499 58.44 18.6499 58.44C18.6499 58.44 19.7999 58.37 21.5699 58.52L14.8599 64.06L13.3099 65.33L0.189941 76.15V73.55L12.0499 63.77Z" fill="#7381CC"/>
<path d="M19.9701 73.2701L34.0301 63.3301C34.5301 63.7701 35.0201 64.2401 35.4801 64.7601L21.2401 74.8301L25.3301 79.8801H22.7601L19.6001 75.9901L14.0901 79.8801H10.6401L18.3401 74.4301L19.9701 73.2701Z" fill="#7381CC"/>
<path d="M0.210137 20.1602H18.6401V22.1602H0.210137C0.200137 21.4802 0.200137 20.8202 0.210137 20.1602Z" fill="#7381CC"/>
<path d="M11.8398 32.03H14.5198C15.3798 32.03 16.0798 31.33 16.0798 30.47V26.58C16.0798 25.72 15.3798 25.02 14.5198 25.02H11.8398C10.9798 25.02 10.2798 25.72 10.2798 26.58V30.47C10.2798 31.33 10.9798 32.03 11.8398 32.03Z" fill="#BAEEE6"/>
<path d="M11.6198 16.9701H14.7398C15.4798 16.9701 16.0898 16.3701 16.0898 15.6201V11.2501C16.0898 10.2001 14.9398 9.55015 14.0498 10.1001L10.9298 12.0001C10.5298 12.2401 10.2798 12.6801 10.2798 13.1501V15.6201C10.2798 16.3701 10.8798 16.9701 11.6198 16.9701Z" fill="#BAEEE6"/>
<path d="M36.2398 77.12C36.2398 77.12 36.4498 73.25 34.3398 71.3C33.9698 70.96 33.3998 70.95 32.9898 71.26L27.7298 75.18C27.4598 75.38 27.2998 75.7 27.2998 76.04C27.2998 76.63 27.7798 77.12 28.3798 77.12H36.2398Z" fill="#BAEEE6"/>
</g>
<defs>
<clipPath id="clip0_301_14175">
<rect width="39.86" height="79.76" fill="white" transform="translate(0.189941 0.120117)"/>
</clipPath>
</defs>
</svg>
