<svg width="32" height="60" viewBox="0 0 32 60" fill="none" xmlns="http://www.w3.org/2000/svg">
<g clip-path="url(#clip0_301_8087)">
<path d="M30.6602 42.6149L13.4502 59.5249L13.1902 59.7249C12.6402 59.2249 12.2702 58.4949 11.6902 57.8349C8.07016 53.7049 6.35016 49.2649 5.54016 45.8049C5.32016 44.8849 5.17016 44.0349 5.06016 43.2749C4.80016 41.4549 4.80016 40.1649 4.80016 39.7349V27.6949C4.80016 25.8749 4.30016 24.0549 3.22016 22.5949C2.76016 21.9549 2.44016 21.3349 2.22016 20.7649C1.98016 20.1349 1.87016 19.5749 1.81016 19.1349C1.73016 18.5849 1.75016 18.2249 1.75016 18.2249L0.810156 7.3349L0.660156 5.6949L0.410156 2.7449L0.770156 2.7049L11.2002 1.6549L17.0402 1.0649L17.1402 1.0549L17.6502 0.994902L18.2302 0.934902L24.2102 0.334902L24.7302 0.284902L24.8002 0.274902V8.6549C24.8002 9.1349 24.8602 9.5049 24.9602 9.8149C25.4402 11.3449 26.5702 9.9149 26.5702 9.9149L26.6502 10.1349L28.9702 16.0649L29.0002 16.1449L23.9902 22.0449C22.8902 23.1449 20.7702 24.9649 20.7402 26.5249C20.7302 27.0949 20.7202 27.7349 20.7202 28.4549C20.7102 28.9549 20.7002 29.4849 20.7002 30.0449V30.0949C20.7002 30.1249 20.7002 30.1549 20.7102 30.1749C20.8002 31.6249 20.9602 33.1349 21.2602 34.5849C21.3802 35.1449 21.5202 35.6949 21.6902 36.2249C22.0902 37.5449 22.6602 38.7749 23.4502 39.7949C23.4902 39.8649 23.5502 39.9349 23.6002 39.9949C23.9602 40.4549 24.3902 40.8749 24.8702 41.2349C24.9302 41.2849 24.9902 41.3349 25.0502 41.3749C25.6702 41.8149 26.3802 42.1649 27.1902 42.3849C27.9102 42.5949 28.7202 42.7049 29.6102 42.7049C29.9702 42.7049 30.3202 42.6749 30.6602 42.6149Z" fill="#9DAADA"/>
<path d="M31.1399 42.515L16.0699 56.945L13.1899 59.725C12.6399 59.225 12.1399 58.585 11.6899 57.835L14.5599 54.965L27.1899 42.385C27.9099 42.595 28.7199 42.705 29.6099 42.705C29.9699 42.705 30.3199 42.675 30.6599 42.615C30.8199 42.595 30.9799 42.565 31.1399 42.515Z" fill="#7381CC"/>
<path d="M24.8701 41.2349L5.54006 45.8049C5.32006 44.8849 5.17006 44.0349 5.06006 43.2749L23.4501 39.7949C23.4901 39.8649 23.5501 39.9349 23.6001 39.9949C23.9601 40.4549 24.3901 40.8749 24.8701 41.2349Z" fill="#7381CC"/>
<path d="M21.6903 36.225H4.80029V34.585H21.2603C21.3803 35.145 21.5203 35.695 21.6903 36.225Z" fill="#7381CC"/>
<path d="M20.7201 28.4548C20.7101 28.9548 20.7001 29.4848 20.7001 30.0448V30.0948H13.6501C13.2001 30.0948 12.8301 29.7248 12.8301 29.2748C12.8301 28.8148 13.2001 28.4548 13.6501 28.4548H20.7201Z" fill="#7381CC"/>
<path d="M24.9601 9.81493L2.22006 20.7649C1.98006 20.1349 1.87006 19.5749 1.81006 19.1449L24.8001 8.05493V8.65493C24.8001 9.13493 24.8601 9.50493 24.9601 9.81493Z" fill="#7381CC"/>
<path d="M24.8002 5.35498V6.99498L0.810156 7.33498L0.660156 5.69498L24.8002 5.35498Z" fill="#7381CC"/>
<path d="M12.9202 50.3449H11.5902C10.5302 50.3449 9.68018 49.4849 9.68018 48.4349V48.1449C9.68018 47.0849 10.5402 46.2349 11.5902 46.2349H12.9202C13.9802 46.2349 14.8302 47.0949 14.8302 48.1449V48.4349C14.8302 49.4849 13.9802 50.3449 12.9202 50.3449Z" fill="#BAEEE6"/>
</g>
<defs>
<clipPath id="clip0_301_8087">
<rect width="30.73" height="59.45" fill="white" transform="translate(0.410156 0.274902)"/>
</clipPath>
</defs>
</svg>
