<svg width="10" height="18" viewBox="0 0 10 18" fill="none" xmlns="http://www.w3.org/2000/svg">
<g clip-path="url(#clip0_302_445)">
<path d="M2.81996 6.55485C2.81996 6.55485 2.85996 5.64485 1.78996 4.50485C0.479965 3.10485 1.69996 0.944848 3.42996 0.794848C5.48996 0.624848 8.84996 1.44485 9.23996 5.94485C9.59996 10.0748 8.96996 13.2948 5.41996 16.4848C4.50996 17.3048 3.11996 17.4848 2.11996 16.7848C1.85996 16.5948 1.61996 16.3548 1.42996 16.0348L1.31996 15.8048C1.31996 15.8048 6.09996 14.9948 6.88996 9.29485C7.62996 3.99485 4.25996 0.404848 2.65996 2.00485C2.14996 2.51485 1.85996 3.31485 2.66996 4.32485C3.35996 5.18485 3.44996 5.69485 3.54996 7.24485C3.64996 8.38485 2.81996 6.55485 2.81996 6.55485Z" fill="#BC503A"/>
<path d="M2.10994 9.43473C3.03226 9.43473 3.77994 8.68704 3.77994 7.76473C3.77994 6.84241 3.03226 6.09473 2.10994 6.09473C1.18763 6.09473 0.439941 6.84241 0.439941 7.76473C0.439941 8.68704 1.18763 9.43473 2.10994 9.43473Z" fill="#F26548"/>
</g>
<defs>
<clipPath id="clip0_302_445">
<rect width="8.89" height="16.45" fill="white" transform="translate(0.439941 0.774902)"/>
</clipPath>
</defs>
</svg>
