<svg width="10" height="18" viewBox="0 0 10 18" fill="none" xmlns="http://www.w3.org/2000/svg">
<g clip-path="url(#clip0_301_14141)">
<path d="M3.29018 6.55485C3.29018 6.55485 3.33018 5.64485 2.26018 4.50485C0.95018 3.10485 2.17018 0.944848 3.90018 0.794848C5.96018 0.624848 9.32018 1.44485 9.71018 5.94485C10.0702 10.0748 9.44018 13.2948 5.89018 16.4848C4.98018 17.3048 3.59018 17.4848 2.59018 16.7848C2.33018 16.5948 2.09018 16.3548 1.90018 16.0348L1.79018 15.8048C1.79018 15.8048 6.57018 14.9948 7.36018 9.29485C8.10018 3.99485 4.73018 0.404848 3.13018 2.00485C2.62018 2.51485 2.33018 3.31485 3.14018 4.32485C3.83018 5.18485 3.92018 5.69485 4.02018 7.24485C4.12018 8.38485 3.29018 6.55485 3.29018 6.55485Z" fill="#BC503A"/>
<path d="M2.58016 9.43473C3.50247 9.43473 4.25016 8.68704 4.25016 7.76473C4.25016 6.84241 3.50247 6.09473 2.58016 6.09473C1.65784 6.09473 0.910156 6.84241 0.910156 7.76473C0.910156 8.68704 1.65784 9.43473 2.58016 9.43473Z" fill="#F26548"/>
</g>
<defs>
<clipPath id="clip0_301_14141">
<rect width="8.89" height="16.45" fill="white" transform="translate(0.910156 0.774902)"/>
</clipPath>
</defs>
</svg>
