<svg width="10" height="18" viewBox="0 0 10 18" fill="none" xmlns="http://www.w3.org/2000/svg">
<g clip-path="url(#clip0_301_8117)">
<path d="M3.02993 6.55485C3.02993 6.55485 3.06993 5.64485 1.99993 4.50485C0.689926 3.10485 1.90993 0.944848 3.63993 0.794848C5.69993 0.624848 9.05993 1.44485 9.44993 5.94485C9.80993 10.0748 9.17993 13.2948 5.62993 16.4848C4.71993 17.3048 3.32993 17.4848 2.32993 16.7848C2.06993 16.5948 1.82993 16.3548 1.63993 16.0348L1.52993 15.8048C1.52993 15.8048 6.30993 14.9948 7.09993 9.29485C7.83993 3.99485 4.46993 0.404848 2.86993 2.00485C2.35993 2.51485 2.06993 3.31485 2.87993 4.32485C3.56993 5.18485 3.65993 5.69485 3.75993 7.24485C3.85993 8.38485 3.02993 6.55485 3.02993 6.55485Z" fill="#BC503A"/>
<path d="M2.3199 9.43473C3.24222 9.43473 3.9899 8.68704 3.9899 7.76473C3.9899 6.84241 3.24222 6.09473 2.3199 6.09473C1.39759 6.09473 0.649902 6.84241 0.649902 7.76473C0.649902 8.68704 1.39759 9.43473 2.3199 9.43473Z" fill="#F26548"/>
</g>
<defs>
<clipPath id="clip0_301_8117">
<rect width="8.89" height="16.45" fill="white" transform="translate(0.649902 0.774902)"/>
</clipPath>
</defs>
</svg>
