<svg width="28" height="74" viewBox="0 0 28 74" fill="none" xmlns="http://www.w3.org/2000/svg">
<g clip-path="url(#clip0_301_3219)">
<path d="M7.48984 39.615C7.49984 38.695 7.49984 37.785 7.49984 36.905C7.49984 36.235 7.47984 35.575 7.45984 34.915C7.42984 34.345 7.39984 33.795 7.34984 33.245C6.00984 16.475 4.07984 3.915 4.07984 3.915L20.4998 0.375C21.0598 0.885 23.4798 24.295 23.3498 30.495C23.3398 31.055 23.4498 31.615 23.4698 32.165C23.5498 33.455 23.5898 34.745 23.5898 36.035V48.275C23.5898 50.125 24.0998 51.965 25.1898 53.455C25.6598 54.095 25.9798 54.725 26.2098 55.315C26.4498 55.955 26.5698 56.525 26.6298 56.965C26.7098 57.535 26.6898 57.885 26.6898 57.885L27.4198 73.615L4.79984 73.315V67.275C4.79984 66.795 4.73984 66.405 4.63984 66.105C4.15984 64.545 2.68984 64.985 2.68984 64.985L0.839844 58.455L5.61984 53.675C6.73984 52.555 7.37984 51.045 7.39984 49.465C7.40984 48.895 7.41984 48.235 7.42984 47.505C7.43984 46.985 7.44984 46.425 7.44984 45.835C7.46984 44.415 7.47984 42.855 7.48984 41.275C7.48984 40.715 7.48984 40.165 7.48984 39.615Z" fill="#9DAADA"/>
<path d="M7.34961 33.2451L23.3496 30.4951C23.4096 31.0551 23.4496 31.6151 23.4696 32.1651L7.45961 34.9151C7.43961 34.3451 7.39961 33.7851 7.34961 33.2451Z" fill="#7381CC"/>
<path d="M7.48975 41.275C7.48975 40.715 7.49975 40.155 7.49975 39.605H23.6097V41.275H7.48975Z" fill="#7381CC"/>
<path d="M7.42969 47.505C7.43969 46.985 7.44969 46.425 7.44969 45.835H14.6097C15.0697 45.835 15.4397 46.205 15.4397 46.665C15.4397 47.125 15.0697 47.495 14.6097 47.495H7.42969V47.505Z" fill="#7381CC"/>
<path d="M4.63965 66.1049L26.2196 55.3149C26.4596 55.9549 26.5796 56.5249 26.6396 56.9649L4.79965 67.8849V67.2749C4.79965 66.7949 4.73965 66.4149 4.63965 66.1049Z" fill="#7381CC"/>
<path d="M4.7998 70.6251V68.9651H27.2098L27.2898 70.6251H4.7998Z" fill="#7381CC"/>
<path d="M17.3399 24.2949H18.9999C19.9899 24.2949 20.7899 25.0949 20.7899 26.0849V26.6849C20.7899 27.6749 19.9899 28.4749 18.9999 28.4749H17.3399C16.3499 28.4749 15.5499 27.6749 15.5499 26.6849V26.0849C15.5399 25.0949 16.3499 24.2949 17.3399 24.2949Z" fill="#BAEEE6"/>
</g>
<defs>
<clipPath id="clip0_301_3219">
<rect width="26.59" height="73.25" fill="white" transform="translate(0.839844 0.375)"/>
</clipPath>
</defs>
</svg>
