<svg width="30" height="86" viewBox="0 0 30 86" fill="none" xmlns="http://www.w3.org/2000/svg">
<g clip-path="url(#clip0_301_3181)">
<path d="M16.1102 85.2551C15.7602 85.2551 15.4102 85.2051 15.0702 85.0951C13.4702 84.6051 12.4502 82.9151 12.6902 81.1751L12.8002 79.9851C12.4402 80.1051 12.0602 80.1751 11.6702 80.1751C11.1602 80.1751 10.6702 80.0651 10.2002 79.8451C8.73016 79.1651 7.94016 77.4351 8.34016 75.7751L8.73016 70.5551L8.62016 70.5451L8.87016 67.2551L8.88016 65.3751L6.63016 67.8651C5.99016 68.6251 5.03016 69.0651 4.01016 69.0651C3.19016 69.0651 2.40016 68.7751 1.77016 68.2451C1.06016 67.6451 0.630159 66.8151 0.550159 65.8951C0.470159 64.9751 0.760159 64.0751 1.36016 63.3751L6.09016 58.0851L12.5802 52.4351C12.5702 52.2551 12.4802 51.1051 12.4802 51.1051L12.3702 49.5451C10.6802 27.7951 8.96016 12.1451 7.41016 4.20512C6.89016 3.86512 6.56016 3.28512 6.56016 2.63512C6.56016 1.59512 7.41016 0.745117 8.45016 0.745117H20.2002C21.2402 0.745117 22.0902 1.59512 22.0902 2.63512C22.0902 3.26512 21.7802 3.81512 21.3102 4.16512C23.6402 17.5451 25.1302 32.2851 25.7402 47.9751L25.7902 49.5051C25.8102 50.1551 25.8402 50.8051 25.8602 51.4551C25.9002 51.5151 25.9502 51.5951 26.0102 51.6951C26.4502 52.4051 27.3802 53.8951 28.1502 56.1951C28.3302 56.7151 28.5102 57.3151 28.6802 57.9651C29.2302 60.1351 29.5202 62.4951 29.5402 64.9851L29.5602 68.9251L29.5902 77.5851C29.4102 79.4651 27.9302 80.8151 26.1402 80.8151C26.0202 80.8151 25.9002 80.8051 25.7802 80.7951C25.2402 80.7451 24.6502 80.4951 24.1202 80.1651C23.6102 81.0951 22.7202 81.9551 21.3302 81.9551C20.7202 81.9551 20.1502 81.7851 19.6502 81.4751L19.5402 82.2551C19.3102 83.9651 17.8402 85.2551 16.1102 85.2551Z" fill="#49535C"/>
<path d="M28.6004 77.1451C28.4704 78.4951 27.2604 79.4951 25.9004 79.3551C25.1604 79.2851 24.1004 78.5751 23.7004 78.0051C23.7004 78.0051 23.2904 80.5051 21.3504 80.5051C20.1104 80.5051 19.1804 79.5251 19.0204 78.3851L18.5704 81.6751C18.3704 83.1551 16.8804 84.1551 15.3804 83.6951C14.2104 83.3351 13.5304 82.0951 13.7004 80.8751L14.0804 76.9151C13.6904 78.3651 12.0704 79.1651 10.6504 78.5051C9.54037 77.9951 9.04037 76.6851 9.36037 75.5051L9.89037 68.4651L9.91037 65.4051L11.2304 54.5351L11.3804 54.4051L12.4604 53.4651L13.6604 52.4251C13.6504 52.3951 13.6004 51.7351 13.5104 50.5951C13.4804 50.1451 13.4404 49.6351 13.4004 49.0451C12.6604 39.6151 10.5004 13.0551 8.13037 2.19507H20.0504C22.3304 14.8151 24.0704 29.8251 24.7604 47.5751C24.7704 48.0151 24.7904 48.4551 24.8004 48.8951C24.8304 49.6751 24.8604 50.4551 24.8804 51.2451C24.8904 51.4951 26.1804 52.9951 27.2204 56.0751C27.4004 56.5951 27.5704 57.1651 27.7304 57.7751C28.2104 59.6551 28.5604 61.9851 28.5604 64.8151L28.6004 77.1451Z" fill="#4E6171"/>
<path d="M6.83026 58.3652L2.16026 63.5852C1.28026 64.6252 1.41026 66.1752 2.45026 67.0552C3.49026 67.9352 5.04026 67.8052 5.92026 66.7652L9.10026 63.2452C9.39026 62.9252 9.92026 63.1352 9.92026 63.5652L9.91026 65.4052L11.2303 54.5352L6.83026 58.3652Z" fill="#111E2B"/>
<path d="M16.3704 2.79497L16.3204 2.34497H12.6104L12.7404 2.95497C14.1104 9.31497 16.5204 23.005 17.7404 30.055C17.8104 30.475 18.4404 30.415 18.4304 29.985C18.0704 18.945 16.3904 2.98497 16.3704 2.79497Z" fill="#738293"/>
<path d="M19.8702 57.675C21.1847 57.675 22.2502 56.6095 22.2502 55.295C22.2502 53.9806 21.1847 52.915 19.8702 52.915C18.5558 52.915 17.4902 53.9806 17.4902 55.295C17.4902 56.6095 18.5558 57.675 19.8702 57.675Z" fill="#111E2B"/>
<path d="M27.2204 56.0751C26.5104 59.4751 23.4804 62.0351 19.8804 62.0351C15.7404 62.0351 12.3804 58.6751 12.3804 54.5351C12.3804 54.1751 12.4104 53.8151 12.4604 53.4651L11.3804 54.4051V54.5351C11.3804 59.2251 15.1904 63.0351 19.8804 63.0351C23.4104 63.0351 26.4604 60.8651 27.7304 57.7751C27.5704 57.1651 27.4004 56.5951 27.2204 56.0751Z" fill="#111E2B"/>
<path d="M14.9804 71.6551L14.9604 69.5151H20.3305V71.6551H14.9804Z" fill="#D0E2EA"/>
<path d="M20.3301 67.6251L24.4901 67.4651C25.0101 67.4651 25.4401 67.8851 25.4401 68.4151C25.4401 68.9351 25.0201 69.3651 24.4901 69.3651L20.3301 69.5251V67.6251Z" fill="#D0E2EA"/>
<path d="M25.6703 66.085L28.6603 65.675L28.6003 67.595L25.9303 67.955C25.4103 68.025 24.9403 67.6651 24.8603 67.1451C24.7903 66.6451 25.1503 66.165 25.6703 66.085Z" fill="#D0E2EA"/>
<path d="M9.73047 69.1852L9.87047 67.2952L14.9605 67.6252V69.5152L9.73047 69.1852Z" fill="#D0E2EA"/>
</g>
<defs>
<clipPath id="clip0_301_3181">
<rect width="29.02" height="84.51" fill="white" transform="translate(0.560059 0.745117)"/>
</clipPath>
</defs>
</svg>
