<svg width="41" height="80" viewBox="0 0 41 80" fill="none" xmlns="http://www.w3.org/2000/svg">
<g clip-path="url(#clip0_301_3264)">
<path d="M0.439941 73.5501V76.1501C0.439941 78.5201 0.439941 79.8801 0.439941 79.8801H40.2999V77.6201C40.1399 71.7001 38.2899 67.6001 35.7299 64.7601C35.2699 64.2401 34.7799 63.7701 34.2799 63.3301C30.1999 59.8101 25.0099 58.7901 21.8199 58.5201C20.0499 58.3701 18.8999 58.4401 18.8999 58.4401C18.8999 58.4401 18.8999 58.4001 18.8999 58.3301V50.6301C18.8999 46.9201 18.8999 42.1901 18.8899 37.1201V20.1601C18.8799 12.1501 18.8799 5.15012 18.8799 1.96012C18.8799 1.59012 18.7699 1.25012 18.5699 0.960117C18.2499 0.450117 17.6799 0.120117 17.0299 0.120117H2.31994C1.28994 0.120117 0.469941 0.940117 0.459941 1.96012V20.1601C0.449941 20.8201 0.449941 21.4801 0.459941 22.1601C0.449941 26.2001 0.449941 30.5401 0.449941 34.9701V52.6301C0.439941 61.0001 0.439941 68.5301 0.439941 73.5501Z" fill="#9DAADA"/>
<path d="M0.459961 13.3001L16.44 0.120117H17.03C17.68 0.120117 18.25 0.450117 18.57 0.960117L0.459961 15.8901V13.3001Z" fill="#7381CC"/>
<path d="M12.2999 63.77L3.24994 52.63H0.449941V52.32V50.63V49.73L0.719941 49.51L0.449941 49.17V46L2.25994 48.24L15.9299 36.97H0.449941V34.97H18.3599L18.8899 34.53V37.12L3.51994 49.79L4.20994 50.63H18.8999V52.63H5.82994L13.8399 62.5L18.8999 58.33C18.8999 58.4 18.8999 58.44 18.8999 58.44C18.8999 58.44 20.0499 58.37 21.8199 58.52L15.1099 64.06L13.5599 65.33L0.439941 76.15V73.55L12.2999 63.77Z" fill="#7381CC"/>
<path d="M20.2201 73.2701L34.2801 63.3301C34.7801 63.7701 35.2701 64.2401 35.7301 64.7601L21.4901 74.8301L25.5801 79.8801H23.0101L19.8501 75.9901L14.3401 79.8801H10.8901L18.5901 74.4301L20.2201 73.2701Z" fill="#7381CC"/>
<path d="M0.460137 20.1602H18.8901V22.1602H0.460137C0.450137 21.4802 0.450137 20.8202 0.460137 20.1602Z" fill="#7381CC"/>
<path d="M12.0898 32.03H14.7698C15.6298 32.03 16.3298 31.33 16.3298 30.47V26.58C16.3298 25.72 15.6298 25.02 14.7698 25.02H12.0898C11.2298 25.02 10.5298 25.72 10.5298 26.58V30.47C10.5298 31.33 11.2298 32.03 12.0898 32.03Z" fill="#BAEEE6"/>
<path d="M11.8698 16.9701H14.9898C15.7298 16.9701 16.3398 16.3701 16.3398 15.6201V11.2501C16.3398 10.2001 15.1898 9.55015 14.2998 10.1001L11.1798 12.0001C10.7798 12.2401 10.5298 12.6801 10.5298 13.1501V15.6201C10.5298 16.3701 11.1298 16.9701 11.8698 16.9701Z" fill="#BAEEE6"/>
<path d="M36.4898 77.12C36.4898 77.12 36.6998 73.25 34.5898 71.3C34.2198 70.96 33.6498 70.95 33.2398 71.26L27.9798 75.18C27.7098 75.38 27.5498 75.7 27.5498 76.04C27.5498 76.63 28.0298 77.12 28.6298 77.12H36.4898Z" fill="#BAEEE6"/>
</g>
<defs>
<clipPath id="clip0_301_3264">
<rect width="39.86" height="79.76" fill="white" transform="translate(0.439941 0.120117)"/>
</clipPath>
</defs>
</svg>
