<svg width="32" height="82" viewBox="0 0 32 82" fill="none" xmlns="http://www.w3.org/2000/svg">
<g clip-path="url(#clip0_301_14197)">
<path d="M29.9801 68.18C29.2001 68.33 28.4301 68.4 27.6701 68.4C27.4001 68.4 27.1301 68.39 26.8701 68.37C25.1901 68.23 23.6701 67.58 22.2201 66.39C19.8201 64.41 18.4401 61.28 18.4401 57.8V40.44C18.5201 40.36 18.6101 40.27 18.7001 40.17C18.7601 40.11 18.8201 40.05 18.8801 39.98L18.9601 39.88L25.4201 32.74L29.3901 26.86C29.6201 26.5 29.7801 26.1 29.8601 25.67C30.1101 24.42 29.6501 23.15 28.6201 22.3C28.5301 22.22 28.4301 22.14 28.3201 22.07C27.7701 21.72 27.1301 21.54 26.4801 21.54C26.2801 21.54 26.0901 21.56 25.8901 21.59C24.9101 21.75 24.0501 22.31 23.5501 23.11L21.9101 25.52L21.9901 22.61L22.4901 16.4L22.6401 14.42L23.2301 7.13C23.4501 5.43 22.4901 3.81 21.0101 3.31L20.9001 3.26L20.8401 3.24C20.5401 3.15 20.2101 3.1 19.8701 3.1C19.7801 3.1 19.6901 3.1 19.6001 3.11C18.9301 3.15 18.2901 3.39 17.7501 3.79C17.1201 4.26 16.6901 4.9 16.4701 5.72C16.4301 5.85 16.4001 5.97 16.3901 6.07L16.1001 7.7L16.0701 4.09C16.0701 2.65 15.2201 1.32 13.9601 0.78C13.6901 0.66 13.4301 0.58 13.1801 0.54C13.0101 0.51 12.8401 0.5 12.6701 0.5C12.4301 0.5 12.1901 0.53 11.9601 0.57C11.2001 0.71 10.5301 1.09 10.0201 1.67C9.4501 2.31 9.1401 3.12 9.1401 3.96V4.77C8.9301 4.68 8.7101 4.61 8.5001 4.57L8.3501 4.54L8.2601 4.52C8.1701 4.51 8.0701 4.5 7.9901 4.5C7.9001 4.49 7.8001 4.48 7.7101 4.48C7.6301 4.48 7.5401 4.48 7.5401 4.49L7.3901 4.5L7.3101 4.52C7.1401 4.55 6.9801 4.58 6.8501 4.62C6.7601 4.65 6.6701 4.68 6.5601 4.72C6.4501 4.76 6.3501 4.8 6.2201 4.87C5.9501 5.01 5.7001 5.19 5.4401 5.44C5.3901 5.48 5.3501 5.53 5.3501 5.54C5.2901 5.59 5.2301 5.65 5.2101 5.67L5.1501 5.73L5.1301 5.76H5.0601L4.7801 6.29C4.7201 6.38 4.6701 6.48 4.6501 6.56L4.6001 6.68C4.5601 6.78 4.5501 6.86 4.5201 6.95L4.5001 6.94L4.4501 7.09C4.4201 7.18 4.4101 7.27 4.3901 7.35H4.4001C4.4001 7.36 4.4001 7.36 4.3901 7.37H4.3801V7.4C4.3801 7.41 4.3701 7.43 4.3701 7.44L4.3501 7.54C4.3201 7.72 4.3101 7.91 4.3101 8.09V10.9H4.2901C4.1901 10.88 4.0801 10.86 4.0001 10.84C3.8501 10.82 3.6901 10.8 3.5201 10.8H3.4901H3.2601C3.2601 10.8 3.1101 10.82 3.0701 10.83C2.9201 10.85 2.7801 10.87 2.6401 10.9C2.4701 10.94 2.3201 11 2.2101 11.05L2.1001 11.09L2.0401 11.12C1.8801 11.19 1.7301 11.28 1.5601 11.4L1.4901 11.45C1.3901 11.52 1.2901 11.61 1.1601 11.72C1.1101 11.76 1.0601 11.8 0.970098 11.89L0.930098 11.94L0.610098 12.35L0.580098 12.4C0.540098 12.46 0.510098 12.52 0.460098 12.61C0.420098 12.68 0.270098 13 0.270098 13C0.230098 13.1 0.200098 13.2 0.150098 13.39C0.130098 13.46 0.110098 13.52 0.100098 13.59C0.0500977 13.87 0.0300977 14.14 0.0400977 14.44C0.0400977 14.44 1.2401 28.84 1.2501 28.88C1.2701 29.17 1.3001 29.47 1.3501 29.82L1.3801 30.01C1.4301 30.36 1.5001 30.71 1.5701 31.06L1.5901 31.16C1.6701 31.52 1.7501 31.87 1.8701 32.3C1.9601 32.62 2.0501 32.93 2.1501 33.28V33.55L2.2701 33.67C2.3801 34 2.4901 34.33 2.6101 34.68L2.8801 35.43L3.3601 36.65C3.5801 37.19 3.7301 37.52 3.7301 37.52L3.8201 37.72C3.8501 37.79 3.8901 37.86 3.9501 37.97L4.1201 38.28L4.9901 37.79L4.1801 38.37L4.4801 38.85C4.4801 38.85 4.5401 38.94 4.5901 39C4.6201 39.04 4.8101 39.31 4.8101 39.31L4.8901 39.41C4.9601 39.5 5.0301 39.59 5.0901 39.66C5.0901 39.66 5.3501 39.96 5.3801 39.99C5.3701 40.09 5.3701 40.18 5.3701 40.28V57.8C5.3701 65.17 8.4701 71.98 13.8801 76.48C17.4201 79.42 21.4501 81.08 25.8501 81.43C26.4401 81.48 27.0801 81.5 27.7701 81.5C28.6101 81.5 29.4501 81.46 30.2901 81.38L31.1901 81.29V67.96L29.9801 68.18Z" fill="#49535C"/>
<path d="M16.3202 38.8999C16.3002 39.1999 16.3302 39.2399 16.3402 39.1599C16.3302 39.0599 16.3302 38.9799 16.3302 38.9299C16.3302 38.9199 16.3202 38.9099 16.3202 38.8999Z" fill="#BDBDBD"/>
<path d="M17.4102 40.01C17.5702 39.9 17.7602 39.73 17.9702 39.5C17.9502 39.52 17.9302 39.54 17.9102 39.56C17.7202 39.76 17.5602 39.91 17.4102 40.01Z" fill="#F6C09C"/>
<path d="M28.5399 26.33L24.6199 32.13L18.1099 39.33H18.0999V39.32C12.3899 33.49 18.3899 28.07 18.3899 28.07C14.3599 28.54 10.1299 25.38 10.1299 21.33V3.95997C10.1299 2.45997 11.4599 1.26997 13.0099 1.52997C14.2199 1.71997 15.0599 2.85997 15.0599 4.08997L15.1299 13.76L15.1399 15.76L15.1599 18.65L15.6699 15.77L16.0199 13.8L17.3599 6.23997C17.5499 4.74997 19.0499 3.74997 20.5399 4.19997C21.7099 4.55997 22.3899 5.78997 22.2299 7.00997L21.6399 14.34L21.4899 16.33L20.9899 22.54L20.8599 27.4C20.9099 27.83 21.4699 27.96 21.7099 27.6L24.3799 23.68C25.1099 22.53 26.6399 22.2 27.7899 22.93C28.9399 23.66 29.2799 25.18 28.5399 26.33Z" fill="#4E6171"/>
<path d="M10.13 7.26006V7.25006C10.06 7.00006 9.94004 6.77006 9.80004 6.57006L9.79004 6.56006C9.94004 6.78006 10.06 7.02006 10.13 7.28006V7.26006Z" fill="#AD7153"/>
<path d="M26.7803 69.38C24.8903 69.22 23.1903 68.5 21.5803 67.17C18.9403 64.99 17.4403 61.57 17.4403 57.81V40.28C17.4403 40.19 17.4103 40.12 17.4103 40.02C16.5603 40.61 16.3903 39.67 16.3503 39.16C16.3603 39.11 16.3603 39.03 16.3403 38.93C16.3403 38.89 16.3403 38.87 16.3303 38.87C16.3303 38.89 16.3303 38.89 16.3303 38.9C16.2803 38.7 16.1203 38.49 15.6803 38.61C15.4603 38.67 15.2303 38.7 15.0203 38.7C13.9703 38.7 13.0103 38.02 12.6803 36.97C12.4603 37.19 12.2103 37.37 11.9103 37.5C11.5903 37.64 11.2603 37.71 10.9303 37.71C10.3103 37.71 9.72033 37.45 9.26033 37.03C9.03033 37.7 8.53033 38.26 7.82033 38.53C7.53033 38.64 7.96033 40.38 7.67033 40.38C7.31033 40.38 6.85033 40.07 6.40033 39.63C6.38033 39.85 6.34033 40.06 6.34033 40.27V57.8C6.34033 64.88 9.31033 71.4 14.4903 75.71C17.8703 78.51 21.7103 80.1 25.9003 80.43C26.5003 80.48 27.1203 80.5 27.7403 80.5C28.5403 80.5 29.3503 80.46 30.1603 80.38V69.17C29.0103 69.39 27.8703 69.46 26.7803 69.38Z" fill="#49535C"/>
<path d="M17.96 39.4901C18.01 39.4401 18.06 39.3901 18.11 39.3301C18.06 39.4001 18.01 39.4401 17.96 39.4901Z" fill="#AD7153"/>
<path d="M18.1201 39.32V39.33C18.0701 39.39 18.0301 39.44 17.9801 39.49C17.9601 39.51 17.9401 39.53 17.9201 39.55C17.7301 39.75 17.5701 39.9 17.4201 40V40.01C17.1701 40.19 16.8001 40.34 16.4201 40.48C15.4401 40.82 14.3901 40.97 13.3401 40.99C8.96012 41.08 7.54012 40.87 6.41012 39.63L6.32012 39.54C6.21012 39.43 6.10012 39.31 6.00012 39.19C5.95012 39.13 5.90012 39.08 5.85012 39.01C5.62012 38.73 5.40012 38.44 5.22012 38.15C5.16012 38.07 5.11012 37.99 5.06012 37.91C4.99012 37.8 4.93012 37.68 4.87012 37.58C4.86012 37.57 4.85012 37.55 4.84012 37.53C4.83012 37.52 4.83012 37.5 4.82012 37.49C4.75012 37.35 4.68012 37.22 4.64012 37.11C4.64012 37.11 4.45012 36.68 4.18012 36C4.16012 35.95 4.14012 35.91 4.12012 35.85C4.08012 35.75 4.03012 35.63 3.99012 35.52C3.86012 35.2 3.73012 34.84 3.59012 34.45C3.45012 34.04 3.30012 33.6 3.16012 33.14C3.16012 33.13 3.15012 33.13 3.15012 33.12C2.70012 31.67 2.31012 30.07 2.24012 28.69L2.19012 28.07L1.57012 20.63L1.41012 18.72L1.05012 14.35C1.02012 13.65 1.29012 13.01 1.73012 12.55C1.84012 12.44 1.95012 12.34 2.08012 12.25C2.12012 12.22 2.17012 12.2 2.22012 12.17C2.30012 12.12 2.38012 12.06 2.47012 12.02C2.74012 11.9 3.03012 11.82 3.34012 11.8C3.36012 11.8 3.39012 11.79 3.41012 11.79C3.61012 11.78 3.81012 11.8 4.00012 11.85C4.02012 11.86 4.04012 11.86 4.06012 11.87C4.16012 11.89 4.26012 11.92 4.36012 11.96C4.44012 11.99 4.51012 12.03 4.59012 12.06C4.66012 12.1 4.73012 12.14 4.79012 12.18C4.97012 12.29 5.13012 12.41 5.27012 12.56C5.28012 12.57 5.30012 12.59 5.32012 12.6V8.08998C5.32012 7.92998 5.33012 7.77998 5.36012 7.61998C5.36012 7.60998 5.37012 7.59998 5.37012 7.58998C5.39012 7.47998 5.42012 7.36998 5.46012 7.25998C5.48012 7.18998 5.50012 7.12998 5.53012 7.05998C5.58012 6.94998 5.62012 6.83998 5.68012 6.72998H5.69012C5.76012 6.59998 5.84012 6.48998 5.92012 6.37998C5.96012 6.33998 6.01012 6.28998 6.05012 6.24998C6.08012 6.20998 6.12012 6.17998 6.15012 6.14998C6.22012 6.07998 6.29012 6.01998 6.36012 5.96998C6.42012 5.91998 6.48012 5.87998 6.55012 5.83998C6.60012 5.80998 6.65012 5.76998 6.71012 5.73998C6.79012 5.69998 6.88012 5.65998 6.98012 5.62998C7.02012 5.60998 7.06012 5.58998 7.11012 5.57998C7.23012 5.53998 7.36012 5.51998 7.49012 5.49998C7.51012 5.49998 7.53012 5.48998 7.55012 5.48998C7.77012 5.46998 7.98012 5.48998 8.19012 5.51998C8.22012 5.52998 8.24012 5.52998 8.27012 5.53998C8.68012 5.61998 9.04012 5.79998 9.35012 6.05998C9.37012 6.07998 9.39012 6.08998 9.42012 6.11998C9.56012 6.24998 9.69012 6.38998 9.80012 6.54998C9.95012 6.76998 10.0701 6.99998 10.1501 7.25998V21.33C10.1501 25.38 14.3801 28.54 18.4101 28.07C18.4101 28.07 12.4101 33.49 18.1201 39.32Z" fill="#111E2B"/>
<path d="M15.1299 13.76L15.1399 15.76H10.1299V13.76H15.1299Z" fill="#D0E2EA"/>
<path d="M9.73015 22.0599C9.19015 22.0599 8.74015 21.6199 8.73015 21.0799C8.72015 20.5299 9.16015 20.0699 9.71015 20.0599L16.0101 19.9399C16.5601 19.9499 17.0201 20.3699 17.0301 20.9199C17.0401 21.4699 16.6001 21.9299 16.0501 21.9399L9.75015 22.0599C9.74015 22.0599 9.74015 22.0599 9.73015 22.0599Z" fill="#111E2B"/>
<path d="M10.64 17.76L6.25 17.93C5.7 17.93 5.25 17.48 5.25 16.93C5.25 16.38 5.7 15.93 6.25 15.93L10.64 15.76V17.76Z" fill="#4E6171"/>
<path d="M4.49014 20.23L1.55014 20.63L1.39014 18.63L4.21014 18.24C4.76014 18.17 5.26014 18.55 5.34014 19.09C5.42014 19.65 5.04014 20.15 4.49014 20.23Z" fill="#4E6171"/>
<path d="M21.6399 14.34L21.4899 16.33L15.6699 15.77L16.0199 13.8L21.6399 14.34Z" fill="#D0E2EA"/>
<path d="M17.96 74.92C17.87 74.92 17.78 74.9 17.7 74.85C15.65 73.63 13.83 71.94 12.3 69.84C9.68004 66.24 8.29004 61.8 8.29004 56.98V44.21C8.29004 43.93 8.51004 43.71 8.79004 43.71C9.07004 43.71 9.29004 43.93 9.29004 44.21V56.99C9.29004 61.59 10.61 65.83 13.11 69.26C14.56 71.25 16.28 72.84 18.22 74C18.46 74.14 18.53 74.45 18.39 74.69C18.3 74.84 18.13 74.92 17.96 74.92Z" fill="#111E2B"/>
</g>
<defs>
<clipPath id="clip0_301_14197">
<rect width="31.13" height="81" fill="white" transform="translate(0.0400391 0.5)"/>
</clipPath>
</defs>
</svg>
