<svg width="45" height="42" viewBox="0 0 45 42" fill="none" xmlns="http://www.w3.org/2000/svg">
<g clip-path="url(#clip0_301_5189)">
<path d="M22.9097 33.0099C20.8997 34.2799 18.7597 36.8799 15.3197 34.6299C13.7697 33.6199 10.8697 31.7499 8.93965 29.1799L1.30965 18.7499C0.83965 18.0799 0.68965 17.2499 0.88965 16.4599C0.93965 16.2699 0.99965 16.0999 1.07965 15.9299C1.08965 15.8899 1.12965 15.8299 1.16965 15.7699C1.23965 15.6299 1.28965 15.5299 1.34965 15.4499C1.56965 15.1499 1.81965 14.8899 2.10965 14.6799L2.15965 14.6299L2.19965 14.6099L2.27965 14.5599C2.45965 14.4399 2.65965 14.3499 2.85965 14.2899L2.94965 14.2599C3.00965 14.2399 3.06965 14.2199 3.12965 14.1999L1.76965 12.0299C1.67965 11.8799 1.60965 11.7499 1.54965 11.6099L1.47965 11.5099L1.46965 11.4099C1.43965 11.3099 1.40965 11.2099 1.38965 11.0999C1.37965 11.0599 1.35965 10.9799 1.34965 10.8799L1.33965 10.7799C1.32965 10.6799 1.31965 10.5899 1.30965 10.4899L1.27965 10.0499L1.31965 10.0199L1.32965 9.94985L1.37965 9.75986C1.38965 9.70986 1.40965 9.65985 1.41965 9.60985C1.45965 9.48985 1.49965 9.36986 1.54965 9.26986C1.56965 9.20986 1.61965 9.11985 1.66965 9.00986C1.69965 8.94985 1.72965 8.87986 1.76965 8.81985C1.82965 8.73985 1.88965 8.64986 1.96965 8.55986C1.99965 8.51986 2.03965 8.45986 2.09965 8.39986C2.18965 8.29986 2.29965 8.19986 2.41965 8.09986L2.44965 8.05986L2.54965 7.98986C2.55965 7.97986 2.61965 7.93986 2.68965 7.88986C2.83965 7.80986 2.98965 7.72986 3.14965 7.65986L3.20965 7.62986L3.26965 7.60986C3.52965 7.49986 3.80965 7.43986 4.09965 7.40986L3.63965 6.66986C2.78965 5.32986 3.24965 3.50986 4.66965 2.61986C4.80965 2.52986 4.95965 2.44986 5.11965 2.37986C6.45965 1.78986 8.05965 2.27986 8.83965 3.51986L11.3897 7.50986L10.2796 4.63986C9.69965 3.35986 10.2297 1.75986 11.5197 0.939855C11.7697 0.779855 12.0396 0.659855 12.3296 0.569855C13.7396 0.159855 15.2497 0.859855 15.8497 2.19986L18.7197 7.77986L19.5096 9.29986L21.9597 14.0599L23.4697 16.6299L23.6896 13.5099C23.7297 12.5399 24.2697 11.6199 25.1497 11.0699C25.6297 10.7699 26.1897 10.5999 26.7497 10.5799C27.5797 10.5599 28.3397 10.8499 28.8997 11.4199C29.4397 11.9699 29.7197 12.6999 29.6796 13.4799L29.2596 19.6999L27.4496 28.1599C27.4296 28.2699 27.4197 28.3399 27.3997 28.4099L27.3797 28.4899C27.3596 28.5899 27.3297 28.6899 27.2997 28.7799L27.3197 28.8099L27.1597 29.1899C27.0097 29.5299 26.7497 29.8699 26.4897 30.1899C25.8597 30.9399 25.0697 31.6199 24.1297 32.2399C23.6996 32.5199 23.2896 32.7799 22.9097 33.0099Z" fill="#49535C"/>
<path d="M15.2699 33.6198L14.8599 32.9698L15.4699 32.5098L25.6699 26.0898L26.0799 26.7398C26.1699 26.8798 26.2599 27.0298 26.3599 27.1598C26.4399 27.2798 26.4599 27.3498 26.5199 27.3898C32.5099 32.9698 36.4599 29.7598 37.8599 28.1498C38.1599 27.7998 38.7099 27.8398 38.9499 28.2298L44.0099 35.9298C44.5099 36.7198 44.4699 37.8898 43.6899 38.3998C36.8399 42.9098 23.9099 43.5498 15.2699 33.6198Z" fill="#49535C"/>
<path d="M28.9294 13.45L28.5094 19.6L26.6994 28.04H26.6894V28.03C19.5494 26.61 21.7694 19.71 21.7694 19.71C18.8294 22.04 14.0694 21.83 12.2194 18.88L4.27938 6.25997C3.59938 5.16997 4.08938 3.64997 5.42938 3.07997C6.45938 2.61997 7.63938 3.02997 8.19938 3.92997L12.6794 10.92L13.5994 12.37L14.9394 14.46L14.0194 12.12L13.3894 10.52L10.9894 4.35997C10.4594 3.17997 11.1794 1.71997 12.5494 1.30997C13.6294 0.999969 14.7294 1.54997 15.1594 2.51997L18.0494 8.13997L18.8394 9.65997L21.2894 14.42L23.4094 18.02C23.6494 18.31 24.1394 18.13 24.1694 17.75L24.4694 13.59C24.5194 12.39 25.5594 11.4 26.7994 11.36C28.0294 11.31 28.9894 12.25 28.9294 13.45Z" fill="#4E6171"/>
<path d="M5.78971 8.66007C5.77971 8.66007 5.77971 8.66007 5.78971 8.66007C5.60971 8.51007 5.40971 8.40007 5.20971 8.32007H5.19971C5.40971 8.40007 5.61971 8.52007 5.79971 8.67007L5.78971 8.66007Z" fill="#AD7153"/>
<path d="M26.6995 28.0201C26.6895 28.1001 26.6795 28.1501 26.6695 28.2101C26.6595 28.2301 26.6595 28.2601 26.6495 28.2801C26.5895 28.5201 26.5395 28.7101 26.4595 28.8501V28.8601C26.3495 29.1101 26.1295 29.4101 25.8895 29.6901C25.2795 30.4201 24.5195 31.0501 23.7095 31.5801C20.3195 33.8001 19.1095 34.3501 17.6595 34.0101L17.5495 33.9901C17.4095 33.9601 17.2695 33.9301 17.1395 33.8901C17.0695 33.8701 17.0095 33.8601 16.9395 33.8301C16.6295 33.7401 16.3295 33.6401 16.0495 33.5201C15.9695 33.4901 15.8895 33.4601 15.8095 33.4201C15.6995 33.3701 15.5995 33.3201 15.5095 33.2701C15.4995 33.2701 15.4795 33.2601 15.4595 33.2501C15.4495 33.2501 15.4395 33.2301 15.4295 33.2301C15.3095 33.1601 15.1995 33.1001 15.1195 33.0401C15.1195 33.0401 14.7695 32.8201 14.2495 32.4601C14.2095 32.4301 14.1795 32.4101 14.1295 32.3801C14.0495 32.3301 13.9595 32.2601 13.8795 32.2001C13.6295 32.0301 13.3695 31.8301 13.0795 31.6201C12.7795 31.3901 12.4595 31.1501 12.1395 30.8801C12.1395 30.8701 12.1295 30.8801 12.1195 30.8701C11.0995 30.0401 10.0695 29.0701 9.37948 28.1001L9.05948 27.6701L5.16948 22.5701L4.16948 21.2601L1.88948 18.2601C1.54948 17.7701 1.46948 17.1701 1.59948 16.6201C1.63948 16.4901 1.67948 16.3601 1.73948 16.2301C1.75948 16.1901 1.78948 16.1501 1.80948 16.1001C1.84948 16.0201 1.88948 15.9401 1.93948 15.8701C2.09948 15.6501 2.28948 15.4501 2.51948 15.2801C2.53948 15.2701 2.54948 15.2501 2.56948 15.2401C2.71948 15.1301 2.88948 15.0501 3.05948 14.9901C3.07948 14.9901 3.09948 14.9801 3.11948 14.9701C3.20948 14.9401 3.29948 14.9101 3.39948 14.8901C3.47948 14.8701 3.54948 14.8701 3.62948 14.8501C3.69948 14.8401 3.77948 14.8401 3.83948 14.8401C4.02948 14.8301 4.20948 14.8401 4.38948 14.8801C4.39948 14.8801 4.42948 14.8901 4.44948 14.8801L2.39948 11.6301C2.32948 11.5101 2.26948 11.4001 2.21948 11.2701C2.21948 11.2601 2.21948 11.2501 2.20948 11.2401C2.17948 11.1501 2.14948 11.0601 2.12948 10.9601C2.10948 10.9001 2.09948 10.8501 2.08948 10.7801C2.07948 10.6801 2.05948 10.5801 2.05948 10.4701H2.06948C2.06948 10.3401 2.07948 10.2201 2.08948 10.1001C2.09948 10.0401 2.11948 9.98007 2.12948 9.93007C2.13948 9.89007 2.14948 9.84007 2.15948 9.81007C2.17948 9.72007 2.20948 9.65007 2.23948 9.58007C2.26948 9.51007 2.29948 9.45007 2.32948 9.39007C2.35948 9.34007 2.37948 9.29007 2.40948 9.24007C2.44948 9.17007 2.50948 9.10007 2.56948 9.03007C2.59948 8.99007 2.61948 8.96007 2.64948 8.92007C2.72948 8.84007 2.81948 8.76007 2.90948 8.68007C2.92948 8.67007 2.93948 8.65007 2.94948 8.64007C3.10948 8.52007 3.28948 8.43007 3.46948 8.35007C3.49948 8.34007 3.51948 8.33007 3.53948 8.32007C3.89948 8.18007 4.26948 8.13007 4.62948 8.17007C4.64948 8.17007 4.67948 8.17007 4.70948 8.18007C4.87948 8.20007 5.04948 8.24007 5.19948 8.30007C5.41948 8.39007 5.61948 8.50007 5.79948 8.65007L12.2295 18.8801C14.0795 21.8201 18.8395 22.0301 21.7795 19.7101C21.7895 19.7001 19.5595 26.5901 26.6995 28.0201Z" fill="#111E2B"/>
<path d="M12.6793 10.9199L13.5993 12.3699L9.67928 14.8399L8.75928 13.3899L12.6793 10.9199Z" fill="#D0E2EA"/>
<path d="M12.2395 19.6101C11.8095 19.8801 11.2695 19.7801 11.0095 19.3901C10.7495 18.9901 10.8795 18.4501 11.3095 18.1701L16.1895 14.9801C16.6295 14.7201 17.1795 14.7901 17.4395 15.1901C17.6995 15.5901 17.5695 16.1301 17.1395 16.4101L12.2595 19.6001C12.2495 19.6101 12.2395 19.6101 12.2395 19.6101Z" fill="#111E2B"/>
<path d="M10.9894 16.04L7.62945 18.33C7.19945 18.6 6.63945 18.5 6.38945 18.1C6.13945 17.7 6.27945 17.15 6.71945 16.88L10.1494 14.7L10.9894 16.04Z" fill="#4E6171"/>
<path d="M7.29965 20.87L5.17965 22.61L4.13965 21.24L6.17965 19.57C6.56965 19.25 7.13965 19.28 7.44965 19.63C7.75965 19.98 7.68965 20.54 7.29965 20.87Z" fill="#4E6171"/>
<path d="M18.0494 8.12988L18.8394 9.64988L14.0194 12.1199L13.3994 10.5099L18.0494 8.12988Z" fill="#D0E2EA"/>
<path d="M32.5497 40.0199C25.6797 40.0199 21.0997 36.7899 21.0397 36.7399C20.8197 36.5799 20.7697 36.2699 20.9297 36.0399C21.0897 35.8199 21.3997 35.7599 21.6297 35.9299C21.7097 35.9899 29.9997 41.8199 40.9797 37.2999C41.2397 37.1999 41.5297 37.3199 41.6297 37.5699C41.7297 37.8299 41.6097 38.1199 41.3597 38.2199C38.1697 39.5499 35.1897 40.0199 32.5497 40.0199Z" fill="#111E2B"/>
</g>
<defs>
<clipPath id="clip0_301_5189">
<rect width="43.55" height="41.08" fill="white" transform="translate(0.799805 0.459961)"/>
</clipPath>
</defs>
</svg>
