<svg width="40" height="80" viewBox="0 0 40 80" fill="none" xmlns="http://www.w3.org/2000/svg">
<g clip-path="url(#clip0_301_14186)">
<path d="M0.0498047 73.5501V76.1501C0.0498047 78.5201 0.0498047 79.8801 0.0498047 79.8801H39.9098V77.6201C39.7498 71.7001 37.8998 67.6001 35.3398 64.7601C34.8798 64.2401 34.3898 63.7701 33.8898 63.3301C29.8098 59.8101 24.6198 58.7901 21.4298 58.5201C19.6598 58.3701 18.5098 58.4401 18.5098 58.4401C18.5098 58.4401 18.5098 58.4001 18.5098 58.3301V50.6301C18.5098 46.9201 18.5098 42.1901 18.4998 37.1201V20.1601C18.4898 12.1501 18.4898 5.15012 18.4898 1.96012C18.4898 1.59012 18.3798 1.25012 18.1798 0.960117C17.8598 0.450117 17.2898 0.120117 16.6398 0.120117H1.9298C0.899805 0.120117 0.0798047 0.940117 0.0698047 1.96012V20.1601C0.0598047 20.8201 0.0598047 21.4801 0.0698047 22.1601C0.0598047 26.2001 0.0598047 30.5401 0.0598047 34.9701V52.6301C0.0498047 61.0001 0.0498047 68.5301 0.0498047 73.5501Z" fill="#515E82"/>
<path d="M0.0698242 13.3001L16.0498 0.120117H16.6398C17.2898 0.120117 17.8598 0.450117 18.1798 0.960117L0.0698242 15.8901V13.3001Z" fill="#7381CC"/>
<path d="M11.9098 63.77L2.8598 52.63H0.0598047V52.32V50.63V49.73L0.329805 49.51L0.0598047 49.17V46L1.8698 48.24L15.5398 36.97H0.0598047V34.97H17.9698L18.4998 34.53V37.12L3.1298 49.79L3.8198 50.63H18.5098V52.63H5.4398L13.4498 62.5L18.5098 58.33C18.5098 58.4 18.5098 58.44 18.5098 58.44C18.5098 58.44 19.6598 58.37 21.4298 58.52L14.7198 64.06L13.1698 65.33L0.0498047 76.15V73.55L11.9098 63.77Z" fill="#7381CC"/>
<path d="M19.83 73.2701L33.89 63.3301C34.39 63.7701 34.88 64.2401 35.34 64.7601L21.1 74.8301L25.19 79.8801H22.62L19.46 75.9901L13.95 79.8801H10.5L18.2 74.4301L19.83 73.2701Z" fill="#7381CC"/>
<path d="M0.07 20.1602H18.5V22.1602H0.07C0.06 21.4802 0.06 20.8202 0.07 20.1602Z" fill="#7381CC"/>
<path d="M11.6996 32.03H14.3796C15.2396 32.03 15.9396 31.33 15.9396 30.47V26.58C15.9396 25.72 15.2396 25.02 14.3796 25.02H11.6996C10.8396 25.02 10.1396 25.72 10.1396 26.58V30.47C10.1396 31.33 10.8396 32.03 11.6996 32.03Z" fill="#BAEEE6"/>
<path d="M11.4796 16.9701H14.5996C15.3396 16.9701 15.9496 16.3701 15.9496 15.6201V11.2501C15.9496 10.2001 14.7996 9.55015 13.9096 10.1001L10.7896 12.0001C10.3896 12.2401 10.1396 12.6801 10.1396 13.1501V15.6201C10.1396 16.3701 10.7396 16.9701 11.4796 16.9701Z" fill="#BAEEE6"/>
<path d="M36.0997 77.12C36.0997 77.12 36.3097 73.25 34.1997 71.3C33.8297 70.96 33.2597 70.95 32.8497 71.26L27.5897 75.18C27.3197 75.38 27.1597 75.7 27.1597 76.04C27.1597 76.63 27.6397 77.12 28.2397 77.12H36.0997Z" fill="#BAEEE6"/>
</g>
<defs>
<clipPath id="clip0_301_14186">
<rect width="39.86" height="79.76" fill="white" transform="translate(0.0498047 0.120117)"/>
</clipPath>
</defs>
</svg>
