<svg width="30" height="82" viewBox="0 0 30 82" fill="none" xmlns="http://www.w3.org/2000/svg">
<g clip-path="url(#clip0_301_8103)">
<path d="M4.31014 74.4449C4.31014 73.9049 4.25014 73.4849 4.14014 73.1449C3.61014 71.4249 1.99014 71.9049 1.99014 71.9049L0.140137 65.4149C4.02014 61.7049 6.94014 57.3549 8.63014 52.6049C8.85014 51.9949 9.05014 51.3849 9.22014 50.7649C9.63014 49.3249 9.93014 47.8449 10.1001 46.3449C10.1201 46.1349 10.1501 45.9349 10.1601 45.7249C10.2301 45.1149 10.2601 44.5049 10.2801 43.8849C10.2901 43.6149 10.2901 43.3449 10.2901 43.0749C10.2901 41.3149 10.1201 39.5849 9.80014 37.8949C9.69014 37.2849 9.56014 36.6849 9.40014 36.0949C9.36014 35.9349 9.32014 35.7849 9.28014 35.6249C8.23014 31.8049 6.39014 28.2149 3.91014 24.9549C3.72014 24.6849 3.51014 24.4249 3.30014 24.1649V3.95492L21.6601 0.544922C22.2801 1.10492 24.9501 26.9649 24.8101 33.8149C24.8001 34.2849 24.8701 34.7549 24.9201 35.2249C24.9301 35.3749 24.9401 35.5149 24.9501 35.6649C25.0401 37.0949 25.0901 38.5149 25.0901 39.9449V53.4549C25.0901 55.4949 25.6501 57.5349 26.8501 59.1749C27.3701 59.8849 27.7301 60.5849 27.9701 61.2349C28.2401 61.9349 28.3701 62.5649 28.4301 63.0549C28.5301 63.6749 28.5001 64.0749 28.5001 64.0749L29.0701 76.2949L29.0801 76.4449L29.3101 81.4549L4.31014 81.1049V74.4449Z" fill="#9DAADA"/>
<path d="M24.9499 35.6649L9.7999 37.8949C9.6899 37.2849 9.5599 36.6849 9.3999 36.0949L24.8099 33.8149C24.8599 34.2849 24.8999 34.7549 24.9199 35.2249C24.9299 35.3749 24.9399 35.5149 24.9499 35.6649Z" fill="#7381CC"/>
<path d="M25.0902 43.885V45.725H10.1602C10.2302 45.115 10.2602 44.505 10.2802 43.885H25.0902Z" fill="#7381CC"/>
<path d="M16.0704 51.6849C16.0704 52.1949 15.6604 52.6049 15.1504 52.6049H8.63037C8.85037 51.9949 9.05037 51.3849 9.22037 50.7649H15.1504C15.6604 50.7649 16.0704 51.1749 16.0704 51.6849Z" fill="#7381CC"/>
<path d="M4.14014 73.1449L27.9701 61.2349C28.2401 61.9449 28.3701 62.5649 28.4301 63.0549L4.31014 75.1149V74.4449C4.31014 73.9049 4.25014 73.4849 4.14014 73.1449Z" fill="#7381CC"/>
<path d="M4.31006 78.1349V76.2949H29.0701L29.1501 78.1349H4.31006Z" fill="#7381CC"/>
<path d="M17.9799 26.9648H20.1799C21.1699 26.9648 21.9699 27.7648 21.9699 28.7548V29.7848C21.9699 30.7748 21.1699 31.5748 20.1799 31.5748H17.9799C16.9899 31.5748 16.1899 30.7748 16.1899 29.7848V28.7548C16.1899 27.7648 16.9899 26.9648 17.9799 26.9648Z" fill="#BAEEE6"/>
</g>
<defs>
<clipPath id="clip0_301_8103">
<rect width="29.17" height="80.91" fill="white" transform="translate(0.140137 0.544922)"/>
</clipPath>
</defs>
</svg>
