<svg width="37" height="80" viewBox="0 0 37 80" fill="none" xmlns="http://www.w3.org/2000/svg">
<g clip-path="url(#clip0_301_8141)">
<path d="M31.1202 61.925L15.4302 79.915C15.4302 79.915 4.1202 74.295 7.0902 47.055C7.1902 46.155 7.0302 45.245 6.7502 44.385C6.4802 43.515 6.05019 42.685 5.5102 41.955C5.05019 41.315 4.7302 40.695 4.5102 40.125C4.2702 39.495 4.1602 38.935 4.1002 38.495C4.0202 37.945 4.0402 37.585 4.0402 37.585L3.1002 26.695L2.9502 25.055L2.7002 22.105L3.0602 22.065L13.4902 21.015L19.3302 20.425L19.4302 20.415L19.9402 20.355L20.5202 20.295L26.5002 19.695L26.9502 19.655L26.5002 24.865L26.3902 28.775L27.0902 27.825V28.015C27.0902 28.495 27.1502 28.865 27.2502 29.175C27.7302 30.705 28.8602 29.275 28.8602 29.275L28.9402 29.495L31.2602 35.425L31.2902 35.505L30.6902 36.215L30.6702 36.235L26.2802 41.405C25.1802 42.505 23.1202 44.335 23.0302 45.885C22.4202 56.455 24.9802 58.905 30.8002 60.775C31.2902 60.935 31.4602 61.535 31.1202 61.925Z" fill="#49535C"/>
<path d="M17.7801 75.1049C17.7001 75.1049 17.6201 75.0849 17.5501 75.0449C15.7001 73.9449 14.0601 72.4249 12.6801 70.5249C10.3101 67.2849 9.06006 63.2749 9.06006 58.9449V47.4249C9.06006 47.1749 9.26006 46.9749 9.51006 46.9749C9.76006 46.9749 9.96006 47.1749 9.96006 47.4249V58.9349C9.96006 63.0849 11.1501 66.9049 13.4001 69.9949C14.7101 71.7849 16.2601 73.2249 18.0001 74.2649C18.2101 74.3949 18.2801 74.6649 18.1601 74.8849C18.0801 75.0249 17.9301 75.1049 17.7801 75.1049Z" fill="#111E2B"/>
<path d="M35.4902 29.615L31.2602 35.425L30.6902 36.215L30.6702 36.235L22.7702 44.335C22.6802 44.445 22.6102 44.515 22.5302 44.585C22.4002 44.715 22.2802 44.825 22.1702 44.925V44.965L21.7302 45.275C21.3302 45.545 20.8002 45.745 20.2802 45.915C19.0702 46.305 17.7102 46.515 16.2402 46.545C15.5502 46.555 14.9102 46.565 14.3302 46.565C10.5902 46.565 8.65025 46.295 7.10025 44.715L7.02025 44.645C6.93025 44.565 6.84025 44.475 6.75025 44.385C6.69025 44.315 6.63025 44.255 6.57025 44.185C6.46025 44.075 6.40025 44.005 6.34025 43.925C6.03025 43.575 5.75025 43.225 5.54025 42.905C5.50025 42.855 5.42025 42.745 5.34025 42.635C5.29025 42.555 5.23025 42.455 5.18025 42.365L5.16025 42.345L5.14025 42.325L5.11025 42.275L5.05025 42.215L4.98025 42.045L4.95025 41.985C4.86025 41.825 4.79025 41.675 4.73025 41.545C4.73025 41.545 4.50025 41.055 4.18025 40.315C4.15025 40.235 4.12025 40.175 4.09025 40.095C4.03025 39.965 3.98025 39.855 3.94025 39.745C3.79025 39.415 3.63025 38.995 3.46025 38.545C3.30025 38.125 3.15025 37.705 3.00025 37.255L2.86025 37.135V36.855C2.20025 34.855 1.83025 33.145 1.75025 31.755L1.03025 23.745L0.920246 22.715L0.640246 19.505H0.650246L0.310246 15.645C0.260246 14.565 0.670246 13.555 1.43025 12.805C1.63025 12.625 1.81025 12.485 2.01025 12.345C2.06025 12.315 2.14025 12.275 2.22025 12.235C2.40025 12.125 2.52025 12.055 2.65025 12.005C3.10025 11.825 3.56025 11.715 4.03025 11.685L4.12025 11.665L4.17025 11.675L4.29025 11.665C4.57025 11.665 4.85025 11.705 5.12025 11.765C5.12025 11.765 5.41025 11.835 5.49025 11.865V8.50496C5.49025 8.28496 5.50025 8.08496 5.54025 7.88496V7.72496L5.60025 7.60496C5.63025 7.47496 5.67025 7.33496 5.73025 7.20496C5.74025 7.15496 5.78025 7.04496 5.84025 6.92496L5.89025 6.80496C5.94025 6.69496 6.00025 6.58496 6.06025 6.46496L6.35025 5.97496H6.42025L6.48025 5.89496L6.65025 5.74496C6.66025 5.72496 6.74025 5.65496 6.81025 5.59496C6.94025 5.47496 7.07025 5.37496 7.20025 5.28496C7.26025 5.23496 7.38025 5.16496 7.51025 5.08496C7.59025 5.03496 7.67025 4.99496 7.75025 4.95496C7.88025 4.89496 8.01025 4.84496 8.15025 4.79496C8.22025 4.76496 8.31025 4.73496 8.41025 4.71496C8.59025 4.66496 8.78025 4.62496 8.97025 4.60496L9.04025 4.58496L9.19025 4.57496C9.21025 4.57496 9.32025 4.56496 9.42025 4.56496C9.65025 4.56496 9.88025 4.59496 10.1002 4.62496L10.1902 4.63496L10.2702 4.65496C10.6402 4.72496 10.9902 4.84496 11.3302 5.00496V3.86496C11.3302 1.78496 13.1102 0.0849609 15.3002 0.0849609C15.5202 0.0849609 15.7502 0.104961 15.9802 0.144961C17.8702 0.414961 19.3102 2.08496 19.3102 4.01496L19.3602 10.225L20.1202 6.24496C20.3702 4.42496 22.0702 3.01496 24.0802 3.01496C24.4602 3.01496 24.8502 3.06496 25.2302 3.17496C27.0802 3.70496 28.2702 5.53496 28.0002 7.43496L27.2902 15.635L27.1102 17.875L26.9502 19.655L26.5002 24.865L26.3902 28.775L27.0902 27.825L28.8202 25.475C29.5302 24.425 30.7802 23.785 32.1502 23.785C32.9002 23.785 33.6302 23.985 34.2702 24.355C35.2002 24.905 35.8402 25.775 36.0602 26.785C36.2802 27.775 36.0802 28.775 35.4902 29.615Z" fill="#49535C"/>
<path d="M33.7704 25.2249C32.3704 24.4049 30.5204 24.7749 29.6304 26.0649L26.3904 30.4749C26.1004 30.8849 25.4204 30.7349 25.3604 30.2449L25.5204 24.7749L26.1304 17.7849L26.3104 15.5449L27.0304 7.29486C27.2204 5.92486 26.4004 4.53486 24.9804 4.13486C23.1704 3.62486 21.3504 4.75486 21.1204 6.43486L19.4904 14.9449L19.0704 17.1649L18.4504 20.4049L18.4304 17.1549L18.4204 14.9049L18.3204 4.01486C18.3204 2.63486 17.3004 1.34486 15.8304 1.13486C13.9504 0.844863 12.3304 2.18486 12.3304 3.87486V7.52486C12.2304 7.25486 12.1004 7.01486 11.9304 6.78486C11.8004 6.60486 11.6404 6.44486 11.4704 6.30486C11.4304 6.27486 11.4104 6.25486 11.3904 6.23486C11.0104 5.94486 10.5804 5.73486 10.0804 5.64486C10.0404 5.62486 10.0104 5.62486 9.9804 5.61486C9.7204 5.57486 9.4704 5.55486 9.2004 5.57486C9.1804 5.57486 9.1504 5.58486 9.1304 5.58486C8.9704 5.61486 8.8104 5.63486 8.6704 5.68486C8.6104 5.69486 8.5604 5.71486 8.5104 5.73486C8.3904 5.77486 8.2804 5.81486 8.1804 5.86486C8.1104 5.89486 8.0504 5.93486 7.9904 5.97486C7.9004 6.01486 7.8304 6.06486 7.7604 6.11486C7.6704 6.17486 7.5904 6.23486 7.5104 6.31486C7.4604 6.35486 7.4204 6.38486 7.3804 6.43486C7.3304 6.47486 7.2704 6.53486 7.2204 6.58486C7.1204 6.70486 7.0304 6.83486 6.9404 6.97486H6.9304C6.8604 7.09486 6.8104 7.22486 6.7504 7.34486C6.7104 7.42486 6.6904 7.49486 6.6604 7.57486C6.6204 7.69486 6.5804 7.81486 6.5504 7.94486C6.5504 7.95486 6.5404 7.96486 6.5404 7.97486C6.5104 8.15486 6.4904 8.32486 6.4904 8.50486V13.5849C6.4704 13.5749 6.4404 13.5549 6.4304 13.5349C6.2604 13.3649 6.0704 13.2349 5.8504 13.1049C5.7804 13.0549 5.6904 13.0149 5.6104 12.9649C5.5104 12.9349 5.4304 12.8849 5.3304 12.8549C5.2104 12.8149 5.0904 12.7749 4.9704 12.7549C4.9504 12.7449 4.9204 12.7449 4.9004 12.7349C4.6704 12.6749 4.4304 12.6549 4.1804 12.6649C4.1604 12.6649 4.1204 12.6749 4.1004 12.6749C3.7204 12.6949 3.3704 12.7849 3.0404 12.9249C2.9304 12.9749 2.8304 13.0349 2.7404 13.0949C2.6804 13.1249 2.6204 13.1549 2.5704 13.1849C2.4104 13.2849 2.2804 13.3949 2.1504 13.5249C1.6004 14.0449 1.2704 14.7649 1.3104 15.5549L1.7404 20.3849H1.7204L1.9104 22.6349H1.9304L2.6804 31.0049L2.7404 31.7049C2.8204 33.2549 3.3004 35.0549 3.8404 36.6949C3.8404 36.7049 3.8504 36.7049 3.8504 36.7149C4.0204 37.2349 4.2004 37.7249 4.3704 38.1849C4.5404 38.6249 4.7004 39.0249 4.8604 39.3849C4.9104 39.5049 4.9704 39.6449 5.0204 39.7549C5.0404 39.8249 5.0704 39.8649 5.0904 39.9249C5.4204 40.6949 5.6504 41.1749 5.6504 41.1749C5.7004 41.2949 5.7804 41.4449 5.8704 41.6049C5.8804 41.6149 5.8804 41.6349 5.8904 41.6449C5.9004 41.6649 5.9104 41.6949 5.9304 41.7049C6.0004 41.8149 6.0804 41.9549 6.1604 42.0749C6.2204 42.1649 6.2804 42.2549 6.3504 42.3449C6.5704 42.6749 6.8404 42.9949 7.1104 43.3149C7.1704 43.3949 7.2304 43.4549 7.2904 43.5149C7.4104 43.6549 7.5404 43.7849 7.6804 43.9049L7.7904 44.0049C9.1604 45.4049 10.8804 45.6349 16.2004 45.5349C17.4704 45.5149 18.7504 45.3449 19.9404 44.9649C20.4004 44.8049 20.8504 44.6349 21.1504 44.4349V44.4249C21.3304 44.3149 21.5304 44.1449 21.7604 43.9149C21.7804 43.8949 21.8104 43.8649 21.8304 43.8449C21.8904 43.7849 21.9404 43.7349 22.0004 43.6649L29.8904 35.5749L34.6504 29.0449C35.5704 27.7549 35.1604 26.0449 33.7704 25.2249Z" fill="#49535C"/>
<path d="M34.6806 29.0449L29.9206 35.5749L22.0206 43.6849H22.0106V43.6749C15.0806 37.1149 22.3606 31.0149 22.3606 31.0149C17.4706 31.5449 12.3306 27.9849 12.3306 23.4249V3.86485C12.3306 2.17485 13.9406 0.834853 15.8306 1.12485C17.3006 1.33485 18.3206 2.62485 18.3206 4.00485L18.4006 14.8949L18.4106 17.1449L18.4306 20.3949L19.0506 17.1549L19.4706 14.9349L21.1006 6.42485C21.3306 4.74485 23.1506 3.62485 24.9606 4.12485C26.3806 4.53485 27.2106 5.91485 27.0106 7.28485L26.2906 15.5349L26.1106 17.7749L25.5106 24.7849L25.3506 30.2549C25.4106 30.7349 26.0906 30.8849 26.3806 30.4849L29.6206 26.0749C30.5106 24.7849 32.3606 24.4049 33.7606 25.2349C35.1606 26.0449 35.5706 27.7549 34.6806 29.0449Z" fill="#4E6171"/>
<path d="M12.3302 7.5749C12.3302 7.5649 12.3202 7.5649 12.3202 7.5549C12.2402 7.2749 12.0902 7.0149 11.9202 6.7849L11.9102 6.7749C12.0902 7.0249 12.2302 7.2949 12.3202 7.5849V7.5749H12.3302Z" fill="#AD7153"/>
<path d="M22.0304 43.665V43.675C21.9704 43.745 21.9204 43.795 21.8604 43.855C21.8404 43.875 21.8104 43.905 21.7904 43.925C21.5604 44.155 21.3704 44.315 21.1804 44.435V44.445C20.8804 44.645 20.4304 44.815 19.9704 44.975C18.7804 45.355 17.5104 45.525 16.2304 45.545C10.9104 45.645 9.1904 45.405 7.8204 44.015L7.7104 43.915C7.5804 43.795 7.4404 43.655 7.3204 43.525C7.2604 43.455 7.2004 43.405 7.1404 43.325C6.8604 43.005 6.5904 42.685 6.3804 42.355C6.3104 42.265 6.2504 42.175 6.1904 42.085C6.1104 41.965 6.0304 41.825 5.9604 41.715C5.9504 41.705 5.9404 41.685 5.9204 41.655C5.9104 41.645 5.9104 41.625 5.9004 41.605C5.8204 41.445 5.7304 41.305 5.6804 41.175C5.6804 41.175 5.4504 40.695 5.1204 39.925C5.1004 39.865 5.0704 39.825 5.0504 39.755C5.0004 39.645 4.9404 39.505 4.8904 39.385C4.7304 39.025 4.5704 38.615 4.4004 38.185C4.2304 37.725 4.0504 37.225 3.8804 36.715C3.8804 36.705 3.8704 36.705 3.8704 36.695C3.3204 35.065 2.8504 33.265 2.7704 31.705L2.7104 31.005L1.9604 22.625L1.7704 20.475L1.3104 15.555C1.2704 14.765 1.6004 14.045 2.1404 13.525C2.2704 13.405 2.4104 13.285 2.5604 13.185C2.6104 13.155 2.6704 13.125 2.7304 13.095C2.8304 13.035 2.9204 12.975 3.0304 12.925C3.3604 12.785 3.7104 12.695 4.0904 12.675C4.1104 12.675 4.1504 12.665 4.1704 12.665C4.4104 12.655 4.6604 12.675 4.8904 12.735C4.9104 12.745 4.9404 12.745 4.9604 12.755C5.0804 12.775 5.2004 12.815 5.3204 12.855C5.4204 12.885 5.5004 12.935 5.6004 12.965C5.6804 13.015 5.7704 13.055 5.8404 13.105C6.0604 13.225 6.2504 13.365 6.4204 13.535C6.4304 13.545 6.4604 13.565 6.4804 13.585V8.50496C6.4804 8.32495 6.4904 8.15495 6.5304 7.97495C6.5304 7.96495 6.5404 7.95496 6.5404 7.94496C6.5604 7.82496 6.6004 7.69495 6.6504 7.57495C6.6904 7.49495 6.7104 7.42496 6.7504 7.34496C6.8104 7.22496 6.8604 7.09495 6.9304 6.97495H6.9404C7.0304 6.82495 7.1204 6.70495 7.2204 6.58495C7.2704 6.53495 7.3304 6.48495 7.3804 6.43495C7.4204 6.38495 7.4604 6.35495 7.5004 6.32495C7.5804 6.24495 7.6704 6.17495 7.7504 6.12495C7.8204 6.06495 7.9004 6.02495 7.9804 5.97495C8.0504 5.93495 8.1104 5.89496 8.1804 5.86496C8.2804 5.81496 8.3904 5.77495 8.5104 5.74495C8.5604 5.71495 8.6104 5.69495 8.6704 5.68495C8.8204 5.63495 8.9704 5.61496 9.1304 5.59496C9.1504 5.59496 9.1804 5.58495 9.2004 5.58495C9.4704 5.56495 9.7204 5.58496 9.9804 5.61496C10.0204 5.62496 10.0404 5.62496 10.0804 5.63496C10.5804 5.72496 11.0104 5.92495 11.3904 6.22495C11.4104 6.24495 11.4404 6.25495 11.4704 6.29495C11.6404 6.44495 11.8004 6.59495 11.9304 6.77495C12.1104 7.02495 12.2604 7.28495 12.3504 7.57495V23.415C12.3504 27.975 17.4804 31.535 22.3804 31.005C22.3804 30.995 15.1004 37.105 22.0304 43.665Z" fill="#111E2B"/>
<path d="M18.4006 14.8948L18.4106 17.1448H12.3306V14.8948H18.4006Z" fill="#D0E2EA"/>
<path d="M11.8405 24.2347C11.1805 24.2347 10.6405 23.7447 10.6305 23.1347C10.6205 22.5147 11.1505 21.9947 11.8205 21.9847L19.4605 21.8547C20.1305 21.8647 20.6805 22.3347 20.7005 22.9547C20.7105 23.5747 20.1805 24.0947 19.5105 24.1047L11.8705 24.2347C11.8605 24.2347 11.8505 24.2347 11.8405 24.2347Z" fill="#111E2B"/>
<path d="M12.9502 19.4048L7.62016 19.5948C6.95016 19.5948 6.41016 19.0948 6.41016 18.4648C6.41016 17.8448 6.95016 17.3348 7.62016 17.3348L12.9502 17.1448V19.4048Z" fill="#4E6171"/>
<path d="M5.48022 22.1748L1.92021 22.6248L1.72021 20.3848L5.15022 19.9548C5.81021 19.8748 6.42022 20.2948 6.52022 20.9148C6.61022 21.5248 6.15022 22.0948 5.48022 22.1748Z" fill="#4E6171"/>
<path d="M26.3005 15.5548L26.1205 17.7948L19.0605 17.1648L19.4805 14.9448L26.3005 15.5548Z" fill="#D0E2EA"/>
</g>
<defs>
<clipPath id="clip0_301_8141">
<rect width="35.84" height="79.83" fill="white" transform="translate(0.310059 0.0849609)"/>
</clipPath>
</defs>
</svg>
