<svg width="45" height="50" viewBox="0 0 45 50" fill="none" xmlns="http://www.w3.org/2000/svg">
<g clip-path="url(#clip0_301_10968)">
<path d="M44.9299 42.44V49.46H0.419922V47.27C0.509922 43.95 1.79992 38.27 5.58992 34.08C6.25992 33.33 7.01992 32.62 7.86992 32C10.4599 30.05 13.8699 28.76 18.3199 28.76H18.3299C20.0499 28.76 21.1599 28.68 21.1599 28.68C21.1599 28.68 21.1599 28.06 21.1599 27.02C21.1599 24.28 21.1699 18.61 21.1699 13.36V9.76004C21.1799 6.20004 21.1799 3.28004 21.1799 2.32004C21.1799 1.96004 21.2899 1.63004 21.4799 1.35004C21.7899 0.860039 22.3399 0.540039 22.9699 0.540039H43.1099C44.1099 0.540039 44.8999 1.33004 44.9099 2.32004V10.89L44.9199 14.46V29.22L44.9299 42.44Z" fill="#9DAADA"/>
<path d="M28.09 27.13H25.31C24.45 27.13 23.75 26.43 23.75 25.57V21.56C23.75 20.7 24.45 20 25.31 20H28.09C28.95 20 29.65 20.7 29.65 21.56V25.57C29.65 26.43 28.95 27.13 28.09 27.13Z" fill="#BAEEE6"/>
<path d="M28.67 11.6701H25.23C24.41 11.6701 23.75 11.0101 23.75 10.1901V5.37014C23.75 4.21014 25.02 3.50014 26.01 4.10014L29.45 6.19014C29.89 6.46014 30.16 6.94014 30.16 7.46014V10.1901C30.15 11.0101 29.49 11.6701 28.67 11.6701Z" fill="#BAEEE6"/>
<path d="M4.06977 44.1601C4.06977 44.1601 3.83977 39.8901 6.15977 37.7401C6.56977 37.3601 7.19977 37.3601 7.64977 37.6901L13.4598 42.0201C13.7598 42.2401 13.9398 42.6001 13.9398 42.9701C13.9398 43.6301 13.4098 44.1601 12.7498 44.1601H4.06977Z" fill="#BAEEE6"/>
<path d="M34.7898 49.46H29.2698L20.2498 43.61L16.4398 49.46H12.8598L17.7398 41.97L5.58984 34.08C6.25984 33.33 7.01984 32.62 7.86984 32L34.7898 49.46Z" fill="#7381CC"/>
<path d="M44.92 14.46L23.46 0.540039H28.96L44.91 10.89L44.92 14.46Z" fill="#7381CC"/>
<path d="M44.9301 42.44V46.02L18.3301 28.76C20.0501 28.76 21.1601 28.68 21.1601 28.68C21.1601 28.68 21.1601 28.06 21.1601 27.02L32.3301 34.27L38.6501 25.03L28.6601 18.36H28.5601V18.3L21.1701 13.36V9.76001L29.5701 15.36H44.9201V18.36H34.0601L44.9201 25.61V29.22L41.1501 26.7L34.8401 35.9L44.9301 42.44Z" fill="#7381CC"/>
</g>
<defs>
<clipPath id="clip0_301_10968">
<rect width="44.51" height="48.92" fill="white" transform="translate(0.419922 0.540039)"/>
</clipPath>
</defs>
</svg>
