<svg width="26" height="74" viewBox="0 0 26 74" fill="none" xmlns="http://www.w3.org/2000/svg">
<g clip-path="url(#clip0_301_5216)">
<path d="M14.0399 73.5999C13.7299 73.5999 13.4299 73.5499 13.1299 73.4599C11.7199 73.0299 10.8199 71.5799 11.0399 70.0699L11.1399 69.0399C10.8299 69.1499 10.4899 69.1999 10.1499 69.1999C9.69994 69.1999 9.26994 69.0999 8.85994 68.9199C7.55994 68.3299 6.86994 66.8299 7.21994 65.3999L7.56994 60.8799L7.46994 60.8699L7.68994 58.0199L7.69994 56.3999L5.71994 58.5599C5.15994 59.2099 4.30994 59.5999 3.40994 59.5999C2.68994 59.5999 1.98994 59.3499 1.43994 58.8899C0.819936 58.3699 0.439936 57.6499 0.369936 56.8499C0.299936 56.0499 0.549936 55.2799 1.07994 54.6599L5.24994 50.0799L10.9699 45.1899C10.9599 45.0399 10.8799 44.0399 10.8799 44.0399L10.7799 42.6899C9.25994 23.8299 7.74994 10.2699 6.38994 3.3999C5.92994 3.0999 5.62994 2.5999 5.62994 2.0399C5.62994 1.1399 6.37994 0.399902 7.29994 0.399902H17.6499C18.5699 0.399902 19.3199 1.1399 19.3199 2.0399C19.3199 2.5799 19.0499 3.0599 18.6399 3.3599C20.6899 14.9499 21.9999 27.7199 22.5399 41.3099L22.5799 42.6399C22.5999 43.1999 22.6199 43.7599 22.6399 44.3299C22.6699 44.3899 22.7199 44.4499 22.7699 44.5399C23.1599 45.1599 23.9799 46.4499 24.6599 48.4399C24.8199 48.8899 24.9799 49.4099 25.1299 49.9699C25.6199 51.8499 25.8699 53.8899 25.8899 56.0499L25.8999 59.4599L25.9199 66.9599C25.7699 68.5899 24.4599 69.7499 22.8899 69.7499C22.7899 69.7499 22.6799 69.7399 22.5799 69.7299C22.1099 69.6899 21.5799 69.4699 21.1199 69.1799C20.6699 69.9799 19.8799 70.7299 18.6599 70.7299C18.1299 70.7299 17.6199 70.5799 17.1799 70.3199L17.0899 70.9999C16.8699 72.4799 15.5699 73.5999 14.0399 73.5999Z" fill="#49535C"/>
<path d="M25.0498 66.5699C24.9398 67.7399 23.8698 68.6099 22.6698 68.4799C22.0198 68.4199 21.0798 67.7999 20.7298 67.3099C20.7298 67.3099 20.3698 69.4799 18.6598 69.4799C17.5698 69.4799 16.7498 68.6299 16.6098 67.6399L16.2098 70.4899C16.0298 71.7699 14.7198 72.6399 13.3998 72.2399C12.3698 71.9299 11.7698 70.8499 11.9198 69.7999L12.2498 66.3699C11.9098 67.6299 10.4798 68.3199 9.22977 67.7499C8.24977 67.3099 7.80977 66.1699 8.08977 65.1499L8.55977 59.0499L8.57977 56.3999L9.73977 46.9799L9.86977 46.8699L10.8198 46.0599L11.8798 45.1599C11.8698 45.1299 11.8298 44.5599 11.7498 43.5699C11.7198 43.1799 11.6898 42.7399 11.6498 42.2299C10.9998 34.0599 9.09977 11.0599 7.00977 1.6499H17.5098C19.5198 12.5799 21.0498 25.5799 21.6598 40.9599C21.6698 41.3399 21.6898 41.7199 21.6998 42.0999C21.7298 42.7799 21.7498 43.4499 21.7698 44.1399C21.7798 44.3599 22.9198 45.6599 23.8298 48.3199C23.9898 48.7699 24.1398 49.2599 24.2798 49.7899C24.6998 51.4199 25.0098 53.4399 25.0098 55.8899L25.0498 66.5699Z" fill="#4E6171"/>
<path d="M5.87984 50.31L1.76984 54.83C0.98984 55.73 1.10984 57.07 2.02984 57.84C2.94984 58.6 4.30984 58.49 5.08984 57.59L7.88984 54.54C8.14984 54.26 8.60984 54.44 8.60984 54.82L8.59984 56.41L9.75984 46.99L5.87984 50.31Z" fill="#111E2B"/>
<path d="M14.28 2.17979L14.24 1.78979H10.98L11.09 2.30979C12.3 7.8198 14.42 19.6798 15.49 25.7798C15.55 26.1498 16.11 26.0898 16.09 25.7198C15.77 16.1698 14.3 2.33979 14.28 2.17979Z" fill="#738293"/>
<path d="M17.3598 49.7098C18.5196 49.7098 19.4598 48.7876 19.4598 47.6498C19.4598 46.5121 18.5196 45.5898 17.3598 45.5898C16.2 45.5898 15.2598 46.5121 15.2598 47.6498C15.2598 48.7876 16.2 49.7098 17.3598 49.7098Z" fill="#111E2B"/>
<path d="M23.8299 48.3198C23.1999 51.2698 20.5399 53.4798 17.3699 53.4798C13.7199 53.4798 10.7599 50.5698 10.7599 46.9798C10.7599 46.6698 10.7899 46.3598 10.8299 46.0498L9.87988 46.8598V46.9698C9.87988 51.0298 13.2399 54.3298 17.3699 54.3298C20.4799 54.3298 23.1699 52.4498 24.2799 49.7698C24.1399 49.2698 23.9899 48.7698 23.8299 48.3198Z" fill="#111E2B"/>
<path d="M13.05 61.82L13.04 59.97H17.76V61.82H13.05Z" fill="#D0E2EA"/>
<path d="M17.7598 58.3299L21.4198 58.1899C21.8798 58.1899 22.2498 58.5599 22.2498 59.0099C22.2498 59.4599 21.8798 59.8299 21.4198 59.8299L17.7598 59.9699V58.3299Z" fill="#D0E2EA"/>
<path d="M22.4696 56.9999L25.1096 56.6399L25.0496 58.3099L22.6996 58.6299C22.2496 58.6899 21.8296 58.3799 21.7596 57.9299C21.6896 57.4799 22.0096 57.0599 22.4696 56.9999Z" fill="#D0E2EA"/>
<path d="M8.42969 59.6798L8.54969 58.0498L13.0397 58.3298V59.9698L8.42969 59.6798Z" fill="#D0E2EA"/>
</g>
<defs>
<clipPath id="clip0_301_5216">
<rect width="25.56" height="73.2" fill="white" transform="translate(0.350098 0.399902)"/>
</clipPath>
</defs>
</svg>
