<svg width="22" height="58" viewBox="0 0 22 58" fill="none" xmlns="http://www.w3.org/2000/svg">
<g clip-path="url(#clip0_301_11001)">
<path d="M7.74018 48.42C8.67018 45.45 9.16018 42.32 9.16018 39.09C9.16018 38.45 9.14018 37.81 9.09018 37.18C9.08018 36.75 9.04018 36.32 8.99018 35.9C8.88018 34.73 8.70018 33.58 8.45018 32.44C8.36018 32.02 8.26018 31.6 8.15018 31.18C7.77018 29.74 7.29018 28.33 6.72018 26.97C6.56018 26.56 6.38018 26.17 6.19018 25.77C5.29018 23.82 4.19018 21.95 2.93018 20.18V3.02999L10.8202 0.73999C12.8702 7.95999 14.5702 15.15 16.0002 23.62C16.0602 23.94 16.1102 24.27 16.1502 24.59C16.1602 24.69 16.1802 24.79 16.1902 24.89C16.3202 25.88 16.4202 26.86 16.4902 27.85L16.6802 30.58L16.7702 31.85L17.1502 37.21C17.2502 38.62 17.7302 40 18.6402 41.08C19.0402 41.55 19.3202 42.01 19.5202 42.45C19.6302 42.69 19.7102 42.92 19.7802 43.12C19.8502 43.33 19.8902 43.52 19.9202 43.69C20.0202 44.12 20.0202 44.39 20.0202 44.39L21.0102 52.83L21.1502 54.1L21.4202 56.39L3.45018 57.26C3.94018 56.55 4.39018 55.83 4.82018 55.09C5.07018 54.66 5.32018 54.21 5.55018 53.77C6.15018 52.61 6.68018 51.41 7.14018 50.19C7.36018 49.61 7.56018 49.02 7.74018 48.42Z" fill="#9DAADA"/>
<path d="M16.1899 24.8899L6.71994 26.9699C6.55994 26.5599 6.37994 26.1699 6.18994 25.7699L15.9999 23.6199C16.0599 23.9399 16.1099 24.2699 16.1499 24.5899C16.1599 24.6899 16.1799 24.7899 16.1899 24.8899Z" fill="#7381CC"/>
<path d="M16.7699 31.8501L8.4499 32.4401C8.3599 32.0201 8.2599 31.6001 8.1499 31.1801L16.6799 30.5801L16.7699 31.8501Z" fill="#7381CC"/>
<path d="M10.8197 36.4199C10.8397 36.7699 10.5797 37.0699 10.2197 37.0999L9.08975 37.1799C9.07975 36.7499 9.03975 36.3199 8.98975 35.8999L10.1297 35.8199C10.4897 35.7999 10.7897 36.0599 10.8197 36.4199Z" fill="#7381CC"/>
<path d="M0.98998 51.8499C1.00998 51.9099 1.02998 51.9699 1.04998 52.0299C1.02998 51.9699 1.00998 51.9099 0.97998 51.8499H0.98998Z" fill="#7381CC"/>
<path d="M19.9301 43.69H19.9201L7.14014 50.19C7.36014 49.61 7.56014 49.02 7.74014 48.42L19.5201 42.45C19.6301 42.69 19.7101 42.92 19.7801 43.12C19.8501 43.33 19.8901 43.52 19.9301 43.69Z" fill="#7381CC"/>
<path d="M21.1498 54.1001L4.81982 55.0901C5.06982 54.6601 5.31982 54.2101 5.54982 53.7701L21.0098 52.8301L21.1498 54.1001Z" fill="#7381CC"/>
<path d="M11.1697 19.19L12.2397 19.12C13.0497 19.06 13.7497 19.68 13.8097 20.49L13.8297 20.74C13.8897 21.55 13.2697 22.25 12.4597 22.31L11.3897 22.38C10.5797 22.44 9.87974 21.83 9.81974 21.02L9.79974 20.76C9.74974 19.95 10.3597 19.24 11.1697 19.19Z" fill="#BAEEE6"/>
</g>
<defs>
<clipPath id="clip0_301_11001">
<rect width="20.44" height="56.52" fill="white" transform="translate(0.97998 0.73999)"/>
</clipPath>
</defs>
</svg>
