<svg width="28" height="142" viewBox="0 0 28 142" fill="none" xmlns="http://www.w3.org/2000/svg">
<g clip-path="url(#clip0_301_5140)">
<path d="M26.1398 31.5298H22.8198V136.74H26.1398V31.5298Z" fill="#8B919F"/>
<path d="M27.9198 31.5299H21.0298V3.1899C21.0298 2.1999 21.8298 1.3999 22.8198 1.3999H26.1398C27.1298 1.3999 27.9298 2.1999 27.9298 3.1899V31.5299H27.9198Z" fill="#0E1F2C"/>
<path d="M26.1399 47.8697H22.8199C22.1499 47.8697 21.6099 47.3297 21.6099 46.6597V45.1297C21.6099 44.4597 22.1499 43.9197 22.8199 43.9197H26.1399C26.8099 43.9197 27.3499 44.4597 27.3499 45.1297V46.6597C27.3499 47.3297 26.8099 47.8697 26.1399 47.8697Z" fill="#0E1F2C"/>
<path d="M26.1399 141.59H22.8199C22.1499 141.59 21.6099 141.05 21.6099 140.38V127.74C21.6099 127.07 22.1499 126.53 22.8199 126.53H26.1399C26.8099 126.53 27.3499 127.07 27.3499 127.74V140.38C27.3499 141.05 26.8099 141.59 26.1399 141.59Z" fill="#0E1F2C"/>
<path d="M26.1399 86.9299H22.8199C22.1499 86.9299 21.6099 86.3899 21.6099 85.7199V67.5799C21.6099 66.9099 22.1499 66.3699 22.8199 66.3699H26.1399C26.8099 66.3699 27.3499 66.9099 27.3499 67.5799V85.7099C27.3499 86.3899 26.8099 86.9299 26.1399 86.9299Z" fill="#0E1F2C"/>
<path d="M17.5654 17.9029C23.8411 11.6273 26.8264 4.43774 24.2333 1.84468C21.6403 -0.748373 14.4508 2.23697 8.17511 8.51264C1.89944 14.7883 -1.0859 21.9778 1.50716 24.5709C4.10021 27.1639 11.2897 24.1786 17.5654 17.9029Z" stroke="#0E1F2C" stroke-miterlimit="10"/>
</g>
<defs>
<clipPath id="clip0_301_5140">
<rect width="27.85" height="141.18" fill="white" transform="translate(0.0698242 0.409912)"/>
</clipPath>
</defs>
</svg>
