<svg width="29" height="226" viewBox="0 0 29 226" fill="none" xmlns="http://www.w3.org/2000/svg">
<g clip-path="url(#clip0_301_3211)">
<path d="M26.6301 32.0898H23.3101V220.18H26.6301V32.0898Z" fill="#8B919F"/>
<path d="M28.41 32.09H21.52V3.74996C21.52 2.75996 22.32 1.95996 23.31 1.95996H26.63C27.62 1.95996 28.42 2.75996 28.42 3.74996V32.09H28.41Z" fill="#0E1F2C"/>
<path d="M26.6301 48.4297H23.3101C22.6401 48.4297 22.1001 47.8897 22.1001 47.2197V45.6897C22.1001 45.0197 22.6401 44.4797 23.3101 44.4797H26.6301C27.3001 44.4797 27.8401 45.0197 27.8401 45.6897V47.2197C27.8401 47.8897 27.3001 48.4297 26.6301 48.4297Z" fill="#0E1F2C"/>
<path d="M26.6301 225.03H23.3101C22.6401 225.03 22.1001 224.49 22.1001 223.82V211.18C22.1001 210.51 22.6401 209.97 23.3101 209.97H26.6301C27.3001 209.97 27.8401 210.51 27.8401 211.18V223.82C27.8401 224.48 27.3001 225.03 26.6301 225.03Z" fill="#0E1F2C"/>
<path d="M26.6301 158.98H23.3101C22.6401 158.98 22.1001 158.44 22.1001 157.77V100.96C22.1001 100.29 22.6401 99.7498 23.3101 99.7498H26.6301C27.3001 99.7498 27.8401 100.29 27.8401 100.96V157.77C27.8401 158.44 27.3001 158.98 26.6301 158.98Z" fill="#0E1F2C"/>
<path d="M18.0556 18.463C24.3313 12.1873 27.3166 4.9978 24.7236 2.40474C22.1305 -0.188314 14.941 2.79703 8.66534 9.07269C2.38968 15.3484 -0.595666 22.5379 1.99739 25.1309C4.59045 27.724 11.78 24.7386 18.0556 18.463Z" stroke="#0E1F2C" stroke-miterlimit="10"/>
</g>
<defs>
<clipPath id="clip0_301_3211">
<rect width="27.85" height="224.06" fill="white" transform="translate(0.560059 0.969971)"/>
</clipPath>
</defs>
</svg>
