<svg width="32" height="82" viewBox="0 0 32 82" fill="none" xmlns="http://www.w3.org/2000/svg">
<g clip-path="url(#clip0_301_3233)">
<path d="M30.3702 68.18C29.5902 68.33 28.8202 68.4 28.0602 68.4C27.7902 68.4 27.5202 68.39 27.2602 68.37C25.5802 68.23 24.0602 67.58 22.6102 66.39C20.2102 64.41 18.8302 61.28 18.8302 57.8V40.44C18.9102 40.36 19.0002 40.27 19.0902 40.17C19.1502 40.11 19.2102 40.05 19.2702 39.98L19.3502 39.88L25.8102 32.74L29.7802 26.86C30.0102 26.5 30.1702 26.1 30.2502 25.67C30.5002 24.42 30.0402 23.15 29.0102 22.3C28.9202 22.22 28.8202 22.14 28.7102 22.07C28.1602 21.72 27.5202 21.54 26.8702 21.54C26.6702 21.54 26.4802 21.56 26.2802 21.59C25.3002 21.75 24.4402 22.31 23.9402 23.11L22.3002 25.52L22.3802 22.61L22.8802 16.4L23.0302 14.42L23.6202 7.13C23.8402 5.43 22.8802 3.81 21.4002 3.31L21.2902 3.26L21.2302 3.24C20.9302 3.15 20.6002 3.1 20.2602 3.1C20.1702 3.1 20.0802 3.1 19.9902 3.11C19.3202 3.15 18.6802 3.39 18.1402 3.79C17.5102 4.26 17.0802 4.9 16.8602 5.72C16.8202 5.85 16.7902 5.97 16.7802 6.07L16.4902 7.7L16.4602 4.09C16.4602 2.65 15.6102 1.32 14.3502 0.78C14.0802 0.66 13.8202 0.58 13.5702 0.54C13.4002 0.51 13.2302 0.5 13.0602 0.5C12.8202 0.5 12.5802 0.53 12.3502 0.57C11.5902 0.71 10.9202 1.09 10.4102 1.67C9.84023 2.31 9.53023 3.12 9.53023 3.96V4.77C9.32023 4.68 9.10023 4.61 8.89023 4.57L8.74023 4.54L8.65023 4.52C8.56023 4.51 8.46023 4.5 8.38023 4.5C8.29023 4.49 8.19023 4.48 8.10023 4.48C8.02023 4.48 7.93023 4.48 7.93023 4.49L7.78023 4.5L7.70023 4.52C7.53023 4.55 7.37023 4.58 7.24023 4.62C7.15023 4.65 7.06023 4.68 6.95023 4.72C6.84023 4.76 6.74023 4.8 6.61023 4.87C6.34023 5.01 6.09023 5.19 5.83023 5.44C5.78023 5.48 5.74023 5.53 5.74023 5.54C5.68023 5.59 5.62023 5.65 5.60023 5.67L5.54023 5.73L5.52023 5.76H5.45023L5.17023 6.29C5.11023 6.38 5.06023 6.48 5.04023 6.56L4.99023 6.68C4.95023 6.78 4.94023 6.86 4.91023 6.95L4.89023 6.94L4.84023 7.09C4.81023 7.18 4.80023 7.27 4.78023 7.35H4.79023C4.79023 7.36 4.79023 7.36 4.78023 7.37H4.77023V7.4C4.77023 7.41 4.76023 7.43 4.76023 7.44L4.74023 7.54C4.71023 7.72 4.70023 7.91 4.70023 8.09V10.9H4.68023C4.58023 10.88 4.47023 10.86 4.39023 10.84C4.24023 10.82 4.08023 10.8 3.91023 10.8H3.88023H3.65023C3.65023 10.8 3.50023 10.82 3.46023 10.83C3.31023 10.85 3.17023 10.87 3.03023 10.9C2.86023 10.94 2.71023 11 2.60023 11.05L2.49023 11.09L2.43023 11.12C2.27023 11.19 2.12023 11.28 1.95023 11.4L1.88023 11.45C1.78023 11.52 1.68023 11.61 1.55023 11.72C1.50023 11.76 1.45023 11.8 1.36023 11.89L1.32023 11.94L1.00023 12.35L0.970234 12.4C0.930234 12.46 0.900234 12.52 0.850234 12.61C0.810234 12.68 0.660234 13 0.660234 13C0.620234 13.1 0.590234 13.2 0.540234 13.39C0.520234 13.46 0.500234 13.52 0.490234 13.59C0.440234 13.87 0.420234 14.14 0.430234 14.44C0.430234 14.44 1.63023 28.84 1.64023 28.88C1.66023 29.17 1.69023 29.47 1.74023 29.82L1.77023 30.01C1.82023 30.36 1.89023 30.71 1.96023 31.06L1.98023 31.16C2.06023 31.52 2.14023 31.87 2.26023 32.3C2.35023 32.62 2.44023 32.93 2.54023 33.28V33.55L2.66023 33.67C2.77023 34 2.88023 34.33 3.00023 34.68L3.27023 35.43L3.75023 36.65C3.97023 37.19 4.12023 37.52 4.12023 37.52L4.21023 37.72C4.24023 37.79 4.28023 37.86 4.34023 37.97L4.51023 38.28L5.38023 37.79L4.57023 38.37L4.87023 38.85C4.87023 38.85 4.93023 38.94 4.98023 39C5.01023 39.04 5.20023 39.31 5.20023 39.31L5.28023 39.41C5.35023 39.5 5.42023 39.59 5.48023 39.66C5.48023 39.66 5.74023 39.96 5.77023 39.99C5.76023 40.09 5.76023 40.18 5.76023 40.28V57.8C5.76023 65.17 8.86023 71.98 14.2702 76.48C17.8102 79.42 21.8402 81.08 26.2402 81.43C26.8302 81.48 27.4702 81.5 28.1602 81.5C29.0002 81.5 29.8402 81.46 30.6802 81.38L31.5802 81.29V67.96L30.3702 68.18Z" fill="#49535C"/>
<path d="M16.7103 38.8999C16.6903 39.1999 16.7203 39.2399 16.7303 39.1599C16.7203 39.0599 16.7203 38.9799 16.7203 38.9299C16.7203 38.9199 16.7103 38.9099 16.7103 38.8999Z" fill="#BDBDBD"/>
<path d="M17.8003 40.01C17.9603 39.9 18.1503 39.73 18.3603 39.5C18.3403 39.52 18.3203 39.54 18.3003 39.56C18.1103 39.76 17.9503 39.91 17.8003 40.01Z" fill="#F6C09C"/>
<path d="M28.93 26.33L25.01 32.13L18.5 39.33H18.49V39.32C12.78 33.49 18.78 28.07 18.78 28.07C14.75 28.54 10.52 25.38 10.52 21.33V3.95997C10.52 2.45997 11.85 1.26997 13.4 1.52997C14.61 1.71997 15.45 2.85997 15.45 4.08997L15.52 13.76L15.53 15.76L15.55 18.65L16.06 15.77L16.41 13.8L17.75 6.23997C17.94 4.74997 19.44 3.74997 20.93 4.19997C22.1 4.55997 22.78 5.78997 22.62 7.00997L22.03 14.34L21.88 16.33L21.38 22.54L21.25 27.4C21.3 27.83 21.86 27.96 22.1 27.6L24.77 23.68C25.5 22.53 27.03 22.2 28.18 22.93C29.33 23.66 29.67 25.18 28.93 26.33Z" fill="#4E6171"/>
<path d="M10.5202 7.26006V7.25006C10.4502 7.00006 10.3302 6.77006 10.1902 6.57006L10.1802 6.56006C10.3302 6.78006 10.4502 7.02006 10.5202 7.28006V7.26006Z" fill="#AD7153"/>
<path d="M27.1705 69.38C25.2805 69.22 23.5805 68.5 21.9705 67.17C19.3305 64.99 17.8305 61.57 17.8305 57.81V40.28C17.8305 40.19 17.8005 40.12 17.8005 40.02C16.9505 40.61 16.7805 39.67 16.7405 39.16C16.7505 39.11 16.7505 39.03 16.7305 38.93C16.7305 38.89 16.7305 38.87 16.7205 38.87C16.7205 38.89 16.7205 38.89 16.7205 38.9C16.6705 38.7 16.5105 38.49 16.0705 38.61C15.8505 38.67 15.6205 38.7 15.4105 38.7C14.3605 38.7 13.4005 38.02 13.0705 36.97C12.8505 37.19 12.6005 37.37 12.3005 37.5C11.9805 37.64 11.6505 37.71 11.3205 37.71C10.7005 37.71 10.1105 37.45 9.65047 37.03C9.42047 37.7 8.92047 38.26 8.21047 38.53C7.92047 38.64 8.35047 40.38 8.06047 40.38C7.70047 40.38 7.24047 40.07 6.79047 39.63C6.77047 39.85 6.73047 40.06 6.73047 40.27V57.8C6.73047 64.88 9.70047 71.4 14.8805 75.71C18.2605 78.51 22.1005 80.1 26.2905 80.43C26.8905 80.48 27.5105 80.5 28.1305 80.5C28.9305 80.5 29.7405 80.46 30.5505 80.38V69.17C29.4005 69.39 28.2605 69.46 27.1705 69.38Z" fill="#49535C"/>
<path d="M18.3501 39.4901C18.4001 39.4401 18.4501 39.3901 18.5001 39.3301C18.4501 39.4001 18.4001 39.4401 18.3501 39.4901Z" fill="#AD7153"/>
<path d="M18.5103 39.32V39.33C18.4603 39.39 18.4203 39.44 18.3703 39.49C18.3503 39.51 18.3303 39.53 18.3103 39.55C18.1203 39.75 17.9603 39.9 17.8103 40V40.01C17.5603 40.19 17.1903 40.34 16.8103 40.48C15.8303 40.82 14.7803 40.97 13.7303 40.99C9.35026 41.08 7.93025 40.87 6.80025 39.63L6.71026 39.54C6.60026 39.43 6.49025 39.31 6.39025 39.19C6.34025 39.13 6.29026 39.08 6.24025 39.01C6.01025 38.73 5.79025 38.44 5.61025 38.15C5.55025 38.07 5.50026 37.99 5.45025 37.91C5.38025 37.8 5.32025 37.68 5.26025 37.58C5.25025 37.57 5.24025 37.55 5.23025 37.53C5.22025 37.52 5.22025 37.5 5.21025 37.49C5.14025 37.35 5.07025 37.22 5.03025 37.11C5.03025 37.11 4.84025 36.68 4.57025 36C4.55025 35.95 4.53025 35.91 4.51025 35.85C4.47025 35.75 4.42025 35.63 4.38025 35.52C4.25025 35.2 4.12025 34.84 3.98025 34.45C3.84025 34.04 3.69025 33.6 3.55025 33.14C3.55025 33.13 3.54025 33.13 3.54025 33.12C3.09025 31.67 2.70025 30.07 2.63025 28.69L2.58025 28.07L1.96025 20.63L1.80025 18.72L1.44025 14.35C1.41025 13.65 1.68025 13.01 2.12025 12.55C2.23025 12.44 2.34025 12.34 2.47025 12.25C2.51025 12.22 2.56025 12.2 2.61025 12.17C2.69025 12.12 2.77025 12.06 2.86025 12.02C3.13025 11.9 3.42025 11.82 3.73025 11.8C3.75025 11.8 3.78025 11.79 3.80025 11.79C4.00025 11.78 4.20025 11.8 4.39025 11.85C4.41025 11.86 4.43025 11.86 4.45025 11.87C4.55025 11.89 4.65025 11.92 4.75025 11.96C4.83025 11.99 4.90025 12.03 4.98025 12.06C5.05025 12.1 5.12025 12.14 5.18025 12.18C5.36025 12.29 5.52026 12.41 5.66025 12.56C5.67026 12.57 5.69026 12.59 5.71026 12.6V8.08998C5.71026 7.92998 5.72025 7.77998 5.75026 7.61998C5.75026 7.60998 5.76025 7.59998 5.76025 7.58998C5.78025 7.47998 5.81026 7.36998 5.85026 7.25998C5.87025 7.18998 5.89025 7.12998 5.92025 7.05998C5.97025 6.94998 6.01025 6.83998 6.07025 6.72998H6.08026C6.15026 6.59998 6.23026 6.48998 6.31026 6.37998C6.35026 6.33998 6.40026 6.28998 6.44026 6.24998C6.47026 6.20998 6.51025 6.17998 6.54026 6.14998C6.61026 6.07998 6.68025 6.01998 6.75026 5.96998C6.81026 5.91998 6.87025 5.87998 6.94026 5.83998C6.99026 5.80998 7.04026 5.76998 7.10026 5.73998C7.18025 5.69998 7.27026 5.65998 7.37025 5.62998C7.41025 5.60998 7.45025 5.58998 7.50026 5.57998C7.62025 5.53998 7.75025 5.51998 7.88025 5.49998C7.90025 5.49998 7.92026 5.48998 7.94026 5.48998C8.16025 5.46998 8.37025 5.48998 8.58025 5.51998C8.61025 5.52998 8.63025 5.52998 8.66025 5.53998C9.07025 5.61998 9.43026 5.79998 9.74026 6.05998C9.76026 6.07998 9.78026 6.08998 9.81026 6.11998C9.95026 6.24998 10.0803 6.38998 10.1903 6.54998C10.3403 6.76998 10.4603 6.99998 10.5403 7.25998V21.33C10.5403 25.38 14.7703 28.54 18.8003 28.07C18.8003 28.07 12.8003 33.49 18.5103 39.32Z" fill="#111E2B"/>
<path d="M15.52 13.76L15.53 15.76H10.52V13.76H15.52Z" fill="#D0E2EA"/>
<path d="M10.1203 22.0599C9.58028 22.0599 9.13028 21.6199 9.12028 21.0799C9.11028 20.5299 9.55028 20.0699 10.1003 20.0599L16.4003 19.9399C16.9503 19.9499 17.4103 20.3699 17.4203 20.9199C17.4303 21.4699 16.9903 21.9299 16.4403 21.9399L10.1403 22.0599C10.1303 22.0599 10.1303 22.0599 10.1203 22.0599Z" fill="#111E2B"/>
<path d="M11.0301 17.76L6.64014 17.93C6.09014 17.93 5.64014 17.48 5.64014 16.93C5.64014 16.38 6.09014 15.93 6.64014 15.93L11.0301 15.76V17.76Z" fill="#4E6171"/>
<path d="M4.88027 20.23L1.94027 20.63L1.78027 18.63L4.60027 18.24C5.15027 18.17 5.65027 18.55 5.73027 19.09C5.81027 19.65 5.43027 20.15 4.88027 20.23Z" fill="#4E6171"/>
<path d="M22.0301 14.34L21.8801 16.33L16.0601 15.77L16.4101 13.8L22.0301 14.34Z" fill="#D0E2EA"/>
<path d="M18.3502 74.92C18.2602 74.92 18.1702 74.9 18.0902 74.85C16.0402 73.63 14.2202 71.94 12.6902 69.84C10.0702 66.24 8.68018 61.8 8.68018 56.98V44.21C8.68018 43.93 8.90018 43.71 9.18018 43.71C9.46018 43.71 9.68018 43.93 9.68018 44.21V56.99C9.68018 61.59 11.0002 65.83 13.5002 69.26C14.9502 71.25 16.6702 72.84 18.6102 74C18.8502 74.14 18.9202 74.45 18.7802 74.69C18.6902 74.84 18.5202 74.92 18.3502 74.92Z" fill="#111E2B"/>
</g>
<defs>
<clipPath id="clip0_301_3233">
<rect width="31.13" height="81" fill="white" transform="translate(0.430176 0.5)"/>
</clipPath>
</defs>
</svg>
