<svg width="25" height="58" viewBox="0 0 25 58" fill="none" xmlns="http://www.w3.org/2000/svg">
<g clip-path="url(#clip0_301_3165)">
<path d="M18.8702 33.335C18.8602 34.155 18.8602 34.975 18.8602 35.765C18.8602 36.375 18.8702 36.965 18.9002 37.555C18.9202 38.065 18.9502 38.565 19.0002 39.045C19.1302 40.855 19.3602 42.505 19.5802 43.825C19.9002 45.735 20.2102 46.955 20.2102 46.955L9.69016 57.135C9.19016 56.675 8.73016 56.095 8.32016 55.405C7.14016 53.465 6.29016 50.775 5.68016 48.185C5.17016 45.985 4.83016 43.755 4.63016 41.505C4.58016 41.005 4.54016 40.505 4.52016 40.005C4.45016 38.855 4.41016 37.695 4.41016 36.535V25.555C4.41016 23.895 3.95016 22.245 2.97016 20.905C2.55016 20.325 2.26016 19.765 2.06016 19.235C1.84016 18.655 1.74016 18.155 1.69016 17.755C1.62016 17.245 1.64016 16.925 1.64016 16.925L0.780156 6.99499L0.640156 5.49499L0.410156 2.80499L21.2902 0.86499V8.50499C21.2902 8.93499 21.3402 9.28499 21.4302 9.55499C21.8602 10.955 23.1802 10.565 23.1802 10.565L24.8402 16.415L20.5502 20.705C19.5502 21.705 18.9702 23.065 18.9502 24.485C18.9402 25.005 18.9402 25.595 18.9302 26.245C18.9202 26.715 18.9202 27.215 18.9202 27.735C18.9102 29.015 18.8902 30.415 18.8802 31.835C18.8702 32.345 18.8702 32.845 18.8702 33.335Z" fill="#9DAADA"/>
<path d="M20.2003 46.9549L9.69031 57.1349C9.19031 56.6749 8.73031 56.0949 8.32031 55.4049L19.5703 43.8149C19.9003 45.7349 20.2003 46.9549 20.2003 46.9549Z" fill="#7381CC"/>
<path d="M18.99 39.0449L4.63002 41.5149C4.58002 41.0149 4.54002 40.5149 4.52002 40.0149L18.89 37.5549C18.92 38.0649 18.95 38.5649 18.99 39.0449Z" fill="#7381CC"/>
<path d="M18.8702 31.845C18.8702 32.345 18.8602 32.845 18.8602 33.335H4.41016V31.845H18.8702Z" fill="#7381CC"/>
<path d="M18.9302 26.2451C18.9202 26.7151 18.9202 27.2151 18.9202 27.7351H12.4902C12.0802 27.7351 11.7402 27.4051 11.7402 26.9851C11.7402 26.5751 12.0702 26.2351 12.4902 26.2351H18.9302V26.2451Z" fill="#7381CC"/>
<path d="M21.4299 9.55508L2.05994 19.2351C1.83994 18.6551 1.73994 18.1551 1.68994 17.7551L21.2899 7.95508V8.50508C21.2899 8.93508 21.3399 9.28508 21.4299 9.55508Z" fill="#7381CC"/>
<path d="M21.2901 5.49487V6.99487H0.780137L0.640137 5.49487H21.2901Z" fill="#7381CC"/>
<path d="M9.76018 47.085H8.81018C7.77018 47.085 6.93018 46.245 6.93018 45.205C6.93018 44.165 7.77018 43.325 8.81018 43.325H9.76018C10.8002 43.325 11.6402 44.165 11.6402 45.205C11.6402 46.245 10.8002 47.085 9.76018 47.085Z" fill="#BAEEE6"/>
</g>
<defs>
<clipPath id="clip0_301_3165">
<rect width="24.43" height="56.27" fill="white" transform="translate(0.410156 0.86499)"/>
</clipPath>
</defs>
</svg>
