<svg width="85" height="154" viewBox="0 0 85 154" fill="none" xmlns="http://www.w3.org/2000/svg">
<g clip-path="url(#clip0_301_11062)">
<path d="M80.2102 92.55H62.4302V94.9901H80.2102V92.55Z" fill="#97AEB7"/>
<path d="M80.2102 51.53H62.4302V54.58H80.2102V51.53Z" fill="#567C8A"/>
<path d="M72.5401 110.32H70.1001V144.55H72.5401V110.32Z" fill="#97AEB7"/>
<path d="M71.32 112.7L61.21 95.71V6.98999H63.65V95.04L71.32 107.93L78.99 95.04V6.98999H81.43V95.71L71.32 112.7Z" fill="#97AEB7"/>
<path d="M80.6501 7.85003H62.0001C60.1101 7.85003 58.5801 6.32003 58.5801 4.43003V4.20003C58.5701 2.31003 60.1101 0.780029 62.0001 0.780029H80.6501C82.5401 0.780029 84.0701 2.31003 84.0701 4.20003V4.42003C84.0701 6.32003 82.5401 7.85003 80.6501 7.85003Z" fill="#0E1F2B"/>
<path d="M74.89 139.72C74.69 137.93 73.17 136.53 71.33 136.53C69.48 136.53 67.97 137.92 67.77 139.72H67.75V153.22H74.93V139.72H74.89Z" fill="#0E1F2B"/>
<path d="M11.0802 91.4144L10.4292 93.7661L27.5656 98.5098L28.2166 96.1581L11.0802 91.4144Z" fill="#97AEB7"/>
<path d="M22.0237 51.8841L21.21 54.8237L38.3463 59.5674L39.1601 56.6278L22.0237 51.8841Z" fill="#567C8A"/>
<path d="M13.741 110.581L4.6084 143.572L6.96007 144.223L16.0926 111.232L13.741 110.581Z" fill="#97AEB7"/>
<path d="M14.2701 113.21L9.06006 94.1401L32.7301 8.64014L35.0801 9.29014L11.5901 94.1401L15.5401 108.62L26.3801 98.2301L49.8701 13.3801L52.2201 14.0301L28.5501 99.5301L14.2701 113.21Z" fill="#97AEB7"/>
<path d="M51.23 14.65L33.26 9.67002C31.44 9.17002 30.37 7.28002 30.87 5.46002L30.93 5.25002C31.43 3.43002 33.32 2.36002 35.14 2.86002L53.11 7.83002C54.93 8.33002 56 10.22 55.5 12.04L55.44 12.25C54.94 14.09 53.05 15.15 51.23 14.65Z" fill="#0E1F2B"/>
<path d="M10.5 140.2C10.79 138.42 9.69 136.67 7.91 136.18C6.13 135.69 4.3 136.63 3.62 138.3L3.6 138.29L0 151.3L6.92 153.21L10.52 140.2H10.5Z" fill="#0E1F2B"/>
</g>
<defs>
<clipPath id="clip0_301_11062">
<rect width="84.07" height="152.44" fill="white" transform="translate(0 0.780029)"/>
</clipPath>
</defs>
</svg>
