<svg width="28" height="90" viewBox="0 0 28 90" fill="none" xmlns="http://www.w3.org/2000/svg">
<g clip-path="url(#clip0_301_11044)">
<path d="M27.4198 75.665C27.4498 76.525 27.1398 77.355 26.5298 78.015C25.8198 78.785 24.7598 79.245 23.6398 79.275L23.4898 79.285C23.1098 79.285 22.7198 79.225 22.3598 79.125V81.975C22.3598 83.835 20.7898 85.415 18.7798 85.575C18.6698 85.585 18.5498 85.585 18.4398 85.585C17.7898 85.585 17.1698 85.455 16.6298 85.205V86.105C16.6298 88.025 14.8698 89.585 12.6998 89.585C12.4998 89.585 12.2898 89.565 12.0798 89.545C10.1998 89.275 8.7898 87.745 8.7898 85.975L8.4098 81.625L8.0498 83.985C7.7898 85.685 6.1198 86.975 4.1498 86.975C3.7798 86.975 3.3998 86.935 3.0398 86.835C1.1998 86.355 0.0197978 84.675 0.299798 82.915L1.4798 75.165C1.8798 74.845 2.2698 74.505 2.6498 74.155C3.1798 73.685 3.6898 73.205 4.1898 72.695C4.8598 72.035 5.4898 71.345 6.0998 70.635C7.7898 68.665 9.2398 66.525 10.4398 64.265C10.6498 63.855 10.8598 63.435 11.0598 63.015C11.6198 61.845 12.1098 60.635 12.5198 59.395C13.0098 57.945 13.3898 56.455 13.6598 54.925C13.9798 53.125 14.1498 51.275 14.1498 49.395C14.1498 42.435 11.8498 35.965 7.9198 30.485V0.415039H13.9398L14.1398 1.16504C18.6398 18.315 21.9998 47.015 22.3598 50.745C23.5798 52.155 24.4398 53.835 25.2298 56.275C25.2998 56.485 25.3898 56.705 25.4698 56.925C25.6298 57.355 25.7998 57.795 25.9098 58.285L25.9998 58.705V58.715C26.7898 62.595 26.9198 68.145 26.9298 68.385L27.1498 70.705L27.4198 75.665Z" fill="#49535C"/>
<path d="M26.4197 75.715C26.4797 77.075 25.2197 78.225 23.6097 78.275C22.7297 78.305 21.9197 77.985 21.3597 77.465V81.975C21.3597 83.275 20.2397 84.455 18.7097 84.575C17.2497 84.685 16.0097 83.895 15.6297 82.795V86.105C15.6297 87.605 14.0497 88.795 12.2197 88.545C10.7797 88.345 9.78966 87.205 9.78966 85.975L8.93966 76.175L8.70966 73.465L8.68966 73.245L8.65966 73.465L8.61966 73.675V73.685L7.05966 83.825C6.83966 85.315 5.05966 86.315 3.28966 85.865C1.90966 85.505 1.09966 84.275 1.28966 83.065L2.64966 74.155C3.17966 73.685 3.68966 73.205 4.18966 72.695C4.85966 72.035 5.48966 71.345 6.09966 70.635C7.78966 68.665 9.23966 66.525 10.4397 64.265C10.6497 63.855 10.8597 63.435 11.0597 63.015C11.6197 61.845 12.1097 60.635 12.5197 59.395C13.0097 57.945 13.3897 56.455 13.6597 54.925C13.9797 53.125 14.1497 51.275 14.1497 49.395C14.1497 42.435 11.8497 35.965 7.91966 30.485V1.41504H13.1697C18.0097 19.835 21.3597 50.495 21.3897 51.165C22.7297 52.635 23.5597 54.355 24.2797 56.585C24.3097 56.685 24.3497 56.775 24.3797 56.875C24.3997 56.935 24.4297 56.995 24.4497 57.055L24.4597 57.085C24.6297 57.545 24.8197 58.025 24.9297 58.505L24.9397 58.545C24.9497 58.595 24.9597 58.645 24.9697 58.695C25.7897 62.525 25.9297 68.405 25.9297 68.405L26.1597 70.795L26.4197 75.715Z" fill="#4E6171"/>
<path d="M13.1694 34.3551C13.1794 34.8451 12.4794 34.9151 12.3994 34.4351C11.3194 28.2351 9.42943 17.4651 7.91943 9.64511V3.23511H10.7894L10.8494 3.73511C10.8694 3.94511 12.7494 21.9251 13.1694 34.3551Z" fill="#738293"/>
<path d="M17.1095 57.4949C17.1095 58.9849 15.8995 60.1849 14.4195 60.1849C13.6795 60.1849 13.0095 59.8849 12.5195 59.3949C13.0095 57.9449 13.3895 56.4549 13.6595 54.9249C13.8995 54.8549 14.1595 54.8149 14.4195 54.8149C15.8995 54.8149 17.1095 56.0149 17.1095 57.4949Z" fill="#111E2B"/>
<path d="M24.9395 58.545L24.9295 58.505L24.4595 57.085L24.4495 57.055L24.3895 56.865C24.3895 56.865 24.3895 56.875 24.3795 56.875C22.5895 60.455 18.2195 63.475 14.1195 63.475C13.0495 63.475 12.0295 63.315 11.0595 63.015C10.8595 63.435 10.6495 63.855 10.4395 64.265C11.5995 64.645 12.8295 64.855 14.1195 64.855C18.2795 64.855 22.7595 62.055 24.9695 58.695C24.9695 58.685 24.9795 58.685 24.9795 58.675L24.9395 58.545Z" fill="#111E2B"/>
<path d="M8.61963 73.4651H8.65963L8.61963 73.6751V73.4651Z" fill="#D0E2EA"/>
<path d="M15.8895 73.4651V76.1751H8.93947L8.70947 73.4651H15.8895Z" fill="#D0E2EA"/>
<path d="M15.8896 71.0849L21.1396 70.5649C21.7996 70.5649 22.3396 71.1049 22.3396 71.7649C22.3396 72.4249 21.7996 72.9649 21.1396 72.9649L15.8896 73.4849V71.0849Z" fill="#D0E2EA"/>
<path d="M26.1599 70.795L22.9699 71.195C22.3099 71.285 21.7099 70.825 21.6199 70.175C21.6099 70.125 21.6099 70.065 21.6099 70.015C21.6099 69.425 22.0399 68.905 22.6399 68.825L25.9299 68.405L26.1599 70.795Z" fill="#D0E2EA"/>
<path d="M8.85945 71.125L8.61945 73.465L4.18945 72.695C4.85945 72.035 5.48945 71.345 6.09945 70.635L8.85945 71.125Z" fill="#D0E2EA"/>
</g>
<defs>
<clipPath id="clip0_301_11044">
<rect width="27.16" height="89.17" fill="white" transform="translate(0.259766 0.415039)"/>
</clipPath>
</defs>
</svg>
