<svg width="25" height="66" viewBox="0 0 25 66" fill="none" xmlns="http://www.w3.org/2000/svg">
<g clip-path="url(#clip0_301_14161)">
<path d="M6.45008 35.3051C6.46008 34.4951 6.46008 33.6851 6.46008 32.9151C6.46008 32.3151 6.45008 31.7351 6.42008 31.1551C6.40008 30.6551 6.36008 30.1651 6.32008 29.6851C5.14008 14.8851 3.44008 3.81506 3.44008 3.81506L17.9301 0.685059C18.4201 1.13506 20.5601 21.7851 20.4501 27.2651C20.4401 27.7551 20.5401 28.2451 20.5601 28.7451C20.6301 29.8851 20.6701 31.0251 20.6701 32.1651V42.9551C20.6701 44.5851 21.1201 46.2151 22.0801 47.5251C22.4901 48.0951 22.7801 48.6451 22.9801 49.1651C23.1901 49.7351 23.3001 50.2351 23.3501 50.6151C23.4201 51.1151 23.4001 51.4351 23.4001 51.4351L24.0501 65.3151L4.07008 65.0351V59.7151C4.07008 59.2851 4.02008 58.9551 3.93008 58.6751C3.50008 57.3051 2.21008 57.6851 2.21008 57.6851L0.580078 51.9251L4.80008 47.7051C5.78008 46.7251 6.35008 45.3851 6.37008 43.9851C6.38008 43.4751 6.38008 42.8951 6.39008 42.2551C6.40008 41.7951 6.40008 41.2951 6.40008 40.7851C6.41008 39.5251 6.43008 38.1551 6.44008 36.7551C6.44008 36.2751 6.45008 35.7851 6.45008 35.3051Z" fill="#9DAADA"/>
<path d="M6.33008 29.6851L20.4501 27.2651C20.5001 27.7551 20.5401 28.2451 20.5601 28.7451L6.42008 31.1551C6.40008 30.6551 6.37008 30.1651 6.33008 29.6851Z" fill="#7381CC"/>
<path d="M6.43994 36.7752C6.43994 36.2852 6.44994 35.7952 6.44994 35.3052H20.6599V36.7752H6.43994Z" fill="#7381CC"/>
<path d="M6.39014 42.2652C6.40014 41.8052 6.40014 41.3052 6.40014 40.7952H12.7201C13.1301 40.7952 13.4501 41.1252 13.4501 41.5252C13.4501 41.9352 13.1201 42.2552 12.7201 42.2552H6.39014V42.2652Z" fill="#7381CC"/>
<path d="M3.93018 58.675L22.9702 49.155C23.1802 49.725 23.2902 50.225 23.3402 50.605L4.07018 60.245V59.705C4.07018 59.285 4.02018 58.945 3.93018 58.675Z" fill="#7381CC"/>
<path d="M4.07031 62.6651V61.1951H23.8403L23.9103 62.6651H4.07031Z" fill="#7381CC"/>
<path d="M15.3502 21.7852H16.3902C17.3802 21.7852 18.1802 22.5852 18.1802 23.5752V23.6852C18.1802 24.6752 17.3802 25.4752 16.3902 25.4752H15.3502C14.3602 25.4752 13.5602 24.6752 13.5602 23.6852V23.5852C13.5502 22.5852 14.3602 21.7852 15.3502 21.7852Z" fill="#BAEEE6"/>
</g>
<defs>
<clipPath id="clip0_301_14161">
<rect width="23.46" height="64.63" fill="white" transform="translate(0.580078 0.685059)"/>
</clipPath>
</defs>
</svg>
