<svg width="37" height="72" viewBox="0 0 37 72" fill="none" xmlns="http://www.w3.org/2000/svg">
<g clip-path="url(#clip0_301_11016)">
<path d="M14.4501 46.7801C10.7001 46.7801 8.77011 46.5101 7.22011 44.9301L7.15011 44.8601C6.99011 44.7101 6.84011 44.5601 6.70011 44.4001C6.60011 44.2901 6.53011 44.2201 6.47011 44.1401C6.16011 43.7901 5.89011 43.4501 5.67011 43.1201C5.63011 43.0801 5.56011 42.9701 5.49011 42.8701C5.42011 42.7701 5.37011 42.6801 5.31011 42.5901L5.30011 42.5701L5.27011 42.5501L5.22011 42.4901L5.16011 42.4301L5.10011 42.2701L5.07011 42.2101C4.98011 42.0501 4.91011 41.9001 4.85011 41.7701C4.85011 41.7701 4.62011 41.2801 4.30011 40.5401C4.26011 40.4501 4.23011 40.3901 4.20011 40.3101C4.15011 40.2001 4.10011 40.0801 4.05011 39.9701C3.90011 39.6401 3.74011 39.2201 3.56011 38.7601C3.42011 38.3501 3.26011 37.9201 3.11011 37.4801L2.97011 37.3501V37.0701C2.31011 35.0801 1.94011 33.3601 1.86011 31.9701L1.14011 23.9601L1.03011 22.9401L0.75011 19.7301H0.76011L0.42011 15.8601C0.37011 14.7901 0.78011 13.7701 1.54011 13.0301C1.73011 12.8501 1.91011 12.7001 2.12011 12.5701C2.16011 12.5401 2.24011 12.5001 2.33011 12.4601C2.51011 12.3501 2.63011 12.2801 2.76011 12.2301C3.21011 12.0401 3.67011 11.9401 4.14011 11.9101L4.23011 11.8901H4.28011H4.40011C4.68011 11.8901 4.96011 11.9201 5.23011 11.9901L5.36011 12.0201C5.44011 12.0401 5.52011 12.0601 5.60011 12.0801V8.73006C5.60011 8.50006 5.62011 8.30006 5.65011 8.11006V7.94006L5.71011 7.82006C5.74011 7.69006 5.79011 7.55006 5.84011 7.42006C5.85011 7.37006 5.89011 7.27006 5.95011 7.14006L6.00011 7.03006C6.05011 6.91006 6.11011 6.80006 6.17011 6.69006L6.46011 6.20006H6.53011L6.58011 6.13006L6.77011 5.95006C6.82011 5.90006 6.87011 5.85006 6.92011 5.81006C7.04011 5.69006 7.17011 5.59006 7.30011 5.51006C7.37011 5.46006 7.49011 5.38006 7.63011 5.31006C7.71011 5.26006 7.79011 5.21006 7.87011 5.17006C7.99011 5.12006 8.12011 5.06006 8.27011 5.02006C8.33011 4.99006 8.42011 4.96006 8.53011 4.93006C8.71011 4.88006 8.90011 4.85006 9.09011 4.82006L9.16011 4.81006L9.31011 4.80006C9.33011 4.79006 9.43011 4.79006 9.53011 4.79006C9.76011 4.79006 9.99011 4.81006 10.2201 4.84006L10.3001 4.85006L10.3801 4.87006C10.7501 4.93006 11.1001 5.05006 11.4401 5.22006V4.09006C11.4401 2.00006 13.2201 0.310059 15.4201 0.310059C15.6401 0.310059 15.8601 0.330059 16.0901 0.360059C17.9901 0.640059 19.4201 2.30006 19.4201 4.23006L19.4701 10.4401L20.2301 6.46006C20.4801 4.64006 22.1801 3.23006 24.1901 3.23006C24.5801 3.23006 24.9701 3.28006 25.3401 3.39006C27.1901 3.92006 28.3801 5.75006 28.1101 7.66006L27.4001 15.8601L27.2201 18.0901L26.6101 25.0901L26.5001 29.0001L28.9201 25.7001C29.6401 24.6501 30.8901 24.0101 32.2501 24.0101C33.0001 24.0101 33.7301 24.2101 34.3701 24.5801C35.3001 25.1301 35.9401 25.9901 36.1701 27.0101C36.3901 27.9901 36.1801 29.0001 35.6001 29.8401L30.7901 36.4501L22.8801 44.5701C22.7801 44.6801 22.7201 44.7401 22.6501 44.8101L22.5701 44.8801C22.4701 44.9801 22.3801 45.0701 22.2901 45.1401V45.1801L21.8501 45.4901C21.4501 45.7601 20.9201 45.9601 20.4001 46.1301C19.1801 46.5201 17.8301 46.7301 16.3601 46.7601C15.6601 46.7801 15.0301 46.7801 14.4501 46.7801Z" fill="#49535C"/>
<path d="M27.9 71.69C14.13 71.69 5.56004 60.36 5.54004 42.12V41.12L6.54004 41.04H22.34V42.04C22.34 42.26 22.34 42.48 22.36 42.7C22.36 42.88 22.36 42.98 22.37 43.07C22.63 47.48 24.6 49.34 28.95 49.34C30.53 49.34 31.85 48.98 32.85 48.27C33.12 48.08 33.44 47.97 33.78 47.97C34.67 47.97 35.39 48.69 35.39 49.58V68.68C35.39 69.9 34.51 70.96 33.31 71.2C31.66 71.53 29.84 71.69 27.9 71.69Z" fill="#49535C"/>
<path d="M34.7904 29.27L30.0304 35.8L22.1304 43.91H22.1204V43.9C15.1904 37.34 22.4704 31.24 22.4704 31.24C17.5804 31.77 12.4404 28.21 12.4404 23.65V4.08995C12.4404 2.39995 14.0504 1.05995 15.9404 1.34995C17.4104 1.55995 18.4304 2.84995 18.4304 4.22995L18.5104 15.12L18.5204 17.37L18.5404 20.62L19.1604 17.38L19.5804 15.16L21.2104 6.64995C21.4404 4.96995 23.2604 3.84995 25.0704 4.34995C26.4904 4.75995 27.3204 6.13995 27.1204 7.50995L26.4004 15.76L26.2204 18L25.6104 24.99L25.4504 30.46C25.5104 30.94 26.1904 31.09 26.4804 30.69L29.7204 26.28C30.6104 24.99 32.4604 24.61 33.8604 25.44C35.2704 26.26 35.6904 27.97 34.7904 29.27Z" fill="#4E6171"/>
<path d="M12.44 7.8C12.44 7.79 12.43 7.79 12.43 7.78C12.35 7.5 12.2 7.24 12.03 7.01L12.02 7C12.2 7.25 12.34 7.52 12.43 7.81V7.8H12.44Z" fill="#AD7153"/>
<path d="M22.1403 43.88V43.89C22.0803 43.96 22.0303 44.01 21.9703 44.07C21.9503 44.09 21.9203 44.12 21.9003 44.14C21.6703 44.37 21.4803 44.53 21.2903 44.65V44.66C20.9903 44.86 20.5403 45.03 20.0803 45.19C18.8903 45.57 17.6203 45.74 16.3403 45.76C11.0203 45.86 9.30026 45.62 7.93026 44.23L7.82026 44.13C7.69026 44.01 7.55026 43.87 7.43026 43.74C7.37026 43.67 7.31026 43.62 7.25026 43.54C6.97026 43.22 6.70026 42.9 6.49026 42.57C6.42026 42.48 6.36026 42.39 6.30026 42.3C6.22026 42.18 6.14026 42.04 6.07026 41.93C6.06026 41.92 6.05026 41.9 6.03026 41.87C6.02026 41.86 6.02026 41.84 6.01026 41.82C5.93026 41.66 5.84026 41.52 5.79026 41.39C5.79026 41.39 5.56026 40.91 5.23026 40.14C5.21026 40.08 5.18026 40.04 5.16026 39.97C5.11026 39.86 5.05026 39.72 5.00026 39.6C4.84026 39.24 4.68026 38.83 4.51026 38.4C4.34026 37.94 4.16026 37.44 3.99026 36.93C3.99026 36.92 3.98026 36.92 3.98026 36.91C3.43026 35.28 2.96026 33.48 2.88026 31.92L2.82026 31.22L2.07026 22.84L1.88026 20.69L1.42026 15.77C1.38026 14.98 1.71026 14.26 2.25026 13.74C2.38026 13.62 2.52026 13.5 2.67026 13.4C2.72026 13.37 2.78026 13.34 2.84026 13.31C2.94026 13.25 3.03026 13.19 3.14026 13.14C3.47026 13 3.82026 12.91 4.20026 12.89C4.22026 12.89 4.26026 12.88 4.28026 12.88C4.52026 12.87 4.77026 12.89 5.00026 12.95C5.02026 12.96 5.05026 12.96 5.07026 12.97C5.19026 12.99 5.31026 13.03 5.43026 13.07C5.53026 13.1 5.61026 13.15 5.71026 13.18C5.79026 13.23 5.88026 13.27 5.95026 13.32C6.17026 13.44 6.36026 13.58 6.53026 13.75C6.54026 13.76 6.57026 13.78 6.59026 13.8V8.73004C6.59026 8.55004 6.60026 8.38004 6.64026 8.20004C6.64026 8.19004 6.65026 8.18004 6.65026 8.17004C6.67026 8.05004 6.71026 7.92004 6.76026 7.80004C6.80026 7.71004 6.82026 7.65004 6.86026 7.57004C6.92026 7.44004 6.97026 7.32004 7.04026 7.20004H7.05026C7.13026 7.05004 7.23026 6.93004 7.33026 6.81004C7.38026 6.76004 7.44026 6.71004 7.49026 6.66004C7.53026 6.61004 7.58026 6.58004 7.61026 6.54004C7.69026 6.46004 7.78026 6.39004 7.86026 6.34004C7.93026 6.28004 8.01026 6.24004 8.09026 6.19004C8.16026 6.16004 8.22026 6.11004 8.29026 6.08004C8.39026 6.03004 8.50026 5.99004 8.62026 5.96004C8.67026 5.93004 8.72026 5.91004 8.78026 5.90004C8.92026 5.86004 9.08026 5.83004 9.24026 5.81004C9.26026 5.81004 9.29026 5.80004 9.31026 5.80004C9.58026 5.78004 9.83026 5.80004 10.0903 5.83004C10.1303 5.84004 10.1503 5.84004 10.1903 5.85004C10.6903 5.94004 11.1203 6.14004 11.5003 6.44004C11.5203 6.46004 11.5503 6.47004 11.5803 6.51004C11.7503 6.66004 11.9103 6.81004 12.0403 6.99004C12.2203 7.24004 12.3703 7.50004 12.4603 7.79004V23.63C12.4603 28.19 17.5903 31.75 22.4903 31.22C22.4903 31.22 15.2103 37.32 22.1403 43.88Z" fill="#111E2B"/>
<path d="M18.5104 15.1199L18.5204 17.3699H12.4404V15.1199H18.5104Z" fill="#D0E2EA"/>
<path d="M11.9504 24.4598C11.2904 24.4598 10.7504 23.9698 10.7404 23.3598C10.7304 22.7398 11.2604 22.2198 11.9304 22.2098L19.5704 22.0798C20.2404 22.0898 20.7904 22.5598 20.8104 23.1798C20.8204 23.7998 20.2904 24.3198 19.6204 24.3298L11.9804 24.4598C11.9704 24.4598 11.9604 24.4598 11.9504 24.4598Z" fill="#111E2B"/>
<path d="M13.06 19.62L7.73002 19.81C7.06002 19.81 6.52002 19.31 6.52002 18.68C6.52002 18.06 7.06002 17.55 7.73002 17.55L13.06 17.52V19.62Z" fill="#4E6171"/>
<path d="M5.59033 22.3999L2.03033 22.8499L1.84033 20.5999L5.27033 20.1699C5.93033 20.0899 6.54033 20.5099 6.64033 21.1299C6.72033 21.7399 6.26033 22.3099 5.59033 22.3999Z" fill="#4E6171"/>
<path d="M26.4104 15.7699L26.2304 18.0099L19.1704 17.3799L19.5904 15.1599L26.4104 15.7699Z" fill="#D0E2EA"/>
<path d="M23.11 69.1701C23.04 69.1901 22.9599 69.1901 22.8899 69.1801C20.9499 68.6901 19.09 67.7801 17.36 66.4701C14.3899 64.2201 11.7799 61.0101 10.3899 57.2301C9.33995 54.4001 7.97995 46.9101 7.97995 46.9101C7.90995 46.6901 8.03995 46.4601 8.25995 46.3901C8.47995 46.3201 8.70995 46.4501 8.77995 46.6701C8.77995 46.6701 10.2699 54.2701 11.1899 56.9801C12.4199 60.6201 15.04 63.6501 17.87 65.7901C19.51 67.0301 21.2699 67.9001 23.0999 68.3501C23.32 68.4101 23.4599 68.6301 23.3999 68.8601C23.3599 69.0201 23.25 69.1301 23.11 69.1701Z" fill="#111E2B"/>
</g>
<defs>
<clipPath id="clip0_301_11016">
<rect width="35.84" height="71.38" fill="white" transform="translate(0.419922 0.310059)"/>
</clipPath>
</defs>
</svg>
