<svg width="78" height="84" viewBox="0 0 78 84" fill="none" xmlns="http://www.w3.org/2000/svg">
<g id="hair-9" clip-path="url(#clip0_215_223)">
<g id="Group">
<g id="Group_2">
<path id="Vector" d="M35.6299 63.5799C35.6299 63.5799 31.5299 53.3299 31.3599 52.8399C31.1999 52.3599 22.3299 43.1599 22.3299 43.1599L22.0499 43.4399C20.7499 44.7399 18.7499 44.8799 17.1399 43.9599C15.9399 43.2699 14.4799 42.9799 12.9199 43.2699C10.5499 43.7199 8.62986 45.5999 8.15986 47.9199C7.77986 49.7799 8.29986 51.5099 9.35986 52.8099C9.82986 53.3799 9.99986 54.1299 9.75986 54.8299L9.62986 55.1999C9.29986 56.1599 8.32986 56.7299 7.29986 56.5999C6.99986 56.5599 6.69986 56.5499 6.38986 56.5599C3.14986 56.6399 0.429857 59.4399 0.499857 62.6499C0.569857 65.8899 3.25986 68.4899 6.56986 68.4899H6.58986C7.96986 68.4899 9.23986 69.2699 9.82986 70.4999L9.94986 70.7599C10.4199 71.7299 10.3399 72.8599 9.80986 73.7999C9.16986 74.9199 8.87986 76.2599 9.10986 77.6799C9.50986 80.1799 11.5799 82.2199 14.1199 82.6199C15.0199 82.7599 15.8999 82.6999 16.7099 82.4899C19.1799 81.8299 21.8099 81.7899 24.0999 82.8999C24.5399 83.1099 24.9899 83.2999 25.4499 83.4399C29.8799 84.7999 39.0699 78.1799 39.0699 78.1799L35.6299 63.5799Z" fill="#5C2E2F"/>
<path id="Vector_2" d="M42.5201 63.5799C42.5201 63.5799 46.6201 53.3299 46.7901 52.8399C46.9501 52.3599 55.8201 43.1599 55.8201 43.1599L56.1001 43.4399C57.4001 44.7399 59.4001 44.8799 61.0101 43.9599C62.2101 43.2699 63.6701 42.9799 65.2301 43.2699C67.6001 43.7199 69.5201 45.5999 69.9901 47.9199C70.3701 49.7799 69.8501 51.5099 68.7901 52.8099C68.3201 53.3799 68.1501 54.1299 68.3901 54.8299L68.5001 55.1999C68.8301 56.1599 69.8001 56.7299 70.8301 56.5999C71.1301 56.5599 71.4301 56.5499 71.7401 56.5599C75.0101 56.6499 77.7201 59.4499 77.6501 62.6599C77.5801 65.8999 74.8901 68.4999 71.5801 68.4999H71.5601C70.1801 68.4999 68.9101 69.2799 68.3201 70.5099L68.2001 70.7699C67.7301 71.7399 67.8101 72.8699 68.3401 73.8099C68.9801 74.9299 69.2701 76.2699 69.0401 77.6899C68.6401 80.1899 66.5701 82.2299 64.0301 82.6299C63.1301 82.7699 62.2501 82.7099 61.4401 82.4999C58.9701 81.8399 56.3401 81.7999 54.0501 82.9099C53.6101 83.1199 53.1601 83.3099 52.7001 83.4499C48.2701 84.8099 39.0801 78.1899 39.0801 78.1899L42.5201 63.5799Z" fill="#5C2E2F"/>
</g>
<g id="face">
<g id="Group_3">
<g id="Group_4">
<path id="Vector_3" d="M17.3997 46.9398C21.9284 46.9398 25.5997 43.2685 25.5997 38.7398C25.5997 34.2111 21.9284 30.5398 17.3997 30.5398C12.871 30.5398 9.19971 34.2111 9.19971 38.7398C9.19971 43.2685 12.871 46.9398 17.3997 46.9398Z" fill="#AD7153"/>
<g id="Group_5">
<g id="Group_6">
<path id="Vector_4" d="M15.6898 34.5398C13.4098 34.6498 11.5898 36.5198 11.5898 38.8298H15.6898V34.5398Z" fill="#975C45"/>
</g>
</g>
</g>
<g id="Group_7">
<path id="Vector_5" d="M60.7498 46.9398C65.2785 46.9398 68.9498 43.2685 68.9498 38.7398C68.9498 34.2111 65.2785 30.5398 60.7498 30.5398C56.2211 30.5398 52.5498 34.2111 52.5498 38.7398C52.5498 43.2685 56.2211 46.9398 60.7498 46.9398Z" fill="#AD7153"/>
<g id="Group_8">
<path id="Vector_6" d="M67.0898 38.7299C66.9798 36.4499 65.1098 34.6299 62.7998 34.6299V38.7299H67.0898Z" fill="#975C45"/>
</g>
</g>
</g>
<g id="Group_9">
<path id="Vector_7" d="M38.7095 73.1698C26.6995 73.1698 16.9595 63.4298 16.9595 51.4198V26.0598C16.9595 14.0498 26.6995 4.30981 38.7095 4.30981C50.7195 4.30981 60.4595 14.0498 60.4595 26.0598V51.4098C60.4595 63.4298 50.7195 73.1698 38.7095 73.1698Z" fill="#F6C09C"/>
<path id="Vector_8" d="M20.9797 51.4097V13.4697C18.4497 17.0197 16.9497 21.3597 16.9497 26.0597V51.4097C16.9497 63.4197 26.6897 73.1597 38.6997 73.1597C39.3797 73.1597 40.0497 73.1197 40.7197 73.0597C29.6497 72.0497 20.9797 62.7497 20.9797 51.4097Z" fill="#AD7153"/>
</g>
</g>
<path id="Vector_9" d="M38.6897 4.57978C43.2497 -1.13022 50.9797 0.809777 56.1397 6.09978C63.4597 13.5998 62.6097 24.1498 62.6097 27.2098C62.6097 31.4998 54.1297 23.9498 54.1297 23.9498C50.2597 24.2698 45.8297 22.6098 42.3597 19.1398C36.8697 13.6498 34.9297 9.27978 38.6897 4.57978Z" fill="#5C2E2F"/>
<path id="Vector_10" d="M62.6097 26.4599C62.6597 23.0099 63.1997 12.9499 56.1397 5.71988C51.6997 1.16988 45.3597 -0.900124 40.7697 2.24988C39.5097 3.10988 37.8997 3.10988 36.6397 2.24988C32.0497 -0.890124 25.7097 1.17988 21.2697 5.71988C13.9497 13.2199 14.7997 23.7699 14.7997 26.8299C14.7997 26.8999 14.8097 26.9499 14.8097 27.0199C14.8097 27.1899 14.7997 27.3499 14.7997 27.5199C14.7997 27.9999 14.8197 28.4799 14.8497 28.9599C14.8197 29.2199 14.7997 29.4699 14.7997 29.7099V31.0999C15.4097 30.8899 16.0497 30.7499 16.7097 30.6899L16.7497 33.8699C19.8597 32.5599 20.7197 28.1899 20.7197 28.1899C20.7197 28.1899 36.0797 27.8499 38.7197 16.0999C38.7197 16.0999 40.0397 26.4799 56.2097 28.1899C56.2097 28.1899 55.8697 32.8899 60.7597 33.8699V30.6599H60.7997C61.4297 30.6599 62.0397 30.7299 62.6297 30.8699V29.7099C62.6297 29.4699 62.6097 29.2199 62.5897 28.9599C62.6097 28.4799 62.6297 27.9999 62.6297 27.5199C62.6397 27.1599 62.6297 26.8099 62.6097 26.4599Z" fill="#5C2E2F"/>
</g>
</g>
<defs>
<clipPath id="clip0_215_223">
<rect width="77.15" height="82.88" fill="white" transform="translate(0.5 0.73999)"/>
</clipPath>
</defs>
</svg>
