<svg width="110" height="110" viewBox="0 0 110 110" fill="none" xmlns="http://www.w3.org/2000/svg">
<path d="M75.9803 46.6201H33.5103V91.7101H75.9803V46.6201Z" fill="#5C2E2F"/>
<path d="M35.08 59.8302C39.2443 59.8302 42.62 56.4545 42.62 52.2902C42.62 48.126 39.2443 44.7502 35.08 44.7502C30.9158 44.7502 27.54 48.126 27.54 52.2902C27.54 56.4545 30.9158 59.8302 35.08 59.8302Z" fill="#AD7153"/>
<path d="M33.5102 48.4302C31.4202 48.5302 29.7402 50.2502 29.7402 52.3702H33.5102V48.4302Z" fill="#975C45"/>
<path d="M74.9199 59.8302C79.0841 59.8302 82.4599 56.4545 82.4599 52.2902C82.4599 48.126 79.0841 44.7502 74.9199 44.7502C70.7557 44.7502 67.3799 48.126 67.3799 52.2902C67.3799 56.4545 70.7557 59.8302 74.9199 59.8302Z" fill="#AD7153"/>
<path d="M80.7398 52.2903C80.6398 50.2003 78.9198 48.5203 76.7998 48.5203V52.2903H80.7398Z" fill="#975C45"/>
<path d="M54.6599 83.9301C43.6199 83.9301 34.6699 74.9801 34.6699 63.9401V40.6401C34.6699 29.6001 43.6199 20.6501 54.6599 20.6501C65.6999 20.6501 74.6499 29.6001 74.6499 40.6401V63.9401C74.6499 74.9801 65.6999 83.9301 54.6599 83.9301Z" fill="#F6C09C"/>
<path d="M38.3699 63.9401V29.0801C36.0499 32.3501 34.6699 36.3301 34.6699 40.6401V63.9401C34.6699 74.9801 43.6199 83.9301 54.6599 83.9301C55.2899 83.9301 55.8999 83.8901 56.5099 83.8401C46.3399 82.9001 38.3699 74.3501 38.3699 63.9401Z" fill="#AD7153"/>
<path d="M76.9598 37.38C76.9598 26.83 68.4098 18.29 57.8698 18.29H52.2398C46.7998 18.29 41.8898 20.57 38.4198 24.22C35.1498 27.64 34.8398 32.28 34.8398 37.39V42.05L38.4198 41.84V45.05C39.0198 44.04 39.6098 43.03 39.6098 41.77C39.6198 39.22 40.5898 36.52 41.5098 34.56C42.1998 33.09 44.1298 32.78 45.2598 33.94C47.2798 36.02 50.6598 38.61 60.6498 41.7C78.6498 48.75 72.2998 64.17 71.1998 65.21C71.1998 65.21 80.3898 56.45 75.2298 46.22C75.2298 46.22 75.0598 44.53 76.9498 45.05V37.38H76.9598Z" fill="#5C2E2F" stroke="#5C2E2F" stroke-width="0.25" stroke-miterlimit="10"/>
<path d="M38.41 24.21V45.18C38.36 45.25 38.33 45.34 38.28 45.41C37.45 46.71 36.3 47.87 34.83 49.13L34.7 43.27C34.7 43.27 33.67 28.02 38.41 24.21Z" fill="#472123"/>
</svg>
