<svg width="110" height="110" viewBox="0 0 110 110" fill="none" xmlns="http://www.w3.org/2000/svg">
<path d="M35.08 56.1501C39.2443 56.1501 42.62 52.7743 42.62 48.6101C42.62 44.4458 39.2443 41.0701 35.08 41.0701C30.9158 41.0701 27.54 44.4458 27.54 48.6101C27.54 52.7743 30.9158 56.1501 35.08 56.1501Z" fill="#AD7153"/>
<path d="M33.5102 44.76C31.4202 44.86 29.7402 46.58 29.7402 48.7H33.5102V44.76Z" fill="#975C45"/>
<path d="M74.9204 56.1501C79.0846 56.1501 82.4604 52.7743 82.4604 48.6101C82.4604 44.4458 79.0846 41.0701 74.9204 41.0701C70.7561 41.0701 67.3804 44.4458 67.3804 48.6101C67.3804 52.7743 70.7561 56.1501 74.9204 56.1501Z" fill="#AD7153"/>
<path d="M74.6501 41.7701V56.1401C70.6201 56.0101 67.3701 52.6901 67.3701 48.6101C67.3701 44.7401 70.2901 41.5501 74.0301 41.1201C74.2501 41.3701 74.4601 41.5801 74.6501 41.7701Z" fill="#AD7153"/>
<path d="M42.6202 48.6101C42.6202 52.7701 39.2502 56.1401 35.0902 56.1401C34.9502 56.1401 34.8102 56.1401 34.6802 56.1301V41.7701C34.9002 41.5701 35.1302 41.3501 35.3802 41.0901C39.4102 41.2301 42.6202 44.5401 42.6202 48.6101Z" fill="#AD7153"/>
<path d="M80.7403 48.6101C80.6403 46.5201 78.9203 44.8401 76.8003 44.8401V48.6101H80.7403Z" fill="#975C45"/>
<path d="M54.6599 80.25C52.4799 80.25 50.3999 79.9 48.4399 79.26H60.8799C58.9199 79.9 56.8399 80.25 54.6599 80.25Z" fill="#F6C09C"/>
<path d="M54.6599 80.25C43.6199 80.25 34.6699 71.3 34.6699 60.26V36.96C34.6699 25.92 43.6199 16.97 54.6599 16.97C65.6999 16.97 74.6499 25.92 74.6499 36.96V60.26C74.6499 71.3 65.6999 80.25 54.6599 80.25Z" fill="#F6C09C"/>
<path d="M54.6599 80.25C43.6199 80.25 34.6699 71.3 34.6699 60.26V36.96C34.6699 25.92 43.6199 16.97 54.6599 16.97C65.6999 16.97 74.6499 25.92 74.6499 36.96V60.26C74.6499 71.3 65.6999 80.25 54.6599 80.25Z" fill="#F6C09C"/>
<path d="M37.3899 67.32L37.2599 68.56C37.0499 68.66 36.8399 68.79 36.6599 68.96C36.5599 68.76 36.4699 68.56 36.3799 68.34C36.6299 67.92 36.7899 67.42 36.8499 66.88C36.8599 66.84 36.8499 66.81 36.8599 66.77C37.0199 67 37.1899 67.18 37.3899 67.32Z" fill="#F6C09C"/>
<path d="M46.2397 77.8499C46.1697 77.9899 46.0897 78.1399 46.0497 78.2999C46.0097 78.2799 45.9697 78.2599 45.9297 78.2399C46.0497 78.1399 46.1497 77.9999 46.2397 77.8499Z" fill="#F6C09C"/>
<path d="M38.3699 60.2599V25.3999C36.0499 28.6699 34.6699 32.6499 34.6699 36.9599V60.2599C34.6699 71.2999 43.6199 80.2499 54.6599 80.2499C55.2899 80.2499 55.8999 80.2099 56.5099 80.1599C46.3399 79.2199 38.3699 70.6799 38.3699 60.2599Z" fill="#AD7153"/>
<path d="M48.4402 79.2599H47.3902V89.8299H33.1802V55.8999C33.6602 56.0299 34.1602 56.1099 34.6802 56.1399V60.2699C34.6702 69.1299 40.4402 76.6499 48.4402 79.2599Z" fill="#472123"/>
<path d="M74.9104 56.1499C75.5604 56.1499 76.2004 56.0699 76.7904 55.9099V89.8299H61.2604V79.2599H60.8804C68.8804 76.6499 74.6504 69.1299 74.6504 60.2699V56.1399C74.7404 56.1499 74.8304 56.1499 74.9104 56.1499Z" fill="#472123"/>
<path d="M76.8402 37.7299C76.8402 38.1599 76.8202 38.5799 76.7902 39.0099V41.3199C76.1902 41.1599 75.5602 41.0799 74.9102 41.0799C74.6202 41.0799 74.3202 41.0999 74.0402 41.1299C72.3402 39.2299 70.0702 35.6599 69.1302 33.5599C67.3002 29.4299 64.2702 25.3799 54.6602 25.3799C49.0902 25.3799 43.1602 26.4199 40.5602 33.4999C39.7002 35.8599 37.2402 39.1699 35.3702 41.0899C35.2802 41.0799 35.1802 41.0799 35.0902 41.0799C34.4302 41.0799 33.7902 41.1599 33.1802 41.3299V38.4899C33.1802 38.2399 33.1602 37.9899 33.1602 37.7399C33.1602 37.4899 33.1802 37.2399 33.1802 36.9999V36.8999H33.1902C33.6302 25.2299 43.2202 15.8999 55.0002 15.8999C67.0602 15.8999 76.8402 25.6799 76.8402 37.7299Z" fill="#472123"/>
<path d="M42.38 31.79C41.62 31.79 41 31.17 41 30.41V27.11C41 26.35 41.62 25.73 42.38 25.73C43.14 25.73 43.76 26.35 43.76 27.11V30.41C43.76 31.18 43.14 31.79 42.38 31.79Z" fill="#5C2E2F" stroke="#5C2E2F" stroke-width="0.25" stroke-miterlimit="10"/>
<path d="M48.5201 29.95C47.7601 29.95 47.1401 29.33 47.1401 28.57V22.61C47.1401 21.85 47.7601 21.23 48.5201 21.23C49.2801 21.23 49.9001 21.85 49.9001 22.61V28.57C49.9001 29.34 49.2801 29.95 48.5201 29.95Z" fill="#5C2E2F" stroke="#5C2E2F" stroke-width="0.25" stroke-miterlimit="10"/>
<path d="M66.9401 31.79C66.1801 31.79 65.5601 31.17 65.5601 30.41V27.11C65.5601 26.35 66.1801 25.73 66.9401 25.73C67.7001 25.73 68.3201 26.35 68.3201 27.11V30.41C68.3201 31.18 67.7001 31.79 66.9401 31.79Z" fill="#5C2E2F" stroke="#5C2E2F" stroke-width="0.25" stroke-miterlimit="10"/>
<path d="M60.7999 29.95C60.0399 29.95 59.4199 29.33 59.4199 28.57V22.61C59.4199 21.85 60.0399 21.23 60.7999 21.23C61.5599 21.23 62.1799 21.85 62.1799 22.61V28.57C62.1799 29.34 61.5599 29.95 60.7999 29.95Z" fill="#5C2E2F" stroke="#5C2E2F" stroke-width="0.25" stroke-miterlimit="10"/>
<path d="M54.6598 28.47C53.8998 28.47 53.2798 27.85 53.2798 27.09V19.88C53.2798 19.12 53.8998 18.5 54.6598 18.5C55.4198 18.5 56.0398 19.12 56.0398 19.88V27.09C56.0398 27.85 55.4198 28.47 54.6598 28.47Z" fill="#5C2E2F" stroke="#5C2E2F" stroke-width="0.25" stroke-miterlimit="10"/>
<path d="M37.2701 47.22C37.2701 46.21 36.7701 45.37 36.1001 45.1V44.37C36.7701 44.11 37.2701 43.27 37.2701 42.25C37.2701 41.23 36.7701 40.4 36.1001 40.13L36.0901 36.85C36.0901 36.65 35.9301 36.49 35.7301 36.49H35.5901C35.3901 36.49 35.2301 36.65 35.2301 36.85V40.13C34.5601 40.39 34.0601 41.23 34.0601 42.24C34.0601 43.25 34.5601 44.09 35.2301 44.35V45.08C34.5601 45.34 34.0601 46.18 34.0601 47.19C34.0601 48.2 34.5601 49.04 35.2301 49.3V50.03C34.5601 50.29 34.0601 51.13 34.0601 52.14C34.0601 53.15 34.5601 53.99 35.2301 54.25V54.98C34.5601 55.24 34.0601 56.08 34.0601 57.09C34.0601 58.1 34.5601 58.94 35.2301 59.2V60C34.5601 60.26 34.0601 61.1 34.0601 62.11C34.0601 63.12 34.5601 63.96 35.2301 64.22V64.95C34.5601 65.21 34.0601 66.05 34.0601 67.06C34.0601 68.07 34.5601 68.91 35.2301 69.17V69.9C34.5601 70.16 34.0601 71 34.0601 72.01C34.0601 73.02 34.5601 73.86 35.2301 74.12V74.85C34.5601 75.11 34.0601 75.95 34.0601 76.96C34.0601 77.97 34.5601 78.81 35.2301 79.07V79.8C34.5601 80.06 34.0601 80.9 34.0601 81.91C34.0601 82.92 34.5601 83.76 35.2301 84.02V84.75C34.5601 85.01 34.0601 85.85 34.0601 86.86C34.0601 87.87 34.5601 88.71 35.2301 88.97V89.7C34.5601 89.96 34.0601 90.8 34.0601 91.81C34.0601 93.03 34.7801 94.02 35.6601 94.02C36.5401 94.02 37.2601 93.03 37.2601 91.81C37.2601 90.8 36.7601 89.96 36.0901 89.69V88.96C36.7601 88.7 37.2601 87.86 37.2601 86.84C37.2601 85.83 36.7601 84.99 36.0901 84.72V83.99C36.7601 83.73 37.2601 82.89 37.2601 81.87C37.2601 80.86 36.7601 80.02 36.0901 79.75V79.02C36.7601 78.76 37.2601 77.92 37.2601 76.9C37.2601 75.89 36.7601 75.05 36.0901 74.78V74.05C36.7601 73.79 37.2601 72.95 37.2601 71.93C37.2601 70.92 36.7601 70.08 36.0901 69.81V69.08C36.7601 68.82 37.2601 67.98 37.2601 66.96C37.2601 65.95 36.7601 65.11 36.0901 64.84V64.11C36.7601 63.85 37.2601 63.01 37.2601 61.99C37.2601 60.97 36.7601 60.14 36.0901 59.87V59.14C36.7601 58.88 37.2601 58.04 37.2601 57.02C37.2601 56 36.7601 55.17 36.0901 54.9V54.3C36.7601 54.04 37.2601 53.2 37.2601 52.18C37.2601 51.16 36.7601 50.33 36.0901 50.06V49.33C36.7701 49.07 37.2701 48.23 37.2701 47.22Z" fill="#5C2E2F"/>
<path d="M41.1903 41.11C41.1903 40.04 40.6603 39.14 39.9503 38.86V38.08C40.6603 37.8 41.1903 36.91 41.1903 35.83C41.1903 34.75 40.6603 33.86 39.9503 33.58L39.9403 30.1C39.9403 29.89 39.7703 29.72 39.5603 29.72H39.4003C39.1903 29.72 39.0203 29.89 39.0203 30.1V33.58C38.3103 33.86 37.7803 34.75 37.7803 35.83C37.7803 36.9 38.3103 37.8 39.0203 38.08V38.86C38.3103 39.14 37.7803 40.03 37.7803 41.11C37.7803 42.18 38.3103 43.08 39.0203 43.36V44.14C38.3103 44.42 37.7803 45.31 37.7803 46.39C37.7803 47.46 38.3103 48.36 39.0203 48.64V49.42C38.3103 49.7 37.7803 50.59 37.7803 51.67C37.7803 52.74 38.3103 53.64 39.0203 53.92V54.7C38.3103 54.98 37.7803 55.87 37.7803 56.95C37.7803 58.02 38.3103 58.92 39.0203 59.2V59.98C38.3103 60.26 37.7803 61.15 37.7803 62.23C37.7803 63.3 38.3103 64.2 39.0203 64.48V65.26C38.3103 65.54 37.7803 66.43 37.7803 67.51C37.7803 68.58 38.3103 69.48 39.0203 69.76V70.54C38.3103 70.82 37.7803 71.71 37.7803 72.79C37.7803 73.86 38.3103 74.76 39.0203 75.04V75.82C38.3103 76.1 37.7803 76.99 37.7803 78.07C37.7803 79.14 38.3103 80.04 39.0203 80.32V81.1C38.3103 81.38 37.7803 82.27 37.7803 83.35C37.7803 84.42 38.3103 85.32 39.0203 85.6V86.38C38.3103 86.66 37.7803 87.55 37.7803 88.63C37.7803 89.93 38.5403 90.98 39.4803 90.98C40.4203 90.98 41.1803 89.93 41.1803 88.63C41.1803 87.56 40.6503 86.66 39.9403 86.38V85.6C40.6503 85.32 41.1803 84.43 41.1803 83.35C41.1803 82.28 40.6503 81.38 39.9403 81.1V80.3C40.6503 80.02 41.1803 79.13 41.1803 78.05C41.1803 76.98 40.6503 76.08 39.9403 75.8V75.02C40.6503 74.74 41.1803 73.85 41.1803 72.77C41.1803 71.7 40.6503 70.8 39.9403 70.52V69.74C40.6503 69.46 41.1803 68.57 41.1803 67.49C41.1803 66.42 40.6503 65.52 39.9403 65.24V64.46C40.6503 64.18 41.1803 63.29 41.1803 62.21C41.1803 61.13 40.6503 60.24 39.9403 59.96V59.18C40.6503 58.9 41.1803 58.01 41.1803 56.93C41.1803 55.85 40.6503 54.96 39.9403 54.68V53.9C40.6503 53.62 41.1803 52.73 41.1803 51.65C41.1803 50.58 40.6503 49.68 39.9403 49.4V48.62C40.6503 48.34 41.1803 47.45 41.1803 46.37C41.1803 45.3 40.6503 44.4 39.9403 44.12V43.34C40.6603 43.08 41.1903 42.19 41.1903 41.11Z" fill="#5C2E2F"/>
<path d="M72.0503 47.22C72.0503 46.21 72.5503 45.37 73.2203 45.1V44.37C72.5503 44.11 72.0503 43.27 72.0503 42.25C72.0503 41.23 72.5503 40.4 73.2203 40.13L73.2303 36.85C73.2303 36.65 73.3903 36.49 73.5903 36.49H73.7303C73.9303 36.49 74.0903 36.65 74.0903 36.85V40.13C74.7603 40.39 75.2603 41.23 75.2603 42.24C75.2603 43.25 74.7603 44.09 74.0903 44.35V45.08C74.7603 45.34 75.2603 46.18 75.2603 47.19C75.2603 48.2 74.7603 49.04 74.0903 49.3V50.03C74.7603 50.29 75.2603 51.13 75.2603 52.14C75.2603 53.15 74.7603 53.99 74.0903 54.25V54.98C74.7603 55.24 75.2603 56.08 75.2603 57.09C75.2603 58.1 74.7603 58.94 74.0903 59.2V60C74.7603 60.26 75.2603 61.1 75.2603 62.11C75.2603 63.12 74.7603 63.96 74.0903 64.22V64.95C74.7603 65.21 75.2603 66.05 75.2603 67.06C75.2603 68.07 74.7603 68.91 74.0903 69.17V69.9C74.7603 70.16 75.2603 71 75.2603 72.01C75.2603 73.02 74.7603 73.86 74.0903 74.12V74.85C74.7603 75.11 75.2603 75.95 75.2603 76.96C75.2603 77.97 74.7603 78.81 74.0903 79.07V79.8C74.7603 80.06 75.2603 80.9 75.2603 81.91C75.2603 82.92 74.7603 83.76 74.0903 84.02V84.75C74.7603 85.01 75.2603 85.85 75.2603 86.86C75.2603 87.87 74.7603 88.71 74.0903 88.97V89.7C74.7603 89.96 75.2603 90.8 75.2603 91.81C75.2603 93.03 74.5403 94.02 73.6603 94.02C72.7803 94.02 72.0603 93.03 72.0603 91.81C72.0603 90.8 72.5603 89.96 73.2303 89.69V88.96C72.5603 88.7 72.0603 87.86 72.0603 86.84C72.0603 85.83 72.5603 84.99 73.2303 84.72V83.99C72.5603 83.73 72.0603 82.89 72.0603 81.87C72.0603 80.86 72.5603 80.02 73.2303 79.75V79.02C72.5603 78.76 72.0603 77.92 72.0603 76.9C72.0603 75.89 72.5603 75.05 73.2303 74.78V74.05C72.5603 73.79 72.0603 72.95 72.0603 71.93C72.0603 70.92 72.5603 70.08 73.2303 69.81V69.08C72.5603 68.82 72.0603 67.98 72.0603 66.96C72.0603 65.95 72.5603 65.11 73.2303 64.84V64.11C72.5603 63.85 72.0603 63.01 72.0603 61.99C72.0603 60.97 72.5603 60.14 73.2303 59.87V59.14C72.5603 58.88 72.0603 58.04 72.0603 57.02C72.0603 56 72.5603 55.17 73.2303 54.9V54.3C72.5603 54.04 72.0603 53.2 72.0603 52.18C72.0603 51.16 72.5603 50.33 73.2303 50.06V49.33C72.5503 49.07 72.0503 48.23 72.0503 47.22Z" fill="#5C2E2F"/>
<path d="M68.1304 41.11C68.1304 40.04 68.6604 39.14 69.3704 38.86V38.08C68.6604 37.8 68.1304 36.91 68.1304 35.83C68.1304 34.75 68.6604 33.86 69.3704 33.58L69.3804 30.1C69.3804 29.89 69.5504 29.72 69.7604 29.72H69.9104C70.1204 29.72 70.2904 29.89 70.2904 30.1V33.58C71.0004 33.86 71.5304 34.75 71.5304 35.83C71.5304 36.9 71.0004 37.8 70.2904 38.08V38.86C71.0004 39.14 71.5304 40.03 71.5304 41.11C71.5304 42.18 71.0004 43.08 70.2904 43.36V44.14C71.0004 44.42 71.5304 45.31 71.5304 46.39C71.5304 47.46 71.0004 48.36 70.2904 48.64V49.42C71.0004 49.7 71.5304 50.59 71.5304 51.67C71.5304 52.74 71.0004 53.64 70.2904 53.92V54.7C71.0004 54.98 71.5304 55.87 71.5304 56.95C71.5304 58.02 71.0004 58.92 70.2904 59.2V59.98C71.0004 60.26 71.5304 61.15 71.5304 62.23C71.5304 63.3 71.0004 64.2 70.2904 64.48V65.26C71.0004 65.54 71.5304 66.43 71.5304 67.51C71.5304 68.58 71.0004 69.48 70.2904 69.76V70.54C71.0004 70.82 71.5304 71.71 71.5304 72.79C71.5304 73.86 71.0004 74.76 70.2904 75.04V75.82C71.0004 76.1 71.5304 76.99 71.5304 78.07C71.5304 79.14 71.0004 80.04 70.2904 80.32V81.1C71.0004 81.38 71.5304 82.27 71.5304 83.35C71.5304 84.42 71.0004 85.32 70.2904 85.6V86.38C71.0004 86.66 71.5304 87.55 71.5304 88.63C71.5304 89.93 70.7704 90.98 69.8304 90.98C68.8904 90.98 68.1304 89.93 68.1304 88.63C68.1304 87.56 68.6604 86.66 69.3704 86.38V85.6C68.6604 85.32 68.1304 84.43 68.1304 83.35C68.1304 82.28 68.6604 81.38 69.3704 81.1V80.3C68.6604 80.02 68.1304 79.13 68.1304 78.05C68.1304 76.98 68.6604 76.08 69.3704 75.8V75.02C68.6604 74.74 68.1304 73.85 68.1304 72.77C68.1304 71.7 68.6604 70.8 69.3704 70.52V69.74C68.6604 69.46 68.1304 68.57 68.1304 67.49C68.1304 66.42 68.6604 65.52 69.3704 65.24V64.46C68.6604 64.18 68.1304 63.29 68.1304 62.21C68.1304 61.13 68.6604 60.24 69.3704 59.96V59.18C68.6604 58.9 68.1304 58.01 68.1304 56.93C68.1304 55.85 68.6604 54.96 69.3704 54.68V53.9C68.6604 53.62 68.1304 52.73 68.1304 51.65C68.1304 50.58 68.6604 49.68 69.3704 49.4V48.62C68.6604 48.34 68.1304 47.45 68.1304 46.37C68.1304 45.3 68.6604 44.4 69.3704 44.12V43.34C68.6604 43.08 68.1304 42.19 68.1304 41.11Z" fill="#5C2E2F"/>
</svg>
