<svg width="81" height="105" viewBox="0 0 81 105" fill="none" xmlns="http://www.w3.org/2000/svg">
<g id="hair-3" clip-path="url(#clip0_215_392)">
<g id="Group">
<g id="face">
<g id="Group_2">
<g id="Group_3">
<path id="Vector" d="M8.95 65.8299C13.4787 65.8299 17.15 62.1587 17.15 57.6299C17.15 53.1012 13.4787 49.4299 8.95 49.4299C4.42126 49.4299 0.75 53.1012 0.75 57.6299C0.75 62.1587 4.42126 65.8299 8.95 65.8299Z" fill="#AD7153"/>
<g id="Group_4">
<g id="Group_5">
<path id="Vector_2" d="M7.24014 53.4399C4.96014 53.5499 3.14014 55.4199 3.14014 57.7299H7.24014V53.4399Z" fill="#975C45"/>
</g>
</g>
</g>
<g id="Group_6">
<path id="Vector_3" d="M52.3001 65.8299C56.8288 65.8299 60.5001 62.1587 60.5001 57.6299C60.5001 53.1012 56.8288 49.4299 52.3001 49.4299C47.7714 49.4299 44.1001 53.1012 44.1001 57.6299C44.1001 62.1587 47.7714 65.8299 52.3001 65.8299Z" fill="#AD7153"/>
<g id="Group_7">
<path id="Vector_4" d="M58.6401 57.63C58.5301 55.35 56.6601 53.53 54.3501 53.53V57.63H58.6401Z" fill="#975C45"/>
</g>
</g>
</g>
<g id="Group_8">
<path id="Vector_5" d="M30.2598 92.06C18.2498 92.06 8.50977 82.32 8.50977 70.31V44.96C8.50977 32.95 18.2498 23.21 30.2598 23.21C42.2698 23.21 52.0098 32.95 52.0098 44.96V70.31C52.0098 82.32 42.2698 92.06 30.2598 92.06Z" fill="#F6C09C"/>
<path id="Vector_6" d="M12.53 70.3099V32.3699C10 35.9199 8.5 40.2599 8.5 44.9599V70.3099C8.5 82.3199 18.24 92.0599 30.25 92.0599C30.93 92.0599 31.6 92.0199 32.27 91.9599C21.2 90.9399 12.53 81.6399 12.53 70.3099Z" fill="#AD7153"/>
</g>
</g>
<g id="Group_9">
<path id="Vector_7" d="M57.8797 34.0599C64.7556 34.0599 70.3297 28.4859 70.3297 21.6099C70.3297 14.734 64.7556 9.15991 57.8797 9.15991C51.0037 9.15991 45.4297 14.734 45.4297 21.6099C45.4297 28.4859 51.0037 34.0599 57.8797 34.0599Z" fill="#472123"/>
<path id="Vector_8" d="M38.7099 23.2C45.1164 23.2 50.3099 18.0065 50.3099 11.6C50.3099 5.1935 45.1164 0 38.7099 0C32.3034 0 27.1099 5.1935 27.1099 11.6C27.1099 18.0065 32.3034 23.2 38.7099 23.2Z" fill="#472123"/>
<path id="Vector_9" d="M29.8897 22.0499C32.3419 22.0499 34.3297 20.0621 34.3297 17.6099C34.3297 15.1578 32.3419 13.1699 29.8897 13.1699C27.4376 13.1699 25.4497 15.1578 25.4497 17.6099C25.4497 20.0621 27.4376 22.0499 29.8897 22.0499Z" fill="#F12F5B"/>
<path id="Vector_10" d="M54.1598 45.3601C54.2098 41.9101 54.8398 31.7701 47.6898 24.6201C37.7198 14.6501 20.8598 16.5901 12.8298 24.6201C5.41978 32.0301 6.35978 42.6701 6.35978 45.7301C6.35978 45.8001 6.36978 45.8501 6.36978 45.9201C6.36978 46.0901 6.35978 46.2501 6.35978 46.4201C6.35978 46.9001 6.37978 47.3801 6.40978 47.8601C6.37978 48.1201 6.35978 48.3701 6.35978 48.6101V50.0001C6.96978 49.7901 7.60978 49.6501 8.26978 49.5901L8.30978 52.7701C11.4198 51.4601 12.2798 37.5601 12.2798 37.5601C12.2798 37.5601 18.9598 40.1101 28.9798 40.1101C43.3898 40.1101 47.7798 37.5601 47.7798 37.5601C47.7798 37.5601 47.4398 51.7801 52.3298 52.7701V49.5601H52.3698C52.9998 49.5601 53.6098 49.6301 54.1998 49.7701V48.6101C54.1998 48.3701 54.1798 48.1201 54.1598 47.8601C54.1798 47.3801 54.1998 46.9001 54.1998 46.4201C54.1898 46.0601 54.1698 45.7101 54.1598 45.3601Z" fill="#5C2E2F"/>
<path id="Vector_11" d="M66.7896 57.7201C74.3614 57.7201 80.4996 51.5819 80.4996 44.01C80.4996 36.4382 74.3614 30.3 66.7896 30.3C59.2178 30.3 53.0796 36.4382 53.0796 44.01C53.0796 51.5819 59.2178 57.7201 66.7896 57.7201Z" fill="#5C2E2F" stroke="#5C2E2F" stroke-width="0.25" stroke-miterlimit="10"/>
<path id="Vector_12" d="M61.7996 80.4701C68.6756 80.4701 74.2496 74.896 74.2496 68.0201C74.2496 61.1441 68.6756 55.5701 61.7996 55.5701C54.9237 55.5701 49.3496 61.1441 49.3496 68.0201C49.3496 74.896 54.9237 80.4701 61.7996 80.4701Z" fill="#5C2E2F" stroke="#5C2E2F" stroke-width="0.25" stroke-miterlimit="10"/>
<path id="Vector_13" d="M62.7596 104.51C69.6355 104.51 75.2096 98.9361 75.2096 92.0601C75.2096 85.1842 69.6355 79.6101 62.7596 79.6101C55.8836 79.6101 50.3096 85.1842 50.3096 92.0601C50.3096 98.9361 55.8836 104.51 62.7596 104.51Z" fill="#5C2E2F" stroke="#5C2E2F" stroke-width="0.25" stroke-miterlimit="10"/>
<path id="Vector_14" d="M31.9998 16.9699C31.9998 16.9099 32.0198 16.8499 32.0198 16.7899C32.0198 15.6199 31.0698 14.6699 29.8998 14.6699C28.7298 14.6699 27.7798 15.6199 27.7798 16.7899C27.7798 16.8499 27.7898 16.9099 27.7998 16.9699H31.9998Z" fill="#AF203B"/>
</g>
</g>
</g>
<defs>
<clipPath id="clip0_215_392">
<rect width="79.88" height="104.63" fill="white" transform="translate(0.75)"/>
</clipPath>
</defs>
</svg>
