<svg width="110" height="110" viewBox="0 0 110 110" fill="none" xmlns="http://www.w3.org/2000/svg">
<path d="M25.8901 67.4799C30.0543 67.4799 33.4301 64.1041 33.4301 59.9399C33.4301 55.7757 30.0543 52.3999 25.8901 52.3999C21.7259 52.3999 18.3501 55.7757 18.3501 59.9399C18.3501 64.1041 21.7259 67.4799 25.8901 67.4799Z" fill="#AD7153"/>
<path d="M24.3203 56.0898C22.2303 56.1898 20.5503 57.9098 20.5503 60.0298H24.3203V56.0898Z" fill="#975C45"/>
<path d="M65.7299 67.4799C69.8942 67.4799 73.2699 64.1041 73.2699 59.9399C73.2699 55.7757 69.8942 52.3999 65.7299 52.3999C61.5657 52.3999 58.1899 55.7757 58.1899 59.9399C58.1899 64.1041 61.5657 67.4799 65.7299 67.4799Z" fill="#AD7153"/>
<path d="M71.5499 59.9399C71.4499 57.8499 69.7299 56.1699 67.6099 56.1699V59.9399H71.5499Z" fill="#975C45"/>
<path d="M45.47 91.5799C34.43 91.5799 25.48 82.6299 25.48 71.5899V48.2899C25.48 37.2499 34.43 28.2999 45.47 28.2999C56.51 28.2999 65.46 37.2499 65.46 48.2899V71.5899C65.46 82.6299 56.51 91.5799 45.47 91.5799Z" fill="#F6C09C"/>
<path d="M29.18 71.59V36.73C26.86 40 25.48 43.98 25.48 48.29V71.59C25.48 82.63 34.43 91.58 45.47 91.58C46.1 91.58 46.71 91.54 47.32 91.49C37.15 90.55 29.18 82 29.18 71.59Z" fill="#AD7153"/>
<path d="M70.8599 38.29C77.1781 38.29 82.2999 33.1682 82.2999 26.85C82.2999 20.5319 77.1781 15.41 70.8599 15.41C64.5418 15.41 59.4199 20.5319 59.4199 26.85C59.4199 33.1682 64.5418 38.29 70.8599 38.29Z" fill="#472123"/>
<path d="M53.2401 28.3C59.1274 28.3 63.9001 23.5273 63.9001 17.64C63.9001 11.7526 59.1274 6.97998 53.2401 6.97998C47.3527 6.97998 42.5801 11.7526 42.5801 17.64C42.5801 23.5273 47.3527 28.3 53.2401 28.3Z" fill="#472123"/>
<path d="M45.1401 27.25C47.3934 27.25 49.2201 25.4233 49.2201 23.17C49.2201 20.9166 47.3934 19.09 45.1401 19.09C42.8867 19.09 41.0601 20.9166 41.0601 23.17C41.0601 25.4233 42.8867 27.25 45.1401 27.25Z" fill="#F12F5B"/>
<path d="M67.4399 48.66C67.4799 45.49 68.0599 36.17 61.4899 29.6C52.3299 20.44 36.8399 22.22 29.4599 29.6C22.6499 36.41 23.5199 46.18 23.5199 49C23.5199 49.06 23.5299 49.11 23.5299 49.17C23.5299 49.32 23.5199 49.47 23.5199 49.63C23.5199 50.07 23.5399 50.51 23.5699 50.95C23.5399 51.19 23.5199 51.42 23.5199 51.64V52.92C24.0799 52.73 24.6699 52.6 25.2799 52.54L25.3199 55.46C28.1799 54.25 28.9599 41.49 28.9599 41.49C28.9599 41.49 35.0899 43.84 44.2999 43.84C57.5399 43.84 61.5699 41.49 61.5699 41.49C61.5699 41.49 61.2499 54.56 65.7499 55.46V52.51H65.7899C66.3699 52.51 66.9299 52.57 67.4699 52.7V51.63C67.4699 51.41 67.4499 51.18 67.4299 50.94C67.4499 50.5 67.4699 50.06 67.4699 49.62C67.4599 49.31 67.4499 48.99 67.4399 48.66Z" fill="#5C2E2F"/>
<path d="M79.0399 60.03C85.9987 60.03 91.6399 54.3887 91.6399 47.43C91.6399 40.4712 85.9987 34.83 79.0399 34.83C72.0812 34.83 66.4399 40.4712 66.4399 47.43C66.4399 54.3887 72.0812 60.03 79.0399 60.03Z" fill="#5C2E2F" stroke="#5C2E2F" stroke-width="0.25" stroke-miterlimit="10"/>
<path d="M74.4498 80.9299C80.7679 80.9299 85.8898 75.8081 85.8898 69.4899C85.8898 63.1718 80.7679 58.0499 74.4498 58.0499C68.1316 58.0499 63.0098 63.1718 63.0098 69.4899C63.0098 75.8081 68.1316 80.9299 74.4498 80.9299Z" fill="#5C2E2F" stroke="#5C2E2F" stroke-width="0.25" stroke-miterlimit="10"/>
<path d="M75.3399 103.02C81.658 103.02 86.7799 97.8982 86.7799 91.58C86.7799 85.2619 81.658 80.14 75.3399 80.14C69.0218 80.14 63.8999 85.2619 63.8999 91.58C63.8999 97.8982 69.0218 103.02 75.3399 103.02Z" fill="#5C2E2F" stroke="#5C2E2F" stroke-width="0.25" stroke-miterlimit="10"/>
<path d="M47.0699 22.58C47.0699 22.53 47.0899 22.47 47.0899 22.42C47.0899 21.34 46.2199 20.47 45.1399 20.47C44.0599 20.47 43.1899 21.34 43.1899 22.42C43.1899 22.48 43.1999 22.53 43.2099 22.58H47.0699Z" fill="#AF203B"/>
</svg>
