<svg width="110" height="110" viewBox="0 0 110 110" fill="none" xmlns="http://www.w3.org/2000/svg">
<path d="M35.08 62.9699C39.2443 62.9699 42.62 59.5941 42.62 55.4299C42.62 51.2657 39.2443 47.8899 35.08 47.8899C30.9158 47.8899 27.54 51.2657 27.54 55.4299C27.54 59.5941 30.9158 62.9699 35.08 62.9699Z" fill="#AD7153"/>
<path d="M33.5102 51.5699C31.4202 51.6699 29.7402 53.3899 29.7402 55.5099H33.5102V51.5699Z" fill="#975C45"/>
<path d="M74.9199 62.9699C79.0841 62.9699 82.4599 59.5941 82.4599 55.4299C82.4599 51.2657 79.0841 47.8899 74.9199 47.8899C70.7557 47.8899 67.3799 51.2657 67.3799 55.4299C67.3799 59.5941 70.7557 62.9699 74.9199 62.9699Z" fill="#AD7153"/>
<path d="M80.7398 55.4299C80.6398 53.3399 78.9198 51.6599 76.7998 51.6599V55.4299H80.7398Z" fill="#975C45"/>
<path d="M54.6599 87.0699C43.6199 87.0699 34.6699 78.1199 34.6699 67.0799V43.7799C34.6699 32.7399 43.6199 23.7899 54.6599 23.7899C65.6999 23.7899 74.6499 32.7399 74.6499 43.7799V67.0799C74.6499 79.4199 65.6999 87.0699 54.6599 87.0699Z" fill="#F6C09C"/>
<path d="M38.3699 67.08V32.22C36.0499 35.49 34.6699 39.47 34.6699 43.78V67.08C34.6699 78.12 43.6199 87.07 54.6599 87.07C55.2899 87.07 55.8999 87.03 56.5099 86.98C46.3399 86.04 38.3699 77.49 38.3699 67.08Z" fill="#AD7153"/>
<path d="M74.6399 42.7599C74.6399 42.2399 74.6099 41.72 74.5699 41.22V41.1199C74.5499 40.9599 74.5299 40.8199 74.5199 40.6699C74.5099 40.6199 74.5099 40.5799 74.4999 40.5299C74.4899 40.4599 74.4799 40.39 74.4699 40.33C74.4399 40.09 74.4099 39.86 74.3699 39.63C74.3399 39.48 74.3099 39.33 74.2899 39.18C74.2399 38.93 74.1899 38.6799 74.1299 38.4399C74.1199 38.3899 74.1099 38.36 74.0999 38.31C74.0899 38.26 74.0799 38.2299 74.0699 38.1899C74.0699 38.1699 74.0599 38.15 74.0499 38.13C73.9699 37.81 73.8799 37.4899 73.7799 37.1699C72.8199 33.9699 71.0899 31.1099 68.7799 28.7999C65.1599 25.1799 60.1599 22.95 54.6499 22.95C49.6099 22.95 44.9999 24.82 41.4899 27.9C40.8099 28.49 40.1799 29.1299 39.5799 29.8099C38.4899 31.0599 37.5499 32.46 36.7999 33.95C36.6899 34.17 36.5799 34.4 36.4699 34.63L36.1699 35.32C35.9799 35.79 35.7899 36.27 35.6499 36.75C35.5699 36.99 35.4899 37.24 35.4299 37.49C35.3599 37.72 35.2999 37.96 35.2399 38.2C35.2299 38.24 35.2199 38.27 35.2099 38.32C35.0399 39.05 34.8999 39.79 34.8099 40.54C34.7799 40.76 34.7499 40.97 34.7499 41.18C34.6899 41.75 34.6699 42.34 34.6699 42.93V47.68L34.7399 47.91C37.8199 45.23 39.5899 41.3399 39.5899 37.2599V33.86C39.5899 32.97 39.9499 32.11 40.5699 31.49C41.3099 30.75 42.1099 30.0699 42.9699 29.4599C45.6699 32.0399 50.6999 36.95 63.6799 36.72C63.6799 36.72 61.5699 32.5999 61.8299 32.2599C61.8299 32.2599 64.0699 35.08 69.3099 35.43C69.3099 35.43 69.0799 42.82 74.5699 47.91L74.6399 47.68V42.93C74.6499 42.86 74.6399 42.8199 74.6399 42.7599Z" class="current-color" fill="#5C2E2F" stroke="#5C2E2F" stroke-width="0.25" stroke-miterlimit="10"/>
</svg>
