<svg width="110" height="110" viewBox="0 0 110 110" fill="none" xmlns="http://www.w3.org/2000/svg">
<path d="M54.9999 85.3101C73.1535 85.3101 87.8699 69.7654 87.8699 50.5901C87.8699 31.4148 73.1535 15.8701 54.9999 15.8701C36.8463 15.8701 22.1299 31.4148 22.1299 50.5901C22.1299 69.7654 36.8463 85.3101 54.9999 85.3101Z" class="current-color" fill="#5C2E2F"/>
<path d="M35.08 70.0301C39.2443 70.0301 42.62 66.6543 42.62 62.4901C42.62 58.3258 39.2443 54.9501 35.08 54.9501C30.9158 54.9501 27.54 58.3258 27.54 62.4901C27.54 66.6543 30.9158 70.0301 35.08 70.0301Z" fill="#AD7153"/>
<path d="M33.5102 58.6301C31.4202 58.7301 29.7402 60.4501 29.7402 62.5701H33.5102V58.6301Z" fill="#975C45"/>
<path d="M74.9199 70.0301C79.0841 70.0301 82.4599 66.6543 82.4599 62.4901C82.4599 58.3258 79.0841 54.9501 74.9199 54.9501C70.7557 54.9501 67.3799 58.3258 67.3799 62.4901C67.3799 66.6543 70.7557 70.0301 74.9199 70.0301Z" fill="#AD7153"/>
<path d="M80.7398 62.4901C80.6398 60.4001 78.9198 58.7201 76.7998 58.7201V62.4901H80.7398Z" fill="#975C45"/>
<path d="M54.6599 94.1301C43.6199 94.1301 34.6699 85.1801 34.6699 74.1401V50.8401C34.6699 39.8001 43.6199 30.8501 54.6599 30.8501C65.6999 30.8501 74.6499 39.8001 74.6499 50.8401V74.1401C74.6499 86.4801 65.6999 94.1301 54.6599 94.1301Z" fill="#F6C09C"/>
<path d="M38.3699 74.1402V39.2802C36.0499 42.5502 34.6699 46.5302 34.6699 50.8402V74.1402C34.6699 85.1802 43.6199 94.1301 54.6599 94.1301C55.2899 94.1301 55.8999 94.0902 56.5099 94.0402C46.3399 93.1002 38.3699 84.5502 38.3699 74.1402Z" fill="#AD7153"/>
<path d="M73.6099 43.4401C73.4899 43.0801 73.3499 42.7201 73.2099 42.3701C73.1099 42.1401 73.0099 41.9102 72.9099 41.6802C72.7999 41.4502 72.6899 41.2202 72.5799 41.0002C71.9999 39.8402 71.2999 38.7502 70.5099 37.7302C70.6499 37.1502 70.7399 36.5702 70.7399 35.9702C70.7399 30.0702 63.6899 25.2802 54.9999 25.2802C46.3099 25.2802 39.2599 30.0602 39.2599 35.9702C39.2599 36.3302 39.2899 36.6801 39.3399 37.0301C38.3099 38.2401 37.4099 39.5701 36.6899 41.0101C36.5799 41.2301 36.4699 41.4601 36.3599 41.6901C36.2599 41.9201 36.1599 42.1502 36.0599 42.3802C35.9199 42.7302 35.7799 43.0902 35.6599 43.4502H27.9399L30.2699 54.9702H34.6799L34.6899 54.9102C37.7299 52.2302 39.4799 48.3702 39.4799 44.3202V43.6602C39.4799 42.1602 41.2699 41.3301 42.3799 42.3501C45.2399 44.9701 49.8299 46.6701 55.0099 46.6701C59.7799 46.6701 64.0499 45.2302 66.9299 42.9502C68.0999 42.0302 69.7999 42.8002 69.7999 44.2902V44.3302C69.7999 48.3802 71.5499 52.2401 74.5899 54.9201L74.5999 54.9802H78.9999V43.4401H73.6099Z" class="current-color" fill="#5C2E2F"/>
</svg>
