<svg width="60" height="81" viewBox="0 0 60 81" fill="none" xmlns="http://www.w3.org/2000/svg">
<g id="hair-1" clip-path="url(#clip0_215_25)">
<g id="Group">
<g id="face">
<g id="Group_2">
<g id="Group_3">
<g id="Group_4">
<path id="Vector" d="M8.2 54.1449C12.7287 54.1449 16.4 50.4736 16.4 45.9449C16.4 41.4161 12.7287 37.7449 8.2 37.7449C3.67126 37.7449 0 41.4161 0 45.9449C0 50.4736 3.67126 54.1449 8.2 54.1449Z" fill="#AD7153"/>
<g id="Group_5">
<g id="Group_6">
<path id="Vector_2" d="M6.49014 41.7449C4.21014 41.8549 2.39014 43.7249 2.39014 46.0349H6.49014V41.7449Z" fill="#975C45"/>
</g>
</g>
</g>
<g id="Group_7">
<path id="Vector_3" d="M51.5501 54.1449C56.0788 54.1449 59.7501 50.4736 59.7501 45.9449C59.7501 41.4161 56.0788 37.7449 51.5501 37.7449C47.0214 37.7449 43.3501 41.4161 43.3501 45.9449C43.3501 50.4736 47.0214 54.1449 51.5501 54.1449Z" fill="#AD7153"/>
<g id="Group_8">
<path id="Vector_4" d="M57.8901 45.935C57.7801 43.655 55.9101 41.835 53.6001 41.835V45.935H57.8901Z" fill="#975C45"/>
</g>
</g>
</g>
<g id="Group_9">
<path id="Vector_5" d="M29.5098 80.3749C17.4998 80.3749 7.75977 70.6349 7.75977 58.6249V33.2649C7.75977 21.2549 17.4998 11.5149 29.5098 11.5149C41.5198 11.5149 51.2598 21.2549 51.2598 33.2649V58.6149C51.2598 72.0449 41.5198 80.3749 29.5098 80.3749Z" fill="#F6C09C"/>
<path id="Vector_6" d="M11.78 58.6148V20.6748C9.25 24.2248 7.75 28.5648 7.75 33.2648V58.6148C7.75 70.6248 17.49 80.3648 29.5 80.3648C30.18 80.3648 30.85 80.3248 31.52 80.2648C20.45 79.2548 11.78 69.9548 11.78 58.6148Z" fill="#AD7153"/>
</g>
</g>
</g>
<g id="Group_10">
<path id="Vector_7" d="M29.88 20.7649C27.3 20.7649 25.21 18.9749 25.21 16.7649V4.25488C25.21 2.04488 27.3 0.254883 29.88 0.254883C32.46 0.254883 34.55 2.04488 34.55 4.25488V16.7649C34.54 18.9749 32.45 20.7649 29.88 20.7649Z" fill="#4E2727"/>
</g>
</g>
</g>
<defs>
<clipPath id="clip0_215_25">
<rect width="59.75" height="80.12" fill="white" transform="translate(0 0.254883)"/>
</clipPath>
</defs>
</svg>
