<svg width="110" height="110" viewBox="0 0 110 110" fill="none" xmlns="http://www.w3.org/2000/svg">
<path d="M35.08 64.9701C39.2443 64.9701 42.62 61.5944 42.62 57.4301C42.62 53.2659 39.2443 49.8901 35.08 49.8901C30.9158 49.8901 27.54 53.2659 27.54 57.4301C27.54 61.5944 30.9158 64.9701 35.08 64.9701Z" fill="#AD7153"/>
<path d="M33.5102 53.5801C31.4202 53.6801 29.7402 55.4001 29.7402 57.5201H33.5102V53.5801Z" fill="#975C45"/>
<path d="M74.9199 64.9701C79.0841 64.9701 82.4599 61.5944 82.4599 57.4301C82.4599 53.2659 79.0841 49.8901 74.9199 49.8901C70.7557 49.8901 67.3799 53.2659 67.3799 57.4301C67.3799 61.5944 70.7557 64.9701 74.9199 64.9701Z" fill="#AD7153"/>
<path d="M80.7398 57.4302C80.6398 55.3402 78.9198 53.6602 76.7998 53.6602V57.4302H80.7398Z" fill="#975C45"/>
<path d="M54.6599 89.07C43.6199 89.07 34.6699 80.12 34.6699 69.08V45.78C34.6699 34.74 43.6199 25.79 54.6599 25.79C65.6999 25.79 74.6499 34.74 74.6499 45.78V69.08C74.6499 81.42 65.6999 89.07 54.6599 89.07Z" fill="#F6C09C"/>
<path d="M38.3699 69.08V34.22C36.0499 37.49 34.6699 41.47 34.6699 45.78V69.08C34.6699 80.12 43.6199 89.07 54.6599 89.07C55.2899 89.07 55.8999 89.03 56.5099 88.98C46.3399 88.04 38.3699 79.5 38.3699 69.08Z" fill="#AD7153"/>
<path d="M42.7198 34.2199C41.9598 34.2199 41.3398 33.5999 41.3398 32.8399V29.5399C41.3398 28.7799 41.9598 28.1599 42.7198 28.1599C43.4798 28.1599 44.0998 28.7799 44.0998 29.5399V32.8399C44.0998 33.6099 43.4798 34.2199 42.7198 34.2199Z" fill="#4E2727"/>
<path d="M48.86 32.3799C48.1 32.3799 47.48 31.7599 47.48 30.9999V25.0399C47.48 24.2799 48.1 23.6599 48.86 23.6599C49.62 23.6599 50.24 24.2799 50.24 25.0399V30.9999C50.24 31.7699 49.62 32.3799 48.86 32.3799Z" fill="#4E2727"/>
<path d="M67.2799 34.2199C66.5199 34.2199 65.8999 33.5999 65.8999 32.8399V29.5399C65.8999 28.7799 66.5199 28.1599 67.2799 28.1599C68.0399 28.1599 68.6599 28.7799 68.6599 29.5399V32.8399C68.6599 33.6099 68.0399 34.2199 67.2799 34.2199Z" fill="#4E2727"/>
<path d="M61.1398 32.3799C60.3798 32.3799 59.7598 31.7599 59.7598 30.9999V25.0399C59.7598 24.2799 60.3798 23.6599 61.1398 23.6599C61.8998 23.6599 62.5198 24.2799 62.5198 25.0399V30.9999C62.5198 31.7699 61.8998 32.3799 61.1398 32.3799Z" fill="#4E2727"/>
<path d="M54.9996 30.8999C54.2396 30.8999 53.6196 30.2799 53.6196 29.5199V22.3099C53.6196 21.5499 54.2396 20.9299 54.9996 20.9299C55.7596 20.9299 56.3796 21.5499 56.3796 22.3099V29.5199C56.3796 30.2799 55.7596 30.8999 54.9996 30.8999Z" fill="#4E2727"/>
</svg>
