<svg width="61" height="75" viewBox="0 0 61 75" fill="none" xmlns="http://www.w3.org/2000/svg">
<g id="hair-2" clip-path="url(#clip0_215_47)">
<g id="Group">
<g id="face">
<g id="Group_2">
<g id="Group_3">
<g id="Group_4">
<path id="Vector" d="M8.82988 48.1651C13.3586 48.1651 17.0299 44.4939 17.0299 39.9651C17.0299 35.4364 13.3586 31.7651 8.82988 31.7651C4.30115 31.7651 0.629883 35.4364 0.629883 39.9651C0.629883 44.4939 4.30115 48.1651 8.82988 48.1651Z" fill="#AD7153"/>
<g id="Group_5">
<g id="Group_6">
<path id="Vector_2" d="M7.12002 35.7651C4.84002 35.8751 3.02002 37.7451 3.02002 40.0551H7.12002V35.7651Z" fill="#975C45"/>
</g>
</g>
</g>
<g id="Group_7">
<path id="Vector_3" d="M52.18 48.1651C56.7087 48.1651 60.38 44.4939 60.38 39.9651C60.38 35.4364 56.7087 31.7651 52.18 31.7651C47.6512 31.7651 43.98 35.4364 43.98 39.9651C43.98 44.4939 47.6512 48.1651 52.18 48.1651Z" fill="#AD7153"/>
<g id="Group_8">
<path id="Vector_4" d="M58.52 39.9652C58.41 37.6852 56.54 35.8652 54.23 35.8652V39.9652H58.52Z" fill="#975C45"/>
</g>
</g>
</g>
<g id="Group_9">
<path id="Vector_5" d="M30.1396 74.3952C18.1296 74.3952 8.38965 64.6552 8.38965 52.6452V27.2852C8.38965 15.2752 18.1296 5.53516 30.1396 5.53516C42.1497 5.53516 51.8896 15.2752 51.8896 27.2852V52.6352C51.8896 66.0652 42.1497 74.3952 30.1396 74.3952Z" fill="#F6C09C"/>
<path id="Vector_6" d="M12.4099 52.6451V14.7051C9.87988 18.2551 8.37988 22.5951 8.37988 27.2951V52.6451C8.37988 64.6551 18.1199 74.3951 30.1299 74.3951C30.8099 74.3951 31.4799 74.3551 32.1499 74.2951C21.0799 73.2751 12.4099 63.9751 12.4099 52.6451Z" fill="#AD7153"/>
</g>
</g>
</g>
<g id="Group_10">
<g id="Group_11">
<path id="Vector_7" d="M17.1396 14.7052C16.3096 14.7052 15.6396 14.0352 15.6396 13.2052V9.60522C15.6396 8.77522 16.3096 8.10522 17.1396 8.10522C17.9696 8.10522 18.6396 8.77522 18.6396 9.60522V13.2052C18.6396 14.0352 17.9696 14.7052 17.1396 14.7052Z" fill="#4E2727"/>
</g>
<g id="Group_12">
<path id="Vector_8" d="M23.8198 12.7051C22.9898 12.7051 22.3198 12.0351 22.3198 11.2051V4.71509C22.3198 3.88509 22.9898 3.21509 23.8198 3.21509C24.6498 3.21509 25.3198 3.88509 25.3198 4.71509V11.2051C25.3198 12.0351 24.6498 12.7051 23.8198 12.7051Z" fill="#4E2727"/>
</g>
<g id="Group_13">
<path id="Vector_9" d="M43.8696 14.7052C43.0396 14.7052 42.3696 14.0352 42.3696 13.2052V9.60522C42.3696 8.77522 43.0396 8.10522 43.8696 8.10522C44.6996 8.10522 45.3696 8.77522 45.3696 9.60522V13.2052C45.3696 14.0352 44.6996 14.7052 43.8696 14.7052Z" fill="#4E2727"/>
</g>
<g id="Group_14">
<path id="Vector_10" d="M37.1895 12.7051C36.3595 12.7051 35.6895 12.0351 35.6895 11.2051V4.71509C35.6895 3.88509 36.3595 3.21509 37.1895 3.21509C38.0195 3.21509 38.6895 3.88509 38.6895 4.71509V11.2051C38.6895 12.0351 38.0095 12.7051 37.1895 12.7051Z" fill="#4E2727"/>
</g>
<g id="Group_15">
<path id="Vector_11" d="M30.4995 11.0851C29.6695 11.0851 28.9995 10.4151 28.9995 9.58511V1.73511C28.9995 0.905107 29.6695 0.235107 30.4995 0.235107C31.3295 0.235107 31.9995 0.905107 31.9995 1.73511V9.58511C31.9995 10.4151 31.3295 11.0851 30.4995 11.0851Z" fill="#4E2727"/>
</g>
</g>
</g>
</g>
<defs>
<clipPath id="clip0_215_47">
<rect width="59.75" height="74.16" fill="white" transform="translate(0.629883 0.235107)"/>
</clipPath>
</defs>
</svg>
