<svg width="110" height="110" viewBox="0 0 110 110" fill="none" xmlns="http://www.w3.org/2000/svg">
<path d="M33.1201 62.6801C37.2843 62.6801 40.6601 59.3043 40.6601 55.1401C40.6601 50.9759 37.2843 47.6001 33.1201 47.6001C28.9559 47.6001 25.5801 50.9759 25.5801 55.1401C25.5801 59.3043 28.9559 62.6801 33.1201 62.6801Z" fill="#AD7153"/>
<path d="M31.54 51.28C29.45 51.38 27.77 53.1 27.77 55.22H31.54V51.28Z" fill="#975C45"/>
<path d="M72.9501 62.6801C77.1144 62.6801 80.4902 59.3043 80.4902 55.1401C80.4902 50.9759 77.1144 47.6001 72.9501 47.6001C68.7859 47.6001 65.4102 50.9759 65.4102 55.1401C65.4102 59.3043 68.7859 62.6801 72.9501 62.6801Z" fill="#AD7153"/>
<path d="M78.7701 55.1301C78.6701 53.0401 76.9501 51.3601 74.8301 51.3601V55.1301H78.7701Z" fill="#975C45"/>
<path d="M52.6902 86.77C41.6502 86.77 32.7002 77.82 32.7002 66.78V43.48C32.7002 32.44 41.6502 23.49 52.6902 23.49C63.7302 23.49 72.6802 32.44 72.6802 43.48V66.78C72.6802 77.82 63.7302 86.77 52.6902 86.77Z" fill="#F6C09C"/>
<path d="M36.41 66.7799V31.9199C34.09 35.1899 32.71 39.1699 32.71 43.4799V66.7799C32.71 77.8199 41.66 86.7699 52.7 86.7699C53.33 86.7699 53.94 86.7299 54.55 86.6799C44.38 85.7499 36.41 77.1999 36.41 66.7799Z" fill="#AD7153"/>
<path d="M84.42 77.4298C84.42 77.4298 77.31 89.9998 59.29 87.5398V85.5998C65.45 83.5198 70.08 78.7998 71.9 72.5298C74.37 74.8798 78.3 77.1598 84.42 77.4298Z" fill="#5C2E2F" stroke="#5C2E2F" stroke-width="0.25" stroke-miterlimit="10"/>
<path d="M74.8401 44.8599C74.8401 32.3099 65.0001 22.1399 52.8701 22.1399C40.7301 22.1399 30.8901 32.3099 30.8901 44.8599C30.8901 45.2999 30.9101 45.7399 30.9401 46.1799C30.9101 46.4199 30.8901 46.6499 30.8901 46.8699V48.1499C31.4501 47.9599 32.0401 47.8299 32.6501 47.7699L32.6901 52.0499C34.1701 50.7799 35.3401 49.6199 36.1701 48.2999C37.1001 46.8399 37.6001 45.1899 37.6001 43.0399C37.6001 40.8099 38.6501 38.7199 40.4201 37.3499C40.6201 37.1999 40.8201 37.0499 41.0301 36.8999C43.7701 39.4799 48.8201 43.1799 61.9801 42.9399C61.9801 42.9399 61.0901 41.8799 61.7601 39.9399C61.7601 39.9399 64.0001 43.0099 69.3001 43.3699C69.3001 43.3699 69.2201 45.7799 70.7001 48.1499C71.2501 49.0499 72.0301 49.9299 73.1301 50.6899V47.7399H73.1701C73.7501 47.7399 74.3101 47.7999 74.8501 47.9299V46.8599C74.8501 46.6399 74.8301 46.4099 74.8101 46.1699C74.8201 45.7399 74.8401 45.2999 74.8401 44.8599Z" fill="#5C2E2F" stroke="#5C2E2F" stroke-width="0.25" stroke-miterlimit="10"/>
</svg>
