<svg width="110" height="110" viewBox="0 0 110 110" fill="none" xmlns="http://www.w3.org/2000/svg">
<g clip-path="url(#clip0_403_335)">
<path d="M34.9902 67.71C39.1544 67.71 42.5302 64.3342 42.5302 60.17C42.5302 56.0058 39.1544 52.63 34.9902 52.63C30.826 52.63 27.4502 56.0058 27.4502 60.17C27.4502 64.3342 30.826 67.71 34.9902 67.71Z" fill="#AD7153"/>
<path d="M33.4204 56.3101C31.3304 56.4101 29.6504 58.1301 29.6504 60.2501H33.4204V56.3101Z" fill="#975C45"/>
<path d="M74.83 67.71C78.9943 67.71 82.37 64.3342 82.37 60.17C82.37 56.0058 78.9943 52.63 74.83 52.63C70.6658 52.63 67.29 56.0058 67.29 60.17C67.29 64.3342 70.6658 67.71 74.83 67.71Z" fill="#AD7153"/>
<path d="M80.65 60.17C80.55 58.08 78.83 56.4 76.71 56.4V60.17H80.65Z" fill="#975C45"/>
<path d="M54.5701 91.81C43.5301 91.81 34.5801 82.86 34.5801 71.82V48.52C34.5801 37.48 43.5301 28.53 54.5701 28.53C65.6101 28.53 74.5601 37.48 74.5601 48.52V71.82C74.5601 84.16 65.6101 91.81 54.5701 91.81Z" fill="#F6C09C"/>
<path d="M38.2801 71.8201V36.9601C35.9601 40.2301 34.5801 44.2101 34.5801 48.5201V71.8201C34.5801 82.8601 43.5301 91.8101 54.5701 91.8101C55.2001 91.8101 55.8101 91.7701 56.4201 91.7201C46.2501 90.7801 38.2801 82.2301 38.2801 71.8201Z" fill="#AD7153"/>
<path d="M54.9101 37.0401C52.5401 37.0401 50.6201 35.3901 50.6201 33.3601V21.8601C50.6201 19.8301 52.5401 18.1801 54.9101 18.1801C57.2801 18.1801 59.2001 19.8301 59.2001 21.8601V33.3601C59.2001 35.3901 57.2801 37.0401 54.9101 37.0401Z" class="current-color-dark" fill="#4E2727"/>
</g>
<defs>
<clipPath id="clip0_403_335">
<rect width="109.82" height="109.82" fill="white" transform="translate(0 0.0900879)"/>
</clipPath>
</defs>
</svg>
