<svg width="60" height="86" viewBox="0 0 60 86" fill="none" xmlns="http://www.w3.org/2000/svg">
<g id="hair-7" clip-path="url(#clip0_215_143)">
<g id="Group">
<g id="face">
<g id="Group_2">
<g id="Group_3">
<path id="Vector" d="M8.2 44.4298C12.7287 44.4298 16.4 40.7585 16.4 36.2298C16.4 31.701 12.7287 28.0298 8.2 28.0298C3.67126 28.0298 0 31.701 0 36.2298C0 40.7585 3.67126 44.4298 8.2 44.4298Z" fill="#AD7153"/>
<g id="Group_4">
<g id="Group_5">
<path id="Vector_2" d="M6.49014 32.0298C4.21014 32.1398 2.39014 34.0098 2.39014 36.3198H6.49014V32.0298Z" fill="#975C45"/>
</g>
</g>
</g>
<g id="Group_6">
<path id="Vector_3" d="M51.5501 44.4298C56.0788 44.4298 59.7501 40.7585 59.7501 36.2298C59.7501 31.701 56.0788 28.0298 51.5501 28.0298C47.0214 28.0298 43.3501 31.701 43.3501 36.2298C43.3501 40.7585 47.0214 44.4298 51.5501 44.4298Z" fill="#AD7153"/>
<path id="Vector_4" d="M51.2598 28.7798V44.4198C46.8698 44.2798 43.3398 40.6698 43.3398 36.2298C43.3398 32.0198 46.5198 28.5498 50.5898 28.0798C50.8198 28.3498 51.0498 28.5798 51.2598 28.7798Z" fill="#AD7153"/>
<path id="Vector_5" d="M16.4 36.2298C16.4 40.7598 12.73 44.4298 8.2 44.4298C8.05 44.4298 7.9 44.4298 7.75 44.4198V28.7798C7.99 28.5598 8.24 28.3198 8.51 28.0398C12.9 28.1998 16.4 31.7998 16.4 36.2298Z" fill="#AD7153"/>
<g id="Group_7">
<path id="Vector_6" d="M57.8901 36.2299C57.7801 33.9499 55.9101 32.1299 53.6001 32.1299V36.2299H57.8901Z" fill="#975C45"/>
</g>
</g>
</g>
<g id="Group_8">
<path id="Vector_7" d="M29.5 70.6598C27.13 70.6598 24.86 70.2798 22.73 69.5798H36.27C34.14 70.2798 31.87 70.6598 29.5 70.6598Z" fill="#F6C09C"/>
</g>
<g id="Group_9">
<path id="Vector_8" d="M29.5098 70.6598C17.4998 70.6598 7.75977 60.9198 7.75977 48.9098V23.5498C7.75977 11.5398 17.4998 1.7998 29.5098 1.7998C41.5198 1.7998 51.2598 11.5398 51.2598 23.5498V48.8998C51.2598 60.9198 41.5198 70.6598 29.5098 70.6598Z" fill="#F6C09C"/>
<path id="Vector_9" d="M29.5098 70.6598C17.4998 70.6598 7.75977 60.9198 7.75977 48.9098V23.5498C7.75977 11.5398 17.4998 1.7998 29.5098 1.7998C41.5198 1.7998 51.2598 11.5398 51.2598 23.5498V48.8998C51.2598 60.9198 41.5198 70.6598 29.5098 70.6598Z" fill="#F6C09C"/>
<path id="Vector_10" d="M10.7101 56.5898L10.5701 57.9398C10.3401 58.0498 10.1101 58.1898 9.92012 58.3798C9.81012 58.1598 9.71012 57.9398 9.62012 57.7098C9.89012 57.2498 10.0701 56.7098 10.1301 56.1198C10.1401 56.0798 10.1301 56.0398 10.1401 55.9998C10.3001 56.2398 10.4901 56.4298 10.7101 56.5898Z" fill="#F6C09C"/>
<path id="Vector_11" d="M20.34 68.0498C20.26 68.1998 20.18 68.3698 20.13 68.5398C20.09 68.5198 20.04 68.4998 20 68.4798C20.13 68.3598 20.24 68.2098 20.34 68.0498Z" fill="#F6C09C"/>
<path id="Vector_12" d="M11.78 48.9097V10.9697C9.25 14.5197 7.75 18.8597 7.75 23.5597V48.9097C7.75 60.9197 17.49 70.6597 29.5 70.6597C30.18 70.6597 30.85 70.6197 31.52 70.5597C20.45 69.5397 11.78 60.2397 11.78 48.9097Z" fill="#AD7153"/>
</g>
</g>
<g id="Group_10">
<path id="Vector_13" d="M22.7301 69.5799H21.5901V81.0799H6.12012V44.1599C6.64012 44.2999 7.19012 44.3899 7.75012 44.4199V48.9099C7.75012 58.5599 14.0301 66.7399 22.7301 69.5799Z" fill="#472123"/>
<path id="Vector_14" d="M51.54 44.4299C52.25 44.4299 52.94 44.3399 53.59 44.1699V81.0799H36.68V69.5799H36.27C44.98 66.7399 51.26 58.5599 51.26 48.9099V44.4199C51.35 44.4299 51.45 44.4299 51.54 44.4299Z" fill="#472123"/>
<path id="Vector_15" d="M53.6401 24.3899C53.6401 24.8599 53.6201 25.3199 53.5901 25.7799V28.2899C52.9401 28.1199 52.2501 28.0299 51.5401 28.0299C51.2201 28.0299 50.9001 28.0499 50.5901 28.0799C48.7401 26.0099 46.2701 22.1299 45.2501 19.8399C43.2601 15.3499 39.9601 10.9399 29.5001 10.9399C23.4401 10.9399 16.9801 12.0699 14.1601 19.7799C13.2201 22.3499 10.5501 25.9499 8.5101 28.0399C8.4101 28.0299 8.3001 28.0299 8.2001 28.0299C7.4801 28.0299 6.7801 28.1199 6.1201 28.2999V25.2099C6.1201 24.9399 6.1001 24.6699 6.1001 24.3899C6.1001 24.1199 6.1201 23.8499 6.1201 23.5799V23.4799H6.1301C6.6101 10.7799 17.0501 0.629883 29.8701 0.629883C43.0001 0.629883 53.6401 11.2699 53.6401 24.3899Z" fill="#472123"/>
<g id="Group_11">
<g id="Group_12">
<path id="Vector_16" d="M16.1401 17.9201C15.3101 17.9201 14.6401 17.2501 14.6401 16.4201V12.8201C14.6401 11.9901 15.3101 11.3201 16.1401 11.3201C16.9701 11.3201 17.6401 11.9901 17.6401 12.8201V16.4201C17.6401 17.2501 16.9701 17.9201 16.1401 17.9201Z" fill="#5C2E2F" stroke="#5C2E2F" stroke-width="0.25" stroke-miterlimit="10"/>
</g>
<g id="Group_13">
<path id="Vector_17" d="M22.8203 15.9199C21.9903 15.9199 21.3203 15.2499 21.3203 14.4199V7.92993C21.3203 7.09993 21.9903 6.42993 22.8203 6.42993C23.6503 6.42993 24.3203 7.09993 24.3203 7.92993V14.4199C24.3203 15.2499 23.6503 15.9199 22.8203 15.9199Z" fill="#5C2E2F" stroke="#5C2E2F" stroke-width="0.25" stroke-miterlimit="10"/>
</g>
<g id="Group_14">
<path id="Vector_18" d="M42.8701 17.9201C42.0401 17.9201 41.3701 17.2501 41.3701 16.4201V12.8201C41.3701 11.9901 42.0401 11.3201 42.8701 11.3201C43.7001 11.3201 44.3701 11.9901 44.3701 12.8201V16.4201C44.3701 17.2501 43.7001 17.9201 42.8701 17.9201Z" fill="#5C2E2F" stroke="#5C2E2F" stroke-width="0.25" stroke-miterlimit="10"/>
</g>
<g id="Group_15">
<path id="Vector_19" d="M36.1899 15.9199C35.3599 15.9199 34.6899 15.2499 34.6899 14.4199V7.92993C34.6899 7.09993 35.3599 6.42993 36.1899 6.42993C37.0199 6.42993 37.6899 7.09993 37.6899 7.92993V14.4199C37.6899 15.2499 37.0199 15.9199 36.1899 15.9199Z" fill="#5C2E2F" stroke="#5C2E2F" stroke-width="0.25" stroke-miterlimit="10"/>
</g>
<g id="Group_16">
<path id="Vector_20" d="M29.5103 14.3C28.6803 14.3 28.0103 13.63 28.0103 12.8V4.95996C28.0103 4.12996 28.6803 3.45996 29.5103 3.45996C30.3403 3.45996 31.0103 4.12996 31.0103 4.95996V12.81C31.0103 13.63 30.3303 14.3 29.5103 14.3Z" fill="#5C2E2F" stroke="#5C2E2F" stroke-width="0.25" stroke-miterlimit="10"/>
</g>
</g>
<g id="Group_17">
<path id="Vector_21" d="M10.5803 34.7098C10.5803 33.6098 10.0403 32.6898 9.31033 32.4098V31.6098C10.0403 31.3298 10.5803 30.4098 10.5803 29.3098C10.5803 28.2098 10.0403 27.2898 9.31033 27.0098L9.30033 23.4498C9.30033 23.2298 9.12033 23.0598 8.91033 23.0598H8.75033C8.53033 23.0598 8.36033 23.2398 8.36033 23.4498V27.0198C7.63033 27.2998 7.09033 28.2198 7.09033 29.3198C7.09033 30.4198 7.63033 31.3398 8.36033 31.6198V32.4198C7.63033 32.6998 7.09033 33.6198 7.09033 34.7198C7.09033 35.8198 7.63033 36.7398 8.36033 37.0198V37.8198C7.63033 38.0998 7.09033 39.0198 7.09033 40.1198C7.09033 41.2198 7.63033 42.1398 8.36033 42.4198V43.2198C7.63033 43.4998 7.09033 44.4198 7.09033 45.5198C7.09033 46.6198 7.63033 47.5398 8.36033 47.8198V48.6198C7.63033 48.8998 7.09033 49.8198 7.09033 50.9198C7.09033 52.0198 7.63033 52.9398 8.36033 53.2198V54.0198C7.63033 54.2998 7.09033 55.2198 7.09033 56.3198C7.09033 57.4198 7.63033 58.3398 8.36033 58.6198V59.4198C7.63033 59.6998 7.09033 60.6198 7.09033 61.7198C7.09033 62.8198 7.63033 63.7398 8.36033 64.0198V64.8198C7.63033 65.0998 7.09033 66.0198 7.09033 67.1198C7.09033 68.2198 7.63033 69.1398 8.36033 69.4198V70.2198C7.63033 70.4998 7.09033 71.4198 7.09033 72.5198C7.09033 73.6198 7.63033 74.5398 8.36033 74.8198V75.6298C7.63033 75.9098 7.09033 76.8298 7.09033 77.9298C7.09033 79.0298 7.63033 79.9498 8.36033 80.2298V81.0298C7.63033 81.3098 7.09033 82.2298 7.09033 83.3298C7.09033 84.6598 7.87033 85.7298 8.83033 85.7298C9.79033 85.7298 10.5703 84.6498 10.5703 83.3298C10.5703 82.2298 10.0303 81.3098 9.30033 81.0298V80.2298C10.0303 79.9498 10.5703 79.0298 10.5703 77.9298C10.5703 76.8298 10.0303 75.9098 9.30033 75.6298V74.8298C10.0303 74.5498 10.5703 73.6298 10.5703 72.5298C10.5703 71.4298 10.0303 70.5098 9.30033 70.2298V69.4298C10.0303 69.1498 10.5703 68.2298 10.5703 67.1298C10.5703 66.0298 10.0303 65.1098 9.30033 64.8298V64.0298C10.0303 63.7498 10.5703 62.8298 10.5703 61.7298C10.5703 60.6298 10.0303 59.7098 9.30033 59.4298V58.6298C10.0303 58.3498 10.5703 57.4298 10.5703 56.3298C10.5703 55.2298 10.0303 54.3098 9.30033 54.0298V53.2298C10.0303 52.9498 10.5703 52.0298 10.5703 50.9298C10.5703 49.8298 10.0303 48.9098 9.30033 48.6298V47.8298C10.0303 47.5498 10.5703 46.6298 10.5703 45.5298C10.5703 44.4298 10.0303 43.5098 9.30033 43.2298V42.4298C10.0303 42.1498 10.5703 41.2298 10.5703 40.1298C10.5703 39.0298 10.0303 38.1098 9.30033 37.8298V37.0298C10.0403 36.7298 10.5803 35.8098 10.5803 34.7098Z" fill="#5C2E2F"/>
<path id="Vector_22" d="M14.8404 28.0699C14.8404 26.8999 14.2704 25.9299 13.4904 25.6199V24.7699C14.2704 24.4699 14.8404 23.4899 14.8404 22.3199C14.8404 21.1499 14.2704 20.1799 13.4904 19.8699L13.4804 16.0799C13.4804 15.8499 13.2904 15.6599 13.0604 15.6599H12.9004C12.6704 15.6599 12.4804 15.8499 12.4804 16.0799V19.8699C11.7004 20.1699 11.1304 21.1499 11.1304 22.3199C11.1304 23.4899 11.7004 24.4599 12.4804 24.7699V25.6199C11.7004 25.9199 11.1304 26.8999 11.1304 28.0699C11.1304 29.2399 11.7004 30.2099 12.4804 30.5199V31.3699C11.7004 31.6699 11.1304 32.6499 11.1304 33.8199C11.1304 34.9899 11.7004 35.9599 12.4804 36.2699V37.1199C11.7004 37.4199 11.1304 38.3999 11.1304 39.5699C11.1304 40.7399 11.7004 41.7099 12.4804 42.0199V42.8699C11.7004 43.1699 11.1304 44.1499 11.1304 45.3199C11.1304 46.4899 11.7004 47.4599 12.4804 47.7699V48.6199C11.7004 48.9199 11.1304 49.8999 11.1304 51.0699C11.1304 52.2399 11.7004 53.2099 12.4804 53.5199V54.3699C11.7004 54.6699 11.1304 55.6499 11.1304 56.8199C11.1304 57.9899 11.7004 58.9599 12.4804 59.2699V60.1199C11.7004 60.4199 11.1304 61.3999 11.1304 62.5699C11.1304 63.7399 11.7004 64.7099 12.4804 65.0199V65.8699C11.7004 66.1699 11.1304 67.1499 11.1304 68.3199C11.1304 69.4899 11.7004 70.4599 12.4804 70.7699V71.6199C11.7004 71.9199 11.1304 72.8999 11.1304 74.0699C11.1304 75.2399 11.7004 76.2099 12.4804 76.5199V77.3699C11.7004 77.6699 11.1304 78.6499 11.1304 79.8199C11.1304 81.2299 11.9604 82.3699 12.9804 82.3699C14.0004 82.3699 14.8304 81.2299 14.8304 79.8199C14.8304 78.6499 14.2604 77.6799 13.4804 77.3699V76.5199C14.2604 76.2199 14.8304 75.2399 14.8304 74.0699C14.8304 72.8999 14.2604 71.9299 13.4804 71.6199V70.7699C14.2604 70.4699 14.8304 69.4899 14.8304 68.3199C14.8304 67.1499 14.2604 66.1799 13.4804 65.8699V65.0199C14.2604 64.7199 14.8304 63.7399 14.8304 62.5699C14.8304 61.3999 14.2604 60.4299 13.4804 60.1199V59.2299C14.2604 58.9299 14.8304 57.9499 14.8304 56.7799C14.8304 55.6099 14.2604 54.6399 13.4804 54.3299V53.4799C14.2604 53.1799 14.8304 52.1999 14.8304 51.0299C14.8304 49.8599 14.2604 48.8899 13.4804 48.5799V47.7299C14.2604 47.4299 14.8304 46.4499 14.8304 45.2799C14.8304 44.1099 14.2604 43.1399 13.4804 42.8299V41.9799C14.2604 41.6799 14.8304 40.6999 14.8304 39.5299C14.8304 38.3599 14.2604 37.3899 13.4804 37.0799V36.2299C14.2604 35.9299 14.8304 34.9499 14.8304 33.7799C14.8304 32.6099 14.2604 31.6399 13.4804 31.3299V30.4799C14.2704 30.2099 14.8404 29.2399 14.8404 28.0699Z" fill="#5C2E2F"/>
</g>
<g id="Group_18">
<path id="Vector_23" d="M48.4297 34.7098C48.4297 33.6098 48.9697 32.6898 49.6997 32.4098V31.6098C48.9697 31.3298 48.4297 30.4098 48.4297 29.3098C48.4297 28.2098 48.9697 27.2898 49.6997 27.0098L49.7097 23.4398C49.7097 23.2198 49.8897 23.0498 50.0997 23.0498H50.2497C50.4697 23.0498 50.6397 23.2298 50.6397 23.4398V27.0098C51.3697 27.2898 51.9097 28.2098 51.9097 29.3098C51.9097 30.4098 51.3697 31.3298 50.6397 31.6098V32.4098C51.3697 32.6898 51.9097 33.6098 51.9097 34.7098C51.9097 35.8098 51.3697 36.7298 50.6397 37.0098V37.8098C51.3697 38.0898 51.9097 39.0098 51.9097 40.1098C51.9097 41.2098 51.3697 42.1298 50.6397 42.4098V43.2098C51.3697 43.4898 51.9097 44.4098 51.9097 45.5098C51.9097 46.6098 51.3697 47.5298 50.6397 47.8098V48.6098C51.3697 48.8898 51.9097 49.8098 51.9097 50.9098C51.9097 52.0098 51.3697 52.9298 50.6397 53.2098V54.0098C51.3697 54.2898 51.9097 55.2098 51.9097 56.3098C51.9097 57.4098 51.3697 58.3298 50.6397 58.6098V59.4098C51.3697 59.6898 51.9097 60.6098 51.9097 61.7098C51.9097 62.8098 51.3697 63.7298 50.6397 64.0098V64.8098C51.3697 65.0898 51.9097 66.0098 51.9097 67.1098C51.9097 68.2098 51.3697 69.1298 50.6397 69.4098V70.2098C51.3697 70.4898 51.9097 71.4098 51.9097 72.5098C51.9097 73.6098 51.3697 74.5298 50.6397 74.8098V75.6298C51.3697 75.9098 51.9097 76.8298 51.9097 77.9298C51.9097 79.0298 51.3697 79.9498 50.6397 80.2298V81.0298C51.3697 81.3098 51.9097 82.2298 51.9097 83.3298C51.9097 84.6598 51.1297 85.7298 50.1697 85.7298C49.2097 85.7298 48.4297 84.6498 48.4297 83.3298C48.4297 82.2298 48.9697 81.3098 49.6997 81.0298V80.2298C48.9697 79.9498 48.4297 79.0298 48.4297 77.9298C48.4297 76.8298 48.9697 75.9098 49.6997 75.6298V74.8298C48.9697 74.5498 48.4297 73.6298 48.4297 72.5298C48.4297 71.4298 48.9697 70.5098 49.6997 70.2298V69.4298C48.9697 69.1498 48.4297 68.2298 48.4297 67.1298C48.4297 66.0298 48.9697 65.1098 49.6997 64.8298V64.0298C48.9697 63.7498 48.4297 62.8298 48.4297 61.7298C48.4297 60.6298 48.9697 59.7098 49.6997 59.4298V58.6298C48.9697 58.3498 48.4297 57.4298 48.4297 56.3298C48.4297 55.2298 48.9697 54.3098 49.6997 54.0298V53.2298C48.9697 52.9498 48.4297 52.0298 48.4297 50.9298C48.4297 49.8298 48.9697 48.9098 49.6997 48.6298V47.8298C48.9697 47.5498 48.4297 46.6298 48.4297 45.5298C48.4297 44.4298 48.9697 43.5098 49.6997 43.2298V42.4298C48.9697 42.1498 48.4297 41.2298 48.4297 40.1298C48.4297 39.0298 48.9697 38.1098 49.6997 37.8298V37.0298C48.9697 36.7298 48.4297 35.8098 48.4297 34.7098Z" fill="#5C2E2F"/>
<path id="Vector_24" d="M44.1699 28.0699C44.1699 26.8999 44.7399 25.9299 45.5199 25.6199V24.7699C44.7399 24.4699 44.1699 23.4899 44.1699 22.3199C44.1699 21.1499 44.7399 20.1799 45.5199 19.8699L45.5299 16.0799C45.5299 15.8499 45.7199 15.6599 45.9499 15.6599H46.1099C46.3399 15.6599 46.5299 15.8499 46.5299 16.0799V19.8699C47.3099 20.1699 47.8799 21.1499 47.8799 22.3199C47.8799 23.4899 47.3099 24.4599 46.5299 24.7699V25.6199C47.3099 25.9199 47.8799 26.8999 47.8799 28.0699C47.8799 29.2399 47.3099 30.2099 46.5299 30.5199V31.3699C47.3099 31.6699 47.8799 32.6499 47.8799 33.8199C47.8799 34.9899 47.3099 35.9599 46.5299 36.2699V37.1199C47.3099 37.4199 47.8799 38.3999 47.8799 39.5699C47.8799 40.7399 47.3099 41.7099 46.5299 42.0199V42.8699C47.3099 43.1699 47.8799 44.1499 47.8799 45.3199C47.8799 46.4899 47.3099 47.4599 46.5299 47.7699V48.6199C47.3099 48.9199 47.8799 49.8999 47.8799 51.0699C47.8799 52.2399 47.3099 53.2099 46.5299 53.5199V54.3699C47.3099 54.6699 47.8799 55.6499 47.8799 56.8199C47.8799 57.9899 47.3099 58.9599 46.5299 59.2699V60.1199C47.3099 60.4199 47.8799 61.3999 47.8799 62.5699C47.8799 63.7399 47.3099 64.7099 46.5299 65.0199V65.8699C47.3099 66.1699 47.8799 67.1499 47.8799 68.3199C47.8799 69.4899 47.3099 70.4599 46.5299 70.7699V71.6199C47.3099 71.9199 47.8799 72.8999 47.8799 74.0699C47.8799 75.2399 47.3099 76.2099 46.5299 76.5199V77.3699C47.3099 77.6699 47.8799 78.6499 47.8799 79.8199C47.8799 81.2299 47.0499 82.3699 46.0299 82.3699C45.0099 82.3699 44.1799 81.2299 44.1799 79.8199C44.1799 78.6499 44.7499 77.6799 45.5299 77.3699V76.5199C44.7499 76.2199 44.1799 75.2399 44.1799 74.0699C44.1799 72.8999 44.7499 71.9299 45.5299 71.6199V70.7699C44.7499 70.4699 44.1799 69.4899 44.1799 68.3199C44.1799 67.1499 44.7499 66.1799 45.5299 65.8699V65.0199C44.7499 64.7199 44.1799 63.7399 44.1799 62.5699C44.1799 61.3999 44.7499 60.4299 45.5299 60.1199V59.2299C44.7499 58.9299 44.1799 57.9499 44.1799 56.7799C44.1799 55.6099 44.7499 54.6399 45.5299 54.3299V53.4799C44.7499 53.1799 44.1799 52.1999 44.1799 51.0299C44.1799 49.8599 44.7499 48.8899 45.5299 48.5799V47.7299C44.7499 47.4299 44.1799 46.4499 44.1799 45.2799C44.1799 44.1099 44.7499 43.1399 45.5299 42.8299V41.9799C44.7499 41.6799 44.1799 40.6999 44.1799 39.5299C44.1799 38.3599 44.7499 37.3899 45.5299 37.0799V36.2299C44.7499 35.9299 44.1799 34.9499 44.1799 33.7799C44.1799 32.6099 44.7499 31.6399 45.5299 31.3299V30.4799C44.7399 30.2099 44.1699 29.2399 44.1699 28.0699Z" fill="#5C2E2F"/>
</g>
</g>
</g>
</g>
<defs>
<clipPath id="clip0_215_143">
<rect width="59.75" height="85.1" fill="white" transform="translate(0 0.629883)"/>
</clipPath>
</defs>
</svg>
