<svg width="110" height="110" viewBox="0 0 110 110" fill="none" xmlns="http://www.w3.org/2000/svg">
<g clip-path="url(#clip0_403_216)">
<path d="M35.08 62.9701C39.2443 62.9701 42.62 59.5944 42.62 55.4301C42.62 51.2659 39.2443 47.8901 35.08 47.8901C30.9158 47.8901 27.54 51.2659 27.54 55.4301C27.54 59.5944 30.9158 62.9701 35.08 62.9701Z" fill="#AD7153"/>
<path d="M33.5102 51.5701C31.4202 51.6701 29.7402 53.3901 29.7402 55.5101H33.5102V51.5701Z" fill="#975C45"/>
<path d="M74.9199 62.9701C79.0841 62.9701 82.4599 59.5944 82.4599 55.4301C82.4599 51.2659 79.0841 47.8901 74.9199 47.8901C70.7557 47.8901 67.3799 51.2659 67.3799 55.4301C67.3799 59.5944 70.7557 62.9701 74.9199 62.9701Z" fill="#AD7153"/>
<path d="M80.7398 55.4302C80.6398 53.3402 78.9198 51.6602 76.7998 51.6602V55.4302H80.7398Z" fill="#975C45"/>
<path d="M54.6599 87.07C43.6199 87.07 34.6699 78.12 34.6699 67.08V43.78C34.6699 32.74 43.6199 23.79 54.6599 23.79C65.6999 23.79 74.6499 32.74 74.6499 43.78V67.08C74.6499 79.42 65.6999 87.07 54.6599 87.07Z" fill="#F6C09C"/>
<path d="M38.3699 67.08V32.22C36.0499 35.49 34.6699 39.47 34.6699 43.78V67.08C34.6699 78.12 43.6199 87.07 54.6599 87.07C55.2899 87.07 55.8999 87.03 56.5099 86.98C46.3399 86.04 38.3699 77.49 38.3699 67.08Z" fill="#AD7153"/>
<path d="M74.5699 41.1699C74.5599 40.9599 74.5299 40.7499 74.5099 40.5299C74.4299 39.7799 74.2899 39.0299 74.1099 38.3099C74.0999 38.2599 74.0899 38.2299 74.0799 38.1899C74.0199 37.9499 73.9599 37.7099 73.8899 37.4799C73.8299 37.2299 73.7499 36.9799 73.6699 36.7399C73.5199 36.2499 73.3399 35.7799 73.1499 35.3099L72.8499 34.6199C72.7399 34.3899 72.6299 34.1599 72.5199 33.9399C71.7699 32.4399 70.8299 31.0499 69.7399 29.7999C69.1399 29.1199 68.5099 28.4799 67.8299 27.8899C64.3199 24.7999 59.7199 22.9399 54.6699 22.9399C49.1599 22.9399 44.1599 25.1699 40.5399 28.7899C39.7499 29.5799 39.0299 30.4299 38.3899 31.3399C37.1399 33.0999 36.1699 35.0499 35.5399 37.1599C35.4399 37.4799 35.3599 37.7999 35.2699 38.1199C35.2599 38.1499 35.2499 38.1699 35.2499 38.1799C35.2399 38.2199 35.2299 38.2499 35.2199 38.2999C35.2099 38.3499 35.1999 38.3799 35.1899 38.4299C35.1299 38.6799 35.0799 38.9299 35.0299 39.1699C34.9999 39.3199 34.9699 39.4699 34.9499 39.6199C34.9099 39.8499 34.8799 40.0799 34.8499 40.3199C34.8399 40.3799 34.8299 40.4499 34.8199 40.5199C34.8099 40.5699 34.8099 40.6099 34.7999 40.6599C34.7899 40.8099 34.7699 40.9499 34.7499 41.1099V41.2099C34.6999 41.7199 34.6799 42.2299 34.6799 42.7499C34.6799 42.8099 34.6699 42.8499 34.6699 42.9099V47.6599L34.7399 47.8899C36.2999 46.4399 37.4899 45.0899 38.3699 43.8999C40.0099 41.7299 40.6599 40.0999 40.8999 39.3599C41.5899 39.2299 42.7399 38.9799 43.9499 38.6199C43.6899 38.9799 43.4099 39.3299 43.0999 39.6499C43.0999 39.6499 46.9299 39.0299 49.4199 37.7799C48.9999 38.5299 48.4599 39.3399 47.7899 40.0399C47.7899 40.0399 51.6999 39.4099 54.1899 38.1299C53.7999 38.7799 53.3399 39.4499 52.7699 40.0399C52.7699 40.0399 56.5999 39.4199 59.0899 38.1699C58.6699 38.9199 58.1299 39.7299 57.4599 40.4299C57.4599 40.4299 61.9599 39.6999 64.3799 38.2299C63.9299 39.0799 63.3299 40.0099 62.5799 40.7999C62.5799 40.7999 67.2099 40.0599 69.5999 38.5499C69.6999 38.7999 69.7099 39.0399 69.7099 39.2299V40.7099C69.7099 44.7899 71.4799 45.1799 74.5599 47.8699L74.6299 47.6399V42.8899C74.6499 42.3299 74.6199 41.7399 74.5699 41.1699Z" fill="#5C2E2F"/>
<path d="M38.3699 31.3398V43.9098C37.4899 45.0998 36.2999 46.4498 34.7399 47.8998L34.6699 47.6698V42.9198C34.6699 42.8598 34.6799 42.8198 34.6799 42.7598C34.6799 42.2398 34.7099 41.7198 34.7499 41.2198V41.1198C34.7699 40.9598 34.7899 40.8198 34.7999 40.6698C34.8099 40.6198 34.8099 40.5798 34.8199 40.5298C34.8299 40.4598 34.8399 40.3898 34.8499 40.3298C34.8799 40.0898 34.9099 39.8598 34.9499 39.6298C34.9799 39.4798 35.0099 39.3298 35.0299 39.1798C35.0799 38.9298 35.1299 38.6798 35.1899 38.4398C35.1999 38.3898 35.2099 38.3598 35.2199 38.3098C35.2299 38.2598 35.2399 38.2298 35.2499 38.1898C35.2499 38.1698 35.2599 38.1498 35.2699 38.1298C35.3499 37.8098 35.4399 37.4898 35.5399 37.1698C36.1499 35.0498 37.1199 33.0898 38.3699 31.3398Z" fill="#472123"/>
</g>
<defs>
<clipPath id="clip0_403_216">
<rect width="110" height="110" fill="white"/>
</clipPath>
</defs>
</svg>
