<svg width="110" height="110" viewBox="0 0 110 110" fill="none" xmlns="http://www.w3.org/2000/svg">
<path d="M35.08 64.44C39.2443 64.44 42.62 61.0642 42.62 56.9C42.62 52.7358 39.2443 49.36 35.08 49.36C30.9158 49.36 27.54 52.7358 27.54 56.9C27.54 61.0642 30.9158 64.44 35.08 64.44Z" fill="#AD7153"/>
<path d="M33.5102 53.0499C31.4202 53.1499 29.7402 54.8699 29.7402 56.9899H33.5102V53.0499Z" fill="#975C45"/>
<path d="M74.9199 64.44C79.0841 64.44 82.4599 61.0642 82.4599 56.9C82.4599 52.7358 79.0841 49.36 74.9199 49.36C70.7557 49.36 67.3799 52.7358 67.3799 56.9C67.3799 61.0642 70.7557 64.44 74.9199 64.44Z" fill="#AD7153"/>
<path d="M80.7398 56.9C80.6398 54.81 78.9198 53.13 76.7998 53.13V56.9H80.7398Z" fill="#975C45"/>
<path d="M54.6599 88.54C43.6199 88.54 34.6699 79.59 34.6699 68.55V45.25C34.6699 34.21 43.6199 25.26 54.6599 25.26C65.6999 25.26 74.6499 34.21 74.6499 45.25V68.55C74.6499 80.89 65.6999 88.54 54.6599 88.54Z" fill="#F6C09C"/>
<path d="M38.3699 68.5501V33.6901C36.0499 36.9601 34.6699 40.9401 34.6699 45.2501V68.5501C34.6699 79.5901 43.6199 88.5401 54.6599 88.5401C55.2899 88.5401 55.8999 88.5001 56.5099 88.4501C46.3399 87.5101 38.3699 78.9701 38.3699 68.5501Z" fill="#AD7153"/>
<path d="M39.6002 31.99V39.44C39.6002 43.52 37.8302 47.41 34.7502 50.09L34.6802 49.86V45.11C34.6802 44.52 34.7102 43.93 34.7602 43.36C34.7702 43.15 34.8002 42.94 34.8202 42.72C34.9002 41.97 35.0402 41.22 35.2202 40.5C35.2302 40.45 35.2402 40.42 35.2502 40.38C35.3102 40.14 35.3702 39.9 35.4402 39.67C35.5002 39.42 35.5802 39.17 35.6602 38.93C35.8102 38.44 35.9902 37.97 36.1802 37.5C36.2802 37.27 36.3802 37.04 36.4802 36.81C36.5902 36.58 36.7002 36.35 36.8102 36.13C37.5602 34.63 38.5002 33.24 39.6002 31.99Z" fill="#5C2E2F"/>
<path d="M74.7402 47.85V50.12C72.0202 50.12 69.8102 47.91 69.8102 45.19V39.73C69.1502 34.54 64.4602 34.49 64.4602 34.49L59.8402 34.33C59.8402 41.25 52.3402 40.43 52.3402 40.43H39.7902L39.5902 40.42V45.15C39.5902 46.41 39.1202 47.56 38.3402 48.42C37.4402 49.44 36.1302 50.07 34.6602 50.07V40.2C34.6602 34.66 36.2902 31.15 38.3402 28.93C41.8002 25.15 46.4702 25.07 46.4702 25.07H64.0702C70.9602 25.07 69.8202 21.71 69.7302 21.46C75.2402 27 74.9702 42.87 74.7402 47.85Z" fill="#472123"/>
</svg>
