<svg width="110" height="110" viewBox="0 0 110 110" fill="none" xmlns="http://www.w3.org/2000/svg">
<path d="M48.8296 59.0599C48.8296 52.3399 43.3796 46.8999 36.6696 46.8999C30.9196 46.8999 26.1196 50.8899 24.8496 56.2499H40.4296V70.6299C45.2996 69.0399 48.8296 64.4599 48.8296 59.0599Z" class="current-color" fill="#5C2E2F" stroke="#5C2E2F" stroke-width="0.25" stroke-miterlimit="10"/>
<path d="M24.8498 56.24C24.6398 57.15 24.5098 58.08 24.5098 59.06C24.5098 65.78 29.9598 71.22 36.6698 71.22C37.9798 71.22 39.2398 71.01 40.4298 70.62V56.24H24.8498Z" class="current-color-dark" fill="#472123"/>
<path d="M38.1298 63.7001C42.2941 63.7001 45.6698 60.3243 45.6698 56.1601C45.6698 51.9959 42.2941 48.6201 38.1298 48.6201C33.9656 48.6201 30.5898 51.9959 30.5898 56.1601C30.5898 60.3243 33.9656 63.7001 38.1298 63.7001Z" fill="#AD7153"/>
<path d="M36.5498 52.3C34.4598 52.4 32.7798 54.1201 32.7798 56.2401H36.5498V52.3Z" fill="#975C45"/>
<path d="M77.9599 63.7001C82.1241 63.7001 85.4999 60.3243 85.4999 56.1601C85.4999 51.9959 82.1241 48.6201 77.9599 48.6201C73.7957 48.6201 70.4199 51.9959 70.4199 56.1601C70.4199 60.3243 73.7957 63.7001 77.9599 63.7001Z" fill="#AD7153"/>
<path d="M83.7798 56.1501C83.6798 54.0601 81.9598 52.3801 79.8398 52.3801V56.1501H83.7798Z" fill="#975C45"/>
<path d="M77.69 44.51V67.8C77.69 78.84 68.74 87.79 57.7 87.79C46.66 87.79 37.71 78.84 37.71 67.8V44.51C37.71 44.15 37.72 43.8 37.74 43.45C37.94 39.61 39.23 36.06 41.3 33.09C44.9 27.9 50.91 24.51 57.71 24.51C63.22 24.51 68.22 26.75 71.84 30.36C75.23 33.75 77.4 38.35 77.67 43.44C77.68 43.81 77.69 44.16 77.69 44.51Z" fill="#F6C09C"/>
<path d="M41.4197 67.8099V32.95C39.0997 36.22 37.7197 40.1999 37.7197 44.5099V67.8099C37.7197 78.8499 46.6697 87.8 57.7097 87.8C58.3397 87.8 58.9497 87.7599 59.5597 87.7099C49.3797 86.7699 41.4197 78.2199 41.4197 67.8099Z" fill="#AD7153"/>
<path d="M79.8397 41.3C79.8397 30.75 71.2897 22.21 60.7497 22.21H55.1197C49.6797 22.21 44.7697 24.49 41.2997 28.14C38.0297 31.56 37.7197 36.2 37.7197 41.31V45.97L41.2997 45.76V48.97C41.8997 47.96 42.4897 46.95 42.4897 45.69C42.4997 43.14 43.4697 40.44 44.3897 38.48C45.0797 37.01 47.0097 36.7 48.1397 37.86C50.1597 39.94 53.5397 42.53 63.5297 45.62C81.5397 52.68 75.1797 68.11 74.0897 69.14C74.0897 69.14 83.2797 60.38 78.1197 50.15C78.1197 50.15 77.9497 48.46 79.8397 48.98V41.3Z" class="current-color" fill="#5C2E2F" stroke="#5C2E2F" stroke-width="0.25" stroke-miterlimit="10"/>
<path d="M41.2996 28.1299V49.0999C41.2496 49.1699 41.2196 49.2599 41.1696 49.3299C40.3396 50.6299 39.1896 51.7899 37.7196 53.0499L37.5896 47.1899C37.5896 47.1899 36.5496 31.9399 41.2996 28.1299Z" class="current-color-dark" fill="#472123"/>
</svg>
