<svg width="110" height="110" viewBox="0 0 110 110" fill="none" xmlns="http://www.w3.org/2000/svg">
<path d="M51.8298 74.6699C51.8298 74.6699 48.0598 65.2499 47.9098 64.7999C47.7598 64.3599 39.6098 55.8999 39.6098 55.8999L39.3498 56.1599C38.1598 57.3599 36.3198 57.4799 34.8398 56.6399C33.7398 56.0099 32.3898 55.7399 30.9698 56.0099C28.7898 56.4199 27.0298 58.1499 26.5998 60.2799C26.2498 61.9899 26.7298 63.5799 27.6998 64.7699C28.1298 65.2999 28.2898 65.9799 28.0698 66.6199L27.9498 66.9599C27.6498 67.8399 26.7498 68.3599 25.8098 68.2499C25.5398 68.2199 25.2598 68.1999 24.9798 68.2099C21.9798 68.2899 19.4798 70.8599 19.5498 73.8099C19.6098 76.7799 22.0898 79.1799 25.1298 79.1799H25.1498C26.4198 79.1799 27.5798 79.8999 28.1298 81.0299L28.2398 81.2699C28.6698 82.1699 28.5998 83.1999 28.1098 84.0599C27.5198 85.0899 27.2598 86.3199 27.4698 87.6199C27.8298 89.9199 29.7398 91.7999 32.0798 92.1599C32.9098 92.2899 33.7098 92.2399 34.4598 92.0399C36.7298 91.4299 39.1398 91.3999 41.2498 92.4199C41.6598 92.6199 42.0698 92.7799 42.4898 92.9099C46.5498 94.1599 54.9998 88.0799 54.9998 88.0799L51.8298 74.6699Z" class="current-color" fill="#5C2E2F"/>
<path d="M58.17 74.6699C58.17 74.6699 61.94 65.2499 62.09 64.7999C62.24 64.3599 70.39 55.8999 70.39 55.8999L70.65 56.1599C71.84 57.3599 73.68 57.4799 75.16 56.6399C76.26 56.0099 77.61 55.7399 79.03 56.0099C81.21 56.4199 82.97 58.1499 83.4 60.2799C83.75 61.9899 83.27 63.5799 82.3 64.7699C81.87 65.2999 81.71 65.9799 81.93 66.6199L82.05 66.9599C82.35 67.8399 83.25 68.3599 84.19 68.2499C84.46 68.2199 84.74 68.1999 85.02 68.2099C88.02 68.2899 90.52 70.8599 90.45 73.8099C90.39 76.7799 87.91 79.1799 84.87 79.1799H84.85C83.58 79.1799 82.42 79.8999 81.87 81.0299L81.76 81.2699C81.33 82.1699 81.4 83.1999 81.89 84.0599C82.48 85.0899 82.74 86.3199 82.53 87.6199C82.17 89.9199 80.26 91.7999 77.92 92.1599C77.09 92.2899 76.29 92.2399 75.54 92.0399C73.27 91.4299 70.86 91.3999 68.75 92.4199C68.34 92.6199 67.93 92.7799 67.51 92.9099C63.45 94.1599 55 88.0799 55 88.0799L58.17 74.6699Z" class="current-color" fill="#5C2E2F"/>
<path d="M35.0796 59.3801C39.2438 59.3801 42.6195 56.0043 42.6195 51.84C42.6195 47.6758 39.2438 44.3 35.0796 44.3C30.9153 44.3 27.5396 47.6758 27.5396 51.84C27.5396 56.0043 30.9153 59.3801 35.0796 59.3801Z" fill="#AD7153"/>
<path d="M33.5097 47.98C31.4197 48.08 29.7397 49.8 29.7397 51.92H33.5097V47.98Z" fill="#975C45"/>
<path d="M74.9194 59.3801C79.0836 59.3801 82.4594 56.0043 82.4594 51.84C82.4594 47.6758 79.0836 44.3 74.9194 44.3C70.7552 44.3 67.3794 47.6758 67.3794 51.84C67.3794 56.0043 70.7552 59.3801 74.9194 59.3801Z" fill="#AD7153"/>
<path d="M80.7393 51.8301C80.6393 49.7401 78.9193 48.0601 76.7993 48.0601V51.8301H80.7393Z" fill="#975C45"/>
<path d="M54.6594 83.4699C43.6194 83.4699 34.6694 74.5199 34.6694 63.4799V40.1799C34.6694 29.1399 43.6194 20.1899 54.6594 20.1899C65.6994 20.1899 74.6494 29.1399 74.6494 40.1799V63.4799C74.6494 74.5199 65.6994 83.4699 54.6594 83.4699Z" fill="#F6C09C"/>
<path d="M38.3694 63.4799V28.6199C36.0494 31.8899 34.6694 35.8699 34.6694 40.1799V63.4799C34.6694 74.5199 43.6194 83.4699 54.6594 83.4699C55.2894 83.4699 55.8994 83.4299 56.5094 83.3799C46.3394 82.4499 38.3694 73.8999 38.3694 63.4799Z" fill="#AD7153"/>
<path d="M54.6396 20.4499C58.8296 15.1999 65.9296 16.9899 70.6796 21.8399C77.4096 28.7299 76.6196 38.4199 76.6196 41.2399C76.6196 45.1799 68.8296 38.2499 68.8296 38.2499C65.2796 38.5499 61.1996 37.0199 58.0096 33.8299C52.9796 28.7899 51.1896 24.7699 54.6396 20.4499Z" class="current-color" fill="#5C2E2F"/>
<path d="M76.6299 40.56C76.6699 37.39 77.1699 28.15 70.6799 21.5C66.5999 17.32 60.7799 15.42 56.5599 18.31C55.3999 19.1 53.9199 19.1 52.7599 18.31C48.5499 15.42 42.7199 17.33 38.6399 21.5C31.9099 28.39 32.6999 38.08 32.6999 40.9C32.6999 40.96 32.7099 41.01 32.7099 41.07C32.7099 41.22 32.6999 41.37 32.6999 41.53C32.6999 41.97 32.7199 42.41 32.7499 42.85C32.7199 43.09 32.6999 43.32 32.6999 43.54V44.82C33.2599 44.63 33.8499 44.5 34.4599 44.44L34.4999 47.36C37.3599 46.15 38.1399 42.14 38.1399 42.14C38.1399 42.14 52.2599 41.83 54.6799 31.04C54.6799 31.04 55.8899 40.58 70.7499 42.14C70.7499 42.14 70.4299 46.46 74.9299 47.36V44.41H74.9699C75.5499 44.41 76.1099 44.47 76.6499 44.6V43.53C76.6499 43.31 76.6299 43.08 76.6099 42.84C76.6299 42.4 76.6499 41.96 76.6499 41.52C76.6499 41.2 76.6399 40.88 76.6299 40.56Z" class="current-color" fill="#5C2E2F"/>
</svg>
