<svg width="67" height="73" viewBox="0 0 67 73" fill="none" xmlns="http://www.w3.org/2000/svg">
<g id="hair-12" clip-path="url(#clip0_215_294)">
<g id="Group">
<g id="Group_2">
<path id="Vector" d="M26.4801 41.2254C26.4801 33.9154 20.5501 27.9854 13.2401 27.9854C6.99012 27.9854 1.76012 32.3254 0.370117 38.1554H17.3201V53.8054C22.6301 52.0954 26.4801 47.1054 26.4801 41.2254Z" fill="#5C2E2F" stroke="#5C2E2F" stroke-width="0.25" stroke-miterlimit="10"/>
<path id="Vector_2" d="M0.37 38.1653C0.14 39.1453 0 40.1653 0 41.2253C0 48.5353 5.93 54.4653 13.24 54.4653C14.67 54.4653 16.04 54.2353 17.33 53.8153V38.1653H0.37Z" fill="#472123"/>
</g>
<g id="face">
<g id="Group_3">
<g id="Group_4">
<path id="Vector_3" d="M14.8201 46.2752C19.3489 46.2752 23.0201 42.604 23.0201 38.0752C23.0201 33.5465 19.3489 29.8752 14.8201 29.8752C10.2914 29.8752 6.62012 33.5465 6.62012 38.0752C6.62012 42.604 10.2914 46.2752 14.8201 46.2752Z" fill="#AD7153"/>
<g id="Group_5">
<g id="Group_6">
<path id="Vector_4" d="M13.1103 33.8752C10.8303 33.9852 9.01025 35.8552 9.01025 38.1652H13.1103V33.8752Z" fill="#975C45"/>
</g>
</g>
</g>
<g id="Group_7">
<path id="Vector_5" d="M58.1702 46.2752C62.6989 46.2752 66.3702 42.604 66.3702 38.0752C66.3702 33.5465 62.6989 29.8752 58.1702 29.8752C53.6415 29.8752 49.9702 33.5465 49.9702 38.0752C49.9702 42.604 53.6415 46.2752 58.1702 46.2752Z" fill="#AD7153"/>
<g id="Group_8">
<path id="Vector_6" d="M64.5102 38.0653C64.4002 35.7853 62.5302 33.9653 60.2202 33.9653V38.0653H64.5102Z" fill="#975C45"/>
</g>
</g>
</g>
<g id="Group_9">
<path id="Vector_7" d="M57.8801 25.3953V50.7453C57.8801 62.7553 48.1401 72.4953 36.1301 72.4953C24.1101 72.4953 14.3701 62.7553 14.3701 50.7453V25.3953C14.3701 25.0053 14.3801 24.6253 14.4001 24.2453C14.6201 20.0653 16.0201 16.2053 18.2701 12.9753C22.1901 7.32525 28.7301 3.63525 36.1301 3.63525C42.1301 3.63525 47.5701 6.07525 51.5101 10.0053C55.2001 13.6953 57.5601 18.6953 57.8501 24.2453C57.8701 24.6353 57.8801 25.0153 57.8801 25.3953Z" fill="#F6C09C"/>
<path id="Vector_8" d="M18.4001 50.7452V12.8052C15.8701 16.3552 14.3701 20.6952 14.3701 25.3952V50.7452C14.3701 62.7552 24.1101 72.4952 36.1201 72.4952C36.8001 72.4952 37.4701 72.4552 38.1401 72.3952C27.0801 71.3852 18.4001 62.0852 18.4001 50.7452Z" fill="#AD7153"/>
</g>
</g>
<g id="Group_10">
<path id="Vector_9" d="M60.2201 21.8952C60.2201 10.4152 50.9201 1.11523 39.4401 1.11523H33.3101C27.3901 1.11523 22.0501 3.59523 18.2701 7.56523C14.7101 11.2852 14.3701 16.3352 14.3701 21.8952V26.9652L18.2701 26.7352V30.2252C18.9201 29.1252 19.5701 28.0252 19.5701 26.6552C19.5801 23.8752 20.6401 20.9452 21.6401 18.8052C22.3901 17.2052 24.4901 16.8652 25.7201 18.1352C27.9101 20.3952 31.6001 23.2152 42.4701 26.5852C62.0701 34.2652 55.1501 51.0552 53.9601 52.1852C53.9601 52.1852 63.9601 42.6552 58.3501 31.5152C58.3501 31.5152 58.1701 29.6752 60.2201 30.2452V21.8952Z" fill="#5C2E2F" stroke="#5C2E2F" stroke-width="0.25" stroke-miterlimit="10"/>
<path id="Vector_10" d="M18.27 7.5752V30.3952C18.22 30.4752 18.18 30.5652 18.13 30.6452C17.23 32.0652 15.97 33.3252 14.37 34.6952L14.23 28.3152C14.24 28.3152 13.11 11.7152 18.27 7.5752Z" fill="#472123"/>
</g>
</g>
</g>
<defs>
<clipPath id="clip0_215_294">
<rect width="66.37" height="71.51" fill="white" transform="translate(0 0.995117)"/>
</clipPath>
</defs>
</svg>
