<svg width="110" height="110" viewBox="0 0 110 110" fill="none" xmlns="http://www.w3.org/2000/svg">
<path d="M35.08 55.8901C39.2443 55.8901 42.62 52.5143 42.62 48.3501C42.62 44.1858 39.2443 40.8101 35.08 40.8101C30.9158 40.8101 27.54 44.1858 27.54 48.3501C27.54 52.5143 30.9158 55.8901 35.08 55.8901Z" fill="#AD7153"/>
<path d="M33.5102 44.49C31.4202 44.59 29.7402 46.31 29.7402 48.43H33.5102V44.49Z" fill="#975C45"/>
<path d="M74.9199 55.8901C79.0841 55.8901 82.4599 52.5143 82.4599 48.3501C82.4599 44.1858 79.0841 40.8101 74.9199 40.8101C70.7557 40.8101 67.3799 44.1858 67.3799 48.3501C67.3799 52.5143 70.7557 55.8901 74.9199 55.8901Z" fill="#AD7153"/>
<path d="M80.7398 48.3401C80.6398 46.2501 78.9198 44.5701 76.7998 44.5701V48.3401H80.7398Z" fill="#975C45"/>
<path d="M54.6599 79.98C43.6199 79.98 34.6699 71.03 34.6699 59.99V36.7C34.6699 25.66 43.6199 16.71 54.6599 16.71C65.6999 16.71 74.6499 25.66 74.6499 36.7V60C74.6499 71.04 65.6999 79.98 54.6599 79.98Z" fill="#F6C09C"/>
<path d="M54.6599 79.98C43.6199 79.98 34.6699 71.03 34.6699 59.99V36.7C34.6699 25.66 43.6199 16.71 54.6599 16.71C65.6999 16.71 74.6499 25.66 74.6499 36.7V60C74.6499 71.04 65.6999 79.98 54.6599 79.98Z" fill="#F6C09C"/>
<path d="M37.3899 67.06L37.2599 68.3C37.0499 68.4 36.8399 68.53 36.6599 68.7C36.5599 68.5 36.4699 68.3 36.3799 68.08C36.6299 67.66 36.7899 67.16 36.8499 66.62C36.8599 66.58 36.8499 66.55 36.8599 66.51C37.0199 66.74 37.1899 66.91 37.3899 67.06Z" fill="#F6C09C"/>
<path d="M46.2397 77.5898C46.1697 77.7298 46.0897 77.8798 46.0497 78.0398C46.0097 78.0198 45.9697 77.9999 45.9297 77.9799C46.0497 77.8699 46.1497 77.7298 46.2397 77.5898Z" fill="#F6C09C"/>
<path d="M38.3699 59.9899V25.1299C36.0499 28.3999 34.6699 32.3799 34.6699 36.6899V59.9899C34.6699 71.0299 43.6199 79.9799 54.6599 79.9799C55.2899 79.9799 55.8999 79.9399 56.5099 79.8899C46.3399 78.9599 38.3699 70.4099 38.3699 59.9899Z" fill="#AD7153"/>
<path d="M46.0502 78.0399C45.9502 78.2999 45.8902 78.5699 45.8802 78.8699C45.8202 79.8399 46.2402 80.6999 46.8702 81.1399L46.8102 82.3899C46.5002 82.5599 46.2202 82.8199 46.0202 83.1499C46.2202 82.7799 46.3602 82.3499 46.3902 81.8699C46.4402 80.9099 46.0202 80.0499 45.4002 79.5999L45.4602 78.3599C45.6302 78.2599 45.8002 78.1399 45.9402 77.9799C43.7102 76.8999 41.7002 75.4099 40.0402 73.6099C39.6002 74.1099 39.3002 74.7699 39.2302 75.5299C39.0602 75.1399 38.8002 74.8399 38.4902 74.6199L38.6202 73.3799C38.9002 73.2499 39.1402 73.0699 39.3602 72.8299C38.2902 71.5699 37.3902 70.1899 36.6802 68.6999C36.1902 69.1499 35.8402 69.8199 35.7702 70.6099C35.7302 70.9199 35.7602 71.2299 35.8102 71.5099C35.5902 71.1099 35.3002 70.7699 34.9402 70.5399L35.0702 69.2799C35.6002 69.0799 36.0802 68.6599 36.4102 68.0899C35.3002 65.6199 34.6902 62.8799 34.6902 59.9899V55.8899C34.5902 56.0199 34.5202 56.1799 34.5002 56.3599L34.4802 56.5899C33.5302 56.9499 32.7902 57.9699 32.6602 59.2499C32.5302 60.5299 33.0602 61.6799 33.9202 62.2199L33.7902 63.4799C32.8502 63.8399 32.1102 64.8699 31.9802 66.1399C31.8502 67.4099 32.3802 68.5699 33.2402 69.0999L33.1102 70.3699C32.1602 70.7299 31.4202 71.7499 31.2902 73.0299C31.1702 74.3099 31.6902 75.4599 32.5502 75.9999L32.4302 77.2599C31.4802 77.6199 30.7402 78.6499 30.6102 79.9199C30.4802 81.1899 31.0102 82.3499 31.8702 82.8799L31.7402 84.1499C30.7902 84.5099 30.0502 85.5299 29.9302 86.8099C29.8002 88.0899 30.3302 89.2399 31.1802 89.7799L31.1302 90.3099C31.0702 90.8199 31.4402 91.2699 31.9502 91.3099C31.9902 91.3199 32.0102 91.3199 32.0402 91.3199C32.5102 91.3199 32.9102 90.9599 32.9602 90.4899L33.0102 89.9499C33.3402 89.8299 33.6502 89.6199 33.9202 89.3499C33.9102 90.3099 34.3202 91.1499 34.9502 91.5999L34.8902 92.1299C34.8302 92.6399 35.2002 93.0899 35.7102 93.1399H35.8002C36.2702 93.1399 36.6702 92.7899 36.7202 92.3099L36.7802 91.7799C37.2802 91.5599 37.7002 91.1299 37.9702 90.5699C38.1502 91.3099 38.5802 91.9199 39.1402 92.2699L39.0802 92.8099C39.0202 93.3099 39.3902 93.7599 39.9002 93.8099H39.9902C40.4602 93.8099 40.8602 93.4599 40.9102 92.9799L40.9702 92.4499C41.9102 92.0899 42.6502 91.0599 42.7802 89.7899C42.8002 89.6399 42.7902 89.5099 42.7902 89.3799C42.8802 89.4699 42.9702 89.5499 43.0702 89.6199L43.0402 90.1599C43.0102 90.6699 43.4002 91.0999 43.9102 91.1199H43.9602C44.4502 91.1199 44.8502 90.7299 44.8702 90.2499L44.9002 89.7099C45.5802 89.3199 46.0702 88.5199 46.1202 87.5499C46.1702 86.5799 45.7502 85.7199 45.1302 85.2799L45.1902 84.0299C45.5002 83.8599 45.7802 83.5999 45.9802 83.2699C45.7802 83.6399 45.6402 84.0699 45.6202 84.5499C45.5602 85.5099 45.9802 86.3699 46.6102 86.8199L46.5802 87.3599C46.5502 87.8499 46.9202 88.2699 47.4102 88.3199V78.9999H48.4702C47.6202 78.7299 46.8202 78.4099 46.0502 78.0399ZM35.4202 86.6999C35.2002 86.7899 35.0002 86.9299 34.8102 87.0999C34.8702 85.8999 34.3702 84.8199 33.5502 84.3099L33.6802 83.0499C34.0202 82.9199 34.3302 82.6999 34.6102 82.4199C34.5702 82.5699 34.5402 82.7199 34.5202 82.8799C34.4102 83.9699 34.8402 84.9599 35.5502 85.4599L35.4202 86.6999ZM36.6502 74.4399C35.8602 74.7899 35.2402 75.6699 35.1302 76.7599C35.0302 77.8399 35.4502 78.8299 36.1602 79.3299L36.0302 80.5699C35.7902 80.6799 35.5702 80.8299 35.3802 81.0199C35.4402 80.8199 35.4702 80.6199 35.5002 80.3999C35.6202 79.1199 35.1002 77.9699 34.2402 77.4299L34.3602 76.1599C35.3102 75.7999 36.0502 74.7799 36.1802 73.4999C36.2202 73.1299 36.1902 72.7699 36.1202 72.4399C36.2902 72.7399 36.5102 72.9899 36.7702 73.1799L36.6502 74.4399ZM39.6702 86.6399C39.0202 86.8899 38.4702 87.4599 38.1402 88.1999C37.9702 87.6499 37.6502 87.1799 37.2402 86.8899L37.3702 85.6499C37.9902 85.3699 38.4902 84.7699 38.7402 83.9999C38.9502 84.5999 39.3202 85.0799 39.8002 85.3899L39.6702 86.6399ZM40.3602 79.7599C39.5802 80.0499 38.9402 80.8099 38.6602 81.7799C38.4902 81.3499 38.2002 80.9999 37.8602 80.7499L37.9902 79.5099C38.7502 79.1699 39.3502 78.3199 39.4902 77.2899C39.7102 77.7999 40.0602 78.2299 40.4802 78.4899L40.3602 79.7599ZM43.2702 85.1899C42.6002 85.5699 42.1102 86.3699 42.0602 87.3299C41.8902 87.1299 41.7102 86.9499 41.5002 86.8199L41.6302 85.5599C42.3302 85.2899 42.9002 84.6599 43.2102 83.8399C43.2602 83.8799 43.2902 83.8999 43.3402 83.9299L43.2702 85.1899ZM43.5602 79.5099C43.2202 79.6999 42.9302 80.0099 42.7102 80.3899C42.5502 80.2199 42.3902 80.0599 42.2002 79.9399L42.3202 78.6699C42.6902 78.5299 43.0202 78.2799 43.3002 77.9699C43.4002 78.0799 43.5102 78.1799 43.6302 78.2599L43.5602 79.5099Z" class="current-color" fill="#5C2E2F"/>
<path d="M64.8404 77.39C64.9604 77.32 65.0704 77.22 65.1804 77.11C65.4504 77.44 65.7704 77.7 66.1304 77.86L66.1904 79.13C66.0004 79.24 65.8104 79.39 65.6504 79.56C65.4604 79.16 65.1804 78.84 64.8504 78.63V77.39H64.8404ZM65.9404 86.52C65.9304 85.56 65.4804 84.73 64.8404 84.31V83.07C64.8804 83.04 64.9204 83.01 64.9704 82.98C65.2404 83.82 65.7804 84.47 66.4604 84.77L66.5204 86.04C66.3104 86.16 66.1204 86.33 65.9404 86.52ZM67.9504 77.77C68.3904 77.52 68.7604 77.12 69.0104 76.61C69.0904 77.66 69.6504 78.53 70.4004 78.91L70.4604 80.16C70.1004 80.38 69.8104 80.72 69.6104 81.14C69.3904 80.16 68.7804 79.37 68.0204 79.04L67.9504 77.77ZM69.8104 87.59C69.5304 86.83 69.0004 86.24 68.3604 85.95L68.3004 84.68C68.7904 84.4 69.1804 83.94 69.4304 83.35C69.6304 84.14 70.1104 84.77 70.7204 85.07L70.7804 86.32C70.3404 86.59 70.0004 87.04 69.8104 87.59ZM72.2404 78.82C72.9704 78.35 73.4404 77.4 73.3904 76.3C73.3304 75.21 72.7704 74.3 71.9904 73.91L71.9304 72.66C72.2104 72.49 72.4404 72.25 72.6204 71.95C72.5404 72.28 72.4904 72.64 72.5104 73.01C72.5704 74.29 73.2704 75.34 74.1904 75.76L74.2504 77.03C73.3704 77.53 72.7804 78.65 72.8404 79.92C72.8504 80.13 72.8804 80.34 72.9204 80.54C72.7404 80.34 72.5204 80.17 72.3004 80.06L72.2404 78.82ZM73.1904 86.66C73.0204 86.48 72.8104 86.33 72.6004 86.23L72.5404 84.98C73.2804 84.51 73.7504 83.56 73.7004 82.46C73.6904 82.29 73.6604 82.15 73.6404 81.99C73.9004 82.29 74.2004 82.52 74.5304 82.67L74.5904 83.94C73.7404 84.41 73.1804 85.45 73.1904 86.66ZM78.1004 86.59C78.0404 85.31 77.3504 84.26 76.4304 83.84L76.3704 82.57C77.2504 82.07 77.8304 80.95 77.7804 79.68C77.7204 78.4 77.0304 77.34 76.1004 76.93L76.0404 75.66C76.9204 75.16 77.5104 74.04 77.4504 72.77C77.3904 71.48 76.7004 70.43 75.7704 70.02L75.7104 68.75C76.5904 68.25 77.1804 67.13 77.1204 65.85C77.0604 64.57 76.3704 63.52 75.4404 63.1L75.3804 61.83C76.2604 61.33 76.8504 60.21 76.7904 58.94C76.7304 57.66 76.0404 56.6 75.1104 56.19L75.1004 55.97C75.0904 55.68 74.9304 55.42 74.7004 55.26V59.98C74.7004 62.88 74.0804 65.63 72.9704 68.12C73.2304 68.43 73.5504 68.67 73.8904 68.83L73.9504 70.1C73.5804 70.31 73.2704 70.63 73.0304 71.03C73.0904 70.75 73.1304 70.45 73.1104 70.14C73.0804 69.61 72.9404 69.12 72.7004 68.72C71.9904 70.16 71.1204 71.51 70.1004 72.74C70.1104 72.75 70.1204 72.75 70.1304 72.76L70.1504 74C69.8304 74.2 69.5604 74.51 69.3604 74.87C69.3404 74.47 69.2604 74.11 69.1404 73.77C67.4004 75.6 65.3304 77.1 63.0004 78.16V78.64C62.3504 79.05 61.9004 79.89 61.9004 80.85C61.9004 81.82 62.3504 82.65 63.0004 83.07V84.31C62.8404 84.41 62.7104 84.53 62.5804 84.67C62.6404 84.39 62.6804 84.09 62.6704 83.79C62.6104 82.82 62.1304 82.01 61.4604 81.62L61.4004 80.38C61.9504 79.98 62.3404 79.28 62.3804 78.44C61.8904 78.64 61.3904 78.83 60.8804 78.99H61.2604V87.43C61.5404 87.27 61.7304 86.95 61.7104 86.6L61.6804 86.06C61.8004 85.98 61.9004 85.88 62.0004 85.77C61.9404 86.02 61.9004 86.27 61.9004 86.54C61.9004 87.5 62.3504 88.34 63.0004 88.75V89.29C63.0004 89.8 63.4004 90.21 63.9204 90.21C64.4304 90.21 64.8404 89.8 64.8404 89.29V88.75C64.9404 88.69 65.0404 88.61 65.1304 88.52C65.1204 88.66 65.1104 88.8 65.1104 88.93C65.1704 90.22 65.8604 91.27 66.7904 91.68L66.8204 92.22C66.8504 92.71 67.2504 93.09 67.7404 93.09H67.7904C68.3004 93.06 68.6804 92.63 68.6604 92.13L68.6304 91.59C69.2104 91.27 69.6504 90.68 69.8804 89.95C70.1304 90.52 70.5204 90.97 71.0104 91.22L71.0404 91.76C71.0704 92.25 71.4704 92.62 71.9604 92.62H72.0104C72.5204 92.6 72.9104 92.17 72.8804 91.66L72.8504 91.13C73.5004 90.71 73.9404 89.89 73.9904 88.93C74.2404 89.21 74.5304 89.44 74.8604 89.57L74.8904 90.11C74.9104 90.6 75.3104 90.98 75.8004 90.98H75.8504C76.3604 90.95 76.7504 90.52 76.7204 90.02L76.7004 89.5C77.5704 89 78.1604 87.87 78.1004 86.59Z" class="current-color" fill="#5C2E2F"/>
<path d="M74.7003 31.8399C74.8003 31.7799 74.9103 31.6999 75.0103 31.5899C75.7303 30.8699 74.8003 28.0899 72.6903 25.0899C70.8703 22.5099 68.8503 20.7099 67.7903 20.6299C66.9903 18.7599 64.0203 17.3799 60.4703 17.3799C60.3203 17.3799 60.1903 17.3899 60.0603 17.3899C58.9203 16.6599 56.9903 16.1899 54.7903 16.1899C52.5903 16.1899 50.6503 16.6699 49.5103 17.3999C49.3403 17.3899 49.1603 17.3799 48.9803 17.3799C45.3503 17.3799 42.3203 18.8299 41.6003 20.7599C40.4403 20.8399 38.4003 22.5799 36.6203 25.1199C34.5003 28.1199 33.6703 30.9399 34.4803 31.7499C34.5103 31.7799 34.5403 31.7999 34.5803 31.8299C33.4903 33.0099 32.8003 34.6499 32.8003 36.4799C32.8003 38.1899 33.4003 39.7499 34.3703 40.9099C34.3803 43.2999 34.5203 44.9699 34.5203 44.9699L34.6003 44.9199C37.0303 43.2899 38.4803 40.5699 38.4803 37.6399V33.9999C38.9403 34.2199 39.5203 34.4499 40.1703 34.6399C40.2603 34.6699 40.3403 34.6799 40.4303 34.6799C40.8303 34.6799 41.1903 34.4199 41.3103 34.0199C41.4503 33.5299 41.1703 33.0199 40.6803 32.8799C39.6403 32.5799 38.8503 32.1399 38.4803 31.9199V31.1199C38.5003 30.9799 38.5303 30.8499 38.5703 30.7099C39.3103 31.1599 40.4003 31.7199 41.7103 32.0699C41.7903 32.0899 41.8703 32.0999 41.9503 32.0999C42.3503 32.0999 42.7303 31.8299 42.8403 31.4199C42.9703 30.9299 42.6803 30.4299 42.1903 30.2899C40.9403 29.9499 39.8903 29.3699 39.2803 28.9799C39.5403 28.5799 39.8803 28.2299 40.3003 27.9599C40.3103 27.9499 40.3103 27.9499 40.3203 27.9499C42.9803 29.7699 48.1203 31.0299 54.1003 31.1299V22.1699C54.1003 21.7899 54.3703 21.4799 54.7903 21.4799C55.1703 21.4799 55.4803 21.7899 55.4803 22.1699V31.1399C61.3703 31.0699 66.4703 29.8699 69.2403 28.1199C69.5503 28.3499 69.7803 28.6399 70.0003 28.9399C69.4303 29.3199 68.3003 29.9899 66.9103 30.3599C66.4203 30.4899 66.1303 30.9999 66.2603 31.4899C66.3703 31.8999 66.7403 32.1699 67.1503 32.1699C67.2303 32.1699 67.3103 32.1599 67.3903 32.1399C68.8303 31.7499 70.0103 31.1099 70.7503 30.6499C70.7703 30.7399 70.8103 30.8399 70.8303 30.9299V31.8699C70.7103 31.9499 69.7703 32.5699 68.4303 32.9599C67.9403 33.0999 67.6603 33.6099 67.8003 34.0999C67.9203 34.4999 68.2803 34.7599 68.6803 34.7599C68.7703 34.7599 68.8503 34.7499 68.9403 34.7199C69.6903 34.4999 70.3303 34.2199 70.8303 33.9799V36.9799C70.8303 40.0199 72.3503 42.8599 74.8903 44.5399L74.9403 44.5699C74.9403 44.5699 75.0703 43.0399 75.0703 40.7999C75.9803 39.6499 76.5303 38.1499 76.5303 36.4999C76.4903 34.6699 75.8003 33.0299 74.7003 31.8399Z" class="current-color" fill="#5C2E2F"/>
</svg>
