<svg width="110" height="110" viewBox="0 0 110 110" fill="none" xmlns="http://www.w3.org/2000/svg">
<path d="M35.08 62.5401C39.2443 62.5401 42.62 59.1643 42.62 55.0001C42.62 50.8359 39.2443 47.4601 35.08 47.4601C30.9158 47.4601 27.54 50.8359 27.54 55.0001C27.54 59.1643 30.9158 62.5401 35.08 62.5401Z" fill="#AD7153"/>
<path d="M33.5102 51.1401C31.4202 51.2401 29.7402 52.9601 29.7402 55.0801H33.5102V51.1401Z" fill="#975C45"/>
<path d="M74.9199 62.5401C79.0841 62.5401 82.4599 59.1643 82.4599 55.0001C82.4599 50.8359 79.0841 47.4601 74.9199 47.4601C70.7557 47.4601 67.3799 50.8359 67.3799 55.0001C67.3799 59.1643 70.7557 62.5401 74.9199 62.5401Z" fill="#AD7153"/>
<path d="M80.7398 54.9901C80.6398 52.9001 78.9198 51.2201 76.7998 51.2201V54.9901H80.7398Z" fill="#975C45"/>
<path d="M74.6499 43.3501V66.6401C74.6499 68.2001 74.5699 69.6501 74.4199 71.0001C74.4199 71.0101 74.4199 71.0201 74.4099 71.0401C72.9399 83.9501 64.6499 86.6401 54.6599 86.6401C43.6199 86.6401 34.6699 77.6901 34.6699 66.6501V43.3501C34.6699 42.7601 34.6999 42.1701 34.7499 41.6001C34.7599 41.3901 34.7899 41.1801 34.8099 40.9601C34.8899 40.2101 35.0299 39.4601 35.2099 38.7401C35.2199 38.6901 35.2299 38.6601 35.2399 38.6201C35.2999 38.3801 35.3599 38.1401 35.4299 37.9101C35.4899 37.6601 35.5699 37.4101 35.6499 37.1701C35.7999 36.6801 35.9799 36.2101 36.1699 35.7401C36.2699 35.5101 36.3699 35.2801 36.4699 35.0501C36.5799 34.8201 36.6899 34.5901 36.7999 34.3701C37.5499 32.8701 38.4899 31.4801 39.5799 30.2301C43.2399 26.0201 48.6299 23.3701 54.6499 23.3701C60.1599 23.3701 65.1599 25.6001 68.7799 29.2201C72.3999 32.8401 74.6499 37.8401 74.6499 43.3501Z" fill="#F6C09C"/>
<path d="M56.5099 86.5402C55.8999 86.6002 55.2899 86.6302 54.6599 86.6302C43.6199 86.6302 34.6699 77.6802 34.6699 66.6402V43.3502C34.6699 42.7602 34.6999 42.1702 34.7499 41.6002C34.7599 41.3902 34.7899 41.1802 34.8099 40.9602C34.8999 40.2102 35.0299 39.4602 35.2099 38.7402C35.2199 38.6902 35.2299 38.6602 35.2399 38.6202C35.2999 38.3802 35.3599 38.1402 35.4299 37.9102C35.4899 37.6602 35.5699 37.4102 35.6499 37.1702C35.8099 36.6802 35.9799 36.2102 36.1699 35.7402C36.2699 35.5102 36.3699 35.2802 36.4699 35.0502C36.5799 34.8202 36.6899 34.5902 36.7999 34.3702C37.2599 33.4702 37.7799 32.6102 38.3599 31.7902V66.6402C38.3599 67.6702 38.4399 68.6902 38.5899 69.6702C39.9699 78.6802 47.3499 85.7002 56.5099 86.5402Z" fill="#AD7153"/>
<path d="M39.6002 30.2301V37.6801C39.6002 41.7601 37.8302 45.6501 34.7502 48.3301L34.6802 48.1001V43.3501C34.6802 42.7601 34.7102 42.1701 34.7602 41.6001C34.7702 41.3901 34.8002 41.1801 34.8202 40.9601C34.9002 40.2101 35.0402 39.4601 35.2202 38.7401C35.2302 38.6901 35.2402 38.6601 35.2502 38.6201C35.3102 38.3801 35.3702 38.1401 35.4402 37.9101C35.5002 37.6601 35.5802 37.4101 35.6602 37.1701C35.8102 36.6801 35.9902 36.2101 36.1802 35.7401C36.2802 35.5101 36.3802 35.2801 36.4802 35.0501C36.5902 34.8201 36.7002 34.5901 36.8102 34.3701C37.5702 32.8701 38.5102 31.4801 39.6002 30.2301Z" class="current-color" fill="#5C2E2F"/>
<path d="M69.73 30.2301V37.6801C69.73 41.7601 71.5 45.6501 74.58 48.3301L74.65 48.1001V43.3501C74.65 42.7601 74.62 42.1701 74.57 41.6001C74.56 41.3901 74.53 41.1801 74.51 40.9601C74.43 40.2101 74.29 39.4601 74.11 38.7401C74.1 38.6901 74.09 38.6601 74.08 38.6201C74.02 38.3801 73.96 38.1401 73.89 37.9101C73.83 37.6601 73.75 37.4101 73.67 37.1701C73.52 36.6801 73.34 36.2101 73.15 35.7401C73.05 35.5101 72.95 35.2801 72.85 35.0501C72.74 34.8201 72.63 34.5901 72.52 34.3701C71.76 32.8701 70.82 31.4801 69.73 30.2301Z" class="current-color" fill="#5C2E2F"/>
</svg>
