<svg width="110" height="110" viewBox="0 0 110 110" fill="none" xmlns="http://www.w3.org/2000/svg">
<path d="M54.6599 30.5999C54.6599 24.0199 49.3299 18.6899 42.7499 18.6899C41.0099 18.6899 39.3499 19.0699 37.8599 19.7499V65.5299C41.7899 63.1399 44.7799 59.2199 45.8299 54.3899C46.5599 51.0499 46.9999 46.8799 46.8899 41.7699C51.4299 40.0699 54.6599 35.7199 54.6599 30.5999Z" class="current-color" fill="#5C2E2F"/>
<path d="M30.8398 30.6C30.8398 31.08 30.8398 56.99 30.8398 56.99C30.8398 56.99 31.0498 65.14 24.7798 67.65C24.7798 67.65 24.8298 67.66 24.9298 67.68C29.5298 68.71 34.1198 67.8 37.8698 65.52V19.74C33.7198 21.61 30.8398 25.76 30.8398 30.6Z" class="current-color-dark" fill="#472123"/>
<path d="M37.8598 67.2201C42.0241 67.2201 45.3998 63.8444 45.3998 59.6801C45.3998 55.5159 42.0241 52.1401 37.8598 52.1401C33.6956 52.1401 30.3198 55.5159 30.3198 59.6801C30.3198 63.8444 33.6956 67.2201 37.8598 67.2201Z" fill="#AD7153"/>
<path d="M36.2798 55.8201C34.1898 55.9201 32.5098 57.6401 32.5098 59.7601H36.2798V55.8201Z" fill="#975C45"/>
<path d="M77.6899 67.2201C81.8541 67.2201 85.2299 63.8444 85.2299 59.6801C85.2299 55.5159 81.8541 52.1401 77.6899 52.1401C73.5257 52.1401 70.1499 55.5159 70.1499 59.6801C70.1499 63.8444 73.5257 67.2201 77.6899 67.2201Z" fill="#AD7153"/>
<path d="M83.5098 59.6701C83.4098 57.5801 81.6898 55.9001 79.5698 55.9001V59.6701H83.5098Z" fill="#975C45"/>
<path d="M57.4299 91.31C46.3899 91.31 37.4399 82.36 37.4399 71.32V48.02C37.4399 36.98 46.3899 28.03 57.4299 28.03C68.4699 28.03 77.4199 36.98 77.4199 48.02V71.32C77.4199 82.36 68.4699 91.31 57.4299 91.31Z" fill="#F6C09C"/>
<path d="M41.1497 71.32V36.46C38.8297 39.73 37.4497 43.71 37.4497 48.02V71.32C37.4497 82.36 46.3997 91.31 57.4397 91.31C58.0697 91.31 58.6797 91.27 59.2897 91.22C49.1197 90.29 41.1497 81.74 41.1497 71.32Z" fill="#AD7153"/>
<path d="M79.5798 49.3999C79.5798 36.8499 69.7398 26.6799 57.6098 26.6799C50.9898 26.6799 45.0598 29.7099 41.0298 34.4999V52.6299C41.8698 51.2199 42.3398 49.6399 42.3398 47.5999C42.3398 45.3699 43.3898 43.2799 45.1598 41.9099C45.3598 41.7599 45.5598 41.6099 45.7698 41.4599C48.5098 44.0399 53.5598 47.7399 66.7198 47.4999C66.7198 47.4999 65.8298 46.4399 66.4998 44.4999C66.4998 44.4999 68.6998 46.4099 73.9998 46.7699C73.9998 46.7699 73.9598 50.3399 75.4398 52.7099C75.9898 53.6099 76.7698 54.4899 77.8698 55.2499V52.2999H77.9098C78.4898 52.2999 79.0498 52.3599 79.5898 52.4899V51.4199C79.5898 51.1999 79.5698 50.9699 79.5498 50.7299C79.5598 50.2799 79.5798 49.8399 79.5798 49.3999Z" class="current-color" fill="#5C2E2F" stroke="#5C2E2F" stroke-width="0.25" stroke-miterlimit="10"/>
<path d="M35.6299 49.4C35.6299 49.84 35.6499 50.28 35.6799 50.72C35.6499 50.96 35.6299 51.19 35.6299 51.41V52.69C36.1899 52.5 36.7799 52.37 37.3799 52.31L37.4199 56.59C38.8999 55.32 40.0699 54.16 40.8999 52.84C40.9499 52.77 40.9799 52.69 41.0199 52.61V34.49C37.6699 38.48 35.6299 43.69 35.6299 49.4Z" class="current-color-dark" fill="#472123"/>
</svg>
