<svg width="110" height="110" viewBox="0 0 110 110" fill="none" xmlns="http://www.w3.org/2000/svg">
<g clip-path="url(#clip0_403_236)">
<path d="M35.08 62.97C39.2443 62.97 42.62 59.5942 42.62 55.43C42.62 51.2658 39.2443 47.89 35.08 47.89C30.9158 47.89 27.54 51.2658 27.54 55.43C27.54 59.5942 30.9158 62.97 35.08 62.97Z" fill="#AD7153"/>
<path d="M33.5102 51.5701C31.4202 51.6701 29.7402 53.3901 29.7402 55.5101H33.5102V51.5701Z" fill="#975C45"/>
<path d="M74.9199 62.97C79.0841 62.97 82.4599 59.5942 82.4599 55.43C82.4599 51.2658 79.0841 47.89 74.9199 47.89C70.7557 47.89 67.3799 51.2658 67.3799 55.43C67.3799 59.5942 70.7557 62.97 74.9199 62.97Z" fill="#AD7153"/>
<path d="M80.7398 55.43C80.6398 53.34 78.9198 51.66 76.7998 51.66V55.43H80.7398Z" fill="#975C45"/>
<path d="M54.6599 87.07C43.6199 87.07 34.6699 78.12 34.6699 67.08V43.78C34.6699 32.74 43.6199 23.79 54.6599 23.79C65.6999 23.79 74.6499 32.74 74.6499 43.78V67.08C74.6499 79.42 65.6999 87.07 54.6599 87.07Z" fill="#F6C09C"/>
<path d="M38.3699 67.0801V32.2201C36.0499 35.4901 34.6699 39.4701 34.6699 43.7801V67.0801C34.6699 78.1201 43.6199 87.0701 54.6599 87.0701C55.2899 87.0701 55.8999 87.0301 56.5099 86.9801C46.3399 86.0401 38.3699 77.4901 38.3699 67.0801Z" fill="#AD7153"/>
<path d="M74.6399 42.7599C74.6399 42.2399 74.6099 41.7299 74.5699 41.2199C74.5699 41.1999 74.5699 41.1899 74.5699 41.1699C74.5699 41.1499 74.5699 41.1299 74.5599 41.1199C74.5499 40.9699 74.5299 40.8199 74.5099 40.6699C74.4999 40.6199 74.4999 40.5799 74.4999 40.5299C74.4899 40.4599 74.4799 40.3999 74.4699 40.3299C74.4399 40.0999 74.4099 39.8599 74.3699 39.6299C74.3399 39.4799 74.3199 39.3299 74.2899 39.1799C74.2399 38.9299 74.1899 38.6799 74.1299 38.4399C74.1199 38.3999 74.1099 38.3499 74.0999 38.3099C74.0899 38.2599 74.0799 38.2299 74.0699 38.1899C74.0599 38.1699 74.0599 38.1499 74.0499 38.1299C73.1699 34.5399 71.3099 31.3299 68.7799 28.7899C65.1599 25.1699 60.1599 22.9399 54.6499 22.9399C48.6299 22.9399 43.2399 25.5999 39.5799 29.7999C38.4899 31.0499 37.5499 32.4499 36.7999 33.9399C36.6899 34.1599 36.5799 34.3899 36.4699 34.6199L36.1699 35.3099C35.9799 35.7799 35.7899 36.2599 35.6499 36.7399C35.5699 36.9799 35.4899 37.2299 35.4299 37.4799C35.3599 37.7099 35.2999 37.9499 35.2399 38.1899C35.2299 38.2299 35.2199 38.2599 35.2099 38.3099C35.0399 39.0399 34.8999 39.7799 34.8099 40.5299C34.7799 40.7499 34.7499 40.9599 34.7499 41.1699C34.6899 41.7399 34.6699 42.3299 34.6699 42.9199V45.6599C34.6699 45.6399 34.6699 45.6099 34.6699 45.5899V47.6699L34.7399 47.8999C37.8199 45.2199 39.5899 41.3299 39.5899 37.2499V33.8499C39.5899 32.9599 39.9499 32.1099 40.5799 31.4799C44.1899 27.8899 49.1599 25.6699 54.6599 25.6699C60.1699 25.6699 65.1699 27.8999 68.7899 31.5199L68.7999 31.5299C69.3999 32.1399 69.7199 32.9699 69.7199 33.8199V37.2399C69.7199 41.3199 71.4899 45.2099 74.5699 47.8899L74.6399 47.6599V42.9099C74.6499 42.8599 74.6499 42.8099 74.6399 42.7599Z" class="current-color" fill="#5C2E2F"/>
</g>
<defs>
<clipPath id="clip0_403_236">
<rect width="110" height="110" fill="white"/>
</clipPath>
</defs>
</svg>
