<svg width="61" height="71" viewBox="0 0 61 71" fill="none" xmlns="http://www.w3.org/2000/svg">
<g id="hair-4" clip-path="url(#clip0_215_78)">
<g id="Group">
<g id="face">
<g id="Group_2">
<g id="Group_3">
<g id="Group_4">
<path id="Vector" d="M8.57988 43.985C13.1086 43.985 16.7799 40.3137 16.7799 35.785C16.7799 31.2562 13.1086 27.585 8.57988 27.585C4.05115 27.585 0.379883 31.2562 0.379883 35.785C0.379883 40.3137 4.05115 43.985 8.57988 43.985Z" fill="#AD7153"/>
<g id="Group_5">
<g id="Group_6">
<path id="Vector_2" d="M6.87002 31.585C4.59002 31.695 2.77002 33.565 2.77002 35.875H6.87002V31.585Z" fill="#975C45"/>
</g>
</g>
</g>
<g id="Group_7">
<path id="Vector_3" d="M51.93 43.985C56.4587 43.985 60.13 40.3137 60.13 35.785C60.13 31.2562 56.4587 27.585 51.93 27.585C47.4012 27.585 43.73 31.2562 43.73 35.785C43.73 40.3137 47.4012 43.985 51.93 43.985Z" fill="#AD7153"/>
<g id="Group_8">
<path id="Vector_4" d="M58.27 35.7851C58.16 33.5051 56.29 31.6851 53.98 31.6851V35.7851H58.27Z" fill="#975C45"/>
</g>
</g>
</g>
<g id="Group_9">
<path id="Vector_5" d="M29.8896 70.215C17.8796 70.215 8.13965 60.475 8.13965 48.465V23.105C8.13965 11.095 17.8796 1.35498 29.8896 1.35498C41.8997 1.35498 51.6396 11.095 51.6396 23.105V48.455C51.6396 61.885 41.8997 70.215 29.8896 70.215Z" fill="#F6C09C"/>
<path id="Vector_6" d="M12.1599 48.4649V10.5249C9.62988 14.0749 8.12988 18.4149 8.12988 23.1049V48.4549C8.12988 60.4649 17.8699 70.2049 29.8799 70.2049C30.5599 70.2049 31.2299 70.1649 31.8999 70.1049C20.8299 69.0949 12.1599 59.7949 12.1599 48.4649Z" fill="#AD7153"/>
</g>
</g>
</g>
<path id="Vector_7" d="M51.5499 20.265C51.5399 20.035 51.5099 19.805 51.4799 19.565C51.3899 18.745 51.2399 17.935 51.0499 17.145C51.0399 17.095 51.0299 17.055 51.0199 17.015C50.9499 16.755 50.8899 16.495 50.8099 16.245C50.7399 15.975 50.6599 15.705 50.5699 15.445C50.4099 14.915 50.2099 14.395 49.9999 13.885L49.6699 13.135C49.5499 12.885 49.4299 12.635 49.3099 12.395C48.4899 10.765 47.4699 9.24504 46.2799 7.88504C45.6299 7.14504 44.9399 6.44504 44.1999 5.80504C40.3799 2.44504 35.3699 0.415039 29.8799 0.415039C23.8799 0.415039 18.4399 2.84504 14.4999 6.78504C13.6399 7.64504 12.8599 8.57504 12.1599 9.56504C10.7999 11.475 9.73988 13.605 9.05988 15.895C8.94988 16.245 8.85988 16.595 8.76988 16.945C8.75988 16.975 8.74988 16.995 8.74988 17.015C8.73988 17.055 8.72988 17.095 8.71988 17.145C8.70988 17.195 8.69988 17.235 8.68988 17.285C8.62988 17.555 8.56988 17.825 8.51988 18.095C8.48988 18.255 8.45988 18.425 8.42988 18.585C8.38988 18.835 8.34988 19.085 8.31988 19.345C8.30988 19.415 8.29988 19.485 8.28988 19.565C8.27988 19.615 8.27988 19.665 8.26988 19.715C8.25988 19.875 8.23988 20.035 8.21988 20.205V20.315C8.16988 20.865 8.13988 21.425 8.13988 21.995C8.13988 22.055 8.12988 22.105 8.12988 22.165V27.335L8.20988 27.585C9.90988 26.005 11.1999 24.535 12.1599 23.245C13.9399 20.885 14.6499 19.105 14.9099 18.305C15.6599 18.165 16.9099 17.895 18.2299 17.505C17.9499 17.895 17.6399 18.275 17.3099 18.625C17.3099 18.625 21.4799 17.955 24.1899 16.595C23.7299 17.415 23.1399 18.295 22.4199 19.055C22.4199 19.055 26.6799 18.365 29.3799 16.975C28.9599 17.685 28.4499 18.415 27.8399 19.055C27.8399 19.055 32.0099 18.385 34.7199 17.025C34.2599 17.845 33.6699 18.725 32.9499 19.485C32.9499 19.485 37.8499 18.695 40.4799 17.095C39.9899 18.015 39.3399 19.035 38.5199 19.895C38.5199 19.895 43.5599 19.085 46.1599 17.445C46.2699 17.715 46.2799 17.975 46.2799 18.185V19.795C46.2799 24.235 48.2099 24.665 51.5599 27.585L51.6399 27.335V22.165C51.6399 21.525 51.6099 20.885 51.5499 20.265Z" fill="#5C2E2F"/>
<path id="Vector_8" d="M12.1599 9.56494V23.2449C11.1999 24.5349 9.90988 26.0049 8.20988 27.5849L8.12988 27.3349V22.1649C8.12988 22.1049 8.13988 22.0549 8.13988 21.9949C8.13988 21.4249 8.16988 20.8649 8.21988 20.3149V20.2049C8.23988 20.0349 8.25988 19.8749 8.26988 19.7149C8.27988 19.6649 8.27988 19.6149 8.28988 19.5649C8.29988 19.4849 8.30988 19.4149 8.31988 19.3449C8.34988 19.0849 8.38988 18.8349 8.42988 18.5849C8.45988 18.4249 8.48988 18.2549 8.51988 18.0949C8.56988 17.8249 8.62988 17.5549 8.68988 17.2849C8.69988 17.2349 8.70988 17.1949 8.71988 17.1449C8.72988 17.0949 8.73988 17.0549 8.74988 17.0149C8.74988 16.9949 8.75988 16.9749 8.76988 16.9449C8.85988 16.5949 8.94988 16.2449 9.05988 15.8949C9.73988 13.6049 10.7999 11.4749 12.1599 9.56494Z" fill="#472123"/>
</g>
</g>
<defs>
<clipPath id="clip0_215_78">
<rect width="59.75" height="69.8" fill="white" transform="translate(0.379883 0.415039)"/>
</clipPath>
</defs>
</svg>
