<svg width="61" height="70" viewBox="0 0 61 70" fill="none" xmlns="http://www.w3.org/2000/svg">
<g id="hair-6" clip-path="url(#clip0_215_121)">
<g id="Group">
<g id="face">
<g id="Group_2">
<g id="Group_3">
<g id="Group_4">
<path id="Vector" d="M9.07988 43.515C13.6086 43.515 17.2799 39.8437 17.2799 35.315C17.2799 30.7863 13.6086 27.115 9.07988 27.115C4.55115 27.115 0.879883 30.7863 0.879883 35.315C0.879883 39.8437 4.55115 43.515 9.07988 43.515Z" fill="#AD7153"/>
<g id="Group_5">
<g id="Group_6">
<path id="Vector_2" d="M7.37002 31.115C5.09002 31.225 3.27002 33.095 3.27002 35.405H7.37002V31.115Z" fill="#975C45"/>
</g>
</g>
</g>
<g id="Group_7">
<path id="Vector_3" d="M52.43 43.515C56.9587 43.515 60.63 39.8437 60.63 35.315C60.63 30.7863 56.9587 27.115 52.43 27.115C47.9012 27.115 44.23 30.7863 44.23 35.315C44.23 39.8437 47.9012 43.515 52.43 43.515Z" fill="#AD7153"/>
<g id="Group_8">
<path id="Vector_4" d="M58.77 35.3051C58.66 33.0251 56.79 31.2051 54.48 31.2051V35.3051H58.77Z" fill="#975C45"/>
</g>
</g>
</g>
<g id="Group_9">
<path id="Vector_5" d="M52.9597 22.635V47.985C52.9597 49.685 52.8697 51.265 52.7097 52.725C52.7097 52.735 52.7097 52.745 52.6997 52.765C51.0997 66.815 42.0797 69.745 31.2097 69.745C19.1897 69.745 9.44971 60.005 9.44971 47.985V22.635C9.44971 21.995 9.47971 21.355 9.53971 20.735C9.54971 20.505 9.57971 20.275 9.60971 20.035C9.69971 19.215 9.84971 18.405 10.0397 17.615C10.0497 17.565 10.0597 17.525 10.0697 17.485C10.1397 17.225 10.1997 16.965 10.2797 16.715C10.3497 16.445 10.4297 16.175 10.5197 15.915C10.6797 15.385 10.8797 14.865 11.0897 14.355C11.1997 14.105 11.3097 13.855 11.4197 13.605C11.5397 13.355 11.6597 13.105 11.7797 12.865C12.5997 11.235 13.6197 9.71501 14.8097 8.35501C18.7897 3.77501 24.6597 0.88501 31.2097 0.88501C37.2097 0.88501 42.6497 3.31501 46.5897 7.25501C50.5297 11.195 52.9597 16.635 52.9597 22.635Z" fill="#F6C09C"/>
<path id="Vector_6" d="M32.3999 69.6449C31.7399 69.7049 31.0699 69.7449 30.3899 69.7449C18.3699 69.7449 8.62988 60.0049 8.62988 47.9849V22.6349C8.62988 21.9949 8.65988 21.3549 8.71988 20.7349C8.72988 20.5049 8.75988 20.2749 8.78988 20.0349C8.88988 19.2149 9.02988 18.4049 9.21988 17.6149C9.22988 17.5649 9.23988 17.5249 9.24988 17.4849C9.31988 17.2249 9.37988 16.9649 9.45988 16.7149C9.52988 16.4449 9.60988 16.1749 9.69988 15.9149C9.86988 15.3849 10.0599 14.8649 10.2699 14.3549C10.3799 14.1049 10.4899 13.8549 10.5999 13.6049C10.7199 13.3549 10.8399 13.1049 10.9599 12.8649C11.4599 11.8849 12.0299 10.9449 12.6599 10.0549V47.9849C12.6599 49.1049 12.7499 50.2149 12.9099 51.2849C14.3999 61.0849 22.4299 68.7249 32.3999 69.6449Z" fill="#AD7153"/>
</g>
</g>
</g>
<path id="Vector_7" d="M13.9899 8.35498V16.465C13.9899 20.905 12.0599 25.135 8.70988 28.055L8.62988 27.805V22.635C8.62988 21.995 8.65988 21.355 8.71988 20.735C8.72988 20.505 8.75988 20.275 8.78988 20.035C8.87988 19.215 9.02988 18.405 9.21988 17.615C9.22988 17.565 9.23988 17.525 9.24988 17.485C9.31988 17.225 9.37988 16.965 9.45988 16.715C9.52988 16.445 9.60988 16.175 9.69988 15.915C9.85988 15.385 10.0599 14.865 10.2699 14.355C10.3799 14.105 10.4899 13.855 10.5999 13.605C10.7199 13.355 10.8399 13.105 10.9599 12.865C11.7799 11.235 12.7999 9.71498 13.9899 8.35498Z" fill="#5C2E2F"/>
<path id="Vector_8" d="M46.7798 8.35498V16.465C46.7798 20.905 48.7098 25.135 52.0598 28.055L52.1398 27.805V22.635C52.1398 21.995 52.1098 21.355 52.0498 20.735C52.0398 20.505 52.0098 20.275 51.9798 20.035C51.8898 19.215 51.7398 18.405 51.5498 17.615C51.5398 17.565 51.5298 17.525 51.5198 17.485C51.4498 17.225 51.3898 16.965 51.3098 16.715C51.2398 16.445 51.1598 16.175 51.0698 15.915C50.9098 15.385 50.7098 14.865 50.4998 14.355C50.3898 14.105 50.2798 13.855 50.1698 13.605C50.0498 13.355 49.9298 13.105 49.8098 12.865C48.9898 11.235 47.9698 9.71498 46.7798 8.35498Z" fill="#5C2E2F"/>
</g>
</g>
<defs>
<clipPath id="clip0_215_121">
<rect width="59.75" height="68.86" fill="white" transform="translate(0.879883 0.88501)"/>
</clipPath>
</defs>
</svg>
