<svg width="61" height="86" viewBox="0 0 61 86" fill="none" xmlns="http://www.w3.org/2000/svg">
<g id="hair-8" clip-path="url(#clip0_215_193)">
<g id="Group">
<g id="face">
<g id="Group_2">
<g id="Group_3">
<path id="Vector" d="M8.95 44.14C13.4787 44.14 17.15 40.4687 17.15 35.94C17.15 31.4113 13.4787 27.74 8.95 27.74C4.42126 27.74 0.75 31.4113 0.75 35.94C0.75 40.4687 4.42126 44.14 8.95 44.14Z" fill="#AD7153"/>
<g id="Group_4">
<g id="Group_5">
<path id="Vector_2" d="M7.24014 31.75C4.96014 31.86 3.14014 33.73 3.14014 36.04H7.24014V31.75Z" fill="#975C45"/>
</g>
</g>
</g>
<g id="Group_6">
<path id="Vector_3" d="M52.3001 44.14C56.8288 44.14 60.5001 40.4687 60.5001 35.94C60.5001 31.4113 56.8288 27.74 52.3001 27.74C47.7714 27.74 44.1001 31.4113 44.1001 35.94C44.1001 40.4687 47.7714 44.14 52.3001 44.14Z" fill="#AD7153"/>
<g id="Group_7">
<path id="Vector_4" d="M58.6401 35.9401C58.5301 33.6601 56.6601 31.8401 54.3501 31.8401V35.9401H58.6401Z" fill="#975C45"/>
</g>
</g>
</g>
<g id="Group_8">
<path id="Vector_5" d="M30.2598 70.37C18.2498 70.37 8.50977 60.63 8.50977 48.62V23.27C8.50977 11.26 18.2498 1.52002 30.2598 1.52002C42.2698 1.52002 52.0098 11.26 52.0098 23.27V48.62C52.0098 60.63 42.2698 70.37 30.2598 70.37Z" fill="#F6C09C"/>
<path id="Vector_6" d="M30.2598 70.37C18.2498 70.37 8.50977 60.63 8.50977 48.62V23.27C8.50977 11.26 18.2498 1.52002 30.2598 1.52002C42.2698 1.52002 52.0098 11.26 52.0098 23.27V48.62C52.0098 60.63 42.2698 70.37 30.2598 70.37Z" fill="#F6C09C"/>
<path id="Vector_7" d="M11.4601 56.3L11.3201 57.65C11.0901 57.76 10.8601 57.9 10.6701 58.09C10.5601 57.87 10.4601 57.65 10.3701 57.42C10.6401 56.96 10.8201 56.42 10.8801 55.83C10.8901 55.79 10.8801 55.75 10.8901 55.71C11.0501 55.95 11.2401 56.14 11.4601 56.3Z" fill="#F6C09C"/>
<path id="Vector_8" d="M21.09 67.76C21.01 67.91 20.93 68.08 20.88 68.25C20.84 68.23 20.79 68.21 20.75 68.19C20.88 68.07 20.99 67.92 21.09 67.76Z" fill="#F6C09C"/>
<path id="Vector_9" d="M12.53 48.6199V10.6799C10 14.2299 8.5 18.5699 8.5 23.2699V48.6199C8.5 60.6299 18.24 70.3699 30.25 70.3699C30.93 70.3699 31.6 70.3299 32.27 70.2699C21.2 69.2499 12.53 59.9499 12.53 48.6199Z" fill="#AD7153"/>
</g>
</g>
<g id="Group_9">
<g id="Group_10">
<path id="Vector_10" d="M20.8799 68.2499C20.7699 68.5299 20.7099 68.8299 20.6999 69.1499C20.6399 70.2099 21.0899 71.1399 21.7799 71.6199L21.7099 72.9799C21.3699 73.1699 21.0699 73.4499 20.8499 73.8099C21.0699 73.4099 21.2199 72.9399 21.2499 72.4199C21.2999 71.3699 20.8499 70.4399 20.1699 69.9499L20.2299 68.5999C20.4199 68.4899 20.5999 68.3599 20.7499 68.1899C18.3199 67.0099 16.1399 65.3899 14.3299 63.4299C13.8499 63.9699 13.5299 64.6899 13.4499 65.5199C13.2599 65.0999 12.9799 64.7699 12.6399 64.5299L12.7799 63.1799C13.0799 63.0399 13.3499 62.8399 13.5899 62.5799C12.4299 61.2099 11.4499 59.7099 10.6699 58.0899C10.1399 58.5799 9.75988 59.3099 9.67988 60.1699C9.63988 60.5099 9.66988 60.8399 9.71988 61.1499C9.47988 60.7099 9.15988 60.3399 8.76988 60.0899L8.90988 58.7199C9.48988 58.4999 10.0099 58.0399 10.3699 57.4199C9.15988 54.7299 8.49988 51.7499 8.49988 48.6099V44.1499C8.38988 44.2899 8.30988 44.4699 8.28988 44.6599L8.26988 44.9099C7.23988 45.2999 6.42988 46.4099 6.28988 47.7999C6.14988 49.1899 6.72988 50.4399 7.65988 51.0299L7.51988 52.3999C6.49988 52.7899 5.68988 53.9099 5.54988 55.2999C5.40988 56.6799 5.98988 57.9399 6.91988 58.5199L6.77988 59.8999C5.74988 60.2899 4.93988 61.3999 4.79988 62.7899C4.66988 64.1799 5.23988 65.4299 6.16988 66.0199L6.03988 67.3899C5.00988 67.7799 4.19988 68.8999 4.05988 70.2899C3.91988 71.6699 4.49988 72.9299 5.42988 73.5099L5.28988 74.8899C4.25988 75.2799 3.44988 76.3899 3.31988 77.7799C3.17988 79.1699 3.74988 80.4199 4.67988 81.0099L4.62988 81.5899C4.56988 82.1399 4.96988 82.6299 5.51988 82.6799C5.55988 82.6899 5.58988 82.6899 5.61988 82.6899C6.12988 82.6899 6.56988 82.2999 6.61988 81.7899L6.66988 81.1999C7.02988 81.0699 7.36988 80.8399 7.65988 80.5499C7.64988 81.5899 8.08988 82.5099 8.77988 82.9999L8.71988 83.5799C8.65988 84.1299 9.05988 84.6199 9.60988 84.6799H9.70988C10.2199 84.6799 10.6599 84.2999 10.7099 83.7799L10.7699 83.1999C11.3099 82.9599 11.7699 82.4899 12.0699 81.8799C12.2699 82.6799 12.7299 83.3499 13.3399 83.7299L13.2799 84.3199C13.2199 84.8599 13.6199 85.3499 14.1699 85.4099H14.2699C14.7799 85.4099 15.2199 85.0299 15.2699 84.5099L15.3299 83.9299C16.3499 83.5399 17.1599 82.4199 17.2999 81.0399C17.3199 80.8799 17.3099 80.7399 17.3099 80.5899C17.4099 80.6899 17.5099 80.7699 17.6199 80.8499L17.5899 81.4399C17.5599 81.9899 17.9799 82.4599 18.5399 82.4899H18.5899C19.1199 82.4899 19.5599 82.0699 19.5799 81.5399L19.6099 80.9499C20.3499 80.5299 20.8799 79.6499 20.9399 78.5999C20.9899 77.5399 20.5399 76.6099 19.8599 76.1299L19.9199 74.7699C20.2599 74.5799 20.5599 74.2999 20.7799 73.9399C20.5599 74.3399 20.4099 74.8099 20.3899 75.3299C20.3299 76.3799 20.7799 77.3099 21.4699 77.7999L21.4399 78.3899C21.4099 78.9199 21.8099 79.3799 22.3399 79.4299V69.2899H23.4899C22.5899 68.9999 21.7199 68.6499 20.8799 68.2499ZM9.30988 77.6799C9.06988 77.7799 8.84988 77.9299 8.64988 78.1199C8.71988 76.8099 8.16988 75.6399 7.27988 75.0799L7.41988 73.7099C7.78988 73.5699 8.12988 73.3299 8.42988 73.0199C8.38988 73.1799 8.34988 73.3499 8.32988 73.5199C8.20988 74.7099 8.67988 75.7799 9.44988 76.3299L9.30988 77.6799ZM10.6499 64.3299C9.78988 64.7099 9.11988 65.6699 8.99988 66.8499C8.88988 68.0299 9.34988 69.0999 10.1199 69.6499L9.97988 70.9999C9.71988 71.1199 9.47988 71.2799 9.26988 71.4899C9.32988 71.2699 9.36988 71.0499 9.39988 70.8199C9.52988 69.4299 8.95988 68.1799 8.02988 67.5899L8.15988 66.2099C9.18988 65.8199 9.99988 64.7099 10.1399 63.3199C10.1799 62.9199 10.1499 62.5299 10.0799 62.1699C10.2699 62.4999 10.4999 62.7699 10.7899 62.9799L10.6499 64.3299ZM13.9399 77.6099C13.2299 77.8799 12.6299 78.4999 12.2799 79.3099C12.0899 78.7099 11.7499 78.1999 11.2999 77.8799L11.4399 76.5299C12.1099 76.2199 12.6599 75.5699 12.9299 74.7299C13.1599 75.3799 13.5599 75.9099 14.0799 76.2399L13.9399 77.6099ZM14.6899 70.1199C13.8399 70.4399 13.1399 71.2599 12.8399 72.3199C12.6499 71.8499 12.3399 71.4699 11.9699 71.1999L12.1099 69.8499C12.9399 69.4799 13.5899 68.5599 13.7399 67.4299C13.9799 67.9899 14.3599 68.4499 14.8199 68.7399L14.6899 70.1199ZM17.8599 76.0299C17.1299 76.4399 16.5999 77.3099 16.5399 78.3599C16.3599 78.1399 16.1599 77.9499 15.9299 77.8099L16.0699 76.4399C16.8299 76.1499 17.4499 75.4599 17.7899 74.5699C17.8399 74.6099 17.8799 74.6399 17.9299 74.6699L17.8599 76.0299ZM18.1699 69.8499C17.7999 70.0599 17.4799 70.3899 17.2399 70.8099C17.0699 70.6199 16.8899 70.4499 16.6799 70.3199L16.8099 68.9399C17.2099 68.7899 17.5699 68.5199 17.8799 68.1799C17.9899 68.2999 18.1099 68.4099 18.2399 68.4999L18.1699 69.8499Z" fill="#5C2E2F"/>
<path id="Vector_11" d="M41.33 67.54C41.46 67.46 41.58 67.36 41.7 67.24C41.99 67.6 42.34 67.88 42.73 68.06L42.79 69.44C42.58 69.56 42.38 69.72 42.2 69.91C41.99 69.48 41.69 69.13 41.33 68.9V67.54ZM42.53 77.48C42.52 76.43 42.03 75.53 41.33 75.08V73.73C41.37 73.7 41.42 73.67 41.47 73.63C41.76 74.54 42.35 75.25 43.09 75.58L43.16 76.96C42.93 77.09 42.72 77.27 42.53 77.48ZM44.72 67.96C45.2 67.69 45.6 67.25 45.87 66.7C45.96 67.84 46.57 68.79 47.38 69.2L47.45 70.56C47.06 70.8 46.74 71.17 46.52 71.63C46.28 70.56 45.62 69.7 44.79 69.34L44.72 67.96ZM46.74 78.64C46.43 77.81 45.86 77.17 45.16 76.86L45.09 75.48C45.62 75.18 46.05 74.67 46.32 74.03C46.54 74.89 47.06 75.57 47.72 75.9L47.78 77.26C47.32 77.56 46.95 78.05 46.74 78.64ZM49.38 69.1C50.17 68.59 50.69 67.55 50.63 66.36C50.57 65.17 49.95 64.18 49.11 63.76L49.04 62.4C49.34 62.21 49.59 61.95 49.79 61.63C49.7 61.99 49.65 62.38 49.67 62.78C49.74 64.17 50.5 65.32 51.5 65.77L51.57 67.15C50.61 67.69 49.97 68.91 50.04 70.3C50.05 70.53 50.08 70.76 50.13 70.98C49.93 70.76 49.7 70.58 49.45 70.46L49.38 69.1ZM50.42 77.63C50.23 77.43 50.01 77.27 49.78 77.16L49.71 75.8C50.51 75.29 51.03 74.25 50.97 73.06C50.96 72.88 50.93 72.72 50.9 72.55C51.18 72.88 51.51 73.13 51.87 73.29L51.94 74.67C51.02 75.18 50.41 76.32 50.42 77.63ZM55.76 77.56C55.7 76.17 54.94 75.02 53.94 74.57L53.87 73.19C54.83 72.65 55.46 71.43 55.4 70.04C55.33 68.65 54.58 67.49 53.57 67.05L53.5 65.67C54.46 65.13 55.1 63.91 55.03 62.52C54.96 61.12 54.21 59.97 53.2 59.53L53.13 58.15C54.09 57.61 54.73 56.39 54.66 54.99C54.59 53.6 53.84 52.45 52.83 52L52.76 50.62C53.72 50.08 54.36 48.86 54.29 47.47C54.23 46.08 53.47 44.92 52.46 44.48L52.45 44.24C52.44 43.92 52.26 43.64 52.01 43.47V48.61C52.01 51.77 51.34 54.76 50.13 57.47C50.41 57.81 50.76 58.07 51.13 58.24L51.2 59.62C50.8 59.85 50.46 60.2 50.2 60.63C50.27 60.33 50.31 60 50.29 59.66C50.26 59.08 50.1 58.55 49.84 58.11C49.07 59.68 48.12 61.15 47.01 62.48C47.02 62.49 47.03 62.49 47.04 62.5L47.11 63.86C46.76 64.08 46.47 64.41 46.25 64.81C46.23 64.38 46.14 63.98 46.01 63.61C44.12 65.6 41.86 67.23 39.33 68.38V68.9C38.62 69.35 38.13 70.26 38.13 71.31C38.13 72.37 38.62 73.27 39.33 73.73V75.08C39.16 75.19 39.01 75.32 38.87 75.47C38.94 75.17 38.98 74.84 38.97 74.51C38.91 73.45 38.38 72.57 37.65 72.15L37.58 70.8C38.18 70.37 38.6 69.6 38.65 68.69C38.12 68.91 37.57 69.11 37.02 69.29H37.43V78.47C37.74 78.3 37.94 77.95 37.92 77.57L37.89 76.98C38.02 76.89 38.13 76.78 38.24 76.66C38.17 76.93 38.13 77.2 38.13 77.5C38.13 78.55 38.62 79.46 39.33 79.91V80.5C39.33 81.05 39.77 81.5 40.33 81.5C40.88 81.5 41.33 81.05 41.33 80.5V79.91C41.44 79.84 41.55 79.76 41.65 79.66C41.64 79.81 41.63 79.96 41.63 80.11C41.7 81.51 42.45 82.66 43.46 83.1L43.49 83.69C43.52 84.22 43.96 84.64 44.49 84.64H44.54C45.09 84.61 45.51 84.14 45.49 83.59L45.46 83C46.09 82.65 46.57 82.01 46.82 81.22C47.09 81.84 47.52 82.33 48.05 82.6L48.08 83.19C48.11 83.72 48.55 84.13 49.08 84.13H49.13C49.68 84.11 50.11 83.64 50.08 83.08L50.05 82.5C50.76 82.04 51.24 81.15 51.29 80.11C51.56 80.42 51.88 80.66 52.24 80.81L52.27 81.4C52.29 81.93 52.73 82.35 53.26 82.35H53.31C53.87 82.32 54.29 81.85 54.26 81.3L54.24 80.72C55.19 80.18 55.83 78.95 55.76 77.56Z" fill="#5C2E2F"/>
</g>
<path id="Vector_12" d="M52.0697 17.98C52.1797 17.91 52.2897 17.82 52.3997 17.71C53.1897 16.92 52.1797 13.9 49.8697 10.64C47.8897 7.82995 45.6897 5.86995 44.5297 5.77995C43.6597 3.74995 40.4297 2.23995 36.5597 2.23995C36.3997 2.23995 36.2597 2.24995 36.1097 2.24995C34.8797 1.46995 32.7697 0.949951 30.3797 0.949951C27.9897 0.949951 25.8797 1.46995 24.6397 2.25995C24.4497 2.24995 24.2697 2.24995 24.0597 2.24995C20.1097 2.24995 16.8097 3.82995 16.0297 5.92995C14.7697 6.01995 12.5497 7.91995 10.6097 10.67C8.30971 13.93 7.39971 17 8.27971 17.88C8.30971 17.91 8.34971 17.94 8.37971 17.97C7.18971 19.25 6.44971 21.04 6.44971 23.03C6.44971 24.89 7.09971 26.59 8.15971 27.85C8.16971 30.46 8.32971 32.27 8.32971 32.27L8.40971 32.21C11.0497 30.44 12.6397 27.47 12.6397 24.29V20.33C13.1497 20.57 13.7697 20.82 14.4797 21.03C14.5697 21.06 14.6697 21.07 14.7597 21.07C15.1897 21.07 15.5897 20.79 15.7197 20.35C15.8697 19.82 15.5697 19.27 15.0397 19.11C13.9097 18.78 13.0397 18.31 12.6397 18.06V17.19C12.6697 17.04 12.6997 16.89 12.7297 16.74C13.5397 17.23 14.7297 17.84 16.1497 18.22C16.2397 18.24 16.3297 18.26 16.4097 18.26C16.8497 18.26 17.2497 17.97 17.3697 17.52C17.5097 16.99 17.1997 16.44 16.6697 16.29C15.3097 15.92 14.1697 15.29 13.4997 14.87C13.7897 14.44 14.1497 14.06 14.6097 13.76C14.6197 13.75 14.6197 13.75 14.6297 13.74C17.5197 15.72 23.1197 17.09 29.6297 17.21V7.46995C29.6297 7.05995 29.9297 6.71995 30.3797 6.71995C30.7897 6.71995 31.1297 7.04995 31.1297 7.46995V17.23C37.5397 17.15 43.0997 15.85 46.0997 13.94C46.4297 14.19 46.6897 14.5 46.9197 14.83C46.2997 15.24 45.0697 15.97 43.5497 16.38C43.0197 16.52 42.6997 17.07 42.8497 17.61C42.9697 18.06 43.3697 18.35 43.8097 18.35C43.8997 18.35 43.9797 18.34 44.0697 18.31C45.6397 17.89 46.9197 17.19 47.7197 16.69C47.7497 16.79 47.7797 16.89 47.7997 16.99V18.01C47.6697 18.1 46.6397 18.77 45.1797 19.19C44.6497 19.34 44.3497 19.9 44.4997 20.43C44.6297 20.87 45.0297 21.15 45.4597 21.15C45.5497 21.15 45.6497 21.14 45.7397 21.11C46.5597 20.87 47.2597 20.57 47.7997 20.3V23.57C47.7997 26.88 49.4597 29.97 52.2097 31.8L52.2597 31.83C52.2597 31.83 52.4097 30.16 52.3997 27.73C53.3897 26.48 53.9897 24.84 53.9897 23.05C54.0097 21.06 53.2597 19.27 52.0697 17.98Z" fill="#5C2E2F"/>
</g>
</g>
</g>
<defs>
<clipPath id="clip0_215_193">
<rect width="59.75" height="84.46" fill="white" transform="translate(0.75 0.949951)"/>
</clipPath>
</defs>
</svg>
