<svg width="55" height="76" viewBox="0 0 55 76" fill="none" xmlns="http://www.w3.org/2000/svg">
<g clip-path="url(#clip0_323_547)">
<path d="M38.0097 7.96003C37.9997 7.95003 37.9997 7.93003 37.9897 7.92003C37.9897 7.92003 37.9897 7.92003 37.9897 7.91003C37.9397 7.83003 37.8597 7.77003 37.7797 7.73003C38.2997 6.45003 38.5897 5.06003 38.5897 3.60003C38.5897 2.45003 38.4197 1.24003 38.1097 0.0500298H37.8797C38.1997 1.24003 38.3697 2.44003 38.3697 3.60003C38.3697 5.04003 38.0797 6.41003 37.5697 7.67003C37.2297 7.65003 36.8897 7.95003 36.9097 8.30003C36.9197 8.45003 36.9897 8.58003 37.0897 8.68003C36.4897 9.80003 35.7097 10.8 34.7697 11.64C34.7097 11.57 34.6297 11.52 34.5397 11.49C34.1697 11.37 33.7297 11.71 33.7597 12.1C33.7697 12.2 33.7997 12.29 33.8597 12.37C32.8497 13.1 31.7097 13.66 30.4897 14.01C30.4797 13.96 30.4597 13.92 30.4297 13.88C30.4197 13.87 30.4197 13.85 30.4097 13.84C30.4097 13.84 30.4097 13.84 30.4097 13.83C30.3397 13.73 30.2397 13.64 30.1097 13.6C29.7397 13.49 29.2997 13.82 29.3297 14.21C29.3297 14.23 29.3397 14.25 29.3397 14.27C28.7497 14.37 28.1497 14.42 27.5397 14.42C26.8497 14.42 26.1797 14.35 25.5297 14.22C25.5297 14.19 25.5197 14.15 25.5197 14.11C25.5097 14.04 25.4797 13.97 25.4397 13.91C25.4297 13.9 25.4297 13.88 25.4197 13.87C25.4197 13.87 25.4197 13.87 25.4097 13.86C25.3397 13.76 25.2397 13.67 25.1097 13.64C24.8397 13.55 24.5397 13.71 24.3997 13.95C23.0097 13.53 21.7397 12.84 20.6497 11.94C20.7097 11.82 20.7297 11.68 20.6997 11.54C20.6897 11.47 20.6597 11.4 20.6197 11.34C20.6097 11.33 20.6097 11.31 20.5997 11.3C20.5997 11.3 20.5997 11.3 20.5997 11.29C20.5297 11.19 20.4297 11.1 20.2997 11.06C20.1297 11.01 19.9497 11.05 19.8097 11.15C19.0297 10.36 18.3797 9.45003 17.8697 8.46003C17.8897 8.43003 17.9197 8.41003 17.9397 8.37003C18.0097 8.24003 18.0197 8.10003 17.9897 7.96003C17.9797 7.89003 17.9497 7.82003 17.9097 7.76003C17.8997 7.75003 17.8997 7.73003 17.8897 7.72003C17.8897 7.72003 17.8897 7.72003 17.8897 7.71003C17.8197 7.61003 17.7197 7.52003 17.5897 7.48003C17.5397 7.46003 17.4897 7.46003 17.4297 7.46003C16.9697 6.25003 16.7097 4.95003 16.7097 3.58003C16.7097 2.43003 16.8797 1.22003 17.1997 0.0300293H16.9697C16.6597 1.22003 16.4897 2.42003 16.4897 3.58003C16.4897 4.96003 16.7497 6.29003 17.2097 7.51003C16.9697 7.60003 16.7897 7.84003 16.8097 8.10003C16.8397 8.48003 17.2397 8.75003 17.5997 8.64003C17.6097 8.64003 17.6097 8.64003 17.6197 8.63003C17.6297 8.63003 17.6497 8.62003 17.6597 8.62003C17.6697 8.62003 17.6697 8.61003 17.6797 8.61003C17.6897 8.61003 17.6897 8.60003 17.6997 8.59003C18.2097 9.59003 18.8697 10.5 19.6497 11.29C19.5697 11.4 19.5197 11.53 19.5297 11.66C19.5597 12.04 19.9597 12.31 20.3197 12.2C20.3297 12.2 20.3297 12.2 20.3397 12.19C20.3497 12.19 20.3697 12.18 20.3797 12.18C20.3797 12.18 20.3897 12.17 20.3997 12.17C20.4397 12.15 20.4897 12.12 20.5297 12.09C21.6397 13.01 22.9397 13.72 24.3597 14.15C24.3597 14.18 24.3497 14.21 24.3497 14.24C24.3797 14.61 24.7797 14.89 25.1397 14.78C25.1397 14.78 25.1497 14.78 25.1497 14.77C25.1697 14.77 25.1797 14.76 25.1897 14.76C25.1997 14.76 25.1997 14.75 25.2097 14.75C25.3197 14.7 25.4197 14.62 25.4797 14.51C25.4897 14.48 25.4997 14.46 25.5097 14.43C26.1697 14.55 26.8597 14.63 27.5497 14.63C28.1897 14.63 28.8197 14.57 29.4297 14.47C29.5697 14.69 29.8597 14.82 30.1197 14.73C30.1297 14.73 30.1297 14.73 30.1397 14.73C30.1497 14.73 30.1697 14.72 30.1797 14.72C30.1897 14.72 30.1897 14.71 30.1997 14.71C30.3097 14.66 30.4097 14.58 30.4697 14.47C30.5097 14.39 30.5297 14.31 30.5297 14.22C31.7997 13.86 32.9797 13.28 34.0297 12.52C34.1797 12.63 34.3797 12.68 34.5597 12.62C34.5697 12.62 34.5697 12.62 34.5797 12.62C34.5897 12.61 34.6097 12.61 34.6197 12.61C34.6197 12.61 34.6297 12.6 34.6397 12.6C34.7497 12.55 34.8497 12.46 34.9097 12.36C34.9797 12.23 34.9897 12.09 34.9597 11.95C34.9497 11.9 34.9397 11.86 34.9197 11.81C35.8797 10.95 36.6797 9.93003 37.2997 8.79003C37.4297 8.85003 37.5797 8.87003 37.7197 8.82003C37.7297 8.82003 37.7297 8.82003 37.7397 8.82003C37.7497 8.82003 37.7697 8.81003 37.7797 8.81003C37.7897 8.81003 37.7897 8.80003 37.7997 8.80003C37.9097 8.75003 38.0097 8.67003 38.0697 8.56003C38.1397 8.43003 38.1497 8.29003 38.1197 8.15003C38.0697 8.08003 38.0397 8.02003 38.0097 7.96003Z" fill="#602651"/>
<path d="M37.0302 3.21C37.0202 3.2 37.0202 3.18 37.0102 3.17C37.0102 3.17 37.0102 3.17 37.0002 3.17C36.9302 3.07 36.8402 2.99 36.7202 2.95C36.7302 2.86 36.7402 2.78 36.7402 2.69C36.7502 2.69 36.7602 2.69 36.7702 2.68C36.7802 2.68 36.7802 2.67 36.7902 2.67C36.9002 2.62 37.0002 2.54 37.0602 2.43C37.1302 2.31 37.1402 2.16 37.1102 2.02C37.1002 1.95 37.0702 1.88 37.0302 1.82C37.0202 1.81 37.0202 1.79 37.0102 1.78C37.0102 1.78 37.0102 1.78 37.0002 1.78C36.9402 1.68 36.8402 1.61 36.7402 1.57C36.7302 1.46 36.7202 1.36 36.7102 1.25C36.8002 1.2 36.8902 1.13 36.9402 1.03C37.0102 0.899999 37.0202 0.759999 36.9902 0.619999C36.9802 0.549999 36.9502 0.48 36.9102 0.42C36.9002 0.41 36.9002 0.389999 36.8902 0.379999C36.8902 0.379999 36.8902 0.379999 36.8902 0.369999C36.8202 0.269999 36.7202 0.179999 36.5902 0.139999C36.5802 0.139999 36.5702 0.139999 36.5602 0.139999C36.5502 0.109999 36.5502 0.0799992 36.5402 0.0499992H36.3102C36.3202 0.0799992 36.3202 0.109999 36.3302 0.139999C36.0402 0.189999 35.7802 0.46 35.8002 0.76C35.8302 1.1 36.1602 1.35 36.4902 1.32C36.5002 1.39 36.5002 1.46 36.5102 1.53C36.1902 1.56 35.9002 1.84 35.9202 2.16C35.9502 2.47 36.2202 2.7 36.5102 2.71C36.5102 2.78 36.5002 2.85 36.4902 2.92C36.1802 2.95 35.8902 3.23 35.9102 3.55C35.9302 3.79 36.1002 3.98 36.3202 4.07C36.3002 4.13 36.2902 4.19 36.2802 4.25C35.9402 4.22 35.5802 4.52 35.6102 4.88C35.6302 5.09 35.7602 5.27 35.9402 5.36C35.9002 5.45 35.8702 5.55 35.8302 5.64C35.8202 5.63 35.8102 5.62 35.8002 5.62C35.4302 5.5 34.9902 5.84 35.0202 6.23C35.0402 6.42 35.1502 6.59 35.3102 6.69C35.2702 6.77 35.2202 6.84 35.1702 6.91C35.1602 6.91 35.1602 6.9 35.1502 6.9C34.7802 6.78 34.3402 7.12 34.3702 7.51C34.3802 7.63 34.4302 7.74 34.5102 7.83C34.4602 7.88 34.4202 7.94 34.3702 7.99C34.3202 7.95 34.2702 7.92 34.2102 7.9C33.8402 7.78 33.4002 8.12 33.4302 8.51C33.4402 8.63 33.4902 8.73 33.5502 8.82C33.4402 8.91 33.3302 9.01 33.2202 9.1C33.1602 9.04 33.0902 8.99 33.0102 8.97C32.6402 8.85 32.2002 9.19 32.2302 9.58C32.2402 9.65 32.2602 9.71 32.2802 9.77C32.1902 9.82 32.1002 9.87 32.0202 9.92C32.0102 9.91 32.0002 9.89 32.0002 9.88C32.0002 9.88 32.0002 9.88 32.0002 9.87C31.9302 9.77 31.8302 9.68 31.7002 9.65C31.3302 9.53 30.8902 9.87 30.9202 10.26C30.9302 10.32 30.9402 10.38 30.9702 10.44C30.9402 10.45 30.9002 10.47 30.8702 10.48C30.8602 10.45 30.8402 10.43 30.8302 10.4C30.8202 10.39 30.8202 10.37 30.8102 10.36C30.8102 10.36 30.8102 10.36 30.8102 10.35C30.7402 10.25 30.6402 10.16 30.5102 10.12C30.1402 10.01 29.7002 10.34 29.7302 10.73C29.7302 10.76 29.7402 10.8 29.7502 10.83C29.6702 10.85 29.6002 10.86 29.5302 10.88C29.5202 10.84 29.5002 10.81 29.4802 10.77C29.4702 10.76 29.4702 10.74 29.4602 10.73C29.4602 10.73 29.4602 10.73 29.4502 10.73C29.3802 10.63 29.2802 10.54 29.1502 10.5C28.8002 10.39 28.3902 10.69 28.3702 11.05C28.2702 11.06 28.1702 11.07 28.0702 11.08C28.0602 11.01 28.0302 10.95 28.0002 10.9C27.9902 10.89 27.9902 10.87 27.9802 10.87C27.9802 10.87 27.9802 10.87 27.9802 10.86C27.9102 10.76 27.8102 10.67 27.6802 10.63C27.3602 10.53 27.0102 10.76 26.9202 11.06C26.8202 11.05 26.7102 11.04 26.6102 11.03C26.6102 11 26.6002 10.96 26.6002 10.93C26.5902 10.86 26.5602 10.79 26.5202 10.73C26.5102 10.72 26.5102 10.7 26.5002 10.69C26.5002 10.69 26.5002 10.69 26.4902 10.68C26.4202 10.58 26.3202 10.49 26.1902 10.46C25.9002 10.37 25.5802 10.55 25.4602 10.82L25.2102 10.75C25.2102 10.7 25.2102 10.64 25.2002 10.59C25.1902 10.52 25.1602 10.45 25.1202 10.39C25.1102 10.38 25.1102 10.36 25.1002 10.35C25.1002 10.35 25.1002 10.35 25.1002 10.34C25.0302 10.24 24.9302 10.15 24.8002 10.11C24.5502 10.03 24.2802 10.16 24.1302 10.36C24.0402 10.32 23.9502 10.28 23.8702 10.24C23.8902 10.15 23.8902 10.07 23.8702 9.98C23.8602 9.91 23.8302 9.84 23.7902 9.78C23.7802 9.77 23.7802 9.75 23.7702 9.74C23.7702 9.74 23.7702 9.74 23.7602 9.73C23.6902 9.63 23.5902 9.54 23.4602 9.51C23.2502 9.44 23.0102 9.53 22.8502 9.69C22.7702 9.64 22.7002 9.6 22.6302 9.55C22.6802 9.43 22.6902 9.31 22.6602 9.18C22.6502 9.11 22.6202 9.04 22.5802 8.98C22.5702 8.97 22.5702 8.95 22.5602 8.94C22.4902 8.84 22.3902 8.75 22.2602 8.71C22.0702 8.65 21.8602 8.71 21.7102 8.83C21.6402 8.77 21.5702 8.71 21.5102 8.64C21.5302 8.62 21.5502 8.6 21.5602 8.57C21.6302 8.44 21.6402 8.3 21.6102 8.16C21.6002 8.09 21.5702 8.02 21.5302 7.96C21.5202 7.95 21.5102 7.93 21.5102 7.92C21.5102 7.92 21.5102 7.92 21.5102 7.91C21.4402 7.81 21.3402 7.72 21.2102 7.68C21.0402 7.63 20.8502 7.67 20.7102 7.77C20.6702 7.72 20.6202 7.66 20.5802 7.61C20.6202 7.57 20.6602 7.53 20.6802 7.48C20.7502 7.35 20.7602 7.21 20.7302 7.07C20.7202 7 20.6902 6.93 20.6502 6.87C20.6402 6.86 20.6402 6.84 20.6302 6.84C20.6302 6.84 20.6302 6.84 20.6302 6.83C20.5602 6.73 20.4602 6.64 20.3302 6.6C20.1902 6.56 20.0502 6.58 19.9202 6.64C19.8902 6.59 19.8602 6.54 19.8302 6.48C19.8702 6.44 19.9102 6.39 19.9402 6.34C20.0102 6.21 20.0202 6.07 19.9902 5.93C19.9802 5.86 19.9502 5.79 19.9102 5.73C19.9002 5.72 19.9002 5.7 19.8902 5.7C19.8902 5.7 19.8902 5.7 19.8802 5.69C19.8102 5.59 19.7102 5.5 19.5802 5.46C19.4902 5.43 19.4102 5.43 19.3202 5.45C19.2902 5.37 19.2602 5.3 19.2302 5.23C19.3302 5.18 19.4102 5.1 19.4602 5.01C19.5302 4.88 19.5402 4.74 19.5102 4.6C19.5002 4.53 19.4702 4.46 19.4302 4.4C19.4202 4.39 19.4202 4.37 19.4102 4.36C19.4102 4.36 19.4102 4.36 19.4002 4.35C19.3302 4.25 19.2302 4.16 19.1002 4.12C19.0302 4.1 18.9602 4.1 18.8802 4.11C18.8702 4.05 18.8502 4 18.8402 3.94H18.8502C18.8502 3.94 18.8602 3.94 18.8602 3.93C18.8802 3.93 18.8902 3.92 18.9002 3.92C18.9102 3.92 18.9102 3.91 18.9202 3.91C19.0302 3.86 19.1302 3.78 19.1902 3.67C19.2602 3.54 19.2702 3.4 19.2402 3.26C19.2302 3.19 19.2002 3.12 19.1602 3.06C19.1502 3.05 19.1502 3.03 19.1402 3.02C19.1402 3.02 19.1402 3.02 19.1302 3.02C19.0602 2.92 18.9602 2.83 18.8302 2.79C18.7802 2.77 18.7202 2.77 18.6702 2.77C18.6602 2.7 18.6602 2.63 18.6502 2.56C18.6702 2.55 18.6902 2.55 18.7202 2.55C18.7302 2.55 18.7302 2.55 18.7402 2.54C18.7502 2.54 18.7702 2.53 18.7802 2.53C18.7802 2.53 18.7902 2.52 18.8002 2.52C18.9102 2.47 19.0102 2.39 19.0702 2.28C19.1402 2.16 19.1502 2.01 19.1202 1.87C19.1102 1.8 19.0802 1.73 19.0402 1.67C19.0302 1.66 19.0302 1.64 19.0202 1.63C19.0202 1.63 19.0202 1.63 19.0202 1.62C18.9502 1.52 18.8502 1.43 18.7202 1.4C18.7102 1.39 18.6902 1.39 18.6802 1.39C18.6902 1.33 18.6902 1.27 18.6902 1.22C18.7002 1.22 18.7202 1.22 18.7302 1.21C18.7402 1.21 18.7402 1.21 18.7502 1.2C18.7602 1.2 18.7802 1.19 18.7902 1.19C18.7902 1.19 18.8002 1.18 18.8102 1.18C18.9202 1.13 19.0202 1.05 19.0802 0.939999C19.1502 0.819999 19.1602 0.669999 19.1302 0.529999C19.1202 0.459999 19.0902 0.39 19.0502 0.33C19.0402 0.32 19.0402 0.299999 19.0302 0.289999C19.0302 0.289999 19.0302 0.289999 19.0302 0.279999C18.9802 0.209999 18.9202 0.159999 18.8502 0.119999C18.8602 0.0799989 18.8702 0.04 18.8702 0H18.6402L18.6302 0.0499992C18.2802 0.00999924 17.9102 0.31 17.9402 0.68C17.9602 0.96 18.2002 1.19 18.4702 1.23C18.4602 1.28 18.4602 1.34 18.4602 1.39C18.1802 1.45 17.9202 1.71 17.9502 2.01C17.9702 2.28 18.1902 2.5 18.4402 2.56C18.4502 2.65 18.4502 2.74 18.4602 2.82C18.2302 2.92 18.0402 3.15 18.0602 3.41C18.0802 3.7 18.3302 3.93 18.6102 3.96C18.6302 4.03 18.6402 4.1 18.6602 4.18C18.4502 4.29 18.2902 4.5 18.3102 4.74C18.3402 5.08 18.6602 5.33 18.9902 5.3C19.0202 5.38 19.0502 5.46 19.0802 5.54C18.8902 5.65 18.7502 5.86 18.7702 6.08C18.8002 6.45 19.2002 6.73 19.5602 6.62H19.5702C19.5802 6.62 19.5902 6.61 19.6002 6.61C19.6302 6.67 19.6702 6.72 19.7002 6.78C19.5802 6.9 19.5002 7.05 19.5102 7.22C19.5402 7.59 19.9402 7.87 20.3002 7.76C20.3102 7.76 20.3102 7.76 20.3202 7.76C20.3302 7.75 20.3502 7.75 20.3602 7.75C20.4102 7.82 20.4602 7.88 20.5102 7.94C20.4302 8.05 20.3802 8.17 20.3902 8.31C20.4202 8.68 20.8202 8.96 21.1802 8.85C21.1902 8.85 21.1902 8.85 21.2002 8.84C21.2202 8.84 21.2302 8.83 21.2402 8.83C21.2502 8.83 21.2502 8.82 21.2602 8.82C21.2802 8.81 21.2902 8.8 21.3102 8.79C21.3802 8.86 21.4602 8.93 21.5302 9C21.4702 9.09 21.4402 9.2 21.4402 9.32C21.4702 9.69 21.8702 9.97 22.2302 9.86H22.2402C22.2602 9.85 22.2702 9.85 22.2802 9.84C22.2902 9.84 22.2902 9.83 22.3002 9.83C22.3602 9.8 22.4102 9.77 22.4602 9.73C22.5302 9.78 22.6102 9.83 22.6902 9.88C22.6602 9.96 22.6402 10.04 22.6402 10.13C22.6702 10.5 23.0702 10.78 23.4302 10.67C23.4302 10.67 23.4402 10.67 23.4402 10.66C23.4602 10.66 23.4702 10.65 23.4802 10.65C23.4902 10.65 23.4902 10.64 23.5002 10.64C23.5902 10.6 23.6602 10.53 23.7202 10.45C23.8102 10.49 23.8902 10.53 23.9802 10.57C23.9702 10.62 23.9602 10.67 23.9602 10.73C23.9902 11.11 24.3902 11.38 24.7502 11.27C24.7602 11.27 24.7602 11.27 24.7702 11.26C24.7802 11.26 24.8002 11.25 24.8102 11.25C24.8202 11.25 24.8202 11.24 24.8302 11.24C24.9402 11.19 25.0402 11.11 25.1002 11C25.1002 10.99 25.1102 10.98 25.1102 10.97C25.1902 10.99 25.2702 11.02 25.3602 11.04C25.3602 11.05 25.3602 11.06 25.3602 11.07C25.3902 11.44 25.7902 11.72 26.1502 11.61C26.1502 11.61 26.1602 11.61 26.1602 11.6C26.1802 11.6 26.1902 11.59 26.2002 11.59C26.2102 11.59 26.2102 11.58 26.2202 11.58C26.3302 11.53 26.4302 11.45 26.4902 11.34C26.5102 11.31 26.5202 11.28 26.5302 11.25C26.6402 11.26 26.7502 11.28 26.8602 11.28C26.9202 11.63 27.3002 11.88 27.6402 11.77C27.6502 11.77 27.6502 11.77 27.6602 11.77C27.6702 11.76 27.6902 11.76 27.7002 11.76C27.7102 11.76 27.7102 11.75 27.7202 11.75C27.8302 11.7 27.9302 11.62 27.9902 11.51C28.0202 11.45 28.0402 11.38 28.0502 11.31C28.1602 11.3 28.2702 11.29 28.3702 11.28C28.4802 11.57 28.8202 11.75 29.1202 11.65H29.1302C29.1502 11.64 29.1602 11.64 29.1702 11.64C29.1802 11.64 29.1802 11.63 29.1902 11.63C29.3002 11.58 29.4002 11.5 29.4602 11.39C29.5102 11.3 29.5302 11.21 29.5302 11.11C29.6202 11.09 29.7202 11.07 29.8202 11.04C29.9702 11.24 30.2402 11.35 30.4902 11.27C30.5002 11.27 30.5002 11.27 30.5102 11.26C30.5202 11.26 30.5402 11.25 30.5502 11.25C30.5502 11.25 30.5602 11.24 30.5702 11.24C30.6802 11.19 30.7802 11.11 30.8402 11C30.8902 10.91 30.9102 10.8 30.9002 10.7C30.9602 10.68 31.0202 10.65 31.0802 10.63C31.2402 10.79 31.4802 10.87 31.6902 10.8C31.7002 10.8 31.7002 10.8 31.7102 10.79C31.7302 10.79 31.7402 10.78 31.7502 10.78C31.7602 10.78 31.7602 10.77 31.7702 10.77C31.8802 10.72 31.9802 10.64 32.0402 10.53C32.1002 10.41 32.1202 10.27 32.0902 10.14C32.2002 10.08 32.3002 10.02 32.4102 9.95C32.5702 10.11 32.8002 10.18 33.0202 10.11H33.0302C33.0502 10.11 33.0602 10.1 33.0702 10.1C33.0802 10.1 33.0802 10.09 33.0902 10.09C33.2002 10.04 33.3002 9.96 33.3602 9.85C33.4302 9.72 33.4402 9.58 33.4102 9.44C33.4002 9.38 33.3802 9.33 33.3502 9.28C33.4702 9.18 33.5902 9.08 33.7102 8.97C33.8502 9.06 34.0402 9.1 34.2102 9.05C34.2202 9.05 34.2202 9.05 34.2302 9.05C34.2402 9.04 34.2602 9.04 34.2702 9.04C34.2702 9.04 34.2802 9.03 34.2902 9.03C34.4002 8.98 34.5002 8.89 34.5602 8.79C34.6302 8.66 34.6402 8.52 34.6102 8.38C34.6002 8.31 34.5702 8.24 34.5302 8.18C34.5302 8.17 34.5202 8.17 34.5202 8.16C34.5702 8.1 34.6302 8.04 34.6802 7.98C34.8202 8.07 35.0002 8.1 35.1602 8.05C35.1702 8.05 35.1702 8.05 35.1802 8.04C35.1902 8.04 35.2102 8.03 35.2202 8.03C35.2302 8.03 35.2302 8.02 35.2402 8.02C35.3502 7.97 35.4502 7.89 35.5102 7.78C35.5802 7.66 35.5902 7.51 35.5602 7.37C35.5502 7.3 35.5202 7.23 35.4802 7.17C35.4702 7.16 35.4702 7.14 35.4602 7.13C35.4602 7.13 35.4602 7.13 35.4602 7.12C35.4302 7.09 35.4002 7.06 35.3702 7.03C35.4202 6.94 35.4702 6.86 35.5202 6.77C35.6202 6.79 35.7202 6.79 35.8102 6.76C35.8202 6.76 35.8202 6.76 35.8302 6.76C35.8502 6.75 35.8602 6.75 35.8702 6.75C35.8802 6.75 35.8802 6.74 35.8902 6.74C36.0002 6.69 36.1002 6.61 36.1602 6.5C36.2302 6.37 36.2402 6.23 36.2102 6.09C36.2002 6.02 36.1702 5.95 36.1302 5.89C36.1202 5.88 36.1102 5.86 36.1102 5.85C36.0902 5.82 36.0602 5.8 36.0402 5.77C36.0902 5.66 36.1302 5.55 36.1702 5.43C36.2502 5.44 36.3402 5.44 36.4202 5.41H36.4302C36.4502 5.4 36.4602 5.4 36.4702 5.4C36.4802 5.4 36.4802 5.39 36.4902 5.39C36.6002 5.34 36.7002 5.26 36.7602 5.15C36.8302 5.02 36.8402 4.88 36.8102 4.74C36.8002 4.67 36.7702 4.6 36.7302 4.54C36.7202 4.53 36.7202 4.51 36.7102 4.5C36.6602 4.43 36.5902 4.37 36.5202 4.33C36.5402 4.26 36.5502 4.19 36.5702 4.11C36.6202 4.11 36.6802 4.1 36.7302 4.09H36.7402C36.7602 4.08 36.7702 4.08 36.7802 4.08C36.7902 4.08 36.7902 4.07 36.8002 4.07C36.9102 4.02 37.0102 3.94 37.0702 3.83C37.1402 3.7 37.1502 3.56 37.1202 3.42C37.0902 3.34 37.0702 3.27 37.0302 3.21Z" fill="#602651"/>
<path d="M25.1099 16.9299C25.0999 16.9899 25.0899 17.0399 25.0899 17.0999C25.0799 17.9799 26.1799 18.1499 26.8499 18.1899C27.5499 18.2299 28.4499 18.3299 29.0699 17.9399C29.5099 17.6599 29.4799 17.2499 29.4299 16.7799C29.3399 16.0099 29.1699 15.2499 29.0499 14.4899C28.9599 13.9299 28.8699 13.2599 28.4599 12.8399C28.0999 12.4699 27.5499 12.3099 27.0499 12.3799C26.4099 12.4699 26.1499 13.1899 25.9699 13.7299C25.6699 14.6099 25.3999 15.5099 25.2099 16.4199C25.1699 16.5899 25.1399 16.7599 25.1099 16.9299Z" fill="#E16272"/>
<path d="M21.1998 15.64C21.6298 15.89 22.3598 16.13 22.8398 15.89C23.3498 15.64 23.4198 15.02 23.5598 14.53C23.7598 13.86 23.9298 13.19 24.0798 12.51C24.1098 12.36 24.1498 12.2 24.1298 12.05C24.0198 11.27 22.5898 11.22 22.0798 11.54C21.8798 11.66 21.7198 11.84 21.5598 12.01C21.4098 12.18 21.2598 12.36 21.1098 12.54C20.8498 12.88 20.6198 13.3 20.5098 13.73C20.3298 14.46 20.4498 15.2 21.1998 15.64Z" fill="#E16272"/>
<path d="M38.3998 11C38.2198 10.59 37.9398 10.21 37.6298 9.90999C37.4598 9.74999 37.2898 9.59999 37.1098 9.44999C36.9298 9.29999 36.7498 9.14999 36.5298 9.04999C35.9798 8.80999 34.5698 9.05999 34.5698 9.83999C34.5698 9.98999 34.6198 10.14 34.6798 10.29C34.9298 10.94 35.1998 11.58 35.4798 12.22C35.6898 12.68 35.8498 13.29 36.3898 13.46C36.8998 13.63 37.5898 13.29 37.9798 12.98C38.6798 12.44 38.6898 11.68 38.3998 11Z" fill="#E16272"/>
<path d="M30.7498 13.1499C30.7698 13.6699 30.9698 14.1599 31.2198 14.6199C31.5098 15.1699 31.6898 16.2599 32.5198 16.1499C32.7498 16.1199 32.9498 16.0099 33.1398 15.8799C33.6398 15.5499 34.4498 14.9099 34.3198 14.2199C34.2798 13.9999 34.1698 13.7899 34.0798 13.5899C33.9798 13.3799 33.8898 13.1599 33.7698 12.9599C33.3898 12.2499 32.7098 11.3199 31.7898 11.5599C31.4598 11.6499 31.1998 11.8499 31.0298 12.1199C30.8298 12.4099 30.7398 12.7899 30.7498 13.1499Z" fill="#E16272"/>
<path d="M17.3502 10.33C17.4002 10.56 17.6202 10.72 17.7902 10.85C18.0102 11.02 18.2502 11.17 18.5002 11.3C18.5502 11.32 18.5902 11.31 18.6202 11.28C18.6402 11.29 18.6602 11.29 18.6802 11.28C18.9702 11.16 19.2402 11.02 19.4902 10.85C19.7002 10.7 19.9202 10.53 20.0202 10.28C20.1102 10.05 20.0402 9.82003 19.9102 9.62003C19.7702 9.41003 19.5902 9.21003 19.4102 9.03003C19.2402 8.86003 19.0702 8.64003 18.8002 8.75003C18.5702 8.84003 18.3502 9.00003 18.1502 9.16003C17.9502 9.32003 17.7602 9.50003 17.5902 9.69003C17.4502 9.86003 17.3002 10.09 17.3502 10.33Z" fill="#E16272"/>
<path d="M16.12 7.02003C16.41 7.61003 17.03 7.25003 17.46 6.97003C17.62 6.86003 17.78 6.73003 17.84 6.54003C17.97 6.10003 17.52 5.44003 17.33 5.07003C17.31 5.03003 17.29 4.99003 17.25 4.96003C17.21 4.92003 17.15 4.91003 17.09 4.90003C16.4 4.77003 16.05 5.21003 15.94 5.77003C15.88 6.20003 15.94 6.68003 16.12 7.02003Z" fill="#E16272"/>
<path d="M37.8998 6.97998C38.2098 7.02998 38.6898 6.99998 38.8898 6.70998C39.0398 6.48998 39.0598 6.15998 39.0698 5.90998C39.0798 5.63998 39.0898 5.31998 38.9398 5.07998C38.5298 4.43998 37.6198 4.85998 37.4298 5.45998C37.3898 5.57998 37.3798 5.69998 37.3398 5.81998C37.2898 5.97998 37.2398 6.13998 37.2198 6.28998C37.1798 6.68998 37.5498 6.92998 37.8998 6.97998Z" fill="#E16272"/>
</g>
<defs>
<clipPath id="clip0_323_547">
<rect width="55" height="75" fill="white" transform="translate(0 0.5)"/>
</clipPath>
</defs>
</svg>
