<svg width="24" height="20" viewBox="0 0 24 20" fill="none" xmlns="http://www.w3.org/2000/svg">
<g clip-path="url(#clip0_301_713)">
<path d="M22.48 8.82003C22.47 8.81003 22.47 8.79003 22.46 8.78003C22.46 8.78003 22.46 8.78003 22.46 8.77003C22.41 8.69003 22.33 8.63003 22.25 8.59003C22.77 7.31003 23.06 5.92003 23.06 4.46003C23.06 3.31003 22.89 2.10003 22.58 0.910034H22.35C22.67 2.10003 22.84 3.30003 22.84 4.46003C22.84 5.90003 22.55 7.27003 22.04 8.53003C21.7 8.51003 21.35 8.81003 21.38 9.16003C21.39 9.31003 21.46 9.44003 21.56 9.54003C20.96 10.66 20.18 11.66 19.24 12.5C19.18 12.43 19.1 12.38 19.01 12.35C18.64 12.23 18.2 12.57 18.23 12.96C18.24 13.06 18.27 13.15 18.33 13.23C17.32 13.96 16.18 14.52 14.96 14.87C14.95 14.82 14.93 14.78 14.9 14.74C14.89 14.73 14.89 14.71 14.88 14.7C14.88 14.7 14.88 14.7 14.88 14.69C14.81 14.59 14.71 14.5 14.58 14.46C14.21 14.35 13.77 14.68 13.8 15.07C13.8 15.09 13.81 15.11 13.81 15.13C13.22 15.23 12.62 15.28 12.01 15.28C11.32 15.28 10.65 15.21 9.99996 15.08C9.99996 15.05 9.98996 15.01 9.98996 14.97C9.97996 14.9 9.94996 14.83 9.90996 14.77C9.89996 14.76 9.89996 14.74 9.88996 14.73C9.88996 14.73 9.88996 14.73 9.87996 14.72C9.80996 14.62 9.70996 14.53 9.57996 14.5C9.30996 14.41 9.00996 14.57 8.86996 14.81C7.47996 14.39 6.20996 13.7 5.11996 12.8C5.17996 12.68 5.19996 12.54 5.16996 12.4C5.15996 12.33 5.12996 12.26 5.08996 12.2C5.07996 12.19 5.07996 12.17 5.06996 12.16C5.06996 12.16 5.06996 12.16 5.06996 12.15C4.99996 12.05 4.89996 11.96 4.76996 11.92C4.59996 11.87 4.41996 11.91 4.27996 12.01C3.49996 11.22 2.84996 10.31 2.33996 9.32003C2.35996 9.29003 2.38996 9.27003 2.40996 9.23003C2.47996 9.11003 2.48996 8.97003 2.45996 8.83003C2.44996 8.76003 2.41996 8.69003 2.37996 8.63003C2.37996 8.62003 2.36996 8.61003 2.36996 8.60003C2.36996 8.60003 2.36996 8.60003 2.36996 8.59003C2.29996 8.49003 2.19996 8.40003 2.06996 8.36003C2.01996 8.34003 1.96996 8.34003 1.90996 8.34003C1.43996 7.13003 1.18996 5.83003 1.18996 4.46003C1.18996 3.31003 1.35996 2.10003 1.67996 0.910034H1.43996C1.12996 2.10003 0.959961 3.30003 0.959961 4.46003C0.959961 5.84003 1.21996 7.17003 1.67996 8.39003C1.44996 8.48003 1.25996 8.71003 1.27996 8.97003C1.30996 9.35003 1.70996 9.62003 2.06996 9.51003C2.07996 9.51003 2.07996 9.51003 2.08996 9.50003C2.09996 9.50003 2.11996 9.49003 2.12996 9.49003C2.13996 9.49003 2.13996 9.48003 2.14996 9.48003C2.15996 9.48003 2.15996 9.47003 2.16996 9.46003C2.67996 10.46 3.33996 11.37 4.11996 12.16C4.03996 12.27 3.98996 12.4 3.99996 12.53C4.02996 12.91 4.42996 13.18 4.78996 13.07C4.79996 13.07 4.79996 13.07 4.80996 13.06C4.81996 13.06 4.83996 13.05 4.84996 13.05C4.84996 13.05 4.85996 13.04 4.86996 13.04C4.90996 13.02 4.95996 12.99 4.99996 12.96C6.10996 13.88 7.40996 14.59 8.82996 15.02C8.82996 15.05 8.81996 15.08 8.81996 15.11C8.84996 15.48 9.24996 15.76 9.60996 15.65C9.60996 15.65 9.61996 15.65 9.61996 15.64C9.63996 15.64 9.64996 15.63 9.65996 15.63C9.66996 15.63 9.66996 15.62 9.67996 15.62C9.78996 15.57 9.88996 15.49 9.94996 15.38C9.95996 15.35 9.96996 15.33 9.97996 15.3C10.64 15.42 11.33 15.5 12.02 15.5C12.66 15.5 13.29 15.44 13.9 15.34C14.04 15.56 14.33 15.69 14.59 15.6C14.6 15.6 14.6 15.6 14.61 15.6C14.62 15.6 14.64 15.59 14.65 15.59C14.66 15.59 14.66 15.58 14.67 15.58C14.78 15.53 14.88 15.45 14.94 15.34C14.98 15.26 15 15.18 15 15.09C16.27 14.73 17.45 14.15 18.5 13.39C18.65 13.5 18.85 13.55 19.03 13.49C19.04 13.49 19.04 13.49 19.05 13.49C19.06 13.48 19.08 13.48 19.09 13.48C19.09 13.48 19.1 13.47 19.11 13.47C19.22 13.42 19.32 13.33 19.38 13.23C19.45 13.1 19.46 12.96 19.43 12.82C19.42 12.77 19.41 12.73 19.39 12.68C20.35 11.82 21.15 10.8 21.77 9.66003C21.9 9.72003 22.05 9.74003 22.19 9.69003C22.2 9.69003 22.2 9.69003 22.21 9.69003C22.22 9.69003 22.24 9.68003 22.25 9.68003C22.26 9.68003 22.26 9.67003 22.27 9.67003C22.38 9.62003 22.48 9.54003 22.54 9.43003C22.61 9.30003 22.62 9.16003 22.59 9.02003C22.55 8.95003 22.52 8.88003 22.48 8.82003Z" fill="#602651"/>
<path d="M21.5102 4.07003C21.5002 4.06003 21.5002 4.04003 21.4902 4.03003C21.4902 4.03003 21.4902 4.03003 21.4802 4.03003C21.4102 3.93003 21.3202 3.85003 21.2002 3.81003C21.2102 3.72003 21.2202 3.64003 21.2202 3.55003C21.2302 3.55003 21.2402 3.55003 21.2502 3.54003C21.2602 3.54003 21.2602 3.53003 21.2702 3.53003C21.3802 3.48003 21.4802 3.40003 21.5402 3.29003C21.6102 3.17003 21.6202 3.02003 21.5902 2.88003C21.5802 2.81003 21.5502 2.74003 21.5102 2.68003C21.5002 2.67003 21.5002 2.65003 21.4902 2.64003C21.4902 2.64003 21.4902 2.64003 21.4802 2.64003C21.4202 2.54003 21.3202 2.47003 21.2202 2.43003C21.2102 2.31003 21.2002 2.21003 21.1902 2.10003C21.2802 2.05003 21.3702 1.98003 21.4202 1.88003C21.4902 1.75003 21.5002 1.61003 21.4702 1.47003C21.4602 1.40003 21.4302 1.33003 21.3902 1.27003C21.3802 1.26003 21.3802 1.24003 21.3702 1.23003C21.3702 1.23003 21.3702 1.23003 21.3702 1.22003C21.3002 1.12003 21.2002 1.03003 21.0702 0.990034C21.0602 0.990034 21.0502 0.990034 21.0402 0.990034C21.0302 0.970034 21.0302 0.940034 21.0202 0.910034H20.7902C20.8002 0.940034 20.8002 0.970034 20.8102 1.00003C20.5202 1.05003 20.2602 1.32003 20.2802 1.62003C20.3102 1.96003 20.6402 2.21003 20.9702 2.18003C20.9802 2.25003 20.9802 2.32003 20.9902 2.39003C20.6702 2.41003 20.3802 2.69003 20.4002 3.01003C20.4302 3.32003 20.7002 3.55003 20.9902 3.56003C20.9902 3.63003 20.9802 3.70003 20.9702 3.77003C20.6702 3.81003 20.3802 4.09003 20.4002 4.41003C20.4202 4.65003 20.5902 4.84003 20.8102 4.93003C20.7902 4.99003 20.7802 5.05003 20.7702 5.11003C20.4302 5.08003 20.0702 5.38003 20.1002 5.74003C20.1202 5.95003 20.2502 6.13003 20.4302 6.22003C20.3902 6.31003 20.3602 6.41003 20.3202 6.50003C20.3102 6.49003 20.3002 6.48003 20.2902 6.48003C19.9202 6.36003 19.4802 6.70003 19.5102 7.09003C19.5302 7.28003 19.6402 7.45003 19.8002 7.55003C19.7602 7.63003 19.7102 7.70003 19.6602 7.77003C19.6502 7.77003 19.6502 7.76003 19.6402 7.76003C19.2702 7.64003 18.8302 7.98003 18.8602 8.37003C18.8702 8.49003 18.9202 8.60003 19.0002 8.69003C18.9502 8.74003 18.9102 8.80003 18.8602 8.85003C18.8102 8.81003 18.7602 8.78003 18.7002 8.76003C18.3302 8.64003 17.8902 8.98003 17.9202 9.37003C17.9302 9.49003 17.9802 9.59003 18.0402 9.68003C17.9302 9.77003 17.8202 9.87003 17.7102 9.96003C17.6502 9.90003 17.5802 9.85003 17.5002 9.83003C17.1302 9.71003 16.6902 10.05 16.7202 10.44C16.7302 10.51 16.7502 10.57 16.7702 10.63C16.6802 10.68 16.5902 10.73 16.5102 10.78C16.5002 10.77 16.4902 10.75 16.4902 10.74C16.4902 10.74 16.4902 10.74 16.4902 10.73C16.4202 10.63 16.3202 10.54 16.1902 10.51C15.8202 10.39 15.3802 10.73 15.4102 11.12C15.4202 11.18 15.4302 11.24 15.4602 11.3C15.4302 11.31 15.3902 11.33 15.3602 11.34C15.3502 11.31 15.3302 11.29 15.3202 11.26C15.3102 11.25 15.3102 11.23 15.3002 11.22C15.3002 11.22 15.3002 11.22 15.3002 11.21C15.2302 11.11 15.1302 11.02 15.0002 10.98C14.6302 10.87 14.1902 11.2 14.2202 11.59C14.2202 11.62 14.2302 11.66 14.2402 11.69C14.1602 11.71 14.0902 11.72 14.0202 11.74C14.0102 11.7 13.9902 11.67 13.9702 11.63C13.9602 11.62 13.9602 11.6 13.9502 11.59C13.9502 11.59 13.9502 11.59 13.9402 11.59C13.8702 11.49 13.7702 11.4 13.6402 11.36C13.2902 11.25 12.8802 11.55 12.8602 11.91C12.7602 11.92 12.6602 11.93 12.5602 11.94C12.5502 11.87 12.5202 11.81 12.4902 11.76C12.4802 11.75 12.4802 11.73 12.4702 11.73C12.4702 11.73 12.4702 11.73 12.4702 11.72C12.4002 11.62 12.3002 11.53 12.1702 11.49C11.8502 11.39 11.5002 11.62 11.4102 11.92C11.3102 11.91 11.2002 11.9 11.1002 11.89C11.1002 11.86 11.0902 11.82 11.0902 11.79C11.0802 11.72 11.0502 11.65 11.0102 11.59C11.0002 11.58 11.0002 11.56 10.9902 11.55C10.9902 11.55 10.9902 11.55 10.9802 11.54C10.9102 11.44 10.8102 11.35 10.6802 11.32C10.3902 11.23 10.0702 11.41 9.95017 11.68L9.70017 11.61C9.70017 11.56 9.70017 11.5 9.69017 11.45C9.68017 11.38 9.65017 11.31 9.61017 11.25C9.60017 11.24 9.60017 11.22 9.59017 11.21C9.59017 11.21 9.59017 11.21 9.59017 11.2C9.52017 11.1 9.42017 11.01 9.29017 10.97C9.04017 10.89 8.77017 11.02 8.62017 11.22C8.53017 11.18 8.44017 11.14 8.36017 11.1C8.38017 11.01 8.38017 10.93 8.36017 10.84C8.35017 10.77 8.32017 10.7 8.28017 10.64C8.22017 10.66 8.22017 10.65 8.21017 10.63C8.21017 10.63 8.21017 10.63 8.20017 10.62C8.13017 10.52 8.03017 10.43 7.90017 10.4C7.69017 10.33 7.45017 10.42 7.30017 10.58C7.22017 10.53 7.14017 10.48 7.07017 10.43C7.12017 10.31 7.13017 10.19 7.10017 10.06C7.09017 9.99003 7.06017 9.92003 7.02017 9.86003C7.02017 9.86003 7.02017 9.84003 7.01017 9.83003C6.94017 9.73003 6.84017 9.64003 6.71017 9.60003C6.52017 9.54003 6.31017 9.60003 6.16017 9.72003C6.09017 9.66003 6.02017 9.60003 5.96017 9.53003C5.97017 9.51003 5.99017 9.49004 6.00017 9.47003C6.07017 9.34003 6.08017 9.20003 6.05017 9.06003C6.04017 8.99003 6.01017 8.92003 5.97017 8.86003C5.97017 8.85003 5.97017 8.84003 5.96017 8.83003C5.96017 8.83003 5.96017 8.83003 5.96017 8.82003C5.89017 8.72003 5.79017 8.63003 5.66017 8.59003C5.48017 8.54003 5.30017 8.58003 5.15017 8.68003C5.11017 8.63003 5.07017 8.57003 5.02017 8.52003C5.06017 8.48003 5.10017 8.44003 5.12017 8.39003C5.19017 8.26003 5.20017 8.12003 5.17017 7.98003C5.17017 7.91003 5.14017 7.85003 5.10017 7.78003C5.09017 7.77003 5.09017 7.76003 5.08017 7.75003C5.08017 7.75003 5.08017 7.75003 5.08017 7.74003C5.00017 7.63003 4.90017 7.55003 4.77017 7.51003C4.64017 7.47003 4.49017 7.49003 4.36017 7.55003C4.33017 7.50003 4.30017 7.45003 4.27017 7.39003C4.31017 7.35003 4.35017 7.30003 4.38017 7.25003C4.45017 7.12003 4.46017 6.98003 4.43017 6.84003C4.43017 6.77003 4.40017 6.70003 4.36017 6.64003C4.36017 6.63003 4.35017 6.62003 4.34017 6.61003C4.34017 6.61003 4.34017 6.61003 4.33017 6.60003C4.26017 6.50003 4.16017 6.41003 4.03017 6.37003C3.95017 6.35003 3.86017 6.35003 3.78017 6.36003C3.75017 6.29003 3.72017 6.21003 3.69017 6.14003C3.79017 6.09003 3.87017 6.01003 3.92017 5.91003C3.99017 5.79003 4.01017 5.64003 3.98017 5.51003C3.97017 5.43003 3.94017 5.37003 3.90017 5.31003C3.90017 5.30003 3.89017 5.28003 3.88017 5.27003C3.88017 5.27003 3.88017 5.27003 3.87017 5.26003C3.80017 5.16003 3.70017 5.08003 3.58017 5.03003C3.50017 5.01003 3.43017 5.01003 3.36017 5.02003C3.34017 4.97003 3.33017 4.91003 3.32017 4.85003H3.33017C3.33017 4.85003 3.34017 4.85003 3.34017 4.84003C3.36017 4.84003 3.37017 4.83003 3.38017 4.83003C3.39017 4.83003 3.40017 4.82003 3.40017 4.82003C3.51017 4.77003 3.61017 4.69003 3.67017 4.58003C3.74017 4.46003 3.75017 4.31003 3.72017 4.17003C3.71017 4.10003 3.68017 4.03003 3.64017 3.97003C3.64017 3.96003 3.63017 3.95003 3.62017 3.94003C3.62017 3.94003 3.62017 3.94003 3.61017 3.94003C3.54017 3.84003 3.44017 3.75003 3.31017 3.71003C3.27017 3.68003 3.21017 3.68003 3.16017 3.68003C3.15017 3.61003 3.15017 3.54003 3.14017 3.47003C3.16017 3.46003 3.18017 3.46003 3.21017 3.46003C3.22017 3.46003 3.22017 3.46003 3.23017 3.45003C3.24017 3.45003 3.26017 3.44003 3.27017 3.44003C3.27017 3.44003 3.28017 3.43003 3.29017 3.43003C3.40017 3.38003 3.50017 3.30003 3.56017 3.19003C3.62017 3.06003 3.63017 2.92003 3.60017 2.78003C3.59017 2.71003 3.56017 2.64003 3.53017 2.58003C3.52017 2.57003 3.51017 2.55003 3.51017 2.54003C3.51017 2.54003 3.51017 2.54003 3.51017 2.53003C3.43017 2.43003 3.33017 2.35003 3.20017 2.31003C3.19017 2.30003 3.17017 2.30003 3.16017 2.30003C3.17017 2.24003 3.17017 2.18003 3.17017 2.13003C3.18017 2.13003 3.20017 2.13003 3.21017 2.12003C3.22017 2.12003 3.22017 2.12003 3.23017 2.11003C3.24017 2.11003 3.26017 2.10003 3.27017 2.10003C3.27017 2.10003 3.28017 2.09003 3.29017 2.09003C3.40017 2.04003 3.50017 1.96003 3.56017 1.85003C3.62017 1.73003 3.63017 1.58003 3.60017 1.44003C3.59017 1.37003 3.56017 1.30003 3.52017 1.24003C3.52017 1.23003 3.51017 1.22003 3.51017 1.21003C3.51017 1.21003 3.51017 1.21003 3.51017 1.20003C3.45017 1.13003 3.39017 1.08003 3.32017 1.03003C3.33017 0.990034 3.34017 0.950034 3.34017 0.910034H3.12017L3.11017 0.960034C2.76017 0.920034 2.39017 1.22003 2.42017 1.58003C2.44017 1.86003 2.68017 2.09003 2.95017 2.13003C2.94017 2.19003 2.94017 2.24003 2.93017 2.30003C2.65017 2.36003 2.40017 2.62003 2.42017 2.92003C2.44017 3.19003 2.66017 3.41003 2.92017 3.47003C2.93017 3.56003 2.93017 3.65003 2.94017 3.73003C2.70017 3.82003 2.52017 4.05003 2.54017 4.31003C2.56017 4.61003 2.81017 4.83003 3.09017 4.87003C3.11017 4.94003 3.13017 5.01003 3.14017 5.09003C2.93017 5.19003 2.78017 5.41003 2.80017 5.65003C2.83017 5.99003 3.15017 6.24003 3.48017 6.21003C3.50017 6.28003 3.54017 6.36003 3.57017 6.44003C3.38017 6.55003 3.24017 6.76003 3.26017 6.98003C3.29017 7.35003 3.69017 7.63003 4.05017 7.52003H4.06017C4.07017 7.52003 4.08017 7.51003 4.09017 7.51003C4.12017 7.57003 4.16017 7.62003 4.19017 7.68003C4.07017 7.80003 3.99017 7.95003 4.00017 8.12003C4.03017 8.49003 4.43017 8.77003 4.79017 8.66003C4.80017 8.66003 4.80017 8.66003 4.81017 8.66003C4.82017 8.65003 4.84017 8.65003 4.85017 8.65003C4.90017 8.72003 4.95017 8.78003 5.00017 8.84003C4.91017 8.94003 4.86017 9.07003 4.87017 9.20003C4.90017 9.58003 5.31017 9.85003 5.66017 9.74003C5.67017 9.74003 5.67017 9.74003 5.68017 9.73003C5.70017 9.73003 5.71017 9.72003 5.72017 9.72003C5.73017 9.72003 5.73017 9.71003 5.74017 9.71003C5.76017 9.70003 5.77017 9.69003 5.79017 9.68003C5.86017 9.75003 5.94017 9.82003 6.01017 9.89003C5.95017 9.99003 5.92017 10.09 5.92017 10.21C5.95017 10.58 6.35017 10.86 6.71017 10.75H6.72017C6.74017 10.74 6.75017 10.74 6.76017 10.73C6.77017 10.73 6.77017 10.72 6.78017 10.72C6.84017 10.69 6.89017 10.66 6.94017 10.62C7.01017 10.67 7.09017 10.72 7.17017 10.77C7.14017 10.85 7.12017 10.93 7.12017 11.02C7.15017 11.39 7.55017 11.67 7.91017 11.56C7.91017 11.56 7.92017 11.56 7.92017 11.55C7.94017 11.55 7.95017 11.54 7.96017 11.54C7.97017 11.54 7.97017 11.53 7.98017 11.53C8.07017 11.49 8.14017 11.42 8.20017 11.34C8.29017 11.38 8.37017 11.42 8.46017 11.46C8.45017 11.51 8.44017 11.56 8.44017 11.62C8.47017 12 8.87017 12.27 9.23017 12.16C9.24017 12.16 9.24017 12.16 9.25017 12.15C9.26017 12.15 9.28017 12.14 9.29017 12.14C9.30017 12.14 9.30017 12.13 9.31017 12.13C9.42017 12.08 9.52017 12 9.58017 11.89C9.58017 11.88 9.59017 11.87 9.59017 11.86C9.67017 11.88 9.75017 11.91 9.84017 11.93C9.84017 11.94 9.84017 11.95 9.84017 11.96C9.87017 12.33 10.2702 12.61 10.6302 12.5C10.6302 12.5 10.6402 12.5 10.6402 12.49C10.6602 12.49 10.6702 12.48 10.6802 12.48C10.6902 12.48 10.6902 12.47 10.7002 12.47C10.8102 12.42 10.9102 12.34 10.9702 12.23C10.9902 12.2 11.0002 12.17 11.0102 12.14C11.1202 12.15 11.2302 12.17 11.3402 12.17C11.4002 12.52 11.7802 12.77 12.1202 12.66C12.1302 12.66 12.1302 12.66 12.1402 12.66C12.1502 12.65 12.1702 12.65 12.1802 12.65C12.1902 12.65 12.1902 12.64 12.2002 12.64C12.3102 12.59 12.4102 12.51 12.4702 12.4C12.5002 12.34 12.5202 12.27 12.5302 12.2C12.6402 12.19 12.7502 12.18 12.8502 12.17C12.9602 12.46 13.3002 12.64 13.6002 12.54H13.6102C13.6302 12.53 13.6402 12.53 13.6502 12.53C13.6602 12.53 13.6602 12.52 13.6702 12.52C13.7802 12.47 13.8802 12.39 13.9402 12.28C13.9902 12.19 14.0102 12.1 14.0102 12C14.1002 11.98 14.2002 11.96 14.3002 11.93C14.4502 12.13 14.7202 12.24 14.9702 12.16C14.9802 12.16 14.9802 12.16 14.9902 12.15C15.0002 12.15 15.0202 12.14 15.0302 12.14C15.0302 12.14 15.0402 12.13 15.0502 12.13C15.1602 12.08 15.2602 12 15.3202 11.89C15.3702 11.8 15.3902 11.69 15.3802 11.59C15.4402 11.57 15.5002 11.54 15.5602 11.52C15.7202 11.68 15.9602 11.76 16.1702 11.69C16.1802 11.69 16.1802 11.69 16.1902 11.68C16.2102 11.68 16.2202 11.67 16.2302 11.67C16.2402 11.67 16.2402 11.66 16.2502 11.66C16.3602 11.61 16.4602 11.53 16.5202 11.42C16.5802 11.3 16.6002 11.16 16.5702 11.03C16.6802 10.97 16.7802 10.91 16.8902 10.84C17.0502 11 17.2802 11.07 17.5002 11H17.5102C17.5302 11 17.5402 10.99 17.5502 10.99C17.5602 10.99 17.5602 10.98 17.5702 10.98C17.6802 10.93 17.7802 10.85 17.8402 10.74C17.9102 10.61 17.9202 10.47 17.8902 10.33C17.8802 10.27 17.8602 10.22 17.8302 10.17C17.9502 10.07 18.0702 9.97003 18.1902 9.86003C18.3302 9.95003 18.5202 9.99003 18.6902 9.94003C18.7002 9.94003 18.7002 9.94003 18.7102 9.94003C18.7102 9.91003 18.7202 9.91003 18.7402 9.91003C18.7402 9.91003 18.7502 9.90003 18.7602 9.90003C18.8702 9.85003 18.9702 9.76003 19.0302 9.66003C19.1002 9.53003 19.1102 9.39003 19.0802 9.25003C19.0702 9.18003 19.0402 9.11003 19.0002 9.05003C19.0002 9.04003 18.9902 9.04003 18.9902 9.03003C19.0402 8.97003 19.1002 8.91003 19.1502 8.85003C19.2902 8.94003 19.4702 8.97003 19.6302 8.92003C19.6402 8.92003 19.6402 8.92003 19.6502 8.91003C19.6602 8.91003 19.6802 8.90003 19.6902 8.90003C19.7002 8.90003 19.7002 8.89003 19.7102 8.89003C19.8202 8.84003 19.9202 8.76003 19.9802 8.65003C20.0502 8.53003 20.0602 8.38003 20.0302 8.24003C20.0202 8.17003 19.9902 8.10003 19.9502 8.04003C19.9402 8.03003 19.9402 8.01003 19.9302 8.00003C19.9302 8.00003 19.9302 8.00003 19.9302 7.99003C19.9002 7.96003 19.8702 7.93003 19.8402 7.90003C19.8902 7.81003 19.9402 7.73003 19.9902 7.64003C20.0902 7.66003 20.1902 7.66003 20.2802 7.63003C20.2902 7.63003 20.2902 7.63003 20.3002 7.63003C20.3202 7.62003 20.3302 7.62003 20.3402 7.62003C20.3502 7.62003 20.3502 7.61003 20.3602 7.61003C20.4702 7.56003 20.5702 7.48003 20.6302 7.37003C20.7002 7.24003 20.7102 7.10003 20.6802 6.96003C20.6702 6.89003 20.6402 6.82003 20.6002 6.76003C20.5902 6.75003 20.5802 6.73003 20.5802 6.72003C20.5602 6.69003 20.5302 6.67003 20.5102 6.64003C20.5602 6.53003 20.6002 6.42003 20.6402 6.30003C20.7202 6.31003 20.8102 6.31003 20.8902 6.28003H20.9002C20.9202 6.27003 20.9302 6.27003 20.9402 6.27003C20.9502 6.27003 20.9502 6.26003 20.9602 6.26003C21.0702 6.21003 21.1702 6.13003 21.2302 6.02003C21.3002 5.89003 21.3102 5.75003 21.2802 5.61003C21.2702 5.54003 21.2402 5.47003 21.2002 5.41003C21.1902 5.40003 21.1902 5.38003 21.1802 5.37003C21.1302 5.30003 21.0602 5.24003 20.9902 5.20003C21.0102 5.13003 21.0202 5.06003 21.0402 4.98003C21.0902 4.98003 21.1502 4.97003 21.2002 4.96003H21.2102C21.2302 4.95003 21.2402 4.95003 21.2502 4.95003C21.2602 4.95003 21.2602 4.94003 21.2702 4.94003C21.3802 4.89003 21.4802 4.81003 21.5402 4.70003C21.6102 4.57003 21.6202 4.43003 21.5902 4.29003C21.5702 4.20003 21.5402 4.13003 21.5102 4.07003Z" fill="#602651"/>
<path d="M9.59015 17.7899C9.58015 17.8499 9.58015 17.9099 9.58015 17.9599C9.57015 18.8399 10.6701 19.0099 11.3401 19.0499C12.0401 19.0899 12.9401 19.1899 13.5601 18.7999C14.0001 18.5199 13.9701 18.1099 13.9201 17.6399C13.8301 16.8699 13.6601 16.1099 13.5401 15.3499C13.4501 14.7899 13.3601 14.1199 12.9501 13.6999C12.5901 13.3299 12.0401 13.1699 11.5401 13.2399C10.9001 13.3299 10.6401 14.0499 10.4601 14.5899C10.1601 15.4699 9.89015 16.3699 9.70015 17.2799C9.65015 17.4499 9.62015 17.6199 9.59015 17.7899Z" fill="#E16272"/>
<path d="M5.67986 16.5C6.10986 16.75 6.83986 16.99 7.31986 16.75C7.82986 16.5 7.89986 15.88 8.03986 15.39C8.23986 14.72 8.40986 14.05 8.55986 13.37C8.58986 13.22 8.62986 13.06 8.60986 12.91C8.49986 12.13 7.06986 12.08 6.55986 12.4C6.35986 12.52 6.19986 12.7 6.03986 12.87C5.88986 13.04 5.73986 13.22 5.58986 13.4C5.32986 13.74 5.09986 14.16 4.98986 14.59C4.80986 15.32 4.91986 16.06 5.67986 16.5Z" fill="#E16272"/>
<path d="M22.87 11.86C22.69 11.45 22.41 11.07 22.1 10.77C21.93 10.61 21.76 10.46 21.58 10.31C21.4 10.16 21.22 10.01 21 9.90997C20.45 9.66997 19.04 9.91997 19.04 10.7C19.04 10.85 19.09 11 19.15 11.15C19.4 11.8 19.67 12.44 19.95 13.08C20.16 13.54 20.32 14.15 20.86 14.32C21.37 14.49 22.06 14.15 22.45 13.84C23.16 13.3 23.16 12.54 22.87 11.86Z" fill="#E16272"/>
<path d="M15.2301 14.0099C15.2501 14.5299 15.4501 15.0199 15.7001 15.4799C15.9901 16.0299 16.1701 17.1199 17.0001 17.0099C17.2301 16.9799 17.4301 16.8699 17.6201 16.7399C18.1201 16.4099 18.9301 15.7699 18.8001 15.0799C18.7601 14.8599 18.6501 14.6499 18.5601 14.4499C18.4601 14.2399 18.3701 14.0199 18.2501 13.8199C17.8701 13.1099 17.1901 12.1799 16.2701 12.4199C15.9401 12.5099 15.6801 12.7099 15.5101 12.9799C15.3101 13.2699 15.2101 13.6499 15.2301 14.0099Z" fill="#E16272"/>
<path d="M1.83014 11.19C1.88014 11.42 2.10014 11.58 2.27014 11.71C2.49014 11.88 2.73014 12.03 2.98014 12.16C3.03014 12.18 3.07014 12.17 3.10014 12.14C3.12014 12.15 3.14014 12.15 3.16014 12.14C3.45014 12.02 3.72014 11.88 3.97014 11.71C4.18014 11.56 4.40014 11.39 4.50014 11.14C4.59014 10.91 4.52014 10.68 4.38014 10.48C4.24014 10.27 4.06014 10.07 3.88014 9.89002C3.72014 9.72002 3.54014 9.50002 3.28014 9.61002C3.05014 9.70002 2.83014 9.86002 2.63014 10.01C2.43014 10.17 2.24014 10.35 2.07014 10.54C1.93014 10.72 1.78014 10.95 1.83014 11.19Z" fill="#E16272"/>
<path d="M0.590039 7.88002C0.880039 8.47002 1.50004 8.11002 1.93004 7.83002C2.10004 7.73002 2.26004 7.60002 2.32004 7.41002C2.45004 6.97002 2.00004 6.31002 1.81004 5.94002C1.79004 5.90002 1.77004 5.86002 1.73004 5.83002C1.69004 5.79002 1.63004 5.78002 1.57004 5.77002C0.880039 5.64002 0.530039 6.08002 0.430039 6.64002C0.360039 7.06002 0.420039 7.54002 0.590039 7.88002Z" fill="#E16272"/>
<path d="M22.3802 7.84997C22.6902 7.89997 23.1702 7.86997 23.3702 7.57997C23.5202 7.35997 23.5402 7.02997 23.5502 6.77997C23.5602 6.50997 23.5702 6.18997 23.4202 5.94997C23.0102 5.30997 22.1002 5.72997 21.9102 6.32997C21.8702 6.44997 21.8602 6.56997 21.8202 6.68997C21.7702 6.84997 21.7202 7.00997 21.7002 7.15997C21.6602 7.54997 22.0302 7.78997 22.3802 7.84997Z" fill="#E16272"/>
</g>
<defs>
<clipPath id="clip0_301_713">
<rect width="23.15" height="18.18" fill="white" transform="translate(0.399902 0.910034)"/>
</clipPath>
</defs>
</svg>
