<svg width="33" height="26" viewBox="0 0 33 26" fill="none" xmlns="http://www.w3.org/2000/svg">
<g clip-path="url(#clip0_301_8422)">
<path d="M32.0999 6.98006C32.1599 6.44006 32.1899 5.89006 32.1899 5.33006C32.1899 4.06006 32.0399 2.73006 31.7499 1.41006C31.6399 1.36006 31.5199 1.31006 31.4099 1.26006C31.7099 2.63006 31.8799 4.01006 31.8799 5.33006C31.8799 5.88006 31.8499 6.43006 31.7899 6.96006C31.6699 8.01006 31.4499 9.02006 31.1199 9.99006C31.0199 10.3201 30.8999 10.6401 30.7699 10.9601C30.3099 10.9301 29.8299 11.3501 29.8699 11.8301C29.8799 12.0401 29.9799 12.2201 30.1199 12.3501C29.2999 13.9001 28.2099 15.2901 26.9199 16.4501C26.8299 16.3601 26.7299 16.2801 26.5999 16.2401C26.0899 16.0801 25.4799 16.5401 25.5199 17.0901C25.5299 17.2301 25.5799 17.3501 25.6599 17.4701C25.5199 17.5701 25.3799 17.6701 25.2399 17.7501C24.1099 18.5101 22.8799 19.1201 21.5599 19.5601C21.3699 19.6201 21.1799 19.6801 20.9899 19.7301C20.9799 19.6601 20.9499 19.6001 20.9099 19.5501C20.8999 19.5301 20.8899 19.5101 20.8899 19.4901C20.8799 19.4901 20.8799 19.4901 20.8799 19.4901C20.8799 19.4801 20.8799 19.4801 20.8799 19.4801C20.7799 19.3401 20.6399 19.2201 20.4699 19.1701C19.9499 19.0101 19.3399 19.4701 19.3799 20.0101C19.3799 20.0401 19.3899 20.0601 19.3999 20.0901C19.2599 20.1101 19.1199 20.1301 18.9799 20.1501C18.2999 20.2501 17.6099 20.3001 16.9099 20.3001C16.0899 20.3001 15.2799 20.2301 14.4999 20.0901C14.3799 20.0701 14.2499 20.0501 14.1299 20.0301C14.1299 19.9901 14.1199 19.9301 14.1099 19.8801C14.0999 19.7801 14.0599 19.6901 13.9999 19.6101C13.9899 19.5901 13.9899 19.5801 13.9699 19.5601V19.5501C13.9699 19.5501 13.9699 19.5501 13.9599 19.5501C13.8699 19.4001 13.7299 19.2901 13.5499 19.2401C13.1799 19.1201 12.7699 19.3301 12.5799 19.6601C12.2899 19.5701 12.0099 19.4701 11.7299 19.3701C10.4699 18.9001 9.29988 18.2801 8.22988 17.5101C7.93988 17.3101 7.65988 17.0901 7.38988 16.8701C7.47988 16.7001 7.49988 16.5101 7.45988 16.3201C7.43988 16.2201 7.40988 16.1301 7.34988 16.0501C7.33988 16.0301 7.33988 16.0101 7.32988 16.0001C7.31988 15.9901 7.31988 15.9901 7.31988 15.9901C7.31988 15.9901 7.31988 15.9901 7.31988 15.9801C7.21988 15.8401 7.07988 15.7301 6.89988 15.6701C6.66988 15.6001 6.41988 15.6601 6.21988 15.7901C6.07988 15.6501 5.93988 15.5001 5.81988 15.3501C5.13988 14.6101 4.53988 13.8001 4.02988 12.9401C3.84988 12.6601 3.68988 12.3601 3.53988 12.0601C3.56988 12.0201 3.60988 11.9901 3.63988 11.9401C3.72988 11.7701 3.73988 11.5701 3.70988 11.3801C3.68988 11.2801 3.64988 11.1901 3.59988 11.1101C3.58988 11.0901 3.57988 11.0701 3.56988 11.0601C3.56988 11.0501 3.56988 11.0501 3.56988 11.0501C3.56988 11.0501 3.56988 11.0501 3.56988 11.0401C3.46988 10.9001 3.32988 10.7901 3.15988 10.7301C3.07988 10.7101 3.00988 10.7001 2.93988 10.7001C2.86988 10.5201 2.80988 10.3401 2.73988 10.1601C2.40988 9.19006 2.17988 8.18006 2.05988 7.13006C1.97988 6.54006 1.93988 5.94006 1.93988 5.33006C1.93988 3.98006 2.10988 2.58006 2.42988 1.19006C2.31988 1.24006 2.19988 1.28006 2.08988 1.33006C1.78988 2.68006 1.62988 4.03006 1.62988 5.33006C1.62988 5.96006 1.66988 6.58006 1.74988 7.19006C1.86988 8.27006 2.11988 9.32006 2.46988 10.3101C2.51988 10.4601 2.56988 10.6101 2.62988 10.7601C2.29988 10.8901 2.03988 11.2201 2.06988 11.5701C2.10988 12.1001 2.66988 12.4701 3.15988 12.3201C3.16988 12.3101 3.16988 12.3101 3.17988 12.3101C3.19988 12.3101 3.21988 12.3001 3.23988 12.2901C3.24988 12.2901 3.25988 12.2801 3.26988 12.2801C3.26988 12.2801 3.27988 12.2701 3.29988 12.2601C3.44988 12.5601 3.60988 12.8501 3.78988 13.1401C4.29988 14.0001 4.88988 14.7901 5.54988 15.5301C5.68988 15.6901 5.83988 15.8501 5.98988 16.0001C5.87988 16.1501 5.80988 16.3201 5.81988 16.5201C5.85988 17.0401 6.41988 17.4101 6.90988 17.2601C6.91988 17.2601 6.92988 17.2601 6.92988 17.2501C6.94988 17.2501 6.96988 17.2401 6.99988 17.2401C6.99988 17.2301 7.00988 17.2301 7.01988 17.2201C7.07988 17.2001 7.13988 17.1501 7.18988 17.1101C7.45988 17.3401 7.73988 17.5501 8.02988 17.7501C9.12988 18.5501 10.3499 19.2001 11.6499 19.6701C11.9199 19.7701 12.1999 19.8601 12.4799 19.9501C12.4799 19.9901 12.4699 20.0401 12.4699 20.0801C12.5099 20.6001 13.0699 20.9701 13.5599 20.8201C13.5699 20.8201 13.5799 20.8201 13.5799 20.8101C13.5999 20.8101 13.6199 20.8001 13.6399 20.8001C13.6499 20.7901 13.6599 20.7901 13.6599 20.7801C13.8199 20.7201 13.9599 20.6001 14.0399 20.4501C14.0599 20.4101 14.0699 20.3801 14.0799 20.3401C14.1899 20.3601 14.2999 20.3801 14.4099 20.3901C15.2299 20.5301 16.0599 20.6101 16.9099 20.6101C17.6299 20.6101 18.3399 20.5601 19.0299 20.4601C19.1899 20.4401 19.3499 20.4201 19.5099 20.3901C19.7099 20.6901 20.1099 20.8701 20.4699 20.7501C20.4799 20.7501 20.4799 20.7501 20.4899 20.7501C20.5099 20.7401 20.5299 20.7401 20.5499 20.7301C20.5599 20.7301 20.5699 20.7201 20.5799 20.7201C20.7299 20.6501 20.8599 20.5301 20.9499 20.3801C20.9999 20.2801 21.0299 20.1601 21.0299 20.0401C21.2399 19.9801 21.4499 19.9201 21.6599 19.8501V19.8401C22.9999 19.4101 24.2499 18.7901 25.3999 18.0201C25.5599 17.9201 25.7199 17.8001 25.8799 17.6901C26.0799 17.8501 26.3599 17.9101 26.6099 17.8301C26.6199 17.8301 26.6199 17.8201 26.6299 17.8201C26.6499 17.8101 26.6699 17.8101 26.6899 17.8101C26.6999 17.8001 26.7099 17.8001 26.7199 17.7901C26.8699 17.7201 26.9999 17.6101 27.0899 17.4601C27.1799 17.2801 27.1999 17.0801 27.1599 16.8901C27.1499 16.8301 27.1299 16.7601 27.0999 16.7001C28.4199 15.5201 29.5299 14.1101 30.3799 12.5301C30.5599 12.6101 30.7699 12.6401 30.9599 12.5701C30.9699 12.5701 30.9699 12.5701 30.9799 12.5701C30.9999 12.5601 31.0199 12.5601 31.0399 12.5501C31.0499 12.5501 31.0499 12.5401 31.0599 12.5401C31.2099 12.4701 31.3499 12.3501 31.4299 12.2001C31.5199 12.0301 31.5399 11.8301 31.4999 11.6401C31.4899 11.5401 31.4499 11.4501 31.3999 11.3601C31.3899 11.3501 31.3799 11.3301 31.3699 11.3101C31.3699 11.3001 31.3599 11.3001 31.3599 11.3001C31.2899 11.1901 31.1899 11.1101 31.0699 11.0501C31.2099 10.7201 31.3299 10.3801 31.4399 10.0301C31.7599 9.06006 31.9899 8.04006 32.0999 6.98006Z" fill="#602651"/>
<path d="M30.0502 4.79005C30.0402 4.78005 30.0302 4.76005 30.0202 4.74005C30.0102 4.74005 30.0102 4.73005 30.0102 4.73005C29.9202 4.59005 29.7802 4.48005 29.6202 4.43005C29.6302 4.31005 29.6402 4.19005 29.6502 4.06005C29.6602 4.06005 29.6702 4.06005 29.6802 4.05005C29.6902 4.05005 29.7002 4.04005 29.7102 4.04005C29.8602 3.97005 30.0002 3.86005 30.0802 3.70005C30.1702 3.53005 30.1902 3.33005 30.1502 3.14005C30.1302 3.05005 30.1002 2.95005 30.0502 2.87005C30.0402 2.85005 30.0302 2.83005 30.0202 2.81005C30.0102 2.81005 30.0102 2.81005 30.0102 2.81005C29.9202 2.67005 29.7902 2.57005 29.6402 2.51005C29.6302 2.37005 29.6202 2.22005 29.6102 2.08005C29.7402 2.01005 29.8502 1.91005 29.9202 1.78005C30.0102 1.60005 30.0302 1.40005 29.9902 1.21005C29.9802 1.11005 29.9402 1.02005 29.8902 0.940054C29.8802 0.920054 29.8702 0.910054 29.8602 0.890054C29.8602 0.880054 29.8602 0.880054 29.8502 0.880054C29.8502 0.880054 29.8502 0.880054 29.8502 0.870054C29.7502 0.730054 29.6102 0.620054 29.4402 0.560054H29.4002C29.3902 0.530054 29.3902 0.510054 29.3802 0.490054C29.3802 0.470054 29.3702 0.450054 29.3702 0.430054H29.0602C29.0702 0.470054 29.0702 0.510054 29.0802 0.550054C28.6802 0.620054 28.3202 0.990054 28.3602 1.41005C28.3902 1.88005 28.8502 2.23005 29.3102 2.18005C29.3102 2.27005 29.3202 2.37005 29.3302 2.47005C28.8902 2.50005 28.4802 2.89005 28.5102 3.34005C28.5502 3.76005 28.9302 4.08005 29.3302 4.10005C29.3302 4.20005 29.3202 4.30005 29.3102 4.40005C28.8802 4.44005 28.4802 4.82005 28.5102 5.26005C28.5402 5.59005 28.7802 5.86005 29.0702 5.98005C29.0502 6.07005 29.0302 6.15005 29.0102 6.23005C28.5402 6.19005 28.0502 6.61005 28.0802 7.10005C28.1002 7.39005 28.2902 7.64005 28.5402 7.77005C28.4902 7.90005 28.4402 8.03005 28.3902 8.16005C28.3702 8.15005 28.3602 8.14005 28.3402 8.13005C27.8202 7.97005 27.2102 8.43005 27.2502 8.98005C27.2702 9.24005 27.4302 9.47005 27.6502 9.61005C27.5902 9.71005 27.5302 9.82005 27.4602 9.92005C27.4502 9.91005 27.4402 9.90005 27.4402 9.90005C26.9202 9.74005 26.3102 10.2101 26.3502 10.7501C26.3602 10.9201 26.4402 11.0701 26.5402 11.2001C26.4802 11.2701 26.4102 11.3501 26.3502 11.4201C26.2802 11.3701 26.2102 11.3301 26.1202 11.3001C25.6102 11.1401 25.0002 11.6001 25.0402 12.1501C25.0602 12.3101 25.1202 12.4501 25.2102 12.5801C25.0602 12.7101 24.9102 12.8401 24.7602 12.9601C24.6702 12.8901 24.5802 12.8201 24.4702 12.7801C23.9502 12.6201 23.3402 13.0901 23.3802 13.6301C23.3902 13.7201 23.4202 13.8101 23.4602 13.8901C23.3302 13.9601 23.2102 14.0301 23.0902 14.1001C23.0802 14.0801 23.0702 14.0601 23.0602 14.0501V14.0401C23.0602 14.0401 23.0502 14.0401 23.0502 14.0301C22.9502 13.8901 22.8102 13.7701 22.6402 13.7201C22.1302 13.5601 21.5202 14.0201 21.5602 14.5701C21.5702 14.6601 21.5902 14.7301 21.6202 14.8101C21.5802 14.8301 21.5302 14.8501 21.4902 14.8601C21.4702 14.8301 21.4502 14.7901 21.4302 14.7601C21.4202 14.7401 21.4102 14.7201 21.4002 14.7001C21.4002 14.6901 21.4002 14.6901 21.4002 14.6901C21.2902 14.5501 21.1602 14.4301 20.9802 14.3801C20.4702 14.2201 19.8602 14.6801 19.9002 15.2201C19.9002 15.2701 19.9102 15.3101 19.9302 15.3601C19.8202 15.3801 19.7202 15.4101 19.6202 15.4301C19.6002 15.3801 19.5702 15.3301 19.5502 15.2801C19.5402 15.2701 19.5302 15.2501 19.5202 15.2301C19.5102 15.2301 19.5102 15.2201 19.5102 15.2201C19.4102 15.0801 19.2702 14.9601 19.1002 14.9101C18.6102 14.7601 18.0502 15.1701 18.0202 15.6701C17.8802 15.6801 17.7402 15.6901 17.6002 15.7001C17.5902 15.6101 17.5502 15.5301 17.5002 15.4501C17.4902 15.4401 17.4902 15.4101 17.4802 15.4001C17.4802 15.4001 17.4702 15.4001 17.4702 15.3901C17.3702 15.2401 17.2302 15.1301 17.0602 15.0701C16.6202 14.9401 16.1302 15.2501 16.0002 15.6701C15.8602 15.6601 15.7202 15.6501 15.5702 15.6301C15.5702 15.5801 15.5602 15.5401 15.5602 15.5001C15.5402 15.4001 15.5002 15.3001 15.4502 15.2201C15.4402 15.2001 15.4302 15.1901 15.4202 15.1701C15.4202 15.1601 15.4202 15.1601 15.4102 15.1601C15.3202 15.0101 15.1802 14.9001 15.0002 14.8501C14.6102 14.7201 14.1502 14.9701 13.9902 15.3401L13.6502 15.2501C13.6502 15.1801 13.6502 15.1001 13.6302 15.0301C13.6202 14.9301 13.5802 14.8401 13.5202 14.7601C13.5202 14.7401 13.5102 14.7201 13.5002 14.7001H13.4902C13.4902 14.6901 13.4902 14.6901 13.4902 14.6901C13.3902 14.5501 13.2502 14.4301 13.0802 14.3801C12.7402 14.2701 12.3602 14.4401 12.1502 14.7201C12.0302 14.6701 11.9102 14.6201 11.7902 14.5601C11.8102 14.4401 11.8102 14.3201 11.7902 14.2001C11.7702 14.1101 11.7302 14.0101 11.6802 13.9301C11.6702 13.9101 11.6602 13.8901 11.6502 13.8801V13.8701C11.6502 13.8701 11.6502 13.8701 11.6402 13.8601C11.5502 13.7201 11.4102 13.6001 11.2302 13.5501C10.9402 13.4601 10.6102 13.5801 10.3902 13.8001C10.2902 13.7301 10.1802 13.6701 10.0802 13.6001C10.1502 13.4301 10.1602 13.2601 10.1302 13.0901C10.1102 12.9901 10.0802 12.9001 10.0202 12.8201C10.0202 12.8001 10.0102 12.7801 9.99016 12.7601C9.89016 12.6101 9.75016 12.4901 9.58016 12.4401C9.31016 12.3601 9.03016 12.4401 8.81016 12.6101C8.72016 12.5301 8.63016 12.4401 8.53016 12.3501C8.56016 12.3201 8.59016 12.3001 8.60016 12.2601C8.70016 12.0901 8.71016 11.8901 8.68016 11.7001C8.66016 11.6001 8.63016 11.5101 8.57016 11.4301C8.56016 11.4101 8.55016 11.3901 8.54016 11.3701C8.54016 11.3601 8.53016 11.3601 8.53016 11.3601C8.43016 11.2201 8.29016 11.1001 8.12016 11.0501C7.88016 10.9801 7.63016 11.0401 7.43016 11.1701C7.37016 11.1001 7.31016 11.0201 7.25016 10.9501C7.30016 10.8901 7.35016 10.8401 7.39016 10.7701C7.48016 10.6001 7.50016 10.4001 7.46016 10.2101C7.44016 10.1101 7.41016 10.0201 7.35016 9.93005C7.34016 9.91005 7.34016 9.90005 7.33016 9.88005C7.32016 9.88005 7.32016 9.88005 7.32016 9.87005C7.22016 9.73005 7.08016 9.61005 6.90016 9.56005C6.72016 9.50005 6.52016 9.53005 6.34016 9.61005C6.29016 9.53005 6.25016 9.46005 6.21016 9.39005C6.27016 9.33005 6.32016 9.27005 6.37016 9.19005C6.46016 9.02005 6.48016 8.82005 6.44016 8.63005C6.42016 8.53005 6.39016 8.44005 6.33016 8.35005C6.32016 8.34005 6.32016 8.32005 6.30016 8.31005C6.30016 8.30005 6.30016 8.30005 6.30016 8.30005C6.30016 8.30005 6.30016 8.30005 6.29016 8.29005C6.20016 8.15005 6.06016 8.04005 5.88016 7.98005C5.77016 7.94005 5.64016 7.94005 5.53016 7.97005C5.48016 7.86005 5.44016 7.76005 5.41016 7.66005C5.54016 7.59005 5.66016 7.48005 5.73016 7.35005C5.82016 7.17005 5.84016 6.97005 5.80016 6.78005C5.79016 6.68005 5.75016 6.59005 5.70016 6.51005C5.69016 6.49005 5.68016 6.47005 5.67016 6.46005C5.67016 6.45005 5.67016 6.45005 5.67016 6.45005C5.66016 6.45005 5.66016 6.45005 5.66016 6.44005C5.56016 6.30005 5.42016 6.19005 5.25016 6.13005C5.15016 6.10005 5.05016 6.10005 4.94016 6.11005C4.93016 6.03005 4.91016 5.96005 4.89016 5.87005H4.90016C4.91016 5.87005 4.92016 5.87005 4.92016 5.86005C4.94016 5.86005 4.96016 5.86005 4.98016 5.85005C4.99016 5.85005 5.00016 5.84005 5.00016 5.83005C5.16016 5.77005 5.30016 5.65005 5.37016 5.50005C5.47016 5.33005 5.49016 5.13005 5.45016 4.94005C5.44016 4.84005 5.40016 4.74005 5.34016 4.66005C5.34016 4.64005 5.33016 4.63005 5.31016 4.61005C5.31016 4.60005 5.31016 4.60005 5.30016 4.60005C5.21016 4.46005 5.07016 4.34005 4.90016 4.29005C4.82016 4.26005 4.74016 4.26005 4.67016 4.26005C4.66016 4.16005 4.65016 4.06005 4.65016 3.96005C4.68016 3.96005 4.71016 3.96005 4.74016 3.95005C4.75016 3.94005 4.75016 3.94005 4.76016 3.94005C4.78016 3.93005 4.80016 3.93005 4.82016 3.92005C4.83016 3.92005 4.83016 3.91005 4.84016 3.91005C5.00016 3.84005 5.13016 3.72005 5.21016 3.57005C5.30016 3.40005 5.32016 3.20005 5.28016 3.01005C5.27016 2.91005 5.23016 2.82005 5.18016 2.74005C5.17016 2.72005 5.16016 2.70005 5.15016 2.68005C5.15016 2.67005 5.14016 2.67005 5.14016 2.67005C5.04016 2.53005 4.90016 2.41005 4.73016 2.36005C4.71016 2.35005 4.69016 2.35005 4.67016 2.35005C4.68016 2.27005 4.68016 2.19005 4.69016 2.11005C4.70016 2.10005 4.72016 2.10005 4.74016 2.10005C4.75016 2.09005 4.75016 2.09005 4.76016 2.09005C4.78016 2.09005 4.80016 2.08005 4.82016 2.07005C4.83016 2.07005 4.83016 2.06005 4.84016 2.06005C5.00016 1.99005 5.13016 1.88005 5.21016 1.72005C5.30016 1.55005 5.32016 1.35005 5.28016 1.16005C5.27016 1.07005 5.23016 0.970054 5.18016 0.890054C5.17016 0.870054 5.16016 0.850054 5.15016 0.840054V0.830054C5.15016 0.830054 5.14016 0.830054 5.14016 0.820054C5.08016 0.730054 4.99016 0.660054 4.90016 0.600054C4.90016 0.540054 4.92016 0.480054 4.93016 0.430054H4.61016L4.60016 0.490054C4.12016 0.430054 3.61016 0.860054 3.65016 1.36005C3.68016 1.75005 4.01016 2.06005 4.38016 2.12005C4.37016 2.20005 4.36016 2.27005 4.36016 2.34005C3.97016 2.43005 3.62016 2.79005 3.65016 3.21005C3.67016 3.58005 3.98016 3.88005 4.33016 3.96005C4.34016 4.08005 4.35016 4.20005 4.36016 4.32005C4.04016 4.46005 3.78016 4.78005 3.81016 5.13005C3.84016 5.54005 4.19016 5.85005 4.58016 5.90005C4.60016 6.00005 4.62016 6.10005 4.65016 6.20005C4.36016 6.35005 4.14016 6.65005 4.17016 6.98005C4.20016 7.45005 4.66016 7.80005 5.10016 7.75005C5.15016 7.86005 5.19016 7.97005 5.24016 8.07005C4.97016 8.23005 4.78016 8.51005 4.80016 8.82005C4.84016 9.34005 5.40016 9.72005 5.89016 9.56005C5.90016 9.56005 5.91016 9.56005 5.91016 9.56005C5.92016 9.56005 5.93016 9.55005 5.95016 9.55005C5.99016 9.63005 6.04016 9.71005 6.08016 9.79005C5.91016 9.95005 5.81016 10.1701 5.82016 10.4001C5.86016 10.9201 6.42016 11.3001 6.91016 11.1401C6.92016 11.1401 6.93016 11.1401 6.93016 11.1401C6.95016 11.1301 6.97016 11.1301 6.99016 11.1201C7.06016 11.2101 7.13016 11.3001 7.20016 11.3901C7.09016 11.5301 7.03016 11.7101 7.04016 11.9001C7.08016 12.4201 7.64016 12.7901 8.13016 12.6401C8.14016 12.6301 8.14016 12.6301 8.15016 12.6301C8.17016 12.6201 8.19016 12.6201 8.21016 12.6101C8.22016 12.6101 8.22016 12.6001 8.23016 12.6001C8.26016 12.5901 8.27016 12.5701 8.30016 12.5601C8.40016 12.6501 8.50016 12.7501 8.61016 12.8501C8.53016 12.9801 8.48016 13.1301 8.49016 13.2901C8.53016 13.8101 9.09016 14.1801 9.58016 14.0301C9.59016 14.0201 9.60016 14.0201 9.60016 14.0201C9.62016 14.0101 9.65016 14.0101 9.66016 14.0001C9.67016 14.0001 9.68016 13.9901 9.68016 13.9901C9.76016 13.9501 9.84016 13.9101 9.90016 13.8501C10.0002 13.9201 10.1102 13.9801 10.2202 14.0501C10.1702 14.1601 10.1402 14.2801 10.1502 14.4001C10.1902 14.9201 10.7502 15.3001 11.2402 15.1401C11.2502 15.1301 11.2502 15.1301 11.2602 15.1301C11.2802 15.1301 11.3002 15.1201 11.3202 15.1101C11.3302 15.1101 11.3402 15.1001 11.3502 15.1001C11.4702 15.0501 11.5702 14.9501 11.6502 14.8401C11.7702 14.9001 11.8902 14.9501 12.0202 15.0001C12.0002 15.0801 11.9902 15.1501 11.9902 15.2201C12.0302 15.7401 12.5902 16.1201 13.0802 15.9701C13.0902 15.9601 13.1002 15.9601 13.1102 15.9601C13.1202 15.9501 13.1502 15.9501 13.1702 15.9401C13.1802 15.9401 13.1802 15.9301 13.1902 15.9301C13.3502 15.8601 13.4802 15.7401 13.5602 15.5901C13.5602 15.5801 13.5702 15.5701 13.5802 15.5501C13.6902 15.5801 13.8002 15.6201 13.9202 15.6401V15.6901C13.9602 16.2101 14.5202 16.5901 15.0102 16.4301C15.0102 16.4301 15.0202 16.4301 15.0302 16.4201C15.0502 16.4201 15.0702 16.4201 15.0902 16.4101C15.1002 16.4101 15.1002 16.4001 15.1102 16.3901C15.2702 16.3301 15.4002 16.2101 15.4802 16.0601C15.5002 16.0201 15.5202 15.9801 15.5302 15.9401C15.6802 15.9501 15.8302 15.9701 15.9902 15.9801C16.0702 16.4701 16.5902 16.8101 17.0602 16.6601C17.0702 16.6601 17.0802 16.6601 17.0802 16.6601C17.1002 16.6501 17.1202 16.6501 17.1502 16.6401C17.1502 16.6301 17.1602 16.6301 17.1702 16.6301C17.3202 16.5601 17.4602 16.4401 17.5402 16.2901C17.5902 16.2001 17.6102 16.1101 17.6202 16.0101C17.7702 16.0001 17.9202 15.9901 18.0702 15.9801C18.2202 16.3701 18.6902 16.6301 19.1102 16.4901H19.1202C19.1502 16.4801 19.1702 16.4801 19.1902 16.4701C19.1902 16.4701 19.2002 16.4601 19.2102 16.4601C19.3602 16.3901 19.5002 16.2801 19.5802 16.1201C19.6402 16.0001 19.6702 15.8701 19.6702 15.7401C19.8002 15.7101 19.9402 15.6801 20.0702 15.6401C20.2802 15.9201 20.6502 16.0701 20.9902 15.9701C21.0002 15.9601 21.0002 15.9601 21.0102 15.9601C21.0302 15.9501 21.0502 15.9501 21.0702 15.9401C21.0802 15.9401 21.0902 15.9301 21.0902 15.9301C21.2502 15.8601 21.3802 15.7401 21.4602 15.5901C21.5302 15.4601 21.5602 15.3201 21.5502 15.1701C21.6302 15.1401 21.7202 15.1101 21.8002 15.0801C22.0102 15.3001 22.3502 15.4001 22.6502 15.3101C22.6502 15.3001 22.6602 15.3001 22.6702 15.3001C22.6902 15.3001 22.7102 15.2901 22.7302 15.2801C22.7402 15.2801 22.7402 15.2701 22.7502 15.2701C22.9102 15.2001 23.0402 15.0901 23.1202 14.9301C23.2102 14.7701 23.2302 14.5801 23.2002 14.4001C23.3402 14.3201 23.4902 14.2301 23.6302 14.1401C23.8502 14.3601 24.1802 14.4601 24.4802 14.3701C24.4802 14.3701 24.4902 14.3701 24.4902 14.3601C24.5202 14.3601 24.5402 14.3501 24.5502 14.3501C24.5602 14.3401 24.5702 14.3401 24.5802 14.3301C24.7302 14.2601 24.8702 14.1501 24.9502 14.0001C25.0402 13.8201 25.0602 13.6201 25.0202 13.4301C25.0102 13.3601 24.9802 13.2801 24.9402 13.2101C25.1102 13.0701 25.2802 12.9301 25.4402 12.7901C25.6402 12.9201 25.9002 12.9601 26.1302 12.8901C26.1402 12.8901 26.1502 12.8901 26.1502 12.8901C26.1702 12.8801 26.1902 12.8801 26.2202 12.8701C26.2202 12.8601 26.2302 12.8601 26.2402 12.8601C26.3902 12.7901 26.5202 12.6701 26.6102 12.5201C26.7002 12.3501 26.7202 12.1401 26.6802 11.9501C26.6602 11.8601 26.6202 11.7701 26.5702 11.6801C26.5702 11.6701 26.5602 11.6601 26.5602 11.6501C26.6302 11.5701 26.7102 11.4901 26.7802 11.4001C26.9702 11.5201 27.2102 11.5601 27.4402 11.4901C27.4502 11.4901 27.4502 11.4901 27.4602 11.4801C27.4802 11.4801 27.5002 11.4701 27.5202 11.4601C27.5302 11.4601 27.5402 11.4601 27.5402 11.4501C27.7002 11.3901 27.8302 11.2701 27.9102 11.1201C28.0102 10.9501 28.0202 10.7501 27.9802 10.5501C27.9702 10.4601 27.9302 10.3601 27.8802 10.2801C27.8702 10.2601 27.8602 10.2401 27.8502 10.2301V10.2201C27.8502 10.2201 27.8502 10.2201 27.8502 10.2101C27.8102 10.1701 27.7702 10.1301 27.7202 10.0901C27.8002 9.97005 27.8702 9.85005 27.9402 9.73005C28.0702 9.76005 28.2102 9.76005 28.3402 9.72005C28.3502 9.72005 28.3602 9.71005 28.3602 9.71005C28.3902 9.70005 28.4002 9.70005 28.4202 9.70005C28.4302 9.69005 28.4402 9.68005 28.4502 9.68005C28.6002 9.61005 28.7402 9.50005 28.8202 9.35005C28.9102 9.17005 28.9302 8.97005 28.8902 8.78005C28.8702 8.68005 28.8402 8.59005 28.7902 8.51005C28.7702 8.49005 28.7602 8.47005 28.7602 8.45005C28.7602 8.45005 28.7602 8.45005 28.7502 8.45005V8.44005C28.7202 8.40005 28.6802 8.37005 28.6502 8.34005C28.7102 8.18005 28.7702 8.03005 28.8302 7.87005C28.9402 7.88005 29.0602 7.88005 29.1702 7.84005C29.1802 7.84005 29.1902 7.84005 29.1902 7.84005C29.2102 7.83005 29.2402 7.83005 29.2502 7.82005C29.2602 7.82005 29.2702 7.81005 29.2702 7.81005C29.4302 7.74005 29.5702 7.63005 29.6502 7.47005C29.7402 7.30005 29.7602 7.10005 29.7202 6.91005C29.7002 6.81005 29.6702 6.72005 29.6102 6.63005C29.6102 6.61005 29.6002 6.60005 29.5802 6.58005V6.57005C29.5102 6.47005 29.4102 6.40005 29.3102 6.34005C29.3402 6.24005 29.3602 6.13005 29.3802 6.03005C29.4502 6.03005 29.5302 6.03005 29.6102 6.00005H29.6202C29.6502 5.99005 29.6702 5.99005 29.6802 5.98005C29.6902 5.98005 29.7002 5.97005 29.7102 5.97005C29.8602 5.90005 30.0002 5.78005 30.0802 5.63005C30.1702 5.46005 30.1902 5.26005 30.1502 5.07005C30.1302 4.97005 30.1002 4.88005 30.0502 4.79005Z" fill="#602651"/>
<path d="M19.5399 23.5601C19.4199 22.5201 19.1999 21.4901 19.0299 20.4601C19.0299 20.4401 19.0199 20.4101 19.0199 20.3901C19.0099 20.3101 18.9999 20.2301 18.9799 20.1501C18.8699 19.4301 18.7199 18.6301 18.2099 18.1001C17.7099 17.5901 16.9399 17.3701 16.2499 17.4701C15.3599 17.6001 14.9999 18.5901 14.7499 19.3301C14.6699 19.5801 14.5799 19.8401 14.4999 20.0901C14.4699 20.1901 14.4399 20.2901 14.4099 20.3901C14.1299 21.2701 13.8899 22.1601 13.6999 23.0601C13.6499 23.3001 13.6099 23.5401 13.5699 23.7801C13.5499 23.8501 13.5499 23.9301 13.5499 24.0101C13.5399 25.2301 15.0499 25.4701 15.9799 25.5201C16.9499 25.5701 18.1899 25.7101 19.0499 25.1701C19.6599 24.7801 19.6199 24.2101 19.5399 23.5601Z" fill="#E16272"/>
<path d="M9.38012 16.3301C9.11012 16.5001 8.88012 16.7401 8.67012 16.9901C8.52012 17.1601 8.37012 17.3301 8.23012 17.5101C8.17012 17.5801 8.11012 17.6501 8.05012 17.7201C8.04012 17.7301 8.04012 17.7401 8.03012 17.7501C7.68012 18.2101 7.38012 18.7801 7.22012 19.3601C6.95012 20.3501 7.11012 21.3801 8.16012 21.9901C8.75012 22.3401 9.77012 22.6701 10.4301 22.3401C11.1301 21.9901 11.2301 21.1301 11.4301 20.4601C11.5101 20.2001 11.5801 19.9401 11.6501 19.6701C11.6801 19.5701 11.7101 19.4701 11.7301 19.3701C11.8801 18.8001 12.0201 18.2401 12.1501 17.6701C12.2001 17.4601 12.2501 17.2401 12.2201 17.0301C12.0701 15.9601 10.0901 15.8901 9.38012 16.3301Z" fill="#E16272"/>
<path d="M26.2998 20.0201C26.2398 19.7101 26.0898 19.4301 25.9598 19.1501C25.8298 18.8501 25.6998 18.5601 25.5398 18.2701C25.4998 18.1901 25.4498 18.1101 25.3998 18.0201C25.3498 17.9401 25.2998 17.8401 25.2398 17.7501C24.6898 16.9001 23.8598 16.0601 22.7998 16.3301C22.3498 16.4501 21.9898 16.7401 21.7498 17.1101C21.4798 17.5301 21.3398 18.0401 21.3598 18.5401C21.3698 18.8901 21.4498 19.2301 21.5598 19.5601C21.5898 19.6501 21.6198 19.7501 21.6598 19.8401V19.8501C21.7598 20.1001 21.8798 20.3401 21.9998 20.5701C22.3998 21.3301 22.6498 22.8501 23.7998 22.6901C24.1098 22.6401 24.3998 22.4901 24.6598 22.3101C25.3498 21.8501 26.4798 20.9701 26.2998 20.0201Z" fill="#E16272"/>
<path d="M6.36016 13.6701C6.17016 13.3701 5.92016 13.1001 5.68016 12.8501C5.44016 12.6101 5.20016 12.3101 4.84016 12.4501C4.55016 12.5701 4.28016 12.7501 4.03016 12.9401C4.00016 12.9601 3.97016 12.9901 3.94016 13.0101C3.89016 13.0501 3.84016 13.0901 3.79016 13.1401C3.57016 13.3201 3.36016 13.5301 3.17016 13.7501C2.96016 14.0001 2.76016 14.3101 2.83016 14.6401C2.89016 14.9701 3.20016 15.1801 3.44016 15.3701C3.75016 15.6001 4.07016 15.8101 4.42016 15.9901C4.48016 16.0201 4.55016 16.0101 4.59016 15.9701C4.61016 15.9801 4.64016 15.9801 4.68016 15.9601C4.98016 15.8401 5.27016 15.7001 5.55016 15.5301C5.64016 15.4701 5.72016 15.4201 5.80016 15.3601C5.81016 15.3601 5.81016 15.3501 5.82016 15.3501C6.10016 15.1501 6.39016 14.9101 6.52016 14.5801C6.65016 14.2601 6.55016 13.9401 6.36016 13.6701Z" fill="#E16272"/>
<path d="M27.1301 14.5801C27.2601 14.9101 27.5501 15.1501 27.8301 15.3501C27.8401 15.3501 27.8401 15.3601 27.8501 15.3601C27.9301 15.4201 28.0101 15.4701 28.1001 15.5301C28.3801 15.7001 28.6701 15.8401 28.9701 15.9601C29.0101 15.9801 29.0401 15.9801 29.0601 15.9701C29.1001 16.0101 29.1701 16.0201 29.2301 15.9901C29.5801 15.8101 29.9001 15.6001 30.2101 15.3701C30.4501 15.1801 30.7601 14.9701 30.8201 14.6401C30.8901 14.3101 30.6901 14.0001 30.4801 13.7501C30.2901 13.5301 30.0801 13.3201 29.8601 13.1401C29.8101 13.0901 29.7601 13.0501 29.7101 13.0101C29.6801 12.9901 29.6501 12.9601 29.6201 12.9401C29.3701 12.7501 29.1001 12.5701 28.8101 12.4501C28.4501 12.3101 28.2101 12.6101 27.9701 12.8501C27.7301 13.1001 27.4801 13.3701 27.2901 13.6701C27.1001 13.9401 27.0001 14.2601 27.1301 14.5801Z" fill="#E16272"/>
<path d="M2.79999 7.38003C2.77999 7.32003 2.74999 7.27003 2.69999 7.23003C2.63999 7.18003 2.55999 7.16003 2.47999 7.15003C2.32999 7.12003 2.17999 7.11003 2.05999 7.13003C1.93999 7.13003 1.83999 7.15003 1.74999 7.19003C1.25999 7.35003 0.999988 7.81003 0.899988 8.35003C0.789988 8.93003 0.879988 9.59003 1.11999 10.07C1.41999 10.68 1.96999 10.56 2.46999 10.31C2.55999 10.26 2.64999 10.21 2.73999 10.16C2.82999 10.11 2.90999 10.06 2.97999 10.01C3.19999 9.86003 3.41999 9.67003 3.49999 9.41003C3.67999 8.80003 3.06999 7.89003 2.79999 7.38003Z" fill="#E16272"/>
<path d="M32.6802 7.40008C32.5302 7.16008 32.3202 7.02008 32.1002 6.98008C32.0002 6.95008 31.9002 6.95008 31.7902 6.96008C31.2702 7.00008 30.7502 7.41008 30.6002 7.92008C30.5502 8.08008 30.5302 8.25008 30.4802 8.42008C30.4102 8.63008 30.3402 8.86008 30.3102 9.07008C30.2602 9.56008 30.6802 9.88008 31.1202 9.99008C31.1602 10.0001 31.2102 10.0101 31.2502 10.0201C31.3102 10.0301 31.3702 10.0301 31.4402 10.0301C31.8602 10.0601 32.3802 9.99008 32.6202 9.65008C32.8302 9.35008 32.8502 8.90008 32.8702 8.54008C32.8902 8.17008 32.8902 7.72008 32.6802 7.40008Z" fill="#E16272"/>
</g>
<defs>
<clipPath id="clip0_301_8422">
<rect width="32.02" height="25.14" fill="white" transform="translate(0.850098 0.430054)"/>
</clipPath>
</defs>
</svg>
