<svg width="70" height="80" viewBox="0 0 70 80" fill="none" xmlns="http://www.w3.org/2000/svg">
<g clip-path="url(#clip0_301_557)">
<path d="M60.66 69.04H45C44.97 67.96 44.96 66.9 44.96 65.86C44.96 64.26 45 62.71 45.06 61.21C45.24 56.9 45.63 52.98 46.13 49.54C46.41 47.5 46.73 45.63 47.05 43.94C48.29 37.59 49.6 33.89 49.6 33.89C53.31 25.08 55.68 31.36 56.35 33.36C56.44 33.63 56.5 33.82 56.53 33.89C56.84 34.63 57.12 35.6 57.39 36.73C57.96 39.09 58.44 42.18 58.85 45.52V45.53C59.01 46.85 59.16 48.19 59.3 49.55V49.56C60.25 59.11 60.66 69.04 60.66 69.04Z" fill="#BD502F"/>
<path d="M69.5399 16.55C69.5399 16.76 69.5299 16.98 69.4999 17.19C69.4399 17.89 69.2499 18.58 68.9499 19.24C68.7899 19.6 68.6199 19.96 68.4499 20.32C67.7899 21.69 67.0399 23.13 66.1499 24.57C65.3999 25.79 64.5599 27.01 63.6099 28.21C62.3299 29.84 60.8599 31.43 59.1499 32.9C55.4599 36.08 50.6999 38.73 44.4599 40.12C42.9999 40.45 41.4699 40.71 39.8499 40.88C38.1099 41.08 36.2699 41.18 34.3199 41.18C32.3599 41.02 30.4799 40.79 28.6799 40.48C27.5199 40.3 26.3899 40.07 25.2999 39.82C21.9399 39.05 18.8899 38.02 16.1599 36.74C15.2099 36.3 14.2999 35.83 13.4299 35.33C11.0099 33.95 8.87988 32.35 7.03988 30.55C6.31988 29.85 5.63988 29.12 5.00988 28.35C3.20988 26.18 1.76988 23.77 0.709884 21.16C0.609884 20.93 0.909884 20.43 0.819884 20.2C0.119884 18.34 0.849884 18.33 1.83988 16.61L2.55988 14.72C7.39988 6.85999 11.0699 3.75999 15.6299 2.19999C16.8399 1.77999 17.8899 1.73999 18.2399 2.96999C18.8599 5.17999 22.1799 12.8 22.4799 13.22C23.8999 15.22 26.0499 16.56 28.2299 17.75C28.6799 18 29.2899 18.39 29.7799 18.57C31.1199 19.11 34.3799 19.73 36.0199 19.73C46.4099 19.73 50.1299 8.41999 51.8699 3.21999C52.2999 1.93999 53.0999 0.43999 54.3999 0.72999C54.4699 0.73999 54.5399 0.75999 54.6099 0.77999C55.6899 1.10999 56.7299 1.51999 57.7299 2.01999C58.6599 2.44999 59.5499 2.94999 60.3999 3.50999C61.4499 4.18999 62.4399 4.95999 63.3599 5.80999C64.2099 6.59999 64.9899 7.43999 65.6999 8.33999C66.0399 8.74999 66.3599 9.17999 66.6599 9.61999C67.2599 10.49 67.7999 11.4 68.2699 12.36C68.5699 12.93 68.8299 13.52 69.0699 14.13C69.3799 14.91 69.5399 15.73 69.5399 16.55Z" fill="#F7ECB9"/>
<path d="M19.1401 31.5699C21.7901 34.3099 25.9501 34.6399 29.5301 35.0899C33.2401 35.5199 36.9801 35.2499 40.4301 33.6499L40.4001 33.4399C39.4601 33.2499 38.5401 33.1699 37.6301 33.1299C32.3001 32.7799 26.8701 34.2399 21.6501 32.6099C20.8201 32.3399 19.9501 32.0099 19.3101 31.4399L19.1401 31.5699Z" fill="#BD502F"/>
<path d="M55.2203 24.27C54.2603 24.82 53.3103 25.39 52.3803 25.97C51.9203 26.26 51.3503 26.39 51.0403 26.82C50.7103 27.25 50.4403 27.71 50.2603 28.45L50.3603 28.62C51.7803 28.96 52.7603 28.25 53.4403 27.17C54.1703 26.31 54.8003 25.38 55.3703 24.4C55.3703 24.41 55.2203 24.27 55.2203 24.27Z" fill="#BD502F"/>
<path d="M51.3503 2.43999C49.6103 7.63999 44.7103 19.18 34.3203 19.18C33.0203 19.18 31.8203 18.99 30.7103 18.65C30.4503 18.96 30.1503 19.25 29.8203 19.5C32.2703 20.42 34.8503 20.94 37.9103 20.48C41.6003 19.92 44.8903 17.9 47.3203 15.07C50.1203 11.82 53.8303 6.50999 54.4003 0.729988C53.1003 0.439988 51.7803 1.15999 51.3503 2.43999Z" fill="#BD502F"/>
<path d="M24.1801 14.14C23.8701 13.78 23.5801 13.4 23.3001 13.02C22.9301 13.49 22.4901 13.9 21.9801 14.22C20.8701 13.32 19.3901 13 18.0201 13.35C17.4401 11.39 15.9701 9.73001 13.9201 8.98001C14.3001 6.48001 16.4401 4.55001 19.0301 4.50001C18.7901 3.81001 18.6001 3.17001 18.4401 2.61001C18.0901 1.38001 16.8101 0.700009 15.6001 1.12001C11.0401 2.68001 6.27012 5.98001 1.44012 13.84L0.870124 14.82C-0.119876 16.54 -0.269876 18.61 0.430124 20.47C0.520124 20.7 0.610124 20.93 0.710124 21.16C1.76012 20.22 3.89012 18.43 6.61012 16.93C6.61012 16.93 6.62012 16.93 6.62012 16.92C6.27012 15.88 6.22012 14.74 6.59012 13.61C7.49012 10.84 10.4701 9.32001 13.2401 10.22C15.0201 10.8 16.2801 12.23 16.7201 13.91C16.5201 14.04 16.3301 14.19 16.1501 14.35C16.8501 14.38 17.5401 14.49 18.2301 14.66C18.2801 14.67 18.3401 14.69 18.3901 14.7C18.4001 14.7 18.4001 14.7 18.4101 14.7C18.6501 14.64 18.8901 14.6 19.1501 14.6C20.1101 14.6 20.9601 15.05 21.5201 15.74C21.5301 15.74 21.5301 15.74 21.5401 15.75C22.2001 16.01 22.8501 16.3 23.4901 16.59C23.3801 16.13 23.1901 15.68 22.9301 15.28C23.3901 14.96 23.8201 14.58 24.1801 14.14Z" fill="#BD502F"/>
<path d="M16.0601 17.7C16.0601 19.4 17.4401 20.78 19.1401 20.78C20.8401 20.78 22.2201 19.4 22.2201 17.7C22.2201 16.96 21.9501 16.29 21.5101 15.76C20.5201 15.35 19.4901 15 18.4001 14.72C17.0601 15.05 16.0601 16.25 16.0601 17.7Z" fill="#EB564B"/>
<path d="M19.1399 14.62C18.8899 14.62 18.6399 14.66 18.3999 14.72C19.4899 15 20.5199 15.35 21.5099 15.76C20.9499 15.07 20.0999 14.62 19.1399 14.62Z" fill="#99221F"/>
<path d="M17.5 21.87C16.18 21.35 15.17 20.22 14.8 18.84C13.06 18.74 11.31 19.49 10.22 21.01C8.50999 23.37 9.02999 26.67 11.39 28.38C13.53 29.93 16.44 29.65 18.24 27.82C17.03 26.01 16.82 23.8 17.5 21.87Z" fill="#EB564B"/>
<path d="M22.6001 20.55C21.7001 21.64 20.3101 22.26 18.8801 22.18C18.2501 23.8 18.4201 25.7001 19.5201 27.2101C21.2301 29.5701 24.5301 30.09 26.8901 28.38C29.0301 26.83 29.6601 23.9701 28.4801 21.6901C26.3901 22.2801 24.2301 21.8 22.6001 20.55Z" fill="#EB564B"/>
<path d="M23.3203 19.33C24.6703 20.43 26.5303 20.85 28.3003 20.27C28.8603 20.09 29.3703 19.83 29.8203 19.5C27.6803 18.7 25.6403 17.6 23.4803 16.6C23.7103 17.49 23.6603 18.45 23.3203 19.33Z" fill="#EB564B"/>
<path d="M30.7099 18.65C28.0499 17.84 25.8999 16.16 24.1799 14.14C23.8199 14.58 23.3899 14.96 22.9199 15.29C23.1799 15.69 23.3699 16.14 23.4799 16.6C25.6399 17.6 27.6799 18.7 29.8199 19.5C30.1499 19.25 30.4499 18.96 30.7099 18.65Z" fill="#99221F"/>
<path d="M13.9199 8.98C15.9699 9.73 17.4399 11.39 18.0199 13.35C19.3899 13 20.8699 13.32 21.9799 14.22C22.4899 13.9 22.9299 13.49 23.2999 13.02C21.2299 10.24 19.8699 7.01 19.0299 4.5C16.4399 4.55 14.2999 6.48 13.9199 8.98Z" fill="#99221F"/>
<path d="M6.62988 16.93C7.05988 18.22 7.96988 19.33 9.23988 19.97C10.5899 18.26 12.6199 17.37 14.6699 17.43C14.7399 16.25 15.2799 15.15 16.1599 14.37C12.7399 14.14 9.37988 15.39 6.62988 16.93Z" fill="#EB564B"/>
<path d="M13.2402 10.2299C10.4702 9.32994 7.49015 10.8499 6.59015 13.6199C6.23015 14.7399 6.28015 15.8899 6.62015 16.9299C9.38015 15.3899 12.7302 14.1499 16.1502 14.3699C16.3302 14.2099 16.5102 14.0599 16.7202 13.9299C16.2802 12.2399 15.0202 10.8099 13.2402 10.2299Z" fill="#99221F"/>
<path d="M68.45 20.32C67.79 21.69 67.04 23.13 66.15 24.57C65.98 24.6 65.8 24.62 65.62 24.62C63.92 24.62 62.54 23.24 62.54 21.54C62.54 19.84 63.92 18.46 65.62 18.46C66.89 18.46 67.98 19.23 68.45 20.32Z" fill="#EB564B"/>
<path d="M63.98 25.71C63.7 26.51 63.57 27.36 63.61 28.21C62.33 29.84 60.86 31.43 59.15 32.9C58.7 32.74 58.27 32.51 57.86 32.22C55.51 30.5 54.98 27.2 56.7 24.84C57.79 23.33 59.54 22.57 61.28 22.68C61.64 24.06 62.66 25.19 63.98 25.71Z" fill="#EB564B"/>
<path d="M69.5399 16.55C69.5399 16.76 69.5299 16.98 69.4999 17.19C69.1999 17.53 68.8499 17.82 68.4599 18.07C67.3499 17.16 65.8699 16.84 64.4999 17.2C63.9199 15.24 62.4499 13.57 60.3999 12.82C60.7899 10.28 62.9799 8.33997 65.6199 8.33997H65.6999C66.0399 8.74997 66.3599 9.17997 66.6599 9.61997C67.2599 10.49 67.7999 11.4 68.2699 12.36C68.5699 12.93 68.8299 13.52 69.0699 14.13C69.3799 14.91 69.5399 15.73 69.5399 16.55Z" fill="#EB564B"/>
<path d="M61.1501 21.2599C61.2401 19.8499 61.9901 18.5299 63.2001 17.7599C62.7601 16.0799 61.5001 14.6499 59.7201 14.0699C56.9501 13.1699 53.9701 14.6899 53.0701 17.4599C52.2501 19.9699 53.4201 22.6599 55.7201 23.8099C57.0701 22.0899 59.1001 21.2099 61.1501 21.2599Z" fill="#EB564B"/>
<path d="M41.8802 38.2099C41.8802 38.2099 36.4602 53.4899 37.0002 75.5399H53.6302C53.6302 75.5399 52.4202 45.8699 49.2502 38.2099C49.0002 37.6199 46.3502 27.5899 41.8802 38.2099Z" fill="#F7ECB9"/>
<path d="M44.1202 40.18L45.7002 47.64L47.1302 40.16C47.2102 39.57 47.0602 38.97 46.7102 38.55L46.7002 38.53C46.1002 37.79 45.1202 37.79 44.5302 38.53C44.1802 38.97 44.0202 39.59 44.1202 40.18Z" fill="#BD502F"/>
<mask id="mask0_301_557" style="mask-type:luminance" maskUnits="userSpaceOnUse" x="36" y="33" width="18" height="43">
<path d="M41.8802 38.2099C41.8802 38.2099 36.4602 53.4899 37.0002 75.5399H53.6302C53.6302 75.5399 52.4202 45.8699 49.2502 38.2099C49.0002 37.6199 46.3502 27.5899 41.8802 38.2099Z" fill="white"/>
</mask>
<g mask="url(#mask0_301_557)">
<path d="M36.6303 70.7299C38.3313 70.7299 39.7103 69.351 39.7103 67.6499C39.7103 65.9489 38.3313 64.5699 36.6303 64.5699C34.9293 64.5699 33.5503 65.9489 33.5503 67.6499C33.5503 69.351 34.9293 70.7299 36.6303 70.7299Z" fill="#EB564B"/>
<path d="M40.0901 70.5C39.1901 71.59 37.8001 72.21 36.3701 72.13C35.7401 73.75 35.9201 75.65 37.0101 77.16C38.7201 79.52 42.0201 80.04 44.3801 78.33C46.5201 76.78 47.1501 73.92 45.9701 71.64C43.8801 72.23 41.7101 71.75 40.0901 70.5Z" fill="#EB564B"/>
<path d="M40.4102 65.2399C41.1702 66.4399 41.3302 67.9399 40.8102 69.2799C42.1502 70.3799 44.0202 70.7999 45.7902 70.2199C48.5602 69.3199 50.0802 66.3399 49.1802 63.5699C48.3602 61.0599 45.8402 59.5699 43.3102 59.9899C43.2202 62.1699 42.1002 64.0799 40.4102 65.2399Z" fill="#EB564B"/>
<path d="M35.5102 63.31C36.8802 62.96 38.3602 63.27 39.4702 64.18C40.9302 63.24 41.9102 61.6 41.9102 59.73C41.9102 56.81 39.5502 54.45 36.6302 54.45C33.9902 54.45 31.8002 56.39 31.4102 58.93C33.4502 59.68 34.9202 61.35 35.5102 63.31Z" fill="#EB564B"/>
</g>
</g>
<defs>
<clipPath id="clip0_301_557">
<rect width="69.54" height="78.66" fill="white" transform="translate(0 0.670044)"/>
</clipPath>
</defs>
</svg>
