<svg width="55" height="76" viewBox="0 0 55 76" fill="none" xmlns="http://www.w3.org/2000/svg">
<g clip-path="url(#clip0_323_583)">
<path d="M41.56 37.1457H33.06C33.04 36.5557 33.04 35.9857 33.04 35.4157C33.04 34.5457 33.06 33.7057 33.09 32.8857C33.19 30.5457 33.4 28.4157 33.67 26.5457C33.82 25.4357 34 24.4257 34.17 23.5057C34.84 20.0557 35.55 18.0457 35.55 18.0457C37.56 13.2657 38.85 16.6757 39.22 17.7557C39.27 17.9057 39.3 18.0057 39.32 18.0457C39.49 18.4457 39.64 18.9757 39.79 19.5857C40.1 20.8657 40.36 22.5457 40.58 24.3557V24.3657C40.67 25.0857 40.75 25.8057 40.82 26.5457V26.5557C41.34 31.7457 41.56 37.1457 41.56 37.1457Z" fill="#F26548"/>
<path d="M46.3799 8.63569C46.3799 9.13569 46.2699 9.62569 46.0599 10.0957C44.1799 14.2657 40.6099 19.6857 32.7599 21.4357C31.9699 21.6157 31.1399 21.7557 30.2599 21.8457C29.3199 21.9557 28.3199 22.0057 27.2599 22.0057C26.1999 21.9157 25.1699 21.7957 24.1999 21.6257C23.5699 21.5257 22.9599 21.4057 22.3599 21.2657C20.5399 20.8457 18.8799 20.2857 17.3999 19.5957C16.8799 19.3557 16.3899 19.1057 15.9199 18.8257C14.6099 18.0757 13.4499 17.2057 12.4499 16.2257C12.0599 15.8457 11.6899 15.4457 11.3499 15.0357C10.3699 13.8557 9.58995 12.5457 9.00995 11.1357C8.95995 11.0157 8.90995 10.8857 8.85995 10.7657C8.47995 9.75569 8.55995 8.63568 9.09995 7.69568L9.40995 7.16568C12.0299 2.89568 14.6199 1.10568 17.0999 0.255685C17.7599 0.0256845 18.4499 0.395684 18.6399 1.06568C18.9799 2.26568 19.6199 4.13568 20.6899 5.85568C20.8399 6.08568 20.9899 6.31569 21.1499 6.54569C21.9199 7.63569 22.8799 8.60568 24.0699 9.24568C24.3099 9.38568 24.5699 9.50569 24.8399 9.59569C25.5699 9.88568 26.3799 10.0557 27.2699 10.0557C32.9099 10.0557 35.5699 3.78569 36.5199 0.965686C36.7499 0.265686 37.4699 -0.124315 38.1799 0.0356852C38.2199 0.0456852 38.2599 0.055684 38.2899 0.065684C38.8799 0.245684 39.4399 0.465684 39.9799 0.735684C40.4799 0.965684 40.9699 1.24569 41.4299 1.54569C41.9999 1.91569 42.5399 2.33569 43.0399 2.79569C43.7099 3.41569 44.3099 4.10568 44.8299 4.86568C45.1599 5.33568 45.4499 5.83568 45.6999 6.35568C45.8599 6.66568 45.9999 6.98568 46.1299 7.31568C46.2899 7.74568 46.3799 8.19569 46.3799 8.63569Z" fill="#F26548"/>
<path d="M38.1599 0.0456893C37.8499 3.18569 35.8399 6.06569 34.3199 7.83569C32.9999 9.37569 31.2099 10.4657 29.2099 10.7757C24.9899 11.4157 22.4299 8.59569 18.5199 7.62569C14.4599 6.61569 10.2699 10.0057 9.00995 11.1457C8.95995 11.0257 8.90995 10.8957 8.85995 10.7757C8.47995 9.76569 8.55995 8.64569 9.09995 7.70569L9.40995 7.17569C12.0299 2.90569 14.6199 1.11569 17.0999 0.265689C17.7599 0.0356886 18.4499 0.405688 18.6399 1.07569C19.4099 3.81569 21.7699 10.0757 27.2599 10.0757C32.8999 10.0757 35.5599 3.80569 36.5099 0.985688C36.7399 0.285688 37.4499 -0.104311 38.1599 0.0456893Z" fill="#9D322E"/>
<path d="M30.3501 20.4057C30.3501 20.4057 27.4001 28.7057 27.7001 40.6757H36.7301C36.7301 40.6757 36.0701 24.5657 34.3501 20.4057C34.2201 20.0757 32.7801 14.6357 30.3501 20.4057Z" fill="#F26548"/>
<path d="M31.5702 21.4758L32.4302 25.5258L33.2102 21.4658C33.2602 21.1458 33.1702 20.8258 32.9802 20.5858L32.9702 20.5758C32.6502 20.1758 32.1102 20.1758 31.7902 20.5758C31.6002 20.8158 31.5102 21.1458 31.5702 21.4758Z" fill="#801E1D"/>
<path d="M19.0098 16.7957C20.4498 18.2857 22.7098 18.4657 24.6498 18.7057C26.6598 18.9357 28.6998 18.7957 30.5698 17.9257L30.5498 17.8157C30.0398 17.7157 29.5398 17.6657 29.0498 17.6457C26.1598 17.4557 23.2098 18.2457 20.3698 17.3657C19.9198 17.2157 19.4498 17.0357 19.0998 16.7257L19.0098 16.7957Z" fill="#801E1D"/>
<path d="M38.6099 12.8357C38.0899 13.1357 37.5699 13.4457 37.0699 13.7557C36.8199 13.9157 36.5099 13.9857 36.3399 14.2157C36.1599 14.4457 36.0199 14.6957 35.9199 15.0957L35.9699 15.1857C36.7399 15.3657 37.2699 14.9857 37.6399 14.3957C38.0399 13.9257 38.3799 13.4257 38.6899 12.8957C38.6799 12.9057 38.6099 12.8357 38.6099 12.8357Z" fill="#801E1D"/>
</g>
<defs>
<clipPath id="clip0_323_583">
<rect width="55" height="75" fill="white" transform="translate(0 0.5)"/>
</clipPath>
</defs>
</svg>
