<svg width="50" height="54" viewBox="0 0 50 54" fill="none" xmlns="http://www.w3.org/2000/svg">
<g clip-path="url(#clip0_301_11391)">
<path d="M43.5703 49.22H32.3303C32.3103 48.44 32.3003 47.68 32.3003 46.94C32.3003 45.79 32.3303 44.68 32.3703 43.6C32.5003 40.5 32.7803 37.69 33.1403 35.22C33.3403 33.75 33.5703 32.41 33.8003 31.2C34.6903 26.64 35.6303 23.98 35.6303 23.98C38.2903 17.65 40.0003 22.16 40.4803 23.6C40.5403 23.79 40.5903 23.93 40.6103 23.98C40.8303 24.51 41.0303 25.21 41.2303 26.02C41.6403 27.72 41.9803 29.93 42.2803 32.33V32.34C42.3903 33.29 42.5003 34.25 42.6003 35.23V35.24C43.2803 42.09 43.5703 49.22 43.5703 49.22Z" fill="#FFE478"/>
<path d="M41.2204 26.01L33.1304 35.21C33.3304 33.74 33.5604 32.4 33.7904 31.19L40.4704 23.59C40.5304 23.78 40.5804 23.92 40.6004 23.97C40.8304 24.5 41.0304 25.2 41.2204 26.01Z" fill="#A0671D"/>
<path d="M42.2703 32.3201L32.3703 43.5901C32.3303 44.6701 32.3003 45.7801 32.3003 46.9301L42.6003 35.2201V35.2101L42.2703 32.3201Z" fill="#A0671D"/>
<path d="M49.9499 11.52C49.9499 12.18 49.8099 12.83 49.5299 13.45C47.0399 18.97 42.3299 26.13 31.9399 28.45C30.8899 28.69 29.7899 28.87 28.6299 29C27.3799 29.14 26.0599 29.22 24.6599 29.22C23.2499 29.11 21.8999 28.94 20.6099 28.72C19.7799 28.59 18.9699 28.43 18.1799 28.25C15.7699 27.7 13.5799 26.96 11.6199 26.04C10.9399 25.72 10.2799 25.39 9.65986 25.03C7.91986 24.04 6.38986 22.89 5.06986 21.6C4.54986 21.1 4.05986 20.57 3.60986 20.02C2.31986 18.46 1.27986 16.73 0.519857 14.86C0.449857 14.69 0.379857 14.53 0.319857 14.36C-0.180143 13.02 -0.0801429 11.54 0.639857 10.3L1.04986 9.60001C4.51986 3.95001 7.94986 1.58001 11.2199 0.460008C12.0899 0.160008 13.0099 0.650008 13.2599 1.53001C13.7099 3.12001 14.5499 5.59001 15.9799 7.87001C16.1699 8.18001 16.3699 8.48001 16.5899 8.78001C17.6099 10.22 18.8799 11.5 20.4499 12.36C20.7699 12.54 21.1099 12.7 21.4599 12.83C22.4199 13.22 23.4899 13.43 24.6699 13.43C32.1299 13.43 35.6499 5.14001 36.8999 1.41001C37.2099 0.490008 38.1599 -0.0299915 39.0899 0.180008C39.1399 0.190008 39.1899 0.200008 39.2399 0.220008C40.0199 0.460008 40.7599 0.750008 41.4799 1.11001C42.1499 1.42001 42.7899 1.78001 43.3999 2.18001C44.1499 2.67001 44.8699 3.22001 45.5299 3.83001C46.4199 4.66001 47.2099 5.57001 47.8999 6.57001C48.3299 7.19001 48.7199 7.85001 49.0599 8.54001C49.2799 8.95001 49.4599 9.37001 49.6299 9.81001C49.8399 10.34 49.9499 10.93 49.9499 11.52Z" fill="#FFE478"/>
<path d="M39.0801 0.159984C38.6701 4.30998 36.0001 8.11998 33.9901 10.46C32.2401 12.49 29.8801 13.94 27.2301 14.35C21.6501 15.2 18.2701 11.46 13.0901 10.18C7.72009 8.82998 2.18009 13.32 0.510092 14.83C0.440092 14.66 0.370092 14.5 0.310092 14.33C-0.189908 12.99 -0.0899085 11.51 0.630092 10.27L1.04009 9.56998C4.51009 3.91998 7.94009 1.54998 11.2101 0.429984C12.0801 0.129984 13.0001 0.619984 13.2501 1.49998C14.2701 5.11998 17.3901 13.4 24.6601 13.4C32.1201 13.4 35.6401 5.10998 36.8901 1.37998C37.1901 0.459984 38.1401 -0.0500156 39.0801 0.159984Z" fill="#A0671D"/>
<path d="M15.9601 7.84999L15.1501 7.12L3.6001 19.99C4.0501 20.54 4.5401 21.07 5.0601 21.57L16.5701 8.75999L15.9601 7.84999Z" fill="#A0671D"/>
<path d="M22.2599 13.5L11.6099 26.02L9.6499 25.01L20.4299 12.34C20.7499 12.52 21.0899 12.68 21.4399 12.81L22.2599 13.5Z" fill="#A0671D"/>
<path d="M20.5999 28.71L43.3899 2.14996C42.7799 1.74996 42.1399 1.38996 41.4699 1.07996L18.1699 28.23L20.5999 28.71Z" fill="#A0671D"/>
<path d="M49.0399 8.50992L31.9399 28.4499C30.8899 28.6899 29.7899 28.8699 28.6299 28.9999L47.8799 6.53992C48.3099 7.16992 48.6999 7.81992 49.0399 8.50992Z" fill="#A0671D"/>
<path d="M28.7401 27.08C28.7401 27.08 24.8401 38.05 25.2301 53.9H37.1801C37.1801 53.9 36.3101 32.59 34.0301 27.08C33.8601 26.65 31.9601 19.45 28.7401 27.08Z" fill="#FFE478"/>
<path d="M30.35 28.49L31.49 33.85L32.52 28.48C32.58 28.06 32.47 27.63 32.22 27.32L32.21 27.31C31.78 26.78 31.08 26.78 30.65 27.31C30.4 27.62 30.29 28.06 30.35 28.49Z" fill="#A0671D"/>
</g>
<defs>
<clipPath id="clip0_301_11391">
<rect width="49.95" height="53.78" fill="white" transform="translate(0 0.109985)"/>
</clipPath>
</defs>
</svg>
