<svg width="71" height="76" viewBox="0 0 71 76" fill="none" xmlns="http://www.w3.org/2000/svg">
<g clip-path="url(#clip0_302_80)">
<path d="M61.6502 68.93H45.9902C45.9602 67.85 45.9502 66.79 45.9502 65.75C45.9502 64.15 45.9902 62.6 46.0502 61.1C46.2302 56.79 46.6202 52.87 47.1202 49.43C47.4002 47.39 47.7202 45.52 48.0402 43.83C49.2802 37.48 50.5902 33.78 50.5902 33.78C54.3002 24.97 56.6702 31.25 57.3402 33.25C57.4302 33.52 57.4902 33.71 57.5202 33.78C57.8302 34.52 58.1102 35.49 58.3802 36.62C58.9502 38.98 59.4302 42.07 59.8402 45.41V45.42C60.0002 46.74 60.1502 48.08 60.2902 49.44V49.45C61.2402 59 61.6502 68.93 61.6502 68.93Z" fill="#FFE478"/>
<path d="M58.3801 36.62L47.1201 49.43C47.4001 47.39 47.7201 45.52 48.0401 43.83L57.3401 33.25C57.4301 33.52 57.4901 33.71 57.5201 33.78C57.8301 34.52 58.1101 35.49 58.3801 36.62Z" fill="#A0671D"/>
<path d="M59.8402 45.41L46.0502 61.1C45.9902 62.6 45.9502 64.15 45.9502 65.75L60.2902 49.45V49.44L59.8402 45.41Z" fill="#A0671D"/>
<path d="M70.5201 16.44C70.5201 17.36 70.3201 18.27 69.9301 19.13C66.4601 26.81 59.9001 36.79 45.4401 40.01C43.9801 40.34 42.4501 40.6 40.8301 40.77C39.0901 40.97 37.2501 41.07 35.3001 41.07C33.3401 40.91 31.4601 40.68 29.6601 40.37C28.5001 40.19 27.3701 39.96 26.2801 39.71C22.9201 38.94 19.8701 37.91 17.1401 36.63C16.1901 36.19 15.2801 35.72 14.4101 35.22C11.9901 33.84 9.8601 32.24 8.0201 30.44C7.3001 29.74 6.6201 29.01 5.9901 28.24C4.1901 26.07 2.7501 23.66 1.6901 21.05C1.5901 20.82 1.5001 20.59 1.4101 20.36C0.710104 18.5 0.860104 16.43 1.8501 14.71L2.4201 13.73C7.2501 5.87 12.0201 2.57 16.5801 1.01C17.7901 0.590003 19.0701 1.27 19.4201 2.5C20.0401 4.71 21.2201 8.15 23.2001 11.33C23.4701 11.76 23.7501 12.18 24.0501 12.6C25.4701 14.6 27.2401 16.39 29.4201 17.58C29.8701 17.83 30.3401 18.05 30.8301 18.23C32.1701 18.77 33.6601 19.07 35.3001 19.07C45.6901 19.07 50.5901 7.53 52.3301 2.33C52.7601 1.05 54.0801 0.330003 55.3801 0.620003C55.4501 0.630003 55.5201 0.650003 55.5901 0.670003C56.6701 1 57.7101 1.41 58.7101 1.91C59.6401 2.34 60.5301 2.84 61.3801 3.4C62.4301 4.08 63.4201 4.85 64.3401 5.7C65.5801 6.85 66.6801 8.12 67.6401 9.51C68.2401 10.38 68.7801 11.29 69.2501 12.25C69.5501 12.82 69.8101 13.41 70.0501 14.02C70.3601 14.8 70.5201 15.62 70.5201 16.44Z" fill="#FFE478"/>
<path d="M55.3801 0.620003C54.8101 6.4 51.1001 11.71 48.3001 14.96C45.8701 17.79 42.5801 19.81 38.8901 20.37C31.1201 21.55 26.4101 16.35 19.2101 14.56C11.7301 12.7 4.0101 18.95 1.6901 21.05C1.5901 20.82 1.5001 20.59 1.4101 20.36C0.710104 18.5 0.860104 16.43 1.8501 14.71L2.4201 13.73C7.2501 5.87 12.0201 2.57 16.5801 1.01C17.7901 0.590003 19.0701 1.27 19.4201 2.5C20.8401 7.54 25.1801 19.07 35.3001 19.07C45.6901 19.07 50.5901 7.53 52.3301 2.33C52.7601 1.05 54.0801 0.330003 55.3801 0.620003Z" fill="#A0671D"/>
<path d="M23.2002 11.3301L22.0702 10.3201L5.99023 28.2401C6.62023 29.0101 7.30023 29.7401 8.02023 30.4401L24.0502 12.6001L23.2002 11.3301Z" fill="#A0671D"/>
<path d="M31.9702 19.2001L17.1402 36.6301L14.4102 35.2201L29.4202 17.5801C29.8702 17.8301 30.3402 18.0501 30.8302 18.2301L31.9702 19.2001Z" fill="#A0671D"/>
<path d="M29.6603 40.37L61.3803 3.40003C60.5303 2.84003 59.6403 2.34003 58.7103 1.91003L26.2803 39.71L29.6603 40.37Z" fill="#A0671D"/>
<path d="M69.2501 12.25L45.4401 40.01C43.9801 40.34 42.4501 40.6 40.8301 40.77L67.6401 9.51001C68.2401 10.38 68.7801 11.29 69.2501 12.25Z" fill="#A0671D"/>
<path d="M40.9999 38.11C40.9999 38.11 35.5799 53.39 36.1199 75.44H52.7499C52.7499 75.44 51.5399 45.77 48.3699 38.11C48.1199 37.51 45.4699 27.48 40.9999 38.11Z" fill="#FFE478"/>
<path d="M43.2399 40.08L44.8199 47.54L46.2499 40.06C46.3299 39.47 46.1799 38.87 45.8299 38.45L45.8199 38.43C45.2199 37.69 44.2399 37.69 43.6499 38.43C43.2999 38.86 43.1499 39.48 43.2399 40.08Z" fill="#A0671D"/>
</g>
<defs>
<clipPath id="clip0_302_80">
<rect width="69.54" height="74.88" fill="white" transform="translate(0.97998 0.560059)"/>
</clipPath>
</defs>
</svg>
