<svg width="63" height="92" viewBox="0 0 63 92" fill="none" xmlns="http://www.w3.org/2000/svg">
<g clip-path="url(#clip0_301_8312)">
<path d="M59.9101 21.28V91.77H58.4201V83.62H56.7101V91.77H55.4201V83.62H53.7101V91.77H52.4201V83.62H50.7301V91.77H49.4301V83.62H47.7401V91.77H46.4401V83.62H44.7501V91.77H43.4501V83.62H41.7501V91.77H40.3301V35.45C50.1201 32.04 59.9101 21.28 59.9101 21.28Z" fill="#4DA6FF"/>
<path d="M59.9001 59.26H40.3301V64.26H59.9001V59.26Z" fill="#FFFFEB"/>
<path d="M59.9001 45.3301H40.3301V50.3301H59.9001V45.3301Z" fill="#FFFFEB"/>
<path d="M59.9001 73.2001H40.3301V78.2001H59.9001V73.2001Z" fill="#FFFFEB"/>
<path d="M59.9098 21.28V29.29C55.5398 34.98 49.0798 38.79 40.3398 40.98V35.45C50.1198 32.04 59.9098 21.28 59.9098 21.28Z" fill="#3C86AC"/>
<path d="M62.91 18.12C62.82 18.86 62.62 19.61 62.31 20.33C61.86 21.35 61.27 22.49 60.48 23.69C58.99 25.95 56.81 28.43 53.61 30.81H53.6C52.17 31.87 50.54 32.9 48.68 33.87C46.2 35.17 43.32 36.38 39.95 37.42C39.95 37.42 38.12 37.95 35.19 38.27C33.55 38.44 31.57 38.55 29.39 38.46C25.2 38.29 20.25 37.37 15.48 34.78C13.84 33.9 12.24 32.82 10.69 31.49C9.09997 30.15 7.57997 28.56 6.15997 26.7C4.81997 24.95 3.57997 22.95 2.46997 20.66C0.949971 17.56 1.36997 13.87 3.63997 11.28C5.39997 9.27002 8.02997 7.04002 11.79 5.58002C12.35 5.36002 12.93 5.16002 13.53 4.98002C13.54 4.98002 13.56 4.97002 13.58 4.97002C13.58 4.97002 15.17 3.47002 17.06 2.03002C17.54 1.66002 18.05 1.30002 18.55 0.960023C19.87 0.0800231 21.68 0.620023 22.24 2.11002C23.25 4.86002 25.3 8.90002 28.85 9.85002C33.88 11.21 40.02 9.71002 42.27 1.80002C42.69 0.300023 44.59 -0.299977 45.71 0.780023L45.74 0.810023C45.74 0.810023 46.27 0.970023 47.02 1.34002C48.23 1.94002 50 3.08002 50.93 4.88002C50.93 4.88002 51.28 5.00002 51.88 5.23002C53.68 5.96002 57.68 7.85002 60.9 11.45C62.52 13.29 63.24 15.75 62.91 18.12Z" fill="#4DA6FF"/>
<path d="M19.6001 15.41L10.0801 31.18C11.6401 32.5 13.2401 33.58 14.8701 34.47L24.8701 17.92L19.6001 15.41Z" fill="#FFFFEB"/>
<path d="M34.59 18.77V37.96C32.95 38.13 30.97 38.24 28.79 38.15V18.77H34.59Z" fill="#FFFFEB"/>
<path d="M43.9202 15.34L53.5902 30.8C52.1602 31.86 50.5302 32.89 48.6702 33.86L38.6602 17.84L43.9202 15.34Z" fill="#FFFFEB"/>
<path d="M50.4302 7.59998L62.9102 18.12C62.8202 18.86 62.7002 19.49 62.3802 20.21C61.9302 21.23 61.3402 22.37 60.5502 23.57L47.2402 12.53L50.4302 7.59998Z" fill="#FFFFEB"/>
<path d="M50.91 4.89005C50.05 2.96005 47.6101 1.65005 46.41 1.05005C46.41 1.05005 43.16 13.27 31.6901 13.32C22.1 13.35 18.0401 6.34005 16.5501 2.37005C14.6601 3.81005 13.5701 4.96005 13.5701 4.96005C13.5601 4.96005 6.56005 7.09005 3.04005 10.97C0.73005 13.53 0.35005 17.25 1.87005 20.35C2.98005 22.64 4.23005 24.63 5.56005 26.39C8.42005 23.4 13.4501 18.27 16.0501 15.63C16.9801 14.69 18.2301 14.87 19.3001 15.64C19.7801 15.99 20.2701 16.3201 20.6501 16.5201C27.5601 20.26 36.25 19.87 43.0201 15.88C49.1001 12.3 51.41 7.44005 51.87 5.22005C51.26 5.00005 50.91 4.89005 50.91 4.89005Z" fill="#3C86AC"/>
</g>
<defs>
<clipPath id="clip0_301_8312">
<rect width="62.04" height="91.54" fill="white" transform="translate(0.950195 0.22998)"/>
</clipPath>
</defs>
</svg>
