<svg width="55" height="76" viewBox="0 0 55 76" fill="none" xmlns="http://www.w3.org/2000/svg">
<g clip-path="url(#clip0_323_465)">
<path d="M41.3897 36.7025H32.9897C32.9697 36.1225 32.9697 35.5525 32.9697 34.9925C32.9697 34.1325 32.9897 33.3025 33.0197 32.5025C33.1197 30.1925 33.3297 28.0825 33.5897 26.2425C33.7397 25.1525 33.9097 24.1425 34.0797 23.2425C34.7497 19.8325 35.4497 17.8525 35.4497 17.8525C37.4397 13.1225 38.7097 16.4925 39.0697 17.5725C39.1197 17.7125 39.1497 17.8225 39.1697 17.8525C39.3397 18.2525 39.4897 18.7725 39.6297 19.3725C39.9397 20.6425 40.1897 22.2925 40.4097 24.0925V24.1025C40.4997 24.8125 40.5797 25.5325 40.6497 26.2625V26.2725C41.1697 31.3725 41.3897 36.7025 41.3897 36.7025Z" fill="#FFE478"/>
<path d="M39.6396 19.3625L33.5996 26.2325C33.7496 25.1425 33.9196 24.1325 34.0896 23.2325L39.0796 17.5525C39.1296 17.6925 39.1596 17.8025 39.1796 17.8325C39.3396 18.2325 39.4896 18.7525 39.6396 19.3625Z" fill="#A0671D"/>
<path d="M40.4197 24.0825L33.0197 32.5025C32.9897 33.3025 32.9697 34.1425 32.9697 35.0025L40.6597 26.2525V26.2425L40.4197 24.0825Z" fill="#A0671D"/>
<path d="M46.1597 8.53249C46.1597 9.02249 46.0497 9.51249 45.8397 9.97249C43.9797 14.0925 40.4597 19.4525 32.6997 21.1725C31.9197 21.3525 31.0997 21.4925 30.2297 21.5825C29.2997 21.6925 28.3097 21.7425 27.2597 21.7425C26.2097 21.6525 25.1997 21.5325 24.2297 21.3625C23.6097 21.2625 22.9997 21.1425 22.4197 21.0125C20.6197 20.6025 18.9797 20.0425 17.5197 19.3625C17.0097 19.1225 16.5197 18.8725 16.0597 18.6025C14.7597 17.8625 13.6197 17.0025 12.6297 16.0425C12.2397 15.6625 11.8797 15.2725 11.5397 14.8625C10.5697 13.7025 9.79967 12.4025 9.22967 11.0025C9.17967 10.8825 9.12967 10.7525 9.07967 10.6325C8.69967 9.63249 8.77967 8.52249 9.31967 7.60249L9.62967 7.07249C12.2197 2.85249 14.7797 1.08249 17.2297 0.242491C17.8797 0.0124913 18.5697 0.382492 18.7497 1.04249C19.0797 2.23249 19.7197 4.07249 20.7797 5.78249C20.9197 6.01249 21.0797 6.24249 21.2397 6.46249C21.9997 7.53249 22.9497 8.49249 24.1197 9.13249C24.3597 9.26249 24.6097 9.38249 24.8797 9.48249C25.5997 9.77249 26.3997 9.93249 27.2797 9.93249C32.8497 9.93249 35.4797 3.74249 36.4197 0.952492C36.6497 0.262492 37.3597 -0.117508 38.0597 0.0324922C38.0997 0.0424922 38.1397 0.052491 38.1697 0.062491C38.7497 0.242491 39.3097 0.462491 39.8397 0.732491C40.3397 0.962491 40.8197 1.23249 41.2697 1.53249C41.8297 1.89249 42.3597 2.31249 42.8597 2.76249C43.5297 3.38249 44.1197 4.06249 44.6297 4.80249C44.9497 5.27249 45.2397 5.76249 45.4897 6.27249C45.6497 6.58249 45.7897 6.89249 45.9197 7.22249C46.0697 7.65249 46.1597 8.09249 46.1597 8.53249Z" fill="#FFE478"/>
<path d="M38.0299 0.0525116C37.7199 3.15251 35.7299 6.00251 34.2299 7.74251C32.9299 9.26251 31.1599 10.3425 29.1799 10.6425C25.0099 11.2725 22.4799 8.48251 18.6199 7.52251C14.6099 6.52251 10.4599 9.88251 9.21991 11.0025C9.16991 10.8825 9.11991 10.7525 9.06991 10.6325C8.68991 9.63251 8.76991 8.52251 9.30991 7.60251L9.61991 7.07251C12.2099 2.85251 14.7699 1.08251 17.2199 0.24251C17.8699 0.0125102 18.5599 0.382511 18.7399 1.04251C19.4999 3.74251 21.8299 9.93251 27.2599 9.93251C32.8299 9.93251 35.4599 3.74251 36.3999 0.952511C36.6299 0.282511 37.3399 -0.107488 38.0299 0.0525116Z" fill="#A0671D"/>
<path d="M20.7698 5.79256L20.1598 5.25256L11.5298 14.8726C11.8698 15.2826 12.2298 15.6726 12.6198 16.0526L21.2198 6.48256L20.7698 5.79256Z" fill="#A0671D"/>
<path d="M25.4698 10.0126L17.5098 19.3626L16.0498 18.6026L24.0998 9.14258C24.3398 9.27258 24.5898 9.39258 24.8598 9.49258L25.4698 10.0126Z" fill="#A0671D"/>
<path d="M24.2299 21.3725L41.2499 1.53255C40.7899 1.23255 40.3199 0.962544 39.8199 0.732544L22.4199 21.0125L24.2299 21.3725Z" fill="#A0671D"/>
<path d="M45.48 6.29251L32.7 21.1825C31.92 21.3625 31.1 21.5025 30.23 21.5925L44.62 4.82251C44.93 5.28251 45.22 5.77251 45.48 6.29251Z" fill="#A0671D"/>
<path d="M30.32 20.1625C30.32 20.1625 27.41 28.3625 27.7 40.1925H36.62C36.62 40.1925 35.97 24.2725 34.27 20.1625C34.14 19.8425 32.72 14.4625 30.32 20.1625Z" fill="#FFE478"/>
<path d="M31.5199 21.2125L32.3699 25.2125L33.1399 21.2025C33.1799 20.8825 33.0999 20.5625 32.9199 20.3325L32.9099 20.3225C32.5899 19.9225 32.0599 19.9225 31.7399 20.3225C31.5499 20.5625 31.4699 20.8925 31.5199 21.2125Z" fill="#A0671D"/>
</g>
<defs>
<clipPath id="clip0_323_465">
<rect width="55" height="75" fill="white" transform="translate(0 0.5)"/>
</clipPath>
</defs>
</svg>
