<svg width="31" height="26" viewBox="0 0 31 26" fill="none" xmlns="http://www.w3.org/2000/svg">
<g clip-path="url(#clip0_301_11584)">
<path d="M15.5804 22.25C11.5104 22.25 8.30045 20.91 6.03045 18.26C0.760448 12.11 2.37045 1.17997 2.44045 0.719971L3.30045 0.849971C3.28045 0.959971 1.67045 11.85 6.69045 17.7C8.79045 20.14 11.7804 21.38 15.5804 21.38C23.3604 21.38 28.1204 20.39 28.1204 0.779971H28.9904C28.9804 19.27 25.0304 22.25 15.5804 22.25Z" fill="#333C83"/>
<path d="M1.53027 5.85998L0.660273 4.98998C0.0702735 4.39998 0.0702735 3.43998 0.660273 2.84998L1.53027 1.97998C2.12027 1.38998 3.08027 1.38998 3.67027 1.97998L4.54027 2.84998C5.13027 3.43998 5.13027 4.39998 4.54027 4.98998L3.67027 5.85998C3.08027 6.44998 2.12027 6.44998 1.53027 5.85998Z" fill="#474DC0"/>
<path d="M1.86035 12.28L0.990352 11.41C0.400352 10.82 0.400352 9.86002 0.990352 9.27002L1.86035 8.40002C2.45035 7.81002 3.41035 7.81002 4.00035 8.40002L4.87035 9.27002C5.46035 9.86002 5.46035 10.82 4.87035 11.41L4.00035 12.28C3.41035 12.87 2.45035 12.87 1.86035 12.28Z" fill="#474DC0"/>
<path d="M3.78018 17.96L2.80018 16.98C2.14018 16.32 2.14018 15.23 2.80018 14.57L3.78018 13.59C4.44018 12.93 5.53018 12.93 6.19018 13.59L7.17018 14.57C7.83018 15.23 7.83018 16.32 7.17018 16.98L6.19018 17.96C5.53018 18.63 4.44018 18.63 3.78018 17.96Z" fill="#474DC0"/>
<path d="M28.1501 18.35L29.1301 17.37C29.7901 16.71 29.7901 15.62 29.1301 14.96L28.1501 13.98C27.4901 13.32 26.4001 13.32 25.7401 13.98L24.7601 14.96C24.1001 15.62 24.1001 16.71 24.7601 17.37L25.7401 18.35C26.4001 19.01 27.4901 19.01 28.1501 18.35Z" fill="#474DC0"/>
<path d="M23.6702 22.39L24.6502 21.41C25.3102 20.75 25.3102 19.66 24.6502 19L23.6702 18.02C23.0102 17.36 21.9202 17.36 21.2602 18.02L20.2802 19C19.6202 19.66 19.6202 20.75 20.2802 21.41L21.2602 22.39C21.9202 23.05 23.0102 23.05 23.6702 22.39Z" fill="#474DC0"/>
<path d="M10.2805 22.39L11.2605 21.41C11.9205 20.75 11.9205 19.66 11.2605 19L10.2805 18.02C9.62048 17.36 8.53048 17.36 7.87048 18.02L6.89048 19C6.22048 19.66 6.22048 20.74 6.88048 21.41L7.86048 22.39C8.53048 23.05 9.61048 23.05 10.2805 22.39Z" fill="#474DC0"/>
<path d="M17.3001 24.65L18.5501 23.4C19.3901 22.56 19.3901 21.18 18.5501 20.33L17.3001 19.08C16.4601 18.24 15.0801 18.24 14.2301 19.08L12.9801 20.33C12.1401 21.17 12.1401 22.55 12.9801 23.4L14.2301 24.65C15.0801 25.5 16.4601 25.5 17.3001 24.65Z" fill="#474DC0"/>
<path d="M27.4805 5.85998L26.6105 4.98998C26.0205 4.39998 26.0205 3.43998 26.6105 2.84998L27.4805 1.97998C28.0705 1.38998 29.0305 1.38998 29.6205 1.97998L30.4905 2.84998C31.0805 3.43998 31.0805 4.39998 30.4905 4.98998L29.6205 5.85998C29.0305 6.44998 28.0705 6.44998 27.4805 5.85998Z" fill="#474DC0"/>
<path d="M27.04 12.28L26.17 11.41C25.58 10.82 25.58 9.86002 26.17 9.27002L27.04 8.40002C27.63 7.81002 28.59 7.81002 29.18 8.40002L30.05 9.27002C30.64 9.86002 30.64 10.82 30.05 11.41L29.18 12.28C28.59 12.87 27.63 12.87 27.04 12.28Z" fill="#474DC0"/>
</g>
<defs>
<clipPath id="clip0_301_11584">
<rect width="30.71" height="24.56" fill="white" transform="translate(0.220215 0.719971)"/>
</clipPath>
</defs>
</svg>
