<svg width="51" height="58" viewBox="0 0 51 58" fill="none" xmlns="http://www.w3.org/2000/svg">
<g clip-path="url(#clip0_301_11417)">
<path d="M44.5202 49.86H33.2702C33.2502 49.08 33.2402 48.32 33.2402 47.58C33.2402 46.43 33.2702 45.32 33.3102 44.24C33.4402 41.14 33.7202 38.33 34.0802 35.86C34.2802 34.39 34.5102 33.05 34.7402 31.84C35.6302 27.28 36.5702 24.62 36.5702 24.62C39.2302 18.29 40.9402 22.8 41.4202 24.24C41.4802 24.43 41.5302 24.57 41.5502 24.62C41.7702 25.15 41.9702 25.85 42.1702 26.66C42.5802 28.36 42.9202 30.57 43.2202 32.97V32.98C43.3302 33.93 43.4402 34.89 43.5402 35.87V35.88C44.2302 42.72 44.5202 49.86 44.5202 49.86Z" fill="#BD502F"/>
<path d="M50.9002 12.15C50.9002 12.3 50.8902 12.46 50.8702 12.61C50.8302 13.11 50.6902 13.61 50.4802 14.08C50.3702 14.34 50.2402 14.6 50.1202 14.86C49.6502 15.84 49.1102 16.88 48.4702 17.91C47.9302 18.79 47.3302 19.66 46.6502 20.5201C45.7302 21.6901 44.6702 22.83 43.4502 23.89C40.8002 26.17 37.3802 28.08 32.9002 29.08C31.8502 29.32 30.7502 29.5 29.5902 29.63C28.3402 29.77 27.0202 29.85 25.6202 29.85C24.2102 29.74 22.8602 29.57 21.5702 29.35C20.7402 29.2201 19.9302 29.06 19.1402 28.88C16.7302 28.33 14.5402 27.59 12.5802 26.67C11.9002 26.35 11.2402 26.0201 10.6202 25.66C8.88017 24.67 7.35017 23.5201 6.03017 22.23C5.51017 21.73 5.02017 21.2 4.57017 20.65C3.28017 19.09 2.24017 17.3601 1.48017 15.49C1.41017 15.32 1.63017 14.97 1.56017 14.8C1.06017 13.46 1.58017 13.4501 2.29017 12.22L2.81017 10.87C6.28017 5.22005 8.92017 3.00005 12.1902 1.88005C13.0602 1.58005 13.8102 1.55005 14.0602 2.43005C14.5102 4.02005 16.8902 9.49005 17.1102 9.79005C18.1302 11.23 19.6702 12.19 21.2402 13.04C21.5602 13.22 22.0002 13.5 22.3502 13.63C23.3102 14.0201 25.6502 14.46 26.8302 14.46C34.2902 14.46 36.9602 6.34005 38.2102 2.60005C38.5202 1.68005 39.0902 0.60005 40.0302 0.81005C40.0802 0.82005 40.1302 0.83005 40.1802 0.85005C40.9602 1.09005 41.7002 1.38005 42.4202 1.74005C43.0902 2.05005 43.7302 2.41005 44.3402 2.81005C45.0902 3.30005 45.8102 3.85005 46.4702 4.46005C47.0802 5.03005 47.6402 5.63005 48.1502 6.28005C48.3902 6.57005 48.6202 6.88005 48.8402 7.20005C49.2702 7.82005 49.6602 8.48005 50.0002 9.17005C50.2202 9.58005 50.4002 10 50.5702 10.44C50.7902 10.98 50.9002 11.56 50.9002 12.15Z" fill="#F7ECB9"/>
<path d="M14.7002 22.94C16.6002 24.91 19.5902 25.15 22.1602 25.47C24.8202 25.78 27.5102 25.59 29.9902 24.44L29.9702 24.29C29.2902 24.15 28.6402 24.1 27.9802 24.07C24.1502 23.82 20.2502 24.87 16.5002 23.7C15.9002 23.51 15.2802 23.27 14.8202 22.86L14.7002 22.94Z" fill="#BD502F"/>
<path d="M40.61 17.7C39.92 18.09 39.24 18.5 38.57 18.92C38.24 19.13 37.83 19.22 37.6 19.53C37.36 19.84 37.17 20.17 37.04 20.7L37.11 20.83C38.13 21.07 38.84 20.57 39.32 19.79C39.84 19.17 40.3 18.5099 40.7 17.7999L40.61 17.7Z" fill="#BD502F"/>
<path d="M37.8301 2.02C36.5901 5.76 33.0601 14.05 25.6001 14.05C24.6701 14.05 23.8101 13.92 23.0101 13.67C22.8201 13.89 22.6101 14.1 22.3701 14.28C24.1301 14.94 25.9801 15.31 28.1801 14.98C30.8301 14.58 33.1901 13.13 34.9401 11.09C36.9501 8.76 39.6201 4.95 40.0301 0.799999C39.0901 0.589999 38.1401 1.1 37.8301 2.02Z" fill="#BD502F"/>
<path d="M18.3202 10.43C18.1002 10.17 17.8902 9.90002 17.6902 9.63002C17.4202 9.97002 17.1102 10.26 16.7402 10.49C15.9402 9.84002 14.8802 9.61002 13.9002 9.87002C13.4802 8.45002 12.4202 7.26002 10.9502 6.72002C11.2202 4.92002 12.7602 3.54002 14.6202 3.50002C14.4502 3.00002 14.3102 2.54002 14.2002 2.14002C13.9502 1.26002 13.0302 0.770017 12.1602 1.08002C8.88022 2.20002 5.46022 4.57002 1.99022 10.21L1.58022 10.91C0.870217 12.15 0.760217 13.63 1.26022 14.97C1.32022 15.14 1.39022 15.3 1.46022 15.47C2.21022 14.79 3.74022 13.51 5.70022 12.43C5.70022 12.43 5.71022 12.43 5.71022 12.42C5.46022 11.68 5.42022 10.85 5.69022 10.05C6.34022 8.06002 8.48022 6.97002 10.4702 7.62002C11.7502 8.03002 12.6502 9.06002 12.9702 10.27C12.8202 10.36 12.6902 10.47 12.5602 10.59C13.0602 10.61 13.5602 10.69 14.0502 10.81C14.0902 10.82 14.1302 10.83 14.1602 10.84H14.1702C14.3402 10.8 14.5202 10.77 14.7002 10.77C15.3902 10.77 16.0002 11.09 16.4002 11.59H16.4102C16.8802 11.78 17.3502 11.99 17.8102 12.19C17.7302 11.86 17.5902 11.54 17.4102 11.25C17.7502 11.02 18.0602 10.74 18.3202 10.43Z" fill="#BD502F"/>
<path d="M12.4902 12.98C12.4902 14.2 13.4802 15.19 14.7002 15.19C15.9202 15.19 16.9102 14.2 16.9102 12.98C16.9102 12.45 16.7102 11.97 16.4002 11.58C15.6902 11.29 14.9502 11.03 14.1702 10.83C13.2102 11.08 12.4902 11.94 12.4902 12.98Z" fill="#EB564B"/>
<path d="M14.7004 10.77C14.5204 10.77 14.3404 10.8 14.1704 10.84C14.9504 11.04 15.6904 11.3 16.4004 11.59C16.0004 11.09 15.3904 10.77 14.7004 10.77Z" fill="#99221F"/>
<path d="M13.5202 15.98C12.5702 15.61 11.8402 14.8 11.5802 13.8C10.3302 13.73 9.08024 14.27 8.29024 15.36C7.06024 17.05 7.43024 19.43 9.13024 20.66C10.6702 21.78 12.7602 21.57 14.0502 20.26C13.1802 18.95 13.0302 17.36 13.5202 15.98Z" fill="#EB564B"/>
<path d="M17.1801 15.03C16.5301 15.81 15.5401 16.26 14.5101 16.2C14.0601 17.36 14.1801 18.73 14.9701 19.81C16.2001 21.5 18.5701 21.88 20.2701 20.65C21.8101 19.53 22.2601 17.48 21.4101 15.84C19.9101 16.27 18.3501 15.92 17.1801 15.03Z" fill="#EB564B"/>
<path d="M17.7002 14.16C18.6702 14.95 20.0102 15.25 21.2802 14.84C21.6802 14.71 22.0502 14.52 22.3702 14.29C20.8302 13.72 19.3702 12.93 17.8202 12.21C17.9802 12.83 17.9502 13.52 17.7002 14.16Z" fill="#EB564B"/>
<path d="M23.0102 13.6701C21.1002 13.0901 19.5602 11.8801 18.3202 10.4301C18.0602 10.7501 17.7502 11.0201 17.4102 11.2601C17.6002 11.5501 17.7302 11.8701 17.8102 12.2001C19.3602 12.9201 20.8302 13.7101 22.3602 14.2801C22.6102 14.1001 22.8202 13.8901 23.0102 13.6701Z" fill="#99221F"/>
<path d="M10.9502 6.72C12.4202 7.26 13.4802 8.45 13.8902 9.86C14.8702 9.61 15.9402 9.84 16.7302 10.48C17.1002 10.25 17.4102 9.96 17.6802 9.62C16.1902 7.62 15.2202 5.3 14.6102 3.5C12.7602 3.54 11.2202 4.93 10.9502 6.72Z" fill="#99221F"/>
<path d="M5.71045 12.43C6.02045 13.36 6.67045 14.16 7.59045 14.61C8.56045 13.38 10.0204 12.75 11.4904 12.78C11.5404 11.94 11.9304 11.15 12.5604 10.58C10.1004 10.43 7.69045 11.32 5.71045 12.43Z" fill="#EB564B"/>
<path d="M10.46 7.62C8.47001 6.97 6.33001 8.06 5.69001 10.05C5.43001 10.85 5.46001 11.68 5.71001 12.42C7.69001 11.32 10.1 10.42 12.55 10.58C12.68 10.47 12.81 10.36 12.96 10.26C12.64 9.06 11.74 8.03 10.46 7.62Z" fill="#99221F"/>
<path d="M50.1199 14.86C49.6499 15.84 49.1099 16.88 48.4699 17.91C48.3499 17.93 48.2199 17.95 48.0899 17.95C46.8699 17.95 45.8799 16.96 45.8799 15.74C45.8799 14.52 46.8699 13.53 48.0899 13.53C48.9999 13.53 49.7799 14.08 50.1199 14.86Z" fill="#EB564B"/>
<path d="M46.91 18.73C46.71 19.3 46.62 19.92 46.64 20.53C45.72 21.7 44.66 22.84 43.44 23.9C43.12 23.79 42.81 23.62 42.51 23.41C40.82 22.17 40.44 19.8 41.68 18.11C42.46 17.03 43.72 16.48 44.97 16.56C45.23 17.55 45.96 18.36 46.91 18.73Z" fill="#EB564B"/>
<path d="M50.8998 12.15C50.8998 12.3 50.8898 12.46 50.8698 12.61C50.6498 12.85 50.3998 13.06 50.1198 13.24C49.3198 12.59 48.2598 12.36 47.2798 12.62C46.8598 11.21 45.8098 10.01 44.3398 9.47C44.6198 7.65 46.1898 6.25 48.0898 6.25H48.1498C48.3898 6.54 48.6198 6.85 48.8398 7.17C49.2698 7.79 49.6598 8.45 49.9998 9.14C50.2198 9.55 50.3998 9.97 50.5698 10.41C50.7898 10.98 50.8998 11.56 50.8998 12.15Z" fill="#EB564B"/>
<path d="M44.87 15.54C44.93 14.52 45.48 13.58 46.34 13.02C46.02 11.81 45.12 10.78 43.84 10.37C41.85 9.72 39.71 10.81 39.06 12.8C38.47 14.61 39.31 16.53 40.96 17.36C41.94 16.14 43.4 15.5 44.87 15.54Z" fill="#EB564B"/>
<path d="M31.0301 27.72C31.0301 27.72 27.1301 38.69 27.5201 54.54H39.4701C39.4701 54.54 38.6001 33.23 36.3201 27.72C36.1401 27.29 34.2401 20.09 31.0301 27.72Z" fill="#F7ECB9"/>
<path d="M32.6403 29.13L33.7803 34.49L34.8103 29.12C34.8703 28.7 34.7603 28.27 34.5103 27.96L34.5003 27.95C34.0703 27.42 33.3703 27.42 32.9403 27.95C32.6803 28.26 32.5703 28.7 32.6403 29.13Z" fill="#BD502F"/>
<mask id="mask0_301_11417" style="mask-type:luminance" maskUnits="userSpaceOnUse" x="27" y="24" width="13" height="31">
<path d="M31.0301 27.72C31.0301 27.72 27.1301 38.69 27.5201 54.54H39.4701C39.4701 54.54 38.6001 33.23 36.3201 27.72C36.1401 27.29 34.2401 20.09 31.0301 27.72Z" fill="white"/>
</mask>
<g mask="url(#mask0_301_11417)">
<path d="M27.2598 51.07C28.4804 51.07 29.4698 50.0806 29.4698 48.86C29.4698 47.6395 28.4804 46.65 27.2598 46.65C26.0393 46.65 25.0498 47.6395 25.0498 48.86C25.0498 50.0806 26.0393 51.07 27.2598 51.07Z" fill="#EB564B"/>
<path d="M29.7397 50.91C29.0897 51.69 28.0997 52.14 27.0697 52.08C26.6197 53.24 26.7397 54.61 27.5297 55.69C28.7597 57.38 31.1297 57.76 32.8297 56.53C34.3697 55.41 34.8197 53.36 33.9697 51.72C32.4697 52.15 30.9097 51.8 29.7397 50.91Z" fill="#EB564B"/>
<path d="M29.9697 47.1301C30.5197 47.9901 30.6297 49.0701 30.2597 50.0301C31.2297 50.8201 32.5597 51.1201 33.8397 50.7101C35.8297 50.0601 36.9197 47.9201 36.2697 45.9301C35.6797 44.1201 33.8697 43.0601 32.0497 43.3601C31.9997 44.9201 31.1897 46.3001 29.9697 47.1301Z" fill="#EB564B"/>
<path d="M26.4498 45.74C27.4398 45.49 28.4998 45.71 29.2998 46.36C30.3498 45.69 31.0498 44.51 31.0498 43.17C31.0498 41.08 29.3498 39.38 27.2598 39.38C25.3598 39.38 23.7898 40.78 23.5098 42.6C24.9798 43.14 26.0298 44.33 26.4498 45.74Z" fill="#EB564B"/>
</g>
</g>
<defs>
<clipPath id="clip0_301_11417">
<rect width="49.95" height="56.5" fill="white" transform="translate(0.950195 0.75)"/>
</clipPath>
</defs>
</svg>
