<svg width="55" height="76" viewBox="0 0 55 76" fill="none" xmlns="http://www.w3.org/2000/svg">
<g clip-path="url(#clip0_323_441)">
<path d="M49.5301 16.6007V72.1707H48.3601V65.7407H47.0101V72.1707H45.9901V65.7407H44.6401V72.1707H43.6201V65.7407H42.3001V72.1707H41.2701V65.7407H39.9301V72.1707H38.9001V65.7407H37.5601V72.1707H36.5301V65.7407H35.1901V72.1707H34.1001V27.7707C41.8101 25.0807 49.5301 16.6007 49.5301 16.6007Z" fill="#4DA6FF"/>
<path d="M49.5203 46.5507H34.0903V50.4907H49.5203V46.5507Z" fill="#FFFFEB"/>
<path d="M49.5203 35.5607H34.0903V39.5007H49.5203V35.5607Z" fill="#FFFFEB"/>
<path d="M49.5203 57.5308H34.0903V61.4708H49.5203V57.5308Z" fill="#FFFFEB"/>
<path d="M49.5301 16.6007V22.9207C46.0901 27.4007 40.9901 30.4107 34.1001 32.1407V27.7807C41.8101 25.0807 49.5301 16.6007 49.5301 16.6007Z" fill="#3C86AC"/>
<path d="M51.9002 14.1107C51.8302 14.7007 51.6702 15.2807 51.4202 15.8507C51.0602 16.6607 50.6002 17.5507 49.9702 18.5007C48.8002 20.2807 47.0802 22.2307 44.5502 24.1107H44.5402C43.4102 24.9407 42.1202 25.7607 40.6602 26.5307C38.7002 27.5607 36.4302 28.5107 33.7802 29.3307C33.7802 29.3307 32.3302 29.7507 30.0302 30.0007C28.7402 30.1407 27.1702 30.2207 25.4502 30.1507C22.1502 30.0107 18.2502 29.2907 14.4902 27.2507C13.2002 26.5507 11.9402 25.7007 10.7102 24.6607C9.45018 23.5907 8.26018 22.3407 7.14018 20.8707C6.09018 19.4907 5.11018 17.9107 4.23018 16.1107C3.03018 13.6707 3.36018 10.7607 5.15018 8.71075C6.54018 7.13075 8.61018 5.37075 11.5802 4.22075C12.0202 4.05075 12.4802 3.89075 12.9502 3.74075C12.9602 3.74075 12.9802 3.73075 12.9902 3.73075C12.9902 3.73075 14.2402 2.55075 15.7402 1.41075C16.1202 1.12075 16.5202 0.830746 16.9102 0.570746C17.9502 -0.129254 19.3802 0.300746 19.8202 1.48075C20.6202 3.65075 22.2402 6.83075 25.0302 7.58075C28.9902 8.65075 33.8302 7.47075 35.6102 1.24075C35.9402 0.0607462 37.4402 -0.419254 38.3202 0.430746L38.3502 0.460746C38.3502 0.460746 38.7702 0.590746 39.3602 0.880746C40.3102 1.36075 41.7102 2.25075 42.4402 3.67075C42.4402 3.67075 42.7102 3.76075 43.1902 3.94075C44.6102 4.52075 47.7702 6.01075 50.3002 8.85075C51.5802 10.3007 52.1502 12.2507 51.9002 14.1107Z" fill="#4DA6FF"/>
<path d="M17.7502 11.9707L10.2402 24.4107C11.4702 25.4507 12.7302 26.3007 14.0202 27.0007L21.9002 13.9507L17.7502 11.9707Z" fill="#FFFFEB"/>
<path d="M29.5605 14.6207V29.7507C28.2705 29.8907 26.7005 29.9707 24.9805 29.9007V14.6207H29.5605Z" fill="#FFFFEB"/>
<path d="M36.9203 11.9208L44.5403 24.1108C43.4103 24.9408 42.1203 25.7608 40.6603 26.5308L32.7803 13.8908L36.9203 11.9208Z" fill="#FFFFEB"/>
<path d="M42.06 5.8208L51.9 14.1108C51.83 14.7008 51.73 15.1908 51.48 15.7508C51.12 16.5608 50.66 17.4508 50.03 18.4008L39.54 9.7008L42.06 5.8208Z" fill="#FFFFEB"/>
<path d="M42.4302 3.68076C41.7502 2.16076 39.8302 1.13076 38.8802 0.650757C38.8802 0.650757 36.3202 10.2908 27.2702 10.3208C19.7102 10.3508 16.5102 4.82076 15.3302 1.69076C13.8402 2.82076 12.9802 3.73076 12.9802 3.73076C12.9702 3.73076 7.45023 5.41076 4.68023 8.47076C2.86023 10.4808 2.56023 13.4208 3.76023 15.8708C4.64023 17.6708 5.62023 19.2508 6.67023 20.6308C8.92023 18.2708 12.8902 14.2308 14.9402 12.1508C15.6702 11.4108 16.6602 11.5508 17.5002 12.1608C17.8802 12.4308 18.2702 12.6908 18.5702 12.8608C24.0202 15.8108 30.8702 15.5008 36.2102 12.3608C41.0102 9.54076 42.8302 5.71076 43.1802 3.96076C42.7102 3.77076 42.4302 3.68076 42.4302 3.68076Z" fill="#3C86AC"/>
</g>
<defs>
<clipPath id="clip0_323_441">
<rect width="55" height="75" fill="white" transform="translate(0 0.5)"/>
</clipPath>
</defs>
</svg>
