<svg width="55" height="76" viewBox="0 0 55 76" fill="none" xmlns="http://www.w3.org/2000/svg">
<g clip-path="url(#clip0_323_492)">
<path d="M40.5902 34.5533H32.6802C32.6602 34.0033 32.6602 33.4733 32.6602 32.9433C32.6602 32.1333 32.6802 31.3533 32.7102 30.5933C32.8002 28.4133 33.0002 26.4333 33.2502 24.6933C33.3902 23.6633 33.5502 22.7133 33.7102 21.8633C34.3402 18.6533 35.0002 16.7833 35.0002 16.7833C36.8802 12.3333 38.0702 15.5033 38.4102 16.5133C38.4602 16.6533 38.4902 16.7433 38.5002 16.7833C38.6602 17.1533 38.8002 17.6433 38.9302 18.2233C39.2202 19.4133 39.4602 20.9733 39.6702 22.6633V22.6733C39.7502 23.3433 39.8302 24.0133 39.9002 24.7033V24.7133C40.3802 29.5333 40.5902 34.5533 40.5902 34.5533Z" fill="#BD502F"/>
<path d="M45.0698 8.02321C45.0698 8.13321 45.0598 8.24321 45.0498 8.34321C45.0198 8.69321 44.9198 9.0432 44.7698 9.3832C44.6898 9.5632 44.5998 9.74321 44.5198 9.93321C44.1898 10.6232 43.8098 11.3532 43.3598 12.0832C42.9798 12.7032 42.5598 13.3132 42.0798 13.9232C41.4298 14.7432 40.6898 15.5532 39.8298 16.2932C37.9698 17.9032 35.5598 19.2432 32.4098 19.9432C31.6698 20.1132 30.8998 20.2432 30.0798 20.3232C29.1998 20.4232 28.2698 20.4732 27.2898 20.4732C26.2998 20.3932 25.3498 20.2732 24.4398 20.1232C23.8498 20.0332 23.2798 19.9132 22.7298 19.7932C21.0298 19.4032 19.4898 18.8832 18.1098 18.2332C17.6298 18.0132 17.1698 17.7732 16.7298 17.5232C15.5098 16.8232 14.4298 16.0132 13.4998 15.1032C13.1398 14.7532 12.7898 14.3832 12.4698 13.9932C11.5598 12.8932 10.8298 11.6832 10.2998 10.3632C10.2498 10.2432 10.3998 9.9932 10.3598 9.8832C10.0098 8.9432 10.3798 8.9332 10.8798 8.0632L11.2498 7.11321C13.6898 3.14321 15.5498 1.57321 17.8498 0.783206C18.4598 0.573206 18.9898 0.553206 19.1698 1.17321C19.4798 2.29321 21.1598 6.14321 21.3098 6.35321C22.0298 7.36321 23.1098 8.0432 24.2198 8.6432C24.4498 8.7732 24.7598 8.9632 24.9998 9.0532C25.6798 9.3232 27.3198 9.6432 28.1498 9.6432C33.3998 9.6432 35.2798 3.9232 36.1598 1.3032C36.3798 0.653205 36.7798 -0.106793 37.4398 0.0432065C37.4798 0.0532065 37.5098 0.0632053 37.5498 0.0732053C38.0998 0.243205 38.6198 0.443206 39.1298 0.703206C39.5998 0.923206 40.0498 1.17321 40.4798 1.45321C41.0098 1.79321 41.5098 2.18321 41.9798 2.61321C42.4098 3.01321 42.7998 3.4332 43.1598 3.8932C43.3298 4.1032 43.4898 4.31321 43.6498 4.54321C43.9498 4.98321 44.2298 5.44321 44.4598 5.92321C44.6098 6.21321 44.7398 6.51321 44.8598 6.81321C44.9898 7.19321 45.0698 7.61321 45.0698 8.02321Z" fill="#F7ECB9"/>
<path d="M19.6001 15.6132C20.9401 17.0032 23.0401 17.1632 24.8501 17.3932C26.7201 17.6132 28.6201 17.4732 30.3601 16.6632L30.3501 16.5632C29.8701 16.4632 29.4101 16.4232 28.9501 16.4032C26.2601 16.2232 23.5101 16.9632 20.8701 16.1432C20.4501 16.0032 20.0101 15.8432 19.6901 15.5532L19.6001 15.6132Z" fill="#BD502F"/>
<path d="M37.8398 11.9332C37.3498 12.2132 36.8698 12.4932 36.4098 12.7932C36.1798 12.9432 35.8898 13.0032 35.7298 13.2232C35.5598 13.4332 35.4298 13.6732 35.3398 14.0432L35.3898 14.1332C36.1098 14.3032 36.5998 13.9532 36.9498 13.4032C37.3198 12.9732 37.6398 12.5032 37.9198 12.0032C37.9098 12.0032 37.8398 11.9332 37.8398 11.9332Z" fill="#BD502F"/>
<path d="M35.88 0.893243C35 3.52324 32.52 9.35324 27.27 9.35324C26.61 9.35324 26.01 9.26324 25.45 9.08324C25.32 9.24324 25.17 9.38324 25 9.51324C26.24 9.97324 27.54 10.2432 29.09 10.0132C30.95 9.73324 32.62 8.71324 33.85 7.28324C35.27 5.64324 37.14 2.95324 37.43 0.033244C36.76 -0.116756 36.1 0.253243 35.88 0.893243Z" fill="#BD502F"/>
<path d="M22.15 6.81326C21.99 6.63326 21.85 6.44326 21.71 6.24326C21.52 6.48326 21.3 6.68326 21.04 6.85326C20.48 6.40326 19.73 6.23326 19.04 6.41326C18.74 5.42326 18 4.58326 16.96 4.20326C17.15 2.94326 18.23 1.96326 19.54 1.94326C19.42 1.59326 19.32 1.27326 19.24 0.98326C19.06 0.36326 18.42 0.0132599 17.8 0.23326C15.5 1.02326 13.08 2.69326 10.64 6.66326L10.35 7.16326C9.85001 8.03326 9.77001 9.08326 10.13 10.0233C10.18 10.1433 10.22 10.2533 10.27 10.3733C10.8 9.89326 11.88 8.99326 13.25 8.23326C13.25 8.23326 13.25 8.23326 13.26 8.23326C13.08 7.71326 13.06 7.13326 13.24 6.56326C13.7 5.16326 15.2 4.39326 16.6 4.85326C17.5 5.14326 18.13 5.86326 18.36 6.72326C18.26 6.79326 18.16 6.86326 18.07 6.94326C18.42 6.96326 18.77 7.01326 19.12 7.10326C19.15 7.11326 19.18 7.12326 19.2 7.12326H19.21C19.33 7.09326 19.45 7.07326 19.58 7.07326C20.07 7.07326 20.49 7.30326 20.78 7.64326H20.79C21.12 7.77326 21.45 7.92326 21.78 8.06326C21.72 7.83326 21.63 7.60326 21.5 7.40326C21.75 7.22326 21.97 7.03326 22.15 6.81326Z" fill="#BD502F"/>
<path d="M18.0498 8.61328C18.0498 9.47328 18.7498 10.1733 19.6098 10.1733C20.4698 10.1733 21.1698 9.47328 21.1698 8.61328C21.1698 8.24328 21.0298 7.90328 20.8098 7.63328C20.3098 7.43328 19.7898 7.25328 19.2398 7.11328C18.5498 7.27328 18.0498 7.87328 18.0498 8.61328Z" fill="#EB564B"/>
<path d="M19.6 7.05322C19.47 7.05322 19.35 7.07322 19.23 7.10322C19.78 7.24322 20.3 7.42322 20.8 7.62322C20.51 7.28322 20.09 7.05322 19.6 7.05322Z" fill="#99221F"/>
<path d="M18.77 10.7132C18.1 10.4532 17.59 9.8832 17.41 9.1832C16.53 9.1332 15.65 9.5132 15.09 10.2732C14.22 11.4632 14.49 13.1332 15.68 14.0032C16.76 14.7932 18.23 14.6432 19.14 13.7232C18.53 12.8132 18.43 11.6932 18.77 10.7132Z" fill="#EB564B"/>
<path d="M21.35 10.0532C20.89 10.6032 20.19 10.9132 19.47 10.8732C19.15 11.6932 19.24 12.6532 19.8 13.4132C20.67 14.6032 22.33 14.8732 23.53 14.0032C24.61 13.2132 24.93 11.7732 24.33 10.6232C23.27 10.9232 22.17 10.6832 21.35 10.0532Z" fill="#EB564B"/>
<path d="M21.71 9.43322C22.39 9.99322 23.33 10.2032 24.23 9.91322C24.51 9.82322 24.77 9.69322 25 9.52322C23.92 9.12322 22.89 8.56322 21.8 8.05322C21.91 8.50322 21.89 8.99322 21.71 9.43322Z" fill="#EB564B"/>
<path d="M25.4503 9.09323C24.1103 8.68323 23.0203 7.83323 22.1503 6.81323C21.9703 7.03323 21.7503 7.22323 21.5103 7.39323C21.6403 7.59323 21.7403 7.82323 21.7903 8.05323C22.8803 8.56323 23.9103 9.11323 24.9903 9.52323C25.1703 9.39323 25.3203 9.24323 25.4503 9.09323Z" fill="#99221F"/>
<path d="M16.96 4.20323C18 4.58323 18.74 5.42323 19.03 6.41323C19.72 6.23323 20.47 6.39323 21.03 6.85323C21.29 6.69323 21.51 6.48323 21.7 6.24323C20.65 4.83323 19.97 3.20323 19.54 1.93323C18.24 1.96323 17.15 2.94323 16.96 4.20323Z" fill="#99221F"/>
<path d="M13.2798 8.2133C13.4998 8.8633 13.9598 9.4333 14.5998 9.7533C15.2798 8.8933 16.3098 8.4433 17.3398 8.4633C17.3798 7.87331 17.6498 7.3133 18.0898 6.9133C16.3598 6.8133 14.6698 7.44331 13.2798 8.2133Z" fill="#EB564B"/>
<path d="M16.6202 4.83319C15.2202 4.37319 13.7102 5.1432 13.2602 6.5432C13.0802 7.1132 13.1002 7.6932 13.2802 8.2132C14.6702 7.4332 16.3702 6.80319 18.0902 6.91319C18.1802 6.83319 18.2702 6.75319 18.3802 6.69319C18.1502 5.85319 17.5202 5.12319 16.6202 4.83319Z" fill="#99221F"/>
<path d="M44.5203 9.93329C44.1903 10.6233 43.8103 11.3533 43.3603 12.0833C43.2703 12.1033 43.1803 12.1133 43.0903 12.1133C42.2303 12.1133 41.5303 11.4133 41.5303 10.5533C41.5303 9.69329 42.2303 8.99329 43.0903 8.99329C43.7303 8.99329 44.2903 9.38329 44.5203 9.93329Z" fill="#EB564B"/>
<path d="M42.2602 12.6533C42.1202 13.0533 42.0502 13.4833 42.0702 13.9133C41.4202 14.7333 40.6802 15.5433 39.8202 16.2833C39.5902 16.2033 39.3802 16.0833 39.1702 15.9433C37.9802 15.0733 37.7103 13.4033 38.5803 12.2133C39.1303 11.4533 40.0202 11.0633 40.8902 11.1233C41.0802 11.8233 41.6002 12.3933 42.2602 12.6533Z" fill="#EB564B"/>
<path d="M45.0702 8.02329C45.0702 8.13329 45.0602 8.24329 45.0502 8.34329C44.9002 8.51329 44.7202 8.66329 44.5202 8.78329C43.9602 8.32329 43.2102 8.16329 42.5202 8.34329C42.2302 7.35329 41.4802 6.51329 40.4502 6.13329C40.6502 4.85329 41.7502 3.87329 43.0902 3.87329H43.1302C43.3002 4.08329 43.4602 4.29329 43.6202 4.52329C43.9202 4.96329 44.2002 5.42329 44.4302 5.90329C44.5802 6.19329 44.7102 6.49329 44.8302 6.79329C44.9902 7.19329 45.0702 7.61329 45.0702 8.02329Z" fill="#EB564B"/>
<path d="M40.8302 10.4032C40.8702 9.69325 41.2602 9.02325 41.8702 8.63325C41.6502 7.78325 41.0102 7.06325 40.1102 6.76325C38.7102 6.30325 37.2002 7.07325 36.7502 8.47325C36.3402 9.74325 36.9302 11.1032 38.0902 11.6832C38.7702 10.8332 39.8002 10.3832 40.8302 10.4032Z" fill="#EB564B"/>
<path d="M31.0898 18.9733C31.0898 18.9733 28.3498 26.6933 28.6198 37.8433H37.0298C37.0298 37.8433 36.4198 22.8533 34.8098 18.9733C34.6898 18.6733 33.3498 13.6033 31.0898 18.9733Z" fill="#F7ECB9"/>
<path d="M32.22 19.9733L33.02 23.7433L33.74 19.9633C33.78 19.6633 33.7 19.3633 33.53 19.1433L33.52 19.1333C33.22 18.7633 32.72 18.7633 32.42 19.1333C32.25 19.3633 32.18 19.6733 32.22 19.9733Z" fill="#BD502F"/>
<mask id="mask0_323_492" style="mask-type:luminance" maskUnits="userSpaceOnUse" x="28" y="16" width="10" height="22">
<path d="M31.0898 18.9733C31.0898 18.9733 28.3498 26.6933 28.6198 37.8433H37.0298C37.0298 37.8433 36.4198 22.8533 34.8098 18.9733C34.6898 18.6733 33.3498 13.6033 31.0898 18.9733Z" fill="white"/>
</mask>
<g mask="url(#mask0_323_492)">
<path d="M28.4399 35.4133C29.3014 35.4133 29.9999 34.7149 29.9999 33.8533C29.9999 32.9918 29.3014 32.2933 28.4399 32.2933C27.5783 32.2933 26.8799 32.9918 26.8799 33.8533C26.8799 34.7149 27.5783 35.4133 28.4399 35.4133Z" fill="#EB564B"/>
<path d="M30.1899 35.2933C29.7299 35.8433 29.0299 36.1533 28.3099 36.1133C27.9899 36.9333 28.0799 37.8933 28.6399 38.6533C29.5099 39.8433 31.1699 40.1133 32.3699 39.2433C33.4499 38.4533 33.7699 37.0133 33.1699 35.8633C32.0999 36.1633 31.0099 35.9233 30.1899 35.2933Z" fill="#EB564B"/>
<path d="M30.3496 32.6333C30.7296 33.2333 30.8096 34.0033 30.5496 34.6733C31.2296 35.2333 32.1696 35.4433 33.0696 35.1533C34.4696 34.6933 35.2396 33.1933 34.7796 31.7933C34.3696 30.5233 33.0896 29.7733 31.8096 29.9833C31.7696 31.0833 31.1996 32.0533 30.3496 32.6333Z" fill="#EB564B"/>
<path d="M27.8696 31.6634C28.5596 31.4834 29.3096 31.6434 29.8696 32.1034C30.6096 31.6334 31.0996 30.8034 31.0996 29.8534C31.0996 28.3834 29.9096 27.1833 28.4296 27.1833C27.0896 27.1833 25.9896 28.1634 25.7896 29.4434C26.8296 29.8234 27.5796 30.6634 27.8696 31.6634Z" fill="#EB564B"/>
</g>
</g>
<defs>
<clipPath id="clip0_323_492">
<rect width="55" height="75" fill="white" transform="translate(0 0.5)"/>
</clipPath>
</defs>
</svg>
