<svg width="23" height="20" viewBox="0 0 23 20" fill="none" xmlns="http://www.w3.org/2000/svg">
<g clip-path="url(#clip0_302_195)">
<path d="M11.4398 16.835C8.42976 16.835 6.05976 15.845 4.37977 13.885C0.489765 9.34505 1.67976 1.26505 1.72976 0.925049L2.35976 1.02505C2.34976 1.10505 1.15977 9.15505 4.85977 13.475C6.40977 15.285 8.61976 16.195 11.4298 16.195C17.1798 16.195 20.6998 15.455 20.6998 0.975049H21.3398C21.3498 14.635 18.4298 16.835 11.4398 16.835Z" fill="#333C83"/>
<path d="M1.05967 4.72509L0.419668 4.07509C-0.010332 3.64509 -0.010332 2.92509 0.419668 2.49509L1.05967 1.85509C1.48967 1.42509 2.20967 1.42509 2.63967 1.85509L3.27967 2.49509C3.70967 2.92509 3.70967 3.64509 3.27967 4.07509L2.63967 4.72509C2.20967 5.15509 1.48967 5.15509 1.05967 4.72509Z" fill="#474DC0"/>
<path d="M1.2999 9.46509L0.659902 8.82509C0.229902 8.39509 0.229902 7.67509 0.659902 7.24509L1.2999 6.60509C1.7299 6.17509 2.4499 6.17509 2.8799 6.60509L3.5199 7.24509C3.9499 7.67509 3.9499 8.39509 3.5199 8.82509L2.8899 9.46509C2.4499 9.90509 1.7399 9.90509 1.2999 9.46509Z" fill="#474DC0"/>
<path d="M2.71957 13.6651L1.98957 12.9451C1.49957 12.4551 1.49957 11.6551 1.98957 11.1651L2.71957 10.4351C3.20957 9.94513 4.00957 9.94513 4.49957 10.4351L5.22957 11.1651C5.71957 11.6551 5.71957 12.4551 5.22957 12.9451L4.49957 13.6751C4.00957 14.1551 3.20957 14.1551 2.71957 13.6651Z" fill="#474DC0"/>
<path d="M20.7296 13.955L21.4596 13.225C21.9496 12.735 21.9496 11.935 21.4596 11.445L20.7296 10.725C20.2396 10.235 19.4396 10.235 18.9496 10.725L18.2196 11.455C17.7296 11.945 17.7296 12.745 18.2196 13.235L18.9496 13.965C19.4396 14.445 20.2396 14.445 20.7296 13.955Z" fill="#474DC0"/>
<path d="M17.4195 16.9351L18.1495 16.2051C18.6395 15.7151 18.6395 14.9151 18.1495 14.4251L17.4195 13.6951C16.9295 13.2051 16.1295 13.2051 15.6395 13.6951L14.9095 14.4251C14.4195 14.9151 14.4195 15.7151 14.9095 16.2051L15.6395 16.9351C16.1295 17.4251 16.9295 17.4251 17.4195 16.9351Z" fill="#474DC0"/>
<path d="M7.51959 16.9351L8.24959 16.2051C8.73959 15.7151 8.73959 14.9151 8.24959 14.4251L7.51959 13.6951C7.02959 13.2051 6.22959 13.2051 5.73959 13.6951L5.00959 14.4251C4.51959 14.9151 4.51959 15.7151 5.00959 16.2051L5.73959 16.9351C6.22959 17.4251 7.02959 17.4251 7.51959 16.9351Z" fill="#474DC0"/>
<path d="M12.7095 18.615L13.6295 17.695C14.2495 17.075 14.2495 16.055 13.6295 15.425L12.7095 14.505C12.0895 13.885 11.0695 13.885 10.4395 14.505L9.52945 15.425C8.90945 16.045 8.90945 17.065 9.52945 17.695L10.4495 18.615C11.0695 19.235 12.0895 19.235 12.7095 18.615Z" fill="#474DC0"/>
<path d="M20.2396 4.72509L19.5896 4.07509C19.1596 3.64509 19.1596 2.92509 19.5896 2.49509L20.2296 1.85509C20.6596 1.42509 21.3796 1.42509 21.8096 1.85509L22.4496 2.49509C22.8796 2.92509 22.8796 3.64509 22.4496 4.07509L21.8196 4.72509C21.3796 5.15509 20.6696 5.15509 20.2396 4.72509Z" fill="#474DC0"/>
<path d="M19.9098 9.46509L19.2698 8.82509C18.8398 8.39509 18.8398 7.67509 19.2698 7.24509L19.9098 6.60509C20.3398 6.17509 21.0598 6.17509 21.4898 6.60509L22.1298 7.24509C22.5598 7.67509 22.5598 8.39509 22.1298 8.82509L21.4898 9.46509C21.0598 9.90509 20.3398 9.90509 19.9098 9.46509Z" fill="#474DC0"/>
</g>
<defs>
<clipPath id="clip0_302_195">
<rect width="22.7" height="18.15" fill="white" transform="translate(0.0898438 0.925049)"/>
</clipPath>
</defs>
</svg>
