<svg width="55" height="76" viewBox="0 0 55 76" fill="none" xmlns="http://www.w3.org/2000/svg">
<g clip-path="url(#clip0_323_385)">
<path d="M49.5301 16.5807V72.1507H48.3601V65.7207H47.0101V72.1507H45.9901V65.7207H44.6401V72.1507H43.6201V65.7207H42.3001V72.1507H41.2701V65.7207H39.9301V72.1507H38.9001V65.7207H37.5601V72.1507H36.5301V65.7207H35.1901V72.1507H34.1001V27.7507C41.8101 25.0707 49.5301 16.5807 49.5301 16.5807Z" fill="#CFFF70"/>
<path d="M49.5301 16.5807V22.9007C46.0901 27.3807 40.9901 30.3907 34.1001 32.1207V27.7607C41.8101 25.0707 49.5301 16.5807 49.5301 16.5807Z" fill="#177F6D"/>
<path d="M51.8902 14.0907C51.8202 14.6807 51.6602 15.2607 51.4102 15.8307C51.0502 16.6407 50.5902 17.5307 49.9602 18.4807C49.8202 18.6907 49.6702 18.9107 49.5102 19.1307C48.3702 20.7307 46.7602 22.4407 44.5402 24.0907H44.5302C44.3702 24.2107 44.2002 24.3407 44.0302 24.4507C43.7802 24.6307 43.5302 24.8007 43.2702 24.9707C42.4602 25.5007 41.6002 26.0107 40.6502 26.5107C40.0502 26.8207 39.4102 27.1307 38.7602 27.4307C38.4902 27.5607 38.2102 27.6907 37.9202 27.8007C36.7502 28.3107 35.4702 28.7807 34.0902 29.2207C33.9902 29.2607 33.8902 29.2807 33.7802 29.3207C33.7802 29.3207 33.6202 29.3707 33.3302 29.4407C33.1102 29.4907 32.8102 29.5607 32.4402 29.6207H32.4302C31.8102 29.7507 30.9902 29.8907 30.0202 29.9907C29.3202 30.0607 28.5202 30.1307 27.6702 30.1507C27.3802 30.1507 27.0702 30.1607 26.7502 30.1607C26.3302 30.1607 25.8902 30.1507 25.4402 30.1307C24.3302 30.0807 23.1602 29.9707 21.9502 29.7607C21.6602 29.7107 21.3602 29.6607 21.0502 29.6007C19.5002 29.2907 17.9102 28.8107 16.3202 28.1307C16.0502 28.0107 15.7702 27.8907 15.5002 27.7507C15.1502 27.5907 14.8102 27.4207 14.4702 27.2407C13.3302 26.6307 12.2102 25.8907 11.1202 25.0107C10.9702 24.8907 10.8402 24.7707 10.6902 24.6507C10.6002 24.5807 10.5102 24.4907 10.4202 24.4207C9.23016 23.4307 7.88016 22.3507 6.84016 20.9907C6.56016 20.6207 6.30016 20.2407 6.06016 19.8307C6.06016 19.8307 6.06016 19.8307 6.06016 19.8207C5.40016 18.6907 4.85016 17.4307 4.21016 16.1107C3.01016 13.6707 3.34016 10.7607 5.13016 8.71075C6.35016 7.33075 8.09016 5.81075 10.4802 4.67075C10.6802 4.58075 10.8702 4.50075 11.0702 4.42075C11.2302 4.34075 11.3902 4.27075 11.5602 4.21075C11.6502 4.17075 11.7402 4.14075 11.8302 4.12075C12.1002 4.02075 12.3202 3.94075 12.5002 3.88075C12.5502 3.86075 12.6102 3.84075 12.6602 3.83075C12.8502 3.77075 12.9602 3.73075 12.9602 3.73075C12.9602 3.73075 12.9602 3.73075 12.9702 3.72075C12.9802 3.71075 13.0002 3.69075 13.0202 3.67075C13.0302 3.66075 13.0402 3.64075 13.0602 3.63075C13.3302 3.38075 14.2402 2.56075 15.3302 1.70075C15.4602 1.61075 15.5902 1.51075 15.7102 1.41075C16.0902 1.12075 16.4902 0.830746 16.8802 0.570746C17.9202 -0.129254 19.3502 0.300746 19.7902 1.48075C20.5902 3.65075 22.2102 6.83075 25.0002 7.58075C28.9602 8.65075 33.8002 7.47075 35.5802 1.24075C35.9102 0.0607462 37.4102 -0.419254 38.2902 0.430746L38.3202 0.460746C38.3202 0.460746 38.5202 0.520746 38.8502 0.660746C38.9702 0.710746 39.1102 0.770746 39.2502 0.840746C39.2802 0.860746 39.3002 0.870746 39.3202 0.880746C39.8002 1.12075 40.3802 1.46075 40.9402 1.92075C41.0902 2.04075 41.2202 2.16075 41.3602 2.29075C41.7602 2.68075 42.1302 3.14075 42.4002 3.67075C42.4002 3.67075 42.6702 3.76075 43.1502 3.94075C44.5702 4.52075 47.7302 6.01075 50.2602 8.85075C51.5802 10.2807 52.1502 12.2207 51.8902 14.0907Z" fill="#CFFF70"/>
<path d="M42.4302 3.66074C41.7502 2.14074 39.8302 1.11074 38.8802 0.630737C38.8802 0.630737 36.3202 10.2707 27.2702 10.3007C19.7102 10.3307 16.5102 4.80074 15.3302 1.67074C13.8402 2.80074 12.9802 3.71074 12.9802 3.71074C12.9702 3.71074 7.45023 5.39074 4.68023 8.45074C2.86023 10.4607 2.56023 13.4007 3.76023 15.8507C4.64023 17.6507 5.62023 19.2307 6.67023 20.6107C8.92023 18.2507 12.8902 14.2107 14.9402 12.1307C15.6702 11.3907 16.6602 11.5307 17.5002 12.1407C17.8802 12.4107 18.2702 12.6707 18.5702 12.8407C24.0202 15.7907 30.8702 15.4807 36.2102 12.3407C41.0102 9.52074 42.8302 5.69074 43.1802 3.94074C42.7102 3.75074 42.4302 3.66074 42.4302 3.66074Z" fill="#177F6D"/>
<path d="M47.1402 30.8907H46.2202V35.0207H47.1402V30.8907Z" fill="#174D62"/>
<path d="M41.0704 37.2808H40.1504V41.4108H41.0704V37.2808Z" fill="#174D62"/>
<path d="M44.8805 42.3407H43.9604V46.4707H44.8805V42.3407Z" fill="#174D62"/>
<path d="M47.1402 45.6908H46.2202V49.8208H47.1402V45.6908Z" fill="#174D62"/>
<path d="M42.8604 57.1407H41.9404V61.2707H42.8604V57.1407Z" fill="#174D62"/>
<path d="M37.4102 50.3307H36.4902V53.4507H37.4102V50.3307Z" fill="#174D62"/>
<path d="M43.0703 10.1007L46.2303 12.5207" stroke="#174D62" stroke-miterlimit="10"/>
<path d="M42.8101 15.0608L45.4101 17.2208" stroke="#174D62" stroke-miterlimit="10"/>
<path d="M13.4804 22.2808L11.1404 24.9808C10.9904 24.8608 10.8604 24.7408 10.7104 24.6208C10.6204 24.5508 10.5304 24.4608 10.4404 24.3908L12.7904 21.6708L13.4804 22.2808Z" fill="#174D62"/>
<path d="M17.8703 25.1108L16.3303 28.1108C16.0603 27.9908 15.7803 27.8708 15.5103 27.7308L17.0603 24.6908L17.8703 25.1108Z" fill="#174D62"/>
<path d="M22.6803 26.7608L21.9703 29.7508C21.6803 29.7008 21.3803 29.6508 21.0703 29.5908L21.7903 26.5508L22.6803 26.7608Z" fill="#174D62"/>
<path d="M27.6803 27.2308V30.1308C27.3903 30.1308 27.0803 30.1408 26.7603 30.1408V27.2308H27.6803Z" fill="#174D62"/>
<path d="M33.3305 29.4208C33.1105 29.4708 32.8105 29.5408 32.4405 29.6008H32.4305L31.7505 26.7508L32.6505 26.5408L33.3305 29.4208Z" fill="#174D62"/>
<path d="M38.7703 27.4208C38.5003 27.5508 38.2203 27.6808 37.9303 27.7908L36.5703 25.1208L37.3803 24.7008L38.7703 27.4208Z" fill="#174D62"/>
<path d="M44.0405 24.4408C43.7905 24.6208 43.5404 24.7908 43.2804 24.9608L40.9604 22.2808L41.6604 21.6808L44.0405 24.4408Z" fill="#174D62"/>
</g>
<defs>
<clipPath id="clip0_323_385">
<rect width="55" height="75" fill="white" transform="translate(0 0.5)"/>
</clipPath>
</defs>
</svg>
