<svg width="54" height="80" viewBox="0 0 54 80" fill="none" xmlns="http://www.w3.org/2000/svg">
<g clip-path="url(#clip0_302_122)">
<path d="M50.8497 18.705V79.425H49.5697V72.405H48.0997V79.425H46.9897V72.405H45.5197V79.425H44.4097V72.405H42.9497V79.425H41.8297V72.405H40.3697V79.425H39.2497V72.405H37.7897V79.425H36.6697V72.405H35.2097V79.425H33.9897V30.915C42.4197 27.975 50.8497 18.705 50.8497 18.705Z" fill="#CFFF70"/>
<path d="M50.8497 18.705V25.605C47.0897 30.505 41.5197 33.785 33.9897 35.675V30.915C42.4197 27.975 50.8497 18.705 50.8497 18.705Z" fill="#177F6D"/>
<path d="M53.4297 15.9849C53.3497 16.6249 53.1797 17.2649 52.9097 17.8849C52.5197 18.7649 52.0097 19.7449 51.3297 20.7749C51.1797 21.0049 51.0097 21.2449 50.8397 21.4849C49.5897 23.2349 47.8397 25.1049 45.4097 26.9049H45.3997C45.2197 27.0349 45.0397 27.1749 44.8497 27.2949C44.5797 27.4949 44.2997 27.6749 44.0197 27.8649C43.1397 28.4449 42.1897 29.0049 41.1597 29.5449C40.4997 29.8849 39.8097 30.2249 39.0897 30.5449C38.7897 30.6849 38.4897 30.8249 38.1697 30.9449C36.8897 31.5049 35.4897 32.0149 33.9797 32.4949C33.8697 32.5349 33.7597 32.5649 33.6397 32.6049C33.6397 32.6049 33.4697 32.6549 33.1497 32.7349C32.9097 32.7849 32.5797 32.8649 32.1797 32.9349H32.1697C31.4897 33.0749 30.5997 33.2249 29.5397 33.3349C28.7697 33.4149 27.8997 33.4849 26.9697 33.5149C26.6497 33.5149 26.3097 33.5249 25.9697 33.5249C25.5097 33.5249 25.0297 33.5149 24.5397 33.4949C23.3297 33.4449 22.0497 33.3249 20.7297 33.0949C20.4097 33.0449 20.0797 32.9849 19.7497 32.9149C18.0597 32.5749 16.3197 32.0549 14.5797 31.3049C14.2797 31.1749 13.9797 31.0449 13.6797 30.8849C13.2997 30.7149 12.9297 30.5249 12.5597 30.3249C11.3097 29.6549 10.0897 28.8449 8.89969 27.8849C8.73969 27.7549 8.58969 27.6249 8.42969 27.4949C8.32969 27.4149 8.22969 27.3249 8.12969 27.2449C6.82969 26.1649 5.34969 24.9849 4.21969 23.4949C3.90969 23.0949 3.62969 22.6749 3.36969 22.2249C3.36969 22.2249 3.36969 22.2249 3.36969 22.2149C2.64969 20.9849 2.04969 19.6049 1.34969 18.1649C0.0396871 15.4949 0.399687 12.3149 2.35969 10.0849C3.68969 8.57493 5.58969 6.91493 8.20969 5.67493C8.42969 5.57493 8.63969 5.48493 8.84969 5.40493C9.01969 5.31493 9.19969 5.24493 9.37969 5.17493C9.47969 5.13493 9.57969 5.09493 9.67969 5.07493C9.96969 4.96493 10.2197 4.87493 10.4097 4.81493C10.4697 4.79493 10.5297 4.77493 10.5897 4.75493C10.7997 4.68493 10.9197 4.64493 10.9197 4.64493C10.9197 4.64493 10.9197 4.64493 10.9297 4.63493C10.9397 4.62493 10.9597 4.60493 10.9797 4.58493C10.9897 4.57493 10.9997 4.55493 11.0197 4.54493C11.3197 4.27493 12.3097 3.37493 13.4997 2.43493C13.6397 2.33493 13.7797 2.22493 13.9197 2.11493C14.3297 1.79493 14.7697 1.48493 15.1997 1.19493C16.3397 0.434925 17.8997 0.904925 18.3797 2.18493C19.2497 4.55493 21.0197 8.03493 24.0697 8.85493C28.3997 10.0249 33.6897 8.73493 35.6297 1.92493C35.9897 0.634925 37.6297 0.114925 38.5897 1.04493L38.6197 1.07493C38.6197 1.07493 38.8397 1.14493 39.1997 1.29493C39.3297 1.34493 39.4797 1.41493 39.6397 1.49493C39.6697 1.51493 39.6997 1.52493 39.7197 1.53493C40.2397 1.79493 40.8797 2.16493 41.4897 2.67493C41.6497 2.80493 41.7997 2.93493 41.9497 3.07493C42.3897 3.50493 42.7897 4.00493 43.0897 4.58493C43.0897 4.58493 43.3897 4.68493 43.9097 4.88493C45.4597 5.51493 48.9097 7.14493 51.6797 10.2449C53.0897 11.8249 53.7097 13.9449 53.4297 15.9849Z" fill="#CFFF70"/>
<path d="M43.0899 4.5849C42.3499 2.9249 40.2499 1.7949 39.2099 1.2749C39.2099 1.2749 36.4099 11.8049 26.5299 11.8449C18.2699 11.8749 14.7699 5.8349 13.4799 2.4149C11.8499 3.6549 10.9099 4.6449 10.9099 4.6449C10.8999 4.6449 4.86992 6.4749 1.83992 9.8249C-0.150081 12.0249 -0.480081 15.2349 0.829919 17.9049C1.78992 19.8749 2.85992 21.5949 4.00992 23.1049C6.46992 20.5249 10.8099 16.1149 13.0499 13.8449C13.8499 13.0349 14.9299 13.1949 15.8499 13.8549C16.2599 14.1549 16.6899 14.4349 17.0099 14.6149C22.9599 17.8349 30.4499 17.4949 36.2799 14.0649C41.5199 10.9849 43.5099 6.7949 43.8999 4.8849C43.3899 4.6849 43.0899 4.5849 43.0899 4.5849Z" fill="#177F6D"/>
<path d="M48.23 34.345H47.23V38.855H48.23V34.345Z" fill="#174D62"/>
<path d="M41.6001 41.325H40.6001V45.8349H41.6001V41.325Z" fill="#174D62"/>
<path d="M45.77 46.855H44.77V51.365H45.77V46.855Z" fill="#174D62"/>
<path d="M48.23 50.5149H47.23V55.0249H48.23V50.5149Z" fill="#174D62"/>
<path d="M43.5498 63.0249H42.5498V67.5349H43.5498V63.0249Z" fill="#174D62"/>
<path d="M37.6001 55.585H36.6001V58.985H37.6001V55.585Z" fill="#174D62"/>
<path d="M43.7998 11.6249L47.2398 14.2749" stroke="#174D62" stroke-miterlimit="10"/>
<path d="M43.5098 17.0549L46.3498 19.4149" stroke="#174D62" stroke-miterlimit="10"/>
<path d="M11.4599 24.9349L8.89988 27.8849C8.73988 27.7549 8.58988 27.6249 8.42988 27.4949C8.32988 27.4149 8.22988 27.3249 8.12988 27.2449L10.6999 24.2749L11.4599 24.9349Z" fill="#174D62"/>
<path d="M16.2597 28.0249L14.5797 31.3049C14.2797 31.1749 13.9797 31.0449 13.6797 30.8849L15.3697 27.5649L16.2597 28.0249Z" fill="#174D62"/>
<path d="M21.51 29.8248L20.73 33.0948C20.41 33.0448 20.08 32.9848 19.75 32.9148L20.54 29.5948L21.51 29.8248Z" fill="#174D62"/>
<path d="M26.9697 30.3448V33.5148C26.6497 33.5148 26.3097 33.5248 25.9697 33.5248V30.3448H26.9697Z" fill="#174D62"/>
<path d="M33.1497 32.7348C32.9097 32.7848 32.5797 32.8648 32.1797 32.9348H32.1697L31.4297 29.8248L32.4097 29.5948L33.1497 32.7348Z" fill="#174D62"/>
<path d="M39.0897 30.5449C38.7897 30.6849 38.4897 30.8249 38.1697 30.9449L36.6797 28.0249L37.5697 27.5649L39.0897 30.5449Z" fill="#174D62"/>
<path d="M44.85 27.2949C44.58 27.4949 44.3 27.6749 44.02 27.8649L41.48 24.9349L42.24 24.2749L44.85 27.2949Z" fill="#174D62"/>
</g>
<defs>
<clipPath id="clip0_302_122">
<rect width="53.44" height="78.85" fill="white" transform="translate(0.0600586 0.574951)"/>
</clipPath>
</defs>
</svg>
