<svg width="54" height="80" viewBox="0 0 54 80" fill="none" xmlns="http://www.w3.org/2000/svg">
<g clip-path="url(#clip0_301_659)">
<path d="M51.3097 18.705V79.425H50.0297V72.405H48.5597V79.425H47.4497V72.405H45.9797V79.425H44.8697V72.405H43.4097V79.425H42.2897V72.405H40.8297V79.425H39.7097V72.405H38.2497V79.425H37.1297V72.405H35.6697V79.425H34.4497V30.915C42.8797 27.975 51.3097 18.705 51.3097 18.705Z" fill="#CFFF70"/>
<path d="M51.3097 18.705V25.605C47.5497 30.505 41.9797 33.785 34.4497 35.675V30.915C42.8797 27.975 51.3097 18.705 51.3097 18.705Z" fill="#177F6D"/>
<path d="M53.8896 15.9849C53.8096 16.6249 53.6396 17.2649 53.3696 17.8849C52.9796 18.7649 52.4697 19.7449 51.7896 20.7749C51.6396 21.0049 51.4696 21.2449 51.2996 21.4849C50.0496 23.2349 48.2996 25.1049 45.8696 26.9049H45.8596C45.6796 27.0349 45.4996 27.1749 45.3097 27.2949C45.0396 27.4949 44.7596 27.6749 44.4796 27.8649C43.5996 28.4449 42.6496 29.0049 41.6196 29.5449C40.9596 29.8849 40.2696 30.2249 39.5496 30.5449C39.2496 30.6849 38.9496 30.8249 38.6297 30.9449C37.3497 31.5049 35.9496 32.0149 34.4396 32.4949C34.3296 32.5349 34.2197 32.5649 34.0997 32.6049C34.0997 32.6049 33.9296 32.6549 33.6096 32.7349C33.3696 32.7849 33.0396 32.8649 32.6396 32.9349H32.6296C31.9496 33.0749 31.0596 33.2249 29.9996 33.3349C29.2296 33.4149 28.3596 33.4849 27.4296 33.5149C27.1096 33.5149 26.7696 33.5249 26.4296 33.5249C25.9696 33.5249 25.4896 33.5149 24.9996 33.4949C23.7896 33.4449 22.5096 33.3249 21.1896 33.0949C20.8696 33.0449 20.5396 32.9849 20.2096 32.9149C18.5196 32.5749 16.7796 32.0549 15.0396 31.3049C14.7396 31.1749 14.4396 31.0449 14.1396 30.8849C13.7596 30.7149 13.3896 30.5249 13.0196 30.3249C11.7696 29.6549 10.5496 28.8449 9.35965 27.8849C9.19965 27.7549 9.04965 27.6249 8.88965 27.4949C8.78965 27.4149 8.68965 27.3249 8.58965 27.2449C7.28965 26.1649 5.80965 24.9849 4.67965 23.4949C4.36965 23.0949 4.08965 22.6749 3.82965 22.2249C3.82965 22.2249 3.82965 22.2249 3.82965 22.2149C3.10965 20.9849 2.50965 19.6049 1.80965 18.1649C0.499648 15.4949 0.859648 12.3149 2.81965 10.0849C4.14965 8.57493 6.04965 6.91493 8.66965 5.67493C8.88965 5.57493 9.09965 5.48493 9.30965 5.40493C9.47965 5.31493 9.65965 5.24493 9.83965 5.17493C9.93965 5.13493 10.0396 5.09493 10.1396 5.07493C10.4296 4.96493 10.6796 4.87493 10.8696 4.81493C10.9296 4.79493 10.9896 4.77493 11.0496 4.75493C11.2596 4.68493 11.3796 4.64493 11.3796 4.64493C11.3796 4.64493 11.3796 4.64493 11.3896 4.63493C11.3996 4.62493 11.4196 4.60493 11.4396 4.58493C11.4496 4.57493 11.4596 4.55493 11.4796 4.54493C11.7796 4.27493 12.7696 3.37493 13.9596 2.43493C14.0996 2.33493 14.2396 2.22493 14.3796 2.11493C14.7896 1.79493 15.2296 1.48493 15.6596 1.19493C16.7996 0.434925 18.3596 0.904925 18.8396 2.18493C19.7096 4.55493 21.4796 8.03492 24.5296 8.85493C28.8596 10.0249 34.1497 8.73493 36.0896 1.92493C36.4496 0.634925 38.0896 0.114925 39.0496 1.04493L39.0797 1.07493C39.0797 1.07493 39.2996 1.14493 39.6596 1.29493C39.7896 1.34493 39.9397 1.41493 40.0997 1.49493C40.1297 1.51493 40.1596 1.52493 40.1796 1.53493C40.6996 1.79493 41.3396 2.16493 41.9496 2.67493C42.1096 2.80493 42.2596 2.93493 42.4096 3.07493C42.8496 3.50493 43.2496 4.00493 43.5496 4.58493C43.5496 4.58493 43.8496 4.68493 44.3696 4.88493C45.9196 5.51493 49.3696 7.14493 52.1396 10.2449C53.5496 11.8249 54.1696 13.9449 53.8896 15.9849Z" fill="#CFFF70"/>
<path d="M43.5499 4.5849C42.8099 2.9249 40.7099 1.7949 39.6699 1.2749C39.6699 1.2749 36.8699 11.8049 26.9899 11.8449C18.7299 11.8749 15.2299 5.8349 13.9399 2.4149C12.3099 3.6549 11.3699 4.6449 11.3699 4.6449C11.3599 4.6449 5.32988 6.4749 2.29988 9.8249C0.30988 12.0249 -0.02012 15.2349 1.28988 17.9049C2.24988 19.8749 3.31988 21.5949 4.46988 23.1049C6.92988 20.5249 11.2699 16.1149 13.5099 13.8449C14.3099 13.0349 15.3899 13.1949 16.3099 13.8549C16.7199 14.1549 17.1499 14.4349 17.4699 14.6149C23.4199 17.8349 30.9099 17.4949 36.7399 14.0649C41.9799 10.9849 43.9699 6.7949 44.3599 4.8849C43.8499 4.6849 43.5499 4.5849 43.5499 4.5849Z" fill="#177F6D"/>
<path d="M48.6899 34.345H47.6899V38.855H48.6899V34.345Z" fill="#174D62"/>
<path d="M42.0601 41.325H41.0601V45.8349H42.0601V41.325Z" fill="#174D62"/>
<path d="M46.23 46.855H45.23V51.365H46.23V46.855Z" fill="#174D62"/>
<path d="M48.6899 50.5149H47.6899V55.0249H48.6899V50.5149Z" fill="#174D62"/>
<path d="M44.0098 63.0249H43.0098V67.5349H44.0098V63.0249Z" fill="#174D62"/>
<path d="M38.0601 55.585H37.0601V58.985H38.0601V55.585Z" fill="#174D62"/>
<path d="M44.2598 11.6249L47.6998 14.2749" stroke="#174D62" stroke-miterlimit="10"/>
<path d="M43.9697 17.0549L46.8097 19.4149" stroke="#174D62" stroke-miterlimit="10"/>
<path d="M11.9198 24.9349L9.35984 27.8849C9.19984 27.7549 9.04984 27.6249 8.88984 27.4949C8.78984 27.4149 8.68984 27.3249 8.58984 27.2449L11.1598 24.2749L11.9198 24.9349Z" fill="#174D62"/>
<path d="M16.7196 28.0249L15.0396 31.3049C14.7396 31.1749 14.4396 31.0449 14.1396 30.8849L15.8296 27.5649L16.7196 28.0249Z" fill="#174D62"/>
<path d="M21.97 29.8248L21.19 33.0948C20.87 33.0448 20.54 32.9848 20.21 32.9148L21 29.5948L21.97 29.8248Z" fill="#174D62"/>
<path d="M27.4297 30.3448V33.5148C27.1097 33.5148 26.7697 33.5248 26.4297 33.5248V30.3448H27.4297Z" fill="#174D62"/>
<path d="M33.6096 32.7348C33.3696 32.7848 33.0396 32.8648 32.6396 32.9348H32.6296L31.8896 29.8248L32.8696 29.5948L33.6096 32.7348Z" fill="#174D62"/>
<path d="M39.5496 30.5449C39.2496 30.6849 38.9497 30.8249 38.6297 30.9449L37.1396 28.0249L38.0296 27.5649L39.5496 30.5449Z" fill="#174D62"/>
<path d="M45.3099 27.2949C45.0399 27.4949 44.7599 27.6749 44.4799 27.8649L41.9399 24.9349L42.6999 24.2749L45.3099 27.2949Z" fill="#174D62"/>
</g>
<defs>
<clipPath id="clip0_301_659">
<rect width="53.44" height="78.85" fill="white" transform="translate(0.52002 0.574951)"/>
</clipPath>
</defs>
</svg>
