<svg width="63" height="92" viewBox="0 0 63 92" fill="none" xmlns="http://www.w3.org/2000/svg">
<g clip-path="url(#clip0_301_8296)">
<path d="M59.87 21.28V91.77H58.38V83.62H56.67V91.77H55.38V83.62H53.67V91.77H52.38V83.62H50.68V91.77H49.38V83.62H47.69V91.77H46.39V83.62H44.69V91.77H43.39V83.62H41.69V91.77H40.27V35.46C50.08 32.04 59.87 21.28 59.87 21.28Z" fill="#FFE478"/>
<path d="M59.8698 21.28V29.29C55.4998 34.98 49.0398 38.79 40.2998 40.98V35.45C50.0798 32.04 59.8698 21.28 59.8698 21.28Z" fill="#A42B35"/>
<path d="M59.87 58.78V91.77H58.38V83.62H56.67V91.77H55.38V83.62H53.68V91.77H52.39V83.62H50.69V91.77H49.39V83.62H47.7V91.77H46.4V83.62H44.7V91.77H43.4V83.62H41.71V91.77H40.29V58.78H59.87Z" fill="#FD3952"/>
<path d="M46.9599 1.34997C46.9499 1.34997 46.9499 1.34997 46.9399 1.33997C47.6099 1.69997 48.4299 2.18997 49.1799 2.81997C48.4199 2.15997 47.6099 1.66997 46.9599 1.34997Z" fill="#FFE478"/>
<path d="M60.8402 11.46C57.6202 7.85999 53.6202 5.96999 51.8202 5.23999C51.3702 7.45999 49.0602 12.32 42.9802 15.89C39.7102 17.81 35.9902 18.89 32.2402 19.08V38.46C33.3002 38.43 34.2602 38.36 35.1402 38.26C38.0702 37.95 39.9002 37.41 39.9002 37.41C43.2702 36.37 46.1502 35.16 48.6302 33.86C50.4902 32.88 52.1202 31.85 53.5502 30.8H53.5602C56.7602 28.42 58.9502 25.95 60.4302 23.68C61.2202 22.48 61.8102 21.35 62.2602 20.32C62.5702 19.6 62.7702 18.86 62.8602 18.11C63.2002 15.75 62.4802 13.29 60.8402 11.46Z" fill="#FD3952"/>
<path d="M50.8699 4.89007C50.8699 4.89007 51.2199 5.01007 51.8199 5.24007C51.2199 5.00007 50.8699 4.89007 50.8699 4.89007C50.5099 4.09007 49.8799 3.40007 49.1899 2.82007C49.8299 3.38007 50.4399 4.06007 50.8699 4.89007Z" fill="#996824"/>
<path d="M46.3699 1.04004C46.3699 1.04004 46.3699 1.05004 46.3599 1.07004C46.5299 1.14004 46.7199 1.23004 46.9399 1.34004C46.7299 1.23004 46.5299 1.13004 46.3699 1.04004Z" fill="#996824"/>
<path d="M13.5199 4.95999C13.5199 4.95999 14.8499 3.70999 16.5099 2.39999C16.5099 2.38999 16.4999 2.37999 16.4999 2.35999C14.6099 3.80999 13.5199 4.95999 13.5199 4.95999C13.5199 4.95999 12.9899 5.11999 12.1699 5.41999C12.5999 5.25999 13.0199 5.10999 13.4699 4.96999C13.4899 4.96999 13.5099 4.95999 13.5199 4.95999Z" fill="#996824"/>
<path d="M11.7298 5.57004C11.5798 5.63004 11.4498 5.69004 11.2998 5.75004C11.6198 5.63004 11.9098 5.52004 12.1698 5.42004C12.0298 5.47004 11.8698 5.52004 11.7298 5.57004Z" fill="#FFE478"/>
<path d="M20.6098 16.53C20.2298 16.32 19.7398 15.99 19.2598 15.65C18.1898 14.88 16.9398 14.69 16.0098 15.64C13.4098 18.26 8.4098 23.35 5.5498 26.35C5.6398 26.47 5.7198 26.61 5.8098 26.73C7.2298 28.6 9.0398 30.15 10.6298 31.49C12.1898 32.81 13.7898 33.89 15.4198 34.78C20.1898 37.37 25.1398 38.29 29.3298 38.46C30.3398 38.51 31.3198 38.51 32.2298 38.47V19.08C28.2198 19.28 24.1798 18.46 20.6098 16.53Z" fill="#FFE478"/>
<path d="M45.6803 0.810023L45.6503 0.780023C44.5403 -0.299977 42.6303 0.300023 42.2103 1.80002C40.4603 7.96002 36.3503 10.23 32.2403 10.29C31.0703 10.31 29.9103 10.15 28.7903 9.85002C25.2503 8.90002 23.1903 4.86002 22.1803 2.11002C21.6203 0.620023 19.8103 0.0800231 18.4903 0.960023C17.9903 1.30002 17.4803 1.66002 17.0003 2.03002C16.8303 2.16002 16.6703 2.28002 16.5103 2.41002C18.0203 6.39002 22.0803 13.36 31.6403 13.32C31.8403 13.32 32.0303 13.31 32.2303 13.3C42.9303 12.85 46.1903 1.68002 46.3603 1.07002C45.9503 0.900023 45.6803 0.810023 45.6803 0.810023Z" fill="#FD3952"/>
<path d="M50.87 4.89007C50.44 4.06007 49.83 3.38007 49.19 2.82007C48.44 2.20007 47.61 1.70007 46.95 1.34007C46.72 1.23007 46.53 1.15007 46.36 1.07007C46.19 1.67007 42.93 12.8401 32.24 13.2901C32.04 13.3001 31.85 13.3101 31.65 13.3101C22.08 13.3501 18.02 6.38007 16.51 2.40007C14.84 3.71007 13.52 4.96007 13.52 4.96007C13.51 4.96007 13.49 4.97007 13.47 4.97007C13.02 5.11007 12.59 5.26007 12.17 5.42007C11.91 5.52007 11.62 5.63007 11.31 5.76007C8.95001 6.71007 5.26001 8.47007 3.00001 10.9701C0.690011 13.5301 0.310011 17.2501 1.83001 20.3501C2.94001 22.6401 4.19001 24.6301 5.52001 26.3901C5.53001 26.3801 5.55001 26.3601 5.56001 26.3501C8.42001 23.3501 13.42 18.2601 16.01 15.6401C16.94 14.7001 18.19 14.8801 19.26 15.6501C19.74 16.0001 20.23 16.3301 20.61 16.5301C24.18 18.4601 28.23 19.2801 32.24 19.0801C35.99 18.8901 39.71 17.8201 42.98 15.8901C49.06 12.3201 51.37 7.45007 51.82 5.24007C51.22 5.00007 50.87 4.89007 50.87 4.89007Z" fill="#A42B35"/>
</g>
<defs>
<clipPath id="clip0_301_8296">
<rect width="62.04" height="91.54" fill="white" transform="translate(0.910156 0.22998)"/>
</clipPath>
</defs>
</svg>
