<svg width="55" height="76" viewBox="0 0 55 76" fill="none" xmlns="http://www.w3.org/2000/svg">
<g clip-path="url(#clip0_323_567)">
<path d="M27.5001 15.91C24.4901 15.91 22.1201 14.92 20.4401 12.96C16.5401 8.42 17.7401 0.34 17.7901 0L18.4201 0.1C18.4101 0.18 17.2201 8.23 20.9201 12.55C22.4701 14.36 24.6801 15.27 27.4901 15.27C33.2401 15.27 36.7601 14.53 36.7601 0.0499992H37.4001C37.4101 13.71 34.4901 15.91 27.5001 15.91Z" fill="#333C83"/>
<path d="M17.1202 3.80005L16.4802 3.16005C16.0502 2.73005 16.0502 2.01005 16.4802 1.58005L17.1202 0.940054C17.5502 0.510054 18.2702 0.510054 18.7002 0.940054L19.3502 1.58005C19.7802 2.01005 19.7802 2.73005 19.3502 3.16005L18.7102 3.80005C18.2702 4.24005 17.5602 4.24005 17.1202 3.80005Z" fill="#474DC0"/>
<path d="M17.3702 8.55005L16.7302 7.91005C16.3002 7.48005 16.3002 6.76005 16.7302 6.33005L17.3702 5.69005C17.8002 5.26005 18.5202 5.26005 18.9502 5.69005L19.5902 6.33005C20.0202 6.76005 20.0202 7.48005 19.5902 7.91005L18.9502 8.55005C18.5102 8.98005 17.8002 8.98005 17.3702 8.55005Z" fill="#474DC0"/>
<path d="M18.7801 12.7501L18.0501 12.0201C17.5601 11.5301 17.5601 10.7301 18.0501 10.2401L18.7801 9.51008C19.2701 9.02008 20.0701 9.02008 20.5601 9.51008L21.2901 10.2401C21.7801 10.7301 21.7801 11.5301 21.2901 12.0201L20.5601 12.7501C20.0701 13.2401 19.2701 13.2401 18.7801 12.7501Z" fill="#474DC0"/>
<path d="M36.7901 13.0301L37.5201 12.3001C38.0101 11.8101 38.0101 11.0101 37.5201 10.5201L36.7901 9.79011C36.3001 9.30011 35.5001 9.30011 35.0101 9.79011L34.2801 10.5201C33.7901 11.0101 33.7901 11.8101 34.2801 12.3001L35.0101 13.0301C35.5001 13.5201 36.3001 13.5201 36.7901 13.0301Z" fill="#474DC0"/>
<path d="M33.48 16.0201L34.21 15.2901C34.7 14.8001 34.7 14.0001 34.21 13.5101L33.48 12.7801C32.99 12.2901 32.19 12.2901 31.7 12.7801L30.97 13.5101C30.48 14.0001 30.48 14.8001 30.97 15.2901L31.7 16.0201C32.19 16.5101 32.99 16.5101 33.48 16.0201Z" fill="#474DC0"/>
<path d="M23.5801 16.0201L24.3101 15.2901C24.8001 14.8001 24.8001 14.0001 24.3101 13.5101L23.5801 12.7801C23.0901 12.2901 22.2901 12.2901 21.8001 12.7801L21.0701 13.5101C20.5801 14.0001 20.5801 14.8001 21.0701 15.2901L21.8001 16.0201C22.2901 16.5101 23.0901 16.5101 23.5801 16.0201Z" fill="#474DC0"/>
<path d="M28.7702 17.6901L29.6902 16.7701C30.3102 16.1501 30.3102 15.1301 29.6902 14.5001L28.7702 13.5801C28.1502 12.9601 27.1302 12.9601 26.5002 13.5801L25.5802 14.5001C24.9602 15.1201 24.9602 16.1401 25.5802 16.7701L26.5002 17.6901C27.1302 18.3101 28.1502 18.3101 28.7702 17.6901Z" fill="#474DC0"/>
<path d="M36.3004 3.80005L35.6604 3.16005C35.2304 2.73005 35.2304 2.01005 35.6604 1.58005L36.3004 0.940054C36.7304 0.510054 37.4504 0.510054 37.8804 0.940054L38.5204 1.58005C38.9504 2.01005 38.9504 2.73005 38.5204 3.16005L37.8804 3.80005C37.4404 4.24005 36.7304 4.24005 36.3004 3.80005Z" fill="#474DC0"/>
<path d="M35.9703 8.55005L35.3303 7.91005C34.9003 7.48005 34.9003 6.76005 35.3303 6.33005L35.9703 5.69005C36.4003 5.26005 37.1203 5.26005 37.5503 5.69005L38.1903 6.33005C38.6203 6.76005 38.6203 7.48005 38.1903 7.91005L37.5503 8.55005C37.1203 8.98005 36.4103 8.98005 35.9703 8.55005Z" fill="#474DC0"/>
</g>
<defs>
<clipPath id="clip0_323_567">
<rect width="55" height="75" fill="white" transform="translate(0 0.5)"/>
</clipPath>
</defs>
</svg>
