<svg width="55" height="76" viewBox="0 0 55 76" fill="none" xmlns="http://www.w3.org/2000/svg">
<g clip-path="url(#clip0_323_424)">
<path d="M49.5198 16.5963V72.1663H48.3498V65.7363H46.9998V72.1663H45.9798V65.7363H44.6298V72.1663H43.6098V65.7363H42.2698V72.1663H41.2398V65.7363H39.8998V72.1663H38.8698V65.7363H37.5298V72.1663H36.5098V65.7363H35.1698V72.1663H34.0498V27.7663C41.8098 25.0863 49.5198 16.5963 49.5198 16.5963Z" fill="#FFE478"/>
<path d="M49.5296 16.5963V22.9163C46.0896 27.3963 40.9896 30.4063 34.0996 32.1363V27.7763C41.8096 25.0763 49.5296 16.5963 49.5296 16.5963Z" fill="#A42B35"/>
<path d="M49.5198 46.1562V72.1762H48.3498V65.7463H47.0098V72.1762H45.9898V65.7463H44.6498V72.1762H43.6298V65.7463H42.2898V72.1762H41.2698V65.7463H39.9298V72.1762H38.9098V65.7463H37.5698V72.1762H36.5498V65.7463H35.2098V72.1762H34.0898V46.1562H49.5198Z" fill="#FD3952"/>
<path d="M39.3498 0.886343C39.3498 0.886343 39.3398 0.886343 39.3398 0.876343C39.8698 1.15634 40.5198 1.54634 41.1098 2.04634C40.4998 1.52634 39.8598 1.13634 39.3498 0.886343Z" fill="#FFE478"/>
<path d="M50.2902 8.85629C47.7502 6.01629 44.6002 4.52629 43.1802 3.94629C42.8202 5.69629 41.0002 9.52629 36.2102 12.3463C33.6302 13.8663 30.7002 14.7163 27.7402 14.8563V30.1363C28.5702 30.1063 29.3302 30.0563 30.0302 29.9763C32.3402 29.7263 33.7802 29.3063 33.7802 29.3063C36.4302 28.4863 38.7002 27.5263 40.6602 26.5063C42.1202 25.7363 43.4102 24.9263 44.5402 24.0863H44.5502C47.0802 22.2063 48.8002 20.2563 49.9702 18.4763C50.5902 17.5363 51.0602 16.6363 51.4202 15.8263C51.6702 15.2563 51.8202 14.6763 51.9002 14.0863C52.1502 12.2363 51.5802 10.2963 50.2902 8.85629Z" fill="#FD3952"/>
<path d="M42.4301 3.67626C42.4301 3.67626 42.7001 3.76626 43.1801 3.94626C42.7101 3.76626 42.4301 3.66626 42.4301 3.67626C42.1501 3.04626 41.6501 2.50626 41.1001 2.04626C41.6101 2.48626 42.0901 3.01626 42.4301 3.67626Z" fill="#996824"/>
<path d="M38.8801 0.646362C38.8801 0.646362 38.8801 0.656362 38.8701 0.666362C39.0101 0.726362 39.1601 0.796362 39.3301 0.876362C39.1701 0.786362 39.0101 0.706362 38.8801 0.646362Z" fill="#996824"/>
<path d="M12.9902 3.72628C12.9902 3.72628 14.0402 2.74628 15.3502 1.71628C15.3502 1.70628 15.3402 1.69628 15.3402 1.68628C13.8402 2.81628 12.9902 3.72628 12.9902 3.72628C12.9902 3.72628 12.5702 3.84628 11.9302 4.08628C12.2702 3.96628 12.6002 3.83628 12.9602 3.72628C12.9602 3.73628 12.9802 3.72628 12.9902 3.72628Z" fill="#996824"/>
<path d="M11.5802 4.2163C11.4602 4.2663 11.3602 4.3163 11.2402 4.3563C11.4902 4.2563 11.7202 4.1663 11.9202 4.0863C11.8102 4.1363 11.6902 4.1663 11.5802 4.2163Z" fill="#FFE478"/>
<path d="M18.5702 12.8463C18.2702 12.6863 17.8802 12.4263 17.5002 12.1463C16.6502 11.5363 15.6702 11.3963 14.9402 12.1363C12.9002 14.2163 8.9602 18.2263 6.7002 20.5863C6.7702 20.6863 6.8302 20.7863 6.9102 20.8863C8.0302 22.3563 9.4502 23.5863 10.7102 24.6363C11.9402 25.6763 13.2002 26.5263 14.4902 27.2263C18.2502 29.2663 22.1502 29.9863 25.4502 30.1263C26.2502 30.1663 27.0202 30.1663 27.7402 30.1363V14.8563C24.5802 15.0163 21.3902 14.3763 18.5702 12.8463Z" fill="#FFE478"/>
<path d="M38.3398 0.456308L38.3098 0.426308C37.4298 -0.413692 35.9298 0.0563084 35.5998 1.23631C34.2198 6.09631 30.9798 7.87631 27.7398 7.92631C26.8198 7.94631 25.8998 7.81631 25.0198 7.58631C22.2298 6.83631 20.6098 3.64631 19.8098 1.48631C19.3698 0.316308 17.9398 -0.113692 16.8998 0.576308C16.5098 0.846308 16.0998 1.12631 15.7298 1.41631C15.5998 1.51631 15.4698 1.61631 15.3398 1.71631C16.5298 4.84631 19.7298 10.3463 27.2698 10.3163C27.4298 10.3163 27.5798 10.3063 27.7398 10.2963C36.1698 9.94631 38.7398 1.13631 38.8698 0.666308C38.5498 0.526308 38.3398 0.456308 38.3398 0.456308Z" fill="#FD3952"/>
<path d="M42.43 3.67626C42.09 3.02626 41.61 2.48626 41.1 2.04626C40.51 1.55626 39.86 1.16626 39.33 0.87626C39.16 0.78626 39.01 0.72626 38.87 0.66626C38.74 1.14626 36.16 9.94626 27.74 10.2963C27.59 10.3063 27.43 10.3163 27.27 10.3163C19.73 10.3463 16.53 4.84626 15.34 1.71626C14.03 2.74626 12.98 3.72626 12.98 3.72626C12.97 3.72626 12.95 3.73626 12.94 3.73626C12.58 3.84626 12.25 3.96626 11.91 4.09626C11.7 4.17626 11.48 4.25626 11.23 4.36626C9.37999 5.10626 6.46999 6.49626 4.68999 8.46626C2.86999 10.4763 2.56999 13.4163 3.76999 15.8663C4.64999 17.6663 5.62999 19.2463 6.67999 20.6263C6.67999 20.6163 6.68999 20.5963 6.69999 20.5863C8.95999 18.2263 12.9 14.2063 14.94 12.1363C15.67 11.3963 16.66 11.5363 17.5 12.1463C17.88 12.4163 18.27 12.6763 18.57 12.8463C21.38 14.3663 24.58 15.0163 27.74 14.8563C30.7 14.7063 33.63 13.8563 36.21 12.3463C41 9.52626 42.83 5.69626 43.18 3.94626C42.71 3.76626 42.43 3.67626 42.43 3.67626Z" fill="#A42B35"/>
</g>
<defs>
<clipPath id="clip0_323_424">
<rect width="55" height="75" fill="white" transform="translate(0 0.5)"/>
</clipPath>
</defs>
</svg>
