<svg width="25" height="20" viewBox="0 0 25 20" fill="none" xmlns="http://www.w3.org/2000/svg">
<g clip-path="url(#clip0_302_176)">
<path d="M23.02 8.81991C23.01 8.80991 23.01 8.78991 23 8.77991C23 8.77991 23 8.77991 23 8.76991C22.95 8.68991 22.87 8.62991 22.79 8.58991C23.31 7.30991 23.6 5.91991 23.6 4.45991C23.6 3.30991 23.43 2.09991 23.12 0.909912H22.89C23.21 2.09991 23.38 3.29991 23.38 4.45991C23.38 5.89991 23.09 7.26991 22.58 8.52991C22.24 8.50991 21.89 8.80991 21.92 9.15991C21.93 9.30991 22 9.43991 22.1 9.53991C21.5 10.6599 20.72 11.6599 19.78 12.4999C19.72 12.4299 19.64 12.3799 19.55 12.3499C19.18 12.2299 18.74 12.5699 18.77 12.9599C18.78 13.0599 18.81 13.1499 18.87 13.2299C17.86 13.9599 16.72 14.5199 15.5 14.8699C15.49 14.8199 15.47 14.7799 15.44 14.7399C15.43 14.7299 15.43 14.7099 15.42 14.6999C15.42 14.6999 15.42 14.6999 15.42 14.6899C15.35 14.5899 15.25 14.4999 15.12 14.4599C14.75 14.3499 14.31 14.6799 14.34 15.0699C14.34 15.0899 14.35 15.1099 14.35 15.1299C13.76 15.2299 13.16 15.2799 12.55 15.2799C11.86 15.2799 11.19 15.2099 10.54 15.0799C10.54 15.0499 10.53 15.0099 10.53 14.9699C10.52 14.8999 10.49 14.8299 10.45 14.7699C10.44 14.7599 10.44 14.7399 10.43 14.7299C10.43 14.7299 10.43 14.7299 10.42 14.7199C10.35 14.6199 10.25 14.5299 10.12 14.4999C9.85 14.4099 9.55 14.5699 9.41 14.8099C8.02 14.3899 6.75 13.6999 5.66 12.7999C5.72 12.6799 5.74 12.5399 5.71 12.3999C5.7 12.3299 5.67 12.2599 5.63 12.1999C5.62 12.1899 5.62 12.1699 5.61 12.1599C5.61 12.1599 5.61 12.1599 5.61 12.1499C5.54 12.0499 5.44 11.9599 5.31 11.9199C5.14 11.8699 4.96 11.9099 4.82 12.0099C4.04 11.2199 3.39 10.3099 2.88 9.31991C2.9 9.28991 2.93 9.26991 2.95 9.22991C3.02 9.10991 3.03 8.96991 3 8.82991C2.99 8.75991 2.96 8.68991 2.92 8.62991C2.92 8.61991 2.91 8.60991 2.91 8.59991C2.91 8.59991 2.91 8.59991 2.91 8.58991C2.84 8.48991 2.74 8.39991 2.61 8.35991C2.56 8.33991 2.51 8.33991 2.45 8.33991C1.98 7.12991 1.73 5.82991 1.73 4.45991C1.73 3.30991 1.9 2.09991 2.22 0.909912H1.98C1.67 2.09991 1.5 3.29991 1.5 4.45991C1.5 5.83991 1.76 7.16991 2.22 8.38991C1.99 8.47991 1.8 8.70991 1.82 8.96991C1.85 9.34991 2.25 9.61991 2.61 9.50991C2.62 9.50991 2.62 9.50991 2.63 9.49991C2.64 9.49991 2.66 9.48991 2.67 9.48991C2.68 9.48991 2.68 9.47991 2.69 9.47991C2.7 9.47991 2.7 9.46991 2.71 9.45991C3.22 10.4599 3.88 11.3699 4.66 12.1599C4.58 12.2699 4.53 12.3999 4.54 12.5299C4.57 12.9099 4.97 13.1799 5.33 13.0699C5.34 13.0699 5.34 13.0699 5.35 13.0599C5.36 13.0599 5.38 13.0499 5.39 13.0499C5.39 13.0499 5.4 13.0399 5.41 13.0399C5.45 13.0199 5.5 12.9899 5.54 12.9599C6.65 13.8799 7.95 14.5899 9.37 15.0199C9.37 15.0499 9.36 15.0799 9.36 15.1099C9.39 15.4799 9.79 15.7599 10.15 15.6499C10.15 15.6499 10.16 15.6499 10.16 15.6399C10.18 15.6399 10.19 15.6299 10.2 15.6299C10.21 15.6299 10.21 15.6199 10.22 15.6199C10.33 15.5699 10.43 15.4899 10.49 15.3799C10.5 15.3499 10.51 15.3299 10.52 15.2999C11.18 15.4199 11.87 15.4999 12.56 15.4999C13.2 15.4999 13.83 15.4399 14.44 15.3399C14.58 15.5599 14.87 15.6899 15.13 15.5999C15.14 15.5999 15.14 15.5999 15.15 15.5999C15.16 15.5999 15.18 15.5899 15.19 15.5899C15.2 15.5899 15.2 15.5799 15.21 15.5799C15.32 15.5299 15.42 15.4499 15.48 15.3399C15.52 15.2599 15.54 15.1799 15.54 15.0899C16.81 14.7299 17.99 14.1499 19.04 13.3899C19.19 13.4999 19.39 13.5499 19.57 13.4899C19.58 13.4899 19.58 13.4899 19.59 13.4899C19.6 13.4799 19.62 13.4799 19.63 13.4799C19.63 13.4799 19.64 13.4699 19.65 13.4699C19.76 13.4199 19.86 13.3299 19.92 13.2299C19.99 13.0999 20 12.9599 19.97 12.8199C19.96 12.7699 19.95 12.7299 19.93 12.6799C20.89 11.8199 21.69 10.7999 22.31 9.65991C22.44 9.71991 22.59 9.73991 22.73 9.68991C22.74 9.68991 22.74 9.68991 22.75 9.68991C22.76 9.68991 22.78 9.67991 22.79 9.67991C22.8 9.67991 22.8 9.66991 22.81 9.66991C22.92 9.61991 23.02 9.53991 23.08 9.42991C23.15 9.29991 23.16 9.15991 23.13 9.01991C23.09 8.94991 23.06 8.87991 23.02 8.81991Z" fill="#602651"/>
<path d="M22.0502 4.06991C22.0402 4.05991 22.0402 4.03991 22.0302 4.02991C22.0302 4.02991 22.0302 4.02991 22.0202 4.02991C21.9502 3.92991 21.8602 3.84991 21.7402 3.80991C21.7502 3.71991 21.7602 3.63991 21.7602 3.54991C21.7702 3.54991 21.7802 3.54991 21.7902 3.53991C21.8002 3.53991 21.8002 3.52991 21.8102 3.52991C21.9202 3.47991 22.0202 3.39991 22.0802 3.28991C22.1502 3.16991 22.1602 3.01991 22.1302 2.87991C22.1202 2.80991 22.0902 2.73991 22.0502 2.67991C22.0402 2.66991 22.0402 2.64991 22.0302 2.63991C22.0302 2.63991 22.0302 2.63991 22.0202 2.63991C21.9602 2.53991 21.8602 2.46991 21.7602 2.42991C21.7502 2.30991 21.7402 2.20991 21.7302 2.09991C21.8202 2.04991 21.9102 1.97991 21.9602 1.87991C22.0302 1.74991 22.0402 1.60991 22.0102 1.46991C22.0002 1.39991 21.9702 1.32991 21.9302 1.26991C21.9202 1.25991 21.9202 1.23991 21.9102 1.22991C21.9102 1.22991 21.9102 1.22991 21.9102 1.21991C21.8402 1.11991 21.7402 1.02991 21.6102 0.989912C21.6002 0.989912 21.5902 0.989912 21.5802 0.989912C21.5702 0.969912 21.5702 0.939912 21.5602 0.909912H21.3302C21.3402 0.939912 21.3402 0.969912 21.3502 0.999912C21.0602 1.04991 20.8002 1.31991 20.8202 1.61991C20.8502 1.95991 21.1802 2.20991 21.5102 2.17991C21.5202 2.24991 21.5202 2.31991 21.5302 2.38991C21.2102 2.40991 20.9202 2.68991 20.9402 3.00991C20.9702 3.31991 21.2402 3.54991 21.5302 3.55991C21.5302 3.62991 21.5202 3.69991 21.5102 3.76991C21.2102 3.80991 20.9202 4.08991 20.9402 4.40991C20.9602 4.64991 21.1302 4.83991 21.3502 4.92991C21.3302 4.98991 21.3202 5.04991 21.3102 5.10991C20.9702 5.07991 20.6102 5.37991 20.6402 5.73991C20.6602 5.94991 20.7902 6.12991 20.9702 6.21991C20.9302 6.30991 20.9002 6.40991 20.8602 6.49991C20.8502 6.48991 20.8402 6.47991 20.8302 6.47991C20.4602 6.35991 20.0202 6.69991 20.0502 7.08991C20.0702 7.27991 20.1802 7.44991 20.3402 7.54991C20.3002 7.62991 20.2502 7.69991 20.2002 7.76991C20.1902 7.76991 20.1902 7.75991 20.1802 7.75991C19.8102 7.63991 19.3702 7.97991 19.4002 8.36991C19.4102 8.48991 19.4602 8.59991 19.5402 8.68991C19.4902 8.73991 19.4502 8.79991 19.4002 8.84991C19.3502 8.80991 19.3002 8.77991 19.2402 8.75991C18.8702 8.63991 18.4302 8.97991 18.4602 9.36991C18.4702 9.48991 18.5202 9.58991 18.5802 9.67991C18.4702 9.76991 18.3602 9.86991 18.2502 9.95991C18.1902 9.89991 18.1202 9.84991 18.0402 9.82991C17.6702 9.70991 17.2302 10.0499 17.2602 10.4399C17.2702 10.5099 17.2902 10.5699 17.3102 10.6299C17.2202 10.6799 17.1302 10.7299 17.0502 10.7799C17.0402 10.7699 17.0302 10.7499 17.0302 10.7399C17.0302 10.7399 17.0302 10.7399 17.0302 10.7299C16.9602 10.6299 16.8602 10.5399 16.7302 10.5099C16.3602 10.3899 15.9202 10.7299 15.9502 11.1199C15.9602 11.1799 15.9702 11.2399 16.0002 11.2999C15.9702 11.3099 15.9302 11.3299 15.9002 11.3399C15.8902 11.3099 15.8702 11.2899 15.8602 11.2599C15.8502 11.2499 15.8502 11.2299 15.8402 11.2199C15.8402 11.2199 15.8402 11.2199 15.8402 11.2099C15.7702 11.1099 15.6702 11.0199 15.5402 10.9799C15.1702 10.8699 14.7302 11.1999 14.7602 11.5899C14.7602 11.6199 14.7702 11.6599 14.7802 11.6899C14.7002 11.7099 14.6302 11.7199 14.5602 11.7399C14.5502 11.6999 14.5302 11.6699 14.5102 11.6299C14.5002 11.6199 14.5002 11.5999 14.4902 11.5899C14.4902 11.5899 14.4902 11.5899 14.4802 11.5899C14.4102 11.4899 14.3102 11.3999 14.1802 11.3599C13.8302 11.2499 13.4202 11.5499 13.4002 11.9099C13.3002 11.9199 13.2002 11.9299 13.1002 11.9399C13.0902 11.8699 13.0602 11.8099 13.0302 11.7599C13.0202 11.7499 13.0202 11.7299 13.0102 11.7299C13.0102 11.7299 13.0102 11.7299 13.0102 11.7199C12.9402 11.6199 12.8402 11.5299 12.7102 11.4899C12.3902 11.3899 12.0402 11.6199 11.9502 11.9199C11.8502 11.9099 11.7402 11.8999 11.6402 11.8899C11.6402 11.8599 11.6302 11.8199 11.6302 11.7899C11.6202 11.7199 11.5902 11.6499 11.5502 11.5899C11.5402 11.5799 11.5402 11.5599 11.5302 11.5499C11.5302 11.5499 11.5302 11.5499 11.5202 11.5399C11.4502 11.4399 11.3502 11.3499 11.2202 11.3199C10.9302 11.2299 10.6102 11.4099 10.4902 11.6799L10.2402 11.6099C10.2402 11.5599 10.2402 11.4999 10.2302 11.4499C10.2202 11.3799 10.1902 11.3099 10.1502 11.2499C10.1402 11.2399 10.1402 11.2199 10.1302 11.2099C10.1302 11.2099 10.1302 11.2099 10.1302 11.1999C10.0602 11.0999 9.96021 11.0099 9.83021 10.9699C9.58021 10.8899 9.31021 11.0199 9.16021 11.2199C9.07021 11.1799 8.98021 11.1399 8.90021 11.0999C8.92021 11.0099 8.92021 10.9299 8.90021 10.8399C8.89021 10.7699 8.86021 10.6999 8.82021 10.6399C8.76021 10.6599 8.76021 10.6499 8.75021 10.6299C8.75021 10.6299 8.75021 10.6299 8.74021 10.6199C8.67021 10.5199 8.57021 10.4299 8.44021 10.3999C8.23021 10.3299 7.99021 10.4199 7.84021 10.5799C7.76021 10.5299 7.68021 10.4799 7.61021 10.4299C7.66021 10.3099 7.67021 10.1899 7.64021 10.0599C7.63021 9.98991 7.60021 9.91991 7.56021 9.85991C7.56021 9.85991 7.56021 9.83991 7.55021 9.82991C7.48021 9.72991 7.38021 9.63991 7.25021 9.59991C7.06021 9.53991 6.85021 9.59991 6.70021 9.71991C6.63021 9.65991 6.56021 9.59991 6.50021 9.52991C6.51021 9.50991 6.53021 9.48991 6.54021 9.46991C6.61021 9.33991 6.62021 9.19991 6.59021 9.05991C6.58021 8.98991 6.55021 8.91991 6.51021 8.85991C6.51021 8.84991 6.51021 8.83991 6.50021 8.82991C6.50021 8.82991 6.50021 8.82991 6.50021 8.81991C6.43021 8.71991 6.33021 8.62991 6.20021 8.58991C6.02021 8.53991 5.84021 8.57991 5.69021 8.67991C5.65021 8.62991 5.61021 8.56991 5.56021 8.51991C5.60021 8.47991 5.64021 8.43991 5.66021 8.38991C5.73021 8.25991 5.74021 8.11991 5.71021 7.97991C5.71021 7.90991 5.68021 7.84991 5.64021 7.77991C5.63021 7.76991 5.63021 7.75991 5.62021 7.74991C5.62021 7.74991 5.62021 7.74991 5.62021 7.73991C5.54021 7.62991 5.44021 7.54991 5.31021 7.50991C5.18021 7.46991 5.03021 7.48991 4.90021 7.54991C4.87021 7.49991 4.84021 7.44991 4.81021 7.38991C4.85021 7.34991 4.89021 7.29991 4.92021 7.24991C4.99021 7.11991 5.00021 6.97991 4.97021 6.83991C4.97021 6.76991 4.94021 6.69991 4.90021 6.63991C4.90021 6.62991 4.89021 6.61991 4.88021 6.60991C4.88021 6.60991 4.88021 6.60991 4.87021 6.59991C4.80021 6.49991 4.70021 6.40991 4.57021 6.36991C4.49021 6.34991 4.40021 6.34991 4.32021 6.35991C4.29021 6.28991 4.26021 6.20991 4.23021 6.13991C4.33021 6.08991 4.41021 6.00991 4.46021 5.90991C4.53021 5.78991 4.55021 5.63991 4.52021 5.50991C4.51021 5.42991 4.48021 5.36991 4.44021 5.30991C4.44021 5.29991 4.43021 5.27991 4.42021 5.26991C4.42021 5.26991 4.42021 5.26991 4.41021 5.25991C4.34021 5.15991 4.24021 5.07991 4.12021 5.02991C4.04021 5.00991 3.97021 5.00991 3.90021 5.01991C3.88021 4.96991 3.87021 4.90991 3.86021 4.84991H3.87021C3.87021 4.84991 3.88021 4.84991 3.88021 4.83991C3.90021 4.83991 3.91021 4.82991 3.92021 4.82991C3.93021 4.82991 3.94021 4.81991 3.94021 4.81991C4.05021 4.76991 4.15021 4.68991 4.21021 4.57991C4.28021 4.45991 4.29021 4.30991 4.26021 4.16991C4.25021 4.09991 4.22021 4.02991 4.18021 3.96991C4.18021 3.95991 4.17021 3.94991 4.16021 3.93991C4.16021 3.93991 4.16021 3.93991 4.15021 3.93991C4.08021 3.83991 3.98021 3.74991 3.85021 3.70991C3.81021 3.67991 3.75021 3.67991 3.70021 3.67991C3.69021 3.60991 3.69021 3.53991 3.68021 3.46991C3.70021 3.45991 3.72021 3.45991 3.75021 3.45991C3.76021 3.45991 3.76021 3.45991 3.77021 3.44991C3.78021 3.44991 3.80021 3.43991 3.81021 3.43991C3.81021 3.43991 3.82021 3.42991 3.83021 3.42991C3.94021 3.37991 4.04021 3.29991 4.10021 3.18991C4.16021 3.05991 4.17021 2.91991 4.14021 2.77991C4.13021 2.70991 4.10021 2.63991 4.07021 2.57991C4.06021 2.56991 4.05021 2.54991 4.05021 2.53991C4.05021 2.53991 4.05021 2.53991 4.05021 2.52991C3.97021 2.42991 3.87021 2.34991 3.74021 2.30991C3.73021 2.29991 3.71021 2.29991 3.70021 2.29991C3.71021 2.23991 3.71021 2.17991 3.71021 2.12991C3.72021 2.12991 3.74021 2.12991 3.75021 2.11991C3.76021 2.11991 3.76021 2.11991 3.77021 2.10991C3.78021 2.10991 3.80021 2.09991 3.81021 2.09991C3.81021 2.09991 3.82021 2.08991 3.83021 2.08991C3.94021 2.03991 4.04021 1.95991 4.10021 1.84991C4.16021 1.72991 4.17021 1.57991 4.14021 1.43991C4.13021 1.36991 4.10021 1.29991 4.06021 1.23991C4.06021 1.22991 4.05021 1.21991 4.05021 1.20991C4.05021 1.20991 4.05021 1.20991 4.05021 1.19991C3.99021 1.12991 3.93021 1.07991 3.86021 1.02991C3.87021 0.989912 3.88021 0.949912 3.88021 0.909912H3.66021L3.65021 0.959912C3.30021 0.919912 2.93021 1.21991 2.96021 1.57991C2.98021 1.85991 3.22021 2.08991 3.49021 2.12991C3.48021 2.18991 3.48021 2.23991 3.47021 2.29991C3.19021 2.35991 2.94021 2.61991 2.96021 2.91991C2.98021 3.18991 3.20021 3.40991 3.46021 3.46991C3.47021 3.55991 3.47021 3.64991 3.48021 3.72991C3.24021 3.81991 3.06021 4.04991 3.08021 4.30991C3.10021 4.60991 3.35021 4.82991 3.63021 4.86991C3.65021 4.93991 3.67021 5.00991 3.68021 5.08991C3.47021 5.18991 3.32021 5.40991 3.34021 5.64991C3.37021 5.98991 3.69021 6.23991 4.02021 6.20991C4.04021 6.27991 4.08021 6.35991 4.11021 6.43991C3.92021 6.54991 3.78021 6.75991 3.80021 6.97991C3.83021 7.34991 4.23021 7.62991 4.59021 7.51991H4.60021C4.61021 7.51991 4.62021 7.50991 4.63021 7.50991C4.66021 7.56991 4.70021 7.61991 4.73021 7.67991C4.61021 7.79991 4.53021 7.94991 4.54021 8.11991C4.57021 8.48991 4.97021 8.76991 5.33021 8.65991C5.34021 8.65991 5.34021 8.65991 5.35021 8.65991C5.36021 8.64991 5.38021 8.64991 5.39021 8.64991C5.44021 8.71991 5.49021 8.77991 5.54021 8.83991C5.45021 8.93991 5.40021 9.06991 5.41021 9.19991C5.44021 9.57991 5.85021 9.84991 6.20021 9.73991C6.21021 9.73991 6.21021 9.73991 6.22021 9.72991C6.24021 9.72991 6.25021 9.71991 6.26021 9.71991C6.27021 9.71991 6.27021 9.70991 6.28021 9.70991C6.30021 9.69991 6.31021 9.68991 6.33021 9.67991C6.40021 9.74991 6.48021 9.81991 6.55021 9.88991C6.49021 9.98991 6.46021 10.0899 6.46021 10.2099C6.49021 10.5799 6.89021 10.8599 7.25021 10.7499H7.26021C7.28021 10.7399 7.29021 10.7399 7.30021 10.7299C7.31021 10.7299 7.31021 10.7199 7.32021 10.7199C7.38021 10.6899 7.43021 10.6599 7.48021 10.6199C7.55021 10.6699 7.63021 10.7199 7.71021 10.7699C7.68021 10.8499 7.66021 10.9299 7.66021 11.0199C7.69021 11.3899 8.09021 11.6699 8.45021 11.5599C8.45021 11.5599 8.46021 11.5599 8.46021 11.5499C8.48021 11.5499 8.49021 11.5399 8.50021 11.5399C8.51021 11.5399 8.51021 11.5299 8.52021 11.5299C8.61021 11.4899 8.68021 11.4199 8.74021 11.3399C8.83021 11.3799 8.91021 11.4199 9.00021 11.4599C8.99021 11.5099 8.98021 11.5599 8.98021 11.6199C9.01021 11.9999 9.41021 12.2699 9.77021 12.1599C9.78021 12.1599 9.78021 12.1599 9.79021 12.1499C9.80021 12.1499 9.82021 12.1399 9.83021 12.1399C9.84021 12.1399 9.84021 12.1299 9.85021 12.1299C9.96021 12.0799 10.0602 11.9999 10.1202 11.8899C10.1202 11.8799 10.1302 11.8699 10.1302 11.8599C10.2102 11.8799 10.2902 11.9099 10.3802 11.9299C10.3802 11.9399 10.3802 11.9499 10.3802 11.9599C10.4102 12.3299 10.8102 12.6099 11.1702 12.4999C11.1702 12.4999 11.1802 12.4999 11.1802 12.4899C11.2002 12.4899 11.2102 12.4799 11.2202 12.4799C11.2302 12.4799 11.2302 12.4699 11.2402 12.4699C11.3502 12.4199 11.4502 12.3399 11.5102 12.2299C11.5302 12.1999 11.5402 12.1699 11.5502 12.1399C11.6602 12.1499 11.7702 12.1699 11.8802 12.1699C11.9402 12.5199 12.3202 12.7699 12.6602 12.6599C12.6702 12.6599 12.6702 12.6599 12.6802 12.6599C12.6902 12.6499 12.7102 12.6499 12.7202 12.6499C12.7302 12.6499 12.7302 12.6399 12.7402 12.6399C12.8502 12.5899 12.9502 12.5099 13.0102 12.3999C13.0402 12.3399 13.0602 12.2699 13.0702 12.1999C13.1802 12.1899 13.2902 12.1799 13.3902 12.1699C13.5002 12.4599 13.8402 12.6399 14.1402 12.5399H14.1502C14.1702 12.5299 14.1802 12.5299 14.1902 12.5299C14.2002 12.5299 14.2002 12.5199 14.2102 12.5199C14.3202 12.4699 14.4202 12.3899 14.4802 12.2799C14.5302 12.1899 14.5502 12.0999 14.5502 11.9999C14.6402 11.9799 14.7402 11.9599 14.8402 11.9299C14.9902 12.1299 15.2602 12.2399 15.5102 12.1599C15.5202 12.1599 15.5202 12.1599 15.5302 12.1499C15.5402 12.1499 15.5602 12.1399 15.5702 12.1399C15.5702 12.1399 15.5802 12.1299 15.5902 12.1299C15.7002 12.0799 15.8002 11.9999 15.8602 11.8899C15.9102 11.7999 15.9302 11.6899 15.9202 11.5899C15.9802 11.5699 16.0402 11.5399 16.1002 11.5199C16.2602 11.6799 16.5002 11.7599 16.7102 11.6899C16.7202 11.6899 16.7202 11.6899 16.7302 11.6799C16.7502 11.6799 16.7602 11.6699 16.7702 11.6699C16.7802 11.6699 16.7802 11.6599 16.7902 11.6599C16.9002 11.6099 17.0002 11.5299 17.0602 11.4199C17.1202 11.2999 17.1402 11.1599 17.1102 11.0299C17.2202 10.9699 17.3202 10.9099 17.4302 10.8399C17.5902 10.9999 17.8202 11.0699 18.0402 10.9999H18.0502C18.0702 10.9999 18.0802 10.9899 18.0902 10.9899C18.1002 10.9899 18.1002 10.9799 18.1102 10.9799C18.2202 10.9299 18.3202 10.8499 18.3802 10.7399C18.4502 10.6099 18.4602 10.4699 18.4302 10.3299C18.4202 10.2699 18.4002 10.2199 18.3702 10.1699C18.4902 10.0699 18.6102 9.96991 18.7302 9.85991C18.8702 9.94991 19.0602 9.98991 19.2302 9.93991C19.2402 9.93991 19.2402 9.93991 19.2502 9.93991C19.2502 9.90991 19.2602 9.90991 19.2802 9.90991C19.2802 9.90991 19.2902 9.89991 19.3002 9.89991C19.4102 9.84991 19.5102 9.75991 19.5702 9.65991C19.6402 9.52991 19.6502 9.38991 19.6202 9.24991C19.6102 9.17991 19.5802 9.10991 19.5402 9.04991C19.5402 9.03991 19.5302 9.03991 19.5302 9.02991C19.5802 8.96991 19.6402 8.90991 19.6902 8.84991C19.8302 8.93991 20.0102 8.96991 20.1702 8.91991C20.1802 8.91991 20.1802 8.91991 20.1902 8.90991C20.2002 8.90991 20.2202 8.89991 20.2302 8.89991C20.2402 8.89991 20.2402 8.88991 20.2502 8.88991C20.3602 8.83991 20.4602 8.75991 20.5202 8.64991C20.5902 8.52991 20.6002 8.37991 20.5702 8.23991C20.5602 8.16991 20.5302 8.09991 20.4902 8.03991C20.4802 8.02991 20.4802 8.00991 20.4702 7.99991C20.4702 7.99991 20.4702 7.99991 20.4702 7.98991C20.4402 7.95991 20.4102 7.92991 20.3802 7.89991C20.4302 7.80991 20.4802 7.72991 20.5302 7.63991C20.6302 7.65991 20.7302 7.65991 20.8202 7.62991C20.8302 7.62991 20.8302 7.62991 20.8402 7.62991C20.8602 7.61991 20.8702 7.61991 20.8802 7.61991C20.8902 7.61991 20.8902 7.60991 20.9002 7.60991C21.0102 7.55991 21.1102 7.47991 21.1702 7.36991C21.2402 7.23991 21.2502 7.09991 21.2202 6.95991C21.2102 6.88991 21.1802 6.81991 21.1402 6.75991C21.1302 6.74991 21.1202 6.72991 21.1202 6.71991C21.1002 6.68991 21.0702 6.66991 21.0502 6.63991C21.1002 6.52991 21.1402 6.41991 21.1802 6.29991C21.2602 6.30991 21.3502 6.30991 21.4302 6.27991H21.4402C21.4602 6.26991 21.4702 6.26991 21.4802 6.26991C21.4902 6.26991 21.4902 6.25991 21.5002 6.25991C21.6102 6.20991 21.7102 6.12991 21.7702 6.01991C21.8402 5.88991 21.8502 5.74991 21.8202 5.60991C21.8102 5.53991 21.7802 5.46991 21.7402 5.40991C21.7302 5.39991 21.7302 5.37991 21.7202 5.36991C21.6702 5.29991 21.6002 5.23991 21.5302 5.19991C21.5502 5.12991 21.5602 5.05991 21.5802 4.97991C21.6302 4.97991 21.6902 4.96991 21.7402 4.95991H21.7502C21.7702 4.94991 21.7802 4.94991 21.7902 4.94991C21.8002 4.94991 21.8002 4.93991 21.8102 4.93991C21.9202 4.88991 22.0202 4.80991 22.0802 4.69991C22.1502 4.56991 22.1602 4.42991 22.1302 4.28991C22.1102 4.19991 22.0802 4.12991 22.0502 4.06991Z" fill="#602651"/>
<path d="M10.1302 17.7898C10.1202 17.8498 10.1202 17.9098 10.1202 17.9598C10.1102 18.8398 11.2102 19.0098 11.8802 19.0498C12.5802 19.0898 13.4802 19.1898 14.1002 18.7998C14.5402 18.5198 14.5102 18.1098 14.4602 17.6398C14.3702 16.8698 14.2002 16.1098 14.0802 15.3498C13.9902 14.7898 13.9002 14.1198 13.4902 13.6998C13.1302 13.3298 12.5802 13.1698 12.0802 13.2398C11.4402 13.3298 11.1802 14.0498 11.0002 14.5898C10.7002 15.4698 10.4302 16.3698 10.2402 17.2798C10.1902 17.4498 10.1602 17.6198 10.1302 17.7898Z" fill="#E16272"/>
<path d="M6.2199 16.4999C6.6499 16.7499 7.3799 16.9899 7.8599 16.7499C8.3699 16.4999 8.4399 15.8799 8.5799 15.3899C8.7799 14.7199 8.9499 14.0499 9.0999 13.3699C9.1299 13.2199 9.1699 13.0599 9.1499 12.9099C9.0399 12.1299 7.6099 12.0799 7.0999 12.3999C6.8999 12.5199 6.7399 12.6999 6.5799 12.8699C6.4299 13.0399 6.2799 13.2199 6.1299 13.3999C5.8699 13.7399 5.6399 14.1599 5.5299 14.5899C5.3499 15.3199 5.4599 16.0599 6.2199 16.4999Z" fill="#E16272"/>
<path d="M23.4101 11.8598C23.2301 11.4498 22.9501 11.0698 22.6401 10.7698C22.4701 10.6098 22.3001 10.4598 22.1201 10.3098C21.9401 10.1598 21.7601 10.0099 21.5401 9.90985C20.9901 9.66985 19.5801 9.91985 19.5801 10.6998C19.5801 10.8498 19.6301 10.9998 19.6901 11.1498C19.9401 11.7998 20.2101 12.4399 20.4901 13.0799C20.7001 13.5399 20.8601 14.1498 21.4001 14.3198C21.9101 14.4898 22.6001 14.1499 22.9901 13.8399C23.7001 13.2999 23.7001 12.5398 23.4101 11.8598Z" fill="#E16272"/>
<path d="M15.7701 14.0098C15.7901 14.5298 15.9901 15.0198 16.2401 15.4798C16.5301 16.0298 16.7101 17.1198 17.5401 17.0098C17.7701 16.9798 17.9701 16.8698 18.1601 16.7398C18.6601 16.4098 19.4701 15.7698 19.3401 15.0798C19.3001 14.8598 19.1901 14.6498 19.1001 14.4498C19.0001 14.2398 18.9101 14.0198 18.7901 13.8198C18.4101 13.1098 17.7301 12.1798 16.8101 12.4198C16.4801 12.5098 16.2201 12.7098 16.0501 12.9798C15.8501 13.2698 15.7501 13.6498 15.7701 14.0098Z" fill="#E16272"/>
<path d="M2.37018 11.1899C2.42018 11.4199 2.64018 11.5799 2.81018 11.7099C3.03018 11.8799 3.27018 12.0299 3.52018 12.1599C3.57018 12.1799 3.61018 12.1699 3.64018 12.1399C3.66018 12.1499 3.68018 12.1499 3.70018 12.1399C3.99018 12.0199 4.26018 11.8799 4.51018 11.7099C4.72018 11.5599 4.94018 11.3899 5.04018 11.1399C5.13018 10.9099 5.06018 10.6799 4.92018 10.4799C4.78018 10.2699 4.60018 10.0699 4.42018 9.8899C4.26018 9.7199 4.08018 9.4999 3.82018 9.6099C3.59018 9.6999 3.37018 9.8599 3.17018 10.0099C2.97018 10.1699 2.78018 10.3499 2.61018 10.5399C2.47018 10.7199 2.32018 10.9499 2.37018 11.1899Z" fill="#E16272"/>
<path d="M1.13008 7.8799C1.42008 8.4699 2.04008 8.1099 2.47008 7.8299C2.64008 7.7299 2.80008 7.5999 2.86008 7.4099C2.99008 6.9699 2.54008 6.3099 2.35008 5.9399C2.33008 5.8999 2.31008 5.8599 2.27008 5.8299C2.23008 5.7899 2.17008 5.7799 2.11008 5.7699C1.42008 5.6399 1.07008 6.0799 0.970078 6.6399C0.900078 7.0599 0.960078 7.5399 1.13008 7.8799Z" fill="#E16272"/>
<path d="M22.9203 7.84985C23.2303 7.89985 23.7103 7.86985 23.9103 7.57985C24.0603 7.35985 24.0803 7.02985 24.0903 6.77985C24.1003 6.50985 24.1103 6.18985 23.9603 5.94985C23.5503 5.30985 22.6403 5.72985 22.4503 6.32985C22.4103 6.44985 22.4003 6.56985 22.3603 6.68985C22.3103 6.84985 22.2603 7.00985 22.2403 7.15985C22.2003 7.54985 22.5703 7.78985 22.9203 7.84985Z" fill="#E16272"/>
</g>
<defs>
<clipPath id="clip0_302_176">
<rect width="23.15" height="18.18" fill="white" transform="translate(0.939941 0.909912)"/>
</clipPath>
</defs>
</svg>
