<svg width="71" height="76" viewBox="0 0 71 76" fill="none" xmlns="http://www.w3.org/2000/svg">
<g clip-path="url(#clip0_301_611)">
<path d="M61.2103 68.93H45.5503C45.5203 67.85 45.5103 66.79 45.5103 65.75C45.5103 64.15 45.5503 62.6 45.6103 61.1C45.7903 56.79 46.1803 52.87 46.6803 49.43C46.9603 47.39 47.2803 45.52 47.6003 43.83C48.8403 37.48 50.1503 33.78 50.1503 33.78C53.8603 24.97 56.2303 31.25 56.9003 33.25C56.9903 33.52 57.0503 33.71 57.0803 33.78C57.3903 34.52 57.6703 35.49 57.9403 36.62C58.5103 38.98 58.9903 42.07 59.4003 45.41V45.42C59.5603 46.74 59.7103 48.08 59.8503 49.44V49.45C60.8003 59 61.2103 68.93 61.2103 68.93Z" fill="#FFE478"/>
<path d="M57.9402 36.62L46.6802 49.43C46.9602 47.39 47.2802 45.52 47.6002 43.83L56.9002 33.25C56.9902 33.52 57.0502 33.71 57.0802 33.78C57.3902 34.52 57.6702 35.49 57.9402 36.62Z" fill="#A0671D"/>
<path d="M59.4003 45.41L45.6103 61.1C45.5503 62.6 45.5103 64.15 45.5103 65.75L59.8503 49.45V49.44L59.4003 45.41Z" fill="#A0671D"/>
<path d="M70.0802 16.44C70.0802 17.36 69.8802 18.27 69.4902 19.13C66.0202 26.81 59.4602 36.79 45.0002 40.01C43.5402 40.34 42.0102 40.6 40.3902 40.77C38.6502 40.97 36.8102 41.07 34.8602 41.07C32.9002 40.91 31.0202 40.68 29.2202 40.37C28.0602 40.19 26.9302 39.96 25.8402 39.71C22.4802 38.94 19.4302 37.91 16.7002 36.63C15.7502 36.19 14.8402 35.72 13.9702 35.22C11.5502 33.84 9.42016 32.24 7.58016 30.44C6.86016 29.74 6.18016 29.01 5.55016 28.24C3.75016 26.07 2.31016 23.66 1.25016 21.05C1.15016 20.82 1.06016 20.59 0.970163 20.36C0.270163 18.5 0.420163 16.43 1.41016 14.71L1.98016 13.73C6.81016 5.87 11.5802 2.57 16.1402 1.01C17.3502 0.590003 18.6302 1.27 18.9802 2.5C19.6002 4.71 20.7802 8.15 22.7602 11.33C23.0302 11.76 23.3102 12.18 23.6102 12.6C25.0302 14.6 26.8002 16.39 28.9802 17.58C29.4302 17.83 29.9002 18.05 30.3902 18.23C31.7302 18.77 33.2202 19.07 34.8602 19.07C45.2502 19.07 50.1502 7.53 51.8902 2.33C52.3202 1.05 53.6402 0.330003 54.9402 0.620003C55.0102 0.630003 55.0802 0.650003 55.1502 0.670003C56.2302 1 57.2702 1.41 58.2702 1.91C59.2002 2.34 60.0902 2.84 60.9402 3.4C61.9902 4.08 62.9802 4.85 63.9002 5.7C65.1402 6.85 66.2402 8.12 67.2002 9.51C67.8002 10.38 68.3402 11.29 68.8102 12.25C69.1102 12.82 69.3702 13.41 69.6102 14.02C69.9202 14.8 70.0802 15.62 70.0802 16.44Z" fill="#FFE478"/>
<path d="M54.9402 0.620003C54.3702 6.4 50.6602 11.71 47.8602 14.96C45.4302 17.79 42.1402 19.81 38.4502 20.37C30.6802 21.55 25.9702 16.35 18.7702 14.56C11.2902 12.7 3.57016 18.95 1.25016 21.05C1.15016 20.82 1.06016 20.59 0.970163 20.36C0.270163 18.5 0.420163 16.43 1.41016 14.71L1.98016 13.73C6.81016 5.87 11.5802 2.57 16.1402 1.01C17.3502 0.590003 18.6302 1.27 18.9802 2.5C20.4002 7.54 24.7402 19.07 34.8602 19.07C45.2502 19.07 50.1502 7.53 51.8902 2.33C52.3202 1.05 53.6402 0.330003 54.9402 0.620003Z" fill="#A0671D"/>
<path d="M22.7603 11.3301L21.6303 10.3201L5.55029 28.2401C6.18029 29.0101 6.86029 29.7401 7.58029 30.4401L23.6103 12.6001L22.7603 11.3301Z" fill="#A0671D"/>
<path d="M31.5302 19.2001L16.7002 36.6301L13.9702 35.2201L28.9802 17.5801C29.4302 17.8301 29.9002 18.0501 30.3902 18.2301L31.5302 19.2001Z" fill="#A0671D"/>
<path d="M29.2203 40.37L60.9403 3.40003C60.0903 2.84003 59.2003 2.34003 58.2703 1.91003L25.8403 39.71L29.2203 40.37Z" fill="#A0671D"/>
<path d="M68.8101 12.25L45.0001 40.01C43.5401 40.34 42.0101 40.6 40.3901 40.77L67.2001 9.51001C67.8001 10.38 68.3401 11.29 68.8101 12.25Z" fill="#A0671D"/>
<path d="M40.5604 38.11C40.5604 38.11 35.1404 53.39 35.6804 75.44H52.3104C52.3104 75.44 51.1004 45.77 47.9304 38.11C47.6804 37.51 45.0304 27.48 40.5604 38.11Z" fill="#FFE478"/>
<path d="M42.8005 40.08L44.3805 47.54L45.8105 40.06C45.8905 39.47 45.7405 38.87 45.3905 38.45L45.3805 38.43C44.7805 37.69 43.8005 37.69 43.2105 38.43C42.8605 38.86 42.7105 39.48 42.8005 40.08Z" fill="#A0671D"/>
</g>
<defs>
<clipPath id="clip0_301_611">
<rect width="69.54" height="74.88" fill="white" transform="translate(0.540039 0.560059)"/>
</clipPath>
</defs>
</svg>
