<svg width="61" height="72" viewBox="0 0 61 72" fill="none" xmlns="http://www.w3.org/2000/svg">
<g id="beard-2" clip-path="url(#clip0_215_369)">
<g id="Group">
<g id="face">
<g id="Group_2">
<g id="Group_3">
<g id="Group_4">
<path id="Vector" d="M8.95 43.4C13.4787 43.4 17.15 39.7287 17.15 35.2C17.15 30.6713 13.4787 27 8.95 27C4.42126 27 0.75 30.6713 0.75 35.2C0.75 39.7287 4.42126 43.4 8.95 43.4Z" fill="#AD7153"/>
<g id="Group_5">
<g id="Group_6">
<path id="Vector_2" d="M7.24014 31C4.96014 31.11 3.14014 32.98 3.14014 35.29H7.24014V31Z" fill="#975C45"/>
</g>
</g>
</g>
<g id="Group_7">
<path id="Vector_3" d="M52.3001 43.4C56.8288 43.4 60.5001 39.7287 60.5001 35.2C60.5001 30.6713 56.8288 27 52.3001 27C47.7714 27 44.1001 30.6713 44.1001 35.2C44.1001 39.7287 47.7714 43.4 52.3001 43.4Z" fill="#AD7153"/>
<g id="Group_8">
<path id="Vector_4" d="M58.6401 35.2001C58.5301 32.9201 56.6601 31.1001 54.3501 31.1001V35.2001H58.6401Z" fill="#975C45"/>
</g>
</g>
</g>
<g id="Group_9">
<path id="Vector_5" d="M30.2598 69.63C18.2498 69.63 8.50977 59.89 8.50977 47.88V22.52C8.49977 10.51 18.2398 0.77002 30.2598 0.77002C42.2698 0.77002 52.0098 10.51 52.0098 22.52V47.87C52.0098 66.05 42.2698 69.63 30.2598 69.63Z" fill="#F6C09C"/>
<path id="Vector_6" d="M12.53 47.8799V9.93994C10 13.4899 8.5 17.8299 8.5 22.5299V47.8799C8.5 59.8899 18.24 69.6299 30.25 69.6299C30.93 69.6299 31.6 69.5899 32.27 69.5299C21.2 68.5099 12.53 59.2099 12.53 47.8799Z" fill="#AD7153"/>
</g>
</g>
</g>
<g id="Group_10">
<path id="Vector_7" d="M51.6901 29.54C50.8901 29.54 50.2501 30.18 50.2501 30.97C50.2501 30.97 50.2401 37.13 50.2201 39.16C50.2101 40.09 50.1301 41.25 49.9901 42.53C48.9101 52.4 40.5501 62.17 30.6301 62.18H30.6201V69.63H31.5101V71.84H32.9901V69.63H34.8301V71.84H36.3101V69.63H38.1501V71.84H39.6301V69.63H41.4701V71.84H42.9501V69.63H44.7901V71.84H46.2701V69.63H48.1101V71.84H49.5901V69.63H51.4301V71.84H52.9101V69.63H52.9401L53.1301 31C53.1401 30.19 52.4901 29.54 51.6901 29.54Z" fill="#602F33"/>
<path id="Vector_8" d="M11.2001 42.15C11.1101 41.16 11.0601 40.27 11.0501 39.53L11.0001 30.97C11.0001 30.18 10.3601 29.54 9.56012 29.54C8.77012 29.54 8.12012 30.18 8.12012 30.98C8.12012 30.99 8.12012 35.55 8.12012 35.56L8.27012 47V47.28V69.1H8.26012V71.84H9.74012V69.63H11.5801V71.84H13.0601V69.63H14.9001V71.84H16.3801V69.63H18.2201V71.84H19.7001V69.63H21.5401V71.84H23.0201V69.63H24.8601V71.84H26.3401V69.63H28.1801V71.84H29.6601V69.63H30.6201V62.18C20.5401 62.19 12.1301 52.19 11.2001 42.15Z" fill="#472123"/>
</g>
</g>
</g>
<defs>
<clipPath id="clip0_215_369">
<rect width="59.75" height="71.07" fill="white" transform="translate(0.75 0.77002)"/>
</clipPath>
</defs>
</svg>
