<svg width="60" height="60" viewBox="0 0 60 60" fill="none" xmlns="http://www.w3.org/2000/svg">
<g clip-path="url(#clip0_403_442)">
<path d="M29.9999 47.65C28.4899 48.11 27.3799 49.59 27.3799 51.35C27.3799 52.92 28.6899 55.02 29.6499 56.05C29.8299 56.24 30.1699 56.25 30.3499 56.05C31.3199 55.02 32.6099 52.91 32.6099 51.34C32.6199 49.58 31.5099 48.11 29.9999 47.65Z" class="current-color" fill="#57292B"/>
<path d="M31.7399 48.6H28.2699C27.7999 48.6 27.4199 48.19 27.4199 47.68C27.4199 47.17 27.7999 46.76 28.2699 46.76H31.7399C32.2099 46.76 32.5899 47.17 32.5899 47.68C32.5899 48.19 32.2099 48.6 31.7399 48.6Z" fill="#AD7153"/>
<path d="M49.36 3.80005C48.63 3.80005 48.04 4.39005 48.04 5.12005V13.24C48.04 18.47 45.82 23.59 41.51 27.25C38.22 30.04 34.27 31.67 30 31.67V47.32C38.53 47.32 45.86 36.21 49.03 26.91C50.03 23.96 50.47 20.89 50.52 17.82L50.68 5.14005C50.69 4.40005 50.1 3.80005 49.36 3.80005Z" class="current-color" fill="#602F33"/>
<path d="M18.4899 27.25C14.1799 23.59 11.9599 18.47 11.9599 13.24V5.12005C11.9599 4.39005 11.37 3.80005 10.64 3.80005C9.89995 3.80005 9.30995 4.40005 9.31995 5.14005L9.47995 17.82C9.52995 20.89 9.96995 24.87 10.97 27.82C14.14 37.12 21.46 47.32 30 47.32V31.67C25.74 31.67 21.7799 30.04 18.4899 27.25Z" class="current-color-dark" fill="#472123"/>
</g>
<defs>
<clipPath id="clip0_403_442">
<rect width="60" height="60" fill="white"/>
</clipPath>
</defs>
</svg>
