<svg width="60" height="60" viewBox="0 0 60 60" fill="none" xmlns="http://www.w3.org/2000/svg">
<g clip-path="url(#clip0_403_431)">
<path d="M29.6798 39.88C22.3698 39.88 15.7698 35.26 13.1798 28.2299C13.1798 28.2199 13.1698 28.2 13.1698 28.19C12.6398 26.74 12.4098 25.2 12.4098 23.66V12.93C12.4098 12.82 12.3798 12.7 12.3098 12.61C11.7598 11.88 10.9098 11.45 10.0098 11.45V25.38V30.28C10.0098 38.16 15.3398 48.3999 29.9998 48.5299C30.2198 48.5299 30.4398 48.5299 30.6698 48.5299V39.84C30.3398 39.87 30.0098 39.88 29.6798 39.88Z" fill="#472123"/>
<path d="M49.3599 34.78C49.8799 32.61 49.9899 25.39 49.9899 25.39V11.46C49.0899 11.46 48.2399 11.89 47.6899 12.62C47.6199 12.71 47.5899 12.82 47.5899 12.94V20.66C47.5899 23.78 46.8999 26.85 45.5799 29.65C42.7699 35.6 37.0499 39.48 30.6699 39.85V48.54C36.6999 48.48 46.4999 46.69 49.3599 34.78Z" fill="#602F33"/>
</g>
<defs>
<clipPath id="clip0_403_431">
<rect width="60" height="60" fill="white"/>
</clipPath>
</defs>
</svg>
