<svg width="60" height="88" viewBox="0 0 60 88" fill="none" xmlns="http://www.w3.org/2000/svg">
<g id="beard-1" clip-path="url(#clip0_215_342)">
<g id="Group">
<g id="face">
<g id="Group_2">
<g id="Group_3">
<g id="Group_4">
<path id="Vector" d="M8.2 43.4C12.7287 43.4 16.4 39.7287 16.4 35.2C16.4 30.6713 12.7287 27 8.2 27C3.67126 27 0 30.6713 0 35.2C0 39.7287 3.67126 43.4 8.2 43.4Z" fill="#AD7153"/>
<g id="Group_5">
<g id="Group_6">
<path id="Vector_2" d="M6.49014 31C4.21014 31.11 2.39014 32.98 2.39014 35.29H6.49014V31Z" fill="#975C45"/>
</g>
</g>
</g>
<g id="Group_7">
<path id="Vector_3" d="M51.5501 43.4C56.0788 43.4 59.7501 39.7287 59.7501 35.2C59.7501 30.6713 56.0788 27 51.5501 27C47.0214 27 43.3501 30.6713 43.3501 35.2C43.3501 39.7287 47.0214 43.4 51.5501 43.4Z" fill="#AD7153"/>
<g id="Group_8">
<path id="Vector_4" d="M57.8901 35.2001C57.7801 32.9201 55.9101 31.1001 53.6001 31.1001V35.2001H57.8901Z" fill="#975C45"/>
</g>
</g>
</g>
<g id="Group_9">
<path id="Vector_5" d="M29.5098 69.63C17.4998 69.63 7.75977 59.89 7.75977 47.88V22.52C7.74977 10.51 17.4898 0.77002 29.5098 0.77002C41.5198 0.77002 51.2598 10.51 51.2598 22.52V47.87C51.2598 59.89 41.5198 69.63 29.5098 69.63Z" fill="#F6C09C"/>
<path id="Vector_6" d="M11.78 47.8799V9.93994C9.25 13.4899 7.75 17.8299 7.75 22.5299V47.8799C7.75 59.8899 17.49 69.6299 29.5 69.6299C30.18 69.6299 30.85 69.5899 31.52 69.5299C20.45 68.5099 11.78 59.2099 11.78 47.8799Z" fill="#AD7153"/>
</g>
</g>
</g>
<g id="Group_10">
<path id="Vector_7" d="M29.8002 78.3899C28.1602 78.8999 26.9502 80.4999 26.9502 82.4199C26.9502 84.1199 28.3802 86.4199 29.4202 87.5399C29.6202 87.7499 29.9802 87.7499 30.1802 87.5399C31.2302 86.4199 32.6402 84.1199 32.6402 82.4199C32.6502 80.4999 31.4402 78.8999 29.8002 78.3899Z" fill="#57292B"/>
<g id="Group_11">
<path id="Vector_8" d="M31.69 79.4299H27.91C27.4 79.4299 26.98 78.9799 26.98 78.4299C26.98 77.8799 27.39 77.4299 27.91 77.4299H31.69C32.2 77.4299 32.62 77.8799 32.62 78.4299C32.62 78.9799 32.21 79.4299 31.69 79.4299Z" fill="#AD7153"/>
</g>
<g id="Group_12">
<path id="Vector_9" d="M50.8703 30.6699C50.0803 30.6699 49.4303 31.3099 49.4303 32.1099V40.9499C49.4303 46.6399 47.0103 52.2199 42.3203 56.1999C38.7403 59.2399 34.4403 61.0099 29.8003 61.0099V78.0399C39.0803 78.0399 47.0603 65.9499 50.5003 55.8299C51.5903 52.6199 52.0703 49.2799 52.1203 45.9399L52.3003 32.1399C52.3203 31.3299 51.6803 30.6699 50.8703 30.6699Z" fill="#602F33"/>
<path id="Vector_10" d="M17.2802 56.1999C12.5902 52.2199 10.1702 46.6399 10.1702 40.9499V32.1099C10.1702 31.3199 9.53015 30.6699 8.73015 30.6699C7.93015 30.6699 7.28015 31.3299 7.29015 32.1299L7.47015 45.9299C7.53015 49.2699 8.00015 53.5999 9.09015 56.8099C12.5402 66.9299 20.5102 78.0399 29.7902 78.0399V61.0099C25.1602 61.0099 20.8602 59.2299 17.2802 56.1999Z" fill="#472123"/>
</g>
</g>
</g>
</g>
<defs>
<clipPath id="clip0_215_342">
<rect width="59.75" height="86.93" fill="white" transform="translate(0 0.77002)"/>
</clipPath>
</defs>
</svg>
