<svg width="61" height="72" viewBox="0 0 61 72" fill="none" xmlns="http://www.w3.org/2000/svg">
<g id="beard-3" clip-path="url(#clip0_215_420)">
<g id="Group">
<g id="face">
<g id="Group_2">
<g id="Group_3">
<g id="Group_4">
<path id="Vector" d="M8.7 43.4C13.2287 43.4 16.9 39.7287 16.9 35.2C16.9 30.6713 13.2287 27 8.7 27C4.17126 27 0.5 30.6713 0.5 35.2C0.5 39.7287 4.17126 43.4 8.7 43.4Z" fill="#AD7153"/>
<g id="Group_5">
<g id="Group_6">
<path id="Vector_2" d="M6.99014 31C4.71014 31.11 2.89014 32.98 2.89014 35.29H6.99014V31Z" fill="#975C45"/>
</g>
</g>
</g>
<g id="Group_7">
<path id="Vector_3" d="M52.0501 43.4C56.5788 43.4 60.2501 39.7287 60.2501 35.2C60.2501 30.6713 56.5788 27 52.0501 27C47.5214 27 43.8501 30.6713 43.8501 35.2C43.8501 39.7287 47.5214 43.4 52.0501 43.4Z" fill="#AD7153"/>
<g id="Group_8">
<path id="Vector_4" d="M58.3901 35.2001C58.2801 32.9201 56.4101 31.1001 54.1001 31.1001V35.2001H58.3901Z" fill="#975C45"/>
</g>
</g>
</g>
<g id="Group_9">
<path id="Vector_5" d="M30.0098 69.63C17.9998 69.63 8.25977 59.89 8.25977 47.88V22.52C8.24977 10.51 17.9898 0.77002 30.0098 0.77002C42.0198 0.77002 51.7598 10.51 51.7598 22.52V47.87C51.7598 66.05 42.0198 69.63 30.0098 69.63Z" fill="#F6C09C"/>
<path id="Vector_6" d="M12.28 47.8799V9.93994C9.75 13.4899 8.25 17.8299 8.25 22.5299V47.8799C8.25 59.8899 17.99 69.6299 30 69.6299C30.68 69.6299 31.35 69.5899 32.02 69.5299C20.95 68.5099 12.28 59.2099 12.28 47.8799Z" fill="#AD7153"/>
</g>
</g>
</g>
<g id="Group_10">
<path id="Vector_7" d="M29.66 61.94C21.7 61.94 14.53 56.91 11.7 49.26C11.69 49.25 11.69 49.23 11.68 49.22C11.11 47.65 10.86 45.97 10.86 44.29V32.61C10.86 32.49 10.82 32.36 10.75 32.26C10.15 31.46 9.23 31 8.25 31V46.17V51.5C8.25 60.08 14.06 71.22 30 71.37C30.24 71.37 30.48 71.37 30.73 71.37V61.91C30.38 61.92 30.02 61.94 29.66 61.94Z" fill="#472123"/>
<path id="Vector_8" d="M51.08 56.39C51.65 54.03 51.76 46.17 51.76 46.17V31C50.78 31 49.86 31.47 49.26 32.26C49.19 32.36 49.15 32.48 49.15 32.61V41.02C49.15 44.41 48.4 47.76 46.96 50.81C43.9 57.29 37.67 61.51 30.73 61.91V71.37C37.29 71.29 47.96 69.35 51.08 56.39Z" fill="#602F33"/>
</g>
</g>
</g>
<defs>
<clipPath id="clip0_215_420">
<rect width="59.75" height="70.59" fill="white" transform="translate(0.5 0.77002)"/>
</clipPath>
</defs>
</svg>
