<svg width="60" height="60" viewBox="0 0 60 60" fill="none" xmlns="http://www.w3.org/2000/svg">
<g clip-path="url(#clip0_403_436)">
<path d="M47.7802 12.62C47.7102 12.71 47.6802 12.82 47.6802 12.94V20.66C47.6802 23.78 47.8802 28.01 47.4002 31.07C45.8002 41.31 39.1102 45.83 30.1402 45.83C18.9402 45.83 12.5002 38 12.3302 29.51V13.02C12.3302 12.91 12.3002 12.79 12.2302 12.7C11.6802 11.97 10.8302 11.54 9.93018 11.54V25.47V30.37C9.93018 38.25 15.4302 48.4 30.0802 48.54C30.3002 48.54 30.5202 48.54 30.7502 48.54C36.7702 48.48 46.5802 46.69 49.4402 34.78C49.9602 32.61 50.0702 25.39 50.0702 25.39V11.46C49.1702 11.46 48.3302 11.88 47.7802 12.62Z" class="current-color" fill="#602F33"/>
</g>
<defs>
<clipPath id="clip0_403_436">
<rect width="60" height="60" fill="white"/>
</clipPath>
</defs>
</svg>
