<svg width="60" height="60" viewBox="0 0 60 60" fill="none" xmlns="http://www.w3.org/2000/svg">
<g clip-path="url(#clip0_403_417)">
<path d="M49.36 10.5699C48.62 10.5699 48.04 11.1599 48.04 11.8799C48.04 11.8799 48.03 17.5399 48.01 19.3999C48 20.2599 47.93 21.3199 47.8 22.4999C46.81 31.5699 39.13 40.5499 30.01 40.5499C30.01 40.5499 30.01 40.5499 30 40.5499V47.3899H30.81V49.4199H32.17V47.3999H33.86V49.4299H35.22V47.3999H36.91V49.4299H38.27V47.3999H39.96V49.4299H41.32V47.3999H43.01V49.4299H44.37V47.3999H46.06V49.4299H47.42V47.3999H49.11V49.4299H50.47V47.3999H50.49L50.66 11.9099C50.69 11.1699 50.1 10.5699 49.36 10.5699Z" class="current-color" fill="#602F33"/>
<path d="M12.1498 22.1499C12.0698 21.2399 12.0198 20.4199 12.0098 19.7399L11.9598 11.8799C11.9598 11.1499 11.3698 10.5699 10.6398 10.5699C9.90982 10.5699 9.31982 11.1599 9.31982 11.8899C9.31982 11.8999 9.31982 16.0899 9.31982 16.0999L9.45982 26.6099V26.8699V46.9199H9.44982V49.4299H10.8098V47.3999H12.4998V49.4299H13.8598V47.3999H15.5498V49.4299H16.9098V47.3999H18.5998V49.4299H19.9598V47.3999H21.6498V49.4299H23.0098V47.3999H24.6998V49.4299H26.0598V47.3999H27.7498V49.4299H29.1098V47.3999H29.9998V40.5599C20.7398 40.5599 12.9998 31.3799 12.1498 22.1499Z" class="current-color-dark" fill="#472123"/>
</g>
<defs>
<clipPath id="clip0_403_417">
<rect width="60" height="60" fill="white"/>
</clipPath>
</defs>
</svg>
