<svg width="60" height="70" viewBox="0 0 60 70" fill="none" xmlns="http://www.w3.org/2000/svg">
<g id="beard-7" clip-path="url(#clip0_215_506)">
<g id="Group">
<g id="face">
<g id="Group_2">
<g id="Group_3">
<g id="Group_4">
<path id="Vector" d="M8.2 43.3301C12.7287 43.3301 16.4 39.6588 16.4 35.1301C16.4 30.6013 12.7287 26.9301 8.2 26.9301C3.67126 26.9301 0 30.6013 0 35.1301C0 39.6588 3.67126 43.3301 8.2 43.3301Z" fill="#AD7153"/>
<g id="Group_5">
<g id="Group_6">
<path id="Vector_2" d="M6.49014 30.9301C4.21014 31.0401 2.39014 32.9101 2.39014 35.2201H6.49014V30.9301Z" fill="#975C45"/>
</g>
</g>
</g>
<g id="Group_7">
<path id="Vector_3" d="M51.5501 43.3301C56.0788 43.3301 59.7501 39.6588 59.7501 35.1301C59.7501 30.6013 56.0788 26.9301 51.5501 26.9301C47.0214 26.9301 43.3501 30.6013 43.3501 35.1301C43.3501 39.6588 47.0214 43.3301 51.5501 43.3301Z" fill="#AD7153"/>
<g id="Group_8">
<path id="Vector_4" d="M57.8901 35.13C57.7801 32.85 55.9101 31.03 53.6001 31.03V35.13H57.8901Z" fill="#975C45"/>
</g>
</g>
</g>
<g id="Group_9">
<path id="Vector_5" d="M29.5098 69.5601C17.4998 69.5601 7.75977 59.8201 7.75977 47.8101V22.4501C7.74977 10.4401 17.4898 0.700073 29.5098 0.700073C41.5198 0.700073 51.2598 10.4401 51.2598 22.4501V47.8001C51.2598 61.2301 41.5198 69.5601 29.5098 69.5601Z" fill="#F6C09C"/>
<path id="Vector_6" d="M11.78 47.8101V9.87012C9.25 13.4201 7.75 17.7601 7.75 22.4601V47.8101C7.75 59.8201 17.49 69.5601 29.5 69.5601C30.18 69.5601 30.85 69.5201 31.52 69.4601C20.45 68.4401 11.78 59.1401 11.78 47.8101Z" fill="#AD7153"/>
</g>
</g>
</g>
<path id="Vector_7" d="M42.3899 53.73H17.3599C17.3599 51.61 19.0699 49.9 21.1899 49.9H38.5499C40.6699 49.9 42.3899 51.61 42.3899 53.73Z" fill="#5B2C2D"/>
</g>
</g>
<defs>
<clipPath id="clip0_215_506">
<rect width="59.75" height="68.86" fill="white" transform="translate(0 0.700073)"/>
</clipPath>
</defs>
</svg>
