<svg width="60" height="60" viewBox="0 0 60 60" fill="none" xmlns="http://www.w3.org/2000/svg">
<g clip-path="url(#clip0_403_425)">
<path d="M37.5102 27.4799C33.8302 24.5099 30.0002 27.1499 30.0002 27.1499C30.0002 27.1499 26.1702 24.5099 22.4902 27.4799C18.8102 30.4499 18.8902 34.2099 11.7002 32.4799C11.7002 32.4799 14.7902 35.3799 19.7102 32.9799C21.7602 31.9799 23.9002 31.1399 26.1402 30.6799C27.6702 30.3699 29.2602 30.3699 30.0002 29.5599C30.7402 30.3699 32.3302 30.3699 33.8602 30.6799C36.1002 31.1399 38.2302 31.9799 40.2902 32.9799C45.2102 35.3899 48.3002 32.4799 48.3002 32.4799C41.1002 34.1999 41.1802 30.4499 37.5102 27.4799Z" fill="#5B2C2D"/>
</g>
<defs>
<clipPath id="clip0_403_425">
<rect width="60" height="60" fill="white"/>
</clipPath>
</defs>
</svg>
