<svg width="60" height="60" viewBox="0 0 60 60" fill="none" xmlns="http://www.w3.org/2000/svg">
<g clip-path="url(#clip0_403_422)">
<path d="M41.0801 23.3C38.6301 20.91 35.9301 20.78 35.5901 20.78H24.8801C22.2701 20.78 20.1101 21.63 18.4601 23.32C14.5301 27.33 15.1901 34.75 15.2201 35.06C15.3201 36.07 16.2701 36.81 17.3501 36.73C18.0801 36.67 18.6801 36.24 18.9601 35.65C21.2801 37.22 25.1801 39.22 30.0001 39.22C33.2801 39.22 36.9901 38.29 40.9101 35.66C40.9901 36.59 41.7901 37.33 42.8101 37.36C42.8301 37.36 42.8401 37.36 42.8601 37.36C43.9201 37.36 44.8001 36.57 44.8201 35.57C44.9701 30.01 43.7101 25.88 41.0801 23.3ZM24.8801 24.46H35.5101C35.7301 24.47 40.4301 24.86 40.8801 33.39C37.7301 35.76 34.7401 36.89 32.0201 37.27V35.53H28.0001V37.3C23.8101 36.78 20.6401 34.68 19.1001 33.45C19.1101 31.25 19.5201 27.68 21.3801 25.8C22.2501 24.89 23.4001 24.46 24.8801 24.46Z" fill="#5B2C2D"/>
</g>
<defs>
<clipPath id="clip0_403_422">
<rect width="60" height="60" fill="white"/>
</clipPath>
</defs>
</svg>
