<svg width="50" height="51" viewBox="0 0 50 51" fill="none" xmlns="http://www.w3.org/2000/svg">
<g clip-path="url(#clip0_403_696)">
<path d="M14.9302 36.09C14.9302 36.09 23.7402 44.54 35.3302 36.09" stroke="#9F644B" stroke-width="2" stroke-miterlimit="10" stroke-linecap="round"/>
<path d="M9.12012 15.0799H18.2701C18.9601 15.0799 19.5201 14.5199 19.5201 13.8299C19.5201 13.5099 19.6301 12.6899 19.4201 12.3099C19.1901 11.8799 18.6301 11.8999 18.2601 11.8999H9.11011C8.83011 11.8999 8.18012 11.9899 7.97012 12.2799C7.67012 12.6999 7.86012 13.4199 7.86012 13.8299C7.87012 14.5199 8.43012 15.0799 9.12012 15.0799Z" fill="#AD7153"/>
<path d="M9.08012 14.0399H18.3101C18.9801 14.0399 19.5201 13.4999 19.5201 12.8299V12.7499C19.5201 12.0799 18.9801 11.5399 18.3101 11.5399H9.08012C8.41012 11.5399 7.87012 12.0799 7.87012 12.7499V12.8299C7.87012 13.4899 8.41012 14.0399 9.08012 14.0399Z" fill="#0B1022"/>
<path d="M31.7603 15.0799H40.9103C41.6003 15.0799 42.1603 14.5199 42.1603 13.8299C42.1603 13.5099 42.2703 12.6899 42.0603 12.3099C41.8303 11.8799 41.2703 11.8999 40.9003 11.8999H31.7503C31.4703 11.8999 30.8203 11.9899 30.6103 12.2799C30.3103 12.6999 30.5003 13.4199 30.5003 13.8299C30.5103 14.5199 31.0703 15.0799 31.7603 15.0799Z" fill="#AD7153"/>
<path d="M31.7203 14.0399H40.9503C41.6203 14.0399 42.1603 13.4999 42.1603 12.8299V12.7499C42.1603 12.0799 41.6203 11.5399 40.9503 11.5399H31.7203C31.0503 11.5399 30.5103 12.0799 30.5103 12.7499V12.8299C30.5103 13.4899 31.0503 14.0399 31.7203 14.0399Z" fill="#0B1022"/>
<path d="M28.48 31.9599C28.48 33.7899 26.61 35.2099 24.55 34.6499C23.26 34.2999 22.4 33.1299 22.43 31.8799C22.43 31.8699 22.43 31.8599 22.43 31.8499C22.44 31.5999 22.78 31.5099 22.92 31.7199C23.46 32.4899 24.39 32.9999 25.45 32.9999C26.8 33.0099 28.48 31.6499 28.48 31.9599Z" fill="#A2674D"/>
<path opacity="0.25" d="M28.0099 27.0499C28.0099 27.0499 28.0099 30.1799 24.6499 30.8799C24.6499 30.8799 26.1099 31.3299 27.3799 30.5799C28.0999 30.1499 28.5099 29.3599 28.4799 28.5199C28.4599 28.0699 28.3499 27.5399 28.0099 27.0499Z" fill="#A2674D"/>
<path d="M17.16 22.0799C18.0878 22.0799 18.84 20.9695 18.84 19.5999C18.84 18.2302 18.0878 17.1199 17.16 17.1199C16.2321 17.1199 15.48 18.2302 15.48 19.5999C15.48 20.9695 16.2321 22.0799 17.16 22.0799Z" fill="#0A1021"/>
<path d="M33.7401 22.0799C34.6679 22.0799 35.4201 20.9695 35.4201 19.5999C35.4201 18.2302 34.6679 17.1199 33.7401 17.1199C32.8122 17.1199 32.0601 18.2302 32.0601 19.5999C32.0601 20.9695 32.8122 22.0799 33.7401 22.0799Z" fill="#0A1021"/>
</g>
<defs>
<clipPath id="clip0_403_696">
<rect width="50" height="50" fill="white" transform="translate(0 0.689941)"/>
</clipPath>
</defs>
</svg>
