<svg width="50" height="51" viewBox="0 0 50 51" fill="none" xmlns="http://www.w3.org/2000/svg">
<g clip-path="url(#clip0_329_467)">
<path d="M28.48 39.49C28.48 39.49 34.07 39.8 35.32 35.14" stroke="#9F644B" stroke-width="2" stroke-miterlimit="10" stroke-linecap="round"/>
<path d="M9.12012 14.13H18.2701C18.9601 14.13 19.5201 13.57 19.5201 12.88C19.5201 12.56 19.6301 11.74 19.4201 11.36C19.1901 10.93 18.6301 10.95 18.2601 10.95H9.11011C8.83011 10.95 8.18012 11.04 7.97012 11.33C7.67012 11.75 7.86012 12.47 7.86012 12.88C7.87012 13.57 8.43012 14.13 9.12012 14.13Z" fill="#AD7153"/>
<path d="M9.08012 13.08H18.3101C18.9801 13.08 19.5201 12.54 19.5201 11.87V11.79C19.5201 11.12 18.9801 10.58 18.3101 10.58H9.08012C8.41012 10.58 7.87012 11.12 7.87012 11.79V11.87C7.87012 12.54 8.41012 13.08 9.08012 13.08Z" fill="#0B1022"/>
<path d="M31.7603 14.13H40.9103C41.6003 14.13 42.1603 13.57 42.1603 12.88C42.1603 12.56 42.2703 11.74 42.0603 11.36C41.8303 10.93 41.2703 10.95 40.9003 10.95H31.7503C31.4703 10.95 30.8203 11.04 30.6103 11.33C30.3103 11.75 30.5003 12.47 30.5003 12.88C30.5103 13.57 31.0703 14.13 31.7603 14.13Z" fill="#AD7153"/>
<path d="M31.7203 13.08H40.9503C41.6203 13.08 42.1603 12.54 42.1603 11.87V11.79C42.1603 11.12 41.6203 10.58 40.9503 10.58H31.7203C31.0503 10.58 30.5103 11.12 30.5103 11.79V11.87C30.5103 12.54 31.0503 13.08 31.7203 13.08Z" fill="#0B1022"/>
<path d="M28.48 31.01C28.48 32.84 26.61 34.26 24.55 33.7C23.26 33.35 22.4 32.18 22.43 30.93C22.43 30.92 22.43 30.91 22.43 30.9C22.44 30.65 22.78 30.56 22.92 30.77C23.46 31.54 24.39 32.05 25.45 32.05C26.8 32.06 28.48 30.7 28.48 31.01Z" fill="#A2674D"/>
<path opacity="0.25" d="M28.0099 26.1C28.0099 26.1 28.0099 29.23 24.6499 29.93C24.6499 29.93 26.1099 30.38 27.3799 29.63C28.0999 29.2 28.5099 28.41 28.4799 27.57C28.4599 27.12 28.3499 26.59 28.0099 26.1Z" fill="#A2674D"/>
<path d="M16.8402 21.13C17.768 21.13 18.5202 20.0197 18.5202 18.65C18.5202 17.2804 17.768 16.17 16.8402 16.17C15.9123 16.17 15.1602 17.2804 15.1602 18.65C15.1602 20.0197 15.9123 21.13 16.8402 21.13Z" fill="#0A1021"/>
<path d="M33.41 21.13C34.3378 21.13 35.09 20.0197 35.09 18.65C35.09 17.2804 34.3378 16.17 33.41 16.17C32.4821 16.17 31.73 17.2804 31.73 18.65C31.73 20.0197 32.4821 21.13 33.41 21.13Z" fill="#0A1021"/>
</g>
<defs>
<clipPath id="clip0_329_467">
<rect width="50" height="50" fill="white" transform="translate(0 0.0400391)"/>
</clipPath>
</defs>
</svg>
