<svg width="50" height="51" viewBox="0 0 50 51" fill="none" xmlns="http://www.w3.org/2000/svg">
<g clip-path="url(#clip0_403_621)">
<path d="M29.6296 38.0599C29.6296 38.0599 26.2696 34.4199 22.3896 38.0599" stroke="#9F644B" stroke-width="2" stroke-miterlimit="10" stroke-linecap="round"/>
<path d="M9.79978 16.8399L18.5598 19.4699C19.2198 19.6699 19.9198 19.2899 20.1198 18.6299C20.2098 18.3199 20.5498 17.5699 20.4698 17.1499C20.3798 16.6699 19.8298 16.5299 19.4798 16.4199L10.7198 13.7899C10.4498 13.7099 9.79978 13.5999 9.51978 13.8299C9.10978 14.1499 9.08978 14.8899 8.96978 15.2799C8.76978 15.9499 9.13978 16.6399 9.79978 16.8399Z" fill="#AD7153"/>
<path d="M10.0698 15.8299L18.9098 18.4899C19.5498 18.6799 20.2298 18.3199 20.4198 17.6799L20.4398 17.5999C20.6298 16.9599 20.2698 16.2799 19.6298 16.0899L10.7898 13.4299C10.1498 13.2399 9.46981 13.5999 9.27981 14.2399L9.25981 14.3199C9.05981 14.9699 9.41981 15.6399 10.0698 15.8299Z" fill="#0B1022"/>
<path d="M31.4899 19.5399L40.2099 16.7699C40.8699 16.5599 41.2299 15.8599 41.0199 15.1999C40.9199 14.8899 40.7799 14.0799 40.4699 13.7799C40.1199 13.4399 39.5899 13.6299 39.2399 13.7399L30.5199 16.5099C30.2499 16.5999 29.6599 16.8699 29.5499 17.2199C29.3899 17.7099 29.7899 18.3399 29.9199 18.7299C30.1299 19.3799 30.8399 19.7399 31.4899 19.5399Z" fill="#AD7153"/>
<path d="M31.1397 18.5499L39.9397 15.7599C40.5797 15.5599 40.9297 14.8799 40.7297 14.2399L40.7097 14.1599C40.5097 13.5199 39.8297 13.1699 39.1897 13.3699L30.3897 16.1599C29.7497 16.3599 29.3997 17.0399 29.5997 17.6799L29.6197 17.7599C29.8197 18.3999 30.4997 18.7599 31.1397 18.5499Z" fill="#0B1022"/>
<path d="M28.6899 27.7699C28.6899 29.5999 26.8199 31.0199 24.7599 30.4599C23.4699 30.1099 22.6099 28.9399 22.6399 27.6899C22.6399 27.6799 22.6399 27.6699 22.6399 27.6599C22.6499 27.4099 22.9899 27.3199 23.1299 27.5299C23.6699 28.2999 24.5999 28.8099 25.6599 28.8099C27.0099 28.8199 28.6899 27.4599 28.6899 27.7699Z" fill="#A2674D"/>
<path opacity="0.25" d="M28.2199 22.8599C28.2199 22.8599 28.2199 25.9899 24.8599 26.6899C24.8599 26.6899 26.3199 27.1399 27.5899 26.3899C28.3099 25.9599 28.7199 25.1699 28.6899 24.3299C28.6699 23.8799 28.5599 23.3499 28.2199 22.8599Z" fill="#A2674D"/>
<path d="M17.0496 20.91C17.9775 20.91 18.7296 19.7996 18.7296 18.43C18.7296 17.0603 17.9775 15.95 17.0496 15.95C16.1218 15.95 15.3696 17.0603 15.3696 18.43C15.3696 19.7996 16.1218 20.91 17.0496 20.91Z" fill="#0A1021"/>
<path d="M33.6195 20.91C34.5473 20.91 35.2995 19.7996 35.2995 18.43C35.2995 17.0603 34.5473 15.95 33.6195 15.95C32.6916 15.95 31.9395 17.0603 31.9395 18.43C31.9395 19.7996 32.6916 20.91 33.6195 20.91Z" fill="#0A1021"/>
<path d="M23.6798 14.4899C23.6798 14.4899 24.9698 17.3899 23.0898 18.3399C23.0898 18.3499 23.4798 15.8699 23.6798 14.4899Z" fill="#A2674D"/>
<path d="M26.7398 14.4899C26.7398 14.4899 25.4498 17.3899 27.3298 18.3399C27.3298 18.3499 26.9298 15.8699 26.7398 14.4899Z" fill="#A2674D"/>
</g>
<defs>
<clipPath id="clip0_403_621">
<rect width="50" height="50" fill="white" transform="translate(0 0.689941)"/>
</clipPath>
</defs>
</svg>
