<svg width="39" height="33" viewBox="0 0 39 33" fill="none" xmlns="http://www.w3.org/2000/svg">
<g clip-path="url(#clip0_225_3827)">
<path d="M31.6501 11.6449C31.3701 11.6449 31.1501 11.4149 31.1501 11.1349C31.1501 10.9349 31.07 9.92493 29.6 9.92493C28.11 9.92493 27.96 10.9649 27.95 11.1749C27.93 11.4449 27.68 11.6549 27.42 11.6449C27.15 11.6249 26.94 11.3949 26.95 11.1249C26.98 10.3649 27.58 8.92493 29.6 8.92493C30.42 8.92493 31.06 9.15493 31.52 9.61493C32.15 10.2449 32.1601 11.0549 32.1501 11.1449C32.1501 11.4249 31.9201 11.6449 31.6501 11.6449Z" fill="#0A1021"/>
<path d="M11.7101 11.6449C11.4301 11.6449 11.2101 11.4149 11.2101 11.1349C11.2101 10.9349 11.1301 9.92493 9.66011 9.92493C8.17011 9.92493 8.02011 10.9649 8.01011 11.1749C7.99011 11.4449 7.74011 11.6549 7.48011 11.6449C7.21011 11.6249 7.00011 11.3949 7.01011 11.1249C7.04011 10.3649 7.64011 8.92493 9.66011 8.92493C10.4801 8.92493 11.1201 9.15493 11.5801 9.61493C12.2101 10.2449 12.2201 11.0549 12.2101 11.1449C12.2101 11.4249 11.9801 11.6449 11.7101 11.6449Z" fill="#0A1021"/>
<path d="M8.37012 27.6949C8.37012 27.6949 17.9501 36.8849 30.5701 27.6949" stroke="#9F644B" stroke-width="2" stroke-miterlimit="10" stroke-linecap="round"/>
<path d="M2.04988 4.82493H12.0099C12.7599 4.82493 13.3699 4.21493 13.3699 3.46493C13.3699 3.11493 13.4799 2.22493 13.2699 1.81493C13.0199 1.34493 12.4099 1.36493 12.0099 1.36493H2.04988C1.73988 1.36493 1.02988 1.45493 0.809879 1.77493C0.479879 2.23493 0.689879 3.01493 0.689879 3.46493C0.689879 4.21493 1.29988 4.82493 2.04988 4.82493Z" fill="#AD7153"/>
<path d="M2.04994 3.68494H12.0099C12.7599 3.68494 13.3699 3.07494 13.3699 2.32494C13.3699 1.57494 12.7599 0.964935 12.0099 0.964935H2.04994C1.29994 0.964935 0.689941 1.57494 0.689941 2.32494C0.689941 3.07494 1.29994 3.68494 2.04994 3.68494Z" fill="#0B1022"/>
<path d="M26.69 4.82493H36.65C37.4 4.82493 38.01 4.21493 38.01 3.46493C38.01 3.11493 38.12 2.22493 37.91 1.81493C37.66 1.34493 37.05 1.36493 36.65 1.36493H26.69C26.38 1.36493 25.67 1.45493 25.45 1.77493C25.12 2.23493 25.33 3.01493 25.33 3.46493C25.33 4.21493 25.94 4.82493 26.69 4.82493Z" fill="#AD7153"/>
<path d="M26.6901 3.68494H36.6501C37.4001 3.68494 38.0101 3.07494 38.0101 2.32494C38.0101 1.57494 37.4001 0.964935 36.6501 0.964935H26.6901C25.9401 0.964935 25.3301 1.57494 25.3301 2.32494C25.3301 3.07494 25.9401 3.68494 26.6901 3.68494Z" fill="#0B1022"/>
<path d="M23.1198 23.1949C23.1198 25.1849 21.0898 26.7349 18.8398 26.1249C17.4398 25.7449 16.4998 24.4649 16.5398 23.1049C16.5398 23.0949 16.5398 23.0849 16.5398 23.0749C16.5498 22.8049 16.9198 22.7049 17.0698 22.9349C17.6598 23.7749 18.6698 24.3249 19.8198 24.3249C21.2798 24.3349 23.1198 22.8549 23.1198 23.1949Z" fill="#A2674D"/>
<path opacity="0.25" d="M22.6097 17.8549C22.6097 17.8549 22.6097 21.2549 18.9497 22.0249C18.9497 22.0249 20.5397 22.5149 21.9197 21.6949C22.7097 21.2249 23.1497 20.3749 23.1197 19.4549C23.0997 18.9549 22.9697 18.3849 22.6097 17.8549Z" fill="#A2674D"/>
</g>
<defs>
<clipPath id="clip0_225_3827">
<rect width="37.42" height="31.81" fill="white" transform="translate(0.620117 0.964935)"/>
</clipPath>
</defs>
</svg>
