<svg width="50" height="51" viewBox="0 0 50 51" fill="none" xmlns="http://www.w3.org/2000/svg">
<g clip-path="url(#clip0_403_662)">
<path d="M36.3199 18.42C36.0599 18.42 35.8599 18.21 35.8599 17.96C35.8599 17.78 35.7799 16.84 34.4299 16.84C33.0599 16.84 32.9299 17.79 32.9099 17.99C32.8899 18.24 32.6699 18.43 32.4299 18.42C32.1799 18.41 31.9799 18.19 31.9999 17.94C32.0299 17.24 32.5799 15.92 34.4299 15.92C35.1799 15.92 35.7699 16.13 36.1899 16.56C36.7699 17.14 36.7699 17.88 36.7699 17.97C36.7799 18.22 36.5699 18.42 36.3199 18.42Z" fill="#0A1021"/>
<path d="M18.0001 18.42C17.7401 18.42 17.5401 18.21 17.5401 17.96C17.5401 17.78 17.4601 16.84 16.1101 16.84C14.7401 16.84 14.6101 17.79 14.5901 17.99C14.5701 18.24 14.3501 18.43 14.1101 18.42C13.8601 18.41 13.6601 18.19 13.6801 17.94C13.7101 17.24 14.2601 15.92 16.1101 15.92C16.8601 15.92 17.4501 16.13 17.8701 16.56C18.4501 17.14 18.4501 17.88 18.4501 17.97C18.4601 18.22 18.2501 18.42 18.0001 18.42Z" fill="#0A1021"/>
<path d="M9.11988 13.07H18.2699C18.9599 13.07 19.5199 12.51 19.5199 11.82C19.5199 11.5 19.6299 10.68 19.4199 10.3C19.1999 9.87004 18.6399 9.89004 18.2699 9.89004H9.11988C8.83988 9.89004 8.18988 9.98004 7.97988 10.27C7.67988 10.69 7.86988 11.41 7.86988 11.82C7.86988 12.51 8.42988 13.07 9.11988 13.07Z" fill="#AD7153"/>
<path d="M9.3799 12.28L18.4599 10.64C19.1199 10.52 19.5599 9.88999 19.4399 9.22999L19.4299 9.14999C19.3099 8.48999 18.6799 8.04999 18.0199 8.16999L8.9299 9.81999C8.2699 9.93999 7.8299 10.57 7.9499 11.23L7.9599 11.31C8.0899 11.96 8.7199 12.4 9.3799 12.28Z" fill="#0B1022"/>
<path d="M31.7598 13.07H40.9098C41.5998 13.07 42.1598 12.51 42.1598 11.82C42.1598 11.5 42.2698 10.68 42.0598 10.3C41.8298 9.87004 41.2698 9.89004 40.8998 9.89004H31.7498C31.4698 9.89004 30.8198 9.98004 30.6098 10.27C30.3098 10.69 30.4998 11.41 30.4998 11.82C30.5098 12.51 31.0698 13.07 31.7598 13.07Z" fill="#AD7153"/>
<path d="M31.5999 10.87L40.7499 12.06C41.4099 12.15 42.0199 11.68 42.1099 11.02L42.1199 10.94C42.2099 10.28 41.7399 9.66996 41.0799 9.57996L31.9199 8.38995C31.2599 8.29995 30.6499 8.76995 30.5599 9.42995L30.5499 9.50995C30.4699 10.18 30.9399 10.79 31.5999 10.87Z" fill="#0B1022"/>
<path d="M28.48 29.04C28.48 30.87 26.61 32.29 24.55 31.73C23.26 31.38 22.4 30.21 22.43 28.96C22.43 28.95 22.43 28.94 22.43 28.93C22.44 28.68 22.78 28.59 22.92 28.8C23.46 29.57 24.39 30.08 25.45 30.08C26.8 30.08 28.48 28.72 28.48 29.04Z" fill="#A2674D"/>
<path opacity="0.25" d="M28.0099 24.13C28.0099 24.13 28.0099 27.26 24.6499 27.96C24.6499 27.96 26.1099 28.41 27.3799 27.66C28.0999 27.23 28.5099 26.44 28.4799 25.6C28.4599 25.14 28.3499 24.61 28.0099 24.13Z" fill="#A2674D"/>
<path d="M33.9999 34.79C34.8499 34.79 35.4499 35.64 35.1599 36.44C34.7599 37.55 34.0399 39.04 32.8199 40.34C31.3499 41.92 29.1399 43.22 25.8499 43.22C22.5299 43.22 20.3399 42.07 18.8799 40.62C17.4799 39.23 16.7599 37.55 16.4099 36.36C16.1799 35.58 16.7799 34.8 17.5899 34.8H33.9999V34.79Z" fill="#150707"/>
<path d="M32.8199 40.34C31.3499 41.92 29.1399 43.22 25.8499 43.22C22.5299 43.22 20.3399 42.07 18.8799 40.62C20.3599 39.04 22.5699 37.74 25.8499 37.74C29.1699 37.74 31.3699 38.89 32.8199 40.34Z" fill="#4B0501"/>
<path d="M12.7199 22.78C13.8521 22.78 14.7699 22.0457 14.7699 21.14C14.7699 20.2343 13.8521 19.5 12.7199 19.5C11.5877 19.5 10.6699 20.2343 10.6699 21.14C10.6699 22.0457 11.5877 22.78 12.7199 22.78Z" fill="#B47759"/>
<path d="M38.1799 22.78C39.3121 22.78 40.2299 22.0457 40.2299 21.14C40.2299 20.2343 39.3121 19.5 38.1799 19.5C37.0477 19.5 36.1299 20.2343 36.1299 21.14C36.1299 22.0457 37.0477 22.78 38.1799 22.78Z" fill="#B47759"/>
</g>
<defs>
<clipPath id="clip0_403_662">
<rect width="50" height="50" fill="white" transform="translate(0 0.689941)"/>
</clipPath>
</defs>
</svg>
