<svg width="38" height="34" viewBox="0 0 38 34" fill="none" xmlns="http://www.w3.org/2000/svg">
<g clip-path="url(#clip0_225_3855)">
<path d="M22.96 32.1049C22.96 32.1049 29.04 32.4449 30.4 27.3649" stroke="#9F644B" stroke-width="2" stroke-miterlimit="10" stroke-linecap="round"/>
<path d="M1.88972 4.49491H11.8497C12.5997 4.49491 13.2097 3.88491 13.2097 3.13491C13.2097 2.78491 13.3197 1.89491 13.1097 1.48491C12.8597 1.01491 12.2497 1.03491 11.8497 1.03491H1.88972C1.57972 1.03491 0.869723 1.12491 0.649723 1.44491C0.319723 1.90491 0.529723 2.68491 0.529723 3.13491C0.529723 3.88491 1.13972 4.49491 1.88972 4.49491Z" fill="#AD7153"/>
<path d="M1.88979 3.35492H11.8498C12.5998 3.35492 13.2098 2.74492 13.2098 1.99492C13.2098 1.24492 12.5998 0.634918 11.8498 0.634918H1.88979C1.13979 0.634918 0.529785 1.24492 0.529785 1.99492C0.529785 2.74492 1.13979 3.35492 1.88979 3.35492Z" fill="#0B1022"/>
<path d="M26.5299 4.49491H36.4899C37.2399 4.49491 37.8499 3.88491 37.8499 3.13491C37.8499 2.78491 37.9599 1.89491 37.7499 1.48491C37.4999 1.01491 36.8899 1.03491 36.4899 1.03491H26.5299C26.2199 1.03491 25.5099 1.12491 25.2899 1.44491C24.9599 1.90491 25.1699 2.68491 25.1699 3.13491C25.1699 3.88491 25.7799 4.49491 26.5299 4.49491Z" fill="#AD7153"/>
<path d="M26.5299 3.35492H36.4899C37.2399 3.35492 37.8499 2.74492 37.8499 1.99492C37.8499 1.24492 37.2399 0.634918 36.4899 0.634918H26.5299C25.7799 0.634918 25.1699 1.24492 25.1699 1.99492C25.1699 2.74492 25.7799 3.35492 26.5299 3.35492Z" fill="#0B1022"/>
<path d="M22.9596 22.8649C22.9596 24.8549 20.9296 26.4049 18.6796 25.7949C17.2796 25.4149 16.3396 24.1349 16.3796 22.7749C16.3796 22.7649 16.3796 22.7549 16.3796 22.7449C16.3896 22.4749 16.7596 22.3749 16.9096 22.6049C17.4996 23.4449 18.5096 23.9949 19.6596 23.9949C21.1196 24.0049 22.9596 22.5249 22.9596 22.8649Z" fill="#A2674D"/>
<path opacity="0.25" d="M22.4496 17.5249C22.4496 17.5249 22.4496 20.9249 18.7896 21.6949C18.7896 21.6949 20.3796 22.1849 21.7596 21.3649C22.5496 20.8949 22.9896 20.0449 22.9596 19.1249C22.9396 18.6249 22.8096 18.0549 22.4496 17.5249Z" fill="#A2674D"/>
<path d="M10.2797 12.1149C11.2904 12.1149 12.1097 10.9061 12.1097 9.4149C12.1097 7.92374 11.2904 6.7149 10.2797 6.7149C9.26903 6.7149 8.44971 7.92374 8.44971 9.4149C8.44971 10.9061 9.26903 12.1149 10.2797 12.1149Z" fill="#0A1021"/>
<path d="M28.3295 12.1149C29.3402 12.1149 30.1595 10.9061 30.1595 9.4149C30.1595 7.92374 29.3402 6.7149 28.3295 6.7149C27.3188 6.7149 26.4995 7.92374 26.4995 9.4149C26.4995 10.9061 27.3188 12.1149 28.3295 12.1149Z" fill="#0A1021"/>
</g>
<defs>
<clipPath id="clip0_225_3855">
<rect width="37.42" height="32.47" fill="white" transform="translate(0.459961 0.634918)"/>
</clipPath>
</defs>
</svg>
