<svg width="50" height="51" viewBox="0 0 50 51" fill="none" xmlns="http://www.w3.org/2000/svg">
<g clip-path="url(#clip0_329_500)">
<path d="M29.6296 37.41C29.6296 37.41 26.2696 33.77 22.3896 37.41" stroke="#9F644B" stroke-width="2" stroke-miterlimit="10" stroke-linecap="round"/>
<path d="M9.79978 16.19L18.5598 18.82C19.2198 19.02 19.9198 18.64 20.1198 17.98C20.2098 17.67 20.5498 16.92 20.4698 16.5C20.3798 16.02 19.8298 15.88 19.4798 15.77L10.7198 13.14C10.4498 13.06 9.79978 12.95 9.51978 13.18C9.10978 13.5 9.08978 14.24 8.96978 14.63C8.76978 15.3 9.13978 15.99 9.79978 16.19Z" fill="#AD7153"/>
<path d="M10.0698 15.18L18.9098 17.84C19.5498 18.03 20.2298 17.67 20.4198 17.03L20.4398 16.95C20.6298 16.31 20.2698 15.63 19.6298 15.44L10.7898 12.78C10.1498 12.59 9.46981 12.95 9.27981 13.59L9.25981 13.67C9.05981 14.32 9.41981 14.99 10.0698 15.18Z" fill="#0B1022"/>
<path d="M31.4899 18.89L40.2099 16.12C40.8699 15.91 41.2299 15.21 41.0199 14.55C40.9199 14.24 40.7799 13.43 40.4699 13.13C40.1199 12.79 39.5899 12.98 39.2399 13.09L30.5199 15.86C30.2499 15.95 29.6599 16.22 29.5499 16.57C29.3899 17.06 29.7899 17.69 29.9199 18.08C30.1299 18.73 30.8399 19.09 31.4899 18.89Z" fill="#AD7153"/>
<path d="M31.1397 17.9L39.9397 15.11C40.5797 14.91 40.9297 14.23 40.7297 13.59L40.7097 13.51C40.5097 12.87 39.8297 12.52 39.1897 12.72L30.3897 15.51C29.7497 15.71 29.3997 16.39 29.5997 17.03L29.6197 17.11C29.8197 17.75 30.4997 18.11 31.1397 17.9Z" fill="#0B1022"/>
<path d="M28.6899 27.12C28.6899 28.95 26.8199 30.37 24.7599 29.81C23.4699 29.46 22.6099 28.29 22.6399 27.04C22.6399 27.03 22.6399 27.02 22.6399 27.01C22.6499 26.76 22.9899 26.67 23.1299 26.88C23.6699 27.65 24.5999 28.16 25.6599 28.16C27.0099 28.17 28.6899 26.81 28.6899 27.12Z" fill="#A2674D"/>
<path opacity="0.25" d="M28.2199 22.21C28.2199 22.21 28.2199 25.34 24.8599 26.04C24.8599 26.04 26.3199 26.49 27.5899 25.74C28.3099 25.31 28.7199 24.52 28.6899 23.68C28.6699 23.23 28.5599 22.7 28.2199 22.21Z" fill="#A2674D"/>
<path d="M17.0496 20.26C17.9775 20.26 18.7296 19.1497 18.7296 17.78C18.7296 16.4104 17.9775 15.3 17.0496 15.3C16.1218 15.3 15.3696 16.4104 15.3696 17.78C15.3696 19.1497 16.1218 20.26 17.0496 20.26Z" fill="#0A1021"/>
<path d="M33.6195 20.26C34.5473 20.26 35.2995 19.1497 35.2995 17.78C35.2995 16.4104 34.5473 15.3 33.6195 15.3C32.6916 15.3 31.9395 16.4104 31.9395 17.78C31.9395 19.1497 32.6916 20.26 33.6195 20.26Z" fill="#0A1021"/>
<path d="M23.6798 13.84C23.6798 13.84 24.9698 16.74 23.0898 17.69C23.0898 17.7 23.4798 15.22 23.6798 13.84Z" fill="#A2674D"/>
<path d="M26.7398 13.84C26.7398 13.84 25.4498 16.74 27.3298 17.69C27.3298 17.7 26.9298 15.22 26.7398 13.84Z" fill="#A2674D"/>
</g>
<defs>
<clipPath id="clip0_329_500">
<rect width="50" height="50" fill="white" transform="translate(0 0.0400391)"/>
</clipPath>
</defs>
</svg>
