<svg width="38" height="34" viewBox="0 0 38 34" fill="none" xmlns="http://www.w3.org/2000/svg">
<g clip-path="url(#clip0_225_3841)">
<path d="M31.07 11.3149C30.79 11.3149 30.57 11.0849 30.57 10.8049C30.57 10.6049 30.49 9.59491 29.02 9.59491C27.53 9.59491 27.38 10.6349 27.37 10.8449C27.35 11.1149 27.1 11.3249 26.84 11.3149C26.57 11.2949 26.36 11.0649 26.37 10.7949C26.4 10.0349 27 8.59491 29.02 8.59491C29.84 8.59491 30.48 8.82491 30.94 9.28491C31.57 9.91491 31.58 10.7249 31.57 10.8149C31.57 11.0949 31.34 11.3149 31.07 11.3149Z" fill="#0A1021"/>
<path d="M11.13 11.3149C10.85 11.3149 10.63 11.0849 10.63 10.8049C10.63 10.6049 10.55 9.59491 9.08003 9.59491C7.59003 9.59491 7.44003 10.6349 7.43003 10.8449C7.41003 11.1149 7.16003 11.3249 6.90003 11.3149C6.63003 11.2949 6.42003 11.0649 6.43003 10.7949C6.46003 10.0349 7.06003 8.59491 9.08003 8.59491C9.90003 8.59491 10.54 8.82491 11 9.28491C11.63 9.91491 11.64 10.7249 11.63 10.8149C11.63 11.0949 11.4 11.3149 11.13 11.3149Z" fill="#0A1021"/>
<path d="M22.54 32.1049C22.54 32.1049 28.62 32.4449 29.98 27.3649" stroke="#9F644B" stroke-width="2" stroke-miterlimit="10" stroke-linecap="round"/>
<path d="M1.4698 4.49491H11.4298C12.1798 4.49491 12.7898 3.88491 12.7898 3.13491C12.7898 2.78491 12.8998 1.89491 12.6898 1.48491C12.4398 1.01491 11.8298 1.03491 11.4298 1.03491H1.4698C1.1598 1.03491 0.449801 1.12491 0.229801 1.44491C-0.100199 1.90491 0.109801 2.68491 0.109801 3.13491C0.109801 3.88491 0.719801 4.49491 1.4698 4.49491Z" fill="#AD7153"/>
<path d="M1.46986 3.35492H11.4299C12.1799 3.35492 12.7899 2.74492 12.7899 1.99492C12.7899 1.24492 12.1799 0.634918 11.4299 0.634918H1.46986C0.719863 0.634918 0.109863 1.24492 0.109863 1.99492C0.109863 2.74492 0.719863 3.35492 1.46986 3.35492Z" fill="#0B1022"/>
<path d="M26.1099 4.49491H36.0699C36.8199 4.49491 37.4299 3.88491 37.4299 3.13491C37.4299 2.78491 37.5399 1.89491 37.3299 1.48491C37.0799 1.01491 36.4699 1.03491 36.0699 1.03491H26.1099C25.7999 1.03491 25.0899 1.12491 24.8699 1.44491C24.5399 1.90491 24.7499 2.68491 24.7499 3.13491C24.7499 3.88491 25.3599 4.49491 26.1099 4.49491Z" fill="#AD7153"/>
<path d="M26.11 3.35492H36.07C36.82 3.35492 37.43 2.74492 37.43 1.99492C37.43 1.24492 36.82 0.634918 36.07 0.634918H26.11C25.36 0.634918 24.75 1.24492 24.75 1.99492C24.75 2.74492 25.36 3.35492 26.11 3.35492Z" fill="#0B1022"/>
<path d="M22.5397 22.8649C22.5397 24.8549 20.5097 26.4049 18.2597 25.7949C16.8597 25.4149 15.9197 24.1349 15.9597 22.7749C15.9597 22.7649 15.9597 22.7549 15.9597 22.7449C15.9697 22.4749 16.3397 22.3749 16.4897 22.6049C17.0797 23.4449 18.0897 23.9949 19.2397 23.9949C20.6997 24.0049 22.5397 22.5249 22.5397 22.8649Z" fill="#A2674D"/>
<path opacity="0.25" d="M22.0296 17.5249C22.0296 17.5249 22.0296 20.9249 18.3696 21.6949C18.3696 21.6949 19.9596 22.1849 21.3396 21.3649C22.1296 20.8949 22.5696 20.0449 22.5396 19.1249C22.5196 18.6249 22.3896 18.0549 22.0296 17.5249Z" fill="#A2674D"/>
</g>
<defs>
<clipPath id="clip0_225_3841">
<rect width="37.42" height="32.47" fill="white" transform="translate(0.0400391 0.634918)"/>
</clipPath>
</defs>
</svg>
