<svg width="50" height="51" viewBox="0 0 50 51" fill="none" xmlns="http://www.w3.org/2000/svg">
<g clip-path="url(#clip0_403_681)">
<path d="M36.3199 21.35C36.0599 21.35 35.8599 21.14 35.8599 20.89C35.8599 20.71 35.7799 19.77 34.4299 19.77C33.0599 19.77 32.9299 20.72 32.9099 20.92C32.8899 21.17 32.6699 21.36 32.4299 21.35C32.1799 21.34 31.9799 21.12 31.9999 20.87C32.0299 20.17 32.5799 18.85 34.4299 18.85C35.1799 18.85 35.7699 19.06 36.1899 19.49C36.7699 20.07 36.7699 20.81 36.7699 20.9C36.7799 21.15 36.5699 21.35 36.3199 21.35Z" fill="#0A1021"/>
<path d="M18.0001 21.35C17.7401 21.35 17.5401 21.14 17.5401 20.89C17.5401 20.71 17.4601 19.77 16.1101 19.77C14.7401 19.77 14.6101 20.72 14.5901 20.92C14.5701 21.17 14.3501 21.36 14.1101 21.35C13.8601 21.34 13.6601 21.12 13.6801 20.87C13.7101 20.17 14.2601 18.85 16.1101 18.85C16.8601 18.85 17.4501 19.06 17.8701 19.49C18.4501 20.07 18.4501 20.81 18.4501 20.9C18.4601 21.15 18.2501 21.35 18.0001 21.35Z" fill="#0A1021"/>
<path d="M14.9302 36.09C14.9302 36.09 23.7402 44.54 35.3302 36.09" stroke="#9F644B" stroke-width="2" stroke-miterlimit="10" stroke-linecap="round"/>
<path d="M9.12012 15.0799H18.2701C18.9601 15.0799 19.5201 14.5199 19.5201 13.8299C19.5201 13.5099 19.6301 12.6899 19.4201 12.3099C19.1901 11.8799 18.6301 11.8999 18.2601 11.8999H9.11011C8.83011 11.8999 8.18012 11.9899 7.97012 12.2799C7.67012 12.6999 7.86012 13.4199 7.86012 13.8299C7.87012 14.5199 8.43012 15.0799 9.12012 15.0799Z" fill="#AD7153"/>
<path d="M9.08012 14.0399H18.3101C18.9801 14.0399 19.5201 13.4999 19.5201 12.8299V12.7499C19.5201 12.0799 18.9801 11.5399 18.3101 11.5399H9.08012C8.41012 11.5399 7.87012 12.0799 7.87012 12.7499V12.8299C7.87012 13.4899 8.41012 14.0399 9.08012 14.0399Z" fill="#0B1022"/>
<path d="M31.7603 15.0799H40.9103C41.6003 15.0799 42.1603 14.5199 42.1603 13.8299C42.1603 13.5099 42.2703 12.6899 42.0603 12.3099C41.8303 11.8799 41.2703 11.8999 40.9003 11.8999H31.7503C31.4703 11.8999 30.8203 11.9899 30.6103 12.2799C30.3103 12.6999 30.5003 13.4199 30.5003 13.8299C30.5103 14.5199 31.0703 15.0799 31.7603 15.0799Z" fill="#AD7153"/>
<path d="M31.7203 14.0399H40.9503C41.6203 14.0399 42.1603 13.4999 42.1603 12.8299V12.7499C42.1603 12.0799 41.6203 11.5399 40.9503 11.5399H31.7203C31.0503 11.5399 30.5103 12.0799 30.5103 12.7499V12.8299C30.5103 13.4899 31.0503 14.0399 31.7203 14.0399Z" fill="#0B1022"/>
<path d="M28.48 31.9599C28.48 33.7899 26.61 35.2099 24.55 34.6499C23.26 34.2999 22.4 33.1299 22.43 31.8799C22.43 31.8699 22.43 31.8599 22.43 31.8499C22.44 31.5999 22.78 31.5099 22.92 31.7199C23.46 32.4899 24.39 32.9999 25.45 32.9999C26.8 33.0099 28.48 31.6499 28.48 31.9599Z" fill="#A2674D"/>
<path opacity="0.25" d="M28.0099 27.0499C28.0099 27.0499 28.0099 30.1799 24.6499 30.8799C24.6499 30.8799 26.1099 31.3299 27.3799 30.5799C28.0999 30.1499 28.5099 29.3599 28.4799 28.5199C28.4599 28.0699 28.3499 27.5399 28.0099 27.0499Z" fill="#A2674D"/>
</g>
<defs>
<clipPath id="clip0_403_681">
<rect width="50" height="50" fill="white" transform="translate(0 0.689941)"/>
</clipPath>
</defs>
</svg>
