<svg width="50" height="51" viewBox="0 0 50 51" fill="none" xmlns="http://www.w3.org/2000/svg">
<g clip-path="url(#clip0_329_532)">
<path d="M36.3199 20.7C36.0599 20.7 35.8599 20.49 35.8599 20.24C35.8599 20.06 35.7799 19.12 34.4299 19.12C33.0599 19.12 32.9299 20.07 32.9099 20.27C32.8899 20.52 32.6699 20.71 32.4299 20.7C32.1799 20.69 31.9799 20.47 31.9999 20.22C32.0299 19.52 32.5799 18.2 34.4299 18.2C35.1799 18.2 35.7699 18.41 36.1899 18.84C36.7699 19.42 36.7699 20.16 36.7699 20.25C36.7799 20.5 36.5699 20.7 36.3199 20.7Z" fill="#0A1021"/>
<path d="M18.0001 20.7C17.7401 20.7 17.5401 20.49 17.5401 20.24C17.5401 20.06 17.4601 19.12 16.1101 19.12C14.7401 19.12 14.6101 20.07 14.5901 20.27C14.5701 20.52 14.3501 20.71 14.1101 20.7C13.8601 20.69 13.6601 20.47 13.6801 20.22C13.7101 19.52 14.2601 18.2 16.1101 18.2C16.8601 18.2 17.4501 18.41 17.8701 18.84C18.4501 19.42 18.4501 20.16 18.4501 20.25C18.4601 20.5 18.2501 20.7 18.0001 20.7Z" fill="#0A1021"/>
<path d="M14.9302 35.44C14.9302 35.44 23.7402 43.89 35.3302 35.44" stroke="#9F644B" stroke-width="2" stroke-miterlimit="10" stroke-linecap="round"/>
<path d="M9.12012 14.43H18.2701C18.9601 14.43 19.5201 13.87 19.5201 13.18C19.5201 12.86 19.6301 12.04 19.4201 11.66C19.1901 11.23 18.6301 11.25 18.2601 11.25H9.11011C8.83011 11.25 8.18012 11.34 7.97012 11.63C7.67012 12.05 7.86012 12.77 7.86012 13.18C7.87012 13.87 8.43012 14.43 9.12012 14.43Z" fill="#AD7153"/>
<path d="M9.08012 13.39H18.3101C18.9801 13.39 19.5201 12.85 19.5201 12.18V12.1C19.5201 11.43 18.9801 10.89 18.3101 10.89H9.08012C8.41012 10.89 7.87012 11.43 7.87012 12.1V12.18C7.87012 12.84 8.41012 13.39 9.08012 13.39Z" fill="#0B1022"/>
<path d="M31.7603 14.43H40.9103C41.6003 14.43 42.1603 13.87 42.1603 13.18C42.1603 12.86 42.2703 12.04 42.0603 11.66C41.8303 11.23 41.2703 11.25 40.9003 11.25H31.7503C31.4703 11.25 30.8203 11.34 30.6103 11.63C30.3103 12.05 30.5003 12.77 30.5003 13.18C30.5103 13.87 31.0703 14.43 31.7603 14.43Z" fill="#AD7153"/>
<path d="M31.7203 13.39H40.9503C41.6203 13.39 42.1603 12.85 42.1603 12.18V12.1C42.1603 11.43 41.6203 10.89 40.9503 10.89H31.7203C31.0503 10.89 30.5103 11.43 30.5103 12.1V12.18C30.5103 12.84 31.0503 13.39 31.7203 13.39Z" fill="#0B1022"/>
<path d="M28.48 31.31C28.48 33.14 26.61 34.56 24.55 34C23.26 33.65 22.4 32.48 22.43 31.23C22.43 31.22 22.43 31.21 22.43 31.2C22.44 30.95 22.78 30.86 22.92 31.07C23.46 31.84 24.39 32.35 25.45 32.35C26.8 32.36 28.48 31 28.48 31.31Z" fill="#A2674D"/>
<path opacity="0.25" d="M28.0099 26.4C28.0099 26.4 28.0099 29.53 24.6499 30.23C24.6499 30.23 26.1099 30.68 27.3799 29.93C28.0999 29.5 28.5099 28.71 28.4799 27.87C28.4599 27.42 28.3499 26.89 28.0099 26.4Z" fill="#A2674D"/>
</g>
<defs>
<clipPath id="clip0_329_532">
<rect width="50" height="50" fill="white" transform="translate(0 0.0400391)"/>
</clipPath>
</defs>
</svg>
