<svg width="50" height="51" viewBox="0 0 50 51" fill="none" xmlns="http://www.w3.org/2000/svg">
<g clip-path="url(#clip0_329_418)">
<path d="M16.3602 22.1101C17.288 22.1101 18.0402 20.9997 18.0402 19.6301C18.0402 18.2604 17.288 17.1501 16.3602 17.1501C15.4323 17.1501 14.6802 18.2604 14.6802 19.6301C14.6802 20.9997 15.4323 22.1101 16.3602 22.1101Z" fill="#0A1021"/>
<path d="M31.9199 20.9201C31.9199 20.9201 31.9799 19.6301 33.5299 19.6301C35.0799 19.6301 35.0699 20.9201 35.0699 20.9201" stroke="#0A1021" stroke-miterlimit="10" stroke-linecap="round"/>
<path d="M14.6802 37.1201C14.6802 37.1201 23.4902 45.5701 35.0802 37.1201" stroke="#B47759" stroke-width="2" stroke-miterlimit="10" stroke-linecap="round"/>
<path d="M12.4901 25.39C13.3958 25.39 14.1301 24.6558 14.1301 23.75C14.1301 22.8443 13.3958 22.11 12.4901 22.11C11.5844 22.11 10.8501 22.8443 10.8501 23.75C10.8501 24.6558 11.5844 25.39 12.4901 25.39Z" fill="#B47759"/>
<path d="M27.2098 30.94C27.2098 32.45 25.7698 33.6301 24.1798 33.1701C23.1898 32.8801 22.5198 31.91 22.5498 30.88C22.5498 30.87 22.5498 30.87 22.5498 30.86C22.5598 30.66 22.8198 30.58 22.9298 30.75C23.3498 31.39 24.0598 31.81 24.8798 31.81C25.9098 31.81 27.2098 30.68 27.2098 30.94Z" fill="#A2674D"/>
<path d="M8.96996 12.7501H18.12C18.81 12.7501 19.37 12.1901 19.37 11.5001C19.37 11.1801 19.48 10.3601 19.27 9.98006C19.04 9.55006 18.48 9.57006 18.11 9.57006L8.95996 10.2501C8.26996 10.2501 7.70996 10.8101 7.70996 11.5001C7.71996 12.1901 8.27996 12.7501 8.96996 12.7501Z" fill="#AD7153"/>
<path d="M31.8399 17.64H41.0699C41.7399 17.64 42.2799 17.1 42.2799 16.43V16.35C42.2799 15.68 41.7399 15.14 41.0699 15.14H31.8399C31.1699 15.14 30.6299 15.68 30.6299 16.35V16.43C30.6299 17.1 31.1699 17.64 31.8399 17.64Z" fill="#0B1022"/>
<path d="M8.92973 11.7101H18.1597C18.8297 11.7101 19.3697 11.1701 19.3697 10.5001V10.4201C19.3697 9.75005 18.8297 9.21005 18.1597 9.21005H8.92973C8.25973 9.21005 7.71973 9.75005 7.71973 10.4201V10.5001C7.71973 11.1601 8.25973 11.7101 8.92973 11.7101Z" fill="#0B1022"/>
</g>
<defs>
<clipPath id="clip0_329_418">
<rect width="50" height="50" fill="white" transform="translate(0 0.0400391)"/>
</clipPath>
</defs>
</svg>
