<svg width="50" height="51" viewBox="0 0 50 51" fill="none" xmlns="http://www.w3.org/2000/svg">
<g clip-path="url(#clip0_403_639)">
<path d="M9.07012 16.83L18.7201 16.71C19.3801 16.91 20.0801 16.53 20.2801 15.87C20.3701 15.56 20.7101 14.81 20.6301 14.39C20.5401 13.91 19.9901 13.77 19.6401 13.66L10.8801 11.03C10.6101 10.95 9.96012 10.84 9.68012 11.07C9.27012 11.39 9.25012 12.13 9.13012 12.52C8.93012 13.18 8.41012 16.63 9.07012 16.83Z" fill="#AD7153"/>
<path d="M10.2301 13.07L19.0701 15.73C19.7101 15.92 20.3901 15.56 20.5801 14.92L20.6001 14.84C20.7901 14.2 20.4301 13.52 19.7901 13.33L10.9501 10.67C10.3101 10.48 9.6301 10.84 9.4401 11.48L9.4201 11.56C9.2201 12.2 9.5901 12.88 10.2301 13.07Z" fill="#0B1022"/>
<path d="M31.6603 16.7699L40.3803 16.8299C41.0403 16.6199 41.4003 13.0899 41.1903 12.4299C41.0903 12.1199 40.9503 11.3099 40.6403 11.0099C40.2903 10.6699 39.7603 10.8599 39.4103 10.9699L30.6903 13.7399C30.4203 13.8299 29.8303 14.0999 29.7203 14.4499C29.5603 14.9399 29.9603 15.5699 30.0903 15.9599C30.3003 16.6099 31.0003 16.9799 31.6603 16.7699Z" fill="#AD7153"/>
<path d="M31.3003 15.7899L40.1003 12.9999C40.7403 12.7999 41.0903 12.1199 40.8903 11.4799L40.8703 11.3999C40.6703 10.7599 39.9903 10.4099 39.3503 10.6099L30.5503 13.3999C29.9103 13.5999 29.5603 14.2799 29.7603 14.9199L29.7803 14.9999C29.9903 15.6399 30.6703 15.9899 31.3003 15.7899Z" fill="#0B1022"/>
<path d="M28.8603 25.01C28.8603 26.84 26.9903 28.26 24.9303 27.7C23.6403 27.35 22.7803 26.18 22.8103 24.93C22.8103 24.92 22.8103 24.91 22.8103 24.9C22.8203 24.65 23.1603 24.56 23.3003 24.77C23.8403 25.54 24.7703 26.05 25.8303 26.05C27.1703 26.06 28.8603 24.7 28.8603 25.01Z" fill="#A2674D"/>
<path opacity="0.25" d="M28.3805 20.1C28.3805 20.1 28.3805 23.23 25.0205 23.93C25.0205 23.93 26.4805 24.38 27.7505 23.63C28.4705 23.2 28.8805 22.41 28.8505 21.57C28.8405 21.11 28.7205 20.58 28.3805 20.1Z" fill="#A2674D"/>
<path d="M17.2103 18.1499C18.1381 18.1499 18.8903 17.0396 18.8903 15.6699C18.8903 14.3003 18.1381 13.1899 17.2103 13.1899C16.2824 13.1899 15.5303 14.3003 15.5303 15.6699C15.5303 17.0396 16.2824 18.1499 17.2103 18.1499Z" fill="#0A1021"/>
<path d="M33.7904 18.1499C34.7182 18.1499 35.4704 17.0396 35.4704 15.6699C35.4704 14.3003 34.7182 13.1899 33.7904 13.1899C32.8625 13.1899 32.1104 14.3003 32.1104 15.6699C32.1104 17.0396 32.8625 18.1499 33.7904 18.1499Z" fill="#0A1021"/>
<path d="M22.9002 15.92C22.8802 15.92 22.8602 15.92 22.8402 15.92C22.2202 15.88 21.7502 15.23 21.7802 14.47L21.9002 11.77C21.9302 11.01 22.4702 10.41 23.0802 10.47C23.7002 10.51 24.1702 11.16 24.1402 11.92L24.0202 14.62C23.9802 15.35 23.4902 15.92 22.9002 15.92Z" fill="#A2674D"/>
<path d="M27.7404 15.92C27.7604 15.92 27.7804 15.92 27.8004 15.92C28.4204 15.88 28.8904 15.23 28.8604 14.47L28.7404 11.77C28.7104 11.01 28.1704 10.41 27.5604 10.47C26.9404 10.51 26.4704 11.16 26.5004 11.92L26.6204 14.62C26.6604 15.35 27.1504 15.92 27.7404 15.92Z" fill="#A2674D"/>
<path d="M28.86 40.92H23.61C22.85 40.92 22.23 40.3 22.23 39.54C22.23 38.78 22.85 38.16 23.61 38.16H28.86C29.62 38.16 30.24 38.78 30.24 39.54C30.23 40.31 29.62 40.92 28.86 40.92Z" fill="#A2674D"/>
<path d="M19.4703 33.81L20.0703 33.3C21.7003 31.91 23.7703 31.14 25.9103 31.14C28.2903 31.14 30.5803 32.09 32.2603 33.77L32.3503 33.86C33.4503 34.96 33.4503 36.75 32.3503 37.86L32.2503 37.96C31.7203 38.49 31.0003 38.79 30.2503 38.79H21.3003C20.3403 38.79 19.4503 38.31 18.9303 37.51C18.1703 36.31 18.3903 34.73 19.4703 33.81Z" fill="white" stroke="#AD7153" stroke-miterlimit="10"/>
</g>
<defs>
<clipPath id="clip0_403_639">
<rect width="50" height="50" fill="white" transform="translate(0 0.689941)"/>
</clipPath>
</defs>
</svg>
