<svg width="50" height="51" viewBox="0 0 50 51" fill="none" xmlns="http://www.w3.org/2000/svg">
<g clip-path="url(#clip0_329_444)">
<path d="M9.07012 16.18L18.7201 16.06C19.3801 16.26 20.0801 15.88 20.2801 15.22C20.3701 14.91 20.7101 14.16 20.6301 13.74C20.5401 13.26 19.9901 13.12 19.6401 13.01L10.8801 10.38C10.6101 10.3 9.96012 10.19 9.68012 10.42C9.27012 10.74 9.25012 11.48 9.13012 11.87C8.93012 12.53 8.41012 15.98 9.07012 16.18Z" fill="#AD7153"/>
<path d="M10.2301 12.42L19.0701 15.08C19.7101 15.27 20.3901 14.91 20.5801 14.27L20.6001 14.19C20.7901 13.55 20.4301 12.87 19.7901 12.68L10.9501 10.02C10.3101 9.83001 9.6301 10.19 9.4401 10.83L9.4201 10.91C9.2201 11.55 9.5901 12.23 10.2301 12.42Z" fill="#0B1022"/>
<path d="M31.6603 16.12L40.3803 16.18C41.0403 15.97 41.4003 12.44 41.1903 11.78C41.0903 11.47 40.9503 10.66 40.6403 10.36C40.2903 10.02 39.7603 10.21 39.4103 10.32L30.6903 13.09C30.4203 13.18 29.8303 13.45 29.7203 13.8C29.5603 14.29 29.9603 14.92 30.0903 15.31C30.3003 15.96 31.0003 16.33 31.6603 16.12Z" fill="#AD7153"/>
<path d="M31.3003 15.14L40.1003 12.35C40.7403 12.15 41.0903 11.47 40.8903 10.83L40.8703 10.75C40.6703 10.11 39.9903 9.76003 39.3503 9.96003L30.5503 12.75C29.9103 12.95 29.5603 13.63 29.7603 14.27L29.7803 14.35C29.9903 14.99 30.6703 15.34 31.3003 15.14Z" fill="#0B1022"/>
<path d="M28.8603 24.36C28.8603 26.19 26.9903 27.61 24.9303 27.05C23.6403 26.7 22.7803 25.53 22.8103 24.28C22.8103 24.27 22.8103 24.26 22.8103 24.25C22.8203 24 23.1603 23.91 23.3003 24.12C23.8403 24.89 24.7703 25.4 25.8303 25.4C27.1703 25.41 28.8603 24.05 28.8603 24.36Z" fill="#A2674D"/>
<path opacity="0.25" d="M28.3805 19.45C28.3805 19.45 28.3805 22.58 25.0205 23.28C25.0205 23.28 26.4805 23.73 27.7505 22.98C28.4705 22.55 28.8805 21.76 28.8505 20.92C28.8405 20.46 28.7205 19.93 28.3805 19.45Z" fill="#A2674D"/>
<path d="M17.2103 17.5C18.1381 17.5 18.8903 16.3897 18.8903 15.02C18.8903 13.6504 18.1381 12.54 17.2103 12.54C16.2824 12.54 15.5303 13.6504 15.5303 15.02C15.5303 16.3897 16.2824 17.5 17.2103 17.5Z" fill="#0A1021"/>
<path d="M33.7904 17.5C34.7182 17.5 35.4704 16.3897 35.4704 15.02C35.4704 13.6504 34.7182 12.54 33.7904 12.54C32.8625 12.54 32.1104 13.6504 32.1104 15.02C32.1104 16.3897 32.8625 17.5 33.7904 17.5Z" fill="#0A1021"/>
<path d="M22.9002 15.27C22.8802 15.27 22.8602 15.27 22.8402 15.27C22.2202 15.23 21.7502 14.58 21.7802 13.82L21.9002 11.12C21.9302 10.36 22.4702 9.76003 23.0802 9.82003C23.7002 9.86003 24.1702 10.51 24.1402 11.27L24.0202 13.97C23.9802 14.7 23.4902 15.27 22.9002 15.27Z" fill="#A2674D"/>
<path d="M27.7404 15.27C27.7604 15.27 27.7804 15.27 27.8004 15.27C28.4204 15.23 28.8904 14.58 28.8604 13.82L28.7404 11.12C28.7104 10.36 28.1704 9.76003 27.5604 9.82003C26.9404 9.86003 26.4704 10.51 26.5004 11.27L26.6204 13.97C26.6604 14.7 27.1504 15.27 27.7404 15.27Z" fill="#A2674D"/>
<path d="M28.86 40.27H23.61C22.85 40.27 22.23 39.65 22.23 38.89C22.23 38.13 22.85 37.51 23.61 37.51H28.86C29.62 37.51 30.24 38.13 30.24 38.89C30.23 39.66 29.62 40.27 28.86 40.27Z" fill="#A2674D"/>
<path d="M19.4703 33.16L20.0703 32.6501C21.7003 31.2601 23.7703 30.4901 25.9103 30.4901C28.2903 30.4901 30.5803 31.4401 32.2603 33.1201L32.3503 33.21C33.4503 34.31 33.4503 36.1 32.3503 37.21L32.2503 37.3101C31.7203 37.8401 31.0003 38.14 30.2503 38.14H21.3003C20.3403 38.14 19.4503 37.6601 18.9303 36.8601C18.1703 35.6601 18.3903 34.08 19.4703 33.16Z" fill="white" stroke="#AD7153" stroke-miterlimit="10"/>
</g>
<defs>
<clipPath id="clip0_329_444">
<rect width="50" height="50" fill="white" transform="translate(0 0.0400391)"/>
</clipPath>
</defs>
</svg>
