<svg width="50" height="51" viewBox="0 0 50 51" fill="none" xmlns="http://www.w3.org/2000/svg">
<g clip-path="url(#clip0_329_481)">
<path d="M36.3199 17.77C36.0599 17.77 35.8599 17.56 35.8599 17.31C35.8599 17.13 35.7799 16.19 34.4299 16.19C33.0599 16.19 32.9299 17.14 32.9099 17.34C32.8899 17.59 32.6699 17.78 32.4299 17.77C32.1799 17.76 31.9799 17.54 31.9999 17.29C32.0299 16.59 32.5799 15.27 34.4299 15.27C35.1799 15.27 35.7699 15.48 36.1899 15.91C36.7699 16.49 36.7699 17.23 36.7699 17.32C36.7799 17.57 36.5699 17.77 36.3199 17.77Z" fill="#0A1021"/>
<path d="M18.0001 17.77C17.7401 17.77 17.5401 17.56 17.5401 17.31C17.5401 17.13 17.4601 16.19 16.1101 16.19C14.7401 16.19 14.6101 17.14 14.5901 17.34C14.5701 17.59 14.3501 17.78 14.1101 17.77C13.8601 17.76 13.6601 17.54 13.6801 17.29C13.7101 16.59 14.2601 15.27 16.1101 15.27C16.8601 15.27 17.4501 15.48 17.8701 15.91C18.4501 16.49 18.4501 17.23 18.4501 17.32C18.4601 17.57 18.2501 17.77 18.0001 17.77Z" fill="#0A1021"/>
<path d="M9.11988 12.42H18.2699C18.9599 12.42 19.5199 11.86 19.5199 11.17C19.5199 10.85 19.6299 10.03 19.4199 9.65001C19.1999 9.22001 18.6399 9.24001 18.2699 9.24001H9.11988C8.83988 9.24001 8.18988 9.33001 7.97988 9.62001C7.67988 10.04 7.86988 10.76 7.86988 11.17C7.86988 11.86 8.42988 12.42 9.11988 12.42Z" fill="#AD7153"/>
<path d="M9.3799 11.63L18.4599 9.99003C19.1199 9.87003 19.5599 9.24003 19.4399 8.58003L19.4299 8.50003C19.3099 7.84003 18.6799 7.40003 18.0199 7.52003L8.9299 9.17003C8.2699 9.29003 7.8299 9.92003 7.9499 10.58L7.9599 10.66C8.0899 11.31 8.7199 11.75 9.3799 11.63Z" fill="#0B1022"/>
<path d="M31.7598 12.42H40.9098C41.5998 12.42 42.1598 11.86 42.1598 11.17C42.1598 10.85 42.2698 10.03 42.0598 9.65001C41.8298 9.22001 41.2698 9.24001 40.8998 9.24001H31.7498C31.4698 9.24001 30.8198 9.33001 30.6098 9.62001C30.3098 10.04 30.4998 10.76 30.4998 11.17C30.5098 11.86 31.0698 12.42 31.7598 12.42Z" fill="#AD7153"/>
<path d="M31.5999 10.2201L40.7499 11.4101C41.4099 11.5001 42.0199 11.0301 42.1099 10.3701L42.1199 10.2901C42.2099 9.63005 41.7399 9.02005 41.0799 8.93005L31.9199 7.74005C31.2599 7.65005 30.6499 8.12005 30.5599 8.78005L30.5499 8.86005C30.4699 9.53005 30.9399 10.1401 31.5999 10.2201Z" fill="#0B1022"/>
<path d="M28.48 28.39C28.48 30.22 26.61 31.64 24.55 31.08C23.26 30.73 22.4 29.56 22.43 28.31C22.43 28.3 22.43 28.29 22.43 28.28C22.44 28.03 22.78 27.94 22.92 28.15C23.46 28.92 24.39 29.43 25.45 29.43C26.8 29.43 28.48 28.07 28.48 28.39Z" fill="#A2674D"/>
<path opacity="0.25" d="M28.0099 23.48C28.0099 23.48 28.0099 26.61 24.6499 27.31C24.6499 27.31 26.1099 27.76 27.3799 27.01C28.0999 26.58 28.5099 25.79 28.4799 24.95C28.4599 24.49 28.3499 23.96 28.0099 23.48Z" fill="#A2674D"/>
<path d="M33.9999 34.14C34.8499 34.14 35.4499 34.99 35.1599 35.79C34.7599 36.9 34.0399 38.39 32.8199 39.69C31.3499 41.27 29.1399 42.57 25.8499 42.57C22.5299 42.57 20.3399 41.42 18.8799 39.97C17.4799 38.58 16.7599 36.9 16.4099 35.71C16.1799 34.93 16.7799 34.15 17.5899 34.15H33.9999V34.14Z" fill="#150707"/>
<path d="M32.8199 39.69C31.3499 41.27 29.1399 42.57 25.8499 42.57C22.5299 42.57 20.3399 41.42 18.8799 39.97C20.3599 38.39 22.5699 37.09 25.8499 37.09C29.1699 37.09 31.3699 38.24 32.8199 39.69Z" fill="#4B0501"/>
<path d="M12.7199 22.13C13.8521 22.13 14.7699 21.3958 14.7699 20.49C14.7699 19.5843 13.8521 18.85 12.7199 18.85C11.5877 18.85 10.6699 19.5843 10.6699 20.49C10.6699 21.3958 11.5877 22.13 12.7199 22.13Z" fill="#B47759"/>
<path d="M38.1799 22.13C39.3121 22.13 40.2299 21.3958 40.2299 20.49C40.2299 19.5843 39.3121 18.85 38.1799 18.85C37.0477 18.85 36.1299 19.5843 36.1299 20.49C36.1299 21.3958 37.0477 22.13 38.1799 22.13Z" fill="#B47759"/>
</g>
<defs>
<clipPath id="clip0_329_481">
<rect width="50" height="50" fill="white" transform="translate(0 0.0400391)"/>
</clipPath>
</defs>
</svg>
