<svg width="38" height="39" viewBox="0 0 38 39" fill="none" xmlns="http://www.w3.org/2000/svg">
<g clip-path="url(#clip0_225_3907)">
<path d="M31.3 11.9599C31.02 11.9599 30.8 11.7299 30.8 11.4499C30.8 11.2499 30.72 10.2399 29.25 10.2399C27.76 10.2399 27.61 11.2799 27.6 11.4899C27.58 11.7599 27.33 11.9699 27.07 11.9599C26.8 11.9399 26.59 11.7099 26.6 11.4399C26.63 10.6799 27.23 9.2399 29.25 9.2399C30.07 9.2399 30.71 9.4699 31.17 9.9299C31.8 10.5599 31.81 11.3699 31.8 11.4599C31.8 11.7399 31.57 11.9599 31.3 11.9599Z" fill="#0A1021"/>
<path d="M11.36 11.9599C11.08 11.9599 10.86 11.7299 10.86 11.4499C10.86 11.2499 10.78 10.2399 9.31001 10.2399C7.82001 10.2399 7.67001 11.2799 7.66001 11.4899C7.64001 11.7599 7.39001 11.9699 7.13001 11.9599C6.86001 11.9399 6.65001 11.7099 6.66001 11.4399C6.69001 10.6799 7.29001 9.2399 9.31001 9.2399C10.13 9.2399 10.77 9.4699 11.23 9.9299C11.86 10.5599 11.87 11.3699 11.86 11.4599C11.86 11.7399 11.63 11.9599 11.36 11.9599Z" fill="#0A1021"/>
<path d="M1.69978 6.1399H11.6598C12.4098 6.1399 13.0198 5.5299 13.0198 4.7799C13.0198 4.4299 13.1298 3.5399 12.9198 3.1299C12.6698 2.6599 12.0598 2.6799 11.6598 2.6799H1.69978C1.38978 2.6799 0.679782 2.7699 0.459782 3.0899C0.129782 3.5499 0.339782 4.3299 0.339782 4.7799C0.339782 5.5299 0.949782 6.1399 1.69978 6.1399Z" fill="#AD7153"/>
<path d="M2.01984 5.26991L11.8198 3.50991C12.5598 3.37991 13.0498 2.66991 12.9198 1.92991C12.7898 1.18991 12.0798 0.699912 11.3398 0.829912L1.53984 2.58991C0.799837 2.71991 0.309837 3.42991 0.439837 4.16991C0.569837 4.90991 1.27984 5.39991 2.01984 5.26991Z" fill="#0B1022"/>
<path d="M26.3399 6.1399H36.2999C37.0499 6.1399 37.6599 5.5299 37.6599 4.7799C37.6599 4.4299 37.7699 3.5399 37.5599 3.1299C37.3099 2.6599 36.6999 2.6799 36.2999 2.6799H26.3399C26.0299 2.6799 25.3199 2.7699 25.0999 3.0899C24.7699 3.5499 24.9799 4.3299 24.9799 4.7799C24.9799 5.5299 25.5899 6.1399 26.3399 6.1399Z" fill="#AD7153"/>
<path d="M26.1997 3.7499L36.0697 5.0399C36.8197 5.1399 37.4997 4.6099 37.5997 3.8699C37.6997 3.1199 37.1697 2.4399 36.4297 2.3399L26.5597 1.0499C25.8097 0.949904 25.1297 1.4799 25.0297 2.2199C24.9297 2.9699 25.4597 3.6499 26.1997 3.7499Z" fill="#0B1022"/>
<path d="M22.7697 23.5099C22.7697 25.4999 20.7397 27.0499 18.4897 26.4399C17.0897 26.0599 16.1497 24.7799 16.1897 23.4199C16.1897 23.4099 16.1897 23.3999 16.1897 23.3899C16.1997 23.1199 16.5697 23.0199 16.7197 23.2499C17.3097 24.0899 18.3197 24.6399 19.4697 24.6399C20.9297 24.6499 22.7697 23.1699 22.7697 23.5099Z" fill="#A2674D"/>
<path opacity="0.25" d="M22.2596 18.1699C22.2596 18.1699 22.2596 21.5699 18.5996 22.3399C18.5996 22.3399 20.1896 22.8299 21.5696 22.0099C22.3596 21.5399 22.7996 20.6899 22.7696 19.7699C22.7496 19.2699 22.6196 18.6999 22.2596 18.1699Z" fill="#A2674D"/>
<path d="M28.7799 29.7699C29.7099 29.7699 30.3599 30.6899 30.0399 31.5599C29.5999 32.7699 28.8199 34.3899 27.4999 35.8099C25.8999 37.5299 23.4899 38.9399 19.9199 38.9399C16.3099 38.9399 13.9199 37.6899 12.3299 36.1099C10.7999 34.5899 10.0299 32.7699 9.63994 31.4699C9.38994 30.6199 10.0399 29.7699 10.9299 29.7699H28.7799Z" fill="#150707"/>
<path d="M27.4898 35.8099C25.8898 37.5299 23.4798 38.9399 19.9098 38.9399C16.2998 38.9399 13.9098 37.6899 12.3198 36.1099C13.9298 34.3899 16.3398 32.9799 19.9098 32.9799C23.5198 32.9799 25.9098 34.2299 27.4898 35.8099Z" fill="#4B0501"/>
<path d="M5.61965 16.6999C6.85124 16.6999 7.84965 15.8985 7.84965 14.9099C7.84965 13.9213 6.85124 13.1199 5.61965 13.1199C4.38805 13.1199 3.38965 13.9213 3.38965 14.9099C3.38965 15.8985 4.38805 16.6999 5.61965 16.6999Z" fill="#B47759"/>
<path d="M33.3198 16.6999C34.5514 16.6999 35.5498 15.8985 35.5498 14.9099C35.5498 13.9213 34.5514 13.1199 33.3198 13.1199C32.0882 13.1199 31.0898 13.9213 31.0898 14.9099C31.0898 15.8985 32.0882 16.6999 33.3198 16.6999Z" fill="#B47759"/>
</g>
<defs>
<clipPath id="clip0_225_3907">
<rect width="37.42" height="38.14" fill="white" transform="translate(0.27002 0.799927)"/>
</clipPath>
</defs>
</svg>
