<svg width="50" height="51" viewBox="0 0 50 51" fill="none" xmlns="http://www.w3.org/2000/svg">
<g clip-path="url(#clip0_403_607)">
<path d="M28.48 40.1399C28.48 40.1399 34.07 40.4499 35.32 35.7899" stroke="#9F644B" stroke-width="2" stroke-miterlimit="10" stroke-linecap="round"/>
<path d="M9.12012 14.7799H18.2701C18.9601 14.7799 19.5201 14.2199 19.5201 13.5299C19.5201 13.2099 19.6301 12.3899 19.4201 12.0099C19.1901 11.5799 18.6301 11.5999 18.2601 11.5999H9.11011C8.83011 11.5999 8.18012 11.6899 7.97012 11.9799C7.67012 12.3999 7.86012 13.1199 7.86012 13.5299C7.87012 14.2199 8.43012 14.7799 9.12012 14.7799Z" fill="#AD7153"/>
<path d="M9.08012 13.7299H18.3101C18.9801 13.7299 19.5201 13.1899 19.5201 12.5199V12.4399C19.5201 11.7699 18.9801 11.2299 18.3101 11.2299H9.08012C8.41012 11.2299 7.87012 11.7699 7.87012 12.4399V12.5199C7.87012 13.1899 8.41012 13.7299 9.08012 13.7299Z" fill="#0B1022"/>
<path d="M31.7603 14.7799H40.9103C41.6003 14.7799 42.1603 14.2199 42.1603 13.5299C42.1603 13.2099 42.2703 12.3899 42.0603 12.0099C41.8303 11.5799 41.2703 11.5999 40.9003 11.5999H31.7503C31.4703 11.5999 30.8203 11.6899 30.6103 11.9799C30.3103 12.3999 30.5003 13.1199 30.5003 13.5299C30.5103 14.2199 31.0703 14.7799 31.7603 14.7799Z" fill="#AD7153"/>
<path d="M31.7203 13.7299H40.9503C41.6203 13.7299 42.1603 13.1899 42.1603 12.5199V12.4399C42.1603 11.7699 41.6203 11.2299 40.9503 11.2299H31.7203C31.0503 11.2299 30.5103 11.7699 30.5103 12.4399V12.5199C30.5103 13.1899 31.0503 13.7299 31.7203 13.7299Z" fill="#0B1022"/>
<path d="M28.48 31.6599C28.48 33.4899 26.61 34.9099 24.55 34.3499C23.26 33.9999 22.4 32.8299 22.43 31.5799C22.43 31.5699 22.43 31.5599 22.43 31.5499C22.44 31.2999 22.78 31.2099 22.92 31.4199C23.46 32.1899 24.39 32.6999 25.45 32.6999C26.8 32.7099 28.48 31.3499 28.48 31.6599Z" fill="#A2674D"/>
<path opacity="0.25" d="M28.0099 26.7499C28.0099 26.7499 28.0099 29.8799 24.6499 30.5799C24.6499 30.5799 26.1099 31.0299 27.3799 30.2799C28.0999 29.8499 28.5099 29.0599 28.4799 28.2199C28.4599 27.7699 28.3499 27.2399 28.0099 26.7499Z" fill="#A2674D"/>
<path d="M16.8402 21.7799C17.768 21.7799 18.5202 20.6696 18.5202 19.2999C18.5202 17.9303 17.768 16.8199 16.8402 16.8199C15.9123 16.8199 15.1602 17.9303 15.1602 19.2999C15.1602 20.6696 15.9123 21.7799 16.8402 21.7799Z" fill="#0A1021"/>
<path d="M33.41 21.7799C34.3378 21.7799 35.09 20.6696 35.09 19.2999C35.09 17.9303 34.3378 16.8199 33.41 16.8199C32.4821 16.8199 31.73 17.9303 31.73 19.2999C31.73 20.6696 32.4821 21.7799 33.41 21.7799Z" fill="#0A1021"/>
</g>
<defs>
<clipPath id="clip0_403_607">
<rect width="50" height="50" fill="white" transform="translate(0 0.689941)"/>
</clipPath>
</defs>
</svg>
