<svg width="50" height="51" viewBox="0 0 50 51" fill="none" xmlns="http://www.w3.org/2000/svg">
<g clip-path="url(#clip0_403_581)">
<path d="M16.3602 22.7599C17.288 22.7599 18.0402 21.6496 18.0402 20.2799C18.0402 18.9103 17.288 17.7999 16.3602 17.7999C15.4323 17.7999 14.6802 18.9103 14.6802 20.2799C14.6802 21.6496 15.4323 22.7599 16.3602 22.7599Z" fill="#0A1021"/>
<path d="M31.9199 21.5699C31.9199 21.5699 31.9799 20.2799 33.5299 20.2799C35.0799 20.2799 35.0699 21.5699 35.0699 21.5699" stroke="#0A1021" stroke-miterlimit="10" stroke-linecap="round"/>
<path d="M14.6802 37.7699C14.6802 37.7699 23.4902 46.2199 35.0802 37.7699" stroke="#B47759" stroke-width="2" stroke-miterlimit="10" stroke-linecap="round"/>
<path d="M12.4901 26.0399C13.3958 26.0399 14.1301 25.3057 14.1301 24.3999C14.1301 23.4942 13.3958 22.7599 12.4901 22.7599C11.5844 22.7599 10.8501 23.4942 10.8501 24.3999C10.8501 25.3057 11.5844 26.0399 12.4901 26.0399Z" fill="#B47759"/>
<path d="M27.2098 31.59C27.2098 33.1 25.7698 34.28 24.1798 33.82C23.1898 33.53 22.5198 32.56 22.5498 31.53C22.5498 31.52 22.5498 31.52 22.5498 31.51C22.5598 31.31 22.8198 31.23 22.9298 31.4C23.3498 32.04 24.0598 32.46 24.8798 32.46C25.9098 32.46 27.2098 31.33 27.2098 31.59Z" fill="#A2674D"/>
<path d="M8.96996 13.3999H18.12C18.81 13.3999 19.37 12.8399 19.37 12.1499C19.37 11.8299 19.48 11.0099 19.27 10.6299C19.04 10.1999 18.48 10.2199 18.11 10.2199L8.95996 10.8999C8.26996 10.8999 7.70996 11.4599 7.70996 12.1499C7.71996 12.8399 8.27996 13.3999 8.96996 13.3999Z" fill="#AD7153"/>
<path d="M31.8399 18.2899H41.0699C41.7399 18.2899 42.2799 17.7499 42.2799 17.0799V16.9999C42.2799 16.3299 41.7399 15.7899 41.0699 15.7899H31.8399C31.1699 15.7899 30.6299 16.3299 30.6299 16.9999V17.0799C30.6299 17.7499 31.1699 18.2899 31.8399 18.2899Z" fill="#0B1022"/>
<path d="M8.92973 12.3599H18.1597C18.8297 12.3599 19.3697 11.8199 19.3697 11.1499V11.0699C19.3697 10.3999 18.8297 9.85992 18.1597 9.85992H8.92973C8.25973 9.85992 7.71973 10.3999 7.71973 11.0699V11.1499C7.71973 11.8099 8.25973 12.3599 8.92973 12.3599Z" fill="#0B1022"/>
</g>
<defs>
<clipPath id="clip0_403_581">
<rect width="50" height="50" fill="white" transform="translate(0 0.689941)"/>
</clipPath>
</defs>
</svg>
