<svg width="56" height="114" viewBox="0 0 56 114" fill="none" xmlns="http://www.w3.org/2000/svg">
<g clip-path="url(#clip0_301_14247)">
<path d="M49.36 8.08997H0V34.33H49.36V8.08997Z" fill="#F7ECB9"/>
<path d="M49.37 0.189941V9.03994H49.36V9.02994H0V0.189941H49.37Z" fill="#F2A65E"/>
<path d="M31.5399 13.8899C31.2899 11.9499 27.2599 9.99992 25.4599 9.21992C25.1699 9.09992 24.8699 9.03992 24.5599 9.03992C24.2399 9.03992 23.9299 9.10992 23.6399 9.23992C21.8999 10.0199 18.0799 11.9599 17.8399 13.8899C17.6799 15.1099 18.1699 16.1399 19.1499 16.6299C19.5499 16.8299 19.9999 16.9299 20.4699 16.9299C21.3099 16.9299 22.1999 16.5999 22.9999 15.9999C22.7899 16.9899 22.6599 18.0999 22.7299 19.2299L23.5599 19.1899C23.4199 16.9599 24.1299 14.8099 24.6399 13.5799C25.0299 15.3199 25.6499 18.9999 25.3099 24.0399L26.1499 24.0999C26.3899 20.5299 26.1699 17.6499 25.8799 15.6199C26.7899 16.4699 27.8899 16.9399 28.8999 16.9399C29.3699 16.9399 29.8199 16.8399 30.2199 16.6399C31.1999 16.1399 31.6899 15.1099 31.5399 13.8899ZM19.5199 15.8799C18.8599 15.5399 18.5499 14.8799 18.6699 13.9999C18.8199 12.8299 21.4299 11.1699 23.9499 10.0299C24.0599 11.1699 24.1599 13.8199 22.9299 14.9899C21.6799 16.1699 20.3199 16.2799 19.5199 15.8799ZM29.8399 15.8799C29.0399 16.2899 27.6799 16.1699 26.4399 14.9899C25.2099 13.8199 25.1499 11.1899 25.1899 10.0299C27.8299 11.1799 30.5499 12.8299 30.6999 13.9999C30.8099 14.8699 30.5099 15.5399 29.8399 15.8799Z" fill="#EB564B"/>
<path d="M37.8496 26.09V110.75H54.5996V26.09C54.5996 21.46 50.8496 17.71 46.2196 17.71C41.5996 17.71 37.8496 21.46 37.8496 26.09Z" fill="#F7ECB9"/>
<path d="M17.5398 110.75H34.2898V26.09C34.2898 21.46 30.5398 17.71 25.9098 17.71C21.2798 17.71 17.5298 21.46 17.5298 26.09V110.75H17.5398Z" fill="#F2A65E"/>
<path d="M54.5797 109.46H37.9597C37.2497 109.46 36.6797 110.03 36.6797 110.74V112.54C36.6797 113.25 37.2497 113.82 37.9597 113.82H54.5797C55.2897 113.82 55.8597 113.25 55.8597 112.54V110.74C55.8597 110.03 55.2897 109.46 54.5797 109.46Z" fill="#F2A65E"/>
<path d="M34.1798 109.46H17.5598C16.8498 109.46 16.2798 110.03 16.2798 110.74V112.54C16.2798 113.25 16.8498 113.82 17.5598 113.82H34.1798C34.8898 113.82 35.4598 113.25 35.4598 112.54V110.74C35.4598 110.03 34.8898 109.46 34.1798 109.46Z" fill="#F2A65E"/>
<path d="M51.2701 96.1399C51.7101 96.1399 52.0701 96.4999 52.0701 96.9399C52.0701 97.3799 51.7101 97.7399 51.2701 97.7399H41.1901C40.7501 97.7399 40.3901 97.3799 40.3901 96.9399C40.3901 96.4999 40.7501 96.1399 41.1901 96.1399" fill="#E36956"/>
<path d="M32.18 105.56C32.62 105.56 32.98 105.92 32.98 106.36C32.98 106.8 32.62 107.16 32.18 107.16H22.09C21.65 107.16 21.29 106.8 21.29 106.36C21.29 105.92 21.65 105.56 22.09 105.56" fill="#E36956"/>
<path d="M29.7301 102.3C30.1701 102.3 30.5301 102.66 30.5301 103.1C30.5301 103.54 30.1701 103.9 29.7301 103.9H19.6501C19.2101 103.9 18.8501 103.54 18.8501 103.1C18.8501 102.66 19.2101 102.3 19.6501 102.3" fill="#E36956"/>
</g>
<defs>
<clipPath id="clip0_301_14247">
<rect width="55.86" height="113.62" fill="white" transform="translate(0 0.189941)"/>
</clipPath>
</defs>
</svg>
