<svg width="63" height="48" viewBox="0 0 63 48" fill="none" xmlns="http://www.w3.org/2000/svg">
<g clip-path="url(#clip0_301_14502)">
<path d="M9.98975 8.78503V35.025H49.8197V8.78503H22.5897H9.98975Z" fill="#E9FBF8"/>
<path d="M9.98996 8.78503H0.459961V35.025H9.98996V8.78503Z" fill="#9AC1B9"/>
<path d="M49.8198 9.73501V0.88501H22.5898V9.73501H49.8198Z" fill="#9AC1B9"/>
<path d="M22.59 0.88501H0.459961V9.73501H22.59V0.88501Z" fill="#197C7A"/>
<path d="M16.3599 47.115H62.8899V29.485C62.8899 24.525 58.8699 20.495 53.8999 20.495H25.3399V47.105L16.3599 47.115Z" fill="#E9FBF8"/>
<path d="M16.3599 47.105H25.3499V20.495C20.3899 20.495 16.3599 24.515 16.3599 29.485V47.105Z" fill="#9AC1B9"/>
<path d="M31.1799 47.105H28.6299V32.405C28.6299 31.695 29.1999 31.125 29.9099 31.125C30.6199 31.125 31.1899 31.695 31.1899 32.405V47.105H31.1799Z" fill="#9AC1B9"/>
</g>
<defs>
<clipPath id="clip0_301_14502">
<rect width="62.43" height="46.23" fill="white" transform="translate(0.459961 0.88501)"/>
</clipPath>
</defs>
</svg>
