<svg width="86" height="58" viewBox="0 0 86 58" fill="none" xmlns="http://www.w3.org/2000/svg">
<g clip-path="url(#clip0_301_11264)">
<path d="M46.1901 57.535C45.0301 57.535 44.0901 56.595 44.0901 55.435V52.915C44.0901 52.235 44.4201 51.615 44.9501 51.235L43.4901 41.415C43.1001 41.415 42.7001 41.425 42.5301 41.425C42.1101 41.425 41.8701 41.405 41.6601 41.395L40.2001 50.915C41.0501 51.185 41.6701 51.985 41.6701 52.915V55.435C41.6701 56.595 40.7301 57.535 39.5701 57.535H18.3401C17.1801 57.535 16.2401 56.595 16.2401 55.435V52.915C16.2401 52.125 16.6701 51.445 17.3201 51.085L16.2401 33.715C15.3501 33.135 14.4801 32.515 13.6801 31.895L13.6301 31.865L13.6001 31.835C11.2901 30.055 9.24006 28.075 7.51006 25.945C7.42006 25.835 7.33006 25.725 7.25006 25.615C6.84006 25.115 6.43006 24.555 6.09006 24.075C2.99006 19.625 1.24006 14.815 0.880059 9.76497C0.840059 9.10497 0.810059 8.46497 0.810059 7.85497C0.810059 6.41497 0.930059 4.95497 1.17006 3.53497C1.28006 2.79497 1.45006 2.01497 1.67006 1.16497L1.85006 0.464966H84.9301L85.1101 1.15497C85.3301 2.00497 85.4901 2.78497 85.6101 3.54497C85.8501 4.96497 85.9701 6.41497 85.9701 7.85497C85.9701 8.49497 85.9401 9.12497 85.9001 9.75497C85.8701 10.205 85.8401 10.605 85.7801 11.005C85.2301 15.775 83.4101 20.325 80.3801 24.495C80.0201 25.005 79.6101 25.535 79.1801 26.035C79.1301 26.115 79.0001 26.265 78.8701 26.405C76.1801 29.615 72.8101 32.425 68.8801 34.745L67.8201 50.865C68.7801 51.055 69.5101 51.905 69.5101 52.925V55.445C69.5101 56.605 68.5701 57.545 67.4101 57.545H46.1901V57.535Z" fill="#C62C3F"/>
<path d="M18.2699 54.175H39.2299L40.7499 40.425C24.5299 39.045 17.1699 33.215 17.1699 33.215L18.2699 54.175Z" fill="#C62C3F"/>
<path d="M84.9701 9.70496C84.9501 9.99496 84.9301 10.305 84.8901 10.605C84.8901 10.695 84.8701 10.785 84.8601 10.875C84.6001 13.145 84.0301 15.355 83.2101 17.465C82.5501 19.155 81.7101 20.785 80.7201 22.345C80.3701 22.885 80.0101 23.415 79.6301 23.945C79.2701 24.455 78.8801 24.955 78.4801 25.435C78.3901 25.555 78.2901 25.665 78.1901 25.775C77.8001 26.235 77.4001 26.695 76.9901 27.135C76.0301 28.165 74.9901 29.145 73.8901 30.065C72.3601 31.365 70.7001 32.555 68.9301 33.625C68.6101 33.825 68.2901 34.015 67.9601 34.205L66.8701 54.175H45.9101L44.4001 40.475C44.0601 40.485 43.7301 40.495 43.3901 40.495C42.5001 40.495 41.6201 40.465 40.7401 40.425C24.5301 39.045 17.1601 33.215 17.1601 33.215C16.1501 32.565 15.1701 31.885 14.2401 31.165C14.2301 31.155 14.2101 31.145 14.2001 31.135C11.9401 29.405 9.94006 27.475 8.23006 25.375C8.15006 25.265 8.07006 25.175 8.00006 25.075C7.59006 24.575 7.21006 24.065 6.85006 23.545C3.95006 19.395 2.16006 14.695 1.81006 9.70496H84.9701Z" fill="#F9364D"/>
<path d="M39.4702 51.735H18.4402C17.7302 51.735 17.1602 52.305 17.1602 53.015V55.335C17.1602 56.045 17.7302 56.615 18.4402 56.615H39.4702C40.1802 56.615 40.7502 56.045 40.7502 55.335V53.015C40.7402 52.305 40.1702 51.735 39.4702 51.735Z" fill="#932729"/>
<path d="M67.3098 51.735H46.2898C45.5798 51.735 45.0098 52.305 45.0098 53.015V55.335C45.0098 56.045 45.5798 56.615 46.2898 56.615H67.3098C68.0198 56.615 68.5898 56.045 68.5898 55.335V53.015C68.5898 52.305 68.0198 51.735 67.3098 51.735Z" fill="#932729"/>
<path d="M85.04 7.85501C85.04 8.47501 85.01 9.09501 84.98 9.70501H1.80998C1.75998 9.09501 1.72998 8.47501 1.72998 7.85501C1.72998 6.44501 1.84998 5.04501 2.07998 3.68501C2.19998 2.90501 2.36998 2.14501 2.55998 1.38501H84.21C84.4 2.14501 84.57 2.90501 84.69 3.68501C84.92 5.05501 85.04 6.44501 85.04 7.85501Z" fill="#932729"/>
<path d="M84.8902 10.605C84.8902 10.695 84.8702 10.785 84.8602 10.875C84.6002 13.145 84.0302 15.355 83.2102 17.465L75.4502 9.70496H83.9902L84.8902 10.605Z" fill="#922829"/>
<path d="M80.7203 22.345C80.3703 22.885 80.0103 23.415 79.6303 23.945C79.2703 24.455 78.8803 24.955 78.4803 25.435C78.3903 25.555 78.2903 25.665 78.1903 25.775C77.8003 26.235 77.4003 26.695 76.9903 27.135L61.4803 11.635L59.5503 9.70496H68.0803L80.7203 22.345Z" fill="#B2283A"/>
<path d="M73.8903 30.065C72.3603 31.365 70.7003 32.555 68.9303 33.625L46.9403 11.635L45.0103 9.70496H53.5303L55.4603 11.635L73.8903 30.065Z" fill="#CF2E3F"/>
</g>
<defs>
<clipPath id="clip0_301_11264">
<rect width="85.15" height="57.07" fill="white" transform="translate(0.810059 0.464966)"/>
</clipPath>
</defs>
</svg>
