<svg width="92" height="170" viewBox="0 0 92 170" fill="none" xmlns="http://www.w3.org/2000/svg">
<g clip-path="url(#clip0_302_226)">
<path d="M91.72 9.96497H0V169.105H91.72V9.96497Z" fill="#2F3986"/>
<path d="M9.64 9.96497H0V169.105H9.64V9.96497Z" fill="#262B65"/>
<path d="M87.6702 41.4451C89.8517 41.4451 91.6202 39.6542 91.6202 37.4451C91.6202 35.2359 89.8517 33.4451 87.6702 33.4451C85.4887 33.4451 83.7202 35.2359 83.7202 37.4451C83.7202 39.6542 85.4887 41.4451 87.6702 41.4451Z" fill="#20C9AF"/>
<path d="M85.5599 42.865C83.8699 42.185 82.5699 40.725 82.0999 38.925C79.8699 38.795 77.6299 39.775 76.2199 41.735C74.0199 44.795 74.6899 49.085 77.7199 51.315C80.4599 53.335 84.1999 52.965 86.5099 50.595C84.9599 48.245 84.6799 45.375 85.5599 42.865Z" fill="#F73852"/>
<path d="M91.72 41.5751V52.3351C90.33 51.9251 89.07 51.0651 88.16 49.7951C86.75 47.8251 86.52 45.3651 87.34 43.2651C88.98 43.3651 90.57 42.7251 91.72 41.5751Z" fill="#F73852"/>
<path d="M91.72 21.6751V32.6551C91.59 32.7551 91.46 32.8451 91.32 32.9451C89.89 31.7651 87.99 31.3551 86.23 31.8151C85.48 29.2651 83.6 27.0951 80.98 26.1251C81.48 22.8251 84.28 20.3051 87.67 20.3051C89.18 20.2951 90.59 20.8051 91.72 21.6751Z" fill="#F73852"/>
<path d="M81.93 37.085C82.04 35.245 83.01 33.545 84.56 32.535C84 30.345 82.38 28.485 80.1 27.735C76.54 26.565 72.73 28.535 71.57 32.135C70.52 35.405 72.02 38.885 74.96 40.385C76.69 38.175 79.31 37.025 81.93 37.085Z" fill="#F73852"/>
<path d="M76.7802 93.825C79.8399 93.825 82.3202 91.3088 82.3202 88.205C82.3202 85.1011 79.8399 82.585 76.7802 82.585C73.7206 82.585 71.2402 85.1011 71.2402 88.205C71.2402 91.3088 73.7206 93.825 76.7802 93.825Z" fill="#20C9AF"/>
<path d="M78.8803 96.095C76.4203 96.765 73.7403 96.215 71.7303 94.585C69.1103 96.325 67.3903 99.335 67.4203 102.745C67.4703 108.065 71.7703 112.335 77.0203 112.285C81.7803 112.235 85.6903 108.655 86.3403 104.025C82.6403 102.675 79.9603 99.665 78.8803 96.095Z" fill="#F73852"/>
<path d="M91.7202 86.585V102.065C90.3602 102.255 88.9402 102.165 87.5402 101.715C84.3302 100.705 82.0402 98.105 81.2202 95.055C83.3802 93.615 84.7102 91.215 84.8502 88.625C87.2702 88.655 89.6802 87.955 91.7202 86.585Z" fill="#F73852"/>
<path d="M91.72 69.575V83.285C89.8 85.225 87.18 86.175 84.58 86.055C83.9 83.525 82.05 81.495 79.67 80.575C80.86 77.035 80.45 73.005 78.23 69.725C81.44 66.365 86.68 65.785 90.55 68.585C90.97 68.875 91.36 69.215 91.72 69.575Z" fill="#F73852"/>
<path d="M70.5103 83.0549C72.1203 81.0449 74.6003 79.8949 77.1803 80.0249C78.2903 77.0549 77.9403 73.5949 75.9303 70.8649C72.8003 66.5949 66.8503 65.6949 62.6303 68.8649C58.8103 71.7349 57.7303 76.9649 59.8903 81.0949C63.6503 79.9749 67.5603 80.8149 70.5103 83.0549Z" fill="#F73852"/>
<path d="M70.0201 92.6649C68.6301 90.4949 68.3201 87.7549 69.2301 85.3049C66.7901 83.3149 63.4301 82.5949 60.2401 83.6749C55.2601 85.3649 52.5801 90.8249 54.2601 95.8749C55.7801 100.445 60.3501 103.105 64.8901 102.295C65.0101 98.3149 67.0001 94.8049 70.0201 92.6649Z" fill="#F73852"/>
<path d="M91.7202 135.425V138.755C91.1002 140.135 89.7302 141.095 88.1402 141.095C85.9502 141.095 84.1802 139.305 84.1802 137.095C84.1802 134.885 85.9502 133.085 88.1402 133.085C89.7302 133.085 91.1002 134.035 91.7202 135.425Z" fill="#20C9AF"/>
<path d="M86.0301 142.505C84.3401 141.825 83.0401 140.365 82.5701 138.565C80.3401 138.435 78.1001 139.415 76.6901 141.375C74.4901 144.435 75.1601 148.725 78.1901 150.955C80.9301 152.975 84.6701 152.605 86.9801 150.235C85.4201 147.885 85.1501 145.015 86.0301 142.505Z" fill="#F73852"/>
<path d="M91.7205 141.635V151.835C90.5205 151.385 89.4305 150.575 88.6205 149.445C87.2105 147.475 86.9905 145.015 87.8005 142.905C89.2305 142.995 90.6305 142.525 91.7205 141.635Z" fill="#F73852"/>
<path d="M91.7204 120.985V132.535C90.3004 131.375 88.4304 130.995 86.7004 131.435C85.9504 128.895 84.0604 126.725 81.4404 125.745C81.9404 122.455 84.7504 119.935 88.1404 119.935C89.4504 119.945 90.6904 120.325 91.7204 120.985Z" fill="#F73852"/>
<path d="M82.4002 136.725C82.5102 134.885 83.4802 133.185 85.0302 132.175C84.4702 129.985 82.8502 128.125 80.5702 127.375C77.0102 126.205 73.2002 128.175 72.0402 131.775C70.9902 135.045 72.4902 138.525 75.4302 140.025C77.1602 137.815 79.7702 136.665 82.4002 136.725Z" fill="#F73852"/>
<path d="M62.9103 53.315C63.8105 53.315 64.5403 52.5763 64.5403 51.665C64.5403 50.7537 63.8105 50.015 62.9103 50.015C62.0101 50.015 61.2803 50.7537 61.2803 51.665C61.2803 52.5763 62.0101 53.315 62.9103 53.315Z" fill="#F73852"/>
<path d="M62.04 53.8949C61.34 53.6149 60.8099 53.0149 60.6199 52.2749C59.6999 52.2249 58.78 52.6249 58.2 53.4349C57.29 54.6949 57.5699 56.4649 58.8199 57.3849C59.9499 58.2149 61.4899 58.0649 62.4399 57.0849C61.7899 56.1149 61.68 54.9249 62.04 53.8949Z" fill="#20C9AF"/>
<path d="M64.7403 53.1849C64.2603 53.7649 63.5303 54.1049 62.7803 54.0549C62.4503 54.9249 62.5403 55.9349 63.1203 56.7449C64.0303 58.0049 65.7703 58.2849 67.0203 57.3749C68.1503 56.5449 68.4803 55.0149 67.8603 53.7949C66.7403 54.1149 65.5903 53.8549 64.7403 53.1849Z" fill="#20C9AF"/>
<path d="M64.9102 50.375C65.3102 51.015 65.4002 51.825 65.1202 52.535C65.8302 53.125 66.8102 53.345 67.7502 53.035C69.2202 52.555 70.0202 50.955 69.5402 49.475C69.1102 48.125 67.7702 47.335 66.4402 47.555C66.3902 48.725 65.8002 49.755 64.9102 50.375Z" fill="#20C9AF"/>
<path d="M62.3199 49.335C63.0399 49.145 63.8299 49.315 64.4099 49.805C65.1799 49.305 65.6999 48.425 65.6999 47.425C65.6999 45.865 64.4499 44.595 62.9099 44.595C61.5099 44.595 60.3599 45.635 60.1499 46.995C61.2299 47.395 62.0099 48.285 62.3199 49.335Z" fill="#20C9AF"/>
<path d="M60.5401 51.515C60.5901 50.755 60.9901 50.055 61.6201 49.645C61.3901 48.745 60.7201 47.975 59.7801 47.665C58.3101 47.185 56.7401 47.995 56.2701 49.475C55.8401 50.825 56.4601 52.255 57.6701 52.875C58.3901 51.965 59.4601 51.485 60.5401 51.515Z" fill="#20C9AF"/>
<path d="M62.9103 122.445C63.8105 122.445 64.5403 121.706 64.5403 120.795C64.5403 119.884 63.8105 119.145 62.9103 119.145C62.0101 119.145 61.2803 119.884 61.2803 120.795C61.2803 121.706 62.0101 122.445 62.9103 122.445Z" fill="#F73852"/>
<path d="M62.04 123.025C61.34 122.745 60.8099 122.145 60.6199 121.405C59.6999 121.355 58.78 121.755 58.2 122.565C57.29 123.825 57.5699 125.595 58.8199 126.515C59.9499 127.345 61.4899 127.195 62.4399 126.215C61.7899 125.245 61.68 124.055 62.04 123.025Z" fill="#20C9AF"/>
<path d="M64.7403 122.315C64.2603 122.895 63.5303 123.235 62.7803 123.185C62.4503 124.055 62.5403 125.065 63.1203 125.875C64.0303 127.135 65.7703 127.415 67.0203 126.505C68.1503 125.675 68.4803 124.145 67.8603 122.925C66.7403 123.245 65.5903 122.985 64.7403 122.315Z" fill="#20C9AF"/>
<path d="M64.9102 119.505C65.3102 120.145 65.4002 120.955 65.1202 121.665C65.8302 122.255 66.8102 122.475 67.7502 122.165C69.2202 121.685 70.0202 120.085 69.5402 118.605C69.1102 117.255 67.7702 116.465 66.4402 116.685C66.3902 117.855 65.8002 118.885 64.9102 119.505Z" fill="#20C9AF"/>
<path d="M62.3199 118.465C63.0399 118.275 63.8299 118.445 64.4099 118.935C65.1799 118.435 65.6999 117.555 65.6999 116.555C65.6999 114.995 64.4499 113.725 62.9099 113.725C61.5099 113.725 60.3599 114.765 60.1499 116.125C61.2299 116.525 62.0099 117.415 62.3199 118.465Z" fill="#20C9AF"/>
<path d="M60.5401 120.645C60.5901 119.885 60.9901 119.185 61.6201 118.775C61.3901 117.875 60.7201 117.105 59.7801 116.795C58.3101 116.315 56.7401 117.125 56.2701 118.605C55.8401 119.955 56.4601 121.385 57.6701 122.005C58.3901 121.085 59.4601 120.615 60.5401 120.645Z" fill="#20C9AF"/>
<path d="M91.72 0.89502H0V9.96502H91.72V0.89502Z" fill="#FC3851"/>
<path d="M64.17 0.89502H0V9.96502H64.17V0.89502Z" fill="#C12032"/>
</g>
<defs>
<clipPath id="clip0_302_226">
<rect width="91.72" height="168.21" fill="white" transform="translate(0 0.89502)"/>
</clipPath>
</defs>
</svg>
