<svg width="50" height="166" viewBox="0 0 50 166" fill="none" xmlns="http://www.w3.org/2000/svg">
<g clip-path="url(#clip0_301_3276)">
<path d="M49.36 9.80493H0V165.045H49.36V9.80493Z" fill="#2F3986"/>
<path d="M9.53 9.80493H0V165.035H9.53V9.80493Z" fill="#262B65"/>
<path d="M45.3502 40.505C47.5041 40.505 49.2502 38.7589 49.2502 36.605C49.2502 34.451 47.5041 32.705 45.3502 32.705C43.1963 32.705 41.4502 34.451 41.4502 36.605C41.4502 38.7589 43.1963 40.505 45.3502 40.505Z" fill="#20C9AF"/>
<path d="M43.2699 41.895C41.5999 41.235 40.3099 39.805 39.8499 38.055C37.6499 37.925 35.4299 38.885 34.0399 40.805C31.8699 43.795 32.5299 47.975 35.5199 50.155C38.2299 52.125 41.9199 51.765 44.2099 49.455C42.6699 47.145 42.4099 44.345 43.2699 41.895Z" fill="#F73852"/>
<path d="M49.3598 40.645V51.145C47.9898 50.745 46.7398 49.905 45.8398 48.665C44.4498 46.745 44.2198 44.345 45.0298 42.295C46.6498 42.385 48.2198 41.765 49.3598 40.645Z" fill="#F73852"/>
<path d="M49.3597 21.225V31.935C49.2297 32.035 49.0997 32.125 48.9597 32.215C47.5497 31.065 45.6697 30.665 43.9297 31.115C43.1897 28.625 41.3297 26.515 38.7397 25.565C39.2297 22.345 41.9997 19.885 45.3497 19.885C46.8497 19.885 48.2397 20.385 49.3597 21.225Z" fill="#F73852"/>
<path d="M39.68 36.2651C39.79 34.4751 40.75 32.8051 42.28 31.8251C41.72 29.6951 40.13 27.8751 37.87 27.1451C34.36 26.0051 30.58 27.9251 29.44 31.4451C28.4 34.6351 29.89 38.0351 32.79 39.4851C34.51 37.3151 37.09 36.1951 39.68 36.2651Z" fill="#F73852"/>
<path d="M39.3018 88.9337C40.8577 86.3375 40.0144 82.9716 37.4183 81.4157C34.8221 79.8597 31.4562 80.703 29.9003 83.2991C28.3443 85.8953 29.1876 89.2612 31.7838 90.8171C34.3799 92.3731 37.7458 91.5298 39.3018 88.9337Z" fill="#20C9AF"/>
<path d="M36.6697 93.825C34.2297 94.475 31.5897 93.945 29.5997 92.345C27.0097 94.045 25.3097 96.975 25.3397 100.305C25.3897 105.495 29.6397 109.655 34.8297 109.605C39.5297 109.555 43.3997 106.065 44.0397 101.545C40.3897 100.245 37.7397 97.305 36.6697 93.825Z" fill="#F73852"/>
<path d="M49.36 84.5449V99.6449C48.02 99.8349 46.61 99.7449 45.23 99.3049C42.06 98.3149 39.79 95.7849 38.98 92.8049C41.11 91.4049 42.43 89.0549 42.57 86.5349C44.96 86.5649 47.34 85.8849 49.36 84.5449Z" fill="#F73852"/>
<path d="M49.3598 67.955V81.325C47.4598 83.215 44.8698 84.145 42.2998 84.025C41.6298 81.555 39.7998 79.575 37.4498 78.675C38.6298 75.225 38.2198 71.295 36.0298 68.095C39.1998 64.815 44.3798 64.255 48.2098 66.985C48.6198 67.275 49.0098 67.605 49.3598 67.955Z" fill="#F73852"/>
<path d="M28.3898 81.105C29.9798 79.145 32.4298 78.025 34.9798 78.145C36.0798 75.255 35.7298 71.875 33.7498 69.205C30.6598 65.035 24.7798 64.165 20.6098 67.255C16.8298 70.055 15.7598 75.155 17.8998 79.185C21.6098 78.095 25.4798 78.915 28.3898 81.105Z" fill="#F73852"/>
<path d="M27.9099 90.4749C26.5399 88.3649 26.2299 85.6849 27.1299 83.2949C24.7199 81.3549 21.3999 80.645 18.2499 81.705C13.3299 83.355 10.6799 88.685 12.3399 93.605C13.8399 98.065 18.3599 100.655 22.8499 99.875C22.9599 95.985 24.9299 92.5649 27.9099 90.4749Z" fill="#F73852"/>
<path d="M49.3602 132.185V135.435C48.7502 136.785 47.3902 137.715 45.8202 137.715C43.6602 137.715 41.9102 135.965 41.9102 133.815C41.9102 131.655 43.6602 129.905 45.8202 129.905C47.3902 129.905 48.7502 130.835 49.3602 132.185Z" fill="#20C9AF"/>
<path d="M43.7303 139.095C42.0603 138.435 40.7703 137.005 40.3103 135.255C38.1103 135.125 35.8903 136.085 34.5003 138.005C32.3303 140.995 32.9903 145.175 35.9803 147.355C38.6903 149.325 42.3803 148.965 44.6703 146.655C43.1403 144.345 42.8703 141.535 43.7303 139.095Z" fill="#F73852"/>
<path d="M49.3602 138.245V148.195C48.1702 147.755 47.1002 146.965 46.3002 145.865C44.9102 143.945 44.6902 141.545 45.4902 139.485C46.9002 139.575 48.2802 139.115 49.3602 138.245Z" fill="#F73852"/>
<path d="M49.3602 118.105V129.375C47.9602 128.245 46.1102 127.875 44.4002 128.305C43.6602 125.825 41.7902 123.715 39.2002 122.755C39.6902 119.545 42.4702 117.085 45.8202 117.085C47.1202 117.085 48.3402 117.455 49.3602 118.105Z" fill="#F73852"/>
<path d="M40.1502 133.455C40.2602 131.665 41.2202 129.995 42.7502 129.015C42.1902 126.885 40.6002 125.065 38.3402 124.335C34.8302 123.195 31.0502 125.115 29.9102 128.635C28.8702 131.825 30.3602 135.225 33.2602 136.675C34.9702 134.515 37.5502 133.395 40.1502 133.455Z" fill="#F73852"/>
<path d="M20.88 52.085C21.7692 52.085 22.49 51.3642 22.49 50.475C22.49 49.5858 21.7692 48.865 20.88 48.865C19.9908 48.865 19.27 49.5858 19.27 50.475C19.27 51.3642 19.9908 52.085 20.88 52.085Z" fill="#F73852"/>
<path d="M20.0301 52.6549C19.3401 52.3849 18.8101 51.7949 18.6201 51.0749C17.7101 51.0249 16.8001 51.4149 16.2301 52.2049C15.3401 53.4349 15.6101 55.1649 16.8401 56.0549C17.9601 56.8649 19.4801 56.7149 20.4201 55.7649C19.7801 54.8149 19.6701 53.6649 20.0301 52.6549Z" fill="#20C9AF"/>
<path d="M22.69 51.965C22.22 52.535 21.5 52.855 20.75 52.815C20.42 53.665 20.51 54.655 21.09 55.445C21.98 56.675 23.71 56.945 24.94 56.055C26.06 55.245 26.39 53.755 25.77 52.565C24.67 52.865 23.54 52.615 22.69 51.965Z" fill="#20C9AF"/>
<path d="M22.8599 49.2149C23.2599 49.8349 23.3399 50.6249 23.0699 51.3249C23.7699 51.9049 24.7399 52.1149 25.6699 51.8149C27.1199 51.3449 27.9099 49.7849 27.4399 48.3449C27.0099 47.0349 25.6999 46.2549 24.3699 46.4749C24.3299 47.6149 23.7399 48.6149 22.8599 49.2149Z" fill="#20C9AF"/>
<path d="M20.2999 48.215C21.0199 48.035 21.7899 48.195 22.3699 48.665C23.1299 48.175 23.6399 47.315 23.6399 46.345C23.6399 44.825 22.4099 43.585 20.8799 43.585C19.4999 43.585 18.3599 44.595 18.1499 45.925C19.2299 46.315 19.9899 47.185 20.2999 48.215Z" fill="#20C9AF"/>
<path d="M18.55 50.335C18.6 49.595 18.99 48.915 19.62 48.505C19.39 47.625 18.73 46.875 17.8 46.575C16.35 46.105 14.8 46.895 14.33 48.345C13.9 49.655 14.51 51.055 15.71 51.655C16.41 50.765 17.48 50.305 18.55 50.335Z" fill="#20C9AF"/>
<path d="M20.88 119.525C21.7692 119.525 22.49 118.804 22.49 117.915C22.49 117.026 21.7692 116.305 20.88 116.305C19.9908 116.305 19.27 117.026 19.27 117.915C19.27 118.804 19.9908 119.525 20.88 119.525Z" fill="#F73852"/>
<path d="M20.0301 120.085C19.3401 119.815 18.8101 119.225 18.6201 118.505C17.7101 118.455 16.8001 118.845 16.2301 119.635C15.3401 120.865 15.6101 122.595 16.8401 123.485C17.9601 124.295 19.4801 124.145 20.4201 123.195C19.7801 122.255 19.6701 121.095 20.0301 120.085Z" fill="#20C9AF"/>
<path d="M22.69 119.405C22.22 119.975 21.5 120.295 20.75 120.255C20.42 121.105 20.51 122.095 21.09 122.885C21.98 124.115 23.71 124.385 24.94 123.495C26.06 122.685 26.39 121.195 25.77 120.005C24.67 120.305 23.54 120.055 22.69 119.405Z" fill="#20C9AF"/>
<path d="M22.8599 116.655C23.2599 117.275 23.3399 118.065 23.0699 118.765C23.7699 119.345 24.7399 119.555 25.6699 119.255C27.1199 118.785 27.9099 117.225 27.4399 115.785C27.0099 114.475 25.6999 113.695 24.3699 113.915C24.3299 115.045 23.7399 116.045 22.8599 116.655Z" fill="#20C9AF"/>
<path d="M20.2999 115.645C21.0199 115.465 21.7899 115.625 22.3699 116.095C23.1299 115.605 23.6399 114.745 23.6399 113.775C23.6399 112.255 22.4099 111.015 20.8799 111.015C19.4999 111.015 18.3599 112.025 18.1499 113.355C19.2299 113.745 19.9899 114.615 20.2999 115.645Z" fill="#20C9AF"/>
<path d="M18.55 117.765C18.6 117.025 18.99 116.345 19.62 115.935C19.39 115.055 18.73 114.305 17.8 114.005C16.35 113.535 14.8 114.325 14.33 115.775C13.9 117.085 14.51 118.485 15.71 119.085C16.41 118.205 17.48 117.735 18.55 117.765Z" fill="#20C9AF"/>
<path d="M49.36 0.954956H0V9.80496H49.36V0.954956Z" fill="#FC3851"/>
<path d="M22.13 0.954956H0V9.80496H22.13V0.954956Z" fill="#C12032"/>
</g>
<defs>
<clipPath id="clip0_301_3276">
<rect width="49.36" height="164.09" fill="white" transform="translate(0 0.954956)"/>
</clipPath>
</defs>
</svg>
