<svg width="73" height="82" viewBox="0 0 73 82" fill="none" xmlns="http://www.w3.org/2000/svg">
<g clip-path="url(#clip0_301_3441)">
<path d="M72.6099 15.17H0.439941V81.33H72.6099V15.17Z" fill="#FF9166"/>
<path d="M10.3099 15.17H0.439941V81.33H10.3099V15.17Z" fill="#EB564B"/>
<path d="M25.29 81.3301H21.46V60.6001C21.46 59.5401 22.32 58.6901 23.37 58.6901C24.43 58.6901 25.28 59.5501 25.28 60.6001V81.3301H25.29Z" fill="#8C3F5D"/>
<path d="M72.6099 0.670044H0.439941V15.17H72.6099V0.670044Z" fill="#EB564B"/>
<path d="M2.43994 11.4801H0.439941V13.4801H2.43994V11.4801Z" fill="#8C3F5D"/>
<path d="M18.4797 13.4801H14.4697V11.4801H18.4797V13.4801ZM10.4597 13.4801H6.44971V11.4801H10.4597V13.4801Z" fill="#8C3F5D"/>
<path d="M66.5998 13.4801H62.5897V11.4801H66.5998V13.4801ZM58.5797 13.4801H54.5697V11.4801H58.5797V13.4801ZM50.5597 13.4801H46.5497V11.4801H50.5597V13.4801ZM42.5397 13.4801H38.5297V11.4801H42.5397V13.4801ZM34.5197 13.4801H30.5097V11.4801H34.5197V13.4801ZM26.4997 13.4801H22.4897V11.4801H26.4997V13.4801Z" fill="#8C3F5D"/>
<path d="M72.6099 11.4801H70.6099V13.4801H72.6099V11.4801Z" fill="#8C3F5D"/>
</g>
<defs>
<clipPath id="clip0_301_3441">
<rect width="72.17" height="80.66" fill="white" transform="translate(0.439941 0.670044)"/>
</clipPath>
</defs>
</svg>
