<svg width="80" height="78" viewBox="0 0 80 78" fill="none" xmlns="http://www.w3.org/2000/svg">
<g clip-path="url(#clip0_301_11151)">
<path d="M79.1201 7.38H0.0600586V77.44H79.1201V7.38Z" fill="#E9FBF8"/>
<path d="M7.30006 7.38H0.0600586V77.43H7.30006V7.38Z" fill="#9AC1B9"/>
<path d="M76.9701 21.6699C78.1299 21.6699 79.0701 20.7163 79.0701 19.5399C79.0701 18.3635 78.1299 17.4099 76.9701 17.4099C75.8103 17.4099 74.8701 18.3635 74.8701 19.5399C74.8701 20.7163 75.8103 21.6699 76.9701 21.6699Z" fill="#20C9AF"/>
<path d="M75.8502 22.42C74.9502 22.06 74.2602 21.28 74.0102 20.33C72.8302 20.26 71.6302 20.78 70.8902 21.83C69.7202 23.46 70.0802 25.74 71.6902 26.92C73.1502 27.99 75.1302 27.8 76.3602 26.54C75.5302 25.28 75.3802 23.75 75.8502 22.42Z" fill="#1FB6F4"/>
<path d="M79.1205 21.73V27.45C78.3805 27.23 77.7105 26.77 77.2305 26.1C76.4805 25.05 76.3605 23.75 76.7905 22.63C77.6605 22.68 78.5105 22.34 79.1205 21.73Z" fill="#1FB6F4"/>
<path d="M79.1202 11.1599V16.9899C79.0502 17.0399 78.9802 17.0899 78.9002 17.1399C78.1402 16.5099 77.1302 16.2999 76.2002 16.5399C75.8002 15.1799 74.8002 14.0299 73.4102 13.5199C73.6702 11.7699 75.1602 10.4299 76.9602 10.4299C77.7702 10.4299 78.5202 10.6999 79.1202 11.1599Z" fill="#1FB6F4"/>
<path d="M73.9203 19.35C73.9803 18.37 74.5003 17.47 75.3203 16.93C75.0203 15.77 74.1603 14.78 72.9503 14.38C71.0603 13.76 69.0303 14.81 68.4203 16.72C67.8603 18.46 68.6603 20.31 70.2203 21.1C71.1403 19.92 72.5203 19.31 73.9203 19.35Z" fill="#1FB6F4"/>
<path d="M71.1902 42.8999C72.8195 42.8999 74.1402 41.5657 74.1402 39.9199C74.1402 38.2741 72.8195 36.9399 71.1902 36.9399C69.561 36.9399 68.2402 38.2741 68.2402 39.9199C68.2402 41.5657 69.561 42.8999 71.1902 42.8999Z" fill="#20C9AF"/>
<path d="M72.3003 44.1099C70.9903 44.4599 69.5703 44.1799 68.5003 43.3099C67.1103 44.2299 66.1903 45.8299 66.2103 47.6399C66.2403 50.4699 68.5203 52.7299 71.3103 52.7099C73.8403 52.6799 75.9103 50.7799 76.2603 48.3199C74.3003 47.6099 72.8703 46.0099 72.3003 44.1099Z" fill="#1FB6F4"/>
<path d="M79.12 39.0599V47.2799C78.4 47.3799 77.64 47.3299 76.9 47.0899C75.2 46.5499 73.98 45.1699 73.54 43.5499C74.68 42.7899 75.39 41.5099 75.47 40.1399C76.75 40.1599 78.03 39.7899 79.12 39.0599Z" fill="#1FB6F4"/>
<path d="M79.12 30.0199V37.2999C78.1 38.3299 76.71 38.8399 75.33 38.7699C74.97 37.4199 73.99 36.3499 72.72 35.8599C73.35 33.9799 73.13 31.8399 71.96 30.0999C73.66 28.3099 76.45 28.0099 78.51 29.4999C78.72 29.6499 78.93 29.8299 79.12 30.0199Z" fill="#1FB6F4"/>
<path d="M67.85 37.1799C68.7 36.1099 70.02 35.4999 71.39 35.5699C71.98 33.9899 71.79 32.1599 70.73 30.6999C69.07 28.4299 65.91 27.9599 63.67 29.6399C61.64 31.1699 61.06 33.9399 62.21 36.1399C64.21 35.5499 66.28 35.9899 67.85 37.1799Z" fill="#1FB6F4"/>
<path d="M67.5901 42.2899C66.8501 41.1399 66.6801 39.6799 67.1701 38.3799C65.8701 37.3199 64.0901 36.9399 62.4001 37.5099C59.7601 38.4099 58.3301 41.3099 59.2201 43.9899C60.0201 46.4199 62.4501 47.8299 64.8701 47.3999C64.9301 45.2899 65.9901 43.4299 67.5901 42.2899Z" fill="#1FB6F4"/>
<path d="M79.1201 62.4399V64.2099C78.7901 64.9499 78.0601 65.4499 77.2201 65.4499C76.0601 65.4499 75.1201 64.4999 75.1201 63.3299C75.1201 62.1499 76.0601 61.2 77.2201 61.2C78.0601 61.2 78.7901 61.7099 79.1201 62.4399Z" fill="#20C9AF"/>
<path d="M76.1002 66.21C75.2002 65.85 74.5102 65.07 74.2602 64.12C73.0802 64.05 71.8802 64.57 71.1402 65.62C69.9702 67.25 70.3302 69.53 71.9402 70.71C73.4002 71.78 75.3802 71.59 76.6102 70.33C75.7702 69.06 75.6302 67.54 76.1002 66.21Z" fill="#1FB6F4"/>
<path d="M79.1205 65.74V71.16C78.4805 70.92 77.9105 70.49 77.4805 69.89C76.7305 68.84 76.6105 67.54 77.0405 66.42C77.8005 66.47 78.5405 66.22 79.1205 65.74Z" fill="#1FB6F4"/>
<path d="M79.1204 54.77V60.91C78.3704 60.29 77.3704 60.09 76.4504 60.33C76.0504 58.98 75.0504 57.83 73.6504 57.31C73.9104 55.56 75.4104 54.22 77.2104 54.22C77.9204 54.22 78.5704 54.42 79.1204 54.77Z" fill="#1FB6F4"/>
<path d="M74.1703 63.14C74.2303 62.16 74.7503 61.26 75.5703 60.72C75.2703 59.56 74.4103 58.57 73.2003 58.17C71.3103 57.55 69.2803 58.6 68.6703 60.51C68.1103 62.25 68.9103 64.1 70.4703 64.89C71.3903 63.71 72.7703 63.1 74.1703 63.14Z" fill="#1FB6F4"/>
<path d="M64.6798 24.1699C65.1548 24.1699 65.5398 23.7759 65.5398 23.2899C65.5398 22.8039 65.1548 22.4099 64.6798 22.4099C64.2049 22.4099 63.8198 22.8039 63.8198 23.2899C63.8198 23.7759 64.2049 24.1699 64.6798 24.1699Z" fill="#1FB6F4"/>
<path d="M64.22 24.4799C63.85 24.3299 63.57 24.0099 63.46 23.6199C62.97 23.5899 62.48 23.8099 62.17 24.2399C61.69 24.9099 61.84 25.8499 62.5 26.3399C63.1 26.7799 63.92 26.6999 64.42 26.1799C64.08 25.6599 64.03 25.0299 64.22 24.4799Z" fill="#20C9AF"/>
<path d="M65.6498 24.1C65.3998 24.41 65.0098 24.59 64.6098 24.56C64.4298 25.02 64.4798 25.56 64.7898 25.99C65.2698 26.66 66.1998 26.81 66.8598 26.32C67.4598 25.88 67.6398 25.07 67.3098 24.42C66.7098 24.6 66.1098 24.46 65.6498 24.1Z" fill="#20C9AF"/>
<path d="M65.7397 22.61C65.9497 22.95 65.9997 23.38 65.8497 23.76C66.2297 24.07 66.7497 24.19 67.2497 24.03C68.0297 23.77 68.4497 22.93 68.1997 22.14C67.9697 21.42 67.2597 21 66.5497 21.12C66.5297 21.73 66.2097 22.28 65.7397 22.61Z" fill="#20C9AF"/>
<path d="M64.36 22.0599C64.75 21.9599 65.16 22.0499 65.47 22.3099C65.88 22.0399 66.15 21.5799 66.15 21.0499C66.15 20.2199 65.49 19.5499 64.67 19.5499C63.93 19.5499 63.31 20.0999 63.21 20.8199C63.79 21.0299 64.2 21.4999 64.36 22.0599Z" fill="#20C9AF"/>
<path d="M63.4198 23.2099C63.4398 22.8099 63.6598 22.4299 63.9998 22.2099C63.8798 21.7299 63.5198 21.3199 63.0198 21.1599C62.2398 20.8999 61.4098 21.3399 61.1498 22.1199C60.9198 22.8399 61.2498 23.5999 61.8898 23.9299C62.2798 23.4499 62.8498 23.1999 63.4198 23.2099Z" fill="#20C9AF"/>
<path d="M64.4201 56.3199C64.895 56.3199 65.2801 55.9259 65.2801 55.4399C65.2801 54.9539 64.895 54.5599 64.4201 54.5599C63.9451 54.5599 63.5601 54.9539 63.5601 55.4399C63.5601 55.9259 63.9451 56.3199 64.4201 56.3199Z" fill="#F73852"/>
<path d="M63.9597 56.6299C63.5897 56.4799 63.3097 56.1599 63.1997 55.7699C62.7097 55.7399 62.2197 55.9599 61.9097 56.3899C61.4297 57.0599 61.5797 57.9999 62.2397 58.4899C62.8397 58.9299 63.6597 58.8499 64.1597 58.3299C63.8297 57.7999 63.7697 57.1799 63.9597 56.6299Z" fill="#20C9AF"/>
<path d="M65.3998 56.25C65.1498 56.56 64.7598 56.74 64.3598 56.71C64.1798 57.17 64.2298 57.71 64.5398 58.14C65.0198 58.81 65.9498 58.96 66.6098 58.47C67.2098 58.03 67.3898 57.22 67.0598 56.57C66.4598 56.74 65.8498 56.61 65.3998 56.25Z" fill="#20C9AF"/>
<path d="M65.4897 54.76C65.6997 55.1 65.7497 55.53 65.5997 55.91C65.9797 56.22 66.4997 56.34 66.9997 56.18C67.7797 55.92 68.1997 55.08 67.9497 54.29C67.7197 53.57 67.0097 53.15 66.2997 53.27C66.2797 53.88 65.9597 54.43 65.4897 54.76Z" fill="#20C9AF"/>
<path d="M64.11 54.2099C64.5 54.1099 64.91 54.1999 65.22 54.4599C65.63 54.1899 65.9 53.73 65.9 53.2C65.9 52.37 65.24 51.7 64.42 51.7C63.68 51.7 63.06 52.25 62.96 52.97C63.53 53.17 63.95 53.6499 64.11 54.2099Z" fill="#20C9AF"/>
<path d="M63.1698 55.3599C63.1898 54.9599 63.4098 54.5799 63.7498 54.3599C63.6298 53.8799 63.2698 53.4699 62.7698 53.3099C61.9898 53.0499 61.1598 53.4899 60.8998 54.2699C60.6698 54.9899 60.9998 55.7499 61.6398 56.0799C62.0198 55.5999 62.5898 55.3499 63.1698 55.3599Z" fill="#1FB6F4"/>
<path d="M74.3401 0.569946H4.84006C2.20006 0.569946 0.0600586 2.70995 0.0600586 5.34995V7.37995H79.1201V5.34995C79.1201 2.70995 76.9801 0.569946 74.3401 0.569946Z" fill="#21D2B2"/>
<path d="M58.4401 0.569946H4.84006C2.20006 0.569946 0.0600586 2.70995 0.0600586 5.34995V7.37995H58.4401V0.569946Z" fill="#197C7A"/>
</g>
<defs>
<clipPath id="clip0_301_11151">
<rect width="79.06" height="76.86" fill="white" transform="translate(0.0600586 0.569946)"/>
</clipPath>
</defs>
</svg>
