<svg width="80" height="50" viewBox="0 0 80 50" fill="none" xmlns="http://www.w3.org/2000/svg">
<g clip-path="url(#clip0_301_11249)">
<path d="M79.81 9.19495H0.540039V49.6849H79.81V9.19495Z" fill="#FF9166"/>
<path d="M6.60004 9.19495H0.540039V49.6849H6.60004V9.19495Z" fill="#EB564B"/>
<path d="M15.8002 49.685H13.4502V32.625C13.4502 31.985 13.9702 31.455 14.6202 31.455H14.6402C15.2802 31.455 15.8102 31.975 15.8102 32.625V49.685H15.8002Z" fill="#8C3F5D"/>
<path d="M75.85 0.314941H4.50004C2.31004 0.314941 0.540039 2.08494 0.540039 4.27494V9.19494H79.81V4.27494C79.81 2.08494 78.04 0.314941 75.85 0.314941Z" fill="#EB564B"/>
<path d="M3.17004 6.31494H0.540039V8.07494H3.17004V6.31494Z" fill="#8C3F5D"/>
<path d="M20.5903 8.06494H16.2403V6.31494H20.5903V8.06494ZM11.8803 8.06494H7.53027V6.31494H11.8803V8.06494Z" fill="#8C3F5D"/>
<path d="M72.8199 8.06494H68.4699V6.31494H72.8199V8.06494ZM64.1199 8.06494H59.7699V6.31494H64.1199V8.06494ZM55.4099 8.06494H51.0599V6.31494H55.4099V8.06494ZM46.6999 8.06494H42.3499V6.31494H46.6999V8.06494ZM37.9999 8.06494H33.6499V6.31494H37.9999V8.06494ZM29.2899 8.06494H24.9399V6.31494H29.2899V8.06494Z" fill="#8C3F5D"/>
<path d="M79.8102 6.31494H77.1802V8.07494H79.8102V6.31494Z" fill="#8C3F5D"/>
</g>
<defs>
<clipPath id="clip0_301_11249">
<rect width="79.27" height="49.37" fill="white" transform="translate(0.540039 0.314941)"/>
</clipPath>
</defs>
</svg>
