<svg width="56" height="114" viewBox="0 0 56 114" fill="none" xmlns="http://www.w3.org/2000/svg">
<g clip-path="url(#clip0_301_14421)">
<path d="M49.4 8.08997H0.0400391V34.33H49.4V8.08997Z" fill="#9AA4D1"/>
<path d="M15.05 11.3099C15.05 11.4399 15.05 11.5799 15.04 11.7099C14.84 19.8299 8.20004 26.3599 0.0400391 26.4099V2.31995H12.1C13.34 4.00995 14.25 5.95995 14.71 8.08995C14.78 8.39995 14.83 8.70995 14.88 9.02995C14.99 9.76995 15.05 10.5399 15.05 11.3099Z" fill="#747B9D"/>
<path d="M49.3999 8.09V26.41C45.8499 26.39 42.5899 25.13 40.0299 23.07C39.8799 22.95 39.7399 22.83 39.6099 22.71C39.3899 22.52 39.1899 22.33 38.9799 22.13C38.6399 21.79 38.3099 21.44 37.9899 21.08C37.9799 21.07 37.9799 21.07 37.9699 21.06C35.8299 18.52 34.5099 15.27 34.4099 11.71C34.3999 11.58 34.3999 11.44 34.3999 11.31C34.3999 10.21 34.5199 9.13 34.7499 8.09C35.0399 6.73 35.5099 5.44 36.1399 4.25C35.8199 5.49 35.6399 6.78 35.6099 8.09H49.3999Z" fill="#747B9D"/>
<path d="M16.22 8.08995C16.12 6.08995 15.7 4.15995 14.97 2.31995H12.35C13.2 4.11995 13.69 6.07995 13.82 8.08995C13.84 8.42995 13.85 8.77995 13.85 9.11995C13.85 9.23995 13.85 9.37995 13.84 9.56995C13.65 17.4099 7.65004 23.9399 0.0400391 25.0399V27.4599C8.94004 26.3299 16.01 18.7699 16.23 9.69995C16.25 9.51995 16.25 9.31995 16.25 9.11995C16.25 8.76995 16.24 8.42995 16.22 8.08995Z" fill="#595E78"/>
<path d="M35.6102 8.85995C35.6002 8.73995 35.6002 8.60995 35.6002 8.48995C35.6002 8.35995 35.6002 8.21995 35.6102 8.08995C35.6402 6.77995 35.8202 5.48995 36.1402 4.24995C36.3102 3.58995 36.5102 2.94995 36.7602 2.31995H34.2102C33.5902 4.16995 33.2402 6.09995 33.2102 8.08995C33.2002 8.21995 33.2002 8.35995 33.2002 8.48995C33.2002 8.67995 33.2002 8.87995 33.2102 8.99995C33.3302 13.5999 35.1202 17.8099 37.9702 21.0599C37.9802 21.0699 37.9802 21.0699 37.9902 21.0799C38.3102 21.4399 38.6402 21.7899 38.9802 22.1299C39.1902 22.3299 39.3902 22.5199 39.6102 22.7099C39.7402 22.8299 39.8802 22.9499 40.0302 23.0699C42.6502 25.2999 45.8802 26.8299 49.4002 27.3699V24.9499C41.7702 23.5799 35.8202 16.9199 35.6102 8.85995Z" fill="#595E78"/>
<path d="M49.41 0.189941V9.03994H49.4V9.02994H0.0400391V0.189941H49.41Z" fill="#5C627C"/>
<path d="M37.8896 26.09V110.75H54.6396V26.09C54.6396 21.46 50.8897 17.71 46.2597 17.71C41.6397 17.71 37.8896 21.46 37.8896 26.09Z" fill="#7A82A6"/>
<path d="M17.5798 110.75H34.3298V26.09C34.3298 21.46 30.5798 17.71 25.9498 17.71C21.3198 17.71 17.5698 21.46 17.5698 26.09V110.75H17.5798Z" fill="#8490BC"/>
<path d="M54.6197 109.46H37.9997C37.2897 109.46 36.7197 110.03 36.7197 110.74V112.54C36.7197 113.25 37.2897 113.82 37.9997 113.82H54.6197C55.3297 113.82 55.8997 113.25 55.8997 112.54V110.74C55.8997 110.03 55.3297 109.46 54.6197 109.46Z" fill="#595E78"/>
<path d="M34.2198 109.46H17.5998C16.8898 109.46 16.3198 110.03 16.3198 110.74V112.54C16.3198 113.25 16.8898 113.82 17.5998 113.82H34.2198C34.9298 113.82 35.4998 113.25 35.4998 112.54V110.74C35.4998 110.03 34.9298 109.46 34.2198 109.46Z" fill="#595E78"/>
<path d="M46.3097 110.28C45.8597 110.28 45.4897 109.91 45.4897 109.46V28.83C45.4897 28.38 45.8597 28.01 46.3097 28.01C46.7597 28.01 47.1297 28.38 47.1297 28.83V109.46C47.1297 109.92 46.7697 110.28 46.3097 110.28Z" fill="#595E78"/>
</g>
<defs>
<clipPath id="clip0_301_14421">
<rect width="55.86" height="113.62" fill="white" transform="translate(0.0400391 0.189941)"/>
</clipPath>
</defs>
</svg>
