<svg width="52" height="32" viewBox="0 0 52 32" fill="none" xmlns="http://www.w3.org/2000/svg">
<g clip-path="url(#clip0_301_5334)">
<path d="M51.4998 5.79993H0.339844V31.9299H51.4998V5.79993Z" fill="#FF9166"/>
<path d="M4.24984 5.79993H0.339844V31.9299H4.24984V5.79993Z" fill="#EB564B"/>
<path d="M10.1899 31.9299H8.66992V20.9299C8.66992 20.5099 9.00992 20.1699 9.42992 20.1699C9.84992 20.1699 10.1899 20.5099 10.1899 20.9299V31.9299Z" fill="#8C3F5D"/>
<path d="M51.4998 0.0699463H0.339844V5.79995H51.4998V0.0699463Z" fill="#EB564B"/>
<path d="M2.03984 3.93994H0.339844V5.06994H2.03984V3.93994Z" fill="#8C3F5D"/>
<path d="M13.2796 5.06994H10.4696V3.93994H13.2796V5.06994ZM7.65961 5.06994H4.84961V3.93994H7.65961V5.06994Z" fill="#8C3F5D"/>
<path d="M46.9898 5.06994H44.1798V3.93994H46.9898V5.06994ZM41.3698 5.06994H38.5598V3.93994H41.3698V5.06994ZM35.7498 5.06994H32.9398V3.93994H35.7498V5.06994ZM30.1298 5.06994H27.3198V3.93994H30.1298V5.06994ZM24.5198 5.06994H21.7098V3.93994H24.5198V5.06994ZM18.8998 5.06994H16.0898V3.93994H18.8998V5.06994Z" fill="#8C3F5D"/>
<path d="M51.4998 3.93994H49.7998V5.06994H51.4998V3.93994Z" fill="#8C3F5D"/>
</g>
<defs>
<clipPath id="clip0_301_5334">
<rect width="51.16" height="31.86" fill="white" transform="translate(0.339844 0.0699463)"/>
</clipPath>
</defs>
</svg>
