<svg width="64" height="100" viewBox="0 0 64 100" fill="none" xmlns="http://www.w3.org/2000/svg">
<g clip-path="url(#clip0_301_14271)">
<path d="M10.3896 9.13V35.37H50.2197V9.13H22.9896H10.3896Z" fill="#2F3986"/>
<path d="M10.3899 9.13H0.859863V35.37H10.3899V9.13Z" fill="#262B65"/>
<path d="M50.2197 9.13003V0.280029H22.9897V9.13003H50.2197Z" fill="#FC3851"/>
<path d="M22.9899 0.280029H0.859863V9.13003H22.9899V0.280029Z" fill="#C12032"/>
<path d="M16.7598 97.5301H63.2898V29.8301C63.2898 24.8701 59.2698 20.8401 54.2998 20.8401H25.7398V97.5301H16.7598Z" fill="#2F3986"/>
<path d="M16.7598 97.5301H25.7498V20.8401C20.7898 20.8401 16.7598 24.8601 16.7598 29.8301V97.5301Z" fill="#262B65"/>
<mask id="mask0_301_14271" style="mask-type:luminance" maskUnits="userSpaceOnUse" x="16" y="20" width="48" height="78">
<path d="M16.7598 97.5301H63.2898V29.8301C63.2898 24.8701 59.2698 20.8401 54.2998 20.8401H25.7398V97.5301H16.7598Z" fill="white"/>
</mask>
<g mask="url(#mask0_301_14271)">
<path d="M61.3901 30.6101C62.7708 30.6101 63.8901 29.4908 63.8901 28.1101C63.8901 26.7294 62.7708 25.6101 61.3901 25.6101C60.0094 25.6101 58.8901 26.7294 58.8901 28.1101C58.8901 29.4908 60.0094 30.6101 61.3901 30.6101Z" fill="#20C9AF"/>
<path d="M60.0602 31.4902C58.9902 31.0702 58.1702 30.1602 57.8702 29.0302C56.4602 28.9502 55.0402 29.5602 54.1502 30.7902C52.7602 32.7002 53.1902 35.3802 55.1002 36.7702C56.8302 38.0302 59.1902 37.8002 60.6502 36.3202C59.6802 34.8402 59.5102 33.0502 60.0602 31.4902Z" fill="#F73852"/>
<path d="M63.9501 30.6902V37.4002C63.0701 37.1402 62.2701 36.6102 61.7001 35.8102C60.8101 34.5802 60.6601 33.0502 61.1801 31.7402C62.2201 31.8002 63.2201 31.4002 63.9501 30.6902Z" fill="#F73852"/>
<path d="M63.9499 18.2701V25.1202C63.8699 25.1802 63.7799 25.2402 63.6899 25.3002C62.7899 24.5602 61.5899 24.3101 60.4699 24.6001C59.9999 23.0101 58.8099 21.6602 57.1499 21.0502C57.4599 18.9902 59.2299 17.4201 61.3799 17.4201C62.3499 17.4101 63.2399 17.7301 63.9499 18.2701Z" fill="#F73852"/>
<path d="M57.76 27.8902C57.83 26.7402 58.44 25.6802 59.42 25.0502C59.06 23.6902 58.04 22.5302 56.6 22.0602C54.35 21.3302 51.94 22.5602 51.21 24.8102C50.55 26.8502 51.5 29.0202 53.35 29.9502C54.46 28.5602 56.11 27.8402 57.76 27.8902Z" fill="#F73852"/>
<path d="M54.5098 63.2601C56.4428 63.2601 58.0098 61.6931 58.0098 59.7601C58.0098 57.8271 56.4428 56.2601 54.5098 56.2601C52.5768 56.2601 51.0098 57.8271 51.0098 59.7601C51.0098 61.6931 52.5768 63.2601 54.5098 63.2601Z" fill="#20C9AF"/>
<path d="M55.8399 64.6901C54.2799 65.1101 52.5899 64.7701 51.3199 63.7501C49.6599 64.8301 48.5799 66.7101 48.5999 68.8401C48.6299 72.1601 51.3499 74.8201 54.6699 74.7901C57.6799 74.7601 60.1499 72.5301 60.5599 69.6401C58.2099 68.7901 56.5199 66.9201 55.8399 64.6901Z" fill="#F73852"/>
<path d="M63.9496 58.7601V68.4101C63.0896 68.5301 62.1896 68.4701 61.3096 68.1901C59.2796 67.5601 57.8296 65.9401 57.3096 64.0301C58.6696 63.1301 59.5196 61.6301 59.6096 60.0201C61.1396 60.0501 62.6596 59.6101 63.9496 58.7601Z" fill="#F73852"/>
<path d="M63.9497 48.1501V56.7001C62.7397 57.9101 61.0797 58.5001 59.4397 58.4301C59.0097 56.8501 57.8397 55.5801 56.3397 55.0101C57.0897 52.8001 56.8297 50.2901 55.4297 48.2501C57.4597 46.1501 60.7697 45.7901 63.2197 47.5401C63.4797 47.7101 63.7297 47.9201 63.9497 48.1501Z" fill="#F73852"/>
<path d="M50.5498 56.5601C51.5698 55.3101 53.1298 54.5901 54.7598 54.6701C55.4598 52.8201 55.2398 50.6601 53.9698 48.9501C51.9898 46.2901 48.2298 45.7301 45.5698 47.7001C43.1498 49.4901 42.4698 52.7501 43.8398 55.3301C46.2098 54.6301 48.6798 55.1601 50.5498 56.5601Z" fill="#F73852"/>
<path d="M50.2397 62.5501C49.3597 61.2001 49.1597 59.4901 49.7397 57.9601C48.1997 56.7201 46.0797 56.2701 44.0597 56.9401C40.9197 58.0001 39.2197 61.4001 40.2797 64.5501C41.2397 67.4001 44.1297 69.0601 46.9997 68.5601C47.0697 66.0701 48.3297 63.8901 50.2397 62.5501Z" fill="#F73852"/>
<path d="M63.9499 89.2201V91.3001C63.5599 92.1601 62.6899 92.7602 61.6899 92.7602C60.3099 92.7602 59.1899 91.6401 59.1899 90.2701C59.1899 88.8901 60.3099 87.7701 61.6899 87.7701C62.6899 87.7601 63.5599 88.3501 63.9499 89.2201Z" fill="#20C9AF"/>
<path d="M60.3498 93.6402C59.2798 93.2202 58.4598 92.3102 58.1598 91.1802C56.7498 91.1002 55.3298 91.7102 54.4398 92.9402C53.0498 94.8502 53.4798 97.5302 55.3898 98.9202C57.1198 100.18 59.4798 99.9502 60.9398 98.4702C59.9698 96.9902 59.7998 95.2002 60.3498 93.6402Z" fill="#F73852"/>
<path d="M63.9496 93.0902V99.4502C63.1896 99.1702 62.4996 98.6602 61.9896 97.9602C61.0996 96.7302 60.9596 95.2002 61.4696 93.8802C62.3796 93.9402 63.2596 93.6502 63.9496 93.0902Z" fill="#F73852"/>
<path d="M63.95 80.2102V87.4202C63.05 86.7002 61.87 86.4602 60.78 86.7402C60.31 85.1502 59.11 83.8102 57.46 83.1902C57.77 81.1402 59.55 79.5602 61.69 79.5602C62.52 79.5602 63.3 79.8002 63.95 80.2102Z" fill="#F73852"/>
<path d="M58.0598 90.0302C58.1298 88.8802 58.7398 87.8202 59.7198 87.1902C59.3598 85.8302 58.3398 84.6702 56.8998 84.2002C54.6498 83.4702 52.2398 84.7002 51.5098 86.9502C50.8498 88.9902 51.7998 91.1602 53.6498 92.0902C54.7498 90.7102 56.3998 89.9902 58.0598 90.0302Z" fill="#F73852"/>
<path d="M45.7395 38.0002C46.3083 38.0002 46.7695 37.539 46.7695 36.9702C46.7695 36.4013 46.3083 35.9402 45.7395 35.9402C45.1706 35.9402 44.7095 36.4013 44.7095 36.9702C44.7095 37.539 45.1706 38.0002 45.7395 38.0002Z" fill="#F73852"/>
<path d="M45.1996 38.3702C44.7596 38.2002 44.4196 37.8202 44.2996 37.3602C43.7196 37.3302 43.1396 37.5802 42.7696 38.0802C42.1996 38.8702 42.3696 39.9702 43.1596 40.5402C43.8696 41.0602 44.8496 40.9602 45.4496 40.3502C45.0396 39.7502 44.9696 39.0102 45.1996 38.3702Z" fill="#20C9AF"/>
<path d="M46.8999 37.9302C46.5999 38.2902 46.1399 38.5002 45.6599 38.4702C45.4499 39.0102 45.5099 39.6402 45.8699 40.1502C46.4399 40.9402 47.5399 41.1102 48.3299 40.5402C49.0399 40.0202 49.2499 39.0702 48.8599 38.3102C48.1699 38.5002 47.4399 38.3402 46.8999 37.9302Z" fill="#20C9AF"/>
<path d="M47.0098 36.1702C47.2598 36.5702 47.3198 37.0702 47.1398 37.5202C47.5898 37.8902 48.2098 38.0302 48.7998 37.8302C49.7298 37.5302 50.2298 36.5302 49.9298 35.6102C49.6598 34.7702 48.8098 34.2802 47.9698 34.4102C47.9498 35.1402 47.5698 35.7802 47.0098 36.1702Z" fill="#20C9AF"/>
<path d="M45.3695 35.5302C45.8295 35.4102 46.3195 35.5202 46.6895 35.8202C47.1795 35.5102 47.4995 34.9602 47.4995 34.3402C47.4995 33.3702 46.7095 32.5802 45.7395 32.5802C44.8595 32.5802 44.1295 33.2302 43.9995 34.0802C44.6795 34.3102 45.1795 34.8702 45.3695 35.5302Z" fill="#20C9AF"/>
<path d="M44.2496 36.8802C44.2796 36.4102 44.5296 35.9702 44.9396 35.7102C44.7896 35.1502 44.3696 34.6702 43.7796 34.4802C42.8496 34.1802 41.8596 34.6902 41.5596 35.6102C41.2896 36.4502 41.6796 37.3502 42.4396 37.7302C42.8896 37.1602 43.5696 36.8702 44.2496 36.8802Z" fill="#20C9AF"/>
<path d="M45.7395 81.1202C46.3083 81.1202 46.7695 80.659 46.7695 80.0902C46.7695 79.5213 46.3083 79.0602 45.7395 79.0602C45.1706 79.0602 44.7095 79.5213 44.7095 80.0902C44.7095 80.659 45.1706 81.1202 45.7395 81.1202Z" fill="#F73852"/>
<path d="M45.1996 81.4802C44.7596 81.3102 44.4196 80.9302 44.2996 80.4702C43.7196 80.4402 43.1396 80.6902 42.7696 81.1902C42.1996 81.9802 42.3696 83.0802 43.1596 83.6502C43.8696 84.1702 44.8496 84.0702 45.4496 83.4602C45.0396 82.8702 44.9696 82.1302 45.1996 81.4802Z" fill="#20C9AF"/>
<path d="M46.8999 81.0402C46.5999 81.4002 46.1399 81.6102 45.6599 81.5802C45.4499 82.1202 45.5099 82.7502 45.8699 83.2602C46.4399 84.0502 47.5399 84.2202 48.3299 83.6502C49.0399 83.1302 49.2499 82.1802 48.8599 81.4202C48.1699 81.6202 47.4399 81.4602 46.8999 81.0402Z" fill="#20C9AF"/>
<path d="M47.0098 79.2902C47.2598 79.6902 47.3198 80.1902 47.1398 80.6402C47.5898 81.0102 48.2098 81.1502 48.7998 80.9502C49.7298 80.6502 50.2298 79.6502 49.9298 78.7302C49.6598 77.8902 48.8098 77.4002 47.9698 77.5302C47.9498 78.2602 47.5698 78.9002 47.0098 79.2902Z" fill="#20C9AF"/>
<path d="M45.3695 78.6402C45.8295 78.5202 46.3195 78.6302 46.6895 78.9302C47.1795 78.6202 47.4995 78.0702 47.4995 77.4502C47.4995 76.4802 46.7095 75.6902 45.7395 75.6902C44.8595 75.6902 44.1295 76.3402 43.9995 77.1902C44.6795 77.4302 45.1795 77.9902 45.3695 78.6402Z" fill="#20C9AF"/>
<path d="M44.2496 80.0002C44.2796 79.5302 44.5296 79.0902 44.9396 78.8302C44.7896 78.2702 44.3696 77.7902 43.7796 77.6002C42.8496 77.3002 41.8596 77.8102 41.5596 78.7302C41.2896 79.5702 41.6796 80.4702 42.4396 80.8502C42.8896 80.2802 43.5696 79.9802 44.2496 80.0002Z" fill="#20C9AF"/>
</g>
</g>
<defs>
<clipPath id="clip0_301_14271">
<rect width="63.09" height="99.44" fill="white" transform="translate(0.859863 0.280029)"/>
</clipPath>
</defs>
</svg>
