<svg width="54" height="168" viewBox="0 0 54 168" fill="none" xmlns="http://www.w3.org/2000/svg">
<g clip-path="url(#clip0_301_3405)">
<path d="M2.24023 0.38501V163.885H22.5902V42.665C24.0402 42.915 25.5602 43.045 27.1002 43.045C28.5002 43.045 29.8702 42.945 31.2102 42.725V163.885H51.5602V0.38501H2.24023Z" fill="#9AA4D1"/>
<path d="M51.8003 162.325H31.0603C30.3503 162.325 29.7803 162.895 29.7803 163.605V166.335C29.7803 167.045 30.3503 167.615 31.0603 167.615H51.8003C52.5103 167.615 53.0803 167.045 53.0803 166.335V163.605C53.0803 162.895 52.5003 162.325 51.8003 162.325Z" fill="#595E78"/>
<path d="M17.62 8.99501C17.62 9.12501 17.62 9.25501 17.61 9.38501C17.41 17.195 11.01 23.475 3.12998 23.475C2.82998 23.475 2.52998 23.465 2.22998 23.445V0.38501H14.79C16.57 2.78501 17.62 5.76501 17.62 8.99501Z" fill="#747B9D"/>
<path d="M51.5599 0.385V23.435C51.2599 23.455 50.9599 23.465 50.6499 23.465C42.7899 23.465 36.3799 17.185 36.1799 9.375C36.1699 9.245 36.1699 9.115 36.1699 8.985C36.1699 5.755 37.2299 2.775 38.9999 0.375H51.5599V0.385Z" fill="#747B9D"/>
<path d="M17.5402 0.38501H15.0302C15.9702 2.40501 16.4702 4.62501 16.4702 6.90501C16.4702 7.01501 16.4702 7.14501 16.4602 7.33501C16.2602 15.205 9.99023 21.675 2.24023 22.285V24.585C11.2302 23.975 18.5302 16.485 18.7502 7.46501C18.7702 7.29501 18.7702 7.09501 18.7702 6.91501C18.7702 4.63501 18.3602 2.44501 17.5402 0.38501Z" fill="#595E78"/>
<path d="M37.33 6.65501C37.32 6.53501 37.32 6.41501 37.32 6.29501C37.32 4.24501 37.7 2.24501 38.44 0.38501H35.99C35.36 2.27501 35.02 4.26501 35.02 6.29501C35.02 6.47501 35.02 6.67501 35.03 6.78501C35.27 16.015 42.52 23.635 51.55 24.525V22.215C43.76 21.335 37.54 14.725 37.33 6.65501Z" fill="#595E78"/>
<path d="M22.5902 42.665V163.885H2.24023V25.235C2.24023 25.235 5.12024 40.315 22.5902 42.665Z" fill="#7A82A6"/>
<path d="M22.7302 162.325H2.00021C1.29021 162.325 0.720215 162.895 0.720215 163.605V166.335C0.720215 167.045 1.29021 167.615 2.00021 167.615H22.7402C23.4502 167.615 24.0202 167.045 24.0202 166.335V163.605C24.0102 162.895 23.4402 162.325 22.7302 162.325Z" fill="#595E78"/>
<path d="M51.5602 0.38501H2.24023V9.38501H51.5602V0.38501Z" fill="#5C627C"/>
<path d="M41.4302 163.325C40.8802 163.325 40.4302 162.875 40.4302 162.325V45.845C40.4302 45.295 40.8802 44.845 41.4302 44.845C41.9802 44.845 42.4302 45.295 42.4302 45.845V162.325C42.4302 162.885 41.9802 163.325 41.4302 163.325Z" fill="#595E78"/>
</g>
<defs>
<clipPath id="clip0_301_3405">
<rect width="52.36" height="167.23" fill="white" transform="translate(0.720215 0.38501)"/>
</clipPath>
</defs>
</svg>
