<svg width="52" height="50" viewBox="0 0 52 50" fill="none" xmlns="http://www.w3.org/2000/svg">
<g clip-path="url(#clip0_301_5235)">
<path d="M51.03 4.58496H0V49.805H51.03V4.58496Z" fill="#2F3986"/>
<path d="M4.67 4.58496H0V49.795H4.67V4.58496Z" fill="#262B65"/>
<path d="M49.64 13.8049C50.3856 13.8049 50.99 13.1916 50.99 12.4349C50.99 11.6783 50.3856 11.0649 49.64 11.0649C48.8945 11.0649 48.29 11.6783 48.29 12.4349C48.29 13.1916 48.8945 13.8049 49.64 13.8049Z" fill="#20C9AF"/>
<path d="M48.9099 14.2949C48.3299 14.0649 47.8799 13.5649 47.7199 12.9449C46.9599 12.8949 46.1899 13.2349 45.6999 13.9049C44.9499 14.9549 45.1799 16.4249 46.2099 17.1849C47.1499 17.8749 48.4299 17.7549 49.2199 16.9349C48.7099 16.1449 48.6099 15.1549 48.9099 14.2949Z" fill="#F73852"/>
<path d="M51.0302 13.855V17.545C50.5502 17.405 50.1202 17.105 49.8102 16.675C49.3302 16.005 49.2502 15.155 49.5302 14.435C50.0902 14.465 50.6302 14.245 51.0302 13.855Z" fill="#F73852"/>
<path d="M51.0301 7.02492V10.7849C50.9801 10.8249 50.9401 10.8549 50.8901 10.8849C50.4001 10.4849 49.7501 10.3449 49.1501 10.4949C48.8901 9.61492 48.2501 8.87492 47.3501 8.54492C47.5201 7.41492 48.4801 6.54492 49.6401 6.54492C50.1601 6.55492 50.6401 6.73492 51.0301 7.02492Z" fill="#F73852"/>
<path d="M47.67 12.3149C47.71 11.6849 48.04 11.1049 48.57 10.7549C48.38 10.0049 47.82 9.36492 47.04 9.11492C45.82 8.71492 44.51 9.38492 44.12 10.6249C43.76 11.7449 44.28 12.9349 45.28 13.4549C45.87 12.6849 46.77 12.2949 47.67 12.3149Z" fill="#F73852"/>
<path d="M45.9 27.5149C46.9493 27.5149 47.8 26.6508 47.8 25.5849C47.8 24.519 46.9493 23.6549 45.9 23.6549C44.8507 23.6549 44 24.519 44 25.5849C44 26.6508 44.8507 27.5149 45.9 27.5149Z" fill="#20C9AF"/>
<path d="M46.6201 28.2949C45.7801 28.5249 44.8601 28.3349 44.1701 27.7749C43.2701 28.3749 42.6801 29.4049 42.6901 30.5749C42.7101 32.3949 44.1801 33.8649 45.9801 33.8449C47.6101 33.8249 48.9501 32.6049 49.1701 31.0149C47.9101 30.5549 47.0001 29.5249 46.6201 28.2949Z" fill="#F73852"/>
<path d="M51.0302 25.0349V30.3449C50.5702 30.4149 50.0802 30.3849 49.6002 30.2249C48.5002 29.8749 47.7102 28.9849 47.4302 27.9449C48.1702 27.4549 48.6302 26.6249 48.6802 25.7449C49.5002 25.7449 50.3302 25.5049 51.0302 25.0349Z" fill="#F73852"/>
<path d="M51.0302 19.2049V23.9049C50.3702 24.5649 49.4702 24.8949 48.5802 24.8549C48.3502 23.9849 47.7102 23.2949 46.9002 22.9749C47.3102 21.7649 47.1702 20.3849 46.4102 19.2549C47.5102 18.1049 49.3102 17.9049 50.6402 18.8649C50.7702 18.9649 50.9002 19.0849 51.0302 19.2049Z" fill="#F73852"/>
<path d="M43.7499 23.825C44.2999 23.135 45.1499 22.745 46.0399 22.785C46.4199 21.765 46.2999 20.585 45.6099 19.645C44.5399 18.185 42.4999 17.875 41.0499 18.955C39.7399 19.935 39.3699 21.735 40.1099 23.145C41.3999 22.765 42.7399 23.055 43.7499 23.825Z" fill="#F73852"/>
<path d="M43.5801 27.1149C43.1001 26.3749 43.0001 25.4349 43.3101 24.5949C42.4701 23.9149 41.3201 23.6649 40.2301 24.0349C38.5201 24.6149 37.6101 26.4849 38.1801 28.2149C38.7001 29.7849 40.2701 30.6949 41.8301 30.4149C41.8701 29.0549 42.5501 27.8549 43.5801 27.1149Z" fill="#F73852"/>
<path d="M51.0299 40.125V41.2649C50.8199 41.7349 50.3499 42.0649 49.7999 42.0649C49.0499 42.0649 48.4399 41.445 48.4399 40.695C48.4399 39.935 49.0499 39.325 49.7999 39.325C50.3399 39.325 50.8099 39.655 51.0299 40.125Z" fill="#20C9AF"/>
<path d="M49.0701 42.5549C48.4901 42.3249 48.0401 41.8249 47.8801 41.2049C47.1201 41.1549 46.3501 41.4949 45.8601 42.1649C45.1101 43.2149 45.3401 44.6849 46.3701 45.4449C47.3101 46.1349 48.5901 46.0149 49.3801 45.1949C48.8701 44.4049 48.7701 43.4149 49.0701 42.5549Z" fill="#F73852"/>
<path d="M51.0304 42.2549V45.7549C50.6204 45.6049 50.2504 45.3249 49.9704 44.9349C49.4904 44.2649 49.4103 43.4149 49.6903 42.6949C50.1703 42.7249 50.6504 42.5649 51.0304 42.2549Z" fill="#F73852"/>
<path d="M51.0303 35.1749V39.1349C50.5403 38.7349 49.9003 38.6049 49.3103 38.7549C49.0503 37.8849 48.4003 37.1449 47.5103 36.8049C47.6803 35.6749 48.6403 34.8149 49.8103 34.8149C50.2503 34.8149 50.6703 34.9449 51.0303 35.1749Z" fill="#F73852"/>
<path d="M47.8302 40.5749C47.8702 39.9449 48.2002 39.3649 48.7302 39.0149C48.5402 38.2649 47.9802 37.6249 47.2002 37.3749C45.9802 36.9749 44.6702 37.6449 44.2802 38.8849C43.9202 40.0049 44.4402 41.1949 45.4402 41.7149C46.0302 40.9449 46.9302 40.5549 47.8302 40.5749Z" fill="#F73852"/>
<path d="M41.7099 15.4349C42.0192 15.4349 42.2699 15.1797 42.2699 14.8649C42.2699 14.5501 42.0192 14.2949 41.7099 14.2949C41.4006 14.2949 41.1499 14.5501 41.1499 14.8649C41.1499 15.1797 41.4006 15.4349 41.7099 15.4349Z" fill="#F73852"/>
<path d="M41.4101 15.625C41.1701 15.525 40.9901 15.325 40.9201 15.065C40.6101 15.045 40.2901 15.185 40.0901 15.465C39.7801 15.895 39.8701 16.505 40.3001 16.815C40.6901 17.105 41.2201 17.045 41.5401 16.715C41.3201 16.385 41.2801 15.985 41.4101 15.625Z" fill="#20C9AF"/>
<path d="M42.3298 15.3849C42.1698 15.5849 41.9198 15.6949 41.6598 15.6849C41.5498 15.9849 41.5798 16.3349 41.7798 16.6049C42.0898 17.0349 42.6898 17.1349 43.1198 16.8149C43.5098 16.5249 43.6198 16.0049 43.4098 15.5849C43.0198 15.7049 42.6298 15.6149 42.3298 15.3849Z" fill="#20C9AF"/>
<path d="M42.3901 14.4149C42.5301 14.6349 42.5601 14.9149 42.4601 15.1549C42.7001 15.3549 43.0401 15.4349 43.3601 15.3249C43.8601 15.1549 44.1401 14.6149 43.9701 14.1049C43.8201 13.6449 43.3601 13.3749 42.9101 13.4449C42.9001 13.8549 42.7001 14.2049 42.3901 14.4149Z" fill="#20C9AF"/>
<path d="M41.5 14.0649C41.75 14.0049 42.02 14.0549 42.22 14.2249C42.49 14.0549 42.66 13.7549 42.66 13.4049C42.66 12.8649 42.23 12.4349 41.7 12.4349C41.22 12.4349 40.82 12.7949 40.75 13.2549C41.13 13.3949 41.4 13.7049 41.5 14.0649Z" fill="#20C9AF"/>
<path d="M40.8899 14.815C40.9099 14.555 41.0399 14.315 41.2599 14.175C41.1799 13.865 40.9499 13.605 40.6299 13.495C40.1299 13.325 39.5899 13.605 39.4199 14.115C39.2699 14.575 39.4799 15.065 39.8999 15.285C40.1499 14.965 40.5199 14.805 40.8899 14.815Z" fill="#20C9AF"/>
<path d="M41.5405 36.1749C41.8497 36.1749 42.1005 35.9197 42.1005 35.6049C42.1005 35.2901 41.8497 35.0349 41.5405 35.0349C41.2312 35.0349 40.9805 35.2901 40.9805 35.6049C40.9805 35.9197 41.2312 36.1749 41.5405 36.1749Z" fill="#F73852"/>
<path d="M41.2402 36.375C41.0002 36.275 40.8202 36.075 40.7502 35.815C40.4402 35.795 40.1202 35.935 39.9202 36.215C39.6102 36.645 39.7002 37.255 40.1302 37.565C40.5202 37.855 41.0502 37.795 41.3702 37.465C41.1602 37.135 41.1202 36.725 41.2402 36.375Z" fill="#20C9AF"/>
<path d="M42.1701 36.1349C42.0101 36.3349 41.7601 36.4449 41.5001 36.4349C41.3901 36.7349 41.4201 37.0849 41.6201 37.3549C41.9301 37.7849 42.5301 37.8849 42.9601 37.5649C43.3501 37.2749 43.4601 36.7549 43.2501 36.3349C42.8601 36.4449 42.4601 36.3649 42.1701 36.1349Z" fill="#20C9AF"/>
<path d="M42.2305 35.1649C42.3705 35.3849 42.4005 35.6649 42.3005 35.9049C42.5405 36.1049 42.8805 36.1849 43.2005 36.0749C43.7005 35.9049 43.9805 35.3649 43.8105 34.8549C43.6605 34.3949 43.2005 34.1249 42.7505 34.1949C42.7405 34.6049 42.5305 34.9549 42.2305 35.1649Z" fill="#20C9AF"/>
<path d="M41.3403 34.8149C41.5903 34.7549 41.8603 34.8049 42.0603 34.9749C42.3303 34.8049 42.5003 34.5049 42.5003 34.1549C42.5003 33.6149 42.0703 33.1849 41.5403 33.1849C41.0603 33.1849 40.6603 33.5449 40.5903 34.0049C40.9703 34.1449 41.2303 34.4549 41.3403 34.8149Z" fill="#20C9AF"/>
<path d="M40.7302 35.5549C40.7502 35.2949 40.8802 35.0549 41.1002 34.9149C41.0202 34.6049 40.7902 34.3449 40.4702 34.2349C39.9702 34.0649 39.4302 34.3449 39.2602 34.8549C39.1102 35.3149 39.3202 35.8049 39.7402 36.0249C39.9902 35.7149 40.3602 35.5449 40.7302 35.5549Z" fill="#20C9AF"/>
<path d="M51.03 0.194946H0V4.58495H51.03V0.194946Z" fill="#FC3851"/>
<path d="M37.68 0.194946H0V4.58495H37.68V0.194946Z" fill="#C12032"/>
</g>
<defs>
<clipPath id="clip0_301_5235">
<rect width="51.03" height="49.61" fill="white" transform="translate(0 0.194946)"/>
</clipPath>
</defs>
</svg>
