<svg width="93" height="170" viewBox="0 0 93 170" fill="none" xmlns="http://www.w3.org/2000/svg">
<g clip-path="url(#clip0_302_355)">
<path d="M49.6099 169.615C48.3499 169.615 47.3299 168.595 47.3299 167.335V164.605C47.3299 163.865 47.6799 163.205 48.2599 162.785L46.6799 44.755C46.2499 44.755 45.8299 44.765 45.6399 44.765C45.1799 44.765 44.9299 44.745 44.6999 44.725L43.1199 162.435C44.0399 162.725 44.7099 163.585 44.7099 164.605V167.335C44.7099 168.595 43.6899 169.615 42.4299 169.615H19.4399C18.1799 169.615 17.1599 168.595 17.1599 167.335V164.605C17.1599 163.755 17.6299 163.015 18.3299 162.625L17.1699 36.425C16.1999 35.795 15.2699 35.135 14.3899 34.455L14.3399 34.415L14.3099 34.385C11.7999 32.455 9.57994 30.305 7.70994 27.995C7.60994 27.875 7.51994 27.755 7.42994 27.635C6.97994 27.095 6.53994 26.485 6.16994 25.965C2.80994 21.145 0.909941 15.935 0.529941 10.455C0.469941 9.74501 0.439941 9.05501 0.439941 8.39501C0.439941 6.83501 0.569941 5.25501 0.829941 3.70501C0.949941 2.90501 1.12994 2.06501 1.36994 1.13501L1.55994 0.38501H91.5799L91.7699 1.13501C92.0099 2.05501 92.1799 2.90501 92.3099 3.71501C92.5699 5.24501 92.6999 6.82501 92.6999 8.38501C92.6999 9.07501 92.6699 9.76501 92.6299 10.445C92.5999 10.935 92.5599 11.365 92.4999 11.795C91.8999 16.965 89.9299 21.895 86.6499 26.415C86.2499 26.975 85.8199 27.535 85.3599 28.085C85.2999 28.175 85.1599 28.335 85.0199 28.485C82.0999 31.965 78.4499 35.015 74.1999 37.515L73.0499 162.365C74.0899 162.575 74.8799 163.495 74.8799 164.595V167.325C74.8799 168.585 73.8599 169.605 72.5999 169.605H49.6099V169.615Z" fill="#9AA4D1"/>
<path d="M19.3602 165.975H42.0702L43.7102 43.685C26.1402 42.195 18.1602 35.865 18.1602 35.865L19.3602 165.975Z" fill="#7A82A6"/>
<path d="M91.64 10.395C91.61 10.815 91.58 11.245 91.52 11.665C90.93 16.785 88.94 21.585 85.85 25.835C85.46 26.385 85.04 26.925 84.6 27.445C84.51 27.575 84.4 27.695 84.29 27.815C81.32 31.355 77.56 34.455 73.21 36.945L72.02 165.975H49.31L47.67 43.745C47.31 43.755 46.95 43.765 46.58 43.765C45.62 43.765 44.66 43.735 43.71 43.685C26.14 42.195 18.16 35.875 18.16 35.875C17.06 35.175 16 34.435 14.99 33.655C14.98 33.645 14.96 33.635 14.95 33.625C12.5 31.745 10.33 29.655 8.48002 27.375C8.39002 27.265 8.31002 27.165 8.23002 27.055C7.79002 26.515 7.38002 25.955 6.98002 25.395C3.84002 20.895 1.90002 15.805 1.52002 10.395H91.64Z" fill="#9AA4D1"/>
<path d="M42.4402 163.335H19.4402C18.7302 163.335 18.1602 163.905 18.1602 164.615V167.345C18.1602 168.055 18.7302 168.625 19.4402 168.625H42.4402C43.1502 168.625 43.7202 168.055 43.7202 167.345V164.615C43.7102 163.905 43.1402 163.335 42.4402 163.335Z" fill="#595E78"/>
<path d="M72.6101 163.335H49.6101C48.9001 163.335 48.3301 163.905 48.3301 164.615V167.345C48.3301 168.055 48.9001 168.625 49.6101 168.625H72.6101C73.3201 168.625 73.8901 168.055 73.8901 167.345V164.615C73.8901 163.905 73.3201 163.335 72.6101 163.335Z" fill="#595E78"/>
<path d="M61.1099 164.335C60.5599 164.335 60.1099 163.885 60.1099 163.335V46.855C60.1099 46.305 60.5599 45.855 61.1099 45.855C61.6599 45.855 62.1099 46.305 62.1099 46.855V163.335C62.1099 163.885 61.6599 164.335 61.1099 164.335Z" fill="#595E78"/>
<path d="M16.8199 13.145C16.8199 13.275 16.8199 13.425 16.8099 13.565C16.6599 19.465 13.2099 24.555 8.22994 27.055C7.78994 26.515 7.37994 25.955 6.97994 25.395C3.83994 20.895 1.89994 15.805 1.51994 10.395C1.46994 9.735 1.43994 9.065 1.43994 8.395C1.43994 6.865 1.56994 5.355 1.81994 3.875H13.7799C14.0099 4.185 14.2299 4.515 14.4399 4.845C15.4799 6.505 16.2199 8.385 16.5699 10.395C16.7399 11.285 16.8199 12.205 16.8199 13.145Z" fill="#747B9D"/>
<path d="M18.04 10.395C17.99 8.135 17.55 5.945 16.73 3.875H14.03C14.18 4.195 14.32 4.515 14.44 4.845C15.13 6.605 15.52 8.475 15.57 10.395C15.58 10.565 15.58 10.725 15.58 10.895C15.58 11.015 15.58 11.155 15.57 11.345C15.42 17.365 11.96 22.625 6.97998 25.395C7.37998 25.955 7.78998 26.515 8.22998 27.055C8.30998 27.165 8.38998 27.265 8.47998 27.375C14.04 24.155 17.87 18.225 18.03 11.485C18.05 11.305 18.05 11.085 18.05 10.895C18.05 10.725 18.05 10.565 18.04 10.395Z" fill="#595E78"/>
<path d="M91.7099 8.395C91.7099 9.065 91.6799 9.735 91.6399 10.395C91.6099 10.815 91.5799 11.245 91.5199 11.665C90.9299 16.785 88.9399 21.585 85.8499 25.835C85.4599 26.385 85.0399 26.925 84.5999 27.445C79.1699 25.115 75.3399 19.795 75.1799 13.565C75.1699 13.425 75.1699 13.275 75.1699 13.145C75.1699 12.205 75.2499 11.285 75.4199 10.395C75.7599 8.405 76.4899 6.555 77.5099 4.905C77.5099 4.895 77.5199 4.895 77.5199 4.885C77.5199 4.875 77.5299 4.875 77.5299 4.875C77.7499 4.525 77.9699 4.195 78.2099 3.875H91.3299C91.5799 5.355 91.7099 6.865 91.7099 8.395Z" fill="#747B9D"/>
<path d="M76.4102 11.345C76.4002 11.155 76.4002 11.015 76.4002 10.895C76.4002 10.725 76.4002 10.565 76.4102 10.395C76.4602 8.505 76.8402 6.635 77.5102 4.905C77.5102 4.895 77.5202 4.895 77.5202 4.885C77.5202 4.875 77.5302 4.875 77.5302 4.875C77.6502 4.535 77.8002 4.205 77.9502 3.875H75.2502C74.4302 5.945 73.9902 8.135 73.9402 10.395C73.9302 10.565 73.9302 10.725 73.9302 10.895C73.9302 11.085 73.9302 11.305 73.9502 11.485C74.1202 18.535 78.3102 24.705 84.2902 27.815C84.4002 27.695 84.5102 27.575 84.6002 27.445C85.0402 26.925 85.4602 26.385 85.8502 25.835C80.4202 23.215 76.5702 17.695 76.4102 11.345Z" fill="#595E78"/>
<path d="M91.7099 8.39501C91.7099 9.06501 91.6799 9.73501 91.6399 10.395H1.51994C1.46994 9.73501 1.43994 9.06501 1.43994 8.39501C1.43994 6.86501 1.56994 5.35501 1.81994 3.87501C1.94994 3.03501 2.12994 2.20501 2.33994 1.38501H90.8099C91.0199 2.20501 91.1999 3.03501 91.3299 3.87501C91.5799 5.35501 91.7099 6.86501 91.7099 8.39501Z" fill="#5C627C"/>
</g>
<defs>
<clipPath id="clip0_302_355">
<rect width="92.27" height="169.23" fill="white" transform="translate(0.439941 0.38501)"/>
</clipPath>
</defs>
</svg>
