<svg width="65" height="100" viewBox="0 0 65 100" fill="none" xmlns="http://www.w3.org/2000/svg">
<g clip-path="url(#clip0_301_14340)">
<path d="M10.48 8.65002V34.89H50.31V8.65002H23.08H10.48Z" fill="#E9FBF8"/>
<path d="M10.4802 8.65002H0.950195V34.89H10.4802V8.65002Z" fill="#9AC1B9"/>
<path d="M50.3101 9.6V0.75H23.0801V9.6H50.3101Z" fill="#21D2B2"/>
<path d="M23.0802 0.75H0.950195V9.6H23.0802V0.75Z" fill="#197C7A"/>
<path d="M16.8501 97.05H63.3801V29.35C63.3801 24.39 59.3601 20.36 54.3901 20.36H25.8301V97.05H16.8501Z" fill="#E9FBF8"/>
<path d="M16.8501 97.05H25.8401V20.36C20.8801 20.36 16.8501 24.38 16.8501 29.35V97.05Z" fill="#9AC1B9"/>
<mask id="mask0_301_14340" style="mask-type:luminance" maskUnits="userSpaceOnUse" x="16" y="20" width="48" height="78">
<path d="M16.8501 97.05H63.3801V29.35C63.3801 24.39 59.3601 20.36 54.3901 20.36H25.8301V97.05H16.8501Z" fill="white"/>
</mask>
<g mask="url(#mask0_301_14340)">
<path d="M61.4805 30.1299C62.8612 30.1299 63.9805 29.0106 63.9805 27.6299C63.9805 26.2492 62.8612 25.1299 61.4805 25.1299C60.0998 25.1299 58.9805 26.2492 58.9805 27.6299C58.9805 29.0106 60.0998 30.1299 61.4805 30.1299Z" fill="#20C9AF"/>
<path d="M60.1505 31.0099C59.0805 30.5899 58.2605 29.6799 57.9605 28.5499C56.5505 28.4699 55.1305 29.0799 54.2405 30.3099C52.8505 32.2199 53.2805 34.8999 55.1905 36.2899C56.9205 37.5499 59.2805 37.3199 60.7405 35.8399C59.7705 34.3599 59.6005 32.5699 60.1505 31.0099Z" fill="#1FB6F4"/>
<path d="M64.0404 30.21V36.92C63.1604 36.66 62.3604 36.13 61.7904 35.33C60.9004 34.1 60.7504 32.57 61.2704 31.26C62.3104 31.32 63.3104 30.92 64.0404 30.21Z" fill="#1FB6F4"/>
<path d="M64.0402 17.7899V24.6399C63.9602 24.6999 63.8702 24.7599 63.7802 24.8199C62.8802 24.0799 61.6802 23.8299 60.5602 24.1199C60.0902 22.5299 58.9002 21.1799 57.2402 20.5699C57.5502 18.5099 59.3202 16.9399 61.4702 16.9399C62.4402 16.9299 63.3302 17.2499 64.0402 17.7899Z" fill="#1FB6F4"/>
<path d="M57.8503 27.4099C57.9203 26.2599 58.5303 25.1999 59.5103 24.5699C59.1503 23.2099 58.1303 22.0499 56.6903 21.5799C54.4403 20.8499 52.0303 22.0799 51.3003 24.3299C50.6403 26.3699 51.5903 28.5399 53.4403 29.4699C54.5503 28.0799 56.2003 27.3599 57.8503 27.4099Z" fill="#1FB6F4"/>
<path d="M54.6001 62.7799C56.5331 62.7799 58.1001 61.2129 58.1001 59.2799C58.1001 57.3469 56.5331 55.7799 54.6001 55.7799C52.6671 55.7799 51.1001 57.3469 51.1001 59.2799C51.1001 61.2129 52.6671 62.7799 54.6001 62.7799Z" fill="#20C9AF"/>
<path d="M55.9302 64.2099C54.3702 64.6299 52.6802 64.2899 51.4102 63.2699C49.7502 64.3499 48.6702 66.2299 48.6902 68.3599C48.7202 71.6799 51.4402 74.3399 54.7602 74.3099C57.7702 74.2799 60.2402 72.0499 60.6502 69.1599C58.3002 68.3099 56.6102 66.4399 55.9302 64.2099Z" fill="#1FB6F4"/>
<path d="M64.0399 58.2799V67.9299C63.1799 68.0499 62.2799 67.9899 61.3999 67.7099C59.3699 67.0799 57.9199 65.4599 57.3999 63.5499C58.7599 62.6499 59.6099 61.1499 59.6999 59.5399C61.2299 59.5699 62.7499 59.1299 64.0399 58.2799Z" fill="#1FB6F4"/>
<path d="M64.04 47.6699V56.2199C62.83 57.4299 61.17 58.0199 59.53 57.9499C59.1 56.3699 57.93 55.0999 56.43 54.5299C57.18 52.3199 56.92 49.8099 55.52 47.7699C57.55 45.6699 60.86 45.3099 63.31 47.0599C63.57 47.2299 63.82 47.4399 64.04 47.6699Z" fill="#1FB6F4"/>
<path d="M50.6401 56.0799C51.6601 54.8299 53.2201 54.1099 54.8501 54.1899C55.5501 52.3399 55.3301 50.1799 54.0601 48.4699C52.0801 45.8099 48.3201 45.2499 45.6601 47.2199C43.2401 49.0099 42.5601 52.2699 43.9301 54.8499C46.3001 54.1599 48.7701 54.6799 50.6401 56.0799Z" fill="#1FB6F4"/>
<path d="M50.3301 62.0699C49.4501 60.7199 49.2501 59.0099 49.8301 57.4799C48.2901 56.2399 46.1701 55.7899 44.1501 56.4599C41.0101 57.5199 39.3101 60.9199 40.3701 64.0699C41.3301 66.9199 44.2201 68.5799 47.0901 68.0799C47.1601 65.5999 48.4201 63.4099 50.3301 62.0699Z" fill="#1FB6F4"/>
<path d="M64.0403 88.7399V90.8199C63.6503 91.6799 62.7803 92.2799 61.7803 92.2799C60.4003 92.2799 59.2803 91.1599 59.2803 89.7899C59.2803 88.4099 60.4003 87.2899 61.7803 87.2899C62.7803 87.2799 63.6503 87.8699 64.0403 88.7399Z" fill="#20C9AF"/>
<path d="M60.4401 93.16C59.3701 92.74 58.5501 91.83 58.2501 90.7C56.8401 90.62 55.4201 91.23 54.5301 92.46C53.1401 94.37 53.5701 97.05 55.4801 98.44C57.2101 99.7 59.5701 99.47 61.0301 97.99C60.0601 96.51 59.8901 94.72 60.4401 93.16Z" fill="#1FB6F4"/>
<path d="M64.04 92.61V98.97C63.28 98.69 62.59 98.18 62.08 97.48C61.19 96.25 61.05 94.72 61.56 93.4C62.47 93.46 63.35 93.17 64.04 92.61Z" fill="#1FB6F4"/>
<path d="M64.0403 79.73V86.94C63.1403 86.22 61.9603 85.98 60.8703 86.26C60.4003 84.67 59.2003 83.33 57.5503 82.71C57.8603 80.66 59.6403 79.08 61.7803 79.08C62.6103 79.08 63.3903 79.32 64.0403 79.73Z" fill="#1FB6F4"/>
<path d="M58.1501 89.55C58.2201 88.4 58.8301 87.34 59.8101 86.71C59.4501 85.35 58.4301 84.19 56.9901 83.72C54.7401 82.99 52.3301 84.22 51.6001 86.47C50.9401 88.51 51.8901 90.68 53.7401 91.61C54.8401 90.23 56.4901 89.51 58.1501 89.55Z" fill="#1FB6F4"/>
<path d="M45.8298 37.53C46.3987 37.53 46.8598 37.0688 46.8598 36.5C46.8598 35.9311 46.3987 35.47 45.8298 35.47C45.261 35.47 44.7998 35.9311 44.7998 36.5C44.7998 37.0688 45.261 37.53 45.8298 37.53Z" fill="#1FB6F4"/>
<path d="M45.2899 37.89C44.8499 37.72 44.5099 37.34 44.3899 36.88C43.8099 36.85 43.2299 37.1 42.8599 37.6C42.2899 38.39 42.4599 39.49 43.2499 40.06C43.9599 40.58 44.9399 40.48 45.5399 39.87C45.1299 39.27 45.0599 38.53 45.2899 37.89Z" fill="#20C9AF"/>
<path d="M46.9902 37.45C46.6902 37.81 46.2302 38.02 45.7502 37.99C45.5402 38.53 45.6002 39.1599 45.9602 39.6699C46.5302 40.4599 47.6302 40.63 48.4202 40.06C49.1302 39.54 49.3402 38.59 48.9502 37.83C48.2602 38.03 47.5302 37.86 46.9902 37.45Z" fill="#20C9AF"/>
<path d="M47.1001 35.6899C47.3501 36.0899 47.4101 36.5899 47.2301 37.0399C47.6801 37.4099 48.3001 37.5499 48.8901 37.3499C49.8201 37.0499 50.3201 36.0499 50.0201 35.1299C49.7501 34.2899 48.9001 33.7999 48.0601 33.9299C48.0401 34.6699 47.6601 35.2999 47.1001 35.6899Z" fill="#20C9AF"/>
<path d="M45.4598 35.05C45.9198 34.93 46.4098 35.04 46.7798 35.34C47.2698 35.03 47.5898 34.48 47.5898 33.86C47.5898 32.89 46.7998 32.1 45.8298 32.1C44.9498 32.1 44.2198 32.75 44.0898 33.6C44.7698 33.84 45.2698 34.39 45.4598 35.05Z" fill="#20C9AF"/>
<path d="M44.34 36.4C44.37 35.93 44.62 35.49 45.03 35.23C44.88 34.67 44.46 34.19 43.87 34C42.94 33.7 41.95 34.21 41.65 35.13C41.38 35.97 41.77 36.87 42.53 37.25C42.98 36.68 43.66 36.39 44.34 36.4Z" fill="#20C9AF"/>
<path d="M45.8298 80.64C46.3987 80.64 46.8598 80.1788 46.8598 79.61C46.8598 79.0411 46.3987 78.58 45.8298 78.58C45.261 78.58 44.7998 79.0411 44.7998 79.61C44.7998 80.1788 45.261 80.64 45.8298 80.64Z" fill="#1FB6F4"/>
<path d="M45.2899 81.01C44.8499 80.84 44.5099 80.46 44.3899 80C43.8099 79.97 43.2299 80.22 42.8599 80.72C42.2899 81.51 42.4599 82.61 43.2499 83.18C43.9599 83.7 44.9399 83.6 45.5399 82.99C45.1299 82.39 45.0599 81.65 45.2899 81.01Z" fill="#20C9AF"/>
<path d="M46.9902 80.5599C46.6902 80.9199 46.2302 81.1299 45.7502 81.0999C45.5402 81.6399 45.6002 82.2699 45.9602 82.7799C46.5302 83.5699 47.6302 83.7399 48.4202 83.1699C49.1302 82.6499 49.3402 81.6999 48.9502 80.9399C48.2602 81.1399 47.5302 80.9799 46.9902 80.5599Z" fill="#20C9AF"/>
<path d="M47.1001 78.8099C47.3501 79.2099 47.4101 79.7099 47.2301 80.1599C47.6801 80.5299 48.3001 80.6699 48.8901 80.4699C49.8201 80.1699 50.3201 79.1699 50.0201 78.2499C49.7501 77.4099 48.9001 76.9199 48.0601 77.0499C48.0401 77.7799 47.6601 78.4199 47.1001 78.8099Z" fill="#20C9AF"/>
<path d="M45.4598 78.16C45.9198 78.04 46.4098 78.15 46.7798 78.45C47.2698 78.14 47.5898 77.59 47.5898 76.97C47.5898 76 46.7998 75.21 45.8298 75.21C44.9498 75.21 44.2198 75.86 44.0898 76.71C44.7698 76.95 45.2698 77.51 45.4598 78.16Z" fill="#20C9AF"/>
<path d="M44.34 79.52C44.37 79.05 44.62 78.61 45.03 78.35C44.88 77.79 44.46 77.31 43.87 77.12C42.94 76.82 41.95 77.33 41.65 78.25C41.38 79.09 41.77 79.99 42.53 80.37C42.98 79.8 43.66 79.5 44.34 79.52Z" fill="#20C9AF"/>
</g>
</g>
<defs>
<clipPath id="clip0_301_14340">
<rect width="63.09" height="98.5" fill="white" transform="translate(0.950195 0.75)"/>
</clipPath>
</defs>
</svg>
