<svg width="54" height="36" viewBox="0 0 54 36" fill="none" xmlns="http://www.w3.org/2000/svg">
<g clip-path="url(#clip0_301_5420)">
<path d="M28.84 35.8251C28.12 35.8251 27.53 35.2351 27.53 34.515V32.945C27.53 32.515 27.73 32.135 28.07 31.895L27.16 25.755C26.91 25.755 26.67 25.755 26.56 25.755C26.3 25.755 26.15 25.745 26.02 25.735L25.11 31.685C25.64 31.855 26.03 32.355 26.03 32.935V34.5051C26.03 35.2251 25.44 35.815 24.72 35.815H10.56C9.84 35.815 9.25 35.2251 9.25 34.5051V32.935C9.25 32.445 9.52 32.015 9.92 31.795L9.25 20.945C8.69 20.575 8.15 20.195 7.65 19.805L7.62 19.785L7.6 19.775C6.16 18.665 4.87 17.425 3.79 16.095C3.73 16.025 3.68 15.955 3.63 15.885C3.37 15.575 3.12 15.225 2.91 14.925C0.97 12.145 0.77 9.14505 0.55 5.98505C0.52 5.57505 0.5 5.16505 0.5 4.79505C0.5 3.89505 0.58 2.98505 0.73 2.09505C0.8 1.63505 0.9 1.14505 1.04 0.605049L1.15 0.175049H53.04L53.15 0.605049C53.29 1.13505 53.39 1.62505 53.46 2.09505C53.61 2.97505 53.69 3.88505 53.69 4.78505C53.69 5.18505 53.67 5.58505 53.65 5.97505C53.63 6.25505 53.61 6.50505 53.58 6.75505C53.24 9.73505 52.1 12.575 50.21 15.175C49.98 15.495 49.73 15.825 49.46 16.135C49.43 16.185 49.35 16.275 49.27 16.365C47.59 18.375 45.48 20.125 43.03 21.575L42.37 31.645C42.97 31.765 43.43 32.295 43.43 32.935V34.5051C43.43 35.2251 42.84 35.815 42.12 35.815H28.84V35.8251Z" fill="#C62C3F"/>
<path d="M10.5201 33.725H24.5001L25.4501 25.135C15.3201 24.275 9.83008 20.635 9.83008 20.635L10.5201 33.725Z" fill="#C62C3F"/>
<path d="M53.0599 5.94495C53.0499 6.12495 53.0399 6.31495 53.0099 6.50495C53.0099 6.56495 52.9999 6.61495 52.9899 6.67495C52.8299 8.09495 52.4699 9.47495 51.9599 10.7949C51.5499 11.8549 51.0199 12.8649 50.3999 13.8449C50.1799 14.1849 49.9599 14.5149 49.7199 14.8449C49.4999 15.1649 49.2499 15.4749 48.9999 15.7749C48.9399 15.8449 48.8799 15.9149 48.8199 15.9849C48.5799 16.2749 48.3299 16.5549 48.0699 16.8349C47.4699 17.4749 46.8199 18.0949 46.1299 18.6649C45.1699 19.4749 44.1399 20.2249 43.0299 20.8849C42.8299 21.0049 42.6299 21.1249 42.4199 21.2449L41.7399 33.7149H28.6699L27.7299 25.1549C27.5099 25.1749 27.3099 25.1749 27.0899 25.1749C26.5299 25.1749 25.9799 25.1549 25.4299 25.1349C15.3099 24.2749 9.80986 20.6349 9.80986 20.6349C9.17986 20.2249 8.56986 19.8049 7.98986 19.3549C7.97986 19.3449 7.96986 19.3449 7.95986 19.3349C6.54986 18.2549 5.29986 17.0449 4.22986 15.7349C4.17986 15.6649 4.12986 15.6149 4.08986 15.5449C3.82986 15.2349 3.59986 14.9149 3.36986 14.5849C1.55986 11.9949 1.32986 9.05495 1.10986 5.94495H53.0599Z" fill="#F9364D"/>
<path d="M24.1703 32.1949H11.1003C10.3903 32.1949 9.82031 32.7649 9.82031 33.4749V33.9649C9.82031 34.6749 10.3903 35.2449 11.1003 35.2449H24.1603C24.8703 35.2449 25.4403 34.6749 25.4403 33.9649V33.4749C25.4403 32.7749 24.8703 32.1949 24.1703 32.1949Z" fill="#932729"/>
<path d="M41.5601 32.1949H29.3801C28.6701 32.1949 28.1001 32.7649 28.1001 33.4749V33.9649C28.1001 34.6749 28.6701 35.2449 29.3801 35.2449H41.5501C42.2601 35.2449 42.8301 34.6749 42.8301 33.9649V33.4749C42.8301 32.7749 42.2601 32.1949 41.5601 32.1949Z" fill="#932729"/>
<path d="M53.1101 4.79499C53.1101 5.18499 53.0901 5.56499 53.0701 5.94499H1.12008C1.09008 5.56499 1.08008 5.17499 1.08008 4.79499C1.08008 3.91499 1.15008 3.045 1.30008 2.185C1.37008 1.705 1.48008 1.225 1.60008 0.744995H52.5901C52.7101 1.215 52.8101 1.695 52.8901 2.185C53.0301 3.035 53.1101 3.90499 53.1101 4.79499Z" fill="#932729"/>
<path d="M53.0099 6.50507C53.0099 6.56507 52.9999 6.61507 52.9899 6.67507C52.8299 8.09507 52.4699 9.47507 51.9599 10.7951L47.1099 5.94507H52.4399L53.0099 6.50507Z" fill="#922829"/>
<path d="M50.4102 13.8451C50.1902 14.1851 49.9702 14.5151 49.7302 14.8451C49.5102 15.1651 49.2602 15.4751 49.0102 15.7751C48.9502 15.8451 48.8902 15.9151 48.8302 15.9851C48.5902 16.2751 48.3402 16.5551 48.0802 16.8351L38.3902 7.15507L37.1802 5.94507H42.5102L50.4102 13.8451Z" fill="#B2283A"/>
<path d="M46.1401 18.6651C45.1801 19.4751 44.1501 20.2251 43.0401 20.8851L29.3101 7.15507L28.1001 5.94507H33.4201L34.6301 7.15507L46.1401 18.6651Z" fill="#CF2E3F"/>
</g>
<defs>
<clipPath id="clip0_301_5420">
<rect width="53.18" height="35.65" fill="white" transform="translate(0.5 0.175049)"/>
</clipPath>
</defs>
</svg>
