<svg width="64" height="48" viewBox="0 0 64 48" fill="none" xmlns="http://www.w3.org/2000/svg">
<g clip-path="url(#clip0_301_14478)">
<path d="M10.5596 8.78503V35.025H50.3896V8.78503H23.1496H10.5596Z" fill="#FF9166"/>
<path d="M10.5598 8.78503H1.02979V35.025H10.5598V8.78503Z" fill="#EB564B"/>
<path d="M50.3798 9.73501H50.3898V0.88501H1.02979V9.73501H50.3798Z" fill="#EB564B"/>
<path d="M16.9199 47.115H63.4599V29.485C63.4599 24.525 59.4399 20.495 54.4699 20.495H25.9099V47.105L16.9199 47.115Z" fill="#FF9166"/>
<path d="M16.9199 47.105H25.9099V20.495C20.9499 20.495 16.9199 24.515 16.9199 29.485V47.105Z" fill="#EB564B"/>
<path d="M31.7497 47.105H29.1997V32.405C29.1997 31.695 29.7697 31.125 30.4797 31.125C31.1897 31.125 31.7597 31.695 31.7597 32.405V47.105H31.7497Z" fill="#8C3F5D"/>
<path d="M2.12977 6.745H0.759766V8.115H2.12977V6.745Z" fill="#8C3F5D"/>
<path d="M13.1596 8.115H10.3996V6.745H13.1596V8.115ZM7.64965 8.115H4.88965V6.745H7.64965V8.115Z" fill="#8C3F5D"/>
<path d="M46.2297 8.115H43.4697V6.745H46.2297V8.115ZM40.7197 8.115H37.9597V6.745H40.7197V8.115ZM35.2097 8.115H32.4497V6.745H35.2097V8.115ZM29.6997 8.115H26.9397V6.745H29.6997V8.115ZM24.1797 8.115H21.4197V6.745H24.1797V8.115ZM18.6697 8.115H15.9097V6.745H18.6697V8.115Z" fill="#8C3F5D"/>
<path d="M50.3597 6.745H48.9897V8.115H50.3597V6.745Z" fill="#8C3F5D"/>
</g>
<defs>
<clipPath id="clip0_301_14478">
<rect width="62.7" height="46.23" fill="white" transform="translate(0.759766 0.88501)"/>
</clipPath>
</defs>
</svg>
