<svg width="56" height="36" viewBox="0 0 56 36" fill="none" xmlns="http://www.w3.org/2000/svg">
<g clip-path="url(#clip0_301_5439)">
<path d="M29.9702 35.8251C29.2202 35.8251 28.6102 35.2351 28.6102 34.515V32.945C28.6102 32.515 28.8202 32.135 29.1702 31.895L28.2302 25.755C27.9802 25.755 27.7202 25.755 27.6102 25.755C27.3402 25.755 27.1902 25.745 27.0502 25.735L26.1102 31.685C26.6602 31.855 27.0602 32.355 27.0602 32.935V34.5051C27.0602 35.2251 26.4502 35.815 25.7002 35.815H12.0002C11.2502 35.815 10.6402 35.2251 10.6402 34.5051V32.935C10.6402 32.445 10.9202 32.015 11.3402 31.795L10.6402 20.945C10.0602 20.575 9.51018 20.195 8.98018 19.805L8.95018 19.785L8.94018 19.775C7.45018 18.665 6.12018 17.425 5.01018 16.095C4.95018 16.025 4.90018 15.955 4.84018 15.885C4.57018 15.575 4.31018 15.225 4.09018 14.925C2.09018 12.145 0.960176 9.14505 0.730176 5.98505C0.700176 5.57505 0.680176 5.16505 0.680176 4.79505C0.680176 3.89505 0.760176 2.98505 0.910176 2.09505C0.980176 1.63505 1.09018 1.14505 1.23018 0.615049L1.35018 0.175049H54.3402L54.4502 0.605049C54.5902 1.13505 54.7002 1.62505 54.7702 2.09505C54.9202 2.97505 55.0002 3.88505 55.0002 4.78505C55.0002 5.18505 54.9802 5.58505 54.9602 5.97505C54.9402 6.25505 54.9202 6.50505 54.8802 6.75505C54.5302 9.73505 53.3502 12.575 51.3902 15.175C51.1502 15.495 50.8902 15.825 50.6202 16.135C50.5902 16.185 50.5002 16.275 50.4202 16.365C48.6802 18.375 47.1502 20.125 44.6102 21.575L43.9202 31.645C44.5402 31.765 45.0102 32.295 45.0102 32.935V34.5051C45.0102 35.2251 44.4002 35.815 43.6502 35.815H29.9702V35.8251Z" fill="#FF6B97"/>
<path d="M11.9502 33.725H25.4802L26.4602 25.135C15.9902 24.275 11.2402 20.635 11.2402 20.635L11.9502 33.725Z" fill="#FF6B97"/>
<path d="M54.3703 5.94506C54.3503 6.18506 54.3303 6.43506 54.3003 6.67506C53.9503 9.62506 52.7603 12.3951 50.9203 14.8451C50.6903 15.1651 50.4403 15.4751 50.1803 15.7751C50.1303 15.8451 50.0603 15.9151 50.0003 15.9851C48.2303 18.0251 46.6303 19.8151 44.0403 21.2451L43.3303 33.7151H29.7903L28.8103 25.1651C28.6003 25.1751 28.3903 25.1751 28.1703 25.1751C27.6003 25.1751 27.0303 25.1551 26.4603 25.1251C15.9903 24.2651 11.2403 20.6251 11.2403 20.6251C10.5803 20.2251 9.95033 19.7951 9.35033 19.3451C9.34033 19.3351 9.33033 19.3351 9.33033 19.3251C7.87033 18.2451 6.58033 17.0351 5.48033 15.7251C5.43033 15.6651 5.38033 15.6051 5.33033 15.5451C5.07033 15.2351 4.82033 14.9151 4.59033 14.5851C2.72033 11.9951 1.56033 9.05506 1.34033 5.93506H54.3703V5.94506Z" fill="#FFB5B5"/>
<path d="M25.1805 32.1949H12.5105C11.8005 32.1949 11.2305 32.7649 11.2305 33.4749V33.9649C11.2305 34.6749 11.8005 35.2449 12.5105 35.2449H25.1805C25.8905 35.2449 26.4605 34.6749 26.4605 33.9649V33.4749C26.4605 32.7749 25.8905 32.1949 25.1805 32.1949Z" fill="#BD4882"/>
<path d="M43.1604 32.1949H30.4904C29.7804 32.1949 29.2104 32.7649 29.2104 33.4749V33.9649C29.2104 34.6749 29.7804 35.2449 30.4904 35.2449H43.1604C43.8704 35.2449 44.4404 34.6749 44.4404 33.9649V33.4749C44.4304 32.7749 43.8604 32.1949 43.1604 32.1949Z" fill="#BD4882"/>
<path d="M10.4403 7.52506C10.4403 7.59506 10.4403 7.68506 10.4303 7.76506C10.3403 11.1651 8.29027 14.0951 5.32027 15.5451C5.06027 15.2351 4.81027 14.9151 4.58027 14.5851C2.71027 11.9951 1.55027 9.05506 1.33027 5.93506C1.29027 5.56506 1.28027 5.17506 1.28027 4.79506C1.28027 3.91506 1.36027 3.04506 1.51027 2.18506H8.63027C8.77027 2.36506 8.90027 2.55506 9.02027 2.74506C9.64027 3.70506 10.0803 4.78506 10.2903 5.94506C10.3903 6.45506 10.4403 6.98506 10.4403 7.52506Z" fill="#FF6B97"/>
<path d="M11.1603 5.94506C11.1303 4.64506 10.8703 3.38506 10.3803 2.18506H8.78031C8.86031 2.37506 8.95031 2.55506 9.02031 2.74506C9.43031 3.75506 9.66031 4.83506 9.69031 5.94506C9.70031 6.04506 9.70031 6.13506 9.70031 6.23506C9.70031 6.30506 9.70031 6.38506 9.69031 6.49506C9.60031 9.96506 7.54031 12.9951 4.57031 14.5951C4.81031 14.9151 5.05031 15.2451 5.31031 15.5551C5.36031 15.6151 5.41031 15.6751 5.46031 15.7351C8.77031 13.8751 11.0503 10.4651 11.1503 6.57506C11.1603 6.47506 11.1603 6.34506 11.1603 6.23506C11.1703 6.13506 11.1703 6.04506 11.1603 5.94506Z" fill="#BD4882"/>
<path d="M54.4101 4.79506C54.4101 5.18506 54.3901 5.56506 54.3701 5.94506C54.3501 6.18506 54.3301 6.43506 54.3001 6.67506C53.9501 9.62506 52.7601 12.3951 50.9201 14.8451C50.6901 15.1651 50.4401 15.4751 50.1801 15.7751C46.9501 14.4351 44.6601 11.3651 44.5701 7.77506C44.5601 7.69506 44.5601 7.60506 44.5601 7.53506C44.5601 6.99506 44.6101 6.46506 44.7101 5.94506C44.9101 4.79506 45.3501 3.73506 45.9501 2.78506C45.9501 2.77506 45.9601 2.77506 45.9601 2.77506C45.9601 2.76506 45.9701 2.76506 45.9701 2.76506C46.1001 2.56506 46.2301 2.37506 46.3801 2.18506H54.2001C54.3301 3.03506 54.4101 3.90506 54.4101 4.79506Z" fill="#FF6B97"/>
<path d="M45.3001 6.49506C45.2901 6.38506 45.2901 6.30506 45.2901 6.23506C45.2901 6.13506 45.2901 6.04506 45.3001 5.94506C45.3301 4.85506 45.5601 3.77506 45.9601 2.78506C45.9601 2.77506 45.9701 2.77506 45.9701 2.77506C45.9701 2.76506 45.9801 2.76506 45.9801 2.76506C46.0501 2.56506 46.1401 2.37506 46.2301 2.18506H44.6201C44.1301 3.37506 43.8701 4.64506 43.8401 5.94506C43.8301 6.04506 43.8301 6.13506 43.8301 6.23506C43.8301 6.34506 43.8301 6.47506 43.8401 6.57506C43.9401 10.6351 46.4401 14.1951 50.0001 15.9851C50.0701 15.9151 50.1301 15.8451 50.1801 15.7751C50.4401 15.4751 50.6901 15.1651 50.9201 14.8451C47.6901 13.3351 45.3901 10.1551 45.3001 6.49506Z" fill="#BD4882"/>
<path d="M54.4103 4.795C54.4103 5.185 54.3903 5.565 54.3703 5.945H1.32027C1.29027 5.565 1.28027 5.175 1.28027 4.795C1.28027 3.915 1.36027 3.045 1.51027 2.185C1.58027 1.705 1.69027 1.225 1.81027 0.755005H53.8803C54.0103 1.225 54.1103 1.705 54.1903 2.195C54.3303 3.035 54.4103 3.905 54.4103 4.795Z" fill="#BD4882"/>
<path d="M43.9604 23.9351L43.6604 29.5251L43.5704 29.4951L40.6504 31.6351L40.6704 28.0851L37.6704 26.0651L41.1604 24.9851L42.2204 21.5951L43.9604 23.9351Z" fill="#FF6B97"/>
</g>
<defs>
<clipPath id="clip0_301_5439">
<rect width="54.33" height="35.65" fill="white" transform="translate(0.680176 0.175049)"/>
</clipPath>
</defs>
</svg>
