<svg width="93" height="170" viewBox="0 0 93 170" fill="none" xmlns="http://www.w3.org/2000/svg">
<g clip-path="url(#clip0_302_372)">
<path d="M49.88 169.615C48.62 169.615 47.6 168.595 47.6 167.335V164.605C47.6 163.865 47.95 163.205 48.53 162.785L46.95 44.755C46.52 44.755 46.1 44.765 45.91 44.765C45.45 44.765 45.2 44.745 44.97 44.725L43.39 162.435C44.31 162.725 44.98 163.585 44.98 164.605V167.335C44.98 168.595 43.96 169.615 42.7 169.615H19.71C18.45 169.615 17.43 168.595 17.43 167.335V164.605C17.43 163.755 17.9 163.015 18.6 162.625L17.44 36.425C16.47 35.795 15.54 35.135 14.66 34.455L14.61 34.415L14.58 34.385C12.07 32.455 9.84996 30.305 7.97996 27.995C7.87996 27.875 7.78996 27.755 7.69996 27.635C7.24996 27.095 6.80996 26.485 6.43996 25.965C3.07996 21.145 1.17996 15.935 0.799961 10.455C0.739961 9.74501 0.709961 9.05501 0.709961 8.39501C0.709961 6.83501 0.839961 5.25501 1.09996 3.70501C1.21996 2.90501 1.39996 2.06501 1.63996 1.13501L1.82996 0.38501H91.85L92.04 1.13501C92.28 2.05501 92.45 2.90501 92.58 3.71501C92.84 5.24501 92.97 6.82501 92.97 8.38501C92.97 9.07501 92.94 9.76501 92.9 10.445C92.87 10.935 92.83 11.365 92.77 11.795C92.17 16.965 90.2 21.895 86.92 26.415C86.52 26.975 86.09 27.535 85.63 28.085C85.57 28.175 85.43 28.335 85.29 28.485C82.37 31.965 78.72 35.015 74.47 37.515L73.32 162.365C74.36 162.575 75.15 163.495 75.15 164.595V167.325C75.15 168.585 74.13 169.605 72.87 169.605H49.88V169.615Z" fill="#F7ECB9"/>
<path d="M19.6302 165.975H42.3402L43.9802 43.685C26.4102 42.195 18.4302 35.865 18.4302 35.865L19.6302 165.975Z" fill="#F2A65E"/>
<path d="M91.91 10.395C91.88 10.815 91.85 11.245 91.79 11.665C91.2 16.785 89.21 21.585 86.12 25.835C85.73 26.385 85.31 26.925 84.87 27.445C84.78 27.575 84.67 27.695 84.56 27.815C81.59 31.355 77.83 34.455 73.48 36.945L72.29 165.975H49.58L47.94 43.745C47.58 43.755 47.22 43.765 46.85 43.765C45.89 43.765 44.93 43.735 43.98 43.685C26.41 42.195 18.43 35.875 18.43 35.875C17.33 35.175 16.27 34.435 15.26 33.655C15.25 33.645 15.23 33.635 15.22 33.625C12.77 31.745 10.6 29.655 8.75004 27.375C8.66004 27.265 8.58004 27.165 8.50004 27.055C8.06004 26.515 7.65004 25.955 7.25004 25.395C4.11004 20.895 2.17004 15.805 1.79004 10.395H91.91Z" fill="#F7ECB9"/>
<path d="M42.7102 163.335H19.7102C19.0002 163.335 18.4302 163.905 18.4302 164.615V167.345C18.4302 168.055 19.0002 168.625 19.7102 168.625H42.7102C43.4202 168.625 43.9902 168.055 43.9902 167.345V164.615C43.9802 163.905 43.4102 163.335 42.7102 163.335Z" fill="#E36956"/>
<path d="M72.8801 163.335H49.8801C49.1701 163.335 48.6001 163.905 48.6001 164.615V167.345C48.6001 168.055 49.1701 168.625 49.8801 168.625H72.8801C73.5901 168.625 74.1601 168.055 74.1601 167.345V164.615C74.1601 163.905 73.5901 163.335 72.8801 163.335Z" fill="#E36956"/>
<path d="M91.98 8.39501C91.98 9.06501 91.95 9.73501 91.91 10.395H1.78996C1.73996 9.73501 1.70996 9.06501 1.70996 8.39501C1.70996 6.86501 1.83996 5.35501 2.08996 3.87501C2.21996 3.03501 2.39996 2.20501 2.60996 1.38501H91.08C91.29 2.20501 91.47 3.03501 91.6 3.87501C91.85 5.35501 91.98 6.86501 91.98 8.39501Z" fill="#F2A65E"/>
<path d="M54.9501 14.565C54.6601 12.275 49.8901 9.96495 47.7601 9.04495C47.4201 8.89495 47.0601 8.82495 46.6901 8.82495C46.3101 8.82495 45.9401 8.90495 45.6001 9.05495C43.5501 9.98495 39.0301 12.275 38.7401 14.555C38.5501 16.005 39.1301 17.215 40.2901 17.795C40.7701 18.035 41.3001 18.155 41.8501 18.155C42.8401 18.155 43.9001 17.765 44.8501 17.055C44.6001 18.225 44.4501 19.535 44.5301 20.875L45.5301 20.815C45.3701 18.175 46.2101 15.635 46.8101 14.185C47.2801 16.235 48.0101 20.595 47.6001 26.555L48.6001 26.625C48.8901 22.405 48.6301 19.005 48.2801 16.595C49.3501 17.605 50.6501 18.145 51.8501 18.145C52.4001 18.145 52.9401 18.025 53.4101 17.785C54.5601 17.225 55.1401 16.005 54.9501 14.565ZM40.7401 16.915C39.9501 16.515 39.6001 15.725 39.7301 14.685C39.9101 13.305 42.9901 11.345 45.9701 9.98495C46.1001 11.325 46.2201 14.465 44.7601 15.855C43.3001 17.255 41.6901 17.395 40.7401 16.915ZM52.9501 16.915C52.0001 17.395 50.3901 17.255 48.9301 15.855C47.4701 14.465 47.4001 11.365 47.4501 9.99495C50.5701 11.345 53.7901 13.315 53.9601 14.685C54.0901 15.725 53.7301 16.515 52.9501 16.915Z" fill="#EB564B"/>
<path d="M68.4 141.395C69.01 141.395 69.51 141.895 69.51 142.505C69.51 143.115 69.01 143.615 68.4 143.615H54.36C53.75 143.615 53.25 143.115 53.25 142.505C53.25 141.895 53.75 141.395 54.36 141.395" fill="#E36956"/>
<path d="M40.3299 158.065C40.9399 158.065 41.4399 158.565 41.4399 159.175C41.4399 159.785 40.9399 160.285 40.3299 160.285H26.2999C25.6899 160.285 25.1899 159.785 25.1899 159.175C25.1899 158.565 25.6899 158.065 26.2999 158.065" fill="#E36956"/>
<path d="M36.9198 153.515C37.5298 153.515 38.0298 154.015 38.0298 154.625C38.0298 155.235 37.5298 155.735 36.9198 155.735H22.8898C22.2798 155.735 21.7798 155.235 21.7798 154.625C21.7798 154.015 22.2798 153.515 22.8898 153.515" fill="#E36956"/>
</g>
<defs>
<clipPath id="clip0_302_372">
<rect width="92.27" height="169.23" fill="white" transform="translate(0.709961 0.38501)"/>
</clipPath>
</defs>
</svg>
