<svg width="52" height="50" viewBox="0 0 52 50" fill="none" xmlns="http://www.w3.org/2000/svg">
<g clip-path="url(#clip0_301_5349)">
<path d="M51.3401 4.58496H0.310059V49.805H51.3401V4.58496Z" fill="#E9FBF8"/>
<path d="M4.98006 4.58496H0.310059V49.795H4.98006V4.58496Z" fill="#9AC1B9"/>
<path d="M49.9501 13.8049C50.6957 13.8049 51.3001 13.1916 51.3001 12.4349C51.3001 11.6783 50.6957 11.0649 49.9501 11.0649C49.2045 11.0649 48.6001 11.6783 48.6001 12.4349C48.6001 13.1916 49.2045 13.8049 49.9501 13.8049Z" fill="#20C9AF"/>
<path d="M49.22 14.2949C48.64 14.0649 48.19 13.5649 48.03 12.9449C47.27 12.8949 46.5 13.2349 46.01 13.9049C45.26 14.9549 45.49 16.4249 46.52 17.1849C47.46 17.8749 48.74 17.7549 49.53 16.9349C49.02 16.1449 48.92 15.1549 49.22 14.2949Z" fill="#1FB6F4"/>
<path d="M51.3403 13.855V17.545C50.8603 17.405 50.4303 17.105 50.1203 16.675C49.6403 16.005 49.5603 15.155 49.8403 14.435C50.4003 14.465 50.9403 14.245 51.3403 13.855Z" fill="#1FB6F4"/>
<path d="M51.3402 7.02492V10.7849C51.2902 10.8249 51.2502 10.8549 51.2002 10.8849C50.7102 10.4849 50.0602 10.3449 49.4602 10.4949C49.2002 9.61492 48.5602 8.87492 47.6602 8.54492C47.8302 7.41492 48.7902 6.54492 49.9502 6.54492C50.4702 6.55492 50.9502 6.73492 51.3402 7.02492Z" fill="#1FB6F4"/>
<path d="M47.9801 12.3149C48.0201 11.6849 48.3501 11.1049 48.8801 10.7549C48.6901 10.0049 48.1301 9.36492 47.3501 9.11492C46.1301 8.71492 44.8201 9.38492 44.4301 10.6249C44.0701 11.7449 44.5901 12.9349 45.5901 13.4549C46.1801 12.6849 47.0801 12.2949 47.9801 12.3149Z" fill="#1FB6F4"/>
<path d="M46.2101 27.5149C47.2594 27.5149 48.1101 26.6508 48.1101 25.5849C48.1101 24.519 47.2594 23.6549 46.2101 23.6549C45.1607 23.6549 44.3101 24.519 44.3101 25.5849C44.3101 26.6508 45.1607 27.5149 46.2101 27.5149Z" fill="#20C9AF"/>
<path d="M46.9301 28.2949C46.0901 28.5249 45.1701 28.3349 44.4801 27.7749C43.5801 28.3749 42.9901 29.4049 43.0001 30.5749C43.0201 32.3949 44.4901 33.8649 46.2901 33.8449C47.9201 33.8249 49.2601 32.6049 49.4801 31.0149C48.2201 30.5549 47.3101 29.5249 46.9301 28.2949Z" fill="#1FB6F4"/>
<path d="M51.3402 25.0349V30.3449C50.8802 30.4149 50.3902 30.3849 49.9102 30.2249C48.8102 29.8749 48.0202 28.9849 47.7402 27.9449C48.4802 27.4549 48.9402 26.6249 48.9902 25.7449C49.8102 25.7449 50.6402 25.5049 51.3402 25.0349Z" fill="#1FB6F4"/>
<path d="M51.3402 19.2049V23.9049C50.6802 24.5649 49.7802 24.8949 48.8902 24.8549C48.6602 23.9849 48.0202 23.2949 47.2102 22.9749C47.6202 21.7649 47.4802 20.3849 46.7202 19.2549C47.8202 18.1049 49.6202 17.9049 50.9502 18.8649C51.0802 18.9649 51.2102 19.0849 51.3402 19.2049Z" fill="#1FB6F4"/>
<path d="M44.06 23.825C44.61 23.135 45.46 22.745 46.35 22.785C46.73 21.765 46.61 20.585 45.92 19.645C44.85 18.185 42.81 17.875 41.36 18.955C40.05 19.935 39.68 21.735 40.42 23.145C41.71 22.765 43.05 23.055 44.06 23.825Z" fill="#1FB6F4"/>
<path d="M43.8902 27.1149C43.4102 26.3749 43.3102 25.4349 43.6202 24.5949C42.7802 23.9149 41.6302 23.6649 40.5402 24.0349C38.8302 24.6149 37.9202 26.4849 38.4902 28.2149C39.0102 29.7849 40.5802 30.6949 42.1402 30.4149C42.1802 29.0549 42.8602 27.8549 43.8902 27.1149Z" fill="#1FB6F4"/>
<path d="M51.34 40.125V41.2649C51.13 41.7349 50.66 42.0649 50.11 42.0649C49.36 42.0649 48.75 41.445 48.75 40.695C48.75 39.935 49.36 39.325 50.11 39.325C50.65 39.325 51.12 39.655 51.34 40.125Z" fill="#20C9AF"/>
<path d="M49.3801 42.5549C48.8001 42.3249 48.3501 41.8249 48.1901 41.2049C47.4301 41.1549 46.6601 41.4949 46.1701 42.1649C45.4201 43.2149 45.6501 44.6849 46.6801 45.4449C47.6201 46.1349 48.9001 46.0149 49.6901 45.1949C49.1801 44.4049 49.0801 43.4149 49.3801 42.5549Z" fill="#1FB6F4"/>
<path d="M51.3404 42.2549V45.7549C50.9304 45.6049 50.5604 45.3249 50.2804 44.9349C49.8004 44.2649 49.7204 43.4149 50.0004 42.6949C50.4804 42.7249 50.9604 42.5649 51.3404 42.2549Z" fill="#1FB6F4"/>
<path d="M51.3403 35.1749V39.1349C50.8503 38.7349 50.2103 38.6049 49.6203 38.7549C49.3603 37.8849 48.7103 37.1449 47.8203 36.8049C47.9903 35.6749 48.9503 34.8149 50.1203 34.8149C50.5603 34.8149 50.9803 34.9449 51.3403 35.1749Z" fill="#1FB6F4"/>
<path d="M48.1402 40.5749C48.1802 39.9449 48.5102 39.3649 49.0402 39.0149C48.8502 38.2649 48.2902 37.6249 47.5102 37.3749C46.2902 36.9749 44.9802 37.6449 44.5902 38.8849C44.2302 40.0049 44.7502 41.1949 45.7502 41.7149C46.3402 40.9449 47.2402 40.5549 48.1402 40.5749Z" fill="#1FB6F4"/>
<path d="M42.02 15.4349C42.3292 15.4349 42.58 15.1797 42.58 14.8649C42.58 14.5501 42.3292 14.2949 42.02 14.2949C41.7107 14.2949 41.46 14.5501 41.46 14.8649C41.46 15.1797 41.7107 15.4349 42.02 15.4349Z" fill="#1FB6F4"/>
<path d="M41.7201 15.625C41.4801 15.525 41.3001 15.325 41.2301 15.065C40.9201 15.045 40.6001 15.185 40.4001 15.465C40.0901 15.895 40.1801 16.505 40.6101 16.815C41.0001 17.105 41.5301 17.045 41.8501 16.715C41.6301 16.385 41.5901 15.985 41.7201 15.625Z" fill="#20C9AF"/>
<path d="M42.6398 15.3849C42.4798 15.5849 42.2298 15.6949 41.9698 15.6849C41.8598 15.9849 41.8898 16.3349 42.0898 16.6049C42.3998 17.0349 42.9998 17.1349 43.4298 16.8149C43.8198 16.5249 43.9298 16.0049 43.7198 15.5849C43.3298 15.7049 42.9398 15.6149 42.6398 15.3849Z" fill="#20C9AF"/>
<path d="M42.7002 14.4149C42.8402 14.6349 42.8702 14.9149 42.7702 15.1549C43.0102 15.3549 43.3502 15.4349 43.6702 15.3249C44.1702 15.1549 44.4502 14.6149 44.2802 14.1049C44.1302 13.6449 43.6702 13.3749 43.2202 13.4449C43.2102 13.8549 43.0102 14.2049 42.7002 14.4149Z" fill="#20C9AF"/>
<path d="M41.8101 14.0649C42.0601 14.0049 42.3301 14.0549 42.5301 14.2249C42.8001 14.0549 42.9701 13.7549 42.9701 13.4049C42.9701 12.8649 42.5401 12.4349 42.0101 12.4349C41.5301 12.4349 41.1301 12.7949 41.0601 13.2549C41.4401 13.3949 41.7101 13.7049 41.8101 14.0649Z" fill="#20C9AF"/>
<path d="M41.2 14.815C41.22 14.555 41.35 14.315 41.57 14.175C41.49 13.865 41.26 13.605 40.94 13.495C40.44 13.325 39.9 13.605 39.73 14.115C39.58 14.575 39.79 15.065 40.21 15.285C40.46 14.965 40.83 14.805 41.2 14.815Z" fill="#20C9AF"/>
<path d="M41.85 36.1749C42.1593 36.1749 42.41 35.9197 42.41 35.6049C42.41 35.2901 42.1593 35.0349 41.85 35.0349C41.5408 35.0349 41.29 35.2901 41.29 35.6049C41.29 35.9197 41.5408 36.1749 41.85 36.1749Z" fill="#F73852"/>
<path d="M41.5497 36.375C41.3097 36.275 41.1297 36.075 41.0597 35.815C40.7497 35.795 40.4297 35.935 40.2297 36.215C39.9197 36.645 40.0097 37.255 40.4397 37.565C40.8297 37.855 41.3597 37.795 41.6797 37.465C41.4697 37.135 41.4297 36.725 41.5497 36.375Z" fill="#20C9AF"/>
<path d="M42.4797 36.1349C42.3197 36.3349 42.0697 36.4449 41.8097 36.4349C41.6997 36.7349 41.7297 37.0849 41.9297 37.3549C42.2397 37.7849 42.8397 37.8849 43.2697 37.5649C43.6597 37.2749 43.7697 36.7549 43.5597 36.3349C43.1697 36.4449 42.7697 36.3649 42.4797 36.1349Z" fill="#20C9AF"/>
<path d="M42.54 35.1649C42.68 35.3849 42.71 35.6649 42.61 35.9049C42.85 36.1049 43.19 36.1849 43.51 36.0749C44.01 35.9049 44.29 35.3649 44.12 34.8549C43.97 34.3949 43.51 34.1249 43.06 34.1949C43.05 34.6049 42.84 34.9549 42.54 35.1649Z" fill="#20C9AF"/>
<path d="M41.6499 34.8149C41.8999 34.7549 42.1699 34.8049 42.3699 34.9749C42.6399 34.8049 42.8099 34.5049 42.8099 34.1549C42.8099 33.6149 42.3799 33.1849 41.8499 33.1849C41.3699 33.1849 40.9699 33.5449 40.8999 34.0049C41.2799 34.1449 41.5399 34.4549 41.6499 34.8149Z" fill="#20C9AF"/>
<path d="M41.0398 35.5549C41.0598 35.2949 41.1898 35.0549 41.4098 34.9149C41.3298 34.6049 41.0998 34.3449 40.7798 34.2349C40.2798 34.0649 39.7398 34.3449 39.5698 34.8549C39.4198 35.3149 39.6298 35.8049 40.0498 36.0249C40.2998 35.7149 40.6698 35.5449 41.0398 35.5549Z" fill="#1FB6F4"/>
<path d="M51.3401 0.194946H0.310059V4.58495H51.3401V0.194946Z" fill="#21D2B2"/>
<path d="M37.9901 0.194946H0.310059V4.58495H37.9901V0.194946Z" fill="#197C7A"/>
</g>
<defs>
<clipPath id="clip0_301_5349">
<rect width="51.03" height="49.61" fill="white" transform="translate(0.310059 0.194946)"/>
</clipPath>
</defs>
</svg>
