<svg width="93" height="100" viewBox="0 0 93 100" fill="none" xmlns="http://www.w3.org/2000/svg">
<g clip-path="url(#clip0_302_412)">
<path d="M49.8497 99.135C48.5897 99.135 47.5697 98.115 47.5697 96.855V94.125C47.5697 93.385 47.9197 92.725 48.4997 92.305L46.9197 45.235C46.4897 45.235 46.0697 45.245 45.8797 45.245C45.4197 45.245 45.1697 45.225 44.9397 45.205L43.3597 91.955C44.2797 92.245 44.9497 93.105 44.9497 94.125V96.865C44.9497 98.125 43.9297 99.145 42.6697 99.145H19.6797C18.4197 99.145 17.3997 98.125 17.3997 96.865V94.135C17.3997 93.285 17.8697 92.545 18.5697 92.155L17.3997 36.905C16.4297 36.275 15.4997 35.615 14.6197 34.935L14.5697 34.895L14.5397 34.865C12.0297 32.935 9.80969 30.785 7.93969 28.475C7.83969 28.355 7.74969 28.235 7.65969 28.115C7.20969 27.575 6.76969 26.965 6.39969 26.445C3.03969 21.625 1.13969 16.415 0.759687 10.935C0.709687 10.225 0.679688 9.53499 0.679688 8.87499C0.679688 7.31499 0.809687 5.73499 1.06969 4.18499C1.18969 3.38499 1.36969 2.54499 1.60969 1.61499L1.79969 0.86499H91.8197L92.0097 1.61499C92.2497 2.53499 92.4197 3.38499 92.5497 4.19499C92.8097 5.72499 92.9397 7.30499 92.9397 8.86499C92.9397 9.55499 92.9097 10.245 92.8697 10.925C92.8397 11.415 92.7997 11.845 92.7397 12.275C92.1397 17.445 90.1697 22.375 86.8897 26.895C86.4897 27.455 86.0597 28.015 85.5997 28.565C85.5397 28.655 85.3997 28.815 85.2597 28.965C82.3397 32.445 78.6897 35.495 74.4397 37.995L73.2897 91.885C74.3297 92.095 75.1197 93.015 75.1197 94.115V96.865C75.1197 98.125 74.0997 99.145 72.8397 99.145H49.8497V99.135Z" fill="#FF6B97"/>
<path d="M19.5999 95.495H42.3099L43.9499 44.165C26.3799 42.675 18.3999 36.345 18.3999 36.345L19.5999 95.495Z" fill="#FF6B97"/>
<path d="M91.8798 10.875C91.8498 11.295 91.8198 11.725 91.7598 12.145C91.1698 17.265 89.1798 22.065 86.0898 26.315C85.6998 26.865 85.2798 27.405 84.8398 27.925C84.7498 28.055 84.6398 28.175 84.5298 28.295C81.5598 31.835 77.7998 34.935 73.4498 37.425L72.2598 95.495H49.5498L47.9098 44.225C47.5498 44.235 47.1898 44.245 46.8198 44.245C45.8598 44.245 44.8998 44.215 43.9498 44.165C26.3798 42.675 18.3998 36.355 18.3998 36.355C17.2998 35.655 16.2398 34.915 15.2298 34.135C15.2198 34.125 15.1998 34.115 15.1898 34.105C12.7398 32.225 10.5698 30.135 8.71977 27.855C8.62977 27.745 8.54977 27.645 8.46977 27.535C8.02977 26.995 7.61977 26.435 7.21977 25.875C4.07977 21.375 2.13977 16.285 1.75977 10.875H91.8798Z" fill="#FFB5B5"/>
<path d="M42.6799 92.855H19.6799C18.9699 92.855 18.3999 93.425 18.3999 94.135V96.865C18.3999 97.575 18.9699 98.145 19.6799 98.145H42.6799C43.3899 98.145 43.9599 97.575 43.9599 96.865V94.135C43.9499 93.425 43.3799 92.855 42.6799 92.855Z" fill="#BD4882"/>
<path d="M72.8498 92.855H49.8498C49.1398 92.855 48.5698 93.425 48.5698 94.135V96.865C48.5698 97.575 49.1398 98.145 49.8498 98.145H72.8498C73.5598 98.145 74.1298 97.575 74.1298 96.865V94.135C74.1298 93.425 73.5598 92.855 72.8498 92.855Z" fill="#BD4882"/>
<path d="M17.0597 13.625C17.0597 13.755 17.0597 13.905 17.0497 14.045C16.8997 19.945 13.4497 25.035 8.46969 27.535C8.02969 26.995 7.61969 26.435 7.21969 25.875C4.07969 21.375 2.13969 16.285 1.75969 10.875C1.70969 10.215 1.67969 9.54498 1.67969 8.87498C1.67969 7.34498 1.80969 5.83498 2.05969 4.35498H14.0197C14.2497 4.66498 14.4697 4.99498 14.6797 5.32498C15.7197 6.98498 16.4597 8.86498 16.8097 10.875C16.9797 11.765 17.0597 12.685 17.0597 13.625Z" fill="#FF6B97"/>
<path d="M18.2797 10.875C18.2297 8.61498 17.7897 6.42498 16.9697 4.35498H14.2697C14.4197 4.67498 14.5597 4.99498 14.6797 5.32498C15.3697 7.08498 15.7597 8.95498 15.8097 10.875C15.8197 11.045 15.8197 11.205 15.8197 11.375C15.8197 11.495 15.8197 11.635 15.8097 11.825C15.6597 17.845 12.1997 23.105 7.21973 25.875C7.61973 26.435 8.02973 26.995 8.46973 27.535C8.54973 27.645 8.62973 27.745 8.71973 27.855C14.2797 24.635 18.1097 18.705 18.2697 11.965C18.2897 11.785 18.2897 11.565 18.2897 11.375C18.2897 11.205 18.2897 11.045 18.2797 10.875Z" fill="#BD4882"/>
<path d="M91.9497 8.87498C91.9497 9.54498 91.9197 10.215 91.8797 10.875C91.8497 11.295 91.8197 11.725 91.7597 12.145C91.1697 17.265 89.1797 22.065 86.0897 26.315C85.6997 26.865 85.2797 27.405 84.8397 27.925C79.4097 25.595 75.5797 20.275 75.4197 14.045C75.4097 13.905 75.4097 13.755 75.4097 13.625C75.4097 12.685 75.4897 11.765 75.6597 10.875C75.9997 8.88498 76.7297 7.03498 77.7497 5.38498C77.7497 5.37498 77.7597 5.37498 77.7597 5.36498C77.7597 5.35498 77.7697 5.35498 77.7697 5.35498C77.9897 5.00498 78.2097 4.67498 78.4497 4.35498H91.5697C91.8197 5.83498 91.9497 7.34498 91.9497 8.87498Z" fill="#FF6B97"/>
<path d="M76.6499 11.825C76.6399 11.635 76.6399 11.495 76.6399 11.375C76.6399 11.205 76.6399 11.045 76.6499 10.875C76.6999 8.98498 77.0799 7.11498 77.7499 5.38498C77.7499 5.37498 77.7599 5.37498 77.7599 5.36498C77.7599 5.35498 77.7699 5.35498 77.7699 5.35498C77.8899 5.01498 78.0399 4.68498 78.1899 4.35498H75.4899C74.6699 6.42498 74.2299 8.61498 74.1799 10.875C74.1699 11.045 74.1699 11.205 74.1699 11.375C74.1699 11.565 74.1699 11.785 74.1899 11.965C74.3599 19.015 78.5499 25.185 84.5299 28.295C84.6399 28.175 84.7499 28.055 84.8399 27.925C85.2799 27.405 85.6999 26.865 86.0899 26.315C80.6599 23.695 76.8099 18.175 76.6499 11.825Z" fill="#BD4882"/>
<path d="M91.9497 8.87499C91.9497 9.54499 91.9197 10.215 91.8797 10.875H1.75969C1.70969 10.215 1.67969 9.54499 1.67969 8.87499C1.67969 7.34499 1.80969 5.83499 2.05969 4.35499C2.18969 3.51499 2.36969 2.68499 2.57969 1.86499H91.0497C91.2597 2.68499 91.4397 3.51499 91.5697 4.35499C91.8197 5.83499 91.9497 7.34499 91.9497 8.87499Z" fill="#BD4882"/>
<path d="M73.4598 54.945V72.845L73.1998 72.775L64.5298 80.095L63.9898 68.745L54.3398 62.765L64.9698 58.755L67.6798 47.725L73.4598 54.945Z" fill="#FF6B97"/>
</g>
<defs>
<clipPath id="clip0_302_412">
<rect width="92.27" height="98.27" fill="white" transform="translate(0.679688 0.86499)"/>
</clipPath>
</defs>
</svg>
