<svg width="54" height="62" viewBox="0 0 54 62" fill="none" xmlns="http://www.w3.org/2000/svg">
<g clip-path="url(#clip0_301_5316)">
<path d="M28.56 61.915C27.82 61.915 27.22 61.325 27.22 60.605V59.035C27.22 58.605 27.43 58.225 27.77 57.985L26.84 25.665C26.59 25.665 26.34 25.665 26.23 25.665C25.96 25.665 25.81 25.655 25.68 25.645L24.75 57.775C25.29 57.945 25.69 58.445 25.69 59.025V60.595C25.69 61.315 25.09 61.905 24.35 61.905H10.8C10.06 61.905 9.46 61.315 9.46 60.595V59.025C9.46 58.535 9.73 58.105 10.15 57.885L9.24 20.855C8.67 20.485 7.77 19.685 7.77 19.685C6.29 18.575 3.83 15.135 3.61 14.835C1.63 12.055 0.51 9.05496 0.29 5.89496C0.27 5.48496 0.25 5.07496 0.25 4.70496C0.25 3.80496 0.33 2.89496 0.48 2.00496C0.55 1.54496 0.66 1.05496 0.8 0.514961L0.91 0.0849609H52.65L52.76 0.514961C52.9 1.04496 53 1.53496 53.08 2.00496C53.23 2.88496 53.31 3.79496 53.31 4.69496C53.31 5.09496 53.29 5.49496 53.27 5.88496C53.25 6.16496 53.23 6.42496 53.19 6.66496C52.84 9.64496 51.68 12.485 49.75 15.085C49.52 15.405 49.26 15.735 48.99 16.045C48.96 16.095 48.87 16.185 48.79 16.275C47.07 18.285 45.55 20.035 43.05 21.485L42.37 57.735C42.98 57.855 43.45 58.385 43.45 59.025V60.595C43.45 61.315 42.85 61.905 42.11 61.905H28.56V61.915Z" fill="#F7ECB9"/>
<path d="M10.7498 59.8149H24.1198L25.0898 25.0449C14.7498 24.1849 10.0498 20.5349 10.0498 20.5349L10.7498 59.8149Z" fill="#F2A65E"/>
<path d="M52.6799 5.85486C52.6599 6.09486 52.6399 6.34486 52.6099 6.58486C52.2599 9.53486 51.0899 12.3049 49.2699 14.7549C49.0399 15.0749 48.7899 15.3849 48.5299 15.6849C48.4799 15.7549 48.4099 15.8249 48.3499 15.8949C46.5999 17.9349 45.0199 19.7249 42.4599 21.1549L41.7599 59.8049H28.3799L27.4099 25.0649C27.2099 25.0849 26.9899 25.0849 26.7799 25.0849C26.2099 25.0849 25.6499 25.0649 25.0899 25.0349C14.7499 24.1749 10.0499 20.5349 10.0499 20.5349C9.39988 20.1349 6.07988 16.9449 4.98988 15.6349C4.93988 15.5749 4.88988 15.5149 4.83988 15.4549C4.57988 15.1449 4.33988 14.8249 4.09988 14.4949C2.24988 11.9049 1.10988 8.97486 0.879883 5.85486H52.6799Z" fill="#F7ECB9"/>
<path d="M23.81 58.2849H11.32C10.61 58.2849 10.04 58.8549 10.04 59.5649V60.0549C10.04 60.7649 10.61 61.3349 11.32 61.3349H23.81C24.52 61.3349 25.09 60.7649 25.09 60.0549V59.5649C25.09 58.8649 24.52 58.2849 23.81 58.2849Z" fill="#E36956"/>
<path d="M41.5801 58.2849H29.0901C28.3801 58.2849 27.8101 58.8549 27.8101 59.5649V60.0549C27.8101 60.7649 28.3801 61.3349 29.0901 61.3349H41.5801C42.2901 61.3349 42.8601 60.7649 42.8601 60.0549V59.5649C42.8601 58.8649 42.2801 58.2849 41.5801 58.2849Z" fill="#E36956"/>
<path d="M52.7198 4.70491C52.7198 5.09491 52.6998 5.47491 52.6798 5.85491H0.889844C0.859844 5.47491 0.839844 5.08491 0.839844 4.70491C0.839844 3.82491 0.919844 2.95491 1.05984 2.09491C1.13984 1.61491 1.23984 1.13491 1.36984 0.654907H52.1898C52.3098 1.12491 52.4198 1.60491 52.4998 2.09491C52.6398 2.94491 52.7198 3.81491 52.7198 4.70491Z" fill="#F2A65E"/>
<path d="M31.9602 10.115C31.7702 8.68495 28.7302 7.24495 27.3702 6.66495C27.1502 6.57495 26.9202 6.52495 26.6902 6.53495C26.4502 6.53495 26.2102 6.58495 25.9902 6.68495C24.6802 7.26495 21.7902 8.69495 21.6102 10.115C21.4902 11.015 21.8602 11.775 22.6002 12.145C22.9002 12.295 23.2402 12.365 23.6002 12.365C24.2302 12.365 24.9102 12.115 25.5102 11.675C25.3502 12.405 25.2502 13.225 25.3002 14.065L25.9402 14.025C25.8402 12.375 26.3702 10.785 26.7602 9.88495C27.0602 11.165 27.5302 13.885 27.2602 17.615L27.9002 17.655C28.0802 15.015 27.9202 12.895 27.6902 11.395C28.3802 12.025 29.2102 12.365 29.9702 12.365C30.3202 12.365 30.6602 12.295 30.9702 12.145C31.7002 11.775 32.0802 11.015 31.9602 10.115ZM22.8802 11.585C22.3802 11.335 22.1502 10.845 22.2302 10.195C22.3402 9.33495 24.3102 8.10495 26.2202 7.26495C26.3002 8.10495 26.3802 10.065 25.4502 10.925C24.5102 11.795 23.4902 11.885 22.8802 11.585ZM30.6802 11.585C30.0802 11.885 29.0502 11.795 28.1102 10.925C27.1802 10.055 27.1302 8.11495 27.1602 7.26495C29.1502 8.11495 31.2102 9.33495 31.3202 10.195C31.4102 10.845 31.1802 11.335 30.6802 11.585Z" fill="#EB564B"/>
<path d="M39.3603 47.885C39.7503 47.885 40.0603 48.195 40.0603 48.575C40.0603 48.955 39.7503 49.265 39.3603 49.265H30.4803C30.0903 49.265 29.7803 48.955 29.7803 48.575C29.7803 48.195 30.0903 47.885 30.4803 47.885" fill="#E36956"/>
<path d="M22.8202 55.9451C23.2102 55.9451 23.5202 56.2551 23.5202 56.6351C23.5202 57.0151 23.2102 57.3251 22.8202 57.3251H13.9402C13.5502 57.3251 13.2402 57.0151 13.2402 56.6351C13.2402 56.2551 13.5502 55.9451 13.9402 55.9451" fill="#E36956"/>
<path d="M20.6601 53.135C21.0501 53.135 21.3601 53.445 21.3601 53.825C21.3601 54.205 21.0501 54.515 20.6601 54.515H11.7801C11.3901 54.515 11.0801 54.205 11.0801 53.825C11.0801 53.445 11.3901 53.135 11.7801 53.135" fill="#E36956"/>
</g>
<defs>
<clipPath id="clip0_301_5316">
<rect width="53.06" height="61.83" fill="white" transform="translate(0.25 0.0849609)"/>
</clipPath>
</defs>
</svg>
