<svg width="52" height="58" viewBox="0 0 52 58" fill="none" xmlns="http://www.w3.org/2000/svg">
<g clip-path="url(#clip0_301_3464)">
<path d="M51.03 11H0.72998V57.11H51.03V11Z" fill="#FF9166"/>
<path d="M7.60998 11H0.72998V57.11H7.60998V11Z" fill="#EB564B"/>
<path d="M18.0499 57.11H15.3799V42.61C15.3799 41.9 15.9499 41.33 16.6599 41.33H16.7799C17.4899 41.33 18.0599 41.9 18.0599 42.61V57.11H18.0499Z" fill="#8C3F5D"/>
<path d="M51.03 0.890015H0.72998V11H51.03V0.890015Z" fill="#EB564B"/>
<path d="M2.11998 8.42004H0.72998V9.81004H2.11998V8.42004Z" fill="#8C3F5D"/>
<path d="M13.3002 9.82004H10.5002V8.42004H13.3002V9.82004ZM7.71016 9.82004H4.91016V8.42004H7.71016V9.82004Z" fill="#8C3F5D"/>
<path d="M46.8398 9.82004H44.0398V8.42004H46.8398V9.82004ZM41.2498 9.82004H38.4498V8.42004H41.2498V9.82004ZM35.6598 9.82004H32.8598V8.42004H35.6598V9.82004ZM30.0698 9.82004H27.2698V8.42004H30.0698V9.82004ZM24.4798 9.82004H21.6798V8.42004H24.4798V9.82004ZM18.8898 9.82004H16.0898V8.42004H18.8898V9.82004Z" fill="#8C3F5D"/>
<path d="M51.0301 8.42004H49.6401V9.81004H51.0301V8.42004Z" fill="#8C3F5D"/>
</g>
<defs>
<clipPath id="clip0_301_3464">
<rect width="50.3" height="56.22" fill="white" transform="translate(0.72998 0.890015)"/>
</clipPath>
</defs>
</svg>
