<svg width="94" height="100" viewBox="0 0 94 100" fill="none" xmlns="http://www.w3.org/2000/svg">
<g clip-path="url(#clip0_302_429)">
<path d="M93.2202 8.87499C93.2202 9.56499 93.1802 10.255 93.1402 10.935C93.1102 11.415 93.0802 11.855 93.0202 12.285C92.9302 13.095 92.8002 13.905 92.6302 14.705C92.1902 16.905 91.4902 19.065 90.5302 21.145C89.8002 22.755 88.9102 24.335 87.8802 25.865C87.6502 26.205 87.4102 26.555 87.1602 26.895C86.7702 27.455 86.3302 28.025 85.8702 28.565C85.8102 28.655 85.6702 28.815 85.5302 28.965C85.0702 29.515 84.5902 30.055 84.0802 30.585C83.1202 31.615 82.0902 32.595 80.9902 33.525C79.4802 34.835 77.8402 36.045 76.0902 37.145C75.6402 37.445 75.1802 37.725 74.7102 38.005L73.5602 91.895C74.6002 92.105 75.3902 93.025 75.3902 94.125V96.855C75.3902 98.115 74.3702 99.135 73.1202 99.135H50.1202C48.8602 99.135 47.8402 98.115 47.8402 96.855V94.125C47.8402 93.385 48.1902 92.725 48.7702 92.305L47.1902 45.235C46.7602 45.235 46.3402 45.245 46.1502 45.245C45.6902 45.245 45.4402 45.225 45.2102 45.205L43.6202 91.955C44.5502 92.245 45.2202 93.105 45.2202 94.125V96.855C45.2202 98.115 44.2002 99.135 42.9402 99.135H19.9402C18.6902 99.135 17.6702 98.115 17.6702 96.855V94.125C17.6702 93.275 18.1302 92.535 18.8402 92.145L17.6702 36.905C16.7002 36.265 15.7702 35.605 14.8902 34.925L14.8402 34.895L14.8102 34.865C12.3002 32.935 10.0802 30.795 8.2102 28.485C8.1102 28.355 8.0202 28.245 7.9302 28.125C7.4802 27.575 7.0402 26.965 6.6702 26.455C3.3102 21.635 1.4102 16.415 1.0302 10.945C0.970195 10.225 0.950195 9.52499 0.950195 8.87499C0.950195 7.30499 1.0802 5.73499 1.3402 4.18499C1.4602 3.38499 1.6402 2.54499 1.8802 1.61499L2.0702 0.86499H92.0902L92.2802 1.61499C92.5202 2.53499 92.7002 3.38499 92.8202 4.19499C93.0802 5.73499 93.2202 7.30499 93.2202 8.87499Z" fill="#C62C3F"/>
<path d="M19.8704 95.495H42.5804L44.2204 44.165C26.6504 42.675 18.6704 36.345 18.6704 36.345L19.8704 95.495Z" fill="#C62C3F"/>
<path d="M92.1503 10.875C92.1203 11.295 92.0903 11.725 92.0303 12.145C91.4403 17.265 89.4503 22.065 86.3603 26.315C85.9703 26.865 85.5503 27.405 85.1103 27.925C85.0203 28.055 84.9103 28.175 84.8003 28.295C81.8303 31.835 78.0703 34.935 73.7203 37.425L72.5303 95.495H49.8203L48.1803 44.225C47.8203 44.235 47.4603 44.245 47.0903 44.245C46.1303 44.245 45.1703 44.215 44.2203 44.165C26.6503 42.675 18.6703 36.355 18.6703 36.355C17.5703 35.655 16.5103 34.915 15.5003 34.135C15.4903 34.125 15.4703 34.115 15.4603 34.105C13.0103 32.225 10.8403 30.135 8.99027 27.855C8.90027 27.745 8.82027 27.645 8.74027 27.535C8.30027 26.995 7.89027 26.435 7.49027 25.875C4.35027 21.375 2.41027 16.285 2.03027 10.875H92.1503Z" fill="#F9364D"/>
<path d="M42.9402 92.855H19.9402C19.2302 92.855 18.6602 93.425 18.6602 94.135V96.865C18.6602 97.575 19.2302 98.145 19.9402 98.145H42.9402C43.6502 98.145 44.2202 97.575 44.2202 96.865V94.135C44.2202 93.425 43.6502 92.855 42.9402 92.855Z" fill="#932729"/>
<path d="M73.1203 92.855H50.1203C49.4103 92.855 48.8403 93.425 48.8403 94.135V96.865C48.8403 97.575 49.4103 98.145 50.1203 98.145H73.1203C73.8303 98.145 74.4003 97.575 74.4003 96.865V94.135C74.3903 93.425 73.8203 92.855 73.1203 92.855Z" fill="#932729"/>
<path d="M92.6301 14.7049C92.1901 16.9049 91.4901 19.0649 90.5301 21.1449L78.3301 8.94495H86.8701L88.8001 10.8749L91.7801 13.8549L92.6301 14.7049Z" fill="#922829"/>
<path d="M87.8802 25.8649C87.6502 26.2049 87.4102 26.5549 87.1602 26.8949C86.7702 27.4549 86.3302 28.0249 85.8702 28.5649C85.8102 28.6549 85.6702 28.8149 85.5302 28.9649C85.0702 29.5149 84.5902 30.0549 84.0802 30.5849L83.3802 29.8849L64.3602 10.8749L62.4302 8.94495H70.9602L87.1702 25.1549L87.8802 25.8649Z" fill="#B2283A"/>
<path d="M80.9901 33.5249C79.4801 34.8349 77.8401 36.0449 76.0901 37.1449L75.3701 36.4249L49.8201 10.8749L47.8901 8.94495H56.4101L58.3401 10.8749L80.2901 32.8149L80.9901 33.5249Z" fill="#CF2E3F"/>
<path d="M92.2202 8.87499C92.2202 9.54499 92.1902 10.215 92.1502 10.875H2.0302C1.9802 10.215 1.9502 9.54499 1.9502 8.87499C1.9502 7.34499 2.0802 5.83499 2.3302 4.35499C2.4602 3.51499 2.6402 2.68499 2.8502 1.86499H91.3202C91.5302 2.68499 91.7102 3.51499 91.8402 4.35499C92.0902 5.83499 92.2202 7.34499 92.2202 8.87499Z" fill="#932729"/>
</g>
<defs>
<clipPath id="clip0_302_429">
<rect width="92.27" height="98.27" fill="white" transform="translate(0.950195 0.86499)"/>
</clipPath>
</defs>
</svg>
