<svg width="93" height="170" viewBox="0 0 93 170" fill="none" xmlns="http://www.w3.org/2000/svg">
<g clip-path="url(#clip0_302_283)">
<path d="M92.4402 9.96497H0.720215V169.105H92.4402V9.96497Z" fill="#E9FBF8"/>
<path d="M10.3602 9.96497H0.720215V169.105H10.3602V9.96497Z" fill="#9AC1B9"/>
<path d="M88.3904 41.4451C90.572 41.4451 92.3404 39.6542 92.3404 37.4451C92.3404 35.2359 90.572 33.4451 88.3904 33.4451C86.2089 33.4451 84.4404 35.2359 84.4404 37.4451C84.4404 39.6542 86.2089 41.4451 88.3904 41.4451Z" fill="#20C9AF"/>
<path d="M86.2801 42.865C84.5901 42.185 83.2901 40.725 82.8201 38.925C80.5901 38.795 78.3501 39.775 76.9401 41.735C74.7401 44.795 75.4101 49.085 78.4401 51.315C81.1801 53.335 84.9201 52.965 87.2301 50.595C85.6801 48.245 85.4001 45.375 86.2801 42.865Z" fill="#1FB6F4"/>
<path d="M92.4402 41.5751V52.3351C91.0502 51.9251 89.7902 51.0651 88.8802 49.7951C87.4702 47.8251 87.2402 45.3651 88.0602 43.2651C89.7002 43.3651 91.2902 42.7251 92.4402 41.5751Z" fill="#1FB6F4"/>
<path d="M92.4402 21.6751V32.6551C92.3102 32.7551 92.1802 32.8451 92.0402 32.9451C90.6102 31.7651 88.7102 31.3551 86.9502 31.8151C86.2002 29.2651 84.3202 27.0951 81.7002 26.1251C82.2002 22.8251 85.0002 20.3051 88.3902 20.3051C89.9002 20.2951 91.3102 20.8051 92.4402 21.6751Z" fill="#1FB6F4"/>
<path d="M82.6502 37.085C82.7602 35.245 83.7302 33.545 85.2802 32.535C84.7202 30.345 83.1002 28.485 80.8202 27.735C77.2602 26.565 73.4502 28.535 72.2902 32.135C71.2402 35.405 72.7402 38.885 75.6802 40.385C77.4102 38.175 80.0302 37.025 82.6502 37.085Z" fill="#1FB6F4"/>
<path d="M77.5005 93.825C80.5601 93.825 83.0405 91.3088 83.0405 88.205C83.0405 85.1011 80.5601 82.585 77.5005 82.585C74.4408 82.585 71.9604 85.1011 71.9604 88.205C71.9604 91.3088 74.4408 93.825 77.5005 93.825Z" fill="#20C9AF"/>
<path d="M79.6005 96.095C77.1405 96.765 74.4605 96.215 72.4505 94.585C69.8305 96.325 68.1105 99.335 68.1405 102.745C68.1905 108.065 72.4905 112.335 77.7405 112.285C82.5005 112.235 86.4105 108.655 87.0605 104.025C83.3605 102.675 80.6805 99.665 79.6005 96.095Z" fill="#1FB6F4"/>
<path d="M92.4404 86.585V102.065C91.0804 102.255 89.6604 102.165 88.2604 101.715C85.0504 100.705 82.7604 98.105 81.9404 95.055C84.1004 93.615 85.4304 91.215 85.5704 88.625C87.9904 88.655 90.4004 87.955 92.4404 86.585Z" fill="#1FB6F4"/>
<path d="M92.4402 69.575V83.285C90.5202 85.225 87.9002 86.175 85.3002 86.055C84.6202 83.525 82.7702 81.495 80.3902 80.575C81.5802 77.035 81.1702 73.005 78.9502 69.725C82.1602 66.365 87.4002 65.785 91.2702 68.585C91.6902 68.875 92.0802 69.215 92.4402 69.575Z" fill="#1FB6F4"/>
<path d="M71.2305 83.0549C72.8405 81.0449 75.3205 79.8949 77.9005 80.0249C79.0105 77.0549 78.6605 73.5949 76.6505 70.8649C73.5205 66.5949 67.5705 65.6949 63.3505 68.8649C59.5305 71.7349 58.4505 76.9649 60.6105 81.0949C64.3705 79.9749 68.2805 80.8149 71.2305 83.0549Z" fill="#1FB6F4"/>
<path d="M70.7403 92.6649C69.3503 90.4949 69.0404 87.7549 69.9504 85.3049C67.5104 83.3149 64.1504 82.5949 60.9604 83.6749C55.9804 85.3649 53.3003 90.8249 54.9803 95.8749C56.5003 100.445 61.0703 103.105 65.6103 102.295C65.7303 98.3149 67.7203 94.8049 70.7403 92.6649Z" fill="#1FB6F4"/>
<path d="M92.4404 135.425V138.755C91.8204 140.135 90.4504 141.095 88.8604 141.095C86.6704 141.095 84.9004 139.305 84.9004 137.095C84.9004 134.885 86.6704 133.085 88.8604 133.085C90.4504 133.085 91.8204 134.035 92.4404 135.425Z" fill="#20C9AF"/>
<path d="M86.7503 142.505C85.0603 141.825 83.7603 140.365 83.2903 138.565C81.0603 138.435 78.8203 139.415 77.4103 141.375C75.2103 144.435 75.8803 148.725 78.9103 150.955C81.6503 152.975 85.3903 152.605 87.7003 150.235C86.1403 147.885 85.8703 145.015 86.7503 142.505Z" fill="#1FB6F4"/>
<path d="M92.4407 141.635V151.835C91.2407 151.385 90.1507 150.575 89.3407 149.445C87.9307 147.475 87.7107 145.015 88.5207 142.905C89.9507 142.995 91.3507 142.525 92.4407 141.635Z" fill="#1FB6F4"/>
<path d="M92.4406 120.985V132.535C91.0206 131.375 89.1506 130.995 87.4206 131.435C86.6706 128.895 84.7806 126.725 82.1606 125.745C82.6606 122.455 85.4706 119.935 88.8606 119.935C90.1706 119.945 91.4106 120.325 92.4406 120.985Z" fill="#1FB6F4"/>
<path d="M83.1205 136.725C83.2305 134.885 84.2004 133.185 85.7504 132.175C85.1904 129.985 83.5704 128.125 81.2904 127.375C77.7304 126.205 73.9204 128.175 72.7604 131.775C71.7104 135.045 73.2104 138.525 76.1504 140.025C77.8804 137.815 80.4904 136.665 83.1205 136.725Z" fill="#1FB6F4"/>
<path d="M63.6305 53.315C64.5307 53.315 65.2605 52.5763 65.2605 51.665C65.2605 50.7537 64.5307 50.015 63.6305 50.015C62.7303 50.015 62.0005 50.7537 62.0005 51.665C62.0005 52.5763 62.7303 53.315 63.6305 53.315Z" fill="#1FB6F4"/>
<path d="M62.7602 53.8949C62.0602 53.6149 61.5302 53.0149 61.3402 52.2749C60.4202 52.2249 59.5002 52.6249 58.9202 53.4349C58.0102 54.6949 58.2902 56.4649 59.5402 57.3849C60.6702 58.2149 62.2102 58.0649 63.1602 57.0849C62.5102 56.1149 62.4002 54.9249 62.7602 53.8949Z" fill="#20C9AF"/>
<path d="M65.4605 53.1849C64.9805 53.7649 64.2505 54.1049 63.5005 54.0549C63.1705 54.9249 63.2605 55.9349 63.8405 56.7449C64.7505 58.0049 66.4905 58.2849 67.7405 57.3749C68.8705 56.5449 69.2005 55.0149 68.5805 53.7949C67.4605 54.1149 66.3105 53.8549 65.4605 53.1849Z" fill="#20C9AF"/>
<path d="M65.6304 50.375C66.0304 51.015 66.1204 51.825 65.8404 52.535C66.5504 53.125 67.5304 53.345 68.4704 53.035C69.9404 52.555 70.7404 50.955 70.2604 49.475C69.8304 48.125 68.4904 47.335 67.1604 47.555C67.1104 48.725 66.5204 49.755 65.6304 50.375Z" fill="#20C9AF"/>
<path d="M63.0401 49.335C63.7601 49.145 64.5501 49.315 65.1301 49.805C65.9001 49.305 66.4201 48.425 66.4201 47.425C66.4201 45.865 65.1701 44.595 63.6301 44.595C62.2301 44.595 61.0801 45.635 60.8701 46.995C61.9501 47.395 62.7301 48.285 63.0401 49.335Z" fill="#20C9AF"/>
<path d="M61.2603 51.515C61.3103 50.755 61.7103 50.055 62.3403 49.645C62.1103 48.745 61.4403 47.975 60.5003 47.665C59.0303 47.185 57.4603 47.995 56.9903 49.475C56.5603 50.825 57.1803 52.255 58.3903 52.875C59.1103 51.965 60.1803 51.485 61.2603 51.515Z" fill="#20C9AF"/>
<path d="M63.6305 122.445C64.5307 122.445 65.2605 121.706 65.2605 120.795C65.2605 119.884 64.5307 119.145 63.6305 119.145C62.7303 119.145 62.0005 119.884 62.0005 120.795C62.0005 121.706 62.7303 122.445 63.6305 122.445Z" fill="#1FB6F4"/>
<path d="M62.7602 123.025C62.0602 122.745 61.5302 122.145 61.3402 121.405C60.4202 121.355 59.5002 121.755 58.9202 122.565C58.0102 123.825 58.2902 125.595 59.5402 126.515C60.6702 127.345 62.2102 127.195 63.1602 126.215C62.5102 125.245 62.4002 124.055 62.7602 123.025Z" fill="#20C9AF"/>
<path d="M65.4605 122.315C64.9805 122.895 64.2505 123.235 63.5005 123.185C63.1705 124.055 63.2605 125.065 63.8405 125.875C64.7505 127.135 66.4905 127.415 67.7405 126.505C68.8705 125.675 69.2005 124.145 68.5805 122.925C67.4605 123.245 66.3105 122.985 65.4605 122.315Z" fill="#20C9AF"/>
<path d="M65.6304 119.505C66.0304 120.145 66.1204 120.955 65.8404 121.665C66.5504 122.255 67.5304 122.475 68.4704 122.165C69.9404 121.685 70.7404 120.085 70.2604 118.605C69.8304 117.255 68.4904 116.465 67.1604 116.685C67.1104 117.855 66.5204 118.885 65.6304 119.505Z" fill="#20C9AF"/>
<path d="M63.0401 118.465C63.7601 118.275 64.5501 118.445 65.1301 118.935C65.9001 118.435 66.4201 117.555 66.4201 116.555C66.4201 114.995 65.1701 113.725 63.6301 113.725C62.2301 113.725 61.0801 114.765 60.8701 116.125C61.9501 116.525 62.7301 117.415 63.0401 118.465Z" fill="#20C9AF"/>
<path d="M61.2603 120.645C61.3103 119.885 61.7103 119.185 62.3403 118.775C62.1103 117.875 61.4403 117.105 60.5003 116.795C59.0303 116.315 57.4603 117.125 56.9903 118.605C56.5603 119.955 57.1803 121.385 58.3903 122.005C59.1103 121.085 60.1803 120.615 61.2603 120.645Z" fill="#20C9AF"/>
<path d="M92.4402 0.89502H0.720215V9.96502H92.4402V0.89502Z" fill="#21D2B2"/>
<path d="M64.8902 0.89502H0.720215V9.96502H64.8902V0.89502Z" fill="#197C7A"/>
</g>
<defs>
<clipPath id="clip0_302_283">
<rect width="91.72" height="168.21" fill="white" transform="translate(0.720215 0.89502)"/>
</clipPath>
</defs>
</svg>
