<svg width="87" height="76" viewBox="0 0 87 76" fill="none" xmlns="http://www.w3.org/2000/svg">
<g clip-path="url(#clip0_301_11283)">
<path d="M46.34 75.145C45.18 75.145 44.24 74.205 44.24 73.045V70.525C44.24 69.845 44.57 69.225 45.1 68.845L43.64 41.805C43.25 41.805 42.85 41.815 42.68 41.815C42.26 41.815 42.02 41.795 41.81 41.785L40.35 68.525C41.2 68.795 41.82 69.595 41.82 70.525V73.045C41.82 74.205 40.88 75.145 39.72 75.145H18.49C17.33 75.145 16.39 74.205 16.39 73.045V70.525C16.39 69.735 16.82 69.055 17.47 68.695L16.39 34.105C15.5 33.525 14.63 32.905 13.83 32.285L13.78 32.255L13.75 32.225C11.44 30.445 9.38996 28.465 7.65996 26.335C7.56996 26.225 7.47996 26.115 7.39996 26.005C6.98996 25.505 6.57996 24.945 6.23996 24.465C3.13996 20.015 1.38996 15.205 1.02996 10.155C0.989961 9.49498 0.959961 8.85498 0.959961 8.24498C0.959961 6.80498 1.07996 5.34498 1.31996 3.92498C1.42996 3.18498 1.59996 2.40498 1.81996 1.55498L1.99996 0.85498H85.08L85.26 1.54498C85.48 2.39498 85.64 3.17498 85.76 3.93498C86 5.35498 86.12 6.80498 86.12 8.24498C86.12 8.88498 86.09 9.51498 86.05 10.145C86.02 10.595 85.99 10.995 85.93 11.395C85.38 16.165 83.56 20.715 80.53 24.885C80.17 25.395 79.76 25.925 79.33 26.425C79.28 26.505 79.15 26.655 79.02 26.795C76.33 30.005 72.96 32.815 69.03 35.135L67.97 68.475C68.93 68.665 69.66 69.515 69.66 70.535V73.055C69.66 74.215 68.72 75.155 67.56 75.155H46.34V75.145Z" fill="#F7ECB9"/>
<path d="M18.4198 71.785H39.3798L40.8998 40.815C24.6798 39.435 17.3198 33.605 17.3198 33.605L18.4198 71.785Z" fill="#F2A65E"/>
<path d="M85.12 10.095C85.09 10.485 85.06 10.875 85.01 11.265C84.47 15.985 82.63 20.415 79.78 24.345C79.42 24.855 79.03 25.355 78.63 25.835C78.55 25.955 78.45 26.065 78.34 26.175C75.6 29.445 72.13 32.305 68.11 34.605L67.01 71.795H46.06L44.55 40.885C44.22 40.895 43.89 40.905 43.54 40.905C42.65 40.905 41.77 40.875 40.89 40.835C24.68 39.455 17.31 33.625 17.31 33.625C16.29 32.975 15.32 32.295 14.38 31.575C14.37 31.565 14.35 31.555 14.34 31.545C12.08 29.815 10.08 27.885 8.36996 25.775C8.28996 25.675 8.20996 25.585 8.13996 25.475C7.72996 24.975 7.35996 24.455 6.98996 23.945C4.09996 19.785 2.30996 15.085 1.95996 10.095H85.12Z" fill="#F7ECB9"/>
<path d="M39.6201 69.345H18.5901C17.8801 69.345 17.3101 69.915 17.3101 70.625V72.945C17.3101 73.655 17.8801 74.225 18.5901 74.225H39.6201C40.3301 74.225 40.9001 73.655 40.9001 72.945V70.625C40.8901 69.915 40.3201 69.345 39.6201 69.345Z" fill="#E36956"/>
<path d="M67.4597 69.345H46.4397C45.7297 69.345 45.1597 69.915 45.1597 70.625V72.945C45.1597 73.655 45.7297 74.225 46.4397 74.225H67.4597C68.1697 74.225 68.7397 73.655 68.7397 72.945V70.625C68.7397 69.915 68.1697 69.345 67.4597 69.345Z" fill="#E36956"/>
<path d="M85.1899 8.24502C85.1899 8.86502 85.1599 9.48502 85.1299 10.095H1.95988C1.90988 9.48502 1.87988 8.86502 1.87988 8.24502C1.87988 6.83502 1.99988 5.43502 2.22988 4.07502C2.34988 3.29502 2.51988 2.53502 2.70988 1.77502H84.3599C84.5499 2.53502 84.7199 3.29502 84.8399 4.07502C85.0699 5.44502 85.1899 6.83502 85.1899 8.24502Z" fill="#F2A65E"/>
<path d="M51.6498 15.515C51.3598 13.225 46.5898 10.915 44.4598 9.99502C44.1198 9.84502 43.7598 9.77502 43.3898 9.77502C43.0098 9.77502 42.6398 9.85502 42.2998 10.005C40.2498 10.935 35.7298 13.225 35.4398 15.505C35.2498 16.955 35.8298 18.165 36.9898 18.745C37.4698 18.985 37.9998 19.105 38.5498 19.105C39.5398 19.105 40.5998 18.715 41.5498 18.005C41.2998 19.175 41.1498 20.485 41.2298 21.825L42.2298 21.765C42.0698 19.125 42.9098 16.585 43.5098 15.135C43.9798 17.185 44.7098 21.545 44.2998 27.505L45.2998 27.575C45.5898 23.355 45.3298 19.955 44.9798 17.545C46.0498 18.555 47.3498 19.095 48.5498 19.095C49.0998 19.095 49.6398 18.975 50.1098 18.735C51.2498 18.175 51.8298 16.965 51.6498 15.515ZM37.4398 17.865C36.6498 17.465 36.2998 16.675 36.4298 15.635C36.6098 14.255 39.6898 12.295 42.6698 10.935C42.7998 12.275 42.9198 15.415 41.4598 16.805C39.9898 18.205 38.3798 18.345 37.4398 17.865ZM49.6398 17.865C48.6898 18.345 47.0798 18.205 45.6198 16.805C44.1598 15.415 44.0898 12.315 44.1398 10.945C47.2598 12.295 50.4798 14.265 50.6498 15.635C50.7898 16.685 50.4298 17.475 49.6398 17.865Z" fill="#EB564B"/>
<path d="M62.8902 50.475C63.5002 50.475 64.0002 50.975 64.0002 51.585C64.0002 52.195 63.5002 52.695 62.8902 52.695H48.8502C48.2402 52.695 47.7402 52.195 47.7402 51.585C47.7402 50.975 48.2402 50.475 48.8502 50.475" fill="#E36956"/>
<path d="M37.8202 64.535C38.4302 64.535 38.9302 65.035 38.9302 65.645C38.9302 66.255 38.4302 66.755 37.8202 66.755H23.7902C23.1802 66.755 22.6802 66.255 22.6802 65.645C22.6802 65.035 23.1802 64.535 23.7902 64.535" fill="#E36956"/>
<path d="M34.42 59.995C35.03 59.995 35.53 60.495 35.53 61.105C35.53 61.715 35.03 62.215 34.42 62.215H20.38C19.77 62.215 19.27 61.715 19.27 61.105C19.27 60.495 19.77 59.995 20.38 59.995" fill="#E36956"/>
</g>
<defs>
<clipPath id="clip0_301_11283">
<rect width="85.15" height="74.29" fill="white" transform="translate(0.959961 0.85498)"/>
</clipPath>
</defs>
</svg>
