<svg width="53" height="168" viewBox="0 0 53 168" fill="none" xmlns="http://www.w3.org/2000/svg">
<g clip-path="url(#clip0_301_3426)">
<path d="M1.6001 0.38501V163.885H21.9501V42.665C23.4001 42.915 24.9201 43.045 26.4601 43.045C27.8601 43.045 29.2301 42.945 30.5701 42.725V163.885H50.9201V0.38501H1.6001Z" fill="#F7ECB9"/>
<path d="M51.1601 162.325H30.4201C29.7101 162.325 29.1401 162.895 29.1401 163.605V166.335C29.1401 167.045 29.7101 167.615 30.4201 167.615H51.1601C51.8701 167.615 52.4401 167.045 52.4401 166.335V163.605C52.4401 162.895 51.8601 162.325 51.1601 162.325Z" fill="#E36956"/>
<path d="M21.9501 42.665V163.885H1.6001V25.235C1.6001 25.235 4.4801 40.315 21.9501 42.665Z" fill="#F2A65E"/>
<path d="M22.0901 162.325H1.36008C0.650078 162.325 0.0800781 162.895 0.0800781 163.605V166.335C0.0800781 167.045 0.650078 167.615 1.36008 167.615H22.1001C22.8101 167.615 23.3801 167.045 23.3801 166.335V163.605C23.3701 162.895 22.8001 162.325 22.0901 162.325Z" fill="#E36956"/>
<path d="M50.9201 0.38501H1.6001V9.38501H50.9201V0.38501Z" fill="#F2A65E"/>
<path d="M47.1 142.425C47.65 142.425 48.1 142.875 48.1 143.425C48.1 143.975 47.65 144.425 47.1 144.425H34.48C33.93 144.425 33.48 143.975 33.48 143.425C33.48 142.875 33.93 142.425 34.48 142.425" fill="#E36956"/>
<path d="M19.7003 157.405C20.2503 157.405 20.7003 157.855 20.7003 158.405C20.7003 158.955 20.2503 159.405 19.7003 159.405H7.07031C6.52031 159.405 6.07031 158.955 6.07031 158.405C6.07031 157.855 6.52031 157.405 7.07031 157.405" fill="#E36956"/>
<path d="M16.6303 153.325C17.1803 153.325 17.6303 153.775 17.6303 154.325C17.6303 154.875 17.1803 155.325 16.6303 155.325H4.01025C3.46025 155.325 3.01025 154.875 3.01025 154.325C3.01025 153.775 3.46025 153.325 4.01025 153.325" fill="#E36956"/>
<path d="M34.3603 15.125C34.0703 12.835 29.3003 10.525 27.1703 9.60501C26.8303 9.45501 26.4703 9.38501 26.1003 9.38501C25.7203 9.38501 25.3503 9.46501 25.0103 9.61501C22.9603 10.545 18.4403 12.835 18.1503 15.115C17.9603 16.565 18.5403 17.775 19.7003 18.355C20.1803 18.595 20.7103 18.715 21.2603 18.715C22.2503 18.715 23.3103 18.325 24.2603 17.615C24.0103 18.785 23.8603 20.095 23.9403 21.435L24.9403 21.375C24.7803 18.735 25.6203 16.195 26.2203 14.745C26.6903 16.795 27.4203 21.155 27.0103 27.115L28.0103 27.185C28.3003 22.965 28.0403 19.565 27.6903 17.155C28.7603 18.165 30.0603 18.705 31.2603 18.705C31.8103 18.705 32.3503 18.585 32.8203 18.345C33.9703 17.775 34.5503 16.565 34.3603 15.125ZM20.1603 17.475C19.3703 17.075 19.0203 16.285 19.1503 15.245C19.3303 13.865 22.4103 11.905 25.3903 10.545C25.5203 11.885 25.6403 15.025 24.1803 16.415C22.7103 17.815 21.1003 17.955 20.1603 17.475ZM32.3603 17.475C31.4103 17.955 29.8003 17.815 28.3403 16.415C26.8803 15.025 26.8103 11.925 26.8603 10.555C29.9803 11.905 33.2003 13.875 33.3703 15.245C33.5003 16.285 33.1403 17.075 32.3603 17.475Z" fill="#EB564B"/>
</g>
<defs>
<clipPath id="clip0_301_3426">
<rect width="52.36" height="167.23" fill="white" transform="translate(0.0800781 0.38501)"/>
</clipPath>
</defs>
</svg>
