<svg width="164" height="317" viewBox="0 0 164 317" fill="none" xmlns="http://www.w3.org/2000/svg">
<g clip-path="url(#clip0_347_904)">
<path d="M108.76 303.48C127.096 303.48 141.96 277.548 141.96 245.56C141.96 213.572 127.096 187.64 108.76 187.64C90.4242 187.64 75.5601 213.572 75.5601 245.56C75.5601 277.548 90.4242 303.48 108.76 303.48Z" fill="#808080"/>
<path d="M152.22 316.69C145.79 316.69 140.75 308.14 140.75 297.22C140.75 286.3 145.79 277.75 152.22 277.75C158.65 277.75 163.69 286.3 163.69 297.22C163.69 308.14 158.65 316.69 152.22 316.69ZM152.22 282.69C149.13 282.69 145.68 288.91 145.68 297.23C145.68 305.55 149.13 311.77 152.22 311.77C155.3 311.77 158.75 305.55 158.75 297.23C158.75 288.9 155.3 282.69 152.22 282.69Z" fill="#686868"/>
<path d="M152.22 311.76C156.473 311.76 159.92 305.25 159.92 297.22C159.92 289.19 156.473 282.68 152.22 282.68C147.967 282.68 144.52 289.19 144.52 297.22C144.52 305.25 147.967 311.76 152.22 311.76Z" fill="#CFCFCF"/>
<path d="M108.08 316.69C87.7 316.69 71.73 285.04 71.73 244.63C71.73 204.22 87.7 172.57 108.08 172.57C128.46 172.57 144.43 204.22 144.43 244.63C144.43 285.04 128.46 316.69 108.08 316.69ZM108.08 177.51C91.05 177.51 76.67 208.25 76.67 244.64C76.67 281.03 91.06 311.77 108.08 311.77C125.1 311.77 139.5 281.03 139.5 244.64C139.49 208.25 125.11 177.51 108.08 177.51Z" fill="#686868"/>
<path d="M152.22 289.8C152.2 289.8 152.18 289.8 152.16 289.8C150.8 289.77 149.72 288.64 149.75 287.27C149.77 286.29 149.78 273.38 149.78 272.14C149.58 224.68 114.6 214.03 114.25 213.92C112.94 213.54 112.19 212.17 112.56 210.87C112.94 209.56 114.31 208.8 115.61 209.18C116 209.29 154.48 221 154.7 272.11C154.7 272.83 154.7 286.24 154.67 287.37C154.65 288.73 153.56 289.8 152.22 289.8Z" fill="#CFCFCF"/>
<path d="M147.57 212.79H50.5801V198.86H136.28C142.52 198.86 147.57 203.92 147.57 210.15V212.79Z" fill="#808080"/>
<path d="M104.38 123.08H33.6802V198.97H104.38V123.08Z" fill="#9F9F9F"/>
<path d="M45.6502 197.82C42.9302 197.82 40.7202 195.61 40.7202 192.89V151.69C38.8902 126.88 3.17019 110.71 2.78019 110.51C0.330191 109.31 -0.679809 106.36 0.510191 103.91C1.71019 101.46 4.66019 100.45 7.11019 101.64C8.92019 102.53 48.5202 120.65 50.5802 151.18L50.5902 151.51V197.81C50.5802 200.55 48.3702 197.82 45.6502 197.82Z" fill="#BCBCBC"/>
<path d="M110.64 197.82C107.92 197.82 105.71 195.61 105.71 192.89V151.69C103.88 126.88 68.1604 110.71 67.7704 110.51C65.3204 109.31 64.3104 106.36 65.5004 103.91C66.7004 101.46 69.6504 100.45 72.1004 101.64C73.9104 102.53 113.51 120.65 115.57 151.18L115.58 151.51V197.81C115.57 200.55 113.37 197.82 110.64 197.82Z" fill="#BCBCBC"/>
<path d="M90.1801 291.72C90.1601 291.72 90.1401 291.72 90.1201 291.72C88.7601 291.69 87.6801 290.56 87.7101 289.19C87.7301 288.21 87.7401 275.3 87.7401 274.06C87.5401 226.75 54.5301 216.26 53.1301 215.84C51.8301 215.45 51.0901 214.07 51.4801 212.77C51.8701 211.47 53.2301 210.72 54.5401 211.11C54.9201 211.22 92.4601 222.94 92.6801 274.04C92.6801 274.76 92.6801 288.17 92.6501 289.3C92.6101 290.66 91.5101 291.72 90.1801 291.72Z" fill="#CFCFCF"/>
<path d="M29.4398 103.39C29.4198 103.69 29.4498 103.73 29.4598 103.65C29.4498 103.55 29.4498 103.47 29.4498 103.42C29.4398 103.4 29.4398 103.4 29.4398 103.39Z" fill="#BDBDBD"/>
<path d="M40.9096 87.4201C39.7596 86.6901 38.2396 87.0301 37.4996 88.1801L34.8297 92.1001C34.5897 92.4601 34.0297 92.3201 33.9697 91.9001L33.3396 87.0401L35.3496 71.5001C35.5096 70.2901 34.8296 69.0501 33.6596 68.7001C32.1596 68.2501 30.6696 69.2501 30.4796 70.7401L28.2896 87.7101L28.1796 87.7201V68.5801C28.1796 67.3501 27.3396 66.2101 26.1296 66.0101C24.5796 65.7601 23.2496 66.9401 23.2496 68.4401V71.7601C22.9396 70.6601 21.8796 69.8601 20.6496 69.9801C19.3596 70.1001 18.4196 71.2801 18.4196 72.5801V77.0901C17.9396 76.5701 17.2596 76.2501 16.5196 76.2801C15.1596 76.3301 14.0996 77.4801 14.1496 78.8401L15.3496 93.1701C15.5096 96.6101 17.7496 101.59 17.7496 101.59C18.1296 102.57 19.7996 104.86 20.7896 104.86C21.0796 104.86 20.6496 103.12 20.9396 103.01C21.6496 102.74 22.1496 102.17 22.3796 101.51C22.8396 101.93 23.4296 102.19 24.0496 102.19C24.3796 102.19 24.7096 102.12 25.0296 101.98C25.3296 101.85 25.5896 101.67 25.7996 101.45C26.1296 102.49 27.0896 103.18 28.1396 103.18C28.3596 103.18 28.5796 103.15 28.7996 103.09C29.2296 102.97 29.3896 103.18 29.4496 103.38C29.4496 103.37 29.4496 103.36 29.4496 103.35C29.4496 103.35 29.4496 103.38 29.4596 103.41C29.4796 103.51 29.4796 103.59 29.4696 103.64C29.5196 104.26 29.7696 105.54 31.2296 103.82L37.7496 96.6201L41.6696 90.8201C42.3996 89.6701 42.0596 88.1501 40.9096 87.4201Z" fill="#BDBDBD"/>
<path d="M40.9099 87.4201C39.7599 86.6901 38.2399 87.0301 37.4999 88.1801L34.8299 92.1001C34.5899 92.4601 34.0299 92.3201 33.9699 91.9001L34.0999 87.0401L35.3399 71.5001C35.4999 70.2901 34.8199 69.0501 33.6499 68.7001C32.1499 68.2501 30.6599 69.2501 30.4699 70.7401L28.2699 83.1501L28.1699 68.5901C28.1699 67.3601 27.3299 66.2201 26.1199 66.0201C24.5699 65.7701 23.2399 66.9501 23.2399 68.4501V71.7701C22.9299 70.6701 21.8699 69.8701 20.6399 69.9901C19.3499 70.1101 18.4099 71.2901 18.4099 72.5901V77.1001C17.9299 76.5801 17.2499 76.2601 16.5099 76.2901C15.1499 76.3401 14.0899 77.4901 14.1399 78.8501L15.3399 93.1801C15.4999 96.6201 17.7399 101.6 17.7399 101.6C18.1199 102.58 19.7899 104.87 20.7799 104.87C21.0699 104.87 20.6399 103.13 20.9299 103.02C21.6399 102.75 22.1399 102.18 22.3699 101.52C22.8299 101.94 23.4199 102.2 24.0399 102.2C24.3699 102.2 24.6999 102.13 25.0199 101.99C25.3199 101.86 25.5799 101.68 25.7899 101.46C26.1199 102.5 27.0799 103.19 28.1299 103.19C28.3499 103.19 28.5699 103.16 28.7899 103.1C29.2199 102.98 29.3799 103.19 29.4399 103.39C29.4399 103.38 29.4399 103.37 29.4399 103.36C29.4399 103.36 29.4399 103.39 29.4499 103.42C29.4699 103.52 29.4699 103.6 29.4599 103.65C29.5099 104.27 29.7599 105.55 31.2199 103.83L37.7399 96.6301L41.6599 90.8301C42.3999 89.6701 42.0599 88.1501 40.9099 87.4201Z" fill="#F6C09C"/>
<path d="M64.1001 77.3101V126.5L64.0601 126.81C64.0201 127.16 63.9701 127.5 63.9101 127.83C63.2701 131.52 61.5401 134.71 59.1101 137.3C57.9401 138.57 56.6101 139.69 55.1501 140.65C50.9601 143.45 45.8001 144.99 40.8401 144.99C40.2201 144.99 39.6101 144.97 39.0001 144.92C34.8101 144.59 30.9701 143 27.5901 140.2C22.4101 135.9 19.4401 129.37 19.4401 122.29V104.76C19.4401 104.55 19.4801 104.34 19.5001 104.12C19.3001 103.93 19.1201 103.73 18.9301 103.49C18.8301 103.38 18.7401 103.27 18.6601 103.16C18.5901 103.06 18.5201 102.96 18.4601 102.88C18.1101 102.4 17.8401 101.93 17.7201 101.6C17.7201 101.6 15.4901 96.6301 15.3301 93.1801L14.1301 78.8501C14.0801 77.4901 15.1401 76.3501 16.5001 76.3001C17.2401 76.2801 17.9301 76.6001 18.4001 77.1001V72.6001C18.4001 71.2901 19.3401 70.1201 20.6301 70.0001C21.8601 69.8901 22.9101 70.6801 23.2301 71.7801V85.8401C23.2301 89.9001 27.4601 93.0601 31.4901 92.5901C31.4901 92.5901 25.4801 98.0201 31.2101 103.85C30.9301 104.17 30.7001 104.38 30.5101 104.52C30.5101 104.62 30.5301 104.7 30.5301 104.79V122.32C30.5301 126.08 32.0301 129.5 34.6701 131.68C36.2701 133.01 37.9801 133.73 39.8601 133.89C43.2301 134.15 47.1601 132.9 49.8601 130.72C51.1401 129.68 52.1401 128.43 52.6601 127.02C52.8001 126.64 52.9101 126.24 52.9701 125.84V90.5401C52.9701 85.4201 55.1701 80.4801 59.0901 77.3101C59.5701 76.9201 60.0601 76.5501 60.5901 76.2101C61.4901 75.6401 62.4501 75.1601 63.4501 74.7701C63.8801 75.5301 64.1001 76.4001 64.1001 77.3101Z" fill="#AD7153"/>
<path d="M89.9304 73.5901H69.7004C67.5004 73.5901 65.4104 74.0101 63.4804 74.7701C58.1304 76.8501 55.3304 81.5901 54.2304 87.3701C54.0204 88.4101 53.9204 89.4901 53.9204 90.5901V127.83L58.5304 128.05L59.9604 198.59H106.93V130.36V128.37V90.6001C106.94 81.2101 99.3204 73.5901 89.9304 73.5901Z" fill="#F6C09C"/>
<path d="M62.5703 40C66.7345 40 70.1103 36.6243 70.1103 32.46C70.1103 28.2958 66.7345 24.92 62.5703 24.92C58.406 24.92 55.0303 28.2958 55.0303 32.46C55.0303 36.6243 58.406 40 62.5703 40Z" fill="#AD7153"/>
<path d="M61.0005 28.6C58.9005 28.7 57.2305 30.42 57.2305 32.54H61.0005V28.6Z" fill="#975C45"/>
<path d="M102.42 40C106.585 40 109.96 36.6243 109.96 32.46C109.96 28.2958 106.585 24.92 102.42 24.92C98.2561 24.92 94.8804 28.2958 94.8804 32.46C94.8804 36.6243 98.2561 40 102.42 40Z" fill="#AD7153"/>
<path d="M108.24 32.4501C108.14 30.3501 106.42 28.6801 104.3 28.6801V32.4501H108.24Z" fill="#975C45"/>
<path d="M90.28 60.8H74.29V77.49H90.28V60.8Z" fill="#F6C09C"/>
<path d="M74.29 66.9001C76.78 67.6801 79.83 68.1401 83.13 68.1401C85.72 68.1401 88.15 67.8601 90.28 67.3601V59.0101H74.29V66.9001Z" fill="#AD7153"/>
<path d="M82.5703 64.1001C71.5303 64.1001 62.5703 55.1501 62.5703 44.1001V20.8101C62.5703 9.77006 71.5203 0.810059 82.5703 0.810059C93.6103 0.810059 102.57 9.76006 102.57 20.8101V44.1101C102.57 55.1501 93.6103 64.1001 82.5703 64.1001Z" fill="#F6C09C"/>
<path d="M66.2803 44.1101V9.24005C63.9603 12.5101 62.5703 16.4901 62.5703 20.8101V44.1101C62.5703 55.1501 71.5203 64.1101 82.5703 64.1101C83.2003 64.1101 83.8103 64.0701 84.4203 64.0201C74.2503 63.0801 66.2803 54.5301 66.2803 44.1101Z" fill="#AD7153"/>
<path d="M59.1201 77.3101V137.3C57.9501 138.57 56.6201 139.69 55.1601 140.65H49.8901V130.68C51.1701 129.64 52.1701 128.39 52.6901 126.98C52.8301 126.6 52.9401 126.2 53.0001 125.8V90.5401C53.0001 85.4301 55.1901 80.4801 59.1201 77.3101Z" fill="#AD7153"/>
<path d="M142.01 305.25H58.7403C56.8303 305.25 60.9703 303.38 60.9703 301.08C60.9703 298.78 63.8903 296.91 65.8003 296.91H142.01C143.92 296.91 146.16 298.78 146.16 301.08C146.15 303.39 143.92 305.25 142.01 305.25Z" fill="#9F9F9F"/>
<path d="M149.27 218.84H55.0703V211.56H149.27C150.9 211.56 152.22 212.88 152.22 214.51V215.89C152.22 217.52 150.9 218.84 149.27 218.84Z" fill="#BCBCBC"/>
<path d="M104.04 284.51C100.97 284.51 98.4902 282.03 98.4902 278.96V195.83C98.4902 192.76 100.97 190.28 104.04 190.28C107.11 190.28 109.59 192.76 109.59 195.83V278.96C109.59 282.02 107.11 284.51 104.04 284.51Z" fill="#AD7153"/>
<path d="M131.83 298.96H98.5V278.96H117.15C125.26 278.96 131.83 285.53 131.83 293.64V298.96Z" fill="#AD7153"/>
<path d="M83.1803 285.13C79.7703 285.13 77.0103 282.37 77.0103 278.96V195.83C77.0103 192.42 79.7703 189.66 83.1803 189.66C86.5903 189.66 89.3503 192.42 89.3503 195.83V278.96C89.3403 282.36 86.5803 285.13 83.1803 285.13Z" fill="#F6C09C"/>
<path d="M110.25 298.96H76.9204V278.96H95.5704C103.68 278.96 110.25 285.53 110.25 293.64V298.96Z" fill="#F6C09C"/>
<path d="M90.18 311.76C94.4326 311.76 97.88 305.25 97.88 297.22C97.88 289.19 94.4326 282.68 90.18 282.68C85.9274 282.68 82.48 289.19 82.48 297.22C82.48 305.25 85.9274 311.76 90.18 311.76Z" fill="#CFCFCF"/>
<path d="M90.18 316.69C83.75 316.69 78.71 308.14 78.71 297.22C78.71 286.3 83.75 277.75 90.18 277.75C96.61 277.75 101.65 286.3 101.65 297.22C101.65 308.14 96.61 316.69 90.18 316.69ZM90.18 282.69C87.09 282.69 83.64 288.91 83.64 297.23C83.64 305.55 87.09 311.77 90.18 311.77C93.26 311.77 96.71 305.55 96.71 297.23C96.71 288.9 93.26 282.69 90.18 282.69Z" fill="#BABABA"/>
<path d="M136.94 200.12C137.25 196.69 135.7 191.45 135.7 191.45C135.46 190.43 133.27 186.98 133.26 186.55C130.8 104.56 106.3 79.14 105.23 77.82C102.56 74.55 99.5602 73.41 88.1502 73.65C85.1002 73.71 91.6202 84.21 93.8902 86.25C94.1702 86.5 119.87 110.38 122.17 186.88C122.18 187.17 122.23 187.45 122.28 187.73L115.21 193.67L110.54 198.88C109.66 199.92 109.79 201.48 110.83 202.36C111.87 203.24 113.43 203.11 114.31 202.07L117.48 198.55C117.77 198.23 118.3 198.44 118.3 198.87L118.27 203.77L117.74 210.81C117.42 211.99 117.92 213.31 119.04 213.82C120.46 214.47 122.08 213.68 122.47 212.23L122.08 216.19C121.91 217.41 122.59 218.65 123.77 219.01C125.27 219.47 126.75 218.47 126.95 216.99L127.4 213.71C127.56 214.85 128.5 215.83 129.73 215.83C131.67 215.83 132.08 213.33 132.08 213.33C132.48 213.91 133.54 214.61 134.28 214.69C135.64 214.82 136.84 213.83 136.97 212.47L136.94 200.12Z" fill="#F6C09C"/>
<path d="M41.4203 316.69C21.0403 316.69 5.07031 285.04 5.07031 244.63C5.07031 204.22 21.0403 172.57 41.4203 172.57C61.8003 172.57 77.7703 204.22 77.7703 244.63C77.7703 285.04 61.8103 316.69 41.4203 316.69ZM41.4203 177.51C24.3903 177.51 10.0003 208.25 10.0003 244.64C10.0003 281.03 24.3903 311.77 41.4203 311.77C58.4503 311.77 72.8403 281.03 72.8403 244.64C72.8403 208.25 58.4503 177.51 41.4203 177.51Z" fill="#BABABA"/>
<path d="M38.2503 300.68C50.7982 300.68 60.9703 275.375 60.9703 244.16C60.9703 212.945 50.7982 187.64 38.2503 187.64C25.7024 187.64 15.5303 212.945 15.5303 244.16C15.5303 275.375 25.7024 300.68 38.2503 300.68Z" fill="#E7E7E7"/>
<path d="M37.3203 303.48C23.0203 303.48 11.8203 277.63 11.8203 244.63C11.8203 211.63 23.0203 185.78 37.3203 185.78C51.6203 185.78 62.8203 211.63 62.8203 244.63C62.8203 277.63 51.6203 303.48 37.3203 303.48ZM37.3203 189.49C25.5003 189.49 15.5203 214.74 15.5203 244.64C15.5203 274.53 25.5003 299.79 37.3203 299.79C49.1403 299.79 59.1203 274.54 59.1203 244.64C59.1203 214.74 49.1403 189.49 37.3203 189.49Z" fill="#CFCFCF"/>
<path d="M35.1205 255.02C37.5009 255.02 39.4305 250.368 39.4305 244.63C39.4305 238.892 37.5009 234.24 35.1205 234.24C32.7402 234.24 30.8105 238.892 30.8105 244.63C30.8105 250.368 32.7402 255.02 35.1205 255.02Z" fill="#AAAAAA"/>
<path d="M51.9403 245.87C51.2903 245.87 50.7403 245.36 50.7103 244.7C48.9603 210.71 42.6003 203.5 38.9603 202.22C35.2603 200.92 31.7703 204.79 31.7303 204.83C31.2803 205.34 30.5003 205.39 29.9903 204.94C29.4803 204.49 29.4303 203.71 29.8803 203.2C30.0703 202.99 34.4903 198.05 39.7603 199.89C47.2703 202.5 51.7803 217.54 53.1803 244.57C53.2103 245.25 52.6903 245.83 52.0103 245.86C51.9903 245.87 51.9603 245.87 51.9403 245.87Z" fill="#AAAAAA"/>
<path d="M38.0905 277.67C37.9705 277.67 37.8505 277.65 37.7305 277.62C29.0805 274.97 28.9805 263.79 28.9805 263.32C28.9805 262.64 29.5305 262.09 30.2105 262.09C30.8905 262.09 31.4405 262.64 31.4405 263.32C31.4405 263.42 31.5505 273.15 38.4405 275.26C39.0905 275.46 39.4605 276.15 39.2605 276.8C39.1105 277.33 38.6205 277.67 38.0905 277.67Z" fill="#AAAAAA"/>
</g>
<defs>
<clipPath id="clip0_347_904">
<rect width="163.69" height="315.88" fill="white" transform="translate(0 0.810059)"/>
</clipPath>
</defs>
</svg>
