<?xml version="1.0" encoding="utf-8"?>
<!-- Generator: Adobe Illustrator 27.7.0, SVG Export Plug-In . SVG Version: 6.00 Build 0)  -->
<svg version="1.1" id="Camada_1" xmlns="http://www.w3.org/2000/svg" xmlns:xlink="http://www.w3.org/1999/xlink" x="0px" y="0px"
	 viewBox="0 0 150.48 387.42" style="enable-background:new 0 0 150.48 387.42;" xml:space="preserve">
<style type="text/css">
	.st0{fill:#5C2E2F;}
	.st1{fill:#AD7153;}
	.st2{fill:#975C45;}
	.st3{fill:#F6C09C;}
	.st4{fill:#BDBDBD;}
	.st5{fill:#FFE478;}
	.st6{fill:#A0671D;}
	.st7{fill:#4DA6FF;}
	.st8{fill:#FFFFEB;}
	.st9{fill:#3C86AC;}
	.st10{fill:#CFFF70;}
	.st11{fill:#177F6D;}
	.st12{fill:#174D62;}
	.st13{fill:none;stroke:#174D62;stroke-miterlimit:10;}
	.st14{fill:#BD502F;}
	.st15{fill:#F7ECB9;}
	.st16{fill:#EB564B;}
	.st17{fill:#99221F;}
	.st18{clip-path:url(#SVGID_00000092414444460497620070000010025493076923216309_);}
	.st19{fill:#FD3952;}
	.st20{fill:#A42B35;}
	.st21{fill:#996824;}
	.st22{fill:#602651;}
	.st23{fill:#E16272;}
	.st24{fill:#333C83;}
	.st25{fill:#474DC0;}
	.st26{fill:#FF9166;}
	.st27{fill:#92AED6;}
	.st28{fill:#39485B;}
	.st29{fill:#19ACEC;}
	.st30{fill:#0E6F89;}
	.st31{fill:#8FDE5D;}
	.st32{fill:#F7F7F7;}
	.st33{fill:#1C9D86;}
	.st34{fill:#F9B843;}
	.st35{fill:#C18A29;}
	.st36{fill:#E9433B;}
	.st37{fill:#BC362F;}
	.st38{fill:#5DA7AF;}
	.st39{fill:#20697B;}
	.st40{fill:#144D56;}
	.st41{fill:#24305B;}
	.st42{fill:#825616;}
	.st43{fill:#C18525;}
	.st44{fill:#42302D;}
	.st45{fill:#B66B2F;}
	.st46{fill:#BC7313;}
	.st47{fill:#472F18;}
	.st48{fill:#473B78;}
	.st49{fill:#4B5BAB;}
	.st50{fill-rule:evenodd;clip-rule:evenodd;fill:#FF9166;}
	.st51{fill-rule:evenodd;clip-rule:evenodd;fill:#E36956;}
	.st52{fill-rule:evenodd;clip-rule:evenodd;fill:#A3524A;}
	.st53{fill:#964253;}
	.st54{fill:#73275C;}
	.st55{fill:#FF6B97;}
	.st56{fill:#F2A65E;}
	.st57{fill:#835429;}
	.st58{fill:#FFFFFF;}
	.st59{fill:#34D1AF;}
	.st60{fill:#4D55C0;}
	.st61{fill:#1F2266;}
	.st62{fill:#3A3B92;}
	.st63{clip-path:url(#SVGID_00000107588524027643811690000008251107472072879535_);fill:#8A94DD;}
	.st64{fill:#8A94DD;}
	.st65{fill:#BA6156;}
	.st66{fill:#3D6E70;}
	.st67{fill:#FFB5B5;}
	.st68{clip-path:url(#SVGID_00000097496455766729623480000012180631366737564812_);fill:#F2A65E;}
	.st69{fill:#721E6E;}
	.st70{fill:#8E2589;}
	.st71{fill:#C12B3F;}
	.st72{fill:#F9364D;}
	.st73{fill:#FDF6F8;}
	.st74{fill:#21C95E;}
	.st75{fill:#317152;}
	.st76{fill:#1A9252;}
	.st77{fill:#989192;}
	.st78{fill:#1D9656;}
	.st79{fill:#B7AFB0;}
	.st80{fill:#FCF4F6;}
	.st81{fill:#B9B0B1;}
	.st82{fill:#4850C6;}
	.st83{fill:#2F3A7C;}
	.st84{fill:#4486F4;}
	.st85{fill:#962C2E;}
	.st86{fill:#B32D3E;}
	.st87{fill:#272736;}
	.st88{fill:#606070;}
	.st89{fill:#C2C2D1;}
	.st90{fill:#43434F;}
	.st91{fill:#F5F4F0;}
	.st92{fill:#E8E8E8;}
	.st93{fill:#181C21;}
	.st94{fill:#252C35;}
	.st95{fill:#272F38;}
	.st96{fill:#91969B;}
	.st97{fill:#E0DB99;}
	.st98{fill:#474322;}
	.st99{fill:#7A7330;}
	.st100{fill:#353C59;}
	.st101{fill:#E9FBF8;}
	.st102{fill:#9AC1B9;}
	.st103{fill:#20C9AF;}
	.st104{fill:#1FB6F4;}
	.st105{fill:#21D2B2;}
	.st106{fill:#197C7A;}
	.st107{fill:#8C3F5D;}
	.st108{fill:#2F3986;}
	.st109{fill:#262B65;}
	.st110{fill:#F73852;}
	.st111{fill:#FC3851;}
	.st112{fill:#C12032;}
	.st113{fill:#BD4882;}
	.st114{fill:#9AA4D1;}
	.st115{fill:#595E78;}
	.st116{fill:#747B9D;}
	.st117{fill:#7A82A6;}
	.st118{fill:#5C627C;}
	.st119{fill:#952B2B;}
	.st120{fill:#C62C3F;}
	.st121{fill:#932729;}
	.st122{fill:#922829;}
	.st123{fill:#B2283A;}
	.st124{fill:#CF2E3F;}
	.st125{fill:#E36956;}
	.st126{fill:#FC9E17;}
	.st127{fill:#F1EDB9;}
	.st128{fill:#162330;}
	.st129{fill:none;stroke:#FAFAFA;stroke-width:2;stroke-linecap:round;stroke-miterlimit:10;}
	.st130{fill:#FBF6D1;}
	.st131{fill:#FC9221;}
	.st132{fill:#FBA33D;}
	.st133{fill:#E18A1D;}
	.st134{fill:#111E2B;}
	.st135{fill:#414B55;}
	.st136{fill:#C48B2F;}
	.st137{fill:#9B6621;}
	.st138{fill:#FCB83E;}
	.st139{fill:#FC961A;}
	.st140{fill:#281913;}
	.st141{fill:#854714;}
	.st142{fill:#F9D335;}
	.st143{fill:#B0305C;}
	.st144{fill:#030306;}
	.st145{fill:#0FC8EF;}
	.st146{fill:#EF3D5A;}
	.st147{fill:#FAEEEF;}
	.st148{fill:#DA2840;}
	.st149{fill:#97AEB7;}
	.st150{fill:#567C8A;}
	.st151{fill:#0E1F2B;}
	.st152{fill:#9DAADA;}
	.st153{fill:#7381CC;}
	.st154{fill:#BAEEE6;}
	.st155{fill:#8B919F;}
	.st156{fill:#0E1F2C;}
	.st157{fill:none;stroke:#0E1F2C;stroke-miterlimit:10;}
	.st158{fill:#49535C;}
	.st159{fill:#4E6171;}
	.st160{fill:#D0E2EA;}
	.st161{fill:#738293;}
	.st162{fill:#1B2447;}
	.st163{fill:#03246A;}
	.st164{fill:#F9DA01;}
	.st165{fill:url(#SVGID_00000083084977986854655090000001668978745022971030_);}
	.st166{fill:#009C3B;}
	.st167{fill:#002776;}
	.st168{fill:#D9E6ED;}
	.st169{fill:#1D2836;}
	.st170{fill:url(#SVGID_00000052783141549516626350000015708291190725011612_);}
	.st171{fill:#DCC206;}
	.st172{fill:url(#SVGID_00000080895867351707935360000010343953501927778212_);}
	.st173{fill:#C2B6B7;}
	.st174{fill:#CFCDCF;}
	.st175{fill:#FB374F;}
	.st176{fill:#E2D9DA;}
	.st177{fill:#FFF7FA;}
	.st178{fill:#489DD7;}
	.st179{fill:#0A1021;}
	.st180{fill:none;stroke:#0A1021;stroke-linecap:round;stroke-miterlimit:10;}
	.st181{fill:none;stroke:#B47759;stroke-width:2;stroke-linecap:round;stroke-miterlimit:10;}
	.st182{fill:#B47759;}
	.st183{fill:#A2674D;}
	.st184{fill:#0B1022;}
	.st185{fill:#57292B;}
	.st186{fill:#602F33;}
	.st187{fill:#472123;}
</style>
<g>
	<g>
		<g>
			<g>
				<path class="st4" d="M29.12,119.55c-0.02,0.3,0.01,0.34,0.02,0.26c-0.01-0.1-0.01-0.18-0.01-0.23
					C29.12,119.57,29.12,119.56,29.12,119.55z"/>
				<path class="st4" d="M40.59,103.58c-1.15-0.73-2.67-0.39-3.41,0.76l-2.67,3.92c-0.24,0.36-0.8,0.22-0.86-0.2l-0.63-4.86l0,0
					l2.01-15.54c0.16-1.21-0.52-2.45-1.69-2.8c-1.5-0.45-2.99,0.55-3.18,2.04l-2.19,16.97l-0.11,0.01V84.74
					c0-1.23-0.84-2.37-2.05-2.57c-1.55-0.25-2.88,0.93-2.88,2.43v3.32c-0.31-1.1-1.37-1.9-2.6-1.78c-1.29,0.12-2.23,1.3-2.23,2.6
					l0,4.51c-0.48-0.52-1.16-0.84-1.9-0.81c-1.36,0.05-2.42,1.2-2.37,2.56l1.2,14.33c0.16,3.44,2.4,8.42,2.4,8.42
					c0.38,0.98,2.05,3.27,3.04,3.27c0.29,0-0.14-1.74,0.15-1.85c0.71-0.27,1.21-0.84,1.44-1.5c0.46,0.42,1.05,0.68,1.67,0.68
					c0.33,0,0.66-0.07,0.98-0.21c0.3-0.13,0.56-0.31,0.77-0.53c0.33,1.04,1.29,1.73,2.34,1.73c0.22,0,0.44-0.03,0.66-0.09
					c0.43-0.12,0.59,0.09,0.65,0.29c0-0.01,0-0.02,0-0.03c0,0,0,0.03,0.01,0.06c0.02,0.1,0.02,0.18,0.01,0.23
					c0.05,0.62,0.3,1.9,1.76,0.18l6.52-7.2l3.92-5.8C42.08,105.84,41.74,104.31,40.59,103.58z"/>
				<g>
					<path class="st3" d="M40.59,103.58c-1.15-0.73-2.67-0.39-3.41,0.76l-2.67,3.92c-0.24,0.36-0.8,0.22-0.86-0.2l0.13-4.86
						l1.24-15.54c0.16-1.21-0.52-2.45-1.69-2.8c-1.5-0.45-2.99,0.55-3.18,2.04l-2.2,12.41l-0.1-14.56c0-1.23-0.84-2.37-2.05-2.57
						c-1.55-0.25-2.88,0.93-2.88,2.43v3.32c-0.31-1.1-1.37-1.9-2.6-1.78c-1.29,0.12-2.23,1.3-2.23,2.6l0,4.51
						c-0.48-0.52-1.16-0.84-1.9-0.81c-1.36,0.05-2.42,1.2-2.37,2.56l1.2,14.33c0.16,3.44,2.4,8.42,2.4,8.42
						c0.38,0.98,2.05,3.27,3.04,3.27c0.29,0-0.14-1.74,0.15-1.85c0.71-0.27,1.21-0.84,1.44-1.5c0.46,0.42,1.05,0.68,1.67,0.68
						c0.33,0,0.66-0.07,0.98-0.21c0.3-0.13,0.56-0.31,0.77-0.53c0.33,1.04,1.29,1.73,2.34,1.73c0.22,0,0.44-0.03,0.66-0.09
						c0.43-0.12,0.59,0.09,0.65,0.29c0-0.01,0-0.02,0-0.03c0,0,0,0.03,0.01,0.06c0.02,0.1,0.02,0.18,0.01,0.23
						c0.05,0.62,0.3,1.9,1.76,0.18l6.52-7.2l3.92-5.8C42.08,105.84,41.74,104.31,40.59,103.58z"/>
				</g>
			</g>
		</g>
		<path class="st1" d="M63.78,93.47v49.19l-0.04,0.31c-0.04,0.35-0.09,0.69-0.15,1.02c-0.64,3.69-2.37,6.88-4.8,9.47
			c-1.17,1.27-2.5,2.39-3.96,3.35c-4.19,2.8-9.35,4.34-14.31,4.34c-0.62,0-1.23-0.02-1.84-0.07c-4.19-0.33-8.03-1.92-11.41-4.72
			c-5.18-4.3-8.15-10.83-8.15-17.91v-17.53c0-0.21,0.04-0.42,0.06-0.64c-0.2-0.19-0.38-0.39-0.57-0.63
			c-0.1-0.11-0.19-0.22-0.27-0.33c-0.07-0.1-0.14-0.2-0.2-0.28c-0.35-0.48-0.62-0.95-0.74-1.28c0,0-2.23-4.97-2.39-8.42L13.83,95
			c-0.05-1.36,1.01-2.5,2.37-2.55c0.74-0.02,1.43,0.3,1.9,0.8v-4.5c0-1.31,0.94-2.48,2.23-2.6c1.23-0.11,2.28,0.68,2.6,1.78v14.06
			c0,4.06,4.23,7.22,8.26,6.75c0,0-6.01,5.43-0.28,11.26c-0.28,0.32-0.51,0.53-0.7,0.67c0,0.1,0.02,0.18,0.02,0.27v17.53
			c0,3.76,1.5,7.18,4.14,9.36c1.6,1.33,3.31,2.05,5.19,2.21c3.37,0.26,7.3-0.99,10-3.17c1.28-1.04,2.28-2.29,2.8-3.7
			c0.14-0.38,0.25-0.78,0.31-1.18v-35.26c0-5.12,2.2-10.06,6.12-13.23c0.48-0.39,0.97-0.76,1.5-1.1c0.9-0.57,1.86-1.05,2.86-1.44
			C63.56,91.7,63.78,92.56,63.78,93.47z"/>
	</g>
	<path class="st3" d="M136.62,216.28c0.31-3.43-1.24-8.67-1.24-8.67c-0.24-1.02-2.43-4.47-2.44-4.9
		c-2.46-81.99-26.96-107.41-28.03-108.73c-2.67-3.27-5.67-4.41-17.08-4.17c-3.05,0.06,3.47,10.56,5.74,12.6
		c0.28,0.25,25.98,24.13,28.28,100.63c0.01,0.29,0.06,0.57,0.11,0.85l-7.07,5.94l-4.67,5.21c-0.88,1.04-0.75,2.6,0.29,3.48
		c1.04,0.88,2.6,0.75,3.48-0.29l3.17-3.52c0.29-0.32,0.82-0.11,0.82,0.32l-0.03,4.9l-0.53,7.04c-0.32,1.18,0.18,2.5,1.3,3.01
		c1.42,0.65,3.04-0.14,3.43-1.59l-0.39,3.96c-0.17,1.22,0.51,2.46,1.69,2.82c1.5,0.46,2.98-0.54,3.18-2.02l0.45-3.28
		c0.16,1.14,1.1,2.12,2.33,2.12c1.94,0,2.35-2.5,2.35-2.5c0.4,0.58,1.46,1.28,2.2,1.36c1.36,0.13,2.56-0.86,2.69-2.22L136.62,216.28
		z"/>
	<g>
		<g>
			<circle class="st1" cx="62.25" cy="48.62" r="7.54"/>
			<g>
				<g>
					<g>
						<path class="st2" d="M60.68,44.76c-2.1,0.1-3.77,1.82-3.77,3.94h3.77V44.76z"/>
					</g>
				</g>
			</g>
		</g>
		<g>
			<circle class="st1" cx="102.1" cy="48.62" r="7.54"/>
			<g>
				<path class="st2" d="M107.92,48.62c-0.1-2.1-1.82-3.77-3.94-3.77v3.77H107.92z"/>
			</g>
		</g>
		<rect x="73.97" y="76.96" class="st3" width="15.99" height="16.69"/>
		<path class="st1" d="M73.97,83.06c2.49,0.78,5.54,1.24,8.84,1.24c2.59,0,5.02-0.28,7.15-0.78v-8.35H73.97V83.06z"/>
		<path class="st3" d="M82.25,80.27L82.25,80.27c-11.04,0-20-8.95-20-20v-23.3c0-11.04,8.95-20,20-20h0c11.04,0,20,8.95,20,20v23.3
			C102.25,71.31,93.29,80.27,82.25,80.27z"/>
		<path class="st1" d="M65.96,60.27V25.4c-2.32,3.27-3.71,7.25-3.71,11.57v23.3c0,11.04,8.95,20,20,20c0.63,0,1.24-0.04,1.85-0.09
			C73.93,79.24,65.96,70.69,65.96,60.27z"/>
	</g>
	<path class="st3" d="M92.81,89.75H69.38c-2.2,0-4.29,0.42-6.22,1.18c-5.35,2.08-8.15,6.82-9.25,12.6
		c-0.21,1.04-0.31,2.12-0.31,3.22V144l4.61,0.22l0.96,47.3c0.26,12.91,10.8,23.24,23.72,23.24h0c13.1,0,23.72-10.62,23.72-23.72
		v-44.51v-1.99v-37.77C106.61,97.37,102.21,89.75,92.81,89.75z"/>
	<path class="st1" d="M58.8,93.47v59.99c-1.17,1.27-2.5,2.39-3.96,3.35h-5.27v-9.97c1.28-1.04,2.28-2.29,2.8-3.7
		c0.14-0.38,0.25-0.78,0.31-1.18v-35.26C52.68,101.59,54.87,96.64,58.8,93.47z"/>
	<path class="st3" d="M103.11,350.45h-4.12V202.72c0-3.07-2.48-5.55-5.55-5.55s-5.55,2.48-5.55,5.55v147.73v12.1v7.9h33.33v-1.89
		C121.22,358.56,113.11,350.45,103.11,350.45z"/>
	<path class="st3" d="M72.42,197.17c-3.07,0-5.55,2.48-5.55,5.55v147.73h-4.12c-10,0-18.11,8.11-18.11,18.11v1.89h33.33v-7.9v-12.1
		V202.72C77.97,199.65,75.49,197.17,72.42,197.17z"/>
</g>
</svg>
