<svg width="126" height="242" viewBox="0 0 126 242" fill="none" xmlns="http://www.w3.org/2000/svg">
<g clip-path="url(#clip0_347_869)">
<path d="M93.45 169.41C94.81 170.14 96.62 169.8 97.49 168.65L100.65 164.73C100.94 164.37 101.6 164.51 101.66 164.93L102.41 169.79L100.03 185.33C99.84 186.54 100.65 187.78 102.03 188.13C103.8 188.58 105.57 187.58 105.8 186.09L108.4 169.12L108.53 169.11V188.24C108.53 189.47 109.52 190.61 110.96 190.81C112.79 191.06 114.37 189.88 114.37 188.38V185.06C114.74 186.16 115.99 186.96 117.45 186.84C118.98 186.72 120.09 185.54 120.09 184.24V179.73C120.65 180.25 121.46 180.57 122.35 180.54C123.96 180.49 125.22 179.34 125.16 177.98L123.74 163.65C123.55 160.21 120.9 155.23 120.9 155.23C120.7 154.78 120.16 154.06 119.54 153.4V150.2H105.42V152.57C105.27 152.69 105.11 152.83 104.93 153.01L97.2 160.21L92.56 166.01C91.68 167.16 92.08 168.68 93.45 169.41Z" fill="#AD7153"/>
<path d="M93.4499 169.41C94.8099 170.14 96.6199 169.8 97.4899 168.65L100.65 164.73C100.94 164.37 101.6 164.51 101.66 164.93L101.5 169.79L100.03 185.33C99.8399 186.54 100.65 187.78 102.03 188.13C103.8 188.58 105.57 187.58 105.8 186.09L108.41 173.68L108.53 188.24C108.53 189.47 109.52 190.61 110.96 190.81C112.79 191.06 114.37 189.88 114.37 188.38V185.07V171.02C114.37 166.96 109.35 163.8 104.57 164.27C104.57 164.27 111.69 158.84 104.91 153.01C105.06 152.87 97.1799 160.21 97.1799 160.21L92.5399 166.01C91.6799 167.16 92.0799 168.68 93.4499 169.41Z" fill="#AD7153"/>
<path d="M119.71 154.61H104.91C104.91 114.22 88.1099 93.7901 87.9399 93.5901L99.1799 83.9601C100.02 84.9401 119.71 108.34 119.71 154.61Z" fill="#AD7153"/>
<path d="M52.71 76.4501V79.0301C52.71 108.8 50.88 127.14 45.95 137.6C41.95 146.06 35.91 149.35 27.13 149.35C13.96 149.35 5.77002 138.37 5.77002 120.7H20.57C20.57 125.87 22.47 129 28.18 129C36.16 129 35.94 120.9 36.47 117.29C37.28 111.8 38.31 106.19 38.47 96.9301C40.83 88.8301 45.57 80.6201 52.71 76.4501Z" fill="#AD7153"/>
<path d="M52.1001 40.13C56.2643 40.13 59.6401 36.7543 59.6401 32.59C59.6401 28.4258 56.2643 25.05 52.1001 25.05C47.9358 25.05 44.5601 28.4258 44.5601 32.59C44.5601 36.7543 47.9358 40.13 52.1001 40.13Z" fill="#AD7153"/>
<path d="M50.52 28.73C48.42 28.83 46.75 30.55 46.75 32.67H50.52V28.73Z" fill="#975C45"/>
<path d="M91.9399 40.13C96.1041 40.13 99.4799 36.7543 99.4799 32.59C99.4799 28.4258 96.1041 25.05 91.9399 25.05C87.7757 25.05 84.3999 28.4258 84.3999 32.59C84.3999 36.7543 87.7757 40.13 91.9399 40.13Z" fill="#AD7153"/>
<path d="M97.7701 32.5801C97.6701 30.4801 95.9501 28.8101 93.8301 28.8101V32.5801H97.7701Z" fill="#975C45"/>
<path d="M79.8098 60.9301H63.8198V77.6201H79.8098V60.9301Z" fill="#F6C09C"/>
<path d="M63.8198 67.0301C66.3098 67.8101 69.3598 68.2701 72.6598 68.2701C75.2498 68.2701 77.6798 67.9901 79.8098 67.4901V59.1401H63.8198V67.0301Z" fill="#AD7153"/>
<path d="M72.1001 64.2301C61.0601 64.2301 52.1001 55.2801 52.1001 44.2301V20.9401C52.1001 9.90006 61.0501 0.940063 72.1001 0.940063C83.1401 0.940063 92.1001 9.89006 92.1001 20.9401V44.2401C92.0901 55.2801 83.1401 64.2301 72.1001 64.2301Z" fill="#F6C09C"/>
<path d="M55.7998 44.2401V9.37006C53.4798 12.6401 52.0898 16.6201 52.0898 20.9401V44.2401C52.0898 55.2801 61.0398 64.2401 72.0898 64.2401C72.7198 64.2401 73.3298 64.2001 73.9398 64.1501C63.7698 63.2101 55.7998 54.6601 55.7998 44.2401Z" fill="#AD7153"/>
<path d="M32.2702 105.23C30.9102 104.5 29.1002 104.84 28.2302 105.99L25.0702 109.91C24.7802 110.27 24.1202 110.13 24.0602 109.71L23.3102 104.85L25.6902 89.3101C25.8802 88.1001 25.0702 86.8601 23.6902 86.5101C21.9202 86.0601 20.1502 87.0601 19.9202 88.5501L17.3202 105.52L17.1902 105.53V86.4001C17.1902 85.1701 16.2002 84.0301 14.7602 83.8301C12.9302 83.5801 11.3502 84.7601 11.3502 86.2601V89.5801C10.9802 88.4801 9.73016 87.6801 8.27016 87.8001C6.74016 87.9201 5.63016 89.1001 5.63016 90.4001V94.9101C5.07016 94.3901 4.26016 94.0701 3.37016 94.1001C1.76016 94.1501 0.500162 95.3001 0.560162 96.6601L1.98016 110.99C2.17016 114.43 4.82016 119.41 4.82016 119.41C5.02016 119.86 5.56016 120.58 6.18016 121.24V124.44H20.3002V122.07C20.4502 121.95 20.6102 121.81 20.7902 121.63L28.5202 114.43L33.1602 108.63C34.0302 107.49 33.6302 105.96 32.2702 105.23Z" fill="#AD7153"/>
<path d="M32.2701 105.23C30.9101 104.5 29.1001 104.84 28.2301 105.99L25.0701 109.91C24.7801 110.27 24.1201 110.13 24.0601 109.71L24.2201 104.85L25.6901 89.3101C25.8801 88.1001 25.0701 86.8601 23.6901 86.5101C21.9201 86.0601 20.1501 87.0601 19.9201 88.5501L17.3101 100.96L17.1901 86.4001C17.1901 85.1701 16.2001 84.0301 14.7601 83.8301C12.9301 83.5801 11.3501 84.7601 11.3501 86.2601V89.5701V103.62C11.3501 107.68 16.3701 110.84 21.1501 110.37C21.1501 110.37 14.0301 115.8 20.8101 121.63C20.6601 121.77 28.5401 114.43 28.5401 114.43L33.1801 108.63C34.0301 107.49 33.6301 105.96 32.2701 105.23Z" fill="#F6C09C"/>
<path d="M44.1403 83.4901V136.19H37.5303V103.36C37.5303 100.15 37.9903 97.06 38.8503 94.12C39.9603 90.22 41.7703 86.6201 44.1403 83.4901Z" fill="#AD7153"/>
<path d="M112.89 152.1C112.89 171.64 94.9001 187.47 72.6901 187.47C61.7401 187.47 51.8001 183.61 44.5601 177.36C37.1001 170.95 33.6201 162 33.6201 152.1C33.6201 146.94 34.8801 142.04 37.1401 137.61C37.6101 136.7 38.1101 135.81 38.6701 134.93L37.5301 103.36C37.5301 100.15 37.9901 97.0601 38.8501 94.1201C39.9601 90.2201 41.7701 86.6201 44.1401 83.4901C44.2801 83.3201 44.4101 83.1301 44.5601 82.9601C47.0101 79.7901 50.0601 77.1001 53.5301 75.0401C58.3301 72.1801 63.9001 70.5401 69.8701 70.5401H74.3201C92.1801 70.5401 106.66 85.2301 106.66 103.36V133.19C110.59 138.67 112.89 145.14 112.89 152.1Z" fill="#F6C09C"/>
<path d="M74.9004 179.17C75.1204 173.72 81.6704 169.08 87.1204 169.31C92.5604 169.53 98.7004 170.68 98.4804 176.12L95.1504 221.12H97.0604C107.06 221.12 115.17 229.23 115.17 239.23V241.12H74.9004V221.12H74.9104L74.9004 179.17Z" fill="#F6C09C"/>
<path d="M69.4204 179.17C69.2004 173.72 62.6504 169.08 57.2004 169.31C51.7604 169.53 45.6204 170.68 45.8404 176.12L49.1704 221.12H47.2604C37.2604 221.12 29.1504 229.23 29.1504 239.23V241.12H69.4104V221.12H69.4004L69.4204 179.17Z" fill="#F6C09C"/>
</g>
<defs>
<clipPath id="clip0_347_869">
<rect width="124.6" height="240.19" fill="white" transform="translate(0.560059 0.940063)"/>
</clipPath>
</defs>
</svg>
