<svg width="142" height="354" viewBox="0 0 142 354" fill="none" xmlns="http://www.w3.org/2000/svg">
<g clip-path="url(#clip0_347_839)">
<path d="M141.56 208.9C141.63 210.26 140.37 211.41 138.76 211.46C137.87 211.49 137.06 211.17 136.5 210.65V215.16C136.5 216.46 135.39 217.64 133.86 217.76C133.76 217.77 133.67 217.77 133.57 217.77C132.24 217.77 131.13 217.01 130.78 215.98V219.3C130.78 220.79 129.2 221.98 127.37 221.73C125.93 221.53 124.93 220.39 124.93 219.16L124.82 204.6L123.57 210.52L122.21 217.01C121.98 218.5 120.21 219.51 118.44 219.05C117.05 218.7 116.25 217.46 116.43 216.25L117.91 200.71L118.07 195.86C118 195.43 117.34 195.29 117.05 195.65L113.89 199.57C113.02 200.72 111.22 201.06 109.85 200.33C108.49 199.6 108.09 198.07 108.96 196.92L113.42 191.34C113.43 191.33 113.44 191.32 113.45 191.31L113.6 191.12C113.6 191.12 115.39 186.11 117.43 179.34C117.43 179.34 112.94 160.32 108.15 139.98C107.75 138.25 107.34 136.5 106.92 134.76C103.32 119.43 99.7303 104.19 97.9503 96.51H98.0603L89.5703 72.39V72.38C93.3303 72.38 107.27 77.66 112.61 83.91C116.52 88.5 122.04 94.05 126.79 109.96C127.09 110.95 127.39 111.98 127.68 113.06V113.07C127.75 113.32 127.81 113.57 127.89 113.83C127.89 113.84 127.9 113.86 127.9 113.87C127.94 114.06 127.99 114.25 128.04 114.44C128.09 114.63 128.14 114.82 128.19 115.01C128.29 115.41 128.39 115.82 128.49 116.24C128.56 116.49 128.62 116.75 128.68 117.01C128.74 117.25 128.79 117.49 128.85 117.73C128.86 117.79 128.88 117.83 128.89 117.89V117.9C128.9 117.96 128.92 118.02 128.93 118.08C128.98 118.3 129.03 118.52 129.08 118.75C129.13 118.95 129.17 119.16 129.22 119.37C129.23 119.43 129.25 119.49 129.26 119.56C129.33 119.86 129.39 120.16 129.46 120.47C129.47 120.5 129.47 120.52 129.48 120.55C129.51 120.71 129.55 120.87 129.58 121.02C129.6 121.1 129.62 121.18 129.63 121.27C129.65 121.36 129.67 121.45 129.69 121.54C129.81 122.1 129.92 122.68 130.05 123.27C130.05 123.29 130.06 123.3 130.06 123.32C130.07 123.4 130.09 123.49 130.11 123.58C130.14 123.72 130.17 123.86 130.19 124C130.22 124.11 130.24 124.22 130.26 124.34C130.26 124.36 130.27 124.39 130.27 124.41C130.28 124.49 130.3 124.57 130.32 124.65C130.32 124.66 130.32 124.66 130.32 124.67C130.33 124.74 130.35 124.82 130.36 124.89C130.38 125.02 130.41 125.15 130.44 125.29C130.47 125.49 130.51 125.69 130.55 125.89C130.56 125.95 130.57 126 130.58 126.06C130.59 126.11 130.6 126.17 130.61 126.22C130.62 126.31 130.64 126.41 130.66 126.51C130.68 126.61 130.69 126.7 130.71 126.8C130.73 126.9 130.74 126.99 130.76 127.09C130.81 127.32 130.85 127.55 130.89 127.79C130.89 127.81 130.9 127.84 130.9 127.86C130.9 127.89 130.91 127.91 130.91 127.94C130.92 127.99 130.93 128.05 130.94 128.1C130.96 128.26 130.99 128.41 131.02 128.57C131.04 128.67 131.05 128.77 131.07 128.87C131.1 129.06 131.13 129.24 131.16 129.43V129.44C131.26 130.02 131.36 130.58 131.45 131.18C131.47 131.29 131.49 131.39 131.5 131.5C131.56 131.83 131.61 132.17 131.66 132.51C131.68 132.6 131.69 132.69 131.7 132.78C131.74 132.95 131.76 133.13 131.79 133.31C131.84 133.67 131.9 134.04 131.96 134.41C131.99 134.59 132.01 134.78 132.04 134.96C132.06 135.11 132.08 135.25 132.1 135.4C132.15 135.74 132.2 136.09 132.24 136.43C132.3 136.85 132.36 137.27 132.41 137.7C132.51 138.35 132.6 139.02 132.68 139.69C132.69 139.78 132.7 139.86 132.71 139.95C132.76 140.34 132.82 140.74 132.87 141.15C132.92 141.6 132.98 142.06 133.03 142.52C133.04 142.61 133.05 142.7 133.06 142.79C133.09 143.01 133.11 143.23 133.14 143.45C133.27 144.57 133.4 145.72 133.53 146.9C133.55 147.12 133.58 147.34 133.6 147.56C133.71 148.56 133.81 149.58 133.91 150.62C134.05 152.08 134.19 153.58 134.32 155.11C134.37 155.65 134.41 156.2 134.46 156.75C134.5 157.23 134.54 157.72 134.58 158.21C135.2 166.02 135.7 174.73 136.04 184.43C136.62 185.05 137.11 185.72 137.3 186.15C137.3 186.15 139.96 191.12 140.14 194.57L141.56 208.9Z" fill="#AD7153"/>
<path d="M75.4703 194.47C75.2503 189.02 70.1203 183.46 61.9303 183.46C56.4803 183.46 49.5403 189.03 49.7603 194.47L51.0603 335.55C29.8003 335.55 30.9103 353.81 30.9103 353.81H73.3303L75.4703 194.47Z" fill="#F6C09C"/>
<path d="M79.1602 194.47C79.3802 189.02 84.5101 183.46 92.7001 183.46C98.1501 183.46 105.09 189.03 104.87 194.47L103.57 335.55C124.83 335.55 123.72 353.81 123.72 353.81H81.3002L79.1602 194.47Z" fill="#F6C09C"/>
<path d="M31.7101 87.74C30.3501 87.01 28.5401 87.35 27.6701 88.5L24.5101 92.42C24.2201 92.78 23.5601 92.64 23.5001 92.22L22.7501 87.36L25.1301 71.82C25.3201 70.61 24.5101 69.37 23.1301 69.02C21.3601 68.57 19.5901 69.57 19.3601 71.06L16.7601 88.03L16.6301 88.04V68.9C16.6301 67.67 15.6401 66.53 14.2001 66.33C12.3701 66.08 10.7901 67.26 10.7901 68.76V72.08C10.4201 70.98 9.1701 70.18 7.7101 70.3C6.1801 70.42 5.0701 71.6 5.0701 72.9V77.41C4.5101 76.89 3.7001 76.57 2.8101 76.6C1.2001 76.65 -0.0598961 77.8 0.000103862 79.16L1.4201 93.49C1.6101 96.93 4.2601 101.91 4.2601 101.91C4.4601 102.36 5.0001 103.08 5.6201 103.74V106.94H19.7401V104.57C19.8901 104.45 20.0501 104.31 20.2301 104.13L27.9601 96.93L32.6001 91.13C33.4701 89.99 33.0701 88.47 31.7101 87.74Z" fill="#AD7153"/>
<path d="M31.71 87.74C30.35 87.01 28.54 87.35 27.67 88.5L24.51 92.42C24.22 92.78 23.56 92.64 23.5 92.22L23.66 87.36L25.13 71.82C25.32 70.61 24.51 69.37 23.13 69.02C21.36 68.57 19.59 69.57 19.36 71.06L16.75 83.46L16.63 68.9C16.63 67.67 15.64 66.53 14.2 66.33C12.37 66.08 10.79 67.26 10.79 68.76V72.07V86.12C10.79 90.18 15.81 93.34 20.59 92.87C20.59 92.87 13.47 98.3 20.25 104.13C20.1 104.27 27.98 96.93 27.98 96.93L32.62 91.13C33.47 89.99 33.07 88.47 31.71 87.74Z" fill="#F6C09C"/>
<path d="M53.2002 79.28V81.86C53.2002 111.63 52.5402 124.97 47.6002 135.43C47.2902 136.09 46.9602 136.7 46.6202 137.28V194.47C46.6102 194.46 46.5902 194.45 46.5802 194.44C45.5402 193.64 44.5402 192.8 43.6002 191.92C43.3702 191.7 43.1302 191.48 42.9102 191.25C42.6902 191.04 42.4702 190.83 42.2602 190.6C42.0302 190.38 41.8202 190.14 41.6002 189.91C39.6602 187.81 38.0102 185.54 36.6902 183.13C36.2702 182.36 35.8802 181.57 35.5302 180.77C35.5002 180.7 35.4702 180.63 35.4402 180.56C35.1002 179.77 34.7902 178.97 34.5202 178.16C34.4302 177.87 34.3402 177.58 34.2502 177.29C33.7302 175.56 33.3702 173.78 33.2002 171.97C33.2002 171.97 33.2002 171.97 33.2002 171.96C33.1102 171.05 33.0602 170.13 33.0602 169.21C33.0602 167.6 33.2002 166.01 33.4702 164.45C33.7102 163.11 34.0302 161.78 34.4602 160.49C34.5202 160.29 34.5902 160.08 34.6602 159.88C35.2802 158.1 36.0802 156.38 37.0302 154.72H37.0102C37.1302 154.5 37.2602 154.29 37.4002 154.08C37.5102 153.9 37.6202 153.71 37.7302 153.53C37.7602 153.48 37.8002 153.42 37.8402 153.37C38.1202 152.92 38.4202 152.48 38.7302 152.04V144.49C35.7002 145.8 32.1902 146.3 28.2402 146.3C21.4702 146.3 16.5602 143.78 13.0602 139.68C13.0502 139.68 13.0502 139.67 13.0402 139.66C12.5102 139.04 12.0102 138.39 11.5502 137.7C10.2602 135.79 9.20022 133.64 8.35022 131.3C8.00022 130.34 7.68022 129.35 7.40022 128.33C7.09022 127.23 6.82022 126.11 6.58022 124.96C6.47022 124.43 6.37022 123.88 6.28022 123.34C5.88022 121.08 5.61022 118.74 5.43022 116.36C5.39022 115.82 5.36022 115.27 5.33022 114.72C5.13022 110.99 5.17022 107.18 5.37022 103.48C5.39022 103.05 5.41022 102.63 5.44022 102.21L20.2402 104.14C20.2402 105.29 20.1902 106.85 20.2302 108.59C20.2502 109.11 20.2602 109.64 20.2902 110.18V110.23C20.2902 110.26 20.2902 110.29 20.3002 110.31C20.3902 111.76 20.5502 113.27 20.8502 114.72C20.9702 115.28 21.1102 115.83 21.2802 116.36C21.7102 117.77 22.3202 119.07 23.1902 120.13C23.6002 120.65 24.0902 121.12 24.6402 121.51C25.2602 121.95 25.9702 122.3 26.7802 122.52C27.5002 122.73 28.3102 122.84 29.2002 122.84C29.5602 122.84 29.9102 122.81 30.2502 122.75C30.4102 122.73 30.5702 122.7 30.7302 122.65C36.1802 121.3 38.1202 112.59 38.7302 104.74V104.06C38.7302 103.75 38.7302 103.44 38.7502 103.13C38.7802 102.32 38.8502 101.53 38.9402 100.74V100.5C38.9402 100.49 38.9502 100.47 38.9502 100.46C38.9502 100.22 38.9502 99.99 38.9602 99.76C39.0102 99.56 39.0802 99.38 39.1402 99.19C39.1302 99.18 39.1402 99.18 39.1402 99.18C39.2002 98.81 39.2702 98.44 39.3502 98.07C39.5702 96.97 39.8602 95.88 40.2102 94.82C40.3702 94.33 40.5302 93.85 40.7202 93.37C40.8602 92.98 41.0202 92.6 41.1802 92.21C41.2902 91.96 41.4002 91.7 41.5302 91.45C41.6302 91.21 41.7402 90.97 41.8602 90.74C41.9102 90.62 41.9702 90.5 42.0402 90.38C42.2002 90.05 42.3702 89.73 42.5502 89.41C42.6102 89.29 42.6702 89.17 42.7402 89.06C42.9102 88.77 43.0802 88.47 43.2602 88.19C43.3502 88.03 43.4402 87.88 43.5402 87.73C43.7102 87.46 43.8902 87.19 44.0802 86.92C44.4402 86.38 44.8202 85.86 45.2202 85.34C45.5202 84.95 45.8302 84.57 46.1502 84.19C46.3002 84.02 46.4602 83.83 46.6202 83.66V84.93C48.5302 82.68 50.7102 80.73 53.2002 79.28Z" fill="#AD7153"/>
<path d="M123.34 169.21C123.34 170.31 123.28 171.4 123.15 172.48C121.04 190.49 101.72 204.58 78.2103 204.58C65.9103 204.58 54.7503 200.72 46.6203 194.47C46.6103 194.46 46.5903 194.45 46.5803 194.44C38.2303 188.03 33.0703 179.09 33.0703 169.21C33.0703 164.05 34.4803 159.15 37.0103 154.72C37.5403 153.8 38.1103 152.92 38.7303 152.04V104.06C38.7303 100.85 39.2403 97.76 40.2103 94.82C41.3103 91.39 43.0103 88.19 45.2203 85.34C45.5203 84.95 45.8303 84.57 46.1503 84.19C46.3003 84.02 46.4603 83.83 46.6203 83.66C46.8003 83.45 46.9803 83.25 47.1803 83.05C48.6903 81.38 50.4103 79.85 52.2803 78.5C53.6703 77.48 55.1403 76.56 56.6903 75.74C57.7503 75.17 58.8603 74.66 59.9903 74.19C61.5803 73.54 63.2303 72.98 64.9303 72.54C68.1403 71.69 71.5303 71.24 75.0403 71.24H80.0403C83.9403 71.24 87.7103 71.8 91.2303 72.83C92.7303 73.27 94.1803 73.79 95.5903 74.39C107.86 79.66 116.35 90.96 116.35 104.06V150.3C116.56 150.56 116.77 150.82 116.96 151.09C119.44 154.35 121.28 157.94 122.33 161.76C122.99 164.16 123.34 166.65 123.34 169.21Z" fill="#F6C09C"/>
<path d="M58.54 39.45C62.7042 39.45 66.08 36.0742 66.08 31.91C66.08 27.7458 62.7042 24.37 58.54 24.37C54.3758 24.37 51 27.7458 51 31.91C51 36.0742 54.3758 39.45 58.54 39.45Z" fill="#AD7153"/>
<path d="M56.9702 28.05C54.8702 28.15 53.2002 29.87 53.2002 31.99H56.9702V28.05Z" fill="#975C45"/>
<path d="M98.3798 39.45C102.544 39.45 105.92 36.0742 105.92 31.91C105.92 27.7458 102.544 24.37 98.3798 24.37C94.2156 24.37 90.8398 27.7458 90.8398 31.91C90.8398 36.0742 94.2156 39.45 98.3798 39.45Z" fill="#AD7153"/>
<path d="M104.21 31.9C104.11 29.8 102.39 28.13 100.27 28.13V31.9H104.21Z" fill="#975C45"/>
<path d="M89.5601 60.14H66.0801V76.83H89.5601V60.14Z" fill="#F6C09C"/>
<path d="M66.0801 66.25C69.7401 67.03 74.2101 67.49 79.0601 67.49C82.8601 67.49 86.4301 67.21 89.5601 66.71V58.36H66.0801V66.25Z" fill="#AD7153"/>
<path d="M78.54 63.55C67.5 63.55 58.54 54.6 58.54 43.55V20.26C58.54 9.22001 67.49 0.26001 78.54 0.26001C89.58 0.26001 98.54 9.21001 98.54 20.26V43.56C98.53 54.6 89.58 63.55 78.54 63.55Z" fill="#F6C09C"/>
<path d="M62.25 43.56V8.69C59.93 11.96 58.54 15.94 58.54 20.26V43.56C58.54 54.6 67.49 63.56 78.54 63.56C79.17 63.56 79.78 63.52 80.39 63.47C70.22 62.53 62.25 53.98 62.25 43.56Z" fill="#AD7153"/>
</g>
<defs>
<clipPath id="clip0_347_839">
<rect width="141.56" height="353.55" fill="white" transform="translate(0 0.26001)"/>
</clipPath>
</defs>
</svg>
