<svg width="115" height="239" viewBox="0 0 115 239" fill="none" xmlns="http://www.w3.org/2000/svg">
<g clip-path="url(#clip0_347_805)">
<path d="M32.0405 139.225C25.0105 139.225 19.4805 135.245 18.8005 134.735C16.6205 133.095 16.1805 130.005 17.8105 127.825C19.4405 125.655 22.5205 125.205 24.6905 126.825C24.8205 126.915 29.1105 129.965 33.3905 129.245C35.6705 128.855 37.6405 127.425 39.4105 124.855C41.5605 121.755 42.6905 117.905 42.6905 113.745V88.445C42.6905 78.215 55.4005 70.155 58.1205 70.155C60.8405 70.155 52.5605 78.635 52.5605 81.355V113.745C52.5605 119.925 50.8205 125.705 47.5305 130.465C44.2305 135.235 39.8705 138.185 34.9205 138.985C33.9505 139.155 32.9805 139.225 32.0405 139.225Z" fill="#AD7153"/>
<path d="M52.27 39.395C56.4342 39.395 59.81 36.0192 59.81 31.855C59.81 27.6908 56.4342 24.315 52.27 24.315C48.1058 24.315 44.73 27.6908 44.73 31.855C44.73 36.0192 48.1058 39.395 52.27 39.395Z" fill="#AD7153"/>
<path d="M50.6899 27.995C48.5899 28.095 46.9199 29.815 46.9199 31.935H50.6899V27.995Z" fill="#975C45"/>
<path d="M92.1098 39.395C96.2741 39.395 99.6498 36.0192 99.6498 31.855C99.6498 27.6908 96.2741 24.315 92.1098 24.315C87.9456 24.315 84.5698 27.6908 84.5698 31.855C84.5698 36.0192 87.9456 39.395 92.1098 39.395Z" fill="#AD7153"/>
<path d="M97.94 31.845C97.84 29.745 96.12 28.075 94 28.075V31.845H97.94Z" fill="#975C45"/>
<path d="M79.9797 60.195H63.9897V76.885H79.9797V60.195Z" fill="#F6C09C"/>
<path d="M63.9897 66.295C66.4797 67.075 69.5297 67.535 72.8297 67.535C75.4197 67.535 77.8497 67.255 79.9797 66.755V58.405H63.9897V66.295Z" fill="#AD7153"/>
<path d="M72.2598 63.495C61.2198 63.495 52.2598 54.545 52.2598 43.495V20.205C52.2598 9.16502 61.2098 0.205017 72.2598 0.205017C83.2998 0.205017 92.2598 9.15502 92.2598 20.205V43.505C92.2598 54.545 83.3098 63.495 72.2598 63.495Z" fill="#F6C09C"/>
<path d="M55.9698 43.505V8.63502C53.6498 11.905 52.2598 15.885 52.2598 20.205V43.505C52.2598 54.545 61.2098 63.505 72.2598 63.505C72.8898 63.505 73.4998 63.465 74.1098 63.415C63.9398 62.475 55.9698 53.925 55.9698 43.505Z" fill="#AD7153"/>
<path d="M71.0804 180.555C57.3404 180.555 46.1904 169.415 46.1904 155.665V87.685C46.1904 77.115 54.7604 68.545 65.3304 68.545H76.8204C87.3904 68.545 95.9604 77.115 95.9604 87.685V155.675C95.9704 169.415 84.8204 180.555 71.0804 180.555Z" fill="#F6C09C"/>
<path d="M105.92 150.135C105.88 150.135 105.84 150.135 105.79 150.135C103.07 150.065 100.91 147.805 100.98 145.075C101.95 106.655 84.14 81.345 83.96 81.095C82.37 78.885 77.76 71.745 79.97 70.155C82.18 68.565 86.9 70.255 91.96 75.325C93.98 77.345 111.9 103.425 110.84 145.325C110.78 148.005 108.59 150.135 105.92 150.135Z" fill="#F6C09C"/>
<path d="M92.7999 157.845C93.7399 158.355 94.9899 158.115 95.5899 157.325L97.7799 154.615C97.9799 154.365 98.4399 154.455 98.4799 154.755L98.3699 158.115L97.3499 168.875C97.2199 169.715 97.7799 170.575 98.7399 170.815C99.9699 171.125 101.19 170.435 101.35 169.405L103.16 160.815L103.24 170.895C103.24 171.745 103.93 172.535 104.92 172.675C106.19 172.845 107.28 172.025 107.28 170.995V168.695C107.54 169.455 108.4 170.005 109.41 169.925C110.47 169.845 111.24 169.025 111.24 168.125V165.005C111.63 165.365 112.19 165.585 112.8 165.565C113.92 165.525 114.79 164.735 114.74 163.795L113.76 153.875C113.63 151.495 111.79 148.045 111.79 148.045C111.65 147.735 111.28 147.235 110.85 146.785V144.565L100.97 144.665V146.305C100.87 146.385 100.85 146.385 100.73 146.505C100.78 146.445 95.3799 151.485 95.3799 151.485L92.1599 155.495C91.5799 156.275 91.8599 157.335 92.7999 157.845Z" fill="#F6C09C"/>
<path d="M27.3802 109.205C26.1002 109.245 24.9502 110.245 24.8102 111.425L24.1802 115.545C24.1202 115.925 23.6002 116.105 23.3702 115.825L20.8102 112.655L16.0402 100.545C15.6702 99.595 14.5802 99.045 13.4402 99.375C11.9802 99.785 11.1302 101.245 11.5902 102.405L16.8002 115.635L16.7202 115.695L8.75022 101.995C8.24022 101.115 7.05022 100.715 5.94022 101.175C4.52022 101.755 3.89022 103.265 4.51022 104.335L5.89022 106.705C5.16022 106.075 3.94022 106.025 2.94022 106.715C1.89022 107.435 1.59022 108.745 2.13022 109.675L4.01022 112.905C3.39022 112.775 2.68022 112.875 2.06022 113.265C0.93022 113.975 0.51022 115.315 1.12022 116.265L8.39022 126.035C9.96022 128.425 15.6402 132.595 16.3602 132.805L18.2002 134.195L26.8802 128.065C26.8802 128.065 25.5602 127.225 26.0202 125.735L28.5502 117.365L29.4602 111.275C29.5802 110.085 28.6602 109.165 27.3802 109.205Z" fill="#AD7153"/>
<path d="M27.3804 109.205C26.1004 109.245 24.9504 110.245 24.8104 111.425L24.1804 115.545C24.1204 115.925 23.6004 116.105 23.3704 115.825L21.4604 112.285L16.0404 100.545C15.6704 99.595 14.5804 99.045 13.4404 99.375C11.9804 99.785 11.1304 101.245 11.5904 102.405L14.8904 112.375L8.74039 102.005C8.23039 101.125 7.04039 100.725 5.93039 101.185C4.51039 101.765 3.88039 103.275 4.50039 104.345L5.88039 106.715L11.7304 116.775C13.4204 119.685 18.3304 119.855 21.5504 117.525C21.5504 117.525 18.7104 124.375 25.9904 125.725C25.9504 125.885 28.5204 117.355 28.5204 117.355L29.4304 111.265C29.5804 110.085 28.6604 109.165 27.3804 109.205Z" fill="#F6C09C"/>
<path d="M68.8604 171.885C68.6404 166.365 67.1404 160.965 61.6104 161.195C56.0904 161.415 53.9904 164.335 54.2104 169.855L56.2904 220.545C56.2904 220.545 35.6304 220.865 35.6304 238.845H68.8604V219.795H68.8504L68.8604 171.885Z" fill="#F6C09C"/>
<path d="M73.3003 171.885C73.5203 166.365 75.0203 160.965 80.5503 161.195C86.0703 161.415 88.1703 164.335 87.9503 169.855L85.8703 220.545C85.8703 220.545 106.53 220.865 106.53 238.845H73.3003V219.795H73.3103L73.3003 171.885Z" fill="#F6C09C"/>
</g>
<defs>
<clipPath id="clip0_347_805">
<rect width="113.93" height="238.64" fill="white" transform="translate(0.830078 0.205017)"/>
</clipPath>
</defs>
</svg>
