<svg width="142" height="354" viewBox="0 0 142 354" fill="none" xmlns="http://www.w3.org/2000/svg">
<g clip-path="url(#clip0_310_63)">
<path id="here" cx="30" cy="30" d="M141.56 208.69C141.63 210.05 140.37 211.2 138.76 211.25C137.87 211.28 137.06 210.96 136.5 210.44V214.95C136.5 216.25 135.39 217.43 133.86 217.55C133.76 217.56 133.67 217.56 133.57 217.56C132.24 217.56 131.13 216.8 130.78 215.77V219.09C130.78 220.58 129.2 221.77 127.37 221.52C125.93 221.32 124.93 220.18 124.93 218.95L124.82 204.39L123.57 210.31L122.21 216.8C121.98 218.29 120.21 219.3 118.44 218.84C117.05 218.49 116.25 217.25 116.43 216.04L117.91 200.5L118.07 195.65C118 195.22 117.34 195.08 117.05 195.44L113.89 199.36C113.02 200.51 111.22 200.85 109.85 200.12C108.49 199.39 108.09 197.86 108.96 196.71L113.42 191.13C113.43 191.12 113.44 191.11 113.45 191.1L113.6 190.91C113.6 190.91 115.39 185.9 117.43 179.13C117.43 179.13 112.94 160.11 108.15 139.77C107.75 138.04 107.34 136.29 106.92 134.55C103.32 119.22 99.7303 103.98 97.9503 96.2999H98.0603L89.5703 72.1799V72.1699C93.3303 72.1699 107.27 77.4499 112.61 83.6999C116.52 88.2899 122.04 93.8399 126.79 109.75C127.09 110.74 127.39 111.77 127.68 112.85V112.86C127.75 113.11 127.81 113.36 127.89 113.62C127.89 113.63 127.9 113.65 127.9 113.66C127.94 113.85 127.99 114.04 128.04 114.23C128.09 114.42 128.14 114.61 128.19 114.8C128.29 115.2 128.39 115.61 128.49 116.03C128.56 116.28 128.62 116.54 128.68 116.8C128.74 117.04 128.79 117.28 128.85 117.52C128.86 117.58 128.88 117.62 128.89 117.68V117.69C128.9 117.75 128.92 117.81 128.93 117.87C128.98 118.09 129.03 118.31 129.08 118.54C129.13 118.74 129.17 118.95 129.22 119.16C129.23 119.22 129.25 119.28 129.26 119.35C129.33 119.65 129.39 119.95 129.46 120.26C129.47 120.29 129.47 120.31 129.48 120.34C129.51 120.5 129.55 120.66 129.58 120.81C129.6 120.89 129.62 120.97 129.63 121.06C129.65 121.15 129.67 121.24 129.69 121.33C129.81 121.89 129.92 122.47 130.05 123.06C130.05 123.08 130.06 123.09 130.06 123.11C130.07 123.19 130.09 123.28 130.11 123.37C130.14 123.51 130.17 123.65 130.19 123.79C130.22 123.9 130.24 124.01 130.26 124.13C130.26 124.15 130.27 124.18 130.27 124.2C130.28 124.28 130.3 124.36 130.32 124.44C130.32 124.45 130.32 124.45 130.32 124.46C130.33 124.53 130.35 124.61 130.36 124.68C130.38 124.81 130.41 124.94 130.44 125.08C130.47 125.28 130.51 125.48 130.55 125.68C130.56 125.74 130.57 125.79 130.58 125.85C130.59 125.9 130.6 125.96 130.61 126.01C130.62 126.1 130.64 126.2 130.66 126.3C130.68 126.4 130.69 126.49 130.71 126.59C130.73 126.69 130.74 126.78 130.76 126.88C130.81 127.11 130.85 127.34 130.89 127.58C130.89 127.6 130.9 127.63 130.9 127.65C130.9 127.68 130.91 127.7 130.91 127.73C130.92 127.78 130.93 127.84 130.94 127.89C130.96 128.05 130.99 128.2 131.02 128.36C131.04 128.46 131.05 128.56 131.07 128.66C131.1 128.85 131.13 129.03 131.16 129.22V129.23C131.26 129.81 131.36 130.37 131.45 130.97C131.47 131.08 131.49 131.18 131.5 131.29C131.56 131.62 131.61 131.96 131.66 132.3C131.68 132.39 131.69 132.48 131.7 132.57C131.74 132.74 131.76 132.92 131.79 133.1C131.84 133.46 131.9 133.83 131.96 134.2C131.99 134.38 132.01 134.57 132.04 134.75C132.06 134.9 132.08 135.04 132.1 135.19C132.15 135.53 132.2 135.88 132.24 136.22C132.3 136.64 132.36 137.06 132.41 137.49C132.51 138.14 132.6 138.81 132.68 139.48C132.69 139.57 132.7 139.65 132.71 139.74C132.76 140.13 132.82 140.53 132.87 140.94C132.92 141.39 132.98 141.85 133.03 142.31C133.04 142.4 133.05 142.49 133.06 142.58C133.09 142.8 133.11 143.02 133.14 143.24C133.27 144.36 133.4 145.51 133.53 146.69C133.55 146.91 133.58 147.13 133.6 147.35C133.71 148.35 133.81 149.37 133.91 150.41C134.05 151.87 134.19 153.37 134.32 154.9C134.37 155.44 134.41 155.99 134.46 156.54C134.5 157.02 134.54 157.51 134.58 158C135.2 165.81 135.7 174.52 136.04 184.22C136.62 184.84 137.11 185.51 137.3 185.94C137.3 185.94 139.96 190.91 140.14 194.36L141.56 208.69Z" fill="#AD7153"/>
<path d="M75.4703 194.26C75.2503 188.81 70.1203 183.25 61.9303 183.25C56.4803 183.25 49.5403 188.82 49.7603 194.26L51.0603 335.34C29.8003 335.34 30.9103 353.6 30.9103 353.6H73.3303L75.4703 194.26Z" fill="#F6C09C"/>
<path d="M79.1602 194.26C79.3802 188.81 84.5101 183.25 92.7001 183.25C98.1501 183.25 105.09 188.82 104.87 194.26L103.57 335.34C124.83 335.34 123.72 353.6 123.72 353.6H81.3002L79.1602 194.26Z" fill="#F6C09C"/>
<path d="M31.7101 87.5299C30.3501 86.7999 28.5401 87.1399 27.6701 88.2899L24.5101 92.2099C24.2201 92.5699 23.5601 92.4299 23.5001 92.0099L22.7501 87.1499L25.1301 71.6099C25.3201 70.3999 24.5101 69.1599 23.1301 68.8099C21.3601 68.3599 19.5901 69.3599 19.3601 70.8499L16.7601 87.8199L16.6301 87.8299V68.6899C16.6301 67.4599 15.6401 66.3199 14.2001 66.1199C12.3701 65.8699 10.7901 67.0499 10.7901 68.5499V71.8699C10.4201 70.7699 9.1701 69.9699 7.7101 70.0899C6.1801 70.2099 5.0701 71.3899 5.0701 72.6899V77.1999C4.5101 76.6799 3.7001 76.3599 2.8101 76.3899C1.2001 76.4399 -0.0598961 77.5899 0.000103862 78.9499L1.4201 93.2799C1.6101 96.7199 4.2601 101.7 4.2601 101.7C4.4601 102.15 5.0001 102.87 5.6201 103.53V106.73H19.7401V104.36C19.8901 104.24 20.0501 104.1 20.2301 103.92L27.9601 96.7199L32.6001 90.9199C33.4701 89.7799 33.0701 88.2599 31.7101 87.5299Z" fill="#AD7153"/>
<path d="M31.71 87.5299C30.35 86.7999 28.54 87.1399 27.67 88.2899L24.51 92.2099C24.22 92.5699 23.56 92.4299 23.5 92.0099L23.66 87.1499L25.13 71.6099C25.32 70.3999 24.51 69.1599 23.13 68.8099C21.36 68.3599 19.59 69.3599 19.36 70.8499L16.75 83.2499L16.63 68.6899C16.63 67.4599 15.64 66.3199 14.2 66.1199C12.37 65.8699 10.79 67.0499 10.79 68.5499V71.8599V85.9099C10.79 89.9699 15.81 93.1299 20.59 92.6599C20.59 92.6599 13.47 98.0899 20.25 103.92C20.1 104.06 27.98 96.7199 27.98 96.7199L32.62 90.9199C33.47 89.7799 33.07 88.2599 31.71 87.5299Z" fill="#F6C09C"/>
<path d="M53.2002 79.0699V81.6499C53.2002 111.42 52.5402 124.76 47.6002 135.22C47.2902 135.88 46.9602 136.49 46.6202 137.07V194.26C46.6102 194.25 46.5902 194.24 46.5802 194.23C45.5402 193.43 44.5402 192.59 43.6002 191.71C43.3702 191.49 43.1302 191.27 42.9102 191.04C42.6902 190.83 42.4702 190.62 42.2602 190.39C42.0302 190.17 41.8202 189.93 41.6002 189.7C39.6602 187.6 38.0102 185.33 36.6902 182.92C36.2702 182.15 35.8802 181.36 35.5302 180.56C35.5002 180.49 35.4702 180.42 35.4402 180.35C35.1002 179.56 34.7902 178.76 34.5202 177.95C34.4302 177.66 34.3402 177.37 34.2502 177.08C33.7302 175.35 33.3702 173.57 33.2002 171.76C33.2002 171.76 33.2002 171.76 33.2002 171.75C33.1102 170.84 33.0602 169.92 33.0602 169C33.0602 167.39 33.2002 165.8 33.4702 164.24C33.7102 162.9 34.0302 161.57 34.4602 160.28C34.5202 160.08 34.5902 159.87 34.6602 159.67C35.2802 157.89 36.0802 156.17 37.0302 154.51H37.0102C37.1302 154.29 37.2602 154.08 37.4002 153.87C37.5102 153.69 37.6202 153.5 37.7302 153.32C37.7602 153.27 37.8002 153.21 37.8402 153.16C38.1202 152.71 38.4202 152.27 38.7302 151.83V144.28C35.7002 145.59 32.1902 146.09 28.2402 146.09C21.4702 146.09 16.5602 143.57 13.0602 139.47C13.0502 139.47 13.0502 139.46 13.0402 139.45C12.5102 138.83 12.0102 138.18 11.5502 137.49C10.2602 135.58 9.20022 133.43 8.35022 131.09C8.00022 130.13 7.68022 129.14 7.40022 128.12C7.09022 127.02 6.82022 125.9 6.58022 124.75C6.47022 124.22 6.37022 123.67 6.28022 123.13C5.88022 120.87 5.61022 118.53 5.43022 116.15C5.39022 115.61 5.36022 115.06 5.33022 114.51C5.13022 110.78 5.17022 106.97 5.37022 103.27C5.39022 102.84 5.41022 102.42 5.44022 102L20.2402 103.93C20.2402 105.08 20.1902 106.64 20.2302 108.38C20.2502 108.9 20.2602 109.43 20.2902 109.97V110.02C20.2902 110.05 20.2902 110.08 20.3002 110.1C20.3902 111.55 20.5502 113.06 20.8502 114.51C20.9702 115.07 21.1102 115.62 21.2802 116.15C21.7102 117.56 22.3202 118.86 23.1902 119.92C23.6002 120.44 24.0902 120.91 24.6402 121.3C25.2602 121.74 25.9702 122.09 26.7802 122.31C27.5002 122.52 28.3102 122.63 29.2002 122.63C29.5602 122.63 29.9102 122.6 30.2502 122.54C30.4102 122.52 30.5702 122.49 30.7302 122.44C36.1802 121.09 38.1202 112.38 38.7302 104.53V103.85C38.7302 103.54 38.7302 103.23 38.7502 102.92C38.7802 102.11 38.8502 101.32 38.9402 100.53V100.29C38.9402 100.28 38.9502 100.26 38.9502 100.25C38.9502 100.01 38.9502 99.7799 38.9602 99.5499C39.0102 99.3499 39.0802 99.1699 39.1402 98.9799C39.1302 98.9699 39.1402 98.9699 39.1402 98.9699C39.2002 98.5999 39.2702 98.2299 39.3502 97.8599C39.5702 96.7599 39.8602 95.6699 40.2102 94.6099C40.3702 94.1199 40.5302 93.64 40.7202 93.16C40.8602 92.77 41.0202 92.3899 41.1802 91.9999C41.2902 91.7499 41.4002 91.49 41.5302 91.24C41.6302 91 41.7402 90.76 41.8602 90.53C41.9102 90.41 41.9702 90.29 42.0402 90.17C42.2002 89.84 42.3702 89.52 42.5502 89.2C42.6102 89.08 42.6702 88.96 42.7402 88.85C42.9102 88.56 43.0802 88.2599 43.2602 87.9799C43.3502 87.8199 43.4402 87.67 43.5402 87.52C43.7102 87.25 43.8902 86.98 44.0802 86.71C44.4402 86.17 44.8202 85.65 45.2202 85.13C45.5202 84.74 45.8302 84.3599 46.1502 83.9799C46.3002 83.8099 46.4602 83.62 46.6202 83.45V84.7199C48.5302 82.4699 50.7102 80.5199 53.2002 79.0699Z" fill="#AD7153"/>
<path d="M123.34 169C123.34 170.1 123.28 171.19 123.15 172.27C121.04 190.28 101.72 204.37 78.2103 204.37C65.9103 204.37 54.7503 200.51 46.6203 194.26C46.6103 194.25 46.5903 194.24 46.5803 194.23C38.2303 187.82 33.0703 178.88 33.0703 169C33.0703 163.84 34.4803 158.94 37.0103 154.51C37.5403 153.59 38.1103 152.71 38.7303 151.83V103.85C38.7303 100.64 39.2403 97.5499 40.2103 94.6099C41.3103 91.1799 43.0103 87.9799 45.2203 85.1299C45.5203 84.7399 45.8303 84.3599 46.1503 83.9799C46.3003 83.8099 46.4603 83.6199 46.6203 83.4499C46.8003 83.2399 46.9803 83.0399 47.1803 82.8399C48.6903 81.1699 50.4103 79.6399 52.2803 78.2899C53.6703 77.2699 55.1403 76.3499 56.6903 75.5299C57.7503 74.9599 58.8603 74.4499 59.9903 73.9799C61.5803 73.3299 63.2303 72.7699 64.9303 72.3299C68.1403 71.4799 71.5303 71.0299 75.0403 71.0299H80.0403C83.9403 71.0299 87.7103 71.5899 91.2303 72.6199C92.7303 73.0599 94.1803 73.5799 95.5903 74.1799C107.86 79.4499 116.35 90.7499 116.35 103.85V150.09C116.56 150.35 116.77 150.61 116.96 150.88C119.44 154.14 121.28 157.73 122.33 161.55C122.99 163.95 123.34 166.44 123.34 169Z" fill="#F6C09C"/>
<path d="M58.54 39.2399C62.7042 39.2399 66.08 35.8641 66.08 31.6999C66.08 27.5357 62.7042 24.1599 58.54 24.1599C54.3758 24.1599 51 27.5357 51 31.6999C51 35.8641 54.3758 39.2399 58.54 39.2399Z" fill="#AD7153"/>
<path d="M56.9702 27.8399C54.8702 27.9399 53.2002 29.6599 53.2002 31.7799H56.9702V27.8399Z" fill="#975C45"/>
<path d="M98.3798 39.2399C102.544 39.2399 105.92 35.8641 105.92 31.6999C105.92 27.5357 102.544 24.1599 98.3798 24.1599C94.2156 24.1599 90.8398 27.5357 90.8398 31.6999C90.8398 35.8641 94.2156 39.2399 98.3798 39.2399Z" fill="#AD7153"/>
<path d="M104.21 31.6899C104.11 29.5899 102.39 27.9199 100.27 27.9199V31.6899H104.21Z" fill="#975C45"/>
<path d="M89.5601 59.9299H66.0801V76.6199H89.5601V59.9299Z" fill="#F6C09C"/>
<path d="M66.0801 66.0399C69.7401 66.8199 74.2101 67.2799 79.0601 67.2799C82.8601 67.2799 86.4301 66.9999 89.5601 66.4999V58.1499H66.0801V66.0399Z" fill="#AD7153"/>
<path d="M78.54 63.3399C67.5 63.3399 58.54 54.3899 58.54 43.3399V20.0499C58.54 9.00993 67.49 0.0499268 78.54 0.0499268C89.58 0.0499268 98.54 8.99993 98.54 20.0499V43.3499C98.53 54.3899 89.58 63.3399 78.54 63.3399Z" fill="#F6C09C"/>
<path d="M62.25 43.3499V8.47992C59.93 11.7499 58.54 15.7299 58.54 20.0499V43.3499C58.54 54.3899 67.49 63.3499 78.54 63.3499C79.17 63.3499 79.78 63.3099 80.39 63.2599C70.22 62.3199 62.25 53.7699 62.25 43.3499Z" fill="#AD7153"/>
</g>
<defs>
<clipPath id="clip0_310_63">
<rect width="141.56" height="353.55" fill="white" transform="translate(0 0.0499268)"/>
</clipPath>
</defs>
</svg>
