<svg width="93" height="195" viewBox="0 0 93 195" fill="none" xmlns="http://www.w3.org/2000/svg">
<g clip-path="url(#clip0_224_3472)">
<path d="M25.8901 113.705C20.1901 113.705 15.7101 110.485 15.1601 110.065C13.3901 108.735 13.0301 106.235 14.3601 104.465C15.6801 102.705 18.1801 102.345 19.9401 103.655C20.0401 103.725 23.5201 106.205 27.0001 105.615C28.8501 105.305 30.4401 104.135 31.8801 102.055C33.6201 99.5348 34.5401 96.4248 34.5401 93.0448V72.5348C34.5401 64.2348 43.5801 57.7048 45.7901 57.7048C48.0001 57.7048 42.5401 64.5748 42.5401 66.7848V93.0448C42.5401 98.0548 41.1301 102.745 38.4601 106.605C35.7801 110.475 32.2501 112.865 28.2401 113.515C27.4401 113.645 26.6601 113.705 25.8901 113.705Z" fill="#8B7979"/>
<path d="M42.2999 32.7549C45.6744 32.7549 48.4099 30.0194 48.4099 26.6449C48.4099 23.2705 45.6744 20.5349 42.2999 20.5349C38.9255 20.5349 36.1899 23.2705 36.1899 26.6449C36.1899 30.0194 38.9255 32.7549 42.2999 32.7549Z" fill="#A19696"/>
<path d="M41.0197 23.5149C39.3197 23.5949 37.9697 24.9949 37.9697 26.7049H41.0197V23.5149Z" fill="#8B7979"/>
<path d="M74.5997 32.7549C77.9742 32.7549 80.7097 30.0194 80.7097 26.6449C80.7097 23.2705 77.9742 20.5349 74.5997 20.5349C71.2253 20.5349 68.4897 23.2705 68.4897 26.6449C68.4897 30.0194 71.2253 32.7549 74.5997 32.7549Z" fill="#A29797"/>
<path d="M79.3199 26.645C79.2399 24.945 77.8399 23.595 76.1299 23.595V26.645H79.3199Z" fill="#8B7979"/>
<path d="M64.7698 49.6249H51.7998V63.1549H64.7698V49.6249Z" fill="#BDBDBD"/>
<path d="M51.7998 54.5749C53.8198 55.2049 56.2898 55.5849 58.9698 55.5849C61.0698 55.5849 63.0398 55.3549 64.7698 54.9549V48.1849H51.7998V54.5749Z" fill="#8B7979"/>
<path d="M58.5098 52.3049C49.5598 52.3049 42.2998 45.0449 42.2998 36.0949V17.1949C42.2998 8.24486 49.5498 0.984863 58.5098 0.984863C67.4598 0.984863 74.7198 8.24486 74.7198 17.1949V36.0849C74.7198 45.0449 67.4598 52.3049 58.5098 52.3049Z" fill="#BDBDBD"/>
<path d="M45.2998 36.0948V7.81482C43.4198 10.4648 42.2998 13.6948 42.2998 17.1948V36.0848C42.2998 45.0348 49.5598 52.2948 58.5098 52.2948C59.0198 52.2948 59.5198 52.2648 60.0098 52.2148C51.7598 51.4648 45.2998 44.5348 45.2998 36.0948Z" fill="#8B7979"/>
<path d="M57.5501 147.215C46.4101 147.215 37.3701 138.185 37.3701 127.035V70.8248C37.3701 62.8548 43.8301 56.3948 51.8001 56.3948H63.2901C71.2601 56.3948 77.7201 62.8548 77.7201 70.8248V127.035C77.7301 138.175 68.6901 147.215 57.5501 147.215Z" fill="#BDBDBD"/>
<path d="M85.7997 122.545C85.7697 122.545 85.7297 122.545 85.6997 122.545C83.4897 122.485 81.7497 120.655 81.7997 118.445C82.5897 87.2949 68.1397 66.7749 67.9997 66.5749C66.7097 64.7849 67.1197 62.2849 68.9097 60.9949C70.6997 59.7049 73.1897 60.1049 74.4897 61.8949C75.1497 62.8049 90.6597 84.6749 89.7997 118.645C89.7397 120.815 87.9597 122.545 85.7997 122.545Z" fill="#BDBDBD"/>
<path d="M75.1595 128.795C75.9295 129.205 76.9395 129.015 77.4295 128.375L79.1995 126.175C79.3595 125.975 79.7295 126.045 79.7695 126.285L79.6795 129.015L78.8495 137.735C78.7495 138.415 79.1995 139.105 79.9695 139.305C80.9595 139.565 81.9595 138.995 82.0895 138.165L83.5495 131.195L83.6195 139.365C83.6195 140.055 84.1795 140.695 84.9895 140.805C86.0195 140.945 86.9095 140.285 86.9095 139.435V137.575C87.1195 138.195 87.8195 138.635 88.6395 138.575C89.4995 138.505 90.1195 137.845 90.1195 137.115V134.585C90.4395 134.875 90.8895 135.055 91.3895 135.035C92.2995 135.005 92.9995 134.365 92.9695 133.595L92.1695 125.545C92.0595 123.615 90.5695 120.815 90.5695 120.815C90.4595 120.565 90.1595 120.155 89.8095 119.785V117.985L81.7995 118.065V119.395C81.7195 119.465 81.6995 119.455 81.5995 119.555C81.6395 119.505 77.2695 123.595 77.2695 123.595L74.6595 126.845C74.1695 127.525 74.3995 128.385 75.1595 128.795Z" fill="#BDBDBD"/>
<path d="M22.1199 89.3649C21.0799 89.4049 20.1499 90.2049 20.0299 91.1649L19.5199 94.5049C19.4699 94.8149 19.0499 94.9549 18.8599 94.7249L16.7899 92.1549L12.9299 82.3349C12.6299 81.5649 11.7499 81.1249 10.8199 81.3849C9.63995 81.7149 8.94995 82.9049 9.31995 83.8449L13.5399 94.5749L13.4699 94.6249L7.00995 83.5249C6.58995 82.8049 5.62995 82.4849 4.72995 82.8549C3.57995 83.3249 3.05995 84.5549 3.56995 85.4149L4.68995 87.3349C4.09995 86.8249 3.10995 86.7849 2.29995 87.3349C1.44995 87.9249 1.19995 88.9849 1.63995 89.7349L3.15995 92.3549C2.65995 92.2449 2.07995 92.3349 1.57995 92.6449C0.659946 93.2249 0.319946 94.3149 0.819946 95.0749L6.70995 102.995C7.97995 104.935 12.5899 108.315 13.1699 108.485L14.6599 109.605L21.6999 104.635C21.6999 104.635 20.6299 103.955 20.9999 102.745L23.0499 95.9549L23.7899 91.0249C23.8999 90.0749 23.1599 89.3249 22.1199 89.3649Z" fill="#8B7979"/>
<path d="M22.12 89.3649C21.08 89.4049 20.15 90.2049 20.03 91.1649L19.52 94.5049C19.47 94.8149 19.05 94.9549 18.86 94.7249L17.31 91.8549L12.92 82.3449C12.62 81.5749 11.74 81.1349 10.81 81.3949C9.62997 81.7249 8.93997 82.9149 9.30997 83.8549L11.99 91.9449L7.00997 83.5349C6.58997 82.8049 5.62997 82.4849 4.72997 82.8549C3.57997 83.3249 3.05997 84.5549 3.56997 85.4149L4.68997 87.3349L9.43997 95.4949C10.81 97.8549 14.79 97.9949 17.4 96.1049C17.4 96.1049 15.1 101.665 21 102.755C20.96 102.885 23.05 95.9649 23.05 95.9649L23.79 91.0349C23.9 90.0749 23.16 89.3249 22.12 89.3649Z" fill="#BDBDBD"/>
<path d="M55.7501 140.185C55.5701 135.705 54.3601 131.325 49.8701 131.515C45.3901 131.695 43.6901 134.055 43.8701 138.535L45.5601 179.635C45.5601 179.635 28.8101 179.895 28.8101 194.475H55.7501V179.035H55.7401L55.7501 140.185Z" fill="#BDBDBD"/>
<path d="M59.3501 140.185C59.5301 135.705 60.7401 131.325 65.2301 131.515C69.7101 131.695 71.4101 134.055 71.2301 138.535L69.5401 179.635C69.5401 179.635 86.2901 179.895 86.2901 194.475H59.3501V179.035H59.3601L59.3501 140.185Z" fill="#BDBDBD"/>
</g>
<defs>
<clipPath id="clip0_224_3472">
<rect width="92.37" height="193.49" fill="white" transform="translate(0.589844 0.984863)"/>
</clipPath>
</defs>
</svg>
