<svg width="102" height="196" viewBox="0 0 102 196" fill="none" xmlns="http://www.w3.org/2000/svg">
<g clip-path="url(#clip0_224_3529)">
<path d="M75.6993 136.96C76.8093 137.55 78.2693 137.28 78.9693 136.35L81.5293 133.17C81.7593 132.88 82.2993 132.99 82.3493 133.34L82.9593 137.28L81.0293 149.88C80.8793 150.86 81.5293 151.87 82.6493 152.15C84.0893 152.52 85.5193 151.7 85.7093 150.5L87.8193 136.74L87.9193 136.73V152.24C87.9193 153.24 88.7293 154.16 89.8893 154.32C91.3693 154.52 92.6593 153.56 92.6593 152.35V149.66C92.9593 150.55 93.9693 151.2 95.1493 151.11C96.3893 151.01 97.2893 150.05 97.2893 149V145.34C97.7493 145.76 98.3993 146.02 99.1193 146C100.429 145.96 101.449 145.03 101.399 143.92L100.249 132.3C100.099 129.51 97.9393 125.47 97.9393 125.47C97.7693 125.11 97.3393 124.52 96.8393 123.99V121.39H85.3993V123.31C85.2793 123.41 85.1493 123.52 84.9993 123.66L78.7393 129.5L74.9693 134.2C74.2693 135.13 74.5993 136.37 75.6993 136.96Z" fill="#8B7979"/>
<path d="M75.6995 136.96C76.8095 137.55 78.2695 137.28 78.9695 136.35L81.5295 133.17C81.7595 132.88 82.2995 132.99 82.3495 133.34L82.2195 137.28L81.0295 149.88C80.8795 150.86 81.5295 151.87 82.6495 152.15C84.0895 152.52 85.5195 151.7 85.7095 150.5L87.8195 140.44L87.9095 152.25C87.9095 153.25 88.7195 154.17 89.8795 154.33C91.3595 154.53 92.6495 153.57 92.6495 152.36V149.67V138.28C92.6495 134.99 88.5795 132.43 84.7095 132.81C84.7095 132.81 90.4795 128.41 84.9895 123.68C85.1095 123.56 78.7295 129.52 78.7295 129.52L74.9595 134.22C74.2695 135.13 74.5995 136.37 75.6995 136.96Z" fill="#8B7979"/>
<path d="M96.9997 124.96H84.9997C84.9997 92.2099 71.3797 75.6499 71.2397 75.4899L80.3497 67.6799C81.0297 68.4699 96.9997 87.4399 96.9997 124.96Z" fill="#8B7979"/>
<path d="M42.6699 61.5898V63.6798C42.6699 87.8198 41.1899 102.69 37.1899 111.17C33.9499 118.03 29.0499 120.7 21.9299 120.7C11.2499 120.7 4.60986 111.8 4.60986 97.4698H16.6099C16.6099 101.66 18.1499 104.2 22.7799 104.2C29.2499 104.2 29.0699 97.6298 29.4999 94.6998C30.1599 90.2498 30.9899 85.6998 31.1199 78.1898C33.0399 71.6198 36.8799 64.9698 42.6699 61.5898Z" fill="#8B7979"/>
<path d="M42.1798 32.1299C45.5543 32.1299 48.2898 29.3944 48.2898 26.0199C48.2898 22.6455 45.5543 19.9099 42.1798 19.9099C38.8054 19.9099 36.0698 22.6455 36.0698 26.0199C36.0698 29.3944 38.8054 32.1299 42.1798 32.1299Z" fill="#A19696"/>
<path d="M40.8996 22.8899C39.1996 22.9699 37.8496 24.3699 37.8496 26.0799H40.8996V22.8899Z" fill="#8B7979"/>
<path d="M74.4796 32.1299C77.8541 32.1299 80.5896 29.3944 80.5896 26.0199C80.5896 22.6455 77.8541 19.9099 74.4796 19.9099C71.1052 19.9099 68.3696 22.6455 68.3696 26.0199C68.3696 29.3944 71.1052 32.1299 74.4796 32.1299Z" fill="#A29797"/>
<path d="M79.1998 26.02C79.1198 24.32 77.7198 22.97 76.0098 22.97V26.02H79.1998Z" fill="#8B7979"/>
<path d="M64.6497 48.9999H51.6797V62.5299H64.6497V48.9999Z" fill="#BDBDBD"/>
<path d="M51.6797 53.9499C53.6997 54.5799 56.1697 54.9599 58.8497 54.9599C60.9497 54.9599 62.9197 54.7299 64.6497 54.3299V47.5599H51.6797V53.9499Z" fill="#8B7979"/>
<path d="M58.3897 51.6799C49.4397 51.6799 42.1797 44.4199 42.1797 35.4699V16.5699C42.1797 7.61986 49.4397 0.359863 58.3897 0.359863C67.3397 0.359863 74.5997 7.61986 74.5997 16.5699V35.4599C74.5997 44.4199 67.3397 51.6799 58.3897 51.6799Z" fill="#BDBDBD"/>
<path d="M45.1797 35.4698V7.18982C43.2997 9.83982 42.1797 13.0698 42.1797 16.5698V35.4598C42.1797 44.4098 49.4397 51.6698 58.3897 51.6698C58.8997 51.6698 59.3997 51.6398 59.8897 51.5898C51.6397 50.8398 45.1797 43.9098 45.1797 35.4698Z" fill="#8B7979"/>
<path d="M26.0999 84.9199C24.9899 84.3299 23.5299 84.5999 22.8299 85.5299L20.2699 88.7099C20.0399 88.9999 19.4999 88.8899 19.4499 88.5399L18.8399 84.5999L20.7699 71.9999C20.9199 71.0199 20.2699 70.0099 19.1499 69.7299C17.7099 69.3599 16.2799 70.1799 16.0899 71.3799L13.9799 85.1399L13.8799 85.1499V69.6499C13.8799 68.6499 13.0699 67.7299 11.9099 67.5699C10.4299 67.3699 9.13995 68.3299 9.13995 69.5399V72.2299C8.83995 71.3399 7.82995 70.6899 6.64995 70.7799C5.40995 70.8799 4.50995 71.8399 4.50995 72.8899V76.5499C4.03995 76.1299 3.38995 75.8699 2.66995 75.8899C1.35995 75.9399 0.339946 76.8599 0.389946 77.9699L1.53995 89.5899C1.68995 92.3799 3.84995 96.4199 3.84995 96.4199C4.01995 96.7799 4.44995 97.3699 4.94995 97.8999V100.5H16.3999V98.5799C16.5199 98.4799 16.6499 98.3699 16.7999 98.2299L23.0599 92.3899L26.8299 87.6899C27.5299 86.7499 27.1999 85.5099 26.0999 84.9199Z" fill="#8B7979"/>
<path d="M26.1001 84.9199C24.9901 84.3299 23.5301 84.5999 22.8301 85.5299L20.2701 88.7099C20.0401 88.9999 19.5001 88.8899 19.4501 88.5399L19.5801 84.5999L20.7701 71.9999C20.9201 71.0199 20.2701 70.0099 19.1501 69.7299C17.7101 69.3599 16.2801 70.1799 16.0901 71.3799L13.9701 81.4599L13.8801 69.6499C13.8801 68.6499 13.0701 67.7299 11.9101 67.5699C10.4301 67.3699 9.14014 68.3299 9.14014 69.5399V72.2299V83.6199C9.14014 86.9099 13.2101 89.4699 17.0801 89.0899C17.0801 89.0899 11.3101 93.4899 16.8001 98.2199C16.6801 98.3399 23.0601 92.3799 23.0601 92.3799L26.8301 87.6799C27.5301 86.7499 27.2001 85.5099 26.1001 84.9199Z" fill="#BDBDBD"/>
<path d="M35.7199 67.2899V110.02H30.3599V83.3999C30.3599 80.7999 30.7299 78.2899 31.4299 75.9099C32.3299 72.7499 33.7999 69.8299 35.7199 67.2899Z" fill="#8B7979"/>
<path d="M91.46 122.92C91.46 138.76 76.87 151.6 58.87 151.6C49.99 151.6 41.93 148.47 36.06 143.4C30.01 138.2 26.27 130.95 26.27 122.92C26.27 118.74 27.29 114.76 29.12 111.17C29.5 110.43 29.91 109.71 30.36 109V83.3999C30.36 80.7999 30.73 78.2899 31.43 75.9099C32.33 72.7499 33.8 69.8299 35.72 67.2899C35.83 67.1499 35.94 66.9999 36.06 66.8599C38.05 64.2899 40.52 62.1099 43.33 60.4399C47.22 58.1199 51.74 56.7899 56.58 56.7899H60.19C74.67 56.7899 86.41 68.6999 86.41 83.3999V107.59C89.6 112.03 91.46 117.28 91.46 122.92Z" fill="#BDBDBD"/>
<path d="M35.72 67.2899C33.8 69.8299 32.33 72.7499 31.43 75.9099C30.73 78.2899 30.36 80.7999 30.36 83.3999V109C30.35 109.01 30.35 109.02 30.34 109.03C30.26 109.16 30.19 109.29 30.11 109.42C29.95 109.68 29.79 109.94 29.64 110.21C29.56 110.36 29.48 110.51 29.4 110.65C29.31 110.82 29.21 110.99 29.12 111.17H29.13C27.3 114.76 26.27 118.73 26.27 122.92C26.27 130.95 30.01 138.2 36.06 143.4V111.17V102.44V66.8599C35.94 66.9999 35.83 67.1499 35.72 67.2899Z" fill="#8B7979"/>
<path d="M60.6699 144.87C60.8499 140.45 66.1599 136.69 70.5799 136.88C74.9899 137.06 79.9699 137.99 79.7899 142.41L77.0899 178.9H78.6399C86.7499 178.9 93.3199 185.47 93.3199 193.58V195.11H60.6699V178.9H60.6799L60.6699 144.87Z" fill="#BDBDBD"/>
<path d="M56.2198 144.87C56.0398 140.45 50.7298 136.69 46.3098 136.88C41.8998 137.06 36.9198 137.99 37.0998 142.41L39.7998 178.9H38.2498C30.1398 178.9 23.5698 185.47 23.5698 193.58V195.11H56.2098V178.9H56.1998L56.2198 144.87Z" fill="#BDBDBD"/>
</g>
<defs>
<clipPath id="clip0_224_3529">
<rect width="101.02" height="194.74" fill="white" transform="translate(0.390137 0.359863)"/>
</clipPath>
</defs>
</svg>
