<svg width="115" height="240" viewBox="0 0 115 240" fill="none" xmlns="http://www.w3.org/2000/svg">
<g clip-path="url(#clip0_310_32)">
<path d="M32.0405 140.015C25.0105 140.015 19.4805 136.035 18.8005 135.525C16.6205 133.885 16.1805 130.795 17.8105 128.615C19.4405 126.445 22.5205 125.995 24.6905 127.615C24.8205 127.705 29.1105 130.755 33.3905 130.035C35.6705 129.645 37.6405 128.215 39.4105 125.645C41.5605 122.545 42.6905 118.695 42.6905 114.535V89.2349C42.6905 79.0049 55.4005 70.9449 58.1205 70.9449C60.8405 70.9449 52.5605 79.425 52.5605 82.145V114.535C52.5605 120.715 50.8205 126.495 47.5305 131.255C44.2305 136.025 39.8705 138.975 34.9205 139.775C33.9505 139.945 32.9805 140.015 32.0405 140.015Z" fill="#AD7153"/>
<path d="M52.27 40.1849C56.4342 40.1849 59.81 36.8091 59.81 32.6449C59.81 28.4807 56.4342 25.1049 52.27 25.1049C48.1058 25.1049 44.73 28.4807 44.73 32.6449C44.73 36.8091 48.1058 40.1849 52.27 40.1849Z" fill="#AD7153"/>
<path d="M50.6899 28.7849C48.5899 28.8849 46.9199 30.6049 46.9199 32.7249H50.6899V28.7849Z" fill="#975C45"/>
<path d="M92.1098 40.1849C96.2741 40.1849 99.6498 36.8091 99.6498 32.6449C99.6498 28.4807 96.2741 25.1049 92.1098 25.1049C87.9456 25.1049 84.5698 28.4807 84.5698 32.6449C84.5698 36.8091 87.9456 40.1849 92.1098 40.1849Z" fill="#AD7153"/>
<path d="M97.94 32.6349C97.84 30.5349 96.12 28.8649 94 28.8649V32.6349H97.94Z" fill="#975C45"/>
<path d="M79.9797 60.9849H63.9897V77.6749H79.9797V60.9849Z" fill="#F6C09C"/>
<path d="M63.9897 67.0849C66.4797 67.8649 69.5297 68.3249 72.8297 68.3249C75.4197 68.3249 77.8497 68.0449 79.9797 67.5449V59.1949H63.9897V67.0849Z" fill="#AD7153"/>
<path d="M72.2598 64.2849C61.2198 64.2849 52.2598 55.3349 52.2598 44.2849V20.9949C52.2598 9.95493 61.2098 0.994934 72.2598 0.994934C83.2998 0.994934 92.2598 9.94493 92.2598 20.9949V44.2949C92.2598 55.3349 83.3098 64.2849 72.2598 64.2849Z" fill="#F6C09C"/>
<path d="M55.9698 44.2949V9.42493C53.6498 12.6949 52.2598 16.6749 52.2598 20.9949V44.2949C52.2598 55.3349 61.2098 64.2949 72.2598 64.2949C72.8898 64.2949 73.4998 64.2549 74.1098 64.2049C63.9398 63.2649 55.9698 54.7149 55.9698 44.2949Z" fill="#AD7153"/>
<path d="M71.0804 181.345C57.3404 181.345 46.1904 170.205 46.1904 156.455V88.475C46.1904 77.905 54.7604 69.335 65.3304 69.335H76.8204C87.3904 69.335 95.9604 77.905 95.9604 88.475V156.465C95.9704 170.205 84.8204 181.345 71.0804 181.345Z" fill="#F6C09C"/>
<path d="M105.92 150.925C105.88 150.925 105.84 150.925 105.79 150.925C103.07 150.855 100.91 148.595 100.98 145.865C101.95 107.445 84.14 82.1349 83.96 81.8849C82.37 79.6749 77.76 72.5349 79.97 70.9449C82.18 69.3549 86.9 71.0449 91.96 76.1149C93.98 78.1349 111.9 104.215 110.84 146.115C110.78 148.795 108.59 150.925 105.92 150.925Z" fill="#F6C09C"/>
<path d="M92.7999 158.635C93.7399 159.145 94.9899 158.905 95.5899 158.115L97.7799 155.405C97.9799 155.155 98.4399 155.245 98.4799 155.545L98.3699 158.905L97.3499 169.665C97.2199 170.505 97.7799 171.365 98.7399 171.605C99.9699 171.915 101.19 171.225 101.35 170.195L103.16 161.605L103.24 171.685C103.24 172.535 103.93 173.325 104.92 173.465C106.19 173.635 107.28 172.815 107.28 171.785V169.485C107.54 170.245 108.4 170.795 109.41 170.715C110.47 170.635 111.24 169.815 111.24 168.915V165.795C111.63 166.155 112.19 166.375 112.8 166.355C113.92 166.315 114.79 165.525 114.74 164.585L113.76 154.665C113.63 152.285 111.79 148.835 111.79 148.835C111.65 148.525 111.28 148.025 110.85 147.575V145.355L100.97 145.455V147.095C100.87 147.175 100.85 147.175 100.73 147.295C100.78 147.235 95.3799 152.275 95.3799 152.275L92.1599 156.285C91.5799 157.065 91.8599 158.125 92.7999 158.635Z" fill="#F6C09C"/>
<path d="M27.3802 109.995C26.1002 110.035 24.9502 111.035 24.8102 112.215L24.1802 116.335C24.1202 116.715 23.6002 116.895 23.3702 116.615L20.8102 113.445L16.0402 101.335C15.6702 100.385 14.5802 99.8349 13.4402 100.165C11.9802 100.575 11.1302 102.035 11.5902 103.195L16.8002 116.425L16.7202 116.485L8.75022 102.785C8.24022 101.905 7.05022 101.505 5.94022 101.965C4.52022 102.545 3.89022 104.055 4.51022 105.125L5.89022 107.495C5.16022 106.865 3.94022 106.815 2.94022 107.505C1.89022 108.225 1.59022 109.535 2.13022 110.465L4.01022 113.695C3.39022 113.565 2.68022 113.665 2.06022 114.055C0.93022 114.765 0.51022 116.105 1.12022 117.055L8.39022 126.825C9.96022 129.215 15.6402 133.385 16.3602 133.595L18.2002 134.985L26.8802 128.855C26.8802 128.855 25.5602 128.015 26.0202 126.525L28.5502 118.155L29.4602 112.065C29.5802 110.875 28.6602 109.955 27.3802 109.995Z" fill="#AD7153"/>
<path d="M27.3804 109.995C26.1004 110.035 24.9504 111.035 24.8104 112.215L24.1804 116.335C24.1204 116.715 23.6004 116.895 23.3704 116.615L21.4604 113.075L16.0404 101.335C15.6704 100.385 14.5804 99.8349 13.4404 100.165C11.9804 100.575 11.1304 102.035 11.5904 103.195L14.8904 113.165L8.74039 102.795C8.23039 101.915 7.04039 101.515 5.93039 101.975C4.51039 102.555 3.88039 104.065 4.50039 105.135L5.88039 107.505L11.7304 117.565C13.4204 120.475 18.3304 120.645 21.5504 118.315C21.5504 118.315 18.7104 125.165 25.9904 126.515C25.9504 126.675 28.5204 118.145 28.5204 118.145L29.4304 112.055C29.5804 110.875 28.6604 109.955 27.3804 109.995Z" fill="#F6C09C"/>
<path d="M68.8604 172.675C68.6404 167.155 67.1404 161.755 61.6104 161.985C56.0904 162.205 53.9904 165.125 54.2104 170.645L56.2904 221.335C56.2904 221.335 35.6304 221.655 35.6304 239.635H68.8604V220.585H68.8504L68.8604 172.675Z" fill="#F6C09C"/>
<path d="M73.3003 172.675C73.5203 167.155 75.0203 161.755 80.5503 161.985C86.0703 162.205 88.1703 165.125 87.9503 170.645L85.8703 221.335C85.8703 221.335 106.53 221.655 106.53 239.635H73.3003V220.585H73.3103L73.3003 172.675Z" fill="#F6C09C"/>
</g>
<defs>
<clipPath id="clip0_310_32">
<rect width="113.93" height="238.64" fill="white" transform="translate(0.830078 0.994934)"/>
</clipPath>
</defs>
</svg>
