<svg width="126" height="241" viewBox="0 0 126 241" fill="none" xmlns="http://www.w3.org/2000/svg">
<g clip-path="url(#clip0_310_90)">
<path d="M93.45 169.2C94.81 169.93 96.62 169.59 97.49 168.44L100.65 164.52C100.94 164.16 101.6 164.3 101.66 164.72L102.41 169.58L100.03 185.12C99.84 186.33 100.65 187.57 102.03 187.92C103.8 188.37 105.57 187.37 105.8 185.88L108.4 168.91L108.53 168.9V188.03C108.53 189.26 109.52 190.4 110.96 190.6C112.79 190.85 114.37 189.67 114.37 188.17V184.85C114.74 185.95 115.99 186.75 117.45 186.63C118.98 186.51 120.09 185.33 120.09 184.03V179.52C120.65 180.04 121.46 180.36 122.35 180.33C123.96 180.28 125.22 179.13 125.16 177.77L123.74 163.44C123.55 160 120.9 155.02 120.9 155.02C120.7 154.57 120.16 153.85 119.54 153.19V149.99H105.42V152.36C105.27 152.48 105.11 152.62 104.93 152.8L97.2 160L92.56 165.8C91.68 166.95 92.08 168.47 93.45 169.2Z" fill="#AD7153"/>
<path d="M93.4499 169.2C94.8099 169.93 96.6199 169.59 97.4899 168.44L100.65 164.52C100.94 164.16 101.6 164.3 101.66 164.72L101.5 169.58L100.03 185.12C99.8399 186.33 100.65 187.57 102.03 187.92C103.8 188.37 105.57 187.37 105.8 185.88L108.41 173.47L108.53 188.03C108.53 189.26 109.52 190.4 110.96 190.6C112.79 190.85 114.37 189.67 114.37 188.17V184.86V170.81C114.37 166.75 109.35 163.59 104.57 164.06C104.57 164.06 111.69 158.63 104.91 152.8C105.06 152.66 97.1799 160 97.1799 160L92.5399 165.8C91.6799 166.95 92.0799 168.47 93.4499 169.2Z" fill="#AD7153"/>
<path d="M119.71 154.4H104.91C104.91 114.01 88.1099 93.58 87.9399 93.38L99.1799 83.75C100.02 84.73 119.71 108.13 119.71 154.4Z" fill="#AD7153"/>
<path d="M52.71 76.24V78.82C52.71 108.59 50.88 126.93 45.95 137.39C41.95 145.85 35.91 149.14 27.13 149.14C13.96 149.14 5.77002 138.16 5.77002 120.49H20.57C20.57 125.66 22.47 128.79 28.18 128.79C36.16 128.79 35.94 120.69 36.47 117.08C37.28 111.59 38.31 105.98 38.47 96.72C40.83 88.62 45.57 80.41 52.71 76.24Z" fill="#AD7153"/>
<path d="M52.1001 39.92C56.2643 39.92 59.6401 36.5442 59.6401 32.38C59.6401 28.2157 56.2643 24.84 52.1001 24.84C47.9358 24.84 44.5601 28.2157 44.5601 32.38C44.5601 36.5442 47.9358 39.92 52.1001 39.92Z" fill="#AD7153"/>
<path d="M50.52 28.52C48.42 28.62 46.75 30.34 46.75 32.46H50.52V28.52Z" fill="#975C45"/>
<path d="M91.9399 39.92C96.1041 39.92 99.4799 36.5442 99.4799 32.38C99.4799 28.2157 96.1041 24.84 91.9399 24.84C87.7757 24.84 84.3999 28.2157 84.3999 32.38C84.3999 36.5442 87.7757 39.92 91.9399 39.92Z" fill="#AD7153"/>
<path d="M97.7701 32.37C97.6701 30.27 95.9501 28.6 93.8301 28.6V32.37H97.7701Z" fill="#975C45"/>
<path d="M79.8098 60.72H63.8198V77.41H79.8098V60.72Z" fill="#F6C09C"/>
<path d="M63.8198 66.82C66.3098 67.6 69.3598 68.06 72.6598 68.06C75.2498 68.06 77.6798 67.78 79.8098 67.28V58.93H63.8198V66.82Z" fill="#AD7153"/>
<path d="M72.1001 64.02C61.0601 64.02 52.1001 55.07 52.1001 44.02V20.73C52.1001 9.68998 61.0501 0.72998 72.1001 0.72998C83.1401 0.72998 92.1001 9.67998 92.1001 20.73V44.03C92.0901 55.07 83.1401 64.02 72.1001 64.02Z" fill="#F6C09C"/>
<path d="M55.7998 44.03V9.15997C53.4798 12.43 52.0898 16.41 52.0898 20.73V44.03C52.0898 55.07 61.0398 64.03 72.0898 64.03C72.7198 64.03 73.3298 63.99 73.9398 63.94C63.7698 63 55.7998 54.45 55.7998 44.03Z" fill="#AD7153"/>
<path d="M32.2702 105.02C30.9102 104.29 29.1002 104.63 28.2302 105.78L25.0702 109.7C24.7802 110.06 24.1202 109.92 24.0602 109.5L23.3102 104.64L25.6902 89.1C25.8802 87.89 25.0702 86.65 23.6902 86.3C21.9202 85.85 20.1502 86.85 19.9202 88.34L17.3202 105.31L17.1902 105.32V86.19C17.1902 84.96 16.2002 83.82 14.7602 83.62C12.9302 83.37 11.3502 84.55 11.3502 86.05V89.37C10.9802 88.27 9.73016 87.47 8.27016 87.59C6.74016 87.71 5.63016 88.89 5.63016 90.19V94.7C5.07016 94.18 4.26016 93.86 3.37016 93.89C1.76016 93.94 0.500162 95.09 0.560162 96.45L1.98016 110.78C2.17016 114.22 4.82016 119.2 4.82016 119.2C5.02016 119.65 5.56016 120.37 6.18016 121.03V124.23H20.3002V121.86C20.4502 121.74 20.6102 121.6 20.7902 121.42L28.5202 114.22L33.1602 108.42C34.0302 107.28 33.6302 105.75 32.2702 105.02Z" fill="#AD7153"/>
<path d="M32.2701 105.02C30.9101 104.29 29.1001 104.63 28.2301 105.78L25.0701 109.7C24.7801 110.06 24.1201 109.92 24.0601 109.5L24.2201 104.64L25.6901 89.1C25.8801 87.89 25.0701 86.65 23.6901 86.3C21.9201 85.85 20.1501 86.85 19.9201 88.34L17.3101 100.75L17.1901 86.19C17.1901 84.96 16.2001 83.82 14.7601 83.62C12.9301 83.37 11.3501 84.55 11.3501 86.05V89.36V103.41C11.3501 107.47 16.3701 110.63 21.1501 110.16C21.1501 110.16 14.0301 115.59 20.8101 121.42C20.6601 121.56 28.5401 114.22 28.5401 114.22L33.1801 108.42C34.0301 107.28 33.6301 105.75 32.2701 105.02Z" fill="#F6C09C"/>
<path d="M44.1403 83.28V135.98H37.5303V103.15C37.5303 99.94 37.9903 96.85 38.8503 93.91C39.9603 90.01 41.7703 86.41 44.1403 83.28Z" fill="#AD7153"/>
<path d="M112.89 151.89C112.89 171.43 94.9001 187.26 72.6901 187.26C61.7401 187.26 51.8001 183.4 44.5601 177.15C37.1001 170.74 33.6201 161.79 33.6201 151.89C33.6201 146.73 34.8801 141.83 37.1401 137.4C37.6101 136.49 38.1101 135.6 38.6701 134.72L37.5301 103.15C37.5301 99.94 37.9901 96.85 38.8501 93.91C39.9601 90.01 41.7701 86.41 44.1401 83.28C44.2801 83.11 44.4101 82.92 44.5601 82.75C47.0101 79.58 50.0601 76.89 53.5301 74.83C58.3301 71.97 63.9001 70.33 69.8701 70.33H74.3201C92.1801 70.33 106.66 85.02 106.66 103.15V132.98C110.59 138.46 112.89 144.93 112.89 151.89Z" fill="#F6C09C"/>
<path d="M74.9004 178.96C75.1204 173.51 81.6704 168.87 87.1204 169.1C92.5604 169.32 98.7004 170.47 98.4804 175.91L95.1504 220.91H97.0604C107.06 220.91 115.17 229.02 115.17 239.02V240.91H74.9004V220.91H74.9104L74.9004 178.96Z" fill="#F6C09C"/>
<path d="M69.4204 178.96C69.2004 173.51 62.6504 168.87 57.2004 169.1C51.7604 169.32 45.6204 170.47 45.8404 175.91L49.1704 220.91H47.2604C37.2604 220.91 29.1504 229.02 29.1504 239.02V240.91H69.4104V220.91H69.4004L69.4204 178.96Z" fill="#F6C09C"/>
</g>
<defs>
<clipPath id="clip0_310_90">
<rect width="124.6" height="240.19" fill="white" transform="translate(0.560059 0.72998)"/>
</clipPath>
</defs>
</svg>
