<svg width="164" height="317" viewBox="0 0 164 317" fill="none" xmlns="http://www.w3.org/2000/svg">
<g clip-path="url(#clip0_310_122)">
<path d="M108.76 303.27C127.096 303.27 141.96 277.338 141.96 245.35C141.96 213.362 127.096 187.43 108.76 187.43C90.4242 187.43 75.5601 213.362 75.5601 245.35C75.5601 277.338 90.4242 303.27 108.76 303.27Z" fill="#808080"/>
<path d="M152.22 316.48C145.79 316.48 140.75 307.93 140.75 297.01C140.75 286.09 145.79 277.54 152.22 277.54C158.65 277.54 163.69 286.09 163.69 297.01C163.69 307.93 158.65 316.48 152.22 316.48ZM152.22 282.48C149.13 282.48 145.68 288.7 145.68 297.02C145.68 305.34 149.13 311.56 152.22 311.56C155.3 311.56 158.75 305.34 158.75 297.02C158.75 288.69 155.3 282.48 152.22 282.48Z" fill="#686868"/>
<path d="M152.22 311.55C156.473 311.55 159.92 305.04 159.92 297.01C159.92 288.98 156.473 282.47 152.22 282.47C147.967 282.47 144.52 288.98 144.52 297.01C144.52 305.04 147.967 311.55 152.22 311.55Z" fill="#CFCFCF"/>
<path d="M108.08 316.48C87.7 316.48 71.73 284.83 71.73 244.42C71.73 204.01 87.7 172.36 108.08 172.36C128.46 172.36 144.43 204.01 144.43 244.42C144.43 284.83 128.46 316.48 108.08 316.48ZM108.08 177.3C91.05 177.3 76.67 208.04 76.67 244.43C76.67 280.82 91.06 311.56 108.08 311.56C125.1 311.56 139.5 280.82 139.5 244.43C139.49 208.04 125.11 177.3 108.08 177.3Z" fill="#686868"/>
<path d="M152.22 289.59C152.2 289.59 152.18 289.59 152.16 289.59C150.8 289.56 149.72 288.43 149.75 287.06C149.77 286.08 149.78 273.17 149.78 271.93C149.58 224.47 114.6 213.82 114.25 213.71C112.94 213.33 112.19 211.96 112.56 210.66C112.94 209.35 114.31 208.59 115.61 208.97C116 209.08 154.48 220.79 154.7 271.9C154.7 272.62 154.7 286.03 154.67 287.16C154.65 288.52 153.56 289.59 152.22 289.59Z" fill="#CFCFCF"/>
<path d="M147.57 212.58H50.5801V198.65H136.28C142.52 198.65 147.57 203.71 147.57 209.94V212.58Z" fill="#808080"/>
<path d="M104.38 122.87H33.6802V198.76H104.38V122.87Z" fill="#9F9F9F"/>
<path d="M45.6502 197.61C42.9302 197.61 40.7202 195.4 40.7202 192.68V151.48C38.8902 126.67 3.17019 110.5 2.78019 110.3C0.330191 109.1 -0.679809 106.15 0.510191 103.7C1.71019 101.25 4.66019 100.24 7.11019 101.43C8.92019 102.32 48.5202 120.44 50.5802 150.97L50.5902 151.3V197.6C50.5802 200.34 48.3702 197.61 45.6502 197.61Z" fill="#BCBCBC"/>
<path d="M110.64 197.61C107.92 197.61 105.71 195.4 105.71 192.68V151.48C103.88 126.67 68.1604 110.5 67.7704 110.3C65.3204 109.1 64.3104 106.15 65.5004 103.7C66.7004 101.25 69.6504 100.24 72.1004 101.43C73.9104 102.32 113.51 120.44 115.57 150.97L115.58 151.3V197.6C115.57 200.34 113.37 197.61 110.64 197.61Z" fill="#BCBCBC"/>
<path d="M90.1801 291.51C90.1601 291.51 90.1401 291.51 90.1201 291.51C88.7601 291.48 87.6801 290.35 87.7101 288.98C87.7301 288 87.7401 275.09 87.7401 273.85C87.5401 226.54 54.5301 216.05 53.1301 215.63C51.8301 215.24 51.0901 213.86 51.4801 212.56C51.8701 211.26 53.2301 210.51 54.5401 210.9C54.9201 211.01 92.4601 222.73 92.6801 273.83C92.6801 274.55 92.6801 287.96 92.6501 289.09C92.6101 290.45 91.5101 291.51 90.1801 291.51Z" fill="#CFCFCF"/>
<path d="M29.4398 103.18C29.4198 103.48 29.4498 103.52 29.4598 103.44C29.4498 103.34 29.4498 103.26 29.4498 103.21C29.4398 103.19 29.4398 103.19 29.4398 103.18Z" fill="#BDBDBD"/>
<path d="M40.9096 87.21C39.7596 86.48 38.2396 86.82 37.4996 87.97L34.8297 91.89C34.5897 92.25 34.0297 92.11 33.9697 91.69L33.3396 86.83L35.3496 71.29C35.5096 70.08 34.8296 68.84 33.6596 68.49C32.1596 68.04 30.6696 69.04 30.4796 70.53L28.2896 87.5L28.1796 87.51V68.37C28.1796 67.14 27.3396 66 26.1296 65.8C24.5796 65.55 23.2496 66.73 23.2496 68.23V71.55C22.9396 70.45 21.8796 69.65 20.6496 69.77C19.3596 69.89 18.4196 71.07 18.4196 72.37V76.88C17.9396 76.36 17.2596 76.04 16.5196 76.07C15.1596 76.12 14.0996 77.27 14.1496 78.63L15.3496 92.96C15.5096 96.4 17.7496 101.38 17.7496 101.38C18.1296 102.36 19.7996 104.65 20.7896 104.65C21.0796 104.65 20.6496 102.91 20.9396 102.8C21.6496 102.53 22.1496 101.96 22.3796 101.3C22.8396 101.72 23.4296 101.98 24.0496 101.98C24.3796 101.98 24.7096 101.91 25.0296 101.77C25.3296 101.64 25.5896 101.46 25.7996 101.24C26.1296 102.28 27.0896 102.97 28.1396 102.97C28.3596 102.97 28.5796 102.94 28.7996 102.88C29.2296 102.76 29.3896 102.97 29.4496 103.17C29.4496 103.16 29.4496 103.15 29.4496 103.14C29.4496 103.14 29.4496 103.17 29.4596 103.2C29.4796 103.3 29.4796 103.38 29.4696 103.43C29.5196 104.05 29.7696 105.33 31.2296 103.61L37.7496 96.41L41.6696 90.61C42.3996 89.46 42.0596 87.94 40.9096 87.21Z" fill="#BDBDBD"/>
<path d="M40.9099 87.21C39.7599 86.48 38.2399 86.82 37.4999 87.97L34.8299 91.89C34.5899 92.25 34.0299 92.11 33.9699 91.69L34.0999 86.83L35.3399 71.29C35.4999 70.08 34.8199 68.84 33.6499 68.49C32.1499 68.04 30.6599 69.04 30.4699 70.53L28.2699 82.94L28.1699 68.38C28.1699 67.15 27.3299 66.01 26.1199 65.81C24.5699 65.56 23.2399 66.74 23.2399 68.24V71.56C22.9299 70.46 21.8699 69.66 20.6399 69.78C19.3499 69.9 18.4099 71.08 18.4099 72.38V76.89C17.9299 76.37 17.2499 76.05 16.5099 76.08C15.1499 76.13 14.0899 77.28 14.1399 78.64L15.3399 92.97C15.4999 96.41 17.7399 101.39 17.7399 101.39C18.1199 102.37 19.7899 104.66 20.7799 104.66C21.0699 104.66 20.6399 102.92 20.9299 102.81C21.6399 102.54 22.1399 101.97 22.3699 101.31C22.8299 101.73 23.4199 101.99 24.0399 101.99C24.3699 101.99 24.6999 101.92 25.0199 101.78C25.3199 101.65 25.5799 101.47 25.7899 101.25C26.1199 102.29 27.0799 102.98 28.1299 102.98C28.3499 102.98 28.5699 102.95 28.7899 102.89C29.2199 102.77 29.3799 102.98 29.4399 103.18C29.4399 103.17 29.4399 103.16 29.4399 103.15C29.4399 103.15 29.4399 103.18 29.4499 103.21C29.4699 103.31 29.4699 103.39 29.4599 103.44C29.5099 104.06 29.7599 105.34 31.2199 103.62L37.7399 96.42L41.6599 90.62C42.3999 89.46 42.0599 87.94 40.9099 87.21Z" fill="#F6C09C"/>
<path d="M64.1001 77.1V126.29L64.0601 126.6C64.0201 126.95 63.9701 127.29 63.9101 127.62C63.2701 131.31 61.5401 134.5 59.1101 137.09C57.9401 138.36 56.6101 139.48 55.1501 140.44C50.9601 143.24 45.8001 144.78 40.8401 144.78C40.2201 144.78 39.6101 144.76 39.0001 144.71C34.8101 144.38 30.9701 142.79 27.5901 139.99C22.4101 135.69 19.4401 129.16 19.4401 122.08V104.55C19.4401 104.34 19.4801 104.13 19.5001 103.91C19.3001 103.72 19.1201 103.52 18.9301 103.28C18.8301 103.17 18.7401 103.06 18.6601 102.95C18.5901 102.85 18.5201 102.75 18.4601 102.67C18.1101 102.19 17.8401 101.72 17.7201 101.39C17.7201 101.39 15.4901 96.42 15.3301 92.97L14.1301 78.64C14.0801 77.28 15.1401 76.14 16.5001 76.09C17.2401 76.07 17.9301 76.39 18.4001 76.89V72.39C18.4001 71.08 19.3401 69.91 20.6301 69.79C21.8601 69.68 22.9101 70.47 23.2301 71.57V85.63C23.2301 89.69 27.4601 92.85 31.4901 92.38C31.4901 92.38 25.4801 97.81 31.2101 103.64C30.9301 103.96 30.7001 104.17 30.5101 104.31C30.5101 104.41 30.5301 104.49 30.5301 104.58V122.11C30.5301 125.87 32.0301 129.29 34.6701 131.47C36.2701 132.8 37.9801 133.52 39.8601 133.68C43.2301 133.94 47.1601 132.69 49.8601 130.51C51.1401 129.47 52.1401 128.22 52.6601 126.81C52.8001 126.43 52.9101 126.03 52.9701 125.63V90.33C52.9701 85.21 55.1701 80.27 59.0901 77.1C59.5701 76.71 60.0601 76.34 60.5901 76C61.4901 75.43 62.4501 74.95 63.4501 74.56C63.8801 75.32 64.1001 76.19 64.1001 77.1Z" fill="#AD7153"/>
<path d="M89.9304 73.38H69.7004C67.5004 73.38 65.4104 73.8 63.4804 74.56C58.1304 76.64 55.3304 81.38 54.2304 87.16C54.0204 88.2 53.9204 89.28 53.9204 90.38V127.62L58.5304 127.84L59.9604 198.38H106.93V130.15V128.16V90.39C106.94 81 99.3204 73.38 89.9304 73.38Z" fill="#F6C09C"/>
<path d="M62.5703 39.79C66.7345 39.79 70.1103 36.4142 70.1103 32.25C70.1103 28.0857 66.7345 24.71 62.5703 24.71C58.406 24.71 55.0303 28.0857 55.0303 32.25C55.0303 36.4142 58.406 39.79 62.5703 39.79Z" fill="#AD7153"/>
<path d="M61.0005 28.39C58.9005 28.49 57.2305 30.21 57.2305 32.33H61.0005V28.39Z" fill="#975C45"/>
<path d="M102.42 39.79C106.585 39.79 109.96 36.4142 109.96 32.25C109.96 28.0857 106.585 24.71 102.42 24.71C98.2561 24.71 94.8804 28.0857 94.8804 32.25C94.8804 36.4142 98.2561 39.79 102.42 39.79Z" fill="#AD7153"/>
<path d="M108.24 32.24C108.14 30.14 106.42 28.47 104.3 28.47V32.24H108.24Z" fill="#975C45"/>
<path d="M90.28 60.59H74.29V77.28H90.28V60.59Z" fill="#F6C09C"/>
<path d="M74.29 66.69C76.78 67.47 79.83 67.93 83.13 67.93C85.72 67.93 88.15 67.65 90.28 67.15V58.8H74.29V66.69Z" fill="#AD7153"/>
<path d="M82.5703 63.89C71.5303 63.89 62.5703 54.94 62.5703 43.89V20.6C62.5703 9.55998 71.5203 0.599976 82.5703 0.599976C93.6103 0.599976 102.57 9.54998 102.57 20.6V43.9C102.57 54.94 93.6103 63.89 82.5703 63.89Z" fill="#F6C09C"/>
<path d="M66.2803 43.9V9.02997C63.9603 12.3 62.5703 16.28 62.5703 20.6V43.9C62.5703 54.94 71.5203 63.9 82.5703 63.9C83.2003 63.9 83.8103 63.86 84.4203 63.81C74.2503 62.87 66.2803 54.32 66.2803 43.9Z" fill="#AD7153"/>
<path d="M59.1201 77.1V137.09C57.9501 138.36 56.6201 139.48 55.1601 140.44H49.8901V130.47C51.1701 129.43 52.1701 128.18 52.6901 126.77C52.8301 126.39 52.9401 125.99 53.0001 125.59V90.33C53.0001 85.22 55.1901 80.27 59.1201 77.1Z" fill="#AD7153"/>
<path d="M142.01 305.04H58.7403C56.8303 305.04 60.9703 303.17 60.9703 300.87C60.9703 298.57 63.8903 296.7 65.8003 296.7H142.01C143.92 296.7 146.16 298.57 146.16 300.87C146.15 303.18 143.92 305.04 142.01 305.04Z" fill="#9F9F9F"/>
<path d="M149.27 218.63H55.0703V211.35H149.27C150.9 211.35 152.22 212.67 152.22 214.3V215.68C152.22 217.31 150.9 218.63 149.27 218.63Z" fill="#BCBCBC"/>
<path d="M104.04 284.3C100.97 284.3 98.4902 281.82 98.4902 278.75V195.62C98.4902 192.55 100.97 190.07 104.04 190.07C107.11 190.07 109.59 192.55 109.59 195.62V278.75C109.59 281.81 107.11 284.3 104.04 284.3Z" fill="#AD7153"/>
<path d="M131.83 298.75H98.5V278.75H117.15C125.26 278.75 131.83 285.32 131.83 293.43V298.75Z" fill="#AD7153"/>
<path d="M83.1803 284.92C79.7703 284.92 77.0103 282.16 77.0103 278.75V195.62C77.0103 192.21 79.7703 189.45 83.1803 189.45C86.5903 189.45 89.3503 192.21 89.3503 195.62V278.75C89.3403 282.15 86.5803 284.92 83.1803 284.92Z" fill="#F6C09C"/>
<path d="M110.25 298.75H76.9204V278.75H95.5704C103.68 278.75 110.25 285.32 110.25 293.43V298.75Z" fill="#F6C09C"/>
<path d="M90.18 311.55C94.4326 311.55 97.88 305.04 97.88 297.01C97.88 288.98 94.4326 282.47 90.18 282.47C85.9274 282.47 82.48 288.98 82.48 297.01C82.48 305.04 85.9274 311.55 90.18 311.55Z" fill="#CFCFCF"/>
<path d="M90.18 316.48C83.75 316.48 78.71 307.93 78.71 297.01C78.71 286.09 83.75 277.54 90.18 277.54C96.61 277.54 101.65 286.09 101.65 297.01C101.65 307.93 96.61 316.48 90.18 316.48ZM90.18 282.48C87.09 282.48 83.64 288.7 83.64 297.02C83.64 305.34 87.09 311.56 90.18 311.56C93.26 311.56 96.71 305.34 96.71 297.02C96.71 288.69 93.26 282.48 90.18 282.48Z" fill="#BABABA"/>
<path d="M136.94 199.91C137.25 196.48 135.7 191.24 135.7 191.24C135.46 190.22 133.27 186.77 133.26 186.34C130.8 104.35 106.3 78.93 105.23 77.61C102.56 74.34 99.5602 73.2 88.1502 73.44C85.1002 73.5 91.6202 84 93.8902 86.04C94.1702 86.29 119.87 110.17 122.17 186.67C122.18 186.96 122.23 187.24 122.28 187.52L115.21 193.46L110.54 198.67C109.66 199.71 109.79 201.27 110.83 202.15C111.87 203.03 113.43 202.9 114.31 201.86L117.48 198.34C117.77 198.02 118.3 198.23 118.3 198.66L118.27 203.56L117.74 210.6C117.42 211.78 117.92 213.1 119.04 213.61C120.46 214.26 122.08 213.47 122.47 212.02L122.08 215.98C121.91 217.2 122.59 218.44 123.77 218.8C125.27 219.26 126.75 218.26 126.95 216.78L127.4 213.5C127.56 214.64 128.5 215.62 129.73 215.62C131.67 215.62 132.08 213.12 132.08 213.12C132.48 213.7 133.54 214.4 134.28 214.48C135.64 214.61 136.84 213.62 136.97 212.26L136.94 199.91Z" fill="#F6C09C"/>
<path d="M41.4203 316.48C21.0403 316.48 5.07031 284.83 5.07031 244.42C5.07031 204.01 21.0403 172.36 41.4203 172.36C61.8003 172.36 77.7703 204.01 77.7703 244.42C77.7703 284.83 61.8103 316.48 41.4203 316.48ZM41.4203 177.3C24.3903 177.3 10.0003 208.04 10.0003 244.43C10.0003 280.82 24.3903 311.56 41.4203 311.56C58.4503 311.56 72.8403 280.82 72.8403 244.43C72.8403 208.04 58.4503 177.3 41.4203 177.3Z" fill="#BABABA"/>
<path d="M38.2503 300.47C50.7982 300.47 60.9703 275.165 60.9703 243.95C60.9703 212.735 50.7982 187.43 38.2503 187.43C25.7024 187.43 15.5303 212.735 15.5303 243.95C15.5303 275.165 25.7024 300.47 38.2503 300.47Z" fill="#E7E7E7"/>
<path d="M37.3203 303.27C23.0203 303.27 11.8203 277.42 11.8203 244.42C11.8203 211.42 23.0203 185.57 37.3203 185.57C51.6203 185.57 62.8203 211.42 62.8203 244.42C62.8203 277.42 51.6203 303.27 37.3203 303.27ZM37.3203 189.28C25.5003 189.28 15.5203 214.53 15.5203 244.43C15.5203 274.32 25.5003 299.58 37.3203 299.58C49.1403 299.58 59.1203 274.33 59.1203 244.43C59.1203 214.53 49.1403 189.28 37.3203 189.28Z" fill="#CFCFCF"/>
<path d="M35.1205 254.81C37.5009 254.81 39.4305 250.158 39.4305 244.42C39.4305 238.682 37.5009 234.03 35.1205 234.03C32.7402 234.03 30.8105 238.682 30.8105 244.42C30.8105 250.158 32.7402 254.81 35.1205 254.81Z" fill="#AAAAAA"/>
<path d="M51.9403 245.66C51.2903 245.66 50.7403 245.15 50.7103 244.49C48.9603 210.5 42.6003 203.29 38.9603 202.01C35.2603 200.71 31.7703 204.58 31.7303 204.62C31.2803 205.13 30.5003 205.18 29.9903 204.73C29.4803 204.28 29.4303 203.5 29.8803 202.99C30.0703 202.78 34.4903 197.84 39.7603 199.68C47.2703 202.29 51.7803 217.33 53.1803 244.36C53.2103 245.04 52.6903 245.62 52.0103 245.65C51.9903 245.66 51.9603 245.66 51.9403 245.66Z" fill="#AAAAAA"/>
<path d="M38.0905 277.46C37.9705 277.46 37.8505 277.44 37.7305 277.41C29.0805 274.76 28.9805 263.58 28.9805 263.11C28.9805 262.43 29.5305 261.88 30.2105 261.88C30.8905 261.88 31.4405 262.43 31.4405 263.11C31.4405 263.21 31.5505 272.94 38.4405 275.05C39.0905 275.25 39.4605 275.94 39.2605 276.59C39.1105 277.12 38.6205 277.46 38.0905 277.46Z" fill="#AAAAAA"/>
</g>
<defs>
<clipPath id="clip0_310_122">
<rect width="163.69" height="315.88" fill="white" transform="translate(0 0.599976)"/>
</clipPath>
</defs>
</svg>
