<svg width="123" height="355" viewBox="0 0 123 355" fill="none" xmlns="http://www.w3.org/2000/svg">
<g clip-path="url(#clip0_347_772)">
<path d="M15.2899 103.37C15.2699 103.67 15.2999 103.71 15.3099 103.63C15.2999 103.53 15.2999 103.45 15.2999 103.4C15.2999 103.38 15.2999 103.38 15.2899 103.37Z" fill="#BDBDBD"/>
<path d="M26.7597 87.4C25.6097 86.67 24.0897 87.01 23.3497 88.16L20.6797 92.08C20.4397 92.44 19.8797 92.3 19.8197 91.88L19.1897 87.02L21.1997 71.48C21.3597 70.27 20.6797 69.03 19.5097 68.68C18.0097 68.23 16.5197 69.23 16.3297 70.72L14.1397 87.69L14.0297 87.7V68.56C14.0297 67.33 13.1897 66.19 11.9797 65.99C10.4297 65.74 9.09975 66.92 9.09975 68.42V71.74C8.78975 70.64 7.72975 69.84 6.49975 69.96C5.20975 70.08 4.26975 71.26 4.26975 72.56V77.07C3.78975 76.55 3.10975 76.23 2.36975 76.26C1.00975 76.31 -0.0502546 77.46 -0.000254566 78.82L1.19975 93.15C1.35975 96.59 3.59975 101.57 3.59975 101.57C3.97975 102.55 5.64975 104.84 6.63975 104.84C6.92975 104.84 6.49975 103.1 6.78975 102.99C7.49975 102.72 7.99974 102.15 8.22974 101.49C8.68974 101.91 9.27974 102.17 9.89974 102.17C10.2297 102.17 10.5597 102.1 10.8797 101.96C11.1797 101.83 11.4397 101.65 11.6497 101.43C11.9797 102.47 12.9397 103.16 13.9897 103.16C14.2097 103.16 14.4297 103.13 14.6497 103.07C15.0797 102.95 15.2397 103.16 15.2997 103.36C15.2997 103.35 15.2997 103.34 15.2997 103.33C15.2997 103.33 15.2997 103.36 15.3097 103.39C15.3297 103.49 15.3297 103.57 15.3197 103.62C15.3697 104.24 15.6197 105.52 17.0797 103.8L23.5997 96.6L27.5197 90.8C28.2497 89.65 27.9097 88.13 26.7597 87.4Z" fill="#BDBDBD"/>
<path d="M26.76 87.4C25.61 86.67 24.09 87.01 23.35 88.16L20.68 92.08C20.44 92.44 19.88 92.3 19.82 91.88L19.95 87.02L21.19 71.48C21.35 70.27 20.67 69.03 19.5 68.68C18 68.23 16.51 69.23 16.32 70.72L14.12 83.13L14.02 68.57C14.02 67.34 13.18 66.2 11.97 66C10.42 65.75 9.08998 66.93 9.08998 68.43V71.75C8.77998 70.65 7.71998 69.85 6.48998 69.97C5.19998 70.09 4.25998 71.27 4.25998 72.57V77.08C3.77998 76.56 3.09998 76.24 2.35998 76.27C0.99998 76.32 -0.0600202 77.47 -0.0100202 78.83L1.18998 93.16C1.34998 96.6 3.58998 101.58 3.58998 101.58C3.96998 102.56 5.63998 104.85 6.62998 104.85C6.91998 104.85 6.48998 103.11 6.77998 103C7.48998 102.73 7.98998 102.16 8.21998 101.5C8.67998 101.92 9.26998 102.18 9.88998 102.18C10.22 102.18 10.55 102.11 10.87 101.97C11.17 101.84 11.43 101.66 11.64 101.44C11.97 102.48 12.93 103.17 13.98 103.17C14.2 103.17 14.42 103.14 14.64 103.08C15.07 102.96 15.23 103.17 15.29 103.37C15.29 103.36 15.29 103.35 15.29 103.34C15.29 103.34 15.29 103.37 15.3 103.4C15.32 103.5 15.32 103.58 15.31 103.63C15.36 104.25 15.61 105.53 17.07 103.81L23.59 96.61L27.51 90.81C28.25 89.65 27.91 88.13 26.76 87.4Z" fill="#F6C09C"/>
<path d="M49.9597 77.29V126.48L49.9197 126.79C49.8797 127.14 49.8297 127.48 49.7697 127.81C49.1297 131.5 47.3997 134.69 44.9697 137.28C43.7997 138.55 42.4697 139.67 41.0097 140.63C36.8197 143.43 31.6597 144.97 26.6997 144.97C26.0797 144.97 25.4697 144.95 24.8597 144.9C20.6697 144.57 16.8297 142.98 13.4497 140.18C8.26975 135.88 5.29975 129.35 5.29975 122.27V104.74C5.29975 104.53 5.33975 104.32 5.35975 104.1C5.15975 103.91 4.97975 103.71 4.78975 103.47C4.68975 103.36 4.59975 103.25 4.51975 103.14C4.44975 103.04 4.37975 102.94 4.31975 102.86C3.96975 102.38 3.69975 101.91 3.57975 101.58C3.57975 101.58 1.34975 96.61 1.18975 93.16L-0.000254566 78.82C-0.0502546 77.46 1.00975 76.32 2.36975 76.27C3.10975 76.25 3.79975 76.57 4.26975 77.07V72.57C4.26975 71.26 5.20975 70.09 6.49975 69.97C7.72975 69.86 8.77975 70.65 9.09975 71.75V85.81C9.09975 89.87 13.3297 93.03 17.3597 92.56C17.3597 92.56 11.3497 97.99 17.0797 103.82C16.7997 104.14 16.5697 104.35 16.3797 104.49C16.3797 104.59 16.3997 104.67 16.3997 104.76V122.29C16.3997 126.05 17.8997 129.47 20.5397 131.65C22.1397 132.98 23.8497 133.7 25.7297 133.86C29.0997 134.12 33.0297 132.87 35.7297 130.69C37.0097 129.65 38.0097 128.4 38.5297 126.99C38.6697 126.61 38.7797 126.21 38.8397 125.81V90.52C38.8397 85.4 41.0397 80.46 44.9597 77.29C45.4397 76.9 45.9297 76.53 46.4597 76.19C47.3597 75.62 48.3197 75.14 49.3197 74.75C49.7297 75.51 49.9597 76.38 49.9597 77.29Z" fill="#AD7153"/>
<path d="M122.79 200.1C123.1 196.67 121.55 191.43 121.55 191.43C121.31 190.41 119.12 186.96 119.11 186.53C116.65 104.54 92.1498 79.12 91.0798 77.8C88.4098 74.53 85.4098 73.39 73.9998 73.63C70.9498 73.69 77.4698 84.19 79.7398 86.23C80.0198 86.48 105.72 110.36 108.02 186.86C108.03 187.15 108.08 187.43 108.13 187.71L101.06 193.65L96.3898 198.86C95.5098 199.9 95.6398 201.46 96.6798 202.34C97.7198 203.22 99.2798 203.09 100.16 202.05L103.33 198.53C103.62 198.21 104.15 198.42 104.15 198.85L104.12 203.75L103.59 210.79C103.27 211.97 103.77 213.29 104.89 213.8C106.31 214.45 107.93 213.66 108.32 212.21L107.93 216.17C107.76 217.39 108.44 218.63 109.62 218.99C111.12 219.45 112.6 218.45 112.8 216.97L113.25 213.69C113.41 214.83 114.35 215.81 115.58 215.81C117.52 215.81 117.93 213.31 117.93 213.31C118.33 213.89 119.39 214.59 120.13 214.67C121.49 214.8 122.69 213.81 122.82 212.45L122.79 200.1Z" fill="#F6C09C"/>
<path d="M48.4301 39.98C52.5944 39.98 55.9701 36.6043 55.9701 32.44C55.9701 28.2758 52.5944 24.9 48.4301 24.9C44.2659 24.9 40.8901 28.2758 40.8901 32.44C40.8901 36.6043 44.2659 39.98 48.4301 39.98Z" fill="#AD7153"/>
<path d="M46.8501 28.58C44.7501 28.68 43.0801 30.4 43.0801 32.52H46.8501V28.58Z" fill="#975C45"/>
<path d="M88.27 39.98C92.4342 39.98 95.81 36.6043 95.81 32.44C95.81 28.2758 92.4342 24.9 88.27 24.9C84.1057 24.9 80.73 28.2758 80.73 32.44C80.73 36.6043 84.1057 39.98 88.27 39.98Z" fill="#AD7153"/>
<path d="M94.1002 32.43C94.0002 30.33 92.2802 28.66 90.1602 28.66V32.43H94.1002Z" fill="#975C45"/>
<path d="M76.1399 60.78H60.1499V77.47H76.1399V60.78Z" fill="#F6C09C"/>
<path d="M60.1499 66.88C62.6399 67.66 65.6899 68.12 68.9899 68.12C71.5799 68.12 74.0099 67.84 76.1399 67.34V58.99H60.1499V66.88Z" fill="#AD7153"/>
<path d="M68.4302 64.08C57.3902 64.08 48.4302 55.13 48.4302 44.08V20.79C48.4302 9.75004 57.3802 0.790039 68.4302 0.790039C79.4702 0.790039 88.4302 9.74004 88.4302 20.79V44.09C88.4202 55.13 79.4702 64.08 68.4302 64.08Z" fill="#F6C09C"/>
<path d="M52.1299 44.09V9.22003C49.8099 12.49 48.4199 16.47 48.4199 20.79V44.09C48.4199 55.13 57.3699 64.09 68.4199 64.09C69.0499 64.09 69.6599 64.05 70.2699 64C60.0999 63.06 52.1299 54.51 52.1299 44.09Z" fill="#AD7153"/>
<path d="M78.9898 73.57H55.5598C53.3598 73.57 51.2698 73.99 49.3398 74.75C43.9898 76.83 41.1898 81.57 40.0898 87.35C39.8798 88.39 39.7798 89.47 39.7798 90.57V127.81L44.3898 128.03L45.3498 175.33C45.6098 188.24 56.1498 198.57 69.0698 198.57C82.1698 198.57 92.7898 187.95 92.7898 174.85V130.34V128.35V90.58C92.7898 81.19 88.3798 73.57 78.9898 73.57Z" fill="#F6C09C"/>
<path d="M44.9697 77.29V137.28C43.7997 138.55 42.4697 139.67 41.0097 140.63H35.7397V130.66C37.0197 129.62 38.0197 128.37 38.5397 126.96C38.6797 126.58 38.7897 126.18 38.8497 125.78V90.52C38.8497 85.41 41.0497 80.46 44.9697 77.29Z" fill="#AD7153"/>
<path d="M89.2898 334.27H85.1698V186.54C85.1698 183.47 82.6898 180.99 79.6198 180.99C76.5498 180.99 74.0698 183.47 74.0698 186.54V334.27V346.37V354.27H107.4V352.38C107.4 342.37 99.2898 334.27 89.2898 334.27Z" fill="#F6C09C"/>
<path d="M58.5998 180.99C55.5298 180.99 53.0498 183.47 53.0498 186.54V334.27H48.9298C38.9298 334.27 30.8198 342.38 30.8198 352.38V354.27H64.1498V346.37V334.27V186.54C64.1498 183.47 61.6698 180.99 58.5998 180.99Z" fill="#F6C09C"/>
</g>
<defs>
<clipPath id="clip0_347_772">
<rect width="122.83" height="353.47" fill="white" transform="translate(0 0.790039)"/>
</clipPath>
</defs>
</svg>
