<svg width="123" height="355" viewBox="0 0 123 355" fill="none" xmlns="http://www.w3.org/2000/svg">
<g clip-path="url(#clip0_310_2)">
<path d="M15.2899 103.16C15.2699 103.46 15.2999 103.5 15.3099 103.42C15.2999 103.32 15.2999 103.24 15.2999 103.19C15.2999 103.17 15.2999 103.17 15.2899 103.16Z" fill="#BDBDBD"/>
<path d="M26.7597 87.19C25.6097 86.46 24.0897 86.8 23.3497 87.95L20.6797 91.87C20.4397 92.23 19.8797 92.09 19.8197 91.67L19.1897 86.81L21.1997 71.27C21.3597 70.06 20.6797 68.82 19.5097 68.47C18.0097 68.02 16.5197 69.02 16.3297 70.51L14.1397 87.48L14.0297 87.49V68.35C14.0297 67.12 13.1897 65.98 11.9797 65.78C10.4297 65.53 9.09975 66.71 9.09975 68.21V71.53C8.78975 70.43 7.72975 69.63 6.49975 69.75C5.20975 69.87 4.26975 71.05 4.26975 72.35V76.86C3.78975 76.34 3.10975 76.02 2.36975 76.05C1.00975 76.1 -0.0502546 77.25 -0.000254566 78.61L1.19975 92.94C1.35975 96.38 3.59975 101.36 3.59975 101.36C3.97975 102.34 5.64975 104.63 6.63975 104.63C6.92975 104.63 6.49975 102.89 6.78975 102.78C7.49975 102.51 7.99974 101.94 8.22974 101.28C8.68974 101.7 9.27974 101.96 9.89974 101.96C10.2297 101.96 10.5597 101.89 10.8797 101.75C11.1797 101.62 11.4397 101.44 11.6497 101.22C11.9797 102.26 12.9397 102.95 13.9897 102.95C14.2097 102.95 14.4297 102.92 14.6497 102.86C15.0797 102.74 15.2397 102.95 15.2997 103.15C15.2997 103.14 15.2997 103.13 15.2997 103.12C15.2997 103.12 15.2997 103.15 15.3097 103.18C15.3297 103.28 15.3297 103.36 15.3197 103.41C15.3697 104.03 15.6197 105.31 17.0797 103.59L23.5997 96.39L27.5197 90.59C28.2497 89.44 27.9097 87.92 26.7597 87.19Z" fill="#BDBDBD"/>
<path d="M26.76 87.19C25.61 86.46 24.09 86.8 23.35 87.95L20.68 91.87C20.44 92.23 19.88 92.09 19.82 91.67L19.95 86.81L21.19 71.27C21.35 70.06 20.67 68.82 19.5 68.47C18 68.02 16.51 69.02 16.32 70.51L14.12 82.92L14.02 68.36C14.02 67.13 13.18 65.99 11.97 65.79C10.42 65.54 9.08998 66.72 9.08998 68.22V71.54C8.77998 70.44 7.71998 69.64 6.48998 69.76C5.19998 69.88 4.25998 71.06 4.25998 72.36V76.87C3.77998 76.35 3.09998 76.03 2.35998 76.06C0.99998 76.11 -0.0600202 77.26 -0.0100202 78.62L1.18998 92.95C1.34998 96.39 3.58998 101.37 3.58998 101.37C3.96998 102.35 5.63998 104.64 6.62998 104.64C6.91998 104.64 6.48998 102.9 6.77998 102.79C7.48998 102.52 7.98998 101.95 8.21998 101.29C8.67998 101.71 9.26998 101.97 9.88998 101.97C10.22 101.97 10.55 101.9 10.87 101.76C11.17 101.63 11.43 101.45 11.64 101.23C11.97 102.27 12.93 102.96 13.98 102.96C14.2 102.96 14.42 102.93 14.64 102.87C15.07 102.75 15.23 102.96 15.29 103.16C15.29 103.15 15.29 103.14 15.29 103.13C15.29 103.13 15.29 103.16 15.3 103.19C15.32 103.29 15.32 103.37 15.31 103.42C15.36 104.04 15.61 105.32 17.07 103.6L23.59 96.4L27.51 90.6C28.25 89.44 27.91 87.92 26.76 87.19Z" fill="#F6C09C"/>
<path d="M49.9597 77.08V126.27L49.9197 126.58C49.8797 126.93 49.8297 127.27 49.7697 127.6C49.1297 131.29 47.3997 134.48 44.9697 137.07C43.7997 138.34 42.4697 139.46 41.0097 140.42C36.8197 143.22 31.6597 144.76 26.6997 144.76C26.0797 144.76 25.4697 144.74 24.8597 144.69C20.6697 144.36 16.8297 142.77 13.4497 139.97C8.26975 135.67 5.29975 129.14 5.29975 122.06V104.53C5.29975 104.32 5.33975 104.11 5.35975 103.89C5.15975 103.7 4.97975 103.5 4.78975 103.26C4.68975 103.15 4.59975 103.04 4.51975 102.93C4.44975 102.83 4.37975 102.73 4.31975 102.65C3.96975 102.17 3.69975 101.7 3.57975 101.37C3.57975 101.37 1.34975 96.4 1.18975 92.95L-0.000254566 78.61C-0.0502546 77.25 1.00975 76.11 2.36975 76.06C3.10975 76.04 3.79975 76.36 4.26975 76.86V72.36C4.26975 71.05 5.20975 69.88 6.49975 69.76C7.72975 69.65 8.77975 70.44 9.09975 71.54V85.6C9.09975 89.66 13.3297 92.82 17.3597 92.35C17.3597 92.35 11.3497 97.78 17.0797 103.61C16.7997 103.93 16.5697 104.14 16.3797 104.28C16.3797 104.38 16.3997 104.46 16.3997 104.55V122.08C16.3997 125.84 17.8997 129.26 20.5397 131.44C22.1397 132.77 23.8497 133.49 25.7297 133.65C29.0997 133.91 33.0297 132.66 35.7297 130.48C37.0097 129.44 38.0097 128.19 38.5297 126.78C38.6697 126.4 38.7797 126 38.8397 125.6V90.31C38.8397 85.19 41.0397 80.25 44.9597 77.08C45.4397 76.69 45.9297 76.32 46.4597 75.98C47.3597 75.41 48.3197 74.93 49.3197 74.54C49.7297 75.3 49.9597 76.17 49.9597 77.08Z" fill="#AD7153"/>
<path d="M122.79 199.89C123.1 196.46 121.55 191.22 121.55 191.22C121.31 190.2 119.12 186.75 119.11 186.32C116.65 104.33 92.1498 78.9099 91.0798 77.5899C88.4098 74.3199 85.4098 73.1799 73.9998 73.4199C70.9498 73.4799 77.4698 83.9799 79.7398 86.0199C80.0198 86.2699 105.72 110.15 108.02 186.65C108.03 186.94 108.08 187.22 108.13 187.5L101.06 193.44L96.3898 198.65C95.5098 199.69 95.6398 201.25 96.6798 202.13C97.7198 203.01 99.2798 202.88 100.16 201.84L103.33 198.32C103.62 198 104.15 198.21 104.15 198.64L104.12 203.54L103.59 210.58C103.27 211.76 103.77 213.08 104.89 213.59C106.31 214.24 107.93 213.45 108.32 212L107.93 215.96C107.76 217.18 108.44 218.42 109.62 218.78C111.12 219.24 112.6 218.24 112.8 216.76L113.25 213.48C113.41 214.62 114.35 215.6 115.58 215.6C117.52 215.6 117.93 213.1 117.93 213.1C118.33 213.68 119.39 214.38 120.13 214.46C121.49 214.59 122.69 213.6 122.82 212.24L122.79 199.89Z" fill="#F6C09C"/>
<path d="M48.4301 39.7699C52.5944 39.7699 55.9701 36.3942 55.9701 32.2299C55.9701 28.0657 52.5944 24.6899 48.4301 24.6899C44.2659 24.6899 40.8901 28.0657 40.8901 32.2299C40.8901 36.3942 44.2659 39.7699 48.4301 39.7699Z" fill="#AD7153"/>
<path d="M46.8501 28.3699C44.7501 28.4699 43.0801 30.1899 43.0801 32.3099H46.8501V28.3699Z" fill="#975C45"/>
<path d="M88.27 39.7699C92.4342 39.7699 95.81 36.3942 95.81 32.2299C95.81 28.0657 92.4342 24.6899 88.27 24.6899C84.1057 24.6899 80.73 28.0657 80.73 32.2299C80.73 36.3942 84.1057 39.7699 88.27 39.7699Z" fill="#AD7153"/>
<path d="M94.1002 32.2199C94.0002 30.1199 92.2802 28.45 90.1602 28.45V32.2199H94.1002Z" fill="#975C45"/>
<path d="M76.1399 60.5699H60.1499V77.2599H76.1399V60.5699Z" fill="#F6C09C"/>
<path d="M60.1499 66.67C62.6399 67.45 65.6899 67.91 68.9899 67.91C71.5799 67.91 74.0099 67.63 76.1399 67.13V58.78H60.1499V66.67Z" fill="#AD7153"/>
<path d="M68.4302 63.87C57.3902 63.87 48.4302 54.92 48.4302 43.87V20.58C48.4302 9.53996 57.3802 0.579956 68.4302 0.579956C79.4702 0.579956 88.4302 9.52996 88.4302 20.58V43.88C88.4202 54.92 79.4702 63.87 68.4302 63.87Z" fill="#F6C09C"/>
<path d="M52.1299 43.8799V9.00995C49.8099 12.2799 48.4199 16.2599 48.4199 20.5799V43.8799C48.4199 54.9199 57.3699 63.8799 68.4199 63.8799C69.0499 63.8799 69.6599 63.8399 70.2699 63.7899C60.0999 62.8499 52.1299 54.2999 52.1299 43.8799Z" fill="#AD7153"/>
<path d="M78.9898 73.36H55.5598C53.3598 73.36 51.2698 73.78 49.3398 74.54C43.9898 76.62 41.1898 81.36 40.0898 87.14C39.8798 88.18 39.7798 89.26 39.7798 90.36V127.6L44.3898 127.82L45.3498 175.12C45.6098 188.03 56.1498 198.36 69.0698 198.36C82.1698 198.36 92.7898 187.74 92.7898 174.64V130.13V128.14V90.37C92.7898 80.98 88.3798 73.36 78.9898 73.36Z" fill="#F6C09C"/>
<path d="M44.9697 77.08V137.07C43.7997 138.34 42.4697 139.46 41.0097 140.42H35.7397V130.45C37.0197 129.41 38.0197 128.16 38.5397 126.75C38.6797 126.37 38.7897 125.97 38.8497 125.57V90.31C38.8497 85.2 41.0497 80.25 44.9697 77.08Z" fill="#AD7153"/>
<path d="M89.2898 334.06H85.1698V186.33C85.1698 183.26 82.6898 180.78 79.6198 180.78C76.5498 180.78 74.0698 183.26 74.0698 186.33V334.06V346.16V354.06H107.4V352.17C107.4 342.16 99.2898 334.06 89.2898 334.06Z" fill="#F6C09C"/>
<path d="M58.5998 180.78C55.5298 180.78 53.0498 183.26 53.0498 186.33V334.06H48.9298C38.9298 334.06 30.8198 342.17 30.8198 352.17V354.06H64.1498V346.16V334.06V186.33C64.1498 183.26 61.6698 180.78 58.5998 180.78Z" fill="#F6C09C"/>
</g>
<defs>
<clipPath id="clip0_310_2">
<rect width="122.83" height="353.47" fill="white" transform="translate(0 0.579956)"/>
</clipPath>
</defs>
</svg>
