<svg width="119" height="124" viewBox="0 0 119 124" fill="none" xmlns="http://www.w3.org/2000/svg">
<g clip-path="url(#clip0_301_1352)">
<path d="M106.44 32.625C101.91 19.185 95.7201 12.635 90.4801 9.52499C82.5501 4.80499 76.2101 4.36499 76.2101 4.36499L64.6201 22.725L61.5801 123.545H94.6101V55.445C99.5701 66.125 104.48 117.885 104.48 117.885H118.83C117.53 69.485 106.44 32.625 106.44 32.625Z" fill="#FFE478"/>
<path d="M41.8999 10.3049C41.8999 10.3049 35.1299 13.9049 35.1299 23.2649L35.0399 48.6849C35.0199 54.1149 33.6499 63.7849 24.6999 63.4049C15.1299 63.0049 15.2599 54.0949 15.0599 50.1149C14.9899 48.8549 15.0299 41.8849 15.0299 41.8849H0.369941C0.369941 41.8849 0.239941 46.9249 0.359941 49.6449C0.729941 57.9449 3.39994 75.1649 19.1099 78.3649C30.5599 80.7049 38.4499 75.8749 39.4599 75.0349L41.8999 10.3049Z" fill="#BA6156"/>
<path d="M56.36 4.36499C53.17 4.36499 50.1 5.50499 46.12 7.62499C42.76 9.41499 40.53 11.255 40.53 11.255L39.46 75.035V75.045V97.505V123.545H64.19L64.62 22.725L56.36 4.36499Z" fill="#F2A65E"/>
<path d="M74.9701 0.584941L79.9601 4.60494L76.3401 26.8349C76.3301 26.8949 76.2601 26.9249 76.2101 26.8949C75.2901 26.3349 68.9001 22.5049 64.6201 22.7249L74.0601 0.814941C74.2101 0.454941 74.6701 0.344941 74.9701 0.584941Z" fill="#F2A65E"/>
<path d="M54.6897 1.86496L49.6997 5.88496L52.8997 26.835C52.9097 26.895 52.9797 26.925 53.0297 26.895C53.9497 26.335 60.3397 22.505 64.6197 22.725L55.5997 2.08496C55.4497 1.72496 54.9897 1.61496 54.6897 1.86496Z" fill="#FFE478"/>
<path d="M69.3299 50.005C70.5118 50.005 71.4699 49.0469 71.4699 47.865C71.4699 46.6831 70.5118 45.725 69.3299 45.725C68.1481 45.725 67.1899 46.6831 67.1899 47.865C67.1899 49.0469 68.1481 50.005 69.3299 50.005Z" fill="#FF9166"/>
<path d="M69.3299 64.505C70.5118 64.505 71.4699 63.5469 71.4699 62.365C71.4699 61.1831 70.5118 60.225 69.3299 60.225C68.1481 60.225 67.1899 61.1831 67.1899 62.365C67.1899 63.5469 68.1481 64.505 69.3299 64.505Z" fill="#FF9166"/>
<path d="M69.3299 78.995C70.5118 78.995 71.4699 78.0369 71.4699 76.855C71.4699 75.6731 70.5118 74.715 69.3299 74.715C68.1481 74.715 67.1899 75.6731 67.1899 76.855C67.1899 78.0369 68.1481 78.995 69.3299 78.995Z" fill="#FF9166"/>
<path d="M69.3299 93.495C70.5118 93.495 71.4699 92.5369 71.4699 91.355C71.4699 90.1731 70.5118 89.215 69.3299 89.215C68.1481 89.215 67.1899 90.1731 67.1899 91.355C67.1899 92.5369 68.1481 93.495 69.3299 93.495Z" fill="#FF9166"/>
<path d="M69.3299 107.985C70.5118 107.985 71.4699 107.027 71.4699 105.845C71.4699 104.663 70.5118 103.705 69.3299 103.705C68.1481 103.705 67.1899 104.663 67.1899 105.845C67.1899 107.027 68.1481 107.985 69.3299 107.985Z" fill="#FF9166"/>
</g>
<defs>
<clipPath id="clip0_301_1352">
<rect width="118.52" height="123.09" fill="white" transform="translate(0.310059 0.454956)"/>
</clipPath>
</defs>
</svg>
