<svg width="119" height="120" viewBox="0 0 119 120" fill="none" xmlns="http://www.w3.org/2000/svg">
<g clip-path="url(#clip0_301_1372)">
<path d="M41.8897 6.34497C41.8897 6.34497 35.1197 9.94497 35.1197 19.305L35.0297 44.725C35.0097 50.155 33.6397 59.825 24.6897 59.445C15.1197 59.045 15.2497 50.135 15.0497 46.155C14.9797 44.895 15.0197 37.925 15.0197 37.925H0.359687C0.359687 37.925 0.229687 42.965 0.349687 45.685C0.719687 53.985 3.39969 71.205 19.0997 74.405C30.5497 76.745 38.4397 71.915 39.4497 71.075L41.8897 6.34497Z" fill="#EB564B"/>
<path d="M106.43 28.665C101.9 15.225 95.7197 8.67503 90.4797 5.56503C82.5397 0.845029 76.1997 0.405029 76.1997 0.405029L76.2297 5.08503C76.2697 10.595 71.8097 15.085 66.2997 15.085C60.8197 15.085 56.3797 10.645 56.3697 5.16503L56.3497 0.405029C53.1197 0.785029 50.2697 1.79503 46.1097 3.66503C42.6397 5.22503 40.5197 7.29503 40.5197 7.29503L39.4497 71.075V71.085V93.545V119.585H61.5697H64.1797H94.5997V51.485C99.5597 62.165 104.47 113.925 104.47 113.925H118.82C117.52 65.525 106.43 28.665 106.43 28.665Z" fill="#FF9166"/>
</g>
<defs>
<clipPath id="clip0_301_1372">
<rect width="118.52" height="119.19" fill="white" transform="translate(0.299805 0.405029)"/>
</clipPath>
</defs>
</svg>
