<svg width="120" height="120" viewBox="0 0 120 120" fill="none" xmlns="http://www.w3.org/2000/svg">
<g clip-path="url(#clip0_301_14689)">
<path d="M42.2398 6.34009C42.2398 6.34009 35.4698 9.94009 35.4698 19.3001L35.3798 44.7201C35.3598 50.1501 33.9898 59.8201 25.0398 59.4401C15.4698 59.0401 15.5998 50.1301 15.3998 46.1501C15.3298 44.8901 15.3698 37.9201 15.3698 37.9201H0.709785C0.709785 37.9201 0.579785 42.9601 0.699785 45.6801C1.06978 53.9901 3.74978 71.2101 19.4498 74.4101C30.8998 76.7501 38.7898 71.9201 39.7998 71.0801L42.2398 6.34009Z" fill="#C12B3F"/>
<path d="M94.9498 91.39H39.7998V119.59H94.9498V91.39Z" fill="#F9364D"/>
<path d="M106.78 28.67C102.25 15.23 96.06 8.68003 90.82 5.57003C82.88 0.850034 76.55 0.410034 76.55 0.410034H56.7C53.47 0.790034 50.62 1.80003 46.46 3.67003C42.99 5.22003 40.87 7.30003 40.87 7.30003L40.02 57.85H94.95V51.49C99.91 62.17 104.82 113.93 104.82 113.93H119.16C117.87 65.52 106.78 28.67 106.78 28.67Z" fill="#F9364D"/>
<path d="M39.7998 71.08V91.39H94.9498V57.85H40.0198L39.7998 71.08Z" fill="#FFFFEB"/>
</g>
<defs>
<clipPath id="clip0_301_14689">
<rect width="118.51" height="119.18" fill="white" transform="translate(0.649902 0.410034)"/>
</clipPath>
</defs>
</svg>
