<svg width="90" height="112" viewBox="0 0 90 112" fill="none" xmlns="http://www.w3.org/2000/svg">
<g clip-path="url(#clip0_301_11699)">
<path d="M19.4698 8.47498V14.245C19.4698 32.995 19.1598 43.895 17.2098 51.855C16.9698 52.855 16.6998 53.815 16.3998 54.725C15.9498 56.135 15.4298 57.445 14.8298 58.715C13.5598 61.415 11.9798 63.355 10.0898 64.735C9.88984 64.885 9.68984 65.035 9.48984 65.165L8.17984 62.175V62.165L8.08984 60.245C7.99984 60.355 7.89984 60.465 7.79984 60.585C7.72984 60.665 7.65984 60.745 7.58984 60.825L0.0898438 43.675C0.169844 43.695 0.249844 43.695 0.339844 43.695C4.17984 43.695 5.97984 39.555 6.90984 34.225C7.62984 30.125 7.84984 25.315 8.08984 21.155C8.24984 18.485 9.01984 18.335 11.4998 15.285C14.1698 12.025 17.0898 9.84498 19.4698 8.47498Z" fill="#721E6E"/>
<path d="M83.5398 76.315C84.3298 82.765 82.6998 89.595 79.9998 95.305C79.4298 96.505 78.8198 97.645 78.1798 98.725C75.8798 102.595 73.1298 105.655 70.5098 107.305C70.3098 107.425 70.1098 107.545 69.9098 107.655L69.8098 111.215H12.5698V108.325C11.6798 107.585 10.8598 106.805 10.0898 105.995C9.43979 105.305 8.83979 104.585 8.26979 103.865C4.54979 99.075 2.60979 93.665 1.78979 89.855L1.71979 89.275L1.27979 85.215C1.27979 84.975 1.27979 84.745 1.29979 84.525C1.29979 71.375 8.27979 63.715 8.26979 64.145L8.20978 62.875L8.17979 62.175V62.165L8.08979 60.245L6.90979 34.225L6.78978 31.575C6.78978 28.915 6.87979 20.745 8.68979 16.055C12.3498 6.59503 25.8198 0.785034 28.5598 0.785034L29.2298 1.90503C34.3898 10.535 46.8198 10.725 52.2398 2.25503L53.1898 0.785034C53.1898 0.785034 62.0298 1.10503 70.5098 8.56503C85.6698 21.925 87.3798 43.555 89.2698 54.685H77.1298V62.525C77.1298 62.525 77.1398 63.555 77.1598 63.585C77.2698 63.735 77.6598 64.105 78.1798 64.685C78.6998 65.245 79.3398 65.995 79.9998 66.915C80.6098 67.775 81.2298 68.775 81.7598 69.905C82.2198 70.865 82.6098 71.855 82.8598 72.785C83.1698 73.955 83.3998 75.125 83.5398 76.315Z" fill="#8E2589"/>
<path d="M55.1499 27.2151V33.3651C55.1499 35.0951 55.8399 36.7651 57.0599 37.9851L60.3099 41.2351C60.9499 41.8751 61.9799 41.8751 62.6099 41.2351L65.8599 37.9851C67.0899 36.7551 67.7699 35.0951 67.7699 33.3651V27.2151H55.1499Z" fill="#FFFFEB"/>
<path d="M77.2598 57.415V60.105C77.2198 60.055 77.1798 60.015 77.1298 59.965C75.1498 57.745 72.9198 55.745 70.5098 53.975V107.305C70.3098 107.425 70.1098 107.545 69.9098 107.655L69.8098 111.215H68.6898V52.675C66.1198 50.965 63.3498 49.525 60.4398 48.375V111.215H58.6198V47.695C55.9298 46.775 53.1698 46.105 50.3698 45.715V111.215H48.5498V45.485C45.8298 45.215 43.0098 45.185 40.2998 45.395V111.215H38.4798V45.585C35.6798 45.935 32.9098 46.535 30.2298 47.395V111.215H28.4098V48.025C25.5198 49.105 22.7498 50.455 20.1698 52.075V111.215H18.3498V53.285C17.6898 53.745 17.0398 54.225 16.3998 54.725C15.0398 55.775 13.7398 56.915 12.4998 58.135C11.6798 58.945 10.8698 59.825 10.0898 60.725V105.995C9.43984 105.305 8.83984 104.585 8.26984 103.865L8.17984 62.165L8.08984 60.245C8.23984 60.075 8.37984 59.915 8.48984 59.785C9.36984 58.755 10.2898 57.765 11.2198 56.845C13.0898 55.005 15.0898 53.325 17.2098 51.855C17.7198 51.495 18.2398 51.145 18.7698 50.805C21.9398 48.745 25.3898 47.085 29.0298 45.855C32.3398 44.745 35.7898 44.005 39.2998 43.655C42.6598 43.325 46.2198 43.355 49.5698 43.765C53.0598 44.165 56.5198 44.975 59.8398 46.185C63.4898 47.505 66.9398 49.275 70.1098 51.425C72.6498 53.145 74.9998 55.115 77.1298 57.285L77.2598 57.415Z" fill="#FFFFEB"/>
<path d="M79.9997 66.9151V95.3051C79.4297 96.5051 78.8197 97.6451 78.1797 98.7251V64.6851C78.6997 65.2451 79.3397 65.9951 79.9997 66.9151Z" fill="#FFFFEB"/>
</g>
<defs>
<clipPath id="clip0_301_11699">
<rect width="89.18" height="110.43" fill="white" transform="translate(0.0898438 0.785034)"/>
</clipPath>
</defs>
</svg>
