<svg width="110" height="134" viewBox="0 0 110 134" fill="none" xmlns="http://www.w3.org/2000/svg">
<g clip-path="url(#clip0_301_8566)">
<path d="M24.0502 5.39001V15.95C24.0502 45.72 23.3902 59.06 18.4602 69.52C16.7702 73.1 14.6102 75.59 12.0202 77.28L0.700195 51.4C0.800195 51.42 0.900195 51.42 1.0002 51.42C9.1902 51.42 9.6602 35.78 10.3402 24.27C10.5302 21.06 11.4602 17.26 14.4502 13.59C17.6602 9.66002 21.1802 7.04001 24.0502 5.39001Z" fill="#FF6B97"/>
<path d="M94.31 91.05C98.48 98.8801 97.04 115.94 90.82 123.47C90.62 123.72 90.4 123.97 90.18 124.21C90.07 124.35 89.94 124.48 89.82 124.61C89.49 124.96 89.16 125.29 88.82 125.61C88.61 125.8 88.39 125.99 88.18 126.17C87.36 126.85 86.51 127.44 85.63 127.92V133.51L79.76 133.49H77.76L68.69 133.45H66.69L57.63 133.41H55.63L51.38 133.39V133.51H17.4V127.26C15.91 126.02 14.57 124.78 13.37 123.54C13.03 123.19 12.69 122.83 12.37 122.48C12.02 122.1 11.69 121.72 11.37 121.34C7.44004 116.68 5.32004 112.07 4.40004 107.77L4.32004 107.08L3.79004 102.19C3.79004 101.91 3.79004 101.63 3.81004 101.36C4.09004 91.1401 10.07 83.2801 10.06 83.8101L10.14 75.7901L10.15 74.4701L10.16 72.66L10.43 37.5801C10.43 34.3701 9.98004 23.08 12.01 17.3601C13.6 12.9001 18.32 8.42005 18.51 8.24005V8.23005C18.51 8.23005 21.46 5.58005 24.08 4.12005C30.73 0.43005 33.35 0.49005 36.65 0.49005C38.3 6.78005 44.82 10.61 51.44 10.61C57.01 10.61 62.65 7.90005 65.52 1.65005L65.99 0.99005C65.99 0.99005 76.59 1.34005 87.18 9.87005C87.67 10.26 88.16 10.68 88.65 11.1C91.21 13.36 93.74 16.12 96.09 19.48C99.53 24.4 101.95 29.9601 103.47 35.7701C105.02 41.6701 107.5 52.0101 109.78 65.4201H89.16L87.18 58.16V81.73C87.18 81.73 87.53 81.8901 88.18 82.4501C88.68 82.8801 89.36 83.5601 90.18 84.58C91.31 85.9901 92.71 88.04 94.31 91.05Z" fill="#FFB5B5"/>
</g>
<defs>
<clipPath id="clip0_301_8566">
<rect width="109.08" height="133.02" fill="white" transform="translate(0.700195 0.48999)"/>
</clipPath>
</defs>
</svg>
