<svg width="84" height="120" viewBox="0 0 84 120" fill="none" xmlns="http://www.w3.org/2000/svg">
<g clip-path="url(#clip0_301_14681)">
<path d="M10.33 6.34998L7.89002 71.08C7.51002 71.39 6.19002 72.26 4.08002 73.09L0.27002 56.44C2.90002 53.23 3.45002 48.14 3.46002 44.73L3.55002 19.31C3.55002 9.94998 10.33 6.34998 10.33 6.34998Z" fill="#721E6E"/>
<path d="M83.6501 71.57H67.6701C66.8101 66.24 65.9001 61.32 64.9501 57.5C64.7101 56.49 64.4601 55.55 64.2101 54.71C63.8201 53.42 63.4301 52.33 63.0401 51.49V119.59H7.89014V71.08L8.08014 59.57L8.13014 57.07L8.96014 7.30003C8.96014 7.30003 11.0801 5.23003 14.5501 3.67003C18.7101 1.80003 21.5701 0.790034 24.7901 0.410034L24.8001 5.17003C24.8101 7.91003 25.9201 10.39 27.7201 12.18C29.5201 13.98 32.0001 15.09 34.7401 15.09C40.2501 15.09 44.7101 10.6 44.6701 5.09003L44.6401 0.410034C44.6401 0.410034 50.9801 0.850034 58.9201 5.57003C64.1601 8.68003 70.3401 15.23 74.8701 28.67C74.8701 28.67 79.9601 45.59 83.6501 71.57Z" fill="#8E2589"/>
<path d="M58.1901 51.71C57.5301 51.43 56.8601 51.16 56.1901 50.92C53.4501 49.9 50.6101 49.1 47.6801 48.56C47.0201 48.43 46.3501 48.32 45.6801 48.22C43.1801 47.85 40.6201 47.66 38.0201 47.66C37.7401 47.66 37.4501 47.66 37.1701 47.67C36.5001 47.68 35.8301 47.7 35.1701 47.74C32.2601 47.89 29.4201 48.29 26.6501 48.91C25.9801 49.05 25.3101 49.22 24.6501 49.4C21.7001 50.17 18.8601 51.2 16.1401 52.47C15.4601 52.77 14.8001 53.1 14.1401 53.44C12.0501 54.52 10.0401 55.73 8.13008 57.07L8.08008 59.57C10.0001 58.14 12.0201 56.85 14.1401 55.7V119.59H16.1401V54.67C18.8501 53.36 21.6901 52.28 24.6501 51.47V119.59H26.6501V50.95C29.4101 50.32 32.2601 49.9 35.1701 49.75V119.59H37.1701V49.67C37.4501 49.66 37.7401 49.66 38.0201 49.66C40.6201 49.66 43.1801 49.86 45.6801 50.24V119.59H47.6801V50.59C50.6201 51.16 53.4601 51.99 56.1901 53.05V119.59H58.1901V53.88C59.8501 54.61 61.4701 55.43 63.0401 56.34V54.05C61.4701 53.19 59.8501 52.41 58.1901 51.71Z" fill="#FFFFEB"/>
<path d="M47.8101 34.01V38.85C47.8101 40.21 48.3501 41.52 49.3201 42.49L51.8801 45.05C52.3801 45.55 53.1901 45.55 53.6901 45.05L56.2501 42.49C57.2101 41.53 57.7601 40.22 57.7601 38.85V34.01H47.8101Z" fill="#FFFFEB"/>
</g>
<defs>
<clipPath id="clip0_301_14681">
<rect width="83.38" height="119.18" fill="white" transform="translate(0.27002 0.410034)"/>
</clipPath>
</defs>
</svg>
