<svg width="90" height="112" viewBox="0 0 90 112" fill="none" xmlns="http://www.w3.org/2000/svg">
<g clip-path="url(#clip0_301_11713)">
<path d="M19.66 8.47998V14.24C19.66 38.96 19.11 50.03 15.02 58.72C13.62 61.69 11.82 63.76 9.67002 65.16L0.27002 43.67C0.35002 43.69 0.44002 43.69 0.52002 43.69C7.32002 43.69 7.71002 30.71 8.27002 21.15C8.43002 18.48 9.20002 18.33 11.68 15.29C14.35 12.02 17.27 9.84998 19.66 8.47998Z" fill="#FF6B97"/>
<path d="M83.72 76.31C85.31 89.28 77.1 103.82 70.09 107.65L69.98 111.22H12.75V108.33C6.13996 102.83 3.05996 94.93 1.96996 89.86L1.89996 89.28L1.45996 85.22C1.45996 84.98 1.45996 84.75 1.47996 84.53C1.47996 71.38 8.45996 63.72 8.44996 64.15L6.97996 31.57C6.97996 28.91 7.05996 20.75 8.87996 16.05C12.53 6.59003 26 0.780029 28.74 0.780029L29.41 1.90003C34.57 10.53 47 10.72 52.42 2.25003L53.37 0.780029C53.37 0.780029 62.22 1.10003 70.69 8.57003C85.86 21.93 87.56 43.55 89.45 54.69H77.31V62.53C77.31 62.53 77.32 63.56 77.34 63.59C77.66 64 80.26 66.35 81.94 69.91C82.39 70.87 82.78 71.86 83.04 72.79C83.35 73.95 83.58 75.13 83.72 76.31Z" fill="#FFB5B5"/>
</g>
<defs>
<clipPath id="clip0_301_11713">
<rect width="89.18" height="110.44" fill="white" transform="translate(0.27002 0.780029)"/>
</clipPath>
</defs>
</svg>
