<svg width="96" height="96" viewBox="0 0 96 96" fill="none" xmlns="http://www.w3.org/2000/svg">
<g clip-path="url(#clip0_301_5741)">
<path d="M54.96 19.755V19.745L54.97 19.755H54.96Z" fill="#E0DB99"/>
<path d="M33.9698 8.48499L32.1998 69.575C28.8398 72.705 25.5798 74.795 22.4198 75.835C9.81984 79.965 1.08984 72.695 1.08984 72.695L9.29984 63.725C9.29984 63.725 22.4598 69.625 24.0898 52.455L24.6898 22.485C24.6898 14.955 33.9698 8.48499 33.9698 8.48499Z" fill="#1F2266"/>
<path d="M46.4198 12.955V3.27502C35.9898 3.27502 28.5898 13.435 28.5898 13.435V94.685H47.8798V94.635L54.6998 94.655V19.545L46.4198 12.955Z" fill="#3A3B92"/>
<path d="M94.5497 78.585C94.5497 53.875 91.0397 24.855 74.3297 8.48502C69.0197 3.28502 62.5697 3.27502 62.5697 3.27502L62.4197 12.955L54.9597 19.745L54.9697 19.755H54.9597V19.745L54.6997 19.535V94.655L79.1497 94.735V51.025C80.1897 53.255 83.0397 77.565 83.0797 78.585C83.1497 80.975 83.1497 82.485 83.1497 82.485H94.6897C94.6497 81.165 94.5497 79.865 94.5497 78.585Z" fill="#4D55C0"/>
<mask id="mask0_301_5741" style="mask-type:luminance" maskUnits="userSpaceOnUse" x="1" y="3" width="94" height="92">
<path d="M94.5499 78.585C94.5499 53.875 91.0398 24.855 74.3298 8.48502C69.0199 3.28502 62.5698 3.27502 62.5698 3.27502L62.4198 12.955L54.9598 19.745L54.6998 19.535L46.4198 12.955V3.27502C35.9898 3.27502 28.5898 13.435 28.5898 13.435V13.525C26.5398 15.985 24.6998 19.125 24.6998 22.485L24.0998 52.455C22.4598 69.625 9.29984 63.725 9.29984 63.725L1.08984 72.695C1.08984 72.695 9.81984 79.965 22.4198 75.835C24.4398 75.175 26.4898 74.085 28.5798 72.565V94.685H47.8698V94.635L54.6898 94.655L79.1398 94.735V51.025C80.1798 53.255 83.0298 77.565 83.0698 78.585C83.1398 80.975 83.1398 82.485 83.1398 82.485H94.6798C94.6498 81.165 94.5499 79.865 94.5499 78.585Z" fill="white"/>
</mask>
<g mask="url(#mask0_301_5741)">
<path d="M111.99 3.67502V2.78502H106.5V-4.60498H105.61V2.78502H98.4197V-4.60498H97.5297V2.78502H75.2897V-4.60498H74.3997V2.78502H67.2097V-4.60498H66.3197V2.78502H44.0897V-4.60498H43.1997V2.78502H36.0097V-4.60498H35.1197V2.78502H14.9497V-4.60498H14.0597V2.78502H6.86967V-4.60498H5.98967V2.78502H-1.09033V3.67502H5.98967V10.275H-1.09033V11.165H5.98967V28.325H-1.09033V29.215H5.98967V35.815H-1.09033V36.705H5.98967V53.865H-1.09033V54.755H5.98967V61.355H-1.09033V62.245H5.98967V79.405H-1.09033V80.295H5.98967V86.895H-1.09033V87.785H5.98967V95.695H6.87967V87.795H14.0697V95.705H14.9597V87.795H35.1197V95.705H36.0097V87.795H43.1997V95.705H44.0897V87.795H66.3297V95.705H67.2197V87.795H74.4097V95.705H75.2997V87.795H97.5397V95.705H98.4297V87.795H105.62V95.705H106.51V87.795H112V86.905H106.51V80.305H112V79.415H106.51V62.255H112V61.365H106.51V54.765H112V53.875H106.51V36.715H112V35.825H106.51V29.225H112V28.335H106.51V11.175H112V10.285H106.51V3.68502H111.99V3.67502ZM97.5297 3.67502V10.275H75.2897V3.67502H97.5297ZM44.0897 35.825V29.225H66.3297V35.825H44.0897ZM66.3197 36.715V53.875H44.0897V36.715H66.3197ZM43.1997 35.825H36.0097V29.225H43.1997V35.825ZM43.1997 36.715V53.875H36.0097V36.715H43.1997ZM43.1997 54.765V61.365H36.0097V54.765H43.1997ZM44.0897 54.765H66.3297V61.365H44.0897V54.765ZM67.2097 54.765H74.3997V61.365H67.2097V54.765ZM67.2097 53.875V36.715H74.3997V53.875H67.2097ZM67.2097 35.825V29.225H74.3997V35.825H67.2097ZM67.2097 28.325V11.175H74.3997V28.335H67.2097V28.325ZM66.3197 28.325H44.0897V11.175H66.3297V28.325H66.3197ZM43.1997 28.325H36.0097V11.175H43.1997V28.325ZM35.1197 28.325H14.9497V11.175H35.1097V28.325H35.1197ZM35.1197 29.215V35.815H14.9497V29.215H35.1197ZM35.1197 36.715V53.875H14.9497V36.715H35.1197ZM35.1197 54.765V61.365H14.9497V54.765H35.1197ZM35.1197 62.255V79.415H14.9497V62.255H35.1197ZM36.0097 62.255H43.1997V79.415H36.0097V62.255ZM44.0897 62.255H66.3297V79.415H44.0897V62.255ZM67.2097 62.255H74.3997V79.415H67.2097V62.255ZM75.2897 62.255H97.5297V79.415H75.2897V62.255ZM75.2897 61.365V54.765H97.5297V61.365H75.2897ZM75.2897 53.875V36.715H97.5297V53.875H75.2897ZM75.2897 35.825V29.225H97.5297V35.825H75.2897ZM75.2897 28.325V11.175H97.5297V28.335H75.2897V28.325ZM74.3997 3.67502V10.275H67.2097V3.67502H74.3997ZM66.3197 3.67502V10.275H44.0897V3.67502H66.3197ZM43.1997 3.67502V10.275H36.0097V3.67502H43.1997ZM35.1197 3.67502V10.275H14.9497V3.67502H35.1197ZM6.86967 3.67502H14.0597V10.275H6.86967V3.67502ZM6.86967 11.175H14.0597V28.335H6.86967V11.175ZM6.86967 29.215H14.0597V35.815H6.86967V29.215ZM6.86967 36.715H14.0597V53.875H6.86967V36.715ZM6.86967 54.765H14.0597V61.365H6.86967V54.765ZM6.86967 62.255H14.0597V79.415H6.86967V62.255ZM6.86967 86.905V80.305H14.0597V86.905H6.86967ZM14.9497 86.905V80.305H35.1097V86.905H14.9497ZM36.0097 86.905V80.305H43.1997V86.905H36.0097ZM44.0897 86.905V80.305H66.3297V86.905H44.0897ZM67.2097 86.905V80.305H74.3997V86.905H67.2097ZM75.2897 86.905V80.305H97.5297V86.905H75.2897ZM105.61 86.905H98.4197V80.305H105.61V86.905ZM105.61 79.415H98.4197V62.255H105.61V79.415ZM105.61 61.365H98.4197V54.765H105.61V61.365ZM105.61 53.875H98.4197V36.715H105.61V53.875ZM105.61 35.825H98.4197V29.225H105.61V35.825ZM105.61 28.325H98.4197V11.175H105.61V28.325ZM105.61 10.285H98.4197V3.68502H105.61V10.285Z" fill="#8A94DD"/>
</g>
<path d="M58.4597 36.275C59.4538 36.275 60.2597 35.4692 60.2597 34.475C60.2597 33.4809 59.4538 32.675 58.4597 32.675C57.4656 32.675 56.6597 33.4809 56.6597 34.475C56.6597 35.4692 57.4656 36.275 58.4597 36.275Z" fill="#8A94DD"/>
<path d="M58.4597 48.485C59.4538 48.485 60.2597 47.6791 60.2597 46.685C60.2597 45.6909 59.4538 44.885 58.4597 44.885C57.4656 44.885 56.6597 45.6909 56.6597 46.685C56.6597 47.6791 57.4656 48.485 58.4597 48.485Z" fill="#8A94DD"/>
<path d="M58.4597 60.705C59.4538 60.705 60.2597 59.8991 60.2597 58.905C60.2597 57.9109 59.4538 57.105 58.4597 57.105C57.4656 57.105 56.6597 57.9109 56.6597 58.905C56.6597 59.8991 57.4656 60.705 58.4597 60.705Z" fill="#8A94DD"/>
<path d="M58.4597 72.9151C59.4538 72.9151 60.2597 72.1092 60.2597 71.1151C60.2597 70.121 59.4538 69.3151 58.4597 69.3151C57.4656 69.3151 56.6597 70.121 56.6597 71.1151C56.6597 72.1092 57.4656 72.9151 58.4597 72.9151Z" fill="#8A94DD"/>
<path d="M58.4597 85.125C59.4538 85.125 60.2597 84.3191 60.2597 83.325C60.2597 82.3309 59.4538 81.525 58.4597 81.525C57.4656 81.525 56.6597 82.3309 56.6597 83.325C56.6597 84.3191 57.4656 85.125 58.4597 85.125Z" fill="#8A94DD"/>
<path d="M45.9196 1.68508C46.9496 4.54508 53.2896 16.0851 55.7096 22.8551C55.9396 23.4951 55.0096 24.1351 54.1696 23.9551L42.1996 19.3051C42.0496 19.2751 39.5796 17.1351 39.5796 15.8251V7.26508C39.0096 3.64508 41.0596 3.06508 41.0596 3.06508C41.7596 2.58508 45.6896 1.04508 45.9196 1.68508Z" fill="#4D55C0"/>
<path d="M62.8596 2.09503C63.2596 1.21503 64.4196 0.765029 65.5196 1.06503C68.5296 1.90503 72.7596 4.71503 72.4896 6.88503L72.3996 16.845C72.3896 17.775 71.8296 18.625 70.8996 19.105C67.4596 20.895 59.8996 22.585 55.3596 24.425C54.3196 24.845 52.2496 22.775 52.6396 21.875C55.2596 15.875 61.3596 5.40503 62.8596 2.09503Z" fill="#3A3B92"/>
</g>
<defs>
<clipPath id="clip0_301_5741">
<rect width="95.3" height="95.41" fill="white" transform="translate(0 0.295044)"/>
</clipPath>
</defs>
</svg>
