<svg width="123" height="112" viewBox="0 0 123 112" fill="none" xmlns="http://www.w3.org/2000/svg">
<g clip-path="url(#clip0_301_11676)">
<path d="M42.2397 14.645L42.2297 33.155C42.2297 58.105 42.6697 61.655 38.5297 70.425C35.1797 77.515 31.2197 81.995 21.3897 81.645C3.98971 81.015 -0.38029 71.875 0.69971 54.855L16.6097 54.945C16.6097 59.645 30.7297 69.025 30.7297 40.125C30.7297 37.435 31.6797 24.595 34.1797 21.525C36.8797 18.225 39.8297 16.025 42.2397 14.645Z" fill="#C12B3F"/>
<path d="M122.95 99.545H107.1C107.1 99.545 106.98 98.345 106.79 96.295C106.78 96.275 106.78 96.265 106.78 96.245C106.62 96.605 106.45 96.965 106.28 97.315C104.43 100.975 101.68 104.275 98.2398 107.045V111.735L64.5198 111.645V111.735H36.9398V106.495C33.2498 103.435 30.6498 100.335 28.8798 97.315C27.4398 94.865 26.5398 92.465 26.0398 90.165L25.9698 89.585L25.5298 85.485C25.5298 85.255 25.5298 85.015 25.5498 84.795C25.7798 76.225 30.7998 70.215 30.7898 70.655L30.9098 55.475L31.0898 31.345C31.0898 28.655 31.9398 13.965 43.3598 5.09501C48.3998 1.18501 52.5998 0.265015 55.3598 0.265015L55.9098 0.905015C58.7598 4.19501 62.7198 5.83501 66.6898 5.83501C70.7498 5.83501 74.8098 4.11501 77.6598 0.685015C77.6598 0.685015 79.2698 0.585015 81.7298 1.00501C85.2998 1.62501 90.6298 3.34501 95.4098 8.12501L95.4198 8.13501C95.9098 8.62501 96.3898 9.14501 96.8798 9.70501C110.67 25.575 122.1 68.075 122.95 99.545Z" fill="#F9364D"/>
<path d="M100.19 70.165C99.7098 69.685 99.3398 69.365 99.1398 69.195V55.215H30.6598L30.5398 70.505C29.4098 71.445 25.4998 77.235 25.2998 84.765C25.2798 84.995 25.2798 85.245 25.2798 85.505L25.7198 89.605L25.7898 90.205C26.3298 92.675 27.2898 95.105 28.6598 97.425L28.7298 97.545H106.89L107.59 91.405C108.5 83.555 105.73 75.605 100.19 70.165Z" fill="#FFFFEB"/>
</g>
<defs>
<clipPath id="clip0_301_11676">
<rect width="122.4" height="111.47" fill="white" transform="translate(0.549805 0.265015)"/>
</clipPath>
</defs>
</svg>
