<svg width="119" height="122" viewBox="0 0 119 122" fill="none" xmlns="http://www.w3.org/2000/svg">
<g clip-path="url(#clip0_301_1329)">
<path d="M106.13 30.725C101.6 17.285 95.4099 10.735 90.1699 7.62497C82.2399 2.90497 75.8999 2.46497 75.8999 2.46497L67.4499 22.965L58.6299 48.415L61.2699 121.645H94.2999V53.545C99.2599 64.225 104.17 115.985 104.17 115.985H118.52C117.22 67.575 106.13 30.725 106.13 30.725Z" fill="#4D55C0"/>
<path d="M41.5899 8.39502C41.5899 8.39502 34.8199 11.995 34.8199 21.355L34.7299 46.775C34.7099 52.205 33.3399 61.875 24.3899 61.495C14.8199 61.095 14.9499 52.185 14.7499 48.205C14.6799 46.945 14.7199 39.975 14.7199 39.975H0.0598822C0.0598822 39.975 -0.0701178 45.015 0.0498822 47.735C0.419882 56.045 3.09988 73.255 18.7999 76.465C30.2499 78.805 38.1399 73.975 39.1499 73.135L41.5899 8.39502Z" fill="#1F2266"/>
<path d="M56.0499 2.46497C52.8599 2.46497 49.7899 3.60497 45.8099 5.72497C42.4499 7.50497 40.2199 9.35497 40.2199 9.35497L39.1499 73.135V73.145V95.605V121.645H63.8799L64.3099 34.005L56.0499 2.46497Z" fill="#3A3B92"/>
<path d="M106.13 30.725C101.6 17.285 95.4099 10.735 90.1699 7.62497C82.2399 2.90497 75.8999 2.46497 75.8999 2.46497L67.4499 22.965L58.6299 48.415L61.2699 121.645H94.2999V53.545C99.2599 64.225 104.17 115.985 104.17 115.985H118.52C117.22 67.575 106.13 30.725 106.13 30.725Z" fill="#4D55C0"/>
<path d="M41.5899 8.39502C41.5899 8.39502 34.8199 11.995 34.8199 21.355L34.7299 46.775C34.7099 52.205 33.3399 61.875 24.3899 61.495C14.8199 61.095 14.9499 52.185 14.7499 48.205C14.6799 46.945 14.7199 39.975 14.7199 39.975H0.0598822C0.0598822 39.975 -0.0701178 45.015 0.0498822 47.735C0.419882 56.045 3.09988 73.255 18.7999 76.465C30.2499 78.805 38.1399 73.975 39.1499 73.135L41.5899 8.39502Z" fill="#1F2266"/>
<path d="M56.0499 2.46497C52.8599 2.46497 49.7899 3.60497 45.8099 5.72497C42.4499 7.50497 40.2199 9.35497 40.2199 9.35497L39.1499 73.135V73.145V95.605V121.645H63.8799L64.3099 34.005L56.0499 2.46497Z" fill="#3A3B92"/>
<mask id="mask0_301_1329" style="mask-type:luminance" maskUnits="userSpaceOnUse" x="-1" y="2" width="120" height="120">
<path d="M106.13 30.465C101.1 17.055 95.8399 10.995 90.5999 7.88496C82.6599 3.16496 75.8999 2.20496 75.8999 2.20496L64.0499 30.445L58.5599 2.96496C54.6799 1.48496 49.7999 3.60496 45.8099 5.72496C42.4499 7.50496 40.2199 9.35496 40.2199 9.35496C40.2199 9.35496 34.6299 13.525 34.8099 21.105L34.7199 46.525C34.6999 51.955 33.3299 61.625 24.3799 61.245C14.8099 60.845 14.9399 51.935 14.7399 47.955C14.6699 46.695 14.7099 39.725 14.7099 39.725H0.0598822C0.0598822 39.725 -0.0701178 44.765 0.0498822 47.485C0.419882 55.785 3.08988 73.005 18.7999 76.205C30.2499 78.545 38.1399 73.715 39.1499 72.875V72.885V95.345V121.385H61.2699H63.8799H94.2999V53.285C99.2599 63.965 104.17 115.725 104.17 115.725H118.52C117.22 67.315 106.13 30.465 106.13 30.465Z" fill="white"/>
</mask>
<g mask="url(#mask0_301_1329)">
<path d="M136.27 10.7149V9.62493H129.53V0.554932H128.44V9.62493H119.61V0.554932H118.52V9.62493H91.23V0.554932H90.14V9.62493H81.31V0.554932H80.22V9.62493H52.93V0.554932H51.84V9.62493H43.01V0.554932H41.92V9.62493H17.17V0.554932H16.08V9.62493H7.25998V0.554932H6.15998V9.62493H-2.52002V10.7149H6.15998V18.8249H-2.52002V19.9149H6.15998V40.9749H-2.52002V42.0649H6.15998V50.1749H-2.52002V51.2649H6.15998V72.3249H-2.52002V73.4149H6.15998V81.5249H-2.52002V82.6149H6.15998V103.675H-2.52002V104.765H6.15998V112.875H-2.52002V113.965H6.15998V123.675H7.24998V113.965H16.08V123.675H17.17V113.965H41.92V123.675H43.01V113.965H51.84V123.675H52.93V113.965H80.22V123.675H81.31V113.965H90.14V123.675H91.23V113.965H118.52V123.675H119.61V113.965H128.44V123.675H129.53V113.965H136.27V112.875H129.53V104.765H136.27V103.675H129.53V82.6149H136.27V81.5249H129.53V73.4149H136.27V72.3249H129.53V51.2649H136.27V50.1749H129.53V42.0649H136.27V40.9749H129.53V19.9149H136.27V18.8249H129.53V10.7149H136.27ZM118.52 10.7149V18.8249H91.23V10.7149H118.52ZM52.93 50.1749V42.0649H80.22V50.1749H52.93ZM80.22 51.2649V72.3249H52.93V51.2649H80.22ZM51.84 50.1749H43.01V42.0649H51.84V50.1749ZM51.84 51.2649V72.3249H43.01V51.2649H51.84ZM51.84 73.4149V81.5249H43.01V73.4149H51.84ZM52.93 73.4149H80.22V81.5249H52.93V73.4149ZM81.31 73.4149H90.14V81.5249H81.31V73.4149ZM81.31 72.3249V51.2649H90.14V72.3249H81.31ZM81.31 50.1749V42.0649H90.14V50.1749H81.31ZM81.31 40.9749V19.9149H90.14V40.9749H81.31ZM80.22 40.9749H52.93V19.9149H80.22V40.9749ZM51.84 40.9749H43.01V19.9149H51.84V40.9749ZM41.92 40.9749H17.17V19.9149H41.92V40.9749ZM41.92 42.0649V50.1749H17.17V42.0649H41.92ZM41.92 51.2649V72.3249H17.17V51.2649H41.92ZM41.92 73.4149V81.5249H17.17V73.4149H41.92ZM41.92 82.6149V103.675H17.17V82.6149H41.92ZM43.01 82.6149H51.84V103.675H43.01V82.6149ZM52.93 82.6149H80.22V103.675H52.93V82.6149ZM81.31 82.6149H90.14V103.675H81.31V82.6149ZM91.23 82.6149H118.52V103.675H91.23V82.6149ZM91.23 81.5149V73.4049H118.52V81.5149H91.23ZM91.23 72.3249V51.2649H118.52V72.3249H91.23ZM91.23 50.1749V42.0649H118.52V50.1749H91.23ZM91.23 40.9749V19.9149H118.52V40.9749H91.23ZM90.14 10.7149V18.8249H81.31V10.7149H90.14ZM80.22 10.7149V18.8249H52.93V10.7149H80.22ZM51.84 10.7149V18.8249H43.01V10.7149H51.84ZM41.92 10.7149V18.8249H17.17V10.7149H41.92ZM7.25998 10.7149H16.09V18.8249H7.25998V10.7149ZM7.25998 19.9149H16.09V40.9749H7.25998V19.9149ZM7.25998 42.0649H16.09V50.1749H7.25998V42.0649ZM7.25998 51.2649H16.09V72.3249H7.25998V51.2649ZM7.25998 73.4149H16.09V81.5249H7.25998V73.4149ZM7.25998 82.6149H16.09V103.675H7.25998V82.6149ZM7.25998 112.865V104.755H16.09V112.865H7.25998ZM17.17 112.865V104.755H41.92V112.865H17.17ZM43.01 112.865V104.755H51.84V112.865H43.01ZM52.93 112.865V104.755H80.22V112.865H52.93ZM81.31 112.865V104.755H90.14V112.865H81.31ZM91.23 112.865V104.755H118.52V112.865H91.23ZM128.44 112.865H119.61V104.755H128.44V112.865ZM128.44 103.675H119.61V82.6149H128.44V103.675ZM128.44 81.5149H119.61V73.4049H128.44V81.5149ZM128.44 72.3249H119.61V51.2649H128.44V72.3249ZM128.44 50.1749H119.61V42.0649H128.44V50.1749ZM128.44 40.9749H119.61V19.9149H128.44V40.9749ZM128.44 18.8249H119.61V10.7149H128.44V18.8249Z" fill="#8A94DD"/>
</g>
<path d="M69.0199 48.1049C70.2018 48.1049 71.1599 47.1468 71.1599 45.965C71.1599 44.7831 70.2018 43.825 69.0199 43.825C67.838 43.825 66.8799 44.7831 66.8799 45.965C66.8799 47.1468 67.838 48.1049 69.0199 48.1049Z" fill="#8A94DD"/>
<path d="M69.0199 62.5951C70.2018 62.5951 71.1599 61.637 71.1599 60.4551C71.1599 59.2732 70.2018 58.3151 69.0199 58.3151C67.838 58.3151 66.8799 59.2732 66.8799 60.4551C66.8799 61.637 67.838 62.5951 69.0199 62.5951Z" fill="#8A94DD"/>
<path d="M69.0199 77.0951C70.2018 77.0951 71.1599 76.137 71.1599 74.9551C71.1599 73.7732 70.2018 72.8151 69.0199 72.8151C67.838 72.8151 66.8799 73.7732 66.8799 74.9551C66.8799 76.137 67.838 77.0951 69.0199 77.0951Z" fill="#8A94DD"/>
<path d="M69.0199 91.5851C70.2018 91.5851 71.1599 90.6269 71.1599 89.4451C71.1599 88.2632 70.2018 87.3051 69.0199 87.3051C67.838 87.3051 66.8799 88.2632 66.8799 89.4451C66.8799 90.6269 67.838 91.5851 69.0199 91.5851Z" fill="#8A94DD"/>
<path d="M69.0199 106.085C70.2018 106.085 71.1599 105.127 71.1599 103.945C71.1599 102.763 70.2018 101.805 69.0199 101.805C67.838 101.805 66.8799 102.763 66.8799 103.945C66.8799 105.127 67.838 106.085 69.0199 106.085Z" fill="#8A94DD"/>
<path d="M58.7697 0.665009C59.6197 4.89501 62.8797 24.665 64.8797 34.675C65.0697 35.625 63.9797 36.355 63.0797 35.955L52.9897 24.915C52.8297 24.845 50.3197 21.385 50.4397 19.535L51.2597 7.42501C50.9897 2.20501 53.2897 1.74501 53.2897 1.74501C54.1197 1.20501 58.5797 -0.284991 58.7697 0.665009Z" fill="#4D55C0"/>
<path d="M75.4599 2.08497C75.9799 0.87497 77.3399 0.25497 78.5799 0.69497C81.9599 1.88497 86.2499 7.58497 85.7799 10.575L84.9699 24.365C84.8899 25.655 84.1899 26.815 83.0899 27.485C79.0199 29.935 68.9699 34.735 63.6499 37.245C62.4299 37.825 61.1399 36.585 61.6599 35.335C65.0699 27.045 73.4999 6.64497 75.4599 2.08497Z" fill="#3A3B92"/>
</g>
<defs>
<clipPath id="clip0_301_1329">
<rect width="118.52" height="121.29" fill="white" transform="translate(0 0.35498)"/>
</clipPath>
</defs>
</svg>
