<svg width="94" height="126" viewBox="0 0 94 126" fill="none" xmlns="http://www.w3.org/2000/svg">
<g clip-path="url(#clip0_301_8589)">
<path d="M46.7696 88.2701C46.7696 88.9201 46.2396 89.4601 45.5796 89.4601H24.0496C21.9496 89.4601 20.0896 90.4501 18.8996 91.9901C18.0396 93.0901 17.5296 94.4801 17.5296 95.9801V125.96H0.849609L1.04961 97.9401C1.05961 95.9401 1.24961 93.9401 1.63961 91.9901C2.12961 89.5101 2.92961 87.1001 4.06961 84.8401C5.61961 81.7801 7.13961 80.0801 7.12961 80.3501L7.21961 69.4401L7.22961 67.6401C9.32961 67.3001 11.2996 66.5601 13.0596 65.4901C14.5696 64.5701 15.9196 63.4101 17.0496 62.0701C17.2296 61.8601 17.3996 61.6501 17.5596 61.4301V65.2801L17.5496 69.4401L17.5296 80.5601C17.5296 84.1601 20.4496 87.0801 24.0496 87.0801H45.5796C46.2396 87.0801 46.7696 87.6101 46.7696 88.2701Z" fill="#C1B685"/>
<path d="M46.7698 88.27C46.7698 87.61 46.2398 87.08 45.5798 87.08H24.0498C20.4498 87.08 17.5298 84.16 17.5298 80.56L17.2398 69.44L17.1498 66.18L17.0498 62.07C17.2298 61.86 17.3998 61.65 17.5598 61.43C19.6698 58.68 20.9198 55.25 20.9198 51.52V5.81004C21.5198 5.29004 22.1398 4.81004 22.7698 4.35004C24.1598 3.33004 25.6298 2.41004 27.1798 1.59004C28.2398 1.02004 29.3498 0.510039 30.4798 0.0400391C30.4698 0.290039 30.4598 0.530039 30.4598 0.780039V0.900039C30.4598 1.21004 30.4698 1.51004 30.4798 1.82004C30.4998 2.12004 30.6598 3.63004 30.6698 3.67004C30.7098 3.95004 30.7598 4.22004 30.8198 4.49004C30.8798 4.78004 30.9498 5.07004 31.0198 5.36004C31.0898 5.64004 31.1698 5.92004 31.2598 6.20004C31.3498 6.48004 31.4398 6.76004 31.5398 7.03004C31.6398 7.30004 31.7498 7.57004 31.8598 7.84004C31.9898 8.15004 32.1298 8.44004 32.2698 8.74004C32.2698 8.75004 32.2698 8.75004 32.2698 8.75004C32.6198 9.46004 33.0298 10.14 33.4498 10.79C37.9198 17.7 55.0798 20.43 62.2498 11.95C64.6898 9.06004 66.0198 5.28004 66.0898 1.23004C66.0998 1.12004 66.0998 1.01004 66.0998 0.900039V0.890039C66.0998 0.680039 66.0998 0.460039 66.0798 0.240039V0.200039C69.2498 1.08004 72.6398 2.43004 75.7198 4.13004V46.03C75.7198 53.12 80.2298 59.15 86.5498 61.41C86.5998 61.43 86.6398 61.44 86.6898 61.46L86.7598 69.44L86.8298 76.52C86.8298 76.45 87.0698 76.6 87.4498 76.94C88.4398 77.81 90.3698 79.89 91.2398 82.22C91.9598 84.15 92.4698 85.94 92.8198 87.61C93.1398 89.17 93.3398 90.62 93.4598 91.99C93.6498 94.28 93.6298 96.35 93.6398 98.33V98.67L93.8398 125.96H17.5298V95.98C17.5298 94.48 18.0398 93.09 18.8998 91.99C20.0898 90.45 21.9498 89.46 24.0498 89.46H45.5798C46.2398 89.46 46.7698 88.92 46.7698 88.27Z" fill="#F7ECB9"/>
<path d="M17.5597 65.2801V61.4301C17.3997 61.6501 17.2297 61.8601 17.0497 62.0701C15.9197 63.4101 14.5697 64.5701 13.0597 65.4901C11.2997 66.5601 9.32973 67.3001 7.22973 67.6401L7.21973 69.4401H17.5497L17.5597 65.2801Z" fill="#C1B685"/>
<path d="M24.0498 87.0801H45.5798C46.2398 87.0801 46.7698 87.6101 46.7698 88.2701C46.7698 88.9201 46.2398 89.4601 45.5798 89.4601H24.0498C21.9498 89.4601 20.0898 90.4501 18.8998 91.9901H93.4598C93.3398 90.6201 93.1398 89.1701 92.8198 87.6101C92.4698 85.9401 91.9598 84.1501 91.2398 82.2201C90.3698 79.8901 88.4398 77.8101 87.4498 76.9401C87.0698 76.6001 86.8298 76.4501 86.8298 76.5201L86.7598 69.4401H17.5498L17.5298 80.5601C17.5298 84.1601 20.4498 87.0801 24.0498 87.0801Z" fill="#34D1AF"/>
<path d="M24.0496 89.4601H45.5796C46.2396 89.4601 46.7696 88.9201 46.7696 88.2701C46.7696 87.6101 46.2396 87.0801 45.5796 87.0801H24.0496C20.4496 87.0801 17.5296 84.1601 17.5296 80.5601L17.5496 69.4401H7.21965L7.12965 80.3501C7.13965 80.0801 5.61965 81.7801 4.06965 84.8401C2.92965 87.1001 2.12965 89.5101 1.63965 91.9901H18.8996C20.0896 90.4501 21.9496 89.4601 24.0496 89.4601Z" fill="#2C9B7E"/>
<path d="M93.6398 98.67V98.33C93.6298 96.35 93.6498 94.28 93.4598 91.99H18.8998C18.0398 93.09 17.5298 94.48 17.5298 95.98V125.96H93.8398L93.6398 98.67Z" fill="#BD502F"/>
<path d="M18.8996 91.99H1.63961C1.24961 93.94 1.05961 95.94 1.04961 97.94L0.849609 125.96H17.5296V95.98C17.5296 94.48 18.0396 93.09 18.8996 91.99Z" fill="#933A25"/>
</g>
<defs>
<clipPath id="clip0_301_8589">
<rect width="92.99" height="125.92" fill="white" transform="translate(0.849609 0.0400391)"/>
</clipPath>
</defs>
</svg>
