<svg width="124" height="112" viewBox="0 0 124 112" fill="none" xmlns="http://www.w3.org/2000/svg">
<g clip-path="url(#clip0_301_11692)">
<path d="M42.3798 14.645L42.3698 33.155C42.3698 58.105 42.8098 61.655 38.6698 70.425C35.3198 77.515 31.3598 81.995 21.5298 81.645C4.12985 81.015 -0.240153 71.875 0.839847 54.855L16.7498 54.945C16.7498 59.645 30.8698 69.025 30.8698 40.125C30.8698 37.435 31.8198 24.595 34.3198 21.525C37.0198 18.225 39.9698 16.025 42.3798 14.645Z" fill="#EB564B"/>
<path d="M97.0199 9.70501C96.5299 9.14501 96.0499 8.62501 95.5599 8.13501L95.5499 8.12501C90.7699 3.34501 85.4399 1.62501 81.8699 1.00501C79.4099 0.585015 77.7999 0.685015 77.7999 0.685015C72.1799 7.46501 61.8099 7.56501 56.0499 0.905015L55.4999 0.265015C52.7299 0.265015 48.5299 1.18501 43.4999 5.09501C32.0799 13.965 31.2399 28.655 31.2399 31.345L30.9399 70.655C30.9499 70.215 25.9299 76.225 25.6899 84.795C25.6699 85.025 25.6699 85.255 25.6699 85.495L26.1099 89.595L26.1799 90.175C27.2899 95.305 30.3899 100.955 37.0699 106.505V111.745H64.6499V111.655L98.3699 111.745V107.055C102.14 104.015 105.09 100.345 106.91 96.255C107.11 98.335 107.23 99.555 107.23 99.555H123.08C122.24 68.075 110.81 25.575 97.0199 9.70501Z" fill="#FF9166"/>
<path d="M98.8896 50.135V70.365C98.8896 70.365 103.91 74.285 107.88 83.085L98.8896 50.135Z" fill="#EB564B"/>
</g>
<defs>
<clipPath id="clip0_301_11692">
<rect width="122.4" height="111.47" fill="white" transform="translate(0.689941 0.265015)"/>
</clipPath>
</defs>
</svg>
