<svg width="85" height="120" viewBox="0 0 85 120" fill="none" xmlns="http://www.w3.org/2000/svg">
<g clip-path="url(#clip0_301_1404)">
<path d="M10.8901 6.34998L8.45008 71.08C8.07008 71.39 6.75008 72.26 4.64008 73.09L0.830078 56.44C3.46008 53.23 4.01008 48.14 4.02008 44.73L4.11008 19.31C4.11008 9.94998 10.8901 6.34998 10.8901 6.34998Z" fill="#721E6E"/>
<path d="M84.2102 71.57H68.2302C67.3702 66.24 66.4602 61.32 65.5102 57.5C65.2702 56.49 65.0202 55.55 64.7702 54.71C64.3802 53.42 63.9902 52.33 63.6002 51.49V119.59H8.4502V71.08L8.6402 59.57L8.6902 57.07L9.5202 7.30003C9.5202 7.30003 11.6402 5.23003 15.1102 3.67003C19.2702 1.80003 22.1302 0.790034 25.3502 0.410034L25.3602 5.17003C25.3702 7.91003 26.4802 10.39 28.2802 12.18C30.0802 13.98 32.5602 15.09 35.3002 15.09C40.8102 15.09 45.2702 10.6 45.2302 5.09003L45.2002 0.410034C45.2002 0.410034 51.5402 0.850034 59.4802 5.57003C64.7202 8.68003 70.9002 15.23 75.4302 28.67C75.4302 28.67 80.5202 45.59 84.2102 71.57Z" fill="#8E2589"/>
<path d="M58.7501 51.71C58.0901 51.43 57.4201 51.16 56.7501 50.92C54.0101 49.9 51.1701 49.1 48.2401 48.56C47.5801 48.43 46.9101 48.32 46.2401 48.22C43.7401 47.85 41.1801 47.66 38.5801 47.66C38.3001 47.66 38.0101 47.66 37.7301 47.67C37.0601 47.68 36.3901 47.7 35.7301 47.74C32.8201 47.89 29.9801 48.29 27.2101 48.91C26.5401 49.05 25.8701 49.22 25.2101 49.4C22.2601 50.17 19.4201 51.2 16.7001 52.47C16.0201 52.77 15.3601 53.1 14.7001 53.44C12.6101 54.52 10.6001 55.73 8.69014 57.07L8.64014 59.57C10.5601 58.14 12.5801 56.85 14.7001 55.7V119.59H16.7001V54.67C19.4101 53.36 22.2501 52.28 25.2101 51.47V119.59H27.2101V50.95C29.9701 50.32 32.8201 49.9 35.7301 49.75V119.59H37.7301V49.67C38.0101 49.66 38.3001 49.66 38.5801 49.66C41.1801 49.66 43.7401 49.86 46.2401 50.24V119.59H48.2401V50.59C51.1801 51.16 54.0201 51.99 56.7501 53.05V119.59H58.7501V53.88C60.4101 54.61 62.0301 55.43 63.6001 56.34V54.05C62.0301 53.19 60.4101 52.41 58.7501 51.71Z" fill="#FFFFEB"/>
<path d="M48.3701 34.01V38.85C48.3701 40.21 48.9101 41.52 49.8801 42.49L52.4401 45.05C52.9401 45.55 53.7501 45.55 54.2501 45.05L56.8101 42.49C57.7701 41.53 58.3201 40.22 58.3201 38.85V34.01H48.3701Z" fill="#FFFFEB"/>
</g>
<defs>
<clipPath id="clip0_301_1404">
<rect width="83.38" height="119.18" fill="white" transform="translate(0.830078 0.410034)"/>
</clipPath>
</defs>
</svg>
