<svg width="139" height="138" viewBox="0 0 139 138" fill="none" xmlns="http://www.w3.org/2000/svg">
<g clip-path="url(#clip0_301_8480)">
<path d="M138.13 122.18H119.22C119.22 122.18 119.08 120.72 118.84 118.24C116.66 123.12 113.15 127.5 108.65 131.13V136.72L70.6904 136.6L69.6504 67.7401L69.3804 35.2101L89.0104 4.20007C89.0104 4.20007 99.6104 4.55007 110.2 13.0801C110.69 13.4701 111.18 13.8901 111.67 14.3101C114.23 16.5701 116.76 19.3301 119.11 22.6901C122.55 27.6101 124.97 33.1701 126.49 38.9801C129.74 51.3601 137.09 83.3001 138.13 122.18Z" fill="#4D55C0"/>
<path d="M110.2 61.36V85.5C110.2 85.5 116.19 90.18 120.93 100.68L110.2 61.36Z" fill="#3A3B92"/>
<path d="M48.7302 7.48999V19.91C48.7302 49.68 48.0702 63.02 43.1302 73.48C39.1302 81.94 32.5502 84.34 23.7602 84.34C1.76015 84.34 -1.03985 60.35 0.260152 40.04H17.3202C17.3202 45.21 20.6502 55.37 25.6802 55.37C33.8702 55.37 34.3402 39.74 35.0202 28.22C35.2102 25.01 36.1402 19.35 39.1302 15.69C42.3402 11.76 45.8602 9.13999 48.7302 7.48999Z" fill="#1F2266"/>
<path d="M70.8401 136.72H40.4201V130.47C32.4501 123.85 28.7401 117.1 27.4201 110.98L27.3401 110.29L26.8101 105.4C26.8101 105.12 26.8101 104.84 26.8301 104.57C27.1101 94.35 33.1001 87.17 33.0901 87.7L33.4501 40.79C33.4501 37.58 33.0001 26.29 35.0301 20.57C36.6201 16.11 41.3401 11.63 41.5301 11.45V11.44C41.5301 11.44 44.4801 8.79001 47.1001 7.33001C53.7501 3.64001 56.3701 3.70001 59.6701 3.70001L59.3901 16.56L70.6301 34.79L70.8401 136.72Z" fill="#3A3B92"/>
<mask id="mask0_301_8480" style="mask-type:luminance" maskUnits="userSpaceOnUse" x="-1" y="0" width="140" height="137">
<path d="M126.49 38.98C124.97 33.17 122.55 27.61 119.11 22.69C116.76 19.33 114.23 16.57 111.67 14.31C111.18 13.89 110.69 13.47 110.2 13.08C104.5 8.48997 98.8002 6.26997 94.7502 5.19997C93.5002 3.11997 91.7302 1.20997 90.0902 0.459973C88.8902 -0.0900267 87.4802 0.409973 86.8602 1.56997C84.9102 5.16997 77.3802 16.78 72.2402 25.06C68.6102 15.79 63.1102 4.33997 61.8802 0.819973C61.5602 -0.0900267 57.3402 1.98997 56.6102 2.63997C56.6102 2.63997 55.9302 2.87997 55.4902 3.95997C53.4302 4.31997 50.9402 5.19997 47.1102 7.32997C44.4902 8.78997 41.5402 11.44 41.5402 11.44V11.45C41.3502 11.63 36.6302 16.11 35.0402 20.57C33.0002 26.29 33.4502 37.58 33.4502 40.79L33.4202 44.92C32.2502 50.88 30.0702 55.38 25.6802 55.38C20.6502 55.38 17.3202 45.22 17.3202 40.05H0.260222C-1.02978 60.36 1.77022 84.35 23.7602 84.35C27.2302 84.35 30.3602 83.96 33.1202 82.99L33.0802 87.7C33.0902 87.17 27.1002 94.35 26.8202 104.57C26.8002 104.84 26.8002 105.12 26.8002 105.4L27.3302 110.29L27.4102 110.98C28.7302 117.1 32.4402 123.85 40.4102 130.47V136.72H70.8302V136.6L108.64 136.72V131.13C113.14 127.5 116.65 123.12 118.83 118.24C119.07 120.72 119.21 122.18 119.21 122.18H138.12C137.09 83.3 129.74 51.36 126.49 38.98Z" fill="white"/>
</mask>
<g mask="url(#mask0_301_8480)">
<path d="M156.32 8.38996V7.13996H148.57V-3.29004H147.32V7.13996H137.18V-3.29004H135.93V7.13996H104.56V-3.29004H103.31V7.13996H93.1603V-3.29004H91.9103V7.13996H60.5403V-3.29004H59.2903V7.13996H49.1403V-3.29004H47.8903V7.13996H19.4503V-3.29004H18.2003V7.13996H8.05031V-3.29004H6.80031V7.13996H-3.17969V8.38996H6.80031V17.71H-3.17969V18.96H6.80031V43.16H-3.17969V44.41H6.80031V53.73H-3.17969V54.98H6.80031V79.18H-3.17969V80.43H6.80031V89.74H-3.17969V90.99H6.80031V115.19H-3.17969V116.44H6.80031V125.76H-3.17969V127.01H6.80031V138.17H8.05031V127.01H18.2003V138.17H19.4503V127.01H47.8903V138.17H49.1403V127.01H59.2803V138.17H60.5303V127.01H91.9003V138.17H93.1503V127.01H103.29V138.17H104.54V127.01H135.91V138.17H137.16V127.01H147.3V138.17H148.55V127.01H156.3V125.76H148.55V116.44H156.3V115.19H148.55V90.99H156.3V89.74H148.55V80.43H156.3V79.19H148.55V54.99H156.3V53.74H148.55V44.42H156.3V43.17H148.55V18.97H156.3V17.72H148.55V8.38996H156.32ZM135.92 8.38996V17.71H104.55V8.38996H135.92ZM60.5403 53.73V44.41H91.9103V53.73H60.5403ZM91.9103 54.99V79.19H60.5403V54.99H91.9103ZM59.2903 53.73H49.1403V44.41H59.2803V53.73H59.2903ZM59.2903 54.99V79.19H49.1403V54.99H59.2903ZM59.2903 80.44V89.75H49.1403V80.44H59.2903ZM60.5403 80.44H91.9103V89.75H60.5403V80.44ZM93.1603 80.44H103.3V89.75H93.1603V80.44ZM93.1603 79.19V54.99H103.3V79.19H93.1603ZM93.1603 53.73V44.41H103.3V53.73H93.1603ZM93.1603 43.16V18.96H103.3V43.16H93.1603ZM91.9103 43.16H60.5403V18.96H91.9103V43.16ZM59.2903 43.16H49.1403V18.96H59.2803V43.16H59.2903ZM47.8903 43.16H19.4503V18.96H47.8903V43.16ZM47.8903 44.42V53.74H19.4503V44.42H47.8903ZM47.8903 54.99V79.19H19.4503V54.99H47.8903ZM47.8903 80.44V89.75H19.4503V80.44H47.8903ZM47.8903 91.01V115.21H19.4503V91.01H47.8903ZM49.1403 91.01H59.2803V115.21H49.1403V91.01ZM60.5403 91.01H91.9103V115.21H60.5403V91.01ZM93.1603 91.01H103.3V115.21H93.1603V91.01ZM104.56 91.01H135.93V115.21H104.56V91.01ZM104.56 89.76V80.45H135.93V89.76H104.56ZM104.56 79.19V54.99H135.93V79.19H104.56ZM104.56 53.73V44.41H135.93V53.73H104.56ZM104.56 43.16V18.96H135.93V43.16H104.56ZM103.3 8.38996V17.71H93.1603V8.38996H103.3ZM91.9103 8.38996V17.71H60.5403V8.38996H91.9103ZM59.2903 8.38996V17.71H49.1403V8.38996H59.2903ZM47.8903 8.38996V17.71H19.4503V8.38996H47.8903ZM8.05031 8.38996H18.2003V17.71H8.05031V8.38996ZM8.05031 18.96H18.2003V43.16H8.05031V18.96ZM8.05031 44.42H18.2003V53.74H8.05031V44.42ZM8.05031 54.99H18.2003V79.19H8.05031V54.99ZM8.05031 80.44H18.2003V89.75H8.05031V80.44ZM8.05031 91.01H18.2003V115.21H8.05031V91.01ZM8.05031 125.78V116.46H18.2003V125.78H8.05031ZM19.4503 125.78V116.46H47.8903V125.78H19.4503ZM49.1403 125.78V116.46H59.2803V125.78H49.1403ZM60.5403 125.78V116.46H91.9103V125.78H60.5403ZM93.1603 125.78V116.46H103.3V125.78H93.1603ZM104.56 125.78V116.46H135.93V125.78H104.56ZM147.32 125.78H137.18V116.46H147.32V125.78ZM147.32 115.21H137.18V91.01H147.32V115.21ZM147.32 89.76H137.18V80.45H147.32V89.76ZM147.32 79.19H137.18V54.99H147.32V79.19ZM147.32 53.73H137.18V44.41H147.32V53.73ZM147.32 43.16H137.18V18.96H147.32V43.16ZM147.32 17.71H137.18V8.38996H147.32V17.71Z" fill="#8A94DD"/>
</g>
<path d="M76.7504 47.9801C77.9322 47.9801 78.8904 47.022 78.8904 45.8401C78.8904 44.6582 77.9322 43.7001 76.7504 43.7001C75.5685 43.7001 74.6104 44.6582 74.6104 45.8401C74.6104 47.022 75.5685 47.9801 76.7504 47.9801Z" fill="#8A94DD"/>
<path d="M76.7504 62.4801C77.9322 62.4801 78.8904 61.522 78.8904 60.3401C78.8904 59.1582 77.9322 58.2001 76.7504 58.2001C75.5685 58.2001 74.6104 59.1582 74.6104 60.3401C74.6104 61.522 75.5685 62.4801 76.7504 62.4801Z" fill="#8A94DD"/>
<path d="M76.7504 76.9701C77.9322 76.9701 78.8904 76.012 78.8904 74.8301C78.8904 73.6482 77.9322 72.6901 76.7504 72.6901C75.5685 72.6901 74.6104 73.6482 74.6104 74.8301C74.6104 76.012 75.5685 76.9701 76.7504 76.9701Z" fill="#8A94DD"/>
<path d="M76.7504 91.4701C77.9322 91.4701 78.8904 90.512 78.8904 89.3301C78.8904 88.1482 77.9322 87.1901 76.7504 87.1901C75.5685 87.1901 74.6104 88.1482 74.6104 89.3301C74.6104 90.512 75.5685 91.4701 76.7504 91.4701Z" fill="#8A94DD"/>
<path d="M76.7504 105.96C77.9322 105.96 78.8904 105.002 78.8904 103.82C78.8904 102.638 77.9322 101.68 76.7504 101.68C75.5685 101.68 74.6104 102.638 74.6104 103.82C74.6104 105.002 75.5685 105.96 76.7504 105.96Z" fill="#8A94DD"/>
<path d="M61.8804 0.820063C63.3004 4.89006 70.4204 19.5301 73.7804 29.1601C74.1004 30.0801 75.8204 33.6701 70.9904 35.1801L59.4804 25.6301C59.3104 25.5801 56.3504 22.5001 56.2204 20.6501L55.3804 8.55006C54.3904 3.41006 56.6204 2.65006 56.6204 2.65006C57.3404 1.99006 61.5604 -0.0899369 61.8804 0.820063Z" fill="#4D55C0"/>
<path d="M86.8603 1.56002C87.4903 0.400019 88.9003 -0.0899811 90.0903 0.450019C93.3503 1.95002 97.1003 8.01002 96.3703 10.94L94.3103 24.6C94.1203 25.88 93.3103 26.97 92.1503 27.53C87.8703 29.6 77.4303 33.47 71.9003 35.49C70.6303 35.95 67.2103 33.41 69.3703 29.75C73.9403 22.04 84.5003 5.93002 86.8603 1.56002Z" fill="#3A3B92"/>
</g>
<defs>
<clipPath id="clip0_301_8480">
<rect width="138.13" height="136.82" fill="white" transform="translate(0 0.589966)"/>
</clipPath>
</defs>
</svg>
