<svg width="140" height="134" viewBox="0 0 140 134" fill="none" xmlns="http://www.w3.org/2000/svg">
<g clip-path="url(#clip0_301_8541)">
<path d="M111.55 54.77V78.91C111.55 78.91 117.54 83.59 122.28 94.09L111.55 54.77Z" fill="#C12B3F"/>
<path d="M48.8203 5.68005L49.4103 15.6301C49.4103 45.4001 48.7503 58.7401 43.8103 69.2001C39.8103 77.6601 33.2303 80.0601 24.4403 80.0601C2.44033 80.0601 -0.359673 56.0701 0.940327 35.7601H18.0003C18.0003 40.9301 21.3303 51.0901 26.3603 51.0901C34.5503 51.0901 35.0203 35.4601 35.7003 23.9401C35.8903 20.7301 36.2303 17.5401 39.2203 13.8801C42.4303 9.95005 45.9503 7.32005 48.8203 5.68005Z" fill="#C12B3F"/>
<path d="M139.48 118.97H120.57C120.57 118.97 120.43 117.51 120.19 115.03C118.01 119.91 114.5 124.29 110 127.92V133.51L72.1902 133.39V133.51H41.7702V127.26C36.4402 122.83 33.0102 118.35 30.9502 114.03C29.9102 111.89 29.2102 109.8 28.7702 107.77L28.6902 107.08L28.1602 102.19C28.1602 101.91 28.1602 101.63 28.1802 101.36C28.4602 91.1401 34.4702 82.0001 34.4602 82.5301L34.5802 67.0001L34.8002 37.5801C34.8002 34.3701 34.3502 23.08 36.3802 17.3601C37.9702 12.9001 42.6902 8.42005 42.8802 8.24005V8.23005C42.8802 8.23005 45.8302 5.58005 48.4502 4.12005C55.1002 0.43005 57.7202 0.49005 61.0202 0.49005L63.9002 1.80005C70.7002 4.88005 78.4302 5.21005 85.4702 2.72005L90.3602 0.99005C90.3602 0.99005 100.96 1.34005 111.55 9.87005C112.04 10.26 112.53 10.68 113.02 11.1C115.58 13.36 118.11 16.12 120.46 19.48C123.9 24.4 126.32 29.9601 127.84 35.7701C131.09 48.1501 138.44 80.0901 139.48 118.97Z" fill="#F9364D"/>
<path d="M113.07 83.64C112.43 83.01 111.98 82.63 111.8 82.47V66.75H34.3302L34.2102 82.43C32.9602 83.74 28.1802 92.3 27.9302 101.34C27.9102 101.62 27.9102 101.9 27.9102 102.22L28.4402 107.11L28.5202 107.82C28.9802 109.96 29.7202 112.09 30.7202 114.14L30.7902 114.28H120.63L121.4 107.56C122.42 98.71 119.31 89.77 113.07 83.64Z" fill="#FFFFEB"/>
</g>
<defs>
<clipPath id="clip0_301_8541">
<rect width="138.8" height="133.02" fill="white" transform="translate(0.680176 0.48999)"/>
</clipPath>
</defs>
</svg>
