<svg width="94" height="94" viewBox="0 0 94 94" fill="none" xmlns="http://www.w3.org/2000/svg">
<g clip-path="url(#clip0_301_5764)">
<path d="M54.1699 18.7999V18.7899L54.1799 18.7999H54.1699Z" fill="#E0DB99"/>
<path d="M33.1798 7.52991L31.4098 68.6199C28.0498 71.7499 24.7898 73.8399 21.6298 74.8799C9.0298 79.0099 0.299805 71.7399 0.299805 71.7399L8.5098 62.7699C8.5098 62.7699 21.6698 68.6699 23.2998 51.4999L23.8998 21.5299C23.8998 13.9999 33.1798 7.52991 33.1798 7.52991Z" fill="#BA6156"/>
<path d="M45.6298 11.9999V2.31995C35.1998 2.31995 27.7998 12.4799 27.7998 12.4799V93.7299H47.0898V93.6799L53.9098 93.7V18.5899L45.6298 11.9999Z" fill="#F2A65E"/>
<path d="M93.7599 77.63C93.7599 52.92 90.2499 23.8999 73.5399 7.52995C68.2299 2.32995 61.7699 2.31995 61.7699 2.31995L61.6199 11.9999L54.1599 18.7899L54.1699 18.7999H54.1599V18.7899L53.8999 18.5799V93.7L78.3499 93.7799V50.0699C79.3899 52.2999 82.2399 76.61 82.2799 77.63C82.3499 80.02 82.3499 81.5299 82.3499 81.5299H93.8999C93.8599 80.2099 93.7599 78.91 93.7599 77.63Z" fill="#FFE478"/>
<path d="M57.6696 35.32C58.6637 35.32 59.4696 34.5141 59.4696 33.52C59.4696 32.5259 58.6637 31.72 57.6696 31.72C56.6755 31.72 55.8696 32.5259 55.8696 33.52C55.8696 34.5141 56.6755 35.32 57.6696 35.32Z" fill="#FF9166"/>
<path d="M57.6696 47.5299C58.6637 47.5299 59.4696 46.724 59.4696 45.7299C59.4696 44.7358 58.6637 43.9299 57.6696 43.9299C56.6755 43.9299 55.8696 44.7358 55.8696 45.7299C55.8696 46.724 56.6755 47.5299 57.6696 47.5299Z" fill="#FF9166"/>
<path d="M57.6696 59.7399C58.6637 59.7399 59.4696 58.934 59.4696 57.9399C59.4696 56.9458 58.6637 56.1399 57.6696 56.1399C56.6755 56.1399 55.8696 56.9458 55.8696 57.9399C55.8696 58.934 56.6755 59.7399 57.6696 59.7399Z" fill="#FF9166"/>
<path d="M57.6696 71.96C58.6637 71.96 59.4696 71.1541 59.4696 70.16C59.4696 69.1659 58.6637 68.36 57.6696 68.36C56.6755 68.36 55.8696 69.1659 55.8696 70.16C55.8696 71.1541 56.6755 71.96 57.6696 71.96Z" fill="#FF9166"/>
<path d="M57.6696 84.1699C58.6637 84.1699 59.4696 83.3641 59.4696 82.3699C59.4696 81.3758 58.6637 80.5699 57.6696 80.5699C56.6755 80.5699 55.8696 81.3758 55.8696 82.3699C55.8696 83.3641 56.6755 84.1699 57.6696 84.1699Z" fill="#FF9166"/>
<path d="M63.3598 0.780005L68.3498 4.19001L64.7298 23.05C64.7198 23.1 64.6498 23.13 64.5998 23.1C63.6798 22.62 57.2898 19.37 53.0098 19.57L62.4498 0.980005C62.5998 0.670005 63.0598 0.570005 63.3598 0.780005Z" fill="#F2A65E"/>
<path d="M44.24 0.339948L39.25 4.05995L42.45 23.4799C42.46 23.5399 42.53 23.5699 42.58 23.5399C43.5 23.0199 49.89 19.4699 54.17 19.6799L45.16 0.549948C45 0.219948 44.55 0.109948 44.24 0.339948Z" fill="#FFE478"/>
</g>
<defs>
<clipPath id="clip0_301_5764">
<rect width="93.6" height="93.56" fill="white" transform="translate(0.299805 0.219971)"/>
</clipPath>
</defs>
</svg>
