<svg width="80" height="92" viewBox="0 0 80 92" fill="none" xmlns="http://www.w3.org/2000/svg">
<g clip-path="url(#clip0_301_11725)">
<path d="M13.7899 52.55L13.7099 49.11C12.7599 50.23 11.6299 51.2 10.3699 51.97C8.89986 52.87 7.11986 53.48 5.35986 53.77L5.36986 56.49H13.8899L13.7899 52.55Z" fill="#C1B685"/>
<path d="M14.1201 56.4899H73.9401L73.8701 48.5899C73.8301 48.5699 73.7901 48.5599 73.7501 48.5499C68.4601 46.6599 62.8001 41.6099 62.8001 35.6799V6.53994C60.6601 4.39994 57.3901 2.81994 54.7301 2.08994V2.11994C54.7501 2.29994 54.7501 2.48994 54.7501 2.65994V2.66994C54.7501 2.75994 54.7501 2.84994 54.7401 2.94994C54.6801 6.33994 53.5701 8.24994 51.5301 10.6599C45.5301 17.7499 31.1701 15.4699 27.4301 9.68994C27.0801 9.13994 26.7401 8.57994 26.4401 7.97994C26.4401 7.97994 26.4401 7.97994 26.4401 7.96994C26.3201 7.71994 26.2101 7.47994 26.1001 7.21994C26.0101 6.98994 25.9201 6.76994 25.8301 6.53994C25.7401 6.30994 25.6701 6.07994 25.6001 5.84994C25.5201 5.61994 25.4601 5.37994 25.4001 5.14994C25.3401 4.90994 25.2801 4.65994 25.2301 4.41994C25.1801 4.18994 25.1401 3.96994 25.1001 3.72994C25.0901 3.69994 24.9601 2.42994 24.9401 2.17994C24.9301 1.91994 24.9201 1.66994 24.9201 1.40994V1.30994C24.9201 1.09994 24.9301 0.899941 24.9401 0.689941C23.9901 1.07994 23.0701 1.50994 22.1801 1.98994C20.8801 2.67994 19.6501 3.44994 18.4901 4.29994C17.9601 4.67994 17.4401 5.08994 16.9401 5.51994V40.2699C16.9401 43.3899 15.8901 46.2599 14.1301 48.5599V51.7799L14.1201 56.4899Z" fill="#F7ECB9"/>
<path d="M13.8897 56.4899H14.1197L14.1297 51.7899V48.5699C13.9997 48.7499 13.8497 48.9299 13.6997 49.1099L13.7797 52.5499L13.8897 56.4899Z" fill="#F7ECB9"/>
<path d="M2.8398 68.16C2.5498 68.74 2.2898 69.33 2.0498 69.93H18.5298C16.0098 69.45 14.0998 67.24 14.0998 64.57L13.8898 56.48H5.3698L5.3998 64.39C5.4098 64.18 4.1398 65.6 2.8398 68.16Z" fill="#2C9B7E"/>
<path d="M14.1099 64.58C14.1099 67.24 16.0199 69.46 18.5399 69.94H78.8699C78.5799 68.7 78.1999 67.38 77.6699 65.97C76.9399 64.02 75.3299 62.28 74.4999 61.55C74.1799 61.27 73.9799 61.14 73.9799 61.2L73.9399 56.49H14.1199L14.1099 64.58Z" fill="#34D1AF"/>
<path d="M13.8901 56.49L14.1101 64.58L14.1201 56.49H13.8901Z" fill="#C1B685"/>
<path d="M19.5599 72.0299H37.5799C38.1299 72.0299 38.5799 71.5799 38.5799 71.0299C38.5799 70.4799 38.1399 70.0299 37.5799 70.0299H19.5599C19.2099 70.0299 18.8699 69.9899 18.5299 69.9299H2.0599C0.899902 72.8399 0.329902 75.9699 0.319902 79.1199L0.149902 91.2999H14.1099V77.4899C14.1099 74.4699 16.5499 72.0299 19.5599 72.0299Z" fill="#933A25"/>
<path d="M19.5601 70.0399H37.5801C38.1301 70.0399 38.5801 70.4799 38.5801 71.0399C38.5801 71.5799 38.1401 72.0399 37.5801 72.0399H19.5601C16.5501 72.0399 14.1001 74.4799 14.1001 77.4999V91.2999H79.8501L79.6801 79.7299V79.4499C79.6701 76.7999 79.7201 73.9399 78.9901 70.4799C78.9501 70.2999 78.9101 70.1199 78.8701 69.9399H18.5401C18.8701 69.9999 19.2101 70.0399 19.5601 70.0399Z" fill="#BD502F"/>
</g>
<defs>
<clipPath id="clip0_301_11725">
<rect width="79.7" height="90.6" fill="white" transform="translate(0.149902 0.699951)"/>
</clipPath>
</defs>
</svg>
