<svg width="108" height="138" viewBox="0 0 108 138" fill="none" xmlns="http://www.w3.org/2000/svg">
<g clip-path="url(#clip0_301_8549)">
<path d="M23.83 8.68506V21.1051C23.83 50.8751 23.17 64.2151 18.24 74.6751C16.55 78.2551 14.39 80.7451 11.8 82.4351L0.47998 56.5551C0.57998 56.5751 0.67998 56.5751 0.77998 56.5751C8.96998 56.5751 9.43998 40.9351 10.12 29.4251C10.31 26.2151 11.24 20.5551 14.23 16.8851C17.44 12.9551 20.96 10.3351 23.83 8.68506Z" fill="#3D6E70"/>
<path d="M49.5002 137.905H15.5202V131.655C7.55016 125.035 3.84016 118.285 2.52016 112.165L2.44016 111.475L1.91016 106.585C1.91016 106.305 1.91016 106.025 1.93016 105.755C2.21016 95.5351 8.20016 88.3551 8.19016 88.8851L8.55016 41.9751C8.55016 38.7651 8.10016 27.4751 10.1302 21.7551C11.7202 17.2951 16.4402 12.8151 16.6302 12.6351V12.6251C16.6302 12.6251 19.5802 9.97507 22.2002 8.51507C28.8502 4.82507 31.4702 4.88507 34.7702 4.88507L34.4902 17.7451L49.1002 28.8551L49.5002 137.905Z" fill="#34D1AF"/>
<path d="M93.4901 93.765C89.8901 84.345 87.2801 69.815 87.2801 69.815H107.9C105.62 56.405 103.14 46.065 101.59 40.165C100.07 34.355 97.6501 28.795 94.2101 23.875C91.8601 20.515 89.3301 17.755 86.7701 15.495C86.2801 15.075 85.7901 14.655 85.3001 14.265C74.7101 5.73501 64.1101 5.38501 64.1101 5.38501L49.1001 28.855L49.5001 137.785L83.7501 137.905V132.315C92.9601 127.275 99.6901 109.975 93.4901 93.765Z" fill="#34D1AF"/>
<path d="M85.2998 62.5551V86.6951C85.2998 86.6951 90.5698 87.7951 94.1598 95.0251L85.2998 62.5551Z" fill="#3D6E70"/>
<path d="M35.8299 0.285011L28.6099 6.09501L33.2399 36.425C33.2499 36.515 33.3499 36.565 33.4299 36.515C34.7599 35.695 42.8999 28.525 49.0999 28.845L37.1599 0.615011C36.9299 0.095011 36.2799 -0.074989 35.8299 0.285011Z" fill="#3D6E70"/>
<path d="M63.4801 0.285011L70.7101 6.09501L66.0801 36.435C66.0701 36.525 65.9701 36.575 65.8901 36.525C64.5601 35.705 55.3101 28.535 49.1001 28.855L62.1601 0.615011C62.3801 0.095011 63.0401 -0.074989 63.4801 0.285011Z" fill="#3D6E70"/>
</g>
<defs>
<clipPath id="clip0_301_8549">
<rect width="107.42" height="137.81" fill="white" transform="translate(0.47998 0.0949707)"/>
</clipPath>
</defs>
</svg>
