<svg width="120" height="124" viewBox="0 0 120 124" fill="none" xmlns="http://www.w3.org/2000/svg">
<g clip-path="url(#clip0_301_14613)">
<path d="M106.13 32.63C101.6 19.19 95.4099 12.64 90.1699 9.52999C82.2399 4.81999 75.8999 4.37 75.8999 4.37L67.4499 24.87L58.6299 50.32L61.2699 123.55H94.2999V55.45C99.2599 66.13 104.17 117.89 104.17 117.89H118.52C117.22 69.49 106.13 32.63 106.13 32.63Z" fill="#4D55C0"/>
<path d="M41.5899 10.3099C41.5899 10.3099 34.8199 13.9099 34.8199 23.2699L34.7299 48.6899C34.7099 54.1199 33.3399 63.7899 24.3899 63.4099C14.8199 63.0099 14.9499 54.0999 14.7499 50.1199C14.6799 48.8599 14.7199 41.8899 14.7199 41.8899H0.0598822C0.0598822 41.8899 -0.0701178 46.9299 0.0498822 49.6499C0.419882 57.9499 3.08988 75.1699 18.7999 78.3699C30.2499 80.7099 38.1399 75.8799 39.1499 75.0399L41.5899 10.3099Z" fill="#1F2266"/>
<path d="M56.0499 4.37C52.8599 4.37 49.7899 5.50999 45.8099 7.62999C42.4499 9.41999 40.2199 11.26 40.2199 11.26L39.1499 75.04V75.05V97.51V123.55H63.8799L64.3099 35.91L56.0499 4.37Z" fill="#3A3B92"/>
<path d="M106.13 32.63C101.6 19.19 95.4099 12.64 90.1699 9.52999C82.2399 4.81999 75.8999 4.37 75.8999 4.37L67.4499 24.87L58.6299 50.32L61.2699 123.55H94.2999V55.45C99.2599 66.13 104.17 117.89 104.17 117.89H118.52C117.22 69.49 106.13 32.63 106.13 32.63Z" fill="#4D55C0"/>
<path d="M41.5899 10.3099C41.5899 10.3099 34.8199 13.9099 34.8199 23.2699L34.7299 48.6899C34.7099 54.1199 33.3399 63.7899 24.3899 63.4099C14.8199 63.0099 14.9499 54.0999 14.7499 50.1199C14.6799 48.8599 14.7199 41.8899 14.7199 41.8899H0.0598822C0.0598822 41.8899 -0.0701178 46.9299 0.0498822 49.6499C0.419882 57.9499 3.08988 75.1699 18.7999 78.3699C30.2499 80.7099 38.1399 75.8799 39.1499 75.0399L41.5899 10.3099Z" fill="#1F2266"/>
<path d="M56.0499 4.37C52.8599 4.37 49.7899 5.50999 45.8099 7.62999C42.4499 9.41999 40.2199 11.26 40.2199 11.26L39.1499 75.04V75.05V97.51V123.55H63.8799L64.3099 35.91L56.0499 4.37Z" fill="#3A3B92"/>
<mask id="mask0_301_14613" style="mask-type:luminance" maskUnits="userSpaceOnUse" x="-1" y="4" width="120" height="120">
<path d="M106.13 32.37C101.1 18.97 95.8299 12.9 90.5899 9.78999C82.6499 5.06999 75.8899 4.10999 75.8899 4.10999L64.0499 32.36L58.5599 4.86999C54.6799 3.38999 49.7999 5.50999 45.8099 7.62999C42.4499 9.41998 40.2199 11.26 40.2199 11.26C40.2199 11.26 34.6299 15.43 34.8099 23.01L34.7199 48.43C34.6999 53.86 33.3299 63.53 24.3799 63.15C14.8099 62.75 14.9399 53.84 14.7399 49.86C14.6699 48.6 14.7099 41.63 14.7099 41.63H0.0598822C0.0598822 41.63 -0.0701178 46.67 0.0498822 49.39C0.419882 57.69 3.08988 74.91 18.7999 78.11C30.2499 80.45 38.1399 75.62 39.1499 74.78V74.79V97.25V123.29H61.2699H63.8799H94.2999V55.2C99.2599 65.88 104.17 117.64 104.17 117.64H118.52C117.22 69.23 106.13 32.37 106.13 32.37Z" fill="white"/>
</mask>
<g mask="url(#mask0_301_14613)">
<path d="M136.27 12.63V11.54H129.53V2.46997H128.44V11.54H119.61V2.46997H118.52V11.54H91.23V2.46997H90.14V11.54H81.31V2.46997H80.22V11.54H52.93V2.46997H51.84V11.54H43.01V2.46997H41.92V11.54H17.17V2.46997H16.08V11.54H7.25998V2.46997H6.15998V11.54H-2.52002V12.63H6.15998V20.74H-2.52002V21.83H6.15998V42.89H-2.52002V43.98H6.15998V52.09H-2.52002V53.18H6.15998V74.24H-2.52002V75.33H6.15998V83.44H-2.52002V84.53H6.15998V105.59H-2.52002V106.68H6.15998V114.79H-2.52002V115.88H6.15998V125.59H7.24998V115.88H16.08V125.59H17.17V115.88H41.92V125.59H43.01V115.88H51.84V125.59H52.93V115.88H80.22V125.59H81.31V115.88H90.14V125.59H91.23V115.88H118.52V125.59H119.61V115.88H128.44V125.59H129.53V115.88H136.27V114.79H129.53V106.68H136.27V105.59H129.53V84.52H136.27V83.43H129.53V75.32H136.27V74.23H129.53V53.18H136.27V52.09H129.53V43.98H136.27V42.89H129.53V21.83H136.27V20.74H129.53V12.63H136.27ZM118.52 12.63V20.74H91.23V12.63H118.52ZM52.93 52.09V43.98H80.22V52.09H52.93ZM80.22 53.18V74.24H52.93V53.18H80.22ZM51.84 52.09H43.01V43.98H51.84V52.09ZM51.84 53.18V74.24H43.01V53.18H51.84ZM51.84 75.33V83.44H43.01V75.33H51.84ZM52.93 75.33H80.22V83.44H52.93V75.33ZM81.31 75.33H90.14V83.44H81.31V75.33ZM81.31 74.24V53.18H90.14V74.24H81.31ZM81.31 52.09V43.98H90.14V52.09H81.31ZM81.31 42.89V21.83H90.14V42.89H81.31ZM80.22 42.89H52.93V21.83H80.22V42.89ZM51.84 42.89H43.01V21.83H51.84V42.89ZM41.92 42.89H17.17V21.83H41.92V42.89ZM41.92 43.98V52.09H17.17V43.98H41.92ZM41.92 53.18V74.24H17.17V53.18H41.92ZM41.92 75.33V83.44H17.17V75.33H41.92ZM41.92 84.52V105.58H17.17V84.52H41.92ZM43.01 84.52H51.84V105.58H43.01V84.52ZM52.93 84.52H80.22V105.58H52.93V84.52ZM81.31 84.52H90.14V105.58H81.31V84.52ZM91.23 84.52H118.52V105.58H91.23V84.52ZM91.23 83.43V75.32H118.52V83.43H91.23ZM91.23 74.24V53.18H118.52V74.24H91.23ZM91.23 52.09V43.98H118.52V52.09H91.23ZM91.23 42.89V21.83H118.52V42.89H91.23ZM90.14 12.63V20.74H81.31V12.63H90.14ZM80.22 12.63V20.74H52.93V12.63H80.22ZM51.84 12.63V20.74H43.01V12.63H51.84ZM41.92 12.63V20.74H17.17V12.63H41.92ZM7.25998 12.63H16.09V20.74H7.25998V12.63ZM7.25998 21.83H16.09V42.89H7.25998V21.83ZM7.25998 43.98H16.09V52.09H7.25998V43.98ZM7.25998 53.18H16.09V74.24H7.25998V53.18ZM7.25998 75.33H16.09V83.44H7.25998V75.33ZM7.25998 84.52H16.09V105.58H7.25998V84.52ZM7.25998 114.78V106.67H16.09V114.78H7.25998ZM17.17 114.78V106.67H41.92V114.78H17.17ZM43.01 114.78V106.67H51.84V114.78H43.01ZM52.93 114.78V106.67H80.22V114.78H52.93ZM81.31 114.78V106.67H90.14V114.78H81.31ZM91.23 114.78V106.67H118.52V114.78H91.23ZM128.44 114.78H119.61V106.67H128.44V114.78ZM128.44 105.58H119.61V84.52H128.44V105.58ZM128.44 83.43H119.61V75.32H128.44V83.43ZM128.44 74.24H119.61V53.18H128.44V74.24ZM128.44 52.09H119.61V43.98H128.44V52.09ZM128.44 42.89H119.61V21.83H128.44V42.89ZM128.44 20.74H119.61V12.63H128.44V20.74Z" fill="#8A94DD"/>
</g>
<path d="M69.0199 50.02C70.2018 50.02 71.1599 49.0619 71.1599 47.88C71.1599 46.6981 70.2018 45.74 69.0199 45.74C67.838 45.74 66.8799 46.6981 66.8799 47.88C66.8799 49.0619 67.838 50.02 69.0199 50.02Z" fill="#8A94DD"/>
<path d="M69.0199 64.51C70.2018 64.51 71.1599 63.5519 71.1599 62.37C71.1599 61.1881 70.2018 60.23 69.0199 60.23C67.838 60.23 66.8799 61.1881 66.8799 62.37C66.8799 63.5519 67.838 64.51 69.0199 64.51Z" fill="#8A94DD"/>
<path d="M69.0199 79.01C70.2018 79.01 71.1599 78.0519 71.1599 76.87C71.1599 75.6881 70.2018 74.73 69.0199 74.73C67.838 74.73 66.8799 75.6881 66.8799 76.87C66.8799 78.0519 67.838 79.01 69.0199 79.01Z" fill="#8A94DD"/>
<path d="M69.0199 93.5C70.2018 93.5 71.1599 92.5419 71.1599 91.36C71.1599 90.1781 70.2018 89.22 69.0199 89.22C67.838 89.22 66.8799 90.1781 66.8799 91.36C66.8799 92.5419 67.838 93.5 69.0199 93.5Z" fill="#8A94DD"/>
<path d="M69.0199 108C70.2018 108 71.1599 107.042 71.1599 105.86C71.1599 104.678 70.2018 103.72 69.0199 103.72C67.838 103.72 66.8799 104.678 66.8799 105.86C66.8799 107.042 67.838 108 69.0199 108Z" fill="#8A94DD"/>
<path d="M58.2897 1.66995C59.1397 5.89995 62.3997 25.67 64.3997 35.68C64.5897 36.63 63.4997 37.36 62.5997 36.9599L51.7297 28.0199C51.5697 27.9499 49.1797 25.9499 49.1797 22.6399L49.6997 8.77995C49.6997 3.24995 51.7297 3.09995 51.7297 3.09995C52.5497 2.54995 58.0997 0.72995 58.2897 1.66995Z" fill="#4D55C0"/>
<path d="M73.8997 2.22999C74.4197 1.01999 75.7797 0.399989 77.0197 0.839989C80.3997 2.02999 85.1097 4.35999 85.0797 8.47999L84.8997 24.07C84.8197 25.36 84.1197 26.52 83.0197 27.19C78.9497 29.64 70.3197 35.09 64.9897 37.59C63.7697 38.17 62.4797 36.93 62.9997 35.68C66.4197 27.4 71.9397 6.78999 73.8997 2.22999Z" fill="#3A3B92"/>
</g>
<defs>
<clipPath id="clip0_301_14613">
<rect width="119.61" height="122.6" fill="white" transform="translate(0 0.699951)"/>
</clipPath>
</defs>
</svg>
