<svg width="110" height="134" viewBox="0 0 110 134" fill="none" xmlns="http://www.w3.org/2000/svg">
<g clip-path="url(#clip0_301_8573)">
<path d="M24.1298 5.39001V15.95C24.1298 45.72 23.4698 59.06 18.5398 69.52C16.8498 73.1 14.6898 75.59 12.0998 77.28L0.779785 51.4C0.879785 51.42 0.979785 51.42 1.07979 51.42C9.26978 51.42 9.73979 35.78 10.4198 24.27C10.6098 21.06 11.5398 17.26 14.5298 13.59C17.7398 9.66002 21.2598 7.04001 24.1298 5.39001Z" fill="#721E6E"/>
<path d="M94.3896 91.05C98.5596 98.8801 97.1196 115.94 90.8996 123.47C90.6996 123.72 90.4796 123.97 90.2596 124.21C90.1496 124.35 90.0196 124.48 89.8996 124.61C89.5696 124.96 89.2396 125.29 88.8996 125.61C88.6896 125.8 88.4696 125.99 88.2596 126.17C87.4396 126.85 86.5896 127.44 85.7096 127.92V133.51L79.8396 133.49H77.8396L68.7696 133.45H66.7696L57.7096 133.41H55.7096L51.4596 133.39V133.51H17.4796V127.26C15.9896 126.02 14.6496 124.78 13.4496 123.54C13.1096 123.19 12.7696 122.83 12.4496 122.48C12.0996 122.1 11.7696 121.72 11.4496 121.34C7.51963 116.68 5.39963 112.07 4.47963 107.77L4.39963 107.08L3.86963 102.19C3.86963 101.91 3.86963 101.63 3.88963 101.36C4.16963 91.1401 10.1496 83.2801 10.1396 83.8101L10.2196 75.7901L10.2296 74.4701L10.2396 72.66L10.5096 37.5801C10.5096 34.3701 10.0596 23.08 12.0896 17.3601C13.6796 12.9001 18.3996 8.42005 18.5896 8.24005V8.23005C18.5896 8.23005 21.5396 5.58005 24.1596 4.12005C30.8096 0.43005 33.4296 0.49005 36.7296 0.49005C38.3796 6.78005 44.8996 10.61 51.5196 10.61C57.0896 10.61 62.7296 7.90005 65.5996 1.65005L66.0696 0.99005C66.0696 0.99005 76.6696 1.34005 87.2596 9.87005C87.7496 10.26 88.2396 10.68 88.7296 11.1C91.2896 13.36 93.8196 16.12 96.1696 19.48C99.6096 24.4 102.03 29.9601 103.55 35.7701C105.1 41.6701 107.58 52.0101 109.86 65.4201H89.2396L87.2596 58.16V81.73C87.2596 81.73 87.6096 81.8901 88.2596 82.4501C88.7596 82.8801 89.4396 83.5601 90.2596 84.58C91.3896 85.9901 92.7896 88.04 94.3896 91.05Z" fill="#8E2589"/>
<path d="M66.3198 35.3V41.33C66.3198 43.03 66.9998 44.66 68.1998 45.86L71.3898 49.05C72.0098 49.67 73.0198 49.67 73.6498 49.05L76.8398 45.86C78.0398 44.66 78.7198 43.03 78.7198 41.33V35.3H66.3198Z" fill="#FFFFEB"/>
<path d="M87.2597 68.4V71.35C85.0297 68.85 82.5397 66.6 79.8397 64.61V133.49H77.8397V63.19C75.0097 61.31 71.9697 59.73 68.7697 58.46V133.45H66.7697V57.71C63.8197 56.7 60.7797 55.97 57.7097 55.54V133.41H55.7097V55.29C52.7197 54.99 49.6197 54.96 46.6397 55.19V133.51H44.6397V55.4C41.5597 55.78 38.5197 56.44 35.5797 57.38V133.51H33.5797V58.08C30.3997 59.26 27.3597 60.75 24.5197 62.53V133.51H22.5197V63.86C20.2497 65.44 18.0897 67.22 16.0897 69.19C15.1897 70.08 14.2997 71.04 13.4497 72.03V123.54C13.1097 123.19 12.7697 122.83 12.4497 122.48C12.0997 122.1 11.7697 121.72 11.4497 121.34V74.32C10.9897 74.84 10.5497 75.37 10.2197 75.79L10.2297 74.47L10.2397 72.66C10.4797 72.39 10.7097 72.13 10.9297 71.88C11.2197 71.54 11.4897 71.23 11.6897 71C12.6497 69.87 13.6597 68.78 14.6897 67.77C17.2397 65.25 20.0297 63.02 22.9797 61.13C26.4697 58.87 30.2597 57.04 34.2597 55.69C37.8897 54.47 41.6897 53.66 45.5397 53.27C49.2397 52.91 53.1497 52.94 56.8297 53.39C60.6597 53.84 64.4597 54.73 68.1097 56.05C72.1197 57.51 75.9197 59.45 79.3997 61.81C82.2397 63.74 84.8797 65.95 87.2597 68.4Z" fill="#FFFFEB"/>
<path d="M90.2598 84.5799V124.21C90.1498 124.35 90.0198 124.48 89.8998 124.61C89.5698 124.96 89.2398 125.29 88.8998 125.61C88.6898 125.8 88.4698 125.99 88.2598 126.17V82.45C88.7598 82.88 89.4398 83.5599 90.2598 84.5799Z" fill="#FFFFEB"/>
</g>
<defs>
<clipPath id="clip0_301_8573">
<rect width="109.08" height="133.02" fill="white" transform="translate(0.779785 0.48999)"/>
</clipPath>
</defs>
</svg>
