<svg width="95" height="92" viewBox="0 0 95 92" fill="none" xmlns="http://www.w3.org/2000/svg">
<g clip-path="url(#clip0_301_5857)">
<path d="M54.8003 16.76V16.75L54.8103 16.76H54.8003Z" fill="#E0DB99"/>
<path d="M33.8102 5.47998L32.0402 66.57C28.6802 69.7 25.4202 71.79 22.2602 72.83C9.66018 76.96 0.930176 69.69 0.930176 69.69L9.14018 60.72C9.14018 60.72 22.3002 66.62 23.9302 49.45L24.5302 19.48C24.5302 11.95 33.8102 5.47998 33.8102 5.47998Z" fill="#C12B3F"/>
<path d="M94.5302 79.48H82.9902C82.9902 79.48 82.9902 77.97 82.9202 75.58C82.8902 74.71 80.8002 56.82 79.5402 50.25V50.24C79.3302 49.13 79.1402 48.34 78.9902 48.02V91.73L54.5402 91.66L47.7202 91.63V91.68H28.4302V10.43C28.4302 10.43 35.8302 0.27002 46.2602 0.27002C46.2602 0.27002 56.5802 0.27002 62.4102 0.27002C62.4102 0.27002 64.0202 0.27002 66.3002 0.93002C68.5802 1.58002 71.5202 2.88002 74.1702 5.48002C90.8802 21.85 94.3902 50.87 94.3902 75.58C94.3902 76.86 94.4902 78.16 94.5302 79.48Z" fill="#F9364D"/>
<path d="M78.9902 50.24H28.4302V79.54H78.9902V50.24Z" fill="#FFFFEB"/>
</g>
<defs>
<clipPath id="clip0_301_5857">
<rect width="93.6" height="91.46" fill="white" transform="translate(0.930176 0.27002)"/>
</clipPath>
</defs>
</svg>
