<svg width="73" height="96" viewBox="0 0 73 96" fill="none" xmlns="http://www.w3.org/2000/svg">
<g clip-path="url(#clip0_301_5788)">
<path d="M33.6699 20.46V20.45L33.6799 20.46H33.6699Z" fill="#E0DB99"/>
<path d="M12.6898 9.18994L11.2298 59.5599H1.31982C2.03982 57.9099 2.55982 55.8099 2.80982 53.1599L3.40982 23.1899C3.40982 15.6599 12.6898 9.18994 12.6898 9.18994Z" fill="#F2A65E"/>
<path d="M72.4498 60.2H59.4198C58.8098 55.97 58.2198 52.5 57.8598 51.73V95.44L33.4098 95.36V95.37L26.5898 95.35V95.4H7.2998V14.15C7.2998 14.15 14.6998 3.98998 25.1298 3.98998V13.67L33.4098 20.25L33.6698 20.45L41.1298 13.66L41.2798 3.97998C41.2798 3.97998 47.7298 3.98998 53.0398 9.18998C65.5698 21.46 70.6798 40.85 72.4498 60.2Z" fill="#FFE478"/>
<path d="M42.8695 2.44004L47.8595 5.85004L44.2395 24.71C44.2295 24.76 44.1595 24.79 44.1095 24.76C43.1895 24.28 36.7995 21.03 32.5195 21.23L41.9595 2.64004C42.1095 2.33004 42.5595 2.23004 42.8695 2.44004Z" fill="#F2A65E"/>
<path d="M23.7498 1.99998L18.7598 5.71998L21.9598 25.14C21.9698 25.2 22.0398 25.23 22.0898 25.2C23.0098 24.68 29.3998 21.13 33.6798 21.34L24.6598 2.20998C24.5098 1.87998 24.0498 1.76998 23.7498 1.99998Z" fill="#F2A65E"/>
<mask id="mask0_301_5788" style="mask-type:luminance" maskUnits="userSpaceOnUse" x="1" y="3" width="72" height="93">
<path d="M53.0398 9.18998C47.7298 3.98998 41.2798 3.97998 41.2798 3.97998L41.1298 13.66L33.6698 20.45L33.4098 20.25L25.1298 13.67V3.98998C14.6998 3.98998 7.29982 14.15 7.29982 14.15V14.24C5.25982 16.7 3.40982 19.84 3.40982 23.19L2.80982 53.16C2.55982 55.81 2.03982 57.91 1.31982 59.56H7.29982V95.4H26.5898V95.35L33.4098 95.37V95.36L57.8598 95.44V51.73C58.2198 52.5 58.8098 55.97 59.4198 60.2H72.4498C70.6798 40.85 65.5698 21.46 53.0398 9.18998Z" fill="white"/>
</mask>
<g mask="url(#mask0_301_5788)">
<path d="M88.4398 8.74002V7.87001H83.0698V0.640015H82.1998V7.87001H75.1698V0.640015H74.2998V7.87001H52.5398V0.640015H51.6698V7.87001H44.6398V0.640015H43.7698V7.87001H22.0098V0.640015H21.1398V7.87001H14.1098V0.640015H13.2398V7.87001H-6.49018V0.640015H-7.36018V7.87001H-14.3902V0.640015H-15.2602V7.87001H-22.1802V8.74002H-15.2602V15.2H-22.1802V16.07H-15.2602V32.86H-22.1802V33.73H-15.2602V40.19H-22.1802V41.06H-15.2602V57.85H-22.1802V58.72H-15.2602V65.18H-22.1802V66.05H-15.2602V82.84H-22.1802V83.71H-15.2602V90.17H-22.1802V91.04H-15.2602V98.78H-14.3902V91.04H-7.36018V98.78H-6.49018V91.04H13.2298V98.78H14.0998V91.04H21.1298V98.78H21.9998V91.04H43.7498V98.78H44.6198V91.04H51.6498V98.78H52.5198V91.04H74.2998V98.78H75.1698V91.04H82.1998V98.78H83.0698V91.04H88.4398V90.17H83.0698V83.71H88.4398V82.84H83.0698V66.05H88.4398V65.18H83.0698V58.72H88.4398V57.85H83.0698V41.06H88.4398V40.19H83.0698V33.73H88.4398V32.86H83.0698V16.07H88.4398V15.2H83.0698V8.74002H88.4398ZM74.2998 8.74002V15.2H52.5398V8.74002H74.2998ZM22.0098 40.19V33.73H43.7598V40.19H22.0098ZM43.7698 41.06V57.85H22.0098V41.06H43.7698ZM21.1398 40.19H14.1098V33.73H21.1398V40.19ZM21.1398 41.06V57.85H14.1098V41.06H21.1398ZM21.1398 58.72V65.18H14.1098V58.72H21.1398ZM22.0098 58.72H43.7598V65.18H22.0098V58.72ZM44.6398 58.72H51.6698V65.18H44.6398V58.72ZM44.6398 57.85V41.06H51.6698V57.85H44.6398ZM44.6398 40.19V33.73H51.6698V40.19H44.6398ZM44.6398 32.86V16.07H51.6698V32.86H44.6398ZM43.7698 32.86H22.0098V16.07H43.7598V32.86H43.7698ZM21.1398 32.86H14.1098V16.07H21.1398V32.86ZM13.2398 32.86H-6.49018V16.07H13.2298V32.86H13.2398ZM13.2398 33.73V40.19H-6.49018V33.73H13.2398ZM13.2398 41.06V57.85H-6.49018V41.06H13.2398ZM13.2398 58.72V65.18H-6.49018V58.72H13.2398ZM13.2398 66.05V82.84H-6.49018V66.05H13.2398ZM14.1098 66.05H21.1398V82.84H14.1098V66.05ZM22.0098 66.05H43.7598V82.84H22.0098V66.05ZM44.6398 66.05H51.6698V82.84H44.6398V66.05ZM52.5398 66.05H74.2998V82.84H52.5398V66.05ZM52.5398 65.18V58.72H74.2998V65.18H52.5398ZM52.5398 57.85V41.06H74.2998V57.85H52.5398ZM52.5398 40.19V33.73H74.2998V40.19H52.5398ZM52.5398 32.86V16.07H74.2998V32.86H52.5398ZM51.6698 8.74002V15.2H44.6398V8.74002H51.6698ZM43.7698 8.74002V15.2H22.0098V8.74002H43.7698ZM21.1398 8.74002V15.2H14.1098V8.74002H21.1398ZM13.2398 8.74002V15.2H-6.49018V8.74002H13.2398ZM-14.3902 8.74002H-7.36018V15.2H-14.3902V8.74002ZM-14.3902 16.07H-7.36018V32.86H-14.3902V16.07ZM-14.3902 33.73H-7.36018V40.19H-14.3902V33.73ZM-14.3902 41.06H-7.36018V57.85H-14.3902V41.06ZM-14.3902 58.72H-7.36018V65.18H-14.3902V58.72ZM-14.3902 66.05H-7.36018V82.84H-14.3902V66.05ZM-14.3902 90.16V83.7H-7.36018V90.16H-14.3902ZM-6.49018 90.16V83.7H13.2298V90.16H-6.49018ZM14.1098 90.16V83.7H21.1398V90.16H14.1098ZM22.0098 90.16V83.7H43.7598V90.16H22.0098ZM44.6398 90.16V83.7H51.6698V90.16H44.6398ZM52.5398 90.16V83.7H74.2998V90.16H52.5398ZM82.1998 90.16H75.1698V83.7H82.1998V90.16ZM82.1998 82.83H75.1698V66.05H82.1998V82.83ZM82.1998 65.18H75.1698V58.72H82.1998V65.18ZM82.1998 57.85H75.1698V41.06H82.1998V57.85ZM82.1998 40.19H75.1698V33.73H82.1998V40.19ZM82.1998 32.86H75.1698V16.07H82.1998V32.86ZM82.1998 15.2H75.1698V8.74002H82.1998V15.2Z" fill="#F2A65E"/>
</g>
</g>
<defs>
<clipPath id="clip0_301_5788">
<rect width="71.55" height="94.72" fill="white" transform="translate(0.899902 0.640015)"/>
</clipPath>
</defs>
</svg>
