<svg width="72" height="92" viewBox="0 0 72 92" fill="none" xmlns="http://www.w3.org/2000/svg">
<g clip-path="url(#clip0_301_5849)">
<path d="M32.7803 16.76V16.75L32.7903 16.76H32.7803Z" fill="#E0DB99"/>
<path d="M11.6001 5.47998L10.1301 55.85H0.120117C0.850117 54.2 1.37012 52.1 1.62012 49.45L2.23012 19.48C2.23012 11.95 11.6001 5.47998 11.6001 5.47998Z" fill="#FF6B97"/>
<path d="M71.9302 56.49H58.7802C58.1602 52.26 57.5702 48.79 57.2102 48.02V91.73L32.5202 91.65V91.66L25.6302 91.64V91.69H6.16016V10.44C6.16016 10.44 13.6302 0.28002 24.1602 0.28002C24.1602 2.75002 25.2902 5.07002 27.2302 6.60002L27.3702 6.71002C30.3702 9.07002 34.6202 9.00002 37.5402 6.53002L37.6202 6.46002C39.3402 5.00002 40.3802 2.89002 40.4602 0.63002V0.27002C40.4602 0.27002 46.9702 0.28002 52.3302 5.48002C64.9902 17.75 70.1502 37.14 71.9302 56.49Z" fill="#FFB5B5"/>
</g>
<defs>
<clipPath id="clip0_301_5849">
<rect width="71.81" height="91.46" fill="white" transform="translate(0.120117 0.27002)"/>
</clipPath>
</defs>
</svg>
