<svg width="123" height="114" viewBox="0 0 123 114" fill="none" xmlns="http://www.w3.org/2000/svg">
<g clip-path="url(#clip0_301_11630)">
<path d="M122.81 101.555H106.96C106.96 101.555 106.84 100.335 106.64 98.255C104.82 102.345 101.87 106.015 98.0998 109.055V113.745L62.1598 113.645L62.0698 107.985L63.7098 24.155L77.5198 2.69498C77.5198 2.69498 79.1298 2.59498 81.5898 3.01498C85.1598 3.63498 90.4898 5.35498 95.2698 10.135L95.2798 10.145C95.7698 10.635 96.2498 11.155 96.7398 11.715C110.53 27.585 121.96 70.085 122.81 101.555Z" fill="#FFE478"/>
<path d="M95.27 50.595V70.825C95.27 70.825 100.29 74.745 104.26 83.545L95.27 50.595Z" fill="#F2A65E"/>
<path d="M42.1001 16.6549L42.0901 35.1649C42.0901 60.1149 42.5301 63.6649 38.3901 72.4349C35.0401 79.5249 31.0801 84.0049 21.2501 83.6549C3.85006 83.0249 -0.519938 73.8849 0.560062 56.8649L16.4701 56.9549C16.4701 61.6549 30.5901 71.0349 30.5901 42.1349C30.5901 39.4449 31.5401 26.6049 34.0401 23.5349C36.7401 20.2349 39.6901 18.0349 42.1001 16.6549Z" fill="#BA6156"/>
<path d="M64.3799 113.735H36.7999V108.495C30.1199 102.945 27.0099 97.295 25.9099 92.165L25.8399 91.585L25.3999 87.485C25.3999 87.255 25.3999 87.015 25.4199 86.785C25.6499 78.225 30.6699 72.205 30.6699 72.645L30.9699 33.335C30.9699 30.645 31.8099 15.955 43.2399 7.085C48.2699 3.175 52.4699 2.255 55.2399 2.255L54.2199 13.035L64.4199 23.665L64.3799 113.735Z" fill="#F2A65E"/>
<path d="M68.2203 52.505C69.1647 52.505 69.9303 51.7394 69.9303 50.795C69.9303 49.8506 69.1647 49.085 68.2203 49.085C67.2758 49.085 66.5103 49.8506 66.5103 50.795C66.5103 51.7394 67.2758 52.505 68.2203 52.505Z" fill="#FF9166"/>
<path d="M68.2203 64.0749C69.1647 64.0749 69.9303 63.3093 69.9303 62.3649C69.9303 61.4205 69.1647 60.6549 68.2203 60.6549C67.2758 60.6549 66.5103 61.4205 66.5103 62.3649C66.5103 63.3093 67.2758 64.0749 68.2203 64.0749Z" fill="#FF9166"/>
<path d="M68.2203 75.635C69.1647 75.635 69.9303 74.8694 69.9303 73.925C69.9303 72.9806 69.1647 72.215 68.2203 72.215C67.2758 72.215 66.5103 72.9806 66.5103 73.925C66.5103 74.8694 67.2758 75.635 68.2203 75.635Z" fill="#FF9166"/>
<path d="M68.2203 87.1949C69.1647 87.1949 69.9303 86.4293 69.9303 85.4849C69.9303 84.5405 69.1647 83.7749 68.2203 83.7749C67.2758 83.7749 66.5103 84.5405 66.5103 85.4849C66.5103 86.4293 67.2758 87.1949 68.2203 87.1949Z" fill="#FF9166"/>
<path d="M68.2203 98.765C69.1647 98.765 69.9303 97.9994 69.9303 97.055C69.9303 96.1106 69.1647 95.345 68.2203 95.345C67.2758 95.345 66.5103 96.1106 66.5103 97.055C66.5103 97.9994 67.2758 98.765 68.2203 98.765Z" fill="#FF9166"/>
<path d="M58.02 0.664979C59.01 3.51498 63.99 13.745 66.34 20.485C66.56 21.125 67.77 23.635 64.39 24.695L56.34 18.015C56.22 17.985 54.15 15.825 54.06 14.525L53.47 6.06498C52.78 2.47498 54.33 1.93498 54.33 1.93498C54.84 1.48498 57.79 0.0249792 58.02 0.664979Z" fill="#FFE478"/>
<path d="M75.4799 1.18495C75.9199 0.374954 76.9099 0.0249544 77.7399 0.414954C80.0199 1.46495 82.6399 5.69495 82.1299 7.75495L80.6899 17.305C80.5599 18.195 79.9899 18.965 79.1799 19.355C76.1899 20.805 68.8899 23.515 65.0199 24.915C64.1299 25.235 61.7399 23.455 63.2499 20.895C66.4499 15.505 73.8299 4.23495 75.4799 1.18495Z" fill="#F2A65E"/>
</g>
<defs>
<clipPath id="clip0_301_11630">
<rect width="122.4" height="113.49" fill="white" transform="translate(0.410156 0.255005)"/>
</clipPath>
</defs>
</svg>
