<svg width="88" height="22" viewBox="0 0 88 22" fill="none" xmlns="http://www.w3.org/2000/svg">
<g clip-path="url(#clip0_301_1869)">
<path d="M39.35 17.46V10.49L14.87 0.890015C14.87 0.890015 0.75 5.60001 0 17.46H39.35Z" fill="#FC9E17"/>
<path d="M39.35 17.46H0V21.04H39.35V17.46Z" fill="#F1EDB9"/>
<path d="M12.24 9.17004C13.6042 9.17004 14.71 8.06418 14.71 6.70004C14.71 5.3359 13.6042 4.23004 12.24 4.23004C10.8759 4.23004 9.77002 5.3359 9.77002 6.70004C9.77002 8.06418 10.8759 9.17004 12.24 9.17004Z" fill="#162330"/>
<path d="M6.65994 13.5C8.02408 13.5 9.12994 12.3941 9.12994 11.03C9.12994 9.66585 8.02408 8.56 6.65994 8.56C5.2958 8.56 4.18994 9.66585 4.18994 11.03C4.18994 12.3941 5.2958 13.5 6.65994 13.5Z" fill="#162330"/>
<path d="M6.87012 11.25C6.87012 11.25 5.26012 9.65001 3.62012 8.57001" stroke="#FAFAFA" stroke-width="2" stroke-miterlimit="10" stroke-linecap="round"/>
<path d="M12 6.70002C12 6.70002 10.39 5.10002 8.75 4.02002" stroke="#FAFAFA" stroke-width="2" stroke-miterlimit="10" stroke-linecap="round"/>
<path d="M29.4799 11.76C29.2399 10.3 27.9699 9.17999 26.4399 9.17999C24.9099 9.17999 23.6499 10.3 23.3999 11.76H29.4799Z" fill="#FBF6D1"/>
<path d="M29.4799 14.61C29.2399 13.15 27.9699 12.03 26.4399 12.03C24.9099 12.03 23.6499 13.15 23.3999 14.61H29.4799Z" fill="#FBF6D1"/>
<path d="M31.1699 14.01C31.4099 15.47 32.6799 16.59 34.2099 16.59C35.7399 16.59 36.9999 15.47 37.2499 14.01H31.1699Z" fill="#FBF6D1"/>
<path d="M31.1699 11.15C31.4099 12.61 32.6799 13.73 34.2099 13.73C35.7399 13.73 36.9999 12.61 37.2499 11.15H31.1699Z" fill="#FBF6D1"/>
<path d="M15.6401 11.43C15.8801 12.89 17.1501 14.01 18.6801 14.01C20.2101 14.01 21.4701 12.89 21.7201 11.43H15.6401Z" fill="#FBF6D1"/>
<path d="M48.4102 17.53V10.56L72.8902 0.960022C72.8902 0.960022 87.0102 5.67002 87.7602 17.53H48.4102Z" fill="#FC9E17"/>
<path d="M48.4029 21.1076L87.7529 21.1076L87.7529 17.5276L48.4029 17.5276L48.4029 21.1076Z" fill="#F1EDB9"/>
<path d="M75.5203 9.24005C76.8844 9.24005 77.9903 8.13419 77.9903 6.77005C77.9903 5.40591 76.8844 4.30005 75.5203 4.30005C74.1561 4.30005 73.0503 5.40591 73.0503 6.77005C73.0503 8.13419 74.1561 9.24005 75.5203 9.24005Z" fill="#162330"/>
<path d="M81.1004 13.57C82.4645 13.57 83.5704 12.4641 83.5704 11.1C83.5704 9.73586 82.4645 8.63 81.1004 8.63C79.7362 8.63 78.6304 9.73586 78.6304 11.1C78.6304 12.4641 79.7362 13.57 81.1004 13.57Z" fill="#162330"/>
<path d="M80.8901 11.32C80.8901 11.32 82.5001 9.72001 84.1401 8.64001" stroke="#FAFAFA" stroke-width="2" stroke-miterlimit="10" stroke-linecap="round"/>
<path d="M75.75 6.77003C75.75 6.77003 77.36 5.17003 79 4.09003" stroke="#FAFAFA" stroke-width="2" stroke-miterlimit="10" stroke-linecap="round"/>
<path d="M58.2803 11.83C58.5203 10.37 59.7903 9.25 61.3203 9.25C62.8503 9.25 64.1103 10.37 64.3603 11.83H58.2803Z" fill="#FBF6D1"/>
<path d="M58.2803 14.68C58.5203 13.22 59.7903 12.1 61.3203 12.1C62.8503 12.1 64.1103 13.22 64.3603 14.68H58.2803Z" fill="#FBF6D1"/>
<path d="M56.5903 14.08C56.3503 15.54 55.0803 16.66 53.5503 16.66C52.0203 16.66 50.7603 15.54 50.5103 14.08H56.5903Z" fill="#FBF6D1"/>
<path d="M56.5903 11.22C56.3503 12.68 55.0803 13.8 53.5503 13.8C52.0203 13.8 50.7603 12.68 50.5103 11.22H56.5903Z" fill="#FBF6D1"/>
<path d="M72.12 11.5C71.88 12.96 70.61 14.08 69.08 14.08C67.55 14.08 66.29 12.96 66.04 11.5H72.12Z" fill="#FBF6D1"/>
</g>
<defs>
<clipPath id="clip0_301_1869">
<rect width="87.76" height="20.22" fill="white" transform="translate(0 0.890015)"/>
</clipPath>
</defs>
</svg>
