<svg width="101" height="80" viewBox="0 0 101 80" fill="none" xmlns="http://www.w3.org/2000/svg">
<g clip-path="url(#clip0_301_2035)">
<path d="M51.3101 7.40499C51.3001 8.66499 51.2601 10.005 51.2101 11.385C51.1001 14.895 50.8601 18.645 50.6101 22.035C50.5101 23.445 50.4101 24.785 50.3001 26.015C49.9901 29.725 49.7001 32.445 49.6001 32.985C49.5101 33.475 49.2601 35.405 48.9701 37.925C48.9701 37.925 48.9601 37.925 48.9601 37.935C48.9201 38.315 48.8701 38.705 48.8301 39.095C48.6001 40.945 48.3801 43.005 48.1501 44.985L47.8601 47.515C47.4601 51.155 47.1301 54.045 47.1301 54.045C47.6501 55.815 48.0101 57.805 48.2601 59.875V59.885C48.3201 60.325 48.3701 60.755 48.4101 61.195C48.6401 63.415 48.7601 65.695 48.8101 67.825C48.8101 68.035 48.8101 68.255 48.8201 68.455V68.495C48.9201 74.245 48.5401 78.915 48.5401 78.915H33.3801V75.625C32.7901 75.535 31.8301 75.655 30.7801 75.855C29.6101 76.085 28.3201 76.405 27.2001 76.725C25.5901 77.175 24.3501 77.595 24.3501 77.595C12.5401 80.925 0.830078 78.915 0.830078 78.915V72.655C1.23008 67.415 5.29008 64.025 9.46008 61.915C10.7201 61.275 11.9701 60.755 13.1401 60.345V60.335C13.5201 60.205 13.8801 60.085 14.2301 59.975C18.8001 58.495 22.1301 54.475 22.5501 49.675C22.8001 46.765 22.7801 43.355 22.5901 39.745C22.5501 39.155 22.5301 38.555 22.4801 37.945C22.4801 37.935 22.4801 37.935 22.4801 37.935C22.3401 35.945 22.1701 33.915 21.9401 31.875C21.8901 31.425 21.8401 30.975 21.7901 30.515C21.3301 26.435 20.7501 22.385 20.1601 18.745C19.9301 17.335 19.7101 15.995 19.4901 14.725C18.4201 8.58499 17.5001 4.34499 17.5001 4.34499C18.0901 4.26499 18.8701 4.18499 19.7901 4.08499C19.8001 4.08499 19.8001 4.08499 19.8001 4.08499C20.0501 4.04499 20.3001 4.02499 20.5801 3.98499C22.3901 3.77499 24.6401 3.50499 27.1001 3.23499C28.2601 3.09499 29.4501 2.95499 30.6701 2.82499C32.2901 2.63499 33.9501 2.44499 35.5701 2.25499C36.9501 2.10499 38.3201 1.94499 39.6201 1.80499C41.4001 1.59499 43.0701 1.40499 44.5701 1.22499C45.8901 1.07499 47.0701 0.944985 48.0401 0.834985C49.8701 0.614985 50.9701 0.484985 50.9701 0.484985C51.2301 2.08499 51.3401 4.54499 51.3101 7.40499Z" fill="#B0305C"/>
<path d="M0.830078 76.825C1.18008 77.225 1.72008 77.475 2.31008 77.475C3.44008 77.475 4.36008 76.555 4.36008 75.425C4.36008 74.295 3.44008 73.375 2.31008 73.375C1.72008 73.375 1.18008 73.625 0.830078 74.025V76.825Z" fill="#FFB5B5"/>
<path d="M11.1298 77.465C12.2565 77.465 13.1698 76.5517 13.1698 75.425C13.1698 74.2983 12.2565 73.385 11.1298 73.385C10.0032 73.385 9.08984 74.2983 9.08984 75.425C9.08984 76.5517 10.0032 77.465 11.1298 77.465Z" fill="#FFB5B5"/>
<path d="M19.9502 77.465C21.0768 77.465 21.9902 76.5517 21.9902 75.425C21.9902 74.2983 21.0768 73.385 19.9502 73.385C18.8235 73.385 17.9102 74.2983 17.9102 75.425C17.9102 76.5517 18.8235 77.465 19.9502 77.465Z" fill="#FFB5B5"/>
<path d="M30.8202 75.425C30.8202 75.575 30.8102 75.715 30.7802 75.855C29.6102 76.085 28.3202 76.405 27.2002 76.725C26.9002 76.375 26.7202 75.925 26.7202 75.435C26.7202 74.305 27.6402 73.385 28.7702 73.385C29.9002 73.375 30.8202 74.295 30.8202 75.425Z" fill="#FFB5B5"/>
<path d="M37.6001 77.465C38.7267 77.465 39.6401 76.5517 39.6401 75.425C39.6401 74.2983 38.7267 73.385 37.6001 73.385C36.4734 73.385 35.5601 74.2983 35.5601 75.425C35.5601 76.5517 36.4734 77.465 37.6001 77.465Z" fill="#FFB5B5"/>
<path d="M46.4199 77.465C47.5465 77.465 48.4599 76.5517 48.4599 75.425C48.4599 74.2983 47.5465 73.385 46.4199 73.385C45.2932 73.385 44.3799 74.2983 44.3799 75.425C44.3799 76.5517 45.2932 77.465 46.4199 77.465Z" fill="#FFB5B5"/>
<path d="M6.72018 70.125C7.84684 70.125 8.76018 69.2117 8.76018 68.085C8.76018 66.9584 7.84684 66.045 6.72018 66.045C5.59351 66.045 4.68018 66.9584 4.68018 68.085C4.68018 69.2117 5.59351 70.125 6.72018 70.125Z" fill="#FFB5B5"/>
<path d="M15.54 70.125C16.6667 70.125 17.58 69.2117 17.58 68.085C17.58 66.9584 16.6667 66.045 15.54 66.045C14.4133 66.045 13.5 66.9584 13.5 68.085C13.5 69.2117 14.4133 70.125 15.54 70.125Z" fill="#FFB5B5"/>
<path d="M24.3603 70.125C25.487 70.125 26.4003 69.2117 26.4003 68.085C26.4003 66.9584 25.487 66.045 24.3603 66.045C23.2337 66.045 22.3203 66.9584 22.3203 68.085C22.3203 69.2117 23.2337 70.125 24.3603 70.125Z" fill="#FFB5B5"/>
<path d="M33.1801 70.125C34.3068 70.125 35.2201 69.2117 35.2201 68.085C35.2201 66.9584 34.3068 66.045 33.1801 66.045C32.0535 66.045 31.1401 66.9584 31.1401 68.085C31.1401 69.2117 32.0535 70.125 33.1801 70.125Z" fill="#FFB5B5"/>
<path d="M42.0102 70.125C43.1369 70.125 44.0502 69.2117 44.0502 68.085C44.0502 66.9584 43.1369 66.045 42.0102 66.045C40.8836 66.045 39.9702 66.9584 39.9702 68.085C39.9702 69.2117 40.8836 70.125 42.0102 70.125Z" fill="#FFB5B5"/>
<path d="M48.8203 68.465C48.7903 68.335 48.7803 68.215 48.7803 68.085C48.7803 67.995 48.7803 67.905 48.8103 67.835C48.8103 68.055 48.8103 68.265 48.8203 68.465Z" fill="#FFB5B5"/>
<path d="M13.18 60.755C13.18 61.885 12.26 62.805 11.13 62.805C10.44 62.805 9.81996 62.455 9.45996 61.925C10.72 61.285 11.97 60.765 13.14 60.355C13.17 60.475 13.18 60.615 13.18 60.755Z" fill="#FFB5B5"/>
<path d="M19.9502 62.785C21.0768 62.785 21.9902 61.8717 21.9902 60.745C21.9902 59.6184 21.0768 58.705 19.9502 58.705C18.8235 58.705 17.9102 59.6184 17.9102 60.745C17.9102 61.8717 18.8235 62.785 19.9502 62.785Z" fill="#FFB5B5"/>
<path d="M28.77 62.785C29.8966 62.785 30.81 61.8717 30.81 60.745C30.81 59.6184 29.8966 58.705 28.77 58.705C27.6433 58.705 26.73 59.6184 26.73 60.745C26.73 61.8717 27.6433 62.785 28.77 62.785Z" fill="#FFB5B5"/>
<path d="M37.6001 62.785C38.7267 62.785 39.6401 61.8717 39.6401 60.745C39.6401 59.6184 38.7267 58.705 37.6001 58.705C36.4734 58.705 35.5601 59.6184 35.5601 60.745C35.5601 61.8717 36.4734 62.785 37.6001 62.785Z" fill="#FFB5B5"/>
<path d="M46.4199 62.785C47.5465 62.785 48.4599 61.8717 48.4599 60.745C48.4599 59.6184 47.5465 58.705 46.4199 58.705C45.2932 58.705 44.3799 59.6184 44.3799 60.745C44.3799 61.8717 45.2932 62.785 46.4199 62.785Z" fill="#FFB5B5"/>
<path d="M24.3603 55.455C25.487 55.455 26.4003 54.5417 26.4003 53.415C26.4003 52.2883 25.487 51.375 24.3603 51.375C23.2337 51.375 22.3203 52.2883 22.3203 53.415C22.3203 54.5417 23.2337 55.455 24.3603 55.455Z" fill="#FFB5B5"/>
<path d="M33.1801 55.455C34.3068 55.455 35.2201 54.5417 35.2201 53.415C35.2201 52.2883 34.3068 51.375 33.1801 51.375C32.0535 51.375 31.1401 52.2883 31.1401 53.415C31.1401 54.5417 32.0535 55.455 33.1801 55.455Z" fill="#FFB5B5"/>
<path d="M42.0102 55.455C43.1369 55.455 44.0502 54.5417 44.0502 53.415C44.0502 52.2883 43.1369 51.375 42.0102 51.375C40.8836 51.375 39.9702 52.2883 39.9702 53.415C39.9702 54.5417 40.8836 55.455 42.0102 55.455Z" fill="#FFB5B5"/>
<path d="M28.77 48.115C29.8966 48.115 30.81 47.2017 30.81 46.075C30.81 44.9484 29.8966 44.035 28.77 44.035C27.6433 44.035 26.73 44.9484 26.73 46.075C26.73 47.2017 27.6433 48.115 28.77 48.115Z" fill="#FFB5B5"/>
<path d="M37.6001 48.115C38.7267 48.115 39.6401 47.2017 39.6401 46.075C39.6401 44.9484 38.7267 44.035 37.6001 44.035C36.4734 44.035 35.5601 44.9484 35.5601 46.075C35.5601 47.2017 36.4734 48.115 37.6001 48.115Z" fill="#FFB5B5"/>
<path d="M47.8501 47.525C47.4901 47.885 46.9801 48.115 46.4201 48.115C45.2901 48.115 44.3701 47.215 44.3701 46.075C44.3701 44.945 45.2901 44.025 46.4201 44.025C47.1501 44.025 47.7901 44.415 48.1401 44.995L47.8501 47.525Z" fill="#FFB5B5"/>
<path d="M26.41 38.745C26.41 39.875 25.49 40.785 24.36 40.785C23.59 40.785 22.93 40.375 22.59 39.755C22.55 39.165 22.53 38.565 22.48 37.955C22.48 37.945 22.48 37.945 22.48 37.945C22.79 37.215 23.52 36.705 24.36 36.705C25.49 36.695 26.41 37.605 26.41 38.745Z" fill="#FFB5B5"/>
<path d="M33.1801 40.775C34.3068 40.775 35.2201 39.8617 35.2201 38.735C35.2201 37.6083 34.3068 36.695 33.1801 36.695C32.0535 36.695 31.1401 37.6083 31.1401 38.735C31.1401 39.8617 32.0535 40.775 33.1801 40.775Z" fill="#FFB5B5"/>
<path d="M42.0102 40.775C43.1369 40.775 44.0502 39.8617 44.0502 38.735C44.0502 37.6083 43.1369 36.695 42.0102 36.695C40.8836 36.695 39.9702 37.6083 39.9702 38.735C39.9702 39.8617 40.8836 40.775 42.0102 40.775Z" fill="#FFB5B5"/>
<path d="M48.9498 37.945C48.9098 38.325 48.8598 38.715 48.8198 39.105C48.7898 38.995 48.7798 38.865 48.7798 38.745C48.7798 38.465 48.8498 38.185 48.9498 37.945Z" fill="#FFB5B5"/>
<path d="M22 31.405C22 31.565 21.97 31.735 21.94 31.885C21.89 31.435 21.84 30.985 21.79 30.525C21.92 30.785 22 31.085 22 31.405Z" fill="#FFB5B5"/>
<path d="M28.77 33.435C29.8966 33.435 30.81 32.5217 30.81 31.395C30.81 30.2684 29.8966 29.355 28.77 29.355C27.6433 29.355 26.73 30.2684 26.73 31.395C26.73 32.5217 27.6433 33.435 28.77 33.435Z" fill="#FFB5B5"/>
<path d="M37.6001 33.435C38.7267 33.435 39.6401 32.5217 39.6401 31.395C39.6401 30.2684 38.7267 29.355 37.6001 29.355C36.4734 29.355 35.5601 30.2684 35.5601 31.395C35.5601 32.5217 36.4734 33.435 37.6001 33.435Z" fill="#FFB5B5"/>
<path d="M46.4199 33.435C47.5465 33.435 48.4599 32.5217 48.4599 31.395C48.4599 30.2684 47.5465 29.355 46.4199 29.355C45.2932 29.355 44.3799 30.2684 44.3799 31.395C44.3799 32.5217 45.2932 33.435 46.4199 33.435Z" fill="#FFB5B5"/>
<path d="M24.3603 26.105C25.487 26.105 26.4003 25.1917 26.4003 24.065C26.4003 22.9384 25.487 22.025 24.3603 22.025C23.2337 22.025 22.3203 22.9384 22.3203 24.065C22.3203 25.1917 23.2337 26.105 24.3603 26.105Z" fill="#FFB5B5"/>
<path d="M33.1801 26.105C34.3068 26.105 35.2201 25.1917 35.2201 24.065C35.2201 22.9384 34.3068 22.025 33.1801 22.025C32.0535 22.025 31.1401 22.9384 31.1401 24.065C31.1401 25.1917 32.0535 26.105 33.1801 26.105Z" fill="#FFB5B5"/>
<path d="M42.0102 26.105C43.1369 26.105 44.0502 25.1917 44.0502 24.065C44.0502 22.9384 43.1369 22.025 42.0102 22.025C40.8836 22.025 39.9702 22.9384 39.9702 24.065C39.9702 25.1917 40.8836 26.105 42.0102 26.105Z" fill="#FFB5B5"/>
<path d="M50.6101 22.045C50.5101 23.455 50.4101 24.795 50.3001 26.025C49.4301 25.785 48.7901 24.995 48.7901 24.065C48.7801 23.015 49.5801 22.145 50.6101 22.045Z" fill="#FFB5B5"/>
<path d="M22 16.725C22 17.785 21.2 18.645 20.15 18.745C19.92 17.335 19.7 15.995 19.48 14.725C19.63 14.685 19.78 14.675 19.94 14.675C21.08 14.685 22 15.595 22 16.725Z" fill="#FFB5B5"/>
<path d="M28.77 18.765C29.8966 18.765 30.81 17.8517 30.81 16.725C30.81 15.5983 29.8966 14.685 28.77 14.685C27.6433 14.685 26.73 15.5983 26.73 16.725C26.73 17.8517 27.6433 18.765 28.77 18.765Z" fill="#FFB5B5"/>
<path d="M37.6001 18.765C38.7267 18.765 39.6401 17.8517 39.6401 16.725C39.6401 15.5983 38.7267 14.685 37.6001 14.685C36.4734 14.685 35.5601 15.5983 35.5601 16.725C35.5601 17.8517 36.4734 18.765 37.6001 18.765Z" fill="#FFB5B5"/>
<path d="M46.4199 18.765C47.5465 18.765 48.4599 17.8517 48.4599 16.725C48.4599 15.5983 47.5465 14.685 46.4199 14.685C45.2932 14.685 44.3799 15.5983 44.3799 16.725C44.3799 17.8517 45.2932 18.765 46.4199 18.765Z" fill="#FFB5B5"/>
<path d="M24.3603 11.425C25.487 11.425 26.4003 10.5117 26.4003 9.38503C26.4003 8.25837 25.487 7.34503 24.3603 7.34503C23.2337 7.34503 22.3203 8.25837 22.3203 9.38503C22.3203 10.5117 23.2337 11.425 24.3603 11.425Z" fill="#FFB5B5"/>
<path d="M33.1801 11.425C34.3068 11.425 35.2201 10.5117 35.2201 9.38503C35.2201 8.25837 34.3068 7.34503 33.1801 7.34503C32.0535 7.34503 31.1401 8.25837 31.1401 9.38503C31.1401 10.5117 32.0535 11.425 33.1801 11.425Z" fill="#FFB5B5"/>
<path d="M42.0102 11.425C43.1369 11.425 44.0502 10.5117 44.0502 9.38503C44.0502 8.25837 43.1369 7.34503 42.0102 7.34503C40.8836 7.34503 39.9702 8.25837 39.9702 9.38503C39.9702 10.5117 40.8836 11.425 42.0102 11.425Z" fill="#FFB5B5"/>
<path d="M51.3103 7.40502C51.3003 8.66502 51.2603 10.005 51.2103 11.385C51.0803 11.415 50.9603 11.425 50.8303 11.425C49.7003 11.425 48.7803 10.505 48.7803 9.38502C48.7803 8.25502 49.7003 7.33502 50.8303 7.33502C51.0003 7.34502 51.1603 7.36502 51.3103 7.40502Z" fill="#FFB5B5"/>
<path d="M20.5803 3.97504C20.3903 4.05504 20.1803 4.08504 19.9503 4.08504C19.9003 4.08504 19.8503 4.08504 19.8003 4.07504C20.0503 4.04504 20.3003 4.01504 20.5803 3.97504Z" fill="#FFB5B5"/>
<path d="M30.6701 2.80499C30.3701 3.55499 29.6301 4.08499 28.7701 4.08499C28.0801 4.08499 27.4801 3.74499 27.1001 3.21499C28.2601 3.08499 29.4501 2.94499 30.6701 2.80499Z" fill="#FFB5B5"/>
<path d="M39.6403 2.04498C39.6403 3.17498 38.7203 4.09498 37.5903 4.09498C36.5203 4.09498 35.6703 3.29498 35.5703 2.24498C36.9503 2.09498 38.3203 1.93498 39.6203 1.79498C39.6403 1.87498 39.6403 1.95498 39.6403 2.04498Z" fill="#FFB5B5"/>
<path d="M48.4601 2.04501C48.4601 3.17501 47.5401 4.09501 46.4201 4.09501C45.2901 4.09501 44.3701 3.17501 44.3701 2.04501C44.3701 1.75501 44.4301 1.46501 44.5601 1.21501C45.8801 1.06501 47.0601 0.935012 48.0301 0.825012C48.3101 1.16501 48.4601 1.59501 48.4601 2.04501Z" fill="#FFB5B5"/>
<path d="M49.8201 7.40499C49.8301 8.66499 49.8701 10.005 49.9201 11.385C50.0301 14.895 50.2701 18.645 50.5201 22.035C50.6201 23.445 50.7201 24.785 50.8301 26.015C51.1401 29.725 51.4301 32.445 51.5301 32.985C51.6201 33.475 51.8701 35.405 52.1601 37.925C52.1601 37.925 52.1701 37.925 52.1701 37.935C52.2101 38.315 52.2601 38.705 52.3001 39.095C52.5301 40.945 52.7501 43.005 52.9801 44.985L53.2701 47.515C53.6701 51.155 54.0001 54.045 54.0001 54.045C53.4801 55.815 53.1201 57.805 52.8701 59.875V59.885C52.8101 60.325 52.7601 60.755 52.7201 61.195C52.4901 63.415 52.3701 65.695 52.3201 67.825C52.3201 68.035 52.3201 68.255 52.3101 68.455V68.495C52.2101 74.245 52.5901 78.915 52.5901 78.915H67.7501V75.625C68.3401 75.535 69.3001 75.655 70.3501 75.855C71.5201 76.085 72.8101 76.405 73.9301 76.725C75.5401 77.175 76.7801 77.595 76.7801 77.595C88.5901 80.935 100.3 78.925 100.3 78.925V72.665C99.9001 67.425 95.8401 64.035 91.6701 61.925C90.4101 61.285 89.1601 60.765 87.9901 60.355V60.345C87.6101 60.215 87.2501 60.095 86.9001 59.985C82.3301 58.505 79.0001 54.485 78.5801 49.685C78.3301 46.775 78.3501 43.365 78.5401 39.755C78.5801 39.165 78.6001 38.565 78.6501 37.955C78.6501 37.945 78.6501 37.945 78.6501 37.945C78.7901 35.955 78.9601 33.925 79.1901 31.885C79.2401 31.435 79.2901 30.985 79.3401 30.525C79.8001 26.445 80.3801 22.395 80.9701 18.755C81.2001 17.345 81.4201 16.005 81.6401 14.735C82.7101 8.58499 83.6301 4.34499 83.6301 4.34499C83.0401 4.26499 82.2601 4.18499 81.3401 4.08499C81.3301 4.08499 81.3301 4.08499 81.3301 4.08499C81.0801 4.04499 80.8301 4.02499 80.5501 3.98499C78.7401 3.77499 76.4901 3.50499 74.0301 3.23499C72.8701 3.09499 71.6801 2.95499 70.4601 2.82499C68.8401 2.63499 67.1801 2.44499 65.5601 2.25499C64.1801 2.10499 62.8101 1.94499 61.5101 1.80499C59.7301 1.59499 58.0601 1.40499 56.5601 1.22499C55.2401 1.07499 54.0601 0.944985 53.0901 0.834985C51.2601 0.614985 50.1601 0.484985 50.1601 0.484985C49.8901 2.08499 49.7901 4.54499 49.8201 7.40499Z" fill="#B0305C"/>
<path d="M100.301 74.035C99.9505 73.635 99.4105 73.385 98.8205 73.385C97.6905 73.385 96.7705 74.305 96.7705 75.435C96.7705 76.565 97.6905 77.485 98.8205 77.485C99.4105 77.485 99.9505 77.235 100.301 76.835V74.035Z" fill="#FFB5B5"/>
<path d="M90.0005 77.465C91.1271 77.465 92.0405 76.5517 92.0405 75.425C92.0405 74.2983 91.1271 73.385 90.0005 73.385C88.8738 73.385 87.9604 74.2983 87.9604 75.425C87.9604 76.5517 88.8738 77.465 90.0005 77.465Z" fill="#FFB5B5"/>
<path d="M81.1806 77.465C82.3073 77.465 83.2206 76.5517 83.2206 75.425C83.2206 74.2983 82.3073 73.385 81.1806 73.385C80.054 73.385 79.1406 74.2983 79.1406 75.425C79.1406 76.5517 80.054 77.465 81.1806 77.465Z" fill="#FFB5B5"/>
<path d="M70.3105 75.425C70.3105 75.575 70.3205 75.715 70.3505 75.855C71.5205 76.085 72.8105 76.405 73.9305 76.725C74.2305 76.375 74.4105 75.925 74.4105 75.435C74.4105 74.305 73.4905 73.385 72.3605 73.385C71.2305 73.375 70.3105 74.295 70.3105 75.425Z" fill="#FFB5B5"/>
<path d="M63.5302 77.465C64.6569 77.465 65.5702 76.5517 65.5702 75.425C65.5702 74.2983 64.6569 73.385 63.5302 73.385C62.4036 73.385 61.4902 74.2983 61.4902 75.425C61.4902 76.5517 62.4036 77.465 63.5302 77.465Z" fill="#FFB5B5"/>
<path d="M54.7104 77.465C55.8371 77.465 56.7504 76.5517 56.7504 75.425C56.7504 74.2983 55.8371 73.385 54.7104 73.385C53.5838 73.385 52.6704 74.2983 52.6704 75.425C52.6704 76.5517 53.5838 77.465 54.7104 77.465Z" fill="#FFB5B5"/>
<path d="M94.4106 70.125C95.5373 70.125 96.4506 69.2117 96.4506 68.085C96.4506 66.9584 95.5373 66.045 94.4106 66.045C93.2839 66.045 92.3706 66.9584 92.3706 68.085C92.3706 69.2117 93.2839 70.125 94.4106 70.125Z" fill="#FFB5B5"/>
<path d="M85.5908 70.125C86.7174 70.125 87.6308 69.2117 87.6308 68.085C87.6308 66.9584 86.7174 66.045 85.5908 66.045C84.4641 66.045 83.5508 66.9584 83.5508 68.085C83.5508 69.2117 84.4641 70.125 85.5908 70.125Z" fill="#FFB5B5"/>
<path d="M76.7705 70.125C77.8971 70.125 78.8105 69.2117 78.8105 68.085C78.8105 66.9584 77.8971 66.045 76.7705 66.045C75.6438 66.045 74.7305 66.9584 74.7305 68.085C74.7305 69.2117 75.6438 70.125 76.7705 70.125Z" fill="#FFB5B5"/>
<path d="M67.9404 70.125C69.0671 70.125 69.9804 69.2117 69.9804 68.085C69.9804 66.9584 69.0671 66.045 67.9404 66.045C66.8137 66.045 65.9004 66.9584 65.9004 68.085C65.9004 69.2117 66.8137 70.125 67.9404 70.125Z" fill="#FFB5B5"/>
<path d="M59.1206 70.125C60.2472 70.125 61.1606 69.2117 61.1606 68.085C61.1606 66.9584 60.2472 66.045 59.1206 66.045C57.9939 66.045 57.0806 66.9584 57.0806 68.085C57.0806 69.2117 57.9939 70.125 59.1206 70.125Z" fill="#FFB5B5"/>
<path d="M52.3105 68.465C52.3405 68.335 52.3505 68.215 52.3505 68.085C52.3505 67.995 52.3505 67.905 52.3205 67.835C52.3205 68.055 52.3205 68.265 52.3105 68.465Z" fill="#FFB5B5"/>
<path d="M87.9502 60.755C87.9502 61.885 88.8702 62.805 90.0002 62.805C90.6902 62.805 91.3102 62.455 91.6702 61.925C90.4102 61.285 89.1602 60.765 87.9902 60.355C87.9602 60.475 87.9502 60.615 87.9502 60.755Z" fill="#FFB5B5"/>
<path d="M81.1806 62.785C82.3073 62.785 83.2206 61.8717 83.2206 60.745C83.2206 59.6184 82.3073 58.705 81.1806 58.705C80.054 58.705 79.1406 59.6184 79.1406 60.745C79.1406 61.8717 80.054 62.785 81.1806 62.785Z" fill="#FFB5B5"/>
<path d="M72.3505 62.785C73.4772 62.785 74.3905 61.8717 74.3905 60.745C74.3905 59.6184 73.4772 58.705 72.3505 58.705C71.2239 58.705 70.3105 59.6184 70.3105 60.745C70.3105 61.8717 71.2239 62.785 72.3505 62.785Z" fill="#FFB5B5"/>
<path d="M63.5302 62.785C64.6569 62.785 65.5702 61.8717 65.5702 60.745C65.5702 59.6184 64.6569 58.705 63.5302 58.705C62.4036 58.705 61.4902 59.6184 61.4902 60.745C61.4902 61.8717 62.4036 62.785 63.5302 62.785Z" fill="#FFB5B5"/>
<path d="M54.7104 62.785C55.8371 62.785 56.7504 61.8717 56.7504 60.745C56.7504 59.6184 55.8371 58.705 54.7104 58.705C53.5838 58.705 52.6704 59.6184 52.6704 60.745C52.6704 61.8717 53.5838 62.785 54.7104 62.785Z" fill="#FFB5B5"/>
<path d="M76.77 55.455C77.8966 55.455 78.81 54.5417 78.81 53.415C78.81 52.2883 77.8966 51.375 76.77 51.375C75.6433 51.375 74.73 52.2883 74.73 53.415C74.73 54.5417 75.6433 55.455 76.77 55.455Z" fill="#FFB5B5"/>
<path d="M67.9399 55.455C69.0666 55.455 69.9799 54.5417 69.9799 53.415C69.9799 52.2883 69.0666 51.375 67.9399 51.375C66.8132 51.375 65.8999 52.2883 65.8999 53.415C65.8999 54.5417 66.8132 55.455 67.9399 55.455Z" fill="#FFB5B5"/>
<path d="M59.1201 55.455C60.2467 55.455 61.1601 54.5417 61.1601 53.415C61.1601 52.2883 60.2467 51.375 59.1201 51.375C57.9934 51.375 57.0801 52.2883 57.0801 53.415C57.0801 54.5417 57.9934 55.455 59.1201 55.455Z" fill="#FFB5B5"/>
<path d="M72.3501 48.115C73.4767 48.115 74.3901 47.2017 74.3901 46.075C74.3901 44.9484 73.4767 44.035 72.3501 44.035C71.2234 44.035 70.3101 44.9484 70.3101 46.075C70.3101 47.2017 71.2234 48.115 72.3501 48.115Z" fill="#FFB5B5"/>
<path d="M63.5302 48.115C64.6569 48.115 65.5702 47.2017 65.5702 46.075C65.5702 44.9484 64.6569 44.035 63.5302 44.035C62.4036 44.035 61.4902 44.9484 61.4902 46.075C61.4902 47.2017 62.4036 48.115 63.5302 48.115Z" fill="#FFB5B5"/>
<path d="M52.9902 44.995C53.3402 44.415 53.9802 44.025 54.7102 44.025C55.8402 44.025 56.7602 44.945 56.7602 46.075C56.7602 47.205 55.8402 48.115 54.7102 48.115C54.1402 48.115 53.6402 47.885 53.2802 47.525L52.9902 44.995Z" fill="#FFB5B5"/>
<path d="M74.7202 38.745C74.7202 39.875 75.6402 40.785 76.7702 40.785C77.5402 40.785 78.2002 40.375 78.5402 39.755C78.5802 39.165 78.6002 38.565 78.6502 37.955C78.6502 37.945 78.6502 37.945 78.6502 37.945C78.3402 37.215 77.6102 36.705 76.7702 36.705C75.6402 36.695 74.7202 37.605 74.7202 38.745Z" fill="#FFB5B5"/>
<path d="M67.9404 40.775C69.0671 40.775 69.9804 39.8617 69.9804 38.735C69.9804 37.6083 69.0671 36.695 67.9404 36.695C66.8137 36.695 65.9004 37.6083 65.9004 38.735C65.9004 39.8617 66.8137 40.775 67.9404 40.775Z" fill="#FFB5B5"/>
<path d="M59.1201 40.775C60.2467 40.775 61.1601 39.8617 61.1601 38.735C61.1601 37.6083 60.2467 36.695 59.1201 36.695C57.9934 36.695 57.0801 37.6083 57.0801 38.735C57.0801 39.8617 57.9934 40.775 59.1201 40.775Z" fill="#FFB5B5"/>
<path d="M52.1802 37.945C52.2202 38.325 52.2702 38.715 52.3102 39.105C52.3402 38.995 52.3502 38.865 52.3502 38.745C52.3402 38.465 52.2802 38.185 52.1802 37.945Z" fill="#FFB5B5"/>
<path d="M79.1304 31.405C79.1304 31.565 79.1604 31.735 79.1904 31.885C79.2404 31.435 79.2904 30.985 79.3404 30.525C79.2104 30.785 79.1304 31.085 79.1304 31.405Z" fill="#FFB5B5"/>
<path d="M72.3505 33.435C73.4772 33.435 74.3905 32.5217 74.3905 31.395C74.3905 30.2684 73.4772 29.355 72.3505 29.355C71.2239 29.355 70.3105 30.2684 70.3105 31.395C70.3105 32.5217 71.2239 33.435 72.3505 33.435Z" fill="#FFB5B5"/>
<path d="M63.5302 33.435C64.6569 33.435 65.5702 32.5217 65.5702 31.395C65.5702 30.2684 64.6569 29.355 63.5302 29.355C62.4036 29.355 61.4902 30.2684 61.4902 31.395C61.4902 32.5217 62.4036 33.435 63.5302 33.435Z" fill="#FFB5B5"/>
<path d="M54.7104 33.435C55.8371 33.435 56.7504 32.5217 56.7504 31.395C56.7504 30.2684 55.8371 29.355 54.7104 29.355C53.5838 29.355 52.6704 30.2684 52.6704 31.395C52.6704 32.5217 53.5838 33.435 54.7104 33.435Z" fill="#FFB5B5"/>
<path d="M76.7705 26.105C77.8971 26.105 78.8105 25.1917 78.8105 24.065C78.8105 22.9384 77.8971 22.025 76.7705 22.025C75.6438 22.025 74.7305 22.9384 74.7305 24.065C74.7305 25.1917 75.6438 26.105 76.7705 26.105Z" fill="#FFB5B5"/>
<path d="M67.9404 26.105C69.0671 26.105 69.9804 25.1917 69.9804 24.065C69.9804 22.9384 69.0671 22.025 67.9404 22.025C66.8137 22.025 65.9004 22.9384 65.9004 24.065C65.9004 25.1917 66.8137 26.105 67.9404 26.105Z" fill="#FFB5B5"/>
<path d="M59.1206 26.105C60.2472 26.105 61.1606 25.1917 61.1606 24.065C61.1606 22.9384 60.2472 22.025 59.1206 22.025C57.9939 22.025 57.0806 22.9384 57.0806 24.065C57.0806 25.1917 57.9939 26.105 59.1206 26.105Z" fill="#FFB5B5"/>
<path d="M50.5205 22.045C50.6205 23.455 50.7205 24.795 50.8305 26.025C51.7005 25.785 52.3405 24.995 52.3405 24.065C52.3405 23.015 51.5505 22.145 50.5205 22.045Z" fill="#FFB5B5"/>
<path d="M79.1304 16.725C79.1304 17.785 79.9304 18.645 80.9804 18.745C81.2104 17.335 81.4304 15.995 81.6504 14.725C81.5004 14.685 81.3504 14.675 81.1904 14.675C80.0504 14.685 79.1304 15.595 79.1304 16.725Z" fill="#FFB5B5"/>
<path d="M72.3505 18.765C73.4772 18.765 74.3905 17.8517 74.3905 16.725C74.3905 15.5983 73.4772 14.685 72.3505 14.685C71.2239 14.685 70.3105 15.5983 70.3105 16.725C70.3105 17.8517 71.2239 18.765 72.3505 18.765Z" fill="#FFB5B5"/>
<path d="M63.5302 18.765C64.6569 18.765 65.5702 17.8517 65.5702 16.725C65.5702 15.5983 64.6569 14.685 63.5302 14.685C62.4036 14.685 61.4902 15.5983 61.4902 16.725C61.4902 17.8517 62.4036 18.765 63.5302 18.765Z" fill="#FFB5B5"/>
<path d="M54.7104 18.765C55.8371 18.765 56.7504 17.8517 56.7504 16.725C56.7504 15.5983 55.8371 14.685 54.7104 14.685C53.5838 14.685 52.6704 15.5983 52.6704 16.725C52.6704 17.8517 53.5838 18.765 54.7104 18.765Z" fill="#FFB5B5"/>
<path d="M76.7705 11.425C77.8971 11.425 78.8105 10.5117 78.8105 9.38503C78.8105 8.25837 77.8971 7.34503 76.7705 7.34503C75.6438 7.34503 74.7305 8.25837 74.7305 9.38503C74.7305 10.5117 75.6438 11.425 76.7705 11.425Z" fill="#FFB5B5"/>
<path d="M67.9404 11.425C69.0671 11.425 69.9804 10.5117 69.9804 9.38503C69.9804 8.25837 69.0671 7.34503 67.9404 7.34503C66.8137 7.34503 65.9004 8.25837 65.9004 9.38503C65.9004 10.5117 66.8137 11.425 67.9404 11.425Z" fill="#FFB5B5"/>
<path d="M59.1201 11.425C60.2467 11.425 61.1601 10.5117 61.1601 9.38503C61.1601 8.25837 60.2467 7.34503 59.1201 7.34503C57.9934 7.34503 57.0801 8.25837 57.0801 9.38503C57.0801 10.5117 57.9934 11.425 59.1201 11.425Z" fill="#FFB5B5"/>
<path d="M49.8203 7.40502C49.8303 8.66502 49.8703 10.005 49.9203 11.385C50.0503 11.415 50.1703 11.425 50.3003 11.425C51.4303 11.425 52.3503 10.505 52.3503 9.38502C52.3503 8.25502 51.4303 7.33502 50.3003 7.33502C50.1303 7.34502 49.9703 7.36502 49.8203 7.40502Z" fill="#FFB5B5"/>
<path d="M80.5503 3.97504C80.7403 4.05504 80.9503 4.08504 81.1803 4.08504C81.2303 4.08504 81.2803 4.08504 81.3303 4.07504C81.0803 4.04504 80.8303 4.01504 80.5503 3.97504Z" fill="#FFB5B5"/>
<path d="M70.4604 2.80499C70.7604 3.55499 71.5005 4.08499 72.3605 4.08499C73.0505 4.08499 73.6504 3.74499 74.0304 3.21499C72.8704 3.08499 71.6804 2.94499 70.4604 2.80499Z" fill="#FFB5B5"/>
<path d="M61.4902 2.04498C61.4902 3.17498 62.4102 4.09498 63.5402 4.09498C64.6102 4.09498 65.4602 3.29498 65.5602 2.24498C64.1802 2.09498 62.8102 1.93498 61.5102 1.79498C61.4902 1.87498 61.4902 1.95498 61.4902 2.04498Z" fill="#FFB5B5"/>
<path d="M52.6704 2.04501C52.6704 3.17501 53.5904 4.09501 54.7104 4.09501C55.8404 4.09501 56.7604 3.17501 56.7604 2.04501C56.7604 1.75501 56.7004 1.46501 56.5704 1.21501C55.2504 1.06501 54.0704 0.935012 53.1004 0.825012C52.8204 1.16501 52.6704 1.59501 52.6704 2.04501Z" fill="#FFB5B5"/>
</g>
<defs>
<clipPath id="clip0_301_2035">
<rect width="99.47" height="79.03" fill="white" transform="translate(0.830078 0.484985)"/>
</clipPath>
</defs>
</svg>
