<svg width="71" height="20" viewBox="0 0 71 20" fill="none" xmlns="http://www.w3.org/2000/svg">
<g clip-path="url(#clip0_301_6065)">
<path d="M17.6699 7.70998L34.5399 0.419983V3.24998L18.5199 9.57998L17.6699 7.70998Z" fill="#FC9221"/>
<path d="M21.8796 15.61L8.61963 16.82L5.36963 5.86001C5.71963 5.57001 6.23963 5.22001 6.86963 4.82001C7.11963 4.67001 7.39963 4.50001 7.67963 4.33001C8.26963 3.98001 8.90963 3.61001 9.54963 3.24001C9.82963 3.09001 10.1096 2.94001 10.3796 2.79001C11.0896 2.39001 11.7896 2.02001 12.4096 1.69001C12.7096 1.53001 12.9996 1.38001 13.2496 1.24001C14.1696 0.760012 14.7696 0.450012 14.7696 0.450012L21.8796 15.61Z" fill="#FBA33D"/>
<path d="M19.6497 15.08L18.7897 15.48L12.4097 1.67998C12.7097 1.51998 12.9997 1.36998 13.2497 1.22998L19.6497 15.08Z" fill="#E18A1D"/>
<path d="M16.2098 15.4L15.3598 15.8L9.5498 3.23998C9.8298 3.08998 10.1098 2.93998 10.3798 2.78998L16.2098 15.4Z" fill="#E18A1D"/>
<path d="M13.1196 16.07L12.2596 16.47L6.86963 4.81996C7.11963 4.66996 7.39963 4.49996 7.67963 4.32996L13.1196 16.07Z" fill="#E18A1D"/>
<path d="M34.5398 12.96V19.58H0.549805V15.13L34.5398 12.96Z" fill="#111E2B"/>
<path d="M7.89963 16.86H6.11963V19.59H7.89963V16.86Z" fill="#414B55"/>
<path d="M21.4199 16.86H19.6499V19.59H21.4199V16.86Z" fill="#414B55"/>
<path d="M26.3596 16.86H24.5796V19.59H26.3596V16.86Z" fill="#414B55"/>
<path d="M31.2998 16.86H29.5298V19.59H31.2998V16.86Z" fill="#414B55"/>
<path d="M53.8297 7.70998L36.9697 0.419983V3.24998L52.9897 9.57998L53.8297 7.70998Z" fill="#FC9221"/>
<path d="M49.6299 15.61L62.8899 16.82L66.1399 5.86001C65.7899 5.58001 65.2699 5.23001 64.6399 4.82001C64.3899 4.67001 64.1099 4.50001 63.8299 4.33001C63.2399 3.98001 62.5999 3.61001 61.9599 3.24001C61.6799 3.09001 61.3999 2.94001 61.1299 2.79001C60.4199 2.39001 59.7199 2.02001 59.0999 1.69001C58.7999 1.53001 58.5099 1.38001 58.2599 1.24001C57.3399 0.760012 56.7399 0.450012 56.7399 0.450012L49.6299 15.61Z" fill="#FBA33D"/>
<path d="M51.8599 15.08L52.7199 15.48L59.0999 1.67998C58.7999 1.51998 58.5099 1.36998 58.2599 1.22998L51.8599 15.08Z" fill="#E18A1D"/>
<path d="M55.2896 15.4L56.1395 15.8L61.9496 3.23998C61.6696 3.08998 61.3895 2.93998 61.1195 2.78998L55.2896 15.4Z" fill="#E18A1D"/>
<path d="M58.3896 16.07L59.2496 16.47L64.6297 4.81996C64.3797 4.66996 64.0996 4.49996 63.8196 4.32996L58.3896 16.07Z" fill="#E18A1D"/>
<path d="M36.9697 12.96V19.58H70.9497V15.13L36.9697 12.96Z" fill="#111E2B"/>
<path d="M65.3796 16.86H63.5996V19.59H65.3796V16.86Z" fill="#414B55"/>
<path d="M51.8496 16.86H50.0796V19.59H51.8496V16.86Z" fill="#414B55"/>
<path d="M46.9196 16.86H45.1396V19.59H46.9196V16.86Z" fill="#414B55"/>
<path d="M41.9697 16.86H40.1997V19.59H41.9697V16.86Z" fill="#414B55"/>
</g>
<defs>
<clipPath id="clip0_301_6065">
<rect width="70.4" height="19.16" fill="white" transform="translate(0.549805 0.419983)"/>
</clipPath>
</defs>
</svg>
