<svg width="100" height="80" viewBox="0 0 100 80" fill="none" xmlns="http://www.w3.org/2000/svg">
<g clip-path="url(#clip0_301_8763)">
<path d="M50.5 7.40499C50.49 8.66499 50.45 10.005 50.4 11.385C50.29 14.895 50.05 18.645 49.8 22.035C49.7 23.445 49.6 24.785 49.49 26.015C49.18 29.725 48.89 32.445 48.79 32.985C48.7 33.475 48.45 35.405 48.16 37.925C48.16 37.925 48.15 37.925 48.15 37.935C48.11 38.315 48.06 38.705 48.02 39.095C47.79 40.945 47.57 43.005 47.34 44.985L47.05 47.515C46.65 51.155 46.32 54.045 46.32 54.045C46.84 55.815 47.2 57.805 47.45 59.875V59.885C47.51 60.325 47.56 60.755 47.6 61.195C47.83 63.415 47.95 65.695 48 67.825C48 68.035 48 68.255 48.01 68.455V68.495C48.11 74.245 47.73 78.915 47.73 78.915H32.57V75.625C31.98 75.535 31.02 75.655 29.97 75.855C28.8 76.085 27.51 76.405 26.39 76.725C24.78 77.175 23.54 77.595 23.54 77.595C11.73 80.925 0.0200195 78.915 0.0200195 78.915V72.655C0.42002 67.415 4.48002 64.025 8.65002 61.915C9.91002 61.275 11.16 60.755 12.33 60.345V60.335C12.71 60.205 13.07 60.085 13.42 59.975C17.99 58.495 21.32 54.475 21.74 49.675C21.99 46.765 21.97 43.355 21.78 39.745C21.74 39.155 21.72 38.555 21.67 37.945C21.67 37.935 21.67 37.935 21.67 37.935C21.53 35.945 21.36 33.915 21.13 31.875C21.08 31.425 21.03 30.975 20.98 30.515C20.52 26.435 19.94 22.385 19.35 18.745C19.12 17.335 18.9 15.995 18.68 14.725C17.61 8.58499 16.69 4.34499 16.69 4.34499C17.28 4.26499 18.06 4.18499 18.98 4.08499C18.99 4.08499 18.99 4.08499 18.99 4.08499C19.24 4.04499 19.49 4.02499 19.77 3.98499C21.58 3.77499 23.83 3.50499 26.29 3.23499C27.45 3.09499 28.64 2.95499 29.86 2.82499C31.48 2.63499 33.14 2.44499 34.76 2.25499C36.14 2.10499 37.51 1.94499 38.81 1.80499C40.59 1.59499 42.26 1.40499 43.76 1.22499C45.08 1.07499 46.26 0.944985 47.23 0.834985C49.06 0.614985 50.16 0.484985 50.16 0.484985C50.42 2.08499 50.53 4.54499 50.5 7.40499Z" fill="#B0305C"/>
<path d="M0.0200195 76.825C0.37002 77.225 0.91002 77.475 1.50002 77.475C2.63002 77.475 3.55002 76.555 3.55002 75.425C3.55002 74.295 2.63002 73.375 1.50002 73.375C0.91002 73.375 0.37002 73.625 0.0200195 74.025V76.825Z" fill="#FFB5B5"/>
<path d="M10.3198 77.465C11.4464 77.465 12.3598 76.5517 12.3598 75.425C12.3598 74.2983 11.4464 73.385 10.3198 73.385C9.19312 73.385 8.27979 74.2983 8.27979 75.425C8.27979 76.5517 9.19312 77.465 10.3198 77.465Z" fill="#FFB5B5"/>
<path d="M19.1401 77.465C20.2668 77.465 21.1801 76.5517 21.1801 75.425C21.1801 74.2983 20.2668 73.385 19.1401 73.385C18.0134 73.385 17.1001 74.2983 17.1001 75.425C17.1001 76.5517 18.0134 77.465 19.1401 77.465Z" fill="#FFB5B5"/>
<path d="M30.0102 75.425C30.0102 75.575 30.0002 75.715 29.9702 75.855C28.8002 76.085 27.5102 76.405 26.3902 76.725C26.0902 76.375 25.9102 75.925 25.9102 75.435C25.9102 74.305 26.8302 73.385 27.9602 73.385C29.0902 73.375 30.0102 74.295 30.0102 75.425Z" fill="#FFB5B5"/>
<path d="M36.79 77.465C37.9167 77.465 38.83 76.5517 38.83 75.425C38.83 74.2983 37.9167 73.385 36.79 73.385C35.6633 73.385 34.75 74.2983 34.75 75.425C34.75 76.5517 35.6633 77.465 36.79 77.465Z" fill="#FFB5B5"/>
<path d="M45.6098 77.465C46.7365 77.465 47.6498 76.5517 47.6498 75.425C47.6498 74.2983 46.7365 73.385 45.6098 73.385C44.4832 73.385 43.5698 74.2983 43.5698 75.425C43.5698 76.5517 44.4832 77.465 45.6098 77.465Z" fill="#FFB5B5"/>
<path d="M5.91012 70.125C7.03678 70.125 7.95012 69.2117 7.95012 68.085C7.95012 66.9584 7.03678 66.045 5.91012 66.045C4.78346 66.045 3.87012 66.9584 3.87012 68.085C3.87012 69.2117 4.78346 70.125 5.91012 70.125Z" fill="#FFB5B5"/>
<path d="M14.7299 70.125C15.8566 70.125 16.7699 69.2117 16.7699 68.085C16.7699 66.9584 15.8566 66.045 14.7299 66.045C13.6033 66.045 12.6899 66.9584 12.6899 68.085C12.6899 69.2117 13.6033 70.125 14.7299 70.125Z" fill="#FFB5B5"/>
<path d="M23.5503 70.125C24.6769 70.125 25.5903 69.2117 25.5903 68.085C25.5903 66.9584 24.6769 66.045 23.5503 66.045C22.4236 66.045 21.5103 66.9584 21.5103 68.085C21.5103 69.2117 22.4236 70.125 23.5503 70.125Z" fill="#FFB5B5"/>
<path d="M32.3701 70.125C33.4967 70.125 34.4101 69.2117 34.4101 68.085C34.4101 66.9584 33.4967 66.045 32.3701 66.045C31.2434 66.045 30.3301 66.9584 30.3301 68.085C30.3301 69.2117 31.2434 70.125 32.3701 70.125Z" fill="#FFB5B5"/>
<path d="M41.2002 70.125C42.3268 70.125 43.2402 69.2117 43.2402 68.085C43.2402 66.9584 42.3268 66.045 41.2002 66.045C40.0735 66.045 39.1602 66.9584 39.1602 68.085C39.1602 69.2117 40.0735 70.125 41.2002 70.125Z" fill="#FFB5B5"/>
<path d="M48.0102 68.465C47.9802 68.335 47.9702 68.215 47.9702 68.085C47.9702 67.995 47.9702 67.905 48.0002 67.835C48.0002 68.055 48.0002 68.265 48.0102 68.465Z" fill="#FFB5B5"/>
<path d="M12.3699 60.755C12.3699 61.885 11.4499 62.805 10.3199 62.805C9.6299 62.805 9.0099 62.455 8.6499 61.925C9.9099 61.285 11.1599 60.765 12.3299 60.355C12.3599 60.475 12.3699 60.615 12.3699 60.755Z" fill="#FFB5B5"/>
<path d="M19.1401 62.785C20.2668 62.785 21.1801 61.8717 21.1801 60.745C21.1801 59.6184 20.2668 58.705 19.1401 58.705C18.0134 58.705 17.1001 59.6184 17.1001 60.745C17.1001 61.8717 18.0134 62.785 19.1401 62.785Z" fill="#FFB5B5"/>
<path d="M27.9599 62.785C29.0866 62.785 29.9999 61.8717 29.9999 60.745C29.9999 59.6184 29.0866 58.705 27.9599 58.705C26.8333 58.705 25.9199 59.6184 25.9199 60.745C25.9199 61.8717 26.8333 62.785 27.9599 62.785Z" fill="#FFB5B5"/>
<path d="M36.79 62.785C37.9167 62.785 38.83 61.8717 38.83 60.745C38.83 59.6184 37.9167 58.705 36.79 58.705C35.6633 58.705 34.75 59.6184 34.75 60.745C34.75 61.8717 35.6633 62.785 36.79 62.785Z" fill="#FFB5B5"/>
<path d="M45.6098 62.785C46.7365 62.785 47.6498 61.8717 47.6498 60.745C47.6498 59.6184 46.7365 58.705 45.6098 58.705C44.4832 58.705 43.5698 59.6184 43.5698 60.745C43.5698 61.8717 44.4832 62.785 45.6098 62.785Z" fill="#FFB5B5"/>
<path d="M23.5503 55.455C24.6769 55.455 25.5903 54.5417 25.5903 53.415C25.5903 52.2883 24.6769 51.375 23.5503 51.375C22.4236 51.375 21.5103 52.2883 21.5103 53.415C21.5103 54.5417 22.4236 55.455 23.5503 55.455Z" fill="#FFB5B5"/>
<path d="M32.3701 55.455C33.4967 55.455 34.4101 54.5417 34.4101 53.415C34.4101 52.2883 33.4967 51.375 32.3701 51.375C31.2434 51.375 30.3301 52.2883 30.3301 53.415C30.3301 54.5417 31.2434 55.455 32.3701 55.455Z" fill="#FFB5B5"/>
<path d="M41.2002 55.455C42.3268 55.455 43.2402 54.5417 43.2402 53.415C43.2402 52.2883 42.3268 51.375 41.2002 51.375C40.0735 51.375 39.1602 52.2883 39.1602 53.415C39.1602 54.5417 40.0735 55.455 41.2002 55.455Z" fill="#FFB5B5"/>
<path d="M27.9599 48.115C29.0866 48.115 29.9999 47.2017 29.9999 46.075C29.9999 44.9484 29.0866 44.035 27.9599 44.035C26.8333 44.035 25.9199 44.9484 25.9199 46.075C25.9199 47.2017 26.8333 48.115 27.9599 48.115Z" fill="#FFB5B5"/>
<path d="M36.79 48.115C37.9167 48.115 38.83 47.2017 38.83 46.075C38.83 44.9484 37.9167 44.035 36.79 44.035C35.6633 44.035 34.75 44.9484 34.75 46.075C34.75 47.2017 35.6633 48.115 36.79 48.115Z" fill="#FFB5B5"/>
<path d="M47.0401 47.525C46.6801 47.885 46.1701 48.115 45.6101 48.115C44.4801 48.115 43.5601 47.215 43.5601 46.075C43.5601 44.945 44.4801 44.025 45.6101 44.025C46.3401 44.025 46.9801 44.415 47.3301 44.995L47.0401 47.525Z" fill="#FFB5B5"/>
<path d="M25.5999 38.745C25.5999 39.875 24.6799 40.785 23.5499 40.785C22.7799 40.785 22.1199 40.375 21.7799 39.755C21.7399 39.165 21.7199 38.565 21.6699 37.955C21.6699 37.945 21.6699 37.945 21.6699 37.945C21.9799 37.215 22.7099 36.705 23.5499 36.705C24.6799 36.695 25.5999 37.605 25.5999 38.745Z" fill="#FFB5B5"/>
<path d="M32.3701 40.775C33.4967 40.775 34.4101 39.8617 34.4101 38.735C34.4101 37.6083 33.4967 36.695 32.3701 36.695C31.2434 36.695 30.3301 37.6083 30.3301 38.735C30.3301 39.8617 31.2434 40.775 32.3701 40.775Z" fill="#FFB5B5"/>
<path d="M41.2002 40.775C42.3268 40.775 43.2402 39.8617 43.2402 38.735C43.2402 37.6083 42.3268 36.695 41.2002 36.695C40.0735 36.695 39.1602 37.6083 39.1602 38.735C39.1602 39.8617 40.0735 40.775 41.2002 40.775Z" fill="#FFB5B5"/>
<path d="M48.1397 37.945C48.0997 38.325 48.0497 38.715 48.0097 39.105C47.9797 38.995 47.9697 38.865 47.9697 38.745C47.9697 38.465 48.0397 38.185 48.1397 37.945Z" fill="#FFB5B5"/>
<path d="M21.19 31.405C21.19 31.565 21.16 31.735 21.13 31.885C21.08 31.435 21.03 30.985 20.98 30.525C21.11 30.785 21.19 31.085 21.19 31.405Z" fill="#FFB5B5"/>
<path d="M27.9599 33.435C29.0866 33.435 29.9999 32.5217 29.9999 31.395C29.9999 30.2684 29.0866 29.355 27.9599 29.355C26.8333 29.355 25.9199 30.2684 25.9199 31.395C25.9199 32.5217 26.8333 33.435 27.9599 33.435Z" fill="#FFB5B5"/>
<path d="M36.79 33.435C37.9167 33.435 38.83 32.5217 38.83 31.395C38.83 30.2684 37.9167 29.355 36.79 29.355C35.6633 29.355 34.75 30.2684 34.75 31.395C34.75 32.5217 35.6633 33.435 36.79 33.435Z" fill="#FFB5B5"/>
<path d="M45.6098 33.435C46.7365 33.435 47.6498 32.5217 47.6498 31.395C47.6498 30.2684 46.7365 29.355 45.6098 29.355C44.4832 29.355 43.5698 30.2684 43.5698 31.395C43.5698 32.5217 44.4832 33.435 45.6098 33.435Z" fill="#FFB5B5"/>
<path d="M23.5503 26.105C24.6769 26.105 25.5903 25.1917 25.5903 24.065C25.5903 22.9384 24.6769 22.025 23.5503 22.025C22.4236 22.025 21.5103 22.9384 21.5103 24.065C21.5103 25.1917 22.4236 26.105 23.5503 26.105Z" fill="#FFB5B5"/>
<path d="M32.3701 26.105C33.4967 26.105 34.4101 25.1917 34.4101 24.065C34.4101 22.9384 33.4967 22.025 32.3701 22.025C31.2434 22.025 30.3301 22.9384 30.3301 24.065C30.3301 25.1917 31.2434 26.105 32.3701 26.105Z" fill="#FFB5B5"/>
<path d="M41.2002 26.105C42.3268 26.105 43.2402 25.1917 43.2402 24.065C43.2402 22.9384 42.3268 22.025 41.2002 22.025C40.0735 22.025 39.1602 22.9384 39.1602 24.065C39.1602 25.1917 40.0735 26.105 41.2002 26.105Z" fill="#FFB5B5"/>
<path d="M49.8001 22.045C49.7001 23.455 49.6001 24.795 49.4901 26.025C48.6201 25.785 47.9801 24.995 47.9801 24.065C47.9701 23.015 48.7701 22.145 49.8001 22.045Z" fill="#FFB5B5"/>
<path d="M21.1899 16.725C21.1899 17.785 20.3899 18.645 19.3399 18.745C19.1099 17.335 18.8899 15.995 18.6699 14.725C18.8199 14.685 18.9699 14.675 19.1299 14.675C20.2699 14.685 21.1899 15.595 21.1899 16.725Z" fill="#FFB5B5"/>
<path d="M27.9599 18.765C29.0866 18.765 29.9999 17.8517 29.9999 16.725C29.9999 15.5983 29.0866 14.685 27.9599 14.685C26.8333 14.685 25.9199 15.5983 25.9199 16.725C25.9199 17.8517 26.8333 18.765 27.9599 18.765Z" fill="#FFB5B5"/>
<path d="M36.79 18.765C37.9167 18.765 38.83 17.8517 38.83 16.725C38.83 15.5983 37.9167 14.685 36.79 14.685C35.6633 14.685 34.75 15.5983 34.75 16.725C34.75 17.8517 35.6633 18.765 36.79 18.765Z" fill="#FFB5B5"/>
<path d="M45.6098 18.765C46.7365 18.765 47.6498 17.8517 47.6498 16.725C47.6498 15.5983 46.7365 14.685 45.6098 14.685C44.4832 14.685 43.5698 15.5983 43.5698 16.725C43.5698 17.8517 44.4832 18.765 45.6098 18.765Z" fill="#FFB5B5"/>
<path d="M23.5503 11.425C24.6769 11.425 25.5903 10.5117 25.5903 9.38503C25.5903 8.25837 24.6769 7.34503 23.5503 7.34503C22.4236 7.34503 21.5103 8.25837 21.5103 9.38503C21.5103 10.5117 22.4236 11.425 23.5503 11.425Z" fill="#FFB5B5"/>
<path d="M32.3701 11.425C33.4967 11.425 34.4101 10.5117 34.4101 9.38503C34.4101 8.25837 33.4967 7.34503 32.3701 7.34503C31.2434 7.34503 30.3301 8.25837 30.3301 9.38503C30.3301 10.5117 31.2434 11.425 32.3701 11.425Z" fill="#FFB5B5"/>
<path d="M41.2002 11.425C42.3268 11.425 43.2402 10.5117 43.2402 9.38503C43.2402 8.25837 42.3268 7.34503 41.2002 7.34503C40.0735 7.34503 39.1602 8.25837 39.1602 9.38503C39.1602 10.5117 40.0735 11.425 41.2002 11.425Z" fill="#FFB5B5"/>
<path d="M50.5002 7.40502C50.4902 8.66502 50.4502 10.005 50.4002 11.385C50.2702 11.415 50.1502 11.425 50.0202 11.425C48.8902 11.425 47.9702 10.505 47.9702 9.38502C47.9702 8.25502 48.8902 7.33502 50.0202 7.33502C50.1902 7.34502 50.3502 7.36502 50.5002 7.40502Z" fill="#FFB5B5"/>
<path d="M19.7702 3.97504C19.5802 4.05504 19.3702 4.08504 19.1402 4.08504C19.0902 4.08504 19.0402 4.08504 18.9902 4.07504C19.2402 4.04504 19.4902 4.01504 19.7702 3.97504Z" fill="#FFB5B5"/>
<path d="M29.86 2.80499C29.56 3.55499 28.82 4.08499 27.96 4.08499C27.27 4.08499 26.67 3.74499 26.29 3.21499C27.45 3.08499 28.64 2.94499 29.86 2.80499Z" fill="#FFB5B5"/>
<path d="M38.8303 2.04498C38.8303 3.17498 37.9103 4.09498 36.7803 4.09498C35.7103 4.09498 34.8603 3.29498 34.7603 2.24498C36.1403 2.09498 37.5103 1.93498 38.8103 1.79498C38.8303 1.87498 38.8303 1.95498 38.8303 2.04498Z" fill="#FFB5B5"/>
<path d="M47.6501 2.04501C47.6501 3.17501 46.7301 4.09501 45.6101 4.09501C44.4801 4.09501 43.5601 3.17501 43.5601 2.04501C43.5601 1.75501 43.6201 1.46501 43.7501 1.21501C45.0701 1.06501 46.2501 0.935012 47.2201 0.825012C47.5001 1.16501 47.6501 1.59501 47.6501 2.04501Z" fill="#FFB5B5"/>
<path d="M49.01 7.40499C49.02 8.66499 49.06 10.005 49.11 11.385C49.22 14.895 49.46 18.645 49.71 22.035C49.81 23.445 49.91 24.785 50.02 26.015C50.33 29.725 50.62 32.445 50.72 32.985C50.81 33.475 51.06 35.405 51.35 37.925C51.35 37.925 51.36 37.925 51.36 37.935C51.4 38.315 51.45 38.705 51.49 39.095C51.72 40.945 51.94 43.005 52.17 44.985L52.46 47.515C52.86 51.155 53.19 54.045 53.19 54.045C52.67 55.815 52.31 57.805 52.06 59.875V59.885C52 60.325 51.95 60.755 51.91 61.195C51.68 63.415 51.56 65.695 51.51 67.825C51.51 68.035 51.51 68.255 51.5 68.455V68.495C51.4 74.245 51.78 78.915 51.78 78.915H66.94V75.625C67.53 75.535 68.49 75.655 69.54 75.855C70.71 76.085 72 76.405 73.12 76.725C74.73 77.175 75.97 77.595 75.97 77.595C87.78 80.935 99.49 78.925 99.49 78.925V72.665C99.09 67.425 95.03 64.035 90.86 61.925C89.6 61.285 88.35 60.765 87.18 60.355V60.345C86.8 60.215 86.44 60.095 86.09 59.985C81.52 58.505 78.19 54.485 77.77 49.685C77.52 46.775 77.54 43.365 77.73 39.755C77.77 39.165 77.79 38.565 77.84 37.955C77.84 37.945 77.84 37.945 77.84 37.945C77.98 35.955 78.15 33.925 78.38 31.885C78.43 31.435 78.48 30.985 78.53 30.525C78.99 26.445 79.57 22.395 80.16 18.755C80.39 17.345 80.61 16.005 80.83 14.735C81.9 8.58499 82.82 4.34499 82.82 4.34499C82.23 4.26499 81.45 4.18499 80.53 4.08499C80.52 4.08499 80.52 4.08499 80.52 4.08499C80.27 4.04499 80.02 4.02499 79.74 3.98499C77.93 3.77499 75.68 3.50499 73.22 3.23499C72.06 3.09499 70.87 2.95499 69.65 2.82499C68.03 2.63499 66.37 2.44499 64.75 2.25499C63.37 2.10499 62 1.94499 60.7 1.80499C58.92 1.59499 57.25 1.40499 55.75 1.22499C54.43 1.07499 53.25 0.944985 52.28 0.834985C50.45 0.614985 49.35 0.484985 49.35 0.484985C49.08 2.08499 48.98 4.54499 49.01 7.40499Z" fill="#B0305C"/>
<path d="M99.4904 74.035C99.1404 73.635 98.6004 73.385 98.0104 73.385C96.8804 73.385 95.9604 74.305 95.9604 75.435C95.9604 76.565 96.8804 77.485 98.0104 77.485C98.6004 77.485 99.1404 77.235 99.4904 76.835V74.035Z" fill="#FFB5B5"/>
<path d="M89.1904 77.465C90.3171 77.465 91.2304 76.5517 91.2304 75.425C91.2304 74.2983 90.3171 73.385 89.1904 73.385C88.0637 73.385 87.1504 74.2983 87.1504 75.425C87.1504 76.5517 88.0637 77.465 89.1904 77.465Z" fill="#FFB5B5"/>
<path d="M80.3706 77.465C81.4972 77.465 82.4106 76.5517 82.4106 75.425C82.4106 74.2983 81.4972 73.385 80.3706 73.385C79.2439 73.385 78.3306 74.2983 78.3306 75.425C78.3306 76.5517 79.2439 77.465 80.3706 77.465Z" fill="#FFB5B5"/>
<path d="M69.5005 75.425C69.5005 75.575 69.5105 75.715 69.5405 75.855C70.7105 76.085 72.0005 76.405 73.1205 76.725C73.4205 76.375 73.6005 75.925 73.6005 75.435C73.6005 74.305 72.6805 73.385 71.5505 73.385C70.4205 73.375 69.5005 74.295 69.5005 75.425Z" fill="#FFB5B5"/>
<path d="M62.7202 77.465C63.8468 77.465 64.7602 76.5517 64.7602 75.425C64.7602 74.2983 63.8468 73.385 62.7202 73.385C61.5935 73.385 60.6802 74.2983 60.6802 75.425C60.6802 76.5517 61.5935 77.465 62.7202 77.465Z" fill="#FFB5B5"/>
<path d="M53.9004 77.465C55.027 77.465 55.9403 76.5517 55.9403 75.425C55.9403 74.2983 55.027 73.385 53.9004 73.385C52.7737 73.385 51.8604 74.2983 51.8604 75.425C51.8604 76.5517 52.7737 77.465 53.9004 77.465Z" fill="#FFB5B5"/>
<path d="M93.6005 70.125C94.7272 70.125 95.6405 69.2117 95.6405 68.085C95.6405 66.9584 94.7272 66.045 93.6005 66.045C92.4739 66.045 91.5605 66.9584 91.5605 68.085C91.5605 69.2117 92.4739 70.125 93.6005 70.125Z" fill="#FFB5B5"/>
<path d="M84.7807 70.125C85.9074 70.125 86.8207 69.2117 86.8207 68.085C86.8207 66.9584 85.9074 66.045 84.7807 66.045C83.6541 66.045 82.7407 66.9584 82.7407 68.085C82.7407 69.2117 83.6541 70.125 84.7807 70.125Z" fill="#FFB5B5"/>
<path d="M75.9604 70.125C77.0871 70.125 78.0004 69.2117 78.0004 68.085C78.0004 66.9584 77.0871 66.045 75.9604 66.045C74.8338 66.045 73.9204 66.9584 73.9204 68.085C73.9204 69.2117 74.8338 70.125 75.9604 70.125Z" fill="#FFB5B5"/>
<path d="M67.1303 70.125C68.257 70.125 69.1703 69.2117 69.1703 68.085C69.1703 66.9584 68.257 66.045 67.1303 66.045C66.0037 66.045 65.0903 66.9584 65.0903 68.085C65.0903 69.2117 66.0037 70.125 67.1303 70.125Z" fill="#FFB5B5"/>
<path d="M58.3105 70.125C59.4372 70.125 60.3505 69.2117 60.3505 68.085C60.3505 66.9584 59.4372 66.045 58.3105 66.045C57.1838 66.045 56.2705 66.9584 56.2705 68.085C56.2705 69.2117 57.1838 70.125 58.3105 70.125Z" fill="#FFB5B5"/>
<path d="M51.5005 68.465C51.5305 68.335 51.5405 68.215 51.5405 68.085C51.5405 67.995 51.5405 67.905 51.5105 67.835C51.5105 68.055 51.5105 68.265 51.5005 68.465Z" fill="#FFB5B5"/>
<path d="M87.1401 60.755C87.1401 61.885 88.0601 62.805 89.1901 62.805C89.8801 62.805 90.5001 62.455 90.8601 61.925C89.6001 61.285 88.3501 60.765 87.1801 60.355C87.1501 60.475 87.1401 60.615 87.1401 60.755Z" fill="#FFB5B5"/>
<path d="M80.3706 62.785C81.4972 62.785 82.4106 61.8717 82.4106 60.745C82.4106 59.6184 81.4972 58.705 80.3706 58.705C79.2439 58.705 78.3306 59.6184 78.3306 60.745C78.3306 61.8717 79.2439 62.785 80.3706 62.785Z" fill="#FFB5B5"/>
<path d="M71.5405 62.785C72.6671 62.785 73.5805 61.8717 73.5805 60.745C73.5805 59.6184 72.6671 58.705 71.5405 58.705C70.4138 58.705 69.5005 59.6184 69.5005 60.745C69.5005 61.8717 70.4138 62.785 71.5405 62.785Z" fill="#FFB5B5"/>
<path d="M62.7202 62.785C63.8468 62.785 64.7602 61.8717 64.7602 60.745C64.7602 59.6184 63.8468 58.705 62.7202 58.705C61.5935 58.705 60.6802 59.6184 60.6802 60.745C60.6802 61.8717 61.5935 62.785 62.7202 62.785Z" fill="#FFB5B5"/>
<path d="M53.9004 62.785C55.027 62.785 55.9403 61.8717 55.9403 60.745C55.9403 59.6184 55.027 58.705 53.9004 58.705C52.7737 58.705 51.8604 59.6184 51.8604 60.745C51.8604 61.8717 52.7737 62.785 53.9004 62.785Z" fill="#FFB5B5"/>
<path d="M75.9599 55.455C77.0866 55.455 77.9999 54.5417 77.9999 53.415C77.9999 52.2883 77.0866 51.375 75.9599 51.375C74.8333 51.375 73.9199 52.2883 73.9199 53.415C73.9199 54.5417 74.8333 55.455 75.9599 55.455Z" fill="#FFB5B5"/>
<path d="M67.1298 55.455C68.2565 55.455 69.1698 54.5417 69.1698 53.415C69.1698 52.2883 68.2565 51.375 67.1298 51.375C66.0032 51.375 65.0898 52.2883 65.0898 53.415C65.0898 54.5417 66.0032 55.455 67.1298 55.455Z" fill="#FFB5B5"/>
<path d="M58.31 55.455C59.4367 55.455 60.35 54.5417 60.35 53.415C60.35 52.2883 59.4367 51.375 58.31 51.375C57.1834 51.375 56.27 52.2883 56.27 53.415C56.27 54.5417 57.1834 55.455 58.31 55.455Z" fill="#FFB5B5"/>
<path d="M71.54 48.115C72.6667 48.115 73.58 47.2017 73.58 46.075C73.58 44.9484 72.6667 44.035 71.54 44.035C70.4133 44.035 69.5 44.9484 69.5 46.075C69.5 47.2017 70.4133 48.115 71.54 48.115Z" fill="#FFB5B5"/>
<path d="M62.7202 48.115C63.8468 48.115 64.7602 47.2017 64.7602 46.075C64.7602 44.9484 63.8468 44.035 62.7202 44.035C61.5935 44.035 60.6802 44.9484 60.6802 46.075C60.6802 47.2017 61.5935 48.115 62.7202 48.115Z" fill="#FFB5B5"/>
<path d="M52.1802 44.995C52.5302 44.415 53.1702 44.025 53.9002 44.025C55.0302 44.025 55.9502 44.945 55.9502 46.075C55.9502 47.205 55.0302 48.115 53.9002 48.115C53.3302 48.115 52.8302 47.885 52.4702 47.525L52.1802 44.995Z" fill="#FFB5B5"/>
<path d="M73.9102 38.745C73.9102 39.875 74.8302 40.785 75.9602 40.785C76.7302 40.785 77.3902 40.375 77.7302 39.755C77.7702 39.165 77.7902 38.565 77.8402 37.955C77.8402 37.945 77.8402 37.945 77.8402 37.945C77.5302 37.215 76.8002 36.705 75.9602 36.705C74.8302 36.695 73.9102 37.605 73.9102 38.745Z" fill="#FFB5B5"/>
<path d="M67.1303 40.775C68.257 40.775 69.1703 39.8617 69.1703 38.735C69.1703 37.6083 68.257 36.695 67.1303 36.695C66.0037 36.695 65.0903 37.6083 65.0903 38.735C65.0903 39.8617 66.0037 40.775 67.1303 40.775Z" fill="#FFB5B5"/>
<path d="M58.31 40.775C59.4367 40.775 60.35 39.8617 60.35 38.735C60.35 37.6083 59.4367 36.695 58.31 36.695C57.1834 36.695 56.27 37.6083 56.27 38.735C56.27 39.8617 57.1834 40.775 58.31 40.775Z" fill="#FFB5B5"/>
<path d="M51.3701 37.945C51.4101 38.325 51.4601 38.715 51.5001 39.105C51.5301 38.995 51.5401 38.865 51.5401 38.745C51.5301 38.465 51.4701 38.185 51.3701 37.945Z" fill="#FFB5B5"/>
<path d="M78.3203 31.405C78.3203 31.565 78.3503 31.735 78.3803 31.885C78.4303 31.435 78.4803 30.985 78.5303 30.525C78.4003 30.785 78.3203 31.085 78.3203 31.405Z" fill="#FFB5B5"/>
<path d="M71.5405 33.435C72.6671 33.435 73.5805 32.5217 73.5805 31.395C73.5805 30.2684 72.6671 29.355 71.5405 29.355C70.4138 29.355 69.5005 30.2684 69.5005 31.395C69.5005 32.5217 70.4138 33.435 71.5405 33.435Z" fill="#FFB5B5"/>
<path d="M62.7202 33.435C63.8468 33.435 64.7602 32.5217 64.7602 31.395C64.7602 30.2684 63.8468 29.355 62.7202 29.355C61.5935 29.355 60.6802 30.2684 60.6802 31.395C60.6802 32.5217 61.5935 33.435 62.7202 33.435Z" fill="#FFB5B5"/>
<path d="M53.9004 33.435C55.027 33.435 55.9403 32.5217 55.9403 31.395C55.9403 30.2684 55.027 29.355 53.9004 29.355C52.7737 29.355 51.8604 30.2684 51.8604 31.395C51.8604 32.5217 52.7737 33.435 53.9004 33.435Z" fill="#FFB5B5"/>
<path d="M75.9604 26.105C77.0871 26.105 78.0004 25.1917 78.0004 24.065C78.0004 22.9384 77.0871 22.025 75.9604 22.025C74.8338 22.025 73.9204 22.9384 73.9204 24.065C73.9204 25.1917 74.8338 26.105 75.9604 26.105Z" fill="#FFB5B5"/>
<path d="M67.1303 26.105C68.257 26.105 69.1703 25.1917 69.1703 24.065C69.1703 22.9384 68.257 22.025 67.1303 22.025C66.0037 22.025 65.0903 22.9384 65.0903 24.065C65.0903 25.1917 66.0037 26.105 67.1303 26.105Z" fill="#FFB5B5"/>
<path d="M58.3105 26.105C59.4372 26.105 60.3505 25.1917 60.3505 24.065C60.3505 22.9384 59.4372 22.025 58.3105 22.025C57.1838 22.025 56.2705 22.9384 56.2705 24.065C56.2705 25.1917 57.1838 26.105 58.3105 26.105Z" fill="#FFB5B5"/>
<path d="M49.7104 22.045C49.8104 23.455 49.9105 24.795 50.0205 26.025C50.8905 25.785 51.5304 24.995 51.5304 24.065C51.5304 23.015 50.7404 22.145 49.7104 22.045Z" fill="#FFB5B5"/>
<path d="M78.3203 16.725C78.3203 17.785 79.1203 18.645 80.1703 18.745C80.4003 17.335 80.6203 15.995 80.8403 14.725C80.6903 14.685 80.5403 14.675 80.3803 14.675C79.2403 14.685 78.3203 15.595 78.3203 16.725Z" fill="#FFB5B5"/>
<path d="M71.5405 18.765C72.6671 18.765 73.5805 17.8517 73.5805 16.725C73.5805 15.5983 72.6671 14.685 71.5405 14.685C70.4138 14.685 69.5005 15.5983 69.5005 16.725C69.5005 17.8517 70.4138 18.765 71.5405 18.765Z" fill="#FFB5B5"/>
<path d="M62.7202 18.765C63.8468 18.765 64.7602 17.8517 64.7602 16.725C64.7602 15.5983 63.8468 14.685 62.7202 14.685C61.5935 14.685 60.6802 15.5983 60.6802 16.725C60.6802 17.8517 61.5935 18.765 62.7202 18.765Z" fill="#FFB5B5"/>
<path d="M53.9004 18.765C55.027 18.765 55.9403 17.8517 55.9403 16.725C55.9403 15.5983 55.027 14.685 53.9004 14.685C52.7737 14.685 51.8604 15.5983 51.8604 16.725C51.8604 17.8517 52.7737 18.765 53.9004 18.765Z" fill="#FFB5B5"/>
<path d="M75.9604 11.425C77.0871 11.425 78.0004 10.5117 78.0004 9.38503C78.0004 8.25837 77.0871 7.34503 75.9604 7.34503C74.8338 7.34503 73.9204 8.25837 73.9204 9.38503C73.9204 10.5117 74.8338 11.425 75.9604 11.425Z" fill="#FFB5B5"/>
<path d="M67.1303 11.425C68.257 11.425 69.1703 10.5117 69.1703 9.38503C69.1703 8.25837 68.257 7.34503 67.1303 7.34503C66.0037 7.34503 65.0903 8.25837 65.0903 9.38503C65.0903 10.5117 66.0037 11.425 67.1303 11.425Z" fill="#FFB5B5"/>
<path d="M58.31 11.425C59.4367 11.425 60.35 10.5117 60.35 9.38503C60.35 8.25837 59.4367 7.34503 58.31 7.34503C57.1834 7.34503 56.27 8.25837 56.27 9.38503C56.27 10.5117 57.1834 11.425 58.31 11.425Z" fill="#FFB5B5"/>
<path d="M49.0103 7.40502C49.0203 8.66502 49.0603 10.005 49.1103 11.385C49.2403 11.415 49.3603 11.425 49.4903 11.425C50.6203 11.425 51.5403 10.505 51.5403 9.38502C51.5403 8.25502 50.6203 7.33502 49.4903 7.33502C49.3203 7.34502 49.1603 7.36502 49.0103 7.40502Z" fill="#FFB5B5"/>
<path d="M79.7402 3.97504C79.9302 4.05504 80.1402 4.08504 80.3702 4.08504C80.4202 4.08504 80.4702 4.08504 80.5202 4.07504C80.2702 4.04504 80.0202 4.01504 79.7402 3.97504Z" fill="#FFB5B5"/>
<path d="M69.6504 2.80499C69.9504 3.55499 70.6904 4.08499 71.5504 4.08499C72.2404 4.08499 72.8404 3.74499 73.2204 3.21499C72.0604 3.08499 70.8704 2.94499 69.6504 2.80499Z" fill="#FFB5B5"/>
<path d="M60.6802 2.04498C60.6802 3.17498 61.6002 4.09498 62.7302 4.09498C63.8002 4.09498 64.6502 3.29498 64.7502 2.24498C63.3702 2.09498 62.0002 1.93498 60.7002 1.79498C60.6802 1.87498 60.6802 1.95498 60.6802 2.04498Z" fill="#FFB5B5"/>
<path d="M51.8604 2.04501C51.8604 3.17501 52.7804 4.09501 53.9004 4.09501C55.0304 4.09501 55.9504 3.17501 55.9504 2.04501C55.9504 1.75501 55.8904 1.46501 55.7604 1.21501C54.4404 1.06501 53.2604 0.935012 52.2904 0.825012C52.0104 1.16501 51.8604 1.59501 51.8604 2.04501Z" fill="#FFB5B5"/>
</g>
<defs>
<clipPath id="clip0_301_8763">
<rect width="99.47" height="79.03" fill="white" transform="translate(0.0200195 0.484985)"/>
</clipPath>
</defs>
</svg>
