<svg width="61" height="22" viewBox="0 0 61 22" fill="none" xmlns="http://www.w3.org/2000/svg">
<g clip-path="url(#clip0_301_14935)">
<path d="M22.04 18.625H60.57C60.35 15.055 59.06 12.145 57.19 9.79498C56.99 9.52498 56.77 9.26498 56.55 9.01498C56.04 8.44498 55.5 7.90498 54.93 7.40498C54.67 7.17498 54.4 6.94498 54.13 6.73498C53.6 6.30498 53.06 5.90498 52.5 5.53498C52.19 5.32498 51.88 5.13498 51.57 4.94498C50.97 4.57498 50.37 4.24498 49.77 3.93498C49.42 3.74498 49.07 3.57498 48.72 3.41498C48.71 3.40498 48.69 3.40498 48.68 3.39498C43.05 0.75498 37.54 0.10498 37.54 0.10498C35.83 1.64498 33.6 2.48498 31.3 2.46498L30.03 2.45498L28.71 2.44498L22.99 2.40498C22.57 2.40498 22.22 2.74498 22.22 3.16498L22.04 18.625Z" fill="#C48B2F"/>
<path d="M26.8598 5.81501C26.9398 5.86501 27.0298 5.88501 27.1098 5.88501C27.2798 5.88501 27.4498 5.79501 27.5398 5.64501C28.1098 4.69501 29.0798 3.51501 30.0298 2.45501L28.7098 2.44501C27.9298 3.35501 27.1798 4.31501 26.6898 5.12501C26.5398 5.36501 26.6198 5.66501 26.8598 5.81501Z" fill="#9B6621"/>
<path d="M53.8898 11.315C53.9898 11.465 54.1498 11.545 54.3098 11.545C54.4098 11.545 54.4998 11.515 54.5798 11.465L57.1898 9.79495C56.9898 9.52495 56.7698 9.26495 56.5498 9.01495L54.0398 10.625C53.8098 10.775 53.7398 11.085 53.8898 11.315Z" fill="#9B6621"/>
<path d="M51.1901 9.21498C51.2801 9.36498 51.4401 9.44499 51.6101 9.44499C51.7001 9.44499 51.7901 9.42499 51.8801 9.37499L54.9301 7.40499C54.6701 7.17499 54.4001 6.94499 54.1301 6.73499L51.3401 8.52499C51.1101 8.67499 51.0401 8.98498 51.1901 9.21498Z" fill="#9B6621"/>
<path d="M48.88 7.26501C48.98 7.41501 49.14 7.49501 49.3 7.49501C49.4 7.49501 49.49 7.46501 49.57 7.41501L52.5 5.53501C52.19 5.32501 51.88 5.13501 51.57 4.94501L49.03 6.57501C48.8 6.72501 48.73 7.03501 48.88 7.26501Z" fill="#9B6621"/>
<path d="M46.59 5.37498C46.69 5.52498 46.85 5.60498 47.01 5.60498C47.1 5.60498 47.2 5.58498 47.28 5.53498L49.77 3.93498C49.42 3.74498 49.07 3.57498 48.72 3.41498L46.74 4.68498C46.51 4.83498 46.44 5.14498 46.59 5.37498Z" fill="#9B6621"/>
<path d="M21.589 21.8883L60.939 21.8883L60.939 18.3083L21.589 18.3083L21.589 21.8883Z" fill="#9B6621"/>
<path d="M0.839844 18.625H39.3698C39.1498 15.055 37.8598 12.145 35.9898 9.79498C35.7898 9.52498 35.5698 9.26498 35.3498 9.01498C34.8398 8.44498 34.2998 7.90498 33.7298 7.40498C33.4698 7.17498 33.1998 6.94498 32.9298 6.73498C32.3998 6.30498 31.8598 5.90498 31.2998 5.53498C30.9898 5.32498 30.6798 5.13498 30.3698 4.94498C29.7698 4.57498 29.1698 4.24498 28.5698 3.93498C28.2198 3.74498 27.8698 3.57498 27.5198 3.41498C27.5098 3.40498 27.4898 3.40498 27.4798 3.39498C21.8498 0.75498 16.3398 0.10498 16.3398 0.10498C14.6298 1.64498 12.3998 2.48498 10.0998 2.46498L8.82984 2.45498L7.50984 2.44498L1.78984 2.40498C1.36984 2.40498 1.01984 2.74498 1.01984 3.16498L0.839844 18.625Z" fill="#FCB83E"/>
<path d="M5.66006 5.81501C5.74006 5.86501 5.83006 5.88501 5.91006 5.88501C6.08006 5.88501 6.25006 5.79501 6.34006 5.64501C6.91006 4.69501 7.88006 3.51501 8.83006 2.45501L7.51006 2.44501C6.73006 3.35501 5.98006 4.31501 5.49006 5.12501C5.34006 5.36501 5.42006 5.66501 5.66006 5.81501Z" fill="#9B6621"/>
<path d="M32.6896 11.315C32.7896 11.465 32.9496 11.545 33.1096 11.545C33.2096 11.545 33.2996 11.515 33.3796 11.465L35.9896 9.79495C35.7896 9.52495 35.5696 9.26495 35.3496 9.01495L32.8396 10.625C32.6096 10.775 32.5396 11.085 32.6896 11.315Z" fill="#9B6621"/>
<path d="M29.9899 9.21498C30.0799 9.36498 30.2399 9.44499 30.4099 9.44499C30.4999 9.44499 30.5899 9.42499 30.6799 9.37499L33.7299 7.40499C33.4699 7.17499 33.1999 6.94499 32.9299 6.73499L30.1399 8.52499C29.9099 8.67499 29.8399 8.98498 29.9899 9.21498Z" fill="#9B6621"/>
<path d="M27.6799 7.26501C27.7799 7.41501 27.9399 7.49501 28.0999 7.49501C28.1999 7.49501 28.2899 7.46501 28.3699 7.41501L31.2999 5.53501C30.9899 5.32501 30.6799 5.13501 30.3699 4.94501L27.8299 6.57501C27.5999 6.72501 27.5299 7.03501 27.6799 7.26501Z" fill="#9B6621"/>
<path d="M25.3898 5.37498C25.4898 5.52498 25.6498 5.60498 25.8098 5.60498C25.8998 5.60498 25.9998 5.58498 26.0798 5.53498L28.5698 3.93498C28.2198 3.74498 27.8698 3.57498 27.5198 3.41498L25.5398 4.68498C25.3098 4.83498 25.2398 5.14498 25.3898 5.37498Z" fill="#9B6621"/>
<path d="M0.382423 21.8883L39.7324 21.8883L39.7324 18.3083L0.382423 18.3083L0.382423 21.8883Z" fill="#9B6621"/>
</g>
<defs>
<clipPath id="clip0_301_14935">
<rect width="60.56" height="21.79" fill="white" transform="translate(0.379883 0.10498)"/>
</clipPath>
</defs>
</svg>
