<svg width="102" height="32" viewBox="0 0 102 32" fill="none" xmlns="http://www.w3.org/2000/svg">
<g clip-path="url(#clip0_301_12008)">
<path d="M51.5098 16.35V26.89H100.74C101.14 23.88 99.5698 21.26 96.9698 16.97C96.7098 16.55 96.3598 16.02 95.9098 15.42C95.6898 15.12 95.4198 14.79 95.1398 14.45C92.3598 11.2 86.7998 6.68997 76.7198 5.54997V5.51997C76.7198 4.47997 75.8698 3.70997 74.8298 3.83997C74.5998 3.86997 74.3498 3.87997 74.0798 3.90997C73.6898 3.94997 73.3098 3.97997 72.9098 3.99997C72.3998 4.03997 71.8698 4.04997 71.3398 4.04997C70.4398 4.04997 69.5598 3.99997 68.7098 3.91997C65.4298 3.58997 57.4798 2.64997 55.4198 1.31997C54.6998 0.859971 53.8798 0.569971 53.0298 0.469971L52.1998 9.11997L51.7098 14.32L51.5098 16.35Z" fill="#FC961A"/>
<path d="M50.7197 26.89H101.88V29.92H99.3497V31.53H97.0097V29.92H92.9297V31.53H90.5897V29.92H86.5197V31.53H84.1797V29.92H80.0997V31.53H77.7697V29.92H73.6897V31.53H71.3497V29.92H67.2697V31.53H64.9397V29.92H55.7897V31.53H53.4497V29.92H50.7197V26.89Z" fill="#281913"/>
<path d="M51.5098 16.35V26.89H66.2998C66.6398 25.92 66.8098 24.89 66.8098 23.81C66.8098 18.56 57.4798 14.31 52.2398 14.31C52.0598 14.31 51.8798 14.31 51.6998 14.32L51.5098 16.35Z" fill="#854714"/>
<path d="M90.5396 26.89H101.43C101.43 22.92 99.9395 19.17 96.9595 16.97C93.4195 18.77 90.5396 22.65 90.5396 26.89Z" fill="#854714"/>
<path d="M52.1997 9.11997H54.9197C58.6497 9.11997 67.0597 7.04997 68.7097 3.91997C65.4297 3.58997 57.4797 2.64997 55.4197 1.31997C54.6997 0.859971 53.8797 0.569971 53.0297 0.469971L52.1997 9.11997Z" fill="#854714"/>
<path d="M72.9097 3.99997V12.31C72.9097 16.75 76.5097 20.36 80.9497 20.36H89.3597C91.5997 20.36 94.5197 17.18 95.8997 15.42C95.6797 15.12 95.4097 14.79 95.1297 14.45C93.9797 15.83 91.1597 19.19 89.3597 19.19H80.9497C77.1597 19.19 74.0797 16.11 74.0797 12.31V3.90997C73.6897 3.93997 73.2997 3.97997 72.9097 3.99997Z" fill="#854714"/>
<path d="M79.5799 9.10996C80.3476 9.10996 80.9699 8.48763 80.9699 7.71996C80.9699 6.95228 80.3476 6.32996 79.5799 6.32996C78.8123 6.32996 78.1899 6.95228 78.1899 7.71996C78.1899 8.48763 78.8123 9.10996 79.5799 9.10996Z" fill="#F9D335"/>
<path d="M84.16 10.51C84.9277 10.51 85.55 9.88766 85.55 9.11998C85.55 8.3523 84.9277 7.72998 84.16 7.72998C83.3923 7.72998 82.77 8.3523 82.77 9.11998C82.77 9.88766 83.3923 10.51 84.16 10.51Z" fill="#F9D335"/>
<path d="M88.4999 12.7C89.2675 12.7 89.8899 12.0777 89.8899 11.31C89.8899 10.5423 89.2675 9.91998 88.4999 9.91998C87.7322 9.91998 87.1099 10.5423 87.1099 11.31C87.1099 12.0777 87.7322 12.7 88.4999 12.7Z" fill="#F9D335"/>
<path d="M91.93 15.48C92.6977 15.48 93.32 14.8576 93.32 14.09C93.32 13.3223 92.6977 12.7 91.93 12.7C91.1624 12.7 90.54 13.3223 90.54 14.09C90.54 14.8576 91.1624 15.48 91.93 15.48Z" fill="#F9D335"/>
<path d="M80.1101 4.47998C79.8401 4.47998 79.6001 4.66998 79.5401 4.93998L79.0101 7.47998C78.9401 7.79998 79.1501 8.10998 79.4601 8.16998C79.7801 8.23998 80.0901 8.02998 80.1501 7.71998L80.6801 5.17998C80.7501 4.85998 80.5401 4.54998 80.2301 4.48998C80.1901 4.47998 80.1501 4.47998 80.1101 4.47998Z" fill="#162330"/>
<path d="M85.3098 5.97999C85.1198 5.99999 84.9398 6.11999 84.8498 6.30999L83.7298 8.62999C83.5898 8.91999 83.7098 9.26999 83.9998 9.40999C84.2898 9.54999 84.6398 9.42999 84.7798 9.13999L85.8998 6.80999C86.0398 6.51999 85.9198 6.16999 85.6298 6.02999C85.5298 5.97999 85.4098 5.96999 85.3098 5.97999Z" fill="#162330"/>
<path d="M89.7699 8.43996C89.6799 8.47996 89.6099 8.54997 89.5499 8.63997L87.9799 11.03C87.7999 11.3 87.8799 11.66 88.1499 11.84C88.4199 12.02 88.7799 11.94 88.9599 11.67L90.5299 9.26997C90.7099 8.99997 90.6299 8.63997 90.3599 8.46997C90.1799 8.33997 89.9499 8.33996 89.7699 8.43996Z" fill="#162330"/>
<path d="M93.5298 11.55C93.4998 11.57 93.4698 11.6 93.4498 11.62L91.4998 13.67C91.2798 13.9 91.2898 14.27 91.5198 14.5C91.7498 14.72 92.1298 14.7 92.3498 14.48L94.2998 12.43C94.5198 12.2 94.5098 11.83 94.2798 11.6C94.0698 11.41 93.7598 11.39 93.5298 11.55Z" fill="#162330"/>
<path d="M50.9999 16.35V26.89H1.76994C1.36994 23.88 2.93994 21.26 5.53994 16.97C5.79994 16.55 6.14994 16.02 6.59994 15.42C6.81994 15.12 7.08994 14.79 7.36994 14.45C10.1499 11.2 15.7099 6.68997 25.7899 5.54997V5.51997C25.7899 4.47997 26.6399 3.70997 27.6799 3.83997C27.9099 3.86997 28.1599 3.87997 28.4299 3.90997C28.8199 3.94997 29.1999 3.97997 29.5999 3.99997C30.1099 4.03997 30.6399 4.04997 31.1699 4.04997C32.0699 4.04997 32.9499 3.99997 33.7999 3.91997C37.0799 3.58997 45.0299 2.64997 47.0899 1.31997C47.8199 0.859971 48.6299 0.569971 49.4799 0.469971L50.3099 9.11997L50.7999 14.32L50.9999 16.35Z" fill="#FC961A"/>
<path d="M51.7999 26.89H0.629883V29.92H3.16988V31.53H5.49988V29.92H9.57988V31.53H11.9199V29.92H15.9899V31.53H18.3299V29.92H22.4099V31.53H24.7499V29.92H28.8199V31.53H31.1599V29.92H35.2399V31.53H37.5799V29.92H46.7199V31.53H49.0599V29.92H51.7999V26.89Z" fill="#281913"/>
<path d="M50.9997 16.35V26.89H36.2097C35.8697 25.92 35.6997 24.89 35.6997 23.81C35.6997 18.56 45.0297 14.31 50.2697 14.31C50.4497 14.31 50.6297 14.31 50.8097 14.32L50.9997 16.35Z" fill="#854714"/>
<path d="M11.9701 26.89H1.08008C1.08008 22.92 2.57008 19.17 5.55008 16.97C9.10008 18.77 11.9701 22.65 11.9701 26.89Z" fill="#854714"/>
<path d="M50.3098 9.11997H47.5898C43.8598 9.11997 35.4498 7.04997 33.7998 3.91997C37.0798 3.58997 45.0298 2.64997 47.0898 1.31997C47.8098 0.859971 48.6298 0.569971 49.4798 0.469971L50.3098 9.11997Z" fill="#854714"/>
<path d="M28.4401 3.90997V12.31C28.4401 16.11 25.3601 19.19 21.5701 19.19H13.1601C11.3601 19.19 8.53012 15.82 7.39012 14.45C7.11012 14.79 6.84012 15.12 6.62012 15.42C8.00012 17.18 10.9201 20.36 13.1601 20.36H21.5701C26.0101 20.36 29.6101 16.75 29.6101 12.31V3.99997C29.2101 3.97997 28.8201 3.93997 28.4401 3.90997Z" fill="#854714"/>
<path d="M22.9296 9.10996C23.6972 9.10996 24.3196 8.48763 24.3196 7.71996C24.3196 6.95228 23.6972 6.32996 22.9296 6.32996C22.1619 6.32996 21.5396 6.95228 21.5396 7.71996C21.5396 8.48763 22.1619 9.10996 22.9296 9.10996Z" fill="#F9D335"/>
<path d="M18.35 10.51C19.1176 10.51 19.74 9.88766 19.74 9.11998C19.74 8.3523 19.1176 7.72998 18.35 7.72998C17.5823 7.72998 16.96 8.3523 16.96 9.11998C16.96 9.88766 17.5823 10.51 18.35 10.51Z" fill="#F9D335"/>
<path d="M14.0199 12.7C14.7876 12.7 15.4099 12.0777 15.4099 11.31C15.4099 10.5423 14.7876 9.91998 14.0199 9.91998C13.2522 9.91998 12.6299 10.5423 12.6299 11.31C12.6299 12.0777 13.2522 12.7 14.0199 12.7Z" fill="#F9D335"/>
<path d="M10.5799 15.48C11.3476 15.48 11.9699 14.8576 11.9699 14.09C11.9699 13.3223 11.3476 12.7 10.5799 12.7C9.81226 12.7 9.18994 13.3223 9.18994 14.09C9.18994 14.8576 9.81226 15.48 10.5799 15.48Z" fill="#F9D335"/>
<path d="M22.4099 4.47998C22.6799 4.47998 22.9199 4.66998 22.9799 4.93998L23.5099 7.47998C23.5799 7.79998 23.3699 8.10998 23.0599 8.16998C22.7399 8.23998 22.4299 8.02998 22.3699 7.71998L21.8299 5.17998C21.7599 4.85998 21.9699 4.54998 22.2799 4.48998C22.3299 4.47998 22.3699 4.47998 22.4099 4.47998Z" fill="#162330"/>
<path d="M17.21 5.98C17.4 6 17.58 6.12 17.67 6.31L18.79 8.64C18.93 8.93 18.81 9.28 18.52 9.42C18.23 9.56 17.88 9.44 17.74 9.15L16.62 6.82C16.48 6.53 16.6 6.18 16.89 6.04C16.99 5.98 17.1 5.97 17.21 5.98Z" fill="#162330"/>
<path d="M12.7399 8.43998C12.8299 8.47998 12.8999 8.54998 12.9599 8.63998L14.5299 11.03C14.7099 11.3 14.6299 11.66 14.3599 11.84C14.0899 12.02 13.7299 11.94 13.5499 11.67L11.9799 9.26998C11.7999 8.99998 11.8799 8.63998 12.1499 8.45998C12.3299 8.33998 12.5599 8.33998 12.7399 8.43998Z" fill="#162330"/>
<path d="M8.97972 11.55C9.00972 11.57 9.03972 11.6 9.05972 11.62L11.0097 13.67C11.2297 13.9 11.2197 14.27 10.9897 14.5C10.7597 14.72 10.3797 14.7 10.1597 14.48L8.20972 12.43C7.98972 12.2 7.99972 11.83 8.22972 11.6C8.43972 11.41 8.74972 11.39 8.97972 11.55Z" fill="#162330"/>
</g>
<defs>
<clipPath id="clip0_301_12008">
<rect width="101.25" height="31.06" fill="white" transform="translate(0.629883 0.469971)"/>
</clipPath>
</defs>
</svg>
