<svg width="101" height="80" viewBox="0 0 101 80" fill="none" xmlns="http://www.w3.org/2000/svg">
<g clip-path="url(#clip0_301_2160)">
<path d="M50.7798 7.40998C50.7698 8.65998 50.7298 10.01 50.6798 11.39C50.5998 13.88 50.4598 16.5 50.2898 19.02C50.2198 20.05 50.1498 21.06 50.0798 22.04C49.9998 23.13 49.9298 24.17 49.8398 25.16C49.8098 25.45 49.7898 25.73 49.7598 26V26.03C49.6298 27.58 49.5098 28.95 49.3998 30.07C49.2398 31.63 49.1198 32.69 49.0598 33C48.9698 33.49 48.7198 35.42 48.4298 37.94C48.4298 37.94 48.4198 37.94 48.4198 37.95C48.3798 38.32 48.3298 38.71 48.2898 39.1C48.0798 40.91 47.8498 42.9 47.6298 44.85V44.86C47.6198 44.91 47.6198 44.95 47.6098 45L47.3198 47.52C47.2898 47.76 47.2698 47.99 47.2498 48.22C47.2098 48.53 47.1798 48.83 47.1398 49.12C46.8798 51.51 46.6798 53.36 46.6098 53.89C46.6098 54 46.5998 54.05 46.5998 54.05C47.1098 55.83 47.4798 57.81 47.7298 59.88V59.9C47.7898 60.34 47.8398 60.76 47.8798 61.2C48.0998 63.43 48.2298 65.7 48.2798 67.84C48.2798 68.05 48.2798 68.26 48.2898 68.46V68.5C48.3898 74.26 48.0198 78.92 48.0198 78.92H32.8498V75.63C32.2598 75.54 31.3098 75.65 30.2498 75.85C29.0798 76.08 27.7898 76.4 26.6698 76.72C25.0598 77.17 23.8198 77.59 23.8198 77.59C12.0098 80.93 0.299805 78.92 0.299805 78.92V72.66C0.699805 67.42 4.7598 64.03 8.9298 61.92C10.1898 61.28 11.4398 60.76 12.6098 60.35V60.34C12.9898 60.21 13.3498 60.08 13.7098 59.97C14.7298 59.64 15.6798 59.19 16.5498 58.62C17.3598 58.11 18.0998 57.5 18.7498 56.81C19.8998 55.63 20.7898 54.22 21.3498 52.67C21.7098 51.72 21.9298 50.71 22.0198 49.67C22.2098 47.41 22.2498 44.85 22.1598 42.12C22.1398 41.6 22.1198 41.06 22.0898 40.52C22.0898 40.51 22.0898 40.5 22.0898 40.5C22.0898 40.25 22.0698 40 22.0598 39.74C22.0498 39.55 22.0398 39.37 22.0298 39.18C21.9998 38.77 21.9798 38.36 21.9498 37.95C21.9498 37.94 21.9498 37.94 21.9498 37.94C21.8998 37.2 21.8398 36.45 21.7698 35.7C21.7498 35.38 21.7198 35.06 21.6898 34.74C21.6098 33.79 21.5098 32.84 21.4098 31.88C21.3598 31.43 21.3098 30.98 21.2598 30.52C21.2398 30.31 21.2098 30.09 21.1798 29.88C20.7298 26.02 20.1798 22.2 19.6198 18.75C19.3998 17.34 19.1698 16 18.9598 14.73C18.8798 14.29 18.8098 13.86 18.7298 13.44V13.43C18.6598 13.05 18.5998 12.69 18.5298 12.33C18.5298 12.32 18.5298 12.32 18.5298 12.31C18.3498 11.31 18.1698 10.39 18.0098 9.54998C17.6898 7.86998 17.4198 6.51998 17.2398 5.61998C17.0698 4.78998 16.9698 4.33998 16.9698 4.33998C17.5598 4.26998 18.3398 4.17998 19.2598 4.07998C19.2698 4.07998 19.2698 4.07998 19.2698 4.07998C19.5198 4.03998 19.7698 4.00998 20.0498 3.97998C20.6398 3.90998 21.2798 3.82998 21.9498 3.75998C21.9598 3.75998 21.9598 3.75998 21.9598 3.75998C23.3598 3.58998 24.9098 3.40998 26.5698 3.21998C26.8398 3.18998 27.1098 3.15998 27.3798 3.12998C28.2798 3.01998 29.1998 2.91998 30.1398 2.80998C31.7598 2.61998 33.4198 2.42998 35.0398 2.23998C36.4198 2.08998 37.7898 1.92998 39.0798 1.78998C39.1698 1.77998 39.2698 1.76998 39.3598 1.75998C41.0498 1.55998 42.6198 1.37998 44.0298 1.20998C44.4098 1.16998 44.7698 1.12998 45.1198 1.08998C45.9998 0.98998 46.8098 0.90998 47.4998 0.81998C49.3398 0.60998 50.4398 0.47998 50.4398 0.47998C50.6998 2.07998 50.8098 4.53998 50.7798 7.40998Z" fill="#030306"/>
<path d="M24.3798 10.3799C25.3795 10.3799 26.1898 9.56958 26.1898 8.56995C26.1898 7.57031 25.3795 6.75995 24.3798 6.75995C23.3802 6.75995 22.5698 7.57031 22.5698 8.56995C22.5698 9.56958 23.3802 10.3799 24.3798 10.3799Z" fill="#0FC8EF"/>
<path d="M23.4097 11.0199C22.6297 10.7099 22.0397 10.0499 21.8197 9.22992C20.7997 9.16992 19.7697 9.61992 19.1197 10.4999C18.1097 11.8899 18.4197 13.8299 19.8097 14.8399C21.0697 15.7499 22.7797 15.5899 23.8397 14.5099C23.1297 13.4599 23.0097 12.1599 23.4097 11.0199Z" fill="#EF3D5A"/>
<path d="M26.4097 10.2499C25.8797 10.8899 25.0597 11.2599 24.2197 11.2099C23.8497 12.1599 23.9497 13.2799 24.5997 14.1699C25.6097 15.5599 27.5497 15.8699 28.9397 14.8599C30.1997 13.9499 30.5697 12.2599 29.8797 10.9199C28.6397 11.2599 27.3697 10.9799 26.4097 10.2499Z" fill="#EF3D5A"/>
<path d="M26.5996 7.14996C27.0496 7.84996 27.1396 8.73996 26.8296 9.52996C27.6196 10.18 28.7196 10.42 29.7596 10.08C31.3896 9.54996 32.2796 7.79996 31.7496 6.16996C31.2696 4.68996 29.7796 3.81996 28.2996 4.05996C28.2596 5.33996 27.5896 6.46996 26.5996 7.14996Z" fill="#EF3D5A"/>
<path d="M27.48 3.90994C27.48 5.00994 26.91 5.97994 26.05 6.52994C25.4 5.98994 24.52 5.80994 23.72 6.01994C23.44 5.07994 22.82 4.25994 21.96 3.75994C23.36 3.58994 24.91 3.40994 26.57 3.21994C26.84 3.18994 27.11 3.15994 27.38 3.12994C27.44 3.37994 27.48 3.63994 27.48 3.90994Z" fill="#EF3D5A"/>
<path d="M22.9497 6.34991C22.2397 6.79991 21.7897 7.57991 21.7397 8.40991C20.5397 8.37991 19.3397 8.89991 18.5497 9.89991C18.3597 9.79991 18.1797 9.68991 18.0097 9.54991C17.6897 7.86991 17.4197 6.51991 17.2397 5.61991C17.9397 4.34991 19.4697 3.70991 20.8997 4.17991C21.9497 4.51991 22.6897 5.35991 22.9497 6.34991Z" fill="#EF3D5A"/>
<path d="M42.2001 8.59998C43.1998 8.59998 44.0101 7.78962 44.0101 6.78998C44.0101 5.79035 43.1998 4.97998 42.2001 4.97998C41.2005 4.97998 40.3901 5.79035 40.3901 6.78998C40.3901 7.78962 41.2005 8.59998 42.2001 8.59998Z" fill="#FAEEEF"/>
<path d="M41.2397 9.23995C40.4598 8.92995 39.8697 8.26995 39.6497 7.44995C38.6297 7.38995 37.5998 7.83995 36.9498 8.71995C35.9398 10.11 36.2498 12.05 37.6398 13.06C38.8998 13.97 40.6098 13.81 41.6698 12.73C40.9598 11.68 40.8397 10.38 41.2397 9.23995Z" fill="#0FC8EF"/>
<path d="M44.2397 8.46997C43.7097 9.10997 42.8897 9.47997 42.0497 9.42997C41.6797 10.38 41.7797 11.5 42.4297 12.39C43.4397 13.78 45.3797 14.09 46.7697 13.08C48.0297 12.17 48.3997 10.48 47.7097 9.13997C46.4697 9.47997 45.1897 9.19997 44.2397 8.46997Z" fill="#0FC8EF"/>
<path d="M44.4297 5.36999C44.8797 6.06999 44.9697 6.95999 44.6597 7.74999C45.4497 8.39999 46.5497 8.63999 47.5897 8.29999C49.2197 7.76999 50.1097 6.01999 49.5797 4.38999C49.0997 2.90999 47.6097 2.03999 46.1297 2.27999C46.0797 3.56999 45.4197 4.68999 44.4297 5.36999Z" fill="#0FC8EF"/>
<path d="M45.3099 2.12997C45.3099 3.22997 44.7399 4.19997 43.8799 4.74997C43.2199 4.20997 42.3499 4.02997 41.5399 4.23997C41.2199 3.15997 40.4499 2.22997 39.3599 1.75997C41.0499 1.55997 42.6199 1.37997 44.0299 1.20997C44.4099 1.16997 44.7699 1.12997 45.1199 1.08997C45.2499 1.41997 45.3099 1.76997 45.3099 2.12997Z" fill="#0FC8EF"/>
<path d="M39.5699 6.63C39.6199 5.8 40.0699 5.03 40.7799 4.57C40.5199 3.58 39.7799 2.74 38.7299 2.4C37.0999 1.87 35.3499 2.76 34.8199 4.39C34.3399 5.87 35.0299 7.45 36.3799 8.12C37.1699 7.12 38.3699 6.6 39.5699 6.63Z" fill="#0FC8EF"/>
<path d="M45.31 25.32C46.3096 25.32 47.12 24.5096 47.12 23.51C47.12 22.5104 46.3096 21.7 45.31 21.7C44.3104 21.7 43.5 22.5104 43.5 23.51C43.5 24.5096 44.3104 25.32 45.31 25.32Z" fill="#DA2840"/>
<path d="M44.3399 25.96C43.5599 25.65 42.9699 24.99 42.7499 24.17C41.7299 24.11 40.6999 24.56 40.0499 25.44C39.0399 26.83 39.3498 28.77 40.7398 29.78C41.9998 30.69 43.7099 30.53 44.7699 29.45C44.0699 28.4 43.9399 27.1 44.3399 25.96Z" fill="#FAEEEF"/>
<path d="M49.7596 26V26.03C49.6296 27.58 49.5096 28.95 49.3996 30.07C48.0796 30.72 46.4296 30.34 45.5396 29.11C44.8896 28.22 44.7796 27.1 45.1596 26.15C45.9996 26.19 46.8096 25.83 47.3396 25.19C48.0296 25.71 48.8796 26.01 49.7596 26Z" fill="#FAEEEF"/>
<path d="M50.2896 19.02C50.2196 20.05 50.1495 21.06 50.0795 22.04C49.9995 23.13 49.9295 24.17 49.8396 25.16C49.0796 25.2 48.3396 24.94 47.7696 24.47C48.0796 23.68 47.9796 22.8 47.5396 22.09C48.5296 21.41 49.1895 20.29 49.2395 19C49.5995 18.94 49.9496 18.95 50.2896 19.02Z" fill="#FAEEEF"/>
<path d="M44.65 20.96C45.46 20.75 46.33 20.94 46.98 21.47C47.84 20.92 48.41 19.95 48.41 18.85C48.41 17.13 47.02 15.74 45.3 15.74C43.74 15.74 42.46 16.88 42.23 18.37C43.44 18.82 44.31 19.8 44.65 20.96Z" fill="#FAEEEF"/>
<path d="M42.6798 23.35C42.7298 22.52 43.1798 21.75 43.8898 21.29C43.6298 20.3 42.8898 19.46 41.8398 19.12C40.2098 18.59 38.4598 19.48 37.9298 21.11C37.4498 22.59 38.1398 24.17 39.4898 24.84C40.2698 23.84 41.4698 23.32 42.6798 23.35Z" fill="#FAEEEF"/>
<path d="M24.1995 37.41C24.1995 38.41 23.3895 39.22 22.3895 39.22C22.2695 39.22 22.1495 39.21 22.0295 39.18C21.9995 38.77 21.9795 38.36 21.9495 37.95C21.9495 37.94 21.9495 37.94 21.9495 37.94C21.8995 37.2 21.8395 36.45 21.7695 35.7C21.9595 35.63 22.1695 35.59 22.3895 35.59C23.3895 35.59 24.1995 36.4 24.1995 37.41Z" fill="#DA2840"/>
<path d="M22.0898 40.52C22.0898 40.51 22.0898 40.5 22.0898 40.5C22.1298 40.34 22.1698 40.19 22.2298 40.04C23.0798 40.09 23.8898 39.73 24.4198 39.08C25.3798 39.82 26.6498 40.1 27.8898 39.75C28.5798 41.09 28.2098 42.77 26.9498 43.69C25.5598 44.7 23.6198 44.39 22.6098 43C22.4098 42.72 22.2598 42.43 22.1598 42.12L22.0898 40.52Z" fill="#FAEEEF"/>
<path d="M24.6099 35.9899C25.0599 36.6899 25.1499 37.5799 24.8399 38.3699C25.6299 39.0199 26.7299 39.2599 27.7699 38.9199C29.3999 38.3899 30.2899 36.6399 29.7599 35.0099C29.2799 33.5299 27.7899 32.6599 26.3099 32.8999C26.2699 34.1799 25.5999 35.3099 24.6099 35.9899Z" fill="#FAEEEF"/>
<path d="M25.4897 32.75C25.4897 33.85 24.9197 34.81 24.0597 35.36C23.3997 34.83 22.5297 34.64 21.7297 34.85C21.7197 34.81 21.7097 34.77 21.6897 34.74C21.6097 33.79 21.5097 32.84 21.4097 31.88C21.3597 31.43 21.3097 30.98 21.2597 30.52C21.2397 30.31 21.2097 30.09 21.1797 29.88C21.5497 29.72 21.9597 29.64 22.3897 29.64C24.0997 29.64 25.4897 31.03 25.4897 32.75Z" fill="#FAEEEF"/>
<path d="M44.54 48.89C45.5396 48.89 46.35 48.0796 46.35 47.08C46.35 46.0803 45.5396 45.27 44.54 45.27C43.5403 45.27 42.73 46.0803 42.73 47.08C42.73 48.0796 43.5403 48.89 44.54 48.89Z" fill="#0FC8EF"/>
<path d="M43.5698 49.54C42.7898 49.23 42.1998 48.5699 41.9798 47.7599C40.9598 47.6999 39.9298 48.1499 39.2798 49.0299C38.2698 50.4199 38.5798 52.36 39.9698 53.3699C41.2298 54.2799 42.9398 54.12 43.9998 53.04C43.2998 51.97 43.1698 50.67 43.5698 49.54Z" fill="#EF3D5A"/>
<path d="M47.1396 49.1199C46.8796 51.5099 46.6796 53.36 46.6096 53.8899C45.8896 53.7299 45.2296 53.32 44.7696 52.68C44.1196 51.79 44.0196 50.67 44.3896 49.72C45.2296 49.77 46.0496 49.4099 46.5796 48.7599C46.7596 48.8999 46.9396 49.0199 47.1396 49.1199Z" fill="#EF3D5A"/>
<path d="M47.6295 44.8599C47.6195 44.9099 47.6195 44.9499 47.6095 44.9999L47.3195 47.5199C47.2895 47.7599 47.2695 47.9899 47.2495 48.2199C47.1595 48.1699 47.0795 48.1099 46.9995 48.0399C47.3095 47.2599 47.2095 46.3699 46.7695 45.6699C47.0995 45.4399 47.3795 45.1699 47.6295 44.8599Z" fill="#EF3D5A"/>
<path d="M43.88 44.5299C44.69 44.3199 45.56 44.5099 46.21 45.0399C47.07 44.4899 47.64 43.5199 47.64 42.4199C47.64 40.6999 46.25 39.3099 44.53 39.3099C42.97 39.3099 41.69 40.4499 41.46 41.9399C42.67 42.3999 43.54 43.3799 43.88 44.5299Z" fill="#EF3D5A"/>
<path d="M41.9097 46.9199C41.9597 46.0899 42.4097 45.3199 43.1197 44.8599C42.8597 43.8699 42.1197 43.0299 41.0697 42.6899C39.4397 42.1599 37.6897 43.0499 37.1597 44.6799C36.6797 46.1599 37.3697 47.7399 38.7197 48.4099C39.5097 47.4099 40.6997 46.8899 41.9097 46.9199Z" fill="#EF3D5A"/>
<path d="M19.06 61.23C20.0596 61.23 20.87 60.4196 20.87 59.42C20.87 58.4203 20.0596 57.61 19.06 57.61C18.0604 57.61 17.25 58.4203 17.25 59.42C17.25 60.4196 18.0604 61.23 19.06 61.23Z" fill="#0FC8EF"/>
<path d="M18.1001 61.88C17.3201 61.57 16.7301 60.91 16.5101 60.1C15.4901 60.04 14.4601 60.49 13.8101 61.37C12.8001 62.76 13.1101 64.7 14.5001 65.71C15.7601 66.62 17.4701 66.46 18.5301 65.38C17.8201 64.31 17.6901 63.01 18.1001 61.88Z" fill="#FAEEEF"/>
<path d="M21.1001 61.1C20.5701 61.74 19.7501 62.11 18.9101 62.06C18.5401 63.01 18.6401 64.13 19.2901 65.02C20.3001 66.41 22.2401 66.72 23.6301 65.71C24.8901 64.8 25.2601 63.11 24.5701 61.77C23.3301 62.12 22.0501 61.83 21.1001 61.1Z" fill="#FAEEEF"/>
<path d="M21.29 58.01C21.74 58.71 21.83 59.6 21.52 60.39C22.31 61.04 23.41 61.28 24.45 60.94C26.08 60.41 26.97 58.66 26.44 57.03C25.96 55.55 24.47 54.68 22.99 54.92C22.94 56.2 22.28 57.32 21.29 58.01Z" fill="#FAEEEF"/>
<path d="M22.17 54.76C22.17 55.86 21.6 56.83 20.74 57.38C20.17 56.93 19.45 56.72 18.75 56.81C19.9 55.63 20.79 54.22 21.35 52.67C21.86 53.22 22.17 53.95 22.17 54.76Z" fill="#FAEEEF"/>
<path d="M16.5499 58.62C16.4799 58.83 16.4399 59.04 16.4299 59.26C15.2299 59.23 14.0299 59.75 13.2399 60.76C13.0099 60.64 12.7999 60.5 12.6099 60.34C12.9899 60.21 13.3499 60.08 13.7099 59.97C14.7299 59.64 15.6799 59.19 16.5499 58.62Z" fill="#FAEEEF"/>
<path d="M38.4901 62.55C39.2688 62.55 39.9001 61.9187 39.9001 61.14C39.9001 60.3613 39.2688 59.73 38.4901 59.73C37.7114 59.73 37.0801 60.3613 37.0801 61.14C37.0801 61.9187 37.7114 62.55 38.4901 62.55Z" fill="#FAEEEF"/>
<path d="M37.7398 63.04C37.1398 62.8 36.6698 62.29 36.5098 61.65C35.7198 61.6 34.9198 61.95 34.4098 62.64C33.6298 63.72 33.8698 65.23 34.9398 66.01C35.9198 66.72 37.2498 66.59 38.0698 65.76C37.5198 64.94 37.4198 63.93 37.7398 63.04Z" fill="#EF3D5A"/>
<path d="M40.0697 62.44C39.6597 62.94 39.0197 63.22 38.3697 63.18C38.0797 63.92 38.1597 64.79 38.6597 65.48C39.4397 66.56 40.9497 66.8 42.0297 66.01C43.0097 65.3 43.2997 63.99 42.7597 62.95C41.7997 63.23 40.8097 63.01 40.0697 62.44Z" fill="#EF3D5A"/>
<path d="M40.2197 60.03C40.5697 60.58 40.6397 61.27 40.3997 61.88C41.0197 62.38 41.8697 62.58 42.6797 62.31C43.9497 61.9 44.6397 60.54 44.2297 59.27C43.8597 58.12 42.6997 57.44 41.5397 57.63C41.4997 58.63 40.9897 59.5 40.2197 60.03Z" fill="#EF3D5A"/>
<path d="M37.9698 59.15C38.5998 58.99 39.2798 59.13 39.7798 59.55C40.4498 59.12 40.8898 58.37 40.8898 57.52C40.8898 56.19 39.8098 55.11 38.4798 55.11C37.2698 55.11 36.2698 56 36.0898 57.16C37.0398 57.49 37.7098 58.25 37.9698 59.15Z" fill="#EF3D5A"/>
<path d="M36.4399 61.01C36.4799 60.36 36.8299 59.76 37.3799 59.41C37.1799 58.64 36.5999 57.99 35.7899 57.72C34.5199 57.31 33.1599 58 32.7499 59.27C32.3799 60.42 32.9099 61.65 33.9599 62.17C34.5699 61.39 35.5099 60.99 36.4399 61.01Z" fill="#EF3D5A"/>
<path d="M30.0902 52.35C30.8689 52.35 31.5002 51.7187 31.5002 50.94C31.5002 50.1612 30.8689 49.53 30.0902 49.53C29.3115 49.53 28.6802 50.1612 28.6802 50.94C28.6802 51.7187 29.3115 52.35 30.0902 52.35Z" fill="#EF3D5A"/>
<path d="M29.3301 52.85C28.7301 52.61 28.2601 52.1 28.1001 51.46C27.3101 51.41 26.5101 51.76 26.0001 52.45C25.2201 53.53 25.4601 55.04 26.5301 55.82C27.5101 56.53 28.8401 56.4 29.6601 55.57C29.1201 54.74 29.0201 53.73 29.3301 52.85Z" fill="#0FC8EF"/>
<path d="M31.6698 52.24C31.2598 52.74 30.6198 53.02 29.9698 52.98C29.6798 53.72 29.7598 54.59 30.2598 55.28C31.0398 56.36 32.5498 56.6 33.6298 55.81C34.6098 55.1 34.8998 53.79 34.3598 52.75C33.3998 53.03 32.4098 52.81 31.6698 52.24Z" fill="#0FC8EF"/>
<path d="M31.8198 49.84C32.1698 50.39 32.2398 51.08 31.9998 51.69C32.6198 52.19 33.4698 52.39 34.2798 52.12C35.5498 51.71 36.2398 50.35 35.8298 49.08C35.4598 47.93 34.2998 47.25 33.1398 47.44C33.0998 48.43 32.5898 49.31 31.8198 49.84Z" fill="#0FC8EF"/>
<path d="M29.5699 48.95C30.1999 48.79 30.8799 48.93 31.3799 49.35C32.0499 48.92 32.4899 48.17 32.4899 47.32C32.4899 45.99 31.4099 44.91 30.0799 44.91C28.8699 44.91 27.8699 45.8 27.6899 46.96C28.6299 47.29 29.3099 48.06 29.5699 48.95Z" fill="#0FC8EF"/>
<path d="M28.04 50.81C28.08 50.16 28.43 49.56 28.98 49.21C28.78 48.44 28.2 47.79 27.39 47.52C26.12 47.11 24.76 47.8 24.35 49.07C23.98 50.22 24.51 51.45 25.56 51.97C26.17 51.19 27.1 50.79 28.04 50.81Z" fill="#0FC8EF"/>
<path d="M36.3602 36.29C37.1389 36.29 37.7702 35.6587 37.7702 34.88C37.7702 34.1012 37.1389 33.47 36.3602 33.47C35.5815 33.47 34.9502 34.1012 34.9502 34.88C34.9502 35.6587 35.5815 36.29 36.3602 36.29Z" fill="#FAEEEF"/>
<path d="M35.6099 36.78C35.0099 36.54 34.5399 36.03 34.3799 35.39C33.5899 35.34 32.7899 35.69 32.2799 36.38C31.4999 37.46 31.7399 38.97 32.8099 39.75C33.7899 40.46 35.1199 40.33 35.9399 39.5C35.3899 38.68 35.2899 37.67 35.6099 36.78Z" fill="#EF3D5A"/>
<path d="M37.9398 36.18C37.5298 36.68 36.8898 36.96 36.2398 36.92C35.9498 37.66 36.0298 38.53 36.5298 39.22C37.3098 40.3 38.8198 40.54 39.8998 39.75C40.8798 39.04 41.1698 37.73 40.6298 36.69C39.6698 36.97 38.6798 36.75 37.9398 36.18Z" fill="#EF3D5A"/>
<path d="M38.0898 33.77C38.4398 34.32 38.5098 35.01 38.2698 35.62C38.8898 36.12 39.7398 36.32 40.5498 36.05C41.8198 35.64 42.5098 34.28 42.0998 33.01C41.7298 31.86 40.5698 31.18 39.4098 31.37C39.3798 32.37 38.8598 33.24 38.0898 33.77Z" fill="#EF3D5A"/>
<path d="M35.8502 32.89C36.4802 32.73 37.1602 32.87 37.6602 33.29C38.3302 32.86 38.7702 32.11 38.7702 31.26C38.7702 29.93 37.6902 28.85 36.3602 28.85C35.1502 28.85 34.1502 29.74 33.9702 30.9C34.9102 31.23 35.5802 31.99 35.8502 32.89Z" fill="#EF3D5A"/>
<path d="M34.3101 34.75C34.3501 34.1 34.7001 33.5 35.2501 33.15C35.0501 32.38 34.4701 31.73 33.6601 31.46C32.3901 31.05 31.0301 31.74 30.6201 33.01C30.2501 34.16 30.7801 35.39 31.8301 35.91C32.4401 35.13 33.3801 34.73 34.3101 34.75Z" fill="#EF3D5A"/>
<path d="M30.2401 24.52C31.0188 24.52 31.6501 23.8887 31.6501 23.11C31.6501 22.3312 31.0188 21.7 30.2401 21.7C29.4614 21.7 28.8301 22.3312 28.8301 23.11C28.8301 23.8887 29.4614 24.52 30.2401 24.52Z" fill="#FAEEEF"/>
<path d="M29.48 25.0199C28.88 24.7799 28.41 24.2699 28.25 23.6299C27.46 23.5799 26.66 23.9299 26.15 24.6199C25.37 25.6999 25.61 27.2099 26.68 27.9899C27.66 28.6999 28.99 28.5699 29.81 27.7399C29.27 26.9099 29.17 25.8999 29.48 25.0199Z" fill="#0FC8EF"/>
<path d="M31.8197 24.42C31.4097 24.92 30.7697 25.2 30.1197 25.16C29.8297 25.9 29.9097 26.77 30.4097 27.46C31.1897 28.54 32.6997 28.78 33.7797 27.99C34.7597 27.28 35.0497 25.97 34.5097 24.93C33.5497 25.21 32.5597 24.99 31.8197 24.42Z" fill="#0FC8EF"/>
<path d="M31.96 22.01C32.31 22.56 32.38 23.25 32.14 23.86C32.76 24.36 33.61 24.56 34.42 24.29C35.69 23.88 36.38 22.52 35.97 21.25C35.6 20.1 34.44 19.42 33.28 19.61C33.25 20.6 32.74 21.48 31.96 22.01Z" fill="#0FC8EF"/>
<path d="M29.7198 21.13C30.3498 20.97 31.0298 21.11 31.5298 21.53C32.1998 21.1 32.6398 20.35 32.6398 19.5C32.6398 18.17 31.5598 17.09 30.2298 17.09C29.0198 17.09 28.0198 17.98 27.8398 19.14C28.7798 19.47 29.4598 20.23 29.7198 21.13Z" fill="#0FC8EF"/>
<path d="M28.1899 22.99C28.2299 22.34 28.5799 21.74 29.1299 21.39C28.9299 20.62 28.3499 19.9699 27.5399 19.6999C26.2699 19.2899 24.9099 19.98 24.4999 21.25C24.1299 22.4 24.6599 23.63 25.7099 24.15C26.3199 23.37 27.2499 22.96 28.1899 22.99Z" fill="#0FC8EF"/>
<path d="M50.4296 7.40998C50.4396 8.65998 50.4796 10.01 50.5296 11.39C50.6096 13.88 50.7496 16.5 50.9196 19.02C50.9896 20.05 51.0596 21.06 51.1296 22.04C51.2096 23.13 51.2796 24.17 51.3696 25.16C51.3996 25.45 51.4196 25.73 51.4496 26V26.03C51.5796 27.58 51.6996 28.95 51.8096 30.07C51.9696 31.63 52.0896 32.69 52.1496 33C52.2396 33.49 52.4896 35.42 52.7796 37.94C52.7796 37.94 52.7896 37.94 52.7896 37.95C52.8296 38.32 52.8796 38.71 52.9196 39.1C53.1296 40.91 53.3596 42.9 53.5796 44.85V44.86C53.5896 44.91 53.5896 44.95 53.5996 45L53.8896 47.52C53.9196 47.76 53.9396 47.99 53.9596 48.22C53.9996 48.53 54.0296 48.83 54.0696 49.12C54.3296 51.51 54.5296 53.36 54.5996 53.89C54.5996 54 54.6096 54.05 54.6096 54.05C54.0996 55.83 53.7296 57.81 53.4796 59.88V59.9C53.4196 60.34 53.3696 60.76 53.3296 61.2C53.1096 63.43 52.9796 65.7 52.9296 67.84C52.9296 68.05 52.9296 68.26 52.9196 68.46V68.5C52.8196 74.26 53.1896 78.92 53.1896 78.92H68.3596V75.63C68.9496 75.54 69.8996 75.65 70.9596 75.85C72.1296 76.08 73.4196 76.4 74.5396 76.72C76.1496 77.17 77.3896 77.59 77.3896 77.59C89.1996 80.93 100.91 78.92 100.91 78.92V72.66C100.51 67.42 96.4496 64.03 92.2796 61.92C91.0196 61.28 89.7696 60.76 88.5996 60.35V60.34C88.2196 60.21 87.8596 60.08 87.4996 59.97C86.4796 59.64 85.5296 59.19 84.6596 58.62C83.8496 58.11 83.1096 57.5 82.4596 56.81C81.3096 55.63 80.4196 54.22 79.8596 52.67C79.4996 51.72 79.2796 50.71 79.1896 49.67C78.9996 47.41 78.9596 44.85 79.0496 42.12C79.0696 41.6 79.0896 41.06 79.1196 40.52C79.1196 40.51 79.1196 40.5 79.1196 40.5C79.1196 40.25 79.1396 40 79.1496 39.74C79.1596 39.55 79.1696 39.37 79.1796 39.18C79.2096 38.77 79.2296 38.36 79.2596 37.95C79.2596 37.94 79.2596 37.94 79.2596 37.94C79.3096 37.2 79.3696 36.45 79.4396 35.7C79.4596 35.38 79.4896 35.06 79.5196 34.74C79.5996 33.79 79.6996 32.84 79.7996 31.88C79.8496 31.43 79.8996 30.98 79.9496 30.52C79.9696 30.31 79.9996 30.09 80.0296 29.88C80.4796 26.02 81.0296 22.2 81.5896 18.75C81.8096 17.34 82.0396 16 82.2496 14.73C82.3296 14.29 82.3996 13.86 82.4796 13.44V13.43C82.5496 13.05 82.6096 12.69 82.6796 12.33C82.6796 12.32 82.6796 12.32 82.6796 12.31C82.8596 11.31 83.0396 10.39 83.1996 9.54998C83.5196 7.86998 83.7896 6.51998 83.9696 5.61998C84.1396 4.78998 84.2396 4.33998 84.2396 4.33998C83.6496 4.26998 82.8696 4.17998 81.9496 4.07998C81.9396 4.07998 81.9396 4.07998 81.9396 4.07998C81.6896 4.03998 81.4396 4.00998 81.1596 3.97998C80.5696 3.90998 79.9296 3.82998 79.2596 3.75998C79.2496 3.75998 79.2496 3.75998 79.2496 3.75998C77.8496 3.58998 76.2996 3.40998 74.6396 3.21998C74.3696 3.18998 74.0996 3.15998 73.8296 3.12998C72.9296 3.01998 72.0096 2.91998 71.0696 2.80998C69.4496 2.61998 67.7896 2.42998 66.1696 2.23998C64.7896 2.08998 63.4196 1.92998 62.1296 1.78998C62.0396 1.77998 61.9396 1.76998 61.8496 1.75998C60.1596 1.55998 58.5896 1.37998 57.1796 1.20998C56.7996 1.16998 56.4396 1.12998 56.0896 1.08998C55.2096 0.98998 54.3996 0.90998 53.7096 0.81998C51.8696 0.60998 50.7696 0.47998 50.7696 0.47998C50.5096 2.07998 50.3996 4.53998 50.4296 7.40998Z" fill="#030306"/>
<path d="M76.829 10.3799C77.8287 10.3799 78.639 9.56958 78.639 8.56995C78.639 7.57031 77.8287 6.75995 76.829 6.75995C75.8294 6.75995 75.019 7.57031 75.019 8.56995C75.019 9.56958 75.8294 10.3799 76.829 10.3799Z" fill="#0FC8EF"/>
<path d="M77.7991 11.0199C78.5791 10.7099 79.1691 10.0499 79.3891 9.22992C80.4091 9.16992 81.4391 9.61992 82.0891 10.4999C83.0991 11.8899 82.7891 13.8299 81.3991 14.8399C80.1391 15.7499 78.4291 15.5899 77.3691 14.5099C78.0791 13.4599 78.1991 12.1599 77.7991 11.0199Z" fill="#EF3D5A"/>
<path d="M74.7993 10.2499C75.3293 10.8899 76.1493 11.2599 76.9893 11.2099C77.3593 12.1599 77.2593 13.2799 76.6093 14.1699C75.5993 15.5599 73.6593 15.8699 72.2693 14.8599C71.0093 13.9499 70.6393 12.2599 71.3293 10.9199C72.5693 11.2599 73.8393 10.9799 74.7993 10.2499Z" fill="#EF3D5A"/>
<path d="M74.6093 7.14996C74.1593 7.84996 74.0693 8.73996 74.3793 9.52996C73.5893 10.18 72.4893 10.42 71.4493 10.08C69.8193 9.54996 68.9293 7.79996 69.4593 6.16996C69.9393 4.68996 71.4293 3.81996 72.9093 4.05996C72.9493 5.33996 73.6193 6.46996 74.6093 7.14996Z" fill="#EF3D5A"/>
<path d="M73.7295 3.90994C73.7295 5.00994 74.2995 5.97994 75.1595 6.52994C75.8095 5.98994 76.6895 5.80994 77.4895 6.01994C77.7695 5.07994 78.3895 4.25994 79.2495 3.75994C77.8495 3.58994 76.2995 3.40994 74.6395 3.21994C74.3695 3.18994 74.0995 3.15994 73.8295 3.12994C73.7695 3.37994 73.7295 3.63994 73.7295 3.90994Z" fill="#EF3D5A"/>
<path d="M78.2593 6.34991C78.9693 6.79991 79.4193 7.57991 79.4693 8.40991C80.6693 8.37991 81.8693 8.89991 82.6593 9.89991C82.8493 9.79991 83.0293 9.68991 83.1993 9.54991C83.5193 7.86991 83.7893 6.51991 83.9693 5.61991C83.2693 4.34991 81.7393 3.70991 80.3093 4.17991C79.2593 4.51991 78.5193 5.35991 78.2593 6.34991Z" fill="#EF3D5A"/>
<path d="M58.9995 8.59998C59.9991 8.59998 60.8095 7.78962 60.8095 6.78998C60.8095 5.79035 59.9991 4.97998 58.9995 4.97998C57.9998 4.97998 57.1895 5.79035 57.1895 6.78998C57.1895 7.78962 57.9998 8.59998 58.9995 8.59998Z" fill="#FAEEEF"/>
<path d="M59.9695 9.23995C60.7495 8.92995 61.3395 8.26995 61.5595 7.44995C62.5795 7.38995 63.6095 7.83995 64.2595 8.71995C65.2695 10.11 64.9595 12.05 63.5695 13.06C62.3095 13.97 60.5996 13.81 59.5396 12.73C60.2496 11.68 60.3695 10.38 59.9695 9.23995Z" fill="#0FC8EF"/>
<path d="M56.9697 8.46997C57.4997 9.10997 58.3197 9.47997 59.1597 9.42997C59.5297 10.38 59.4297 11.5 58.7797 12.39C57.7697 13.78 55.8297 14.09 54.4397 13.08C53.1797 12.17 52.8097 10.48 53.4997 9.13997C54.7397 9.47997 56.0097 9.19997 56.9697 8.46997Z" fill="#0FC8EF"/>
<path d="M56.7797 5.36999C56.3297 6.06999 56.2397 6.95999 56.5497 7.74999C55.7597 8.39999 54.6597 8.63999 53.6197 8.29999C51.9897 7.76999 51.0997 6.01999 51.6297 4.38999C52.1097 2.90999 53.5997 2.03999 55.0797 2.27999C55.1197 3.56999 55.7897 4.68999 56.7797 5.36999Z" fill="#0FC8EF"/>
<path d="M55.8999 2.12997C55.8999 3.22997 56.4699 4.19997 57.3299 4.74997C57.9899 4.20997 58.8599 4.02997 59.6699 4.23997C59.9899 3.15997 60.7599 2.22997 61.8499 1.75997C60.1599 1.55997 58.5899 1.37997 57.1799 1.20997C56.7999 1.16997 56.4399 1.12997 56.0899 1.08997C55.9599 1.41997 55.8999 1.76997 55.8999 2.12997Z" fill="#0FC8EF"/>
<path d="M61.6397 6.63C61.5897 5.8 61.1397 5.03 60.4297 4.57C60.6897 3.58 61.4297 2.74 62.4797 2.4C64.1097 1.87 65.8597 2.76 66.3897 4.39C66.8697 5.87 66.1797 7.45 64.8297 8.12C64.0397 7.12 62.8397 6.6 61.6397 6.63Z" fill="#0FC8EF"/>
<path d="M55.8994 25.32C56.899 25.32 57.7094 24.5096 57.7094 23.51C57.7094 22.5104 56.899 21.7 55.8994 21.7C54.8997 21.7 54.0894 22.5104 54.0894 23.51C54.0894 24.5096 54.8997 25.32 55.8994 25.32Z" fill="#DA2840"/>
<path d="M56.8695 25.96C57.6495 25.65 58.2395 24.99 58.4595 24.17C59.4795 24.11 60.5095 24.56 61.1595 25.44C62.1695 26.83 61.8595 28.77 60.4695 29.78C59.2095 30.69 57.4995 30.53 56.4395 29.45C57.1395 28.4 57.2695 27.1 56.8695 25.96Z" fill="#FAEEEF"/>
<path d="M51.4492 26V26.03C51.5792 27.58 51.6992 28.95 51.8092 30.07C53.1292 30.72 54.7792 30.34 55.6692 29.11C56.3192 28.22 56.4292 27.1 56.0492 26.15C55.2092 26.19 54.3992 25.83 53.8692 25.19C53.1792 25.71 52.3292 26.01 51.4492 26Z" fill="#FAEEEF"/>
<path d="M50.9194 19.02C50.9894 20.05 51.0594 21.06 51.1294 22.04C51.2094 23.13 51.2794 24.17 51.3694 25.16C52.1294 25.2 52.8694 24.94 53.4394 24.47C53.1294 23.68 53.2294 22.8 53.6694 22.09C52.6794 21.41 52.0194 20.29 51.9694 19C51.6094 18.94 51.2594 18.95 50.9194 19.02Z" fill="#FAEEEF"/>
<path d="M56.5593 20.96C55.7493 20.75 54.8793 20.94 54.2293 21.47C53.3693 20.92 52.7993 19.95 52.7993 18.85C52.7993 17.13 54.1893 15.74 55.9093 15.74C57.4693 15.74 58.7493 16.88 58.9793 18.37C57.7693 18.82 56.8993 19.8 56.5593 20.96Z" fill="#FAEEEF"/>
<path d="M58.5293 23.35C58.4793 22.52 58.0293 21.75 57.3193 21.29C57.5793 20.3 58.3193 19.46 59.3693 19.12C60.9993 18.59 62.7493 19.48 63.2793 21.11C63.7593 22.59 63.0693 24.17 61.7193 24.84C60.9293 23.84 59.7393 23.32 58.5293 23.35Z" fill="#FAEEEF"/>
<path d="M77.0093 37.41C77.0093 38.41 77.8193 39.22 78.8193 39.22C78.9393 39.22 79.0593 39.21 79.1793 39.18C79.2093 38.77 79.2293 38.36 79.2593 37.95C79.2593 37.94 79.2593 37.94 79.2593 37.94C79.3093 37.2 79.3693 36.45 79.4393 35.7C79.2493 35.63 79.0393 35.59 78.8193 35.59C77.8193 35.59 77.0093 36.4 77.0093 37.41Z" fill="#DA2840"/>
<path d="M79.0495 42.12C78.9495 42.43 78.7995 42.72 78.5995 43C77.5895 44.39 75.6495 44.7 74.2595 43.69C72.9995 42.77 72.6295 41.09 73.3195 39.75C74.5595 40.1 75.8295 39.82 76.7895 39.08C77.3195 39.73 78.1295 40.09 78.9795 40.04C79.0395 40.19 79.0795 40.34 79.1195 40.5C79.1195 40.5 79.1195 40.51 79.1195 40.52L79.0495 42.12Z" fill="#FAEEEF"/>
<path d="M76.5995 35.9899C76.1495 36.6899 76.0595 37.5799 76.3695 38.3699C75.5795 39.0199 74.4795 39.2599 73.4395 38.9199C71.8095 38.3899 70.9195 36.6399 71.4495 35.0099C71.9295 33.5299 73.4195 32.6599 74.8995 32.8999C74.9395 34.1799 75.6095 35.3099 76.5995 35.9899Z" fill="#FAEEEF"/>
<path d="M75.7197 32.75C75.7197 33.85 76.2897 34.81 77.1497 35.36C77.8097 34.83 78.6797 34.64 79.4797 34.85C79.4897 34.81 79.4997 34.77 79.5197 34.74C79.5997 33.79 79.6997 32.84 79.7997 31.88C79.8497 31.43 79.8997 30.98 79.9497 30.52C79.9697 30.31 79.9997 30.09 80.0297 29.88C79.6597 29.72 79.2497 29.64 78.8197 29.64C77.1097 29.64 75.7197 31.03 75.7197 32.75Z" fill="#FAEEEF"/>
<path d="M56.6694 48.89C57.669 48.89 58.4794 48.0796 58.4794 47.08C58.4794 46.0803 57.669 45.27 56.6694 45.27C55.6697 45.27 54.8594 46.0803 54.8594 47.08C54.8594 48.0796 55.6697 48.89 56.6694 48.89Z" fill="#0FC8EF"/>
<path d="M57.6292 49.54C58.4092 49.23 58.9992 48.5699 59.2192 47.7599C60.2392 47.6999 61.2692 48.1499 61.9192 49.0299C62.9292 50.4199 62.6192 52.36 61.2292 53.3699C59.9692 54.2799 58.2592 54.12 57.1992 53.04C57.9092 51.97 58.0292 50.67 57.6292 49.54Z" fill="#EF3D5A"/>
<path d="M54.0693 49.1199C54.3293 51.5099 54.5293 53.36 54.5993 53.8899C55.3193 53.7299 55.9793 53.32 56.4393 52.68C57.0893 51.79 57.1893 50.67 56.8193 49.72C55.9793 49.77 55.1593 49.4099 54.6293 48.7599C54.4493 48.8999 54.2693 49.0199 54.0693 49.1199Z" fill="#EF3D5A"/>
<path d="M53.5791 44.8599C53.5891 44.9099 53.5891 44.9499 53.5991 44.9999L53.8891 47.5199C53.9191 47.7599 53.9391 47.9899 53.9591 48.2199C54.0491 48.1699 54.1291 48.1099 54.2091 48.0399C53.8991 47.2599 53.9991 46.3699 54.4391 45.6699C54.1091 45.4399 53.8291 45.1699 53.5791 44.8599Z" fill="#EF3D5A"/>
<path d="M57.3293 44.5299C56.5193 44.3199 55.6493 44.5099 54.9993 45.0399C54.1393 44.4899 53.5693 43.5199 53.5693 42.4199C53.5693 40.6999 54.9593 39.3099 56.6793 39.3099C58.2393 39.3099 59.5193 40.4499 59.7493 41.9399C58.5293 42.3999 57.6693 43.3799 57.3293 44.5299Z" fill="#EF3D5A"/>
<path d="M59.2994 46.9199C59.2494 46.0899 58.7994 45.3199 58.0894 44.8599C58.3494 43.8699 59.0894 43.0299 60.1394 42.6899C61.7694 42.1599 63.5194 43.0499 64.0494 44.6799C64.5294 46.1599 63.8394 47.7399 62.4894 48.4099C61.6994 47.4099 60.4994 46.8899 59.2994 46.9199Z" fill="#EF3D5A"/>
<path d="M82.1391 61.23C83.1387 61.23 83.9491 60.4196 83.9491 59.42C83.9491 58.4203 83.1387 57.61 82.1391 57.61C81.1395 57.61 80.3291 58.4203 80.3291 59.42C80.3291 60.4196 81.1395 61.23 82.1391 61.23Z" fill="#0FC8EF"/>
<path d="M83.1092 61.88C83.8892 61.57 84.4792 60.91 84.6992 60.1C85.7192 60.04 86.7492 60.49 87.3992 61.37C88.4092 62.76 88.0992 64.7 86.7092 65.71C85.4492 66.62 83.7392 66.46 82.6792 65.38C83.3892 64.31 83.5092 63.01 83.1092 61.88Z" fill="#FAEEEF"/>
<path d="M80.1094 61.1C80.6394 61.74 81.4594 62.11 82.2994 62.06C82.6694 63.01 82.5694 64.13 81.9194 65.02C80.9094 66.41 78.9694 66.72 77.5794 65.71C76.3194 64.8 75.9494 63.11 76.6394 61.77C77.8794 62.12 79.1494 61.83 80.1094 61.1Z" fill="#FAEEEF"/>
<path d="M79.9193 58.01C79.4693 58.71 79.3793 59.6 79.6893 60.39C78.8993 61.04 77.7993 61.28 76.7593 60.94C75.1293 60.41 74.2393 58.66 74.7693 57.03C75.2493 55.55 76.7393 54.68 78.2193 54.92C78.2593 56.2 78.9293 57.32 79.9193 58.01Z" fill="#FAEEEF"/>
<path d="M79.0396 54.76C79.0396 55.86 79.6096 56.83 80.4696 57.38C81.0396 56.93 81.7596 56.72 82.4596 56.81C81.3096 55.63 80.4196 54.22 79.8596 52.67C79.3496 53.22 79.0396 53.95 79.0396 54.76Z" fill="#FAEEEF"/>
<path d="M84.6592 58.62C84.7292 58.83 84.7692 59.04 84.7792 59.26C85.9792 59.23 87.1792 59.75 87.9692 60.76C88.1992 60.64 88.4092 60.5 88.5992 60.34C88.2192 60.21 87.8592 60.08 87.4992 59.97C86.4792 59.64 85.5292 59.19 84.6592 58.62Z" fill="#FAEEEF"/>
<path d="M62.7196 62.55C63.4983 62.55 64.1296 61.9187 64.1296 61.14C64.1296 60.3613 63.4983 59.73 62.7196 59.73C61.9408 59.73 61.3096 60.3613 61.3096 61.14C61.3096 61.9187 61.9408 62.55 62.7196 62.55Z" fill="#FAEEEF"/>
<path d="M63.4696 63.04C64.0696 62.8 64.5396 62.29 64.6996 61.65C65.4896 61.6 66.2896 61.95 66.7996 62.64C67.5796 63.72 67.3396 65.23 66.2696 66.01C65.2896 66.72 63.9596 66.59 63.1396 65.76C63.6896 64.94 63.7796 63.93 63.4696 63.04Z" fill="#EF3D5A"/>
<path d="M61.1397 62.44C61.5497 62.94 62.1897 63.22 62.8397 63.18C63.1297 63.92 63.0497 64.79 62.5497 65.48C61.7697 66.56 60.2597 66.8 59.1797 66.01C58.1997 65.3 57.9097 63.99 58.4497 62.95C59.3997 63.23 60.3997 63.01 61.1397 62.44Z" fill="#EF3D5A"/>
<path d="M60.9896 60.03C60.6396 60.58 60.5695 61.27 60.8095 61.88C60.1895 62.38 59.3396 62.58 58.5296 62.31C57.2596 61.9 56.5696 60.54 56.9796 59.27C57.3496 58.12 58.5096 57.44 59.6696 57.63C59.6996 58.63 60.2196 59.5 60.9896 60.03Z" fill="#EF3D5A"/>
<path d="M63.2296 59.15C62.5996 58.99 61.9196 59.13 61.4196 59.55C60.7496 59.12 60.3096 58.37 60.3096 57.52C60.3096 56.19 61.3896 55.11 62.7196 55.11C63.9296 55.11 64.9296 56 65.1096 57.16C64.1696 57.49 63.4996 58.25 63.2296 59.15Z" fill="#EF3D5A"/>
<path d="M64.7696 61.01C64.7296 60.36 64.3796 59.76 63.8296 59.41C64.0296 58.64 64.6096 57.99 65.4196 57.72C66.6896 57.31 68.0496 58 68.4596 59.27C68.8296 60.42 68.2996 61.65 67.2496 62.17C66.6296 61.39 65.6996 60.99 64.7696 61.01Z" fill="#EF3D5A"/>
<path d="M71.1195 52.35C71.8982 52.35 72.5295 51.7187 72.5295 50.94C72.5295 50.1612 71.8982 49.53 71.1195 49.53C70.3407 49.53 69.7095 50.1612 69.7095 50.94C69.7095 51.7187 70.3407 52.35 71.1195 52.35Z" fill="#EF3D5A"/>
<path d="M71.8696 52.85C72.4696 52.61 72.9396 52.1 73.0996 51.46C73.8896 51.41 74.6896 51.76 75.1996 52.45C75.9796 53.53 75.7396 55.04 74.6696 55.82C73.6896 56.53 72.3596 56.4 71.5396 55.57C72.0896 54.74 72.1896 53.73 71.8696 52.85Z" fill="#0FC8EF"/>
<path d="M69.5396 52.24C69.9496 52.74 70.5896 53.02 71.2396 52.98C71.5296 53.72 71.4496 54.59 70.9496 55.28C70.1696 56.36 68.6596 56.6 67.5796 55.81C66.5996 55.1 66.3096 53.79 66.8496 52.75C67.8096 53.03 68.7996 52.81 69.5396 52.24Z" fill="#0FC8EF"/>
<path d="M69.3894 49.84C69.0394 50.39 68.9695 51.08 69.2095 51.69C68.5895 52.19 67.7394 52.39 66.9295 52.12C65.6595 51.71 64.9695 50.35 65.3795 49.08C65.7495 47.93 66.9094 47.25 68.0694 47.44C68.1094 48.43 68.6194 49.31 69.3894 49.84Z" fill="#0FC8EF"/>
<path d="M71.6392 48.95C71.0092 48.79 70.3292 48.93 69.8292 49.35C69.1592 48.92 68.7192 48.17 68.7192 47.32C68.7192 45.99 69.7992 44.91 71.1292 44.91C72.3392 44.91 73.3392 45.8 73.5192 46.96C72.5692 47.29 71.8992 48.06 71.6392 48.95Z" fill="#0FC8EF"/>
<path d="M73.1695 50.81C73.1295 50.16 72.7795 49.56 72.2295 49.21C72.4295 48.44 73.0095 47.79 73.8195 47.52C75.0895 47.11 76.4495 47.8 76.8595 49.07C77.2295 50.22 76.6995 51.45 75.6495 51.97C75.0395 51.19 74.1095 50.79 73.1695 50.81Z" fill="#0FC8EF"/>
<path d="M64.8495 36.29C65.6282 36.29 66.2595 35.6587 66.2595 34.88C66.2595 34.1012 65.6282 33.47 64.8495 33.47C64.0707 33.47 63.4395 34.1012 63.4395 34.88C63.4395 35.6587 64.0707 36.29 64.8495 36.29Z" fill="#FAEEEF"/>
<path d="M65.5995 36.78C66.1995 36.54 66.6695 36.03 66.8295 35.39C67.6195 35.34 68.4195 35.69 68.9295 36.38C69.7095 37.46 69.4695 38.97 68.3995 39.75C67.4195 40.46 66.0895 40.33 65.2695 39.5C65.8195 38.68 65.9095 37.67 65.5995 36.78Z" fill="#EF3D5A"/>
<path d="M63.2696 36.18C63.6796 36.68 64.3196 36.96 64.9696 36.92C65.2596 37.66 65.1796 38.53 64.6796 39.22C63.8996 40.3 62.3896 40.54 61.3096 39.75C60.3296 39.04 60.0396 37.73 60.5796 36.69C61.5296 36.97 62.5196 36.75 63.2696 36.18Z" fill="#EF3D5A"/>
<path d="M63.1194 33.77C62.7694 34.32 62.6994 35.01 62.9394 35.62C62.3194 36.12 61.4694 36.32 60.6594 36.05C59.3894 35.64 58.6994 34.28 59.1094 33.01C59.4794 31.86 60.6394 31.18 61.7994 31.37C61.8294 32.37 62.3494 33.24 63.1194 33.77Z" fill="#EF3D5A"/>
<path d="M65.3595 32.89C64.7295 32.73 64.0495 32.87 63.5495 33.29C62.8795 32.86 62.4395 32.11 62.4395 31.26C62.4395 29.93 63.5195 28.85 64.8495 28.85C66.0595 28.85 67.0595 29.74 67.2395 30.9C66.2995 31.23 65.6295 31.99 65.3595 32.89Z" fill="#EF3D5A"/>
<path d="M66.8995 34.75C66.8595 34.1 66.5095 33.5 65.9595 33.15C66.1595 32.38 66.7395 31.73 67.5495 31.46C68.8195 31.05 70.1795 31.74 70.5895 33.01C70.9595 34.16 70.4295 35.39 69.3795 35.91C68.7595 35.13 67.8295 34.73 66.8995 34.75Z" fill="#EF3D5A"/>
<path d="M70.9696 24.52C71.7483 24.52 72.3796 23.8887 72.3796 23.11C72.3796 22.3312 71.7483 21.7 70.9696 21.7C70.1908 21.7 69.5596 22.3312 69.5596 23.11C69.5596 23.8887 70.1908 24.52 70.9696 24.52Z" fill="#FAEEEF"/>
<path d="M71.7294 25.0199C72.3294 24.7799 72.7994 24.2699 72.9594 23.6299C73.7494 23.5799 74.5494 23.9299 75.0594 24.6199C75.8394 25.6999 75.5994 27.2099 74.5294 27.9899C73.5494 28.6999 72.2194 28.5699 71.3994 27.7399C71.9394 26.9099 72.0394 25.8999 71.7294 25.0199Z" fill="#0FC8EF"/>
<path d="M69.3897 24.42C69.7997 24.92 70.4397 25.2 71.0897 25.16C71.3797 25.9 71.2997 26.77 70.7997 27.46C70.0197 28.54 68.5097 28.78 67.4297 27.99C66.4497 27.28 66.1597 25.97 66.6997 24.93C67.6597 25.21 68.6497 24.99 69.3897 24.42Z" fill="#0FC8EF"/>
<path d="M69.2396 22.01C68.8896 22.56 68.8196 23.25 69.0596 23.86C68.4396 24.36 67.5896 24.56 66.7796 24.29C65.5096 23.88 64.8196 22.52 65.2296 21.25C65.5996 20.1 66.7596 19.42 67.9196 19.61C67.9596 20.6 68.4696 21.48 69.2396 22.01Z" fill="#0FC8EF"/>
<path d="M71.4893 21.13C70.8593 20.97 70.1793 21.11 69.6793 21.53C69.0093 21.1 68.5693 20.35 68.5693 19.5C68.5693 18.17 69.6493 17.09 70.9793 17.09C72.1893 17.09 73.1893 17.98 73.3693 19.14C72.4293 19.47 71.7493 20.23 71.4893 21.13Z" fill="#0FC8EF"/>
<path d="M73.0196 22.99C72.9796 22.34 72.6296 21.74 72.0796 21.39C72.2796 20.62 72.8596 19.9699 73.6696 19.6999C74.9396 19.2899 76.2996 19.98 76.7096 21.25C77.0796 22.4 76.5496 23.63 75.4996 24.15C74.8896 23.37 73.9596 22.96 73.0196 22.99Z" fill="#0FC8EF"/>
</g>
<defs>
<clipPath id="clip0_301_2160">
<rect width="100.61" height="79.04" fill="white" transform="translate(0.299805 0.47998)"/>
</clipPath>
</defs>
</svg>
