<svg width="96" height="26" viewBox="0 0 96 26" fill="none" xmlns="http://www.w3.org/2000/svg">
<g clip-path="url(#clip0_301_8629)">
<path d="M23.4004 9.92998L45.9804 0.169983V3.95998L24.5204 12.43L23.4004 9.92998Z" fill="#FC9221"/>
<path d="M29.0202 20.51L11.2702 22.13L6.93018 7.45C7.39018 7.07 8.09018 6.6 8.94018 6.06C9.28018 5.86 9.65018 5.63 10.0302 5.4C10.8102 4.93 11.6702 4.44 12.5302 3.95C12.9102 3.75 13.2802 3.55 13.6402 3.34C14.5902 2.81 15.5202 2.3 16.3602 1.86C16.7602 1.65 17.1402 1.44 17.4802 1.25C18.7102 0.610003 19.5102 0.190002 19.5102 0.190002L29.0202 20.51Z" fill="#FBA33D"/>
<path d="M26.0401 19.8L24.8901 20.33L16.3501 1.86C16.7501 1.65 17.1301 1.44 17.4701 1.25L26.0401 19.8Z" fill="#E18A1D"/>
<path d="M21.44 20.22L20.3 20.75L12.52 3.94997C12.9 3.74997 13.27 3.54997 13.63 3.33997L21.44 20.22Z" fill="#E18A1D"/>
<path d="M17.3004 21.13L16.1504 21.66L8.94043 6.05996C9.28043 5.85996 9.65043 5.62996 10.0304 5.39996L17.3004 21.13Z" fill="#E18A1D"/>
<path d="M45.9802 16.96V25.83H0.470215V19.87L45.9802 16.96Z" fill="#111E2B"/>
<path d="M10.3104 22.18H7.92041V25.83H10.3104V22.18Z" fill="#414B55"/>
<path d="M28.42 22.18H26.04V25.83H28.42V22.18Z" fill="#414B55"/>
<path d="M35.0404 22.18H32.6504V25.83H35.0404V22.18Z" fill="#414B55"/>
<path d="M41.65 22.18H39.27V25.83H41.65V22.18Z" fill="#414B55"/>
<path d="M73.0304 9.92998L50.4404 0.169983V3.95998L71.9004 12.43L73.0304 9.92998Z" fill="#FC9221"/>
<path d="M67.4004 20.51L85.1504 22.13L89.5004 7.45C89.0304 7.07 88.3404 6.6 87.4904 6.06C87.1504 5.86 86.7804 5.63 86.4004 5.4C85.6204 4.93 84.7604 4.44 83.9004 3.95C83.5204 3.75 83.1504 3.55 82.7904 3.34C81.8404 2.81 80.9104 2.3 80.0704 1.86C79.6704 1.65 79.2904 1.44 78.9504 1.25C77.7204 0.610003 76.9204 0.190002 76.9204 0.190002L67.4004 20.51Z" fill="#FBA33D"/>
<path d="M70.3804 19.8L71.5304 20.33L80.0704 1.86C79.6704 1.65 79.2904 1.44 78.9504 1.25L70.3804 19.8Z" fill="#E18A1D"/>
<path d="M74.9805 20.22L76.1205 20.75L83.9005 3.94997C83.5205 3.74997 83.1505 3.54997 82.7905 3.33997L74.9805 20.22Z" fill="#E18A1D"/>
<path d="M79.1206 21.13L80.2706 21.66L87.4806 6.05996C87.1406 5.85996 86.7706 5.62996 86.3906 5.39996L79.1206 21.13Z" fill="#E18A1D"/>
<path d="M50.4404 16.96V25.83H95.9504V19.87L50.4404 16.96Z" fill="#111E2B"/>
<path d="M88.5004 22.18H86.1104V25.83H88.5004V22.18Z" fill="#414B55"/>
<path d="M70.3805 22.18H68.0005V25.83H70.3805V22.18Z" fill="#414B55"/>
<path d="M63.7704 22.18H61.3804V25.83H63.7704V22.18Z" fill="#414B55"/>
<path d="M57.1505 22.18H54.7705V25.83H57.1505V22.18Z" fill="#414B55"/>
</g>
<defs>
<clipPath id="clip0_301_8629">
<rect width="95.48" height="25.66" fill="white" transform="translate(0.470215 0.169983)"/>
</clipPath>
</defs>
</svg>
