<svg width="95" height="22" viewBox="0 0 95 22" fill="none" xmlns="http://www.w3.org/2000/svg">
<g clip-path="url(#clip0_301_8659)">
<path d="M36.93 16.865C36.93 16.865 25.18 3.225 10.12 1.045C10.12 1.045 6.10003 0.0750039 9.13003 4.645C9.13003 4.645 9.27003 2.885 10.29 2.955C11.87 3.075 22.6 6.435 33.2 16.465C35.38 18.535 35.16 15.335 36.93 16.865Z" fill="#489DD7"/>
<path d="M0.951271 21.0356L45.8013 21.0356L45.8013 15.4456L0.951271 15.4456L0.951271 21.0356Z" fill="#F7ECB9"/>
<path d="M58.2197 16.865C58.2197 16.865 69.9697 3.225 85.0297 1.045C85.0297 1.045 89.0497 0.0750039 86.0197 4.645C86.0197 4.645 85.8797 2.885 84.8597 2.955C83.2697 3.075 72.5397 6.435 61.9497 16.465C59.7697 18.535 59.9797 15.335 58.2197 16.865Z" fill="#489DD7"/>
<path d="M94.1898 15.455H49.3398V21.045H94.1898V15.455Z" fill="#F7ECB9"/>
</g>
<defs>
<clipPath id="clip0_301_8659">
<rect width="93.25" height="20.09" fill="white" transform="translate(0.950195 0.955017)"/>
</clipPath>
</defs>
</svg>
