<svg width="77" height="80" viewBox="0 0 77 80" fill="none" xmlns="http://www.w3.org/2000/svg">
<g clip-path="url(#clip0_301_15159)">
<path d="M25.9799 7.40998C25.9899 8.65998 26.0299 10.01 26.0799 11.39C26.1599 13.88 26.2999 16.5 26.4699 19.02C26.5399 20.05 26.6099 21.06 26.6799 22.04C26.7599 23.13 26.8299 24.17 26.9199 25.16C26.9499 25.45 26.9699 25.73 26.9999 26V26.03C27.1299 27.58 27.2499 28.95 27.3599 30.07C27.5199 31.63 27.6399 32.69 27.6999 33C27.7899 33.49 28.0399 35.42 28.3299 37.94C28.3299 37.94 28.3399 37.94 28.3399 37.95C28.3799 38.32 28.4299 38.71 28.4699 39.1C28.6799 40.91 28.9099 42.9 29.1299 44.85V44.86C29.1399 44.91 29.1399 44.95 29.1499 45L29.4399 47.52C29.4699 47.76 29.4899 47.99 29.5099 48.22C29.5499 48.53 29.5799 48.83 29.6199 49.12C29.8799 51.51 30.0799 53.36 30.1499 53.89C30.1499 54 30.1599 54.05 30.1599 54.05C29.6499 55.83 29.2799 57.81 29.0299 59.88V59.9C28.9699 60.34 28.9199 60.76 28.8799 61.2C28.6599 63.43 28.5299 65.7 28.4799 67.84C28.4799 68.05 28.4799 68.26 28.4699 68.46V68.5C28.3699 74.26 28.7399 78.92 28.7399 78.92H43.9099V75.63C44.4999 75.54 45.4499 75.65 46.5099 75.85C47.6799 76.08 48.9699 76.4 50.0899 76.72C51.6999 77.17 52.9399 77.59 52.9399 77.59C64.7499 80.93 76.4599 78.92 76.4599 78.92V72.66C76.0599 67.42 71.9999 64.03 67.8299 61.92C66.5699 61.28 65.3199 60.76 64.1499 60.35V60.34C63.7699 60.21 63.4099 60.08 63.0499 59.97C62.0299 59.64 61.0799 59.19 60.2099 58.62C59.3999 58.11 58.6599 57.5 58.0099 56.81C56.8599 55.63 55.9699 54.22 55.4099 52.67C55.0499 51.72 54.8299 50.71 54.7399 49.67C54.5499 47.41 54.5099 44.85 54.5999 42.12C54.6199 41.6 54.6399 41.06 54.6699 40.52C54.6699 40.51 54.6699 40.5 54.6699 40.5C54.6699 40.25 54.6899 40 54.6999 39.74C54.7099 39.55 54.7199 39.37 54.7299 39.18C54.7599 38.77 54.7799 38.36 54.8099 37.95C54.8099 37.94 54.8099 37.94 54.8099 37.94C54.8599 37.2 54.9199 36.45 54.9899 35.7C55.0099 35.38 55.0399 35.06 55.0699 34.74C55.1499 33.79 55.2499 32.84 55.3499 31.88C55.3999 31.43 55.4499 30.98 55.4999 30.52C55.5199 30.31 55.5499 30.09 55.5799 29.88C56.0299 26.02 56.5799 22.2 57.1399 18.75C57.3599 17.34 57.5899 16 57.7999 14.73C57.8799 14.29 57.9499 13.86 58.0299 13.44V13.43C58.0999 13.05 58.1599 12.69 58.2299 12.33C58.2299 12.32 58.2299 12.32 58.2299 12.31C58.4099 11.31 58.5899 10.39 58.7499 9.54998C59.0699 7.86998 59.3399 6.51998 59.5199 5.61998C59.6899 4.78998 59.7899 4.33998 59.7899 4.33998C59.1999 4.26998 58.4199 4.17998 57.4999 4.07998C57.4899 4.07998 57.4899 4.07998 57.4899 4.07998C57.2399 4.03998 56.9899 4.00998 56.7099 3.97998C56.1199 3.90998 55.4799 3.82998 54.8099 3.75998C54.7999 3.75998 54.7999 3.75998 54.7999 3.75998C53.3999 3.58998 51.8499 3.40998 50.1899 3.21998C49.9199 3.18998 49.6499 3.15998 49.3799 3.12998C48.4799 3.01998 47.5599 2.91998 46.6199 2.80998C44.9999 2.61998 43.3399 2.42998 41.7199 2.23998C40.3399 2.08998 38.9699 1.92998 37.6799 1.78998C37.5899 1.77998 37.4899 1.76998 37.3999 1.75998C35.7099 1.55998 34.1399 1.37998 32.7299 1.20998C32.3499 1.16998 31.9899 1.12998 31.6399 1.08998C30.7599 0.98998 29.9499 0.90998 29.2599 0.81998C27.4199 0.60998 26.3199 0.47998 26.3199 0.47998C26.0599 2.07998 25.9499 4.53998 25.9799 7.40998Z" fill="#19192D"/>
<path d="M52.3798 10.3799C53.3795 10.3799 54.1898 9.56958 54.1898 8.56995C54.1898 7.57031 53.3795 6.75995 52.3798 6.75995C51.3802 6.75995 50.5698 7.57031 50.5698 8.56995C50.5698 9.56958 51.3802 10.3799 52.3798 10.3799Z" fill="#0FC8EF"/>
<path d="M53.3499 11.0199C54.1299 10.7099 54.7199 10.0499 54.9399 9.22992C55.9599 9.16992 56.9899 9.61992 57.6399 10.4999C58.6499 11.8899 58.3399 13.8299 56.9499 14.8399C55.6899 15.7499 53.9799 15.5899 52.9199 14.5099C53.6299 13.4599 53.7499 12.1599 53.3499 11.0199Z" fill="#EF3D5A"/>
<path d="M50.3496 10.2499C50.8796 10.8899 51.6996 11.2599 52.5396 11.2099C52.9096 12.1599 52.8096 13.2799 52.1596 14.1699C51.1496 15.5599 49.2096 15.8699 47.8196 14.8599C46.5596 13.9499 46.1896 12.2599 46.8796 10.9199C48.1096 11.2599 49.3896 10.9799 50.3496 10.2499Z" fill="#EF3D5A"/>
<path d="M50.1598 7.14996C49.7098 7.84996 49.6198 8.73996 49.9298 9.52996C49.1298 10.18 48.0398 10.42 46.9898 10.08C45.3598 9.54996 44.4698 7.79996 44.9998 6.16996C45.4798 4.68996 46.9698 3.81996 48.4498 4.05996C48.4998 5.33996 49.1598 6.46996 50.1598 7.14996Z" fill="#EF3D5A"/>
<path d="M49.2798 3.90994C49.2798 5.00994 49.8498 5.97994 50.7098 6.52994C51.3598 5.98994 52.2398 5.80994 53.0398 6.01994C53.3198 5.07994 53.9398 4.25994 54.7998 3.75994C53.3998 3.58994 51.8498 3.40994 50.1898 3.21994C49.9198 3.18994 49.6498 3.15994 49.3798 3.12994C49.3198 3.37994 49.2798 3.63994 49.2798 3.90994Z" fill="#EF3D5A"/>
<path d="M53.8096 6.34991C54.5196 6.79991 54.9696 7.57991 55.0196 8.40991C56.2196 8.37991 57.4196 8.89991 58.2096 9.89991C58.3996 9.79991 58.5796 9.68991 58.7496 9.54991C59.0696 7.86991 59.3396 6.51991 59.5196 5.61991C58.8196 4.34991 57.2896 3.70991 55.8596 4.17991C54.8096 4.51991 54.0696 5.35991 53.8096 6.34991Z" fill="#EF3D5A"/>
<path d="M34.5497 8.59998C35.5494 8.59998 36.3597 7.78962 36.3597 6.78998C36.3597 5.79035 35.5494 4.97998 34.5497 4.97998C33.5501 4.97998 32.7397 5.79035 32.7397 6.78998C32.7397 7.78962 33.5501 8.59998 34.5497 8.59998Z" fill="#FAEEEF"/>
<path d="M35.5198 9.23995C36.2998 8.92995 36.8898 8.26995 37.1098 7.44995C38.1298 7.38995 39.1598 7.83995 39.8098 8.71995C40.8198 10.11 40.5098 12.05 39.1198 13.06C37.8598 13.97 36.1498 13.81 35.0898 12.73C35.7998 11.68 35.9198 10.38 35.5198 9.23995Z" fill="#0FC8EF"/>
<path d="M32.52 8.46997C33.05 9.10997 33.87 9.47997 34.71 9.42997C35.08 10.38 34.98 11.5 34.33 12.39C33.32 13.78 31.38 14.09 29.99 13.08C28.73 12.16 28.36 10.48 29.05 9.13997C30.29 9.47997 31.56 9.19997 32.52 8.46997Z" fill="#0FC8EF"/>
<path d="M32.33 5.36999C31.88 6.06999 31.79 6.95999 32.1 7.74999C31.31 8.39999 30.21 8.63999 29.17 8.29999C27.54 7.76999 26.65 6.01999 27.18 4.38999C27.66 2.90999 29.15 2.03999 30.63 2.27999C30.67 3.56999 31.34 4.68999 32.33 5.36999Z" fill="#0FC8EF"/>
<path d="M31.4502 2.12997C31.4502 3.22997 32.0202 4.19997 32.8802 4.74997C33.5402 4.20997 34.4102 4.02997 35.2202 4.23997C35.5402 3.15997 36.3102 2.22997 37.4002 1.75997C35.7102 1.55997 34.1402 1.37997 32.7302 1.20997C32.3502 1.16997 31.9902 1.12997 31.6402 1.08997C31.5102 1.41997 31.4502 1.76997 31.4502 2.12997Z" fill="#0FC8EF"/>
<path d="M37.19 6.63C37.14 5.8 36.69 5.03 35.98 4.57C36.24 3.58 36.98 2.74 38.03 2.4C39.66 1.87 41.41 2.76 41.94 4.39C42.42 5.87 41.73 7.45 40.38 8.12C39.59 7.12 38.39 6.6 37.19 6.63Z" fill="#0FC8EF"/>
<path d="M31.4496 25.32C32.4493 25.32 33.2596 24.5096 33.2596 23.51C33.2596 22.5104 32.4493 21.7 31.4496 21.7C30.45 21.7 29.6396 22.5104 29.6396 23.51C29.6396 24.5096 30.45 25.32 31.4496 25.32Z" fill="#DA2840"/>
<path d="M32.4095 25.96C33.1895 25.65 33.7795 24.99 33.9995 24.17C35.0195 24.11 36.0495 24.56 36.6995 25.44C37.7095 26.83 37.3995 28.77 36.0095 29.78C34.7495 30.69 33.0395 30.53 31.9795 29.45C32.6895 28.4 32.8195 27.1 32.4095 25.96Z" fill="#FAEEEF"/>
<path d="M26.9995 26V26.03C27.1295 27.58 27.2495 28.95 27.3595 30.07C28.6795 30.72 30.3295 30.34 31.2195 29.11C31.8695 28.22 31.9795 27.1 31.5995 26.15C30.7595 26.19 29.9495 25.83 29.4195 25.19C28.7295 25.71 27.8795 26.01 26.9995 26Z" fill="#FAEEEF"/>
<path d="M26.4697 19.02C26.5397 20.05 26.6097 21.06 26.6797 22.04C26.7597 23.13 26.8297 24.17 26.9197 25.16C27.6797 25.2 28.4197 24.94 28.9897 24.47C28.6797 23.68 28.7797 22.8 29.2197 22.09C28.2297 21.41 27.5697 20.29 27.5197 19C27.1597 18.94 26.8097 18.95 26.4697 19.02Z" fill="#FAEEEF"/>
<path d="M32.1096 20.96C31.2996 20.75 30.4296 20.94 29.7796 21.47C28.9196 20.92 28.3496 19.95 28.3496 18.85C28.3496 17.13 29.7396 15.74 31.4596 15.74C33.0196 15.74 34.2996 16.88 34.5296 18.37C33.3196 18.82 32.4496 19.8 32.1096 20.96Z" fill="#FAEEEF"/>
<path d="M34.0796 23.35C34.0296 22.52 33.5796 21.75 32.8696 21.29C33.1296 20.3 33.8696 19.46 34.9196 19.12C36.5496 18.59 38.2996 19.48 38.8296 21.11C39.3096 22.59 38.6196 24.17 37.2696 24.84C36.4796 23.84 35.2796 23.32 34.0796 23.35Z" fill="#FAEEEF"/>
<path d="M52.5596 37.41C52.5596 38.41 53.3696 39.22 54.3696 39.22C54.4896 39.22 54.6096 39.21 54.7296 39.18C54.7596 38.77 54.7796 38.36 54.8096 37.95C54.8096 37.94 54.8096 37.94 54.8096 37.94C54.8596 37.2 54.9196 36.45 54.9896 35.7C54.7996 35.63 54.5896 35.59 54.3696 35.59C53.3696 35.59 52.5596 36.4 52.5596 37.41Z" fill="#DA2840"/>
<path d="M54.6698 40.52C54.6698 40.51 54.6698 40.5 54.6698 40.5C54.6298 40.34 54.5898 40.19 54.5298 40.04C53.6798 40.09 52.8698 39.73 52.3398 39.08C51.3798 39.82 50.1098 40.1 48.8698 39.75C48.1798 41.09 48.5498 42.77 49.8098 43.69C51.1998 44.7 53.1398 44.39 54.1498 43C54.3498 42.72 54.4998 42.43 54.5998 42.12L54.6698 40.52Z" fill="#FAEEEF"/>
<path d="M52.1498 35.9899C51.6998 36.6899 51.6098 37.5799 51.9198 38.3699C51.1298 39.0199 50.0298 39.2599 48.9898 38.9199C47.3598 38.3899 46.4698 36.6399 46.9998 35.0099C47.4798 33.5299 48.9698 32.6599 50.4498 32.8999C50.4898 34.1799 51.1498 35.3099 52.1498 35.9899Z" fill="#FAEEEF"/>
<path d="M51.27 32.75C51.27 33.85 51.84 34.81 52.7 35.36C53.36 34.83 54.23 34.64 55.03 34.85C55.04 34.81 55.05 34.77 55.07 34.74C55.15 33.79 55.25 32.84 55.35 31.88C55.4 31.43 55.45 30.98 55.5 30.52C55.52 30.31 55.55 30.09 55.58 29.88C55.21 29.72 54.8 29.64 54.37 29.64C52.66 29.64 51.27 31.03 51.27 32.75Z" fill="#FAEEEF"/>
<path d="M32.2197 48.89C33.2193 48.89 34.0297 48.0796 34.0297 47.08C34.0297 46.0803 33.2193 45.27 32.2197 45.27C31.22 45.27 30.4097 46.0803 30.4097 47.08C30.4097 48.0796 31.22 48.89 32.2197 48.89Z" fill="#0FC8EF"/>
<path d="M33.1795 49.54C33.9595 49.23 34.5495 48.5699 34.7695 47.7599C35.7895 47.6999 36.8195 48.1499 37.4695 49.0299C38.4795 50.4199 38.1695 52.36 36.7795 53.3699C35.5195 54.2799 33.8095 54.12 32.7495 53.04C33.4595 51.97 33.5795 50.67 33.1795 49.54Z" fill="#EF3D5A"/>
<path d="M29.6196 49.1199C29.8796 51.5099 30.0796 53.36 30.1496 53.8899C30.8696 53.7299 31.5296 53.32 31.9896 52.68C32.6396 51.79 32.7396 50.67 32.3696 49.72C31.5296 49.77 30.7096 49.4099 30.1796 48.7599C29.9996 48.8999 29.8196 49.0199 29.6196 49.1199Z" fill="#EF3D5A"/>
<path d="M29.1294 44.8599C29.1394 44.9099 29.1394 44.9499 29.1494 44.9999L29.4394 47.5199C29.4694 47.7599 29.4894 47.9899 29.5094 48.2199C29.5994 48.1699 29.6794 48.1099 29.7594 48.0399C29.4494 47.2599 29.5494 46.3699 29.9894 45.6699C29.6594 45.4399 29.3794 45.1699 29.1294 44.8599Z" fill="#EF3D5A"/>
<path d="M32.8796 44.5299C32.0696 44.3199 31.1996 44.5099 30.5496 45.0399C29.6896 44.4899 29.1196 43.5199 29.1196 42.4199C29.1196 40.6999 30.5096 39.3099 32.2296 39.3099C33.7896 39.3099 35.0696 40.4499 35.2996 41.9399C34.0796 42.3999 33.2196 43.3799 32.8796 44.5299Z" fill="#EF3D5A"/>
<path d="M34.8496 46.9199C34.7996 46.0899 34.3496 45.3199 33.6396 44.8599C33.8996 43.8699 34.6396 43.0299 35.6896 42.6899C37.3196 42.1599 39.0696 43.0499 39.5996 44.6799C40.0796 46.1599 39.3896 47.7399 38.0396 48.4099C37.2497 47.4099 36.0496 46.8899 34.8496 46.9199Z" fill="#EF3D5A"/>
<path d="M57.6894 61.23C58.689 61.23 59.4994 60.4196 59.4994 59.42C59.4994 58.4203 58.689 57.61 57.6894 57.61C56.6898 57.61 55.8794 58.4203 55.8794 59.42C55.8794 60.4196 56.6898 61.23 57.6894 61.23Z" fill="#0FC8EF"/>
<path d="M58.6595 61.88C59.4395 61.57 60.0295 60.91 60.2495 60.1C61.2695 60.04 62.2995 60.49 62.9495 61.37C63.9595 62.76 63.6495 64.7 62.2595 65.71C60.9995 66.62 59.2895 66.46 58.2295 65.38C58.9395 64.31 59.0595 63.01 58.6595 61.88Z" fill="#FAEEEF"/>
<path d="M55.6596 61.1C56.1896 61.74 57.0096 62.11 57.8496 62.06C58.2196 63.01 58.1196 64.13 57.4696 65.02C56.4596 66.41 54.5196 66.72 53.1296 65.71C51.8696 64.8 51.4996 63.11 52.1896 61.77C53.4296 62.12 54.6996 61.83 55.6596 61.1Z" fill="#FAEEEF"/>
<path d="M55.4696 58.01C55.0196 58.71 54.9296 59.6 55.2396 60.39C54.4496 61.04 53.3496 61.28 52.3096 60.94C50.6796 60.41 49.7896 58.66 50.3196 57.03C50.7996 55.55 52.2896 54.68 53.7696 54.92C53.8096 56.2 54.4796 57.32 55.4696 58.01Z" fill="#FAEEEF"/>
<path d="M54.5898 54.76C54.5898 55.86 55.1598 56.83 56.0198 57.38C56.5898 56.93 57.3098 56.72 58.0098 56.81C56.8598 55.63 55.9698 54.22 55.4098 52.67C54.8998 53.22 54.5898 53.95 54.5898 54.76Z" fill="#FAEEEF"/>
<path d="M60.2095 58.62C60.2795 58.83 60.3195 59.04 60.3295 59.26C61.5295 59.23 62.7295 59.75 63.5195 60.76C63.7495 60.64 63.9595 60.5 64.1495 60.34C63.7695 60.21 63.4095 60.08 63.0495 59.97C62.0295 59.64 61.0795 59.19 60.2095 58.62Z" fill="#FAEEEF"/>
<path d="M38.2699 62.55C39.0486 62.55 39.6799 61.9187 39.6799 61.14C39.6799 60.3613 39.0486 59.73 38.2699 59.73C37.4911 59.73 36.8599 60.3613 36.8599 61.14C36.8599 61.9187 37.4911 62.55 38.2699 62.55Z" fill="#FAEEEF"/>
<path d="M39.0199 63.04C39.6199 62.8 40.0899 62.29 40.2499 61.65C41.0399 61.6 41.8399 61.95 42.3499 62.64C43.1299 63.72 42.8899 65.23 41.8199 66.01C40.8399 66.72 39.5099 66.59 38.6899 65.76C39.2399 64.94 39.3299 63.93 39.0199 63.04Z" fill="#EF3D5A"/>
<path d="M36.69 62.44C37.1 62.94 37.74 63.22 38.39 63.18C38.68 63.92 38.6 64.79 38.1 65.48C37.32 66.56 35.81 66.8 34.73 66.01C33.75 65.3 33.46 63.99 34 62.95C34.95 63.23 35.94 63.01 36.69 62.44Z" fill="#EF3D5A"/>
<path d="M36.5398 60.03C36.1898 60.58 36.1198 61.27 36.3598 61.88C35.7398 62.38 34.8898 62.58 34.0798 62.31C32.8098 61.9 32.1198 60.54 32.5298 59.27C32.8998 58.12 34.0598 57.44 35.2198 57.63C35.2498 58.63 35.7698 59.5 36.5398 60.03Z" fill="#EF3D5A"/>
<path d="M38.7799 59.15C38.1499 58.99 37.4699 59.13 36.9699 59.55C36.2999 59.12 35.8599 58.37 35.8599 57.52C35.8599 56.19 36.9399 55.11 38.2699 55.11C39.4799 55.11 40.4799 56 40.6599 57.16C39.7199 57.49 39.0499 58.25 38.7799 59.15Z" fill="#EF3D5A"/>
<path d="M40.3199 61.01C40.2799 60.36 39.9299 59.76 39.3799 59.41C39.5799 58.64 40.1599 57.99 40.9699 57.72C42.2399 57.31 43.5999 58 44.0099 59.27C44.3799 60.42 43.8499 61.65 42.7999 62.17C42.1799 61.39 41.2499 60.99 40.3199 61.01Z" fill="#EF3D5A"/>
<path d="M46.6698 52.35C47.4485 52.35 48.0798 51.7187 48.0798 50.94C48.0798 50.1612 47.4485 49.53 46.6698 49.53C45.891 49.53 45.2598 50.1612 45.2598 50.94C45.2598 51.7187 45.891 52.35 46.6698 52.35Z" fill="#EF3D5A"/>
<path d="M47.4198 52.85C48.0198 52.61 48.4898 52.1 48.6498 51.46C49.4398 51.41 50.2398 51.76 50.7498 52.45C51.5298 53.53 51.2898 55.04 50.2198 55.82C49.2398 56.53 47.9098 56.4 47.0898 55.57C47.6398 54.74 47.7398 53.73 47.4198 52.85Z" fill="#0FC8EF"/>
<path d="M45.0899 52.24C45.4999 52.74 46.1399 53.02 46.7899 52.98C47.0799 53.72 46.9999 54.59 46.4999 55.28C45.7199 56.36 44.2099 56.6 43.1299 55.81C42.1499 55.1 41.8599 53.79 42.3999 52.75C43.3599 53.03 44.3499 52.81 45.0899 52.24Z" fill="#0FC8EF"/>
<path d="M44.9397 49.84C44.5897 50.39 44.5197 51.08 44.7597 51.69C44.1397 52.19 43.2897 52.39 42.4797 52.12C41.2097 51.71 40.5197 50.35 40.9297 49.08C41.2997 47.93 42.4597 47.25 43.6197 47.44C43.6597 48.43 44.1697 49.31 44.9397 49.84Z" fill="#0FC8EF"/>
<path d="M47.1798 48.95C46.5498 48.79 45.8698 48.93 45.3698 49.35C44.6998 48.92 44.2598 48.17 44.2598 47.32C44.2598 45.99 45.3398 44.91 46.6698 44.91C47.8798 44.91 48.8798 45.8 49.0598 46.96C48.1198 47.29 47.4498 48.06 47.1798 48.95Z" fill="#0FC8EF"/>
<path d="M48.7198 50.81C48.6798 50.16 48.3298 49.56 47.7798 49.21C47.9798 48.44 48.5598 47.79 49.3698 47.52C50.6398 47.11 51.9998 47.8 52.4098 49.07C52.7798 50.22 52.2498 51.45 51.1998 51.97C50.5898 51.19 49.6498 50.79 48.7198 50.81Z" fill="#0FC8EF"/>
<path d="M40.3997 36.29C41.1785 36.29 41.8097 35.6587 41.8097 34.88C41.8097 34.1012 41.1785 33.47 40.3997 33.47C39.621 33.47 38.9897 34.1012 38.9897 34.88C38.9897 35.6587 39.621 36.29 40.3997 36.29Z" fill="#FAEEEF"/>
<path d="M41.1498 36.78C41.7498 36.54 42.2198 36.03 42.3798 35.39C43.1698 35.34 43.9698 35.69 44.4798 36.38C45.2598 37.46 45.0198 38.97 43.9498 39.75C42.9698 40.46 41.6398 40.33 40.8198 39.5C41.3698 38.68 41.4598 37.67 41.1498 36.78Z" fill="#EF3D5A"/>
<path d="M38.8199 36.18C39.2299 36.68 39.8699 36.96 40.5199 36.92C40.8099 37.66 40.7298 38.53 40.2298 39.22C39.4498 40.3 37.9399 40.54 36.8599 39.75C35.8799 39.04 35.5899 37.73 36.1299 36.69C37.0799 36.97 38.0699 36.75 38.8199 36.18Z" fill="#EF3D5A"/>
<path d="M38.6697 33.77C38.3197 34.32 38.2497 35.01 38.4897 35.62C37.8697 36.12 37.0197 36.32 36.2097 36.05C34.9397 35.64 34.2497 34.28 34.6597 33.01C35.0297 31.86 36.1897 31.18 37.3497 31.37C37.3797 32.37 37.8997 33.24 38.6697 33.77Z" fill="#EF3D5A"/>
<path d="M40.9097 32.89C40.2797 32.73 39.5997 32.87 39.0997 33.29C38.4297 32.86 37.9897 32.11 37.9897 31.26C37.9897 29.93 39.0697 28.85 40.3997 28.85C41.6097 28.85 42.6097 29.74 42.7897 30.9C41.8497 31.23 41.1797 31.99 40.9097 32.89Z" fill="#EF3D5A"/>
<path d="M42.4498 34.75C42.4098 34.1 42.0598 33.5 41.5098 33.15C41.7098 32.38 42.2898 31.73 43.0998 31.46C44.3698 31.05 45.7298 31.74 46.1398 33.01C46.5098 34.16 45.9798 35.39 44.9298 35.91C44.3098 35.13 43.3798 34.73 42.4498 34.75Z" fill="#EF3D5A"/>
<path d="M46.5199 24.52C47.2986 24.52 47.9299 23.8887 47.9299 23.11C47.9299 22.3312 47.2986 21.7 46.5199 21.7C45.7411 21.7 45.1099 22.3312 45.1099 23.11C45.1099 23.8887 45.7411 24.52 46.5199 24.52Z" fill="#FAEEEF"/>
<path d="M47.2699 25.0199C47.8699 24.7799 48.3399 24.2699 48.4999 23.6299C49.2899 23.5799 50.0899 23.9299 50.5999 24.6199C51.3799 25.6999 51.1399 27.2099 50.0699 27.9899C49.0899 28.6999 47.7599 28.5699 46.9399 27.7399C47.4899 26.9099 47.5899 25.8999 47.2699 25.0199Z" fill="#0FC8EF"/>
<path d="M44.94 24.42C45.35 24.92 45.99 25.2 46.64 25.16C46.93 25.9 46.85 26.77 46.35 27.46C45.57 28.54 44.06 28.78 42.98 27.99C42 27.28 41.71 25.97 42.25 24.93C43.21 25.21 44.2 24.99 44.94 24.42Z" fill="#0FC8EF"/>
<path d="M44.7898 22.01C44.4398 22.56 44.3698 23.25 44.6098 23.86C43.9898 24.36 43.1398 24.56 42.3298 24.29C41.0598 23.88 40.3698 22.52 40.7798 21.25C41.1498 20.1 42.3098 19.42 43.4698 19.61C43.5098 20.6 44.0198 21.48 44.7898 22.01Z" fill="#0FC8EF"/>
<path d="M47.0396 21.13C46.4096 20.97 45.7296 21.11 45.2296 21.53C44.5596 21.1 44.1196 20.35 44.1196 19.5C44.1196 18.17 45.1996 17.09 46.5296 17.09C47.7396 17.09 48.7396 17.98 48.9196 19.14C47.9696 19.47 47.2996 20.23 47.0396 21.13Z" fill="#0FC8EF"/>
<path d="M48.5699 22.99C48.5299 22.34 48.1799 21.74 47.6299 21.39C47.8299 20.62 48.4099 19.9699 49.2199 19.6999C50.4899 19.2899 51.8499 19.98 52.2599 21.25C52.6299 22.4 52.0999 23.63 51.0499 24.15C50.4399 23.37 49.4999 22.96 48.5699 22.99Z" fill="#0FC8EF"/>
<path d="M0.729907 7.40998C0.739907 8.65998 0.779907 10.01 0.829907 11.39C0.909907 13.88 1.04991 16.5 1.21991 19.02C1.28991 20.05 1.35991 21.06 1.42991 22.04C1.50991 23.13 1.57991 24.17 1.66991 25.16C1.69991 25.45 1.71991 25.73 1.74991 26V26.03C1.87991 27.58 1.99991 28.95 2.10991 30.07C2.26991 31.63 2.38991 32.69 2.44991 33C2.53991 33.49 2.78991 35.42 3.07991 37.94C3.07991 37.94 3.08991 37.94 3.08991 37.95C3.12991 38.32 3.17991 38.71 3.21991 39.1C3.42991 40.91 3.65991 42.9 3.87991 44.85V44.86C3.88991 44.91 3.88991 44.95 3.89991 45L4.18991 47.52C4.21991 47.76 4.23991 47.99 4.25991 48.22C4.29991 48.53 4.32991 48.83 4.36991 49.12C4.62991 51.51 4.82991 53.36 4.89991 53.89C4.89991 54 4.90991 54.05 4.90991 54.05C4.39991 55.83 4.02991 57.81 3.77991 59.88V59.9C3.71991 60.34 3.66991 60.76 3.62991 61.2C3.40991 63.43 3.27991 65.7 3.22991 67.84C3.22991 68.05 3.22991 68.26 3.21991 68.46V68.5C3.11991 74.26 3.48991 78.92 3.48991 78.92H18.6599V75.63C19.2499 75.54 20.1999 75.65 21.2599 75.85C22.4299 76.08 23.7199 76.4 24.8399 76.72C26.4499 77.17 27.6899 77.59 27.6899 77.59C39.4999 80.93 51.2099 78.92 51.2099 78.92V72.66C50.8099 67.42 46.7499 64.03 42.5799 61.92C41.3199 61.28 40.0699 60.76 38.8999 60.35V60.34C38.5199 60.21 38.1599 60.08 37.7999 59.97C36.7799 59.64 35.8299 59.19 34.9599 58.62C34.1499 58.11 33.4099 57.5 32.7599 56.81C31.6099 55.63 30.7199 54.22 30.1599 52.67C29.7999 51.72 29.5799 50.71 29.4899 49.67C29.2999 47.41 29.2599 44.85 29.3499 42.12C29.3699 41.6 29.3899 41.06 29.4199 40.52C29.4199 40.51 29.4199 40.5 29.4199 40.5C29.4199 40.25 29.4399 40 29.4499 39.74C29.4599 39.55 29.4699 39.37 29.4799 39.18C29.5099 38.77 29.5299 38.36 29.5599 37.95C29.5599 37.94 29.5599 37.94 29.5599 37.94C29.6099 37.2 29.6699 36.45 29.7399 35.7C29.7599 35.38 29.7899 35.06 29.8199 34.74C29.8999 33.79 29.9999 32.84 30.0999 31.88C30.1499 31.43 30.1999 30.98 30.2499 30.52C30.2699 30.31 30.2999 30.09 30.3299 29.88C30.7799 26.02 31.3299 22.2 31.8899 18.75C32.1099 17.34 32.3399 16 32.5499 14.73C32.6299 14.29 32.6999 13.86 32.7799 13.44V13.43C32.8499 13.05 32.9099 12.69 32.9799 12.33C32.9799 12.32 32.9799 12.32 32.9799 12.31C33.1599 11.31 33.3399 10.39 33.4999 9.54998C33.8199 7.86998 34.0899 6.51998 34.2699 5.61998C34.4399 4.78998 34.5399 4.33998 34.5399 4.33998C33.9499 4.26998 33.1699 4.17998 32.2499 4.07998C32.2399 4.07998 32.2399 4.07998 32.2399 4.07998C31.9899 4.03998 31.7399 4.00998 31.4599 3.97998C30.8699 3.90998 30.2299 3.82998 29.5599 3.75998C29.5499 3.75998 29.5499 3.75998 29.5499 3.75998C28.1499 3.58998 26.5999 3.40998 24.9399 3.21998C24.6699 3.18998 24.3999 3.15998 24.1299 3.12998C23.2299 3.01998 22.3099 2.91998 21.3699 2.80998C19.7499 2.61998 18.0899 2.42998 16.4699 2.23998C15.0899 2.08998 13.7199 1.92998 12.4299 1.78998C12.3399 1.77998 12.2399 1.76998 12.1499 1.75998C10.4599 1.55998 8.88991 1.37998 7.47991 1.20998C7.09991 1.16998 6.73991 1.12998 6.38991 1.08998C5.50991 0.98998 4.69991 0.90998 4.00991 0.81998C2.16991 0.60998 1.06991 0.47998 1.06991 0.47998C0.809907 2.07998 0.699907 4.53998 0.729907 7.40998Z" fill="#393951"/>
<path d="M27.1396 10.3799C28.1392 10.3799 28.9496 9.56958 28.9496 8.56995C28.9496 7.57031 28.1392 6.75995 27.1396 6.75995C26.14 6.75995 25.3296 7.57031 25.3296 8.56995C25.3296 9.56958 26.14 10.3799 27.1396 10.3799Z" fill="#0FC8EF"/>
<path d="M28.1097 11.0199C28.8897 10.7099 29.4797 10.0499 29.6997 9.22992C30.7197 9.16992 31.7497 9.61992 32.3997 10.4999C33.4097 11.8899 33.0997 13.8299 31.7097 14.8399C30.4497 15.7499 28.7397 15.5899 27.6797 14.5099C28.3797 13.4599 28.5097 12.1599 28.1097 11.0199Z" fill="#EF3D5A"/>
<path d="M25.0996 10.2499C25.6296 10.8899 26.4496 11.2599 27.2896 11.2099C27.6596 12.1599 27.5596 13.2799 26.9096 14.1699C25.8996 15.5599 23.9596 15.8699 22.5696 14.8599C21.3096 13.9499 20.9396 12.2599 21.6296 10.9199C22.8696 11.2599 24.1496 10.9799 25.0996 10.2499Z" fill="#EF3D5A"/>
<path d="M24.9096 7.14996C24.4596 7.84996 24.3696 8.73996 24.6796 9.52996C23.8896 10.18 22.7896 10.42 21.7496 10.08C20.1196 9.54996 19.2296 7.79996 19.7596 6.16996C20.2396 4.68996 21.7296 3.81996 23.2096 4.05996C23.2596 5.33996 23.9196 6.46996 24.9096 7.14996Z" fill="#EF3D5A"/>
<path d="M24.0298 3.90994C24.0298 5.00994 24.5998 5.97994 25.4598 6.52994C26.1098 5.98994 26.9898 5.80994 27.7898 6.01994C28.0698 5.07994 28.6898 4.25994 29.5498 3.75994C28.1498 3.58994 26.5998 3.40994 24.9398 3.21994C24.6698 3.18994 24.3998 3.15994 24.1298 3.12994C24.0698 3.37994 24.0298 3.63994 24.0298 3.90994Z" fill="#EF3D5A"/>
<path d="M28.5596 6.34991C29.2696 6.79991 29.7196 7.57991 29.7696 8.40991C30.9696 8.37991 32.1696 8.89991 32.9596 9.89991C33.1496 9.79991 33.3296 9.68991 33.4996 9.54991C33.8196 7.86991 34.0896 6.51991 34.2696 5.61991C33.5696 4.34991 32.0396 3.70991 30.6096 4.17991C29.5596 4.51991 28.8196 5.35991 28.5596 6.34991Z" fill="#EF3D5A"/>
<path d="M9.31 8.59998C10.3096 8.59998 11.12 7.78962 11.12 6.78998C11.12 5.79035 10.3096 4.97998 9.31 4.97998C8.31036 4.97998 7.5 5.79035 7.5 6.78998C7.5 7.78962 8.31036 8.59998 9.31 8.59998Z" fill="#FAEEEF"/>
<path d="M10.2801 9.23995C11.0601 8.92995 11.6501 8.26995 11.8701 7.44995C12.8901 7.38995 13.9201 7.83995 14.5701 8.71995C15.5801 10.11 15.2701 12.05 13.8801 13.06C12.6201 13.97 10.9101 13.81 9.8501 12.73C10.5601 11.68 10.6801 10.38 10.2801 9.23995Z" fill="#0FC8EF"/>
<path d="M7.27976 8.46997C7.80976 9.10997 8.62976 9.47997 9.46976 9.42997C9.83976 10.38 9.72976 11.5 9.08976 12.39C8.07976 13.78 6.13976 14.09 4.74976 13.08C3.48976 12.16 3.11976 10.48 3.80976 9.13997C5.03976 9.47997 6.31976 9.19997 7.27976 8.46997Z" fill="#0FC8EF"/>
<path d="M7.08996 5.36999C6.63996 6.07999 6.53996 6.95999 6.84996 7.74999C6.05996 8.39999 4.96996 8.63999 3.91996 8.29999C2.28996 7.76999 1.39996 6.01999 1.92996 4.38999C2.40996 2.90999 3.88996 2.03999 5.37996 2.27999C5.42996 3.56999 6.08996 4.68999 7.08996 5.36999Z" fill="#0FC8EF"/>
<path d="M6.2002 2.12997C6.2002 3.22997 6.7702 4.19997 7.6302 4.74997C8.2902 4.20997 9.1602 4.02997 9.9702 4.23997C10.2902 3.15997 11.0602 2.22997 12.1502 1.75997C10.4602 1.55997 8.8902 1.37997 7.4802 1.20997C7.1002 1.16997 6.7402 1.12997 6.3902 1.08997C6.2602 1.41997 6.2002 1.76997 6.2002 2.12997Z" fill="#0FC8EF"/>
<path d="M11.94 6.63C11.89 5.8 11.44 5.03 10.73 4.57C10.99 3.58 11.73 2.74 12.78 2.4C14.41 1.87 16.16 2.76 16.69 4.39C17.17 5.87 16.48 7.45 15.13 8.12C14.35 7.12 13.15 6.6 11.94 6.63Z" fill="#0FC8EF"/>
<path d="M6.2099 25.32C7.20954 25.32 8.0199 24.5096 8.0199 23.51C8.0199 22.5104 7.20954 21.7 6.2099 21.7C5.21027 21.7 4.3999 22.5104 4.3999 23.51C4.3999 24.5096 5.21027 25.32 6.2099 25.32Z" fill="#DA2840"/>
<path d="M7.16975 25.96C7.94975 25.65 8.53975 24.99 8.75975 24.17C9.77975 24.11 10.8097 24.56 11.4597 25.44C12.4697 26.83 12.1597 28.77 10.7697 29.78C9.50975 30.69 7.79975 30.53 6.73975 29.45C7.44975 28.4 7.56975 27.1 7.16975 25.96Z" fill="#FAEEEF"/>
<path d="M1.74951 26V26.03C1.87951 27.58 1.99951 28.95 2.10951 30.07C3.42951 30.72 5.07951 30.34 5.96951 29.11C6.61951 28.22 6.72951 27.1 6.34951 26.15C5.50951 26.19 4.69951 25.83 4.16951 25.19C3.47951 25.71 2.62951 26.01 1.74951 26Z" fill="#FAEEEF"/>
<path d="M1.21973 19.02C1.28973 20.05 1.35973 21.06 1.42973 22.04C1.50973 23.13 1.57973 24.17 1.66973 25.16C2.42973 25.2 3.16973 24.94 3.73973 24.47C3.42973 23.68 3.52973 22.8 3.96973 22.09C2.97973 21.41 2.31973 20.29 2.26973 19C1.90973 18.94 1.55973 18.95 1.21973 19.02Z" fill="#FAEEEF"/>
<path d="M6.85961 20.96C6.04961 20.75 5.17961 20.94 4.52961 21.47C3.66961 20.92 3.09961 19.95 3.09961 18.85C3.09961 17.13 4.48961 15.74 6.20961 15.74C7.76961 15.74 9.04961 16.88 9.27961 18.37C8.06961 18.82 7.20961 19.8 6.85961 20.96Z" fill="#FAEEEF"/>
<path d="M8.83988 23.35C8.78988 22.52 8.33988 21.75 7.62988 21.29C7.88988 20.3 8.62988 19.46 9.67988 19.12C11.3099 18.59 13.0599 19.48 13.5899 21.11C14.0699 22.59 13.3799 24.17 12.0299 24.84C11.2399 23.84 10.0399 23.32 8.83988 23.35Z" fill="#FAEEEF"/>
<path d="M27.3096 37.41C27.3096 38.41 28.1196 39.22 29.1196 39.22C29.2396 39.22 29.3596 39.21 29.4796 39.18C29.5096 38.77 29.5296 38.36 29.5596 37.95C29.5596 37.94 29.5596 37.94 29.5596 37.94C29.6096 37.2 29.6696 36.45 29.7396 35.7C29.5496 35.63 29.3396 35.59 29.1196 35.59C28.1196 35.59 27.3096 36.4 27.3096 37.41Z" fill="#DA2840"/>
<path d="M29.3498 42.12C29.2498 42.43 29.0998 42.72 28.8998 43C27.8898 44.39 25.9498 44.7 24.5598 43.69C23.2998 42.77 22.9298 41.09 23.6198 39.75C24.8598 40.1 26.1298 39.82 27.0898 39.08C27.6198 39.73 28.4298 40.09 29.2798 40.04C29.3398 40.19 29.3798 40.34 29.4198 40.5C29.4198 40.5 29.4198 40.51 29.4198 40.52L29.3498 42.12Z" fill="#FAEEEF"/>
<path d="M26.8998 35.9899C26.4498 36.6899 26.3598 37.5799 26.6698 38.3699C25.8798 39.0199 24.7798 39.2599 23.7398 38.9199C22.1098 38.3899 21.2198 36.6399 21.7498 35.0099C22.2298 33.5299 23.7198 32.6599 25.1998 32.8999C25.2498 34.1799 25.9098 35.3099 26.8998 35.9899Z" fill="#FAEEEF"/>
<path d="M26.02 32.75C26.02 33.85 26.59 34.81 27.45 35.36C28.11 34.83 28.98 34.64 29.78 34.85C29.79 34.81 29.8 34.77 29.82 34.74C29.9 33.79 30 32.84 30.1 31.88C30.15 31.43 30.2 30.98 30.25 30.52C30.27 30.31 30.3 30.09 30.33 29.88C29.96 29.72 29.55 29.64 29.12 29.64C27.41 29.64 26.02 31.03 26.02 32.75Z" fill="#FAEEEF"/>
<path d="M6.96967 48.89C7.9693 48.89 8.77967 48.0796 8.77967 47.08C8.77967 46.0803 7.9693 45.27 6.96967 45.27C5.97003 45.27 5.15967 46.0803 5.15967 47.08C5.15967 48.0796 5.97003 48.89 6.96967 48.89Z" fill="#0FC8EF"/>
<path d="M7.93977 49.54C8.71977 49.23 9.30977 48.5699 9.52977 47.7599C10.5498 47.6999 11.5798 48.1499 12.2298 49.0299C13.2398 50.4199 12.9298 52.36 11.5398 53.3699C10.2798 54.2799 8.56977 54.12 7.50977 53.04C8.21977 51.97 8.33977 50.67 7.93977 49.54Z" fill="#EF3D5A"/>
<path d="M4.36963 49.1199C4.62963 51.5099 4.82963 53.36 4.89963 53.8899C5.61963 53.7299 6.27963 53.32 6.73963 52.68C7.38963 51.79 7.48963 50.67 7.11963 49.72C6.27963 49.77 5.45963 49.4099 4.92963 48.7599C4.74963 48.8999 4.56963 49.0199 4.36963 49.1199Z" fill="#EF3D5A"/>
<path d="M3.87939 44.8599C3.88939 44.9099 3.88939 44.9499 3.89939 44.9999L4.18939 47.5199C4.21939 47.7599 4.23939 47.9899 4.25939 48.2199C4.34939 48.1699 4.42939 48.1099 4.50939 48.0399C4.19939 47.2599 4.29939 46.3699 4.73939 45.6699C4.40939 45.4399 4.12939 45.1699 3.87939 44.8599Z" fill="#EF3D5A"/>
<path d="M7.62963 44.5299C6.81963 44.3199 5.94963 44.5099 5.29963 45.0399C4.43963 44.4899 3.86963 43.5199 3.86963 42.4199C3.86963 40.6999 5.25963 39.3099 6.97963 39.3099C8.53963 39.3099 9.81963 40.4499 10.0496 41.9399C8.83963 42.3999 7.97963 43.3799 7.62963 44.5299Z" fill="#EF3D5A"/>
<path d="M9.60941 46.9199C9.55941 46.0899 9.10941 45.3199 8.39941 44.8599C8.65941 43.8699 9.39941 43.0299 10.4494 42.6899C12.0794 42.1599 13.8294 43.0499 14.3594 44.6799C14.8394 46.1599 14.1494 47.7399 12.7994 48.4099C12.0094 47.4099 10.8094 46.8899 9.60941 46.9199Z" fill="#EF3D5A"/>
<path d="M32.4496 61.23C33.4493 61.23 34.2596 60.4196 34.2596 59.42C34.2596 58.4203 33.4493 57.61 32.4496 57.61C31.45 57.61 30.6396 58.4203 30.6396 59.42C30.6396 60.4196 31.45 61.23 32.4496 61.23Z" fill="#0FC8EF"/>
<path d="M33.4197 61.88C34.1997 61.57 34.7897 60.91 35.0097 60.1C36.0297 60.04 37.0597 60.49 37.7097 61.37C38.7197 62.76 38.4097 64.7 37.0197 65.71C35.7597 66.62 34.0497 66.46 32.9897 65.38C33.6997 64.31 33.8197 63.01 33.4197 61.88Z" fill="#FAEEEF"/>
<path d="M30.4199 61.1C30.9499 61.74 31.7699 62.11 32.6099 62.06C32.9799 63.01 32.8799 64.13 32.2299 65.02C31.2199 66.41 29.2799 66.72 27.8899 65.71C26.6299 64.8 26.2599 63.11 26.9499 61.77C28.1799 62.12 29.4599 61.83 30.4199 61.1Z" fill="#FAEEEF"/>
<path d="M30.2299 58.01C29.7799 58.71 29.6899 59.6 29.9999 60.39C29.2099 61.04 28.1099 61.28 27.0699 60.94C25.4399 60.41 24.5499 58.66 25.0799 57.03C25.5599 55.55 27.0499 54.68 28.5299 54.92C28.5699 56.2 29.2299 57.32 30.2299 58.01Z" fill="#FAEEEF"/>
<path d="M29.3398 54.76C29.3398 55.86 29.9098 56.83 30.7698 57.38C31.3398 56.93 32.0598 56.72 32.7598 56.81C31.6098 55.63 30.7198 54.22 30.1598 52.67C29.6498 53.22 29.3398 53.95 29.3398 54.76Z" fill="#FAEEEF"/>
<path d="M34.96 58.62C35.03 58.83 35.07 59.04 35.08 59.26C36.28 59.23 37.48 59.75 38.27 60.76C38.5 60.64 38.71 60.5 38.9 60.34C38.52 60.21 38.16 60.08 37.8 59.97C36.78 59.64 35.83 59.19 34.96 58.62Z" fill="#FAEEEF"/>
<path d="M13.0296 62.55C13.8084 62.55 14.4396 61.9187 14.4396 61.14C14.4396 60.3613 13.8084 59.73 13.0296 59.73C12.2509 59.73 11.6196 60.3613 11.6196 61.14C11.6196 61.9187 12.2509 62.55 13.0296 62.55Z" fill="#FAEEEF"/>
<path d="M13.7797 63.04C14.3797 62.8 14.8497 62.29 15.0097 61.65C15.7997 61.6 16.5997 61.95 17.1097 62.64C17.8897 63.72 17.6497 65.23 16.5797 66.01C15.5997 66.72 14.2697 66.59 13.4497 65.76C13.9897 64.94 14.0897 63.93 13.7797 63.04Z" fill="#EF3D5A"/>
<path d="M11.4497 62.44C11.8597 62.94 12.4997 63.22 13.1497 63.18C13.4397 63.92 13.3597 64.79 12.8597 65.48C12.0797 66.56 10.5697 66.8 9.48973 66.01C8.50973 65.3 8.21973 63.99 8.75973 62.95C9.70973 63.23 10.6997 63.01 11.4497 62.44Z" fill="#EF3D5A"/>
<path d="M11.2996 60.03C10.9496 60.58 10.8796 61.27 11.1196 61.88C10.4996 62.38 9.64961 62.58 8.83961 62.31C7.56961 61.9 6.87961 60.54 7.28961 59.27C7.65961 58.12 8.81961 57.44 9.97961 57.63C10.0096 58.63 10.5296 59.5 11.2996 60.03Z" fill="#EF3D5A"/>
<path d="M13.5396 59.15C12.9096 58.99 12.2296 59.13 11.7296 59.55C11.0596 59.12 10.6196 58.37 10.6196 57.52C10.6196 56.19 11.6996 55.11 13.0296 55.11C14.2396 55.11 15.2396 56 15.4196 57.16C14.4796 57.49 13.8096 58.25 13.5396 59.15Z" fill="#EF3D5A"/>
<path d="M15.0694 61.01C15.0294 60.36 14.6794 59.76 14.1294 59.41C14.3294 58.64 14.9094 57.99 15.7194 57.72C16.9894 57.31 18.3494 58 18.7594 59.27C19.1294 60.42 18.5994 61.65 17.5494 62.17C16.9394 61.39 16.0094 60.99 15.0694 61.01Z" fill="#EF3D5A"/>
<path d="M21.4295 52.35C22.2083 52.35 22.8395 51.7187 22.8395 50.94C22.8395 50.1612 22.2083 49.53 21.4295 49.53C20.6508 49.53 20.0195 50.1612 20.0195 50.94C20.0195 51.7187 20.6508 52.35 21.4295 52.35Z" fill="#EF3D5A"/>
<path d="M22.1796 52.85C22.7796 52.61 23.2496 52.1 23.4096 51.46C24.1996 51.41 24.9996 51.76 25.5096 52.45C26.2896 53.53 26.0496 55.04 24.9796 55.82C23.9996 56.53 22.6696 56.4 21.8496 55.57C22.3996 54.74 22.4896 53.73 22.1796 52.85Z" fill="#0FC8EF"/>
<path d="M19.8496 52.24C20.2596 52.74 20.8996 53.02 21.5496 52.98C21.8396 53.72 21.7596 54.59 21.2596 55.28C20.4796 56.36 18.9696 56.6 17.8896 55.81C16.9096 55.1 16.6196 53.79 17.1596 52.75C18.1096 53.03 19.0996 52.81 19.8496 52.24Z" fill="#0FC8EF"/>
<path d="M19.6995 49.84C19.3495 50.39 19.2795 51.08 19.5195 51.69C18.8995 52.19 18.0495 52.39 17.2395 52.12C15.9695 51.71 15.2795 50.35 15.6895 49.08C16.0595 47.93 17.2195 47.25 18.3795 47.44C18.4095 48.43 18.9295 49.31 19.6995 49.84Z" fill="#0FC8EF"/>
<path d="M21.9395 48.95C21.3095 48.79 20.6295 48.93 20.1295 49.35C19.4595 48.92 19.0195 48.17 19.0195 47.32C19.0195 45.99 20.0995 44.91 21.4295 44.91C22.6395 44.91 23.6395 45.8 23.8195 46.96C22.8795 47.29 22.2095 48.06 21.9395 48.95Z" fill="#0FC8EF"/>
<path d="M23.4796 50.81C23.4396 50.16 23.0896 49.56 22.5396 49.21C22.7396 48.44 23.3196 47.79 24.1296 47.52C25.3996 47.11 26.7596 47.8 27.1696 49.07C27.5396 50.22 27.0096 51.45 25.9596 51.97C25.3396 51.19 24.4096 50.79 23.4796 50.81Z" fill="#0FC8EF"/>
<path d="M15.1595 36.29C15.9382 36.29 16.5695 35.6587 16.5695 34.88C16.5695 34.1012 15.9382 33.47 15.1595 33.47C14.3808 33.47 13.7495 34.1012 13.7495 34.88C13.7495 35.6587 14.3808 36.29 15.1595 36.29Z" fill="#FAEEEF"/>
<path d="M15.9096 36.78C16.5096 36.54 16.9796 36.03 17.1396 35.39C17.9296 35.34 18.7296 35.69 19.2396 36.38C20.0196 37.46 19.7796 38.97 18.7096 39.75C17.7296 40.46 16.3996 40.33 15.5796 39.5C16.1196 38.68 16.2196 37.67 15.9096 36.78Z" fill="#EF3D5A"/>
<path d="M13.5694 36.18C13.9794 36.68 14.6194 36.96 15.2694 36.92C15.5594 37.66 15.4794 38.53 14.9794 39.22C14.1994 40.3 12.6894 40.54 11.6094 39.75C10.6294 39.04 10.3394 37.73 10.8794 36.69C11.8394 36.97 12.8294 36.75 13.5694 36.18Z" fill="#EF3D5A"/>
<path d="M13.4295 33.77C13.0795 34.32 13.0095 35.01 13.2495 35.62C12.6295 36.12 11.7795 36.32 10.9695 36.05C9.69949 35.64 9.00949 34.28 9.41949 33.01C9.78949 31.86 10.9495 31.18 12.1095 31.37C12.1395 32.37 12.6595 33.24 13.4295 33.77Z" fill="#EF3D5A"/>
<path d="M15.6695 32.89C15.0395 32.73 14.3595 32.87 13.8595 33.29C13.1895 32.86 12.7495 32.11 12.7495 31.26C12.7495 29.93 13.8295 28.85 15.1595 28.85C16.3695 28.85 17.3695 29.74 17.5495 30.9C16.6095 31.23 15.9395 31.99 15.6695 32.89Z" fill="#EF3D5A"/>
<path d="M17.1993 34.75C17.1593 34.1 16.8093 33.5 16.2593 33.15C16.4593 32.38 17.0393 31.73 17.8493 31.46C19.1193 31.05 20.4793 31.74 20.8893 33.01C21.2593 34.16 20.7293 35.39 19.6793 35.91C19.0693 35.13 18.1393 34.73 17.1993 34.75Z" fill="#EF3D5A"/>
<path d="M21.2796 24.52C22.0584 24.52 22.6896 23.8887 22.6896 23.11C22.6896 22.3312 22.0584 21.7 21.2796 21.7C20.5009 21.7 19.8696 22.3312 19.8696 23.11C19.8696 23.8887 20.5009 24.52 21.2796 24.52Z" fill="#FAEEEF"/>
<path d="M22.0297 25.0199C22.6297 24.7799 23.0997 24.2699 23.2597 23.6299C24.0497 23.5799 24.8497 23.9299 25.3597 24.6199C26.1397 25.6999 25.8997 27.2099 24.8297 27.9899C23.8497 28.6999 22.5197 28.5699 21.6997 27.7399C22.2497 26.9099 22.3397 25.8999 22.0297 25.0199Z" fill="#0FC8EF"/>
<path d="M19.6997 24.42C20.1097 24.92 20.7497 25.2 21.3997 25.16C21.6897 25.9 21.6097 26.77 21.1097 27.46C20.3297 28.54 18.8197 28.78 17.7397 27.99C16.7597 27.28 16.4697 25.97 17.0097 24.93C17.9597 25.21 18.9497 24.99 19.6997 24.42Z" fill="#0FC8EF"/>
<path d="M19.5496 22.01C19.1996 22.56 19.1296 23.25 19.3696 23.86C18.7496 24.36 17.8996 24.56 17.0896 24.29C15.8196 23.88 15.1296 22.52 15.5396 21.25C15.9096 20.1 17.0696 19.42 18.2296 19.61C18.2596 20.6 18.7796 21.48 19.5496 22.01Z" fill="#0FC8EF"/>
<path d="M21.7896 21.13C21.1596 20.97 20.4796 21.11 19.9796 21.53C19.3096 21.1 18.8696 20.35 18.8696 19.5C18.8696 18.17 19.9496 17.09 21.2796 17.09C22.4896 17.09 23.4896 17.98 23.6696 19.14C22.7296 19.47 22.0596 20.23 21.7896 21.13Z" fill="#0FC8EF"/>
<path d="M23.3296 22.99C23.2896 22.34 22.9396 21.74 22.3896 21.39C22.5896 20.62 23.1696 19.9699 23.9796 19.6999C25.2496 19.2899 26.6096 19.98 27.0196 21.25C27.3896 22.4 26.8596 23.63 25.8096 24.15C25.1896 23.37 24.2596 22.96 23.3296 22.99Z" fill="#0FC8EF"/>
</g>
<defs>
<clipPath id="clip0_301_15159">
<rect width="75.73" height="79.04" fill="white" transform="translate(0.72998 0.47998)"/>
</clipPath>
</defs>
</svg>
