<svg width="82" height="22" viewBox="0 0 82 22" fill="none" xmlns="http://www.w3.org/2000/svg">
<g clip-path="url(#clip0_301_1899)">
<path d="M18.8999 8.56497L36.7799 0.844971V3.84497L19.7999 10.545L18.8999 8.56497Z" fill="#FC9221"/>
<path d="M23.3596 16.945L9.30963 18.225L5.86963 6.60499C6.23963 6.30499 6.78963 5.93499 7.45963 5.50499C7.72963 5.34499 8.01963 5.16499 8.31963 4.98499C8.93963 4.61499 9.61963 4.22499 10.2996 3.83499C10.5996 3.67499 10.8896 3.51499 11.1796 3.35499C11.9296 2.93499 12.6696 2.53499 13.3296 2.18499C13.6496 2.01499 13.9496 1.85499 14.2196 1.70499C15.1896 1.19499 15.8296 0.86499 15.8296 0.86499L23.3596 16.945Z" fill="#FBA33D"/>
<path d="M20.9996 16.385L20.0896 16.805L13.3296 2.18496C13.6496 2.01496 13.9496 1.85496 14.2196 1.70496L20.9996 16.385Z" fill="#E18A1D"/>
<path d="M17.3598 16.715L16.4598 17.135L10.2998 3.83498C10.5998 3.67498 10.8898 3.51498 11.1798 3.35498L17.3598 16.715Z" fill="#E18A1D"/>
<path d="M14.08 17.435L13.17 17.855L7.45996 5.50499C7.72996 5.34499 8.01996 5.16499 8.31996 4.98499L14.08 17.435Z" fill="#E18A1D"/>
<path d="M36.7798 14.1349V21.1549H0.759766V16.4349L36.7798 14.1349Z" fill="#111E2B"/>
<path d="M8.54967 18.265H6.65967V21.155H8.54967V18.265Z" fill="#414B55"/>
<path d="M22.88 18.265H21V21.155H22.88V18.265Z" fill="#414B55"/>
<path d="M28.12 18.265H26.23V21.155H28.12V18.265Z" fill="#414B55"/>
<path d="M33.3497 18.265H31.4697V21.155H33.3497V18.265Z" fill="#414B55"/>
<path d="M63.2596 8.56497L45.3896 0.844971V3.84497L62.3696 10.545L63.2596 8.56497Z" fill="#FC9221"/>
<path d="M58.8096 16.945L72.8596 18.225L76.2996 6.60499C75.9296 6.30499 75.3796 5.93499 74.7096 5.50499C74.4396 5.34499 74.1496 5.16499 73.8496 4.98499C73.2296 4.61499 72.5496 4.22499 71.8696 3.83499C71.5696 3.67499 71.2796 3.51499 70.9896 3.35499C70.2396 2.93499 69.4996 2.53499 68.8396 2.18499C68.5196 2.01499 68.2196 1.85499 67.9496 1.70499C66.9796 1.19499 66.3396 0.86499 66.3396 0.86499L58.8096 16.945Z" fill="#FBA33D"/>
<path d="M61.1694 16.385L62.0794 16.805L68.8394 2.18496C68.5194 2.01496 68.2194 1.85496 67.9494 1.70496L61.1694 16.385Z" fill="#E18A1D"/>
<path d="M64.8096 16.715L65.7096 17.135L71.8696 3.83498C71.5696 3.67498 71.2796 3.51498 70.9896 3.35498L64.8096 16.715Z" fill="#E18A1D"/>
<path d="M68.0898 17.435L68.9998 17.855L74.7098 5.50499C74.4398 5.34499 74.1498 5.16499 73.8498 4.98499L68.0898 17.435Z" fill="#E18A1D"/>
<path d="M45.3896 14.1349V21.1549H81.4096V16.4349L45.3896 14.1349Z" fill="#111E2B"/>
<path d="M75.5096 18.265H73.6196V21.155H75.5096V18.265Z" fill="#414B55"/>
<path d="M61.1696 18.265H59.2896V21.155H61.1696V18.265Z" fill="#414B55"/>
<path d="M55.9398 18.265H54.0498V21.155H55.9398V18.265Z" fill="#414B55"/>
<path d="M50.6998 18.265H48.8198V21.155H50.6998V18.265Z" fill="#414B55"/>
</g>
<defs>
<clipPath id="clip0_301_1899">
<rect width="80.65" height="20.31" fill="white" transform="translate(0.759766 0.844971)"/>
</clipPath>
</defs>
</svg>
