<svg width="84" height="28" viewBox="0 0 84 28" fill="none" xmlns="http://www.w3.org/2000/svg">
<g clip-path="url(#clip0_301_1957)">
<path d="M39.0104 14.3V23.32H1.22043C0.880425 20.74 2.22043 18.5 4.45043 14.83C4.67043 14.47 4.97043 14.02 5.36042 13.5C5.55043 13.24 5.78043 12.96 6.02043 12.67C8.40043 9.89002 13.1604 6.03002 21.7804 5.05002V5.03002C21.7804 4.14002 22.5104 3.48002 23.3904 3.59002C23.5904 3.62002 23.8004 3.63002 24.0404 3.65002C24.3704 3.68002 24.7004 3.71002 25.0404 3.73002C25.4804 3.76002 25.9304 3.77002 26.3804 3.77002C27.1504 3.77002 27.9004 3.73002 28.6304 3.66002C31.4404 3.38002 33.9004 2.57002 35.6704 1.44002C36.2904 1.04002 36.9804 0.800022 37.7104 0.710022L38.4204 8.11002L38.8404 12.56L39.0104 14.3Z" fill="#FC961A"/>
<path d="M39.6902 23.32H0.240234V25.91H2.41023V27.29H4.41023V25.91H7.90023V27.29H9.90023V25.91H13.3902V27.29H15.3902V25.91H18.8802V27.29H20.8802V25.91H24.3702V27.29H26.3702V25.91H29.8602V27.29H31.8602V25.91H35.3502V27.29H37.3502V25.91H39.6902V23.32Z" fill="#281913"/>
<path d="M39.0002 14.3V23.32H30.6802C30.3902 22.49 30.2402 21.61 30.2402 20.68C30.2402 16.19 33.8802 12.55 38.3702 12.55C38.5202 12.55 38.6802 12.55 38.8302 12.56L39.0002 14.3Z" fill="#854714"/>
<path d="M9.95012 23.32H0.620117C0.620117 19.92 1.89012 16.72 4.45012 14.83C7.49012 16.37 9.95012 19.69 9.95012 23.32Z" fill="#854714"/>
<path d="M38.4101 8.11002H36.0801C32.8901 8.11002 30.0301 6.34002 28.6201 3.66002C31.4301 3.38002 33.8901 2.57002 35.6601 1.44002C36.2801 1.04002 36.9701 0.800022 37.7001 0.710022L38.4101 8.11002Z" fill="#854714"/>
<path d="M24.0404 3.65002V10.84C24.0404 14.09 21.4004 16.73 18.1604 16.73H10.9604C9.42035 16.73 7.00035 13.85 6.02035 12.67C5.78035 12.96 5.55035 13.24 5.36035 13.5C6.54035 15.01 9.04035 17.73 10.9604 17.73H18.1604C21.9604 17.73 25.0404 14.64 25.0404 10.84V3.73002C24.7004 3.71002 24.3704 3.68002 24.0404 3.65002Z" fill="#854714"/>
<path d="M19.3204 8.11004C19.9776 8.11004 20.5104 7.57726 20.5104 6.92004C20.5104 6.26282 19.9776 5.73004 19.3204 5.73004C18.6632 5.73004 18.1304 6.26282 18.1304 6.92004C18.1304 7.57726 18.6632 8.11004 19.3204 8.11004Z" fill="#F9D335"/>
<path d="M15.4004 9.30004C16.0577 9.30004 16.5904 8.76726 16.5904 8.11004C16.5904 7.45283 16.0577 6.92004 15.4004 6.92004C14.7432 6.92004 14.2104 7.45283 14.2104 8.11004C14.2104 8.76726 14.7432 9.30004 15.4004 9.30004Z" fill="#F9D335"/>
<path d="M11.7003 11.17C12.3575 11.17 12.8903 10.6373 12.8903 9.98004C12.8903 9.32282 12.3575 8.79004 11.7003 8.79004C11.043 8.79004 10.5103 9.32282 10.5103 9.98004C10.5103 10.6373 11.043 11.17 11.7003 11.17Z" fill="#F9D335"/>
<path d="M8.75055 13.56C9.40777 13.56 9.94055 13.0272 9.94055 12.37C9.94055 11.7128 9.40777 11.18 8.75055 11.18C8.09333 11.18 7.56055 11.7128 7.56055 12.37C7.56055 13.0272 8.09333 13.56 8.75055 13.56Z" fill="#F9D335"/>
<path d="M18.8802 4.14001C19.1102 4.14001 19.3202 4.30001 19.3702 4.54001L19.8202 6.71001C19.8802 6.98001 19.7002 7.25001 19.4302 7.30001C19.1602 7.36001 18.8902 7.18001 18.8402 6.91001L18.3802 4.74001C18.3202 4.47001 18.5002 4.20001 18.7702 4.15001C18.8102 4.14001 18.8402 4.14001 18.8802 4.14001Z" fill="#162330"/>
<path d="M14.4305 5.43C14.5905 5.45 14.7405 5.55 14.8205 5.71L15.7805 7.7C15.9005 7.95 15.7905 8.25 15.5505 8.37C15.3005 8.49 15.0005 8.39 14.8805 8.14L13.9205 6.15C13.8005 5.9 13.9105 5.6 14.1505 5.48C14.2405 5.43 14.3305 5.42 14.4305 5.43Z" fill="#162330"/>
<path d="M10.6004 7.53C10.6704 7.57 10.7404 7.62 10.7904 7.7L12.1304 9.75C12.2804 9.98 12.2204 10.29 11.9904 10.44C11.7604 10.59 11.4504 10.53 11.3004 10.3L9.95036 8.24C9.80036 8.01 9.87036 7.7 10.1004 7.55C10.2504 7.45 10.4504 7.45 10.6004 7.53Z" fill="#162330"/>
<path d="M7.38045 10.2C7.41045 10.21 7.43045 10.23 7.45045 10.26L9.12045 12.02C9.31045 12.22 9.30045 12.54 9.10045 12.73C8.90045 12.92 8.58045 12.91 8.39045 12.71L6.72045 10.95C6.53045 10.75 6.54045 10.43 6.74045 10.24C6.92045 10.07 7.19045 10.06 7.38045 10.2Z" fill="#162330"/>
<path d="M44.2505 14.3V23.32H82.0405C82.3805 20.74 81.0405 18.5 78.8105 14.83C78.5905 14.47 78.2905 14.02 77.9005 13.5C77.7105 13.24 77.4805 12.96 77.2405 12.67C74.8605 9.89002 70.1005 6.03002 61.4805 5.05002V5.03002C61.4805 4.14002 60.7505 3.48002 59.8705 3.59002C59.6705 3.62002 59.4605 3.63002 59.2205 3.65002C58.8905 3.68002 58.5605 3.71002 58.2205 3.73002C57.7805 3.76002 57.3305 3.77002 56.8805 3.77002C56.1105 3.77002 55.3605 3.73002 54.6305 3.66002C51.8205 3.38002 49.3605 2.57002 47.5905 1.44002C46.9705 1.04002 46.2805 0.800022 45.5505 0.710022L44.8405 8.11002L44.4205 12.56L44.2505 14.3Z" fill="#FC961A"/>
<path d="M43.5703 23.32H83.0203V25.91H80.8503V27.29H78.8503V25.91H75.3603V27.29H73.3603V25.91H69.8703V27.29H67.8703V25.91H64.3803V27.29H62.3803V25.91H58.8903V27.29H56.8903V25.91H53.4003V27.29H51.4003V25.91H47.9103V27.29H45.9103V25.91H43.5703V23.32Z" fill="#281913"/>
<path d="M44.2603 14.3V23.32H52.5803C52.8703 22.49 53.0203 21.61 53.0203 20.68C53.0203 16.19 49.3803 12.55 44.8903 12.55C44.7403 12.55 44.5803 12.55 44.4303 12.56L44.2603 14.3Z" fill="#854714"/>
<path d="M73.3203 23.32H82.6403C82.6403 19.92 81.3703 16.72 78.8103 14.83C75.7803 16.37 73.3203 19.69 73.3203 23.32Z" fill="#854714"/>
<path d="M44.8501 8.11002H47.1801C50.3701 8.11002 53.2301 6.34002 54.6401 3.66002C51.8301 3.38002 49.3701 2.57002 47.6001 1.44002C46.9801 1.04002 46.2901 0.800022 45.5601 0.710022L44.8501 8.11002Z" fill="#854714"/>
<path d="M58.2202 3.73002V10.84C58.2202 14.64 61.3002 17.73 65.1002 17.73H72.3002C74.2202 17.73 76.7202 15.01 77.9002 13.5C77.7102 13.24 77.4802 12.96 77.2402 12.67C76.2602 13.85 73.8402 16.73 72.3002 16.73H65.1002C61.8602 16.73 59.2202 14.09 59.2202 10.84V3.65002C58.8902 3.68002 58.5602 3.71002 58.2202 3.73002Z" fill="#854714"/>
<path d="M63.9405 8.11004C64.5977 8.11004 65.1305 7.57726 65.1305 6.92004C65.1305 6.26282 64.5977 5.73004 63.9405 5.73004C63.2833 5.73004 62.7505 6.26282 62.7505 6.92004C62.7505 7.57726 63.2833 8.11004 63.9405 8.11004Z" fill="#F9D335"/>
<path d="M67.8604 9.30004C68.5176 9.30004 69.0504 8.76726 69.0504 8.11004C69.0504 7.45283 68.5176 6.92004 67.8604 6.92004C67.2032 6.92004 66.6704 7.45283 66.6704 8.11004C66.6704 8.76726 67.2032 9.30004 67.8604 9.30004Z" fill="#F9D335"/>
<path d="M71.5704 11.17C72.2276 11.17 72.7604 10.6373 72.7604 9.98004C72.7604 9.32282 72.2276 8.79004 71.5704 8.79004C70.9132 8.79004 70.3804 9.32282 70.3804 9.98004C70.3804 10.6373 70.9132 11.17 71.5704 11.17Z" fill="#F9D335"/>
<path d="M74.5103 13.56C75.1675 13.56 75.7003 13.0272 75.7003 12.37C75.7003 11.7128 75.1675 11.18 74.5103 11.18C73.8531 11.18 73.3203 11.7128 73.3203 12.37C73.3203 13.0272 73.8531 13.56 74.5103 13.56Z" fill="#F9D335"/>
<path d="M64.3903 4.14001C64.1603 4.14001 63.9503 4.30001 63.9003 4.54001L63.4403 6.71001C63.3803 6.98001 63.5603 7.25001 63.8303 7.30001C64.1003 7.36001 64.3703 7.18001 64.4203 6.91001L64.8803 4.74001C64.9403 4.47001 64.7603 4.20001 64.4903 4.15001C64.4503 4.14001 64.4203 4.14001 64.3903 4.14001Z" fill="#162330"/>
<path d="M68.8403 5.43C68.6703 5.45 68.5203 5.55 68.4503 5.71L67.4903 7.7C67.3703 7.95 67.4803 8.25 67.7203 8.37C67.9703 8.49 68.2703 8.39 68.3903 8.14L69.3503 6.15C69.4703 5.9 69.3603 5.6 69.1203 5.48C69.0203 5.43 68.9303 5.42 68.8403 5.43Z" fill="#162330"/>
<path d="M72.6606 7.53002C72.5906 7.57002 72.5206 7.62002 72.4706 7.70002L71.1306 9.75002C70.9806 9.98002 71.0406 10.29 71.2706 10.44C71.5006 10.59 71.8106 10.53 71.9606 10.3L73.3006 8.25002C73.4506 8.02002 73.3906 7.71002 73.1606 7.56002C73.0106 7.45002 72.8106 7.45002 72.6606 7.53002Z" fill="#162330"/>
<path d="M75.8804 10.2C75.8504 10.22 75.8304 10.24 75.8104 10.26L74.1404 12.02C73.9504 12.22 73.9604 12.54 74.1604 12.73C74.3604 12.92 74.6804 12.91 74.8704 12.71L76.5404 10.95C76.7304 10.75 76.7204 10.43 76.5204 10.24C76.3404 10.07 76.0704 10.06 75.8804 10.2Z" fill="#162330"/>
</g>
<defs>
<clipPath id="clip0_301_1957">
<rect width="82.78" height="26.58" fill="white" transform="translate(0.240234 0.710022)"/>
</clipPath>
</defs>
</svg>
