<svg width="80" height="18" viewBox="0 0 80 18" fill="none" xmlns="http://www.w3.org/2000/svg">
<g clip-path="url(#clip0_301_2007)">
<path d="M49.3501 14.03C49.3501 14.03 59.4101 2.35003 72.3101 0.480031C72.3101 0.480031 75.7501 -0.349969 73.1601 3.56003C73.1601 3.56003 73.0401 2.05003 72.1701 2.12003C70.8201 2.22003 61.6301 5.10003 52.5501 13.69C50.6801 15.46 50.8601 12.72 49.3501 14.03Z" fill="#489DD7"/>
<path d="M79.3099 12.8101H42.6299V17.6001H79.3099V12.8101Z" fill="#F7ECB9"/>
<path d="M29.9803 14.03C29.9803 14.03 19.9203 2.35003 7.02025 0.480031C7.02025 0.480031 3.58025 -0.349969 6.17025 3.56003C6.17025 3.56003 6.29025 2.05003 7.16025 2.12003C8.51025 2.22003 17.7003 5.10003 26.7803 13.69C28.6503 15.46 28.4703 12.72 29.9803 14.03Z" fill="#489DD7"/>
<path d="M0.0211716 17.6064L36.7012 17.6064L36.7012 12.8164L0.0211716 12.8164L0.0211716 17.6064Z" fill="#F7ECB9"/>
</g>
<defs>
<clipPath id="clip0_301_2007">
<rect width="79.29" height="17.2" fill="white" transform="translate(0.0200195 0.400024)"/>
</clipPath>
</defs>
</svg>
