<svg width="60" height="18" viewBox="0 0 60 18" fill="none" xmlns="http://www.w3.org/2000/svg">
<g clip-path="url(#clip0_301_14927)">
<path d="M53.23 3.55002C53.23 3.55002 53.11 2.04002 52.23 2.11002C51 2.20002 43.28 4.60002 35.06 11.5C35.02 10.66 34.9 9.83002 34.71 9.03002C38.88 5.61002 45.19 1.51002 52.38 0.470021C52.38 0.470021 55.82 -0.359979 53.23 3.55002Z" fill="#489DD7"/>
<path d="M59.3802 12.81H22.7002V17.6H59.3802V12.81Z" fill="#CCBC7A"/>
<path d="M7.07031 14.03C7.07031 14.03 17.1303 2.35003 30.0303 0.480031C30.0303 0.480031 33.4703 -0.349969 30.8803 3.56003C30.8803 3.56003 30.7603 2.05003 29.8903 2.12003C28.5403 2.22003 19.3503 5.10003 10.2703 13.69C8.40031 15.46 8.58031 12.72 7.07031 14.03Z" fill="#489DD7"/>
<path d="M37.0301 12.8101H0.350098V17.6001H37.0301V12.8101Z" fill="#F7ECB9"/>
</g>
<defs>
<clipPath id="clip0_301_14927">
<rect width="59.03" height="17.2" fill="white" transform="translate(0.350098 0.400024)"/>
</clipPath>
</defs>
</svg>
