<svg width="85" height="46" viewBox="0 0 85 46" fill="none" xmlns="http://www.w3.org/2000/svg">
<g clip-path="url(#clip0_301_2015)">
<path d="M38.29 4.66998V25.99C38.29 25.99 38.29 29.12 38.29 31.8C38.29 36.57 38.29 42.17 38.29 42.17H2.22998C2.22998 34.14 7.91998 29.54 13.64 26.94C14.3 26.64 14.95 26.37 15.6 26.12C17.47 25.4 19.27 24.88 20.8 24.51C21.65 24.3 22.42 24.14 23.06 24.02C24.21 23.8 24.99 23.7 25.21 23.66V4.66998H38.29Z" fill="#C62C3F"/>
<path d="M38.4199 5.35H25.3299C24.1099 5.35 23.1299 4.36 23.1299 3.15V2.76C23.1299 1.54 24.1199 0.559998 25.3299 0.559998H38.4199C39.6399 0.559998 40.6199 1.55 40.6199 2.76V3.14C40.6199 4.36 39.6299 5.35 38.4199 5.35Z" fill="#C2B6B7"/>
<path d="M39.0601 41.51H0.310059V45.44H39.0601V41.51Z" fill="#CFCDCF"/>
<path d="M20.9303 33.43C20.7403 33.61 20.5003 33.7 20.2603 33.7C19.9903 33.7 19.7203 33.59 19.5203 33.37L13.5503 26.83C14.2103 26.53 14.8603 26.26 15.5103 26.01L21.0003 32.02C21.3703 32.43 21.3403 33.06 20.9303 33.43Z" fill="#CFCDCF"/>
<path d="M29.3301 32.26C29.1401 32.44 28.8901 32.53 28.6501 32.53C28.3801 32.53 28.1101 32.42 27.9201 32.21L20.6401 24.36C21.4901 24.15 22.2601 23.99 22.9001 23.87L29.3801 30.85C29.7601 31.25 29.7301 31.89 29.3301 32.26Z" fill="#CFCDCF"/>
<path d="M46.8599 4.66998V25.99C46.8599 25.99 46.8599 29.12 46.8599 31.8C46.8599 36.57 46.8599 42.17 46.8599 42.17H82.9199C82.9199 34.14 77.2299 29.54 71.5099 26.94C70.8499 26.64 70.1999 26.37 69.5499 26.12C67.6799 25.4 65.8799 24.88 64.3499 24.51C63.4999 24.3 62.7299 24.14 62.0899 24.02C60.9399 23.8 60.1599 23.7 59.9399 23.66V4.66998H46.8599Z" fill="#FB374F"/>
<path d="M46.72 5.35H59.81C61.03 5.35 62.01 4.36 62.01 3.15V2.76C62.01 1.54 61.02 0.559998 59.81 0.559998H46.72C45.5 0.559998 44.52 1.55 44.52 2.76V3.14C44.52 4.36 45.51 5.35 46.72 5.35Z" fill="#E2D9DA"/>
<path d="M46.0845 45.4323L84.8345 45.4323L84.8345 41.5023L46.0845 41.5023L46.0845 45.4323Z" fill="#E2D9DA"/>
<path d="M64.2198 33.43C64.4098 33.61 64.6498 33.7 64.8898 33.7C65.1598 33.7 65.4298 33.59 65.6298 33.37L71.7398 26.66C71.0798 26.36 70.4298 26.09 69.7798 25.84L64.1498 32.02C63.7798 32.43 63.8098 33.06 64.2198 33.43Z" fill="#FFF7FA"/>
<path d="M55.8202 32.26C56.0102 32.44 56.2602 32.53 56.5002 32.53C56.7702 32.53 57.0402 32.42 57.2302 32.21L64.4302 24.41C63.5802 24.2 62.8102 24.04 62.1702 23.92L55.7702 30.85C55.3902 31.25 55.4202 31.89 55.8202 32.26Z" fill="#FFF7FA"/>
</g>
<defs>
<clipPath id="clip0_301_2015">
<rect width="84.52" height="44.88" fill="white" transform="translate(0.310059 0.559998)"/>
</clipPath>
</defs>
</svg>
