<svg width="63" height="46" viewBox="0 0 63 46" fill="none" xmlns="http://www.w3.org/2000/svg">
<g clip-path="url(#clip0_301_14963)">
<path d="M24.0298 4.66998V25.99C24.0298 25.99 24.0298 29.12 24.0298 31.8C24.0298 36.57 24.0298 42.17 24.0298 42.17H60.0898C60.0898 34.14 54.3998 29.54 48.6798 26.94C48.0198 26.64 47.3698 26.37 46.7198 26.12C44.8498 25.4 43.0498 24.88 41.5198 24.51C40.6698 24.3 39.8998 24.14 39.2598 24.02C38.1098 23.8 37.3298 23.7 37.1098 23.66V4.66998H24.0298Z" fill="#C62C3F"/>
<path d="M23.8997 5.35H36.9897C38.2097 5.35 39.1897 4.36 39.1897 3.15V2.76C39.1897 1.54 38.1997 0.559998 36.9897 0.559998H23.8997C22.6797 0.559998 21.6997 1.55 21.6997 2.76V3.14C21.6997 4.36 22.6797 5.35 23.8997 5.35Z" fill="#C2B6B7"/>
<path d="M23.2598 45.4323L62.0098 45.4323L62.0098 41.5023L23.2598 41.5023L23.2598 45.4323Z" fill="#CFCDCF"/>
<path d="M41.3897 33.43C41.5797 33.61 41.8197 33.7 42.0597 33.7C42.3297 33.7 42.5997 33.59 42.7997 33.37L48.7697 26.83C48.1097 26.53 47.4597 26.26 46.8097 26.01L41.3197 32.02C40.9497 32.43 40.9797 33.06 41.3897 33.43Z" fill="#CFCDCF"/>
<path d="M32.9897 32.26C33.1797 32.44 33.4297 32.53 33.6697 32.53C33.9397 32.53 34.2097 32.42 34.3997 32.21L41.6797 24.36C40.8297 24.15 40.0597 23.99 39.4197 23.87L32.9397 30.85C32.5597 31.25 32.5897 31.89 32.9897 32.26Z" fill="#CFCDCF"/>
<path d="M2.70996 4.66998V25.99C2.70996 25.99 2.70996 29.12 2.70996 31.8C2.70996 36.57 2.70996 42.17 2.70996 42.17H38.77C38.77 34.14 33.08 29.54 27.36 26.94C26.7 26.64 26.05 26.37 25.4 26.12C23.53 25.4 21.73 24.88 20.2 24.51C19.35 24.3 18.58 24.14 17.94 24.02C16.79 23.8 16.01 23.7 15.79 23.66V4.66998H2.70996Z" fill="#FB374F"/>
<path d="M2.57988 5.35H15.6699C16.8899 5.35 17.8699 4.36 17.8699 3.15V2.76C17.8699 1.54 16.8799 0.559998 15.6699 0.559998H2.57988C1.36988 0.559998 0.379883 1.55 0.379883 2.76V3.14C0.379883 4.36 1.36988 5.35 2.57988 5.35Z" fill="#E2D9DA"/>
<path d="M1.94385 45.4323L40.6938 45.4323L40.6938 41.5023L1.94385 41.5023L1.94385 45.4323Z" fill="#E2D9DA"/>
<path d="M20.0699 33.43C20.2599 33.61 20.4999 33.7 20.7399 33.7C21.0099 33.7 21.2799 33.59 21.4799 33.37L27.5899 26.66C26.9299 26.36 26.2799 26.09 25.6299 25.84L19.9999 32.02C19.6299 32.43 19.6599 33.06 20.0699 33.43Z" fill="#FFF7FA"/>
<path d="M11.6698 32.26C11.8598 32.44 12.1098 32.53 12.3498 32.53C12.6198 32.53 12.8898 32.42 13.0798 32.21L20.2798 24.41C19.4298 24.2 18.6598 24.04 18.0198 23.92L11.6198 30.85C11.2398 31.25 11.2698 31.89 11.6698 32.26Z" fill="#FFF7FA"/>
</g>
<defs>
<clipPath id="clip0_301_14963">
<rect width="61.63" height="44.88" fill="white" transform="translate(0.379883 0.559998)"/>
</clipPath>
</defs>
</svg>
