<svg width="102" height="80" viewBox="0 0 102 80" fill="none" xmlns="http://www.w3.org/2000/svg">
<g clip-path="url(#clip0_301_8888)">
<path d="M50.9702 7.40998C50.9602 8.65998 50.9202 10.01 50.8702 11.39C50.7902 13.88 50.6502 16.5 50.4802 19.02C50.4102 20.05 50.3402 21.06 50.2702 22.04C50.1902 23.13 50.1202 24.17 50.0302 25.16C50.0002 25.45 49.9802 25.73 49.9502 26V26.03C49.8202 27.58 49.7002 28.95 49.5902 30.07C49.4302 31.63 49.3102 32.69 49.2502 33C49.1602 33.49 48.9102 35.42 48.6202 37.94C48.6202 37.94 48.6102 37.94 48.6102 37.95C48.5702 38.32 48.5202 38.71 48.4802 39.1C48.2702 40.91 48.0402 42.9 47.8202 44.85V44.86C47.8102 44.91 47.8102 44.95 47.8002 45L47.5102 47.52C47.4802 47.76 47.4602 47.99 47.4402 48.22C47.4002 48.53 47.3702 48.83 47.3302 49.12C47.0702 51.51 46.8702 53.36 46.8002 53.89C46.8002 54 46.7902 54.05 46.7902 54.05C47.3002 55.83 47.6702 57.81 47.9202 59.88V59.9C47.9802 60.34 48.0302 60.76 48.0702 61.2C48.2902 63.43 48.4202 65.7 48.4702 67.84C48.4702 68.05 48.4702 68.26 48.4802 68.46V68.5C48.5802 74.26 48.2102 78.92 48.2102 78.92H33.0402V75.63C32.4502 75.54 31.5002 75.65 30.4402 75.85C29.2702 76.08 27.9802 76.4 26.8602 76.72C25.2502 77.17 24.0102 77.59 24.0102 77.59C12.2002 80.93 0.490234 78.92 0.490234 78.92V72.66C0.890234 67.42 4.95023 64.03 9.12023 61.92C10.3802 61.28 11.6302 60.76 12.8002 60.35V60.34C13.1802 60.21 13.5402 60.08 13.9002 59.97C14.9202 59.64 15.8702 59.19 16.7402 58.62C17.5502 58.11 18.2902 57.5 18.9402 56.81C20.0902 55.63 20.9802 54.22 21.5402 52.67C21.9002 51.72 22.1202 50.71 22.2102 49.67C22.4002 47.41 22.4402 44.85 22.3502 42.12C22.3302 41.6 22.3102 41.06 22.2802 40.52C22.2802 40.51 22.2802 40.5 22.2802 40.5C22.2802 40.25 22.2602 40 22.2502 39.74C22.2402 39.55 22.2302 39.37 22.2202 39.18C22.1902 38.77 22.1702 38.36 22.1402 37.95C22.1402 37.94 22.1402 37.94 22.1402 37.94C22.0902 37.2 22.0302 36.45 21.9602 35.7C21.9402 35.38 21.9102 35.06 21.8802 34.74C21.8002 33.79 21.7002 32.84 21.6002 31.88C21.5502 31.43 21.5002 30.98 21.4502 30.52C21.4302 30.31 21.4002 30.09 21.3702 29.88C20.9202 26.02 20.3702 22.2 19.8102 18.75C19.5902 17.34 19.3602 16 19.1502 14.73C19.0702 14.29 19.0002 13.86 18.9202 13.44V13.43C18.8502 13.05 18.7902 12.69 18.7202 12.33C18.7202 12.32 18.7202 12.32 18.7202 12.31C18.5402 11.31 18.3602 10.39 18.2002 9.54998C17.8802 7.86998 17.6102 6.51998 17.4302 5.61998C17.2602 4.78998 17.1602 4.33998 17.1602 4.33998C17.7502 4.26998 18.5302 4.17998 19.4502 4.07998C19.4602 4.07998 19.4602 4.07998 19.4602 4.07998C19.7102 4.03998 19.9602 4.00998 20.2402 3.97998C20.8302 3.90998 21.4702 3.82998 22.1402 3.75998C22.1502 3.75998 22.1502 3.75998 22.1502 3.75998C23.5502 3.58998 25.1002 3.40998 26.7602 3.21998C27.0302 3.18998 27.3002 3.15998 27.5702 3.12998C28.4702 3.01998 29.3902 2.91998 30.3302 2.80998C31.9502 2.61998 33.6102 2.42998 35.2302 2.23998C36.6102 2.08998 37.9802 1.92998 39.2702 1.78998C39.3602 1.77998 39.4602 1.76998 39.5502 1.75998C41.2402 1.55998 42.8102 1.37998 44.2202 1.20998C44.6002 1.16998 44.9602 1.12998 45.3102 1.08998C46.1902 0.98998 47.0002 0.90998 47.6902 0.81998C49.5302 0.60998 50.6302 0.47998 50.6302 0.47998C50.8902 2.07998 51.0002 4.53998 50.9702 7.40998Z" fill="#030306"/>
<path d="M24.5703 10.3799C25.5699 10.3799 26.3803 9.56958 26.3803 8.56995C26.3803 7.57031 25.5699 6.75995 24.5703 6.75995C23.5706 6.75995 22.7603 7.57031 22.7603 8.56995C22.7603 9.56958 23.5706 10.3799 24.5703 10.3799Z" fill="#0FC8EF"/>
<path d="M23.6001 11.0199C22.8201 10.7099 22.2301 10.0499 22.0101 9.22992C20.9901 9.16992 19.9601 9.61992 19.3101 10.4999C18.3001 11.8899 18.6101 13.8299 20.0001 14.8399C21.2601 15.7499 22.9701 15.5899 24.0301 14.5099C23.3201 13.4599 23.2001 12.1599 23.6001 11.0199Z" fill="#EF3D5A"/>
<path d="M26.6001 10.2499C26.0701 10.8899 25.2501 11.2599 24.4101 11.2099C24.0401 12.1599 24.1401 13.2799 24.7901 14.1699C25.8001 15.5599 27.7401 15.8699 29.1301 14.8599C30.3901 13.9499 30.7601 12.2599 30.0701 10.9199C28.8301 11.2599 27.5601 10.9799 26.6001 10.2499Z" fill="#EF3D5A"/>
<path d="M26.79 7.14996C27.24 7.84996 27.33 8.73996 27.02 9.52996C27.81 10.18 28.91 10.42 29.95 10.08C31.58 9.54996 32.47 7.79996 31.94 6.16996C31.46 4.68996 29.97 3.81996 28.49 4.05996C28.45 5.33996 27.78 6.46996 26.79 7.14996Z" fill="#EF3D5A"/>
<path d="M27.6704 3.90994C27.6704 5.00994 27.1004 5.97994 26.2404 6.52994C25.5904 5.98994 24.7104 5.80994 23.9104 6.01994C23.6304 5.07994 23.0104 4.25994 22.1504 3.75994C23.5504 3.58994 25.1004 3.40994 26.7604 3.21994C27.0304 3.18994 27.3004 3.15994 27.5704 3.12994C27.6304 3.37994 27.6704 3.63994 27.6704 3.90994Z" fill="#EF3D5A"/>
<path d="M23.1402 6.34991C22.4302 6.79991 21.9802 7.57991 21.9302 8.40991C20.7302 8.37991 19.5302 8.89991 18.7402 9.89991C18.5502 9.79991 18.3702 9.68991 18.2002 9.54991C17.8802 7.86991 17.6102 6.51991 17.4302 5.61991C18.1302 4.34991 19.6602 3.70991 21.0902 4.17991C22.1402 4.51991 22.8802 5.35991 23.1402 6.34991Z" fill="#EF3D5A"/>
<path d="M42.3906 8.59998C43.3902 8.59998 44.2006 7.78962 44.2006 6.78998C44.2006 5.79035 43.3902 4.97998 42.3906 4.97998C41.3909 4.97998 40.5806 5.79035 40.5806 6.78998C40.5806 7.78962 41.3909 8.59998 42.3906 8.59998Z" fill="#FAEEEF"/>
<path d="M41.4302 9.23995C40.6502 8.92995 40.0602 8.26995 39.8402 7.44995C38.8202 7.38995 37.7902 7.83995 37.1402 8.71995C36.1302 10.11 36.4402 12.05 37.8302 13.06C39.0902 13.97 40.8002 13.81 41.8602 12.73C41.1502 11.68 41.0302 10.38 41.4302 9.23995Z" fill="#0FC8EF"/>
<path d="M44.4302 8.46997C43.9002 9.10997 43.0802 9.47997 42.2402 9.42997C41.8702 10.38 41.9702 11.5 42.6202 12.39C43.6302 13.78 45.5702 14.09 46.9602 13.08C48.2202 12.17 48.5902 10.48 47.9002 9.13997C46.6602 9.47997 45.3802 9.19997 44.4302 8.46997Z" fill="#0FC8EF"/>
<path d="M44.6201 5.36999C45.0701 6.06999 45.1601 6.95999 44.8501 7.74999C45.6401 8.39999 46.7401 8.63999 47.7801 8.29999C49.4101 7.76999 50.3001 6.01999 49.7701 4.38999C49.2901 2.90999 47.8001 2.03999 46.3201 2.27999C46.2701 3.56999 45.6101 4.68999 44.6201 5.36999Z" fill="#0FC8EF"/>
<path d="M45.5003 2.12997C45.5003 3.22997 44.9303 4.19997 44.0703 4.74997C43.4103 4.20997 42.5403 4.02997 41.7303 4.23997C41.4103 3.15997 40.6403 2.22997 39.5503 1.75997C41.2403 1.55997 42.8103 1.37997 44.2203 1.20997C44.6003 1.16997 44.9603 1.12997 45.3103 1.08997C45.4403 1.41997 45.5003 1.76997 45.5003 2.12997Z" fill="#0FC8EF"/>
<path d="M39.7603 6.63C39.8103 5.8 40.2603 5.03 40.9703 4.57C40.7103 3.58 39.9703 2.74 38.9203 2.4C37.2903 1.87 35.5403 2.76 35.0103 4.39C34.5303 5.87 35.2203 7.45 36.5703 8.12C37.3603 7.12 38.5603 6.6 39.7603 6.63Z" fill="#0FC8EF"/>
<path d="M45.5004 25.32C46.5001 25.32 47.3104 24.5096 47.3104 23.51C47.3104 22.5104 46.5001 21.7 45.5004 21.7C44.5008 21.7 43.6904 22.5104 43.6904 23.51C43.6904 24.5096 44.5008 25.32 45.5004 25.32Z" fill="#DA2840"/>
<path d="M44.5303 25.96C43.7503 25.65 43.1603 24.99 42.9403 24.17C41.9203 24.11 40.8903 24.56 40.2403 25.44C39.2303 26.83 39.5403 28.77 40.9303 29.78C42.1903 30.69 43.9003 30.53 44.9603 29.45C44.2603 28.4 44.1303 27.1 44.5303 25.96Z" fill="#FAEEEF"/>
<path d="M49.95 26V26.03C49.82 27.58 49.7 28.95 49.59 30.07C48.27 30.72 46.62 30.34 45.73 29.11C45.08 28.22 44.97 27.1 45.35 26.15C46.19 26.19 47 25.83 47.53 25.19C48.22 25.71 49.07 26.01 49.95 26Z" fill="#FAEEEF"/>
<path d="M50.48 19.02C50.41 20.05 50.34 21.06 50.27 22.04C50.19 23.13 50.12 24.17 50.03 25.16C49.27 25.2 48.53 24.94 47.96 24.47C48.27 23.68 48.17 22.8 47.73 22.09C48.72 21.41 49.38 20.29 49.43 19C49.79 18.94 50.14 18.95 50.48 19.02Z" fill="#FAEEEF"/>
<path d="M44.8404 20.96C45.6504 20.75 46.5204 20.94 47.1704 21.47C48.0304 20.92 48.6004 19.95 48.6004 18.85C48.6004 17.13 47.2104 15.74 45.4904 15.74C43.9304 15.74 42.6504 16.88 42.4204 18.37C43.6304 18.82 44.5004 19.8 44.8404 20.96Z" fill="#FAEEEF"/>
<path d="M42.8702 23.35C42.9202 22.52 43.3702 21.75 44.0802 21.29C43.8202 20.3 43.0802 19.46 42.0302 19.12C40.4002 18.59 38.6502 19.48 38.1202 21.11C37.6402 22.59 38.3302 24.17 39.6802 24.84C40.4602 23.84 41.6602 23.32 42.8702 23.35Z" fill="#FAEEEF"/>
<path d="M24.39 37.41C24.39 38.41 23.58 39.22 22.58 39.22C22.46 39.22 22.34 39.21 22.22 39.18C22.19 38.77 22.17 38.36 22.14 37.95C22.14 37.94 22.14 37.94 22.14 37.94C22.09 37.2 22.03 36.45 21.96 35.7C22.15 35.63 22.36 35.59 22.58 35.59C23.58 35.59 24.39 36.4 24.39 37.41Z" fill="#DA2840"/>
<path d="M22.2803 40.52C22.2803 40.51 22.2803 40.5 22.2803 40.5C22.3203 40.34 22.3603 40.19 22.4203 40.04C23.2703 40.09 24.0803 39.73 24.6103 39.08C25.5703 39.82 26.8403 40.1 28.0803 39.75C28.7703 41.09 28.4003 42.77 27.1403 43.69C25.7503 44.7 23.8103 44.39 22.8003 43C22.6003 42.72 22.4503 42.43 22.3503 42.12L22.2803 40.52Z" fill="#FAEEEF"/>
<path d="M24.8003 35.9899C25.2503 36.6899 25.3403 37.5799 25.0303 38.3699C25.8203 39.0199 26.9203 39.2599 27.9603 38.9199C29.5903 38.3899 30.4803 36.6399 29.9503 35.0099C29.4703 33.5299 27.9803 32.6599 26.5003 32.8999C26.4603 34.1799 25.7903 35.3099 24.8003 35.9899Z" fill="#FAEEEF"/>
<path d="M25.6801 32.75C25.6801 33.85 25.1101 34.81 24.2501 35.36C23.5901 34.83 22.7201 34.64 21.9201 34.85C21.9101 34.81 21.9001 34.77 21.8801 34.74C21.8001 33.79 21.7001 32.84 21.6001 31.88C21.5501 31.43 21.5001 30.98 21.4501 30.52C21.4301 30.31 21.4001 30.09 21.3701 29.88C21.7401 29.72 22.1501 29.64 22.5801 29.64C24.2901 29.64 25.6801 31.03 25.6801 32.75Z" fill="#FAEEEF"/>
<path d="M44.7304 48.89C45.73 48.89 46.5404 48.0796 46.5404 47.08C46.5404 46.0803 45.73 45.27 44.7304 45.27C43.7308 45.27 42.9204 46.0803 42.9204 47.08C42.9204 48.0796 43.7308 48.89 44.7304 48.89Z" fill="#0FC8EF"/>
<path d="M43.7603 49.54C42.9803 49.23 42.3903 48.5699 42.1703 47.7599C41.1503 47.6999 40.1203 48.1499 39.4703 49.0299C38.4603 50.4199 38.7703 52.36 40.1603 53.3699C41.4203 54.2799 43.1303 54.12 44.1903 53.04C43.4903 51.97 43.3603 50.67 43.7603 49.54Z" fill="#EF3D5A"/>
<path d="M47.33 49.1199C47.07 51.5099 46.87 53.36 46.8 53.8899C46.08 53.7299 45.42 53.32 44.96 52.68C44.31 51.79 44.21 50.67 44.58 49.72C45.42 49.77 46.24 49.4099 46.77 48.7599C46.95 48.8999 47.13 49.0199 47.33 49.1199Z" fill="#EF3D5A"/>
<path d="M47.82 44.8599C47.81 44.9099 47.81 44.9499 47.8 44.9999L47.51 47.5199C47.48 47.7599 47.46 47.9899 47.44 48.2199C47.35 48.1699 47.27 48.1099 47.19 48.0399C47.5 47.2599 47.4 46.3699 46.96 45.6699C47.29 45.4399 47.57 45.1699 47.82 44.8599Z" fill="#EF3D5A"/>
<path d="M44.0704 44.5299C44.8804 44.3199 45.7504 44.5099 46.4004 45.0399C47.2604 44.4899 47.8304 43.5199 47.8304 42.4199C47.8304 40.6999 46.4404 39.3099 44.7204 39.3099C43.1604 39.3099 41.8804 40.4499 41.6504 41.9399C42.8604 42.3999 43.7304 43.3799 44.0704 44.5299Z" fill="#EF3D5A"/>
<path d="M42.1002 46.9199C42.1502 46.0899 42.6002 45.3199 43.3102 44.8599C43.0502 43.8699 42.3102 43.0299 41.2602 42.6899C39.6302 42.1599 37.8802 43.0499 37.3502 44.6799C36.8702 46.1599 37.5602 47.7399 38.9102 48.4099C39.7002 47.4099 40.8902 46.8899 42.1002 46.9199Z" fill="#EF3D5A"/>
<path d="M19.2504 61.23C20.2501 61.23 21.0604 60.4196 21.0604 59.42C21.0604 58.4203 20.2501 57.61 19.2504 57.61C18.2508 57.61 17.4404 58.4203 17.4404 59.42C17.4404 60.4196 18.2508 61.23 19.2504 61.23Z" fill="#0FC8EF"/>
<path d="M18.2905 61.88C17.5105 61.57 16.9205 60.91 16.7005 60.1C15.6805 60.04 14.6505 60.49 14.0005 61.37C12.9905 62.76 13.3005 64.7 14.6905 65.71C15.9505 66.62 17.6605 66.46 18.7205 65.38C18.0105 64.31 17.8805 63.01 18.2905 61.88Z" fill="#FAEEEF"/>
<path d="M21.2905 61.1C20.7605 61.74 19.9405 62.11 19.1005 62.06C18.7305 63.01 18.8305 64.13 19.4805 65.02C20.4905 66.41 22.4305 66.72 23.8205 65.71C25.0805 64.8 25.4505 63.11 24.7605 61.77C23.5205 62.12 22.2405 61.83 21.2905 61.1Z" fill="#FAEEEF"/>
<path d="M21.4805 58.01C21.9305 58.71 22.0205 59.6 21.7105 60.39C22.5005 61.04 23.6005 61.28 24.6405 60.94C26.2705 60.41 27.1605 58.66 26.6305 57.03C26.1505 55.55 24.6605 54.68 23.1805 54.92C23.1305 56.2 22.4705 57.32 21.4805 58.01Z" fill="#FAEEEF"/>
<path d="M22.3604 54.76C22.3604 55.86 21.7904 56.83 20.9304 57.38C20.3604 56.93 19.6404 56.72 18.9404 56.81C20.0904 55.63 20.9804 54.22 21.5404 52.67C22.0504 53.22 22.3604 53.95 22.3604 54.76Z" fill="#FAEEEF"/>
<path d="M16.7403 58.62C16.6703 58.83 16.6303 59.04 16.6203 59.26C15.4203 59.23 14.2203 59.75 13.4303 60.76C13.2003 60.64 12.9903 60.5 12.8003 60.34C13.1803 60.21 13.5403 60.08 13.9003 59.97C14.9203 59.64 15.8703 59.19 16.7403 58.62Z" fill="#FAEEEF"/>
<path d="M38.6805 62.55C39.4592 62.55 40.0905 61.9187 40.0905 61.14C40.0905 60.3613 39.4592 59.73 38.6805 59.73C37.9018 59.73 37.2705 60.3613 37.2705 61.14C37.2705 61.9187 37.9018 62.55 38.6805 62.55Z" fill="#FAEEEF"/>
<path d="M37.9302 63.04C37.3302 62.8 36.8602 62.29 36.7002 61.65C35.9102 61.6 35.1102 61.95 34.6002 62.64C33.8202 63.72 34.0602 65.23 35.1302 66.01C36.1102 66.72 37.4402 66.59 38.2602 65.76C37.7102 64.94 37.6102 63.93 37.9302 63.04Z" fill="#EF3D5A"/>
<path d="M40.2602 62.44C39.8502 62.94 39.2102 63.22 38.5602 63.18C38.2702 63.92 38.3502 64.79 38.8502 65.48C39.6302 66.56 41.1402 66.8 42.2202 66.01C43.2002 65.3 43.4902 63.99 42.9502 62.95C41.9902 63.23 41.0002 63.01 40.2602 62.44Z" fill="#EF3D5A"/>
<path d="M40.4102 60.03C40.7602 60.58 40.8302 61.27 40.5902 61.88C41.2102 62.38 42.0602 62.58 42.8702 62.31C44.1402 61.9 44.8302 60.54 44.4202 59.27C44.0502 58.12 42.8902 57.44 41.7302 57.63C41.6902 58.63 41.1802 59.5 40.4102 60.03Z" fill="#EF3D5A"/>
<path d="M38.1603 59.15C38.7903 58.99 39.4703 59.13 39.9703 59.55C40.6403 59.12 41.0803 58.37 41.0803 57.52C41.0803 56.19 40.0003 55.11 38.6703 55.11C37.4603 55.11 36.4603 56 36.2803 57.16C37.2303 57.49 37.9003 58.25 38.1603 59.15Z" fill="#EF3D5A"/>
<path d="M36.6304 61.01C36.6704 60.36 37.0204 59.76 37.5704 59.41C37.3704 58.64 36.7904 57.99 35.9804 57.72C34.7104 57.31 33.3504 58 32.9404 59.27C32.5704 60.42 33.1004 61.65 34.1504 62.17C34.7604 61.39 35.7004 60.99 36.6304 61.01Z" fill="#EF3D5A"/>
<path d="M30.2806 52.35C31.0593 52.35 31.6906 51.7187 31.6906 50.94C31.6906 50.1612 31.0593 49.53 30.2806 49.53C29.5019 49.53 28.8706 50.1612 28.8706 50.94C28.8706 51.7187 29.5019 52.35 30.2806 52.35Z" fill="#EF3D5A"/>
<path d="M29.5205 52.85C28.9205 52.61 28.4505 52.1 28.2905 51.46C27.5005 51.41 26.7005 51.76 26.1905 52.45C25.4105 53.53 25.6505 55.04 26.7205 55.82C27.7005 56.53 29.0305 56.4 29.8505 55.57C29.3105 54.74 29.2105 53.73 29.5205 52.85Z" fill="#0FC8EF"/>
<path d="M31.8603 52.24C31.4503 52.74 30.8103 53.02 30.1603 52.98C29.8703 53.72 29.9503 54.59 30.4503 55.28C31.2303 56.36 32.7403 56.6 33.8203 55.81C34.8003 55.1 35.0903 53.79 34.5503 52.75C33.5903 53.03 32.6003 52.81 31.8603 52.24Z" fill="#0FC8EF"/>
<path d="M32.0103 49.84C32.3603 50.39 32.4303 51.08 32.1903 51.69C32.8103 52.19 33.6603 52.39 34.4703 52.12C35.7403 51.71 36.4303 50.35 36.0203 49.08C35.6503 47.93 34.4903 47.25 33.3303 47.44C33.2903 48.43 32.7803 49.31 32.0103 49.84Z" fill="#0FC8EF"/>
<path d="M29.7604 48.95C30.3904 48.79 31.0704 48.93 31.5704 49.35C32.2404 48.92 32.6804 48.17 32.6804 47.32C32.6804 45.99 31.6004 44.91 30.2704 44.91C29.0604 44.91 28.0604 45.8 27.8804 46.96C28.8204 47.29 29.5004 48.06 29.7604 48.95Z" fill="#0FC8EF"/>
<path d="M28.2305 50.81C28.2705 50.16 28.6205 49.56 29.1705 49.21C28.9705 48.44 28.3905 47.79 27.5805 47.52C26.3105 47.11 24.9505 47.8 24.5405 49.07C24.1705 50.22 24.7005 51.45 25.7505 51.97C26.3605 51.19 27.2905 50.79 28.2305 50.81Z" fill="#0FC8EF"/>
<path d="M36.5506 36.29C37.3293 36.29 37.9606 35.6587 37.9606 34.88C37.9606 34.1012 37.3293 33.47 36.5506 33.47C35.7719 33.47 35.1406 34.1012 35.1406 34.88C35.1406 35.6587 35.7719 36.29 36.5506 36.29Z" fill="#FAEEEF"/>
<path d="M35.8003 36.78C35.2003 36.54 34.7303 36.03 34.5703 35.39C33.7803 35.34 32.9803 35.69 32.4703 36.38C31.6903 37.46 31.9303 38.97 33.0003 39.75C33.9803 40.46 35.3103 40.33 36.1303 39.5C35.5803 38.68 35.4803 37.67 35.8003 36.78Z" fill="#EF3D5A"/>
<path d="M38.1303 36.18C37.7203 36.68 37.0803 36.96 36.4303 36.92C36.1403 37.66 36.2203 38.53 36.7203 39.22C37.5003 40.3 39.0103 40.54 40.0903 39.75C41.0703 39.04 41.3603 37.73 40.8203 36.69C39.8603 36.97 38.8703 36.75 38.1303 36.18Z" fill="#EF3D5A"/>
<path d="M38.2803 33.77C38.6303 34.32 38.7003 35.01 38.4603 35.62C39.0803 36.12 39.9303 36.32 40.7403 36.05C42.0103 35.64 42.7003 34.28 42.2903 33.01C41.9203 31.86 40.7603 31.18 39.6003 31.37C39.5703 32.37 39.0503 33.24 38.2803 33.77Z" fill="#EF3D5A"/>
<path d="M36.0406 32.89C36.6706 32.73 37.3506 32.87 37.8506 33.29C38.5206 32.86 38.9606 32.11 38.9606 31.26C38.9606 29.93 37.8806 28.85 36.5506 28.85C35.3406 28.85 34.3406 29.74 34.1606 30.9C35.1006 31.23 35.7706 31.99 36.0406 32.89Z" fill="#EF3D5A"/>
<path d="M34.5005 34.75C34.5405 34.1 34.8905 33.5 35.4405 33.15C35.2405 32.38 34.6605 31.73 33.8505 31.46C32.5805 31.05 31.2205 31.74 30.8105 33.01C30.4405 34.16 30.9705 35.39 32.0205 35.91C32.6305 35.13 33.5705 34.73 34.5005 34.75Z" fill="#EF3D5A"/>
<path d="M30.4305 24.52C31.2092 24.52 31.8405 23.8887 31.8405 23.11C31.8405 22.3312 31.2092 21.7 30.4305 21.7C29.6518 21.7 29.0205 22.3312 29.0205 23.11C29.0205 23.8887 29.6518 24.52 30.4305 24.52Z" fill="#FAEEEF"/>
<path d="M29.6704 25.0199C29.0704 24.7799 28.6004 24.2699 28.4404 23.6299C27.6504 23.5799 26.8504 23.9299 26.3404 24.6199C25.5604 25.6999 25.8004 27.2099 26.8704 27.9899C27.8504 28.6999 29.1804 28.5699 30.0004 27.7399C29.4604 26.9099 29.3604 25.8999 29.6704 25.0199Z" fill="#0FC8EF"/>
<path d="M32.0102 24.42C31.6002 24.92 30.9602 25.2 30.3102 25.16C30.0202 25.9 30.1002 26.77 30.6002 27.46C31.3802 28.54 32.8902 28.78 33.9702 27.99C34.9502 27.28 35.2402 25.97 34.7002 24.93C33.7402 25.21 32.7502 24.99 32.0102 24.42Z" fill="#0FC8EF"/>
<path d="M32.1504 22.01C32.5004 22.56 32.5704 23.25 32.3304 23.86C32.9504 24.36 33.8004 24.56 34.6104 24.29C35.8804 23.88 36.5704 22.52 36.1604 21.25C35.7904 20.1 34.6304 19.42 33.4704 19.61C33.4404 20.6 32.9304 21.48 32.1504 22.01Z" fill="#0FC8EF"/>
<path d="M29.9103 21.13C30.5403 20.97 31.2203 21.11 31.7203 21.53C32.3903 21.1 32.8303 20.35 32.8303 19.5C32.8303 18.17 31.7503 17.09 30.4203 17.09C29.2103 17.09 28.2103 17.98 28.0303 19.14C28.9703 19.47 29.6503 20.23 29.9103 21.13Z" fill="#0FC8EF"/>
<path d="M28.3804 22.99C28.4204 22.34 28.7704 21.74 29.3204 21.39C29.1204 20.62 28.5404 19.9699 27.7304 19.6999C26.4604 19.2899 25.1004 19.98 24.6904 21.25C24.3204 22.4 24.8504 23.63 25.9004 24.15C26.5104 23.37 27.4404 22.96 28.3804 22.99Z" fill="#0FC8EF"/>
<path d="M50.62 7.40998C50.63 8.65998 50.67 10.01 50.72 11.39C50.8 13.88 50.94 16.5 51.11 19.02C51.18 20.05 51.25 21.06 51.32 22.04C51.4 23.13 51.47 24.17 51.56 25.16C51.59 25.45 51.61 25.73 51.64 26V26.03C51.77 27.58 51.89 28.95 52 30.07C52.16 31.63 52.28 32.69 52.34 33C52.43 33.49 52.68 35.42 52.97 37.94C52.97 37.94 52.98 37.94 52.98 37.95C53.02 38.32 53.07 38.71 53.11 39.1C53.32 40.91 53.55 42.9 53.77 44.85V44.86C53.78 44.91 53.78 44.95 53.79 45L54.08 47.52C54.11 47.76 54.13 47.99 54.15 48.22C54.19 48.53 54.22 48.83 54.26 49.12C54.52 51.51 54.72 53.36 54.79 53.89C54.79 54 54.8 54.05 54.8 54.05C54.29 55.83 53.92 57.81 53.67 59.88V59.9C53.61 60.34 53.56 60.76 53.52 61.2C53.3 63.43 53.17 65.7 53.12 67.84C53.12 68.05 53.12 68.26 53.11 68.46V68.5C53.01 74.26 53.38 78.92 53.38 78.92H68.55V75.63C69.14 75.54 70.09 75.65 71.15 75.85C72.32 76.08 73.61 76.4 74.73 76.72C76.34 77.17 77.58 77.59 77.58 77.59C89.39 80.93 101.1 78.92 101.1 78.92V72.66C100.7 67.42 96.64 64.03 92.47 61.92C91.21 61.28 89.96 60.76 88.79 60.35V60.34C88.41 60.21 88.05 60.08 87.69 59.97C86.67 59.64 85.72 59.19 84.85 58.62C84.04 58.11 83.3 57.5 82.65 56.81C81.5 55.63 80.61 54.22 80.05 52.67C79.69 51.72 79.47 50.71 79.38 49.67C79.19 47.41 79.15 44.85 79.24 42.12C79.26 41.6 79.28 41.06 79.31 40.52C79.31 40.51 79.31 40.5 79.31 40.5C79.31 40.25 79.33 40 79.34 39.74C79.35 39.55 79.36 39.37 79.37 39.18C79.4 38.77 79.42 38.36 79.45 37.95C79.45 37.94 79.45 37.94 79.45 37.94C79.5 37.2 79.56 36.45 79.63 35.7C79.65 35.38 79.68 35.06 79.71 34.74C79.79 33.79 79.89 32.84 79.99 31.88C80.04 31.43 80.09 30.98 80.14 30.52C80.16 30.31 80.19 30.09 80.22 29.88C80.67 26.02 81.22 22.2 81.78 18.75C82 17.34 82.23 16 82.44 14.73C82.52 14.29 82.59 13.86 82.67 13.44V13.43C82.74 13.05 82.8 12.69 82.87 12.33C82.87 12.32 82.87 12.32 82.87 12.31C83.05 11.31 83.23 10.39 83.39 9.54998C83.71 7.86998 83.98 6.51998 84.16 5.61998C84.33 4.78998 84.43 4.33998 84.43 4.33998C83.84 4.26998 83.06 4.17998 82.14 4.07998C82.13 4.07998 82.13 4.07998 82.13 4.07998C81.88 4.03998 81.63 4.00998 81.35 3.97998C80.76 3.90998 80.12 3.82998 79.45 3.75998C79.44 3.75998 79.44 3.75998 79.44 3.75998C78.04 3.58998 76.49 3.40998 74.83 3.21998C74.56 3.18998 74.29 3.15998 74.02 3.12998C73.12 3.01998 72.2 2.91998 71.26 2.80998C69.64 2.61998 67.98 2.42998 66.36 2.23998C64.98 2.08998 63.61 1.92998 62.32 1.78998C62.23 1.77998 62.13 1.76998 62.04 1.75998C60.35 1.55998 58.78 1.37998 57.37 1.20998C56.99 1.16998 56.63 1.12998 56.28 1.08998C55.4 0.98998 54.59 0.90998 53.9 0.81998C52.06 0.60998 50.96 0.47998 50.96 0.47998C50.7 2.07998 50.59 4.53998 50.62 7.40998Z" fill="#030306"/>
<path d="M77.0195 10.3799C78.0191 10.3799 78.8295 9.56958 78.8295 8.56995C78.8295 7.57031 78.0191 6.75995 77.0195 6.75995C76.0198 6.75995 75.2095 7.57031 75.2095 8.56995C75.2095 9.56958 76.0198 10.3799 77.0195 10.3799Z" fill="#0FC8EF"/>
<path d="M77.9896 11.0199C78.7696 10.7099 79.3596 10.0499 79.5796 9.22992C80.5996 9.16992 81.6296 9.61992 82.2796 10.4999C83.2896 11.8899 82.9796 13.8299 81.5896 14.8399C80.3296 15.7499 78.6196 15.5899 77.5596 14.5099C78.2696 13.4599 78.3896 12.1599 77.9896 11.0199Z" fill="#EF3D5A"/>
<path d="M74.9897 10.2499C75.5197 10.8899 76.3397 11.2599 77.1797 11.2099C77.5497 12.1599 77.4497 13.2799 76.7997 14.1699C75.7897 15.5599 73.8497 15.8699 72.4597 14.8599C71.1997 13.9499 70.8297 12.2599 71.5197 10.9199C72.7597 11.2599 74.0297 10.9799 74.9897 10.2499Z" fill="#EF3D5A"/>
<path d="M74.7997 7.14996C74.3497 7.84996 74.2597 8.73996 74.5697 9.52996C73.7797 10.18 72.6797 10.42 71.6397 10.08C70.0097 9.54996 69.1197 7.79996 69.6497 6.16996C70.1297 4.68996 71.6197 3.81996 73.0997 4.05996C73.1397 5.33996 73.8097 6.46996 74.7997 7.14996Z" fill="#EF3D5A"/>
<path d="M73.9199 3.90994C73.9199 5.00994 74.4899 5.97994 75.3499 6.52994C75.9999 5.98994 76.8799 5.80994 77.6799 6.01994C77.9599 5.07994 78.5799 4.25994 79.4399 3.75994C78.0399 3.58994 76.4899 3.40994 74.8299 3.21994C74.5599 3.18994 74.2899 3.15994 74.0199 3.12994C73.9599 3.37994 73.9199 3.63994 73.9199 3.90994Z" fill="#EF3D5A"/>
<path d="M78.4497 6.34991C79.1597 6.79991 79.6097 7.57991 79.6597 8.40991C80.8597 8.37991 82.0597 8.89991 82.8497 9.89991C83.0397 9.79991 83.2197 9.68991 83.3897 9.54991C83.7097 7.86991 83.9797 6.51991 84.1597 5.61991C83.4597 4.34991 81.9297 3.70991 80.4997 4.17991C79.4497 4.51991 78.7097 5.35991 78.4497 6.34991Z" fill="#EF3D5A"/>
<path d="M59.1899 8.59998C60.1895 8.59998 60.9999 7.78962 60.9999 6.78998C60.9999 5.79035 60.1895 4.97998 59.1899 4.97998C58.1902 4.97998 57.3799 5.79035 57.3799 6.78998C57.3799 7.78962 58.1902 8.59998 59.1899 8.59998Z" fill="#FAEEEF"/>
<path d="M60.16 9.23995C60.94 8.92995 61.53 8.26995 61.75 7.44995C62.77 7.38995 63.8 7.83995 64.45 8.71995C65.46 10.11 65.15 12.05 63.76 13.06C62.5 13.97 60.79 13.81 59.73 12.73C60.44 11.68 60.56 10.38 60.16 9.23995Z" fill="#0FC8EF"/>
<path d="M57.1601 8.46997C57.6901 9.10997 58.5101 9.47997 59.3501 9.42997C59.7201 10.38 59.6201 11.5 58.9701 12.39C57.9601 13.78 56.0201 14.09 54.6301 13.08C53.3701 12.17 53.0001 10.48 53.6901 9.13997C54.9301 9.47997 56.2001 9.19997 57.1601 8.46997Z" fill="#0FC8EF"/>
<path d="M56.9701 5.36999C56.5201 6.06999 56.4301 6.95999 56.7401 7.74999C55.9501 8.39999 54.8501 8.63999 53.8101 8.29999C52.1801 7.76999 51.2901 6.01999 51.8201 4.38999C52.3001 2.90999 53.7901 2.03999 55.2701 2.27999C55.3101 3.56999 55.9801 4.68999 56.9701 5.36999Z" fill="#0FC8EF"/>
<path d="M56.0903 2.12997C56.0903 3.22997 56.6603 4.19997 57.5203 4.74997C58.1803 4.20997 59.0503 4.02997 59.8603 4.23997C60.1803 3.15997 60.9503 2.22997 62.0403 1.75997C60.3503 1.55997 58.7803 1.37997 57.3703 1.20997C56.9903 1.16997 56.6303 1.12997 56.2803 1.08997C56.1503 1.41997 56.0903 1.76997 56.0903 2.12997Z" fill="#0FC8EF"/>
<path d="M61.8301 6.63C61.7801 5.8 61.3301 5.03 60.6201 4.57C60.8801 3.58 61.6201 2.74 62.6701 2.4C64.3001 1.87 66.0501 2.76 66.5801 4.39C67.0601 5.87 66.3701 7.45 65.0201 8.12C64.2301 7.12 63.0301 6.6 61.8301 6.63Z" fill="#0FC8EF"/>
<path d="M56.0898 25.32C57.0894 25.32 57.8998 24.5096 57.8998 23.51C57.8998 22.5104 57.0894 21.7 56.0898 21.7C55.0901 21.7 54.2798 22.5104 54.2798 23.51C54.2798 24.5096 55.0901 25.32 56.0898 25.32Z" fill="#DA2840"/>
<path d="M57.0599 25.96C57.8399 25.65 58.4299 24.99 58.6499 24.17C59.6699 24.11 60.6999 24.56 61.3499 25.44C62.3599 26.83 62.0499 28.77 60.6599 29.78C59.3999 30.69 57.6899 30.53 56.6299 29.45C57.3299 28.4 57.4599 27.1 57.0599 25.96Z" fill="#FAEEEF"/>
<path d="M51.6396 26V26.03C51.7696 27.58 51.8896 28.95 51.9996 30.07C53.3196 30.72 54.9696 30.34 55.8596 29.11C56.5096 28.22 56.6196 27.1 56.2396 26.15C55.3996 26.19 54.5896 25.83 54.0596 25.19C53.3696 25.71 52.5196 26.01 51.6396 26Z" fill="#FAEEEF"/>
<path d="M51.1099 19.02C51.1799 20.05 51.2499 21.06 51.3199 22.04C51.3999 23.13 51.4699 24.17 51.5599 25.16C52.3199 25.2 53.0599 24.94 53.6299 24.47C53.3199 23.68 53.4199 22.8 53.8599 22.09C52.8699 21.41 52.2099 20.29 52.1599 19C51.7999 18.94 51.4499 18.95 51.1099 19.02Z" fill="#FAEEEF"/>
<path d="M56.7497 20.96C55.9397 20.75 55.0697 20.94 54.4197 21.47C53.5597 20.92 52.9897 19.95 52.9897 18.85C52.9897 17.13 54.3797 15.74 56.0997 15.74C57.6597 15.74 58.9397 16.88 59.1697 18.37C57.9597 18.82 57.0897 19.8 56.7497 20.96Z" fill="#FAEEEF"/>
<path d="M58.7198 23.35C58.6698 22.52 58.2198 21.75 57.5098 21.29C57.7698 20.3 58.5098 19.46 59.5598 19.12C61.1898 18.59 62.9398 19.48 63.4698 21.11C63.9498 22.59 63.2598 24.17 61.9098 24.84C61.1198 23.84 59.9298 23.32 58.7198 23.35Z" fill="#FAEEEF"/>
<path d="M77.1997 37.41C77.1997 38.41 78.0097 39.22 79.0097 39.22C79.1297 39.22 79.2497 39.21 79.3697 39.18C79.3997 38.77 79.4197 38.36 79.4497 37.95C79.4497 37.94 79.4497 37.94 79.4497 37.94C79.4997 37.2 79.5597 36.45 79.6297 35.7C79.4397 35.63 79.2297 35.59 79.0097 35.59C78.0097 35.59 77.1997 36.4 77.1997 37.41Z" fill="#DA2840"/>
<path d="M79.24 42.12C79.14 42.43 78.99 42.72 78.79 43C77.78 44.39 75.84 44.7 74.45 43.69C73.19 42.77 72.82 41.09 73.51 39.75C74.75 40.1 76.02 39.82 76.98 39.08C77.51 39.73 78.32 40.09 79.17 40.04C79.23 40.19 79.27 40.34 79.31 40.5C79.31 40.5 79.31 40.51 79.31 40.52L79.24 42.12Z" fill="#FAEEEF"/>
<path d="M76.7899 35.9899C76.3399 36.6899 76.2499 37.5799 76.5599 38.3699C75.7699 39.0199 74.6699 39.2599 73.6299 38.9199C71.9999 38.3899 71.1099 36.6399 71.6399 35.0099C72.1199 33.5299 73.6099 32.6599 75.0899 32.8999C75.1299 34.1799 75.7999 35.3099 76.7899 35.9899Z" fill="#FAEEEF"/>
<path d="M75.9102 32.75C75.9102 33.85 76.4802 34.81 77.3402 35.36C78.0002 34.83 78.8702 34.64 79.6702 34.85C79.6802 34.81 79.6902 34.77 79.7102 34.74C79.7902 33.79 79.8902 32.84 79.9902 31.88C80.0402 31.43 80.0902 30.98 80.1402 30.52C80.1602 30.31 80.1902 30.09 80.2202 29.88C79.8502 29.72 79.4402 29.64 79.0102 29.64C77.3002 29.64 75.9102 31.03 75.9102 32.75Z" fill="#FAEEEF"/>
<path d="M56.8598 48.89C57.8594 48.89 58.6698 48.0796 58.6698 47.08C58.6698 46.0803 57.8594 45.27 56.8598 45.27C55.8602 45.27 55.0498 46.0803 55.0498 47.08C55.0498 48.0796 55.8602 48.89 56.8598 48.89Z" fill="#0FC8EF"/>
<path d="M57.8196 49.54C58.5996 49.23 59.1896 48.5699 59.4096 47.7599C60.4296 47.6999 61.4596 48.1499 62.1096 49.0299C63.1196 50.4199 62.8096 52.36 61.4196 53.3699C60.1596 54.2799 58.4496 54.12 57.3896 53.04C58.0996 51.97 58.2196 50.67 57.8196 49.54Z" fill="#EF3D5A"/>
<path d="M54.2598 49.1199C54.5198 51.5099 54.7198 53.36 54.7898 53.8899C55.5098 53.7299 56.1698 53.32 56.6298 52.68C57.2798 51.79 57.3798 50.67 57.0098 49.72C56.1698 49.77 55.3498 49.4099 54.8198 48.7599C54.6398 48.8999 54.4598 49.0199 54.2598 49.1199Z" fill="#EF3D5A"/>
<path d="M53.7695 44.8599C53.7795 44.9099 53.7795 44.9499 53.7895 44.9999L54.0795 47.5199C54.1095 47.7599 54.1295 47.9899 54.1495 48.2199C54.2395 48.1699 54.3195 48.1099 54.3995 48.0399C54.0895 47.2599 54.1895 46.3699 54.6295 45.6699C54.2995 45.4399 54.0195 45.1699 53.7695 44.8599Z" fill="#EF3D5A"/>
<path d="M57.5198 44.5299C56.7098 44.3199 55.8398 44.5099 55.1898 45.0399C54.3298 44.4899 53.7598 43.5199 53.7598 42.4199C53.7598 40.6999 55.1498 39.3099 56.8698 39.3099C58.4298 39.3099 59.7098 40.4499 59.9398 41.9399C58.7198 42.3999 57.8598 43.3799 57.5198 44.5299Z" fill="#EF3D5A"/>
<path d="M59.4898 46.9199C59.4398 46.0899 58.9898 45.3199 58.2798 44.8599C58.5398 43.8699 59.2798 43.0299 60.3298 42.6899C61.9598 42.1599 63.7098 43.0499 64.2398 44.6799C64.7198 46.1599 64.0298 47.7399 62.6798 48.4099C61.8898 47.4099 60.6898 46.8899 59.4898 46.9199Z" fill="#EF3D5A"/>
<path d="M82.3295 61.23C83.3292 61.23 84.1395 60.4196 84.1395 59.42C84.1395 58.4203 83.3292 57.61 82.3295 57.61C81.3299 57.61 80.5195 58.4203 80.5195 59.42C80.5195 60.4196 81.3299 61.23 82.3295 61.23Z" fill="#0FC8EF"/>
<path d="M83.2996 61.88C84.0796 61.57 84.6696 60.91 84.8896 60.1C85.9096 60.04 86.9396 60.49 87.5896 61.37C88.5996 62.76 88.2896 64.7 86.8996 65.71C85.6396 66.62 83.9296 66.46 82.8696 65.38C83.5796 64.31 83.6996 63.01 83.2996 61.88Z" fill="#FAEEEF"/>
<path d="M80.2998 61.1C80.8298 61.74 81.6498 62.11 82.4898 62.06C82.8598 63.01 82.7598 64.13 82.1098 65.02C81.0998 66.41 79.1598 66.72 77.7698 65.71C76.5098 64.8 76.1398 63.11 76.8298 61.77C78.0698 62.12 79.3398 61.83 80.2998 61.1Z" fill="#FAEEEF"/>
<path d="M80.1098 58.01C79.6598 58.71 79.5697 59.6 79.8797 60.39C79.0897 61.04 77.9897 61.28 76.9497 60.94C75.3197 60.41 74.4297 58.66 74.9597 57.03C75.4397 55.55 76.9297 54.68 78.4097 54.92C78.4497 56.2 79.1198 57.32 80.1098 58.01Z" fill="#FAEEEF"/>
<path d="M79.23 54.76C79.23 55.86 79.8 56.83 80.66 57.38C81.23 56.93 81.95 56.72 82.65 56.81C81.5 55.63 80.61 54.22 80.05 52.67C79.54 53.22 79.23 53.95 79.23 54.76Z" fill="#FAEEEF"/>
<path d="M84.8496 58.62C84.9196 58.83 84.9596 59.04 84.9696 59.26C86.1696 59.23 87.3696 59.75 88.1596 60.76C88.3896 60.64 88.5996 60.5 88.7896 60.34C88.4096 60.21 88.0496 60.08 87.6896 59.97C86.6696 59.64 85.7196 59.19 84.8496 58.62Z" fill="#FAEEEF"/>
<path d="M62.91 62.55C63.6887 62.55 64.32 61.9187 64.32 61.14C64.32 60.3613 63.6887 59.73 62.91 59.73C62.1313 59.73 61.5 60.3613 61.5 61.14C61.5 61.9187 62.1313 62.55 62.91 62.55Z" fill="#FAEEEF"/>
<path d="M63.6601 63.04C64.2601 62.8 64.7301 62.29 64.8901 61.65C65.6801 61.6 66.4801 61.95 66.9901 62.64C67.7701 63.72 67.5301 65.23 66.4601 66.01C65.4801 66.72 64.1501 66.59 63.3301 65.76C63.8801 64.94 63.9701 63.93 63.6601 63.04Z" fill="#EF3D5A"/>
<path d="M61.3301 62.44C61.7401 62.94 62.3801 63.22 63.0301 63.18C63.3201 63.92 63.2401 64.79 62.7401 65.48C61.9601 66.56 60.4501 66.8 59.3701 66.01C58.3901 65.3 58.1001 63.99 58.6401 62.95C59.5901 63.23 60.5901 63.01 61.3301 62.44Z" fill="#EF3D5A"/>
<path d="M61.18 60.03C60.83 60.58 60.76 61.27 61 61.88C60.38 62.38 59.53 62.58 58.72 62.31C57.45 61.9 56.76 60.54 57.17 59.27C57.54 58.12 58.7 57.44 59.86 57.63C59.89 58.63 60.41 59.5 61.18 60.03Z" fill="#EF3D5A"/>
<path d="M63.42 59.15C62.79 58.99 62.11 59.13 61.61 59.55C60.94 59.12 60.5 58.37 60.5 57.52C60.5 56.19 61.58 55.11 62.91 55.11C64.12 55.11 65.12 56 65.3 57.16C64.36 57.49 63.69 58.25 63.42 59.15Z" fill="#EF3D5A"/>
<path d="M64.96 61.01C64.92 60.36 64.57 59.76 64.02 59.41C64.22 58.64 64.8 57.99 65.61 57.72C66.88 57.31 68.24 58 68.65 59.27C69.02 60.42 68.49 61.65 67.44 62.17C66.82 61.39 65.89 60.99 64.96 61.01Z" fill="#EF3D5A"/>
<path d="M71.3099 52.35C72.0886 52.35 72.7199 51.7187 72.7199 50.94C72.7199 50.1612 72.0886 49.53 71.3099 49.53C70.5312 49.53 69.8999 50.1612 69.8999 50.94C69.8999 51.7187 70.5312 52.35 71.3099 52.35Z" fill="#EF3D5A"/>
<path d="M72.06 52.85C72.66 52.61 73.13 52.1 73.29 51.46C74.08 51.41 74.88 51.76 75.39 52.45C76.17 53.53 75.93 55.04 74.86 55.82C73.88 56.53 72.55 56.4 71.73 55.57C72.28 54.74 72.38 53.73 72.06 52.85Z" fill="#0FC8EF"/>
<path d="M69.73 52.24C70.14 52.74 70.78 53.02 71.43 52.98C71.72 53.72 71.64 54.59 71.14 55.28C70.36 56.36 68.85 56.6 67.77 55.81C66.79 55.1 66.5 53.79 67.04 52.75C68 53.03 68.99 52.81 69.73 52.24Z" fill="#0FC8EF"/>
<path d="M69.5799 49.84C69.2299 50.39 69.1599 51.08 69.3999 51.69C68.7799 52.19 67.9299 52.39 67.1199 52.12C65.8499 51.71 65.1599 50.35 65.5699 49.08C65.9399 47.93 67.0999 47.25 68.2599 47.44C68.2999 48.43 68.8099 49.31 69.5799 49.84Z" fill="#0FC8EF"/>
<path d="M71.8297 48.95C71.1997 48.79 70.5197 48.93 70.0197 49.35C69.3497 48.92 68.9097 48.17 68.9097 47.32C68.9097 45.99 69.9897 44.91 71.3197 44.91C72.5297 44.91 73.5297 45.8 73.7097 46.96C72.7597 47.29 72.0897 48.06 71.8297 48.95Z" fill="#0FC8EF"/>
<path d="M73.3599 50.81C73.3199 50.16 72.9699 49.56 72.4199 49.21C72.6199 48.44 73.1999 47.79 74.0099 47.52C75.2799 47.11 76.6399 47.8 77.0499 49.07C77.4199 50.22 76.8899 51.45 75.8399 51.97C75.2299 51.19 74.2999 50.79 73.3599 50.81Z" fill="#0FC8EF"/>
<path d="M65.0399 36.29C65.8186 36.29 66.4499 35.6587 66.4499 34.88C66.4499 34.1012 65.8186 33.47 65.0399 33.47C64.2612 33.47 63.6299 34.1012 63.6299 34.88C63.6299 35.6587 64.2612 36.29 65.0399 36.29Z" fill="#FAEEEF"/>
<path d="M65.79 36.78C66.39 36.54 66.86 36.03 67.02 35.39C67.81 35.34 68.61 35.69 69.12 36.38C69.9 37.46 69.66 38.97 68.59 39.75C67.61 40.46 66.28 40.33 65.46 39.5C66.01 38.68 66.1 37.67 65.79 36.78Z" fill="#EF3D5A"/>
<path d="M63.46 36.18C63.87 36.68 64.51 36.96 65.16 36.92C65.45 37.66 65.37 38.53 64.87 39.22C64.09 40.3 62.58 40.54 61.5 39.75C60.52 39.04 60.23 37.73 60.77 36.69C61.72 36.97 62.71 36.75 63.46 36.18Z" fill="#EF3D5A"/>
<path d="M63.3099 33.77C62.9599 34.32 62.8899 35.01 63.1299 35.62C62.5099 36.12 61.6599 36.32 60.8499 36.05C59.5799 35.64 58.8899 34.28 59.2999 33.01C59.6699 31.86 60.8299 31.18 61.9899 31.37C62.0199 32.37 62.5399 33.24 63.3099 33.77Z" fill="#EF3D5A"/>
<path d="M65.5499 32.89C64.9199 32.73 64.2399 32.87 63.7399 33.29C63.0699 32.86 62.6299 32.11 62.6299 31.26C62.6299 29.93 63.7099 28.85 65.0399 28.85C66.2499 28.85 67.2499 29.74 67.4299 30.9C66.4899 31.23 65.8199 31.99 65.5499 32.89Z" fill="#EF3D5A"/>
<path d="M67.0899 34.75C67.0499 34.1 66.6999 33.5 66.1499 33.15C66.3499 32.38 66.9299 31.73 67.7399 31.46C69.0099 31.05 70.3699 31.74 70.7799 33.01C71.1499 34.16 70.6199 35.39 69.5699 35.91C68.9499 35.13 68.0199 34.73 67.0899 34.75Z" fill="#EF3D5A"/>
<path d="M71.16 24.52C71.9387 24.52 72.57 23.8887 72.57 23.11C72.57 22.3312 71.9387 21.7 71.16 21.7C70.3813 21.7 69.75 22.3312 69.75 23.11C69.75 23.8887 70.3813 24.52 71.16 24.52Z" fill="#FAEEEF"/>
<path d="M71.9198 25.0199C72.5198 24.7799 72.9898 24.2699 73.1498 23.6299C73.9398 23.5799 74.7398 23.9299 75.2498 24.6199C76.0298 25.6999 75.7898 27.2099 74.7198 27.9899C73.7398 28.6999 72.4098 28.5699 71.5898 27.7399C72.1298 26.9099 72.2298 25.8999 71.9198 25.0199Z" fill="#0FC8EF"/>
<path d="M69.5801 24.42C69.9901 24.92 70.6301 25.2 71.2801 25.16C71.5701 25.9 71.4901 26.77 70.9901 27.46C70.2101 28.54 68.7001 28.78 67.6201 27.99C66.6401 27.28 66.3501 25.97 66.8901 24.93C67.8501 25.21 68.8401 24.99 69.5801 24.42Z" fill="#0FC8EF"/>
<path d="M69.43 22.01C69.08 22.56 69.01 23.25 69.25 23.86C68.63 24.36 67.78 24.56 66.97 24.29C65.7 23.88 65.01 22.52 65.42 21.25C65.79 20.1 66.95 19.42 68.11 19.61C68.15 20.6 68.66 21.48 69.43 22.01Z" fill="#0FC8EF"/>
<path d="M71.6798 21.13C71.0498 20.97 70.3698 21.11 69.8698 21.53C69.1998 21.1 68.7598 20.35 68.7598 19.5C68.7598 18.17 69.8398 17.09 71.1698 17.09C72.3798 17.09 73.3798 17.98 73.5598 19.14C72.6198 19.47 71.9398 20.23 71.6798 21.13Z" fill="#0FC8EF"/>
<path d="M73.21 22.99C73.17 22.34 72.82 21.74 72.27 21.39C72.47 20.62 73.05 19.9699 73.86 19.6999C75.13 19.2899 76.49 19.98 76.9 21.25C77.27 22.4 76.74 23.63 75.69 24.15C75.08 23.37 74.15 22.96 73.21 22.99Z" fill="#0FC8EF"/>
</g>
<defs>
<clipPath id="clip0_301_8888">
<rect width="100.61" height="79.04" fill="white" transform="translate(0.490234 0.47998)"/>
</clipPath>
</defs>
</svg>
