<svg width="60" height="71" viewBox="0 0 60 71" fill="none" xmlns="http://www.w3.org/2000/svg">
<g id="hair-5" clip-path="url(#clip0_215_100)">
<g id="Group">
<g id="face">
<g id="Group_2">
<g id="Group_3">
<g id="Group_4">
<path id="Vector" d="M8.32988 43.985C12.8586 43.985 16.5299 40.3137 16.5299 35.785C16.5299 31.2562 12.8586 27.585 8.32988 27.585C3.80115 27.585 0.129883 31.2562 0.129883 35.785C0.129883 40.3137 3.80115 43.985 8.32988 43.985Z" fill="#AD7153"/>
<g id="Group_5">
<g id="Group_6">
<path id="Vector_2" d="M6.62002 31.585C4.34002 31.695 2.52002 33.565 2.52002 35.875H6.62002V31.585Z" fill="#975C45"/>
</g>
</g>
</g>
<g id="Group_7">
<path id="Vector_3" d="M51.68 43.985C56.2087 43.985 59.88 40.3137 59.88 35.785C59.88 31.2562 56.2087 27.585 51.68 27.585C47.1512 27.585 43.48 31.2562 43.48 35.785C43.48 40.3137 47.1512 43.985 51.68 43.985Z" fill="#AD7153"/>
<g id="Group_8">
<path id="Vector_4" d="M58.02 35.775C57.91 33.495 56.04 31.675 53.73 31.675V35.775H58.02Z" fill="#975C45"/>
</g>
</g>
</g>
<g id="Group_9">
<path id="Vector_5" d="M29.6396 70.215C17.6296 70.215 7.88965 60.475 7.88965 48.465V23.105C7.88965 11.095 17.6296 1.35498 29.6396 1.35498C41.6497 1.35498 51.3896 11.095 51.3896 23.105V48.455C51.3896 61.885 41.6497 70.215 29.6396 70.215Z" fill="#F6C09C"/>
<path id="Vector_6" d="M11.9099 48.4649V10.5249C9.37988 14.0749 7.87988 18.4149 7.87988 23.1049V48.4549C7.87988 60.4649 17.6199 70.2049 29.6299 70.2049C30.3099 70.2049 30.9799 70.1649 31.6499 70.1049C20.5799 69.0949 11.9099 59.7949 11.9099 48.4649Z" fill="#AD7153"/>
</g>
</g>
</g>
<path id="Vector_7" d="M51.3799 21.995C51.3799 21.425 51.3499 20.865 51.2999 20.315C51.2999 20.295 51.2999 20.285 51.2999 20.265C51.2999 20.245 51.2999 20.225 51.2899 20.205C51.2799 20.045 51.2599 19.875 51.2399 19.715C51.2299 19.665 51.2299 19.615 51.2299 19.565C51.2199 19.495 51.2099 19.415 51.1999 19.345C51.1699 19.095 51.1299 18.835 51.0899 18.585C51.0599 18.425 51.0299 18.255 50.9999 18.095C50.9499 17.825 50.8899 17.555 50.8299 17.285C50.8199 17.235 50.8099 17.195 50.7999 17.145C50.7899 17.095 50.7799 17.055 50.7699 17.015C50.7599 16.995 50.7599 16.975 50.7499 16.945C49.7899 13.035 47.7699 9.54504 45.0099 6.78504C41.0799 2.84504 35.6399 0.415039 29.6399 0.415039C23.0899 0.415039 17.2199 3.30504 13.2399 7.88504C12.0499 9.24504 11.0299 10.765 10.2099 12.395C10.0899 12.635 9.96988 12.885 9.84988 13.135L9.51988 13.885C9.30988 14.395 9.10988 14.915 8.94988 15.445C8.85988 15.705 8.77988 15.975 8.70988 16.245C8.62988 16.495 8.56988 16.755 8.49988 17.015C8.48988 17.055 8.47988 17.095 8.46988 17.145C8.27988 17.935 8.12988 18.745 8.03988 19.565C8.00988 19.805 7.97988 20.035 7.96988 20.265C7.90988 20.885 7.87988 21.525 7.87988 22.165V25.145C7.87988 25.115 7.87988 25.095 7.87988 25.065V27.335L7.95988 27.585C11.3099 24.665 13.2399 20.435 13.2399 15.995V12.295C13.2399 11.325 13.6299 10.395 14.3099 9.71504C18.2399 5.80504 23.6499 3.39504 29.6299 3.39504C35.6299 3.39504 41.0699 5.82504 45.0099 9.76504L45.0199 9.77504C45.6799 10.435 46.0199 11.345 46.0199 12.275V15.995C46.0199 20.435 47.9499 24.665 51.2999 27.585L51.3799 27.335V22.165C51.3899 22.105 51.3799 22.055 51.3799 21.995Z" fill="#5C2E2F"/>
</g>
</g>
<defs>
<clipPath id="clip0_215_100">
<rect width="59.75" height="69.8" fill="white" transform="translate(0.129883 0.415039)"/>
</clipPath>
</defs>
</svg>
