<svg width="65" height="73" viewBox="0 0 65 73" fill="none" xmlns="http://www.w3.org/2000/svg">
<g id="hair-10" clip-path="url(#clip0_215_247)">
<g id="Group">
<g id="face">
<g id="Group_2">
<g id="Group_3">
<path id="Vector" d="M8.8499 44.5299C13.3786 44.5299 17.0499 40.8586 17.0499 36.3299C17.0499 31.8011 13.3786 28.1299 8.8499 28.1299C4.32117 28.1299 0.649902 31.8011 0.649902 36.3299C0.649902 40.8586 4.32117 44.5299 8.8499 44.5299Z" fill="#AD7153"/>
<g id="Group_4">
<g id="Group_5">
<path id="Vector_2" d="M7.14004 32.1299C4.86004 32.2399 3.04004 34.1099 3.04004 36.4199H7.14004V32.1299Z" fill="#975C45"/>
</g>
</g>
</g>
<g id="Group_6">
<path id="Vector_3" d="M52.2 44.5299C56.7287 44.5299 60.4 40.8586 60.4 36.3299C60.4 31.8011 56.7287 28.1299 52.2 28.1299C47.6713 28.1299 44 31.8011 44 36.3299C44 40.8586 47.6713 44.5299 52.2 44.5299Z" fill="#AD7153"/>
<g id="Group_7">
<path id="Vector_4" d="M58.54 36.32C58.43 34.04 56.56 32.22 54.25 32.22V36.32H58.54Z" fill="#975C45"/>
</g>
</g>
</g>
<g id="Group_8">
<path id="Vector_5" d="M30.1597 70.7599C18.1497 70.7599 8.40967 61.0199 8.40967 49.0099V23.6499C8.40967 11.6399 18.1497 1.8999 30.1597 1.8999C42.1697 1.8999 51.9097 11.6399 51.9097 23.6499V48.9999C51.9097 61.0199 42.1697 70.7599 30.1597 70.7599Z" fill="#F6C09C"/>
<path id="Vector_6" d="M12.4299 49.0098V11.0698C9.8999 14.6198 8.3999 18.9598 8.3999 23.6598V49.0098C8.3999 61.0198 18.1399 70.7598 30.1499 70.7598C30.8299 70.7598 31.4999 70.7198 32.1699 70.6598C21.0999 69.6398 12.4299 60.3398 12.4299 49.0098Z" fill="#AD7153"/>
</g>
</g>
<g id="Group_9">
<path id="Vector_7" d="M64.6798 60.6C64.6798 60.6 56.9498 74.27 37.3398 71.6V69.48C44.0398 67.22 49.0798 62.08 51.0598 55.26C53.7398 57.82 58.0198 60.3 64.6798 60.6Z" fill="#5C2E2F" stroke="#5C2E2F" stroke-width="0.25" stroke-miterlimit="10"/>
<path id="Vector_8" d="M54.2499 25.1499C54.2499 11.4899 43.5399 0.419929 30.3399 0.419929C17.1299 0.409929 6.41992 11.4899 6.41992 25.1499C6.41992 25.6299 6.43992 26.1099 6.46992 26.5899C6.43992 26.8499 6.41992 27.0999 6.41992 27.3399V28.7299C7.02992 28.5199 7.66992 28.3799 8.32992 28.3199L8.36992 32.9799C9.97992 31.5999 11.2499 30.3299 12.1599 28.8999C13.1699 27.3099 13.7199 25.5199 13.7199 23.1799C13.7199 20.7499 14.8699 18.4699 16.7899 16.9899C17.0099 16.8199 17.2299 16.6599 17.4499 16.4999C20.4299 19.3099 25.9299 23.3299 40.2499 23.0699C40.2499 23.0699 39.2799 21.9199 40.0099 19.8099C40.0099 19.8099 42.4499 23.1499 48.2199 23.5399C48.2199 23.5399 48.1299 26.1599 49.7399 28.7399C50.3399 29.7199 51.1899 30.6799 52.3799 31.4999V28.2899H52.4199C53.0499 28.2899 53.6599 28.3599 54.2499 28.4999V27.3399C54.2499 27.0999 54.2299 26.8499 54.2099 26.5899C54.2299 26.1099 54.2499 25.6299 54.2499 25.1499Z" fill="#5C2E2F" stroke="#5C2E2F" stroke-width="0.25" stroke-miterlimit="10"/>
</g>
</g>
</g>
<defs>
<clipPath id="clip0_215_247">
<rect width="64.24" height="71.78" fill="white" transform="translate(0.649902 0.290039)"/>
</clipPath>
</defs>
</svg>
