<svg width="61" height="81" viewBox="0 0 61 81" fill="none" xmlns="http://www.w3.org/2000/svg">
<g id="hair-13" clip-path="url(#clip0_215_319)">
<g id="Group">
<path id="Vector" d="M53.0804 31.7002H6.86035V80.7702H53.0804V31.7002Z" fill="#5C2E2F"/>
<g id="face">
<g id="Group_2">
<g id="Group_3">
<path id="Vector_2" d="M8.57012 46.0602C13.0989 46.0602 16.7701 42.3889 16.7701 37.8602C16.7701 33.3314 13.0989 29.6602 8.57012 29.6602C4.04138 29.6602 0.370117 33.3314 0.370117 37.8602C0.370117 42.3889 4.04138 46.0602 8.57012 46.0602Z" fill="#AD7153"/>
<g id="Group_4">
<g id="Group_5">
<path id="Vector_3" d="M6.86025 33.6602C4.58025 33.7702 2.76025 35.6402 2.76025 37.9502H6.86025V33.6602Z" fill="#975C45"/>
</g>
</g>
</g>
<g id="Group_6">
<path id="Vector_4" d="M51.9202 46.0602C56.449 46.0602 60.1202 42.3889 60.1202 37.8602C60.1202 33.3314 56.449 29.6602 51.9202 29.6602C47.3915 29.6602 43.7202 33.3314 43.7202 37.8602C43.7202 42.3889 47.3915 46.0602 51.9202 46.0602Z" fill="#AD7153"/>
<g id="Group_7">
<path id="Vector_5" d="M58.2602 37.8603C58.1502 35.5803 56.2802 33.7603 53.9702 33.7603V37.8603H58.2602Z" fill="#975C45"/>
</g>
</g>
</g>
<g id="Group_8">
<path id="Vector_6" d="M29.8799 72.2902C17.8699 72.2902 8.12988 62.5502 8.12988 50.5402V25.1802C8.12988 13.1702 17.8699 3.43018 29.8799 3.43018C41.8899 3.43018 51.6299 13.1702 51.6299 25.1802V50.5302C51.6299 62.5502 41.8899 72.2902 29.8799 72.2902Z" fill="#F6C09C"/>
<path id="Vector_7" d="M12.1501 50.5401V12.6001C9.62012 16.1501 8.12012 20.4901 8.12012 25.1901V50.5401C8.12012 62.5501 17.8601 72.2901 29.8701 72.2901C30.5501 72.2901 31.2201 72.2501 31.8901 72.1901C20.8201 71.1701 12.1501 61.8701 12.1501 50.5401Z" fill="#AD7153"/>
</g>
</g>
<g id="Group_9">
<path id="Vector_8" d="M54.14 21.6301C54.14 10.1501 44.84 0.850098 33.36 0.850098H27.23C21.31 0.850098 15.97 3.3301 12.19 7.3001C8.63004 11.0201 8.29004 16.0701 8.29004 21.6301V26.7001L12.19 26.4701V29.9601C12.84 28.8601 13.49 27.7601 13.49 26.3901C13.5 23.6101 14.56 20.6801 15.56 18.5401C16.31 16.9401 18.41 16.6001 19.64 17.8701C21.83 20.1301 25.52 22.9501 36.39 26.3201C55.99 34.0001 49.07 50.7901 47.88 51.9201C47.88 51.9201 57.88 42.3901 52.27 31.2501C52.27 31.2501 52.09 29.4101 54.14 29.9801V21.6301Z" fill="#5C2E2F" stroke="#5C2E2F" stroke-width="0.25" stroke-miterlimit="10"/>
<path id="Vector_9" d="M12.19 7.31006V30.1301C12.14 30.2101 12.1 30.3001 12.05 30.3801C11.15 31.8001 9.88999 33.0601 8.28999 34.4301L8.14999 28.0501C8.14999 28.0501 7.02999 11.4501 12.19 7.31006Z" fill="#472123"/>
</g>
</g>
</g>
<defs>
<clipPath id="clip0_215_319">
<rect width="59.75" height="80.04" fill="white" transform="translate(0.370117 0.72998)"/>
</clipPath>
</defs>
</svg>
