<svg width="67" height="80" viewBox="0 0 67 80" fill="none" xmlns="http://www.w3.org/2000/svg">
<g id="hair-11" clip-path="url(#clip0_215_269)">
<g id="Group">
<g id="Group_2">
<path id="Vector" d="M33.4204 13.6299C33.4204 6.45991 27.6104 0.659912 20.4504 0.659912C18.5504 0.659912 16.7504 1.07991 15.1304 1.80991V51.6299C19.4104 49.0199 22.6604 44.7699 23.8104 39.4999C24.6004 35.8699 25.0904 31.3299 24.9604 25.7599C29.8904 23.9299 33.4204 19.1999 33.4204 13.6299Z" fill="#5C2E2F"/>
<path id="Vector_2" d="M7.49014 13.6298C7.49014 14.1498 7.49014 42.3498 7.49014 42.3498C7.49014 42.3498 7.72014 51.2198 0.890137 53.9498C0.890137 53.9498 0.950137 53.9598 1.05014 53.9898C6.06014 55.1098 11.0601 54.1198 15.1301 51.6398V1.80981C10.6301 3.83981 7.49014 8.35982 7.49014 13.6298Z" fill="#472123"/>
</g>
<g id="face">
<g id="Group_3">
<g id="Group_4">
<path id="Vector_3" d="M15.1302 53.4698C19.6589 53.4698 23.3302 49.7986 23.3302 45.2698C23.3302 40.7411 19.6589 37.0698 15.1302 37.0698C10.6014 37.0698 6.93018 40.7411 6.93018 45.2698C6.93018 49.7986 10.6014 53.4698 15.1302 53.4698Z" fill="#AD7153"/>
<g id="Group_5">
<g id="Group_6">
<path id="Vector_4" d="M13.4203 41.0698C11.1403 41.1798 9.32031 43.0498 9.32031 45.3598H13.4203V41.0698Z" fill="#975C45"/>
</g>
</g>
</g>
<g id="Group_7">
<path id="Vector_5" d="M58.4803 53.4698C63.009 53.4698 66.6803 49.7986 66.6803 45.2698C66.6803 40.7411 63.009 37.0698 58.4803 37.0698C53.9515 37.0698 50.2803 40.7411 50.2803 45.2698C50.2803 49.7986 53.9515 53.4698 58.4803 53.4698Z" fill="#AD7153"/>
<g id="Group_8">
<path id="Vector_6" d="M64.8105 45.2699C64.7005 42.9899 62.8305 41.1699 60.5205 41.1699V45.2699H64.8105Z" fill="#975C45"/>
</g>
</g>
</g>
<g id="Group_9">
<path id="Vector_7" d="M36.4302 79.6998C24.4202 79.6998 14.6802 69.9598 14.6802 57.9498V32.5898C14.6802 20.5798 24.4202 10.8398 36.4302 10.8398C48.4402 10.8398 58.1802 20.5798 58.1802 32.5898V57.9398C58.1902 69.9598 48.4502 79.6998 36.4302 79.6998Z" fill="#F6C09C"/>
<path id="Vector_8" d="M18.7102 57.9498V20.0098C16.1802 23.5598 14.6802 27.8998 14.6802 32.5998V57.9498C14.6802 69.9598 24.4202 79.6998 36.4302 79.6998C37.1102 79.6998 37.7802 79.6598 38.4502 79.5998C27.3802 78.5798 18.7102 69.2798 18.7102 57.9498Z" fill="#AD7153"/>
</g>
</g>
<g id="Group_10">
<path id="Vector_9" d="M60.5303 34.0899C60.5303 20.4299 49.8203 9.35986 36.6203 9.35986C29.4103 9.35986 22.9603 12.6599 18.5703 17.8699V37.5999C19.4903 36.0699 20.0003 34.3499 20.0003 32.1299C20.0003 29.6999 21.1503 27.4199 23.0703 25.9399C23.2903 25.7699 23.5103 25.6099 23.7303 25.4499C26.7103 28.2599 32.2103 32.2799 46.5303 32.0199C46.5303 32.0199 45.5603 30.8699 46.2903 28.7599C46.2903 28.7599 48.6803 30.8399 54.4503 31.2299C54.4503 31.2299 54.4103 35.1099 56.0203 37.6899C56.6203 38.6699 57.4703 39.6299 58.6603 40.4499V37.2399H58.7003C59.3303 37.2399 59.9403 37.3099 60.5303 37.4499V36.2899C60.5303 36.0499 60.5103 35.7999 60.4903 35.5399C60.5103 35.0499 60.5303 34.5699 60.5303 34.0899Z" fill="#5C2E2F" stroke="#5C2E2F" stroke-width="0.25" stroke-miterlimit="10"/>
<path id="Vector_10" d="M12.7002 34.0899C12.7002 34.5699 12.7202 35.0499 12.7502 35.5299C12.7202 35.7899 12.7002 36.0399 12.7002 36.2799V37.6699C13.3102 37.4599 13.9502 37.3199 14.6102 37.2599L14.6502 41.9199C16.2602 40.5399 17.5302 39.2699 18.4402 37.8399C18.4902 37.7599 18.5302 37.6699 18.5702 37.5899V17.8599C14.9202 22.2099 12.7002 27.8799 12.7002 34.0899Z" fill="#472123"/>
</g>
</g>
</g>
<defs>
<clipPath id="clip0_215_269">
<rect width="65.79" height="79.04" fill="white" transform="translate(0.890137 0.659912)"/>
</clipPath>
</defs>
</svg>
