<svg width="60" height="30" viewBox="0 0 60 30" fill="none" xmlns="http://www.w3.org/2000/svg">
<g clip-path="url(#clip0_338_784)">
<path d="M18.8001 22.41C18.8001 22.41 31.5201 15.34 26.8301 9.56998C25.8801 8.39998 24.4901 7.59998 22.9801 7.59998C21.6401 7.58998 20.0701 8.15998 18.8001 10.46C17.5301 8.15998 15.8001 7.58998 14.4601 7.59998C12.9501 7.60998 11.5701 8.39998 10.6101 9.56998C5.93006 15.33 18.8001 22.41 18.8001 22.41Z" fill="#FD3952"/>
<path d="M40.86 22.41C40.86 22.41 53.58 15.34 48.89 9.56998C47.94 8.39998 46.55 7.59998 45.04 7.59998C43.7 7.58998 42.13 8.15998 40.86 10.46C39.59 8.15998 37.86 7.58998 36.52 7.59998C35.01 7.60998 33.63 8.39998 32.67 9.56998C27.98 15.33 40.86 22.41 40.86 22.41Z" fill="#FD3952"/>
<path d="M33.9102 11.76H26.3002C25.9602 11.76 25.6802 11.48 25.6802 11.14C25.6802 10.8 25.9602 10.52 26.3002 10.52H33.9202C34.2602 10.52 34.5402 10.8 34.5402 11.14C34.5402 11.49 34.2602 11.76 33.9102 11.76Z" fill="#B7AFB0"/>
<path d="M11.3302 11.76H5.59022C5.25022 11.76 4.97021 11.48 4.97021 11.14C4.97021 10.8 5.25022 10.52 5.59022 10.52H11.3302C11.6702 10.52 11.9502 10.8 11.9502 11.14C11.9502 11.49 11.6702 11.76 11.3302 11.76Z" fill="#B7AFB0"/>
<path d="M54.4103 11.76H48.6703C48.3303 11.76 48.0503 11.48 48.0503 11.14C48.0503 10.8 48.3303 10.52 48.6703 10.52H54.4103C54.7503 10.52 55.0303 10.8 55.0303 11.14C55.0303 11.49 54.7503 11.76 54.4103 11.76Z" fill="#B7AFB0"/>
</g>
<defs>
<clipPath id="clip0_338_784">
<rect width="60" height="30" fill="white"/>
</clipPath>
</defs>
</svg>
