<svg width="60" height="30" viewBox="0 0 60 30" fill="none" xmlns="http://www.w3.org/2000/svg">
<g clip-path="url(#clip0_338_832)">
<path d="M27.6001 10.37C27.9701 10.77 28.2001 11.26 28.2801 11.79H31.4301C31.4901 11.27 31.7101 10.77 32.0501 10.37H27.6001Z" fill="#A9A0A3"/>
<path d="M8.8101 10.37C8.4201 10.37 8.1001 10.69 8.1001 11.08C8.1001 11.47 8.4201 11.79 8.8101 11.79H10.7901C10.8501 11.27 11.0701 10.77 11.4101 10.37H8.8101Z" fill="#A9A0A3"/>
<path d="M51.1903 10.37H48.2603C48.6303 10.77 48.8603 11.26 48.9403 11.79H51.1903C51.5803 11.79 51.9003 11.47 51.9003 11.08C51.9003 10.69 51.5803 10.37 51.1903 10.37Z" fill="#A9A0A3"/>
<path d="M28.29 11.79C28.21 11.26 27.98 10.77 27.61 10.37C27.59 10.34 27.57 10.31 27.54 10.29L26.5 9.24996C25.99 8.73996 25.31 8.45996 24.59 8.45996H14.4C13.68 8.45996 13 8.73996 12.49 9.24996L11.54 10.2C11.49 10.25 11.45 10.32 11.4 10.37C11.06 10.78 10.84 11.27 10.78 11.79C10.77 11.92 10.75 12.04 10.75 12.17C10.91 18.22 14.07 21.55 19.66 21.55C19.69 21.55 19.72 21.55 19.75 21.55C27.91 21.5 28.32 13.75 28.32 12.19C28.33 12.05 28.31 11.92 28.29 11.79ZM19.75 20.47C19.72 20.47 19.69 20.47 19.67 20.47C14.63 20.47 11.99 17.67 11.84 12.14C11.84 12.02 11.85 11.9 11.87 11.79C11.93 11.48 12.08 11.19 12.31 10.96L12.9 10.37L13.26 9.99996C13.57 9.68996 13.97 9.52996 14.4 9.52996H24.59C25.02 9.52996 25.43 9.69996 25.73 9.99996L26.09 10.36L26.77 11.04C26.98 11.25 27.12 11.51 27.19 11.78C27.22 11.91 27.25 12.04 27.25 12.18C27.25 14.12 26.71 20.43 19.75 20.47Z" fill="#D2D0DD"/>
<path d="M48.9402 11.79C48.8602 11.26 48.6302 10.77 48.2602 10.37C48.2402 10.34 48.2202 10.31 48.1902 10.29L47.1502 9.24996C46.6402 8.73996 45.9602 8.45996 45.2402 8.45996H35.0602C34.3402 8.45996 33.6602 8.73996 33.1502 9.24996L32.2002 10.2C32.1502 10.25 32.1102 10.32 32.0602 10.37C31.7202 10.78 31.5002 11.27 31.4402 11.79C31.4302 11.92 31.4102 12.04 31.4102 12.17C31.5702 18.22 34.7302 21.55 40.3202 21.55C40.3502 21.55 40.3802 21.55 40.4102 21.55C48.5702 21.5 48.9802 13.75 48.9802 12.19C48.9802 12.05 48.9602 11.92 48.9402 11.79ZM40.4002 20.47C40.3702 20.47 40.3402 20.47 40.3202 20.47C35.2802 20.47 32.6402 17.67 32.4902 12.14C32.4902 12.02 32.5002 11.9 32.5202 11.79C32.5802 11.48 32.7302 11.19 32.9602 10.96L33.5502 10.37L33.9202 9.99996C34.2302 9.68996 34.6302 9.52996 35.0602 9.52996H45.2502C45.6802 9.52996 46.0902 9.69996 46.3902 9.99996L46.7502 10.36L47.4302 11.04C47.6402 11.25 47.7802 11.51 47.8502 11.78C47.8802 11.91 47.9102 12.04 47.9102 12.18C47.9002 14.12 47.3602 20.43 40.4002 20.47Z" fill="#D2D0DD"/>
</g>
<defs>
<clipPath id="clip0_338_832">
<rect width="60" height="30" fill="white"/>
</clipPath>
</defs>
</svg>
