<svg width="60" height="30" viewBox="0 0 60 30" fill="none" xmlns="http://www.w3.org/2000/svg">
<g clip-path="url(#clip0_338_772)">
<path d="M11.0599 10.65C10.1699 11.68 10.3099 16.08 11.4899 17.25C12.6599 18.42 21.6099 21.72 23.8399 20.44C26.0799 19.16 28.6299 13.41 27.3499 11.71C26.2699 10.27 12.4499 9.05 11.0599 10.65Z" fill="#FD3952"/>
<path d="M48.9898 10.65C49.8798 11.68 49.7398 16.08 48.5598 17.25C47.3898 18.42 38.4398 21.72 36.2098 20.44C33.9698 19.16 31.4198 13.41 32.6998 11.71C33.7798 10.27 47.5998 9.05 48.9898 10.65Z" fill="#FD3952"/>
<path d="M50.9598 10.06C50.5298 9.74001 45.9498 9.07001 40.9498 9.31001C35.0198 9.60001 32.2898 11.29 29.9998 11.29C27.7098 11.29 24.9798 9.6 19.0498 9.32C14.0498 9.08 9.46981 9.75 9.03981 10.07C8.60981 10.39 8.18981 12.73 8.28981 13.16C8.37981 13.53 9.21981 14.58 10.6798 15.41C10.3198 13.66 10.4398 11.37 11.0498 10.66C12.4298 9.06 26.2598 10.28 27.3398 11.72C28.2798 12.98 27.1398 16.44 25.5698 18.68C25.6098 18.67 25.6598 18.67 25.6898 18.66C25.6898 18.66 26.3698 18.48 26.6898 18.38C26.8898 18.31 28.2498 15.84 29.2698 14.19C29.5998 13.66 30.3798 13.66 30.6998 14.19C31.7198 15.84 33.0598 18.31 33.2498 18.38C33.5698 18.49 34.2498 18.66 34.2498 18.66C34.3098 18.67 34.3698 18.68 34.4298 18.69C32.8598 16.45 31.7098 12.98 32.6598 11.72C33.7498 10.27 47.5698 9.06 48.9498 10.66C49.5598 11.36 49.6798 13.63 49.3298 15.37C50.7598 14.55 51.5698 13.53 51.6698 13.16C51.8098 12.73 51.3898 10.38 50.9598 10.06Z" fill="#D4D0D4"/>
</g>
<defs>
<clipPath id="clip0_338_772">
<rect width="60" height="30" fill="white"/>
</clipPath>
</defs>
</svg>
