<svg width="60" height="30" viewBox="0 0 60 30" fill="none" xmlns="http://www.w3.org/2000/svg">
<g clip-path="url(#clip0_338_810)">
<path d="M12.1099 12.5901H8.58994C8.36994 12.5901 8.18994 12.4101 8.18994 12.1901V11.3901C8.18994 11.1701 8.36994 10.9901 8.58994 10.9901H12.1099V12.5901Z" fill="#C56752"/>
<path d="M47.8901 12.5901H51.4101C51.6301 12.5901 51.8101 12.4101 51.8101 12.1901V11.3901C51.8101 11.1701 51.6301 10.9901 51.4101 10.9901H47.8901V12.5901Z" fill="#C56752"/>
<path d="M47.5698 10.4301C46.8498 9.56006 45.7898 9.06006 44.6598 9.06006H35.7398C34.7298 9.06006 33.7598 9.37006 32.9398 9.97006L32.6998 10.1401C32.4998 10.2901 32.3298 10.4701 32.1798 10.6601C30.0698 10.3601 28.2098 10.5401 27.4798 10.6301C27.3398 10.4501 27.1798 10.2801 26.9898 10.1401L26.7498 9.97006C25.9298 9.38006 24.9698 9.06006 23.9598 9.06006H15.0398C13.9098 9.06006 12.8498 9.56006 12.1298 10.4301C11.4298 11.2701 11.1498 12.3601 11.3398 13.4201C11.5498 14.5201 12.1298 15.3301 12.2798 15.5301C15.2898 20.1201 20.6098 20.9501 22.9298 20.9501C23.2598 20.9501 23.5298 20.9301 23.7298 20.9101C25.1298 20.7301 26.1598 19.1301 26.5798 16.5201C26.6998 15.7501 27.0798 14.7201 27.6698 13.5401C29.5998 12.0201 31.2198 12.7901 31.8498 13.2101C31.8698 13.2701 31.8898 13.3301 31.9198 13.3901C32.5598 14.6301 32.9598 15.7101 33.0898 16.5201C33.4998 19.1301 34.5398 20.7301 35.9398 20.9101C36.1298 20.9401 36.4098 20.9501 36.7398 20.9501C39.0598 20.9501 44.3798 20.1301 47.3898 15.5301C47.5398 15.3301 48.1298 14.5201 48.3298 13.4201C48.5598 12.3501 48.2698 11.2701 47.5698 10.4301ZM25.0098 16.2501C24.7098 18.1401 24.0298 19.2301 23.5498 19.2901C23.4898 19.3001 17.0298 19.7901 13.6498 14.6001L13.5998 14.5301C13.5998 14.5201 13.1098 13.9101 12.9598 13.1001C12.8498 12.5101 13.0098 11.9201 13.3998 11.4401C13.8098 10.9401 14.4198 10.6601 15.0598 10.6601H23.9798C24.6498 10.6601 25.2798 10.8701 25.8198 11.2601L26.0598 11.4301C26.2398 11.5601 26.3598 11.7501 26.4098 11.9601L26.2798 12.7401C25.7898 13.7201 25.1998 15.0701 25.0098 16.2501ZM46.7698 13.1201C46.6198 13.9301 46.1398 14.5401 46.1298 14.5401L46.0798 14.6101C42.6998 19.8001 36.2398 19.3001 36.1798 19.3001C35.6998 19.2401 35.0198 18.1501 34.7198 16.2601C34.5198 15.0301 33.8898 13.6101 33.3898 12.6401C33.1798 12.2201 33.2898 11.7201 33.6698 11.4501L33.9098 11.2801C34.4498 10.8901 35.0898 10.6801 35.7498 10.6801H44.6698C45.3098 10.6801 45.9198 10.9601 46.3298 11.4601C46.7198 11.9301 46.8798 12.5201 46.7698 13.1201Z" fill="#FA374F"/>
<path d="M15.2001 9.88013C13.4001 9.88013 11.9701 11.5001 12.3001 13.2801C12.4901 14.3101 13.1001 15.0701 13.1001 15.0701C13.3901 15.5201 13.7101 15.9301 14.0501 16.3101L17.7601 9.89013H15.2001V9.88013Z" fill="#384966"/>
<path d="M21.2301 9.88012L16.3901 18.2601C17.0601 18.6701 17.7401 19.0001 18.4101 19.2501L23.8201 9.87012H21.2301V9.88012Z" fill="#384966"/>
<path d="M17.7603 9.88013L14.0503 16.3001C14.7703 17.1101 15.5703 17.7501 16.3903 18.2601L21.2303 9.88013H17.7603Z" fill="#0D1424"/>
<path d="M23.7899 20.1001C24.8399 19.9601 25.6199 18.4001 25.9499 16.3801C26.1299 15.2701 26.7099 13.9501 27.1999 13.0001C27.5899 12.2301 27.3799 11.3001 26.6799 10.7901L26.4399 10.6201C25.7699 10.1301 24.9499 9.87012 24.1199 9.87012H23.8299L18.4199 19.2501C20.8899 20.2001 23.1899 20.1801 23.7899 20.1001Z" fill="#0D1424"/>
<path d="M47.59 13.7201L46.46 15.6801C46.61 15.4801 46.76 15.2701 46.9 15.0501C46.9 15.0601 47.33 14.5201 47.59 13.7201Z" fill="#384966"/>
<path d="M35.8898 9.88013C35.0598 9.88013 34.2398 10.1401 33.5698 10.6301L33.3298 10.8001C32.6298 11.3101 32.4198 12.2401 32.8098 13.0101C33.2998 13.9601 33.8798 15.2701 34.0598 16.3901C34.3298 18.0701 34.9198 19.4301 35.7098 19.9201L41.5098 9.88013H35.8898Z" fill="#384966"/>
<path d="M47.6997 13.2701C48.0297 11.5001 46.6097 9.87012 44.7997 9.87012H41.4997L35.6997 19.9101C35.8597 20.0101 36.0297 20.0701 36.1997 20.1001C37.2097 20.2301 43.0097 20.1901 46.4397 15.6801L47.5697 13.7201C47.6297 13.5801 47.6697 13.4301 47.6997 13.2701Z" fill="#0D1424"/>
</g>
<defs>
<clipPath id="clip0_338_810">
<rect width="60" height="30" fill="white"/>
</clipPath>
</defs>
</svg>
