<svg width="60" height="30" viewBox="0 0 60 30" fill="none" xmlns="http://www.w3.org/2000/svg">
<g clip-path="url(#clip0_338_795)">
<path d="M50.8202 12.57H9.18021C8.79021 12.57 8.47021 12.25 8.47021 11.86C8.47021 11.47 8.79021 11.15 9.18021 11.15H50.8302C51.2202 11.15 51.5402 11.47 51.5402 11.86C51.5302 12.25 51.2202 12.57 50.8202 12.57Z" fill="#C2882D"/>
<path d="M19.4003 23.39C24.0339 23.39 27.7903 19.6337 27.7903 15C27.7903 10.3663 24.0339 6.60999 19.4003 6.60999C14.7666 6.60999 11.0103 10.3663 11.0103 15C11.0103 19.6337 14.7666 23.39 19.4003 23.39Z" fill="#FAC66E"/>
<path d="M19.4003 21.83C23.1724 21.83 26.2303 18.7721 26.2303 15C26.2303 11.2279 23.1724 8.17004 19.4003 8.17004C15.6282 8.17004 12.5703 11.2279 12.5703 15C12.5703 18.7721 15.6282 21.83 19.4003 21.83Z" fill="#0D1424"/>
<path d="M26.2401 15C26.2401 18.61 23.4501 21.56 19.9101 21.81C19.7401 21.83 19.5801 21.83 19.4101 21.83C17.5601 21.83 15.8901 21.1 14.6601 19.91C13.7201 19 13.0501 17.84 12.7501 16.53C12.6401 16.04 12.5801 15.53 12.5801 15C12.5801 11.57 15.1101 8.72003 18.4201 8.24003C18.7401 8.19003 19.0801 8.16003 19.4201 8.16003C20.4401 8.16003 21.4001 8.38003 22.2701 8.79003C24.0201 9.59003 25.3801 11.12 25.9501 12.99C26.1301 13.63 26.2401 14.3 26.2401 15Z" fill="#384966"/>
<path d="M22.2605 8.79003L14.6605 19.91C13.7205 19 13.0505 17.84 12.7505 16.53L18.4105 8.24003C18.7305 8.19003 19.0705 8.16003 19.4105 8.16003C20.4205 8.17003 21.3905 8.39003 22.2605 8.79003Z" fill="#318899"/>
<path d="M26.2402 15C26.2402 18.61 23.4502 21.56 19.9102 21.81L25.9402 12.99C26.1302 13.63 26.2402 14.3 26.2402 15Z" fill="#318899"/>
<path d="M40.6004 23.39C45.2341 23.39 48.9905 19.6337 48.9905 15C48.9905 10.3663 45.2341 6.60999 40.6004 6.60999C35.9668 6.60999 32.2104 10.3663 32.2104 15C32.2104 19.6337 35.9668 23.39 40.6004 23.39Z" fill="#FAC66E"/>
<path d="M47.4305 15C47.4305 18.61 44.6405 21.56 41.1005 21.81C40.9305 21.83 40.7705 21.83 40.6005 21.83C38.7505 21.83 37.0805 21.1 35.8505 19.91C34.9105 19 34.2405 17.84 33.9405 16.53C33.8305 16.04 33.7705 15.53 33.7705 15C33.7705 11.57 36.3005 8.72003 39.6105 8.24003C39.9305 8.19003 40.2705 8.16003 40.6105 8.16003C41.6305 8.16003 42.5905 8.38003 43.4605 8.79003C45.2105 9.59003 46.5705 11.12 47.1405 12.99C47.3205 13.63 47.4305 14.3 47.4305 15Z" fill="#384966"/>
<path d="M47.4302 15C47.4302 14.3 47.3202 13.63 47.1302 12.99C46.8002 11.9 46.1902 10.93 45.4002 10.15L37.7202 21.19C38.5902 21.6 39.5702 21.83 40.6002 21.83C40.7702 21.83 40.9302 21.82 41.1002 21.81C44.6402 21.56 47.4302 18.61 47.4302 15Z" fill="#318899"/>
</g>
<defs>
<clipPath id="clip0_338_795">
<rect width="60" height="30" fill="white"/>
</clipPath>
</defs>
</svg>
