<svg width="60" height="30" viewBox="0 0 60 30" fill="none" xmlns="http://www.w3.org/2000/svg">
<g clip-path="url(#clip0_338_778)">
<path d="M10.3799 13.1901C10.1299 13.3901 9.66988 13.6701 9.32988 13.6701C9.07988 13.6701 8.87988 13.8701 8.87988 14.1201V15.2301C8.87988 15.4301 9.01988 15.6101 9.20988 15.6601C9.40988 15.7201 9.66988 15.8301 9.89988 16.0601C10.3599 16.5201 10.4299 17.0301 10.4299 17.0301L10.9199 14.7001L10.3799 13.1901Z" fill="#291F23"/>
<path d="M49.6201 13.1901C49.8701 13.3901 50.3301 13.6701 50.6701 13.6701C50.9201 13.6701 51.1201 13.8701 51.1201 14.1201V15.2301C51.1201 15.4301 50.9801 15.6101 50.7901 15.6601C50.5901 15.7201 50.3301 15.8301 50.1001 16.0601C49.6401 16.5201 49.5701 17.0301 49.5701 17.0301L49.0801 14.7001L49.6201 13.1901Z" fill="#291F23"/>
<path d="M41.38 6.49004C37.15 6.47004 33.63 9.52004 32.92 13.55C30.9 13.04 28.98 13.04 27.15 13.55C26.47 9.50004 22.94 6.42004 18.7 6.44004C14.1 6.46004 10.31 10.18 10.2 14.77C10.09 19.58 13.95 23.51 18.74 23.51C23.21 23.51 26.87 20.08 27.25 15.71C27.29 15.29 27.59 14.93 28 14.84C29.33 14.54 30.68 14.55 32.04 14.84C32.48 14.93 32.79 15.31 32.83 15.76C33.2 20.14 36.87 23.57 41.34 23.57C46.12 23.57 49.9901 19.63 49.8801 14.82C49.7501 10.23 45.97 6.52004 41.38 6.49004ZM18.73 22.43C14.61 22.43 11.27 19.09 11.27 14.97C11.27 10.85 14.61 7.51004 18.73 7.51004C22.85 7.51004 26.19 10.85 26.19 14.97C26.19 19.09 22.85 22.43 18.73 22.43ZM41.33 22.48C37.21 22.48 33.87 19.14 33.87 15.02C33.87 10.9 37.21 7.56004 41.33 7.56004C45.45 7.56004 48.7901 10.9 48.7901 15.02C48.7801 19.15 45.44 22.48 41.33 22.48Z" fill="#291F23"/>
</g>
<defs>
<clipPath id="clip0_338_778">
<rect width="60" height="30" fill="white"/>
</clipPath>
</defs>
</svg>
