<svg width="45" height="13" viewBox="0 0 45 13" fill="none" xmlns="http://www.w3.org/2000/svg">
<g opacity="0.2" clip-path="url(#clip0_222_21)">
<path d="M4.42 2.83523H0.9C0.68 2.83523 0.5 2.65523 0.5 2.43523V1.63523C0.5 1.41523 0.68 1.23523 0.9 1.23523H4.42V2.83523Z" fill="#C56752"/>
<path d="M40.2002 2.83523H43.7202C43.9402 2.83523 44.1202 2.65523 44.1202 2.43523V1.63523C44.1202 1.41523 43.9402 1.23523 43.7202 1.23523H40.2002V2.83523Z" fill="#C56752"/>
<path d="M39.8798 0.675176C39.1598 -0.194824 38.0998 -0.694824 36.9698 -0.694824H28.0498C27.0398 -0.694824 26.0698 -0.384824 25.2498 0.215176L25.0098 0.385176C24.8198 0.535176 24.6498 0.715176 24.4998 0.905176C22.3898 0.605176 20.5298 0.785176 19.7998 0.875176C19.6598 0.695176 19.4998 0.525176 19.3098 0.385176L19.0698 0.215176C18.2598 -0.384824 17.2898 -0.694824 16.2798 -0.694824H7.35984C6.23984 -0.694824 5.17984 -0.194824 4.45984 0.675176C3.75984 1.51518 3.47984 2.60518 3.66984 3.66518C3.87984 4.76518 4.45984 5.57518 4.60984 5.77518C7.61984 10.3652 12.9398 11.1952 15.2598 11.1952C15.5898 11.1952 15.8598 11.1752 16.0598 11.1552C17.4598 10.9752 18.4898 9.37518 18.9098 6.76518C19.0298 5.99518 19.4098 4.96518 19.9998 3.78518C21.9298 2.26518 23.5498 3.03518 24.1798 3.45518C24.1998 3.51518 24.2198 3.57518 24.2498 3.63518C24.8898 4.87518 25.2898 5.95518 25.4198 6.76518C25.8298 9.37518 26.8698 10.9752 28.2698 11.1552C28.4598 11.1852 28.7398 11.1952 29.0698 11.1952C31.3898 11.1952 36.7098 10.3752 39.7198 5.77518C39.8698 5.57518 40.4598 4.76518 40.6598 3.66518C40.8598 2.59518 40.5798 1.51518 39.8798 0.675176ZM17.3098 6.49518C17.0098 8.38518 16.3298 9.47518 15.8498 9.53518C15.7898 9.54518 9.32984 10.0352 5.94984 4.84518L5.89984 4.78518C5.89984 4.77518 5.40984 4.16518 5.25984 3.35518C5.14984 2.76518 5.30984 2.17518 5.69984 1.70518C6.10984 1.20518 6.71984 0.925176 7.35984 0.925176H16.2798C16.9498 0.925176 17.5798 1.13518 18.1198 1.52518L18.3598 1.69518C18.5398 1.82518 18.6598 2.01518 18.7098 2.22518L18.5798 3.00518C18.0998 3.96518 17.4998 5.31518 17.3098 6.49518ZM39.0798 3.36518C38.9298 4.17518 38.4498 4.78518 38.4398 4.78518L38.3898 4.85518C35.0098 10.0452 28.5498 9.54518 28.4898 9.54518C28.0098 9.48518 27.3298 8.39518 27.0298 6.50518C26.8298 5.27518 26.1998 3.85518 25.6998 2.88518C25.4898 2.46518 25.5998 1.96518 25.9798 1.69518L26.2198 1.52518C26.7598 1.13518 27.3998 0.925176 28.0598 0.925176H36.9798C37.6198 0.925176 38.2298 1.20518 38.6398 1.70518C39.0298 2.17518 39.1898 2.76518 39.0798 3.36518Z" fill="#FA374F"/>
<path d="M7.49987 0.125244C5.69987 0.125244 4.26987 1.74524 4.59987 3.52524C4.79987 4.55524 5.40987 5.30524 5.40987 5.30524C5.69987 5.75524 6.01987 6.16524 6.35987 6.54524L10.0699 0.125244H7.49987Z" fill="#384966"/>
<path d="M13.5397 0.125234L8.69971 8.50523C9.36971 8.91523 10.0497 9.24523 10.7197 9.49523L16.1297 0.115234H13.5397V0.125234Z" fill="#384966"/>
<path d="M10.0599 0.125244L6.35986 6.54524C7.07986 7.35524 7.86986 7.99524 8.69986 8.50524L13.5399 0.125244H10.0599Z" fill="#0D1424"/>
<path d="M16.0997 10.3452C17.1497 10.2052 17.9297 8.64524 18.2597 6.62524C18.4297 5.51524 19.0097 4.20524 19.4997 3.25524C19.8897 2.48524 19.6797 1.55524 18.9797 1.04524L18.7397 0.875244C18.0697 0.385244 17.2497 0.125244 16.4197 0.125244H16.1297L10.7197 9.50524C13.1997 10.4452 15.4997 10.4252 16.0997 10.3452Z" fill="#0D1424"/>
<path d="M39.8898 3.96521L38.7598 5.92521C38.9098 5.72521 39.0598 5.51521 39.1998 5.29521C39.2098 5.30521 39.6398 4.76521 39.8898 3.96521Z" fill="#384966"/>
<path d="M28.1999 0.125244C27.3699 0.125244 26.5499 0.385244 25.8799 0.875244L25.6399 1.04524C24.9399 1.55524 24.7299 2.48524 25.1199 3.25524C25.6099 4.20524 26.1899 5.51524 26.3699 6.63524C26.6399 8.31524 27.2299 9.67524 28.0199 10.1652L33.8199 0.125244H28.1999Z" fill="#384966"/>
<path d="M40.0098 3.51523C40.3398 1.74523 38.9198 0.115234 37.1098 0.115234H33.8098L28.0098 10.1552C28.1698 10.2552 28.3398 10.3152 28.5098 10.3452C29.5198 10.4752 35.3198 10.4352 38.7498 5.92523L39.8798 3.96523C39.9398 3.82523 39.9798 3.67523 40.0098 3.51523Z" fill="#0D1424"/>
</g>
<defs>
<clipPath id="clip0_222_21">
<rect width="43.62" height="11.88" fill="white" transform="translate(0.5 0.185059)"/>
</clipPath>
</defs>
</svg>
