<svg width="51" height="16" viewBox="0 0 51 16" fill="none" xmlns="http://www.w3.org/2000/svg">
<g clip-path="url(#clip0_222_6)">
<path d="M13.8301 14.6552C13.8301 14.6552 26.5501 7.58521 21.8601 1.81521C20.9101 0.635212 19.5201 -0.154788 18.0101 -0.164788C16.6701 -0.174788 15.1001 0.395211 13.8301 2.69521C12.5601 0.395211 10.8301 -0.174788 9.49014 -0.164788C7.99014 -0.154788 6.60014 0.635212 5.65014 1.80521C0.960142 7.57521 13.8301 14.6552 13.8301 14.6552Z" fill="#FD3952"/>
<path d="M35.8898 14.6552C35.8898 14.6552 48.6098 7.58521 43.9198 1.81521C42.9598 0.635212 41.5798 -0.154788 40.0698 -0.164788C38.7298 -0.174788 37.1598 0.395211 35.8898 2.69521C34.6198 0.395211 32.8898 -0.174788 31.5498 -0.164788C30.0398 -0.154788 28.6598 0.635212 27.6998 1.80521C23.0098 7.57521 35.8898 14.6552 35.8898 14.6552Z" fill="#FD3952"/>
<path d="M28.9402 4.00526H21.3202C20.9802 4.00526 20.7002 3.72526 20.7002 3.38526C20.7002 3.04526 20.9802 2.76526 21.3202 2.76526H28.9402C29.2802 2.76526 29.5602 3.04526 29.5602 3.38526C29.5602 3.72526 29.2902 4.00526 28.9402 4.00526Z" fill="#B7AFB0"/>
<path d="M6.36 4.00526H0.62C0.28 4.00526 0 3.72526 0 3.38526C0 3.04526 0.28 2.76526 0.62 2.76526H6.36C6.7 2.76526 6.98 3.04526 6.98 3.38526C6.98 3.72526 6.7 4.00526 6.36 4.00526Z" fill="#B7AFB0"/>
<path d="M49.4401 4.00526H43.7001C43.3601 4.00526 43.0801 3.72526 43.0801 3.38526C43.0801 3.04526 43.3601 2.76526 43.7001 2.76526H49.4401C49.7801 2.76526 50.0601 3.04526 50.0601 3.38526C50.0601 3.72526 49.7801 4.00526 49.4401 4.00526Z" fill="#B7AFB0"/>
</g>
<defs>
<clipPath id="clip0_222_6">
<rect width="50.06" height="14.82" fill="white" transform="translate(0 0.715088)"/>
</clipPath>
</defs>
</svg>
