<svg width="60" height="30" viewBox="0 0 60 30" fill="none" xmlns="http://www.w3.org/2000/svg">
<g clip-path="url(#clip0_338_840)">
<path d="M51.1901 11.79H8.8101C8.4201 11.79 8.1001 11.47 8.1001 11.08C8.1001 10.69 8.4201 10.37 8.8101 10.37H51.1901C51.5801 10.37 51.9001 10.69 51.9001 11.08C51.9001 11.47 51.5801 11.79 51.1901 11.79Z" fill="#585EC9"/>
<path d="M27.79 12.19C27.79 14.7 26.85 20.96 19.75 21.01C18.4 21.02 17.27 20.83 16.32 20.51C14.44 19.87 13.26 18.69 12.54 17.37C11.89 16.22 11.58 14.97 11.43 13.88C11.34 13.22 11.31 12.62 11.3 12.15C11.28 11.56 11.52 10.99 11.94 10.57L12.89 9.61998C13.29 9.21998 13.84 8.97998 14.42 8.97998H24.61C25.18 8.97998 25.73 9.20998 26.14 9.61998L27.18 10.66C27.56 11.07 27.79 11.62 27.79 12.19Z" fill="#384966"/>
<path d="M18.5302 8.98999L12.5402 17.37C11.8902 16.22 11.5802 14.97 11.4302 13.88L14.9302 8.98999H18.5302Z" fill="#3188AE"/>
<path d="M27.7898 12.19C27.7898 14.7 26.8498 20.96 19.7498 21.01C18.3998 21.02 17.2698 20.83 16.3198 20.51L24.5498 8.98999H24.5898C25.1598 8.98999 25.7098 9.21999 26.1198 9.62999L27.1598 10.67C27.5598 11.07 27.7898 11.62 27.7898 12.19Z" fill="#3188AE"/>
<path d="M35.0603 8.98999C34.4903 8.98999 33.9403 9.21999 33.5303 9.62999L32.5803 10.58C32.1603 11 31.9303 11.57 31.9403 12.16C31.9503 12.63 31.9803 13.23 32.0703 13.89C32.2203 14.97 32.5303 16.22 33.1803 17.38C33.5903 18.12 34.1503 18.82 34.9003 19.41L42.5203 8.99999H35.0603V8.98999Z" fill="#384966"/>
<path d="M40.4102 21.01C47.5102 20.97 48.4502 14.7 48.4502 12.19C48.4502 11.61 48.2202 11.07 47.8202 10.66L46.7802 9.61998C46.3802 9.21998 45.8302 8.97998 45.2502 8.97998H42.5302L34.9102 19.4C35.4802 19.85 36.1602 20.23 36.9802 20.51C37.9302 20.83 39.0602 21.02 40.4102 21.01Z" fill="#3188AE"/>
<path d="M19.6702 21.55C14.0902 21.55 10.9202 18.22 10.7602 12.17C10.7402 11.44 11.0302 10.72 11.5502 10.2L12.5002 9.24996C13.0102 8.73996 13.6902 8.45996 14.4102 8.45996H24.6002C25.3202 8.45996 26.0002 8.73996 26.5102 9.24996L27.5502 10.29C28.0602 10.8 28.3402 11.48 28.3402 12.2C28.3402 13.75 27.9202 21.51 19.7702 21.56C19.7202 21.55 19.6902 21.55 19.6702 21.55ZM14.4002 9.52996C13.9702 9.52996 13.5602 9.69996 13.2602 9.99996L12.3102 10.95C12.0002 11.26 11.8202 11.69 11.8402 12.13C11.9902 17.66 14.6202 20.46 19.6702 20.46C19.7002 20.46 19.7302 20.46 19.7502 20.46C26.7102 20.42 27.2502 14.11 27.2502 12.18C27.2502 11.75 27.0802 11.34 26.7802 11.04L25.7302 9.99996C25.4202 9.68996 25.0202 9.52996 24.5902 9.52996H14.4002Z" fill="#4247AD"/>
<path d="M40.3202 21.55C34.7402 21.55 31.5702 18.22 31.4102 12.17C31.3902 11.44 31.6802 10.72 32.2002 10.2L33.1502 9.24996C33.6602 8.73996 34.3402 8.45996 35.0602 8.45996H45.2502C45.9702 8.45996 46.6502 8.73996 47.1602 9.24996L48.2002 10.29C48.7102 10.8 48.9902 11.48 48.9902 12.2C48.9902 13.75 48.5701 21.51 40.4201 21.56C40.3801 21.55 40.3502 21.55 40.3202 21.55ZM35.0602 9.52996C34.6302 9.52996 34.2201 9.69996 33.9201 9.99996L32.9702 10.95C32.6602 11.26 32.4802 11.69 32.5002 12.13C32.6502 17.66 35.2802 20.46 40.3302 20.46C40.3602 20.46 40.3902 20.46 40.4102 20.46C47.3702 20.42 47.9102 14.11 47.9102 12.18C47.9102 11.75 47.7401 11.34 47.4401 11.04L46.3902 9.99996C46.0802 9.68996 45.6802 9.52996 45.2502 9.52996H35.0602Z" fill="#4247AD"/>
</g>
<defs>
<clipPath id="clip0_338_840">
<rect width="60" height="30" fill="white"/>
</clipPath>
</defs>
</svg>
