<svg width="44" height="18" viewBox="0 0 44 18" fill="none" xmlns="http://www.w3.org/2000/svg">
<g clip-path="url(#clip0_222_41)">
<path d="M43.1002 5.81026H1.45023C1.06023 5.81026 0.740234 5.49026 0.740234 5.10026C0.740234 4.71026 1.06023 4.39026 1.45023 4.39026H43.1002C43.4902 4.39026 43.8102 4.71026 43.8102 5.10026C43.8102 5.49026 43.4902 5.81026 43.1002 5.81026Z" fill="#1C9B85"/>
<path d="M11.68 16.6302C16.3137 16.6302 20.07 12.8739 20.07 8.24022C20.07 3.60655 16.3137 -0.14978 11.68 -0.14978C7.04637 -0.14978 3.29004 3.60655 3.29004 8.24022C3.29004 12.8739 7.04637 16.6302 11.68 16.6302Z" fill="#2FCEB2"/>
<path d="M11.6801 15.0703C15.4522 15.0703 18.5101 12.0124 18.5101 8.24028C18.5101 4.46817 15.4522 1.41028 11.6801 1.41028C7.90799 1.41028 4.8501 4.46817 4.8501 8.24028C4.8501 12.0124 7.90799 15.0703 11.6801 15.0703Z" fill="#0D1424"/>
<path d="M18.5101 8.24027C18.5101 11.8503 15.7201 14.8003 12.1801 15.0503C12.0101 15.0703 11.8501 15.0703 11.6801 15.0703C9.8301 15.0703 8.1601 14.3403 6.9301 13.1503C5.9901 12.2403 5.3201 11.0803 5.0201 9.77027C4.9101 9.28027 4.8501 8.77027 4.8501 8.24027C4.8501 4.81027 7.3801 1.96027 10.6901 1.48027C11.0101 1.43027 11.3501 1.40027 11.6901 1.40027C12.7101 1.40027 13.6701 1.62027 14.5401 2.03027C16.2901 2.83027 17.6501 4.36027 18.2201 6.23027C18.4101 6.87027 18.5101 7.54027 18.5101 8.24027Z" fill="#0D1424"/>
<path d="M14.53 2.04028L6.93002 13.1603C5.99002 12.2503 5.32002 11.0903 5.02002 9.78028L10.68 1.49028C11 1.44028 11.34 1.41028 11.68 1.41028C12.7 1.41028 13.66 1.63028 14.53 2.04028Z" fill="#293856"/>
<path d="M18.5102 8.24022C18.5102 11.8502 15.7202 14.8002 12.1802 15.0502L18.2102 6.23022C18.4102 6.87022 18.5102 7.54022 18.5102 8.24022Z" fill="#293856"/>
<path d="M32.87 16.6302C37.5037 16.6302 41.26 12.8739 41.26 8.24022C41.26 3.60655 37.5037 -0.14978 32.87 -0.14978C28.2363 -0.14978 24.48 3.60655 24.48 8.24022C24.48 12.8739 28.2363 16.6302 32.87 16.6302Z" fill="#2FCEB2"/>
<path d="M39.7 8.24027C39.7 11.8503 36.91 14.8003 33.37 15.0503C33.2 15.0703 33.04 15.0703 32.87 15.0703C31.02 15.0703 29.35 14.3403 28.12 13.1503C27.18 12.2403 26.51 11.0803 26.21 9.77027C26.1 9.28027 26.04 8.77027 26.04 8.24027C26.04 4.81027 28.57 1.96027 31.88 1.48027C32.2 1.43027 32.54 1.40027 32.88 1.40027C33.9 1.40027 34.86 1.62027 35.73 2.03027C37.48 2.83027 38.84 4.36027 39.41 6.23027C39.6 6.87027 39.7 7.54027 39.7 8.24027Z" fill="#0D1424"/>
<path d="M39.6997 8.24026C39.6997 7.54026 39.5897 6.87026 39.3997 6.23026C39.0697 5.14026 38.4597 4.17026 37.6697 3.39026L29.9897 14.4303C30.8597 14.8403 31.8397 15.0703 32.8697 15.0703C33.0397 15.0703 33.1997 15.0603 33.3697 15.0503C36.9097 14.8003 39.6997 11.8503 39.6997 8.24026Z" fill="#293856"/>
</g>
<defs>
<clipPath id="clip0_222_41">
<rect width="43.07" height="16.79" fill="white" transform="translate(0.740234 0.730103)"/>
</clipPath>
</defs>
</svg>
