<svg width="36" height="46" viewBox="0 0 36 46" fill="none" xmlns="http://www.w3.org/2000/svg">
<g clip-path="url(#clip0_301_8049)">
<path d="M23.1505 33.1649C23.1505 30.1549 20.7105 27.7249 17.7105 27.7249C14.7105 27.7249 12.2705 30.1649 12.2705 33.1649C12.2705 33.2749 12.2805 33.3949 12.2905 33.5049V44.6849H17.3805C17.3805 44.6849 17.8405 40.1649 20.6905 37.7249C20.6905 37.7249 20.6905 37.7249 20.7005 37.7149C22.1705 36.7449 23.1505 35.0749 23.1505 33.1649Z" fill="#A31516"/>
<path d="M23.6803 33.1649C23.6803 30.1549 21.3103 27.7249 18.3803 27.7249C15.4503 27.7249 13.3803 30.1649 13.3803 33.1649C13.3803 33.2749 13.3903 33.3949 13.4003 33.5049L13.3403 44.6849H18.0503C18.0503 44.6849 18.4903 40.1649 21.2703 37.7249C21.2703 37.7249 21.2703 37.7249 21.2803 37.7149C22.7203 36.7449 23.6803 35.0749 23.6803 33.1649Z" fill="#F01414"/>
<path d="M17.8703 45.9348H12.4703C12.1203 45.9348 11.8403 45.6548 11.8403 45.3048C11.8403 44.9548 12.1203 44.6748 12.4703 44.6748H17.8703C18.2203 44.6748 18.5003 44.9548 18.5003 45.3048C18.5003 45.6548 18.2203 45.9348 17.8703 45.9348Z" fill="#A31516"/>
<path d="M18.6803 35.2748C17.0703 35.2748 15.7603 33.9648 15.7603 32.3548C15.7603 30.7448 17.0703 29.4348 18.6803 29.4348C20.2903 29.4348 21.6003 30.7448 21.6003 32.3548C21.6003 33.9648 20.2903 35.2748 18.6803 35.2748ZM18.6803 30.4448C17.6203 30.4448 16.7603 31.3048 16.7603 32.3648C16.7603 33.4248 17.6203 34.2848 18.6803 34.2848C19.7403 34.2848 20.6003 33.4248 20.6003 32.3648C20.6003 31.3048 19.7403 30.4448 18.6803 30.4448Z" fill="#A31516"/>
<path d="M1.09023 2.19494C1.09023 1.47494 1.12023 0.764941 1.16023 0.0649414H0.310234C0.270234 0.764941 0.240234 1.47494 0.240234 2.19494C0.240234 14.6249 7.20023 24.8649 16.0602 26.0349C16.1402 25.7249 16.2902 25.4449 16.5102 25.2249C7.90024 24.3349 1.09023 14.3549 1.09023 2.19494Z" fill="black"/>
<path d="M17.5501 25.2949C17.1201 25.3749 16.7701 25.6849 16.6401 26.0949C17.0101 26.1249 17.3901 26.1549 17.7701 26.1549C18.1501 26.1549 18.5301 26.1349 18.9001 26.0949C18.7601 25.6849 18.4201 25.3749 17.9901 25.2949C17.9201 25.2949 17.8401 25.3049 17.7701 25.3049C17.6901 25.3049 17.6201 25.2949 17.5501 25.2949Z" fill="black"/>
<path d="M35.29 2.19494C35.29 1.47494 35.26 0.764941 35.22 0.0649414H34.37C34.42 0.764941 34.44 1.47494 34.44 2.19494C34.44 14.3449 27.63 24.3349 19.02 25.2249C19.24 25.4449 19.39 25.7249 19.47 26.0349C28.34 24.8649 35.29 14.6249 35.29 2.19494Z" fill="black"/>
<path d="M19.4703 26.0348C19.3903 25.7248 19.2403 25.4448 19.0203 25.2248C18.7003 24.9048 18.2603 24.7048 17.7703 24.7048C17.2803 24.7048 16.8403 24.9048 16.5203 25.2248C16.8603 25.2648 17.2103 25.2848 17.5503 25.2848C17.6203 25.2748 17.6903 25.2648 17.7703 25.2648C17.8503 25.2648 17.9203 25.2748 17.9903 25.2848C18.4203 25.3648 18.7703 25.6748 18.9003 26.0848C18.9403 26.2048 18.9703 26.3248 18.9703 26.4548C18.9703 27.1148 18.4303 27.6548 17.7703 27.6548C17.1103 27.6548 16.5703 27.1148 16.5703 26.4548C16.5703 26.3248 16.6003 26.2048 16.6403 26.0848C16.4503 26.0648 16.2603 26.0548 16.0703 26.0248C16.0303 26.1648 16.0103 26.3048 16.0103 26.4548C16.0103 27.4248 16.8003 28.2148 17.7703 28.2148C18.7403 28.2148 19.5303 27.4248 19.5303 26.4548C19.5303 26.3148 19.5003 26.1748 19.4703 26.0348Z" fill="#A31516"/>
<path d="M17.5503 25.2949C17.2003 25.2849 16.8603 25.2649 16.5203 25.2349C16.3003 25.4549 16.1503 25.7349 16.0703 26.0449C16.2603 26.0749 16.4503 26.0849 16.6403 26.1049C16.7703 25.6849 17.1203 25.3749 17.5503 25.2949Z" fill="black"/>
</g>
<defs>
<clipPath id="clip0_301_8049">
<rect width="35.05" height="45.87" fill="white" transform="translate(0.240234 0.0649414)"/>
</clipPath>
</defs>
</svg>
