<svg width="36" height="46" viewBox="0 0 36 46" fill="none" xmlns="http://www.w3.org/2000/svg">
<g clip-path="url(#clip0_301_10914)">
<path d="M23.1305 33.1649C23.1305 30.1549 20.6905 27.7249 17.6905 27.7249C14.6905 27.7249 12.2505 30.1649 12.2505 33.1649C12.2505 33.2749 12.2605 33.3949 12.2705 33.5049V44.6849H17.3605C17.3605 44.6849 17.8205 40.1649 20.6705 37.7249C20.6705 37.7249 20.6705 37.7249 20.6805 37.7149C22.1505 36.7449 23.1305 35.0749 23.1305 33.1649Z" fill="#A31516"/>
<path d="M23.6603 33.1649C23.6603 30.1549 21.2903 27.7249 18.3603 27.7249C15.4303 27.7249 13.3603 30.1649 13.3603 33.1649C13.3603 33.2749 13.3703 33.3949 13.3803 33.5049L13.3203 44.6849H18.0303C18.0303 44.6849 18.4703 40.1649 21.2503 37.7249C21.2503 37.7249 21.2503 37.7249 21.2603 37.7149C22.7003 36.7449 23.6603 35.0749 23.6603 33.1649Z" fill="#F01414"/>
<path d="M17.8503 45.9348H12.4503C12.1003 45.9348 11.8203 45.6548 11.8203 45.3048C11.8203 44.9548 12.1003 44.6748 12.4503 44.6748H17.8503C18.2003 44.6748 18.4803 44.9548 18.4803 45.3048C18.4803 45.6548 18.2003 45.9348 17.8503 45.9348Z" fill="#A31516"/>
<path d="M18.6602 35.2748C17.0502 35.2748 15.7402 33.9648 15.7402 32.3548C15.7402 30.7448 17.0502 29.4348 18.6602 29.4348C20.2702 29.4348 21.5802 30.7448 21.5802 32.3548C21.5802 33.9648 20.2702 35.2748 18.6602 35.2748ZM18.6602 30.4448C17.6002 30.4448 16.7402 31.3048 16.7402 32.3648C16.7402 33.4248 17.6002 34.2848 18.6602 34.2848C19.7202 34.2848 20.5802 33.4248 20.5802 32.3648C20.5802 31.3048 19.7202 30.4448 18.6602 30.4448Z" fill="#A31516"/>
<path d="M1.07021 2.19494C1.07021 1.47494 1.10021 0.764941 1.14021 0.0649414H0.290215C0.250215 0.764941 0.220215 1.47494 0.220215 2.19494C0.220215 14.6249 7.18021 24.8649 16.0402 26.0349C16.1202 25.7249 16.2702 25.4449 16.4902 25.2249C7.88022 24.3349 1.07021 14.3549 1.07021 2.19494Z" fill="black"/>
<path d="M17.5301 25.2949C17.1001 25.3749 16.7501 25.6849 16.6201 26.0949C16.9901 26.1249 17.3701 26.1549 17.7501 26.1549C18.1301 26.1549 18.5101 26.1349 18.8801 26.0949C18.7401 25.6849 18.4001 25.3749 17.9701 25.2949C17.9001 25.2949 17.8201 25.3049 17.7501 25.3049C17.6701 25.3049 17.6001 25.2949 17.5301 25.2949Z" fill="black"/>
<path d="M35.27 2.19494C35.27 1.47494 35.24 0.764941 35.2 0.0649414H34.35C34.4 0.764941 34.42 1.47494 34.42 2.19494C34.42 14.3449 27.61 24.3349 19 25.2249C19.22 25.4449 19.37 25.7249 19.45 26.0349C28.32 24.8649 35.27 14.6249 35.27 2.19494Z" fill="black"/>
<path d="M19.4502 26.0348C19.3702 25.7248 19.2202 25.4448 19.0002 25.2248C18.6802 24.9048 18.2402 24.7048 17.7502 24.7048C17.2602 24.7048 16.8202 24.9048 16.5002 25.2248C16.8402 25.2648 17.1902 25.2848 17.5302 25.2848C17.6002 25.2748 17.6702 25.2648 17.7502 25.2648C17.8302 25.2648 17.9002 25.2748 17.9702 25.2848C18.4002 25.3648 18.7502 25.6748 18.8802 26.0848C18.9202 26.2048 18.9502 26.3248 18.9502 26.4548C18.9502 27.1148 18.4102 27.6548 17.7502 27.6548C17.0902 27.6548 16.5502 27.1148 16.5502 26.4548C16.5502 26.3248 16.5802 26.2048 16.6202 26.0848C16.4302 26.0648 16.2402 26.0548 16.0502 26.0248C16.0102 26.1648 15.9902 26.3048 15.9902 26.4548C15.9902 27.4248 16.7802 28.2148 17.7502 28.2148C18.7202 28.2148 19.5102 27.4248 19.5102 26.4548C19.5102 26.3148 19.4802 26.1748 19.4502 26.0348Z" fill="#A31516"/>
<path d="M17.5303 25.2949C17.1803 25.2849 16.8403 25.2649 16.5003 25.2349C16.2803 25.4549 16.1303 25.7349 16.0503 26.0449C16.2403 26.0749 16.4303 26.0849 16.6203 26.1049C16.7503 25.6849 17.1003 25.3749 17.5303 25.2949Z" fill="black"/>
</g>
<defs>
<clipPath id="clip0_301_10914">
<rect width="35.05" height="45.87" fill="white" transform="translate(0.220215 0.0649414)"/>
</clipPath>
</defs>
</svg>
