<svg width="26" height="32" viewBox="0 0 26 32" fill="none" xmlns="http://www.w3.org/2000/svg">
<g clip-path="url(#clip0_301_5100)">
<path d="M16.5599 22.9449C16.5599 20.8849 14.8499 19.2249 12.7399 19.2249C10.6299 19.2249 8.91992 20.8949 8.91992 22.9449C8.91992 23.0249 8.92992 23.0949 8.92992 23.1749V30.8149H12.5099C12.5099 30.8149 12.8299 27.7249 14.8299 26.0649C15.8799 25.3949 16.5599 24.2549 16.5599 22.9449Z" fill="#A31516"/>
<path d="M16.9397 22.9449C16.9397 20.8849 15.2797 19.2249 13.2297 19.2249C11.1797 19.2249 9.71971 20.8949 9.71971 22.9449C9.71971 23.0249 9.72971 23.0949 9.72971 23.1749L9.69971 30.8149H12.9997C12.9997 30.8149 13.3097 27.7249 15.2597 26.0649C16.2697 25.3949 16.9397 24.2549 16.9397 22.9449Z" fill="#F01414"/>
<path d="M12.8799 31.6749H9.0799C8.8399 31.6749 8.6499 31.4849 8.6499 31.2449C8.6499 31.0049 8.8399 30.8149 9.0799 30.8149H12.8799C13.1199 30.8149 13.3099 31.0049 13.3099 31.2449C13.3099 31.4849 13.1099 31.6749 12.8799 31.6749Z" fill="#A31516"/>
<path d="M13.4299 24.3948C12.2999 24.3948 11.3799 23.4948 11.3799 22.3948C11.3799 21.2948 12.2999 20.3948 13.4299 20.3948C14.5599 20.3948 15.4799 21.2948 15.4799 22.3948C15.4799 23.4948 14.5599 24.3948 13.4299 24.3948ZM13.4299 21.0848C12.6899 21.0848 12.0899 21.6748 12.0899 22.3948C12.0899 23.1148 12.6899 23.7048 13.4299 23.7048C14.1699 23.7048 14.7699 23.1148 14.7699 22.3948C14.7799 21.6748 14.1799 21.0848 13.4299 21.0848Z" fill="#A31516"/>
<path d="M1.10977 1.78495C1.10977 1.29495 1.11977 0.804951 1.15977 0.324951H0.559766C0.529766 0.804951 0.509766 1.29495 0.509766 1.78495C0.509766 10.275 5.37977 17.275 11.5998 18.075C11.6498 17.865 11.7598 17.675 11.9198 17.525C5.87977 16.915 1.10977 10.085 1.10977 1.78495Z" fill="black"/>
<path d="M12.64 17.5649C12.34 17.6149 12.1 17.8349 12 18.1149C12.26 18.1349 12.53 18.1549 12.79 18.1549C13.06 18.1549 13.32 18.1349 13.58 18.1149C13.49 17.8349 13.24 17.6249 12.94 17.5649C12.89 17.5649 12.84 17.5749 12.79 17.5749C12.74 17.5749 12.69 17.5649 12.64 17.5649Z" fill="black"/>
<path d="M25.0697 1.78495C25.0697 1.29495 25.0497 0.804951 25.0197 0.324951H24.4197C24.4497 0.804951 24.4697 1.29495 24.4697 1.78495C24.4697 10.095 19.6997 16.915 13.6597 17.525C13.8097 17.675 13.9197 17.865 13.9797 18.075C20.1997 17.275 25.0697 10.275 25.0697 1.78495Z" fill="black"/>
<path d="M13.9796 18.075C13.9296 17.865 13.8196 17.675 13.6596 17.525C13.4396 17.305 13.1296 17.165 12.7796 17.165C12.4296 17.165 12.1296 17.305 11.8996 17.525C12.1396 17.545 12.3796 17.565 12.6196 17.565C12.6696 17.555 12.7196 17.545 12.7696 17.545C12.8196 17.545 12.8696 17.555 12.9196 17.565C13.2196 17.615 13.4596 17.835 13.5596 18.115C13.5896 18.195 13.6096 18.275 13.6096 18.365C13.6096 18.815 13.2296 19.185 12.7696 19.185C12.3096 19.185 11.9296 18.815 11.9296 18.365C11.9296 18.275 11.9496 18.195 11.9796 18.115C11.8496 18.105 11.7096 18.095 11.5796 18.075C11.5596 18.165 11.5396 18.265 11.5396 18.365C11.5396 19.025 12.0896 19.565 12.7696 19.565C13.4496 19.565 13.9996 19.025 13.9996 18.365C14.0296 18.265 14.0096 18.165 13.9796 18.075Z" fill="#A31516"/>
<path d="M12.6396 17.5649C12.3996 17.5649 12.1596 17.5449 11.9196 17.5249C11.7696 17.6749 11.6596 17.8649 11.5996 18.0749C11.7296 18.0949 11.8696 18.1049 11.9996 18.1149C12.0896 17.8349 12.3396 17.6249 12.6396 17.5649Z" fill="black"/>
</g>
<defs>
<clipPath id="clip0_301_5100">
<rect width="24.56" height="31.35" fill="white" transform="translate(0.509766 0.324951)"/>
</clipPath>
</defs>
</svg>
