<svg width="90" height="116" viewBox="0 0 90 116" fill="none" xmlns="http://www.w3.org/2000/svg">
<g clip-path="url(#clip0_301_10930)">
<path d="M20.0302 7.96509V18.2251C20.0302 42.8251 19.4802 53.8451 15.4102 62.4851C14.0102 65.4451 12.2302 67.4951 10.0902 68.8951L0.740234 47.5151C0.820234 47.5351 0.900234 47.5351 0.990234 47.5351C2.10023 47.5351 3.05023 47.1851 3.84023 46.5451C4.71023 45.8751 5.40023 44.8651 5.97023 43.6251C8.04023 39.0651 8.33023 31.3451 8.70023 25.1051C8.86023 22.4451 9.63023 17.7751 12.1002 14.7451C14.7502 11.4951 17.6602 9.33509 20.0302 7.96509Z" fill="#DCC206"/>
<path d="M12.0803 58.465L9.24033 59.635L3.84033 46.545C4.71033 45.875 5.40033 44.865 5.97033 43.625L12.0803 58.465Z" fill="#009C3B"/>
<path d="M83.7804 79.995C84.0704 82.535 84.0404 85.095 83.7604 87.605L83.7504 87.615C83.6604 88.495 83.5304 89.355 83.3704 90.215C81.5004 100.475 75.6304 109.435 70.3704 112.315L70.4504 115.125H13.1604V111.845C6.58041 106.375 3.52041 98.515 2.43041 93.465L2.36041 92.895L1.92041 88.855C1.92041 88.615 1.92041 88.385 1.94041 88.165C1.94041 87.745 1.95041 87.335 1.96041 86.935L1.97041 86.835L2.10041 84.725L2.11041 84.605C3.19041 73.705 8.89041 67.495 8.88041 67.885L7.41041 35.475C7.41041 32.825 7.03041 23.495 8.71041 18.775C10.0304 15.085 13.9204 11.385 14.0804 11.235V11.225C14.0804 11.225 16.5204 9.03501 18.6804 7.83501C24.1804 4.78501 26.3404 4.83501 29.0704 4.83501L28.8404 15.455L40.9004 24.635L53.3104 5.24501C53.3104 5.24501 62.0604 5.53501 70.8104 12.585C71.2204 12.905 71.6204 13.255 72.0304 13.595C74.1404 15.465 76.2304 17.745 78.1704 20.525C81.0104 24.585 83.0104 29.175 84.2704 33.975C85.3204 37.985 86.9004 44.475 88.4704 52.825C88.6604 53.815 88.8404 54.845 89.0304 55.895C89.1804 56.735 89.3304 57.595 89.4804 58.475H77.4004V66.275C77.4004 66.275 77.4104 67.295 77.4304 67.325C77.7504 67.735 80.3404 70.075 82.0104 73.615C82.4604 74.575 82.8504 75.555 83.1004 76.485C83.4104 77.645 83.6504 78.815 83.7804 79.995Z" fill="url(#paint0_linear_301_10930)"/>
<path d="M31.5301 1.25489L25.5601 6.05489L29.3901 31.1149C29.4001 31.1849 29.4801 31.2249 29.5501 31.1849C30.6501 30.5149 37.3701 24.5849 42.5001 24.8549L32.6301 1.52489C32.4401 1.09489 31.9001 0.964888 31.5301 1.25489Z" fill="#009C3B"/>
<path d="M52.18 1.03494L58.15 5.83494L54.32 30.8949C54.31 30.9649 54.23 31.0049 54.16 30.9649C53.06 30.2949 45.42 24.3649 40.29 24.6349L51.09 1.30494C51.27 0.87494 51.82 0.73494 52.18 1.03494Z" fill="#009C3B"/>
<path d="M70.6204 36.915H53.6904V47.815H70.6204V36.915Z" fill="#009C3B"/>
<path d="M61.9304 47.395L54.7104 41.915L61.9304 37.345L69.5904 42.365L61.9304 47.395Z" fill="#F9DA01"/>
<path d="M62.1505 45.2851C63.7631 45.2851 65.0705 43.9777 65.0705 42.3651C65.0705 40.7524 63.7631 39.4451 62.1505 39.4451C60.5378 39.4451 59.2305 40.7524 59.2305 42.3651C59.2305 43.9777 60.5378 45.2851 62.1505 45.2851Z" fill="#002776"/>
<path d="M44.1904 102.255C25.2004 102.255 10.4404 95.755 2.11045 84.605L2.10045 84.725L1.97045 86.835L1.96045 86.935C10.7204 97.605 25.4704 103.775 44.1904 103.775C60.8904 103.775 74.4304 98.865 83.3704 90.215C83.5304 89.355 83.6605 88.495 83.7505 87.615C75.1304 96.915 61.4104 102.255 44.1904 102.255Z" fill="#D9E6ED"/>
<path d="M89.03 55.895H77V52.825H88.47C88.66 53.815 88.84 54.845 89.03 55.895Z" fill="#009C3B"/>
</g>
<defs>
<linearGradient id="paint0_linear_301_10930" x1="45.7004" y1="6.02391" x2="45.7004" y2="117.681" gradientUnits="userSpaceOnUse">
<stop offset="1.63196e-07" stop-color="#FFDF00"/>
<stop offset="1" stop-color="#B1CB12"/>
</linearGradient>
<clipPath id="clip0_301_10930">
<rect width="88.74" height="114.25" fill="white" transform="translate(0.740234 0.875)"/>
</clipPath>
</defs>
</svg>
