<svg width="79" height="92" viewBox="0 0 79 92" fill="none" xmlns="http://www.w3.org/2000/svg">
<g clip-path="url(#clip0_301_5055)">
<path d="M11.96 8.63013L11.36 55.0901L11.32 57.7901L11.26 62.5701C11.22 62.5701 10.69 62.3501 9.86 62.0001C6.85 60.7401 0 57.7801 0 57.7801C0.9 56.7101 1.72 55.4501 2.43 54.1301C2.83 53.3901 3.19 52.6401 3.52 51.8701C5 48.4801 5.81 44.9901 5.82 42.9501L5.9 20.2201C5.9 14.2701 8.97 10.9201 10.74 9.48013C10.74 9.48013 10.84 9.40013 11.02 9.27013C11.59 8.83013 11.96 8.63013 11.96 8.63013Z" fill="#03246A"/>
<path d="M11.3702 55.1001L11.3302 57.8001L9.93018 57.2301L2.43018 54.1401C2.83018 53.4001 3.19018 52.6501 3.52018 51.8801L9.98018 54.5401L11.3702 55.1001Z" fill="#F9DA01"/>
<path d="M44.68 3.32007L44.6 3.49007C44.41 3.35007 44.68 3.32007 44.68 3.32007Z" fill="url(#paint0_linear_301_5055)"/>
<path d="M78.1698 63.9401H64.2798C64.2298 63.6701 63.9498 62.4801 63.5598 60.8701C63.3598 60.0401 63.1298 59.0901 62.8898 58.1101C61.9898 54.3801 60.9298 50.0601 60.6598 49.0101V91.1701H9.77979V66.5201L9.80979 64.8101L9.84979 63.0001L9.92979 57.8601L10.7398 9.48007C10.7398 9.48007 10.8398 9.40007 11.0198 9.27007C11.6598 8.76007 13.4098 7.48007 15.7498 6.24007C16.8798 5.63007 17.9398 5.11007 18.9398 4.69007C21.0698 3.79007 22.9698 3.32007 24.9098 3.32007L36.3798 21.6001L44.5998 3.49007C44.7298 3.58007 45.0998 3.72007 45.9498 3.94007C48.2798 4.54007 51.6398 5.70007 55.4198 7.94007C60.0998 10.7301 65.6298 16.5701 69.6798 28.5901C69.6798 28.5901 73.9998 41.8101 77.1198 58.1101C77.1298 58.1501 77.1398 58.2001 77.1498 58.2401C77.3098 59.0701 77.4598 59.9001 77.6098 60.7501C77.6198 60.7901 77.6298 60.8301 77.6298 60.8701C77.8198 61.8801 77.9998 62.9101 78.1698 63.9401Z" fill="url(#paint1_linear_301_5055)"/>
<path d="M27.14 0.960052L22.21 4.93005L25.37 25.6401C25.38 25.7001 25.45 25.7301 25.5 25.7001C26.41 25.1401 32.73 21.3601 36.96 21.5801L28.05 1.18005C27.89 0.830052 27.44 0.720052 27.14 0.960052Z" fill="#009C3B"/>
<path d="M45.84 0.960052L50.77 4.93005L47.61 25.6401C47.6 25.7001 47.53 25.7301 47.48 25.7001C46.57 25.1401 40.25 21.3601 36.02 21.5801L44.93 1.18005C45.09 0.830052 45.54 0.720052 45.84 0.960052Z" fill="#009C3B"/>
<path d="M55.4501 33.25H40.3101V43H55.4501V33.25Z" fill="#009C3B"/>
<path d="M47.68 42.6099L41.23 37.7199L47.68 33.6299L54.54 38.1199L47.68 42.6099Z" fill="#F9DA01"/>
<path d="M47.88 40.73C49.3215 40.73 50.49 39.5615 50.49 38.12C50.49 36.6785 49.3215 35.51 47.88 35.51C46.4386 35.51 45.27 36.6785 45.27 38.12C45.27 39.5615 46.4386 40.73 47.88 40.73Z" fill="#002776"/>
<path d="M35.2298 84.8301C23.4698 84.8301 14.4798 80.5801 9.77979 73.3501V74.9501C14.8098 81.7601 23.7398 85.7301 35.2298 85.7301C45.5998 85.7301 55.4498 82.4901 60.6598 76.8501V75.4801C55.6598 81.4001 45.7798 84.8301 35.2298 84.8301Z" fill="#D9E6ED"/>
<path d="M77.6301 60.8701H63.5601C63.3601 60.0401 63.1301 59.0901 62.8901 58.1101H77.1201C77.1301 58.1501 77.1401 58.2001 77.1501 58.2401C77.3101 59.0701 77.4601 59.9001 77.6101 60.7501C77.6201 60.7901 77.6301 60.8301 77.6301 60.8701Z" fill="#F9DA01"/>
</g>
<defs>
<linearGradient id="paint0_linear_301_5055" x1="44.6048" y1="3.33887" x2="44.6012" y2="3.48617" gradientUnits="userSpaceOnUse">
<stop offset="1.01997e-08" stop-color="#1D2836"/>
<stop offset="1" stop-color="#004B64"/>
</linearGradient>
<linearGradient id="paint1_linear_301_5055" x1="45.0054" y1="14.4492" x2="43.1228" y2="90.3151" gradientUnits="userSpaceOnUse">
<stop stop-color="#002776"/>
<stop offset="1" stop-color="#004B64"/>
</linearGradient>
<clipPath id="clip0_301_5055">
<rect width="78.17" height="90.34" fill="white" transform="translate(0 0.830078)"/>
</clipPath>
</defs>
</svg>
