<svg width="109" height="138" viewBox="0 0 109 138" fill="none" xmlns="http://www.w3.org/2000/svg">
<g clip-path="url(#clip0_301_8026)">
<path d="M24.1602 8.6748V21.0948C24.1602 50.8648 23.5002 64.2048 18.5702 74.6648C17.8102 76.2848 16.3202 77.3648 14.5902 78.1348C13.4102 78.6548 12.1202 79.0248 10.8502 79.3148C9.87016 79.5448 8.90016 79.7348 8.01016 79.9048C8.01016 79.9048 0.160156 54.3748 0.160156 54.0548C1.05016 54.0548 1.87016 53.8948 2.61016 53.5948C3.90016 53.0848 4.98016 52.1548 5.86016 50.9048C9.14016 46.3148 9.97016 37.4648 10.4502 29.4148C10.6402 26.2048 11.5702 20.5448 14.5602 16.8748C17.7702 12.9448 21.2902 10.3248 24.1602 8.6748Z" fill="#1D2836"/>
<path d="M14.9604 79.2748C13.8604 80.0148 12.7304 80.7748 11.5604 81.5348L10.8504 79.3148L2.61035 53.5948C3.90035 53.0848 4.98035 52.1548 5.86035 50.9048L14.5904 78.1348L14.9604 79.2748Z" fill="#F9DA01"/>
<path d="M93.83 93.7648C100.03 109.975 93.29 127.275 84.09 132.315V137.905L49.83 137.785V137.905H15.86V131.655C7.89 125.035 4.18 118.285 2.86 112.165L2.78 111.475L2.25 106.585C2.25 106.305 2.25 106.025 2.27 105.755C2.55 95.5348 8.54 88.3548 8.53 88.8848L8.89 41.9748C8.89 38.7648 8.44 27.4748 10.47 21.7548C12.06 17.2948 16.78 12.8148 16.97 12.6348V12.6248C16.97 12.6248 19.92 9.97483 22.54 8.51483C29.19 4.82483 31.81 4.88483 35.11 4.88483L34.83 17.7448L49.44 28.8548L64.45 5.38483C64.45 5.38483 75.05 5.73483 85.64 14.2648C86.13 14.6548 86.62 15.0748 87.11 15.4948C89.67 17.7548 92.2 20.5148 94.55 23.8748C97.99 28.7948 100.41 34.3548 101.93 40.1648C103.22 45.0648 105.14 53.0448 107.07 63.2948C107.31 64.5648 107.55 65.8748 107.79 67.2148C107.94 68.0648 108.09 68.9248 108.24 69.8048H87.62C87.62 69.8048 90.22 84.3448 93.83 93.7648Z" fill="url(#paint0_linear_301_8026)"/>
<path d="M36.1699 0.284889L28.9399 6.09489L33.5699 36.4249C33.5799 36.5149 33.6799 36.5649 33.7599 36.5149C35.0899 35.6949 43.2299 28.5249 49.4299 28.8449L37.4899 0.614889C37.2699 0.0948889 36.6099 -0.0751111 36.1699 0.284889Z" fill="#009C3B"/>
<path d="M63.8102 0.284889L71.0402 6.09489L66.4102 36.4249C66.4002 36.5149 66.3002 36.5649 66.2202 36.5149C64.8902 35.6949 55.6402 28.5249 49.4302 28.8449L62.4902 0.614889C62.7102 0.0948889 63.3702 -0.0751111 63.8102 0.284889Z" fill="#009C3B"/>
<path d="M76.7401 46.0249H59.8101V56.9249H76.7401V46.0249Z" fill="#009C3B"/>
<path d="M68.0501 56.5048L60.8301 51.0248L68.0501 46.4548L75.7101 51.4748L68.0501 56.5048Z" fill="#F9DA01"/>
<path d="M68.2701 54.3949C69.8828 54.3949 71.1901 53.0876 71.1901 51.4749C71.1901 49.8623 69.8828 48.5549 68.2701 48.5549C66.6574 48.5549 65.3501 49.8623 65.3501 51.4749C65.3501 53.0876 66.6574 54.3949 68.2701 54.3949Z" fill="#002776"/>
<path d="M95.5002 114.085C84.4002 122.505 67.7802 127.865 49.2302 127.865C30.9402 127.865 14.5402 122.655 3.4502 114.435C3.6102 114.965 3.8002 115.505 4.0102 116.045C15.2502 123.915 31.3602 128.855 49.2302 128.855C67.4902 128.855 83.9102 123.695 95.1802 115.525C95.3002 115.055 95.4102 114.565 95.5002 114.085Z" fill="#009C3B"/>
<path d="M107.79 67.2149H86.2603V63.2949H107.07C107.31 64.5649 107.55 65.8749 107.79 67.2149Z" fill="#F9DA01"/>
<path d="M86.2901 62.5549L85.6401 86.6949C85.6401 86.6949 90.9101 87.7949 94.5001 95.0249L86.2901 62.5549Z" fill="#1D2836"/>
</g>
<defs>
<linearGradient id="paint0_linear_301_8026" x1="55.245" y1="18.8199" x2="55.245" y2="138.859" gradientUnits="userSpaceOnUse">
<stop offset="1.01997e-08" stop-color="#1D2836"/>
<stop offset="1" stop-color="#004B64"/>
</linearGradient>
<clipPath id="clip0_301_8026">
<rect width="108.08" height="137.81" fill="white" transform="translate(0.160156 0.0949707)"/>
</clipPath>
</defs>
</svg>
