<svg width="25" height="34" viewBox="0 0 25 34" fill="none" xmlns="http://www.w3.org/2000/svg">
<g clip-path="url(#clip0_302_210)">
<path d="M16.2801 24.1249C16.2801 22.0149 14.5701 20.3049 12.4601 20.3049C10.3501 20.3049 8.64014 22.0149 8.64014 24.1249C8.64014 24.2049 8.65014 24.2849 8.65014 24.3649V32.1949H12.2301C12.2301 32.1949 12.5501 29.0249 14.5501 27.3249C15.6001 26.6349 16.2801 25.4549 16.2801 24.1249Z" fill="#A31516"/>
<path d="M16.6599 24.1249C16.6599 22.0149 14.9999 20.3049 12.9499 20.3049C10.8999 20.3049 9.43992 22.0149 9.43992 24.1249C9.43992 24.2049 9.44992 24.2849 9.44992 24.3649L9.41992 32.1949H12.7199C12.7199 32.1949 13.0299 29.0249 14.9799 27.3249C15.9899 26.6349 16.6599 25.4549 16.6599 24.1249Z" fill="#F01414"/>
<path d="M12.5901 33.0748H8.81012C8.57012 33.0748 8.37012 32.8748 8.37012 32.6348C8.37012 32.3948 8.57012 32.1948 8.81012 32.1948H12.5901C12.8301 32.1948 13.0301 32.3948 13.0301 32.6348C13.0301 32.8748 12.8301 33.0748 12.5901 33.0748Z" fill="#A31516"/>
<path d="M13.1501 25.6049C12.0201 25.6049 11.1001 24.6849 11.1001 23.5549C11.1001 22.4249 12.0201 21.5049 13.1501 21.5049C14.2801 21.5049 15.2001 22.4249 15.2001 23.5549C15.2001 24.6849 14.2801 25.6049 13.1501 25.6049ZM13.1501 22.2149C12.4101 22.2149 11.8101 22.8149 11.8101 23.5549C11.8101 24.2949 12.4101 24.8949 13.1501 24.8949C13.8901 24.8949 14.4901 24.2949 14.4901 23.5549C14.5001 22.8149 13.9001 22.2149 13.1501 22.2149Z" fill="#A31516"/>
<path d="M0.82998 2.42505C0.82998 1.92505 0.84998 1.42505 0.87998 0.925049H0.27998C0.24998 1.41505 0.22998 1.91505 0.22998 2.42505C0.22998 11.135 5.09998 18.305 11.32 19.125C11.37 18.905 11.48 18.715 11.64 18.555C5.59998 17.935 0.82998 10.935 0.82998 2.42505Z" fill="black"/>
<path d="M12.3602 18.605C12.0602 18.665 11.8202 18.885 11.7202 19.165C11.9802 19.185 12.2502 19.205 12.5102 19.205C12.7802 19.205 13.0402 19.185 13.3002 19.165C13.2102 18.875 12.9602 18.655 12.6602 18.605C12.6102 18.605 12.5602 18.615 12.5102 18.615C12.4602 18.605 12.4102 18.605 12.3602 18.605Z" fill="black"/>
<path d="M24.7899 2.42505C24.7899 1.92505 24.7699 1.42505 24.7399 0.925049H24.1399C24.1699 1.41505 24.1899 1.91505 24.1899 2.42505C24.1899 10.945 19.4199 17.945 13.3799 18.565C13.5299 18.715 13.6399 18.915 13.6999 19.135C19.9199 18.305 24.7899 11.125 24.7899 2.42505Z" fill="black"/>
<path d="M13.6998 19.1251C13.6498 18.9051 13.5398 18.7151 13.3798 18.5551C13.1598 18.3251 12.8498 18.1851 12.4998 18.1851C12.1498 18.1851 11.8498 18.3251 11.6198 18.5551C11.8598 18.5751 12.0998 18.5951 12.3398 18.5951C12.3898 18.5851 12.4398 18.5751 12.4898 18.5751C12.5398 18.5751 12.5898 18.5851 12.6398 18.5951C12.9398 18.6551 13.1798 18.8751 13.2798 19.1551C13.3098 19.2351 13.3298 19.3251 13.3298 19.4151C13.3298 19.8751 12.9498 20.2551 12.4898 20.2551C12.0298 20.2551 11.6498 19.8751 11.6498 19.4151C11.6498 19.3251 11.6698 19.2351 11.6998 19.1551C11.5698 19.1451 11.4298 19.1351 11.2998 19.1151C11.2798 19.2151 11.2598 19.3151 11.2598 19.4151C11.2598 20.0951 11.8098 20.6451 12.4898 20.6451C13.1698 20.6451 13.7198 20.0951 13.7198 19.4151C13.7498 19.3251 13.7298 19.2251 13.6998 19.1251Z" fill="#A31516"/>
<path d="M12.3598 18.6049C12.1198 18.6049 11.8798 18.5849 11.6398 18.5649C11.4898 18.7149 11.3798 18.9149 11.3198 19.1349C11.4498 19.1549 11.5898 19.1649 11.7198 19.1749C11.8098 18.8749 12.0598 18.6649 12.3598 18.6049Z" fill="black"/>
</g>
<defs>
<clipPath id="clip0_302_210">
<rect width="24.56" height="32.15" fill="white" transform="translate(0.22998 0.925049)"/>
</clipPath>
</defs>
</svg>
