<svg width="53" height="52" viewBox="0 0 53 52" fill="none" xmlns="http://www.w3.org/2000/svg">
<g clip-path="url(#clip0_223_2960)">
<path d="M51.8564 29.5151C53.9605 15.5226 44.323 2.47382 30.3305 0.369779C16.338 -1.73426 3.28922 7.90323 1.18518 21.8957C-0.918853 35.8882 8.71863 48.937 22.7111 51.041C36.7036 53.1451 49.7524 43.5076 51.8564 29.5151Z" fill="#F76D2F"/>
<path d="M39.8399 3.81995C43.5699 8.26995 45.8199 14.0099 45.8199 20.2699C45.8199 34.4199 34.3499 45.8899 20.1999 45.8899C15.3199 45.8899 10.7599 44.5299 6.87988 42.1599C11.5799 47.7699 18.6299 51.3299 26.5199 51.3299C40.6699 51.3299 52.1399 39.8599 52.1399 25.7099C52.1499 16.4399 47.2199 8.31995 39.8399 3.81995Z" fill="#E0602D"/>
<path d="M26.6201 51.33C22.5401 50.26 20.4801 47.86 18.0601 42.97C15.8601 38.53 14.6401 32.9 14.6401 27.12C14.6401 20.79 15.5501 15.06 17.2801 10.55C19.4101 4.98997 22.8401 1.78997 27.2101 0.0899658L28.5701 0.169966C24.4801 1.75997 20.2701 5.63997 18.2501 10.91C16.5701 15.31 15.6801 20.91 15.6801 27.12C15.6801 37.06 19.7101 48.99 28.3601 51.26L26.6201 51.33Z" fill="#583A2A"/>
<path d="M23.7599 35.02C16.9499 35.02 10.1099 33.9 5.45994 31.95C2.13994 30.55 1.74994 29.88 1.08994 28.85L0.939941 27.22C0.939941 28.43 3.02994 29.81 5.85994 31C9.99994 32.74 16.5699 34 23.7099 34C33.6399 34 44.9999 31.29 52.0999 24.33L52.1299 25.54C49.1799 28.43 45.7699 30.52 41.2799 32.16C37.3399 33.6 32.9099 34.51 28.1399 34.86C26.6999 34.97 25.2299 35.02 23.7599 35.02Z" fill="#583A2A"/>
<path d="M16.6098 24.33C15.5398 24.33 14.3398 24.2 12.9898 23.91C10.3698 23.34 8.5998 21.58 7.8698 18.81C7.2598 16.5 7.2398 13.51 8.2398 10.54C8.9398 8.45999 9.8798 6.34999 11.1798 5.18999L12.7298 4.12C11.5798 5.14 9.9398 8.28999 9.2298 10.82C8.4398 13.63 8.3098 16.45 8.8698 18.55C9.5098 20.96 10.9698 22.42 13.2198 22.91C14.4798 23.18 15.5998 23.31 16.5898 23.31C21.1098 23.31 23.1798 20.72 25.6898 17.6C27.4098 15.45 29.3098 12.94 32.3998 11.08C40.6998 6.07999 43.6798 6.92999 44.0698 7.02999L45.0398 7.99C45.0198 7.98 41.2398 6.65 32.9498 11.94C30.0498 13.79 28.1598 16.15 26.4898 18.24C23.8898 21.47 21.5898 24.33 16.6098 24.33Z" fill="#583A2A"/>
<path d="M15.4199 48.85C13.4899 47.27 12.6599 45.21 13.3599 43.27C13.6999 42.32 14.7399 40.72 17.8199 40.72C17.8299 40.72 17.8299 40.72 17.8399 40.72C23.6799 40.73 25.9799 42.65 28.1899 44.51C29.6899 45.76 31.1099 46.95 33.6399 47.45C37.8599 48.28 41.1699 46.75 41.1899 46.73L39.8799 47.62L38.7399 48.24C38.6499 48.29 38.1599 48.5 36.3899 48.75C35.5299 48.87 34.5299 48.67 33.4299 48.45C30.6399 47.9 29.0599 46.57 27.5199 45.29C25.4399 43.55 23.2899 41.75 17.8199 41.74C17.8099 41.74 17.8099 41.74 17.7999 41.74C15.9599 41.74 14.7499 42.39 14.3099 43.61C13.7599 45.13 15.2099 48.11 16.7899 49.41L15.4199 48.85Z" fill="#583A2A"/>
</g>
<defs>
<clipPath id="clip0_223_2960">
<rect width="51.25" height="51.24" fill="white" transform="translate(0.899902 0.0899658)"/>
</clipPath>
</defs>
</svg>
