<svg width="76" height="87" viewBox="0 0 76 87" fill="none" xmlns="http://www.w3.org/2000/svg">
<g clip-path="url(#clip0_223_2885)">
<path d="M28.8583 0.769583L1.05518 28.5728L44.8035 72.321L72.6066 44.5179L28.8583 0.769583Z" fill="white"/>
<path d="M28.9628 0.664078L26.7637 2.86316L70.4695 46.569L72.6686 44.3699L28.9628 0.664078Z" fill="#CF1C31"/>
<path d="M24.66 4.96303L22.4609 7.16211L66.1668 50.868L68.3659 48.6689L24.66 4.96303Z" fill="#CF1C31"/>
<path d="M20.3578 9.26198L18.1587 11.4611L61.8645 55.1669L64.0636 52.9678L20.3578 9.26198Z" fill="#CF1C31"/>
<path d="M16.055 13.575L13.856 15.774L57.5618 59.4799L59.7609 57.2808L16.055 13.575Z" fill="#CF1C31"/>
<path d="M11.7528 17.8739L9.55371 20.073L53.2596 63.7788L55.4586 61.5798L11.7528 17.8739Z" fill="#CF1C31"/>
<path d="M7.45054 22.1729L5.25146 24.3719L48.9573 68.0778L51.1564 65.8787L7.45054 22.1729Z" fill="#CF1C31"/>
<path d="M3.14781 26.4717L0.94873 28.6708L44.6546 72.3766L46.8537 70.1775L3.14781 26.4717Z" fill="#CF1C31"/>
<path d="M28.9691 0.660269L13.8584 15.771L35.0431 36.9557L50.1538 21.845L28.9691 0.660269Z" fill="#3A3870"/>
<path d="M30.1903 3.03995L29.7703 3.85995L30.4103 4.49995L29.5103 4.35995L29.0903 5.16995L28.9503 4.26995L28.0503 4.13995L28.8703 3.71995L28.7303 2.81995L29.3703 3.45995L30.1903 3.03995Z" fill="white"/>
<path d="M30.3805 6.33999L29.9605 7.14999L30.6105 7.78999L29.7105 7.65999L29.2905 8.46999L29.1505 7.56999L28.2505 7.42999L29.0605 7.00999L28.9305 6.10999L29.5705 6.75999L30.3805 6.33999Z" fill="white"/>
<path d="M27.3502 9.36989L26.9402 10.1799L27.5802 10.8199L26.6802 10.6799L26.2602 11.4999L26.1202 10.5999L25.2202 10.4599L26.0402 10.0399L25.9002 9.13989L26.5402 9.77989L27.3502 9.36989Z" fill="white"/>
<path d="M24.3304 12.3899L23.9104 13.2099L24.5504 13.8499L23.6504 13.7099L23.2304 14.5299L23.0904 13.6299L22.1904 13.4899L23.0104 13.0699L22.8704 12.1699L23.5104 12.8099L24.3304 12.3899Z" fill="white"/>
<path d="M21.3006 15.42L20.8806 16.24L21.5206 16.88L20.6206 16.74L20.2006 17.56L20.0606 16.66L19.1606 16.52L19.9806 16.1L19.8406 15.2L20.4806 15.84L21.3006 15.42Z" fill="white"/>
<path d="M33.9205 9.8799L33.5005 10.6899L34.1505 11.3299L33.2505 11.1999L32.8305 12.0099L32.6905 11.1099L31.7905 10.9699L32.6005 10.5499L32.4705 9.6499L33.1105 10.2999L33.9205 9.8799Z" fill="white"/>
<path d="M30.8903 12.9099L30.4803 13.7199L31.1203 14.3599L30.2203 14.2199L29.8003 15.0399L29.6603 14.1399L28.7603 13.9999L29.5803 13.5799L29.4403 12.6799L30.0803 13.3199L30.8903 12.9099Z" fill="white"/>
<path d="M27.8705 15.93L27.4505 16.75L28.0905 17.39L27.1905 17.25L26.7705 18.07L26.6305 17.17L25.7305 17.03L26.5505 16.61L26.4105 15.71L27.0505 16.35L27.8705 15.93Z" fill="white"/>
<path d="M24.8402 18.96L24.4202 19.78L25.0602 20.42L24.1602 20.28L23.7402 21.1L23.6002 20.2L22.7002 20.06L23.5202 19.64L23.3802 18.74L24.0202 19.38L24.8402 18.96Z" fill="white"/>
<path d="M37.4606 13.4199L37.0406 14.2299L37.6906 14.8699L36.7906 14.7399L36.3706 15.5499L36.2306 14.6499L35.3306 14.5099L36.1406 14.0899L36.0106 13.1899L36.6506 13.8299L37.4606 13.4199Z" fill="white"/>
<path d="M34.4303 16.45L34.0203 17.26L34.6603 17.9L33.7603 17.76L33.3403 18.58L33.2003 17.68L32.3003 17.54L33.1103 17.12L32.9803 16.22L33.6203 16.86L34.4303 16.45Z" fill="white"/>
<path d="M31.4005 19.47L30.9905 20.29L31.6305 20.93L30.7305 20.79L30.3105 21.61L30.1705 20.71L29.2705 20.57L30.0905 20.15L29.9505 19.25L30.5905 19.89L31.4005 19.47Z" fill="white"/>
<path d="M28.3802 22.4999L27.9602 23.3199L28.6002 23.9599L27.7002 23.8199L27.2802 24.6399L27.1402 23.7399L26.2402 23.5999L27.0602 23.1799L26.9202 22.2799L27.5602 22.9199L28.3802 22.4999Z" fill="white"/>
<path d="M41.0006 16.96L40.5806 17.77L41.2306 18.41L40.3306 18.28L39.9106 19.09L39.7706 18.19L38.8706 18.05L39.6806 17.63L39.5506 16.73L40.1906 17.37L41.0006 16.96Z" fill="white"/>
<path d="M37.9703 19.9899L37.5503 20.7999L38.2003 21.4399L37.3003 21.2999L36.8803 22.1199L36.7403 21.2199L35.8403 21.0799L36.6503 20.6599L36.5203 19.7599L37.1603 20.3999L37.9703 19.9899Z" fill="white"/>
<path d="M34.9405 23.0099L34.5305 23.8299L35.1705 24.4699L34.2705 24.3299L33.8505 25.1499L33.7105 24.2499L32.8105 24.1099L33.6305 23.6899L33.4905 22.7899L34.1305 23.4299L34.9405 23.0099Z" fill="white"/>
<path d="M31.9203 26.0399L31.5003 26.8599L32.1403 27.4999L31.2403 27.3599L30.8203 28.1799L30.6803 27.2799L29.7803 27.1399L30.6003 26.7199L30.4603 25.8199L31.1003 26.4599L31.9203 26.0399Z" fill="white"/>
<path d="M44.5406 20.4999L44.1206 21.3099L44.7706 21.9499L43.8606 21.8099L43.4506 22.6299L43.3106 21.7299L42.4106 21.5899L43.2206 21.1699L43.0906 20.2699L43.7306 20.9099L44.5406 20.4999Z" fill="white"/>
<path d="M41.5104 23.5199L41.0904 24.3399L41.7404 24.9799L40.8404 24.8399L40.4204 25.6599L40.2804 24.7599L39.3804 24.6199L40.1904 24.1999L40.0604 23.2999L40.7004 23.9399L41.5104 23.5199Z" fill="white"/>
<path d="M38.4806 26.55L38.0706 27.37L38.7106 28.01L37.8106 27.87L37.3906 28.69L37.2506 27.79L36.3506 27.65L37.1706 27.23L37.0306 26.33L37.6706 26.97L38.4806 26.55Z" fill="white"/>
<path d="M35.4603 29.58L35.0403 30.4L35.6803 31.04L34.7803 30.9L34.3603 31.72L34.2203 30.82L33.3203 30.68L34.1403 30.26L34.0003 29.36L34.6403 30L35.4603 29.58Z" fill="white"/>
<path d="M27.1605 6.06998L26.7405 6.87998L27.3805 7.52998L26.4805 7.38998L26.0605 8.19998L25.9205 7.29998L25.0205 7.15998L25.8405 6.74998L25.7005 5.84998L26.3405 6.48998L27.1605 6.06998Z" fill="white"/>
<path d="M24.1305 9.1L23.7105 9.91L24.3505 10.55L23.4505 10.42L23.0305 11.23L22.9005 10.33L22.0005 10.19L22.8105 9.78L22.6705 8.88L23.3105 9.52L24.1305 9.1Z" fill="white"/>
<path d="M21.1002 12.1299L20.6802 12.9399L21.3202 13.5799L20.4202 13.4499L20.0002 14.2599L19.8702 13.3599L18.9702 13.2199L19.7802 12.7999L19.6402 11.8999L20.2902 12.5499L21.1002 12.1299Z" fill="white"/>
<path d="M18.0704 15.1599L17.6504 15.9699L18.2904 16.6099L17.3904 16.4699L16.9804 17.2899L16.8404 16.3899L15.9404 16.2499L16.7504 15.8299L16.6104 14.9299L17.2604 15.5699L18.0704 15.1599Z" fill="white"/>
<path d="M33.6803 6.52994L33.2603 7.34994L33.9003 7.98994L33.0003 7.84994L32.5803 8.66994L32.4503 7.76994L31.5503 7.62994L32.3603 7.20994L32.2203 6.30994L32.8603 6.94994L33.6803 6.52994Z" fill="white"/>
<path d="M30.6505 9.55997L30.2305 10.38L30.8705 11.02L29.9705 10.88L29.5605 11.7L29.4205 10.8L28.5205 10.66L29.3305 10.24L29.1905 9.33997L29.8405 9.97997L30.6505 9.55997Z" fill="white"/>
<path d="M27.6202 12.59L27.2002 13.41L27.8402 14.05L26.9402 13.91L26.5302 14.72L26.3902 13.82L25.4902 13.69L26.3002 13.27L26.1702 12.37L26.8102 13.01L27.6202 12.59Z" fill="white"/>
<path d="M24.5904 15.6199L24.1704 16.4299L24.8204 17.0799L23.9204 16.9399L23.5004 17.7499L23.3604 16.8499L22.4604 16.7199L23.2704 16.2999L23.1404 15.3999L23.7804 16.0399L24.5904 15.6199Z" fill="white"/>
<path d="M21.5607 18.6499L21.1507 19.4599L21.7907 20.1099L20.8907 19.9699L20.4707 20.7799L20.3307 19.8799L19.4307 19.7399L20.2507 19.3299L20.1107 18.4299L20.7507 19.0699L21.5607 18.6499Z" fill="white"/>
<path d="M37.2704 10.1199L36.8504 10.9399L37.4904 11.5799L36.5904 11.4399L36.1704 12.2499L36.0304 11.3499L35.1304 11.2199L35.9504 10.7999L35.8104 9.8999L36.4504 10.5399L37.2704 10.1199Z" fill="white"/>
<path d="M34.2406 13.1499L33.8206 13.9599L34.4606 14.6099L33.5606 14.4699L33.1406 15.2799L33.0006 14.3799L32.1006 14.2399L32.9206 13.8299L32.7806 12.9299L33.4206 13.5699L34.2406 13.1499Z" fill="white"/>
<path d="M31.2106 16.18L30.7906 16.99L31.4306 17.63L30.5306 17.5L30.1106 18.31L29.9806 17.41L29.0806 17.27L29.8906 16.85L29.7506 15.95L30.3906 16.6L31.2106 16.18Z" fill="white"/>
<path d="M28.1803 19.21L27.7603 20.02L28.4003 20.66L27.5003 20.53L27.0803 21.34L26.9503 20.44L26.0503 20.3L26.8603 19.88L26.7203 18.98L27.3603 19.63L28.1803 19.21Z" fill="white"/>
<path d="M25.1505 22.2399L24.7305 23.0499L25.3705 23.6899L24.4705 23.5499L24.0605 24.3699L23.9205 23.4699L23.0205 23.3299L23.8305 22.9099L23.6905 22.0099L24.3405 22.6499L25.1505 22.2399Z" fill="white"/>
<path d="M40.7804 13.6399L40.3604 14.4499L41.0104 15.0899L40.1104 14.9499L39.6904 15.7699L39.5504 14.8699L38.6504 14.7299L39.4604 14.3099L39.3304 13.4099L39.9704 14.0499L40.7804 13.6399Z" fill="white"/>
<path d="M37.7506 16.6699L37.3406 17.4799L37.9806 18.1199L37.0806 17.9799L36.6606 18.7999L36.5206 17.8999L35.6206 17.7599L36.4406 17.3399L36.3006 16.4399L36.9406 17.0799L37.7506 16.6699Z" fill="white"/>
<path d="M34.7203 19.69L34.3103 20.51L34.9503 21.15L34.0503 21.01L33.6303 21.83L33.4903 20.93L32.5903 20.79L33.4103 20.37L33.2703 19.47L33.9103 20.11L34.7203 19.69Z" fill="white"/>
<path d="M31.7005 22.72L31.2805 23.54L31.9205 24.18L31.0205 24.04L30.6005 24.86L30.4605 23.96L29.5605 23.82L30.3805 23.4L30.2405 22.5L30.8805 23.14L31.7005 22.72Z" fill="white"/>
<path d="M28.6703 25.7499L28.2503 26.5699L28.8903 27.2099L27.9903 27.0699L27.5703 27.8899L27.4303 26.9899L26.5303 26.8499L27.3503 26.4299L27.2103 25.5299L27.8503 26.1699L28.6703 25.7499Z" fill="white"/>
<path d="M44.3004 17.1499L43.8804 17.9699L44.5204 18.6099L43.6204 18.4699L43.2004 19.2899L43.0704 18.3899L42.1704 18.2499L42.9804 17.8299L42.8404 16.9299L43.4804 17.5699L44.3004 17.1499Z" fill="white"/>
<path d="M41.2706 20.18L40.8506 21L41.4906 21.64L40.5906 21.5L40.1706 22.31L40.0406 21.41L39.1406 21.28L39.9506 20.86L39.8106 19.96L40.4506 20.6L41.2706 20.18Z" fill="white"/>
<path d="M38.2404 23.21L37.8204 24.03L38.4604 24.67L37.5604 24.53L37.1504 25.34L37.0104 24.44L36.1104 24.31L36.9204 23.89L36.7804 22.99L37.4304 23.63L38.2404 23.21Z" fill="white"/>
<path d="M35.2106 26.2399L34.7906 27.0499L35.4406 27.6999L34.5406 27.5599L34.1206 28.3699L33.9806 27.4699L33.0806 27.3299L33.8906 26.9199L33.7606 26.0199L34.4006 26.6599L35.2106 26.2399Z" fill="white"/>
<path d="M32.1803 29.2699L31.7603 30.0799L32.4103 30.7199L31.5103 30.5899L31.0903 31.3999L30.9503 30.4999L30.0503 30.3599L30.8603 29.9399L30.7303 29.0399L31.3703 29.6899L32.1803 29.2699Z" fill="white"/>
<path d="M47.8905 20.7399L47.4705 21.5499L48.1105 22.1999L47.2105 22.0599L46.7905 22.8699L46.6505 21.9699L45.7505 21.8299L46.5705 21.4199L46.4305 20.5199L47.0705 21.1599L47.8905 20.7399Z" fill="white"/>
<path d="M44.8602 23.7699L44.4402 24.5799L45.0802 25.2199L44.1802 25.0899L43.7602 25.8999L43.6202 24.9999L42.7202 24.8599L43.5402 24.4499L43.4002 23.5399L44.0402 24.1899L44.8602 23.7699Z" fill="white"/>
<path d="M41.8304 26.7999L41.4104 27.6099L42.0504 28.2499L41.1504 28.1199L40.7304 28.9299L40.5904 28.0299L39.6904 27.8899L40.5104 27.4699L40.3704 26.5699L41.0104 27.2199L41.8304 26.7999Z" fill="white"/>
<path d="M38.8004 29.83L38.3804 30.64L39.0204 31.28L38.1204 31.14L37.7004 31.96L37.5704 31.06L36.6704 30.92L37.4804 30.5L37.3404 29.6L37.9804 30.24L38.8004 29.83Z" fill="white"/>
<path d="M35.7706 32.85L35.3506 33.67L35.9906 34.31L35.0906 34.17L34.6706 34.99L34.5406 34.09L33.6406 33.95L34.4506 33.53L34.3106 32.63L34.9606 33.27L35.7706 32.85Z" fill="white"/>
<path d="M31.5602 86.4199C31.1102 85.9699 31.1102 85.2499 31.5602 84.8099L73.1902 43.1799C73.6402 42.7299 74.3602 42.7299 74.8002 43.1799C75.2502 43.6299 75.2502 44.3499 74.8002 44.7899L33.1702 86.4199C32.7302 86.8699 32.0102 86.8699 31.5602 86.4199Z" fill="#2D3545"/>
</g>
<defs>
<clipPath id="clip0_223_2885">
<rect width="74.19" height="86.1" fill="white" transform="translate(0.950195 0.659912)"/>
</clipPath>
</defs>
</svg>
