<svg width="26" height="42" viewBox="0 0 26 42" fill="none" xmlns="http://www.w3.org/2000/svg">
<g clip-path="url(#clip0_223_2950)">
<path d="M20.0601 41.2799H5.60014C2.58014 41.2799 0.140137 38.8299 0.140137 35.8199V5.59989C0.140137 2.57989 2.58014 0.139893 5.60014 0.139893H20.0601C23.0801 0.139893 25.5201 2.57989 25.5201 5.59989V35.8199C25.5201 38.8299 23.0801 41.2799 20.0601 41.2799Z" fill="#FFDF00"/>
<path d="M20.4602 39.3199H7.4802C7.0502 39.3199 6.7002 38.9699 6.7002 38.5399C6.7002 38.1099 7.0502 37.7599 7.4802 37.7599H20.4602C21.3002 37.7599 21.9802 37.0799 21.9802 36.2399V15.5899C21.9802 15.1599 22.3302 14.8099 22.7602 14.8099C23.1902 14.8099 23.5402 15.1599 23.5402 15.5899V36.2499C23.5302 37.9399 22.1502 39.3199 20.4602 39.3199Z" fill="#CCAF06"/>
</g>
<defs>
<clipPath id="clip0_223_2950">
<rect width="25.38" height="41.14" fill="white" transform="translate(0.140137 0.139893)"/>
</clipPath>
</defs>
</svg>
