<svg width="50" height="51" viewBox="0 0 50 51" fill="none" xmlns="http://www.w3.org/2000/svg">
<g clip-path="url(#clip0_223_2978)">
<path d="M42.1118 42.8788C51.7459 33.2447 51.7459 17.6247 42.1118 7.99054C32.4776 -1.64361 16.8576 -1.64361 7.22345 7.99054C-2.41069 17.6247 -2.41069 33.2447 7.22345 42.8788C16.8576 52.513 32.4776 52.513 42.1118 42.8788Z" fill="#ECECEC"/>
<path d="M37.51 4.63989C41.1 8.92989 43.27 14.4499 43.27 20.4799C43.27 34.1099 32.22 45.1499 18.6 45.1499C13.9 45.1499 9.51002 43.8399 5.77002 41.5599C10.3 46.9599 17.09 50.3899 24.69 50.3899C38.32 50.3899 49.36 39.3399 49.36 25.7199C49.36 16.7899 44.62 8.96989 37.51 4.63989Z" fill="#CECECE"/>
<path d="M23.5498 49.0599L23.5098 48.7599C23.5198 48.7599 24.5598 48.6299 25.7798 47.5799C26.9098 46.6099 28.4298 44.6199 29.2698 40.6799C31.0598 32.2299 28.8798 25.5399 28.8598 25.4799L29.1398 25.3899C29.1598 25.4599 31.3698 32.2199 29.5598 40.7499C28.6998 44.7799 27.1298 46.8299 25.9598 47.8299C24.6698 48.9299 23.5898 49.0599 23.5498 49.0599Z" fill="#878783"/>
<path d="M47.7001 30.4898C44.6801 22.8798 39.5701 19.3398 35.8201 17.7098C31.7601 15.9498 28.3701 15.9798 28.3301 15.9798V15.6798C28.3601 15.6798 31.8101 15.6498 35.9401 17.4398C38.3601 18.4898 40.5401 19.9598 42.4101 21.7898C44.7501 24.0898 46.6301 26.9798 47.9801 30.3798L47.7001 30.4898Z" fill="#878783"/>
<path d="M28.8601 15.1399L28.6201 14.9599C29.6601 13.5399 31.3601 10.7099 33.0001 7.97989C34.0501 6.22989 35.0501 4.56989 35.8101 3.38989L36.0601 3.54989C35.3001 4.72989 34.3101 6.37989 33.2601 8.13989C31.6001 10.8699 29.9001 13.7099 28.8601 15.1399Z" fill="#878783"/>
<path d="M27.2998 15.4599C27.2798 15.4299 25.7198 12.6299 22.5898 10.2499C19.6998 8.04991 14.8398 5.75991 8.09979 7.32991L8.02979 7.03991C11.0598 6.33991 13.9698 6.32991 16.6798 7.02991C18.8498 7.58991 20.8998 8.58991 22.7698 10.0199C25.9498 12.4499 27.5398 15.2899 27.5498 15.3199L27.2998 15.4599Z" fill="#878783"/>
<path d="M3.91988 38.5899L3.62988 38.5299C7.06988 20.9999 20.0999 19.7499 25.6699 19.2099C26.2799 19.1499 26.7999 19.0999 27.2099 19.0399L27.2599 19.3299C26.8499 19.3899 26.3199 19.4399 25.7099 19.4999C20.1999 20.0399 7.31988 21.2699 3.91988 38.5899Z" fill="#878783"/>
<path d="M33.14 8.1499L21.67 9.3599L19.27 20.6399L29.26 26.3999L37.83 18.6899L33.14 8.1499Z" fill="#373735"/>
<path d="M4.9502 10.6099L11.5702 6.70991V4.52991C9.1802 6.06991 6.6702 8.34991 4.9502 10.6099Z" fill="#373735"/>
<path d="M31.46 1.70984L35.04 4.88984L39.94 6.04984C39.94 6.04984 37.94 4.37984 36.75 3.67984C34.51 2.36984 31.46 1.70984 31.46 1.70984Z" fill="#373735"/>
<path d="M22.0702 46.5598C15.0902 46.5598 8.6702 40.2198 7.4502 38.6498L7.6802 38.4698C8.8802 40.0198 15.2002 46.2698 22.0602 46.2698V46.5598H22.0702Z" fill="#878783"/>
<path d="M37.5599 44.3799L37.3999 44.1299C40.2499 42.2299 42.4399 39.6899 43.9099 36.5599L44.1799 36.6899C42.6799 39.8599 40.4599 42.4499 37.5599 44.3799Z" fill="#878783"/>
<path d="M48.0098 25.1798L47.7198 25.1098C48.3598 22.5498 47.7598 18.7098 46.0598 14.5598C44.6298 11.0698 42.2298 8.15985 41.5898 7.46985C42.4898 8.22985 44.8798 10.8898 46.3398 14.4398C48.0598 18.6498 48.6698 22.5598 48.0098 25.1798Z" fill="#878783"/>
<path d="M1.72997 27.1299C0.719974 22.1999 1.68997 14.6099 4.70997 10.9299C3.37997 12.5499 2.41997 15.3599 1.92997 18.4999C1.46997 21.4299 1.49997 24.5599 2.01997 27.0699L1.72997 27.1299Z" fill="#878783"/>
<path d="M5.08 40.7199L9.75 40.5699L8.57 27.0999L1.51 25.1399L0 27.0999C0 31.7899 2.29 37.9799 5.08 40.7199Z" fill="#373735"/>
<path d="M18.79 45.8399L21.49 49.8999C22.53 50.0299 23.59 50.0999 24.67 50.0999C29.15 50.0999 33.35 48.9099 36.97 46.8199L38.5 43.5399L29.59 38.5999L18.79 45.8399Z" fill="#373735"/>
<path d="M42.96 38.6099H45.54C47.95 34.7999 49.35 30.2799 49.35 25.4399C49.35 25.3399 49.35 24.1799 49.35 24.0899L48.15 23.0499L44.38 23.9999L42.96 38.6099Z" fill="#373735"/>
</g>
<defs>
<clipPath id="clip0_223_2978">
<rect width="49.36" height="49.64" fill="white" transform="translate(0 0.759888)"/>
</clipPath>
</defs>
</svg>
