<svg width="74" height="87" viewBox="0 0 74 87" fill="none" xmlns="http://www.w3.org/2000/svg">
<g clip-path="url(#clip0_223_2603)">
<path d="M28.0224 0.878384L0 28.9008L43.5008 72.4015L71.5232 44.3792L28.0224 0.878384Z" fill="#009B2D"/>
<path d="M19.3901 20.2L46.3301 26L52.2301 52.99L25.1501 47.25L19.3901 20.2Z" fill="#FFDF00"/>
<path d="M42.6946 43.5812C46.5725 39.7033 46.6105 33.454 42.7795 29.623C38.9485 25.792 32.6992 25.83 28.8213 29.7079C24.9434 33.5857 24.9054 39.835 28.7365 43.666C32.5675 47.497 38.8167 47.459 42.6946 43.5812Z" fill="#002279"/>
<path d="M37.8798 33.24C41.6098 38.99 41.5598 44.56 41.5598 44.56C40.9398 45.03 40.1898 45.42 40.1898 45.42C40.0598 39.45 37.0398 34.86 37.0398 34.86C34.4798 30.64 30.8198 28.17 30.8198 28.17C31.3098 27.87 32.2698 27.46 32.2698 27.46C32.2698 27.46 35.0098 29.33 37.8798 33.24Z" fill="white"/>
<path d="M31.6502 29.43L31.5002 29.7L31.7202 29.92L31.4202 29.87L31.2802 30.14L31.2302 29.84L30.9302 29.8L31.2002 29.65L31.1502 29.35L31.3702 29.57L31.6502 29.43Z" fill="white"/>
<path d="M33.0699 34.03L32.9399 34.27L33.1299 34.46L32.8699 34.42L32.7399 34.66L32.6999 34.39L32.4399 34.35L32.6799 34.23L32.6399 33.96L32.8299 34.15L33.0699 34.03Z" fill="white"/>
<path d="M30.2999 33.37L30.2199 33.52L30.3399 33.63L30.1799 33.61L30.0999 33.76L30.0799 33.59L29.9199 33.57L30.0599 33.5L30.0399 33.33L30.1499 33.45L30.2999 33.37Z" fill="white"/>
<path d="M29.32 32.9699L29.17 33.2799L29.41 33.5199L29.07 33.4699L28.91 33.7699L28.86 33.4399L28.52 33.3799L28.83 33.2299L28.78 32.8899L29.02 33.1299L29.32 32.9699Z" fill="white"/>
<path d="M27.7502 32.82L27.6402 33.05L27.8202 33.23L27.5702 33.19L27.4502 33.41L27.4102 33.16L27.1602 33.13L27.3902 33.01L27.3502 32.76L27.5302 32.94L27.7502 32.82Z" fill="white"/>
<path d="M29.9899 35.19L29.8799 35.42L30.0499 35.6L29.7999 35.56L29.6899 35.78L29.6499 35.54L29.3999 35.5L29.6299 35.38L29.5899 35.13L29.7699 35.31L29.9899 35.19Z" fill="white"/>
<path d="M29.0797 35.69L28.9597 35.91L29.1397 36.09L28.8897 36.05L28.7697 36.28L28.7397 36.03L28.4897 35.99L28.7097 35.88L28.6697 35.63L28.8497 35.8L29.0797 35.69Z" fill="white"/>
<path d="M29.4998 37.32L29.3698 37.57L29.5698 37.77L29.2898 37.72L29.1598 37.98L29.1198 37.7L28.8398 37.66L29.0898 37.53L29.0498 37.25L29.2498 37.45L29.4998 37.32Z" fill="white"/>
<path d="M32.8402 39.53L32.7102 39.78L32.9102 39.98L32.6302 39.93L32.5002 40.19L32.4602 39.91L32.1802 39.86L32.4302 39.74L32.3902 39.46L32.5902 39.65L32.8402 39.53Z" fill="white"/>
<path d="M35.0299 38.9599L34.9099 39.1899L35.0999 39.3799L34.8399 39.3399L34.7199 39.5699L34.6799 39.3099L34.4199 39.2699L34.6599 39.1499L34.6199 38.8999L34.7999 39.0799L35.0299 38.9599Z" fill="white"/>
<path d="M34.86 37.4999L34.74 37.7399L34.92 37.9199L34.66 37.8799L34.54 38.1199L34.5 37.8599L34.25 37.8199L34.48 37.6999L34.44 37.4399L34.62 37.6199L34.86 37.4999Z" fill="white"/>
<path d="M33.5097 37.4499L33.4097 37.6599L33.5697 37.8199L33.3397 37.7799L33.2397 37.9899L33.1997 37.7599L32.9697 37.7299L33.1797 37.6199L33.1397 37.3899L33.3097 37.5499L33.5097 37.4499Z" fill="white"/>
<path d="M33.2999 38.3599L33.2199 38.5099L33.3399 38.6299L33.1699 38.6099L33.0899 38.7599L33.0699 38.5899L32.8999 38.5699L33.0499 38.4899L33.0199 38.3199L33.1499 38.4399L33.2999 38.3599Z" fill="white"/>
<path d="M38.13 38.02L38.05 38.17L38.17 38.29L38 38.27L37.92 38.42L37.9 38.25L37.73 38.23L37.88 38.15L37.85 37.98L37.97 38.1L38.13 38.02Z" fill="white"/>
<path d="M40.3901 36.29L40.2401 36.58L40.4601 36.8L40.1501 36.75L40.0001 37.04L39.9501 36.72L39.6401 36.68L39.9301 36.53L39.8801 36.22L40.1001 36.44L40.3901 36.29Z" fill="white"/>
<path d="M38.4302 43.66L38.2802 43.94L38.5002 44.16L38.1902 44.12L38.0402 44.4L37.9902 44.09L37.6802 44.04L37.9602 43.89L37.9202 43.58L38.1402 43.8L38.4302 43.66Z" fill="white"/>
<path d="M37.0599 44.7199L36.9399 44.9599L37.1299 45.1499L36.8699 45.1099L36.7399 45.3499L36.6999 45.0799L36.4399 45.0399L36.6799 44.9199L36.6399 44.6599L36.8299 44.8499L37.0599 44.7199Z" fill="white"/>
<path d="M38.0302 44.6199L37.9102 44.8499L38.1002 45.0399L37.8302 44.9999L37.7102 45.2399L37.6702 44.9799L37.4102 44.9399L37.6502 44.8099L37.6102 44.5499L37.7902 44.7399L38.0302 44.6199Z" fill="white"/>
<path d="M39.2398 44.76L39.1398 44.95L39.2898 45.09L39.0898 45.06L38.9898 45.24L38.9598 45.04L38.7598 45.01L38.9398 44.92L38.9098 44.72L39.0598 44.86L39.2398 44.76Z" fill="white"/>
<path d="M36.0899 44.5999L35.9999 44.7799L36.1399 44.9199L35.9399 44.8899L35.8399 45.0799L35.8099 44.8699L35.6099 44.8399L35.7899 44.7499L35.7599 44.5499L35.9099 44.6899L36.0899 44.5999Z" fill="white"/>
<path d="M34.8798 44.43L34.7698 44.64L34.9398 44.81L34.7098 44.77L34.5998 44.98L34.5698 44.75L34.3398 44.71L34.5398 44.61L34.5098 44.38L34.6698 44.54L34.8798 44.43Z" fill="white"/>
<path d="M35.4898 43.7399L35.3998 43.9099L35.5298 44.0499L35.3398 44.0199L35.2498 44.1899L35.2198 43.9999L35.0298 43.9699L35.2098 43.8799L35.1798 43.6899L35.3098 43.8299L35.4898 43.7399Z" fill="white"/>
<path d="M34.4898 43.2399L34.3998 43.4099L34.5298 43.5499L34.3398 43.5199L34.2498 43.6899L34.2198 43.4999L34.0298 43.4699L34.2098 43.3799L34.1798 43.1899L34.3098 43.3299L34.4898 43.2399Z" fill="white"/>
<path d="M33.5298 41.91L33.4398 42.08L33.5698 42.22L33.3798 42.19L33.2898 42.36L33.2598 42.17L33.0698 42.14L33.2498 42.05L33.2198 41.86L33.3498 42L33.5298 41.91Z" fill="white"/>
<path d="M34.1102 45.1999L34.0202 45.3699L34.1602 45.5099L33.9702 45.4799L33.8802 45.6499L33.8502 45.4599L33.6602 45.4299L33.8302 45.3399L33.8002 45.1499L33.9402 45.2899L34.1102 45.1999Z" fill="white"/>
<path d="M33.3098 43.2299L33.1998 43.4399L33.3698 43.6099L33.1398 43.5699L33.0298 43.7799L32.9898 43.5499L32.7598 43.5099L32.9698 43.4099L32.9398 43.1699L33.0998 43.3399L33.3098 43.2299Z" fill="white"/>
<path d="M30.3599 42.0399L30.3099 42.1399L30.3899 42.2199L30.2799 42.1999L30.2299 42.2999L30.2099 42.1899L30.1099 42.1799L30.1999 42.1199L30.1899 42.0199L30.2599 42.0899L30.3599 42.0399Z" fill="white"/>
<path d="M32.4801 28.48C32.3201 28.72 32.0801 28.73 31.8901 28.59C31.6901 28.44 31.6401 28.2 31.7701 27.98C31.9101 27.75 32.1601 27.71 32.3601 27.87C32.5801 28.02 32.6201 28.27 32.4801 28.48ZM31.8801 28.05C31.7901 28.2 31.7901 28.4 31.9401 28.52C32.0901 28.63 32.2701 28.57 32.3701 28.41C32.4601 28.27 32.4801 28.06 32.3101 27.94C32.1501 27.81 31.9801 27.89 31.8801 28.05Z" fill="#009B2D"/>
<path d="M33.1599 28.52C33.2199 28.55 33.2899 28.6 33.3499 28.66C33.4499 28.75 33.5099 28.82 33.5199 28.9C33.5299 28.96 33.5199 29.02 33.4799 29.08C33.4099 29.17 33.3099 29.17 33.2199 29.13C33.2599 29.2 33.2599 29.27 33.2199 29.35C33.1699 29.46 33.1399 29.54 33.1299 29.58C33.0999 29.55 33.0699 29.53 33.0399 29.5C33.0399 29.47 33.0699 29.4 33.1099 29.3C33.1599 29.19 33.1499 29.12 33.0599 29.05C33.0299 29.03 32.9999 29 32.9699 28.98C32.8999 29.08 32.8299 29.18 32.7599 29.27C32.7299 29.24 32.6999 29.22 32.6699 29.19C32.8399 28.97 32.9999 28.74 33.1599 28.52ZM33.0399 28.91C33.0699 28.94 33.0999 28.96 33.1399 28.99C33.2399 29.07 33.3399 29.08 33.3999 29C33.4699 28.91 33.4299 28.82 33.3299 28.73C33.2799 28.69 33.2499 28.67 33.2299 28.66C33.1599 28.74 33.0999 28.82 33.0399 28.91Z" fill="#009B2D"/>
<path d="M34.0701 29.3099C34.1301 29.3499 34.2001 29.4099 34.2801 29.4799C34.4101 29.5999 34.4801 29.7199 34.4901 29.8299C34.5101 29.9399 34.4801 30.0499 34.3901 30.1499C34.3001 30.2499 34.1901 30.2999 34.0801 30.2999C33.9701 30.2999 33.8401 30.2299 33.7101 30.1099C33.6501 30.0499 33.6001 29.9999 33.5601 29.9499C33.7201 29.7299 33.9001 29.5199 34.0701 29.3099ZM33.6901 29.9599C33.7101 29.9799 33.7401 30.0199 33.7701 30.0499C33.9601 30.2299 34.1401 30.2299 34.2901 30.0599C34.4201 29.9099 34.4101 29.7299 34.2201 29.5499C34.1701 29.5099 34.1301 29.4799 34.1101 29.4599C33.9701 29.6199 33.8301 29.7899 33.6901 29.9599Z" fill="#009B2D"/>
<path d="M35.1 30.94C35.02 30.85 34.93 30.76 34.85 30.67C34.78 30.74 34.71 30.81 34.64 30.89C34.73 30.99 34.82 31.09 34.91 31.18C34.89 31.2 34.87 31.22 34.85 31.24C34.73 31.11 34.62 30.99 34.5 30.86C34.69 30.66 34.88 30.46 35.07 30.26C35.19 30.39 35.31 30.51 35.43 30.64C35.41 30.66 35.39 30.68 35.37 30.7C35.28 30.6 35.19 30.51 35.1 30.41C35.04 30.47 34.98 30.54 34.92 30.6C35 30.69 35.09 30.78 35.17 30.87C35.14 30.9 35.12 30.92 35.1 30.94Z" fill="#009B2D"/>
<path d="M36.0002 32.03C36.0802 31.95 36.1802 31.85 36.2602 31.79C36.1702 31.83 36.0602 31.86 35.9502 31.9C35.8102 31.95 35.6802 31.99 35.5502 32.04C35.5302 32.02 35.5102 31.99 35.4902 31.97C35.5602 31.84 35.6202 31.72 35.6802 31.59C35.7402 31.48 35.7902 31.38 35.8502 31.29C35.7702 31.36 35.6702 31.45 35.5702 31.52C35.4802 31.59 35.3902 31.67 35.2902 31.74C35.2702 31.71 35.2402 31.68 35.2202 31.65C35.4302 31.48 35.6502 31.3 35.8702 31.13C35.9002 31.17 35.9402 31.21 35.9702 31.25C35.9102 31.38 35.8402 31.51 35.7802 31.64C35.7302 31.74 35.6802 31.82 35.6302 31.9C35.7102 31.86 35.8002 31.83 35.9002 31.79C36.0402 31.74 36.1702 31.7 36.3102 31.66C36.3402 31.7 36.3802 31.74 36.4102 31.78C36.2102 31.97 36.0202 32.17 35.8202 32.36C35.8002 32.33 35.7702 32.3 35.7502 32.27C35.8202 32.2 35.9102 32.12 36.0002 32.03Z" fill="#009B2D"/>
<path d="M37.1601 33.5899C37.0901 33.4899 37.0201 33.3899 36.9601 33.2899C36.8801 33.3499 36.8001 33.4099 36.7201 33.4599C36.8001 33.5699 36.8701 33.6799 36.9401 33.7899C36.9201 33.8099 36.8901 33.8199 36.8701 33.8399C36.7701 33.6999 36.6801 33.5499 36.5801 33.4099C36.8001 33.2499 37.0201 33.0799 37.2401 32.9199C37.3401 33.0599 37.4401 33.2099 37.5301 33.3499C37.5101 33.3699 37.4801 33.3799 37.4601 33.3999C37.3901 33.2899 37.3101 33.1799 37.2401 33.0699C37.1701 33.1199 37.1001 33.1699 37.0301 33.2199C37.1001 33.3199 37.1701 33.4199 37.2401 33.5199C37.2101 33.5599 37.1901 33.5799 37.1601 33.5899Z" fill="#009B2D"/>
<path d="M38.2303 34.51C38.2703 34.56 38.3103 34.62 38.3603 34.71C38.4203 34.82 38.4403 34.91 38.4303 34.98C38.4203 35.05 38.3803 35.1 38.3203 35.14C38.2503 35.18 38.1903 35.18 38.1303 35.16C38.0503 35.13 37.9703 35.06 37.9103 34.95C37.8903 34.92 37.8803 34.89 37.8703 34.86C37.7803 34.92 37.6803 34.97 37.5903 35.03C37.5703 35 37.5503 34.96 37.5303 34.93C37.7703 34.78 38.0003 34.64 38.2303 34.51ZM37.9503 34.81C37.9603 34.84 37.9703 34.87 37.9903 34.9C38.0603 35.03 38.1603 35.08 38.2603 35.02C38.3503 34.97 38.3603 34.86 38.2903 34.74C38.2603 34.69 38.2403 34.66 38.2303 34.64C38.1403 34.71 38.0403 34.76 37.9503 34.81Z" fill="#009B2D"/>
<path d="M38.8001 35.5499C38.8401 35.5999 38.8801 35.6799 38.9201 35.7599C38.9801 35.8799 39.0001 35.9699 38.9801 36.0399C38.9701 36.0999 38.9301 36.1499 38.8701 36.1699C38.7701 36.2199 38.6701 36.1799 38.6001 36.0999C38.6101 36.1799 38.5801 36.2399 38.5101 36.2999C38.4201 36.3799 38.3601 36.4299 38.3401 36.4599C38.3201 36.4199 38.3001 36.3899 38.2901 36.3499C38.3001 36.3299 38.3601 36.2799 38.4401 36.2099C38.5301 36.1399 38.5501 36.0699 38.5001 35.9699C38.4801 35.9399 38.4701 35.8999 38.4501 35.8699C38.3401 35.9199 38.2401 35.9799 38.1301 36.0299C38.1101 35.9899 38.0901 35.9599 38.0801 35.9199C38.3201 35.7999 38.5601 35.6699 38.8001 35.5499ZM38.5201 35.8299C38.5401 35.8699 38.5601 35.8999 38.5801 35.9399C38.6401 36.0599 38.7301 36.0999 38.8101 36.0599C38.9101 36.0099 38.9101 35.9099 38.8501 35.7999C38.8201 35.7499 38.8001 35.7099 38.7901 35.6899C38.7001 35.7399 38.6101 35.7799 38.5201 35.8299Z" fill="#009B2D"/>
<path d="M39.2702 37.5299C39.0102 37.6299 38.7902 37.5099 38.7002 37.2899C38.6102 37.0699 38.6902 36.8399 38.9202 36.7399C39.1602 36.6299 39.3902 36.7399 39.4902 36.9799C39.6002 37.2299 39.5002 37.4499 39.2702 37.5299ZM38.9702 36.8599C38.8102 36.9299 38.7102 37.0899 38.7802 37.2599C38.8502 37.4299 39.0402 37.4799 39.2102 37.4099C39.3602 37.3499 39.4802 37.1999 39.4002 36.9999C39.3302 36.8199 39.1402 36.7899 38.9702 36.8599Z" fill="#009B2D"/>
<path d="M39.35 38.8599C39.32 38.8099 39.26 38.7199 39.22 38.5999C39.17 38.4699 39.17 38.3499 39.21 38.2399C39.25 38.1399 39.33 38.0599 39.45 38.0199C39.68 37.9399 39.92 38.0599 40.03 38.3699C40.07 38.4799 40.07 38.5599 40.07 38.6099C40.04 38.6099 40.01 38.6099 39.98 38.6099C39.98 38.5599 39.98 38.4899 39.95 38.3999C39.87 38.1799 39.7 38.0799 39.51 38.1399C39.31 38.2099 39.25 38.3799 39.32 38.5899C39.35 38.6599 39.37 38.7099 39.39 38.7299C39.47 38.7099 39.55 38.6799 39.62 38.6599C39.6 38.5999 39.58 38.5399 39.56 38.4799C39.59 38.4699 39.61 38.4599 39.64 38.4499C39.67 38.5499 39.71 38.6499 39.74 38.7399C39.6 38.7899 39.48 38.8299 39.35 38.8599Z" fill="#009B2D"/>
<path d="M40.28 39.23C40.31 39.29 40.34 39.37 40.36 39.46C40.4 39.59 40.4 39.68 40.37 39.74C40.35 39.8 40.3 39.83 40.24 39.85C40.13 39.88 40.04 39.82 39.99 39.73C39.99 39.81 39.94 39.86 39.87 39.9C39.77 39.96 39.69 40 39.67 40.02C39.66 39.98 39.65 39.94 39.64 39.9C39.66 39.88 39.72 39.84 39.81 39.79C39.91 39.74 39.94 39.68 39.91 39.57C39.9 39.53 39.89 39.5 39.88 39.46C39.76 39.49 39.65 39.52 39.53 39.55C39.52 39.51 39.51 39.47 39.5 39.44C39.76 39.37 40.02 39.3 40.28 39.23ZM39.95 39.44C39.96 39.48 39.97 39.52 39.99 39.56C40.03 39.69 40.11 39.75 40.2 39.73C40.3 39.7 40.32 39.61 40.29 39.48C40.27 39.42 40.26 39.38 40.25 39.36C40.15 39.39 40.05 39.42 39.95 39.44Z" fill="#009B2D"/>
<path d="M40.2903 40.95C40.2603 40.83 40.2403 40.71 40.2103 40.59C40.1103 40.61 40.0203 40.63 39.9203 40.65C39.9503 40.78 39.9803 40.91 40.0103 41.04C39.9803 41.05 39.9503 41.05 39.9203 41.06C39.8803 40.89 39.8403 40.72 39.8003 40.55C40.0703 40.49 40.3403 40.44 40.6103 40.38C40.6503 40.55 40.6903 40.72 40.7303 40.89C40.7003 40.9 40.6703 40.9 40.6403 40.91C40.6103 40.78 40.5803 40.65 40.5503 40.52C40.4603 40.54 40.3803 40.55 40.2903 40.57C40.3203 40.69 40.3503 40.81 40.3703 40.93C40.3503 40.94 40.3203 40.94 40.2903 40.95Z" fill="#009B2D"/>
<path d="M40.16 41.58C40.14 41.64 40.13 41.72 40.15 41.8C40.17 41.92 40.24 41.98 40.32 41.97C40.4 41.96 40.43 41.91 40.45 41.77C40.47 41.61 40.52 41.51 40.64 41.49C40.77 41.47 40.89 41.58 40.92 41.77C40.94 41.87 40.93 41.94 40.92 41.99C40.89 41.98 40.86 41.97 40.83 41.97C40.84 41.94 40.85 41.87 40.84 41.78C40.82 41.65 40.74 41.61 40.68 41.62C40.6 41.63 40.58 41.69 40.56 41.83C40.53 42 40.48 42.08 40.36 42.1C40.23 42.11 40.11 42.02 40.07 41.81C40.05 41.72 40.06 41.62 40.08 41.57C40.09 41.57 40.12 41.57 40.16 41.58Z" fill="#009B2D"/>
<path d="M40.34 42.66C40.32 42.72 40.3 42.8 40.31 42.88C40.33 43 40.39 43.07 40.48 43.07C40.56 43.07 40.6 43.01 40.62 42.88C40.65 42.72 40.71 42.62 40.82 42.61C40.95 42.6 41.06 42.71 41.09 42.9C41.1 43 41.09 43.07 41.07 43.12C41.04 43.11 41.01 43.1 40.98 43.09C40.99 43.06 41.01 42.99 41 42.9C40.98 42.77 40.91 42.72 40.85 42.73C40.77 42.74 40.74 42.8 40.71 42.93C40.68 43.09 40.62 43.18 40.49 43.19C40.36 43.2 40.24 43.1 40.21 42.88C40.2 42.79 40.21 42.69 40.23 42.64C40.27 42.65 40.3 42.66 40.34 42.66Z" fill="#009B2D"/>
<path d="M40.8103 44.59C40.5203 44.58 40.3603 44.39 40.3503 44.15C40.3303 43.9 40.4903 43.73 40.7403 43.72C41.0003 43.71 41.2003 43.9 41.2103 44.16C41.2203 44.42 41.0503 44.59 40.8103 44.59ZM40.7503 43.85C40.5703 43.85 40.4203 43.97 40.4303 44.15C40.4403 44.34 40.6003 44.45 40.7903 44.45C40.9603 44.45 41.1303 44.35 41.1103 44.14C41.1003 43.94 40.9303 43.84 40.7503 43.85Z" fill="#009B2D"/>
<path d="M29.6603 86.1999C29.2103 85.7499 29.2103 85.0299 29.6603 84.5899L71.2903 42.9599C71.7403 42.5099 72.4603 42.5099 72.9003 42.9599C73.3503 43.4099 73.3503 44.1299 72.9003 44.5699L31.2703 86.1999C30.8303 86.6499 30.1003 86.6499 29.6603 86.1999Z" fill="#2D3545"/>
</g>
<defs>
<clipPath id="clip0_223_2603">
<rect width="73.23" height="85.66" fill="white" transform="translate(0 0.879883)"/>
</clipPath>
</defs>
</svg>
