<svg width="44" height="34" viewBox="0 0 44 34" fill="none" xmlns="http://www.w3.org/2000/svg">
<g clip-path="url(#clip0_222_1836)">
<path d="M40.0902 0.75H36.9502H35.0402H32.7802H30.1802C30.0802 6.95 26.4102 12.14 22.0702 12.14C17.7302 12.14 14.0602 6.95 13.9602 0.75H11.5902H9.32016H7.44016H4.30016H1.16016C1.27016 14.11 10.6102 24.93 22.0602 24.93C33.5102 24.93 42.8502 14.11 42.9602 0.75H40.0902Z" fill="#34D1AF"/>
<path d="M7.76001 3.54003C7.49001 3.60003 7.33001 3.87003 7.39001 4.13003C7.47001 4.46003 7.55001 4.78003 7.64001 5.10003C7.70001 5.32003 7.90001 5.46003 8.11001 5.46003C8.15001 5.46003 8.20001 5.45003 8.24001 5.44003C8.50001 5.38003 8.66001 5.11003 8.59001 4.84003C8.50001 4.53003 8.42001 4.22003 8.35001 3.91003C8.29001 3.64003 8.02001 3.48003 7.76001 3.54003Z" fill="#EE4342"/>
<path d="M6.45024 8.65006C6.34024 8.35006 6.23024 8.05006 6.12024 7.74006C6.04024 7.48006 5.76024 7.35006 5.50024 7.43006C5.25024 7.52006 5.11024 7.80006 5.20024 8.06006C5.31024 8.38006 5.42024 8.69006 5.54024 9.00006C5.61024 9.20006 5.80024 9.32006 6.00024 9.32006C6.06024 9.32006 6.12024 9.31006 6.17024 9.29006C6.42024 9.19006 6.55024 8.91006 6.45024 8.65006Z" fill="#EE4342"/>
<path d="M4.62007 6.13995C4.68007 6.35995 4.88007 6.50995 5.09007 6.50995C5.13007 6.50995 5.17007 6.49995 5.22007 6.48995C5.48007 6.41995 5.64007 6.14995 5.57007 5.88995C5.49007 5.57995 5.41007 5.25995 5.34007 4.94995C5.27007 4.67995 5.01007 4.51995 4.74007 4.57995C4.48007 4.63995 4.31007 4.90995 4.38007 5.16995C4.45007 5.49995 4.53007 5.81995 4.62007 6.13995Z" fill="#EE4342"/>
<path d="M4.71998 1.24001H5.11998H5.69998H5.80998C6.07998 1.24001 6.29998 1.02001 6.29998 0.75001C6.29998 0.48001 6.08998 0.26001 5.81998 0.26001H5.70998H5.11998H4.71998C4.44998 0.26001 4.22998 0.48001 4.22998 0.75001C4.22998 1.02001 4.44998 1.24001 4.71998 1.24001Z" fill="#EE4342"/>
<path d="M8.24006 7.02C8.35006 7.34 8.47006 7.65 8.59006 7.96C8.67006 8.15 8.85006 8.26 9.05006 8.26C9.11006 8.26 9.17006 8.25 9.23006 8.22C9.48006 8.12 9.61006 7.83 9.50006 7.58C9.38006 7.28 9.27006 6.98 9.16006 6.68C9.07006 6.42 8.79006 6.29 8.53006 6.38C8.28006 6.48 8.14006 6.76 8.24006 7.02Z" fill="#EE4342"/>
<path d="M6.30992 10.8501C6.44992 11.1601 6.59992 11.4601 6.74992 11.7501C6.83992 11.9201 7.00992 12.0201 7.18992 12.0201C7.25992 12.0201 7.33992 12.0001 7.40992 11.9701C7.64992 11.8501 7.74992 11.5501 7.62992 11.3101C7.48992 11.0201 7.34992 10.7301 7.20992 10.4401C7.08992 10.1901 6.78992 10.0801 6.54992 10.1901C6.29992 10.3101 6.18992 10.6001 6.30992 10.8501Z" fill="#EE4342"/>
<path d="M8.66997 14.57C8.75997 14.57 8.85996 14.54 8.93996 14.49C9.16996 14.34 9.22997 14.03 9.07997 13.81C8.89997 13.54 8.72997 13.27 8.55997 13C8.41997 12.77 8.11996 12.69 7.87996 12.84C7.64996 12.98 7.56997 13.28 7.71997 13.52C7.88997 13.81 8.06997 14.09 8.25997 14.37C8.34997 14.49 8.50997 14.57 8.66997 14.57Z" fill="#EE4342"/>
<path d="M17.7999 20.96C17.4999 20.86 17.1999 20.74 16.9099 20.62C16.6599 20.51 16.3699 20.63 16.2699 20.88C16.1599 21.13 16.2799 21.42 16.5299 21.52C16.8399 21.65 17.1599 21.77 17.4799 21.88C17.5299 21.9 17.5899 21.91 17.6399 21.91C17.8399 21.91 18.0399 21.78 18.1099 21.58C18.1899 21.33 18.0599 21.05 17.7999 20.96Z" fill="#EE4342"/>
<path d="M15.39 20.44C15.53 20.2 15.45 19.9 15.21 19.77C14.94 19.61 14.67 19.44 14.4 19.27C14.17 19.12 13.87 19.18 13.72 19.41C13.57 19.64 13.63 19.94 13.86 20.09C14.14 20.28 14.43 20.46 14.72 20.63C14.8 20.68 14.88 20.7 14.97 20.7C15.13 20.69 15.3 20.6 15.39 20.44Z" fill="#EE4342"/>
<path d="M20.5702 21.59C20.2602 21.55 19.9502 21.51 19.6302 21.45C19.3602 21.4 19.1102 21.57 19.0502 21.84C19.0002 22.11 19.1702 22.36 19.4402 22.42C19.7702 22.48 20.1102 22.54 20.4502 22.57C20.4702 22.57 20.4902 22.57 20.5102 22.57C20.7602 22.57 20.9702 22.39 21.0002 22.13C21.0302 21.87 20.8402 21.62 20.5702 21.59Z" fill="#EE4342"/>
<path d="M12.8699 18.12C12.6299 17.92 12.3899 17.7 12.1499 17.48C11.9499 17.29 11.6399 17.3 11.4499 17.5C11.2599 17.7 11.2699 18.01 11.4699 18.2C11.7199 18.43 11.9699 18.66 12.2199 18.87C12.3099 18.95 12.4299 18.99 12.5399 18.99C12.6799 18.99 12.8199 18.93 12.9199 18.82C13.1099 18.6 13.0799 18.29 12.8699 18.12Z" fill="#EE4342"/>
<path d="M10.78 16.79C10.98 16.61 11.01 16.3 10.83 16.1C10.62 15.86 10.42 15.61 10.21 15.36C10.04 15.15 9.73002 15.11 9.52002 15.28C9.31002 15.45 9.27002 15.76 9.44002 15.97C9.65002 16.23 9.87002 16.49 10.09 16.74C10.19 16.85 10.32 16.91 10.46 16.91C10.57 16.92 10.69 16.88 10.78 16.79Z" fill="#EE4342"/>
<path d="M39.84 4.76002C39.91 4.44002 39.98 4.11002 40.04 3.78002C40.09 3.51002 39.91 3.26002 39.65 3.21002C39.38 3.16002 39.13 3.34002 39.08 3.60002C39.02 3.92002 38.96 4.24002 38.89 4.55002C38.83 4.82002 39 5.08002 39.27 5.14002C39.31 5.15002 39.34 5.15002 39.38 5.15002C39.58 5.15002 39.79 4.99002 39.84 4.76002Z" fill="#EE4342"/>
<path d="M38.5901 8.00004C38.8001 8.00004 38.9901 7.87004 39.0601 7.66004C39.1601 7.34004 39.2601 7.03004 39.3501 6.70004C39.4301 6.44004 39.2701 6.17004 39.0101 6.09004C38.7501 6.01004 38.4801 6.17004 38.4001 6.43004C38.3101 6.74004 38.2201 7.05004 38.1201 7.36004C38.0401 7.62004 38.1801 7.90004 38.4401 7.98004C38.4901 7.99004 38.5401 8.00004 38.5901 8.00004Z" fill="#EE4342"/>
<path d="M35.4504 6.77996C35.5004 6.79996 35.5504 6.79996 35.6004 6.79996C35.8104 6.79996 36.0004 6.66996 36.0704 6.45996C36.1704 6.13996 36.2704 5.82996 36.3704 5.49996C36.4504 5.23996 36.2904 4.96996 36.0304 4.88996C35.7704 4.81996 35.5004 4.95996 35.4204 5.22996C35.3304 5.53996 35.2304 5.84996 35.1304 6.14996C35.0504 6.40996 35.1904 6.68996 35.4504 6.77996Z" fill="#EE4342"/>
<path d="M37.34 10.71C37.4 10.74 37.47 10.75 37.54 10.75C37.73 10.75 37.91 10.64 37.99 10.46C38.12 10.16 38.25 9.84997 38.38 9.53997C38.48 9.28997 38.36 8.99997 38.11 8.89997C37.86 8.79997 37.57 8.91997 37.47 9.16997C37.35 9.46997 37.22 9.76997 37.09 10.06C36.98 10.31 37.09 10.6 37.34 10.71Z" fill="#EE4342"/>
<path d="M9.63022 9.12995C9.39022 9.24995 9.29022 9.53995 9.41022 9.78995C9.56022 10.0899 9.72022 10.3899 9.88022 10.6799C9.97022 10.8399 10.1402 10.9299 10.3102 10.9299C10.3902 10.9299 10.4702 10.9099 10.5502 10.8699C10.7902 10.7399 10.8702 10.4399 10.7402 10.1999C10.5902 9.91995 10.4402 9.63995 10.2902 9.34995C10.1702 9.10995 9.88022 9.00995 9.63022 9.12995Z" fill="#EE4342"/>
<path d="M35.1102 7.7C34.8602 7.59 34.5702 7.71 34.4602 7.96C34.3402 8.26 34.2102 8.56 34.0702 8.84C33.9502 9.09 34.0602 9.38 34.3102 9.49C34.3802 9.52 34.4502 9.54 34.5202 9.54C34.7102 9.54 34.8802 9.44 34.9702 9.26C35.1102 8.96 35.2502 8.65 35.3802 8.34C35.4802 8.09 35.3602 7.81 35.1102 7.7Z" fill="#EE4342"/>
<path d="M36.6502 2.01005C36.3802 1.96005 36.1302 2.14005 36.0802 2.41005C36.0202 2.73005 35.9602 3.05005 35.9002 3.36005C35.8402 3.63005 36.0102 3.89005 36.2802 3.94005C36.3102 3.95005 36.3502 3.95005 36.3802 3.95005C36.6102 3.95005 36.8102 3.79005 36.8602 3.56005C36.9302 3.24005 36.9902 2.91005 37.0502 2.58005C37.0902 2.31005 36.9102 2.06005 36.6502 2.01005Z" fill="#EE4342"/>
<path d="M11.5302 13.21C11.6302 13.34 11.7702 13.4 11.9202 13.4C12.0202 13.4 12.1302 13.37 12.2202 13.3C12.4402 13.13 12.4802 12.83 12.3102 12.61C12.1202 12.36 11.9302 12.1 11.7502 11.83C11.6002 11.61 11.2902 11.55 11.0702 11.7C10.8502 11.85 10.7902 12.16 10.9402 12.38C11.1302 12.67 11.3302 12.94 11.5302 13.21Z" fill="#EE4342"/>
<path d="M13.57 15.45C13.66 15.54 13.78 15.58 13.9 15.58C14.03 15.58 14.16 15.53 14.26 15.42C14.44 15.22 14.43 14.91 14.23 14.72C14 14.51 13.77 14.28 13.55 14.05C13.36 13.85 13.05 13.85 12.85 14.04C12.65 14.23 12.65 14.54 12.84 14.74C13.09 14.99 13.33 15.23 13.57 15.45Z" fill="#EE4342"/>
<path d="M16.5103 16.44C16.2403 16.28 15.9803 16.11 15.7203 15.92C15.5003 15.76 15.1903 15.82 15.0303 16.04C14.8703 16.26 14.9303 16.57 15.1503 16.73C15.4303 16.93 15.7203 17.11 16.0103 17.28C16.0903 17.33 16.1803 17.35 16.2603 17.35C16.4303 17.35 16.5903 17.26 16.6803 17.11C16.8203 16.88 16.7503 16.58 16.5103 16.44Z" fill="#EE4342"/>
<path d="M18.2 17.28C17.95 17.18 17.66 17.3 17.56 17.56C17.46 17.81 17.58 18.1 17.84 18.2C18.16 18.33 18.48 18.44 18.81 18.54C18.86 18.55 18.9 18.56 18.95 18.56C19.16 18.56 19.36 18.42 19.42 18.21C19.5 17.95 19.35 17.68 19.09 17.6C18.79 17.5 18.49 17.39 18.2 17.28Z" fill="#EE4342"/>
<path d="M20.8204 18.94C21.1604 18.98 21.5004 19 21.8504 19.01H21.8604C22.1304 19.01 22.3504 18.8 22.3504 18.53C22.3604 18.26 22.1404 18.03 21.8704 18.03C21.5604 18.02 21.2404 18 20.9304 17.97C20.6604 17.94 20.4204 18.13 20.3904 18.4C20.3504 18.67 20.5504 18.91 20.8204 18.94Z" fill="#EE4342"/>
<path d="M4.96028 3.04999C4.90028 2.72999 4.86028 2.40999 4.81028 2.08999C4.78028 1.81999 4.53028 1.62999 4.26028 1.66999C3.99028 1.69999 3.80028 1.94999 3.84028 2.21999C3.88028 2.54999 3.93028 2.87999 3.99028 3.20999C4.03028 3.44999 4.24028 3.61999 4.47028 3.61999C4.50028 3.61999 4.52028 3.61999 4.55028 3.60999C4.82028 3.56999 5.00028 3.31999 4.96028 3.04999Z" fill="#EE4342"/>
<path d="M32.6004 18.05C32.7204 18.05 32.8504 18 32.9404 17.91C33.1804 17.68 33.4104 17.44 33.6404 17.19C33.8204 16.99 33.8104 16.68 33.6104 16.49C33.4104 16.31 33.1004 16.32 32.9104 16.52C32.6904 16.76 32.4704 16.99 32.2404 17.21C32.0504 17.4 32.0404 17.71 32.2304 17.91C32.3404 18 32.4704 18.05 32.6004 18.05Z" fill="#EE4342"/>
<path d="M30.8202 18.47C30.5702 18.67 30.3102 18.86 30.0502 19.04C29.8302 19.2 29.7702 19.5 29.9302 19.73C30.0302 19.87 30.1802 19.94 30.3302 19.94C30.4302 19.94 30.5302 19.91 30.6102 19.85C30.8802 19.66 31.1502 19.46 31.4202 19.25C31.6302 19.08 31.6702 18.77 31.5002 18.56C31.3402 18.34 31.0302 18.3 30.8202 18.47Z" fill="#EE4342"/>
<path d="M33.8503 10.37C33.6103 10.23 33.3103 10.31 33.1803 10.55C33.0203 10.83 32.8503 11.1 32.6803 11.37C32.5303 11.6 32.6003 11.9 32.8303 12.05C32.9103 12.1 33.0103 12.13 33.1003 12.13C33.2603 12.13 33.4203 12.05 33.5103 11.91C33.6903 11.63 33.8703 11.34 34.0403 11.05C34.1703 10.81 34.0903 10.51 33.8503 10.37Z" fill="#EE4342"/>
<path d="M36.6201 13.14C36.7901 12.85 36.9501 12.56 37.1101 12.26C37.2401 12.02 37.1501 11.72 36.9101 11.59C36.6701 11.46 36.3701 11.55 36.2401 11.79C36.0901 12.08 35.9301 12.36 35.7701 12.63C35.6301 12.86 35.7101 13.17 35.9501 13.3C36.0301 13.35 36.1101 13.37 36.2001 13.37C36.3601 13.38 36.5301 13.3 36.6201 13.14Z" fill="#EE4342"/>
<path d="M30.2801 15.04C30.1001 14.84 29.7901 14.81 29.5901 14.99C29.3501 15.2 29.1001 15.4 28.8501 15.59C28.6301 15.75 28.5901 16.06 28.7601 16.28C28.8601 16.41 29.0001 16.47 29.1501 16.47C29.2501 16.47 29.3601 16.44 29.4501 16.37C29.7101 16.17 29.9801 15.95 30.2401 15.73C30.4401 15.56 30.4601 15.25 30.2801 15.04Z" fill="#EE4342"/>
<path d="M32.2503 12.85C32.0403 12.68 31.7303 12.71 31.5603 12.93C31.3603 13.18 31.1503 13.42 30.9403 13.66C30.7603 13.86 30.7803 14.17 30.9803 14.35C31.0703 14.43 31.1903 14.48 31.3103 14.48C31.4503 14.48 31.5803 14.42 31.6803 14.32C31.9003 14.07 32.1203 13.81 32.3303 13.55C32.5003 13.33 32.4603 13.02 32.2503 12.85Z" fill="#EE4342"/>
<path d="M28.4302 20.04C28.1502 20.19 27.8602 20.33 27.5802 20.46C27.3302 20.57 27.2202 20.86 27.3402 21.11C27.4202 21.29 27.6002 21.4 27.7902 21.4C27.8602 21.4 27.9302 21.39 27.9902 21.36C28.2902 21.22 28.6002 21.07 28.9002 20.91C29.1402 20.78 29.2302 20.48 29.1002 20.24C28.9702 20 28.6702 19.91 28.4302 20.04Z" fill="#EE4342"/>
<path d="M27.93 16.8301C27.8 16.5901 27.5 16.5101 27.26 16.6401C26.98 16.7901 26.7 16.9401 26.42 17.0601C26.17 17.1701 26.06 17.4601 26.18 17.7101C26.26 17.8901 26.44 18.0001 26.63 18.0001C26.7 18.0001 26.77 17.9901 26.83 17.9601C27.14 17.8201 27.44 17.6701 27.74 17.5001C27.98 17.3701 28.06 17.0701 27.93 16.8301Z" fill="#EE4342"/>
<path d="M34.9401 15.64C35.1401 15.38 35.3401 15.11 35.5301 14.83C35.6901 14.61 35.6301 14.3 35.4101 14.14C35.1901 13.98 34.8801 14.04 34.7201 14.26C34.5301 14.52 34.3401 14.78 34.1501 15.04C33.9801 15.26 34.0301 15.56 34.2401 15.73C34.3301 15.8 34.4301 15.83 34.5401 15.83C34.7001 15.84 34.8401 15.77 34.9401 15.64Z" fill="#EE4342"/>
<path d="M25.2501 18.0501C25.1801 17.7901 24.9101 17.6301 24.6501 17.7001C24.3501 17.7801 24.0401 17.8401 23.7301 17.9001C23.4601 17.9401 23.2801 18.2001 23.3301 18.4701C23.3701 18.7101 23.5801 18.8801 23.8101 18.8801C23.8401 18.8801 23.8601 18.8801 23.8901 18.8701C24.2301 18.8101 24.5601 18.7401 24.8901 18.6601C25.1601 18.5801 25.3201 18.3101 25.2501 18.0501Z" fill="#EE4342"/>
<path d="M23.0103 21.64C22.7003 21.66 22.3803 21.67 22.0603 21.67C21.7903 21.67 21.5703 21.89 21.5703 22.16C21.5703 22.43 21.7903 22.65 22.0603 22.65C22.4003 22.65 22.7403 22.64 23.0803 22.61C23.3503 22.59 23.5503 22.35 23.5403 22.08C23.5103 21.83 23.2703 21.63 23.0103 21.64Z" fill="#EE4342"/>
<path d="M25.8001 21.13C25.5001 21.22 25.1901 21.3 24.8801 21.37C24.6101 21.43 24.4501 21.69 24.5101 21.96C24.5601 22.19 24.7601 22.35 24.9901 22.35C25.0301 22.35 25.0601 22.35 25.1001 22.34C25.4301 22.27 25.7601 22.18 26.0901 22.08C26.3501 22 26.5001 21.73 26.4201 21.47C26.3301 21.2 26.0601 21.05 25.8001 21.13Z" fill="#EE4342"/>
<path d="M30.13 1.74001C30.14 1.74001 30.15 1.74001 30.15 1.74001C30.41 1.74001 30.63 1.53001 30.64 1.27001C30.64 1.26001 30.64 1.25001 30.64 1.25001H30.66C30.93 1.25001 31.15 1.03001 31.15 0.76001C31.15 0.49001 30.93 0.26001 30.66 0.26001H29.68L29.67 0.74001C29.67 0.90001 29.66 1.06001 29.66 1.22001C29.65 1.49001 29.86 1.72001 30.13 1.74001Z" fill="#EE4342"/>
<path d="M28.9103 6.66002C28.9703 6.68002 29.0303 6.70002 29.0903 6.70002C29.2903 6.70002 29.4703 6.58002 29.5503 6.39002C29.6603 6.12002 29.7603 5.84002 29.8603 5.56002C29.9503 5.30002 29.8103 5.02002 29.5503 4.94002C29.2903 4.85002 29.0103 4.99002 28.9303 5.25002C28.8403 5.51002 28.7503 5.77002 28.6503 6.02002C28.5403 6.27002 28.6603 6.56002 28.9103 6.66002Z" fill="#EE4342"/>
<path d="M29.73 4.25001C29.77 4.26001 29.8 4.26001 29.83 4.26001C30.06 4.26001 30.26 4.10001 30.31 3.87001C30.37 3.59001 30.42 3.30001 30.47 3.01001C30.51 2.74001 30.33 2.49001 30.06 2.45001C29.79 2.41001 29.54 2.59001 29.5 2.86001C29.46 3.13001 29.41 3.40001 29.35 3.67001C29.3 3.93001 29.47 4.19001 29.73 4.25001Z" fill="#EE4342"/>
<path d="M27.65 8.86997C27.73 8.92997 27.83 8.94997 27.92 8.94997C28.08 8.94997 28.24 8.86998 28.33 8.72998C28.49 8.48998 28.64 8.23997 28.79 7.97997C28.92 7.73997 28.84 7.43998 28.6 7.30998C28.36 7.17998 28.06 7.25997 27.93 7.49997C27.8 7.72997 27.66 7.95998 27.51 8.18998C27.36 8.40998 27.42 8.71997 27.65 8.86997Z" fill="#EE4342"/>
<path d="M17.5203 10.76C17.6103 10.84 17.7303 10.89 17.8503 10.89C17.9903 10.89 18.1203 10.83 18.2203 10.73C18.4003 10.53 18.3803 10.22 18.1803 10.04C17.9803 9.87004 17.7903 9.68004 17.6103 9.48004C17.4203 9.28004 17.1103 9.27004 16.9103 9.45004C16.7103 9.63004 16.7003 9.95004 16.8803 10.15C17.0903 10.35 17.3103 10.57 17.5203 10.76Z" fill="#EE4342"/>
<path d="M26.2702 10.88C26.3902 10.88 26.5002 10.84 26.6002 10.75C26.8202 10.56 27.0302 10.35 27.2402 10.12C27.4202 9.92001 27.4102 9.61001 27.2102 9.42001C27.0102 9.24001 26.7002 9.25001 26.5102 9.45001C26.3202 9.65001 26.1302 9.84001 25.9402 10.01C25.7402 10.19 25.7202 10.5 25.9002 10.7C26.0002 10.82 26.1402 10.88 26.2702 10.88Z" fill="#EE4342"/>
<path d="M21.6 12.61C21.75 12.62 21.9 12.63 22.06 12.63C22.22 12.63 22.37 12.62 22.52 12.61C22.79 12.59 22.99 12.35 22.97 12.08C22.95 11.81 22.71 11.61 22.44 11.63C22.18 11.65 21.92 11.65 21.67 11.63C21.4 11.61 21.16 11.81 21.14 12.08C21.13 12.36 21.33 12.59 21.6 12.61Z" fill="#EE4342"/>
<path d="M24.1303 12.23C24.1903 12.23 24.2503 12.22 24.3103 12.2C24.5903 12.09 24.8703 11.96 25.1303 11.81C25.3703 11.68 25.4503 11.38 25.3203 11.14C25.1903 10.9 24.8903 10.82 24.6503 10.95C24.4203 11.08 24.1803 11.19 23.9403 11.28C23.6903 11.38 23.5603 11.67 23.6603 11.92C23.7503 12.11 23.9403 12.23 24.1303 12.23Z" fill="#EE4342"/>
<path d="M15.33 7.97997C15.48 8.23997 15.63 8.48998 15.79 8.72998C15.88 8.86998 16.04 8.94997 16.2 8.94997C16.29 8.94997 16.39 8.91997 16.47 8.86997C16.7 8.71997 16.76 8.40998 16.61 8.18998C16.46 7.96998 16.32 7.73997 16.19 7.49997C16.06 7.25997 15.76 7.17998 15.52 7.30998C15.28 7.43998 15.2 7.73997 15.33 7.97997Z" fill="#EE4342"/>
<path d="M14.58 4.95C14.32 5.04 14.18 5.31 14.27 5.57C14.36 5.85 14.46 6.13 14.57 6.39C14.65 6.58 14.83 6.7 15.03 6.7C15.09 6.7 15.15 6.69 15.21 6.66C15.46 6.56 15.58 6.27 15.48 6.02C15.38 5.77 15.28 5.51 15.2 5.25C15.12 5 14.84 4.86 14.58 4.95Z" fill="#EE4342"/>
<path d="M14.0601 2.46002C13.7901 2.50002 13.6101 2.75002 13.6501 3.02002C13.7001 3.31002 13.7501 3.60002 13.8101 3.88002C13.8601 4.11002 14.0601 4.27002 14.2901 4.27002C14.3201 4.27002 14.3601 4.27002 14.3901 4.26002C14.6601 4.20002 14.8301 3.94002 14.7701 3.68002C14.7101 3.41002 14.6601 3.14002 14.6201 2.87002C14.5801 2.60002 14.3301 2.42002 14.0601 2.46002Z" fill="#EE4342"/>
<path d="M18.99 11.81C19.26 11.96 19.54 12.09 19.81 12.2C19.87 12.22 19.93 12.23 19.99 12.23C20.19 12.23 20.37 12.11 20.45 11.92C20.55 11.67 20.42 11.38 20.17 11.28C19.93 11.19 19.69 11.07 19.46 10.95C19.22 10.82 18.92 10.9 18.79 11.14C18.67 11.38 18.75 11.68 18.99 11.81Z" fill="#EE4342"/>
<path d="M13.4602 1.24001H13.4702C13.4702 1.25001 13.4702 1.26001 13.4702 1.26001C13.4802 1.52001 13.7002 1.73001 13.9602 1.73001C13.9702 1.73001 13.9802 1.73001 13.9802 1.73001C14.2502 1.72001 14.4602 1.49001 14.4502 1.22001C14.4402 1.06001 14.4402 0.90001 14.4402 0.74001L14.4302 0.26001H13.4602C13.1902 0.26001 12.9702 0.48001 12.9702 0.75001C12.9702 1.02001 13.1902 1.24001 13.4602 1.24001Z" fill="#EE4342"/>
<path d="M11.3701 1.24001H12.0601C12.3301 1.24001 12.5501 1.02001 12.5501 0.75001C12.5501 0.48001 12.3401 0.26001 12.0701 0.26001H11.3801C11.1101 0.26001 10.8901 0.48001 10.8901 0.75001C10.8901 1.02001 11.1001 1.24001 11.3701 1.24001Z" fill="#EE4342"/>
<path d="M9.32006 1.24001H9.99006C10.2601 1.24001 10.4801 1.02001 10.4801 0.75001C10.4801 0.48001 10.2601 0.26001 9.99006 0.26001H9.29006C9.02006 0.26001 8.81006 0.48001 8.81006 0.75001C8.81006 1.02001 9.05006 1.24001 9.32006 1.24001Z" fill="#EE4342"/>
<path d="M3.04029 1.24001H3.73029C4.00029 1.24001 4.22029 1.02001 4.22029 0.75001C4.22029 0.48001 4.00029 0.26001 3.73029 0.26001H3.04029C2.77029 0.26001 2.55029 0.48001 2.55029 0.75001C2.55029 1.02001 2.77029 1.24001 3.04029 1.24001Z" fill="#EE4342"/>
<path d="M6.86996 1.11001C6.86996 1.13001 6.85996 1.15001 6.86996 1.18001C6.90996 1.51001 6.95996 1.84001 7.00996 2.17001C7.04996 2.41001 7.25996 2.58001 7.49996 2.58001C7.52996 2.58001 7.54996 2.58001 7.57996 2.57001C7.84996 2.53001 8.02996 2.27001 7.98996 2.01001C7.93996 1.76001 7.89996 1.50001 7.86996 1.24001H7.89996C8.16996 1.24001 8.38996 1.02001 8.38996 0.75001C8.38996 0.48001 8.16996 0.26001 7.89996 0.26001H7.20996C6.92996 0.26001 6.70996 0.48001 6.70996 0.75001C6.70996 0.89001 6.76996 1.02001 6.86996 1.11001Z" fill="#EE4342"/>
<path d="M1.16016 1.74001H1.17016C1.45016 1.73001 1.66016 1.51001 1.66016 1.24001C1.93016 1.24001 2.14016 1.02001 2.14016 0.75001C2.14016 0.48001 1.92016 0.26001 1.65016 0.26001H0.660156V0.76001C0.660156 0.93001 0.660156 1.09001 0.670156 1.26001C0.680156 1.52001 0.900156 1.74001 1.16016 1.74001Z" fill="#EE4342"/>
<path d="M2.40039 6.97006C2.33039 6.66006 2.26039 6.34006 2.20039 6.03006C2.14039 5.76006 1.88039 5.59006 1.62039 5.64006C1.35039 5.70006 1.18039 5.96006 1.23039 6.22006C1.30039 6.55006 1.37039 6.87006 1.45039 7.20006C1.50039 7.43006 1.71039 7.58006 1.93039 7.58006C1.97039 7.58006 2.01039 7.58006 2.05039 7.57006C2.31039 7.50006 2.47039 7.23006 2.40039 6.97006Z" fill="#EE4342"/>
<path d="M1.45995 4.67002C1.72995 4.63002 1.91995 4.39002 1.87995 4.12002C1.83995 3.80002 1.79995 3.48002 1.76995 3.16002C1.74995 2.89002 1.50995 2.69002 1.23995 2.72002C0.969952 2.74002 0.769952 2.98002 0.789952 3.25002C0.819952 3.59002 0.859952 3.92002 0.899952 4.25002C0.929952 4.50002 1.13995 4.68002 1.38995 4.68002C1.40995 4.68002 1.42995 4.68002 1.45995 4.67002Z" fill="#EE4342"/>
<path d="M16.8703 23.6599C16.5703 23.5699 16.2603 23.4599 15.9603 23.3499C15.7003 23.2599 15.4203 23.3899 15.3303 23.6399C15.2403 23.8999 15.3703 24.1799 15.6203 24.2699C15.9403 24.3899 16.2503 24.4899 16.5803 24.5899C16.6303 24.5999 16.6803 24.6099 16.7303 24.6099C16.9403 24.6099 17.1303 24.4699 17.2003 24.2599C17.2703 24.0099 17.1303 23.7399 16.8703 23.6599Z" fill="#EE4342"/>
<path d="M19.6601 24.28C19.3401 24.24 19.0301 24.18 18.7201 24.12C18.4501 24.07 18.1901 24.24 18.1401 24.51C18.0901 24.78 18.2601 25.04 18.5301 25.09C18.8601 25.15 19.1901 25.21 19.5301 25.25C19.5501 25.25 19.5801 25.25 19.6001 25.25C19.8401 25.25 20.0501 25.07 20.0901 24.82C20.1201 24.56 19.9301 24.31 19.6601 24.28Z" fill="#EE4342"/>
<path d="M14.2001 22.6C13.9101 22.46 13.6301 22.31 13.3501 22.16C13.1101 22.03 12.8101 22.11 12.6801 22.35C12.5501 22.59 12.6301 22.89 12.8701 23.02C13.1601 23.18 13.4601 23.34 13.7601 23.49C13.8301 23.52 13.9001 23.54 13.9801 23.54C14.1601 23.54 14.3401 23.44 14.4201 23.26C14.5501 23.01 14.4501 22.72 14.2001 22.6Z" fill="#EE4342"/>
<path d="M10.9501 20.5699C10.7301 20.3999 10.4301 20.4499 10.2601 20.6599C10.1001 20.8799 10.1401 21.1799 10.3501 21.3499C10.6201 21.5499 10.8901 21.7499 11.1601 21.9399C11.2501 21.9999 11.3401 22.0299 11.4401 22.0299C11.6001 22.0299 11.7501 21.9599 11.8501 21.8199C12.0001 21.5999 11.9501 21.2899 11.7301 21.1399C11.4601 20.9599 11.2001 20.7699 10.9501 20.5699Z" fill="#EE4342"/>
<path d="M40.8101 11.3201C40.5601 11.2101 40.2701 11.3201 40.1601 11.5701C40.0301 11.8601 39.8901 12.1601 39.7501 12.4401C39.6301 12.6801 39.7301 12.9801 39.9701 13.1001C40.0401 13.1301 40.1101 13.1501 40.1901 13.1501C40.3701 13.1501 40.5501 13.0501 40.6301 12.8801C40.7801 12.5801 40.9201 12.2801 41.0601 11.9701C41.1701 11.7201 41.0601 11.4301 40.8101 11.3201Z" fill="#EE4342"/>
<path d="M42.5004 5.67999C42.2304 5.62999 41.9703 5.79999 41.9203 6.05999C41.8603 6.37999 41.7903 6.68999 41.7103 6.99999C41.6503 7.25999 41.8103 7.52999 42.0703 7.58999C42.1103 7.59999 42.1503 7.59999 42.1903 7.59999C42.4103 7.59999 42.6103 7.44999 42.6703 7.21999C42.7503 6.89999 42.8203 6.56999 42.8903 6.23999C42.9403 5.98999 42.7704 5.72999 42.5004 5.67999Z" fill="#EE4342"/>
<path d="M42.8802 2.75005C42.6102 2.72005 42.3702 2.92005 42.3402 3.19005C42.3102 3.51005 42.2702 3.83005 42.2302 4.15005C42.2002 4.42005 42.3902 4.67005 42.6602 4.71005C42.6802 4.71005 42.7002 4.71005 42.7202 4.71005C42.9602 4.71005 43.1802 4.53005 43.2102 4.28005C43.2502 3.95005 43.2902 3.62005 43.3202 3.29005C43.3502 3.02005 43.1502 2.78005 42.8802 2.75005Z" fill="#EE4342"/>
<path d="M8.79025 18.67C8.60025 18.48 8.29025 18.48 8.09025 18.67C7.90025 18.86 7.90025 19.17 8.09025 19.37C8.33025 19.61 8.57025 19.84 8.81025 20.07C8.90025 20.16 9.02025 20.2 9.14025 20.2C9.27025 20.2 9.41025 20.15 9.50025 20.04C9.68025 19.84 9.67025 19.53 9.47025 19.34C9.24025 19.12 9.01025 18.9 8.79025 18.67Z" fill="#EE4342"/>
<path d="M41.81 8.54004C41.55 8.46004 41.27 8.60004 41.19 8.86004C41.09 9.17004 40.99 9.47004 40.88 9.77004C40.79 10.03 40.92 10.31 41.18 10.4C41.24 10.42 41.29 10.43 41.35 10.43C41.55 10.43 41.74 10.31 41.81 10.1C41.92 9.79004 42.03 9.47004 42.13 9.15004C42.21 8.90004 42.07 8.62004 41.81 8.54004Z" fill="#EE4342"/>
<path d="M39.5102 13.96C39.2802 13.82 38.9702 13.9 38.8402 14.13C38.6802 14.41 38.5102 14.68 38.3302 14.95C38.1802 15.18 38.2502 15.48 38.4802 15.63C38.5602 15.68 38.6602 15.71 38.7502 15.71C38.9102 15.71 39.0702 15.63 39.1602 15.49C39.3402 15.21 39.5202 14.93 39.6902 14.64C39.8202 14.4 39.7402 14.1 39.5102 13.96Z" fill="#EE4342"/>
<path d="M25.3699 24.13C25.0599 24.19 24.7399 24.24 24.4199 24.28C24.1499 24.32 23.9599 24.56 23.9999 24.83C24.0299 25.08 24.2399 25.26 24.4899 25.26C24.5099 25.26 24.5299 25.26 24.5599 25.26C24.8999 25.21 25.2299 25.16 25.5599 25.1C25.8299 25.05 26 24.79 25.95 24.52C25.9 24.25 25.6399 24.08 25.3699 24.13Z" fill="#EE4342"/>
<path d="M33.15 20.5901C32.9 20.7801 32.64 20.9701 32.37 21.1501C32.15 21.3001 32.09 21.6101 32.24 21.8301C32.34 21.9701 32.49 22.0401 32.65 22.0401C32.75 22.0401 32.84 22.0101 32.93 21.9501C33.21 21.7601 33.48 21.5601 33.74 21.3601C33.96 21.2001 34 20.8901 33.83 20.6701C33.67 20.4701 33.37 20.4301 33.15 20.5901Z" fill="#EE4342"/>
<path d="M6.89018 16.5C6.72018 16.28 6.42018 16.24 6.20018 16.41C5.98018 16.58 5.94018 16.88 6.11018 17.1C6.31018 17.37 6.52018 17.63 6.74018 17.88C6.84018 18 6.98018 18.06 7.12018 18.06C7.23018 18.06 7.34018 18.02 7.44018 17.95C7.64018 17.77 7.66018 17.46 7.49018 17.25C7.28018 17.01 7.08018 16.75 6.89018 16.5Z" fill="#EE4342"/>
<path d="M30.7402 22.17C30.4602 22.32 30.1802 22.47 29.8902 22.61C29.6502 22.73 29.5402 23.02 29.6602 23.27C29.7502 23.44 29.9202 23.55 30.1002 23.55C30.1702 23.55 30.2502 23.53 30.3202 23.5C30.6202 23.35 30.9202 23.2 31.2102 23.04C31.4502 22.91 31.5302 22.61 31.4002 22.37C31.2802 22.12 30.9802 22.03 30.7402 22.17Z" fill="#EE4342"/>
<path d="M35.3103 18.69C35.0803 18.92 34.8503 19.14 34.6203 19.36C34.4203 19.54 34.4103 19.86 34.5903 20.06C34.6903 20.17 34.8203 20.22 34.9503 20.22C35.0703 20.22 35.1903 20.18 35.2803 20.09C35.5303 19.86 35.7703 19.63 36.0003 19.39C36.1903 19.2 36.1903 18.89 36.0003 18.69C35.8203 18.5 35.5103 18.5 35.3103 18.69Z" fill="#EE4342"/>
<path d="M3.22998 9.74001C3.11998 9.44001 3.01998 9.13001 2.91998 8.83001C2.83998 8.57001 2.55998 8.43001 2.29998 8.51001C2.03998 8.59001 1.89998 8.87001 1.97998 9.13001C2.07998 9.45001 2.18998 9.77001 2.29998 10.08C2.36998 10.28 2.55998 10.41 2.75998 10.41C2.81998 10.41 2.86998 10.4 2.92998 10.38C3.18998 10.28 3.31998 10 3.22998 9.74001Z" fill="#EE4342"/>
<path d="M4.35992 12.41C4.21992 12.12 4.07992 11.83 3.94992 11.54C3.83992 11.29 3.54992 11.18 3.29992 11.29C3.04992 11.4 2.93992 11.69 3.04992 11.94C3.18992 12.25 3.32992 12.55 3.46992 12.85C3.55992 13.02 3.72992 13.13 3.90992 13.13C3.97992 13.13 4.05992 13.11 4.12992 13.08C4.37992 12.95 4.47992 12.65 4.35992 12.41Z" fill="#EE4342"/>
<path d="M22.5204 24.44C22.3704 24.44 22.2104 24.45 22.0604 24.45C21.9004 24.45 21.7304 24.45 21.5704 24.44C21.3004 24.42 21.0704 24.65 21.0604 24.92C21.0504 25.19 21.2704 25.42 21.5404 25.43C21.7104 25.43 21.8704 25.44 22.0404 25.44C22.2004 25.44 22.3804 25.44 22.5504 25.43C22.8204 25.42 23.0404 25.2 23.0304 24.93C23.0204 24.64 22.7804 24.42 22.5204 24.44Z" fill="#EE4342"/>
<path d="M37.2102 16.52C37.0102 16.78 36.8102 17.03 36.6102 17.27C36.4402 17.48 36.4602 17.79 36.6702 17.96C36.7602 18.04 36.8702 18.07 36.9902 18.07C37.1302 18.07 37.2702 18.01 37.3702 17.89C37.5802 17.63 37.7902 17.37 38.0002 17.11C38.1702 16.89 38.1302 16.59 37.9102 16.42C37.6902 16.27 37.3802 16.31 37.2102 16.52Z" fill="#EE4342"/>
<path d="M28.1302 23.36C27.8302 23.47 27.5302 23.57 27.2202 23.67C26.9602 23.75 26.8102 24.03 26.8902 24.29C26.9602 24.5 27.1502 24.64 27.3602 24.64C27.4102 24.64 27.4602 24.63 27.5002 24.62C27.8202 24.52 28.1402 24.41 28.4602 24.3C28.7202 24.21 28.8502 23.92 28.7502 23.67C28.6702 23.4 28.3902 23.27 28.1302 23.36Z" fill="#EE4342"/>
<path d="M5.2701 14.11C5.1301 13.88 4.8301 13.8 4.6001 13.94C4.3701 14.08 4.2901 14.38 4.4301 14.61C4.6001 14.9 4.7801 15.18 4.9601 15.46C5.0501 15.61 5.2101 15.69 5.3701 15.69C5.4601 15.69 5.5501 15.66 5.6401 15.61C5.8701 15.46 5.9301 15.16 5.7901 14.93C5.6001 14.66 5.4401 14.38 5.2701 14.11Z" fill="#EE4342"/>
<path d="M42.47 0.26C42.2 0.26 41.98 0.48 41.98 0.75C41.98 1.02 42.2 1.24 42.46 1.24C42.46 1.51 42.67 1.73 42.94 1.73H42.95C43.22 1.73 43.44 1.52 43.44 1.25C43.44 1.08 43.45 0.92 43.45 0.75V0.25H42.47V0.26Z" fill="#EE4342"/>
<path d="M36.22 1.24001H36.91C36.93 1.24001 36.94 1.23001 36.96 1.23001C36.98 1.23001 36.99 1.24001 37.01 1.24001H37.99C38.04 1.24001 38.09 1.23001 38.14 1.21001C38.19 1.23001 38.24 1.24001 38.29 1.24001H38.98C39.17 1.24001 39.34 1.12001 39.42 0.96001C39.4 1.20001 39.37 1.44001 39.34 1.68001C39.31 1.95001 39.5 2.20001 39.77 2.23001C39.79 2.23001 39.81 2.23001 39.83 2.23001C40.08 2.23001 40.29 2.05001 40.32 1.80001C40.34 1.61001 40.36 1.43001 40.38 1.24001H41.06C41.33 1.24001 41.55 1.02001 41.55 0.75001C41.55 0.48001 41.35 0.26001 41.08 0.26001H40.39C40.3 0.26001 40.23 0.29001 40.16 0.33001C40.11 0.31001 40.06 0.29001 40 0.28001C39.74 0.26001 39.52 0.44001 39.48 0.68001C39.44 0.44001 39.25 0.26001 39 0.26001H38.31C38.26 0.26001 38.21 0.27001 38.16 0.29001C38.11 0.27001 38.06 0.26001 38 0.26001H37.02C37 0.26001 36.99 0.27001 36.97 0.27001C36.95 0.27001 36.93 0.26001 36.91 0.26001H36.22C35.95 0.26001 35.73 0.48001 35.73 0.75001C35.73 1.02001 35.95 1.24001 36.22 1.24001Z" fill="#EE4342"/>
<path d="M34.1404 1.24001H34.8304C35.1004 1.24001 35.3204 1.02001 35.3204 0.75001C35.3204 0.48001 35.1004 0.26001 34.8304 0.26001H34.1404C33.8704 0.26001 33.6504 0.48001 33.6504 0.75001C33.6504 1.02001 33.8604 1.24001 34.1404 1.24001Z" fill="#EE4342"/>
<path d="M32.0503 1.24001H32.7403C33.0103 1.24001 33.2303 1.02001 33.2303 0.75001C33.2303 0.48001 33.0203 0.26001 32.7503 0.26001H32.0603C31.7903 0.26001 31.5703 0.48001 31.5703 0.75001C31.5703 1.02001 31.7803 1.24001 32.0503 1.24001Z" fill="#EE4342"/>
<path d="M13.4402 23.44C16.3342 23.44 18.6802 21.0939 18.6802 18.2C18.6802 15.306 16.3342 12.96 13.4402 12.96C10.5462 12.96 8.2002 15.306 8.2002 18.2C8.2002 21.0939 10.5462 23.44 13.4402 23.44Z" fill="#FFC040"/>
<path d="M12.82 24.39C12.78 24.39 12.74 24.39 12.7 24.38C12.31 24.33 11.93 24.25 11.56 24.13C11.04 23.97 10.76 23.41 10.92 22.89C10.93 22.87 10.94 22.84 10.95 22.82C10.94 22.84 10.92 22.86 10.9 22.88C10.56 23.3 9.93998 23.36 9.51998 23.02C9.21998 22.77 8.93998 22.5 8.68998 22.2C8.33998 21.78 8.38998 21.16 8.80998 20.81C8.82998 20.79 8.84998 20.78 8.86998 20.76C8.84998 20.77 8.81998 20.78 8.79998 20.79C8.28998 20.96 7.72998 20.69 7.54998 20.17C7.42998 19.8 7.33998 19.42 7.27998 19.03C7.20998 18.49 7.57998 18 8.11998 17.92C8.13998 17.92 8.16998 17.91 8.18998 17.91C8.16998 17.91 8.13998 17.9 8.11998 17.9C7.58998 17.79 7.25998 17.26 7.38998 16.73C7.47998 16.35 7.60998 15.98 7.76998 15.63C7.99998 15.13 8.57998 14.92 9.06998 15.14C9.08998 15.15 9.11998 15.16 9.13998 15.17C9.11998 15.15 9.09998 15.14 9.08998 15.12C8.70998 14.73 8.71998 14.11 9.10998 13.73C9.38998 13.46 9.69998 13.21 10.02 13C10.47 12.7 11.08 12.83 11.38 13.28C11.39 13.3 11.41 13.32 11.42 13.34C11.41 13.32 11.41 13.29 11.4 13.27C11.29 12.74 11.63 12.22 12.16 12.11C12.54 12.03 12.93 11.99 13.32 11.98C13.33 11.98 13.33 11.98 13.34 11.98C13.88 11.98 14.31 12.41 14.32 12.95C14.32 12.98 14.32 13 14.32 13.03C14.33 13 14.34 12.98 14.34 12.95C14.53 12.44 15.1 12.18 15.61 12.37C15.97 12.51 16.33 12.68 16.66 12.88C17.12 13.16 17.27 13.77 16.99 14.23C16.98 14.25 16.96 14.27 16.95 14.29C16.97 14.27 16.99 14.26 17.01 14.24C17.44 13.91 18.06 13.99 18.39 14.43C18.63 14.74 18.83 15.07 19.01 15.42C19.25 15.91 19.05 16.5 18.57 16.74C18.55 16.75 18.52 16.76 18.5 16.77C18.52 16.77 18.55 16.76 18.57 16.76C19.11 16.71 19.59 17.12 19.63 17.66C19.66 17.84 19.66 18.02 19.66 18.2C19.66 18.59 19.62 18.98 19.55 19.36C19.45 19.89 18.93 20.24 18.4 20.14C18.37 20.14 18.35 20.13 18.33 20.12C18.35 20.13 18.37 20.14 18.4 20.16C18.86 20.45 19 21.06 18.71 21.52C18.5 21.85 18.26 22.16 18 22.44C17.63 22.84 17.01 22.86 16.61 22.49C16.59 22.47 16.57 22.45 16.56 22.44C16.57 22.46 16.58 22.48 16.6 22.51C16.83 23 16.63 23.59 16.13 23.82C15.78 23.99 15.41 24.12 15.03 24.22C14.51 24.36 13.97 24.04 13.83 23.52C13.82 23.5 13.82 23.47 13.81 23.45C13.81 23.47 13.81 23.5 13.8 23.52C13.73 24.02 13.31 24.39 12.82 24.39ZM11.86 22.21C11.96 22.21 12.06 22.22 12.16 22.26C12.41 22.34 12.67 22.4 12.94 22.43C13.38 22.48 13.72 22.82 13.79 23.23C13.81 22.81 14.1 22.43 14.52 22.32C14.78 22.25 15.03 22.16 15.27 22.05C15.67 21.86 16.13 21.96 16.42 22.27C16.21 21.9 16.25 21.43 16.56 21.11C16.74 20.92 16.91 20.7 17.05 20.48C17.29 20.11 17.73 19.95 18.14 20.06C17.77 19.86 17.55 19.44 17.63 19.01C17.68 18.75 17.7 18.48 17.7 18.21C17.7 18.09 17.69 17.96 17.68 17.84C17.64 17.4 17.9 17 18.29 16.85C17.88 16.92 17.45 16.71 17.25 16.32C17.13 16.08 16.99 15.85 16.83 15.64C16.56 15.29 16.57 14.81 16.81 14.47C16.5 14.75 16.02 14.8 15.65 14.57C15.42 14.43 15.18 14.31 14.93 14.22C14.52 14.06 14.27 13.66 14.29 13.24C14.17 13.65 13.8 13.95 13.36 13.95C13.09 13.95 12.83 13.98 12.57 14.04C12.14 14.13 11.71 13.92 11.51 13.55C11.63 13.95 11.47 14.4 11.1 14.65C10.88 14.8 10.67 14.96 10.48 15.15C10.16 15.46 9.68998 15.51 9.31998 15.31C9.62998 15.59 9.73998 16.05 9.55998 16.45C9.44998 16.69 9.35998 16.94 9.29998 17.2C9.19998 17.63 8.81998 17.92 8.39998 17.95C8.81998 18.02 9.15998 18.35 9.21998 18.79C9.25998 19.05 9.31998 19.31 9.39998 19.57C9.53998 19.99 9.37998 20.43 9.04998 20.68C9.43998 20.52 9.89998 20.62 10.19 20.95C10.36 21.15 10.55 21.34 10.76 21.51C11.1 21.79 11.21 22.25 11.05 22.64C11.23 22.37 11.54 22.21 11.86 22.21Z" fill="#FFC040"/>
<path d="M13.4502 23.1699C13.2002 23.1799 12.9202 23.1499 12.6602 23.1099C12.1202 23.0199 11.7602 22.5199 11.8402 21.9799C11.8502 21.9499 11.8502 21.9099 11.8602 21.8799C11.8402 21.9099 11.8202 21.9399 11.8002 21.9599C11.4702 22.3899 10.8502 22.4699 10.4202 22.1399C10.1002 21.8899 9.80022 21.5999 9.55022 21.2799C9.21022 20.8499 9.28022 20.2399 9.71022 19.8999C9.74022 19.8799 9.76022 19.8599 9.79022 19.8399C9.76022 19.8499 9.72021 19.8599 9.69021 19.8599C9.15021 19.9599 8.64021 19.5999 8.55021 19.0599C8.50021 18.7699 8.47021 18.4799 8.47021 18.1899C8.47021 18.0699 8.47022 17.9599 8.48022 17.8399C8.52022 17.2999 8.99021 16.8899 9.53021 16.9299C9.56021 16.9299 9.60022 16.9399 9.63022 16.9399C9.60022 16.9299 9.57022 16.9099 9.54022 16.8899C9.08022 16.5999 8.94021 15.9899 9.24021 15.5299C9.46021 15.1799 9.72021 14.8699 10.0202 14.5799C10.4102 14.2099 11.0402 14.2199 11.4102 14.6199C11.4302 14.6399 11.4602 14.6699 11.4802 14.6999C11.4702 14.6699 11.4602 14.6399 11.4502 14.5999C11.3102 14.0799 11.6202 13.5299 12.1402 13.3899C12.5302 13.2799 12.9402 13.2299 13.3502 13.2199C13.9102 13.1899 14.3402 13.6399 14.3502 14.1899C14.3502 14.2199 14.3502 14.2599 14.3502 14.2899C14.3602 14.2599 14.3802 14.2299 14.3902 14.1999C14.6402 13.7199 15.2302 13.5299 15.7202 13.7799C16.0802 13.9699 16.4202 14.1999 16.7302 14.4699C17.1402 14.8299 17.1802 15.4499 16.8202 15.8599C16.8002 15.8899 16.7702 15.9099 16.7502 15.9299C16.7802 15.9199 16.8102 15.8999 16.8402 15.8899C17.3502 15.6999 17.9202 15.9599 18.1002 16.4699C18.2402 16.8499 18.3402 17.2599 18.3802 17.6599C18.3902 17.7499 18.3902 17.8399 18.3702 17.9299C18.3902 18.0099 18.4102 18.0999 18.4102 18.1899C18.4102 18.5999 18.3602 19.0099 18.2602 19.3999C18.1302 19.9299 17.5902 20.2499 17.0702 20.1099C17.0402 20.0999 17.0102 20.0899 16.9702 20.0799C17.0002 20.0999 17.0202 20.1199 17.0502 20.1399C17.4502 20.5099 17.4802 21.1299 17.1102 21.5299C16.8302 21.8299 16.5202 22.0999 16.1802 22.3199C15.7302 22.6199 15.1202 22.4899 14.8202 22.0399C14.8002 22.0099 14.7802 21.9799 14.7702 21.9499C14.7802 21.9799 14.7802 22.0199 14.7802 22.0499C14.8302 22.5899 14.4302 23.0699 13.8802 23.1199C13.7402 23.1599 13.5902 23.1699 13.4502 23.1699ZM13.7902 21.1799C14.1602 21.1799 14.5002 21.3899 14.6602 21.7099C14.5902 21.3299 14.7402 20.9299 15.0802 20.6999C15.2902 20.5599 15.4702 20.3999 15.6402 20.2199C15.9202 19.9199 16.3402 19.8299 16.7002 19.9599C16.3902 19.7299 16.2302 19.3299 16.3302 18.9299C16.3902 18.6899 16.4202 18.4499 16.4202 18.1999C16.4202 18.1399 16.4202 18.0899 16.4302 18.0399C16.4202 17.9899 16.4102 17.9399 16.4002 17.8799C16.3702 17.6299 16.3202 17.3899 16.2302 17.1599C16.0902 16.7799 16.2002 16.3599 16.4802 16.0999C16.1302 16.2699 15.7002 16.2299 15.4002 15.9499C15.2102 15.7899 15.0102 15.6499 14.7902 15.5299C14.4302 15.3399 14.2302 14.9599 14.2602 14.5799C14.1202 14.9399 13.7702 15.1999 13.3602 15.1999C13.1102 15.1999 12.8602 15.2399 12.6302 15.2999C12.2302 15.4099 11.8302 15.2599 11.5902 14.9499C11.7302 15.3099 11.6502 15.7399 11.3502 16.0199C11.1702 16.1899 11.0102 16.3799 10.8802 16.5899C10.6602 16.9399 10.2602 17.0999 9.88022 17.0299C10.2202 17.1999 10.4502 17.5699 10.4202 17.9799C10.4202 18.0499 10.4102 18.1199 10.4102 18.1899C10.4102 18.3699 10.4302 18.5499 10.4602 18.7199C10.5302 19.1199 10.3502 19.5099 10.0202 19.7199C10.3902 19.6099 10.8102 19.7299 11.0602 20.0499C11.2102 20.2399 11.3902 20.4199 11.5902 20.5699C11.9102 20.8199 12.0402 21.2299 11.9402 21.5999C12.1402 21.2699 12.5302 21.0799 12.9302 21.1399C13.0902 21.1599 13.2302 21.1799 13.4102 21.1799C13.5002 21.1799 13.5902 21.1799 13.6702 21.1699C13.7402 21.1799 13.7702 21.1799 13.7902 21.1799Z" fill="white"/>
<path d="M13.4398 20.11C14.4946 20.11 15.3498 19.2549 15.3498 18.2C15.3498 17.1452 14.4946 16.29 13.4398 16.29C12.3849 16.29 11.5298 17.1452 11.5298 18.2C11.5298 19.2549 12.3849 20.11 13.4398 20.11Z" fill="white"/>
<path d="M30.9602 23.44C33.8542 23.44 36.2002 21.0939 36.2002 18.2C36.2002 15.306 33.8542 12.96 30.9602 12.96C28.0662 12.96 25.7202 15.306 25.7202 18.2C25.7202 21.0939 28.0662 23.44 30.9602 23.44Z" fill="#FFC040"/>
<path d="M30.34 24.39C30.3 24.39 30.26 24.39 30.22 24.38C29.83 24.33 29.45 24.25 29.08 24.13C28.56 23.97 28.28 23.41 28.44 22.89C28.45 22.87 28.46 22.84 28.47 22.82C28.46 22.84 28.44 22.86 28.42 22.88C28.08 23.3 27.46 23.36 27.04 23.02C26.74 22.77 26.46 22.5 26.21 22.2C25.86 21.78 25.91 21.16 26.33 20.81C26.35 20.79 26.37 20.78 26.39 20.76C26.37 20.77 26.34 20.78 26.32 20.79C25.81 20.96 25.25 20.69 25.07 20.17C24.95 19.8 24.86 19.42 24.8 19.03C24.73 18.49 25.1 18 25.64 17.92C25.66 17.92 25.69 17.91 25.71 17.91C25.69 17.91 25.66 17.9 25.64 17.9C25.11 17.77 24.79 17.24 24.92 16.71C25.01 16.33 25.14 15.96 25.3 15.61C25.53 15.11 26.11 14.9 26.6 15.12C26.62 15.13 26.65 15.14 26.67 15.15C26.65 15.13 26.63 15.12 26.62 15.1C26.24 14.71 26.25 14.09 26.64 13.71C26.92 13.44 27.23 13.19 27.55 12.98C28 12.68 28.61 12.81 28.91 13.26C28.92 13.28 28.94 13.3 28.95 13.32C28.94 13.3 28.94 13.27 28.93 13.25C28.82 12.72 29.16 12.2 29.69 12.09C30.07 12.01 30.46 11.97 30.85 11.96C30.86 11.96 30.86 11.96 30.87 11.96C31.41 11.96 31.84 12.39 31.85 12.93C31.85 12.96 31.85 12.98 31.85 13.01C31.86 12.98 31.87 12.96 31.87 12.93C32.06 12.42 32.63 12.16 33.14 12.35C33.5 12.49 33.86 12.66 34.19 12.86C34.65 13.14 34.8 13.75 34.52 14.21C34.51 14.23 34.49 14.25 34.48 14.27C34.5 14.25 34.52 14.24 34.54 14.22C34.97 13.89 35.59 13.97 35.92 14.41C36.16 14.72 36.36 15.05 36.54 15.4C36.78 15.89 36.58 16.48 36.1 16.72C36.08 16.73 36.05 16.74 36.03 16.75C36.05 16.75 36.08 16.74 36.1 16.74C36.64 16.69 37.12 17.1 37.16 17.64C37.17 17.82 37.18 17.99 37.18 18.17C37.18 18.56 37.14 18.95 37.07 19.33C36.97 19.86 36.45 20.21 35.92 20.11C35.89 20.11 35.87 20.1 35.85 20.09C35.87 20.1 35.89 20.11 35.92 20.13C36.38 20.42 36.52 21.03 36.23 21.49C36.02 21.82 35.78 22.13 35.52 22.41C35.15 22.81 34.53 22.83 34.13 22.46C34.11 22.44 34.09 22.42 34.08 22.41C34.09 22.43 34.1 22.45 34.12 22.48C34.35 22.97 34.15 23.56 33.65 23.79C33.3 23.96 32.93 24.09 32.55 24.19C32.03 24.33 31.49 24.01 31.35 23.49C31.34 23.47 31.34 23.44 31.33 23.42C31.33 23.44 31.33 23.47 31.32 23.49C31.25 24.02 30.83 24.39 30.34 24.39ZM29.38 22.21C29.48 22.21 29.58 22.22 29.68 22.26C29.93 22.34 30.19 22.4 30.46 22.43C30.9 22.48 31.24 22.82 31.31 23.23C31.33 22.81 31.62 22.43 32.04 22.32C32.3 22.25 32.55 22.16 32.79 22.05C33.19 21.86 33.65 21.96 33.94 22.27C33.73 21.9 33.77 21.43 34.08 21.11C34.26 20.92 34.43 20.7 34.57 20.48C34.81 20.11 35.25 19.95 35.66 20.06C35.29 19.86 35.07 19.44 35.15 19.01C35.2 18.75 35.22 18.48 35.22 18.21C35.22 18.09 35.21 17.96 35.2 17.84C35.16 17.4 35.42 17 35.81 16.85C35.4 16.92 34.97 16.71 34.77 16.32C34.65 16.08 34.51 15.85 34.35 15.64C34.08 15.29 34.09 14.81 34.33 14.47C34.02 14.75 33.54 14.8 33.17 14.57C32.94 14.43 32.7 14.31 32.45 14.22C32.04 14.06 31.79 13.66 31.81 13.24C31.69 13.65 31.32 13.95 30.88 13.95C30.61 13.95 30.35 13.98 30.09 14.04C29.66 14.13 29.23 13.92 29.03 13.55C29.15 13.95 28.99 14.4 28.62 14.65C28.4 14.8 28.19 14.96 28 15.15C27.68 15.46 27.21 15.51 26.84 15.31C27.15 15.59 27.26 16.05 27.08 16.45C26.97 16.69 26.88 16.94 26.82 17.2C26.72 17.63 26.34 17.92 25.92 17.95C26.34 18.02 26.68 18.35 26.74 18.79C26.78 19.05 26.84 19.31 26.92 19.57C27.06 19.99 26.9 20.43 26.57 20.68C26.96 20.52 27.42 20.62 27.71 20.95C27.88 21.15 28.07 21.34 28.28 21.51C28.62 21.79 28.73 22.25 28.57 22.64C28.75 22.37 29.06 22.21 29.38 22.21Z" fill="#FFC040"/>
<path d="M30.9702 23.1699C30.7202 23.1799 30.4402 23.1499 30.1802 23.1099C29.6402 23.0199 29.2802 22.5199 29.3602 21.9799C29.3702 21.9499 29.3702 21.9099 29.3802 21.8799C29.3602 21.9099 29.3402 21.9399 29.3202 21.9599C28.9902 22.3899 28.3702 22.4699 27.9402 22.1399C27.6202 21.8899 27.3202 21.5999 27.0702 21.2799C26.7302 20.8499 26.8002 20.2399 27.2302 19.8999C27.2602 19.8799 27.2802 19.8599 27.3102 19.8399C27.2802 19.8499 27.2402 19.8599 27.2102 19.8599C26.6702 19.9599 26.1602 19.5999 26.0702 19.0599C26.0202 18.7699 25.9902 18.4799 25.9902 18.1899C25.9902 18.0699 25.9902 17.9599 26.0002 17.8399C26.0402 17.2999 26.5102 16.8899 27.0502 16.9299C27.0802 16.9299 27.1202 16.9399 27.1502 16.9399C27.1202 16.9299 27.0902 16.9099 27.0602 16.8899C26.6002 16.5999 26.4602 15.9899 26.7602 15.5299C26.9802 15.1799 27.2402 14.8699 27.5402 14.5799C27.9302 14.2099 28.5602 14.2199 28.9302 14.6199C28.9502 14.6399 28.9802 14.6699 29.0002 14.6999C28.9902 14.6699 28.9802 14.6399 28.9702 14.5999C28.8302 14.0799 29.1402 13.5299 29.6602 13.3899C30.0502 13.2799 30.4602 13.2299 30.8702 13.2199C31.4302 13.1899 31.8602 13.6399 31.8702 14.1899C31.8702 14.2199 31.8702 14.2599 31.8702 14.2899C31.8802 14.2599 31.9002 14.2299 31.9102 14.1999C32.1602 13.7199 32.7502 13.5299 33.2402 13.7799C33.6002 13.9699 33.9402 14.1999 34.2502 14.4699C34.6602 14.8299 34.7002 15.4499 34.3402 15.8599C34.3202 15.8899 34.2902 15.9099 34.2702 15.9299C34.3002 15.9199 34.3302 15.8999 34.3602 15.8899C34.8702 15.6999 35.4402 15.9599 35.6202 16.4699C35.7602 16.8499 35.8602 17.2599 35.9002 17.6599C35.9102 17.7499 35.9102 17.8399 35.8902 17.9299C35.9102 18.0099 35.9302 18.0999 35.9302 18.1899C35.9302 18.5999 35.8802 19.0099 35.7802 19.3999C35.6502 19.9299 35.1102 20.2499 34.5902 20.1099C34.5602 20.0999 34.5302 20.0899 34.4902 20.0799C34.5202 20.0999 34.5402 20.1199 34.5702 20.1399C34.9702 20.5099 35.0002 21.1299 34.6302 21.5299C34.3502 21.8299 34.0402 22.0999 33.7002 22.3199C33.2502 22.6199 32.6402 22.4899 32.3402 22.0399C32.3202 22.0099 32.3002 21.9799 32.2902 21.9499C32.3002 21.9799 32.3002 22.0199 32.3002 22.0499C32.3502 22.5899 31.9502 23.0699 31.4002 23.1199C31.2602 23.1599 31.1102 23.1699 30.9702 23.1699ZM31.3102 21.1799C31.6802 21.1799 32.0202 21.3899 32.1802 21.7099C32.1102 21.3299 32.2602 20.9299 32.6002 20.6999C32.8102 20.5599 32.9902 20.3999 33.1602 20.2199C33.4402 19.9199 33.8602 19.8299 34.2202 19.9599C33.9102 19.7299 33.7502 19.3299 33.8502 18.9299C33.9102 18.6899 33.9402 18.4499 33.9402 18.1999C33.9402 18.1399 33.9402 18.0899 33.9502 18.0399C33.9402 17.9899 33.9302 17.9399 33.9202 17.8799C33.8902 17.6299 33.8402 17.3899 33.7502 17.1599C33.6102 16.7799 33.7202 16.3599 34.0002 16.0999C33.6502 16.2699 33.2202 16.2299 32.9202 15.9499C32.7302 15.7899 32.5302 15.6499 32.3102 15.5299C31.9502 15.3399 31.7502 14.9599 31.7802 14.5799C31.6402 14.9399 31.2902 15.1999 30.8802 15.1999C30.6302 15.1999 30.3802 15.2399 30.1502 15.2999C29.7502 15.4099 29.3502 15.2599 29.1102 14.9499C29.2502 15.3099 29.1702 15.7399 28.8702 16.0199C28.6902 16.1899 28.5302 16.3799 28.4002 16.5899C28.1802 16.9399 27.7802 17.0999 27.4002 17.0299C27.7402 17.1999 27.9702 17.5699 27.9402 17.9799C27.9402 18.0499 27.9302 18.1199 27.9302 18.1899C27.9302 18.3699 27.9502 18.5499 27.9802 18.7199C28.0502 19.1199 27.8702 19.5099 27.5402 19.7199C27.9102 19.6099 28.3302 19.7299 28.5802 20.0499C28.7302 20.2399 28.9102 20.4199 29.1102 20.5699C29.4302 20.8199 29.5602 21.2299 29.4602 21.5999C29.6602 21.2699 30.0502 21.0799 30.4502 21.1399C30.6102 21.1599 30.7502 21.1799 30.9302 21.1799C31.0202 21.1799 31.1102 21.1799 31.1902 21.1699C31.2602 21.1799 31.2902 21.1799 31.3102 21.1799Z" fill="white"/>
<path d="M30.9598 20.1099C32.0147 20.1099 32.8698 19.2548 32.8698 18.1999C32.8698 17.1451 32.0147 16.2899 30.9598 16.2899C29.9049 16.2899 29.0498 17.1451 29.0498 18.1999C29.0498 19.2548 29.9049 20.1099 30.9598 20.1099Z" fill="white"/>
<path d="M22.1798 32.98C26.6589 32.98 30.2898 29.349 30.2898 24.87C30.2898 20.391 26.6589 16.76 22.1798 16.76C17.7008 16.76 14.0698 20.391 14.0698 24.87C14.0698 29.349 17.7008 32.98 22.1798 32.98Z" fill="#BD502F"/>
<path d="M22.18 33.96H22.11C21.57 33.95 21.13 33.51 21.14 32.96C21.14 32.95 21.14 32.93 21.14 32.92C21.14 32.94 21.13 32.95 21.13 32.97C21 33.5 20.46 33.82 19.93 33.68C19.57 33.59 19.22 33.48 18.88 33.34C18.37 33.14 18.12 32.57 18.32 32.07C18.33 32.06 18.33 32.04 18.34 32.03C18.33 32.04 18.32 32.06 18.31 32.07C18 32.51 17.38 32.62 16.94 32.31C16.64 32.1 16.35 31.87 16.08 31.62C15.68 31.26 15.65 30.63 16.01 30.23C16.02 30.22 16.03 30.21 16.04 30.19C16.03 30.2 16.01 30.21 16 30.22C15.55 30.52 14.94 30.4 14.63 29.95C14.42 29.65 14.24 29.33 14.07 29C13.82 28.52 14.02 27.92 14.5 27.68C14.51 27.67 14.53 27.67 14.54 27.66C14.52 27.66 14.51 27.67 14.49 27.67C13.96 27.79 13.43 27.46 13.31 26.93C13.23 26.57 13.17 26.21 13.13 25.84C13.07 25.3 13.47 24.81 14.01 24.76C14.02 24.76 14.04 24.76 14.05 24.76C14.04 24.76 14.02 24.76 14.01 24.75C13.47 24.68 13.09 24.18 13.17 23.64C13.22 23.28 13.29 22.91 13.38 22.56C13.52 22.03 14.05 21.72 14.58 21.86C14.6 21.86 14.61 21.87 14.63 21.87C14.61 21.86 14.6 21.85 14.58 21.85C14.1 21.59 13.93 20.99 14.19 20.51C14.37 20.19 14.56 19.88 14.78 19.58C15.1 19.14 15.71 19.04 16.15 19.35C16.16 19.36 16.18 19.37 16.19 19.38C16.18 19.37 16.17 19.36 16.16 19.34C15.81 18.93 15.86 18.31 16.27 17.95C16.55 17.71 16.84 17.49 17.15 17.29C17.6 16.99 18.21 17.11 18.51 17.57C18.52 17.58 18.53 17.6 18.54 17.61C18.53 17.59 18.53 17.58 18.52 17.56C18.34 17.05 18.6 16.48 19.12 16.3C19.47 16.18 19.82 16.07 20.18 15.99C20.71 15.87 21.24 16.2 21.36 16.74C21.36 16.76 21.37 16.77 21.37 16.79C21.37 16.77 21.37 16.76 21.37 16.74C21.38 16.2 21.84 15.76 22.37 15.78C22.74 15.79 23.11 15.82 23.47 15.87C24.01 15.95 24.38 16.45 24.31 16.98C24.31 17 24.3 17.02 24.3 17.03C24.31 17.01 24.31 17 24.32 16.98C24.52 16.48 25.1 16.23 25.6 16.44C25.94 16.58 26.27 16.74 26.6 16.92C27.07 17.18 27.25 17.78 26.98 18.26C26.97 18.27 26.96 18.29 26.96 18.3C26.97 18.29 26.98 18.28 26.99 18.27C27.36 17.87 27.98 17.85 28.38 18.22C28.65 18.47 28.9 18.74 29.14 19.02C29.49 19.44 29.44 20.06 29.02 20.41C29.01 20.42 29 20.43 28.98 20.44C28.99 20.43 29.01 20.43 29.02 20.42C29.51 20.18 30.1 20.38 30.34 20.87C30.5 21.2 30.65 21.54 30.77 21.89C30.95 22.4 30.68 22.96 30.16 23.14C30.15 23.14 30.13 23.15 30.12 23.15C30.13 23.15 30.15 23.15 30.17 23.14C30.71 23.09 31.19 23.49 31.24 24.03C31.26 24.31 31.28 24.59 31.28 24.87C31.28 25.24 31.26 25.61 31.21 25.97C31.14 26.51 30.65 26.9 30.11 26.83C30.09 26.83 30.08 26.83 30.06 26.82C30.08 26.83 30.09 26.83 30.11 26.84C30.62 27.03 30.87 27.6 30.68 28.11C30.55 28.45 30.4 28.79 30.22 29.11C29.97 29.59 29.37 29.77 28.89 29.52C28.87 29.51 28.86 29.5 28.84 29.49C28.85 29.5 28.87 29.51 28.88 29.52C29.29 29.88 29.32 30.5 28.96 30.91C28.72 31.18 28.45 31.44 28.18 31.69C27.77 32.05 27.15 32.01 26.79 31.6C26.78 31.59 26.77 31.58 26.76 31.57C26.77 31.58 26.77 31.6 26.78 31.61C27.03 32.09 26.84 32.69 26.36 32.94C26.03 33.11 25.69 33.26 25.35 33.39C24.84 33.58 24.27 33.32 24.08 32.81C24.14 33.35 23.75 33.84 23.21 33.9C22.87 33.94 22.53 33.96 22.18 33.96ZM19.24 31.45C19.36 31.45 19.48 31.47 19.6 31.52C19.87 31.62 20.14 31.71 20.42 31.78C20.88 31.9 21.19 32.33 21.16 32.79C21.25 32.34 21.64 31.98 22.14 32C22.14 32 22.14 32 22.15 32C22.46 32 22.74 31.98 23 31.95C23.48 31.89 23.91 32.19 24.05 32.62C23.98 32.17 24.23 31.71 24.68 31.55C24.95 31.45 25.21 31.33 25.47 31.2C25.89 30.98 26.4 31.1 26.69 31.45C26.46 31.05 26.54 30.54 26.89 30.22C27.11 30.03 27.31 29.83 27.5 29.61C27.82 29.25 28.34 29.18 28.74 29.42C28.38 29.13 28.26 28.62 28.49 28.19C28.62 27.93 28.74 27.67 28.85 27.4C29.02 26.95 29.48 26.7 29.94 26.78C29.5 26.64 29.21 26.2 29.27 25.73C29.3 25.44 29.32 25.15 29.32 24.87C29.32 24.65 29.31 24.43 29.29 24.21C29.25 23.74 29.55 23.31 29.99 23.18C29.53 23.24 29.09 22.98 28.93 22.53C28.84 22.26 28.72 21.99 28.6 21.73C28.39 21.3 28.52 20.79 28.88 20.52C28.48 20.74 27.96 20.66 27.65 20.29C27.47 20.07 27.27 19.86 27.05 19.66C26.7 19.33 26.64 18.81 26.88 18.42C26.58 18.77 26.07 18.87 25.65 18.64C25.4 18.5 25.14 18.37 24.87 18.27C24.43 18.09 24.18 17.62 24.28 17.17C24.13 17.61 23.68 17.89 23.21 17.82C22.93 17.78 22.64 17.76 22.35 17.75C21.87 17.74 21.48 17.39 21.4 16.94C21.41 17.4 21.1 17.82 20.63 17.92C20.35 17.98 20.07 18.06 19.8 18.16C19.35 18.32 18.86 18.13 18.62 17.74C18.8 18.17 18.65 18.67 18.25 18.93C18.01 19.09 17.78 19.26 17.56 19.45C17.2 19.76 16.67 19.76 16.31 19.47C16.63 19.81 16.67 20.33 16.39 20.72C16.22 20.95 16.07 21.2 15.93 21.45C15.7 21.87 15.21 22.05 14.77 21.92C15.19 22.12 15.41 22.59 15.29 23.06C15.22 23.34 15.16 23.62 15.12 23.91C15.06 24.38 14.67 24.73 14.21 24.76C14.67 24.8 15.05 25.16 15.1 25.64C15.13 25.92 15.18 26.21 15.24 26.49C15.35 26.96 15.11 27.42 14.69 27.61C15.13 27.48 15.62 27.68 15.83 28.11C15.96 28.37 16.11 28.62 16.27 28.85C16.54 29.25 16.48 29.77 16.15 30.09C16.52 29.81 17.04 29.83 17.4 30.15C17.61 30.34 17.84 30.53 18.08 30.69C18.47 30.97 18.6 31.47 18.41 31.89C18.59 31.61 18.91 31.45 19.24 31.45Z" fill="#FFC040"/>
<path d="M22.1802 29.8199C21.9102 29.8199 21.6302 29.7999 21.3602 29.7499C20.8202 29.6599 20.4602 29.1499 20.5502 28.6199C20.5602 28.5899 20.5602 28.5499 20.5702 28.5199C20.5502 28.5499 20.5302 28.5799 20.5102 28.5999C20.1802 29.0299 19.5602 29.0999 19.1302 28.7699C18.8102 28.5199 18.5202 28.2299 18.2702 27.8999C17.9402 27.4699 18.0102 26.8499 18.4402 26.5199C18.4702 26.4999 18.4902 26.4799 18.5202 26.4599C18.4902 26.4699 18.4502 26.4799 18.4202 26.4799C17.8802 26.5699 17.3802 26.1999 17.2902 25.6699C17.2502 25.4099 17.2202 25.1299 17.2202 24.8599C17.2202 24.7199 17.2302 24.5799 17.2402 24.4499C17.2802 23.9099 17.7602 23.5099 18.3002 23.5499C18.3302 23.5499 18.3702 23.5599 18.4002 23.5599C18.3702 23.5399 18.3402 23.5299 18.3102 23.5099C17.8602 23.2099 17.7302 22.5999 18.0302 22.1499C18.2502 21.8099 18.5202 21.4999 18.8202 21.2199C19.2202 20.8499 19.8402 20.8799 20.2102 21.2799C20.2302 21.3099 20.2602 21.3299 20.2802 21.3599C20.2702 21.3299 20.2602 21.2999 20.2502 21.2599C20.1202 20.7299 20.4402 20.1999 20.9702 20.0699C21.3602 19.9699 21.7702 19.9199 22.1702 19.9199C22.7102 19.9199 23.1602 20.3599 23.1602 20.8999C23.1602 20.9399 23.1602 20.9799 23.1502 21.0199C23.1602 20.9799 23.1802 20.9499 23.2002 20.9099C23.4602 20.4299 24.0602 20.2599 24.5402 20.5199C24.9002 20.7199 25.2302 20.9599 25.5302 21.2299C25.9302 21.5999 25.9502 22.2199 25.5802 22.6199C25.5602 22.6399 25.5302 22.6699 25.5102 22.6899C25.5402 22.6799 25.5702 22.6599 25.6002 22.6499C26.1102 22.4699 26.6702 22.7499 26.8502 23.2699C26.9802 23.6599 27.0602 24.0599 27.1002 24.4699C27.1102 24.5399 27.1002 24.5999 27.1002 24.6699C27.1102 24.7299 27.1202 24.7999 27.1202 24.8699C27.1202 25.2799 27.0702 25.6899 26.9702 26.0899C26.8402 26.6199 26.3002 26.9399 25.7702 26.7999C25.7402 26.7899 25.7002 26.7799 25.6702 26.7699C25.7002 26.7899 25.7202 26.8099 25.7502 26.8299C26.1502 27.1999 26.1802 27.8199 25.8102 28.2199C25.5302 28.5199 25.2202 28.7899 24.8802 29.0099C24.4302 29.3099 23.8202 29.1799 23.5202 28.7199C23.5002 28.6899 23.4802 28.6599 23.4702 28.6299C23.4802 28.6599 23.4802 28.6999 23.4802 28.7299C23.5202 29.2699 23.1202 29.7499 22.5802 29.7899C22.4502 29.8199 22.3202 29.8199 22.1802 29.8199ZM22.5102 27.8399C22.8902 27.8399 23.2202 28.0499 23.3802 28.3699C23.3102 27.9899 23.4702 27.5899 23.8102 27.3699C24.0202 27.2399 24.2102 27.0699 24.3702 26.8899C24.6502 26.5899 25.0702 26.4999 25.4302 26.6299C25.1202 26.3999 24.9702 25.9999 25.0702 25.5999C25.1302 25.3599 25.1602 25.1199 25.1602 24.8699C25.1602 24.8299 25.1602 24.7899 25.1702 24.7499C25.1602 24.7099 25.1602 24.6699 25.1502 24.6299C25.1302 24.3799 25.0802 24.1399 25.0002 23.9099C24.8702 23.5199 24.9902 23.1099 25.2802 22.8599C24.9302 23.0199 24.5002 22.9699 24.2002 22.6899C24.0202 22.5199 23.8202 22.3799 23.6002 22.2599C23.2402 22.0599 23.0502 21.6699 23.0902 21.2799C22.9502 21.6399 22.5902 21.8999 22.1802 21.8999C21.9302 21.8999 21.6802 21.9299 21.4402 21.9899C21.0402 22.0899 20.6402 21.9299 20.4102 21.6199C20.5402 21.9799 20.4502 22.3999 20.1502 22.6799C19.9702 22.8499 19.8102 23.0399 19.6702 23.2399C19.4502 23.5799 19.0502 23.7399 18.6702 23.6699C19.0102 23.8499 19.2302 24.2199 19.2002 24.6299C19.1902 24.7099 19.1902 24.7999 19.1902 24.8799C19.1902 25.0399 19.2002 25.2099 19.2302 25.3699C19.3002 25.7699 19.1102 26.1599 18.7802 26.3599C19.1502 26.2599 19.5602 26.3799 19.8202 26.7099C19.9702 26.8999 20.1502 27.0799 20.3402 27.2299C20.6602 27.4799 20.7902 27.8899 20.6802 28.2699C20.8802 27.9399 21.2702 27.7599 21.6702 27.8199C21.9102 27.8599 22.1702 27.8699 22.4102 27.8499C22.4502 27.8399 22.4802 27.8399 22.5102 27.8399Z" fill="#FFC040"/>
<path d="M22.18 27.85C23.8092 27.85 25.13 26.5292 25.13 24.9C25.13 23.2707 23.8092 21.95 22.18 21.95C20.5507 21.95 19.23 23.2707 19.23 24.9C19.23 26.5292 20.5507 27.85 22.18 27.85Z" fill="#BD502F"/>
<path d="M18.68 19.8699L16.94 18.1299C14.99 16.1799 14.99 13.0199 16.94 11.0699L18.68 9.32993C20.63 7.37993 23.79 7.37993 25.74 9.32993L27.48 11.0699C29.43 13.0199 29.43 16.1799 27.48 18.1299L25.74 19.8699C23.79 21.8199 20.63 21.8199 18.68 19.8699Z" fill="#FFC040"/>
<path d="M21.5399 23.27C21.4499 23.27 21.3599 23.26 21.2699 23.23C20.8199 23.1 20.4099 22.89 20.0499 22.6C19.9999 22.56 19.9599 22.52 19.9199 22.47C19.8699 22.44 19.8199 22.4 19.7799 22.35L19.0799 21.65C18.6999 21.27 18.6999 20.64 19.0799 20.26C19.4599 19.88 20.0899 19.88 20.4699 20.26L21.1699 20.96C21.1899 20.98 21.2099 21 21.2299 21.02C21.2499 21.03 21.2699 21.05 21.2899 21.07C21.4399 21.19 21.6199 21.28 21.8099 21.34C22.1199 21.43 22.3599 21.66 22.4699 21.94C22.4999 21.64 22.6699 21.36 22.9499 21.19C23.0599 21.13 23.1599 21.05 23.2499 20.96L23.4999 20.71C23.8799 20.33 24.4999 20.33 24.8799 20.7C24.5099 20.31 24.5099 19.7 24.8899 19.32L25.5899 18.62C25.9699 18.24 26.5899 18.24 26.9799 18.62C26.5999 18.24 26.5999 17.62 26.9799 17.23L27.6799 16.53C28.0299 16.18 28.5899 16.15 28.9699 16.44C28.6899 16.14 28.6199 15.68 28.8299 15.29C28.9299 15.12 28.9799 14.93 28.9999 14.73C29.0299 14.41 29.2199 14.13 29.4799 13.98C29.1799 14 28.8699 13.88 28.6599 13.63C28.6299 13.6 28.5999 13.57 28.5699 13.53L28.0199 12.98C27.6399 12.6 27.6399 11.98 28.0199 11.59C27.6399 11.97 27.0199 11.97 26.6299 11.59L25.9299 10.89C25.5499 10.51 25.5499 9.88999 25.9299 9.49999C25.5499 9.87999 24.9299 9.87999 24.5399 9.49999L23.8399 8.79999C23.5199 8.47999 23.4699 7.99999 23.6699 7.62999C23.4099 7.87999 23.0299 7.96999 22.6699 7.84999C22.4799 7.78999 22.2899 7.75999 22.0899 7.76999C21.7599 7.78999 21.4599 7.64999 21.2599 7.41999C21.3399 7.73999 21.2499 8.09999 20.9999 8.34999L20.2999 9.04999C19.9199 9.42999 19.2899 9.42999 18.9099 9.04999C18.5299 8.66999 18.5299 8.03999 18.9099 7.65999L19.6099 6.95999C19.9899 6.57999 20.6199 6.57999 20.9999 6.95999C21.0199 6.97999 21.0399 6.99999 21.0599 7.02999C21.0499 6.97999 21.0399 6.91999 21.0299 6.85999C20.9899 6.31999 21.3999 5.84999 21.9399 5.80999C22.3999 5.77999 22.8599 5.83999 23.2999 5.98999C23.8099 6.16999 24.0899 6.72999 23.9099 7.23999C23.8899 7.29999 23.8699 7.34999 23.8399 7.39999C24.2299 7.02999 24.8399 7.02999 25.2199 7.40999L25.9199 8.10999C26.2999 8.48999 26.2999 9.10999 25.9199 9.49999C26.2999 9.11999 26.9199 9.11999 27.3099 9.49999L28.0099 10.2C28.3899 10.58 28.3899 11.2 28.0099 11.59C28.3899 11.21 29.0199 11.21 29.3999 11.59L29.9499 12.14C30.0199 12.21 30.0899 12.28 30.1499 12.36C30.4999 12.78 30.4499 13.4 30.0299 13.75C29.9899 13.79 29.9399 13.82 29.8899 13.85C29.9399 13.85 29.9999 13.85 30.0599 13.85C30.5999 13.91 30.9899 14.39 30.9399 14.93C30.8899 15.39 30.7599 15.83 30.5299 16.24C30.2699 16.72 29.6699 16.89 29.1899 16.63C29.1499 16.61 29.0999 16.58 29.0699 16.55C29.4299 16.94 29.4199 17.54 29.0499 17.92L28.3499 18.62C27.9699 19 27.3499 19 26.9599 18.62C27.3399 19 27.3399 19.62 26.9599 20.01L26.2599 20.71C25.8799 21.09 25.2599 21.09 24.8799 20.72C25.2499 21.1 25.2499 21.72 24.8699 22.1L24.6199 22.35C24.4099 22.56 24.1699 22.74 23.9199 22.89C23.4499 23.16 22.8499 23 22.5699 22.53C22.5399 22.48 22.5199 22.43 22.4999 22.38C22.4899 22.43 22.4799 22.49 22.4699 22.54C22.3699 22.99 21.9699 23.27 21.5399 23.27ZM18.3899 20.56C18.1399 20.56 17.8899 20.46 17.6899 20.27L16.9899 19.57C16.6099 19.19 16.6099 18.56 16.9899 18.18C17.3699 17.8 17.9999 17.8 18.3799 18.18L19.0799 18.88C19.4599 19.26 19.4599 19.89 19.0799 20.27C18.8899 20.46 18.6399 20.56 18.3899 20.56ZM16.2999 18.47C16.0499 18.47 15.7999 18.37 15.5999 18.18L14.8999 17.48C14.5199 17.1 14.5199 16.47 14.8999 16.09C14.8499 16.11 14.7899 16.13 14.7299 16.15C14.1999 16.28 13.6699 15.96 13.5399 15.43C13.4699 15.16 13.4399 14.88 13.4399 14.6C13.4399 14.42 13.4499 14.24 13.4799 14.06C13.5599 13.52 14.0699 13.15 14.5999 13.24C14.6599 13.25 14.7099 13.26 14.7699 13.28C14.7599 13.27 14.7499 13.26 14.7399 13.25C14.3599 12.87 14.3599 12.24 14.7399 11.86L15.4399 11.16C15.8199 10.78 16.4499 10.78 16.8299 11.16C17.2099 11.54 17.2099 12.17 16.8299 12.55L16.1299 13.25C15.8599 13.53 15.4599 13.6 15.1099 13.48C15.3399 13.7 15.4699 14.02 15.4099 14.35C15.3999 14.43 15.3899 14.5 15.3899 14.58C15.3899 14.7 15.3999 14.82 15.4299 14.94C15.5199 15.29 15.4099 15.64 15.1699 15.87C15.5299 15.71 15.9699 15.78 16.2699 16.07L16.9699 16.77C17.3499 17.15 17.3499 17.78 16.9699 18.16C16.7999 18.37 16.5499 18.47 16.2999 18.47ZM17.5399 11.46C17.2899 11.46 17.0399 11.36 16.8399 11.17C16.4599 10.79 16.4599 10.16 16.8399 9.77999L17.5399 9.07999C17.9199 8.69999 18.5499 8.69999 18.9299 9.07999C19.3099 9.45999 19.3099 10.09 18.9299 10.47L18.2299 11.17C18.0399 11.36 17.7899 11.46 17.5399 11.46Z" fill="#BD502F"/>
<path d="M21.53 21.17C21.44 21.17 21.35 21.16 21.26 21.13C20.81 21 20.41 20.79 20.05 20.49C20 20.45 19.96 20.41 19.92 20.37C19.87 20.34 19.83 20.3 19.79 20.26L19.09 19.56C18.71 19.18 18.71 18.55 19.09 18.17C19.47 17.79 20.1 17.79 20.48 18.17L21.18 18.87C21.2 18.89 21.22 18.91 21.23 18.93C21.25 18.94 21.27 18.96 21.29 18.98C21.44 19.1 21.62 19.2 21.81 19.25C22.12 19.34 22.36 19.57 22.46 19.86C22.49 19.56 22.67 19.28 22.95 19.12C23.06 19.06 23.17 18.97 23.26 18.88L23.49 18.65C23.87 18.27 24.5 18.27 24.88 18.65C25.26 19.03 25.26 19.66 24.88 20.04L24.64 20.26C24.42 20.48 24.18 20.66 23.91 20.82C23.44 21.09 22.84 20.93 22.57 20.45C22.54 20.4 22.52 20.35 22.5 20.3C22.49 20.35 22.48 20.41 22.47 20.46C22.35 20.9 21.95 21.17 21.53 21.17ZM25.57 18.93C25.32 18.93 25.07 18.83 24.87 18.64C24.49 18.26 24.49 17.63 24.87 17.25L25.57 16.55C25.92 16.2 26.48 16.17 26.87 16.47C26.59 16.17 26.52 15.7 26.73 15.32C26.83 15.15 26.89 14.96 26.91 14.76C26.94 14.44 27.13 14.17 27.4 14.01C27.1 14.03 26.79 13.91 26.58 13.66C26.55 13.63 26.52 13.59 26.49 13.56L25.95 13.02C25.57 12.64 25.57 12.02 25.94 11.64C25.56 12.01 24.94 12.01 24.56 11.63L23.86 10.93C23.54 10.61 23.49 10.13 23.7 9.75004C23.44 10 23.06 10.09 22.7 9.97004C22.54 9.92004 22.39 9.89004 22.21 9.89004C22.18 9.89004 22.15 9.89004 22.12 9.89004C21.79 9.91004 21.49 9.77004 21.3 9.53004C21.38 9.85004 21.29 10.21 21.04 10.46L20.34 11.16C19.96 11.54 19.34 11.54 18.96 11.17C19.33 11.55 19.33 12.17 18.95 12.55L18.25 13.25C17.97 13.53 17.58 13.6 17.23 13.48C17.46 13.7 17.59 14.02 17.53 14.36C17.52 14.44 17.51 14.52 17.51 14.59C17.51 14.71 17.52 14.83 17.55 14.94C17.64 15.29 17.52 15.64 17.29 15.87C17.65 15.71 18.09 15.78 18.39 16.07L19.09 16.77C19.47 17.15 19.47 17.78 19.09 18.16C18.71 18.54 18.08 18.54 17.7 18.16L17 17.46C16.62 17.08 16.62 16.45 17 16.07C16.95 16.09 16.89 16.11 16.83 16.13C16.3 16.26 15.77 15.94 15.64 15.41C15.57 15.14 15.54 14.86 15.54 14.59C15.54 14.41 15.55 14.23 15.58 14.05C15.66 13.51 16.17 13.15 16.71 13.23C16.77 13.24 16.82 13.25 16.88 13.27C16.87 13.27 16.86 13.26 16.85 13.26C16.47 12.88 16.47 12.25 16.85 11.87L17.55 11.17C17.93 10.79 18.55 10.79 18.93 11.16C18.56 10.78 18.56 10.16 18.94 9.78004L19.64 9.08004C20.02 8.70004 20.65 8.70004 21.03 9.08004C21.05 9.10004 21.07 9.13004 21.09 9.15004C21.08 9.10004 21.07 9.04004 21.06 8.98004C21.02 8.44004 21.43 7.97004 21.98 7.93004C22.06 7.92004 22.13 7.92004 22.21 7.92004C22.59 7.92004 22.97 7.98004 23.33 8.11004C23.84 8.29004 24.12 8.85004 23.94 9.36004C23.92 9.42004 23.9 9.47004 23.87 9.52004C24.26 9.15004 24.87 9.16004 25.25 9.54004L25.95 10.24C26.33 10.62 26.33 11.24 25.96 11.62C26.35 11.25 26.96 11.25 27.34 11.63L27.88 12.17C27.96 12.24 28.03 12.32 28.09 12.4C28.44 12.82 28.38 13.44 27.96 13.79C27.92 13.83 27.87 13.86 27.82 13.89C27.87 13.89 27.93 13.89 27.98 13.89C28.52 13.95 28.91 14.43 28.85 14.97C28.8 15.43 28.66 15.87 28.44 16.28C28.17 16.75 27.58 16.93 27.1 16.66C27.06 16.64 27.02 16.61 26.98 16.58C27.34 16.97 27.33 17.57 26.96 17.95L26.26 18.65C26.08 18.83 25.82 18.93 25.57 18.93Z" fill="white"/>
<path d="M22.2097 18.84C21.8997 18.84 21.5997 18.8 21.2997 18.72C20.9797 18.63 20.7397 18.4 20.6297 18.11C20.3297 18.16 19.9997 18.07 19.7697 17.84L19.0697 17.14C18.6897 16.76 18.6897 16.13 19.0697 15.75C19.0997 15.72 19.1197 15.7 19.1497 15.68C19.0997 15.69 19.0397 15.7 18.9797 15.7C18.4297 15.73 17.9797 15.3 17.9497 14.76C17.9497 14.71 17.9497 14.66 17.9497 14.6C17.9497 14.19 18.0197 13.79 18.1597 13.4C18.3497 12.89 18.9097 12.63 19.4197 12.82C19.4697 12.84 19.5297 12.86 19.5797 12.89C19.2097 12.5 19.2197 11.89 19.5997 11.52L19.7597 11.36C20.0097 11.11 20.2997 10.9 20.6197 10.73C21.0997 10.48 21.6997 10.67 21.9497 11.15C21.9797 11.2 21.9997 11.25 22.0097 11.3C22.0197 11.25 22.0297 11.19 22.0497 11.14C22.2197 10.63 22.7797 10.35 23.2997 10.52C23.7397 10.67 24.1397 10.9 24.4897 11.21C24.8997 11.57 24.9297 12.19 24.5697 12.6L24.5597 12.61C24.5997 12.58 24.6397 12.55 24.6797 12.53C25.1597 12.27 25.7597 12.44 26.0197 12.91C26.2397 13.32 26.3797 13.76 26.4297 14.22C26.4897 14.76 26.0897 15.24 25.5497 15.3C25.4897 15.31 25.4397 15.31 25.3897 15.3C25.4397 15.33 25.4797 15.36 25.5297 15.4C25.9497 15.75 25.9997 16.37 25.6497 16.79C25.5897 16.87 25.5197 16.94 25.4497 17.01L24.9097 17.55C24.5297 17.93 23.8997 17.93 23.5197 17.55C23.5097 17.54 23.4997 17.53 23.4797 17.51C23.4997 17.56 23.5097 17.62 23.5197 17.68C23.5897 18.22 23.2097 18.71 22.6697 18.79C22.5197 18.83 22.3597 18.84 22.2097 18.84ZM22.5397 16.85C22.8197 16.85 23.0897 16.97 23.2697 17.18C23.1597 16.84 23.2397 16.46 23.5097 16.19L24.0497 15.65C24.0797 15.62 24.1097 15.59 24.1397 15.55C24.3497 15.3 24.6597 15.18 24.9597 15.2C24.6997 15.05 24.5097 14.78 24.4797 14.45C24.4597 14.25 24.3997 14.06 24.3097 13.89C24.0997 13.51 24.1697 13.05 24.4497 12.75C24.0797 13.03 23.5597 13.02 23.1997 12.7C23.0497 12.57 22.8797 12.47 22.6897 12.41C22.3797 12.31 22.1597 12.06 22.0697 11.77C22.0197 12.07 21.8397 12.34 21.5497 12.49C21.4197 12.56 21.2897 12.65 21.1797 12.76L21.0197 12.92C20.6997 13.24 20.1997 13.3 19.8297 13.07C20.0797 13.33 20.1697 13.73 20.0397 14.09C19.9797 14.25 19.9497 14.43 19.9497 14.6V14.67C19.9597 15 19.8197 15.29 19.5797 15.48C19.8997 15.41 20.2397 15.5 20.4897 15.75L21.1897 16.45C21.2897 16.55 21.3697 16.68 21.4197 16.81C21.5597 16.79 21.6997 16.79 21.8397 16.83C22.0297 16.88 22.2297 16.9 22.4297 16.87C22.4497 16.85 22.4897 16.85 22.5397 16.85Z" fill="#BD502F"/>
</g>
<defs>
<clipPath id="clip0_222_1836">
<rect width="42.8" height="33.7" fill="white" transform="translate(0.660156 0.26001)"/>
</clipPath>
</defs>
</svg>
