<svg width="27" height="16" viewBox="0 0 27 16" fill="none" xmlns="http://www.w3.org/2000/svg">
<g clip-path="url(#clip0_222_1772)">
<path d="M23.0301 12.635H5.08008V4.03503L13.4301 5.12503L23.0301 4.03503V12.635Z" fill="#B27B2B"/>
<path d="M26.0799 6.94504C25.8299 6.78504 25.5499 6.70504 25.2799 6.68504C25.6999 6.03504 25.6399 5.15504 25.0899 4.56504C24.4299 3.87504 23.3399 3.84504 22.6499 4.50504L22.2199 4.91504C22.0299 5.09504 21.3899 5.61504 19.5899 6.54504C17.9799 7.38504 16.2099 8.12504 14.4299 8.14504C13.3699 8.15504 12.1499 8.10504 10.8099 7.98504C8.97989 7.82504 7.29989 6.92504 6.00989 5.93504C5.65989 5.66504 5.34989 5.37504 5.03989 5.06504C7.14989 6.54504 10.1599 7.10504 14.0499 7.10504C19.2399 7.10504 23.2299 4.04504 23.3899 3.90504C24.0999 3.27504 24.1799 2.19504 23.5499 1.47504C22.9299 0.755042 21.8399 0.685042 21.1199 1.30504C21.0899 1.33504 17.9199 4.03504 14.0499 4.03504C11.4499 4.03504 7.98989 3.60504 6.27989 1.57504L6.18989 1.46504C5.55989 0.745042 4.46989 0.675042 3.75989 1.30504C3.04989 1.93504 2.97989 3.02504 3.59989 3.74504L3.64989 3.80504C3.75989 3.92504 3.87989 4.05504 3.99989 4.17504C3.40989 3.92504 2.71989 4.00504 2.19989 4.44504C1.53989 5.01504 1.41989 5.97504 1.87989 6.68504C1.61989 6.70504 1.35989 6.77504 1.11989 6.92504C0.299887 7.41504 0.0398868 8.47504 0.529887 9.28504C2.90989 13.255 7.48989 15.295 14.1399 15.345C14.1799 15.345 14.2199 15.345 14.2599 15.345C20.6399 15.345 25.4099 11.225 26.6199 9.32504C27.1199 8.52504 26.8799 7.45504 26.0799 6.94504ZM14.1599 12.285C9.69989 12.285 6.83989 11.175 4.96989 9.38504C6.57989 10.355 8.45989 10.965 10.4799 11.135C11.7799 11.255 12.9899 11.305 14.0699 11.305C14.1999 11.305 14.3299 11.305 14.4599 11.305C16.7699 11.275 19.0899 10.685 21.1799 9.60504C21.5699 9.40504 21.9299 9.20504 22.2599 9.01504C20.6599 10.445 17.8599 12.275 14.2499 12.275C14.2199 12.285 14.1899 12.285 14.1599 12.285Z" fill="#FEBD3F"/>
<path d="M23.5599 1.46503C22.9399 0.755028 21.8499 0.675028 21.1299 1.29503C21.1299 1.29503 20.9799 1.42503 20.7199 1.61503C21.7899 1.85503 22.5999 2.81503 22.5999 3.96503C22.5999 4.15503 22.5699 4.32503 22.5299 4.50503C23.0599 4.17503 23.3699 3.93503 23.4099 3.89503C24.1099 3.27503 24.1799 2.18503 23.5599 1.46503ZM26.0799 6.94503C25.8299 6.78503 25.5499 6.70503 25.2799 6.68503C25.6999 6.03503 25.6399 5.15503 25.0899 4.56503C24.4299 3.87503 23.3399 3.84503 22.6499 4.50503L22.4799 4.66503C23.4899 4.94503 24.2399 5.86503 24.2399 6.96503C24.2399 7.28503 24.1799 7.58503 24.0599 7.85503C25.1499 7.98503 26.0299 8.83503 26.1699 9.91503C26.3499 9.69503 26.4999 9.50503 26.6099 9.32503C27.1199 8.52503 26.8799 7.45503 26.0799 6.94503ZM6.76989 2.06503C6.59989 1.91503 6.42989 1.74503 6.28989 1.57503L6.18989 1.45503C5.55989 0.745028 4.46989 0.675028 3.75989 1.30503C3.03989 1.93503 2.96989 3.02503 3.60989 3.74503L3.64989 3.79503C3.75989 3.92503 3.87989 4.05503 3.99989 4.17503C3.40989 3.92503 2.71989 4.00503 2.20989 4.44503C1.53989 5.01503 1.41989 5.97503 1.88989 6.68503C1.61989 6.70503 1.35989 6.77503 1.11989 6.91503C0.299887 7.41503 0.0398868 8.47503 0.529887 9.28503C0.779887 9.71503 1.05989 10.125 1.36989 10.505C1.43989 9.33503 2.34989 8.40503 3.49989 8.27503C3.38989 8.00503 3.31989 7.70503 3.31989 7.38503C3.31989 6.28503 4.05989 5.37503 5.05989 5.08503C5.05989 5.07503 5.04989 5.07503 5.03989 5.06503C5.04989 5.07503 5.06989 5.07503 5.07989 5.08503C5.01989 4.85503 4.96989 4.63503 4.96989 4.38503C4.96989 3.26503 5.72989 2.33503 6.76989 2.06503Z" fill="#DEA036"/>
<path d="M13.0001 6.03507C9.81013 6.03507 8.50013 5.07507 8.36013 4.96507C8.11013 4.76507 8.06013 4.39507 8.26013 4.14507C8.46013 3.89507 8.82013 3.85507 9.07013 4.04507C9.11013 4.07507 10.2301 4.87507 13.0001 4.87507C13.3201 4.87507 13.5801 5.13507 13.5801 5.45507C13.5801 5.77507 13.3201 6.03507 13.0001 6.03507Z" fill="#FFEED2"/>
<path d="M12.8399 10.3451C8.7999 10.3451 7.1499 9.12507 6.9699 8.99507C6.6499 8.73507 6.5999 8.27507 6.8499 7.95507C7.0999 7.63507 7.5599 7.57507 7.8799 7.82507C7.9199 7.85507 9.3399 8.86507 12.8399 8.86507C13.2499 8.86507 13.5799 9.19507 13.5799 9.60507C13.5799 10.0151 13.2499 10.3451 12.8399 10.3451Z" fill="#FFEED2"/>
<path d="M12.3199 14.365C8.27988 14.365 6.62988 13.145 6.44988 13.015C6.12988 12.765 6.07988 12.295 6.32988 11.975C6.57988 11.655 7.03988 11.605 7.35988 11.845C7.39988 11.875 8.81988 12.885 12.3199 12.885C12.7299 12.885 13.0599 13.215 13.0599 13.625C13.0599 14.035 12.7299 14.365 12.3199 14.365Z" fill="#FFEED2"/>
</g>
<defs>
<clipPath id="clip0_222_1772">
<rect width="26.6" height="14.47" fill="white" transform="translate(0.279785 0.875)"/>
</clipPath>
</defs>
</svg>
