<svg width="14" height="8" viewBox="0 0 14 8" fill="none" xmlns="http://www.w3.org/2000/svg">
<g clip-path="url(#clip0_222_1961)">
<path fill-rule="evenodd" clip-rule="evenodd" d="M10.84 2.14489V2.40489H9.02002V1.88489H10.58C10.72 1.88489 10.84 2.00489 10.84 2.14489Z" fill="#646B82"/>
<path opacity="0.1" fill-rule="evenodd" clip-rule="evenodd" d="M10.11 2.40489H9.02002V1.88489H9.80002C9.92002 2.04489 10.02 2.22489 10.11 2.40489Z" fill="black"/>
<path fill-rule="evenodd" clip-rule="evenodd" d="M3.02979 2.14489V2.40489H4.84979V1.88489H3.28979C3.14979 1.88489 3.02979 2.00489 3.02979 2.14489Z" fill="#646B82"/>
<path opacity="0.1" fill-rule="evenodd" clip-rule="evenodd" d="M3.77979 2.40489H4.84979V1.88489H4.08979C3.96979 2.04489 3.86979 2.22489 3.77979 2.40489Z" fill="black"/>
<path fill-rule="evenodd" clip-rule="evenodd" d="M3.02979 5.68493V5.42493H4.84979V5.95493H3.28979C3.14979 5.94493 3.02979 5.82493 3.02979 5.68493Z" fill="#646B82"/>
<path opacity="0.1" fill-rule="evenodd" clip-rule="evenodd" d="M3.77979 5.42493H4.84979V5.95493H4.08979C3.96979 5.78493 3.86979 5.60493 3.77979 5.42493Z" fill="black"/>
<path fill-rule="evenodd" clip-rule="evenodd" d="M10.84 5.68493V5.42493H9.02002V5.95493H10.58C10.72 5.94493 10.84 5.82493 10.84 5.68493Z" fill="#646B82"/>
<path opacity="0.1" fill-rule="evenodd" clip-rule="evenodd" d="M10.11 5.42493H9.02002V5.95493H9.80002C9.92002 5.78493 10.02 5.60493 10.11 5.42493Z" fill="black"/>
<path fill-rule="evenodd" clip-rule="evenodd" d="M7.33955 7.1449V7.5549C7.33955 7.6049 7.29955 7.6549 7.23955 7.6549H6.63955C6.58955 7.6549 6.53955 7.6149 6.53955 7.5549V7.1449H7.33955Z" fill="#646B82"/>
<path opacity="0.05" fill-rule="evenodd" clip-rule="evenodd" d="M7.25945 7.65495C7.24945 7.65495 7.24945 7.65495 7.23945 7.65495H7.18945V7.19495H7.25945V7.65495Z" fill="black"/>
<path opacity="0.05" d="M7.10955 7.19495H7.03955V7.65495H7.10955V7.19495Z" fill="black"/>
<path opacity="0.05" d="M6.96941 7.19495H6.89941V7.65495H6.96941V7.19495Z" fill="black"/>
<path opacity="0.05" d="M6.81951 7.19495H6.74951V7.65495H6.81951V7.19495Z" fill="black"/>
<path opacity="0.05" fill-rule="evenodd" clip-rule="evenodd" d="M6.66961 7.65495H6.63961C6.62961 7.65495 6.60961 7.65495 6.59961 7.64495V7.19495H6.66961V7.65495Z" fill="black"/>
<path opacity="0.1" fill-rule="evenodd" clip-rule="evenodd" d="M7.32978 7.57495C7.31978 7.61495 7.27978 7.64495 7.22978 7.64495H6.62979C6.57979 7.64495 6.54979 7.61495 6.52979 7.57495H7.32978Z" fill="white"/>
<path d="M13.41 2.40491H0.459961V5.41491H13.41V2.40491Z" fill="#17212E"/>
<path opacity="0.1" fill-rule="evenodd" clip-rule="evenodd" d="M10.1099 5.42491H3.77994C3.55994 4.96491 3.43994 4.45491 3.43994 3.91491C3.43994 3.37491 3.55994 2.86491 3.77994 2.40491H10.1099C10.3299 2.86491 10.4499 3.37491 10.4499 3.91491C10.4499 4.45491 10.3299 4.96491 10.1099 5.42491Z" fill="black"/>
<path d="M6.93984 7.26494C8.79 7.26494 10.2898 5.7651 10.2898 3.91494C10.2898 2.06479 8.79 0.564941 6.93984 0.564941C5.08969 0.564941 3.58984 2.06479 3.58984 3.91494C3.58984 5.7651 5.08969 7.26494 6.93984 7.26494Z" fill="#515970"/>
<path d="M6.94 6.60498C8.42565 6.60498 9.63 5.40062 9.63 3.91498C9.63 2.42933 8.42565 1.22498 6.94 1.22498C5.45435 1.22498 4.25 2.42933 4.25 3.91498C4.25 5.40062 5.45435 6.60498 6.94 6.60498Z" fill="#F2F5FF"/>
<path fill-rule="evenodd" clip-rule="evenodd" d="M8.2498 1.60489L8.2998 1.63489L8.0998 1.96489C8.0898 1.95489 8.0698 1.94489 8.0598 1.93489L8.2498 1.60489ZM8.8998 2.75489L9.2298 2.56489L9.2598 2.61489L8.9198 2.80489C8.9098 2.78489 8.9098 2.77489 8.8998 2.75489ZM9.2098 3.88489H9.5898V3.93489H9.2098C9.2098 3.92489 9.2098 3.91489 9.2098 3.90489C9.2098 3.90489 9.2098 3.89489 9.2098 3.88489ZM8.9198 5.02489L9.2498 5.21489L9.2298 5.26489L8.8998 5.07489C8.9098 5.05489 8.9098 5.04489 8.9198 5.02489ZM8.0998 5.86489L8.2898 6.19489L8.2498 6.22489L8.0598 5.89489C8.0698 5.88489 8.0898 5.87489 8.0998 5.86489ZM6.96981 6.18489V6.56489H6.9198V6.18489C6.9298 6.18489 6.9398 6.18489 6.9498 6.18489C6.9498 6.18489 6.95981 6.18489 6.96981 6.18489ZM5.8298 5.89489L5.6398 6.22489L5.5998 6.19489L5.7898 5.86489C5.7998 5.87489 5.8198 5.88489 5.8298 5.89489ZM4.9898 5.07489L4.6598 5.26489L4.6398 5.21489L4.96981 5.02489C4.97981 5.04489 4.9798 5.05489 4.9898 5.07489ZM4.6798 3.94489H4.2998V3.88489H4.6798C4.6798 3.89489 4.6798 3.90489 4.6798 3.91489C4.6798 3.92489 4.6798 3.93489 4.6798 3.94489ZM4.96981 2.80489L4.6398 2.61489L4.6598 2.56489L4.9898 2.75489C4.9798 2.77489 4.97981 2.78489 4.96981 2.80489ZM5.7898 1.96489L5.5998 1.63489L5.6498 1.60489L5.8398 1.93489C5.8198 1.94489 5.7998 1.95489 5.7898 1.96489ZM6.9198 1.64489V1.26489H6.96981V1.64489C6.95981 1.64489 6.9498 1.64489 6.9398 1.64489C6.9398 1.64489 6.9298 1.64489 6.9198 1.64489Z" fill="#333333"/>
<path fill-rule="evenodd" clip-rule="evenodd" d="M7.83981 2.51496L6.75981 4.31496C6.73981 4.33496 6.71981 4.34496 6.69981 4.33496C6.66981 4.31496 6.66981 4.29496 6.67981 4.26496L7.75981 2.46496C7.76981 2.44496 7.79981 2.43496 7.81981 2.44496C7.83981 2.46496 7.84981 2.49496 7.83981 2.51496Z" fill="#B6BDD6"/>
<path fill-rule="evenodd" clip-rule="evenodd" d="M8.06991 5.71497L6.75991 3.50497C6.73991 3.48497 6.71991 3.48497 6.68991 3.49497C6.66991 3.50497 6.66991 3.53497 6.67991 3.55497L7.99991 5.75497C8.00991 5.77497 8.03991 5.78497 8.05991 5.77497C8.07991 5.76497 8.07991 5.73497 8.06991 5.71497Z" fill="#B6BDD6"/>
<path fill-rule="evenodd" clip-rule="evenodd" d="M7.33979 3.86497V3.89497H7.49978C7.50978 3.89497 7.51978 3.90497 7.51978 3.91497C7.51978 3.92497 7.50978 3.93497 7.49978 3.93497H7.33979V3.96497C7.33979 3.97497 7.32979 3.98497 7.31979 3.98497H7.13978C7.12978 3.98497 7.11978 3.97497 7.11978 3.96497V3.92497L5.04979 3.91497C5.03979 3.91497 5.02979 3.90497 5.02979 3.89497C5.02979 3.88497 5.03979 3.87497 5.04979 3.87497L7.12979 3.88497V3.86497C7.12979 3.85497 7.13979 3.84497 7.14979 3.84497H7.31979C7.32979 3.84497 7.33979 3.85497 7.33979 3.86497Z" fill="#677199"/>
<path fill-rule="evenodd" clip-rule="evenodd" d="M6.7998 3.91489C6.7998 3.99489 6.8698 4.06489 6.9498 4.06489C7.0298 4.06489 7.0998 3.99489 7.0998 3.91489C7.0998 3.83489 7.0298 3.76489 6.9498 3.76489C6.8598 3.77489 6.7998 3.83489 6.7998 3.91489Z" fill="#919ABF"/>
<path fill-rule="evenodd" clip-rule="evenodd" d="M6.87012 3.91496C6.87012 3.95496 6.90012 3.99496 6.95012 3.99496C6.99012 3.99496 7.03012 3.96496 7.03012 3.91496C7.03012 3.87496 7.00012 3.83496 6.95012 3.83496C6.90012 3.83496 6.87012 3.87496 6.87012 3.91496Z" fill="#A7B0D1"/>
</g>
<defs>
<clipPath id="clip0_222_1961">
<rect width="12.95" height="7.09" fill="white" transform="translate(0.459961 0.564941)"/>
</clipPath>
</defs>
</svg>
