<svg width="56" height="84" viewBox="0 0 56 84" fill="none" xmlns="http://www.w3.org/2000/svg">
<g clip-path="url(#clip0_222_257)">
<path d="M50.3701 76.1C50.3701 76.1 50.1501 76.5 49.7201 77.15C49.3301 77.73 49.0101 78.81 48.0001 79.4C33.5701 88.01 4.08012 79.35 4.08012 79.35C4.08012 79.35 4.04012 70.14 9.34012 67.96C9.34012 67.96 7.58012 63.65 10.9301 61.36C10.9301 61.36 5.99012 56.42 3.71012 51.42C3.43012 50.81 3.19012 50.21 3.01012 49.61C1.87012 45.93 1.89012 38.17 2.04012 33.38C2.05012 33.02 2.06012 32.68 2.07012 32.36C2.14012 30.5 2.21012 29.28 2.21012 29.28C2.21012 29.28 3.10012 27.08 4.44012 25.3C5.63012 23.72 7.19012 22.47 8.80012 23.38V44.69C8.80012 46.11 8.93012 47.52 9.21012 48.9V48.91C10.0601 53.17 12.2101 57.09 15.5201 59.99C17.5901 61.8 20.2301 63.34 23.5901 64.14C26.4201 64.81 29.1001 64.73 31.5801 64.13C38.8001 62.38 44.2701 56.16 46.8301 51.11C47.0301 50.74 47.2001 50.38 47.3601 50.01C47.5601 49.58 47.7301 49.28 47.9001 49.1C48.0601 48.92 48.5301 49.05 48.6101 49.19C48.8301 49.53 48.9901 50.15 49.1401 50.98C49.3501 52.19 49.4901 53.83 49.5801 55.66C49.9601 62.02 50.3701 76.1 50.3701 76.1Z" fill="#FF6B97"/>
<path d="M9.23047 48.9099V48.9199C7.69047 50.2599 5.48047 51.0199 3.72047 51.4299C3.44047 50.8199 3.20047 50.2199 3.02047 49.6199C1.88047 45.9399 1.90047 38.1799 2.04047 33.3999C2.02047 33.4399 1.99047 33.4699 1.97047 33.5099C1.97047 33.5099 1.87047 33.1999 1.73047 32.6299L2.07047 32.3699L3.09047 31.5899L3.45047 31.3199L6.42047 25.4899L8.84047 24.0099C8.81047 24.1199 8.83047 28.1599 8.81047 28.2699V44.6899C8.82047 46.1199 8.95047 47.5299 9.23047 48.9099Z" fill="#80366B"/>
<path d="M49.8103 49.3599L49.7803 50.3699L49.6103 55.6799L49.1003 71.6099L47.4503 79.7399C46.4203 80.4699 43.4003 81.4699 43.4003 81.4699C43.4003 81.4699 43.3603 68.3599 43.2303 65.5599C43.0503 61.6899 39.8903 63.0799 39.8903 63.0799C30.6403 70.7299 20.6603 70.9499 15.3303 70.3199C9.87025 69.6699 11.1903 66.5999 16.0703 67.4099C20.5903 68.1499 26.5903 66.7099 26.5903 66.7099C28.4503 66.2499 30.1203 65.3399 31.6003 64.1499C38.8203 62.3999 44.2903 56.1799 46.8503 51.1299L47.9203 49.1199L48.6303 49.2099L49.8103 49.3599Z" fill="#80366B"/>
<path d="M12.9102 73.91C12.9102 73.91 26.4402 74.4999 33.5702 71.0699C33.5702 71.0699 30.8002 74.4999 24.0602 75.3599C16.8502 76.2899 12.9102 73.91 12.9102 73.91Z" fill="#80366B"/>
<path d="M8.85037 24.0199C8.82037 24.1299 8.84037 28.1699 8.82037 28.2799C8.29037 31.0499 4.99037 35.2699 3.76037 34.0399C3.21037 33.4899 3.08037 32.6299 3.09037 31.8699C3.09037 31.8599 3.09037 31.8499 3.09037 31.8499C3.09037 31.7699 3.10037 31.6799 3.10037 31.5999L3.46037 31.3299L6.43037 25.4999L8.85037 24.0199Z" fill="#5A265E"/>
<path d="M52.1203 44.7699V78.8099C52.1203 79.3899 51.8904 79.9499 51.4904 80.3499L51.1203 80.7099C50.7003 81.1299 50.1403 81.3499 49.5803 81.3499C49.1703 81.3499 48.7604 81.2399 48.4004 81.0099C47.7704 80.6199 47.3904 79.9099 47.3904 79.1699L46.8604 51.0999L52.1203 44.7699Z" fill="#FF6B97"/>
<path d="M52.1203 46.7599C51.4603 48.1599 49.6203 51.3399 46.8503 52.5199L46.8603 51.1099L47.0003 25.8899C47.0003 25.6799 46.9903 25.4799 46.9703 25.2599C46.8403 23.7699 46.1703 22.3599 45.1003 21.2899C45.0103 21.1999 44.9003 21.0899 44.8003 20.9899C41.7803 17.9499 37.3403 15.2899 31.2703 14.1899C29.6703 13.8999 28.0203 14.0799 26.5003 14.6399C22.6803 16.0399 14.9503 19.3299 9.24033 24.6999C7.31033 26.5099 5.34033 28.6699 3.47033 31.3299C3.35033 31.5099 3.22033 31.6599 3.10033 31.8499C3.10033 31.8499 3.10033 31.8599 3.10033 31.8699C2.76033 32.3699 2.41033 32.8699 2.06033 33.3999C2.04033 33.4399 2.01033 33.4699 1.99033 33.5099C1.99033 33.5099 1.89033 33.1999 1.75033 32.6299C0.910332 29.2099 -1.35967 16.4799 8.47033 8.13993C17.6703 0.339931 26.6003 0.339931 31.1803 0.519931C35.7603 0.699931 47.0203 4.21993 52.1203 14.8099C55.9903 22.8499 56.2203 38.1499 52.1203 46.7599Z" fill="#FF6B97"/>
<path d="M47.3804 25.7299C47.3804 25.7299 47.2104 25.5499 46.9704 25.2599C46.8404 23.7699 46.1703 22.3599 45.1003 21.2899C45.0103 21.1999 44.9004 21.0899 44.8004 20.9899C44.8604 20.3599 44.8504 19.3799 44.8204 18.3699C44.7504 16.0799 43.9503 13.8699 42.5803 12.0399L38.3604 6.3999C40.3204 7.5799 42.3404 9.2699 43.9704 10.7799C44.1004 10.8999 44.2704 11.0799 44.4604 11.2999C46.5603 13.6899 47.6003 16.8399 47.3703 20.0199L47.3804 25.7299Z" fill="#80366B"/>
<path d="M4.77051 23.3899C4.77051 23.3899 9.74051 12.4499 18.3205 9.65991C18.3305 9.65991 8.16051 18.5299 4.77051 23.3899Z" fill="#80366B"/>
</g>
<defs>
<clipPath id="clip0_222_257">
<rect width="54.2" height="82.74" fill="white" transform="translate(0.910156 0.47998)"/>
</clipPath>
</defs>
</svg>
