<svg width="64" height="36" viewBox="0 0 64 36" fill="none" xmlns="http://www.w3.org/2000/svg">
<g clip-path="url(#clip0_222_685)">
<path d="M32.1421 14.2839C49.7021 14.2839 63.9321 18.9539 63.9321 24.7039C63.9321 30.4639 49.7021 35.1239 32.1421 35.1239C14.5821 35.1239 0.352051 30.4539 0.352051 24.7039C0.352051 18.9539 14.5821 14.2839 32.1421 14.2839Z" fill="#F2A65E"/>
<path d="M11.5618 19.434L10.1118 23.914C18.6118 34.734 47.1118 34.8539 54.3018 23.3839L53.2418 19.424C39.9618 25.264 26.2418 26.924 11.5618 19.434Z" fill="#08757E"/>
<path d="M27.9221 0.703964C27.9221 0.703964 22.6121 0.853968 20.2721 2.68397C15.2921 6.56397 11.4321 19.834 11.4321 19.834C23.7621 26.644 36.5621 30.174 53.5121 19.434C53.5121 19.434 49.3921 6.42397 43.8821 2.41397C42.1421 1.15397 38.3421 0.563965 38.3421 0.563965C38.3921 0.593965 34.9221 2.19397 31.8821 1.62397C30.7221 1.40397 27.9221 0.703964 27.9221 0.703964Z" fill="#F2A65E"/>
<path d="M25.8522 2.59402C25.8522 2.59402 25.4722 2.97402 25.6822 3.47402C26.4922 6.09402 33.9422 5.91402 37.8222 3.21402C38.6022 2.67402 37.6922 2.15402 37.6922 2.15402C37.6922 2.15402 39.3222 2.14402 39.2722 2.81402C39.2222 3.58402 38.6422 3.91402 37.9522 4.26402C33.3522 6.61402 27.3322 7.42402 24.7622 2.94402C24.2522 2.05402 29.2422 1.62402 29.2422 1.62402L25.8522 2.59402Z" fill="#BF7F21"/>
</g>
<defs>
<clipPath id="clip0_222_685">
<rect width="63.58" height="34.56" fill="white" transform="translate(0.350098 0.569946)"/>
</clipPath>
</defs>
</svg>
