<svg width="52" height="81" viewBox="0 0 52 81" fill="none" xmlns="http://www.w3.org/2000/svg">
<g clip-path="url(#clip0_222_218)">
<path d="M47.44 19.94C47.44 20.13 47.44 20.32 47.42 20.5C47.42 20.74 47.41 20.97 47.39 21.2C47.35 21.78 47.28 22.35 47.18 22.91C47.09 23.45 46.97 23.98 46.81 24.5C46.61 25.27 46.34 26.02 46.02 26.75C45.78 27.33 45.5 27.89 45.19 28.44L45.18 28.45L45.17 28.44C44.07 27.51 42.65 26.95 41.1 26.95H40.66C38.84 26.95 37.35 26.98 35.72 27.92C33.6 29.14 29.79 29.58 25.95 29.58C22.12 29.58 17.84 28.89 15.72 27.67C14.93 27.21 14.26 27.02 13.58 26.95H10.81C10.44 26.95 10.08 26.98 9.73996 27.05C8.59996 27.23 7.56996 27.73 6.72996 28.44L6.71996 28.45C6.70996 28.45 6.70996 28.44 6.70996 28.44C6.45996 28 6.22996 27.55 6.02996 27.09C5.63996 26.26 5.32996 25.39 5.08996 24.5C4.92996 23.98 4.80996 23.45 4.71996 22.91C4.61996 22.35 4.54996 21.78 4.50996 21.2C4.48996 20.97 4.47996 20.74 4.47996 20.5C4.45996 20.32 4.45996 20.13 4.45996 19.94C4.45996 19.12 4.51996 18.32 4.63996 17.53C5.96996 8.12999 15.01 0.859985 25.95 0.859985C36.9 0.859985 45.94 8.12999 47.26 17.53C47.38 18.32 47.44 19.12 47.44 19.94Z" fill="#8FDE5D"/>
<path d="M22.8599 12.03H11.8799C11.3299 12.03 10.8799 11.58 10.8799 11.03C10.8799 10.48 11.3299 10.03 11.8799 10.03H22.8599C23.4099 10.03 23.8599 10.48 23.8599 11.03C23.8599 11.58 23.4099 12.03 22.8599 12.03Z" fill="#3CA370"/>
<path d="M35.0902 19.3H16.8202C15.9002 19.3 15.1602 18.39 15.1602 17.26C15.1602 16.13 15.9002 15.22 16.8202 15.22H35.0902C36.0102 15.22 36.7502 16.13 36.7502 17.26C36.7502 18.39 36.0102 19.3 35.0902 19.3Z" fill="#3CA370"/>
<path d="M17.75 65.79V80.84H4.45996V33.29C4.45996 31.69 5.04996 30.24 6.02996 29.13V47.59C6.02996 52.9 8.09996 57.73 11.49 61.31C12.1 61.97 12.77 62.59 13.49 63.16C14.67 64.12 15.97 64.94 17.36 65.61C17.49 65.67 17.62 65.73 17.75 65.79Z" fill="#3D6E70"/>
<path d="M35.7201 27.92C33.6001 29.14 29.7901 29.58 25.9501 29.58C22.1201 29.58 17.8401 28.89 15.7201 27.67C14.9301 27.21 14.2601 27.02 13.5801 26.95H40.6601C38.8401 26.95 37.3501 26.98 35.7201 27.92Z" fill="#3D6E70"/>
<path d="M47.4402 33.2999V80.8399H33.7402V66.0399C40.9502 63.0199 46.0202 55.8999 46.0202 47.5899V29.2999C46.9102 30.3899 47.4402 31.7799 47.4402 33.2999Z" fill="#3D6E70"/>
<path d="M13.4902 63.1599V68.4199C13.4902 68.9799 13.0402 69.4199 12.4902 69.4199C11.9402 69.4199 11.4902 68.9799 11.4902 68.4199V61.3099C12.1002 61.9699 12.7702 62.5899 13.4902 63.1599Z" fill="#323E4F"/>
<path d="M17.7499 65.79V66.66C17.5099 66.48 17.3599 66.19 17.3599 65.87V65.61C17.4899 65.67 17.6199 65.73 17.7499 65.79Z" fill="#323E4F"/>
<path d="M51.3101 28.85V80.84H47.4401V33.3C47.4401 31.78 46.9101 30.39 46.0201 29.3C45.8801 29.13 45.7401 28.97 45.5801 28.81C45.4501 28.68 45.3201 28.56 45.1801 28.45L45.1701 28.44C44.0701 27.51 42.6501 26.95 41.1001 26.95H40.6601C38.8401 26.95 37.3501 26.98 35.7201 27.92C33.6001 29.14 29.7901 29.58 25.9501 29.58C22.1201 29.58 17.8401 28.89 15.7201 27.67C14.9301 27.21 14.2601 27.02 13.5801 26.95C13.3201 26.92 13.0501 26.91 12.7701 26.91C12.1901 26.91 11.5601 26.95 10.8101 26.95C10.4401 26.95 10.0801 26.98 9.7401 27.05C8.6001 27.23 7.5701 27.73 6.7301 28.44L6.7201 28.45C6.4701 28.65 6.2401 28.88 6.0301 29.13C5.0501 30.24 4.4601 31.69 4.4601 33.29V80.84H0.600098V28.85C0.600098 27.16 1.2601 25.63 2.3301 24.5C2.4301 24.38 2.5401 24.28 2.6601 24.18C3.1801 23.69 3.7801 23.3 4.4401 23.01C4.5301 22.97 4.6301 22.94 4.7201 22.91C5.1601 22.74 5.6201 22.62 6.1001 22.56C6.1101 22.56 6.1101 22.56 6.1101 22.56C6.3801 22.52 6.6601 22.5 6.9401 22.5H44.9701C45.3001 22.5 45.6201 22.53 45.9401 22.58C46.3701 22.64 46.7801 22.75 47.1801 22.91C47.2801 22.93 47.3701 22.97 47.4701 23.01C48.1301 23.3 48.7301 23.69 49.2501 24.18C49.3701 24.27 49.4801 24.38 49.5801 24.5C50.6501 25.63 51.3101 27.16 51.3101 28.85Z" fill="#8FDE5D"/>
<path d="M48.68 21.2H3.22998C2.39998 21.2 1.72998 20.19 1.72998 19.36C1.72998 18.53 2.39998 17.52 3.22998 17.52H48.68C49.51 17.52 50.18 18.53 50.18 19.36C50.18 20.19 49.51 21.2 48.68 21.2Z" fill="#243589"/>
<path d="M51.91 22.5C51.91 23.6 51.02 24.5 49.91 24.5H2C0.89 24.5 0 23.6 0 22.5C0 21.39 0.89 20.5 2 20.5H49.91C51.02 20.5 51.91 21.39 51.91 22.5Z" fill="#172460"/>
<path d="M4.44016 22.88V24.5H2.66016V22.88C2.66016 22.39 3.06016 21.99 3.55016 21.99C4.04016 21.99 4.44016 22.39 4.44016 22.88Z" fill="#3C50C6"/>
<path d="M9.42014 22.88V24.5H7.64014V22.88C7.64014 22.39 8.04014 21.99 8.53014 21.99C9.02014 21.99 9.42014 22.39 9.42014 22.88Z" fill="#3C50C6"/>
<path d="M14.4004 22.88V24.5H12.6104V22.88C12.6104 22.39 13.0104 21.99 13.5004 21.99H13.5104C14.0004 21.99 14.4004 22.39 14.4004 22.88Z" fill="#3C50C6"/>
<path d="M19.3803 22.88V24.5H17.5903V22.88C17.5903 22.39 17.9903 21.99 18.4803 21.99H18.4903C18.9803 21.99 19.3803 22.39 19.3803 22.88Z" fill="#3C50C6"/>
<path d="M24.3603 22.88V24.5H22.5703V22.88C22.5703 22.39 22.9703 21.99 23.4603 21.99H23.4703C23.9603 21.99 24.3603 22.39 24.3603 22.88Z" fill="#3C50C6"/>
<path d="M29.3403 22.88V24.5H27.5503V22.88C27.5503 22.39 27.9503 21.99 28.4403 21.99H28.4503C28.9403 21.99 29.3403 22.39 29.3403 22.88Z" fill="#3C50C6"/>
<path d="M34.3203 22.88V24.5H32.5303V22.88C32.5303 22.39 32.9303 21.99 33.4203 21.99H33.4303C33.9203 21.99 34.3203 22.39 34.3203 22.88Z" fill="#3C50C6"/>
<path d="M39.3003 22.88V24.5H37.5103V22.88C37.5103 22.39 37.9103 21.99 38.4003 21.99H38.4103C38.9003 21.99 39.3003 22.39 39.3003 22.88Z" fill="#3C50C6"/>
<path d="M44.2702 22.88V24.5H42.4902V22.88C42.4902 22.39 42.8902 21.99 43.3802 21.99C43.8702 21.99 44.2702 22.39 44.2702 22.88Z" fill="#3C50C6"/>
<path d="M49.2502 22.88V24.5H47.4702V22.88C47.4702 22.39 47.8702 21.99 48.3602 21.99C48.8502 21.99 49.2502 22.39 49.2502 22.88Z" fill="#3C50C6"/>
</g>
<defs>
<clipPath id="clip0_222_218">
<rect width="51.91" height="79.98" fill="white" transform="translate(0 0.859985)"/>
</clipPath>
</defs>
</svg>
