<svg width="77" height="81" viewBox="0 0 77 81" fill="none" xmlns="http://www.w3.org/2000/svg">
<g clip-path="url(#clip0_222_271)">
<path d="M16.4498 20.28C16.4498 20.28 16.2498 6.63002 39.8998 2.62002C55.0398 0.0500163 62.9198 8.25002 66.4798 14.99C68.6198 19.05 67.9698 24.67 65.1698 28.3C64.0298 29.78 62.7898 31.15 61.7098 31.8C61.7098 31.81 55.6998 7.67002 16.4498 20.28Z" fill="#1483B6"/>
<path d="M17.75 40.59C17.45 41.33 16.45 41.43 16.04 40.75C12.77 35.37 4.69998 23.42 14.08 10.59C22.76 -1.27999 53.78 -3.95998 47.09 12.28C46.39 13.98 44.1 15.29 40.64 16.33C32.13 18.91 20.29 34.32 17.75 40.59Z" fill="#EB473E"/>
<mask id="mask0_222_271" style="mask-type:luminance" maskUnits="userSpaceOnUse" x="9" y="0" width="40" height="42">
<path d="M17.75 40.59C17.45 41.33 16.45 41.43 16.04 40.75C12.77 35.37 4.69998 23.42 14.08 10.59C22.76 -1.27999 53.78 -3.95998 47.09 12.28C46.39 13.98 44.1 15.29 40.64 16.33C32.13 18.91 20.29 34.32 17.75 40.59Z" fill="white"/>
</mask>
<g mask="url(#mask0_222_271)">
<path d="M49.8101 16.23V16.2L53.2401 12.78L56.6901 16.23L57.0201 15.9L53.4801 12.36V7.45H53.1701L49.7901 4.07001V-0.279995H49.8201V-0.309996L53.2501 -3.72999L56.7001 -0.279995L57.0301 -0.609995L53.4901 -4.16V-9.06999H53.1801L49.8001 -12.45V-17.36H49.3301V-17.33L45.9001 -13.91L42.4601 -17.35V-17.36H41.9901V-17.33L38.5701 -13.91L35.1301 -17.35V-17.36H34.6601V-17.33L31.2401 -13.91L27.8001 -17.35V-17.36H27.3301V-17.33L23.9101 -13.91L20.4701 -17.35V-17.36H20.0001V-17.33L16.5701 -13.91L13.1101 -17.36V-17.37H12.6401V-17.34L9.21008 -13.92L5.77008 -17.36V-17.37H5.30008V-17.34L1.87008 -13.92L-1.57992 -17.37L-1.90992 -17.04L1.63008 -13.49V-8.58H1.94008L5.32008 -5.21V-0.869995H5.29008V-0.839994L1.87008 2.58001L-1.57992 -0.869995L-1.90992 -0.539995L1.63008 3.00001V7.91001H1.94008L5.32008 11.29V15.64H5.28008V15.66L1.86008 19.09L-1.58992 15.64L-1.91992 15.97L1.62008 19.52V24.43H1.93008L5.31008 27.81V32.72H5.78008V32.69L9.20008 29.27L12.6401 32.71V32.72H13.1101V32.69L16.5401 29.27L19.9801 32.71V32.72H20.4501V32.69L23.8701 29.27L27.3101 32.71H27.7801V32.68L31.2101 29.26L34.6501 32.7H35.1201V32.67L38.5501 29.25L41.9901 32.69H42.4601V32.66L45.8901 29.24L49.3301 32.68H49.8001V32.65L53.2301 29.23L56.6801 32.68L57.0101 32.35L53.4701 28.8V23.89H53.1601L49.7801 20.51V16.17H49.8101V16.23ZM53.0001 12.35L49.8101 15.54V11.32L53.0001 8.13V12.35ZM53.0101 -4.16L49.8101 -0.969995V-5.18999L53.0001 -8.38L53.0101 -4.16ZM49.5501 -12.01L52.7601 -8.79L49.5701 -5.60999L46.3601 -8.83L49.5501 -12.01ZM46.1201 7.25001V3.03L49.3101 -0.159994V4.06001L46.1201 7.25001ZM46.1301 8.11L49.3401 11.32V15.56L46.1301 12.35V8.11ZM49.3501 -5.18999V-0.949995L46.1401 -4.16V-8.39999L49.3501 -5.18999ZM46.1301 -13.47L49.3201 -16.66V-12.44L46.1301 -9.25V-13.47ZM45.9001 -3.72999L49.0601 -0.569996L45.8901 2.60001L42.7301 -0.559996L45.9001 -3.72999ZM38.8001 8.11L42.0101 11.32V15.56L38.8001 12.35V8.11ZM38.7801 7.25001V3.03L41.9701 -0.159994V4.06001L38.7801 7.25001ZM39.0201 7.67001L42.2101 4.49001L45.4201 7.7L42.2401 10.89L39.0201 7.67001ZM38.8001 -4.16V-8.39999L42.0101 -5.18999V-0.949995L38.8001 -4.16ZM42.4401 4.06001V-0.179995L45.6501 3.03V7.27L42.4401 4.06001ZM42.4401 16.33L45.6501 19.54V23.78L42.4401 20.57V16.33ZM42.4701 11.32L45.6601 8.13V12.35L42.4701 15.54V11.32ZM45.6701 -4.16L42.4801 -0.969995V-5.18999L45.6701 -8.38V-4.16ZM42.4501 -16.68L45.6601 -13.47V-9.22999L42.4501 -12.44V-16.68ZM42.2201 -12.02L45.4301 -8.79999L42.2401 -5.62L39.0301 -8.83999L42.2201 -12.02ZM38.7901 -13.48L41.9801 -16.67V-12.45L38.7901 -9.25999V-13.48ZM38.5701 -3.72999L41.7301 -0.569996L38.5601 2.60001L35.4001 -0.559996L38.5701 -3.72999ZM31.4601 8.11L34.6601 11.32V15.56L31.4601 12.35V8.11ZM31.4501 7.24001V3.02L34.6401 -0.169994V4.05L31.4501 7.24001ZM31.6901 7.67001L34.8701 4.49001L38.0801 7.7L34.9001 10.88L31.6901 7.67001ZM31.4601 -4.16V-8.39999L34.6601 -5.18999V-0.949995L31.4601 -4.16ZM35.1101 4.06001V-0.179995L38.3201 3.03V7.27L35.1101 4.06001ZM35.1001 16.33L38.3101 19.54V23.78L35.1001 20.57V16.33ZM35.1301 11.31L38.3201 8.12V12.34L35.1301 15.53V11.31ZM38.3301 -4.16L35.1401 -0.969995V-5.18999L38.3301 -8.38V-4.16ZM35.1201 -16.69L38.3301 -13.48V-9.24L35.1101 -12.45L35.1201 -16.69ZM34.8801 -12.02L38.0901 -8.79999L34.9101 -5.62L31.7001 -8.83999L34.8801 -12.02ZM31.4601 -13.48L34.6501 -16.67V-12.45L31.4601 -9.25999V-13.48ZM31.2301 -3.72999L34.3901 -0.569996L31.2101 2.60001L28.0501 -0.559996L31.2301 -3.72999ZM24.1201 8.10001L27.3301 11.31V15.55L24.1201 12.34V8.10001ZM24.1101 7.24001V3.02L27.3001 -0.169994V4.05L24.1101 7.24001ZM24.3501 7.67001L27.5301 4.49001L30.7401 7.7L27.5601 10.88L24.3501 7.67001ZM24.1301 -4.16999V-8.41L27.3401 -5.2V-0.959995L24.1301 -4.16999ZM27.7701 4.06001V-0.179995L30.9801 3.03V7.27L27.7701 4.06001ZM27.7601 16.32L30.9701 19.53V23.77L27.7601 20.56V16.32ZM27.8001 11.31L30.9901 8.12V12.34L27.8001 15.53V11.31ZM30.9901 -4.16999L27.8001 -0.979996V-5.2L30.9901 -8.38999V-4.16999ZM27.7801 -16.69L30.9901 -13.48V-9.24L27.7801 -12.45V-16.69ZM27.5401 -12.02L30.7501 -8.79999L27.5701 -5.62L24.3601 -8.83999L27.5401 -12.02ZM24.1201 -13.48L27.3101 -16.67V-12.45L24.1201 -9.25999V-13.48ZM23.8901 -3.74L27.0501 -0.579994L23.8801 2.59001L20.7201 -0.569996L23.8901 -3.74ZM16.7801 8.10001L19.9901 11.31V15.55L16.7801 12.34V8.10001ZM16.7701 7.24001V3.02L19.9601 -0.169994V4.05L16.7701 7.24001ZM17.0101 7.66001L20.1901 4.48001L23.4001 7.69001L20.2201 10.87L17.0101 7.66001ZM16.7901 -4.16999V-8.41L20.0001 -5.2V-0.959995L16.7901 -4.16999ZM20.4301 4.05V-0.189995L23.6401 3.02V7.26001L20.4301 4.05ZM20.4301 16.32L23.6401 19.53V23.77L20.4301 20.56V16.32ZM20.4601 11.31L23.6501 8.12V12.34L20.4601 15.53V11.31ZM23.6601 -4.16999L20.4701 -0.979996V-5.2L23.6601 -8.38999V-4.16999ZM20.4401 -16.69L23.6501 -13.48V-9.24L20.4401 -12.45V-16.69ZM20.2001 -12.03L23.4101 -8.80999L20.2301 -5.63L17.0201 -8.84999L20.2001 -12.03ZM16.7801 -13.49L19.9701 -16.68V-12.46L16.7801 -9.26999V-13.49ZM16.5501 -3.74L19.7101 -0.579994L16.5401 2.59001L13.3801 -0.569996L16.5501 -3.74ZM9.45008 8.10001L12.6601 11.31V15.55L9.45008 12.34V8.10001ZM9.43008 7.23001V3.01001L12.6201 -0.179995V4.04L9.43008 7.23001ZM9.68008 7.66001L12.8601 4.48001L16.0701 7.69001L12.8901 10.87L9.68008 7.66001ZM9.45008 -4.16999V-8.41L12.6601 -5.2V-0.959995L9.45008 -4.16999ZM13.1001 4.05V-0.189995L16.3101 3.02V7.26001L13.1001 4.05ZM13.0901 16.32L16.3001 19.53V23.77L13.0901 20.56V16.32ZM13.1201 11.3L16.3101 8.11V12.33L13.1201 15.52V11.3ZM16.3201 -4.16999L13.1301 -0.979996V-5.2L16.3201 -8.38999V-4.16999ZM13.1101 -16.7L16.3201 -13.49V-9.25L13.1101 -12.46V-16.7ZM12.8701 -12.03L16.0801 -8.80999L12.9001 -5.63L9.68008 -8.84999L12.8701 -12.03ZM9.44008 -13.49L12.6301 -16.68V-12.46L9.44008 -9.26999V-13.49ZM9.22008 -3.74L12.3801 -0.579994L9.20008 2.59001L6.04008 -0.579994L9.22008 -3.74ZM8.98008 8.11V12.33L5.79008 15.52V11.3L8.98008 8.11ZM8.97008 7.25001L5.76008 4.05V-0.189995L8.97008 3.02V7.25001ZM8.98008 -4.17999L5.79008 -0.989994V-5.21L8.98008 -8.39999V-4.17999ZM5.77008 -16.7L8.98008 -13.49V-9.25L5.77008 -12.46V-16.7ZM2.11008 -13.49L5.30008 -16.68V-12.46L2.11008 -9.27999V-13.49ZM2.35008 -8.84999L5.53008 -12.03L8.74008 -8.80999L5.56008 -5.64L2.35008 -8.84999ZM2.10008 3.01001L5.29008 -0.179995V4.04L2.10008 7.23001V3.01001ZM2.34008 7.66001L5.52008 4.48001L8.74008 7.69001L5.55008 10.87L2.34008 7.66001ZM8.96008 19.52V23.76L5.75008 20.55V16.31L8.96008 19.52ZM2.09008 19.52L5.28008 16.33V20.55L2.09008 23.74V19.52ZM5.54008 27.38L2.33008 24.16L5.51008 20.98L8.72008 24.2L5.54008 27.38ZM8.97008 28.84L5.78008 32.03V27.81L8.97008 24.62V28.84ZM9.20008 19.09L6.04008 15.93L9.21008 12.76L12.3701 15.92L9.20008 19.09ZM9.43008 19.52L12.6201 16.33V20.55L9.43008 23.74V19.52ZM12.6401 32.05L9.43008 28.84V24.6L12.6401 27.81V32.05ZM12.8801 27.38L9.67008 24.16L12.8501 20.98L16.0601 24.2L12.8801 27.38ZM16.3001 28.84L13.1101 32.03V27.81L16.3001 24.62V28.84ZM16.5301 19.1L13.3701 15.94L16.5401 12.77L19.7001 15.93L16.5301 19.1ZM16.7701 19.53L19.9601 16.34V20.56L16.7701 23.75V19.53ZM19.9801 32.05L16.7701 28.84V24.6L19.9801 27.81V32.05ZM20.2201 27.38L17.0101 24.16L20.1901 20.98L23.4001 24.2L20.2201 27.38ZM23.6401 28.85L20.4501 32.04V27.82L23.6401 24.63V28.85ZM23.8701 19.1L20.7101 15.94L23.8801 12.77L27.0401 15.93L23.8701 19.1ZM24.1001 19.53L27.2901 16.34V20.56L24.1001 23.75V19.53ZM27.3201 32.06L24.1101 28.85V24.61L27.3201 27.82V32.06ZM27.5601 27.39L24.3501 24.17L27.5301 20.99L30.7401 24.21L27.5601 27.39ZM30.9801 28.85L27.7901 32.04V27.82L30.9801 24.63V28.85ZM31.2101 19.1L28.0501 15.94L31.2201 12.77L34.3801 15.93L31.2101 19.1ZM31.4401 19.53L34.6301 16.34V20.56L31.4401 23.75V19.53ZM34.6501 32.06L31.4501 28.85V24.61L34.6501 27.82V32.06ZM34.8901 27.39L31.6801 24.17L34.8601 20.99L38.0701 24.21L34.8901 27.39ZM38.3101 28.85L35.1201 32.04V27.82L38.3101 24.63V28.85ZM38.5401 19.11L35.3801 15.95L38.5501 12.78L41.7101 15.94L38.5401 19.11ZM38.7801 19.54L41.9701 16.35V20.57L38.7801 23.76V19.54ZM41.9901 32.06L38.7801 28.85V24.61L41.9901 27.82V32.06ZM42.2301 27.39L39.0201 24.17L42.2101 20.99L45.4201 24.21L42.2301 27.39ZM45.6501 28.86L42.4601 32.05V27.83L45.6501 24.64V28.86ZM45.8801 19.11L42.7201 15.95L45.8901 12.78L49.0501 15.94L45.8801 19.11ZM46.1101 19.54L49.3001 16.35V20.57L46.1101 23.76V19.54ZM49.3301 32.07L46.1201 28.86V24.62L49.3301 27.83V32.07ZM52.9901 28.86L49.8001 32.05V27.83L52.9901 24.64V28.86ZM52.7501 24.22L49.5601 27.4L46.3501 24.18L49.5401 21L52.7501 24.22ZM49.5701 10.89L46.3601 7.68L49.5501 4.50001L52.7601 7.71L49.5701 10.89Z" fill="#EDA4AE"/>
</g>
<path d="M52.1598 22H22.7798V37.32H52.1598V22Z" fill="#AF252F"/>
<path d="M8.58979 51.82C8.28979 52.56 7.28979 52.66 6.87979 51.98C3.60979 46.6 -5.29021 32.38 6.57979 21.82C18.3698 11.32 46.7598 12.86 48.1298 18.09C48.8898 20.98 45.8298 23.27 31.4798 27.57C18.2698 31.52 11.1298 45.55 8.58979 51.82Z" fill="#4850C6"/>
<path opacity="0.7" d="M31.4697 27.5601C18.2697 31.5201 11.1297 45.5501 8.58971 51.8201C8.28971 52.5501 7.29971 52.6501 6.87971 51.9701C5.48971 49.6901 3.08971 45.8101 1.69971 41.2901C3.31971 36.2701 6.99971 30.8401 11.3797 26.9501C20.2197 19.0901 37.3597 17.2501 48.2097 18.6401C48.4297 21.2801 44.8797 23.5401 31.4697 27.5601Z" fill="#3D409A"/>
<path d="M14.69 50.7801C14.69 50.7801 14.46 34.7201 42.29 30.0001C60.11 26.9801 69.38 36.6201 73.57 44.5501C76.09 49.3201 75.33 55.9401 72.03 60.2101C70.69 61.9501 69.23 63.5601 67.95 64.3301C67.95 64.3401 60.88 35.9401 14.69 50.7801Z" fill="#EB473E"/>
<path d="M71.25 61.1801C70.13 62.5401 68.98 63.7101 67.95 64.3401C67.95 64.3401 60.88 35.9401 14.69 50.7801C14.69 50.7801 14.68 50.1001 14.91 48.9801C18.45 44.5101 25.35 39.6001 38.75 37.3301C56.56 34.3101 65.83 43.9601 70.02 51.8801C71.48 54.6401 71.84 58.0001 71.25 61.1801Z" fill="#AF252F"/>
<path d="M76.5699 36.66C76.5499 37.35 76.4899 38.03 76.3899 38.71C76.0999 40.89 75.4799 43 74.7199 44.94C74.6599 45.09 74.5999 45.25 74.5299 45.4C74.1699 46.29 73.7799 47.14 73.3899 47.95C73.0499 48.62 72.7199 49.25 72.3899 49.85C71.6099 51.28 70.8599 52.49 70.2899 53.44C70.2599 53.49 70.2199 53.54 70.1799 53.58C69.7199 54.09 68.8599 53.96 68.5799 53.28C68.5099 53.12 68.4499 52.95 68.3799 52.78C67.7599 51.31 66.9099 49.47 65.8199 47.46C65.7399 47.3 65.6499 47.14 65.5599 46.98C65.1099 46.17 64.6199 45.34 64.0799 44.49C63.7199 43.91 63.3399 43.32 62.9299 42.74C62.4699 42.06 61.9799 41.38 61.4599 40.71C60.3499 39.25 59.1199 37.83 57.7599 36.49C56.9099 35.63 56.0099 34.82 55.0499 34.06C54.5599 33.65 54.0499 33.27 53.5299 32.9C53.1199 32.61 52.6999 32.33 52.2799 32.07C51.8499 31.79 51.4199 31.53 50.9699 31.28C49.3899 30.39 47.6999 29.65 45.8899 29.09C45.8299 29.07 45.7599 29.05 45.6999 29.03C45.1099 28.85 44.5499 28.68 43.9999 28.51C43.4999 28.36 43.0199 28.21 42.5499 28.06C41.8099 27.82 41.0999 27.59 40.4299 27.37C33.3399 25 30.2199 23.28 29.2699 21.58C29.0399 21.16 28.9399 20.74 28.9399 20.32C28.9399 20.06 28.9799 19.81 29.0499 19.55C29.0599 19.53 29.0599 19.5 29.0799 19.48C29.1499 19.24 29.2799 19 29.4699 18.78C29.7099 18.49 30.0399 18.21 30.4599 17.95C31.2899 17.43 32.4499 16.97 33.8599 16.6C34.6599 16.39 35.5399 16.21 36.4899 16.05C37.1399 15.95 37.8199 15.85 38.5299 15.77C38.7499 15.75 38.9699 15.73 39.1999 15.71C39.5799 15.67 39.9799 15.64 40.3799 15.62C41.3699 15.55 42.3999 15.5 43.4599 15.5C43.7399 15.49 44.0099 15.49 44.2899 15.49H44.2999C46.3299 15.5 48.4599 15.61 50.6099 15.85C51.1399 15.91 51.6699 15.98 52.1999 16.05C52.8499 16.14 53.5099 16.24 54.1599 16.35C54.8499 16.48 55.5399 16.61 56.2199 16.76C56.8099 16.88 57.3899 17.02 57.9699 17.17C59.0399 17.44 60.0999 17.75 61.1299 18.1C62.7699 18.65 64.3399 19.32 65.7999 20.08C65.8099 20.08 65.8099 20.07 65.8199 20.07C65.8199 20.08 65.8199 20.08 65.8199 20.09C65.9699 20.17 66.1299 20.23 66.2799 20.31C67.5599 21 68.7499 21.77 69.8199 22.64C70.0799 22.84 70.3399 23.06 70.5899 23.28C73.0199 25.44 74.5799 27.75 75.4899 30.11C75.5099 30.13 75.5099 30.16 75.5199 30.18C75.5899 30.34 75.6499 30.51 75.6899 30.67C75.9699 31.44 76.1699 32.21 76.2999 32.99C76.5299 34.22 76.6099 35.45 76.5699 36.66Z" fill="#FDCE83"/>
<path d="M29.6001 19.67C29.4201 19.61 29.2401 19.54 29.0801 19.48C29.1501 19.24 29.2801 19 29.4701 18.78C29.5401 19.07 29.5901 19.37 29.6001 19.67Z" fill="#E36F7C"/>
<path d="M29.5999 20.0699C29.5799 20.5999 29.4599 21.1099 29.2699 21.5799C29.0399 21.1599 28.9399 20.7399 28.9399 20.3199C29.1499 20.2299 29.3699 20.1499 29.5999 20.0699Z" fill="#E36F7C"/>
<path d="M34.34 24.3699C33.47 21.7999 32.61 20.9399 30.04 20.0699C30.14 22.3999 32.01 24.2699 34.34 24.3699Z" fill="#E36F7C"/>
<path d="M33.86 16.6C33.1 18.24 32.14 18.95 30.04 19.67C30.07 19.06 30.21 18.48 30.46 17.95C31.29 17.43 32.45 16.97 33.86 16.6Z" fill="#E36F7C"/>
<path d="M43.3797 19.67C40.9297 18.83 40.0297 18.01 39.1997 15.71C39.5797 15.67 39.9797 15.64 40.3797 15.62C42.0697 16.22 43.2997 17.8 43.3797 19.67Z" fill="#E36F7C"/>
<path d="M38.6701 24.3699C37.8001 21.7999 36.9401 20.9399 34.3701 20.0699C34.4701 22.3999 36.3401 24.2699 38.6701 24.3699Z" fill="#E36F7C"/>
<path d="M43.3801 20.0699C40.8101 20.9399 39.9501 21.7999 39.0801 24.3699C41.4101 24.2699 43.2701 22.3999 43.3801 20.0699Z" fill="#E36F7C"/>
<path d="M38.5301 15.77C37.7001 18.02 36.8001 18.84 34.3701 19.67C34.4401 18.14 35.2701 16.81 36.4901 16.05C37.1401 15.95 37.8201 15.85 38.5301 15.77Z" fill="#E36F7C"/>
<path d="M47.71 19.67C45.19 18.81 44.31 17.96 43.46 15.5C43.74 15.49 44.01 15.49 44.29 15.49H44.3C46.2 15.97 47.62 17.65 47.71 19.67Z" fill="#E36F7C"/>
<path d="M47.7102 20.0699C45.1402 20.9399 44.2802 21.7999 43.4102 24.3699C45.7402 24.2699 47.6102 22.3999 47.7102 20.0699Z" fill="#E36F7C"/>
<path d="M52.4499 24.3699C51.5799 21.7999 50.7199 20.9399 48.1499 20.0699C48.2499 22.3999 50.1199 24.2699 52.4499 24.3699Z" fill="#E36F7C"/>
<path d="M52.1999 16.05C51.3999 18.09 50.4799 18.87 48.1499 19.67C48.2199 18 49.1999 16.57 50.6099 15.85C51.1399 15.91 51.6699 15.98 52.1999 16.05Z" fill="#E36F7C"/>
<path d="M61.4897 19.67C59.6497 19.04 58.6797 18.42 57.9697 17.17C59.0397 17.44 60.0997 17.75 61.1297 18.1C61.3397 18.58 61.4697 19.12 61.4897 19.67Z" fill="#E36F7C"/>
<path d="M56.78 24.3699C55.91 21.7999 55.05 20.9399 52.48 20.0699C52.58 22.3999 54.45 24.2699 56.78 24.3699Z" fill="#E36F7C"/>
<path d="M61.4899 20.0699C58.9199 20.9399 58.0599 21.7999 57.1899 24.3699C59.5199 24.2699 61.3799 22.3999 61.4899 20.0699Z" fill="#E36F7C"/>
<path d="M56.22 16.76C55.48 18.29 54.51 18.97 52.48 19.67C52.54 18.33 53.18 17.15 54.16 16.35C54.85 16.48 55.54 16.61 56.22 16.76Z" fill="#E36F7C"/>
<path d="M65.82 20.0699C63.25 20.9399 62.39 21.7999 61.52 24.3699C63.85 24.2699 65.72 22.3999 65.82 20.0699Z" fill="#E36F7C"/>
<path d="M70.5598 24.3699C68.3098 24.2699 66.4898 22.5299 66.2798 20.3099C67.5598 20.9999 68.7498 21.7699 69.8198 22.6399C70.0898 23.1099 70.3198 23.6799 70.5598 24.3699Z" fill="#E36F7C"/>
<path d="M43.5602 25.89C43.2502 26.8 42.9402 27.5 42.5502 28.06C41.8102 27.82 41.1002 27.59 40.4302 27.37C41.2102 26.51 42.3202 25.95 43.5602 25.89Z" fill="#E36F7C"/>
<path d="M48.2998 25.89C49.1698 28.46 50.0298 29.32 52.5998 30.19C52.4998 27.86 50.6298 26 48.2998 25.89Z" fill="#E36F7C"/>
<path d="M52.5997 30.6C52.5797 31.12 52.4697 31.62 52.2797 32.07C51.8497 31.79 51.4197 31.53 50.9697 31.28C51.4197 31.03 51.9597 30.81 52.5997 30.6Z" fill="#E36F7C"/>
<path d="M47.9 25.89C47.36 27.47 46.82 28.41 45.89 29.09C45.83 29.07 45.76 29.05 45.7 29.03C45.11 28.85 44.55 28.68 44 28.51C44.69 27.02 46.16 25.97 47.9 25.89Z" fill="#E36F7C"/>
<path d="M52.6299 25.89C53.4999 28.46 54.3599 29.32 56.9299 30.19C56.8299 27.86 54.9599 26 52.6299 25.89Z" fill="#E36F7C"/>
<path d="M56.9398 30.6C56.8698 32.03 56.1398 33.29 55.0498 34.06C54.5598 33.65 54.0498 33.27 53.5298 32.9C54.2398 31.78 55.1898 31.19 56.9398 30.6Z" fill="#E36F7C"/>
<path d="M57.3701 30.6C57.4701 32.93 59.3401 34.8 61.6701 34.9C60.8001 32.33 59.9401 31.47 57.3701 30.6Z" fill="#E36F7C"/>
<path d="M57.3701 30.19C59.9401 29.32 60.8001 28.46 61.6701 25.89C59.3401 26 57.4801 27.86 57.3701 30.19Z" fill="#E36F7C"/>
<path d="M66.4102 25.89C67.2802 28.46 68.1402 29.32 70.7102 30.19C70.6102 27.86 68.7402 26 66.4102 25.89Z" fill="#E36F7C"/>
<path d="M61.6997 30.6C61.7997 32.93 63.6697 34.8 65.9997 34.9C65.1297 32.33 64.2697 31.47 61.6997 30.6Z" fill="#E36F7C"/>
<path d="M66.4102 34.9C68.7402 34.8 70.6102 32.93 70.7102 30.6C68.1402 31.47 67.2802 32.33 66.4102 34.9Z" fill="#E36F7C"/>
<path d="M61.6997 30.19C64.2697 29.32 65.1297 28.46 65.9997 25.89C63.6697 26 61.8097 27.86 61.6997 30.19Z" fill="#E36F7C"/>
<path d="M70.7397 25.89C71.6097 28.46 72.4697 29.32 75.0397 30.19C74.9397 27.86 73.0697 26 70.7397 25.89Z" fill="#E36F7C"/>
<path d="M70.7397 34.9C73.0697 34.8 74.9397 32.93 75.0397 30.6C72.4797 31.47 71.6197 32.33 70.7397 34.9Z" fill="#E36F7C"/>
<path d="M76.3 32.99C75.82 32.31 75.53 31.49 75.48 30.6C75.55 30.62 75.62 30.65 75.69 30.67C75.97 31.44 76.17 32.21 76.3 32.99Z" fill="#E36F7C"/>
<path d="M75.52 30.18C75.51 30.18 75.49 30.19 75.48 30.19C75.48 30.16 75.48 30.14 75.49 30.11C75.51 30.13 75.51 30.16 75.52 30.18Z" fill="#E36F7C"/>
<path d="M61.4898 40.72C61.4798 40.72 61.4698 40.71 61.4598 40.71C60.3498 39.25 59.1198 37.83 57.7598 36.49C59.8198 36.83 61.3998 38.58 61.4898 40.72Z" fill="#E36F7C"/>
<path d="M61.52 36.42C62.39 38.99 63.25 39.85 65.82 40.72C65.72 38.39 63.85 36.52 61.52 36.42Z" fill="#E36F7C"/>
<path d="M65.8202 41.13C65.7602 42.5 65.0902 43.7 64.0802 44.49C63.7202 43.91 63.3402 43.32 62.9302 42.74C63.5902 42.04 64.4702 41.59 65.8202 41.13Z" fill="#E36F7C"/>
<path d="M70.5598 45.43C69.6898 42.86 68.8298 42 66.2598 41.13C66.3598 43.46 68.2298 45.32 70.5598 45.43Z" fill="#E36F7C"/>
<path d="M70.5598 36.42C68.2298 36.52 66.3598 38.39 66.2598 40.72C68.8298 39.85 69.6898 38.98 70.5598 36.42Z" fill="#E36F7C"/>
<path d="M76.5698 36.66C76.5498 37.35 76.4898 38.03 76.3898 38.71C75.9698 38.13 75.6398 37.4 75.2998 36.42C75.7398 36.44 76.1698 36.52 76.5698 36.66Z" fill="#E36F7C"/>
<path d="M74.7198 44.94C74.6598 45.09 74.5998 45.25 74.5298 45.4C72.3698 45.12 70.6898 43.34 70.5898 41.13C72.9898 41.94 73.8998 42.74 74.7198 44.94Z" fill="#E36F7C"/>
<path d="M70.5898 40.72C73.1598 39.85 74.0198 38.99 74.8898 36.42C72.5598 36.52 70.6898 38.39 70.5898 40.72Z" fill="#E36F7C"/>
<path d="M66.4102 46.9399C67.2802 49.5099 68.1402 50.3699 70.7102 51.2399C70.6102 48.9099 68.7402 47.0499 66.4102 46.9399Z" fill="#E36F7C"/>
<path d="M70.7099 51.65C70.6799 52.34 70.4899 53 70.1799 53.58C69.7199 54.09 68.8599 53.96 68.5799 53.28C68.5099 53.12 68.4499 52.95 68.3799 52.78C68.9599 52.33 69.7099 51.99 70.7099 51.65Z" fill="#E36F7C"/>
<path d="M66.0101 46.9399C65.9501 47.1199 65.8901 47.2899 65.8201 47.4599C65.7401 47.2999 65.6501 47.1399 65.5601 46.9799C65.7101 46.9599 65.8601 46.9499 66.0101 46.9399Z" fill="#E36F7C"/>
<path d="M73.3897 47.9499C73.0497 48.6199 72.7197 49.2499 72.3897 49.8499C71.6697 49.1899 71.2097 48.3099 70.7397 46.9399C71.7397 46.9799 72.6597 47.3599 73.3897 47.9499Z" fill="#E36F7C"/>
<path d="M31.4696 27.56C18.2696 31.52 11.1296 45.55 8.58959 51.82C8.28959 52.55 7.29959 52.65 6.87959 51.97C5.48959 49.69 3.08959 45.81 1.69959 41.29C-0.200413 35.18 -0.250413 27.89 6.57959 21.82C18.3696 11.32 46.7596 12.86 48.1196 18.08C48.1696 18.27 48.2096 18.45 48.2096 18.64C48.4296 21.28 44.8796 23.54 31.4696 27.56Z" fill="#4850C6"/>
<path d="M62.1398 52.1701C62.1398 52.1701 63.2298 34.9801 35.3998 30.2501C17.5798 27.2301 5.69985 37.4301 1.91985 45.5701C-3.41015 57.0601 8.99985 66.3201 10.2698 67.1001C10.2698 67.1001 15.9398 37.3301 62.1398 52.1701Z" fill="#1483B6"/>
<path d="M72.02 60.2101C71.77 60.5401 71.51 60.8701 71.25 61.1801C70.13 62.5401 68.98 63.7101 67.95 64.3401C67.95 64.3401 60.88 35.9401 14.69 50.7801C14.69 50.7801 14.68 50.1001 14.91 48.9801C15.78 44.6501 20.18 33.7501 42.29 30.0001C60.1 26.9701 69.37 36.6201 73.56 44.5501C76.09 49.3201 75.32 55.9401 72.02 60.2101Z" fill="#EB473E"/>
<path d="M66.0194 75.2001C65.0294 77.1201 64.0294 78.7501 63.2994 79.9401C62.8894 80.6201 61.8894 80.5201 61.5894 79.7801C59.0494 73.5201 47.2194 58.1001 38.7094 55.5301C35.2494 54.4801 33.3094 52.9801 32.2594 51.4701C31.0094 49.7001 30.9194 47.4201 31.7994 45.5101C32.0794 44.8901 32.4694 44.3001 32.9494 43.7901C38.8394 37.5501 51.8094 39.2901 63.6094 49.7801C72.8494 58.0101 69.5094 68.4401 66.0194 75.2001Z" fill="#4850C6"/>
<mask id="mask1_222_271" style="mask-type:luminance" maskUnits="userSpaceOnUse" x="31" y="40" width="39" height="41">
<path d="M61.5897 79.7801C61.8897 80.5201 62.8897 80.6201 63.2997 79.9401C66.5797 74.5601 75.4797 60.3501 63.6097 49.7901C51.8197 39.2901 38.8397 37.5501 32.9597 43.7901C30.9897 45.8801 30.6097 49.1201 32.2597 51.4801C33.3197 52.9801 35.2497 54.4901 38.7097 55.5301C47.2197 58.1001 59.0497 73.5201 61.5897 79.7801Z" fill="white"/>
</mask>
<g mask="url(#mask1_222_271)">
<path d="M69.3599 72.4901V72.4601L72.7899 69.0401L76.2399 72.4901L76.5699 72.1601L73.0299 68.6201V63.7101H72.7199L69.3399 60.3301V55.9801H69.3699V55.9501L72.7999 52.5301L76.2499 55.9801L76.5799 55.6501L73.0399 52.1001V47.1901H72.7299L69.3499 43.8101V38.9001H68.8799V38.9301L65.4499 42.3501L62.0099 38.9101V38.9001H61.5399V38.9301L58.1199 42.3501L54.6799 38.9101V38.9001H54.2099V38.9301L50.7899 42.3501L47.3499 38.9101V38.9001H46.8799V38.9301L43.4599 42.3501L40.0199 38.9101V38.9001H39.5499V38.9301L36.1199 42.3501L32.6799 38.9101V38.9001H32.2099V38.9301L28.7799 42.3501L25.3399 38.9101V38.8901H24.8699V38.9201L21.4399 42.3401L17.9799 38.8901L17.6499 39.2201L21.1899 42.7701V47.6801H21.4999L24.8799 51.0601V55.4001H24.8499V55.4301L21.4199 58.8501L17.9699 55.4001L17.6399 55.7301L21.1799 59.2701V64.1801H21.4899L24.8699 67.5601V71.9101H24.8399V71.9301L21.4099 75.3501L17.9599 71.9001L17.6299 72.2301L21.1699 75.7801V80.6901H21.4799L24.8599 84.0701V88.9801H25.3299V88.9501L28.7499 85.5301L32.1899 88.9701V88.9801H32.6599V88.9501L36.0899 85.5301L39.5299 88.9701V88.9801H39.9999V88.9501L43.4199 85.5301L46.8599 88.9701H47.3299V88.9401L50.7599 85.5201L54.1999 88.9601H54.6699V88.9301L58.1099 85.5501L61.5499 88.9901H62.0199V88.9601L65.4499 85.5401L68.8899 88.9801H69.3599V88.9501L72.7899 85.5301L76.2399 88.9801L76.5699 88.6501L73.0299 85.1001V80.1901H72.7199L69.3399 76.8101V72.4701H69.3599V72.4901ZM72.5599 68.6201L69.3699 71.8101V67.5901L72.5599 64.4001V68.6201ZM72.5599 52.1101L69.3699 55.3001V51.0801L72.5699 47.8901L72.5599 52.1101ZM69.1099 44.2501L72.3199 47.4701L69.1299 50.6501L65.9199 47.4301L69.1099 44.2501ZM65.6799 63.5101V59.2901L68.8699 56.1001V60.3201L65.6799 63.5101ZM65.6899 64.3801L68.8999 67.5901V71.8301L65.6899 68.6201V64.3801ZM68.8999 51.0801V55.3201L65.6899 52.1101V47.8701L68.8999 51.0801ZM65.6899 42.7901L68.8799 39.6001V43.8201L65.6899 47.0101V42.7901ZM65.4599 52.5401L68.6199 55.7001L65.4499 58.8701L62.2899 55.7101L65.4599 52.5401ZM58.3499 64.3701L61.5599 67.5801V71.8201L58.3499 68.6101V64.3701ZM58.3399 63.5101V59.2901L61.5299 56.1001V60.3201L58.3399 63.5101ZM58.5799 63.9401L61.7699 60.7601L64.9799 63.9701L61.7899 67.1501L58.5799 63.9401ZM58.3599 52.1001V47.8601L61.5699 51.0701V55.3101L58.3599 52.1001ZM61.9999 60.3301V56.0901L65.2099 59.3001V63.5401L61.9999 60.3301ZM61.9999 72.6001L65.2099 75.8101V80.0501L61.9999 76.8401V72.6001ZM62.0299 67.5801L65.2199 64.3901V68.6101L62.0299 71.8001V67.5801ZM65.2299 52.1101L62.0399 55.3001V51.0801L65.2299 47.8901V52.1101ZM62.0099 39.5801L65.2199 42.7901V47.0301L62.0099 43.8201V39.5801ZM61.7699 44.2501L64.9799 47.4701L61.7899 50.6501L58.5799 47.4301L61.7699 44.2501ZM58.3499 42.7901L61.5399 39.6001V43.8201L58.3499 47.0101V42.7901ZM58.1199 52.5301L61.2799 55.6901L58.1099 58.8601L54.9499 55.7001L58.1199 52.5301ZM51.0199 64.3701L54.2199 67.5801V71.8201L51.0199 68.6101V64.3701ZM50.9999 63.5101V59.2901L54.1899 56.1001V60.3201L50.9999 63.5101ZM51.2399 63.9301L54.4199 60.7501L57.6299 63.9601L54.4499 67.1401L51.2399 63.9301ZM51.0199 52.1001V47.8601L54.2199 51.0701V55.3101L51.0199 52.1001ZM54.6599 60.3201V56.0801L57.8699 59.2901V63.5301L54.6599 60.3201ZM54.6599 72.5901L57.8699 75.8001V80.0401L54.6599 76.8301V72.5901ZM54.6899 67.5801L57.8799 64.3901V68.6101L54.6899 71.8001V67.5801ZM57.8899 52.1001L54.6999 55.2901V51.0701L57.8899 47.8801V52.1001ZM54.6699 39.5801L57.8799 42.7901V47.0301L54.6699 43.8201V39.5801ZM54.4399 44.2401L57.6499 47.4601L54.4699 50.6401L51.2599 47.4201L54.4399 44.2401ZM51.0099 42.7801L54.1999 39.5901V43.8101L51.0099 47.0001V42.7801ZM50.7799 52.5301L53.9399 55.6901L50.7699 58.8601L47.6099 55.7001L50.7799 52.5301ZM43.6799 64.3701L46.8899 67.5801V71.8201L43.6799 68.6101V64.3701ZM43.6699 63.5001V59.2801L46.8599 56.0901V60.3101L43.6699 63.5001ZM43.9099 63.9301L47.0899 60.7501L50.2999 63.9601L47.1199 67.1401L43.9099 63.9301ZM43.6799 52.1001V47.8601L46.8899 51.0701V55.3101L43.6799 52.1001ZM47.3299 60.3201V56.0801L50.5399 59.2901V63.5301L47.3299 60.3201ZM47.3199 72.5901L50.5299 75.8001V80.0401L47.3199 76.8301V72.5901ZM47.3499 67.5701L50.5399 64.3801V68.6001L47.3499 71.7901V67.5701ZM50.5499 52.1001L47.3599 55.2901V51.0701L50.5499 47.8801V52.1001ZM47.3399 39.5701L50.5499 42.7801V47.0201L47.3399 43.8101V39.5701ZM47.0999 44.2401L50.3099 47.4601L47.1299 50.6401L43.9199 47.4201L47.0999 44.2401ZM43.6799 42.7801L46.8699 39.5901V43.8101L43.6799 47.0001V42.7801ZM43.4499 52.5301L46.6099 55.6901L43.4399 58.8601L40.2799 55.7001L43.4499 52.5301ZM36.3399 64.3601L39.5499 67.5701V71.8101L36.3399 68.6001V64.3601ZM36.3299 63.5001V59.2801L39.5199 56.0901V60.3101L36.3299 63.5001ZM36.5699 63.9301L39.7499 60.7501L42.9599 63.9601L39.7799 67.1401L36.5699 63.9301ZM36.3499 52.0901V47.8501L39.5599 51.0601V55.3001L36.3499 52.0901ZM39.9899 60.3201V56.0801L43.1999 59.2901V63.5301L39.9899 60.3201ZM39.9799 72.5901L43.1899 75.8001V80.0401L39.9799 76.8301V72.5901ZM40.0199 67.5701L43.2099 64.3801V68.6001L40.0199 71.7901V67.5701ZM43.2099 52.1001L40.0199 55.2901V51.0701L43.2099 47.8801V52.1001ZM39.9999 39.5701L43.2099 42.7801V47.0201L39.9999 43.8101V39.5701ZM39.7599 44.2401L42.9699 47.4601L39.7899 50.6401L36.5799 47.4201L39.7599 44.2401ZM36.3399 42.7801L39.5299 39.5901V43.8101L36.3399 47.0001V42.7801ZM36.1099 52.5201L39.2699 55.6801L36.0999 58.8501L32.9399 55.6901L36.1099 52.5201ZM28.9999 64.3601L32.2099 67.5701V71.8101L28.9999 68.6001V64.3601ZM28.9899 63.5001V59.2801L32.1799 56.0901V60.3101L28.9899 63.5001ZM29.2299 63.9201L32.4099 60.7401L35.6199 63.9501L32.4399 67.1301L29.2299 63.9201ZM29.0099 52.0901V47.8501L32.2199 51.0601V55.3001L29.0099 52.0901ZM32.6499 60.3101V56.0701L35.8599 59.2801V63.5201L32.6499 60.3101ZM32.6499 72.5801L35.8599 75.7901V80.0301L32.6499 76.8201V72.5801ZM32.6799 67.5701L35.8699 64.3801V68.6001L32.6799 71.7901V67.5701ZM35.8799 52.0901L32.6899 55.2801V51.0601L35.8799 47.8701V52.0901ZM32.6599 39.5701L35.8699 42.7801V47.0201L32.6599 43.8101V39.5701ZM32.4199 44.2301L35.6299 47.4501L32.4499 50.6301L29.2399 47.4101L32.4199 44.2301ZM28.9999 42.7701L32.1899 39.5801V43.8001L28.9999 46.9901V42.7701ZM28.7699 52.5201L31.9299 55.6801L28.7599 58.8501L25.5999 55.6901L28.7699 52.5201ZM28.5299 64.3801V68.6001L25.3399 71.7901V67.5701L28.5299 64.3801ZM28.5199 63.5201L25.3099 60.3101V56.0701L28.5199 59.2801V63.5201ZM28.5399 52.0901L25.3499 55.2801V51.0601L28.5399 47.8701V52.0901ZM25.3199 39.5601L28.5299 42.7701V47.0101L25.3199 43.8001V39.5601ZM21.6599 42.7701L24.8499 39.5801V43.8001L21.6599 46.9901V42.7701ZM21.8999 47.4101L25.0799 44.2301L28.2899 47.4501L25.1099 50.6301L21.8999 47.4101ZM21.6599 59.2801L24.8499 56.0901V60.3101L21.6599 63.5001V59.2801ZM21.8999 63.9201L25.0799 60.7401L28.2899 63.9501L25.1099 67.1301L21.8999 63.9201ZM28.5199 75.7901V80.0301L25.3099 76.8201V72.5801L28.5199 75.7901ZM21.6499 75.7801L24.8399 72.5901V76.8101L21.6499 80.0001V75.7801ZM25.0999 83.6401L21.8899 80.4201L25.0699 77.2401L28.2799 80.4601L25.0999 83.6401ZM28.5299 85.1001L25.3399 88.2901V84.0701L28.5299 80.8901V85.1001ZM28.7499 75.3601L25.5899 72.2001L28.7599 69.0301L31.9199 72.1901L28.7499 75.3601ZM28.9899 75.7901L32.1799 72.6001V76.8201L28.9899 80.0101V75.7901ZM32.1999 88.3101L28.9899 85.1001V80.8601L32.1999 84.0701V88.3101ZM32.4399 83.6401L29.2299 80.4201L32.4099 77.2401L35.6199 80.4601L32.4399 83.6401ZM35.8599 85.1101L32.6699 88.3001V84.0801L35.8599 80.8901V85.1101ZM36.0899 75.3601L32.9299 72.2001L36.0999 69.0301L39.2599 72.1901L36.0899 75.3601ZM36.3199 75.7901L39.5099 72.6001V76.8201L36.3199 80.0101V75.7901ZM39.5399 88.3201L36.3299 85.1101V80.8701L39.5399 84.0801V88.3201ZM39.7799 83.6501L36.5699 80.4301L39.7499 77.2501L42.9599 80.4701L39.7799 83.6501ZM43.1999 85.1101L40.0099 88.3001V84.0801L43.1999 80.8901V85.1101ZM43.4299 75.3601L40.2699 72.2001L43.4399 69.0301L46.5999 72.1901L43.4299 75.3601ZM43.6599 75.7901L46.8499 72.6001V76.8201L43.6599 80.0101V75.7901ZM46.8799 88.3201L43.6699 85.1101V80.8701L46.8799 84.0801V88.3201ZM47.1099 83.6501L43.8999 80.4301L47.0799 77.2501L50.2899 80.4701L47.1099 83.6501ZM50.5399 85.1101L47.3499 88.3001V84.0801L50.5399 80.8901V85.1101ZM50.7599 75.3701L47.5999 72.2101L50.7699 69.0401L53.9299 72.2001L50.7599 75.3701ZM50.9999 75.8001L54.1899 72.6101V76.8301L50.9999 80.0201V75.8001ZM54.2099 88.3201L51.0099 85.1101V80.8701L54.2099 84.0801V88.3201ZM54.4499 83.6501L51.2399 80.4301L54.4199 77.2501L57.6299 80.4701L54.4499 83.6501ZM57.8699 85.1201L54.6799 88.3101V84.0901L57.8699 80.9001V85.1201ZM58.0999 75.3701L54.9399 72.2101L58.1099 69.0401L61.2699 72.2001L58.0999 75.3701ZM58.3299 75.8001L61.5199 72.6101V76.8301L58.3299 80.0201V75.8001ZM61.5499 88.3301L58.3399 85.1201V80.8801L61.5499 84.0901V88.3301ZM61.7899 83.6601L58.5799 80.4401L61.7699 77.2601L64.9799 80.4801L61.7899 83.6601ZM65.2099 85.1201L62.0199 88.3101V84.0901L65.2099 80.9001V85.1201ZM65.4399 75.3701L62.2799 72.2101L65.4499 69.0401L68.6099 72.2001L65.4399 75.3701ZM65.6699 75.8001L68.8599 72.6101V76.8301L65.6699 80.0201V75.8001ZM68.8899 88.3301L65.6799 85.1201V80.8801L68.8899 84.0901V88.3301ZM72.5499 85.1201L69.3599 88.3101V84.0901L72.5499 80.9001V85.1201ZM72.3099 80.4801L69.1199 83.6601L65.9099 80.4401L69.0999 77.2601L72.3099 80.4801ZM69.1299 67.1501L65.9199 63.9401L69.1099 60.7601L72.3199 63.9701L69.1299 67.1501Z" fill="#7CCEEC"/>
</g>
<path opacity="0.7" d="M66.0196 75.2001C65.0296 77.1201 64.0296 78.7501 63.2996 79.9401C62.8896 80.6201 61.9196 80.5101 61.5896 79.7801C58.8096 73.7401 47.1296 57.7901 38.7096 55.5301C33.2396 54.0601 30.8296 50.3001 31.2296 47.8301C38.7696 46.1201 48.0596 51.1701 57.5996 60.2801C61.2496 63.7701 63.4096 67.1001 66.0196 75.2001Z" fill="#3D409A"/>
<path d="M17.7496 79.78C17.4496 80.52 16.4496 80.62 16.0396 79.94C12.7596 74.56 3.85965 60.35 15.7296 49.79C27.5196 39.29 40.4997 37.55 46.3797 43.79C48.3497 45.88 48.7297 49.12 47.0797 51.48C46.0197 52.98 44.0897 54.49 40.6297 55.53C32.1297 58.1 20.2896 73.52 17.7496 79.78Z" fill="#E36F7C"/>
<mask id="mask2_222_271" style="mask-type:luminance" maskUnits="userSpaceOnUse" x="9" y="40" width="40" height="41">
<path d="M17.7496 79.78C17.4496 80.52 16.4496 80.62 16.0396 79.94C12.7596 74.56 3.85965 60.35 15.7296 49.79C27.5196 39.29 40.4997 37.55 46.3797 43.79C48.3497 45.88 48.7297 49.12 47.0797 51.48C46.0197 52.98 44.0897 54.49 40.6297 55.53C32.1297 58.1 20.2896 73.52 17.7496 79.78Z" fill="white"/>
</mask>
<g mask="url(#mask2_222_271)">
<path d="M15.6794 45.4801C15.5794 43.1501 13.7094 41.2801 11.3794 41.1801C12.2594 43.7501 13.1194 44.6101 15.6794 45.4801Z" fill="#FDCE83"/>
<path d="M10.9797 50.19C10.1097 47.62 9.24969 46.76 6.67969 45.89C6.77969 48.22 8.64969 50.08 10.9797 50.19Z" fill="#FDCE83"/>
<path d="M15.6794 45.89C13.1094 46.76 12.2494 47.62 11.3794 50.19C13.7094 50.08 15.5794 48.22 15.6794 45.89Z" fill="#FDCE83"/>
<path d="M6.67969 45.4801C9.24969 44.6101 10.1097 43.7501 10.9797 41.1801C8.64969 41.2801 6.77969 43.1501 6.67969 45.4801Z" fill="#FDCE83"/>
<path d="M15.7095 41.1801C16.5795 43.7501 17.4395 44.6101 20.0095 45.4801C19.9095 43.1501 18.0395 41.2801 15.7095 41.1801Z" fill="#FDCE83"/>
<path d="M20.0197 45.89C17.4497 46.76 16.5897 47.62 15.7197 50.19C18.0397 50.08 19.9097 48.22 20.0197 45.89Z" fill="#FDCE83"/>
<path d="M24.7497 50.19C23.8797 47.62 23.0197 46.76 20.4497 45.89C20.5597 48.22 22.4197 50.08 24.7497 50.19Z" fill="#FDCE83"/>
<path d="M24.7497 41.1801C22.4197 41.2801 20.5497 43.1501 20.4497 45.4801C23.0197 44.6101 23.8797 43.7501 24.7497 41.1801Z" fill="#FDCE83"/>
<path d="M33.7897 45.4801C33.6897 43.1501 31.8197 41.2801 29.4897 41.1801C30.3697 43.7501 31.2297 44.6101 33.7897 45.4801Z" fill="#FDCE83"/>
<path d="M29.0896 50.19C28.2196 47.62 27.3596 46.76 24.7896 45.89C24.8896 48.22 26.7596 50.08 29.0896 50.19Z" fill="#FDCE83"/>
<path d="M33.7897 45.89C31.2197 46.76 30.3597 47.62 29.4897 50.19C31.8197 50.08 33.6897 48.22 33.7897 45.89Z" fill="#FDCE83"/>
<path d="M24.7798 45.4801C27.3498 44.6101 28.2098 43.7501 29.0798 41.1801C26.7598 41.2801 24.8898 43.1501 24.7798 45.4801Z" fill="#FDCE83"/>
<path d="M33.8198 41.1801C34.6898 43.7501 35.5498 44.6101 38.1198 45.4801C38.0198 43.1501 36.1598 41.2801 33.8198 41.1801Z" fill="#FDCE83"/>
<path d="M38.1296 45.89C35.5596 46.76 34.6996 47.62 33.8296 50.19C36.1596 50.08 38.0196 48.22 38.1296 45.89Z" fill="#FDCE83"/>
<path d="M42.8698 50.19C41.9998 47.62 41.1398 46.76 38.5698 45.89C38.6698 48.22 40.5298 50.08 42.8698 50.19Z" fill="#FDCE83"/>
<path d="M42.8698 41.1801C40.5398 41.2801 38.6698 43.1501 38.5698 45.4801C41.1298 44.6101 41.9898 43.7501 42.8698 41.1801Z" fill="#FDCE83"/>
<path d="M51.9094 45.4801C51.7994 43.1501 49.9394 41.2801 47.6094 41.1801C48.4794 43.7501 49.3394 44.6101 51.9094 45.4801Z" fill="#FDCE83"/>
<path d="M47.1994 50.19C46.3294 47.62 45.4694 46.76 42.8994 45.89C42.9994 48.22 44.8694 50.08 47.1994 50.19Z" fill="#FDCE83"/>
<path d="M51.9094 45.89C49.3394 46.76 48.4794 47.62 47.6094 50.19C49.9294 50.08 51.7994 48.22 51.9094 45.89Z" fill="#FDCE83"/>
<path d="M42.8994 45.4801C45.4694 44.6101 46.3294 43.7501 47.1994 41.1801C44.8694 41.2801 42.9994 43.1501 42.8994 45.4801Z" fill="#FDCE83"/>
<path d="M6.82959 51.7C7.69959 54.27 8.55959 55.13 11.1296 56C11.0196 53.67 9.15959 51.81 6.82959 51.7Z" fill="#FDCE83"/>
<path d="M6.82959 60.71C9.15959 60.61 11.0296 58.74 11.1296 56.41C8.55959 57.29 7.69959 58.15 6.82959 60.71Z" fill="#FDCE83"/>
<path d="M11.5698 56.41C11.6698 58.74 13.5398 60.61 15.8698 60.71C14.9998 58.15 14.1298 57.29 11.5698 56.41Z" fill="#FDCE83"/>
<path d="M11.5698 56.01C14.1398 55.14 14.9998 54.28 15.8698 51.71C13.5398 51.81 11.6698 53.67 11.5698 56.01Z" fill="#FDCE83"/>
<path d="M20.6094 51.7C21.4794 54.27 22.3394 55.13 24.9094 56C24.7994 53.67 22.9394 51.81 20.6094 51.7Z" fill="#FDCE83"/>
<path d="M15.8994 56.41C15.9994 58.74 17.8694 60.61 20.1994 60.71C19.3294 58.15 18.4694 57.29 15.8994 56.41Z" fill="#FDCE83"/>
<path d="M20.6094 60.71C22.9394 60.61 24.8094 58.74 24.9094 56.41C22.3394 57.29 21.4794 58.15 20.6094 60.71Z" fill="#FDCE83"/>
<path d="M15.8994 56.01C18.4694 55.14 19.3294 54.28 20.1994 51.71C17.8694 51.81 15.9994 53.67 15.8994 56.01Z" fill="#FDCE83"/>
<path d="M24.9395 51.7C25.8095 54.27 26.6695 55.13 29.2395 56C29.1295 53.67 27.2695 51.81 24.9395 51.7Z" fill="#FDCE83"/>
<path d="M24.9395 60.71C27.2695 60.61 29.1395 58.74 29.2395 56.41C26.6695 57.29 25.8095 58.15 24.9395 60.71Z" fill="#FDCE83"/>
<path d="M29.6797 56.41C29.7797 58.74 31.6497 60.61 33.9797 60.71C33.1097 58.15 32.2397 57.29 29.6797 56.41Z" fill="#FDCE83"/>
<path d="M29.6797 56.01C32.2497 55.14 33.1097 54.28 33.9797 51.71C31.6497 51.81 29.7797 53.67 29.6797 56.01Z" fill="#FDCE83"/>
<path d="M38.7197 51.7C39.5897 54.27 40.4497 55.13 43.0197 56C42.9097 53.67 41.0497 51.81 38.7197 51.7Z" fill="#FDCE83"/>
<path d="M34.0098 56.41C34.1098 58.74 35.9798 60.61 38.3098 60.71C37.4398 58.15 36.5798 57.29 34.0098 56.41Z" fill="#FDCE83"/>
<path d="M38.7197 60.71C41.0497 60.61 42.9197 58.74 43.0197 56.41C40.4497 57.29 39.5897 58.15 38.7197 60.71Z" fill="#FDCE83"/>
<path d="M34.0098 56.01C36.5798 55.14 37.4398 54.28 38.3098 51.71C35.9798 51.81 34.1098 53.67 34.0098 56.01Z" fill="#FDCE83"/>
<path d="M43.0498 51.7C43.9198 54.27 44.7798 55.13 47.3498 56C47.2398 53.67 45.3798 51.81 43.0498 51.7Z" fill="#FDCE83"/>
<path d="M43.0498 60.71C45.3798 60.61 47.2498 58.74 47.3498 56.41C44.7798 57.29 43.9198 58.15 43.0498 60.71Z" fill="#FDCE83"/>
<path d="M47.7896 56.41C47.8896 58.74 49.7596 60.61 52.0896 60.71C51.2196 58.15 50.3596 57.29 47.7896 56.41Z" fill="#FDCE83"/>
<path d="M47.7896 56.01C50.3596 55.14 51.2196 54.28 52.0896 51.71C49.7596 51.81 47.8896 53.67 47.7896 56.01Z" fill="#FDCE83"/>
<path d="M15.6794 66.53C15.5794 64.2 13.7094 62.33 11.3794 62.23C12.2594 64.8 13.1194 65.66 15.6794 66.53Z" fill="#FDCE83"/>
<path d="M10.9797 71.2399C10.1097 68.6699 9.24969 67.8099 6.67969 66.9399C6.77969 69.2699 8.64969 71.1399 10.9797 71.2399Z" fill="#FDCE83"/>
<path d="M15.6794 66.9399C13.1094 67.8099 12.2494 68.6699 11.3794 71.2399C13.7094 71.1399 15.5794 69.2699 15.6794 66.9399Z" fill="#FDCE83"/>
<path d="M6.67969 66.53C9.24969 65.66 10.1097 64.8 10.9797 62.23C8.64969 62.33 6.77969 64.2 6.67969 66.53Z" fill="#FDCE83"/>
<path d="M15.7095 62.23C16.5795 64.8 17.4395 65.66 20.0095 66.53C19.9095 64.2 18.0395 62.33 15.7095 62.23Z" fill="#FDCE83"/>
<path d="M20.0197 66.9399C17.4497 67.8099 16.5897 68.6699 15.7197 71.2399C18.0397 71.1399 19.9097 69.2699 20.0197 66.9399Z" fill="#FDCE83"/>
<path d="M24.7497 71.2399C23.8797 68.6699 23.0197 67.8099 20.4497 66.9399C20.5597 69.2699 22.4197 71.1399 24.7497 71.2399Z" fill="#FDCE83"/>
<path d="M24.7497 62.23C22.4197 62.33 20.5497 64.2 20.4497 66.53C23.0197 65.66 23.8797 64.8 24.7497 62.23Z" fill="#FDCE83"/>
<path d="M33.7897 66.53C33.6897 64.2 31.8197 62.33 29.4897 62.23C30.3697 64.8 31.2297 65.66 33.7897 66.53Z" fill="#FDCE83"/>
<path d="M29.0896 71.2399C28.2196 68.6699 27.3596 67.8099 24.7896 66.9399C24.8896 69.2699 26.7596 71.1399 29.0896 71.2399Z" fill="#FDCE83"/>
<path d="M33.7897 66.9399C31.2197 67.8099 30.3597 68.6699 29.4897 71.2399C31.8197 71.1399 33.6897 69.2699 33.7897 66.9399Z" fill="#FDCE83"/>
<path d="M24.7798 66.53C27.3498 65.66 28.2098 64.8 29.0798 62.23C26.7598 62.33 24.8898 64.2 24.7798 66.53Z" fill="#FDCE83"/>
<path d="M33.8198 62.23C34.6898 64.8 35.5498 65.66 38.1198 66.53C38.0198 64.2 36.1598 62.33 33.8198 62.23Z" fill="#FDCE83"/>
<path d="M38.1296 66.9399C35.5596 67.8099 34.6996 68.6699 33.8296 71.2399C36.1596 71.1399 38.0196 69.2699 38.1296 66.9399Z" fill="#FDCE83"/>
<path d="M42.8698 71.2399C41.9998 68.6699 41.1398 67.8099 38.5698 66.9399C38.6698 69.2699 40.5298 71.1399 42.8698 71.2399Z" fill="#FDCE83"/>
<path d="M42.8698 62.23C40.5398 62.33 38.6698 64.2 38.5698 66.53C41.1298 65.66 41.9898 64.8 42.8698 62.23Z" fill="#FDCE83"/>
<path d="M51.9094 66.53C51.7994 64.2 49.9394 62.33 47.6094 62.23C48.4794 64.8 49.3394 65.66 51.9094 66.53Z" fill="#FDCE83"/>
<path d="M47.1994 71.2399C46.3294 68.6699 45.4694 67.8099 42.8994 66.9399C42.9994 69.2699 44.8694 71.1399 47.1994 71.2399Z" fill="#FDCE83"/>
<path d="M51.9094 66.9399C49.3394 67.8099 48.4794 68.6699 47.6094 71.2399C49.9294 71.1399 51.7994 69.2699 51.9094 66.9399Z" fill="#FDCE83"/>
<path d="M42.8994 66.53C45.4694 65.66 46.3294 64.8 47.1994 62.23C44.8694 62.33 42.9994 64.2 42.8994 66.53Z" fill="#FDCE83"/>
<path d="M6.82959 72.76C7.69959 75.33 8.55959 76.19 11.1296 77.06C11.0196 74.73 9.15959 72.86 6.82959 72.76Z" fill="#FDCE83"/>
<path d="M6.82959 81.77C9.15959 81.67 11.0296 79.8 11.1296 77.47C8.55959 78.34 7.69959 79.2 6.82959 81.77Z" fill="#FDCE83"/>
<path d="M11.5698 77.46C11.6698 79.79 13.5398 81.66 15.8698 81.76C14.9998 79.2 14.1298 78.34 11.5698 77.46Z" fill="#FDCE83"/>
<path d="M11.5698 77.06C14.1398 76.19 14.9998 75.33 15.8698 72.76C13.5398 72.86 11.6698 74.73 11.5698 77.06Z" fill="#FDCE83"/>
<path d="M20.6094 72.76C21.4794 75.33 22.3394 76.19 24.9094 77.06C24.7994 74.73 22.9394 72.86 20.6094 72.76Z" fill="#FDCE83"/>
<path d="M15.8994 77.46C15.9994 79.79 17.8694 81.66 20.1994 81.76C19.3294 79.2 18.4694 78.34 15.8994 77.46Z" fill="#FDCE83"/>
<path d="M20.6094 81.77C22.9394 81.67 24.8094 79.8 24.9094 77.47C22.3394 78.34 21.4794 79.2 20.6094 81.77Z" fill="#FDCE83"/>
<path d="M15.8994 77.06C18.4694 76.19 19.3294 75.33 20.1994 72.76C17.8694 72.86 15.9994 74.73 15.8994 77.06Z" fill="#FDCE83"/>
<path d="M24.9395 72.76C25.8095 75.33 26.6695 76.19 29.2395 77.06C29.1295 74.73 27.2695 72.86 24.9395 72.76Z" fill="#FDCE83"/>
<path d="M24.9395 81.77C27.2695 81.67 29.1395 79.8 29.2395 77.47C26.6695 78.34 25.8095 79.2 24.9395 81.77Z" fill="#FDCE83"/>
<path d="M29.6797 77.46C29.7797 79.79 31.6497 81.66 33.9797 81.76C33.1097 79.2 32.2397 78.34 29.6797 77.46Z" fill="#FDCE83"/>
<path d="M29.6797 77.06C32.2497 76.19 33.1097 75.33 33.9797 72.76C31.6497 72.86 29.7797 74.73 29.6797 77.06Z" fill="#FDCE83"/>
<path d="M38.7197 72.76C39.5897 75.33 40.4497 76.19 43.0197 77.06C42.9097 74.73 41.0497 72.86 38.7197 72.76Z" fill="#FDCE83"/>
<path d="M34.0098 77.46C34.1098 79.79 35.9798 81.66 38.3098 81.76C37.4398 79.2 36.5798 78.34 34.0098 77.46Z" fill="#FDCE83"/>
<path d="M38.7197 81.77C41.0497 81.67 42.9197 79.8 43.0197 77.47C40.4497 78.34 39.5897 79.2 38.7197 81.77Z" fill="#FDCE83"/>
<path d="M34.0098 77.06C36.5798 76.19 37.4398 75.33 38.3098 72.76C35.9798 72.86 34.1098 74.73 34.0098 77.06Z" fill="#FDCE83"/>
<path d="M43.0498 72.76C43.9198 75.33 44.7798 76.19 47.3498 77.06C47.2398 74.73 45.3798 72.86 43.0498 72.76Z" fill="#FDCE83"/>
<path d="M43.0498 81.77C45.3798 81.67 47.2498 79.8 47.3498 77.47C44.7798 78.34 43.9198 79.2 43.0498 81.77Z" fill="#FDCE83"/>
<path d="M47.7896 77.46C47.8896 79.79 49.7596 81.66 52.0896 81.76C51.2196 79.2 50.3596 78.34 47.7896 77.46Z" fill="#FDCE83"/>
<path d="M47.7896 77.06C50.3596 76.19 51.2196 75.33 52.0896 72.76C49.7596 72.86 47.8896 74.73 47.7896 77.06Z" fill="#FDCE83"/>
</g>
</g>
<defs>
<clipPath id="clip0_222_271">
<rect width="76.47" height="79.92" fill="white" transform="translate(0.109863 0.890015)"/>
</clipPath>
</defs>
</svg>
