<svg width="46" height="36" viewBox="0 0 46 36" fill="none" xmlns="http://www.w3.org/2000/svg">
<g clip-path="url(#clip0_222_692)">
<path fill-rule="evenodd" clip-rule="evenodd" d="M23.2499 1.255V1.265C42.3299 3.495 44.0699 9.50501 43.6199 25.135C33.5399 18.115 12.8999 18.115 2.81992 25.135C2.36992 9.50501 4.10992 3.495 23.1899 1.265V1.255L23.2199 1.265L23.2499 1.255Z" fill="#FFB570"/>
<path fill-rule="evenodd" clip-rule="evenodd" d="M24.0603 1.36495C30.1603 2.13495 34.4103 3.32495 37.3603 5.12495C40.9403 9.35495 41.6203 16.315 41.5803 23.885C31.8103 18.595 15.2003 18.525 5.26025 23.675C5.22025 15.905 5.98025 8.80495 9.89025 4.66495C12.8403 3.08495 16.9503 2.03495 22.6603 1.32495C22.9303 1.42495 23.1903 1.49495 23.4103 1.50495C23.6103 1.49495 23.8303 1.44495 24.0603 1.36495Z" fill="#EB564B"/>
<path fill-rule="evenodd" clip-rule="evenodd" d="M21.88 1.50496H24.96C25.28 1.50496 25.55 1.24496 25.55 0.924961C25.55 0.604961 25.29 0.334961 24.96 0.334961H21.88C21.56 0.334961 21.29 0.594961 21.29 0.924961C21.3 1.24496 21.56 1.50496 21.88 1.50496Z" fill="#EB473E"/>
<path fill-rule="evenodd" clip-rule="evenodd" d="M43.6201 25.8249C44.4001 27.8849 44.9001 29.9249 45.2301 31.9649C45.8601 35.6949 45.7001 36.0849 41.8601 34.3249C25.3701 26.8049 20.5801 26.7449 4.58007 34.3249C0.770072 36.1349 0.580072 35.6949 1.21007 31.9649C1.55007 29.9249 2.05007 27.8849 2.82007 25.8249C8.65007 17.6949 37.3001 17.6649 43.6201 25.8249Z" fill="#FFB570"/>
<path fill-rule="evenodd" clip-rule="evenodd" d="M43.6202 25.135C44.4002 27.195 44.9002 29.235 45.2302 31.265C45.8602 35.005 45.7102 35.375 41.8602 33.635C25.3702 26.185 20.5802 26.175 4.58016 33.635C0.760157 35.425 0.580157 35.005 1.21016 31.265C1.55016 29.235 2.05016 27.195 2.82016 25.135C8.65016 17.005 37.3002 16.975 43.6202 25.135Z" fill="#B0305C"/>
</g>
<defs>
<clipPath id="clip0_222_692">
<rect width="44.58" height="35.01" fill="white" transform="translate(0.930176 0.344971)"/>
</clipPath>
</defs>
</svg>
