<svg width="52" height="35" viewBox="0 0 52 35" fill="none" xmlns="http://www.w3.org/2000/svg">
<g clip-path="url(#clip0_222_711)">
<path d="M14.0499 18.3699L11.2899 23.4899C11.2899 23.4899 8.03988 26.8499 6.88988 28.0099C5.72988 29.1699 2.17988 29.9099 2.43988 28.4799C2.44988 28.4199 2.45988 28.3499 2.45988 28.2899C2.48988 27.8299 2.29988 27.3099 2.04988 26.8099C2.04988 26.7999 2.03988 26.7999 2.03988 26.7999C1.49988 25.7799 0.639883 24.8899 0.639883 24.8899C0.599883 24.7599 0.559883 24.6299 0.539883 24.5099C0.429883 24.0799 0.379883 23.6899 0.379883 23.3499C0.389883 22.4199 0.779883 21.7799 1.46988 21.3599C1.98988 21.0399 2.68988 20.8499 3.52988 20.7599C4.54988 20.6399 5.00988 20.0199 5.20988 19.4999C5.20988 19.4999 5.20988 19.4999 5.21988 19.4999C5.37988 19.0799 5.37988 18.7199 5.37988 18.7199L6.17988 17.1999L13.4499 12.5699L14.0499 18.3699Z" fill="#E4E7F9"/>
<path d="M24.05 8.71987C24.05 8.71987 25.1 1.21987 0 0.369873C0 0.369873 8.43 13.1799 21.82 12.0299C21.82 12.0299 26.61 12.3699 24.05 8.71987Z" fill="#4DA6FF"/>
<path d="M27.8602 8.71992C27.8602 8.71992 30.3402 -1.12008 51.9102 0.369923C51.9102 0.369923 43.4802 13.1799 30.0902 12.0299C30.1002 12.0299 25.3102 12.3699 27.8602 8.71992Z" fill="#4DA6FF"/>
<path d="M30.2201 8.74988C36.7901 8.58988 40.1201 7.07988 42.2601 6.18988C42.2801 6.17988 42.2901 6.20988 42.2801 6.21988C41.8001 6.76988 38.3001 10.6799 33.7701 11.8799C33.0301 12.0799 32.1701 12.0399 31.4601 11.7499C30.8601 11.4999 30.7701 10.9499 31.0801 10.4799C31.3201 10.1199 29.7701 8.75988 30.2201 8.74988Z" fill="#4B5BAB"/>
<path d="M50.8099 27.1799C50.8099 27.1799 50.7899 27.1899 50.7599 27.2099C50.5399 27.3299 49.7399 27.8299 49.5899 29.0099C49.5299 29.5499 49.5899 30.2399 49.9199 31.0999C51.0799 34.1299 48.7099 34.6199 48.7099 34.6199H45.8999C45.8999 34.6199 45.8499 33.4099 45.8999 31.0399C45.9599 28.6699 44.5799 28.1799 41.7099 26.2999C38.8499 24.4299 37.0299 21.4499 37.0299 21.4499C33.4499 17.6499 20.3099 20.3199 18.1799 20.2999C16.0599 20.2699 11.6799 25.9199 8.91988 27.1799C6.16988 28.4499 6.65988 34.3699 6.65988 34.3699H3.78988C3.24988 34.3699 2.70988 34.1599 2.36988 33.7399C1.75988 32.9799 2.24988 32.1599 2.47988 31.8599C2.77988 31.4699 3.01988 30.9499 3.01988 30.1999C3.01988 29.4599 2.41988 29.2099 2.41988 29.2099C2.26988 28.6099 2.13988 28.3699 2.45988 28.2799C2.72988 28.1999 3.31988 28.2199 4.51988 28.2199C6.45988 28.2199 6.74988 26.5899 6.74988 26.5899C5.59988 27.0599 4.50988 27.2099 3.65988 27.2399C3.07988 27.2599 2.51988 27.0999 2.04988 26.7999C2.04988 26.7899 2.03988 26.7899 2.03988 26.7899C1.49988 25.7699 0.639883 24.8799 0.639883 24.8799C0.599883 24.7499 0.559883 24.6199 0.539883 24.4999H2.39988C9.75988 24.4999 11.8599 20.6999 11.9799 20.4599C10.0099 22.6899 2.78988 24.0599 0.379883 23.3399C0.389883 22.4099 0.779883 21.7699 1.46988 21.3499C2.41988 21.1299 3.78988 20.8899 5.77988 20.6099C13.0999 19.5899 12.8099 15.0199 12.8099 15.0199C11.6099 18.9499 5.46988 19.4699 5.20988 19.4899C5.19988 19.4899 5.19988 19.4899 5.19988 19.4899C5.24988 13.2899 8.12988 11.8399 11.5699 11.9999C14.9999 12.1499 15.2199 11.4699 15.2199 11.4699C26.0299 5.63991 33.2899 11.1899 36.3199 11.9999C38.4999 12.5799 41.4599 12.3299 42.9399 12.1399C43.8099 12.0299 44.7099 12.2299 45.3799 12.7999C47.0899 14.2299 46.2599 16.5899 46.6299 18.8499C46.9399 20.7999 48.7899 21.6699 49.8499 22.0199C50.6599 22.2799 51.3599 22.8699 51.6499 23.6799C52.2699 25.4799 50.8099 27.1799 50.8099 27.1799Z" fill="#4DA6FF"/>
<path d="M51.06 27.1699C50.84 27.2899 50.04 27.7899 49.89 28.9699C47.58 28.3499 46.71 27.1399 46.71 27.1399C48.92 28.0699 50.74 27.3199 51.06 27.1699Z" fill="#4B5BAB"/>
<path d="M29.4701 8.76998C28.4301 9.32998 26.6101 10.23 24.9201 10.75C24.7601 10.8 24.6101 10.84 24.4601 10.88C24.1401 10.96 23.8301 11.03 23.5301 11.07C23.3601 11.1 23.2001 11.12 23.0401 11.13H23.0301C22.3401 11.18 21.8101 10.53 21.9301 9.84998C22.1801 8.31998 22.9501 5.77998 25.1901 5.48998C26.3001 5.34998 27.2401 5.62998 28.0101 6.05998H28.0201C28.1201 6.11998 28.2101 6.17998 28.3001 6.23998C28.5901 6.41998 28.8601 6.62998 29.0901 6.83998C29.3201 7.04998 29.5101 7.24998 29.6701 7.43998C29.6901 7.44998 29.7001 7.46998 29.7101 7.47998C30.0601 7.88998 29.9401 8.51998 29.4701 8.76998Z" fill="#4B5BAB"/>
<path d="M25.21 6.54992C25.21 6.42992 25.22 6.30992 25.32 6.21992C25.45 6.09992 25.64 6.11992 25.74 6.26992C25.8 6.35992 25.88 6.42992 25.9 6.53992C25.92 6.63992 25.94 6.72992 25.94 6.82992C25.94 7.03992 25.71 7.17992 25.52 7.08992C25.37 7.01992 25.19 6.78992 25.21 6.54992Z" fill="#E4E7F9"/>
<path d="M26.8402 9.47998C26.8602 9.62998 26.7502 9.71999 26.6502 9.81999C26.5602 9.90999 26.4602 9.94998 26.3302 9.91998C26.2802 9.90998 26.2402 9.88998 26.1902 9.88998C26.0502 9.86998 25.9402 9.65999 26.0302 9.52999C26.0602 9.47999 26.0902 9.41998 26.1202 9.35998C26.2002 9.20998 26.4302 9.08998 26.6002 9.11998C26.7302 9.13998 26.8302 9.24998 26.8502 9.38998C26.8502 9.40998 26.8402 9.43998 26.8402 9.47998Z" fill="#E4E7F9"/>
<path d="M29.67 7.43997C29.64 7.60997 29.51 7.69997 29.31 7.70997C29.3 7.70997 29.3 7.70997 29.29 7.69997C29.28 7.67997 29.27 7.67997 29.26 7.68997C29.25 7.67997 29.25 7.67997 29.24 7.67997C29.23 7.66997 29.23 7.66997 29.21 7.65997C29.11 7.57997 29.02 7.47997 28.97 7.34997C28.93 7.21997 28.92 7.07997 28.98 6.94997C29.01 6.89997 29.04 6.86997 29.08 6.83997C29.32 7.04997 29.51 7.24997 29.67 7.43997Z" fill="#E4E7F9"/>
<path d="M23.9602 9.71003C23.9402 9.73003 23.9102 9.75003 23.8902 9.77003C23.7902 9.83003 23.6702 9.82003 23.5902 9.74003C23.4802 9.63003 23.4402 9.49003 23.4202 9.34003C23.4102 9.25003 23.4302 9.15003 23.4402 9.06003C23.4502 8.96003 23.5202 8.90003 23.6202 8.88003C23.7102 8.86003 23.8002 8.88003 23.8602 8.95003C23.9802 9.11003 24.0802 9.28003 24.0602 9.50003C24.0302 9.58003 24.0602 9.67003 23.9602 9.71003Z" fill="#E4E7F9"/>
<path d="M23.7299 7.32003C23.6399 7.32003 23.5499 7.30003 23.4999 7.19003C23.4799 7.14003 23.4699 7.10003 23.4899 7.05003C23.5199 6.96003 23.5599 6.87003 23.5899 6.79003C23.6099 6.72003 23.6799 6.70003 23.7299 6.67003C23.7999 6.63003 23.8699 6.62003 23.9399 6.61003C24.0199 6.60003 24.0899 6.63003 24.1399 6.70003C24.2199 6.79003 24.2399 6.90003 24.1899 7.01003C24.0999 7.20003 23.9299 7.32003 23.7299 7.32003Z" fill="#E4E7F9"/>
<path d="M25.89 8.46004C25.9 8.56004 25.9 8.65004 25.81 8.71004C25.73 8.76004 25.6 8.76004 25.53 8.69004C25.31 8.49004 25.29 8.22004 25.35 7.96004C25.38 7.85004 25.56 7.79004 25.66 7.90004C25.78 8.03004 25.87 8.18004 25.88 8.37004C25.89 8.40004 25.89 8.43004 25.89 8.46004Z" fill="#E4E7F9"/>
<path d="M28.0001 8.50993C28.0201 8.64993 27.8501 8.76993 27.7001 8.71993C27.5501 8.66993 27.4501 8.55993 27.3701 8.41993C27.3201 8.33993 27.3001 8.25993 27.3101 8.15993C27.3301 8.02993 27.4801 7.94993 27.5901 7.97993C27.6001 7.97993 27.6101 7.98993 27.6201 7.98993C27.8001 8.04993 28.0001 8.29993 28.0001 8.50993Z" fill="#E4E7F9"/>
<path d="M24.8003 9.55003C24.8703 9.50003 24.9203 9.44003 25.0003 9.40003C25.1103 9.35003 25.2103 9.33003 25.3203 9.39003C25.3503 9.41003 25.3803 9.44003 25.4103 9.46003C25.4703 9.56003 25.4703 9.66003 25.4403 9.77003C25.4303 9.80003 25.4303 9.82003 25.4003 9.84003C25.3003 9.91003 25.2003 9.98003 25.0703 10.01C24.8603 10.05 24.6503 9.85003 24.7503 9.63003C24.7703 9.60003 24.7803 9.57003 24.8003 9.55003Z" fill="#E4E7F9"/>
<path d="M24.3 8.26996C24.22 8.24996 24.13 8.25996 24.09 8.15996C24.06 8.08996 24.04 8.02996 24.08 7.95996C24.13 7.84996 24.18 7.74996 24.29 7.67996C24.45 7.57996 24.63 7.59996 24.74 7.74996C24.81 7.83996 24.79 7.93996 24.74 8.01996C24.65 8.15996 24.52 8.23996 24.36 8.27996C24.34 8.26996 24.32 8.26996 24.3 8.26996Z" fill="#E4E7F9"/>
<path d="M22.4202 9.66997C22.5002 9.64997 22.5502 9.69997 22.5802 9.76997C22.6302 9.88997 22.6302 9.98997 22.5502 10.1C22.5002 10.16 22.4502 10.22 22.3902 10.27C22.2602 10.38 22.0402 10.33 21.9902 10.17C21.9702 10.1 21.9402 10.01 21.9802 9.92997C22.0402 9.81997 22.1002 9.71997 22.2402 9.69997C22.3002 9.68997 22.3602 9.65997 22.4202 9.66997Z" fill="#E4E7F9"/>
<path d="M28.3303 6.40995C28.3303 6.43995 28.3203 6.46995 28.3203 6.49995C28.3103 6.64995 28.2303 6.72995 28.0803 6.71995C27.9203 6.71995 27.7603 6.59995 27.7403 6.44995C27.7203 6.31995 27.7903 6.19995 27.8803 6.11995C27.9103 6.08995 27.9603 6.06995 28.0203 6.06995H28.0303C28.1303 6.12995 28.2203 6.18995 28.3103 6.24995C28.3303 6.29995 28.3303 6.34995 28.3303 6.40995Z" fill="#E4E7F9"/>
<path d="M26.4599 7.21C26.4299 7.06 26.5199 6.97 26.6299 6.9C26.6599 6.88 26.6899 6.87 26.7199 6.85C26.8499 6.74 26.9899 6.78 27.1299 6.84C27.1999 6.87 27.2399 6.97 27.1999 7.03C27.0999 7.21 26.8399 7.41 26.5799 7.33C26.5699 7.32 26.5499 7.32 26.5299 7.31C26.4899 7.28 26.4799 7.23 26.4599 7.21Z" fill="#E4E7F9"/>
<path d="M22.8999 8.30998C22.8999 8.31998 22.8999 8.33998 22.8999 8.34998C22.8399 8.46998 22.7899 8.58998 22.6699 8.66998C22.5799 8.72998 22.4899 8.72998 22.4299 8.67998C22.3299 8.59998 22.3099 8.51998 22.3499 8.40998C22.3899 8.29998 22.4699 8.20998 22.5499 8.11998C22.6099 8.05998 22.6999 8.04998 22.7799 8.07998C22.8099 8.08998 22.8399 8.09998 22.8299 8.13998C22.8199 8.15998 22.8299 8.16998 22.8399 8.17998C22.8999 8.22998 22.8999 8.22998 22.8999 8.30998Z" fill="#E4E7F9"/>
<path d="M23.5303 11.0799C23.3603 11.1099 23.2003 11.1299 23.0403 11.1399H23.0303C23.0403 11.0099 23.1503 10.8799 23.2803 10.8699C23.3603 10.8599 23.4203 10.8899 23.4703 10.9499C23.5003 10.9799 23.5203 11.0299 23.5303 11.0799Z" fill="#E4E7F9"/>
<path d="M28.8903 8.87001C28.7103 8.87001 28.6203 8.72001 28.6903 8.56001C28.7303 8.47001 28.7903 8.39001 28.8803 8.35001C29.0603 8.27001 29.2003 8.42001 29.1903 8.59001C29.1903 8.72001 29.0303 8.87001 28.8903 8.87001Z" fill="#E4E7F9"/>
<path d="M24.9203 10.75C24.7603 10.8 24.6103 10.84 24.4603 10.88C24.4303 10.8 24.4703 10.71 24.5403 10.67C24.7003 10.58 24.8403 10.62 24.9203 10.75Z" fill="#E4E7F9"/>
<path d="M26.8903 5.81995C26.9403 5.81995 26.9803 5.82995 27.0103 5.84995C27.0403 5.86995 27.0703 5.88995 27.1003 5.89995C27.2103 5.95995 27.2303 5.99995 27.2103 6.09995C27.1803 6.19995 27.1003 6.28995 27.0003 6.28995C26.8903 6.29995 26.8103 6.24995 26.7503 6.15995C26.6903 6.06995 26.7003 5.97995 26.7503 5.87995C26.7903 5.82995 26.8503 5.82995 26.8903 5.81995Z" fill="#E4E7F9"/>
<path d="M28.0701 7.39997C28.0701 7.38997 28.0701 7.36997 28.0701 7.34997C28.0801 7.24997 28.1401 7.18997 28.2401 7.17997C28.3401 7.16997 28.4101 7.20997 28.4501 7.29997C28.4701 7.33997 28.4801 7.38997 28.4801 7.42997C28.4901 7.54997 28.4401 7.60997 28.3101 7.63997C28.2101 7.65997 28.1101 7.60997 28.0701 7.50997C28.0501 7.47997 28.0601 7.44997 28.0701 7.39997Z" fill="#E4E7F9"/>
<path d="M23.96 9.71C24 9.65 24.03 9.58 24.05 9.5C24.05 9.54 24.05 9.57 24.05 9.61C24.05 9.68 24.03 9.71 23.96 9.71Z" fill="#E4E7F9"/>
<path d="M25.4103 9.45998C25.3603 9.46998 25.3303 9.42998 25.3203 9.38998C25.3803 9.37998 25.4003 9.41998 25.4103 9.45998Z" fill="#E4E7F9"/>
<path d="M26.46 7.20996C26.5 7.22996 26.51 7.26996 26.53 7.29996C26.47 7.28996 26.46 7.24996 26.46 7.20996Z" fill="#E4E7F9"/>
<path d="M24.8 9.54993C24.79 9.57993 24.78 9.59993 24.75 9.61993C24.76 9.58993 24.77 9.55993 24.8 9.54993Z" fill="#E4E7F9"/>
<path d="M29.25 7.67993C29.28 7.67993 29.3 7.67993 29.32 7.69993C29.29 7.70993 29.26 7.70993 29.25 7.67993Z" fill="#E4E7F9"/>
<path d="M26.52 7.29993C26.54 7.29993 26.55 7.30993 26.57 7.31993C26.55 7.31993 26.54 7.30993 26.52 7.29993Z" fill="#E4E7F9"/>
<path d="M29.2202 7.66003C29.2302 7.67003 29.2402 7.67003 29.2402 7.68003C29.2402 7.68003 29.2302 7.67003 29.2202 7.66003Z" fill="#E4E7F9"/>
<path d="M29.51 7.53992L29.52 7.54992L29.51 7.55992L29.5 7.54992C29.51 7.54992 29.51 7.53992 29.51 7.53992Z" fill="#E4E7F9"/>
<path d="M22.8999 11.2699C22.8999 11.2699 24.4899 8.47992 29.5299 7.92992C29.5299 7.92992 33.6299 6.77992 33.9999 9.33992C34.0999 9.99992 33.2199 10.7499 33.2199 10.7499C33.2199 10.7499 34.7999 10.5799 35.0999 11.4499C35.7599 13.3799 33.5699 14.0299 31.4699 14.0799C29.0299 14.1299 22.8999 11.2699 22.8999 11.2699Z" fill="#4DA6FF"/>
<path d="M35.1902 15.6799C35.1602 15.7999 35.1302 15.9299 35.0702 16.0499C35.0702 16.0499 35.0702 16.0499 35.0702 16.0599C34.9702 16.3099 34.8202 16.5499 34.6202 16.7899C34.0702 17.4599 33.1602 18.1899 31.8902 19.2099C30.5002 20.3299 29.1802 21.0299 27.9702 21.3699C27.7302 21.4299 27.4902 21.4899 27.2602 21.5299C26.7402 21.6199 26.2302 21.6499 25.7402 21.5999C25.6102 21.5899 25.4902 21.5699 25.3702 21.5499C23.4302 21.2399 21.8902 19.8799 20.8602 17.8499C20.8502 17.8399 20.8502 17.8199 20.8402 17.8099C20.8302 17.7999 20.8302 17.7899 20.8302 17.7799C20.6702 17.4699 20.5302 17.1399 20.4002 16.7999C20.3902 16.7799 20.3802 16.7499 20.3702 16.7399C20.0702 15.9599 19.8202 15.2599 19.6502 14.6399C19.5702 14.3599 19.5002 14.0899 19.4602 13.8399C19.4602 13.8299 19.4602 13.8299 19.4602 13.8299C19.4002 13.5099 19.3802 13.2099 19.3902 12.9299C19.3902 12.7799 19.4002 12.6399 19.4302 12.4999C19.4302 12.4899 19.4402 12.4899 19.4402 12.4699C19.4402 12.4599 19.4402 12.4499 19.4502 12.4399C19.5502 11.9499 19.7902 11.5299 20.2202 11.1699C20.9002 10.5899 21.8202 10.4399 22.6502 10.6599C22.8802 10.7199 23.1002 10.8199 23.3102 10.9399C23.3202 10.9399 23.3302 10.9499 23.3402 10.9499L25.2802 12.0699L25.8802 12.4199L26.1402 12.5699C26.3402 12.6899 26.5502 12.7899 26.7602 12.8699C27.1102 13.0299 27.4802 13.1399 27.8502 13.2099C28.3502 13.3099 28.8702 13.3299 29.3802 13.2799L29.5402 13.2699L30.1002 13.2199L32.3302 13.0099L32.6302 12.9799C32.8602 12.9499 33.0802 12.9499 33.2802 12.9799C34.5402 13.1599 35.4802 14.3699 35.1902 15.6799Z" fill="#4B5BAB"/>
<path d="M21.2201 13.9199C21.2301 13.9199 21.2301 13.9199 21.2401 13.9199C21.4201 13.9999 21.6001 14.0899 21.7001 14.2799C21.7501 14.3799 21.7801 14.4799 21.7401 14.5899C21.7401 14.5999 21.7401 14.5999 21.7401 14.6099C21.7101 15.0199 21.4501 15.2699 21.1201 15.4599C20.9101 15.5999 20.7401 15.4299 20.5601 15.3699C20.5201 15.3599 20.4601 15.3099 20.4401 15.2599C20.4201 15.2399 20.4301 15.2099 20.4001 15.1899C20.3301 15.0299 20.3601 14.8599 20.4101 14.7099C20.5301 14.3699 20.7301 14.0899 21.0901 13.9599C21.1201 13.9099 21.1801 13.9799 21.2201 13.9199Z" fill="#E4E7F9"/>
<path d="M27.8604 13.21C27.8304 13.27 27.8004 13.33 27.7504 13.38C27.6204 13.52 27.4804 13.63 27.3004 13.7C27.1404 13.75 26.9804 13.76 26.8304 13.67C26.8204 13.66 26.8004 13.65 26.7904 13.64C26.7104 13.53 26.6304 13.42 26.6304 13.29C26.6304 13.24 26.6404 13.2 26.6604 13.15C26.6904 13.05 26.7404 12.96 26.7804 12.86C27.1204 13.03 27.4904 13.14 27.8604 13.21Z" fill="#E4E7F9"/>
<path d="M29.4801 15.45C29.4901 15.8 29.1201 16.02 28.8201 15.84C28.5601 15.69 28.4201 15.45 28.3801 15.15C28.3701 15.02 28.3701 14.89 28.4101 14.76C28.5001 14.46 28.8001 14.36 29.0801 14.51C29.0901 14.52 29.1001 14.52 29.1101 14.53C29.2101 14.7 29.3901 14.83 29.4201 15.04C29.4401 15.18 29.4801 15.31 29.4801 15.45Z" fill="#E4E7F9"/>
<path d="M23.7001 13.27C23.6301 13.28 23.5601 13.26 23.4901 13.25C23.2801 13.2 23.1501 13.03 23.1801 12.81C23.1901 12.72 23.2101 12.63 23.2401 12.55C23.3601 12.17 23.5401 12.06 23.9301 11.99C24.0501 11.97 24.1601 12.04 24.2401 12.14C24.4701 12.45 24.3901 12.93 24.0801 13.14C23.9601 13.22 23.8401 13.28 23.7001 13.27Z" fill="#E4E7F9"/>
<path d="M29.9901 18.9999C30.1001 18.9499 30.2001 18.8899 30.3201 18.8799C30.5201 18.8499 30.6701 18.9199 30.7701 19.0999C30.9001 19.3499 30.8701 19.6099 30.6701 19.8199L30.6601 19.8299C30.3701 20.1999 30.1301 20.1299 29.7701 20.0099C29.6201 19.9599 29.5401 19.7199 29.6001 19.5699C29.6501 19.4399 29.7201 19.3199 29.7801 19.1999C29.8401 19.1299 29.8901 19.0399 29.9901 18.9999Z" fill="#E4E7F9"/>
<path d="M34.8404 16.5299C34.8504 16.5199 34.8704 16.5299 34.8704 16.5399C34.8604 16.5499 34.8604 16.5599 34.8604 16.5699C34.8504 16.5599 34.8504 16.5599 34.8404 16.5499C34.8304 16.5399 34.8404 16.5299 34.8404 16.5299Z" fill="#E4E7F9"/>
<path d="M35.07 16.0499C34.97 16.2999 34.82 16.5399 34.62 16.7799C34.54 16.7799 34.46 16.7499 34.4 16.6999C34.15 16.5099 33.99 16.2699 34 15.9199C33.99 15.8399 34.02 15.7499 34.07 15.6499C34.17 15.4399 34.37 15.3699 34.58 15.4599C34.71 15.5199 34.83 15.5899 34.88 15.7299C34.91 15.7899 34.95 15.8299 34.99 15.8799C35.02 15.9399 35.05 15.9999 35.07 16.0499Z" fill="#E4E7F9"/>
<path d="M23.0399 18.92C23.0599 19.07 22.9999 19.18 22.9099 19.28C22.7799 19.43 22.6099 19.46 22.4399 19.35C22.3799 19.31 22.3199 19.29 22.2599 19.25C22.1499 19.19 22.0499 19.1 22.0399 18.97C22.0199 18.79 21.9999 18.61 21.9999 18.43C21.9899 18.16 22.1699 18.05 22.4099 18.08C22.6299 18.1 22.7899 18.21 22.8799 18.41C22.9599 18.58 23.0699 18.74 23.0399 18.92Z" fill="#E4E7F9"/>
<path d="M20.8001 11.5999C20.7901 11.4799 20.8201 11.3399 20.9401 11.2399C21.0701 11.1299 21.2201 11.0699 21.3901 11.1299C21.4901 11.1699 21.6001 11.1899 21.6801 11.2699C21.7301 11.3199 21.7901 11.3799 21.8001 11.4499C21.8201 11.6099 21.8601 11.7599 21.8401 11.9199C21.8101 12.0999 21.7101 12.1899 21.5601 12.2499C21.1701 12.3899 20.7801 12.0999 20.8001 11.6899C20.8001 11.6699 20.8001 11.6499 20.8001 11.5999Z" fill="#E4E7F9"/>
<path d="M26.3203 18.6299C26.5703 18.8999 26.7103 19.1999 26.6503 19.5699C26.6203 19.7399 26.4903 19.8599 26.3303 19.9099C26.1703 19.9599 26.0303 19.9099 25.9203 19.7699C25.7803 19.5899 25.7003 19.3899 25.7103 19.1699C25.7203 18.9999 25.6803 18.8099 25.8003 18.6499C25.9703 18.5899 26.1403 18.5399 26.3203 18.6299Z" fill="#E4E7F9"/>
<path d="M25.0602 14.7599C25.0702 14.8599 25.0502 14.9399 24.9602 15.0199C24.6802 15.2599 24.4202 15.2599 24.1802 14.9899C24.0602 14.8599 23.9602 14.7199 23.9502 14.5299C23.9402 14.3599 24.0102 14.2199 24.1602 14.1399C24.6002 13.8699 25.1102 14.2999 25.0602 14.7599Z" fill="#E4E7F9"/>
<path d="M33.2801 12.9799C33.2701 13.0799 33.2901 13.1599 33.2401 13.2299C33.1401 13.3299 33.0301 13.4199 32.9001 13.4799C32.7501 13.5399 32.5401 13.4299 32.4301 13.2499C32.3801 13.1799 32.3401 13.0999 32.3301 13.0099L32.6301 12.9799C32.8601 12.9499 33.0801 12.9499 33.2801 12.9799Z" fill="#E4E7F9"/>
<path d="M21.0804 17.71C21.0004 17.73 20.9204 17.77 20.8504 17.81C20.8404 17.8 20.8404 17.79 20.8404 17.78C20.6804 17.47 20.5404 17.14 20.4104 16.8C20.4004 16.78 20.3904 16.75 20.3804 16.74C20.5404 16.65 20.6204 16.68 20.7904 16.81C20.9704 16.96 21.0704 17.15 21.1304 17.38C21.1604 17.49 21.1804 17.61 21.0804 17.71Z" fill="#E4E7F9"/>
<path d="M26.1799 16.2099C26.0599 16.1999 25.9099 16.1999 25.8299 16.0299C25.7899 15.9499 25.7799 15.8699 25.8099 15.7799C25.8599 15.6499 25.9099 15.5199 25.9499 15.3999C25.9599 15.3599 25.9899 15.3299 26.0199 15.3099C26.1599 15.1999 26.3299 15.1499 26.5099 15.1199C26.6199 15.1099 26.7199 15.1599 26.7899 15.2499C26.8999 15.3899 26.9399 15.5399 26.8599 15.7199C26.7399 16.0099 26.4699 16.2099 26.1799 16.2099Z" fill="#E4E7F9"/>
<path d="M29.1704 18.35C28.9904 18.39 28.8704 18.29 28.7704 18.16C28.5304 17.86 28.5204 17.53 28.6104 17.18C28.6604 16.98 28.8904 16.91 29.0604 17.05C29.2004 17.17 29.2904 17.33 29.3604 17.5C29.4304 17.69 29.4304 17.89 29.4204 18.09C29.4204 18.17 29.3604 18.22 29.3204 18.28C29.3104 18.31 29.2704 18.3 29.2504 18.32C29.2204 18.34 29.1904 18.33 29.1704 18.35Z" fill="#E4E7F9"/>
<path d="M32.16 18.32C32.15 18.32 32.14 18.32 32.13 18.32C32.11 18.3 32.08 18.31 32.06 18.29C32.04 18.27 32.01 18.28 31.99 18.26C31.84 18.14 31.7 18.01 31.61 17.84C31.55 17.73 31.53 17.63 31.55 17.51C31.58 17.28 31.81 17.13 32.03 17.22C32.31 17.33 32.63 17.72 32.58 18.08C32.58 18.11 32.56 18.13 32.55 18.16C32.43 18.24 32.32 18.35 32.16 18.32Z" fill="#E4E7F9"/>
<path d="M27.7801 19.55C27.8801 19.47 27.9601 19.37 28.0801 19.31C28.2101 19.25 28.3401 19.22 28.4901 19.27C28.5801 19.28 28.6201 19.37 28.7001 19.4C28.7901 19.53 28.7801 19.67 28.7601 19.81C28.7501 19.87 28.7201 19.92 28.6801 19.96C28.5101 20.11 28.3301 20.22 28.1101 20.22C27.7801 20.22 27.5701 19.89 27.7101 19.65C27.7301 19.62 27.7501 19.58 27.7801 19.55Z" fill="#E4E7F9"/>
<path d="M27.2901 16.6399C27.4601 16.6399 27.5901 16.7299 27.6901 16.8599C27.7701 16.9699 27.7501 17.1599 27.6601 17.2799C27.5501 17.4099 27.4201 17.5099 27.2601 17.5899C27.1201 17.6599 26.9701 17.6299 26.8301 17.5999C26.7401 17.5799 26.6401 17.3999 26.6501 17.2899C26.6801 17.0799 26.8901 16.6899 27.2201 16.6499C27.2501 16.6499 27.2701 16.6399 27.2901 16.6399Z" fill="#E4E7F9"/>
<path d="M24.1403 16.38C24.1503 16.67 23.9303 16.86 23.7003 16.81C23.5603 16.78 23.4803 16.65 23.4003 16.55C23.2803 16.41 23.2603 16.23 23.2603 16.05C23.2603 15.9 23.3503 15.8 23.4803 15.73C23.6103 15.67 23.7303 15.69 23.8403 15.78C24.0503 15.95 24.1003 16.18 24.1403 16.38Z" fill="#E4E7F9"/>
<path d="M24.37 20.4299C24.32 20.4799 24.26 20.5299 24.21 20.5799C24.09 20.6999 23.94 20.7199 23.78 20.6899C23.64 20.6599 23.58 20.5399 23.54 20.4199C23.47 20.1899 23.56 19.9399 23.77 19.8199C23.93 19.7299 24.12 19.6999 24.31 19.7199C24.35 19.7199 24.37 19.7499 24.39 19.7799C24.47 19.9299 24.54 20.0899 24.47 20.2599C24.45 20.2899 24.43 20.3299 24.4 20.3599C24.39 20.3799 24.4 20.4199 24.37 20.4299Z" fill="#E4E7F9"/>
<path d="M32.6803 15.31C32.4503 15.3 32.2103 15.13 32.1703 14.9C32.1403 14.7 32.2303 14.53 32.3803 14.4C32.4903 14.3 32.7003 14.3 32.8403 14.38C32.9903 14.46 33.0803 14.66 33.0603 14.83C33.0503 14.88 33.0403 14.93 33.0403 14.98C33.0303 15.2 32.9003 15.32 32.6803 15.31Z" fill="#E4E7F9"/>
<path d="M30.3303 16.1399C30.2103 15.9299 30.2303 15.7899 30.4203 15.6499C30.4903 15.5999 30.5603 15.5399 30.6403 15.4899C30.6503 15.4799 30.6603 15.4699 30.6803 15.4599C30.7003 15.4399 30.7303 15.4399 30.7503 15.4299C30.9203 15.3399 31.0903 15.3999 31.2603 15.4599C31.3903 15.5099 31.4403 15.6699 31.3603 15.7899C31.2303 15.9899 31.0603 16.1499 30.8203 16.1999C30.7003 16.2199 30.5703 16.2799 30.4403 16.2099C30.4203 16.1899 30.3903 16.1999 30.3703 16.1799C30.3503 16.1599 30.3403 16.1499 30.3303 16.1399Z" fill="#E4E7F9"/>
<path d="M30.1001 13.22C30.0801 13.25 30.0601 13.27 30.0401 13.28C29.9201 13.38 29.7901 13.41 29.6601 13.34C29.6201 13.32 29.5901 13.29 29.5601 13.26L30.1001 13.22Z" fill="#E4E7F9"/>
<path d="M22.1201 16.45C22.0501 16.45 21.9901 16.43 21.9401 16.4C21.7801 16.31 21.7201 16.11 21.8501 15.97C21.9801 15.82 22.1201 15.67 22.3301 15.61C22.5401 15.56 22.7901 15.75 22.7801 15.97C22.7801 16 22.7701 16.04 22.7601 16.07C22.5901 16.27 22.3701 16.39 22.1201 16.45Z" fill="#E4E7F9"/>
<path d="M25.7504 21.59C25.6204 21.58 25.5004 21.56 25.3804 21.54C25.4304 21.52 25.4704 21.5 25.5204 21.5C25.6104 21.5 25.6904 21.53 25.7504 21.59Z" fill="#E4E7F9"/>
<path d="M24.9201 17.7699C24.8601 17.8699 24.7901 17.9699 24.7401 18.0699C24.6901 18.1699 24.6001 18.2199 24.5101 18.2599C24.4001 18.2999 24.2901 18.2899 24.1901 18.2099C24.0901 18.1199 24.0501 18.0199 24.0801 17.8899C24.1001 17.8099 24.1301 17.7399 24.1801 17.6799C24.2201 17.6299 24.2601 17.5899 24.2901 17.5299C24.3801 17.3599 24.5301 17.2999 24.7201 17.3299C24.8301 17.4599 25.0201 17.5499 24.9201 17.7699Z" fill="#E4E7F9"/>
<path d="M27.9701 21.3699C27.7301 21.4299 27.4901 21.4899 27.2601 21.5299C27.2301 21.4099 27.2701 21.2799 27.3801 21.2199C27.6801 21.0699 27.8801 21.1799 27.9701 21.3699Z" fill="#E4E7F9"/>
<path d="M19.9302 14.3299C19.9302 14.4899 19.8402 14.5899 19.6802 14.6299C19.6702 14.6299 19.6702 14.6399 19.6602 14.6299C19.5802 14.3499 19.5102 14.0799 19.4702 13.8299C19.4702 13.8199 19.4702 13.8199 19.4702 13.8199C19.5702 13.7999 19.6802 13.8299 19.7502 13.8999C19.8702 14.0299 19.9202 14.1799 19.9302 14.3299Z" fill="#E4E7F9"/>
<path d="M25.9101 12.5199C25.9101 12.5199 25.9101 12.5399 25.9001 12.5599C25.8401 12.7099 25.5701 12.7999 25.4501 12.7099C25.3801 12.6499 25.3301 12.5699 25.2901 12.4999C25.2101 12.3499 25.2301 12.2099 25.2901 12.0699L25.8901 12.4199C25.9001 12.4499 25.9101 12.4799 25.9101 12.5199Z" fill="#E4E7F9"/>
<path d="M30.8701 13.95C31.0601 13.93 31.1901 14.05 31.3301 14.14C31.4301 14.2 31.4101 14.4 31.3301 14.52C31.2101 14.68 30.9501 14.72 30.8001 14.57C30.6301 14.41 30.5701 14.24 30.7401 14.01C30.7501 14 30.7601 13.99 30.7801 13.98C30.7901 13.95 30.8401 13.99 30.8701 13.95Z" fill="#E4E7F9"/>
<path d="M23.2901 11.2399C23.2101 11.2999 23.1201 11.3599 23.0201 11.2999C22.8401 11.1999 22.6901 11.0599 22.6201 10.8599C22.5901 10.7899 22.6101 10.7099 22.6601 10.6499C22.8901 10.7099 23.1101 10.8099 23.3201 10.9299C23.3301 10.9599 23.3401 10.9799 23.3501 11.0099C23.3601 11.0999 23.3601 11.1799 23.2901 11.2399Z" fill="#E4E7F9"/>
<path d="M32.67 16.3299C32.67 16.3099 32.67 16.2899 32.67 16.2599C32.69 16.0899 32.76 16.0099 32.92 15.9899C33.09 15.9699 33.19 16.0299 33.25 16.1899C33.26 16.2199 33.27 16.2499 33.28 16.2899C33.3 16.4099 33.31 16.5299 33.2 16.6099C33.1 16.6799 32.91 16.7099 32.82 16.6499C32.69 16.5799 32.63 16.4799 32.67 16.3299Z" fill="#E4E7F9"/>
<path d="M20.4302 15.25C20.4602 15.26 20.4902 15.26 20.5202 15.23C20.5402 15.21 20.5702 15.23 20.5902 15.24C20.6302 15.26 20.5202 15.39 20.6702 15.33C20.7302 15.3 20.7502 15.4 20.8102 15.43C20.9202 15.48 21.0102 15.47 21.1102 15.44C20.9502 15.58 20.7902 15.5 20.6402 15.44C20.5502 15.41 20.4402 15.38 20.4302 15.25Z" fill="#E4E7F9"/>
<path d="M26.32 18.6299C26.25 18.6299 26.18 18.5699 26.12 18.6599C26.09 18.6999 26.04 18.67 25.99 18.67C25.92 18.67 25.86 18.63 25.79 18.67C25.9 18.51 26.18 18.4799 26.32 18.6299Z" fill="#E4E7F9"/>
<path d="M24.9202 17.77C24.9202 17.74 24.9202 17.71 24.9202 17.69C24.9102 17.53 24.9102 17.53 24.7502 17.51C24.7602 17.45 24.7602 17.39 24.7202 17.33C24.9302 17.38 25.0102 17.54 24.9202 17.77Z" fill="#E4E7F9"/>
<path d="M21.0803 17.71C21.0103 17.76 20.9403 17.81 20.8703 17.85C20.8603 17.84 20.8603 17.82 20.8503 17.81C20.8403 17.8 20.8403 17.79 20.8403 17.78C20.8603 17.77 20.8903 17.75 20.9003 17.75C20.9603 17.72 21.0203 17.7 21.0803 17.71Z" fill="#E4E7F9"/>
<path d="M26.6501 13.1599C26.6501 13.2199 26.6501 13.2799 26.6501 13.3399C26.6501 13.3899 26.6401 13.4399 26.7201 13.4399C26.7601 13.4399 26.7801 13.4699 26.7701 13.5099C26.7601 13.5599 26.7801 13.5999 26.7801 13.6399C26.6101 13.5299 26.5501 13.3899 26.6501 13.1599Z" fill="#E4E7F9"/>
<path d="M32.1602 18.3199C32.2202 18.2099 32.3502 18.2599 32.4302 18.1999C32.4602 18.1799 32.5002 18.1699 32.5402 18.1499C32.4102 18.3299 32.3202 18.3699 32.1602 18.3199Z" fill="#E4E7F9"/>
<path d="M29.9903 19C29.9303 19.08 29.8603 19.15 29.7803 19.2C29.8203 19.11 29.8503 19 29.9903 19Z" fill="#E4E7F9"/>
<path d="M28.7002 19.4099C28.6002 19.4199 28.5602 19.3199 28.4902 19.2799C28.5902 19.2699 28.6602 19.3199 28.7002 19.4099Z" fill="#E4E7F9"/>
<path d="M21.2201 13.9199C21.2001 14.0299 21.1301 13.9499 21.0801 13.9599C21.1201 13.9099 21.1701 13.9099 21.2201 13.9199Z" fill="#E4E7F9"/>
<path d="M24.4102 20.3699C24.4102 20.3199 24.4402 20.2899 24.4802 20.2699C24.4802 20.3099 24.4602 20.3499 24.4102 20.3699Z" fill="#E4E7F9"/>
<path d="M27.78 19.5499C27.77 19.5899 27.75 19.6299 27.71 19.6499C27.71 19.5999 27.73 19.5699 27.78 19.5499Z" fill="#E4E7F9"/>
<path d="M30.87 13.95C30.84 13.98 30.81 13.99 30.77 13.99C30.79 13.95 30.83 13.95 30.87 13.95Z" fill="#E4E7F9"/>
<path d="M24.3701 20.43C24.3701 20.4 24.3801 20.38 24.4101 20.37C24.4101 20.4 24.4001 20.42 24.3701 20.43Z" fill="#E4E7F9"/>
<path d="M29.1699 18.3499C29.1899 18.3299 29.2099 18.3199 29.2399 18.3199C29.2199 18.3399 29.1999 18.3499 29.1699 18.3499Z" fill="#E4E7F9"/>
<path d="M32.0601 18.2899C32.0901 18.2899 32.1101 18.2999 32.1301 18.3199C32.1001 18.3199 32.0801 18.3099 32.0601 18.2899Z" fill="#E4E7F9"/>
<path d="M29.2402 18.3199C29.2602 18.2999 29.2802 18.2899 29.3102 18.2799C29.2902 18.3099 29.2702 18.3199 29.2402 18.3199Z" fill="#E4E7F9"/>
<path d="M31.9902 18.25C32.0202 18.25 32.0402 18.26 32.0602 18.28C32.0302 18.29 32.0102 18.28 31.9902 18.25Z" fill="#E4E7F9"/>
<path d="M30.3604 16.1699C30.3904 16.1699 30.4104 16.1799 30.4304 16.1999C30.4004 16.1999 30.3804 16.1899 30.3604 16.1699Z" fill="#E4E7F9"/>
<path d="M30.7399 15.4199C30.7199 15.4399 30.6999 15.4499 30.6699 15.4499C30.6799 15.4299 30.7099 15.4199 30.7399 15.4199Z" fill="#E4E7F9"/>
<path d="M20.4004 15.1799C20.4304 15.1899 20.4404 15.2199 20.4404 15.2499C20.4104 15.2299 20.4004 15.2099 20.4004 15.1799Z" fill="#E4E7F9"/>
<path d="M30.77 13.99C30.76 14 30.75 14.01 30.73 14.02C30.74 14.01 30.76 14 30.77 13.99Z" fill="#E4E7F9"/>
<path d="M30.6704 15.46C30.6604 15.47 30.6504 15.48 30.6304 15.49C30.6404 15.48 30.6604 15.47 30.6704 15.46Z" fill="#E4E7F9"/>
<path d="M34.8601 16.54C34.8501 16.55 34.8501 16.56 34.8501 16.57C34.8401 16.56 34.8401 16.56 34.8301 16.55C34.8301 16.54 34.8401 16.54 34.8401 16.54C34.8501 16.52 34.8601 16.53 34.8601 16.54Z" fill="#E4E7F9"/>
</g>
<defs>
<clipPath id="clip0_222_711">
<rect width="51.92" height="34.4" fill="white" transform="translate(0 0.219971)"/>
</clipPath>
</defs>
</svg>
