<svg width="61" height="70" viewBox="0 0 61 70" fill="none" xmlns="http://www.w3.org/2000/svg">
<g id="beard-6" clip-path="url(#clip0_215_485)">
<g id="Group">
<g id="face">
<g id="Group_2">
<g id="Group_3">
<g id="Group_4">
<path id="Vector" d="M8.95 43.4C13.4787 43.4 17.15 39.7287 17.15 35.2C17.15 30.6713 13.4787 27 8.95 27C4.42126 27 0.75 30.6713 0.75 35.2C0.75 39.7287 4.42126 43.4 8.95 43.4Z" fill="#AD7153"/>
<g id="Group_5">
<g id="Group_6">
<path id="Vector_2" d="M7.24014 31C4.96014 31.11 3.14014 32.98 3.14014 35.29H7.24014V31Z" fill="#975C45"/>
</g>
</g>
</g>
<g id="Group_7">
<path id="Vector_3" d="M52.3001 43.4C56.8288 43.4 60.5001 39.7287 60.5001 35.2C60.5001 30.6713 56.8288 27 52.3001 27C47.7714 27 44.1001 30.6713 44.1001 35.2C44.1001 39.7287 47.7714 43.4 52.3001 43.4Z" fill="#AD7153"/>
<g id="Group_8">
<path id="Vector_4" d="M58.6401 35.2001C58.5301 32.9201 56.6601 31.1001 54.3501 31.1001V35.2001H58.6401Z" fill="#975C45"/>
</g>
</g>
</g>
<g id="Group_9">
<path id="Vector_5" d="M30.2598 69.63C18.2498 69.63 8.50977 59.89 8.50977 47.88V22.52C8.49977 10.51 18.2398 0.77002 30.2598 0.77002C42.2698 0.77002 52.0098 10.51 52.0098 22.52V47.87C52.0098 61.3 42.2698 69.63 30.2598 69.63Z" fill="#F6C09C"/>
<path id="Vector_6" d="M12.53 47.8799V9.93994C10 13.4899 8.5 17.8299 8.5 22.5299V47.8799C8.5 59.8899 18.24 69.6299 30.25 69.6299C30.93 69.6299 31.6 69.5899 32.27 69.5299C21.2 68.5099 12.53 59.2099 12.53 47.8799Z" fill="#AD7153"/>
</g>
</g>
</g>
<path id="Vector_7" d="M38.8002 52.29C34.8002 49.06 30.6302 51.93 30.6302 51.93C30.6302 51.93 26.4602 49.06 22.4602 52.29C18.4602 55.52 18.5502 59.61 10.7202 57.74C10.7202 57.74 14.0802 60.9 19.4402 58.28C21.6702 57.19 24.0002 56.27 26.4302 55.77C28.1002 55.43 29.8302 55.43 30.6302 54.55C31.4302 55.43 33.1702 55.43 34.8302 55.77C37.2702 56.27 39.5902 57.19 41.8202 58.28C47.1802 60.9 50.5402 57.74 50.5402 57.74C42.7102 59.61 42.8002 55.52 38.8002 52.29Z" fill="#5B2C2D"/>
</g>
</g>
<defs>
<clipPath id="clip0_215_485">
<rect width="59.75" height="68.86" fill="white" transform="translate(0.75 0.77002)"/>
</clipPath>
</defs>
</svg>
