<svg width="60" height="72" viewBox="0 0 60 72" fill="none" xmlns="http://www.w3.org/2000/svg">
<g id="beard-5" clip-path="url(#clip0_215_464)">
<g id="Group">
<g id="face">
<g id="Group_2">
<g id="Group_3">
<g id="Group_4">
<path id="Vector" d="M8.2 43.4C12.7287 43.4 16.4 39.7287 16.4 35.2C16.4 30.6713 12.7287 27 8.2 27C3.67126 27 0 30.6713 0 35.2C0 39.7287 3.67126 43.4 8.2 43.4Z" fill="#AD7153"/>
<g id="Group_5">
<g id="Group_6">
<path id="Vector_2" d="M6.49014 31C4.21014 31.11 2.39014 32.98 2.39014 35.29H6.49014V31Z" fill="#975C45"/>
</g>
</g>
</g>
<g id="Group_7">
<path id="Vector_3" d="M51.5501 43.4C56.0788 43.4 59.7501 39.7287 59.7501 35.2C59.7501 30.6713 56.0788 27 51.5501 27C47.0214 27 43.3501 30.6713 43.3501 35.2C43.3501 39.7287 47.0214 43.4 51.5501 43.4Z" fill="#AD7153"/>
<g id="Group_8">
<path id="Vector_4" d="M57.8901 35.2001C57.7801 32.9201 55.9101 31.1001 53.6001 31.1001V35.2001H57.8901Z" fill="#975C45"/>
</g>
</g>
</g>
<g id="Group_9">
<path id="Vector_5" d="M29.5098 69.63C17.4998 69.63 7.75977 59.89 7.75977 47.88V22.52C7.74977 10.51 17.4898 0.77002 29.5098 0.77002C41.5198 0.77002 51.2598 10.51 51.2598 22.52V47.87C51.2598 61.3 41.5198 69.63 29.5098 69.63Z" fill="#F6C09C"/>
<path id="Vector_6" d="M11.78 47.8799V9.93994C9.25 13.4899 7.75 17.8299 7.75 22.5299V47.8799C7.75 59.8899 17.49 69.6299 29.5 69.6299C30.18 69.6299 30.85 69.5899 31.52 69.5299C20.45 68.5099 11.78 59.2099 11.78 47.8799Z" fill="#AD7153"/>
</g>
</g>
</g>
<path id="Vector_7" d="M41.9302 54.02C39.2702 51.41 36.3302 51.28 35.9502 51.27H24.3002C21.4602 51.27 19.1102 52.2 17.3202 54.03C13.0502 58.4 13.7602 66.47 13.8002 66.81C13.9002 67.91 14.9402 68.72 16.1202 68.62C16.9202 68.55 17.5602 68.08 17.8702 67.45C20.4002 69.16 24.6402 71.34 29.8902 71.34C33.4602 71.34 37.5002 70.32 41.7602 67.47C41.8402 68.48 42.7202 69.29 43.8302 69.32C43.8502 69.32 43.8702 69.32 43.8802 69.32C45.0402 69.32 45.9902 68.46 46.0202 67.37C46.1702 61.31 44.8002 56.82 41.9302 54.02ZM24.3002 55.27H35.8702C36.1002 55.28 41.2302 55.71 41.7102 64.99C38.2802 67.57 35.0202 68.8 32.0602 69.21V67.31H27.6902V69.24C23.1302 68.68 19.6802 66.39 18.0002 65.05C18.0102 62.66 18.4602 58.77 20.4802 56.72C21.4402 55.75 22.6902 55.27 24.3002 55.27Z" fill="#5B2C2D"/>
</g>
</g>
<defs>
<clipPath id="clip0_215_464">
<rect width="59.75" height="70.57" fill="white" transform="translate(0 0.77002)"/>
</clipPath>
</defs>
</svg>
