<svg width="61" height="70" viewBox="0 0 61 70" fill="none" xmlns="http://www.w3.org/2000/svg">
<g id="beard-8" clip-path="url(#clip0_215_527)">
<g id="Group">
<g id="face">
<g id="Group_2">
<g id="Group_3">
<g id="Group_4">
<path id="Vector" d="M8.95 43.3301C13.4787 43.3301 17.15 39.6588 17.15 35.1301C17.15 30.6013 13.4787 26.9301 8.95 26.9301C4.42126 26.9301 0.75 30.6013 0.75 35.1301C0.75 39.6588 4.42126 43.3301 8.95 43.3301Z" fill="#AD7153"/>
<g id="Group_5">
<g id="Group_6">
<path id="Vector_2" d="M7.24014 30.9301C4.96014 31.0401 3.14014 32.9101 3.14014 35.2201H7.24014V30.9301Z" fill="#975C45"/>
</g>
</g>
</g>
<g id="Group_7">
<path id="Vector_3" d="M52.3001 43.3301C56.8288 43.3301 60.5001 39.6588 60.5001 35.1301C60.5001 30.6013 56.8288 26.9301 52.3001 26.9301C47.7714 26.9301 44.1001 30.6013 44.1001 35.1301C44.1001 39.6588 47.7714 43.3301 52.3001 43.3301Z" fill="#AD7153"/>
<g id="Group_8">
<path id="Vector_4" d="M58.6401 35.13C58.5301 32.85 56.6601 31.03 54.3501 31.03V35.13H58.6401Z" fill="#975C45"/>
</g>
</g>
</g>
<g id="Group_9">
<path id="Vector_5" d="M30.2598 69.5601C18.2498 69.5601 8.50977 59.8201 8.50977 47.8101V22.4501C8.49977 10.4401 18.2398 0.700073 30.2598 0.700073C42.2698 0.700073 52.0098 10.4401 52.0098 22.4501V47.8001C52.0098 61.2301 42.2698 69.5601 30.2598 69.5601Z" fill="#F6C09C"/>
<path id="Vector_6" d="M12.53 47.8101V9.87012C10 13.4201 8.5 17.7601 8.5 22.4601V47.8101C8.5 59.8201 18.24 69.5601 30.25 69.5601C30.93 69.5601 31.6 69.5201 32.27 69.4601C21.2 68.4401 12.53 59.1401 12.53 47.8101Z" fill="#AD7153"/>
</g>
</g>
</g>
<path id="Vector_7" d="M36.1998 53.4201H25.0498C25.0498 51.3001 26.7598 50.2001 28.8798 50.2001H32.3698C34.4798 50.2001 36.1998 51.3101 36.1998 53.4201Z" fill="#5B2C2D"/>
</g>
</g>
<defs>
<clipPath id="clip0_215_527">
<rect width="59.75" height="68.86" fill="white" transform="translate(0.75 0.700073)"/>
</clipPath>
</defs>
</svg>
