<svg width="60" height="72" viewBox="0 0 60 72" fill="none" xmlns="http://www.w3.org/2000/svg">
<g id="beard-4" clip-path="url(#clip0_215_443)">
<g id="Group">
<g id="face">
<g id="Group_2">
<g id="Group_3">
<g id="Group_4">
<path id="Vector" d="M8.45 43.3199C12.9787 43.3199 16.65 39.6487 16.65 35.1199C16.65 30.5912 12.9787 26.9199 8.45 26.9199C3.92126 26.9199 0.25 30.5912 0.25 35.1199C0.25 39.6487 3.92126 43.3199 8.45 43.3199Z" fill="#AD7153"/>
<g id="Group_5">
<g id="Group_6">
<path id="Vector_2" d="M6.74014 30.9199C4.46014 31.0299 2.64014 32.8999 2.64014 35.2099H6.74014V30.9199Z" fill="#975C45"/>
</g>
</g>
</g>
<g id="Group_7">
<path id="Vector_3" d="M51.8001 43.3199C56.3288 43.3199 60.0001 39.6487 60.0001 35.1199C60.0001 30.5912 56.3288 26.9199 51.8001 26.9199C47.2714 26.9199 43.6001 30.5912 43.6001 35.1199C43.6001 39.6487 47.2714 43.3199 51.8001 43.3199Z" fill="#AD7153"/>
<g id="Group_8">
<path id="Vector_4" d="M58.1401 35.12C58.0301 32.84 56.1601 31.02 53.8501 31.02V35.12H58.1401Z" fill="#975C45"/>
</g>
</g>
</g>
<g id="Group_9">
<path id="Vector_5" d="M29.5801 69.63C17.5701 69.63 7.83009 59.89 7.83009 47.88V22.52C7.82009 10.51 17.5601 0.77002 29.5801 0.77002C41.5901 0.77002 51.3301 10.51 51.3301 22.52V47.87C51.3301 66.05 41.5901 69.63 29.5801 69.63Z" fill="#F6C09C"/>
<path id="Vector_6" d="M12.03 47.8001V9.86011C9.5 13.4101 8 17.7501 8 22.4501V47.8001C8 59.8101 17.74 69.5501 29.75 69.5501C30.43 69.5501 31.1 69.5101 31.77 69.4501C20.7 68.4301 12.03 59.1301 12.03 47.8001Z" fill="#AD7153"/>
</g>
</g>
</g>
<path id="Vector_7" d="M49.0098 32.1799C48.9398 32.2799 48.8998 32.3999 48.8998 32.5299V40.9399C48.8998 44.3299 49.1198 48.9299 48.5998 52.2699C46.8598 63.4199 39.5798 68.3299 29.8098 68.3299C17.6198 68.3299 10.6098 59.8099 10.4298 50.5699V32.6199C10.4298 32.4999 10.3898 32.3699 10.3198 32.2699C9.71982 31.4699 8.79982 31.0099 7.81982 31.0099V46.1699V51.4999C7.81982 60.0799 13.7998 71.1199 29.7498 71.2699C29.9898 71.2699 30.2298 71.2699 30.4798 71.2699C37.0398 71.1999 47.6998 69.2599 50.8198 56.2999C51.3898 53.9399 51.4998 46.0799 51.4998 46.0799V30.9199C50.5298 30.9199 49.6098 31.3899 49.0098 32.1799Z" fill="#602F33"/>
</g>
</g>
<defs>
<clipPath id="clip0_215_443">
<rect width="59.75" height="70.51" fill="white" transform="translate(0.25 0.77002)"/>
</clipPath>
</defs>
</svg>
