<svg width="108" height="166" viewBox="0 0 108 166" fill="none" xmlns="http://www.w3.org/2000/svg">
<g clip-path="url(#clip0_301_9227)">
<path d="M23.08 4.77499V17.195C23.08 46.975 22.42 60.315 17.48 70.775C17.01 71.765 16.51 72.675 15.96 73.505L0 52.665H0.03C0.65 52.665 1.23 52.575 1.76 52.405C8.28 50.325 8.74 36.165 9.37 25.515C9.56 22.315 10.49 16.645 13.48 12.985C16.69 9.05499 20.21 6.42499 23.08 4.77499Z" fill="#0E6F89"/>
<path d="M45.8902 91.715H24.3602C20.7602 91.715 17.8402 88.795 17.8402 85.195L17.9902 6.97498C17.5002 7.44498 11.1002 12.755 9.38016 17.855C7.44016 23.605 7.80016 34.865 7.80016 38.075L7.61016 63.255L7.44016 84.985C7.45016 84.715 5.93016 86.415 4.38016 89.475C2.34016 93.525 1.38016 98.035 1.36016 102.575L1.16016 165.015H17.8402V100.615C17.8402 97.015 20.7602 94.095 24.3602 94.095H45.8902C46.5502 94.095 47.0802 93.555 47.0802 92.905C47.0802 92.245 46.5502 91.715 45.8902 91.715Z" fill="#0E6F89"/>
<path d="M91.5499 86.845C90.3499 83.635 87.1298 80.875 87.1398 81.145L86.9898 65.175H107.02C104.78 52.125 102.36 42.055 100.84 36.265C99.3198 30.455 96.8998 24.895 93.4598 19.975C91.1298 16.645 88.6199 13.895 86.0798 11.645C86.0599 11.635 86.0398 11.615 86.0198 11.595C85.5298 11.175 85.0398 10.755 84.5499 10.365C82.8499 8.99499 81.0998 7.82499 79.3598 6.82499C70.2698 1.58499 61.4598 0.984985 61.4598 0.984985L61.4498 1.90499C61.4198 8.47499 57.7398 14.475 51.9098 17.495L47.6998 19.675L43.2198 16.525C38.5498 13.255 35.7498 7.92498 35.7098 2.22499L35.6998 0.984985C32.3998 0.984985 28.1498 1.01499 21.4498 4.61499C18.6398 6.12499 15.8598 8.92499 15.8398 8.94499L17.8398 85.195C17.8398 88.795 20.7598 91.715 24.3598 91.715H45.8898C46.5498 91.715 47.0798 92.245 47.0798 92.905C47.0798 93.555 46.5498 94.095 45.8898 94.095H24.3598C20.7598 94.095 17.8398 97.015 17.8398 100.615L16.6298 165.015H76.7398H94.1498L93.9498 103.305C93.9298 98.765 94.1299 93.735 91.5499 86.845Z" fill="#19ACEC"/>
<path d="M55.9902 25.975C55.7002 23.685 50.9302 21.375 48.8002 20.455C48.4602 20.305 48.1002 20.235 47.7302 20.235C47.3502 20.235 46.9802 20.315 46.6402 20.465C44.5902 21.395 40.0702 23.685 39.7802 25.965C39.5902 27.415 40.1702 28.625 41.3302 29.205C41.8102 29.445 42.3402 29.565 42.8902 29.565C43.8802 29.565 44.9402 29.175 45.8902 28.465C45.6402 29.635 45.4902 30.945 45.5702 32.285L46.5702 32.225C46.4102 29.585 47.2502 27.045 47.8502 25.595C48.3202 27.645 49.0502 32.005 48.6402 37.965L49.6402 38.035C49.9302 33.815 49.6702 30.415 49.3202 28.005C50.3902 29.015 51.6902 29.555 52.8902 29.555C53.4402 29.555 53.9802 29.435 54.4502 29.195C55.5902 28.635 56.1702 27.415 55.9902 25.975ZM41.7802 28.325C40.9902 27.925 40.6402 27.135 40.7702 26.095C40.9502 24.715 44.0302 22.755 47.0102 21.395C47.1402 22.735 47.2602 25.875 45.8002 27.265C44.3402 28.665 42.7302 28.805 41.7802 28.325ZM53.9802 28.325C53.0302 28.805 51.4202 28.665 49.9602 27.265C48.5002 25.875 48.4302 22.775 48.4802 21.405C51.6002 22.755 54.8202 24.725 54.9902 26.095C55.1302 27.135 54.7702 27.925 53.9802 28.325Z" fill="#0E6F89"/>
<path d="M24.3101 135.475V165.015H21.8101V135.475C21.8101 134.775 22.3701 134.205 23.0601 134.205C23.7501 134.205 24.3101 134.775 24.3101 135.475Z" fill="#0E6F89"/>
<path d="M32.5 135.475V165.015H30V135.475C30 134.775 30.56 134.205 31.25 134.205C31.93 134.205 32.5 134.775 32.5 135.475Z" fill="#0E6F89"/>
<path d="M40.6802 135.475V165.015H38.1802V135.475C38.1802 134.775 38.7402 134.205 39.4302 134.205C40.1202 134.205 40.6802 134.775 40.6802 135.475Z" fill="#0E6F89"/>
<path d="M48.8701 135.475V165.015H46.3701V135.475C46.3701 134.775 46.9301 134.205 47.6201 134.205C48.3101 134.205 48.8701 134.775 48.8701 135.475Z" fill="#0E6F89"/>
<path d="M57.0601 135.475V165.015H54.5601V135.475C54.5601 134.775 55.1201 134.205 55.8101 134.205C56.5001 134.205 57.0601 134.775 57.0601 135.475Z" fill="#0E6F89"/>
<path d="M65.2402 135.475V165.015H62.7402V135.475C62.7402 134.775 63.3002 134.205 63.9902 134.205C64.6802 134.205 65.2402 134.775 65.2402 135.475Z" fill="#0E6F89"/>
<path d="M73.4302 135.475V165.015H70.9302V135.475C70.9302 134.775 71.4902 134.205 72.1802 134.205C72.8702 134.205 73.4302 134.775 73.4302 135.475Z" fill="#0E6F89"/>
<path d="M81.6201 135.475V165.015H79.1201V135.475C79.1201 134.775 79.6801 134.205 80.3701 134.205C81.0601 134.205 81.6201 134.775 81.6201 135.475Z" fill="#0E6F89"/>
<path d="M89.8003 135.475V165.015H87.3003V135.475C87.3003 134.775 87.8603 134.205 88.5503 134.205C89.2403 134.205 89.8003 134.775 89.8003 135.475Z" fill="#0E6F89"/>
</g>
<defs>
<clipPath id="clip0_301_9227">
<rect width="107.02" height="164.03" fill="white" transform="translate(0 0.984985)"/>
</clipPath>
</defs>
</svg>
