<svg width="88" height="150" viewBox="0 0 88 150" fill="none" xmlns="http://www.w3.org/2000/svg">
<g clip-path="url(#clip0_301_12326)">
<path d="M18.9301 6.405V17.185C18.9301 40.095 18.4201 50.365 14.6201 58.405C14.2601 59.165 13.8701 59.865 13.4501 60.505L0.140137 46.285C4.23014 41.405 7.89014 31.785 8.38014 23.585C8.53014 21.125 10.5901 15.235 12.8901 12.415C15.3501 9.395 16.7201 7.675 18.9301 6.405Z" fill="#EB564B"/>
<path d="M40.1804 70.295H23.6104C20.8404 70.295 18.5904 68.045 18.5904 65.275L18.7004 5.09497C18.3304 5.45497 7.87035 13.745 7.87035 29.025L7.73035 48.395L8.18035 65.115C8.19035 64.905 7.02035 66.215 5.83035 68.565C4.26035 71.685 3.52035 75.155 3.51035 78.645L3.36035 149.515H18.6104V77.145C18.6104 74.375 20.8604 72.125 23.6304 72.125H40.2004C40.7104 72.125 41.1203 71.705 41.1203 71.205C41.0904 70.705 40.6903 70.295 40.1804 70.295Z" fill="#EB564B"/>
<path d="M81.8201 66.545C80.9001 64.075 78.4201 61.955 78.4301 62.155L78.3101 49.865H87.2101C85.4901 39.825 83.6201 32.075 82.4601 27.625C81.2901 23.155 79.4301 18.875 76.7801 15.095C74.9901 12.535 73.0601 10.415 71.1001 8.68499C71.0801 8.67498 71.0701 8.66499 71.0501 8.64499C70.6701 8.32499 70.3001 7.99499 69.9201 7.69499C68.6101 6.64499 67.2701 5.74499 65.9301 4.97499C58.9401 0.944985 52.1601 0.484985 52.1601 0.484985L52.1501 1.19499C52.1301 6.25499 49.3001 10.865 44.8101 13.195L41.5701 14.875L38.1201 12.455C34.5301 9.93499 32.3701 5.83499 32.3401 1.45499V0.484985C29.8001 0.484985 26.5301 0.504985 21.3801 3.27499C19.2201 4.43499 17.0801 6.59499 17.0601 6.60499L18.6001 65.275C18.6001 68.045 20.8501 70.295 23.6201 70.295H40.1901C40.7001 70.295 41.1101 70.705 41.1101 71.215C41.1101 71.715 40.7001 72.135 40.1901 72.135H23.6101C20.8401 72.135 18.5901 74.385 18.5901 77.155L17.6601 149.525H63.9101H83.8201L83.6701 79.215C83.6501 75.715 83.8101 71.845 81.8201 66.545Z" fill="#FF9166"/>
<path d="M47.9502 19.715C47.7202 17.945 44.0602 16.175 42.4202 15.475C42.1602 15.365 41.8802 15.305 41.6002 15.305C41.3102 15.305 41.0302 15.365 40.7602 15.485C39.1802 16.195 35.7102 17.965 35.4802 19.715C35.3402 20.825 35.7802 21.765 36.6702 22.215C37.0402 22.405 37.4502 22.495 37.8702 22.495C38.6302 22.495 39.4502 22.195 40.1802 21.655C39.9902 22.555 39.8702 23.565 39.9302 24.595L40.7002 24.545C40.5802 22.515 41.2202 20.555 41.6802 19.445C42.0402 21.025 42.6002 24.375 42.2902 28.965L43.0602 29.015C43.2802 25.765 43.0802 23.155 42.8102 21.295C43.6402 22.075 44.6302 22.495 45.5502 22.495C45.9802 22.495 46.3902 22.405 46.7502 22.215C47.6402 21.755 48.0902 20.825 47.9502 19.715ZM37.0202 21.525C36.4202 21.215 36.1402 20.615 36.2402 19.815C36.3802 18.755 38.7502 17.245 41.0402 16.205C41.1402 17.235 41.2302 19.645 40.1102 20.715C38.9802 21.785 37.7402 21.895 37.0202 21.525ZM46.4102 21.525C45.6802 21.895 44.4402 21.785 43.3202 20.715C42.2002 19.645 42.1402 17.255 42.1802 16.205C44.5802 17.245 47.0602 18.755 47.1902 19.815C47.2902 20.605 47.0102 21.215 46.4102 21.525Z" fill="#EB564B"/>
<path d="M23.5701 103.965V149.515H21.6401V103.965C21.6401 103.425 22.0701 102.985 22.6001 102.985C23.1401 102.985 23.5701 103.425 23.5701 103.965Z" fill="#EB564B"/>
<path d="M29.8699 103.965V149.515H27.9399V103.965C27.9399 103.425 28.3699 102.985 28.8999 102.985C29.4399 102.985 29.8699 103.425 29.8699 103.965Z" fill="#EB564B"/>
<path d="M36.1702 103.965V149.515H34.2402V103.965C34.2402 103.425 34.6702 102.985 35.2002 102.985C35.7402 102.985 36.1702 103.425 36.1702 103.965Z" fill="#EB564B"/>
<path d="M42.47 103.965V149.515H40.54V103.965C40.54 103.425 40.97 102.985 41.5 102.985C42.04 102.985 42.47 103.425 42.47 103.965Z" fill="#EB564B"/>
<path d="M48.7703 103.965V149.515H46.8403V103.965C46.8403 103.425 47.2703 102.985 47.8003 102.985C48.3403 102.985 48.7703 103.425 48.7703 103.965Z" fill="#EB564B"/>
<path d="M55.0701 103.965V149.515H53.1401V103.965C53.1401 103.425 53.5701 102.985 54.1001 102.985C54.6401 102.985 55.0701 103.425 55.0701 103.965Z" fill="#EB564B"/>
<path d="M61.3699 103.965V149.515H59.4399V103.965C59.4399 103.425 59.8699 102.985 60.3999 102.985C60.9399 102.985 61.3699 103.425 61.3699 103.965Z" fill="#EB564B"/>
<path d="M67.6702 103.965V149.515H65.7402V103.965C65.7402 103.425 66.1702 102.985 66.7002 102.985C67.2402 102.985 67.6702 103.425 67.6702 103.965Z" fill="#EB564B"/>
<path d="M73.97 103.965V149.515H72.04V103.965C72.04 103.425 72.47 102.985 73 102.985C73.54 102.985 73.97 103.425 73.97 103.965Z" fill="#EB564B"/>
</g>
<defs>
<clipPath id="clip0_301_12326">
<rect width="87.07" height="149.03" fill="white" transform="translate(0.140137 0.484985)"/>
</clipPath>
</defs>
</svg>
