<svg width="84" height="132" viewBox="0 0 84 132" fill="none" xmlns="http://www.w3.org/2000/svg">
<g clip-path="url(#clip0_301_12417)">
<path d="M20.08 4.87497V11.525C20.08 26.535 19.87 36.385 18.74 43.735C18.12 47.865 17.19 51.195 15.86 54.215C15.76 54.445 15.65 54.685 15.54 54.915C15.53 54.925 15.53 54.935 15.52 54.945C15.15 55.735 14.74 56.455 14.31 57.125L12.21 54.385C13.43 53.645 14.53 52.705 15.44 51.615C15.59 51.445 15.72 51.275 15.85 51.095C17.56 48.865 18.57 46.095 18.57 43.075V6.05497C19.07 5.63497 19.57 5.24497 20.08 4.87497Z" fill="#BC362F"/>
<path d="M39.5099 72.815C39.5099 73.345 39.0799 73.775 38.5499 73.775H21.1199C18.2099 73.775 15.8399 76.135 15.8399 79.055V131.955H0.899902L1.0599 80.645C1.0799 76.965 1.8499 73.315 3.4999 70.035C4.7499 67.555 5.9899 66.185 5.9799 66.395L6.0599 56.105C7.7599 55.825 10.7899 55.235 12.2199 54.365C13.4399 53.625 14.5399 52.685 15.4499 51.595C15.5999 51.425 15.7299 51.255 15.8599 51.075V54.195L15.8399 66.565C15.8399 69.475 18.1999 71.845 21.1199 71.845H38.5499C39.0799 71.845 39.5099 72.275 39.5099 72.815Z" fill="#C18A29"/>
<path d="M55.1598 2.06497C55.1598 2.16497 55.1598 2.25497 55.1498 2.34497C55.0898 5.62497 53.9398 8.62497 52.0398 11.025C49.7898 13.865 46.4898 15.835 42.7198 16.355V20.675C42.7198 21.525 42.0198 22.225 41.1598 22.225H40.2898C39.4398 22.225 38.7398 21.525 38.7398 20.675V16.345C34.5598 15.775 30.9598 13.425 28.7298 10.075C28.3798 9.54497 28.0598 8.99497 27.7698 8.42497C27.7698 8.42497 27.7698 8.42497 27.7698 8.41497C27.6598 8.17497 27.5398 7.93497 27.4398 7.68497C27.3498 7.46497 27.2598 7.24497 27.1798 7.02497C27.0998 6.80497 27.0298 6.57497 26.9498 6.35497C26.8798 6.12497 26.8098 5.90497 26.7598 5.67497C26.6998 5.44497 26.6498 5.20497 26.5998 4.97497C26.5498 4.75497 26.5098 4.53497 26.4798 4.31497C26.4698 4.28497 26.4698 4.24497 26.4598 4.20497C26.4298 3.98497 26.3998 3.76497 26.3798 3.54497C26.3598 3.30497 26.3398 3.05497 26.3198 2.81497C26.3098 2.56497 26.2998 2.32497 26.2998 2.07497V1.97497C26.2998 1.77497 26.3098 1.57497 26.3198 1.37497C27.6098 0.844973 28.9398 0.394973 30.3198 0.0349731C30.3398 0.224973 30.3498 0.404973 30.3698 0.594973C30.3698 0.614973 30.3598 0.634973 30.3598 0.654973C30.2498 1.29497 30.1998 2.00497 30.2898 2.74497C30.2898 8.51497 34.9698 14.185 40.7298 14.185C44.5398 14.185 48.1298 11.715 50.1298 8.37497C51.1598 6.65497 51.7698 4.70497 51.7698 2.74497C51.7698 2.17497 51.7598 1.60497 51.7098 1.05497C51.6998 0.954973 51.6898 0.864973 51.6798 0.764973C52.7698 0.914973 53.9398 1.16497 55.1398 1.50497V1.54497C55.1598 1.72497 55.1598 1.89497 55.1598 2.06497Z" fill="#F7F7F7"/>
<path d="M83.1899 131.955H14.8599L15.4499 99.585L15.4699 98.735L15.8399 79.055C15.8399 76.145 18.1999 73.775 21.1199 73.775H38.5499C39.0799 73.775 39.5099 73.335 39.5099 72.815C39.5099 72.285 39.0799 71.855 38.5499 71.855H21.1199C18.2099 71.855 15.8399 69.495 15.8399 66.575L15.5299 54.935L15.4499 51.605C15.5999 51.435 15.7299 51.265 15.8599 51.085C17.5699 48.855 18.5799 46.085 18.5799 43.065V6.05498C19.0699 5.63498 19.5699 5.24498 20.0799 4.87498C21.2099 4.04498 22.3999 3.29498 23.6499 2.63498C24.5099 2.17498 25.4099 1.76498 26.3199 1.38498C26.3099 1.58498 26.2999 1.78498 26.2999 1.98498V2.08498C26.2999 2.33498 26.3099 2.57498 26.3199 2.82498C26.3399 3.06498 26.3499 3.31498 26.3799 3.55498C26.3999 3.77498 26.4299 3.99498 26.4599 4.21498C26.4699 4.25498 26.4699 4.29498 26.4799 4.32498C26.5099 4.55498 26.5499 4.77498 26.5999 4.98498C26.6499 5.21498 26.7099 5.45498 26.7599 5.68498C26.8199 5.91498 26.8799 6.13498 26.9499 6.36498C27.0199 6.59498 27.0999 6.81498 27.1799 7.03498C27.2599 7.25498 27.3499 7.47498 27.4399 7.69498C27.5499 7.94498 27.6599 8.18498 27.7699 8.42498C27.7699 8.43498 27.7699 8.43498 27.7699 8.43498C28.0499 9.00498 28.3799 9.56498 28.7299 10.085C30.9599 13.425 34.5699 15.775 38.7399 16.355V20.675C38.7399 21.525 39.4399 22.225 40.2899 22.225H41.1599C42.0199 22.225 42.7199 21.525 42.7199 20.675V16.345C46.4799 15.825 49.7899 13.855 52.0399 11.015C53.9399 8.61498 55.0899 5.61498 55.1499 2.33498C55.1599 2.24498 55.1599 2.15498 55.1599 2.06498C55.1599 1.89498 55.1599 1.71498 55.1399 1.53498V1.51498C57.7099 2.22498 60.4499 3.32498 62.9399 4.69498V38.615C62.9399 44.355 72.1599 49.235 77.2799 51.065C77.3199 51.085 77.3499 51.085 77.3899 51.105L77.4999 63.295C77.4999 63.235 77.6899 63.355 77.9999 63.635C78.7999 64.335 80.3599 66.025 81.0699 67.905C81.6499 69.465 82.0699 70.915 82.3499 72.265C83.0499 75.605 83.0099 78.375 83.0099 80.945V81.225L83.1099 112.435L83.1899 131.955Z" fill="#F9B843"/>
<path d="M21.9001 107.275V131.955H19.8701V107.275C19.8701 106.705 20.3201 106.245 20.8801 106.245C21.4501 106.245 21.9001 106.705 21.9001 107.275Z" fill="#C18A29"/>
<path d="M28.53 107.275V131.955H26.5V107.275C26.5 106.705 26.95 106.245 27.51 106.245C28.08 106.245 28.53 106.705 28.53 107.275Z" fill="#C18A29"/>
<path d="M35.1599 107.275V131.955H33.1299V107.275C33.1299 106.705 33.5799 106.245 34.1399 106.245C34.6999 106.245 35.1599 106.705 35.1599 107.275Z" fill="#C18A29"/>
<path d="M41.78 107.275V131.955H39.75V107.275C39.75 106.705 40.2 106.245 40.76 106.245C41.33 106.245 41.78 106.705 41.78 107.275Z" fill="#C18A29"/>
<path d="M48.4099 107.275V131.955H46.3799V107.275C46.3799 106.705 46.8299 106.245 47.3899 106.245C47.9599 106.245 48.4099 106.705 48.4099 107.275Z" fill="#C18A29"/>
<path d="M55.0403 107.275V131.955H53.0103V107.275C53.0103 106.705 53.4603 106.245 54.0203 106.245C54.5903 106.245 55.0403 106.705 55.0403 107.275Z" fill="#C18A29"/>
<path d="M61.6701 107.275V131.955H59.6401V107.275C59.6401 106.705 60.0901 106.245 60.6501 106.245C61.2201 106.245 61.6701 106.705 61.6701 107.275Z" fill="#C18A29"/>
<path d="M68.3 107.275V131.955H66.27V107.275C66.27 106.705 66.72 106.245 67.28 106.245C67.84 106.245 68.3 106.705 68.3 107.275Z" fill="#C18A29"/>
<path d="M74.9199 107.275V131.955H72.8999V107.275C72.8999 106.705 73.3499 106.245 73.9099 106.245C74.4699 106.245 74.9199 106.705 74.9199 107.275Z" fill="#C18A29"/>
</g>
<defs>
<clipPath id="clip0_301_12417">
<rect width="82.29" height="131.91" fill="white" transform="translate(0.899902 0.0449829)"/>
</clipPath>
</defs>
</svg>
