<svg width="49" height="168" viewBox="0 0 49 168" fill="none" xmlns="http://www.w3.org/2000/svg">
<g clip-path="url(#clip0_301_2521)">
<path d="M48.0601 44.2701V167.79H0.370117V44.28C1.80012 43.75 3.09012 42.95 4.19012 41.94C6.54012 39.79 8.01012 36.7001 8.01012 33.2701V0.290047C8.72012 0.120047 9.45012 0.300047 10.2101 0.290047C9.86012 1.53005 9.67012 2.85005 9.67012 4.21005C9.67012 11.56 15.1201 17.62 22.2001 18.6V22.96C22.2001 23.82 22.9101 24.52 23.7601 24.52H24.6401C25.5101 24.52 26.2101 23.81 26.2101 22.96V18.6C33.3001 17.63 38.7601 11.56 38.7601 4.21005C38.7601 2.85005 38.5801 1.53005 38.2201 0.280047C38.9801 0.290047 39.7101 0.110047 40.4201 0.280047V33.26C40.4201 38.31 43.5901 42.6001 48.0601 44.2701Z" fill="#E9433B"/>
<path d="M38.7599 4.21003C38.7599 11.56 33.2999 17.62 26.2299 18.6V22.96C26.2299 23.82 25.5199 24.52 24.6599 24.52H23.7699C22.9099 24.52 22.2099 23.81 22.2099 22.96V18.6C15.1199 17.63 9.66992 11.56 9.66992 4.21003C9.66992 2.85003 9.84992 1.53003 10.2099 0.280029H14.5699C14.5699 0.280029 13.3999 2.46003 13.6899 4.89003C13.6899 10.71 18.3999 16.42 24.2199 16.42C30.0299 16.42 35.3399 10.7 35.3399 4.89003C35.3399 3.23003 35.2399 1.67003 34.5499 0.280029H38.2099C38.5799 1.53003 38.7599 2.85003 38.7599 4.21003Z" fill="#F7F7F7"/>
<path d="M10.1399 120.09V167.79H7.37988V120.09C7.37988 119.33 7.99988 118.71 8.75988 118.71C9.51988 118.71 10.1399 119.33 10.1399 120.09Z" fill="#BC362F"/>
<path d="M17.8601 120.09V167.79H15.1001V120.09C15.1001 119.33 15.7201 118.71 16.4801 118.71C17.2501 118.71 17.8601 119.33 17.8601 120.09Z" fill="#BC362F"/>
<path d="M25.5901 120.09V167.79H22.8301V120.09C22.8301 119.33 23.4501 118.71 24.2101 118.71C24.9701 118.71 25.5901 119.33 25.5901 120.09Z" fill="#BC362F"/>
<path d="M33.3201 120.09V167.79H30.5601V120.09C30.5601 119.33 31.1801 118.71 31.9401 118.71C32.7001 118.71 33.3201 119.33 33.3201 120.09Z" fill="#BC362F"/>
<path d="M41.0403 120.09V167.79H38.2803V120.09C38.2803 119.33 38.9003 118.71 39.6603 118.71C40.4303 118.71 41.0403 119.33 41.0403 120.09Z" fill="#BC362F"/>
<path d="M4.19012 41.9401V167.79H0.370117V44.2801C1.80012 43.7501 3.09012 42.9501 4.19012 41.9401Z" fill="#BC362F"/>
</g>
<defs>
<clipPath id="clip0_301_2521">
<rect width="47.69" height="167.58" fill="white" transform="translate(0.370117 0.210022)"/>
</clipPath>
</defs>
</svg>
