<svg width="94" height="162" viewBox="0 0 94 162" fill="none" xmlns="http://www.w3.org/2000/svg">
<g clip-path="url(#clip0_301_9377)">
<path d="M22.46 5.965V14.175C22.46 32.715 22.2 44.885 20.81 53.955C20.04 59.055 18.9 63.175 17.25 66.895C17.13 67.185 16.99 67.475 16.86 67.755C16.85 67.765 16.85 67.785 16.84 67.795C16.38 68.765 15.88 69.665 15.34 70.485L12.75 67.105C14.26 66.185 15.61 65.025 16.74 63.685C16.92 63.475 17.09 63.265 17.25 63.045C19.36 60.295 20.61 56.865 20.61 53.135V7.425C21.21 6.905 21.83 6.425 22.46 5.965Z" fill="#BC362F"/>
<path d="M46.46 89.885C46.46 90.535 45.93 91.075 45.27 91.075H23.74C20.14 91.075 17.22 93.995 17.22 97.595V161.995H0.540039L0.740039 99.555C0.760039 95.015 1.72004 90.505 3.76004 86.455C5.31004 83.395 6.83004 81.695 6.82004 81.965L6.92004 69.255C9.02004 68.915 10.99 68.175 12.75 67.105C14.26 66.185 15.61 65.025 16.74 63.685C16.92 63.475 17.09 63.265 17.25 63.045V66.895L17.22 82.175C17.22 85.775 20.14 88.695 23.74 88.695H45.27C45.93 88.695 46.46 89.225 46.46 89.885Z" fill="#BC362F"/>
<path d="M65.7899 2.505V2.515C65.7899 2.625 65.7899 2.735 65.7799 2.845C65.7099 6.89501 64.2899 10.605 61.9399 13.565C59.1599 17.075 55.0799 19.505 50.4299 20.145V25.485C50.4299 26.535 49.5599 27.395 48.4999 27.395H47.4199C46.3699 27.395 45.5099 26.535 45.5099 25.485V20.145C40.3499 19.435 35.8999 16.535 33.1399 12.405C32.7099 11.755 32.3099 11.075 31.9599 10.365C31.9599 10.365 31.9599 10.365 31.9599 10.355C31.8199 10.055 31.6799 9.76501 31.5499 9.455C31.4399 9.185 31.3299 8.91501 31.2299 8.64501C31.1299 8.375 31.0399 8.09501 30.9499 7.815C30.8599 7.535 30.7799 7.255 30.7099 6.975C30.6399 6.685 30.5699 6.395 30.5099 6.105C30.4499 5.835 30.3999 5.56501 30.3599 5.28501C30.3499 5.24501 30.3499 5.195 30.3399 5.145C30.2999 4.875 30.2699 4.605 30.2399 4.335C30.2099 4.035 30.1899 3.735 30.1699 3.435C30.1599 3.12501 30.1499 2.825 30.1499 2.515V2.395C30.1499 2.145 30.1599 1.905 30.1699 1.655C31.7599 1.005 33.4099 0.445005 35.1099 0.00500488C35.1299 0.235005 35.1499 0.465005 35.1699 0.695005C35.1699 0.725005 35.1599 0.745005 35.1599 0.775005C35.0299 1.565 34.9599 2.445 35.0699 3.355C35.0699 10.485 40.8499 17.485 47.9699 17.485C52.6699 17.485 57.1099 14.435 59.5799 10.305C60.8499 8.18501 61.5999 5.775 61.5999 3.355C61.5999 2.645 61.5899 1.945 61.5299 1.265C61.5199 1.145 61.5099 1.025 61.4899 0.905005C62.8399 1.095 64.2799 1.405 65.7699 1.815V1.855C65.7899 2.075 65.7899 2.295 65.7899 2.505Z" fill="#F7F7F7"/>
<path d="M93.5303 161.995H16.0103L16.7403 122.955L16.7603 121.905L17.2203 97.595C17.2203 93.995 20.1403 91.075 23.7403 91.075H45.2703C45.9303 91.075 46.4603 90.535 46.4603 89.885C46.4603 89.225 45.9303 88.695 45.2703 88.695H23.7403C20.1403 88.695 17.2203 85.775 17.2203 82.175L16.8403 67.795L16.7403 63.685C16.9203 63.475 17.0903 63.265 17.2503 63.045C19.3603 60.295 20.6103 56.865 20.6103 53.135V7.425C21.2103 6.905 21.8303 6.425 22.4603 5.965C23.8503 4.945 25.3203 4.025 26.8703 3.205C27.9303 2.635 29.0403 2.125 30.1703 1.655C30.1603 1.905 30.1503 2.145 30.1503 2.395V2.515C30.1503 2.825 30.1603 3.125 30.1703 3.435C30.1903 3.735 30.2103 4.035 30.2403 4.335C30.2703 4.605 30.3003 4.875 30.3403 5.145C30.3503 5.195 30.3503 5.245 30.3603 5.285C30.4003 5.565 30.4503 5.835 30.5103 6.105C30.5703 6.395 30.6403 6.685 30.7103 6.975C30.7803 7.255 30.8603 7.535 30.9503 7.815C31.0403 8.095 31.1303 8.375 31.2303 8.645C31.3303 8.915 31.4403 9.185 31.5503 9.455C31.6803 9.765 31.8203 10.055 31.9603 10.355C31.9603 10.365 31.9603 10.365 31.9603 10.365C32.3103 11.075 32.7103 11.755 33.1403 12.405C35.9003 16.535 40.3503 19.435 45.5103 20.145V25.485C45.5103 26.535 46.3703 27.395 47.4203 27.395H48.5003C49.5603 27.395 50.4303 26.535 50.4303 25.485V20.145C55.0803 19.505 59.1603 17.075 61.9403 13.565C64.2903 10.605 65.7103 6.895 65.7803 2.845C65.7902 2.735 65.7903 2.625 65.7903 2.515V2.505C65.7903 2.295 65.7903 2.075 65.7703 1.855V1.815C68.9403 2.695 72.3303 4.045 75.4103 5.745V47.645C75.4103 54.735 79.9202 60.765 86.2402 63.025C86.2903 63.045 86.3302 63.055 86.3802 63.075L86.5203 78.135C86.5203 78.065 86.7603 78.215 87.1403 78.555C88.1302 79.425 90.0602 81.505 90.9303 83.835C91.6503 85.765 92.1603 87.555 92.5103 89.225C93.3803 93.355 93.3203 96.775 93.3303 99.945V100.285L93.4503 138.835L93.5303 161.995Z" fill="#E9433B"/>
<path d="M24.71 132.455V161.995H22.21V132.455C22.21 131.755 22.77 131.185 23.46 131.185C24.15 131.185 24.71 131.755 24.71 132.455Z" fill="#BC362F"/>
<path d="M32.8901 132.455V161.995H30.3901V132.455C30.3901 131.755 30.9501 131.185 31.6401 131.185C32.3301 131.185 32.8901 131.755 32.8901 132.455Z" fill="#BC362F"/>
<path d="M41.0801 132.455V161.995H38.5801V132.455C38.5801 131.755 39.1401 131.185 39.8301 131.185C40.5201 131.185 41.0801 131.755 41.0801 132.455Z" fill="#BC362F"/>
<path d="M49.27 132.455V161.995H46.77V132.455C46.77 131.755 47.33 131.185 48.02 131.185C48.71 131.185 49.27 131.755 49.27 132.455Z" fill="#BC362F"/>
<path d="M57.4502 132.455V161.995H54.9502V132.455C54.9502 131.755 55.5102 131.185 56.2002 131.185C56.8902 131.185 57.4502 131.755 57.4502 132.455Z" fill="#BC362F"/>
<path d="M65.6401 132.455V161.995H63.1401V132.455C63.1401 131.755 63.7001 131.185 64.3901 131.185C65.0801 131.185 65.6401 131.755 65.6401 132.455Z" fill="#BC362F"/>
<path d="M73.8301 132.455V161.995H71.3301V132.455C71.3301 131.755 71.8901 131.185 72.5801 131.185C73.2701 131.185 73.8301 131.755 73.8301 132.455Z" fill="#BC362F"/>
<path d="M82.02 132.455V161.995H79.52V132.455C79.52 131.755 80.08 131.185 80.77 131.185C81.46 131.185 82.02 131.755 82.02 132.455Z" fill="#BC362F"/>
<path d="M90.2002 132.455V161.995H87.7002V132.455C87.7002 131.755 88.2602 131.185 88.9502 131.185C89.6402 131.185 90.2002 131.755 90.2002 132.455Z" fill="#BC362F"/>
</g>
<defs>
<clipPath id="clip0_301_9377">
<rect width="92.99" height="161.99" fill="white" transform="translate(0.540039 0.00500488)"/>
</clipPath>
</defs>
</svg>
