<svg width="49" height="200" viewBox="0 0 49 200" fill="none" xmlns="http://www.w3.org/2000/svg">
<g clip-path="url(#clip0_301_2511)">
<path d="M48.3702 45.025V199.035H0.680176V45.035C2.11018 44.505 3.40018 43.705 4.50018 42.695C6.85018 40.545 8.32018 37.455 8.32018 34.025V1.04499C9.03018 0.874991 9.76018 1.05499 10.5202 1.04499C10.1702 2.28499 9.98018 3.60499 9.98018 4.96499C9.98018 12.315 15.4302 18.375 22.5102 19.355V23.715C22.5102 24.575 23.2202 25.275 24.0702 25.275H24.9502C25.8202 25.275 26.5202 24.565 26.5202 23.715V19.355C33.6102 18.385 39.0702 12.315 39.0702 4.96499C39.0702 3.60499 38.8902 2.28499 38.5302 1.03499C39.2902 1.04499 40.0202 0.864991 40.7302 1.03499V34.015C40.7302 39.065 43.9002 43.355 48.3702 45.025Z" fill="#F9B843"/>
<path d="M39.07 4.96497C39.07 12.315 33.61 18.375 26.54 19.355V23.715C26.54 24.575 25.83 25.275 24.97 25.275H24.08C23.22 25.275 22.52 24.565 22.52 23.715V19.355C15.43 18.385 9.97998 12.315 9.97998 4.96497C9.97998 3.60497 10.16 2.28497 10.52 1.03497H14.88C14.88 1.03497 13.71 3.21497 14 5.64497C14 11.465 18.71 17.175 24.53 17.175C30.34 17.175 35.65 11.455 35.65 5.64497C35.65 3.98497 35.55 2.42497 34.86 1.03497H38.52C38.89 2.28497 39.07 3.60497 39.07 4.96497Z" fill="#F7F7F7"/>
<path d="M10.4499 151.335V199.035H7.68994V151.335C7.68994 150.575 8.30994 149.955 9.06994 149.955C9.82994 149.955 10.4499 150.575 10.4499 151.335Z" fill="#C18A29"/>
<path d="M18.1702 151.335V199.035H15.4102V151.335C15.4102 150.575 16.0302 149.955 16.7902 149.955C17.5602 149.955 18.1702 150.575 18.1702 151.335Z" fill="#C18A29"/>
<path d="M25.9001 151.335V199.035H23.1401V151.335C23.1401 150.575 23.7601 149.955 24.5201 149.955C25.2801 149.955 25.9001 150.575 25.9001 151.335Z" fill="#C18A29"/>
<path d="M33.6301 151.335V199.035H30.8701V151.335C30.8701 150.575 31.4901 149.955 32.2501 149.955C33.0101 149.955 33.6301 150.575 33.6301 151.335Z" fill="#C18A29"/>
<path d="M41.3503 151.335V199.035H38.5903V151.335C38.5903 150.575 39.2103 149.955 39.9703 149.955C40.7403 149.955 41.3503 150.575 41.3503 151.335Z" fill="#C18A29"/>
<path d="M4.50018 42.695V199.035H0.680176V45.035C2.11018 44.505 3.40018 43.705 4.50018 42.695Z" fill="#C18A29"/>
</g>
<defs>
<clipPath id="clip0_301_2511">
<rect width="47.69" height="198.07" fill="white" transform="translate(0.680176 0.964966)"/>
</clipPath>
</defs>
</svg>
