<svg width="51" height="120" viewBox="0 0 51 120" fill="none" xmlns="http://www.w3.org/2000/svg">
<g clip-path="url(#clip0_301_6489)">
<path d="M50.0501 43.9V119.95H0.370117V43.91C1.80012 43.38 3.09012 42.59 4.19012 41.57C6.54012 39.43 10.0201 36.33 10.0201 32.9V2.23998C10.6301 1.89998 11.2501 1.59998 11.9001 1.31998C11.7501 2.13998 11.6701 2.98998 11.6701 3.84998C11.6701 11.2 17.1201 17.26 24.2101 18.23V22.59C24.2101 23.45 24.9101 24.15 25.7701 24.15H26.6501C27.5201 24.15 28.2201 23.45 28.2201 22.59V18.23C35.3001 17.26 40.7601 11.2 40.7601 3.84998C40.7601 3.43998 40.7401 3.02998 40.7101 2.62998C41.3101 2.98998 41.8801 3.38998 42.4201 3.80998V32.9C42.4201 37.89 45.5201 42.15 49.9101 43.84C49.9501 43.86 50.0001 43.88 50.0501 43.9Z" fill="#E9433B"/>
<path d="M40.7599 3.84999C40.7599 11.2 35.2999 17.26 28.2199 18.23V22.59C28.2199 23.45 27.5199 24.15 26.6499 24.15H25.7699C24.9099 24.15 24.2099 23.45 24.2099 22.59V18.23C17.1199 17.26 11.6699 11.2 11.6699 3.84999C11.6699 2.98999 11.7499 2.13999 11.8999 1.31999C13.3499 0.719988 14.8899 0.279988 16.4999 0.0499878C16.2699 0.539988 15.4399 2.44999 15.6899 4.52999C15.6899 10.35 20.3999 16.06 26.2199 16.06C32.0299 16.06 37.3399 10.35 37.3399 4.52999C37.3399 3.24999 37.2799 2.00999 36.9299 0.869988C38.2599 1.31999 39.5299 1.90999 40.7099 2.62999C40.7399 3.02999 40.7599 3.43999 40.7599 3.84999Z" fill="#F7F7F7"/>
<path d="M12.1399 72.24V119.94H9.37988V72.24C9.37988 71.48 9.99988 70.86 10.7599 70.86C11.5199 70.86 12.1399 71.48 12.1399 72.24Z" fill="#BC362F"/>
<path d="M19.8601 72.24V119.94H17.1001V72.24C17.1001 71.48 17.7201 70.86 18.4801 70.86C19.2501 70.86 19.8601 71.48 19.8601 72.24Z" fill="#BC362F"/>
<path d="M27.5901 72.24V119.94H24.8301V72.24C24.8301 71.48 25.4501 70.86 26.2101 70.86C26.9701 70.86 27.5901 71.48 27.5901 72.24Z" fill="#BC362F"/>
<path d="M35.3201 72.24V119.94H32.5601V72.24C32.5601 71.48 33.1801 70.86 33.9401 70.86C34.7001 70.86 35.3201 71.48 35.3201 72.24Z" fill="#BC362F"/>
<path d="M43.0403 72.24V119.94H40.2803V72.24C40.2803 71.48 40.9003 70.86 41.6603 70.86C42.4303 70.86 43.0403 71.48 43.0403 72.24Z" fill="#BC362F"/>
<path d="M4.19012 41.57V119.94H0.370117V43.92C1.80012 43.38 3.09012 42.59 4.19012 41.57Z" fill="#BC362F"/>
</g>
<defs>
<clipPath id="clip0_301_6489">
<rect width="49.68" height="119.9" fill="white" transform="translate(0.370117 0.0499878)"/>
</clipPath>
</defs>
</svg>
