<svg width="126" height="144" viewBox="0 0 126 144" fill="none" xmlns="http://www.w3.org/2000/svg">
<g clip-path="url(#clip0_301_15461)">
<path d="M122.46 109.1H107.88C107.88 109.1 99.6201 56.1 94.5701 45.25L93.8901 67.24L95.8601 94.83L96.5001 103.7L97.8501 131.53H61.6101L59.3101 50.4L63.4301 17.48L79.1501 1.91C79.1501 1.91 85.5901 2.36 93.6601 7.16C98.9801 10.32 105.27 16.97 109.88 30.63C109.88 30.63 121.14 59.92 122.46 109.1Z" fill="#20697B"/>
<path d="M44.2903 7.94C44.2903 7.94 37.4103 11.6 37.4103 21.11L37.3203 46.94C37.3003 52.46 35.9103 62.28 26.8203 61.9C17.0903 61.49 17.2303 52.44 17.0203 48.4C16.9503 47.12 16.9903 43.36 16.9903 43.36H2.09026C2.09026 43.36 -0.0497398 72.78 21.1303 77.1C32.7603 79.47 43.8903 72.21 44.9203 71.36L44.2903 7.94Z" fill="#20697B"/>
<path d="M65.2904 18.85V55.14L64.2004 131.53H40.8804L41.5804 105.13L41.8104 96.55L44.3704 67.24L42.9004 8.91C42.9004 8.91 45.1704 7.04 48.5804 5.22C52.6304 3.07 56.0004 1.91 59.2404 1.91L65.2904 18.85Z" fill="#144D56"/>
<path d="M16.9201 45.44H1.86014C0.920137 45.44 0.140137 44.66 0.140137 43.71V36.49C0.140137 35.54 0.920137 34.77 1.86014 34.77H16.9101C17.8601 34.77 18.6301 35.55 18.6301 36.49V43.71C18.6401 44.66 17.8601 45.44 16.9201 45.44Z" fill="#5DA7AF"/>
<path d="M58.9601 88.72L41.5801 105.13L41.8101 96.55L54.8001 84.58C55.1701 84.2 55.7901 84.2 56.1401 84.58L58.9601 87.39C59.3301 87.75 59.3301 88.36 58.9601 88.72Z" fill="#5DA7AF"/>
<path d="M69.9703 52.57C71.1687 52.57 72.1403 51.5985 72.1403 50.4C72.1403 49.2016 71.1687 48.23 69.9703 48.23C68.7718 48.23 67.8003 49.2016 67.8003 50.4C67.8003 51.5985 68.7718 52.57 69.9703 52.57Z" fill="#24305B"/>
<path d="M69.9703 65.46C71.1687 65.46 72.1403 64.4885 72.1403 63.29C72.1403 62.0915 71.1687 61.12 69.9703 61.12C68.7718 61.12 67.8003 62.0915 67.8003 63.29C67.8003 64.4885 68.7718 65.46 69.9703 65.46Z" fill="#24305B"/>
<path d="M69.9703 39.75C71.1687 39.75 72.1403 38.7785 72.1403 37.58C72.1403 36.3815 71.1687 35.41 69.9703 35.41C68.7718 35.41 67.8003 36.3815 67.8003 37.58C67.8003 38.7785 68.7718 39.75 69.9703 39.75Z" fill="#24305B"/>
<path d="M96.5002 103.7L81.0002 88.72C80.6302 88.36 80.6302 87.75 81.0002 87.39L83.8202 84.58C84.1802 84.2 84.7902 84.2 85.1602 84.58L95.8602 94.83L96.5002 103.7Z" fill="#144D56"/>
<path d="M123.78 118.56H105.68C104.73 118.56 103.96 117.78 103.96 116.84V109.62C103.96 108.67 104.74 107.9 105.68 107.9H123.78C124.73 107.9 125.5 108.68 125.5 109.62V116.84C125.5 117.79 124.72 118.56 123.78 118.56Z" fill="#5DA7AF"/>
<path d="M63.5602 20.98C62.6602 19.95 62.0602 18.98 62.8002 17.83C67.9602 9.79001 76.8302 0.490013 76.8302 0.490013C77.7002 -0.729987 84.2002 2.10001 83.8302 5.07001L83.7402 15.24C83.7102 16.25 83.1902 17.19 82.3402 17.73C79.5602 19.52 70.9702 21.17 64.8802 21.6C64.3402 21.64 63.9102 21.37 63.5602 20.98Z" fill="#144D56"/>
<path d="M59.7402 0.810009C61.0302 4.27001 65.0002 11.3 66.9202 19.08C67.1202 19.88 64.7402 20.89 63.7102 20.68L54.1502 18.89C53.2802 18.72 52.6602 18.19 52.5302 17.51L52.4202 7.61001C52.0202 5.50001 53.1502 3.25001 55.4002 1.72001L57.3102 0.420009C58.1802 -0.169991 59.4502 0.0400086 59.7402 0.810009Z" fill="#5DA7AF"/>
<path d="M55.2202 143.92H101.75V126.29C101.75 121.33 97.7302 117.3 92.7602 117.3H64.2002V143.91L55.2202 143.92Z" fill="#20697B"/>
<path d="M55.2202 143.92H64.2102V117.31C59.2502 117.31 55.2202 121.33 55.2202 126.3V143.92Z" fill="#144D56"/>
</g>
<defs>
<clipPath id="clip0_301_15461">
<rect width="125.36" height="143.84" fill="white" transform="translate(0.140137 0.0800171)"/>
</clipPath>
</defs>
</svg>
