<svg width="82" height="176" viewBox="0 0 82 176" fill="none" xmlns="http://www.w3.org/2000/svg">
<g clip-path="url(#clip0_301_2481)">
<path d="M81.6598 62.165H67.3598C67.3598 62.165 62.6898 46.845 59.3598 40.265V175.535H10.6798V61.035L2.33984 53.135C2.33984 53.135 5.73984 51.605 5.73984 34.925C5.73984 18.245 5.73984 12.795 5.73984 12.795C5.73984 12.795 6.32984 5.11498 14.2898 2.27498C16.0998 1.62498 20.0598 0.474976 22.4498 0.474976C22.4498 0.474976 29.2298 12.455 35.0198 15.355C35.0198 15.355 45.4398 8.81498 47.8298 0.474976C47.8298 0.474976 57.8298 0.794975 62.7598 10.375C67.6998 19.945 76.8898 39.355 81.6598 62.165Z" fill="#92AED6"/>
<path d="M43.8803 22.845C43.5903 20.555 38.8203 18.245 36.6903 17.325C36.3503 17.175 35.9903 17.105 35.6203 17.105C35.2403 17.105 34.8703 17.185 34.5303 17.335C32.4803 18.265 27.9603 20.555 27.6703 22.835C27.4803 24.285 28.0603 25.495 29.2203 26.075C29.7003 26.315 30.2303 26.435 30.7803 26.435C31.7703 26.435 32.8303 26.045 33.7803 25.335C33.5303 26.505 33.3803 27.815 33.4603 29.155L34.4603 29.095C34.3003 26.455 35.1403 23.915 35.7403 22.465C36.2103 24.515 36.9403 28.875 36.5303 34.835L37.5303 34.905C37.8203 30.685 37.5603 27.285 37.2103 24.875C38.2803 25.885 39.5803 26.425 40.7803 26.425C41.3303 26.425 41.8703 26.305 42.3403 26.065C43.4903 25.505 44.0703 24.295 43.8803 22.845ZM29.6803 25.195C28.8903 24.795 28.5403 24.005 28.6703 22.965C28.8503 21.585 31.9303 19.625 34.9103 18.265C35.0403 19.605 35.1603 22.745 33.7003 24.135C32.2303 25.535 30.6203 25.675 29.6803 25.195ZM41.8803 25.195C40.9303 25.675 39.3203 25.535 37.8603 24.135C36.4003 22.745 36.3303 19.645 36.3803 18.275C39.5003 19.625 42.7203 21.595 42.8903 22.965C43.0303 24.015 42.6703 24.805 41.8803 25.195Z" fill="#39485B"/>
<path d="M43.4301 85.295H22.6101C19.1301 85.295 16.3001 82.475 16.3001 78.985L14.2901 2.27496C6.33008 5.11496 3.73008 12.795 3.73008 12.795C3.73008 12.795 3.73008 18.245 3.73008 34.925C3.73008 51.605 0.330078 53.135 0.330078 53.135L10.6801 61.035V175.525H16.3001V93.895C16.3001 90.415 19.1201 87.585 22.6101 87.585H43.4301C44.0601 87.585 44.5801 87.075 44.5801 86.435C44.5701 85.805 44.0601 85.295 43.4301 85.295Z" fill="#39485B"/>
<path d="M22.9299 145.995V175.535H20.3799V145.995C20.3799 145.295 20.9499 144.725 21.6499 144.725C22.3599 144.715 22.9299 145.285 22.9299 145.995Z" fill="#39485B"/>
<path d="M30.0803 145.995V175.535H27.5303V145.995C27.5303 145.295 28.1003 144.725 28.8003 144.725C29.5103 144.715 30.0803 145.285 30.0803 145.995Z" fill="#39485B"/>
<path d="M37.2302 145.995V175.535H34.6802V145.995C34.6802 145.295 35.2502 144.725 35.9502 144.725C36.6602 144.715 37.2302 145.285 37.2302 145.995Z" fill="#39485B"/>
<path d="M44.3801 145.995V175.535H41.8301V145.995C41.8301 145.295 42.4001 144.725 43.1001 144.725C43.8101 144.715 44.3801 145.285 44.3801 145.995Z" fill="#39485B"/>
<path d="M51.53 145.995V175.535H48.98V145.995C48.98 145.295 49.55 144.725 50.25 144.725C50.96 144.715 51.53 145.285 51.53 145.995Z" fill="#39485B"/>
</g>
<defs>
<clipPath id="clip0_301_2481">
<rect width="81.33" height="175.05" fill="white" transform="translate(0.330078 0.474976)"/>
</clipPath>
</defs>
</svg>
