<svg width="82" height="158" viewBox="0 0 82 158" fill="none" xmlns="http://www.w3.org/2000/svg">
<g clip-path="url(#clip0_301_2491)">
<path d="M81.9899 62.645H67.6899C67.6899 62.645 63.0199 47.325 59.6899 40.745V157.055H11.0099V61.515L2.66992 53.615C2.66992 53.615 6.06992 52.085 6.06992 35.405C6.06992 18.725 6.06992 13.275 6.06992 13.275C6.06992 13.275 6.65992 5.59502 14.6199 2.75502C16.4299 2.10502 20.3899 0.955017 22.7799 0.955017C22.7799 0.955017 29.5599 12.935 35.3499 15.835C35.3499 15.835 45.7699 9.29502 48.1599 0.955017C48.1599 0.955017 58.1599 1.27502 63.0899 10.855C68.0299 20.425 77.2199 39.835 81.9899 62.645Z" fill="#19ACEC"/>
<path d="M44.2104 23.325C43.9204 21.035 39.1504 18.725 37.0204 17.805C36.6804 17.655 36.3204 17.585 35.9504 17.585C35.5704 17.585 35.2004 17.665 34.8604 17.815C32.8104 18.745 28.2904 21.035 28.0004 23.315C27.8104 24.765 28.3904 25.975 29.5504 26.555C30.0304 26.795 30.5604 26.915 31.1104 26.915C32.1004 26.915 33.1604 26.525 34.1104 25.815C33.8604 26.985 33.7104 28.295 33.7904 29.635L34.7904 29.575C34.6304 26.935 35.4704 24.395 36.0704 22.945C36.5404 24.995 37.2704 29.355 36.8604 35.315L37.8604 35.385C38.1504 31.165 37.8904 27.765 37.5404 25.355C38.6104 26.365 39.9104 26.905 41.1104 26.905C41.6604 26.905 42.2004 26.785 42.6704 26.545C43.8204 25.985 44.4004 24.775 44.2104 23.325ZM30.0104 25.675C29.2204 25.275 28.8704 24.485 29.0004 23.445C29.1804 22.065 32.2604 20.105 35.2404 18.745C35.3704 20.085 35.4904 23.225 34.0304 24.615C32.5604 26.015 30.9504 26.155 30.0104 25.675ZM42.2104 25.675C41.2604 26.155 39.6504 26.015 38.1904 24.615C36.7304 23.225 36.6604 20.125 36.7104 18.755C39.8304 20.105 43.0504 22.075 43.2204 23.445C43.3604 24.495 43.0004 25.285 42.2104 25.675Z" fill="#0E6F89"/>
<path d="M43.7602 85.775H22.9402C19.4602 85.775 16.6302 82.955 16.6302 79.465L14.6202 2.755C6.66016 5.595 4.06016 13.275 4.06016 13.275C4.06016 13.275 4.06016 18.725 4.06016 35.405C4.06016 52.085 0.660156 53.615 0.660156 53.615L11.0102 61.515V157.045H16.6302V94.375C16.6302 90.895 19.4502 88.065 22.9402 88.065H43.7602C44.3902 88.065 44.9102 87.555 44.9102 86.915C44.9002 86.285 44.3902 85.775 43.7602 85.775Z" fill="#0E6F89"/>
<path d="M23.26 127.515V157.055H20.71V127.515C20.71 126.815 21.28 126.245 21.98 126.245C22.69 126.235 23.26 126.805 23.26 127.515Z" fill="#0E6F89"/>
<path d="M30.4104 127.515V157.055H27.8604V127.515C27.8604 126.815 28.4304 126.245 29.1304 126.245C29.8404 126.235 30.4104 126.805 30.4104 127.515Z" fill="#0E6F89"/>
<path d="M37.5603 127.515V157.055H35.0103V127.515C35.0103 126.815 35.5803 126.245 36.2803 126.245C36.9903 126.235 37.5603 126.805 37.5603 127.515Z" fill="#0E6F89"/>
<path d="M44.7102 127.515V157.055H42.1602V127.515C42.1602 126.815 42.7302 126.245 43.4302 126.245C44.1402 126.235 44.7102 126.805 44.7102 127.515Z" fill="#0E6F89"/>
<path d="M51.8601 127.515V157.055H49.3101V127.515C49.3101 126.815 49.8801 126.245 50.5801 126.245C51.2901 126.235 51.8601 126.805 51.8601 127.515Z" fill="#0E6F89"/>
</g>
<defs>
<clipPath id="clip0_301_2491">
<rect width="81.33" height="156.09" fill="white" transform="translate(0.660156 0.955017)"/>
</clipPath>
</defs>
</svg>
