<svg width="126" height="162" viewBox="0 0 126 162" fill="none" xmlns="http://www.w3.org/2000/svg">
<g clip-path="url(#clip0_301_2531)">
<path d="M123.7 120.01H105.6C104.65 120.01 103.88 119.23 103.88 118.29V111.07C103.88 110.12 104.66 109.35 105.6 109.35H123.7C124.65 109.35 125.42 110.13 125.42 111.07V118.29C125.42 119.24 124.64 120.01 123.7 120.01Z" fill="#5DA7AF"/>
<path d="M109.54 31.2199C104.94 17.5599 98.6503 10.9099 93.3303 7.74995C85.2603 2.95995 78.8203 2.50995 78.8203 2.50995L65.1303 19.4599L62.5903 45.09L65.1803 161.4C65.1803 161.4 80.0303 163.88 99.0303 157.76C99.0303 157.76 95.0403 107.14 93.6203 71.6799L95.3503 49.2599C100.39 60.1099 107.53 109.7 107.53 109.7H122.11C120.81 60.5099 109.54 31.2199 109.54 31.2199Z" fill="#20697B"/>
<path d="M43.9602 8.53995C43.9602 8.53995 37.0802 12.1999 37.0802 21.7099L36.9902 47.5399C36.9702 53.0599 35.5802 62.88 26.4902 62.5C16.7602 62.09 16.9002 53.04 16.6902 49C16.6202 47.72 16.6602 43.9599 16.6602 43.9599H1.76018C1.76018 43.9599 -0.379818 73.3799 20.8002 77.6999C32.4302 80.0699 42.8402 73.6299 43.8702 72.7699L43.9602 8.53995Z" fill="#20697B"/>
<path d="M65.1303 19.4599L62.8303 14.5899L60.3603 2.50995C57.1203 2.50995 52.2903 3.66995 48.2503 5.81995C44.8303 7.62995 42.5703 9.50995 42.5703 9.50995L44.0603 73.8399L36.8003 152.99C45.9603 163.12 65.2003 161.4 65.2003 161.4L62.6003 45.09L65.1303 19.4599Z" fill="#144D56"/>
<path d="M16.8401 46.88H1.78006C0.840059 46.88 0.0600586 46.11 0.0600586 45.16V37.94C0.0600586 36.99 0.840059 36.22 1.78006 36.22H16.8301C17.7801 36.22 18.5501 37 18.5501 37.94V45.16C18.5601 46.11 17.7801 46.88 16.8401 46.88Z" fill="#5DA7AF"/>
<path d="M58.56 89.26L40.73 105.67L41.74 96.79L54.4 85.12C54.78 84.74 55.39 84.74 55.75 85.12L58.56 87.93C58.93 88.28 58.93 88.9 58.56 89.26Z" fill="#5DA7AF"/>
<path d="M66.0601 54.89C67.2586 54.89 68.2301 53.9184 68.2301 52.72C68.2301 51.5215 67.2586 50.55 66.0601 50.55C64.8617 50.55 63.8901 51.5215 63.8901 52.72C63.8901 53.9184 64.8617 54.89 66.0601 54.89Z" fill="#24305B"/>
<path d="M66.0601 73.8499C67.2586 73.8499 68.2301 72.8784 68.2301 71.6799C68.2301 70.4815 67.2586 69.5099 66.0601 69.5099C64.8617 69.5099 63.8901 70.4815 63.8901 71.6799C63.8901 72.8784 64.8617 73.8499 66.0601 73.8499Z" fill="#24305B"/>
<path d="M66.0601 39.03C67.2586 39.03 68.2301 38.0584 68.2301 36.86C68.2301 35.6615 67.2586 34.69 66.0601 34.69C64.8617 34.69 63.8901 35.6615 63.8901 36.86C63.8901 38.0584 64.8617 39.03 66.0601 39.03Z" fill="#24305B"/>
<path d="M60.3901 1.57996C61.2801 4.71996 64.2801 11.22 65.4201 18.22C65.5401 18.94 63.3601 19.66 62.4701 19.4L54.1601 17.14C53.4101 16.93 52.9001 16.41 52.8301 15.8L53.4401 7.04996C53.2301 5.14996 54.4001 3.24996 56.5001 2.05996L58.2801 1.04996C59.0801 0.599962 60.1901 0.869962 60.3901 1.57996Z" fill="#5DA7AF"/>
<path d="M65.7102 20.65C64.7802 19.8 64.1302 18.97 64.6902 17.83C68.5902 9.92996 72.4402 7.15996 75.6202 0.779959L75.7802 0.459959C76.4602 -0.750041 82.7102 1.17996 82.6802 3.93996L83.6502 13.3C83.7302 14.23 83.3502 15.14 82.6202 15.74C80.2502 17.67 72.5402 20.07 66.9902 21.09C66.4902 21.18 66.0602 20.98 65.7102 20.65Z" fill="#144D56"/>
<path d="M95.05 97.1799V105.47L78.2 89.1799C77.82 88.8199 77.82 88.2099 78.2 87.8499L81.01 85.0399C81.37 84.6599 81.98 84.6599 82.36 85.0399L95.05 97.1799Z" fill="#144D56"/>
</g>
<defs>
<clipPath id="clip0_301_2531">
<rect width="125.36" height="161.8" fill="white" transform="translate(0.0600586 0.0999756)"/>
</clipPath>
</defs>
</svg>
