<svg width="74" height="120" viewBox="0 0 74 120" fill="none" xmlns="http://www.w3.org/2000/svg">
<g clip-path="url(#clip0_301_6421)">
<path d="M73.4195 54.24H60.8896C60.8896 54.24 60.6996 50.62 59.2796 45.51V119.81H9.34955V53.25L2.03955 46.33C2.03955 46.33 5.01955 44.99 5.01955 30.38C5.01955 15.77 5.53955 4.26 12.5096 1.77C14.0996 1.2 20.3896 0.190002 22.4796 0.190002C22.4796 0.190002 28.4195 10.69 33.4895 13.23C33.4895 13.23 42.6196 7.5 44.7196 0.190002C44.7196 0.190002 57.9396 0.470003 62.2596 8.87C66.5896 17.25 69.2395 34.26 73.4195 54.24Z" fill="#19ACEC"/>
<path d="M41.1196 19.29C40.8596 17.28 36.6796 15.26 34.8196 14.46C34.5196 14.33 34.2096 14.27 33.8896 14.27C33.5596 14.27 33.2396 14.34 32.9296 14.48C31.1296 15.29 27.1696 17.3 26.9196 19.3C26.7596 20.57 27.2696 21.63 28.2796 22.14C28.6996 22.35 29.1596 22.45 29.6496 22.45C30.5196 22.45 31.4496 22.11 32.2796 21.49C32.0596 22.51 31.9296 23.66 31.9996 24.84L32.8696 24.79C32.7296 22.48 33.4596 20.25 33.9896 18.98C34.3996 20.78 35.0396 24.59 34.6796 29.82L35.5496 29.88C35.7996 26.18 35.5696 23.2 35.2696 21.09C36.2096 21.97 37.3496 22.45 38.3996 22.45C38.8896 22.45 39.3496 22.35 39.7696 22.14C40.7796 21.62 41.2796 20.56 41.1196 19.29ZM28.6696 21.35C27.9796 21 27.6696 20.31 27.7796 19.4C27.9296 18.19 30.6396 16.47 33.2496 15.29C33.3596 16.47 33.4696 19.21 32.1896 20.43C30.9096 21.65 29.4996 21.77 28.6696 21.35ZM39.3696 21.35C38.5396 21.77 37.1296 21.65 35.8496 20.43C34.5696 19.22 34.5096 16.49 34.5496 15.3C37.2796 16.49 40.0996 18.21 40.2596 19.41C40.3696 20.31 40.0496 21 39.3696 21.35Z" fill="#0E6F89"/>
<path d="M38.0398 74.5H19.7998C16.7498 74.5 14.2698 72.03 14.2698 68.97L13.7898 1.42001C1.46979 3.90001 4.03979 29.59 4.03979 29.59C4.03979 44.21 0.279785 46.33 0.279785 46.33L8.71978 53.56V119.82H14.2798V82.04C14.2798 78.99 16.7498 76.51 19.8098 76.51H38.0498C38.6098 76.51 39.0598 76.06 39.0598 75.5C39.0398 74.95 38.5898 74.5 38.0398 74.5Z" fill="#0E6F89"/>
<path d="M20.0796 93.93V119.81H17.8496V93.93C17.8496 93.31 18.3496 92.81 18.9696 92.81C19.5796 92.82 20.0796 93.32 20.0796 93.93Z" fill="#0E6F89"/>
<path d="M26.3496 93.93V119.81H24.1196V93.93C24.1196 93.31 24.6196 92.81 25.2396 92.81C25.8496 92.82 26.3496 93.32 26.3496 93.93Z" fill="#0E6F89"/>
<path d="M32.6099 93.93V119.81H30.3799V93.93C30.3799 93.31 30.8799 92.81 31.4999 92.81C32.1099 92.82 32.6099 93.32 32.6099 93.93Z" fill="#0E6F89"/>
<path d="M38.8799 93.93V119.81H36.6499V93.93C36.6499 93.31 37.1499 92.81 37.7699 92.81C38.3799 92.82 38.8799 93.32 38.8799 93.93Z" fill="#0E6F89"/>
<path d="M45.1397 93.93V119.81H42.9097V93.93C42.9097 93.31 43.4097 92.81 44.0297 92.81C44.6397 92.82 45.1397 93.32 45.1397 93.93Z" fill="#0E6F89"/>
</g>
<defs>
<clipPath id="clip0_301_6421">
<rect width="73.14" height="119.62" fill="white" transform="translate(0.279785 0.190002)"/>
</clipPath>
</defs>
</svg>
