<svg width="49" height="126" viewBox="0 0 49 126" fill="none" xmlns="http://www.w3.org/2000/svg">
<g clip-path="url(#clip0_301_15409)">
<path d="M48.7101 44.27V117.78C47.8501 117.22 46.8201 116.9 45.7301 116.9C44.1201 116.9 42.6501 117.59 41.6601 118.7L41.5701 118.79C40.7001 119.77 40.1801 121.05 40.1801 122.45V125.79H31.0301V122.45C31.0301 119.89 29.4801 117.7 27.2701 116.76C26.9101 116.61 26.5301 116.49 26.1401 116.41C25.7301 116.32 25.3101 116.28 24.8701 116.28C24.8201 116.28 24.7701 116.28 24.7201 116.29C24.2501 116.3 23.8001 116.36 23.3701 116.47C22.0701 116.79 20.9401 117.53 20.1201 118.52C19.2301 119.58 18.7001 120.95 18.7001 122.45V125.79H0.810059V44.28C2.24006 43.75 3.54006 42.95 4.65006 41.94C7.01006 39.79 8.49006 36.7 8.49006 33.27V0.289982C9.20006 0.109982 9.94006 0.299982 10.7001 0.289982C10.3401 1.53998 10.1501 2.84998 10.1501 4.20998C10.1501 11.57 15.6301 17.63 22.7401 18.6V22.96C22.7401 23.81 23.4501 24.52 24.3201 24.52H25.2001C26.0701 24.52 26.7801 23.81 26.7801 22.96V18.6C33.8901 17.63 39.3701 11.57 39.3701 4.20998C39.3701 2.84998 39.1901 1.53998 38.8301 0.289982C39.5901 0.299982 40.3301 0.109982 41.0401 0.289982V33.27C41.0401 38.31 44.2201 42.61 48.7101 44.27Z" fill="#E9433B"/>
<path d="M39.3802 4.20997C39.3802 11.56 33.9002 17.62 26.7902 18.6V22.96C26.7902 23.82 26.0802 24.52 25.2102 24.52H24.3302C23.4702 24.52 22.7602 23.81 22.7602 22.96V18.6C15.6302 17.63 10.1602 11.56 10.1602 4.20997C10.1602 2.84997 10.3402 1.52997 10.7002 0.279968H15.0802C15.0802 0.279968 13.9102 2.45997 14.2002 4.88997C14.2002 10.71 18.9302 16.42 24.7802 16.42C30.6102 16.42 35.9502 10.7 35.9502 4.88997C35.9502 3.22997 35.8502 1.66997 35.1602 0.279968H38.8402C39.1902 1.52997 39.3802 2.84997 39.3802 4.20997Z" fill="#F7F7F7"/>
<path d="M10.6199 78.09V125.79H7.85986V78.09C7.85986 77.33 8.47986 76.71 9.23986 76.71C9.99986 76.71 10.6199 77.33 10.6199 78.09Z" fill="#BC362F"/>
<path d="M18.3799 78.09V125.79H15.6099V78.09C15.6099 77.33 16.2299 76.71 16.9899 76.71C17.7599 76.71 18.3799 77.33 18.3799 78.09Z" fill="#BC362F"/>
<path d="M26.1401 78.09V116.41C25.7301 116.32 25.3101 116.28 24.8701 116.28C24.8201 116.28 24.7701 116.28 24.7201 116.29C24.2501 116.3 23.8001 116.36 23.3701 116.47V78.09C23.3701 77.33 23.9901 76.71 24.7601 76.71C25.5201 76.71 26.1401 77.33 26.1401 78.09Z" fill="#BC362F"/>
<path d="M33.9101 78.09V125.79H31.1401V78.09C31.1401 77.33 31.7601 76.71 32.5201 76.71C33.2901 76.71 33.9101 77.33 33.9101 78.09Z" fill="#BC362F"/>
<path d="M41.6601 78.09V118.7L41.5701 118.79C40.7001 119.77 40.1801 121.05 40.1801 122.45V125.79H38.8901V78.09C38.8901 77.33 39.5101 76.71 40.2801 76.71C41.0401 76.71 41.6601 77.33 41.6601 78.09Z" fill="#BC362F"/>
<path d="M4.65006 41.94V125.79H0.810059V44.28C2.25006 43.75 3.54006 42.95 4.65006 41.94Z" fill="#BC362F"/>
</g>
<defs>
<clipPath id="clip0_301_15409">
<rect width="47.9" height="125.58" fill="white" transform="translate(0.810059 0.209991)"/>
</clipPath>
</defs>
</svg>
