<svg width="142" height="202" viewBox="0 0 142 202" fill="none" xmlns="http://www.w3.org/2000/svg">
<g clip-path="url(#clip0_301_9303)">
<path d="M128.28 42.61C126.76 36.8 124.34 31.24 120.9 26.32C118.55 22.96 116.02 20.2 113.46 17.94C112.97 17.52 112.48 17.1 111.99 16.71C101.4 8.18002 90.8 7.83002 90.8 7.83002L68.25 36.93L69.3 75.29L68.25 201.19C97.03 204.63 114.91 193.63 114.91 193.63L112.55 137.46C117.05 133.83 118.45 126.75 120.63 121.87C120.87 124.35 121.01 125.81 121.01 125.81H139.92C138.88 86.93 131.53 54.99 128.28 42.61Z" fill="#20697B"/>
<path d="M50.5203 11.13V23.54C50.5203 53.31 49.8603 66.65 44.9203 77.11C40.9203 85.57 34.3403 87.97 25.5503 87.97C4.77026 87.97 0.750256 70.46 2.05026 50.15H19.1103C19.1103 55.32 22.4403 59 27.4703 59C35.6603 59 36.1303 43.37 36.8103 31.85C37.0003 28.64 37.9303 22.98 40.9203 19.32C44.1303 15.4 47.6503 12.77 50.5203 11.13Z" fill="#20697B"/>
<path d="M19.1701 51.85H1.78006C0.840059 51.85 0.0600586 51.07 0.0600586 50.13V44.67C0.0600586 43.72 0.840059 42.95 1.78006 42.95H19.1601C20.1101 42.95 20.8801 43.73 20.8801 44.67V50.13C20.8901 51.07 20.1101 51.85 19.1701 51.85Z" fill="#5DA7AF"/>
<path d="M68.2501 201.19C46.0401 201.98 34.4601 196.24 34.4601 196.24L38.3801 134.27C33.7101 129.35 30.9201 124.38 29.4101 119.63C28.7101 117.44 28.2901 115.29 28.0801 113.22C26.6801 99.31 34.8901 88.62 34.8801 88.98L35.2401 42.07C35.2401 38.86 34.7901 27.57 36.8201 21.85C38.4101 17.39 43.1301 12.91 43.3201 12.73V12.72C43.3201 12.72 46.2701 10.07 48.8901 8.60998C55.5401 4.91998 58.1601 4.97998 61.4601 4.97998L61.1801 17.84L70.5801 33.43L69.3001 72.94L68.2501 201.19Z" fill="#144D56"/>
<path d="M75.05 64.57C76.3203 64.57 77.35 63.5403 77.35 62.27C77.35 60.9997 76.3203 59.97 75.05 59.97C73.7797 59.97 72.75 60.9997 72.75 62.27C72.75 63.5403 73.7797 64.57 75.05 64.57Z" fill="#24305B"/>
<path d="M75.05 79.73C76.3203 79.73 77.35 78.7003 77.35 77.43C77.35 76.1598 76.3203 75.13 75.05 75.13C73.7797 75.13 72.75 76.1598 72.75 77.43C72.75 78.7003 73.7797 79.73 75.05 79.73Z" fill="#24305B"/>
<path d="M76.5598 94.96C77.83 94.96 78.8598 93.9302 78.8598 92.66C78.8598 91.3897 77.83 90.36 76.5598 90.36C75.2895 90.36 74.2598 91.3897 74.2598 92.66C74.2598 93.9302 75.2895 94.96 76.5598 94.96Z" fill="#24305B"/>
<path d="M139.83 129.92H120.43C119.48 129.92 118.71 129.14 118.71 128.2V120.34C118.71 119.39 119.49 118.62 120.43 118.62H139.83C140.78 118.62 141.55 119.4 141.55 120.34V128.2C141.56 129.15 140.78 129.92 139.83 129.92Z" fill="#5DA7AF"/>
<path d="M111.99 65V89.14C111.99 89.14 117.98 93.82 122.72 104.32L111.99 65Z" fill="#144D56"/>
<path d="M63.5002 3.52001C65.0302 8.94001 69.1302 18.53 72.1802 30.48C72.4902 31.7 68.6202 34.68 67.0802 34.24L52.7602 30.34C51.4602 29.97 50.5902 29.09 50.4702 28.04L51.5202 12.96C51.1702 9.69001 53.1702 6.42001 56.7902 4.37001L59.8602 2.62001C61.2502 1.83001 63.1602 2.31001 63.5002 3.52001Z" fill="#5DA7AF"/>
<path d="M70.41 36.12C68.78 34.63 67.64 33.17 68.62 31.19C75.45 17.35 82.18 12.5 87.75 1.33999L88.03 0.789991C89.21 -1.32001 100.17 2.03999 100.11 6.87999L101.81 23.26C101.95 24.89 101.28 26.49 100.01 27.52C95.86 30.9 82.36 35.1 72.65 36.89C71.78 37.05 71.03 36.69 70.41 36.12Z" fill="#144D56"/>
<path d="M48.4801 103.49L47.3001 104.61L29.4101 119.63C28.7101 117.44 28.2901 115.29 28.0801 113.22C33.0701 108.54 43.9501 98.98 43.9501 98.98C44.3701 98.57 45.0401 98.57 45.4201 98.98L48.4801 102.04C48.8901 102.43 48.8901 103.1 48.4801 103.49Z" fill="#5DA7AF"/>
<path d="M103.33 102.48L104.51 103.6L122.4 118.62C123.1 116.43 123.52 114.28 123.73 112.21C118.74 107.53 107.86 97.97 107.86 97.97C107.44 97.56 106.77 97.56 106.39 97.97L103.33 101.03C102.92 101.42 102.92 102.09 103.33 102.48Z" fill="#144D56"/>
</g>
<defs>
<clipPath id="clip0_301_9303">
<rect width="141.5" height="201.72" fill="white" transform="translate(0.0600586 0.140015)"/>
</clipPath>
</defs>
</svg>
