<svg width="51" height="132" viewBox="0 0 51 132" fill="none" xmlns="http://www.w3.org/2000/svg">
<g clip-path="url(#clip0_301_6479)">
<path d="M50.3699 44.045V131.805H0.689941V44.055C2.11994 43.525 3.40994 42.735 4.50994 41.715C6.85994 39.575 10.3399 36.475 10.3399 33.045V2.385C10.9499 2.045 11.5699 1.745 12.2199 1.465C12.0699 2.285 11.9899 3.135 11.9899 3.995C11.9899 11.345 17.4399 17.405 24.5299 18.375V22.735C24.5299 23.595 25.2299 24.295 26.0899 24.295H26.9699C27.8399 24.295 28.5399 23.595 28.5399 22.735V18.375C35.6199 17.405 41.0799 11.345 41.0799 3.995C41.0799 3.585 41.0599 3.175 41.0299 2.775C41.6299 3.135 42.1999 3.535 42.7399 3.955V33.045C42.7399 38.035 45.8399 42.295 50.2299 43.985C50.2699 44.005 50.3199 44.025 50.3699 44.045Z" fill="#F9B843"/>
<path d="M41.0797 3.99501C41.0797 11.345 35.6197 17.405 28.5397 18.375V22.735C28.5397 23.595 27.8397 24.295 26.9697 24.295H26.0897C25.2297 24.295 24.5297 23.595 24.5297 22.735V18.375C17.4397 17.405 11.9897 11.345 11.9897 3.99501C11.9897 3.13501 12.0697 2.28501 12.2197 1.46501C13.6697 0.865007 15.2097 0.425007 16.8197 0.195007C16.5897 0.685007 15.7597 2.59501 16.0097 4.67501C16.0097 10.495 20.7197 16.205 26.5397 16.205C32.3497 16.205 37.6597 10.495 37.6597 4.67501C37.6597 3.39501 37.5997 2.15501 37.2497 1.01501C38.5797 1.46501 39.8497 2.05501 41.0297 2.77501C41.0597 3.17501 41.0797 3.58501 41.0797 3.99501Z" fill="#F7F7F7"/>
<path d="M12.4597 72.385V131.795H9.69971V72.385C9.69971 71.625 10.3197 71.005 11.0797 71.005C11.8397 71.005 12.4597 71.625 12.4597 72.385Z" fill="#C18A29"/>
<path d="M20.1799 72.385V131.795H17.4199V72.385C17.4199 71.625 18.0399 71.005 18.7999 71.005C19.5699 71.005 20.1799 71.625 20.1799 72.385Z" fill="#C18A29"/>
<path d="M27.9099 72.385V131.795H25.1499V72.385C25.1499 71.625 25.7699 71.005 26.5299 71.005C27.2899 71.005 27.9099 71.625 27.9099 72.385Z" fill="#C18A29"/>
<path d="M35.6399 72.385V131.795H32.8799V72.385C32.8799 71.625 33.4999 71.005 34.2599 71.005C35.0199 71.005 35.6399 71.625 35.6399 72.385Z" fill="#C18A29"/>
<path d="M43.3601 72.385V131.795H40.6001V72.385C40.6001 71.625 41.2201 71.005 41.9801 71.005C42.7501 71.005 43.3601 71.625 43.3601 72.385Z" fill="#C18A29"/>
<path d="M4.50994 41.715V131.795H0.689941V44.065C2.11994 43.525 3.40994 42.735 4.50994 41.715Z" fill="#C18A29"/>
</g>
<defs>
<clipPath id="clip0_301_6479">
<rect width="49.68" height="131.61" fill="white" transform="translate(0.689941 0.195007)"/>
</clipPath>
</defs>
</svg>
