<svg width="108" height="256" viewBox="0 0 108 256" fill="none" xmlns="http://www.w3.org/2000/svg">
<g clip-path="url(#clip0_301_9274)">
<path d="M23.12 4.685V17.105C23.12 46.885 22.46 60.225 17.52 70.685C17.05 71.675 16.55 72.585 16 73.415L0.0400391 52.575H0.0700391C0.690039 52.575 1.27004 52.485 1.80004 52.315C8.32004 50.235 8.78004 36.075 9.41004 25.425C9.60004 22.225 10.53 16.555 13.52 12.895C16.73 8.965 20.25 6.335 23.12 4.685Z" fill="#EB564B"/>
<path d="M45.9302 91.625H24.4002C20.8002 91.625 17.8802 88.705 17.8802 85.105L18.0302 6.88501C17.5402 7.35501 11.1402 12.665 9.4202 17.765C7.4802 23.515 7.8402 34.775 7.8402 37.985L7.6502 63.165L7.4802 84.895C7.4902 84.625 5.9702 86.325 4.4202 89.385C2.3802 93.435 1.4202 97.945 1.4002 102.485L1.2002 255.105H17.8802V100.525C17.8802 96.925 20.8002 94.005 24.4002 94.005H45.9302C46.5902 94.005 47.1202 93.465 47.1202 92.815C47.1202 92.155 46.5902 91.625 45.9302 91.625Z" fill="#EB564B"/>
<path d="M91.5899 86.755C90.3899 83.545 87.1699 80.785 87.1799 81.055L87.0299 65.085H107.06C104.82 52.035 102.4 41.965 100.88 36.175C99.3599 30.365 96.9399 24.805 93.4999 19.885C91.1699 16.555 88.6599 13.805 86.1199 11.555C86.0999 11.545 86.0799 11.525 86.0599 11.505C85.5699 11.085 85.0799 10.665 84.5899 10.275C82.8899 8.90502 81.1399 7.73502 79.3999 6.73502C70.3099 1.49502 61.4999 0.89502 61.4999 0.89502L61.4899 1.81502C61.4599 8.38502 57.7799 14.385 51.9499 17.405L47.7399 19.585L43.2599 16.435C38.5899 13.165 35.7899 7.83502 35.7499 2.13502L35.7399 0.89502C32.4399 0.89502 28.1899 0.92502 21.4899 4.52502C18.6799 6.03502 15.8999 8.83502 15.8799 8.85502L17.8799 85.105C17.8799 88.705 20.7999 91.625 24.3999 91.625H45.9299C46.5899 91.625 47.1199 92.155 47.1199 92.815C47.1199 93.465 46.5899 94.005 45.9299 94.005H24.3999C20.7999 94.005 17.8799 96.925 17.8799 100.525L16.6699 255.105H76.7799H94.1899L93.9899 103.215C93.9699 98.675 94.1699 93.645 91.5899 86.755Z" fill="#FF9166"/>
<path d="M56.0302 25.885C55.7402 23.595 50.9702 21.285 48.8402 20.365C48.5002 20.215 48.1402 20.145 47.7702 20.145C47.3902 20.145 47.0202 20.225 46.6802 20.375C44.6302 21.305 40.1102 23.595 39.8202 25.875C39.6302 27.325 40.2102 28.535 41.3702 29.115C41.8502 29.355 42.3802 29.475 42.9302 29.475C43.9202 29.475 44.9802 29.085 45.9302 28.375C45.6802 29.545 45.5302 30.855 45.6102 32.195L46.6102 32.135C46.4502 29.495 47.2902 26.955 47.8902 25.505C48.3602 27.555 49.0902 31.915 48.6802 37.875L49.6802 37.945C49.9702 33.725 49.7102 30.325 49.3602 27.915C50.4302 28.925 51.7302 29.465 52.9302 29.465C53.4802 29.465 54.0202 29.345 54.4902 29.105C55.6302 28.545 56.2102 27.325 56.0302 25.885ZM41.8202 28.235C41.0302 27.835 40.6802 27.045 40.8102 26.005C40.9902 24.625 44.0702 22.665 47.0502 21.305C47.1802 22.645 47.3002 25.785 45.8402 27.175C44.3802 28.575 42.7702 28.715 41.8202 28.235ZM54.0202 28.235C53.0702 28.715 51.4602 28.575 50.0002 27.175C48.5402 25.785 48.4702 22.685 48.5202 21.315C51.6402 22.665 54.8602 24.635 55.0302 26.005C55.1702 27.045 54.8102 27.835 54.0202 28.235Z" fill="#EB564B"/>
<path d="M24.3501 135.385V255.095H21.8501V135.385C21.8501 134.685 22.4101 134.115 23.1001 134.115C23.7901 134.115 24.3501 134.685 24.3501 135.385Z" fill="#EB564B"/>
<path d="M32.54 135.385V255.095H30.04V135.385C30.04 134.685 30.6 134.115 31.29 134.115C31.97 134.115 32.54 134.685 32.54 135.385Z" fill="#EB564B"/>
<path d="M40.7202 135.385V255.095H38.2202V135.385C38.2202 134.685 38.7802 134.115 39.4702 134.115C40.1602 134.115 40.7202 134.685 40.7202 135.385Z" fill="#EB564B"/>
<path d="M48.9102 135.385V255.095H46.4102V135.385C46.4102 134.685 46.9702 134.115 47.6602 134.115C48.3502 134.115 48.9102 134.685 48.9102 135.385Z" fill="#EB564B"/>
<path d="M57.1001 135.385V255.095H54.6001V135.385C54.6001 134.685 55.1601 134.115 55.8501 134.115C56.5401 134.115 57.1001 134.685 57.1001 135.385Z" fill="#EB564B"/>
<path d="M65.2803 135.385V255.095H62.7803V135.385C62.7803 134.685 63.3403 134.115 64.0303 134.115C64.7203 134.115 65.2803 134.685 65.2803 135.385Z" fill="#EB564B"/>
<path d="M73.4702 135.385V255.095H70.9702V135.385C70.9702 134.685 71.5302 134.115 72.2202 134.115C72.9102 134.115 73.4702 134.685 73.4702 135.385Z" fill="#EB564B"/>
<path d="M81.6602 135.385V255.095H79.1602V135.385C79.1602 134.685 79.7202 134.115 80.4102 134.115C81.1002 134.115 81.6602 134.685 81.6602 135.385Z" fill="#EB564B"/>
<path d="M89.8403 135.385V255.095H87.3403V135.385C87.3403 134.685 87.9003 134.115 88.5903 134.115C89.2803 134.115 89.8403 134.685 89.8403 135.385Z" fill="#EB564B"/>
</g>
<defs>
<clipPath id="clip0_301_9274">
<rect width="107.02" height="254.21" fill="white" transform="translate(0.0400391 0.89502)"/>
</clipPath>
</defs>
</svg>
