<svg width="95" height="120" viewBox="0 0 95 120" fill="none" xmlns="http://www.w3.org/2000/svg">
<g clip-path="url(#clip0_301_6431)">
<path d="M94.01 78.365H82.47C82.47 78.365 82.47 57.245 78.48 48.655V91.315L82.1 116.565C82.1 116.565 66.59 121.285 54.82 117.885L49.29 116.565L49.43 13.675L54.23 12.445C59.47 11.095 63.07 6.28501 62.87 0.88501C62.87 0.88501 66.19 1.24501 72.57 5.04501C74.16 5.98501 75.85 7.31501 77.55 9.18501C77.94 9.62501 78.34 10.095 78.73 10.595C81.13 13.635 83.46 17.835 85.41 23.625C85.41 23.625 92.97 39.435 94.01 78.365Z" fill="#F9B843"/>
<path d="M33.2899 6.11502C33.2899 6.11502 24.0199 12.585 24.0199 20.115L23.4099 50.085C22.4399 67.835 8.62992 61.345 8.62992 61.345L0.419922 70.325C0.419922 70.325 15.2299 82.385 31.5299 67.195L33.2899 6.11502Z" fill="#825616"/>
<path d="M50.3101 11.115C46.8301 9.17502 44.6901 5.48502 44.7401 1.49502L44.7501 1.02502C34.3101 1.02502 27.9201 11.075 27.9201 11.075V91.215L24.5801 116.565L27.2601 117.195C40.7501 119.685 50.3201 118.155 50.3201 118.155V11.115H50.3101Z" fill="#C18525"/>
<path d="M54.9297 50.325C53.8997 50.325 53.0397 51.025 52.7697 51.965H47.8697C47.6297 50.975 46.7497 50.235 45.6797 50.235C44.4397 50.235 43.4297 51.245 43.4297 52.485C43.4297 53.725 44.4397 54.745 45.6797 54.745C46.7497 54.745 47.6397 53.995 47.8697 52.995H52.7097C52.8997 54.045 53.8197 54.835 54.9197 54.835C56.1597 54.835 57.1697 53.825 57.1697 52.585C57.1897 51.345 56.1797 50.325 54.9297 50.325ZM45.6897 53.715C45.0097 53.715 44.4597 53.165 44.4597 52.485C44.4597 51.815 45.0097 51.265 45.6897 51.265C46.1997 51.265 46.6397 51.585 46.8197 52.035C46.6497 52.125 46.5397 52.285 46.5397 52.485C46.5397 52.685 46.6597 52.855 46.8297 52.935C46.6397 53.385 46.1997 53.715 45.6897 53.715ZM54.9297 53.805C54.3797 53.805 53.9297 53.435 53.7797 52.935C53.9497 52.855 54.0697 52.685 54.0697 52.475C54.0697 52.295 53.9697 52.145 53.8397 52.055C54.0397 51.645 54.4497 51.355 54.9397 51.355C55.6197 51.355 56.1697 51.905 56.1697 52.585C56.1597 53.255 55.6097 53.805 54.9297 53.805Z" fill="#42302D"/>
<path d="M45.6799 39.965C46.7499 39.965 47.6399 39.215 47.8699 38.215H52.7099C52.8999 39.265 53.8199 40.055 54.9199 40.055C56.1599 40.055 57.1699 39.045 57.1699 37.795C57.1699 36.555 56.1599 35.545 54.9199 35.545C53.8899 35.545 53.0299 36.245 52.7599 37.185H47.8599C47.6199 36.195 46.7399 35.455 45.6699 35.455C44.4299 35.455 43.4199 36.465 43.4199 37.705C43.4299 38.945 44.4399 39.965 45.6799 39.965ZM54.9299 36.575C55.6099 36.575 56.1599 37.125 56.1599 37.795C56.1599 38.475 55.6099 39.025 54.9299 39.025C54.3799 39.025 53.9299 38.655 53.7799 38.155C53.9499 38.075 54.0699 37.905 54.0699 37.695C54.0699 37.515 53.9699 37.365 53.8399 37.275C54.0299 36.865 54.4399 36.575 54.9299 36.575ZM45.6799 36.485C46.1899 36.485 46.6299 36.805 46.8099 37.255C46.6399 37.345 46.5299 37.505 46.5299 37.705C46.5299 37.905 46.6499 38.075 46.8099 38.155C46.6299 38.605 46.1899 38.935 45.6799 38.935C44.9999 38.935 44.4499 38.385 44.4499 37.705C44.4499 37.035 44.9999 36.485 45.6799 36.485Z" fill="#42302D"/>
<path d="M45.6799 26.955C46.7499 26.955 47.6399 26.205 47.8699 25.205H52.7099C52.8999 26.255 53.8199 27.045 54.9199 27.045C56.1599 27.045 57.1699 26.035 57.1699 24.795C57.1699 23.555 56.1599 22.545 54.9199 22.545C53.8899 22.545 53.0299 23.245 52.7599 24.185H47.8599C47.6199 23.195 46.7399 22.455 45.6699 22.455C44.4299 22.455 43.4199 23.465 43.4199 24.705C43.4299 25.945 44.4399 26.955 45.6799 26.955ZM54.9299 23.575C55.6099 23.575 56.1599 24.125 56.1599 24.795C56.1599 25.475 55.6099 26.025 54.9299 26.025C54.3799 26.025 53.9299 25.655 53.7799 25.155C53.9499 25.075 54.0699 24.905 54.0699 24.695C54.0699 24.515 53.9699 24.365 53.8399 24.275C54.0299 23.865 54.4399 23.575 54.9299 23.575ZM45.6799 23.475C46.1899 23.475 46.6299 23.795 46.8099 24.245C46.6399 24.335 46.5299 24.495 46.5299 24.695C46.5299 24.895 46.6499 25.065 46.8099 25.145C46.6299 25.595 46.1899 25.925 45.6799 25.925C44.9999 25.925 44.4499 25.375 44.4499 24.695C44.4499 24.025 44.9999 23.475 45.6799 23.475Z" fill="#42302D"/>
<path d="M45.6895 51.305V53.615C45.6895 53.615 44.8895 53.895 43.6595 54.105C42.6695 54.325 41.3795 54.535 39.9995 54.565C36.9195 54.655 36.9195 49.765 39.9995 49.765C41.5695 49.765 43.0195 50.165 44.0595 50.565C45.0795 50.935 45.6895 51.305 45.6895 51.305Z" fill="#825616"/>
<path d="M45.6896 51.305V53.615C45.6896 53.615 44.8896 53.895 43.6596 54.105C41.6596 52.505 42.8296 51.275 44.0596 50.565C45.0796 50.935 45.6896 51.305 45.6896 51.305Z" fill="#B66B2F"/>
<path d="M45.6898 51.295C45.6898 51.295 44.7198 50.995 44.0798 51.045C42.9798 51.135 42.6398 53.395 44.0798 53.865C44.6898 54.065 45.6898 53.595 45.6898 53.595V51.295Z" fill="#BC7313"/>
<path d="M54.9297 51.395V53.705C54.9297 53.705 55.7297 53.985 56.9597 54.195C57.9497 54.405 59.2397 54.625 60.6197 54.655C63.6997 54.745 63.6997 49.855 60.6197 49.855C59.0497 49.855 57.5997 50.255 56.5597 50.655C55.5497 51.025 54.9297 51.395 54.9297 51.395Z" fill="#825616"/>
<path d="M54.9297 51.395V53.705C54.9297 53.705 55.7297 53.985 56.9597 54.195C58.9597 52.595 57.7897 51.365 56.5597 50.655C55.5497 51.025 54.9297 51.395 54.9297 51.395Z" fill="#B66B2F"/>
<path d="M54.9297 51.385C54.9297 51.385 55.8997 51.085 56.5397 51.135C57.6397 51.225 57.9797 53.485 56.5397 53.965C55.9297 54.165 54.9297 53.695 54.9297 53.695V51.385Z" fill="#BC7313"/>
<path d="M45.1699 52.425C45.1699 52.845 44.8299 53.185 44.4099 53.185C43.9899 53.185 43.6499 52.845 43.6499 52.425C43.6499 52.005 43.9899 51.665 44.4099 51.665C44.8299 51.675 45.1699 52.015 45.1699 52.425Z" fill="#42302D"/>
<path d="M56.9795 52.575C56.9795 52.995 56.6395 53.335 56.2195 53.335C55.7995 53.335 55.4595 52.995 55.4595 52.575C55.4595 52.155 55.7995 51.815 56.2195 51.815C56.6395 51.815 56.9795 52.155 56.9795 52.575Z" fill="#42302D"/>
<path d="M45.6797 36.525V38.835C45.6797 38.835 44.8797 39.115 43.6497 39.325C42.6597 39.545 41.3697 39.755 39.9897 39.785C36.9097 39.875 36.9097 34.985 39.9897 34.985C41.5597 34.985 43.0097 35.385 44.0497 35.785C45.0697 36.155 45.6797 36.525 45.6797 36.525Z" fill="#825616"/>
<path d="M45.6798 36.525V38.835C45.6798 38.835 44.8798 39.115 43.6498 39.325C41.6498 37.725 42.8198 36.495 44.0498 35.785C45.0698 36.155 45.6798 36.525 45.6798 36.525Z" fill="#B66B2F"/>
<path d="M45.6795 36.505C45.6795 36.505 44.7095 36.205 44.0695 36.255C42.9695 36.345 42.6295 38.605 44.0695 39.075C44.6795 39.275 45.6795 38.805 45.6795 38.805V36.505Z" fill="#BC7313"/>
<path d="M54.9199 36.615V38.925C54.9199 38.925 55.7199 39.205 56.9499 39.415C57.9399 39.635 59.2299 39.845 60.6099 39.875C63.6899 39.965 63.6899 35.075 60.6099 35.075C59.0399 35.075 57.5899 35.475 56.5499 35.875C55.5399 36.245 54.9199 36.615 54.9199 36.615Z" fill="#825616"/>
<path d="M54.9199 36.615V38.925C54.9199 38.925 55.7199 39.205 56.9499 39.415C58.9499 37.815 57.7799 36.585 56.5499 35.875C55.5399 36.245 54.9199 36.615 54.9199 36.615Z" fill="#B66B2F"/>
<path d="M54.9297 36.605C54.9297 36.605 55.8997 36.305 56.5397 36.355C57.6397 36.445 57.9797 38.705 56.5397 39.185C55.9297 39.385 54.9297 38.915 54.9297 38.915V36.605Z" fill="#BC7313"/>
<path d="M45.1596 37.645C45.1596 38.065 44.8196 38.405 44.3996 38.405C43.9796 38.405 43.6396 38.065 43.6396 37.645C43.6396 37.225 43.9796 36.885 44.3996 36.885C44.8196 36.885 45.1596 37.225 45.1596 37.645Z" fill="#42302D"/>
<path d="M56.9697 37.795C56.9697 38.215 56.6297 38.555 56.2097 38.555C55.7897 38.555 55.4497 38.215 55.4497 37.795C55.4497 37.375 55.7897 37.035 56.2097 37.035C56.6297 37.035 56.9697 37.375 56.9697 37.795Z" fill="#42302D"/>
<path d="M45.6797 23.515V25.825C45.6797 25.825 44.8797 26.105 43.6497 26.315C42.6597 26.535 41.3697 26.745 39.9897 26.775C36.9097 26.865 36.9097 21.975 39.9897 21.975C41.5597 21.975 43.0097 22.375 44.0497 22.775C45.0697 23.155 45.6797 23.515 45.6797 23.515Z" fill="#825616"/>
<path d="M45.6798 23.515V25.825C45.6798 25.825 44.8798 26.105 43.6498 26.315C41.6498 24.715 42.8198 23.485 44.0498 22.775C45.0698 23.155 45.6798 23.515 45.6798 23.515Z" fill="#B66B2F"/>
<path d="M45.6795 23.505C45.6795 23.505 44.7095 23.205 44.0695 23.255C42.9695 23.345 42.6295 25.605 44.0695 26.085C44.6795 26.285 45.6795 25.815 45.6795 25.815V23.505Z" fill="#BC7313"/>
<path d="M54.9199 23.615V25.925C54.9199 25.925 55.7199 26.205 56.9499 26.415C57.9399 26.635 59.2299 26.845 60.6099 26.875C63.6899 26.965 63.6899 22.075 60.6099 22.075C59.0399 22.075 57.5899 22.475 56.5499 22.875C55.5399 23.245 54.9199 23.615 54.9199 23.615Z" fill="#825616"/>
<path d="M54.9199 23.615V25.925C54.9199 25.925 55.7199 26.205 56.9499 26.415C58.9499 24.815 57.7799 23.585 56.5499 22.875C55.5399 23.245 54.9199 23.615 54.9199 23.615Z" fill="#B66B2F"/>
<path d="M54.9297 23.605C54.9297 23.605 55.8997 23.305 56.5397 23.355C57.6397 23.445 57.9797 25.705 56.5397 26.175C55.9297 26.375 54.9297 25.905 54.9297 25.905V23.605Z" fill="#BC7313"/>
<path d="M45.1596 24.645C45.1596 25.065 44.8196 25.405 44.3996 25.405C43.9796 25.405 43.6396 25.065 43.6396 24.645C43.6396 24.225 43.9796 23.885 44.3996 23.885C44.8196 23.885 45.1596 24.225 45.1596 24.645Z" fill="#42302D"/>
<path d="M56.9697 24.795C56.9697 25.215 56.6297 25.555 56.2097 25.555C55.7897 25.555 55.4497 25.215 55.4497 24.795C55.4497 24.375 55.7897 24.035 56.2097 24.035C56.6297 24.035 56.9697 24.375 56.9697 24.795Z" fill="#42302D"/>
<path d="M76.3499 10.135C76.3499 10.135 80.6299 7.46501 77.2699 6.34501C77.2699 6.34501 68.9999 5.87501 65.0299 1.88501C65.0299 1.88501 64.1699 3.18501 65.3599 4.24501C65.3599 4.24501 70.2699 7.59501 73.4499 7.49501C76.1699 7.41501 77.5399 8.28501 76.3499 10.135Z" fill="#472F18"/>
<path d="M29.6599 10.335C29.6599 10.335 25.3399 7.745 28.6699 6.555C28.6699 6.555 36.9299 5.935 40.8199 1.875C40.8199 1.875 41.7099 3.155 40.5299 4.235C40.5299 4.235 35.6799 7.675 32.4999 7.635C29.7999 7.605 28.4399 8.505 29.6599 10.335Z" fill="#472F18"/>
</g>
<defs>
<clipPath id="clip0_301_6431">
<rect width="93.59" height="118.23" fill="white" transform="translate(0.419922 0.88501)"/>
</clipPath>
</defs>
</svg>
