<svg width="57" height="204" viewBox="0 0 57 204" fill="none" xmlns="http://www.w3.org/2000/svg">
<g clip-path="url(#clip0_301_15363)">
<path d="M50.6102 44.705V126.225H0.990234V44.715C2.48023 44.185 3.82023 43.385 4.97023 42.375C7.42023 40.225 8.95023 37.135 8.95023 33.705V0.725044C9.68023 0.555044 10.4502 0.735044 11.2402 0.725044C10.8602 1.96504 10.6702 3.28504 10.6702 4.64504C10.6702 11.995 16.3402 18.055 23.7102 19.035V23.395C23.7102 24.255 24.4402 24.955 25.3402 24.955H26.2502C27.1502 24.955 27.8902 24.245 27.8902 23.395V19.035C35.2602 18.065 40.9402 11.995 40.9402 4.64504C40.9402 3.28504 40.7502 1.96504 40.3802 0.715044C41.1702 0.725044 41.9302 0.545044 42.6702 0.715044V33.695C42.6602 38.745 45.9602 43.035 50.6102 44.705Z" fill="#8FDE5D"/>
<path d="M40.9404 4.64503C40.9404 11.995 35.2604 18.055 27.9004 19.035V23.395C27.9004 24.255 27.1704 24.955 26.2604 24.955H25.3504C24.4604 24.955 23.7204 24.245 23.7204 23.395V19.035C16.3404 18.065 10.6704 11.995 10.6704 4.64503C10.6704 3.28503 10.8604 1.96503 11.2304 0.715027H15.7604C15.7604 0.715027 14.5504 2.89503 14.8404 5.32503C14.8404 11.145 19.7404 16.855 25.8004 16.855C31.8404 16.855 37.3704 11.135 37.3704 5.32503C37.3704 3.66503 37.2604 2.10503 36.5504 0.715027H40.3604C40.7504 1.96503 40.9404 3.28503 40.9404 4.64503Z" fill="#F7F7F7"/>
<path d="M4.97023 42.3751V126.225H0.990234V44.7151C2.48023 44.1851 3.82023 43.3851 4.97023 42.3751Z" fill="#1C9D86"/>
<path d="M13.0902 116.905C10.1802 118.425 8.2002 121.395 8.2002 124.815V203.345H13.0902V116.905Z" fill="#1C9D86"/>
<path d="M56.4003 124.825V203.355L13.0903 203.345V116.915C14.4103 116.225 15.9103 115.835 17.5003 115.835H47.0903C52.2303 115.835 56.4003 119.865 56.4003 124.825Z" fill="#8FDE5D"/>
<path d="M19.7801 171.375V203.355H17.1401V171.375C17.1401 170.675 17.7301 170.105 18.4601 170.105C19.1901 170.095 19.7801 170.665 19.7801 171.375Z" fill="#1C9D86"/>
<path d="M27.1903 171.375V203.355H24.5503V171.375C24.5503 170.675 25.1403 170.105 25.8703 170.105C26.6003 170.095 27.1903 170.665 27.1903 171.375Z" fill="#1C9D86"/>
<path d="M34.6 171.375V203.355H31.96V171.375C31.96 170.675 32.55 170.105 33.28 170.105C34 170.095 34.6 170.665 34.6 171.375Z" fill="#1C9D86"/>
<path d="M42.0004 171.375V203.355H39.3604V171.375C39.3604 170.675 39.9504 170.105 40.6804 170.105C41.4104 170.095 42.0004 170.665 42.0004 171.375Z" fill="#1C9D86"/>
<path d="M49.41 171.375V203.355H46.77V171.375C46.77 170.675 47.36 170.105 48.09 170.105C48.82 170.095 49.41 170.665 49.41 171.375Z" fill="#1C9D86"/>
</g>
<defs>
<clipPath id="clip0_301_15363">
<rect width="55.41" height="202.71" fill="white" transform="translate(0.990234 0.64502)"/>
</clipPath>
</defs>
</svg>
