<svg width="83" height="148" viewBox="0 0 83 148" fill="none" xmlns="http://www.w3.org/2000/svg">
<g clip-path="url(#clip0_301_12445)">
<path d="M19.37 5.28998V11.94C19.37 26.95 19.16 36.8 18.03 44.15C17.41 48.28 16.48 51.61 15.15 54.63C15.05 54.86 14.94 55.1 14.83 55.33C14.82 55.34 14.82 55.35 14.81 55.36C14.44 56.15 14.03 56.87 13.6 57.54L11.5 54.8C12.72 54.06 13.82 53.12 14.73 52.03C14.88 51.86 15.01 51.69 15.14 51.51C16.85 49.28 17.86 46.51 17.86 43.49V6.46998C18.36 6.04998 18.86 5.65998 19.37 5.28998Z" fill="#BC362F"/>
<path d="M38.7999 73.23C38.7999 73.76 38.3699 74.19 37.8399 74.19H20.4099C17.4999 74.19 15.1299 76.55 15.1299 79.47V147.54H0.189941L0.349941 81.05C0.369941 77.37 1.13994 73.72 2.78994 70.44C4.03994 67.96 5.27994 66.59 5.26994 66.8L5.34994 56.51C7.04994 56.23 10.0799 55.64 11.5099 54.77C12.7299 54.03 13.8299 53.09 14.7399 52C14.8899 51.83 15.0199 51.66 15.1499 51.48V54.6L15.1299 66.97C15.1299 69.88 17.4899 72.25 20.4099 72.25H37.8399C38.3699 72.26 38.7999 72.69 38.7999 73.23Z" fill="#1C9D86"/>
<path d="M54.4498 2.47998C54.4498 2.57998 54.4498 2.66998 54.4398 2.75998C54.3798 6.03998 53.2298 9.03998 51.3298 11.44C49.0798 14.28 45.7798 16.25 42.0098 16.77V21.09C42.0098 21.94 41.3098 22.64 40.4498 22.64H39.5798C38.7298 22.64 38.0298 21.94 38.0298 21.09V16.76C33.8498 16.19 30.2498 13.84 28.0198 10.49C27.6698 9.95998 27.3498 9.40998 27.0598 8.83998C27.0598 8.83998 27.0598 8.83998 27.0598 8.82998C26.9498 8.58998 26.8298 8.34998 26.7298 8.09998C26.6398 7.87998 26.5498 7.65998 26.4698 7.43998C26.3898 7.21998 26.3198 6.98998 26.2398 6.76998C26.1698 6.53998 26.0998 6.31998 26.0498 6.08998C25.9898 5.85998 25.9398 5.61998 25.8898 5.38998C25.8398 5.16998 25.7998 4.94998 25.7698 4.72998C25.7598 4.69998 25.7598 4.65998 25.7498 4.61998C25.7198 4.39998 25.6898 4.17998 25.6698 3.95998C25.6498 3.71998 25.6298 3.46998 25.6098 3.22998C25.5998 2.97998 25.5898 2.73998 25.5898 2.48998V2.38998C25.5898 2.18998 25.5998 1.98998 25.6098 1.78998C26.8998 1.25998 28.2298 0.809982 29.6098 0.449982C29.6298 0.639982 29.6398 0.819982 29.6598 1.00998C29.6598 1.02998 29.6498 1.04998 29.6498 1.06998C29.5398 1.70998 29.4898 2.41998 29.5798 3.15998C29.5798 8.92998 34.2598 14.6 40.0198 14.6C43.8298 14.6 47.4198 12.13 49.4198 8.78998C50.4498 7.06998 51.0598 5.11998 51.0598 3.15998C51.0598 2.58998 51.0498 2.01998 50.9998 1.46998C50.9898 1.36998 50.9798 1.27998 50.9698 1.17998C52.0598 1.32998 53.2298 1.57998 54.4298 1.91998V1.95998C54.4498 2.13998 54.4498 2.30998 54.4498 2.47998Z" fill="#F7F7F7"/>
<path d="M82.4799 147.54H14.1499L14.7399 100L14.7599 99.15L15.1299 79.47C15.1299 76.56 17.4899 74.19 20.4099 74.19H37.8399C38.3699 74.19 38.7999 73.75 38.7999 73.23C38.7999 72.7 38.3699 72.27 37.8399 72.27H20.4099C17.4999 72.27 15.1299 69.91 15.1299 66.99L14.8199 55.35L14.7399 52.02C14.8899 51.85 15.0199 51.68 15.1499 51.5C16.8599 49.27 17.8699 46.5 17.8699 43.48V6.46999C18.3599 6.04999 18.8599 5.65999 19.3699 5.28999C20.4999 4.45999 21.6899 3.70999 22.9399 3.04999C23.7999 2.58999 24.6999 2.17999 25.6099 1.79999C25.5999 1.99999 25.5899 2.19999 25.5899 2.39999V2.49999C25.5899 2.74999 25.5999 2.98999 25.6099 3.23999C25.6299 3.47999 25.6399 3.72999 25.6699 3.96999C25.6899 4.18999 25.7199 4.40999 25.7499 4.62999C25.7599 4.66999 25.7599 4.70999 25.7699 4.73999C25.7999 4.96999 25.8399 5.18999 25.8899 5.39999C25.9399 5.62999 25.9999 5.86999 26.0499 6.09999C26.1099 6.32999 26.1699 6.54999 26.2399 6.77999C26.3099 7.00999 26.3899 7.22999 26.4699 7.44999C26.5499 7.66999 26.6399 7.88999 26.7299 8.10999C26.8399 8.35999 26.9499 8.59999 27.0599 8.83999C27.0599 8.84999 27.0599 8.84999 27.0599 8.84999C27.3399 9.41999 27.6699 9.97999 28.0199 10.5C30.2499 13.84 33.8599 16.19 38.0299 16.77V21.09C38.0299 21.94 38.7299 22.64 39.5799 22.64H40.4499C41.3099 22.64 42.0099 21.94 42.0099 21.09V16.76C45.7699 16.24 49.0799 14.27 51.3299 11.43C53.2299 9.02999 54.3799 6.02999 54.4399 2.74999C54.4499 2.65999 54.4499 2.56999 54.4499 2.47999C54.4499 2.30999 54.4499 2.12999 54.4299 1.94999V1.92999C56.9999 2.63999 59.7399 3.73999 62.2299 5.10999V39.03C62.2299 44.77 71.4499 49.65 76.5699 51.48C76.6099 51.5 76.6399 51.5 76.6799 51.52L76.7899 63.71C76.7899 63.65 76.9799 63.77 77.2899 64.05C78.0899 64.75 79.6499 66.44 80.3599 68.32C80.9399 69.88 81.3599 71.33 81.6399 72.68C82.3399 76.02 82.2999 78.79 82.2999 81.36V81.64L82.3999 112.85L82.4799 147.54Z" fill="#8FDE5D"/>
<path d="M21.1902 107.69V147.54H19.1602V107.69C19.1602 107.12 19.6102 106.66 20.1702 106.66C20.7402 106.66 21.1902 107.12 21.1902 107.69Z" fill="#1C9D86"/>
<path d="M27.82 107.69V147.54H25.79V107.69C25.79 107.12 26.24 106.66 26.8 106.66C27.37 106.66 27.82 107.12 27.82 107.69Z" fill="#1C9D86"/>
<path d="M34.4499 107.69V147.54H32.4199V107.69C32.4199 107.12 32.8699 106.66 33.4299 106.66C33.9899 106.66 34.4499 107.12 34.4499 107.69Z" fill="#1C9D86"/>
<path d="M41.07 107.69V147.54H39.04V107.69C39.04 107.12 39.49 106.66 40.05 106.66C40.62 106.66 41.07 107.12 41.07 107.69Z" fill="#1C9D86"/>
<path d="M47.6999 107.69V147.54H45.6699V107.69C45.6699 107.12 46.1199 106.66 46.6799 106.66C47.2499 106.66 47.6999 107.12 47.6999 107.69Z" fill="#1C9D86"/>
<path d="M54.3303 107.69V147.54H52.3003V107.69C52.3003 107.12 52.7503 106.66 53.3103 106.66C53.8803 106.66 54.3303 107.12 54.3303 107.69Z" fill="#1C9D86"/>
<path d="M60.9602 107.69V147.54H58.9302V107.69C58.9302 107.12 59.3802 106.66 59.9402 106.66C60.5102 106.66 60.9602 107.12 60.9602 107.69Z" fill="#1C9D86"/>
<path d="M67.5901 107.69V147.54H65.5601V107.69C65.5601 107.12 66.0101 106.66 66.5701 106.66C67.1301 106.66 67.5901 107.12 67.5901 107.69Z" fill="#1C9D86"/>
<path d="M74.2099 107.69V147.54H72.1899V107.69C72.1899 107.12 72.6399 106.66 73.1999 106.66C73.7599 106.66 74.2099 107.12 74.2099 107.69Z" fill="#1C9D86"/>
</g>
<defs>
<clipPath id="clip0_301_12445">
<rect width="82.29" height="147.08" fill="white" transform="translate(0.189941 0.459991)"/>
</clipPath>
</defs>
</svg>
