<svg width="108" height="200" viewBox="0 0 108 200" fill="none" xmlns="http://www.w3.org/2000/svg">
<g clip-path="url(#clip0_301_9245)">
<path d="M23.1 4.72498V17.145C23.1 46.925 22.44 60.265 17.5 70.725C17.03 71.715 16.53 72.625 15.98 73.455L0.0200195 52.615H0.0500195C0.67002 52.615 1.25002 52.525 1.78002 52.355C8.30002 50.275 8.76002 36.115 9.39002 25.465C9.58002 22.265 10.51 16.595 13.5 12.935C16.71 9.00498 20.23 6.37498 23.1 4.72498Z" fill="#39485B"/>
<path d="M45.9102 91.665H24.3802C20.7802 91.665 17.8602 88.745 17.8602 85.145L18.0102 6.92499C17.5202 7.39499 11.1202 12.705 9.40018 17.805C7.46018 23.555 7.82018 34.815 7.82018 38.025L7.63018 63.205L7.46018 84.935C7.47018 84.665 5.95018 86.365 4.40018 89.425C2.36018 93.475 1.40018 97.985 1.38018 102.525L1.18018 199.065H17.8602V100.565C17.8602 96.965 20.7802 94.045 24.3802 94.045H45.9102C46.5702 94.045 47.1002 93.505 47.1002 92.855C47.1002 92.195 46.5702 91.665 45.9102 91.665Z" fill="#39485B"/>
<path d="M91.5699 86.795C90.3699 83.585 87.1499 80.825 87.1599 81.095L87.0099 65.125H107.04C104.8 52.075 102.38 42.005 100.86 36.215C99.3399 30.405 96.9199 24.845 93.4799 19.925C91.1499 16.595 88.6399 13.845 86.0999 11.595C86.0799 11.585 86.0599 11.565 86.0399 11.545C85.5499 11.125 85.0599 10.705 84.5699 10.315C82.8699 8.945 81.1199 7.775 79.3799 6.775C70.2899 1.535 61.4799 0.934998 61.4799 0.934998L61.4699 1.855C61.4399 8.425 57.7599 14.425 51.9299 17.445L47.7199 19.625L43.2399 16.475C38.5699 13.205 35.7699 7.875 35.7299 2.175L35.7199 0.934998C32.4199 0.934998 28.1699 0.964998 21.4699 4.565C18.6599 6.075 15.8799 8.875 15.8599 8.895L17.8599 85.145C17.8599 88.745 20.7799 91.665 24.3799 91.665H45.9099C46.5699 91.665 47.0999 92.195 47.0999 92.855C47.0999 93.505 46.5699 94.045 45.9099 94.045H24.3799C20.7799 94.045 17.8599 96.965 17.8599 100.565L16.6499 199.065H76.7599H94.1699L93.9699 103.245C93.9499 98.715 94.1499 93.685 91.5699 86.795Z" fill="#92AED6"/>
<path d="M56.0102 25.925C55.7202 23.635 50.9502 21.325 48.8202 20.405C48.4802 20.255 48.1202 20.185 47.7502 20.185C47.3702 20.185 47.0002 20.265 46.6602 20.415C44.6102 21.345 40.0902 23.635 39.8002 25.915C39.6102 27.365 40.1902 28.575 41.3502 29.155C41.8302 29.395 42.3602 29.515 42.9102 29.515C43.9002 29.515 44.9602 29.125 45.9102 28.415C45.6602 29.585 45.5102 30.895 45.5902 32.235L46.5902 32.175C46.4302 29.535 47.2702 26.995 47.8702 25.545C48.3402 27.595 49.0702 31.955 48.6602 37.915L49.6602 37.985C49.9502 33.765 49.6902 30.365 49.3402 27.955C50.4102 28.965 51.7102 29.505 52.9102 29.505C53.4602 29.505 54.0002 29.385 54.4702 29.145C55.6102 28.585 56.1902 27.365 56.0102 25.925ZM41.8002 28.275C41.0102 27.875 40.6602 27.085 40.7902 26.045C40.9702 24.665 44.0502 22.705 47.0302 21.345C47.1602 22.685 47.2802 25.825 45.8202 27.215C44.3602 28.615 42.7502 28.755 41.8002 28.275ZM54.0002 28.275C53.0502 28.755 51.4402 28.615 49.9802 27.215C48.5202 25.825 48.4502 22.725 48.5002 21.355C51.6202 22.705 54.8402 24.675 55.0102 26.045C55.1502 27.085 54.7902 27.875 54.0002 28.275Z" fill="#39485B"/>
<path d="M24.3301 135.425V199.065H21.8301V135.425C21.8301 134.725 22.3901 134.155 23.0801 134.155C23.7701 134.155 24.3301 134.725 24.3301 135.425Z" fill="#39485B"/>
<path d="M32.52 135.425V199.065H30.02V135.425C30.02 134.725 30.58 134.155 31.27 134.155C31.95 134.155 32.52 134.725 32.52 135.425Z" fill="#39485B"/>
<path d="M40.7002 135.425V199.065H38.2002V135.425C38.2002 134.725 38.7602 134.155 39.4502 134.155C40.1402 134.155 40.7002 134.725 40.7002 135.425Z" fill="#39485B"/>
<path d="M48.8901 135.425V199.065H46.3901V135.425C46.3901 134.725 46.9501 134.155 47.6401 134.155C48.3301 134.155 48.8901 134.725 48.8901 135.425Z" fill="#39485B"/>
<path d="M57.0801 135.425V199.065H54.5801V135.425C54.5801 134.725 55.1401 134.155 55.8301 134.155C56.5201 134.155 57.0801 134.725 57.0801 135.425Z" fill="#39485B"/>
<path d="M65.2603 135.425V199.065H62.7603V135.425C62.7603 134.725 63.3203 134.155 64.0103 134.155C64.7003 134.155 65.2603 134.725 65.2603 135.425Z" fill="#39485B"/>
<path d="M73.4502 135.425V199.065H70.9502V135.425C70.9502 134.725 71.5102 134.155 72.2002 134.155C72.8902 134.155 73.4502 134.725 73.4502 135.425Z" fill="#39485B"/>
<path d="M81.6401 135.425V199.065H79.1401V135.425C79.1401 134.725 79.7001 134.155 80.3901 134.155C81.0801 134.155 81.6401 134.725 81.6401 135.425Z" fill="#39485B"/>
<path d="M89.8203 135.425V199.065H87.3203V135.425C87.3203 134.725 87.8803 134.155 88.5703 134.155C89.2603 134.155 89.8203 134.725 89.8203 135.425Z" fill="#39485B"/>
</g>
<defs>
<clipPath id="clip0_301_9245">
<rect width="107.02" height="198.13" fill="white" transform="translate(0.0200195 0.934998)"/>
</clipPath>
</defs>
</svg>
