<svg width="92" height="98" viewBox="0 0 92 98" fill="none" xmlns="http://www.w3.org/2000/svg">
<g clip-path="url(#clip0_301_5986)">
<path d="M29.04 11.97C29.04 11.97 22.42 16.66 22.42 24.67L22.35 52.27C22.33 56.67 19.84 65.43 13.37 65.43C8.60002 65.43 7.71002 63.9 7.71002 63.9L0.77002 74.01C0.77002 74.01 16.47 85.24 27.05 71.01L29.04 11.97Z" fill="#181C21"/>
<path d="M42.4099 14.48L42.6399 4.85999C31.7099 7.46999 25.8599 15.15 25.8599 15.15L26.0499 97.08H42.4199V14.48H42.4099Z" fill="#252C35"/>
<path d="M43.3901 4.85999H41.8901V97.08H43.3901V4.85999Z" fill="#91969B"/>
<path d="M91.9199 80.88H80.2999C80.2999 80.88 80.2799 64.4 78.3999 54.73C78.1299 53.32 77.5699 46.43 77.1799 45.61V97.07L61.1299 96.98L61.8299 4.26001C61.8299 4.26001 67.4099 4.62001 73.8299 8.44001C74.6999 8.96001 75.5999 9.59001 76.5299 10.38C76.9799 10.74 77.4299 11.16 77.8799 11.61C81.0099 14.72 84.2099 19.58 86.7599 27.13C86.7599 27.14 90.8699 41.7 91.9199 80.88Z" fill="#91969B"/>
<path d="M61.8399 4.27002H60.4199V97.04H61.8399V4.27002Z" fill="#39485B"/>
<path d="M78.4001 54.74L77.1801 51.41L76.7301 23.95L61.8301 12.15V10.39L76.7001 22.16L76.5301 10.39C76.9801 10.75 77.4301 11.17 77.8801 11.62L78.4001 54.74Z" fill="#181C21"/>
<path d="M38.2 73.09L26 84.57V78.66L35.24 70.14C35.51 69.87 35.94 69.87 36.2 70.14L38.2 72.14C38.47 72.4 38.47 72.83 38.2 73.09Z" fill="#91969B"/>
<path d="M77.1798 78.73V84.63L65.1698 73.03C64.8998 72.77 64.8998 72.34 65.1698 72.08L67.1698 70.08C67.4298 69.81 67.8598 69.81 68.1298 70.08L77.1798 78.73Z" fill="#252C35"/>
<path d="M44.3901 2.60001C44.3401 6.64001 44.2301 21.57 44.0901 31.12C44.0801 32.03 42.9401 32.48 42.1901 31.94L33.3501 22.03C32.7201 21.57 32.4001 20.82 32.5101 20.06L36.1801 7.30001C36.5101 4.95001 38.4601 3.04001 40.7001 2.15001L42.6101 1.40001C43.4701 1.06001 44.4101 1.69001 44.3901 2.60001Z" fill="#181C21"/>
<path d="M60.22 2.90001C60.23 1.86001 61.04 0.990009 62.08 0.930009C64.92 0.770009 69.78 3.63001 70.35 5.95001L73.96 16.27C74.3 17.23 74.14 18.3 73.53 19.12C71.3 22.15 65.43 28.72 62.3 32.18C61.58 32.97 60.27 32.46 60.26 31.4C60.24 24.3 60.18 6.82001 60.22 2.90001Z" fill="#181C21"/>
</g>
<defs>
<clipPath id="clip0_301_5986">
<rect width="91.15" height="96.16" fill="white" transform="translate(0.77002 0.919983)"/>
</clipPath>
</defs>
</svg>
