<svg width="94" height="102" viewBox="0 0 94 102" fill="none" xmlns="http://www.w3.org/2000/svg">
<g clip-path="url(#clip0_301_6021)">
<path d="M93.8598 81.59H82.3198C82.3198 81.59 82.3198 58.94 78.3298 50.35V101.52H47.0498V39.55L56.1898 21.5L54.1398 19.08L60.9398 2.58002C60.9398 2.58002 66.0398 2.94002 72.4198 6.74002C74.0098 7.68002 75.6998 9.01002 77.3998 10.88C77.7898 11.32 78.1898 11.79 78.5798 12.29C80.9798 15.33 83.3098 19.53 85.2598 25.32C85.2598 25.32 92.8198 42.66 93.8598 81.59Z" fill="#FF9166"/>
<path d="M33.14 7.81C33.14 7.81 23.87 14.28 23.87 21.81L23.26 51.78C22.29 69.53 8.48002 63.04 8.48002 63.04L0.27002 72.02C0.27002 72.02 15.08 84.08 31.38 68.89L33.14 7.81Z" fill="#962C2E"/>
<path d="M54.1403 19.08L48.2803 12.15L46.3303 2.58002C35.8903 2.58002 27.7603 12.76 27.7603 12.76V101.52H43.4903L47.0503 97.87V39.55L56.1903 21.49L54.1403 19.08Z" fill="#EB564B"/>
<path d="M58.6999 24.44C53.0099 26.82 45.9299 22.96 42.8199 15.78C40.5399 10.52 41.0299 4.91999 43.6799 1.31999C44.3399 0.419994 45.7299 0.539994 46.2599 1.51999L58.6999 24.44Z" fill="#B7AFB0"/>
<path d="M63.8397 0.950003C63.0697 0.160003 61.7397 0.410003 61.3097 1.42L50.1697 27.13C50.1697 27.13 50.1597 27.15 50.1597 27.18L49.8597 27.8C44.5797 38.98 45.6397 51.93 45.6397 51.93C50.5397 51.09 56.2297 46.02 58.4697 37.73C59.3097 34.64 56.5997 32.4 53.9297 30.45C59.4797 28.91 64.9697 24.76 67.2297 17.72C69.4597 10.79 67.8097 4.98 63.8397 0.950003Z" fill="#FCF4F6"/>
<path d="M41.3303 71.3L27.7603 84.08V77.51L38.0403 68.03C38.3403 67.73 38.8203 67.73 39.1103 68.03L41.3403 70.26C41.6203 70.54 41.6203 71.02 41.3303 71.3Z" fill="#FF9166"/>
<path d="M50.2398 76.98C51.1842 76.98 51.9498 76.2144 51.9498 75.27C51.9498 74.3256 51.1842 73.56 50.2398 73.56C49.2954 73.56 48.5298 74.3256 48.5298 75.27C48.5298 76.2144 49.2954 76.98 50.2398 76.98Z" fill="#FCF4F6"/>
<path d="M50.2398 92.46C51.1842 92.46 51.9498 91.6944 51.9498 90.75C51.9498 89.8056 51.1842 89.04 50.2398 89.04C49.2954 89.04 48.5298 89.8056 48.5298 90.75C48.5298 91.6944 49.2954 92.46 50.2398 92.46Z" fill="#FCF4F6"/>
<path d="M50.2398 63.33C51.1842 63.33 51.9498 62.5644 51.9498 61.62C51.9498 60.6756 51.1842 59.91 50.2398 59.91C49.2954 59.91 48.5298 60.6756 48.5298 61.62C48.5298 62.5644 49.2954 63.33 50.2398 63.33Z" fill="#FCF4F6"/>
<path d="M78.21 77.64V84.2L64.87 71.3C64.57 71.02 64.57 70.53 64.87 70.25L67.1 68.02C67.38 67.72 67.87 67.72 68.17 68.02L78.21 77.64Z" fill="#EB564B"/>
</g>
<defs>
<clipPath id="clip0_301_6021">
<rect width="93.59" height="101.04" fill="white" transform="translate(0.27002 0.47998)"/>
</clipPath>
</defs>
</svg>
