<svg width="123" height="116" viewBox="0 0 123 116" fill="none" xmlns="http://www.w3.org/2000/svg">
<g clip-path="url(#clip0_301_11852)">
<path d="M122.44 103.165H106.59C106.59 103.165 106.55 102.735 106.48 101.955C106.42 101.415 106.35 100.715 106.27 99.865C106.2 100.015 106.13 100.175 106.06 100.325C104.23 104.235 101.36 107.745 97.7304 110.665V115.355L61.7904 115.255L61.7004 109.595L60.9804 61.725C60.9904 61.715 60.9804 61.705 60.9804 61.695L60.9204 57.545L62.0904 39.245L62.3404 35.345L63.2404 33.465L63.8104 32.255L64.9604 29.865L68.4404 22.565L77.1504 4.30502C77.1504 4.30502 78.7604 4.20502 81.2204 4.62502C84.7904 5.24502 90.1204 6.96502 94.9004 11.745L94.9104 11.755C95.4004 12.245 95.8804 12.765 96.3704 13.325C106.56 25.055 115.47 51.345 119.76 76.965C120.1 78.955 120.4 80.945 120.67 82.915C120.85 84.115 121 85.305 121.14 86.485C121.39 88.485 121.61 90.475 121.78 92.435C121.9 93.635 121.99 94.825 122.08 96.005C122.11 96.385 122.13 96.765 122.16 97.145C122.26 98.765 122.35 100.375 122.4 101.955C122.42 102.365 122.43 102.765 122.44 103.165Z" fill="#E0DB99"/>
<path d="M94.9004 52.205V72.435C94.9004 72.435 99.9204 76.355 103.89 85.155L94.9004 52.205Z" fill="#7A7330"/>
<path d="M38.0202 74.045C34.6702 81.135 30.7103 85.605 20.8803 85.255C17.2103 85.125 14.1202 84.615 11.5402 83.735C8.67025 82.755 6.42025 81.315 4.73025 79.415C3.40025 77.965 2.41025 76.245 1.68025 74.275C1.03025 72.515 0.59025 70.555 0.33025 68.385C0.18025 67.095 0.09025 65.735 0.06025 64.295C0.02025 62.695 0.06025 61.005 0.16025 59.235C0.17025 58.985 0.18025 58.735 0.20025 58.475L16.1003 58.565C16.1003 58.785 16.1303 59.005 16.1903 59.235C16.3302 59.825 16.6402 60.445 17.0903 61.035C17.5903 61.705 18.2603 62.335 19.0303 62.825C19.1203 62.885 19.2103 62.935 19.3003 62.985C19.8303 63.305 20.4102 63.545 21.0103 63.685C22.5403 64.065 24.2003 63.805 25.7003 62.425C28.2103 60.135 30.2303 54.675 30.2303 43.745C30.2303 41.055 31.1802 28.215 33.6802 25.145C36.3702 21.845 39.3302 19.645 41.7302 18.265L41.7202 36.775C41.7202 61.725 42.1502 65.275 38.0202 74.045Z" fill="#474322"/>
<path d="M61.63 55.685L61.89 109.315L57.49 115.345H36.42V110.105C29.74 104.555 26.63 98.905 25.53 93.775L25.46 93.195L25.02 89.095C25.02 88.865 25.02 88.625 25.04 88.395C25.27 79.835 30.29 73.815 30.29 74.255L30.59 34.945C30.59 32.255 31.43 17.565 42.86 8.69499C47.89 4.78499 52.09 3.86499 54.86 3.86499L53.84 14.645L64.04 29.925L61.63 55.685Z" fill="#7A7330"/>
<path d="M71.8502 29.725C65.0802 32.155 57.0602 27.245 53.8702 18.695C51.5302 12.425 52.4302 5.93503 55.7302 1.89503C56.5502 0.885028 58.1602 1.10503 58.7202 2.27503L71.8502 29.725Z" fill="#B7AFB0"/>
<path d="M78.2905 1.13501C77.3505 0.255014 75.8205 0.605014 75.3705 1.80501L66.0705 20.595C64.2605 24.245 63.5705 28.305 63.6305 32.375L63.3105 33.115C59.9905 46.385 60.9805 61.785 60.9805 61.785C66.6505 60.565 71.8905 54.955 73.6405 45.125C74.2905 41.445 71.4005 38.135 68.2005 36.005C74.5905 33.935 80.7905 28.825 83.0805 20.505C85.3305 12.335 83.1105 5.64501 78.2905 1.13501Z" fill="#FCF4F6"/>
<path d="M19.3003 62.985L18.8703 63.015L11.4102 63.525L0.06025 64.295C0.02025 62.695 0.06025 62.295 0.16025 60.525L16.5203 60.115C16.8103 60.695 16.6402 60.445 17.0903 61.035C17.5903 61.705 18.2603 62.335 19.0303 62.825C19.1203 62.885 19.2103 62.935 19.3003 62.985Z" fill="#7A7330"/>
<path d="M21.0101 63.685L15.8601 66.505L1.68008 74.275C1.03008 72.515 0.590078 70.555 0.330078 68.385L11.4101 63.525L17.0901 61.035C17.5901 61.705 18.2601 62.335 19.0301 62.825C19.1201 62.885 19.2101 62.935 19.3001 62.985C19.8301 63.305 20.4101 63.545 21.0101 63.685Z" fill="#7A7330"/>
<path d="M25.7005 62.425L11.5405 83.735C8.67047 82.755 6.42047 81.315 4.73047 79.415L15.8605 66.505L18.8705 63.015L19.0305 62.825C19.1205 62.885 19.2105 62.935 19.3005 62.985C19.8305 63.305 20.4105 63.545 21.0105 63.685C22.5405 64.065 24.2005 63.805 25.7005 62.425Z" fill="#7A7330"/>
<path d="M67.0105 68.955C68.2807 68.955 69.3104 67.9253 69.3104 66.655C69.3104 65.3848 68.2807 64.355 67.0105 64.355C65.7402 64.355 64.7104 65.3848 64.7104 66.655C64.7104 67.9253 65.7402 68.955 67.0105 68.955Z" fill="#353C59"/>
<path d="M67.0105 80.615C68.2807 80.615 69.3104 79.5853 69.3104 78.315C69.3104 77.0448 68.2807 76.015 67.0105 76.015C65.7402 76.015 64.7104 77.0448 64.7104 78.315C64.7104 79.5853 65.7402 80.615 67.0105 80.615Z" fill="#353C59"/>
<path d="M67.0105 92.675C68.2807 92.675 69.3104 91.6453 69.3104 90.375C69.3104 89.1048 68.2807 88.075 67.0105 88.075C65.7402 88.075 64.7104 89.1048 64.7104 90.375C64.7104 91.6453 65.7402 92.675 67.0105 92.675Z" fill="#353C59"/>
<path d="M67.0105 106.555C68.2807 106.555 69.3104 105.525 69.3104 104.255C69.3104 102.985 68.2807 101.955 67.0105 101.955C65.7402 101.955 64.7104 102.985 64.7104 104.255C64.7104 105.525 65.7402 106.555 67.0105 106.555Z" fill="#353C59"/>
<path d="M122.44 101.955H106.48C106.42 101.415 106.35 100.715 106.27 99.865C106.2 100.015 106.13 100.175 106.06 100.325C106.29 98.925 106.41 97.485 106.42 96.005H122.09C122.12 96.385 122.14 96.765 122.16 97.145C122.27 98.735 122.36 100.335 122.44 101.955Z" fill="#7A7330"/>
<path d="M121.14 86.485H104.88C105.54 88.365 106 90.355 106.23 92.435H121.78L121.14 86.485Z" fill="#7A7330"/>
<path d="M120.67 82.915H103.33C102.91 82.105 102.45 81.325 101.94 80.585L101.26 76.965H119.76C120.1 78.955 120.4 80.945 120.67 82.915Z" fill="#7A7330"/>
</g>
<defs>
<clipPath id="clip0_301_11852">
<rect width="122.4" height="114.71" fill="white" transform="translate(0.0400391 0.64502)"/>
</clipPath>
</defs>
</svg>
