<svg width="136" height="143" viewBox="0 0 136 143" fill="none" xmlns="http://www.w3.org/2000/svg">
<path d="M49.96 17.49C49.96 17.49 43.34 21.01 43.34 30.16L43.25 54.99C43.23 60.3 41.9 69.61 33.15 69.38C23.03 69.11 23.69 54.3 23.69 53.18C23.69 52.28 23.7 45.75 23.7 45.75H9.37999C9.37999 45.75 9.32999 52.2 9.31999 53.29C9.25999 59.49 10.36 81.38 27.69 84.92C38.87 87.2 46.59 82.49 47.57 81.67L49.96 17.49Z" fill="#272736"/>
<path d="M65.4701 23.2999L65.7401 11.6899C62.6201 11.6899 57.3801 12.7399 53.4901 14.7999C50.2001 16.5399 48.6301 18.4199 48.6301 18.4199L47.5801 80.7399V80.7499V102.69V136.63H65.4701V23.2999Z" fill="#606070"/>
<path d="M66.5899 11.6899H64.8799V136.63H66.5899V11.6899Z" fill="#272736"/>
<path d="M126.93 123.36H112.91C112.91 123.36 109.16 81.63 104.41 66C103.9 64.34 103.4 62.97 102.94 61.98V137.08L83.5698 136.97L84.4198 12.08C84.4198 12.08 91.1498 12.51 98.9098 17.12C99.9598 17.74 101.05 18.51 102.16 19.47C102.7 19.9 103.24 20.41 103.79 20.95C107.57 24.7 111.43 30.57 114.51 39.68C114.5 39.68 125.67 76.07 126.93 123.36Z" fill="#C2C2D1"/>
<path d="M84.42 12.08H82.71V137.02H84.42V12.08Z" fill="#272736"/>
<path d="M104.41 66L102.94 61.98L102.4 35.82L84.4199 21.57V19.46L102.36 33.66L102.15 19.46C102.69 19.89 103.23 20.4 103.78 20.94L104.41 66Z" fill="#272736"/>
<path d="M88.46 52.3799C89.6585 52.3799 90.63 51.4084 90.63 50.2099C90.63 49.0115 89.6585 48.0399 88.46 48.0399C87.2616 48.0399 86.29 49.0115 86.29 50.2099C86.29 51.4084 87.2616 52.3799 88.46 52.3799Z" fill="#272736"/>
<path d="M88.46 69.7499C89.6585 69.7499 90.63 68.7784 90.63 67.5799C90.63 66.3815 89.6585 65.4099 88.46 65.4099C87.2616 65.4099 86.29 66.3815 86.29 67.5799C86.29 68.7784 87.2616 69.7499 88.46 69.7499Z" fill="#272736"/>
<path d="M88.46 87.1099C89.6585 87.1099 90.63 86.1384 90.63 84.9399C90.63 83.7414 89.6585 82.7699 88.46 82.7699C87.2616 82.7699 86.29 83.7414 86.29 84.9399C86.29 86.1384 87.2616 87.1099 88.46 87.1099Z" fill="#272736"/>
<path d="M88.46 104.48C89.6585 104.48 90.63 103.508 90.63 102.31C90.63 101.111 89.6585 100.14 88.46 100.14C87.2616 100.14 86.29 101.111 86.29 102.31C86.29 103.508 87.2616 104.48 88.46 104.48Z" fill="#272736"/>
<path d="M66.8599 40.61C66.8499 42.45 64.9499 43.68 63.2699 42.93C57.4199 40.32 53.5199 33.23 54.3799 24.98C55.1299 17.78 59.1199 11.92 64.2699 9.58C65.5499 9 67.0099 9.97999 66.9899 11.39L66.8599 40.61Z" fill="#272736"/>
<path d="M82.0101 40.16C81.9801 42 83.8501 43.2699 85.5401 42.5599C91.4401 40.0799 95.5001 33.0699 94.8201 24.8099C94.2301 17.5899 90.3601 11.6399 85.2701 9.19995C84.0001 8.58995 82.5201 9.53995 82.5101 10.9499L82.0101 40.16Z" fill="#43434F"/>
</svg>
