<svg width="137" height="150" viewBox="0 0 137 150" fill="none" xmlns="http://www.w3.org/2000/svg">
<g clip-path="url(#clip0_301_9132)">
<path d="M48.99 12.31V24.73C48.99 54.5 48.33 67.84 43.39 78.3C39.39 86.76 32.81 89.16 24.02 89.16C3.23998 89.16 -0.780017 66.86 0.519983 46.55H17.58C17.58 51.72 16.06 60.19 25.94 60.19C34.94 60.19 34.6 44.56 35.28 33.04C35.47 29.83 36.4 24.17 39.39 20.51C42.6 16.58 46.12 13.96 48.99 12.31Z" fill="#962C2E"/>
<path d="M61.3098 8.80005L61.0298 21.66V141.82H42.0598V135.57C34.0898 128.95 30.3798 122.2 29.0598 116.08L28.4498 110.5C28.4198 99.84 34.7398 92.26 34.7298 92.8L35.0898 45.89C35.0898 42.68 34.6398 31.39 36.6698 25.67C38.2598 21.21 42.9798 16.73 43.1698 16.55V16.54C43.1698 16.54 46.1198 13.89 48.7398 12.43C55.3898 8.74005 58.0098 8.80005 61.3098 8.80005Z" fill="#B32D3E"/>
<path d="M62.2197 9.36005H60.4097V141.83H62.2197V9.36005Z" fill="#F9364D"/>
<path d="M47.0102 100.9L46.0202 101.83L29.0602 116.08L28.4502 110.5C31.1202 107.77 43.2202 97.13 43.2202 97.13C43.5702 96.79 44.1302 96.79 44.4502 97.13L47.0102 99.69C47.3502 100.01 47.3502 100.57 47.0102 100.9Z" fill="#B32D3E"/>
<path d="M63.7901 141.23V146.1C63.7901 147.75 63.2101 149.11 62.5101 149.11H42.3301C41.6301 149.11 41.0601 147.75 41.0601 146.1V141.23C41.0601 139.58 41.6301 138.22 42.3301 138.22H62.5101C63.2101 138.22 63.7901 139.58 63.7901 141.23Z" fill="#B9B0B1"/>
<path d="M136.83 127.34C135.79 88.4601 128.44 56.5201 125.19 44.14C123.66 38.33 121.25 32.77 117.81 27.84C105.3 9.94005 87.7101 9.36005 87.7101 9.36005L86.8101 141.77L107.34 141.89V136.3C111.84 132.67 115.35 128.28 117.54 123.41C117.78 125.89 117.92 127.35 117.92 127.35H136.83V127.34Z" fill="#F9364D"/>
<path d="M87.7099 9.36005H85.8999V141.83H87.7099V9.36005Z" fill="#B32D3E"/>
<path d="M91.9899 70.5C93.2602 70.5 94.2899 69.4703 94.2899 68.2C94.2899 66.9298 93.2602 65.9 91.9899 65.9C90.7197 65.9 89.6899 66.9298 89.6899 68.2C89.6899 69.4703 90.7197 70.5 91.9899 70.5Z" fill="#B32D3E"/>
<path d="M91.9899 53.38C93.2602 53.38 94.2899 52.3503 94.2899 51.08C94.2899 49.8098 93.2602 48.78 91.9899 48.78C90.7197 48.78 89.6899 49.8098 89.6899 51.08C89.6899 52.3503 90.7197 53.38 91.9899 53.38Z" fill="#B32D3E"/>
<path d="M91.9899 88.9101C93.2602 88.9101 94.2899 87.8803 94.2899 86.6101C94.2899 85.3398 93.2602 84.3101 91.9899 84.3101C90.7197 84.3101 89.6899 85.3398 89.6899 86.6101C89.6899 87.8803 90.7197 88.9101 91.9899 88.9101Z" fill="#B32D3E"/>
<path d="M108.9 141.23V146.1C108.9 147.75 108.39 149.11 107.76 149.11H86.7101C86.0901 149.11 85.5801 147.75 85.5801 146.1V141.23C85.5801 139.58 86.0901 138.22 86.7101 138.22H107.76C108.39 138.22 108.9 139.58 108.9 141.23Z" fill="#FDF6F8"/>
<path d="M94.9299 138.22V149.1H85.5799C84.9299 149.1 84.3999 147.74 84.3999 146.09V141.22C84.3999 139.57 84.9299 138.21 85.5799 138.21H94.9299V138.22Z" fill="#B9B0B1"/>
<path d="M119.63 105.85V113.41L104.27 98.56C103.93 98.23 103.93 97.67 104.27 97.35L106.84 94.78C107.17 94.44 107.73 94.44 108.07 94.78L119.63 105.85Z" fill="#B32D3E"/>
<path d="M108.9 66.53V90.67C108.9 90.67 114.89 95.35 119.63 105.85L108.9 66.53Z" fill="#B32D3E"/>
<path d="M62.3398 1.76001V42.2H57.0798C53.7598 42.2 51.0698 39.51 51.0698 36.19V14.22C51.0698 10.09 53.3898 6.31001 57.0698 4.44001L62.3398 1.76001Z" fill="#FDF6F8"/>
<path d="M97.1099 35.33C97.1099 38.64 94.4199 41.33 91.1099 41.33H85.4199L85.8299 0.900024L91.1099 3.57002C94.7999 5.45002 97.1099 9.22002 97.1099 13.35V35.33Z" fill="#FDF6F8"/>
</g>
<defs>
<clipPath id="clip0_301_9132">
<rect width="136.53" height="148.2" fill="white" transform="translate(0.299805 0.900024)"/>
</clipPath>
</defs>
</svg>
