<svg width="136" height="143" viewBox="0 0 136 143" fill="none" xmlns="http://www.w3.org/2000/svg">
<path d="M50.0198 17.02C50.0198 17.02 43.3998 20.54 43.3998 29.69L43.3098 54.52C43.2898 59.83 41.9598 69.14 33.2098 68.91C23.0898 68.64 23.7498 53.83 23.7498 52.71C23.7498 51.81 23.7598 45.28 23.7598 45.28H9.44981C9.44981 45.28 9.39981 51.73 9.38981 52.82C9.32981 59.02 10.4298 81.6 27.7598 85.13C38.9398 87.41 46.6598 82.7 47.6398 81.88L50.0198 17.02Z" fill="#962C2E"/>
<path d="M65.5296 22.8301L65.7997 11.2201C62.6797 11.2201 58.0397 12.3401 54.1497 14.4001C50.8597 16.1401 48.6896 17.9501 48.6896 17.9501L47.6396 80.2701V80.2801V102.22V126.05H48.7896H65.5296V22.8301Z" fill="#B32D3E"/>
<path d="M64.9399 136.16V33.86H66.6499V132.94L64.9399 136.16Z" fill="#F9364D"/>
<path d="M64.6797 136.17V33.87H66.3897V132.95L64.6797 136.17Z" fill="#F9364D"/>
<path d="M67.8599 128.74V133.33C67.8599 134.89 67.3199 136.17 66.6499 136.17H47.6199C46.9599 136.17 46.4199 134.89 46.4199 133.33V128.74C46.4199 127.18 46.9599 125.9 47.6199 125.9H66.6499C67.3099 125.9 67.8599 127.18 67.8599 128.74Z" fill="#B9B0B1"/>
<path d="M66.68 6.79004V36.02H62.88C60.48 36.02 58.54 34.08 58.54 31.68V15.8C58.54 12.82 60.22 10.08 62.88 8.73004L66.68 6.79004Z" fill="#FDF6F8"/>
<path d="M127.25 124.31H113.23C113.23 124.31 109.48 80.78 104.73 65.15C104.22 63.49 103.72 62.12 103.26 61.13V127.26L83.8896 127.15L84.7396 11.23C84.7396 11.23 91.4697 11.66 99.2297 16.27C100.28 16.89 101.37 17.66 102.48 18.62C103.02 19.05 103.56 19.56 104.11 20.1C107.89 23.85 111.75 29.72 114.83 38.83C114.82 38.82 125.99 77.02 127.25 124.31Z" fill="#F9364D"/>
<path d="M84.7398 136.16L83.0298 132.6V33.86H84.7398V136.16Z" fill="#962C2E"/>
<path d="M104.45 128.74V133.33C104.45 134.89 103.97 136.17 103.38 136.17H83.5197C82.9297 136.17 82.4497 134.89 82.4497 133.33V128.74C82.4497 127.18 82.9297 125.9 83.5197 125.9H103.38C103.97 125.9 104.45 127.18 104.45 128.74Z" fill="#FDF6F8"/>
<path d="M91.2697 125.9V136.16H83.5697C82.9497 136.16 82.4497 134.88 82.4497 133.32V128.73C82.4497 127.17 82.9497 125.89 83.5697 125.89H91.2697V125.9Z" fill="#B9B0B1"/>
<path d="M104.72 65.1401L103.25 61.1201L102.71 34.9601L90.9399 24.6701V22.5601L102.68 32.8001L102.47 18.6001C103.01 19.0301 103.55 19.5401 104.1 20.0801L104.72 65.1401Z" fill="#962C2E"/>
<path d="M90.9396 31.68C90.9396 34.07 88.9895 36.02 86.5995 36.02H82.7896V6.79004L86.5995 8.72004C89.2595 10.08 90.9396 12.8 90.9396 15.79V31.68Z" fill="#FDF6F8"/>
<path d="M88.7799 54.9101C89.9783 54.9101 90.9499 53.9385 90.9499 52.7401C90.9499 51.5416 89.9783 50.5701 88.7799 50.5701C87.5814 50.5701 86.6099 51.5416 86.6099 52.7401C86.6099 53.9385 87.5814 54.9101 88.7799 54.9101Z" fill="#B32D3E"/>
<path d="M88.7799 71.4101C89.9783 71.4101 90.9499 70.4385 90.9499 69.2401C90.9499 68.0416 89.9783 67.0701 88.7799 67.0701C87.5814 67.0701 86.6099 68.0416 86.6099 69.2401C86.6099 70.4385 87.5814 71.4101 88.7799 71.4101Z" fill="#B32D3E"/>
<path d="M88.7799 87.9001C89.9783 87.9001 90.9499 86.9285 90.9499 85.7301C90.9499 84.5316 89.9783 83.5601 88.7799 83.5601C87.5814 83.5601 86.6099 84.5316 86.6099 85.7301C86.6099 86.9285 87.5814 87.9001 88.7799 87.9001Z" fill="#B32D3E"/>
<path d="M62.3596 98.07L47.6396 111.92V104.79L58.7896 94.51C59.1096 94.19 59.6396 94.19 59.9496 94.51L62.3696 96.93C62.6796 97.23 62.6796 97.76 62.3596 98.07Z" fill="#F9364D"/>
<path d="M103.26 104.95V112.08L88.7698 98.07C88.4498 97.76 88.4498 97.23 88.7698 96.93L91.1898 94.51C91.4998 94.19 92.0298 94.19 92.3498 94.51L103.26 104.95Z" fill="#B32D3E"/>
</svg>
