<svg width="119" height="130" viewBox="0 0 119 130" fill="none" xmlns="http://www.w3.org/2000/svg">
<g clip-path="url(#clip0_301_1786)">
<path d="M41.4104 10.53C41.4104 10.53 34.7904 14.05 34.7904 23.2L34.7004 48.03C34.6804 53.34 33.3504 62.65 24.6004 62.42C14.4804 62.15 15.1404 47.34 15.1404 46.22C15.1404 45.32 15.1504 38.79 15.1504 38.79H0.840437C0.840437 38.79 0.790437 45.24 0.780437 46.33C0.720437 52.53 1.82044 73.52 19.1504 77.05C30.3304 79.33 38.0504 74.62 39.0304 73.8L41.4104 10.53Z" fill="#962C2E"/>
<path d="M56.9305 16.35L57.2005 4.73999C54.0805 4.73999 49.4405 5.85999 45.5505 7.91999C42.2605 9.65999 40.0905 11.47 40.0905 11.47L39.0405 73.79V73.8V95.74V119.57H40.1905H56.9305V16.35Z" fill="#B32D3E"/>
<path d="M56.3403 129.68V27.38H58.0403V126.46L56.3403 129.68Z" fill="#F9364D"/>
<path d="M56.0703 129.69V27.38H57.7803V126.46L56.0703 129.69Z" fill="#F9364D"/>
<path d="M59.2505 122.25V126.84C59.2505 128.4 58.7105 129.68 58.0405 129.68H39.0105C38.3505 129.68 37.8105 128.4 37.8105 126.84V122.25C37.8105 120.69 38.3505 119.41 39.0105 119.41H58.0405C58.7105 119.42 59.2505 120.7 59.2505 122.25Z" fill="#B9B0B1"/>
<path d="M58.0707 0.309998V29.54H54.2707C51.8707 29.54 49.9307 27.6 49.9307 25.2V9.31C49.9307 6.33 51.6107 3.59 54.2707 2.24L58.0707 0.309998Z" fill="#FDF6F8"/>
<path d="M118.641 116.02H104.621C104.621 116.02 100.871 74.29 96.1208 58.66C95.6108 57 95.1108 55.63 94.6508 54.64V120.77L75.2808 120.66L76.1308 4.73999C76.1308 4.73999 82.8608 5.16999 90.6208 9.77999C91.6708 10.4 92.7608 11.17 93.8708 12.13C94.4108 12.56 94.9508 13.07 95.5008 13.61C99.2808 17.36 103.141 23.23 106.221 32.34C106.221 32.34 117.381 68.73 118.641 116.02Z" fill="#F9364D"/>
<path d="M76.1304 129.68L74.4204 126.12V27.38H76.1304V129.68Z" fill="#962C2E"/>
<path d="M95.8506 122.25V126.84C95.8506 128.4 95.3706 129.68 94.7806 129.68H74.9206C74.3306 129.68 73.8506 128.4 73.8506 126.84V122.25C73.8506 120.69 74.3306 119.41 74.9206 119.41H94.7806C95.3606 119.42 95.8506 120.7 95.8506 122.25Z" fill="#FDF6F8"/>
<path d="M82.6706 119.42V129.68H74.9706C74.3506 129.68 73.8506 128.4 73.8506 126.84V122.25C73.8506 120.69 74.3506 119.41 74.9706 119.41H82.6706V119.42Z" fill="#B9B0B1"/>
<path d="M96.1206 58.66L94.6506 54.64L94.1106 28.48L82.3306 18.19V16.08L94.0806 26.32L93.8706 12.12C94.4106 12.55 94.9506 13.06 95.5006 13.6L96.1206 58.66Z" fill="#962C2E"/>
<path d="M82.3307 25.2C82.3307 27.59 80.3807 29.54 77.9907 29.54H74.1807V0.309998L77.9907 2.24C80.6507 3.6 82.3307 6.32 82.3307 9.31V25.2Z" fill="#FDF6F8"/>
<path d="M80.1705 48.43C81.3689 48.43 82.3405 47.4584 82.3405 46.26C82.3405 45.0615 81.3689 44.09 80.1705 44.09C78.972 44.09 78.0005 45.0615 78.0005 46.26C78.0005 47.4584 78.972 48.43 80.1705 48.43Z" fill="#B32D3E"/>
<path d="M80.1705 64.92C81.3689 64.92 82.3405 63.9485 82.3405 62.75C82.3405 61.5516 81.3689 60.58 80.1705 60.58C78.972 60.58 78.0005 61.5516 78.0005 62.75C78.0005 63.9485 78.972 64.92 80.1705 64.92Z" fill="#B32D3E"/>
<path d="M80.1705 81.42C81.3689 81.42 82.3405 80.4485 82.3405 79.25C82.3405 78.0516 81.3689 77.08 80.1705 77.08C78.972 77.08 78.0005 78.0516 78.0005 79.25C78.0005 80.4485 78.972 81.42 80.1705 81.42Z" fill="#B32D3E"/>
<path d="M53.7605 91.58L39.0405 105.43V98.31L50.1805 88.02C50.5005 87.7 51.0305 87.7 51.3405 88.02L53.7605 90.44C54.0805 90.75 54.0805 91.27 53.7605 91.58Z" fill="#F9364D"/>
<path d="M94.6504 98.47V105.6L80.1604 91.59C79.8404 91.28 79.8404 90.75 80.1604 90.45L82.5804 88.03C82.8904 87.71 83.4204 87.71 83.7404 88.03L94.6504 98.47Z" fill="#B32D3E"/>
</g>
<defs>
<clipPath id="clip0_301_1786">
<rect width="117.86" height="129.38" fill="white" transform="translate(0.780273 0.309998)"/>
</clipPath>
</defs>
</svg>
