<svg width="139" height="140" viewBox="0 0 139 140" fill="none" xmlns="http://www.w3.org/2000/svg">
<g clip-path="url(#clip0_301_9202)">
<path d="M138.94 124.57H120.03C120.03 124.57 119.89 123.11 119.65 120.63C117.47 125.51 113.96 129.89 109.46 133.52V139.11L71.5 138.99L70.46 70.13L72.15 43.63L89.82 6.59003C89.82 6.59003 100.42 6.94003 111.01 15.47C111.5 15.86 111.99 16.28 112.48 16.7C115.04 18.96 117.57 21.72 119.92 25.08C123.36 30 125.78 35.56 127.3 41.37C129.54 49.89 133.71 67.66 136.43 90.58C136.67 92.53 136.89 94.51 137.1 96.53C137.22 97.71 137.34 98.9 137.45 100.1C137.64 102.06 137.81 104.04 137.96 106.05C138.06 107.23 138.14 108.42 138.22 109.62C138.36 111.58 138.48 113.56 138.58 115.57C138.74 118.52 138.86 121.52 138.94 124.57Z" fill="#E0DB99"/>
<path d="M76.6701 84.83C77.9404 84.83 78.9701 83.8003 78.9701 82.53C78.9701 81.2598 77.9404 80.23 76.6701 80.23C75.3999 80.23 74.3701 81.2598 74.3701 82.53C74.3701 83.8003 75.3999 84.83 76.6701 84.83Z" fill="#353C59"/>
<path d="M76.6701 96.5C77.9404 96.5 78.9701 95.4703 78.9701 94.2C78.9701 92.9298 77.9404 91.9 76.6701 91.9C75.3999 91.9 74.3701 92.9298 74.3701 94.2C74.3701 95.4703 75.3999 96.5 76.6701 96.5Z" fill="#353C59"/>
<path d="M76.6701 108.55C77.9404 108.55 78.9701 107.52 78.9701 106.25C78.9701 104.98 77.9404 103.95 76.6701 103.95C75.3999 103.95 74.3701 104.98 74.3701 106.25C74.3701 107.52 75.3999 108.55 76.6701 108.55Z" fill="#353C59"/>
<path d="M76.6701 122.43C77.9404 122.43 78.9701 121.4 78.9701 120.13C78.9701 118.86 77.9404 117.83 76.6701 117.83C75.3999 117.83 74.3701 118.86 74.3701 120.13C74.3701 121.4 75.3999 122.43 76.6701 122.43Z" fill="#353C59"/>
<path d="M111.01 63.75V87.89C111.01 87.89 117 92.57 121.74 103.07L111.01 63.75Z" fill="#7A7330"/>
<path d="M49.54 9.88V22.3C49.54 52.08 48.88 65.42 43.94 75.88C39.95 84.34 33.36 86.74 24.58 86.74C13.4 86.74 7.00997 79.93 3.68997 70.48C3.15997 68.96 2.70997 67.38 2.32997 65.75C1.90997 63.98 1.57997 62.15 1.32997 60.28C1.11997 58.74 0.959968 57.17 0.849968 55.59C0.769968 54.4 0.709968 53.21 0.679968 52.02C0.629968 50.32 0.629968 48.61 0.669968 46.92C0.699968 45.57 0.759968 44.22 0.849968 42.89H17.91C17.91 44.06 17.97 45.45 18.15 46.92C18.35 48.61 18.71 50.4 19.32 52.02C19.38 52.19 19.45 52.35 19.51 52.52C20.07 53.84 20.8 55.03 21.76 55.94C21.97 56.15 22.2 56.34 22.44 56.5C23.52 57.3 24.85 57.77 26.49 57.77C27.11 57.77 27.69 57.68 28.22 57.51C34.74 55.43 35.2 41.27 35.83 30.62C36.02 27.42 36.95 21.75 39.94 18.09C43.15 14.16 46.67 11.53 49.54 9.88Z" fill="#474322"/>
<path d="M71.3101 67.91L71.6201 131.91L66.3701 139.11H41.2301V132.86C33.2601 126.24 29.5501 119.49 28.2301 113.37L28.1501 112.68L27.6201 107.79C27.6201 107.51 27.6201 107.23 27.6401 106.96C27.9201 96.74 33.9101 89.56 33.9001 90.09L34.2601 43.18C34.2601 39.97 33.8101 28.68 35.8401 22.96C37.4301 18.5 42.1501 14.02 42.3401 13.84V13.83C42.3401 13.83 45.2901 11.18 47.9101 9.72003C54.5601 6.03003 57.1801 6.09003 60.4801 6.09003L60.2001 18.95L74.1701 37.18L71.3101 67.91Z" fill="#7A7330"/>
<path d="M78.5501 36.93C70.4701 39.84 60.9001 33.97 57.0901 23.77C54.3001 16.29 55.3701 8.55001 59.3101 3.72001C60.2901 2.52001 62.2101 2.78001 62.8801 4.18001L78.5501 36.93Z" fill="#B7AFB0"/>
<path d="M89.9402 1.47002C88.8202 0.420023 86.9902 0.840023 86.4602 2.28002L75.3602 24.7C73.2002 29.06 72.3702 33.9 72.4502 38.76L72.0702 39.65C68.1102 55.48 69.1902 73.87 69.1902 73.87C75.9502 72.42 81.7702 65.64 84.3902 53.99C85.3702 49.64 81.7202 45.65 77.9002 43.11C85.5202 40.64 92.9302 34.54 95.6502 24.62C98.3402 14.84 95.6902 6.85002 89.9402 1.47002Z" fill="#FCF4F6"/>
<path d="M19.32 52.02H0.679968C0.629968 50.32 0.629968 48.61 0.669968 46.92H18.15C18.35 48.61 18.71 50.4 19.32 52.02Z" fill="#7A7330"/>
<path d="M21.7598 55.94L1.57984 62C1.36984 60.46 0.949844 57.17 0.839844 55.59L19.4998 52.52C20.0698 53.84 20.7998 55.03 21.7598 55.94Z" fill="#7A7330"/>
<path d="M28.2201 57.51L4.83008 73.35C3.78008 71.45 2.71008 67.38 2.33008 65.75L22.4401 56.5C23.5201 57.3 24.8501 57.77 26.4901 57.77C27.1101 57.77 27.6901 57.68 28.2201 57.51Z" fill="#7A7330"/>
<path d="M138.58 115.57H121.57C122.01 113.67 122.25 111.68 122.26 109.62H138.22C138.36 111.58 138.48 113.56 138.58 115.57Z" fill="#7A7330"/>
<path d="M137.96 106.05H122.07C121.84 103.97 121.37 101.98 120.69 100.1H137.45C137.64 102.06 137.81 104.04 137.96 106.05Z" fill="#7A7330"/>
<path d="M137.1 96.53H119.12C118.69 95.72 118.22 94.94 117.7 94.2V90.58H136.43C136.67 92.53 136.89 94.51 137.1 96.53Z" fill="#7A7330"/>
</g>
<defs>
<clipPath id="clip0_301_9202">
<rect width="138.3" height="138.22" fill="white" transform="translate(0.640137 0.890015)"/>
</clipPath>
</defs>
</svg>
