<svg width="120" height="142" viewBox="0 0 120 142" fill="none" xmlns="http://www.w3.org/2000/svg">
<g clip-path="url(#clip0_301_14707)">
<path d="M41.1498 9.47009C41.1498 9.47009 34.7398 13.1701 34.7398 22.7701L34.6498 48.8601C34.6298 54.4401 33.3398 64.2201 24.8698 63.9701C15.0698 63.6901 15.7098 48.1301 15.7098 46.9501C15.7098 46.0001 15.7198 39.1401 15.7198 39.1401H1.85979C1.85979 39.1401 1.81979 45.9101 1.80979 47.0601C1.74979 53.5701 2.81979 75.6201 19.5998 79.3301C30.4298 81.7301 37.8998 76.7701 38.8498 75.9101L41.1498 9.47009Z" fill="#272F38"/>
<path d="M56.1696 15.5801L56.4296 3.38007C53.4096 3.38007 48.3296 4.48007 44.5596 6.65007C41.3796 8.48007 39.8596 10.4501 39.8596 10.4501L38.8496 75.9101V75.9201V98.9701V134.63H56.1796V15.5801H56.1696Z" fill="#39485B"/>
<path d="M57.2496 3.38007H55.5996V134.63H57.2496V3.38007Z" fill="#272F38"/>
<path d="M115.93 120.28H102.35C102.35 120.28 98.7197 76.4501 94.1197 60.0301C93.6297 58.2901 93.1497 56.8501 92.6997 55.8101V134.7L73.9497 134.58L74.7597 3.38007C74.7597 3.38007 81.2797 3.83007 88.7897 8.68007C89.8097 9.33007 90.8597 10.1401 91.9397 11.1401C92.4697 11.5901 92.9897 12.1301 93.5197 12.7001C97.1797 16.6401 100.92 22.8101 103.9 32.3701C103.89 32.3801 114.71 70.6101 115.93 120.28Z" fill="#92AED6"/>
<path d="M74.7599 3.38007H73.1099V134.63H74.7599V3.38007Z" fill="#39485B"/>
<path d="M94.1198 60.0301L92.6998 55.8101L92.1698 28.3301L74.7598 13.3601V11.1501L92.1398 26.0601L91.9398 11.1401C92.4698 11.5901 92.9898 12.1301 93.5198 12.7001L94.1198 60.0301Z" fill="#39485B"/>
<path d="M78.6698 63.95C79.8296 63.95 80.7698 62.9337 80.7698 61.68C80.7698 60.4263 79.8296 59.41 78.6698 59.41C77.51 59.41 76.5698 60.4263 76.5698 61.68C76.5698 62.9337 77.51 63.95 78.6698 63.95Z" fill="#FCF4F6"/>
<path d="M78.6698 47.0001C79.8296 47.0001 80.7698 45.9838 80.7698 44.7301C80.7698 43.4764 79.8296 42.4601 78.6698 42.4601C77.51 42.4601 76.5698 43.4764 76.5698 44.7301C76.5698 45.9838 77.51 47.0001 78.6698 47.0001Z" fill="#FCF4F6"/>
<path d="M78.6698 82.19C79.8296 82.19 80.7698 81.1737 80.7698 79.92C80.7698 78.6663 79.8296 77.65 78.6698 77.65C77.51 77.65 76.5698 78.6663 76.5698 79.92C76.5698 81.1737 77.51 82.19 78.6698 82.19Z" fill="#FCF4F6"/>
<path d="M57.5096 33.7601C57.4996 35.6901 55.6596 36.9901 54.0396 36.2001C48.3796 33.4601 44.5996 26.0101 45.4296 17.3501C46.1496 9.78006 50.0196 3.63005 54.9996 1.17005C56.2396 0.560054 57.6496 1.59005 57.6296 3.07005L57.5096 33.7601Z" fill="#272F38"/>
<path d="M72.4296 32.8801C72.3996 34.8101 74.2096 36.1501 75.8496 35.4001C81.5596 32.8001 85.4896 25.4301 84.8396 16.7601C84.2696 9.18006 80.5296 2.93006 75.5996 0.36006C74.3696 -0.27994 72.9396 0.72006 72.9296 2.20006L72.4296 32.8801Z" fill="#39485B"/>
<path d="M53.0998 93.5601L38.8398 108.11V100.62L49.6398 89.8201C49.9498 89.4801 50.4598 89.4801 50.7598 89.8201L53.0998 92.3601C53.4098 92.6801 53.4098 93.2401 53.0998 93.5601Z" fill="#92AED6"/>
<path d="M92.7002 100.79V108.28L78.6602 93.5601C78.3502 93.2401 78.3502 92.6801 78.6602 92.3601L81.0002 89.8201C81.3002 89.4801 81.8102 89.4801 82.1202 89.8201L92.7002 100.79Z" fill="#39485B"/>
<path d="M117.9 124.35H100.48C99.5298 124.35 98.7598 123.57 98.7598 122.63V114.87C98.7598 113.92 99.5398 113.15 100.48 113.15H117.9C118.85 113.15 119.62 113.93 119.62 114.87V122.63C119.62 123.58 118.85 124.35 117.9 124.35Z" fill="#39485B"/>
<path d="M16.19 47.9101H1.72C0.78 47.9101 0 47.1301 0 46.1801V38.4201C0 37.4701 0.78 36.7001 1.72 36.7001H16.19C17.14 36.7001 17.91 37.4801 17.91 38.4201V46.1801C17.91 47.1301 17.14 47.9101 16.19 47.9101Z" fill="#39485B"/>
<path d="M58.6799 134.04V138.86C58.6799 140.5 58.1499 141.84 57.5099 141.84H39.0799C38.4399 141.84 37.9199 140.5 37.9199 138.86V134.04C37.9199 132.4 38.4399 131.06 39.0799 131.06H57.5099C58.1499 131.06 58.6799 132.41 58.6799 134.04Z" fill="#92AED6"/>
<path d="M94.1198 134.04V138.86C94.1198 140.5 93.6498 141.84 93.0798 141.84H73.8498C73.2798 141.84 72.8198 140.5 72.8198 138.86V134.04C72.8198 132.4 73.2798 131.06 73.8498 131.06H93.0798C93.6498 131.06 94.1198 132.41 94.1198 134.04Z" fill="#272F38"/>
<path d="M81.35 131.06V141.84H72.81C72.21 141.84 71.73 140.5 71.73 138.86V134.04C71.73 132.4 72.21 131.06 72.81 131.06H81.35Z" fill="#39485B"/>
</g>
<defs>
<clipPath id="clip0_301_14707">
<rect width="119.62" height="141.68" fill="white" transform="translate(0 0.160034)"/>
</clipPath>
</defs>
</svg>
