<svg width="127" height="124" viewBox="0 0 127 124" fill="none" xmlns="http://www.w3.org/2000/svg">
<g clip-path="url(#clip0_301_11781)">
<path d="M45.7001 7.91003V30.22C45.7001 56.53 45.1101 68.32 40.7501 77.56C37.2201 85.04 31.4001 87.16 23.6401 87.16C5.27007 87.16 1.73007 73.81 2.87007 55.86H18.7001C18.7001 60.43 19.3901 61.56 25.3301 61.56C33.2901 61.56 32.9801 36.41 33.5901 26.23C33.7601 23.4 34.5801 18.39 37.2201 15.16C40.0501 11.68 43.1601 9.36003 45.7001 7.91003Z" fill="#272F38"/>
<path d="M58.1602 3.47999L57.9102 14.84V121.03H41.1502V115.51C34.1102 109.66 30.8302 103.69 29.6602 98.29L29.1202 93.36C29.0902 83.94 34.6802 77.24 34.6702 77.72L34.9902 36.27C34.9902 33.43 34.5902 23.46 36.3902 18.4C37.8002 14.46 41.9702 10.5 42.1302 10.34V10.32C42.1302 10.32 44.7402 7.97999 47.0502 6.68999C52.9302 3.41999 55.2402 3.47999 58.1602 3.47999Z" fill="#39485B"/>
<path d="M58.9604 3.96997H57.3604V121.03H58.9604V3.96997Z" fill="#272F38"/>
<path d="M60.6001 29.25C60.5901 30.97 58.8101 32.13 57.2401 31.43C51.7601 28.99 48.1101 22.34 48.9101 14.61C49.6101 7.85998 53.3501 2.36998 58.1701 0.179981C59.3701 -0.370019 60.7401 0.559981 60.7201 1.87998L60.6001 29.25Z" fill="#272F38"/>
<path d="M45.5201 84.87L44.6501 85.69L29.6601 98.28L29.1201 93.35C31.4801 90.94 42.1701 81.53 42.1701 81.53C42.4801 81.23 42.9701 81.23 43.2601 81.53L45.5201 83.79C45.8201 84.08 45.8201 84.57 45.5201 84.87Z" fill="#92AED6"/>
<path d="M17.8501 60.45H2.3201C1.3801 60.45 0.600098 59.68 0.600098 58.73V56.95C0.600098 56 1.3801 55.23 2.3201 55.23H17.8501C18.8001 55.23 19.5701 56.01 19.5701 56.95V58.73C19.5801 59.68 18.8001 60.45 17.8501 60.45Z" fill="#39485B"/>
<path d="M60.3503 120.5V121.32C60.3503 122.78 59.8403 123.98 59.2203 123.98H41.3803C40.7603 123.98 40.2603 122.78 40.2603 121.32V120.5C40.2603 119.04 40.7603 117.84 41.3803 117.84H59.2103C59.8403 117.84 60.3503 119.04 60.3503 120.5Z" fill="#92AED6"/>
<path d="M124.98 105.51C124.06 71.15 117.48 45.64 114.61 34.71C113.26 29.57 111.12 24.66 108.08 20.31C97.0302 4.48003 81.4902 3.97003 81.4902 3.97003L80.7002 120.98L98.8502 121.08V116.14C102.83 112.93 105.93 109.06 107.86 104.75C107.88 104.95 108.3 105.51 108.3 105.51H124.98Z" fill="#92AED6"/>
<path d="M81.4901 3.97003H79.8901V121.03H81.4901V3.97003Z" fill="#39485B"/>
<path d="M85.2702 57.99C86.3914 57.99 87.3002 57.0811 87.3002 55.96C87.3002 54.8389 86.3914 53.93 85.2702 53.93C84.1491 53.93 83.2402 54.8389 83.2402 55.96C83.2402 57.0811 84.1491 57.99 85.2702 57.99Z" fill="#FCF4F6"/>
<path d="M85.2702 42.87C86.3914 42.87 87.3002 41.9611 87.3002 40.84C87.3002 39.7189 86.3914 38.81 85.2702 38.81C84.1491 38.81 83.2402 39.7189 83.2402 40.84C83.2402 41.9611 84.1491 42.87 85.2702 42.87Z" fill="#FCF4F6"/>
<path d="M85.2702 74.26C86.3914 74.26 87.3002 73.3511 87.3002 72.23C87.3002 71.1089 86.3914 70.2 85.2702 70.2C84.1491 70.2 83.2402 71.1089 83.2402 72.23C83.2402 73.3511 84.1491 74.26 85.2702 74.26Z" fill="#FCF4F6"/>
<path d="M76.08 29.2C76.05 30.92 77.8 32.12 79.39 31.45C84.92 29.13 88.72 22.56 88.09 14.82C87.54 8.06001 83.91 2.49001 79.15 0.19001C77.96 -0.37999 76.58 0.51001 76.57 1.83001L76.08 29.2Z" fill="#39485B"/>
<path d="M124.62 106.31H107.88C106.93 106.31 106.16 105.53 106.16 104.59V101.2C106.16 100.25 106.94 99.48 107.88 99.48H124.62C125.57 99.48 126.34 100.26 126.34 101.2V104.59C126.34 105.53 125.57 106.31 124.62 106.31Z" fill="#39485B"/>
<path d="M100.21 120.5V121.32C100.21 122.78 99.7599 123.98 99.2099 123.98H80.6099C80.0599 123.98 79.6099 122.78 79.6099 121.32V120.5C79.6099 119.04 80.0599 117.84 80.6099 117.84H99.2099C99.7599 117.84 100.21 119.04 100.21 120.5Z" fill="#272F38"/>
<path d="M87.8701 117.84V123.98H79.6101C79.0301 123.98 78.5601 122.78 78.5601 121.32V120.5C78.5601 119.04 79.0301 117.84 79.6101 117.84H87.8701Z" fill="#39485B"/>
<path d="M109.7 89.23V95.91L96.12 82.78C95.82 82.49 95.82 82 96.12 81.71L98.39 79.44C98.68 79.14 99.17 79.14 99.48 79.44L109.7 89.23Z" fill="#39485B"/>
<path d="M100.21 54.49V75.82C100.21 75.82 105.5 79.96 109.69 89.24L100.21 54.49Z" fill="#39485B"/>
</g>
<defs>
<clipPath id="clip0_301_11781">
<rect width="125.74" height="123.96" fill="white" transform="translate(0.600098 0.0200195)"/>
</clipPath>
</defs>
</svg>
