<svg width="119" height="126" viewBox="0 0 119 126" fill="none" xmlns="http://www.w3.org/2000/svg">
<g clip-path="url(#clip0_301_1755)">
<path d="M41.5501 7.84998C41.5501 7.84998 34.9301 11.37 34.9301 20.52L34.8401 45.35C34.8201 50.66 33.4901 59.97 24.7401 59.74C14.6201 59.47 15.2801 44.66 15.2801 43.54C15.2801 42.64 15.2901 36.11 15.2901 36.11H0.980085C0.980085 36.11 0.930085 42.56 0.920085 43.65C0.860085 49.85 1.96009 70.84 19.2901 74.37C30.4701 76.65 38.1901 71.94 39.1701 71.12L41.5501 7.84998Z" fill="#181C21"/>
<path d="M57.0702 13.67L57.3402 2.06C54.2202 2.06 49.5802 3.18 45.6902 5.24C42.4002 6.98 40.2302 8.79 40.2302 8.79L39.1802 71.11V71.12V93.06V125.41H57.0702V13.67Z" fill="#252C35"/>
<path d="M58.2102 25.79H55.9902V125.41H58.2102V25.79Z" fill="#272F38"/>
<path d="M118.78 113.34H104.76C104.76 113.34 101.01 71.61 96.2599 55.98C95.7499 54.32 95.2499 52.95 94.7899 51.96V125.46L75.4199 125.35L76.2699 2.04999C76.2699 2.04999 82.9999 2.47999 90.7599 7.08999C91.8099 7.70999 92.8999 8.47999 94.0099 9.43999C94.5499 9.86999 95.0899 10.38 95.6399 10.92C99.4199 14.67 103.28 20.54 106.36 29.65C106.36 29.66 117.52 66.06 118.78 113.34Z" fill="#91969B"/>
<path d="M76.2701 24.7H74.5601V125.41H76.2701V24.7Z" fill="#181C21"/>
<path d="M96.2602 55.98L94.7902 51.96L94.2502 25.8L82.4702 15.51V13.4L94.2202 23.64L94.0102 9.44C94.5502 9.87 95.0902 10.38 95.6402 10.92L96.2602 55.98Z" fill="#181C21"/>
<path d="M60.8702 2.63998C60.8002 7.73998 60.6702 26.6 60.5002 38.67C60.4802 39.82 59.0402 40.39 58.1002 39.7L46.9302 27.18C46.1402 26.6 45.7302 25.65 45.8602 24.69L50.5002 8.57998C50.9202 5.60998 53.3802 3.19998 56.2102 2.07998L58.6202 1.12998C59.7102 0.699978 60.8902 1.49998 60.8702 2.63998Z" fill="#181C21"/>
<path d="M73.6899 3.03C73.6999 1.72 74.7199 0.62 76.0299 0.54C79.6099 0.34 85.7599 3.95 86.4799 6.89L91.0399 19.92C91.4699 21.14 91.2699 22.48 90.4999 23.52C87.6899 27.35 80.2599 35.65 76.3099 40.01C75.3999 41.01 73.7399 40.37 73.7399 39.02C73.7199 30.06 73.6499 7.99 73.6899 3.03Z" fill="#181C21"/>
<path d="M53.9002 87.43L39.1802 101.28V94.15L50.3202 83.87C50.6402 83.55 51.1702 83.55 51.4802 83.87L53.9002 86.29C54.2202 86.59 54.2202 87.12 53.9002 87.43Z" fill="#91969B"/>
<path d="M94.7901 94.32V101.45L80.3001 87.43C79.9801 87.12 79.9801 86.59 80.3001 86.29L82.7201 83.87C83.0301 83.55 83.5601 83.55 83.8801 83.87L94.7901 94.32Z" fill="#252C35"/>
</g>
<defs>
<clipPath id="clip0_301_1755">
<rect width="117.86" height="124.94" fill="white" transform="translate(0.919922 0.530029)"/>
</clipPath>
</defs>
</svg>
