<svg width="124" height="136" viewBox="0 0 124 136" fill="none" xmlns="http://www.w3.org/2000/svg">
<g clip-path="url(#clip0_301_1708)">
<path d="M42.49 9.42999C42.49 9.42999 35.87 12.95 35.87 22.1L35.78 46.93C35.76 52.24 34.43 61.55 25.68 61.32C15.56 61.05 16.22 46.24 16.22 45.12C16.22 44.22 16.23 37.69 16.23 37.69H1.92003C1.92003 37.69 1.87003 44.14 1.86003 45.23C1.80003 51.41 2.90003 72.39 20.23 75.93C31.41 78.21 39.13 73.5 40.11 72.68L42.49 9.42999Z" fill="#272F38"/>
<path d="M58.0101 15.24L58.2801 3.63C55.1601 3.63 49.9201 4.68 46.0301 6.74C42.7401 8.48 41.1701 10.36 41.1701 10.36L40.1201 72.68V72.69V94.63V128.57H58.0101V15.24Z" fill="#39485B"/>
<path d="M59.1299 3.63H57.4199V128.57H59.1299V3.63Z" fill="#272F38"/>
<path d="M119.72 114.91H105.7C105.7 114.91 101.95 73.18 97.1999 57.55C96.6899 55.89 96.1899 54.52 95.7299 53.53V128.63L76.3599 128.52L77.2099 3.63C77.2099 3.63 83.9399 4.06 91.6999 8.67C92.7499 9.29 93.8399 10.06 94.9499 11.02C95.4899 11.45 96.0299 11.96 96.5799 12.5C100.36 16.25 104.22 22.12 107.3 31.23C107.3 31.23 118.46 67.63 119.72 114.91Z" fill="#92AED6"/>
<path d="M77.21 3.63H75.5V128.57H77.21V3.63Z" fill="#39485B"/>
<path d="M97.2 57.55L95.73 53.53L95.19 27.37L77.21 13.12V11.01L95.15 25.21L94.94 11.01C95.48 11.44 96.02 11.95 96.57 12.49L97.2 57.55Z" fill="#39485B"/>
<path d="M81.2501 61.3C82.4485 61.3 83.4201 60.3285 83.4201 59.13C83.4201 57.9316 82.4485 56.96 81.2501 56.96C80.0516 56.96 79.0801 57.9316 79.0801 59.13C79.0801 60.3285 80.0516 61.3 81.2501 61.3Z" fill="#FCF4F6"/>
<path d="M81.2501 45.16C82.4485 45.16 83.4201 44.1885 83.4201 42.99C83.4201 41.7916 82.4485 40.82 81.2501 40.82C80.0516 40.82 79.0801 41.7916 79.0801 42.99C79.0801 44.1885 80.0516 45.16 81.2501 45.16Z" fill="#FCF4F6"/>
<path d="M81.2501 78.66C82.4485 78.66 83.4201 77.6885 83.4201 76.49C83.4201 75.2915 82.4485 74.32 81.2501 74.32C80.0516 74.32 79.0801 75.2915 79.0801 76.49C79.0801 77.6885 80.0516 78.66 81.2501 78.66Z" fill="#FCF4F6"/>
<path d="M59.3902 32.55C59.3802 34.39 57.4802 35.62 55.8002 34.87C49.9502 32.26 46.0502 25.17 46.9102 16.92C47.6602 9.72 51.6502 3.86 56.8002 1.52C58.0802 0.94 59.5402 1.92 59.5202 3.33L59.3902 32.55Z" fill="#272F38"/>
<path d="M74.8002 31.71C74.7702 33.55 76.6402 34.82 78.3302 34.11C84.2302 31.63 88.2902 24.62 87.6102 16.36C87.0202 9.14 83.1502 3.19 78.0602 0.749995C76.7902 0.139995 75.3102 1.09 75.3002 2.49999L74.8002 31.71Z" fill="#39485B"/>
<path d="M54.8401 89.47L40.1201 103.32V96.19L51.2701 85.91C51.5901 85.59 52.1201 85.59 52.4301 85.91L54.8501 88.33C55.1601 88.64 55.1601 89.16 54.8401 89.47Z" fill="#92AED6"/>
<path d="M95.73 96.36V103.49L81.24 89.47C80.92 89.16 80.92 88.63 81.24 88.33L83.66 85.91C83.97 85.59 84.5 85.59 84.82 85.91L95.73 96.36Z" fill="#39485B"/>
<path d="M121.82 118.79H103.72C102.77 118.79 102 118.01 102 117.07V109.85C102 108.9 102.78 108.13 103.72 108.13H121.82C122.77 108.13 123.54 108.91 123.54 109.85V117.07C123.54 118.01 122.76 118.79 121.82 118.79Z" fill="#39485B"/>
<path d="M16.78 46.01H1.72C0.78 46.01 0 45.24 0 44.29V37.07C0 36.12 0.78 35.35 1.72 35.35H16.77C17.72 35.35 18.49 36.13 18.49 37.07V44.29C18.5 45.24 17.72 46.01 16.78 46.01Z" fill="#39485B"/>
<path d="M60.6002 128.01V132.6C60.6002 134.16 60.0602 135.44 59.3902 135.44H40.3602C39.7002 135.44 39.1602 134.16 39.1602 132.6V128.01C39.1602 126.45 39.7002 125.17 40.3602 125.17H59.4002C60.0602 125.17 60.6002 126.45 60.6002 128.01Z" fill="#92AED6"/>
<path d="M97.2002 128.01V132.6C97.2002 134.16 96.7202 135.44 96.1302 135.44H76.2702C75.6802 135.44 75.2002 134.16 75.2002 132.6V128.01C75.2002 126.45 75.6802 125.17 76.2702 125.17H96.1302C96.7102 125.17 97.2002 126.45 97.2002 128.01Z" fill="#272F38"/>
<path d="M84.0201 125.17V135.43H75.2001C74.5801 135.43 74.0801 134.15 74.0801 132.59V128C74.0801 126.44 74.5801 125.16 75.2001 125.16H84.0201V125.17Z" fill="#39485B"/>
</g>
<defs>
<clipPath id="clip0_301_1708">
<rect width="123.54" height="134.88" fill="white" transform="translate(0 0.559998)"/>
</clipPath>
</defs>
</svg>
