<svg width="123" height="132" viewBox="0 0 123 132" fill="none" xmlns="http://www.w3.org/2000/svg">
<g clip-path="url(#clip0_301_1811)">
<path d="M122.82 116.445H108.24C108.24 116.445 107.81 112.945 107.09 107.575C106.91 106.215 106.71 104.735 106.5 103.155C106.27 101.535 106.03 99.805 105.77 98.015C105.57 96.575 105.35 95.095 105.12 93.585C104.88 91.905 104.61 90.185 104.34 88.445C104.12 86.975 103.88 85.495 103.64 84.015C101.59 71.335 99.1296 58.695 96.9196 53.935V122.705H42.0796V121.455H60.6696V48.725L69.1996 31.865L72.2096 25.915L69.6296 22.865L70.2896 21.265L78.2196 2.03503C78.2196 2.03503 78.9396 2.08503 80.1996 2.33503C82.6996 2.81503 87.3496 4.08503 92.7296 7.27503C98.0496 10.435 104.34 17.095 108.94 30.745C108.94 30.745 116.27 52.045 120.32 84.015C120.5 85.465 120.68 86.945 120.85 88.445C121.04 90.135 121.22 91.845 121.39 93.585C121.54 95.045 121.67 96.515 121.8 98.015C121.94 99.705 122.07 101.415 122.19 103.155C122.29 104.615 122.38 106.085 122.46 107.575C122.62 110.485 122.74 113.435 122.82 116.445Z" fill="#E0DB99"/>
<path d="M43.3597 8.06506L40.8797 73.8451C39.8497 74.6951 31.8597 79.4451 20.1997 77.2251C12.5897 75.7751 7.91971 71.1151 5.08971 65.5151C4.53971 64.4351 4.05971 63.3251 3.64971 62.1851C2.91971 60.2251 2.36971 58.2051 1.96971 56.2151C1.71971 55.0051 1.52971 53.8151 1.37971 52.6451C1.11971 50.7451 0.989712 48.9251 0.919712 47.2551C0.859712 45.9551 0.849712 44.7351 0.869712 43.6551C0.909712 40.4951 1.15971 38.4451 1.15971 38.4451H16.0497C16.0497 38.4451 16.0397 41.0651 16.0397 43.6551C16.0397 44.9851 16.0397 46.3051 16.0497 47.2551C16.0597 47.8451 16.0697 48.3051 16.0797 48.5251C16.1197 49.3051 16.1497 50.2651 16.2397 51.3151C16.3297 52.4351 16.4897 53.6551 16.8097 54.8651C17.1097 56.0251 17.5697 57.1751 18.2397 58.1951C19.0097 59.3451 20.0497 60.3351 21.4997 61.0251C22.6697 61.5851 24.1097 61.9451 25.8797 62.0251C34.9697 62.4051 36.3597 52.5851 36.3797 47.0651L36.4697 21.2351C36.4697 14.4651 39.9597 10.6651 41.9697 9.03506C41.9697 9.03506 42.1897 8.85506 42.5997 8.54506C43.0697 8.22506 43.3597 8.06506 43.3597 8.06506Z" fill="#474322"/>
<path d="M69.6299 22.865L62.2299 14.105L59.7599 2.03503C56.5199 2.03503 51.6899 3.19503 47.6499 5.34503C44.2299 7.15503 41.9699 9.03503 41.9699 9.03503L40.8799 73.845V73.855V96.675V121.465H42.0799H60.6799V48.735L72.2099 25.925L69.6299 22.865Z" fill="#7A7330"/>
<path d="M75.6499 31.135C68.4599 34.145 59.5199 29.265 55.5899 20.195C52.7199 13.545 53.3299 6.48503 56.6699 1.92503C57.4999 0.785033 59.2599 0.935033 59.9299 2.17503L75.6499 31.135Z" fill="#B7AFB0"/>
<path d="M78.5201 0.555039C77.5001 -0.394961 75.8501 -0.014961 75.3601 1.28504L62.6701 34.335C62.6701 34.335 62.6601 34.355 62.6501 34.395L62.3001 35.195C56.2401 49.595 58.2701 65.875 58.2701 65.875C64.4101 64.555 71.3201 57.845 73.7001 47.275C74.5901 43.325 71.0501 40.645 67.5901 38.335C74.5101 36.095 81.2201 30.565 83.7001 21.555C86.1401 12.685 83.7401 5.43504 78.5201 0.555039Z" fill="#FCF4F6"/>
<path d="M65.6197 112.945C66.8182 112.945 67.7897 111.973 67.7897 110.775C67.7897 109.577 66.8182 108.605 65.6197 108.605C64.4213 108.605 63.4497 109.577 63.4497 110.775C63.4497 111.973 64.4213 112.945 65.6197 112.945Z" fill="#353C59"/>
<path d="M65.6197 87.1551C66.8182 87.1551 67.7897 86.1835 67.7897 84.9851C67.7897 83.7866 66.8182 82.8151 65.6197 82.8151C64.4213 82.8151 63.4497 83.7866 63.4497 84.9851C63.4497 86.1835 64.4213 87.1551 65.6197 87.1551Z" fill="#353C59"/>
<path d="M65.6197 100.055C66.8182 100.055 67.7897 99.0835 67.7897 97.885C67.7897 96.6866 66.8182 95.715 65.6197 95.715C64.4213 95.715 63.4497 96.6866 63.4497 97.885C63.4497 99.0835 64.4213 100.055 65.6197 100.055Z" fill="#353C59"/>
<path d="M65.6197 74.265C66.8182 74.265 67.7897 73.2935 67.7897 72.095C67.7897 70.8966 66.8182 69.925 65.6197 69.925C64.4213 69.925 63.4497 70.8966 63.4497 72.095C63.4497 73.2935 64.4213 74.265 65.6197 74.265Z" fill="#353C59"/>
<path d="M100.189 124.255V129.025C100.189 130.645 98.8195 131.975 97.1495 131.975H40.7595C39.0895 131.975 37.7295 130.645 37.7295 129.025V124.255C37.7295 122.635 39.0795 121.305 40.7595 121.305H97.1395C98.8195 121.305 100.189 122.635 100.189 124.255Z" fill="#FDF6F8"/>
<path d="M60.7195 121.305V131.975H40.6395C39.0295 131.975 37.7295 130.645 37.7295 129.025V124.255C37.7295 122.635 39.0295 121.305 40.6395 121.305H60.7195Z" fill="#B9B0B1"/>
<path d="M120.85 88.445H104.34C104.12 86.975 103.88 85.495 103.64 84.015H120.32C120.5 85.465 120.68 86.945 120.85 88.445Z" fill="#7A7330"/>
<path d="M121.8 98.015H105.77C105.57 96.575 105.35 95.095 105.12 93.585H121.39C121.54 95.045 121.67 96.515 121.8 98.015Z" fill="#7A7330"/>
<path d="M122.46 107.575H107.09C106.91 106.215 106.71 104.735 106.5 103.155H122.19C122.29 104.615 122.38 106.085 122.46 107.575Z" fill="#7A7330"/>
<path d="M16.0497 47.255H0.919712C0.859712 45.955 0.849712 44.735 0.869712 43.655H16.0397C16.0397 44.985 16.0397 46.305 16.0497 47.255Z" fill="#7A7330"/>
<path d="M16.6195 54.0751L1.87947 55.6351C1.62947 54.4251 1.35947 52.8351 1.20947 51.6651L16.1695 50.3151C16.2595 51.4451 16.2995 52.8651 16.6195 54.0751Z" fill="#7A7330"/>
<path d="M21.4998 61.0251L5.08982 65.5151C4.53982 64.4351 3.72982 62.4051 3.31982 61.2651L18.2398 58.1951C19.0098 59.3451 20.0498 60.3351 21.4998 61.0251Z" fill="#7A7330"/>
</g>
<defs>
<clipPath id="clip0_301_1811">
<rect width="121.96" height="131.95" fill="white" transform="translate(0.859863 0.0250244)"/>
</clipPath>
</defs>
</svg>
