<svg width="137" height="138" viewBox="0 0 137 138" fill="none" xmlns="http://www.w3.org/2000/svg">
<g clip-path="url(#clip0_301_9183)">
<path d="M48.8001 7.92499V20.345C48.8001 50.115 48.1401 63.455 43.2001 73.915C39.2001 82.375 32.6201 84.775 23.8301 84.775C3.05008 84.785 0.330078 68.925 0.330078 44.925H17.3901C17.3901 50.095 15.8701 55.815 25.7501 55.815C34.7501 55.815 34.4101 40.185 35.0901 28.665C35.2801 25.455 36.2101 19.795 39.2001 16.135C42.4101 12.195 45.9301 9.57499 48.8001 7.92499Z" fill="#272736"/>
<path d="M61.1199 4.41498L60.8399 17.275V137.435H41.8699V131.185C33.8999 124.565 30.1899 117.815 28.8699 111.695L28.2599 106.115C28.2299 95.455 34.5499 87.875 34.5399 88.415L34.8999 41.505C34.8999 38.295 34.4499 27.005 36.4799 21.285C38.0699 16.825 42.7899 12.345 42.9799 12.165V12.155C42.9799 12.155 45.9299 9.50498 48.5499 8.04498C55.1999 4.35498 57.8199 4.41498 61.1199 4.41498Z" fill="#606070"/>
<path d="M62.0297 4.97498H60.2197V137.445H62.0297V4.97498Z" fill="#272F38"/>
<path d="M62.3203 33.585C62.3103 35.535 60.3003 36.845 58.5203 36.045C52.3203 33.285 48.1903 25.755 49.0903 17.015C49.8803 9.37498 54.1203 3.16498 59.5703 0.684981C60.9303 0.0649808 62.4703 1.11498 62.4503 2.60498L62.3203 33.585Z" fill="#272736"/>
<path d="M136.64 122.955C135.6 84.075 128.25 52.135 125 39.755C123.47 33.945 121.06 28.385 117.62 23.455C105.11 5.55498 87.5201 4.97498 87.5201 4.97498L86.6201 137.385L107.15 137.505V131.915C111.65 128.285 115.16 123.895 117.35 119.025C117.59 121.505 117.73 122.965 117.73 122.965H136.64V122.955Z" fill="#C2C2D1"/>
<path d="M87.52 4.97498H85.71V137.445H87.52V4.97498Z" fill="#272736"/>
<path d="M91.8 66.115C93.0703 66.115 94.1 65.0852 94.1 63.815C94.1 62.5447 93.0703 61.515 91.8 61.515C90.5297 61.515 89.5 62.5447 89.5 63.815C89.5 65.0852 90.5297 66.115 91.8 66.115Z" fill="#272736"/>
<path d="M91.8 48.995C93.0703 48.995 94.1 47.9652 94.1 46.695C94.1 45.4247 93.0703 44.395 91.8 44.395C90.5297 44.395 89.5 45.4247 89.5 46.695C89.5 47.9652 90.5297 48.995 91.8 48.995Z" fill="#272736"/>
<path d="M91.8 84.525C93.0703 84.525 94.1 83.4952 94.1 82.225C94.1 80.9547 93.0703 79.925 91.8 79.925C90.5297 79.925 89.5 80.9547 89.5 82.225C89.5 83.4952 90.5297 84.525 91.8 84.525Z" fill="#272736"/>
<path d="M91.8 102.335C93.0703 102.335 94.1 101.305 94.1 100.035C94.1 98.7647 93.0703 97.735 91.8 97.735C90.5297 97.735 89.5 98.7647 89.5 100.035C89.5 101.305 90.5297 102.335 91.8 102.335Z" fill="#272736"/>
<path d="M108.71 62.145V86.285C108.71 86.285 114.7 90.965 119.44 101.465L108.71 62.145Z" fill="#606070"/>
<path d="M110.01 59.555L108.54 55.535L108 29.375L90.0303 15.125V13.015L107.97 27.215L107.76 13.015C108.3 13.445 108.84 13.955 109.39 14.495L110.01 59.555Z" fill="#272736"/>
<path d="M84.9701 33.525C84.9401 35.475 86.9201 36.825 88.7201 36.075C94.9801 33.445 99.2801 26.015 98.5601 17.255C97.9301 9.605 93.8301 3.295 88.4401 0.705C87.0901 0.0550001 85.5301 1.065 85.5201 2.565L84.9701 33.525Z" fill="#43434F"/>
</g>
<defs>
<clipPath id="clip0_301_9183">
<rect width="136.31" height="136.99" fill="white" transform="translate(0.330078 0.505005)"/>
</clipPath>
</defs>
</svg>
