<svg width="136" height="143" viewBox="0 0 136 143" fill="none" xmlns="http://www.w3.org/2000/svg">
<path d="M49.9199 17.22C49.9199 17.22 43.2999 20.74 43.2999 29.89L43.2099 54.72C43.1899 60.03 41.8599 69.34 33.1099 69.11C22.9899 68.84 23.6499 54.03 23.6499 52.91C23.6499 52.01 23.6599 45.48 23.6599 45.48H9.33995C9.33995 45.48 9.28995 51.93 9.27995 53.02C9.21995 59.22 10.3199 82.14 27.6499 85.68C38.8299 87.96 46.5499 83.25 47.5299 82.43L49.9199 17.22Z" fill="#4850C6"/>
<path d="M65.43 23.0401L65.7 11.4301C62.58 11.4301 57.94 12.5501 54.05 14.6101C50.76 16.3501 48.59 18.1601 48.59 18.1601L47.54 80.48V80.4901V102.43V126.26H48.69H65.43V23.0401Z" fill="#2F3A7C"/>
<path d="M64.3599 134.78V35.16H66.5699V134.24L64.3599 134.78Z" fill="#4850C6"/>
<path d="M67.7501 128.94V133.53C67.7501 135.09 67.2101 136.37 66.5401 136.37H47.5101C46.8501 136.37 46.3101 135.09 46.3101 133.53V128.94C46.3101 127.38 46.8501 126.1 47.5101 126.1H66.5401C67.2101 126.11 67.7501 127.39 67.7501 128.94Z" fill="#B9B0B1"/>
<path d="M66.7298 6.63V35.86H62.9298C60.5298 35.86 58.5898 33.92 58.5898 31.52V15.63C58.5898 12.65 60.2698 9.91001 62.9298 8.56001L66.7298 6.63Z" fill="#FDF6F8"/>
<path d="M127.14 122.71H113.12C113.12 122.71 109.37 80.9799 104.62 65.3499C104.11 63.6899 103.61 62.3199 103.15 61.3299V127.46L83.7803 127.35L84.6303 11.4299C84.6303 11.4299 91.3603 11.8599 99.1203 16.4699C100.17 17.0899 101.26 17.8599 102.37 18.8199C102.91 19.2499 103.45 19.7599 104 20.2999C107.78 24.0499 111.64 29.9199 114.72 39.0299C114.72 39.0299 125.88 75.4199 127.14 122.71Z" fill="#4486F4"/>
<path d="M84.6299 136.37L82.9199 132.81V34.0599H84.6299V136.37Z" fill="#2F3A7C"/>
<path d="M104.35 128.94V133.53C104.35 135.09 103.87 136.37 103.28 136.37H83.4201C82.8301 136.37 82.3501 135.09 82.3501 133.53V128.94C82.3501 127.38 82.8301 126.1 83.4201 126.1H103.28C103.86 126.11 104.35 127.39 104.35 128.94Z" fill="#FDF6F8"/>
<path d="M91.1701 126.11V136.37H83.4701C82.8501 136.37 82.3501 135.09 82.3501 133.53V128.94C82.3501 127.38 82.8501 126.1 83.4701 126.1H91.1701V126.11Z" fill="#B9B0B1"/>
<path d="M90.0099 59.93H84.6299V44.45H90.0099C90.7899 44.45 91.4199 45.08 91.4199 45.86V58.53C91.4199 59.3 90.7899 59.93 90.0099 59.93Z" fill="#2F3A7C"/>
<path d="M104.62 65.3499L103.15 61.3299L102.61 35.1699L90.8301 24.8799V22.7699L102.57 33.0099L102.36 18.8099C102.9 19.2399 103.44 19.7499 103.99 20.2899L104.62 65.3499Z" fill="#2F3A7C"/>
<path d="M90.8302 31.51C90.8302 33.9 88.8802 35.85 86.4902 35.85H82.6802V6.62L86.4902 8.55C89.1502 9.91 90.8302 12.63 90.8302 15.62V31.51Z" fill="#FDF6F8"/>
</svg>
