<svg width="136" height="143" viewBox="0 0 136 143" fill="none" xmlns="http://www.w3.org/2000/svg">
<path d="M115.3 39.89C110.77 26.45 104.58 19.9 99.34 16.79C91.4 12.07 85.06 11.63 85.06 11.63L76.61 32.13L67.79 57.58L73.04 125.86L73.47 130.81H103.46V62.71C108.42 73.39 113.33 125.15 113.33 125.15H127.68C126.39 76.74 115.3 39.89 115.3 39.89Z" fill="#FF9166"/>
<path d="M50.7598 17.5599C50.7598 17.5599 43.9898 21.1599 43.9898 30.5199L43.8998 55.9399C43.8798 61.3699 42.5098 71.0399 33.5598 70.6599C23.9898 70.2599 24.1198 61.3499 23.9198 57.3699C23.8498 56.1099 23.8898 49.1399 23.8898 49.1399H9.2298C9.2298 49.1399 9.0998 54.1799 9.2198 56.8999C9.5898 65.1999 12.2598 82.4199 27.9698 85.6199C39.4198 87.9599 47.3098 83.1299 48.3198 82.2899L50.7598 17.5599Z" fill="#962C2E"/>
<path d="M69.3298 23.51L65.2198 11.62C62.0298 11.62 58.9598 12.76 54.9798 14.88C51.6198 16.67 49.3898 18.51 49.3898 18.51L48.3198 82.29V82.3V104.76V130.8H69.2398L73.0498 125.85L69.0498 57.65L73.4798 43.16L69.3298 23.51Z" fill="#EB564B"/>
<path d="M73.8998 81.76C75.0817 81.76 76.0398 80.8019 76.0398 79.62C76.0398 78.4381 75.0817 77.48 73.8998 77.48C72.7179 77.48 71.7598 78.4381 71.7598 79.62C71.7598 80.8019 72.7179 81.76 73.8998 81.76Z" fill="#F5F4F0"/>
<path d="M76.0399 101C77.2218 101 78.1799 100.042 78.1799 98.86C78.1799 97.6781 77.2218 96.72 76.0399 96.72C74.858 96.72 73.8999 97.6781 73.8999 98.86C73.8999 100.042 74.858 101 76.0399 101Z" fill="#F5F4F0"/>
<path d="M77.3397 120.67C78.5216 120.67 79.4797 119.712 79.4797 118.53C79.4797 117.348 78.5216 116.39 77.3397 116.39C76.1578 116.39 75.1997 117.348 75.1997 118.53C75.1997 119.712 76.1578 120.67 77.3397 120.67Z" fill="#F5F4F0"/>
<path d="M82.7896 41.0401C75.5996 44.0501 66.6596 39.1701 62.7296 30.1001C59.8596 23.4501 60.4696 16.3901 63.8096 11.8301C64.6396 10.6901 66.3996 10.8401 67.0696 12.0801L82.7896 41.0401Z" fill="#E8E8E8"/>
<path d="M85.6597 10.46C84.6397 9.51001 82.9897 9.89001 82.4997 11.19L68.3597 52.25C67.3497 55.18 67.0197 58.31 67.4097 61.39L69.1997 75.77C75.3397 74.45 78.4597 67.74 80.8497 57.17C81.7397 53.22 78.1997 50.54 74.7397 48.23C81.6597 45.99 88.3697 40.46 90.8497 31.45C93.2797 22.58 90.8797 15.34 85.6597 10.46Z" fill="#F5F4F0"/>
<path d="M104.28 105.97V112.24C104.28 112.84 103.56 113.14 103.13 112.73L86.88 97.06C86.51 96.71 86.51 96.1 86.88 95.75L89.65 92.98C90 92.61 90.61 92.61 90.98 92.98L104.07 105.47C104.21 105.61 104.28 105.78 104.28 105.97Z" fill="#EB564B"/>
<path d="M46.8696 105.97V112.24C46.8696 112.84 47.5896 113.14 48.0196 112.73L64.2696 97.06C64.6396 96.71 64.6396 96.1 64.2696 95.75L61.4996 92.98C61.1496 92.61 60.5396 92.61 60.1696 92.98L47.0796 105.47C46.9396 105.61 46.8696 105.78 46.8696 105.97Z" fill="#FF9166"/>
</svg>
