<svg width="123" height="124" viewBox="0 0 123 124" fill="none" xmlns="http://www.w3.org/2000/svg">
<g clip-path="url(#clip0_301_11735)">
<path d="M43.0199 10.3V32.62C43.0199 58.93 42.4299 70.72 38.0699 79.96C34.5399 87.44 28.7199 89.56 20.9599 89.56C2.5899 89.56 -0.950103 76.21 0.189897 58.26H16.0199C16.0199 62.83 16.7099 63.96 22.6499 63.96C30.6099 63.96 30.2999 38.81 30.9099 28.63C31.0799 25.8 31.8999 20.79 34.5399 17.56C37.3799 14.08 40.4899 11.76 43.0199 10.3Z" fill="#272736"/>
<path d="M55.4897 5.87999L55.2397 17.24V123.43H38.4797V117.91C31.5497 112.16 28.2597 106.29 27.0497 100.95C27.0297 100.86 27.0097 100.77 26.9897 100.68L26.4497 95.75V95.67C26.4497 95.08 26.4697 94.49 26.5197 93.92C27.1297 85.48 32.0097 79.66 31.9997 80.11L32.3197 38.66C32.3197 35.82 31.9197 25.84 33.7097 20.79C35.1197 16.85 39.2897 12.89 39.4597 12.73V12.72C39.4597 12.72 42.0597 10.38 44.3797 9.08999C50.2597 5.82999 52.5697 5.87999 55.4897 5.87999Z" fill="#606070"/>
<path d="M56.2899 6.37H54.6899V123.43H56.2899V6.37Z" fill="#272F38"/>
<path d="M122.3 107.91H105.62C105.62 107.91 105.2 107.35 105.18 107.15C103.25 111.46 100.15 115.33 96.17 118.54V123.48L78.02 123.38L78.81 6.37C78.81 6.37 87.69 6.66 96.8 13.64C97.34 14.05 97.88 14.48 98.42 14.94C100.82 17 103.21 19.55 105.41 22.71C108.45 27.06 110.59 31.97 111.94 37.11C114.81 48.05 121.39 73.55 122.3 107.91Z" fill="#C2C2D1"/>
<path d="M78.81 6.37H77.21V123.43H78.81V6.37Z" fill="#272F38"/>
<path d="M97.54 56.4V77.73C97.54 77.73 102.83 81.87 107.02 91.15L97.54 56.4Z" fill="#606070"/>
<path d="M83.0197 69.77C84.29 69.77 85.3197 68.7402 85.3197 67.47C85.3197 66.1997 84.29 65.17 83.0197 65.17C81.7495 65.17 80.7197 66.1997 80.7197 67.47C80.7197 68.7402 81.7495 69.77 83.0197 69.77Z" fill="#272736"/>
<path d="M83.0197 52.66C84.29 52.66 85.3197 51.6303 85.3197 50.36C85.3197 49.0897 84.29 48.06 83.0197 48.06C81.7495 48.06 80.7197 49.0897 80.7197 50.36C80.7197 51.6303 81.7495 52.66 83.0197 52.66Z" fill="#272736"/>
<path d="M83.0197 88.18C84.29 88.18 85.3197 87.1503 85.3197 85.88C85.3197 84.6098 84.29 83.58 83.0197 83.58C81.7495 83.58 80.7197 84.6098 80.7197 85.88C80.7197 87.1503 81.7495 88.18 83.0197 88.18Z" fill="#272736"/>
<path d="M99.0398 62.35L97.5698 58.33L97.0298 29.38L79.0498 15.14V13.03L96.9998 27.23L96.7998 13.64C97.3398 14.05 97.8798 14.48 98.4198 14.94L99.0398 62.35Z" fill="#272736"/>
<path d="M57.92 33.6C57.91 35.55 56.15 36.86 54.59 36.06C49.17 33.3 45.55 25.77 46.34 17.03C47.03 9.39001 50.74 3.18001 55.51 0.710005C56.7 0.0900052 58.05 1.14001 58.03 2.63001L57.92 33.6Z" fill="#272736"/>
<path d="M73.5297 33.54C73.4997 35.49 75.2397 36.84 76.8097 36.09C82.2797 33.46 86.0497 26.03 85.4197 17.27C84.8697 9.62001 81.2797 3.31001 76.5597 0.720015C75.3797 0.0700148 74.0097 1.08001 73.9997 2.58001L73.5297 33.54Z" fill="#43434F"/>
</g>
<defs>
<clipPath id="clip0_301_11735">
<rect width="122.3" height="122.96" fill="white" transform="translate(0 0.52002)"/>
</clipPath>
</defs>
</svg>
