<svg width="136" height="143" viewBox="0 0 136 143" fill="none" xmlns="http://www.w3.org/2000/svg">
<path d="M130.22 125.43H112.12C111.17 125.43 110.4 124.65 110.4 123.71V116.49C110.4 115.54 111.18 114.77 112.12 114.77H130.22C131.17 114.77 131.94 115.55 131.94 116.49V123.71C131.94 124.65 131.17 125.43 130.22 125.43Z" fill="#FDF6F8"/>
<path d="M116.32 37.49C111.72 23.83 105.43 17.18 100.11 14.02C92.04 9.23003 85.6 8.78003 85.6 8.78003L77.02 29.61L79.6 32.66L68.06 55.47V128.2H49.46V129.45H104.3V60.68C109.34 71.53 114.32 115.97 114.32 115.97H128.9C127.59 66.78 116.32 37.49 116.32 37.49Z" fill="#21C95E"/>
<path d="M50.74 14.8101C50.74 14.8101 43.86 18.4701 43.86 27.9801L43.77 53.8101C43.75 59.3301 42.36 69.1501 33.27 68.7701C23.54 68.3601 23.68 59.3101 23.47 55.2701C23.4 53.9901 23.44 50.2301 23.44 50.2301H8.53997C8.53997 50.2301 6.39997 80.4001 27.58 84.7201C39.21 87.0901 47.23 82.1901 48.26 81.3401L50.74 14.8101Z" fill="#317152"/>
<path d="M77.0098 29.61L69.6098 20.85L67.1398 8.77002C63.8998 8.77002 59.0698 9.93002 55.0298 12.08C51.6098 13.89 49.3498 15.77 49.3498 15.77L48.2598 80.58V80.59V103.41V128.2H49.4598H68.0598V55.47L79.5998 32.66L77.0098 29.61Z" fill="#1A9252"/>
<path d="M23.3598 52.3H8.30984C7.35984 52.3 6.58984 51.52 6.58984 50.58V43.36C6.58984 42.41 7.36984 41.64 8.30984 41.64H23.3598C24.3098 41.64 25.0798 42.42 25.0798 43.36V50.58C25.0798 51.53 24.3098 52.3 23.3598 52.3Z" fill="#989192"/>
<path d="M98.3999 13.0499V39.0599L89.9799 27.8299C89.6999 27.4499 89.1699 27.3699 88.7899 27.6499C88.4099 27.9299 88.3299 28.4599 88.6099 28.8399L98.3999 41.8999V75.6899C98.3999 76.1699 98.7899 76.5399 99.2499 76.5399C99.7299 76.5399 100.1 76.1599 100.1 75.6899L100.16 14.0499C99.5799 13.6999 99.0399 13.3599 98.3999 13.0499Z" fill="#1D9656"/>
<path d="M83.0298 37.88C75.8398 40.89 66.8998 36.01 62.9698 26.94C60.0998 20.29 60.7098 13.23 64.0498 8.67003C64.8798 7.53003 66.6398 7.68003 67.3098 8.92003L83.0298 37.88Z" fill="#B7AFB0"/>
<path d="M85.9 7.29997C84.88 6.34997 83.23 6.72997 82.74 8.02997L70.05 41.08C70.05 41.08 70.04 41.1 70.03 41.14L69.68 41.94C63.62 56.34 65.65 72.62 65.65 72.62C71.79 71.3 78.7 64.59 81.08 54.02C81.97 50.07 78.43 47.39 74.97 45.08C81.89 42.84 88.6 37.31 91.08 28.3C93.52 19.42 91.12 12.18 85.9 7.29997Z" fill="#FCF4F6"/>
<path d="M65.3998 95.58L48.2598 111.71V103.41L61.2398 91.44C61.6198 91.06 62.2298 91.06 62.5898 91.44L65.3998 94.25C65.7798 94.61 65.7798 95.23 65.3998 95.58Z" fill="#21C95E"/>
<path d="M72.0899 104.45C73.2884 104.45 74.2599 103.478 74.2599 102.28C74.2599 101.082 73.2884 100.11 72.0899 100.11C70.8915 100.11 69.9199 101.082 69.9199 102.28C69.9199 103.478 70.8915 104.45 72.0899 104.45Z" fill="#1D9656"/>
<path d="M72.0899 85.5199C73.2884 85.5199 74.2599 84.5484 74.2599 83.3499C74.2599 82.1515 73.2884 81.1799 72.0899 81.1799C70.8915 81.1799 69.9199 82.1515 69.9199 83.3499C69.9199 84.5484 70.8915 85.5199 72.0899 85.5199Z" fill="#1D9656"/>
<path d="M107.57 130.99V135.76C107.57 137.38 106.2 138.71 104.53 138.71H48.1399C46.4699 138.71 45.1099 137.38 45.1099 135.76V130.99C45.1099 129.37 46.4599 128.04 48.1399 128.04H104.52C106.2 128.04 107.57 129.37 107.57 130.99Z" fill="#FDF6F8"/>
<path d="M68.0999 128.04V138.71H48.0199C46.4099 138.71 45.1099 137.38 45.1099 135.76V130.99C45.1099 129.37 46.4099 128.04 48.0199 128.04H68.0999Z" fill="#B9B0B1"/>
<path d="M104.3 103.59V111.88L87.45 95.5899C87.07 95.2299 87.07 94.6199 87.45 94.2599L90.26 91.4499C90.62 91.0699 91.23 91.0699 91.61 91.4499L104.3 103.59Z" fill="#1A9252"/>
</svg>
