<svg width="136" height="143" viewBox="0 0 136 143" fill="none" xmlns="http://www.w3.org/2000/svg">
<path d="M49.7 17.6801C49.7 17.6801 43.08 21.2001 43.08 30.3501L42.99 55.1801C42.97 60.4901 41.64 69.8001 32.89 69.5701C22.77 69.3001 23.43 54.4901 23.43 53.3701C23.43 52.4701 23.44 45.9401 23.44 45.9401H9.12999C9.12999 45.9401 9.07999 52.3901 9.06999 53.4801C9.00999 59.6801 10.11 80.6701 27.44 84.2001C38.62 86.4801 46.34 81.7701 47.32 80.9501L49.7 17.6801Z" fill="#181C21"/>
<path d="M65.2098 23.49L65.4798 11.88C62.3598 11.88 57.7198 13 53.8298 15.06C50.5398 16.8 48.3698 18.61 48.3698 18.61L47.3198 80.93V80.94V102.88V135.23H65.2098V23.49Z" fill="#252C35"/>
<path d="M66.3601 35.61H64.1401V135.23H66.3601V35.61Z" fill="#272F38"/>
<path d="M126.93 123.16H112.91C112.91 123.16 109.16 81.43 104.41 65.8C103.9 64.14 103.4 62.77 102.94 61.78V135.28L83.5698 135.17L84.4198 11.87C84.4198 11.87 91.1498 12.3 98.9098 16.91C99.9598 17.53 101.05 18.3 102.16 19.26C102.7 19.69 103.24 20.2 103.79 20.74C107.57 24.49 111.43 30.36 114.51 39.47C114.5 39.48 125.67 75.88 126.93 123.16Z" fill="#91969B"/>
<path d="M84.42 34.52H82.71V135.23H84.42V34.52Z" fill="#181C21"/>
<path d="M104.41 65.8L102.94 61.78L102.4 35.62L90.6201 25.33V23.22L102.36 33.46L102.15 19.26C102.69 19.69 103.23 20.2 103.78 20.74L104.41 65.8Z" fill="#181C21"/>
<path d="M66.5899 11.21C66.5199 16.31 66.3899 35.17 66.2199 47.24C66.1999 48.39 64.7599 48.96 63.8199 48.27L52.6499 35.76C51.8599 35.18 51.4499 34.23 51.5799 33.27L56.2199 17.16C56.6399 14.19 59.0999 11.78 61.9299 10.66L64.3399 9.71001C65.4199 9.28001 66.5999 10.07 66.5899 11.21Z" fill="#181C21"/>
<path d="M82.7398 11.59C82.7498 10.28 83.7698 9.18 85.0798 9.1C88.6598 8.9 94.8098 12.51 95.5298 15.45L100.09 28.48C100.52 29.7 100.32 31.04 99.5498 32.08C96.7398 35.91 89.3098 44.21 85.3598 48.57C84.4498 49.57 82.7898 48.93 82.7898 47.58C82.7698 38.63 82.6898 16.55 82.7398 11.59Z" fill="#181C21"/>
<path d="M62.0398 97.2499L47.3198 111.1V103.97L58.4698 93.69C58.7898 93.37 59.3198 93.37 59.6298 93.69L62.0498 96.1099C62.3698 96.4199 62.3698 96.9399 62.0398 97.2499Z" fill="#91969B"/>
<path d="M102.94 104.14V111.27L88.45 97.26C88.13 96.95 88.13 96.42 88.45 96.12L90.87 93.7C91.18 93.38 91.71 93.38 92.03 93.7L102.94 104.14Z" fill="#252C35"/>
</svg>
