<svg width="126" height="132" viewBox="0 0 126 132" fill="none" xmlns="http://www.w3.org/2000/svg">
<g clip-path="url(#clip0_301_1849)">
<path d="M124.28 118.685H106.18C105.23 118.685 104.46 117.905 104.46 116.965V109.745C104.46 108.795 105.24 108.025 106.18 108.025H124.28C125.23 108.025 126 108.805 126 109.745V116.965C126 117.915 125.22 118.685 124.28 118.685Z" fill="#FDF6F8"/>
<path d="M110.38 30.745C105.78 17.085 99.4903 10.435 94.1703 7.27503C86.1003 2.48503 79.6603 2.03503 79.6603 2.03503L71.0803 22.865L73.6603 25.915L62.1103 48.735V121.465H43.5103V122.715H98.3503V53.935C103.39 64.785 108.37 109.225 108.37 109.225H122.95C121.64 60.045 110.38 30.745 110.38 30.745Z" fill="#21C95E"/>
<path d="M44.7903 8.06506C44.7903 8.06506 37.9103 11.7251 37.9103 21.2351L37.8203 47.0651C37.8003 52.5851 36.4103 62.4051 27.3203 62.0251C17.5903 61.6151 17.7303 52.5651 17.5203 48.5251C17.4503 47.2451 17.4903 43.4851 17.4903 43.4851H2.59026C2.59026 43.4851 0.45026 72.9051 21.6303 77.2251C33.2603 79.5951 41.2803 74.6951 42.3103 73.8451L44.7903 8.06506Z" fill="#317152"/>
<path d="M71.0703 22.865L63.6703 14.105L61.2003 2.03503C57.9603 2.03503 53.1303 3.19503 49.0903 5.34503C45.6703 7.15503 43.4103 9.03503 43.4103 9.03503L42.3203 73.845V73.855V96.675V121.465H43.5203H62.1203V48.735L73.6503 25.925L71.0703 22.865Z" fill="#1A9252"/>
<path d="M17.4201 45.565H2.36014C1.42014 45.565 0.640137 44.785 0.640137 43.835V36.615C0.640137 35.665 1.42014 34.895 2.36014 34.895H17.4101C18.3601 34.895 19.1301 35.675 19.1301 36.615V43.835C19.1401 44.785 18.3601 45.565 17.4201 45.565Z" fill="#989192"/>
<path d="M92.46 6.31506V32.3251L84.04 21.0951C83.76 20.7151 83.23 20.6351 82.85 20.9151C82.47 21.1951 82.39 21.7251 82.67 22.1051L92.46 35.1651V68.9551C92.46 69.4351 92.85 69.8051 93.31 69.8051C93.79 69.8051 94.16 69.4251 94.16 68.9551L94.22 7.32506C93.64 6.95506 93.1 6.62506 92.46 6.31506Z" fill="#1D9656"/>
<path d="M77.0801 31.135C69.8901 34.145 60.9501 29.265 57.0201 20.195C54.1501 13.545 54.7601 6.48503 58.1001 1.92503C58.9301 0.785033 60.6901 0.935033 61.3601 2.17503L77.0801 31.135Z" fill="#B7AFB0"/>
<path d="M79.9603 0.555039C78.9403 -0.394961 77.2903 -0.014961 76.8003 1.28504L64.1003 34.335C64.1003 34.335 64.0903 34.355 64.0803 34.395L63.7303 35.195C57.6703 49.595 59.7003 65.875 59.7003 65.875C65.8403 64.555 72.7503 57.845 75.1303 47.275C76.0203 43.325 72.4803 40.645 69.0203 38.335C75.9403 36.095 82.6503 30.565 85.1303 21.555C87.5703 12.685 85.1703 5.43504 79.9603 0.555039Z" fill="#FCF4F6"/>
<path d="M59.4603 88.845L42.3203 104.975V96.675L55.3003 84.705C55.6803 84.325 56.2903 84.325 56.6503 84.705L59.4603 87.515C59.8303 87.875 59.8303 88.485 59.4603 88.845Z" fill="#21C95E"/>
<path d="M66.1402 97.7151C67.3387 97.7151 68.3102 96.7435 68.3102 95.5451C68.3102 94.3466 67.3387 93.3751 66.1402 93.3751C64.9418 93.3751 63.9702 94.3466 63.9702 95.5451C63.9702 96.7435 64.9418 97.7151 66.1402 97.7151Z" fill="#1D9656"/>
<path d="M66.1402 78.7751C67.3387 78.7751 68.3102 77.8035 68.3102 76.6051C68.3102 75.4066 67.3387 74.4351 66.1402 74.4351C64.9418 74.4351 63.9702 75.4066 63.9702 76.6051C63.9702 77.8035 64.9418 78.7751 66.1402 78.7751Z" fill="#1D9656"/>
<path d="M101.62 124.255V129.025C101.62 130.645 100.25 131.975 98.5802 131.975H42.1902C40.5202 131.975 39.1602 130.645 39.1602 129.025V124.255C39.1602 122.635 40.5102 121.305 42.1902 121.305H98.5702C100.25 121.305 101.62 122.635 101.62 124.255Z" fill="#FDF6F8"/>
<path d="M62.1599 121.305V131.975H42.0799C40.4699 131.975 39.1699 130.645 39.1699 129.025V124.255C39.1699 122.635 40.4699 121.305 42.0799 121.305H62.1599Z" fill="#B9B0B1"/>
<path d="M98.3503 96.845V105.135L81.5003 88.845C81.1203 88.485 81.1203 87.875 81.5003 87.515L84.3103 84.705C84.6703 84.325 85.2803 84.325 85.6603 84.705L98.3503 96.845Z" fill="#1A9252"/>
</g>
<defs>
<clipPath id="clip0_301_1849">
<rect width="125.36" height="131.95" fill="white" transform="translate(0.640137 0.0250244)"/>
</clipPath>
</defs>
</svg>
