<svg width="138" height="148" viewBox="0 0 138 148" fill="none" xmlns="http://www.w3.org/2000/svg">
<g clip-path="url(#clip0_301_9070)">
<path d="M49.6301 10.755V23.175C49.6301 52.945 48.9701 66.285 44.0301 76.745C40.0301 85.205 33.4501 87.605 24.6601 87.605C3.88012 87.605 -0.139881 70.095 1.16012 49.785H18.2201C18.2201 54.955 18.2501 58.635 26.5801 58.635C35.5801 58.635 35.2401 43.005 35.9201 31.485C36.1101 28.275 37.0401 22.615 40.0301 18.955C43.2401 15.025 46.7601 12.405 49.6301 10.755Z" fill="#4850C6"/>
<path d="M61.9499 7.24499L61.6699 20.105V140.265H42.6999V134.015C34.7299 127.395 31.02 120.645 29.7 114.525L29.09 108.945C29.06 98.285 35.38 90.705 35.37 91.245L35.73 44.335C35.73 41.125 35.28 29.835 37.3099 24.115C38.9 19.655 43.62 15.175 43.8099 14.995V14.985C43.8099 14.985 46.7599 12.335 49.3799 10.875C56.0299 7.18499 58.6499 7.24499 61.9499 7.24499Z" fill="#2F3A7C"/>
<path d="M62.8598 7.79498H61.0498V140.265H62.8598V7.79498Z" fill="#4850C6"/>
<path d="M64.4302 139.665V144.535C64.4302 146.185 63.8502 147.545 63.1502 147.545H42.9702C42.2702 147.545 41.7002 146.185 41.7002 144.535V139.665C41.7002 138.015 42.2702 136.655 42.9702 136.655H63.1502C63.8502 136.665 64.4302 138.015 64.4302 139.665Z" fill="#B9B0B1"/>
<path d="M137.47 125.785C136.43 86.905 129.08 54.965 125.83 42.585C124.3 36.775 121.89 31.215 118.45 26.285C105.94 8.37498 88.3497 7.79498 88.3497 7.79498L87.4497 140.205L107.98 140.325V134.735C111.34 132.025 115.99 125.865 115.99 125.865L137.47 125.785Z" fill="#4486F4"/>
<path d="M88.4799 7.82501H86.6699V140.295H88.4799V7.82501Z" fill="#2F3A7C"/>
<path d="M109.54 139.665V144.535C109.54 146.185 109.03 147.545 108.4 147.545H87.3502C86.7302 147.545 86.2202 146.185 86.2202 144.535V139.665C86.2202 138.015 86.7302 136.655 87.3502 136.655H108.4C109.03 136.665 109.54 138.015 109.54 139.665Z" fill="#FDF6F8"/>
<path d="M95.57 136.665V147.545H86.22C85.57 147.545 85.04 146.185 85.04 144.535V139.665C85.04 138.015 85.57 136.655 86.22 136.655H95.57V136.665Z" fill="#B9B0B1"/>
<path d="M109.54 64.965V89.105C109.54 89.105 115.53 93.785 120.27 104.285L109.54 64.965Z" fill="#2F3A7C"/>
<path d="M63.07 0.455017V42.765H57.56C54.09 42.765 51.27 39.955 51.27 36.475V13.495C51.27 9.17502 53.7 5.21502 57.55 3.26502L63.07 0.455017Z" fill="#FDF6F8"/>
<path d="M98.34 13.495V36.485C98.34 39.955 95.52 42.775 92.05 42.775H86.54V0.455017L92.06 3.25502C95.91 5.21502 98.34 9.17502 98.34 13.495Z" fill="#FDF6F8"/>
<path d="M95.7801 69.635H88.3501V49.485H95.7801C96.5601 49.485 97.1901 50.115 97.1901 50.895V68.235C97.1901 69.005 96.5601 69.635 95.7801 69.635Z" fill="#2F3A7C"/>
<path d="M111.01 71.645L109.54 67.625L109.18 32.275L98.3403 23.685V21.565L109.15 30.125L108.95 16.205L110.57 17.535L111.01 71.645Z" fill="#2F3A7C"/>
</g>
<defs>
<clipPath id="clip0_301_9070">
<rect width="136.53" height="147.09" fill="white" transform="translate(0.939941 0.455017)"/>
</clipPath>
</defs>
</svg>
