<svg width="123" height="124" viewBox="0 0 123 124" fill="none" xmlns="http://www.w3.org/2000/svg">
<g clip-path="url(#clip0_301_11876)">
<path d="M43.46 10.085V32.395C43.46 58.705 42.87 70.495 38.51 79.735C34.98 87.215 29.16 89.335 21.4 89.335C3.04001 89.345 -0.50999 75.985 0.63001 58.035H16.46C16.46 62.605 17.15 63.735 23.09 63.735C31.05 63.735 30.74 38.585 31.35 28.405C31.52 25.575 32.34 20.565 34.98 17.335C37.82 13.865 40.93 11.545 43.46 10.085Z" fill="#181C21"/>
<path d="M56.9301 5.66496L56.6801 17.025V123.215H38.9201V117.695C31.9901 111.945 28.7001 106.075 27.4901 100.735C27.4701 100.645 27.4501 100.555 27.4301 100.465L26.8901 95.535V95.455C26.8901 94.865 26.9101 94.275 26.9601 93.705C27.5701 85.265 32.4501 79.445 32.4401 79.895L32.7601 38.445C32.7601 35.605 32.3601 25.625 34.1501 20.575C35.5601 16.635 39.7301 12.675 39.9001 12.515V12.505C39.9001 12.505 42.5001 10.165 44.8201 8.87496C50.7001 5.61496 54.0101 5.66496 56.9301 5.66496Z" fill="#252C35"/>
<path d="M57.7304 6.15497H56.1304V123.215H57.7304V6.15497Z" fill="#272F38"/>
<path d="M122.74 107.695H106.06C106.06 107.695 105.64 107.135 105.62 106.935C103.69 111.245 100.59 115.115 96.61 118.325V123.265L75.46 123.165L76.25 6.15497C76.25 6.15497 88.13 6.44497 97.24 13.425C97.78 13.835 98.32 14.265 98.86 14.725C101.26 16.785 103.65 19.335 105.85 22.495C108.89 26.845 111.03 31.755 112.38 36.895C115.25 47.835 121.83 73.335 122.74 107.695Z" fill="#91969B"/>
<path d="M76.2499 6.15497H74.6499V123.215H76.2499V6.15497Z" fill="#272F38"/>
<path d="M97.98 56.185V77.515C97.98 77.515 103.27 81.655 107.46 90.935L97.98 56.185Z" fill="#272736"/>
<path d="M99.4802 62.135L98.0102 58.115L97.4702 29.165L79.4902 14.925V12.815L97.4402 27.015L97.2402 13.425C97.7802 13.835 98.3202 14.265 98.8602 14.725L99.4802 62.135Z" fill="#272736"/>
<path d="M58.4901 3.03496C58.4101 8.59496 58.2701 29.135 58.0801 42.285C58.0601 43.535 56.4901 44.165 55.4601 43.405L42.0601 30.435C41.2001 29.805 40.7501 28.765 40.9001 27.725L45.9501 10.175C46.4101 6.94496 50.3301 3.65496 53.4201 2.43496L56.0401 1.39496C57.2201 0.934956 58.5001 1.79496 58.4901 3.03496Z" fill="#181C21"/>
<path d="M74.4999 3.45499C74.5099 2.02499 75.6199 0.824985 77.0499 0.744985C80.9499 0.524985 87.6499 4.45498 88.4299 7.65498L93.3999 21.855C93.8599 23.185 93.6499 24.645 92.8199 25.775C89.7499 29.945 81.6699 38.985 77.3699 43.735C76.3799 44.825 74.5699 44.125 74.5699 42.655C74.5199 32.895 74.4399 8.85499 74.4999 3.45499Z" fill="#181C21"/>
<path d="M42.9801 86.615L27.4101 101.265L26.8901 96.465C26.8901 95.425 26.9501 94.415 27.0801 93.445L38.9001 82.545C39.2701 82.175 39.8701 82.175 40.2201 82.545L42.9801 85.305C43.3501 85.665 43.3501 86.265 42.9801 86.615Z" fill="#91969B"/>
<path d="M90.7301 86.025L107.56 101.855V93.705L94.8101 81.955C94.4401 81.585 93.8401 81.585 93.4901 81.955L90.7301 84.715C90.3601 85.075 90.3601 85.675 90.7301 86.025Z" fill="#252C35"/>
</g>
<defs>
<clipPath id="clip0_301_11876">
<rect width="122.3" height="122.53" fill="white" transform="translate(0.439941 0.734985)"/>
</clipPath>
</defs>
</svg>
