<svg width="123" height="132" viewBox="0 0 123 132" fill="none" xmlns="http://www.w3.org/2000/svg">
<g clip-path="url(#clip0_301_14844)">
<path d="M122.9 116.445H108.32C108.32 116.445 107.89 112.945 107.17 107.575C106.99 106.215 106.79 104.735 106.58 103.155C106.35 101.535 106.11 99.805 105.85 98.015C105.65 96.575 105.43 95.095 105.2 93.585C104.96 91.905 104.69 90.185 104.42 88.445C104.2 86.975 103.96 85.495 103.72 84.015C101.67 71.335 99.2097 58.695 96.9997 53.935V122.705H42.1597V121.455H60.7497V48.725L69.2797 31.865L72.2897 25.915L69.7097 22.865L70.3697 21.265L78.2997 2.03503C78.2997 2.03503 79.0197 2.08503 80.2797 2.33503C82.7797 2.81503 87.4297 4.08503 92.8097 7.27503C98.1297 10.435 104.42 17.095 109.02 30.745C109.02 30.745 116.35 52.045 120.4 84.015C120.58 85.465 120.76 86.945 120.93 88.445C121.12 90.135 121.3 91.845 121.47 93.585C121.62 95.045 121.75 96.515 121.88 98.015C122.02 99.705 122.15 101.415 122.27 103.155C122.37 104.615 122.46 106.085 122.54 107.575C122.7 110.485 122.82 113.435 122.9 116.445Z" fill="#E0DB99"/>
<path d="M43.4398 8.06506L40.9598 73.8451C39.9298 74.6951 31.9398 79.4451 20.2798 77.2251C12.6698 75.7751 7.99979 71.1151 5.16979 65.5151C4.61979 64.4351 4.13979 63.3251 3.72979 62.1851C2.99979 60.2251 2.44979 58.2051 2.04979 56.2151C1.79979 55.0051 1.60979 53.8151 1.45979 52.6451C1.19979 50.7451 1.06979 48.9251 0.999791 47.2551C0.939791 45.9551 0.929791 44.7351 0.949791 43.6551C0.989791 40.4951 1.23979 38.4451 1.23979 38.4451H16.1298C16.1298 38.4451 16.1198 41.0651 16.1198 43.6551C16.1198 44.9851 16.1198 46.3051 16.1298 47.2551C16.1398 47.8451 16.1498 48.3051 16.1598 48.5251C16.1998 49.3051 16.2298 50.2651 16.3198 51.3151C16.4098 52.4351 16.5698 53.6551 16.8898 54.8651C17.1898 56.0251 17.6498 57.1751 18.3198 58.1951C19.0898 59.3451 20.1298 60.3351 21.5798 61.0251C22.7498 61.5851 24.1898 61.9451 25.9598 62.0251C35.0498 62.4051 36.4398 52.5851 36.4598 47.0651L36.5498 21.2351C36.5498 14.4651 40.0398 10.6651 42.0498 9.03506C42.0498 9.03506 42.2698 8.85506 42.6798 8.54506C43.1498 8.22506 43.4398 8.06506 43.4398 8.06506Z" fill="#474322"/>
<path d="M69.71 22.865L62.31 14.105L59.84 2.03503C56.6 2.03503 51.77 3.19503 47.73 5.34503C44.31 7.15503 42.05 9.03503 42.05 9.03503L40.96 73.845V73.855V96.675V121.465H42.16H60.76V48.735L72.29 25.925L69.71 22.865Z" fill="#7A7330"/>
<path d="M75.73 31.135C68.54 34.145 59.6 29.265 55.67 20.195C52.8 13.545 53.41 6.48503 56.75 1.92503C57.58 0.785033 59.34 0.935033 60.01 2.17503L75.73 31.135Z" fill="#B7AFB0"/>
<path d="M78.6002 0.555039C77.5802 -0.394961 75.9302 -0.014961 75.4402 1.28504L62.7502 34.335C62.7502 34.335 62.7402 34.355 62.7302 34.395L62.3802 35.195C56.3202 49.595 58.3502 65.875 58.3502 65.875C64.4902 64.555 71.4002 57.845 73.7802 47.275C74.6702 43.325 71.1302 40.645 67.6702 38.335C74.5902 36.095 81.3002 30.565 83.7802 21.555C86.2202 12.685 83.8202 5.43504 78.6002 0.555039Z" fill="#FCF4F6"/>
<path d="M65.6998 112.945C66.8982 112.945 67.8698 111.973 67.8698 110.775C67.8698 109.577 66.8982 108.605 65.6998 108.605C64.5013 108.605 63.5298 109.577 63.5298 110.775C63.5298 111.973 64.5013 112.945 65.6998 112.945Z" fill="#353C59"/>
<path d="M65.6998 87.1551C66.8982 87.1551 67.8698 86.1835 67.8698 84.9851C67.8698 83.7866 66.8982 82.8151 65.6998 82.8151C64.5013 82.8151 63.5298 83.7866 63.5298 84.9851C63.5298 86.1835 64.5013 87.1551 65.6998 87.1551Z" fill="#353C59"/>
<path d="M65.6998 100.055C66.8982 100.055 67.8698 99.0835 67.8698 97.885C67.8698 96.6866 66.8982 95.715 65.6998 95.715C64.5013 95.715 63.5298 96.6866 63.5298 97.885C63.5298 99.0835 64.5013 100.055 65.6998 100.055Z" fill="#353C59"/>
<path d="M65.6998 74.265C66.8982 74.265 67.8698 73.2935 67.8698 72.095C67.8698 70.8966 66.8982 69.925 65.6998 69.925C64.5013 69.925 63.5298 70.8966 63.5298 72.095C63.5298 73.2935 64.5013 74.265 65.6998 74.265Z" fill="#353C59"/>
<path d="M100.27 124.255V129.025C100.27 130.645 98.8996 131.975 97.2296 131.975H40.8396C39.1696 131.975 37.8096 130.645 37.8096 129.025V124.255C37.8096 122.635 39.1596 121.305 40.8396 121.305H97.2196C98.8996 121.305 100.27 122.635 100.27 124.255Z" fill="#FDF6F8"/>
<path d="M60.7996 121.305V131.975H40.7196C39.1096 131.975 37.8096 130.645 37.8096 129.025V124.255C37.8096 122.635 39.1096 121.305 40.7196 121.305H60.7996Z" fill="#B9B0B1"/>
<path d="M120.93 88.445H104.42C104.2 86.975 103.96 85.495 103.72 84.015H120.4C120.58 85.465 120.76 86.945 120.93 88.445Z" fill="#7A7330"/>
<path d="M121.88 98.015H105.85C105.65 96.575 105.43 95.095 105.2 93.585H121.47C121.62 95.045 121.75 96.515 121.88 98.015Z" fill="#7A7330"/>
<path d="M122.54 107.575H107.17C106.99 106.215 106.79 104.735 106.58 103.155H122.27C122.37 104.615 122.46 106.085 122.54 107.575Z" fill="#7A7330"/>
<path d="M16.1298 47.255H0.999791C0.939791 45.955 0.929791 44.735 0.949791 43.655H16.1198C16.1198 44.985 16.1198 46.305 16.1298 47.255Z" fill="#7A7330"/>
<path d="M16.6996 54.0751L1.95955 55.6351C1.70955 54.4251 1.43955 52.8351 1.28955 51.6651L16.2496 50.3151C16.3396 51.4451 16.3796 52.8651 16.6996 54.0751Z" fill="#7A7330"/>
<path d="M21.5799 61.0251L5.1699 65.5151C4.6199 64.4351 3.8099 62.4051 3.3999 61.2651L18.3199 58.1951C19.0899 59.3451 20.1299 60.3351 21.5799 61.0251Z" fill="#7A7330"/>
</g>
<defs>
<clipPath id="clip0_301_14844">
<rect width="121.96" height="131.95" fill="white" transform="translate(0.939941 0.0250244)"/>
</clipPath>
</defs>
</svg>
