<svg width="118" height="130" viewBox="0 0 118 130" fill="none" xmlns="http://www.w3.org/2000/svg">
<g clip-path="url(#clip0_301_14828)">
<path d="M40.7102 9.83496C40.7102 9.83496 34.0902 13.355 34.0902 22.505L34.0002 47.335C33.9802 52.645 32.6502 61.955 23.9002 61.725C13.7802 61.455 14.4402 46.645 14.4402 45.525C14.4402 44.625 14.4502 38.095 14.4502 38.095H0.140242C0.140242 38.095 0.0902416 44.545 0.0802416 45.635C0.0202416 51.835 1.12024 72.825 18.4502 76.355C29.6302 78.635 37.3502 73.925 38.3302 73.105L40.7102 9.83496Z" fill="#272736"/>
<path d="M56.2301 15.645L56.5001 4.03497C53.3801 4.03497 48.1401 5.08497 44.2501 7.14497C40.9501 8.88497 39.3801 10.765 39.3801 10.765L38.3301 73.085V73.095V95.035V128.975H56.2201V15.645H56.2301Z" fill="#606070"/>
<path d="M57.3501 4.03497H55.6401V128.975H57.3501V4.03497Z" fill="#272736"/>
<path d="M117.94 115.315H103.92C103.92 115.315 100.17 73.585 95.4201 57.955C94.9101 56.295 94.4101 54.925 93.9501 53.935V129.035L74.5801 128.925L75.4301 4.03497C75.4301 4.03497 82.1601 4.46497 89.9201 9.07497C90.9701 9.69497 92.0601 10.465 93.1701 11.425C93.7101 11.855 94.2501 12.365 94.8001 12.905C98.5801 16.655 102.44 22.525 105.52 31.635C105.52 31.635 116.68 68.035 117.94 115.315Z" fill="#C2C2D1"/>
<path d="M75.4302 4.03497H73.7202V128.975H75.4302V4.03497Z" fill="#272736"/>
<path d="M95.4202 57.955L93.9502 53.935L93.4102 27.775L75.4302 13.525V11.415L93.3702 25.615L93.1602 11.415C93.7002 11.845 94.2402 12.355 94.7902 12.895L95.4202 57.955Z" fill="#272736"/>
<path d="M79.4703 44.3349C80.6687 44.3349 81.6403 43.3634 81.6403 42.1649C81.6403 40.9665 80.6687 39.9949 79.4703 39.9949C78.2718 39.9949 77.3003 40.9665 77.3003 42.1649C77.3003 43.3634 78.2718 44.3349 79.4703 44.3349Z" fill="#272736"/>
<path d="M79.4703 61.705C80.6687 61.705 81.6403 60.7334 81.6403 59.535C81.6403 58.3365 80.6687 57.365 79.4703 57.365C78.2718 57.365 77.3003 58.3365 77.3003 59.535C77.3003 60.7334 78.2718 61.705 79.4703 61.705Z" fill="#272736"/>
<path d="M79.4703 79.065C80.6687 79.065 81.6403 78.0934 81.6403 76.895C81.6403 75.6965 80.6687 74.725 79.4703 74.725C78.2718 74.725 77.3003 75.6965 77.3003 76.895C77.3003 78.0934 78.2718 79.065 79.4703 79.065Z" fill="#272736"/>
<path d="M79.4703 96.435C80.6687 96.435 81.6403 95.4634 81.6403 94.265C81.6403 93.0665 80.6687 92.095 79.4703 92.095C78.2718 92.095 77.3003 93.0665 77.3003 94.265C77.3003 95.4634 78.2718 96.435 79.4703 96.435Z" fill="#272736"/>
<path d="M57.6104 32.955C57.6004 34.795 55.7004 36.025 54.0204 35.275C48.1704 32.665 44.2704 25.575 45.1304 17.325C45.8804 10.125 49.8704 4.26497 55.0204 1.92497C56.3004 1.34497 57.7604 2.32497 57.7404 3.73497L57.6104 32.955Z" fill="#272736"/>
<path d="M73.0204 32.115C72.9904 33.955 74.8604 35.225 76.5504 34.515C82.4504 32.035 86.5104 25.025 85.8304 16.765C85.2504 9.54496 81.3804 3.60496 76.2904 1.15496C75.0204 0.544963 73.5404 1.49496 73.5304 2.90496L73.0204 32.115Z" fill="#43434F"/>
</g>
<defs>
<clipPath id="clip0_301_14828">
<rect width="117.86" height="128.07" fill="white" transform="translate(0.0800781 0.964966)"/>
</clipPath>
</defs>
</svg>
