<svg width="136" height="143" viewBox="0 0 136 143" fill="none" xmlns="http://www.w3.org/2000/svg">
<g clip-path="url(#clip0_333_1015)">
<path d="M49.7198 17.4701C49.7198 17.4701 43.0998 20.9901 43.0998 30.1401L43.0098 54.9701C42.9898 60.2801 41.6598 69.5901 32.9098 69.3601C22.7898 69.0901 23.4498 54.2801 23.4498 53.1601C23.4498 52.2601 23.4598 45.7301 23.4598 45.7301H9.13975C9.13975 45.7301 9.08975 52.1801 9.07975 53.2701C9.01975 59.4701 10.1198 81.4301 27.4498 84.9601C38.6298 87.2401 46.3498 81.5501 47.3298 80.7301L49.7198 17.4701Z" fill="#272F38"/>
<path d="M65.2298 23.2901L65.4998 11.6801C62.3798 11.6801 57.1398 12.7301 53.2498 14.7901C49.9598 16.5301 48.3898 18.4101 48.3898 18.4101L47.3398 80.73V80.7401V102.68V136.62H65.2298V23.2901Z" fill="#39485B"/>
<path d="M66.3496 11.6801H64.6396V136.62H66.3496V11.6801Z" fill="#272F38"/>
<path d="M126.95 122.96H112.93C112.93 122.96 109.18 81.2301 104.43 65.6001C103.92 63.9401 103.42 62.5701 102.96 61.5801V136.68L83.5898 136.57L84.4398 11.6801C84.4398 11.6801 91.1698 12.1101 98.9298 16.7201C99.9798 17.3401 101.07 18.1101 102.18 19.0701C102.72 19.5001 103.26 20.0101 103.81 20.5501C107.59 24.3001 111.45 30.1701 114.53 39.2801C114.52 39.2801 125.69 75.6701 126.95 122.96Z" fill="#92AED6"/>
<path d="M84.44 11.6801H82.73V136.62H84.44V11.6801Z" fill="#39485B"/>
<path d="M104.42 65.6001L102.95 61.5801L102.41 35.4201L84.4302 21.1701V19.0601L102.37 33.2601L102.16 19.0601C102.7 19.4901 103.24 20.0001 103.79 20.5401L104.42 65.6001Z" fill="#39485B"/>
<path d="M88.4698 69.34C89.6683 69.34 90.6398 68.3685 90.6398 67.17C90.6398 65.9715 89.6683 65 88.4698 65C87.2713 65 86.2998 65.9715 86.2998 67.17C86.2998 68.3685 87.2713 69.34 88.4698 69.34Z" fill="#FCF4F6"/>
<path d="M88.4698 53.2C89.6683 53.2 90.6398 52.2284 90.6398 51.03C90.6398 49.8315 89.6683 48.86 88.4698 48.86C87.2713 48.86 86.2998 49.8315 86.2998 51.03C86.2998 52.2284 87.2713 53.2 88.4698 53.2Z" fill="#FCF4F6"/>
<path d="M88.4698 86.71C89.6683 86.71 90.6398 85.7385 90.6398 84.54C90.6398 83.3415 89.6683 82.37 88.4698 82.37C87.2713 82.37 86.2998 83.3415 86.2998 84.54C86.2998 85.7385 87.2713 86.71 88.4698 86.71Z" fill="#FCF4F6"/>
<path d="M66.6197 40.6C66.6097 42.44 64.7097 43.67 63.0297 42.92C57.1797 40.31 53.2797 33.22 54.1397 24.97C54.8897 17.77 58.8797 11.91 64.0297 9.56999C65.3097 8.98999 66.7697 9.96999 66.7497 11.38L66.6197 40.6Z" fill="#272F38"/>
<path d="M82.0297 39.75C81.9997 41.59 83.8697 42.86 85.5597 42.15C91.4597 39.67 95.5197 32.66 94.8397 24.4C94.2497 17.18 90.3797 11.23 85.2897 8.79003C84.0197 8.18003 82.5397 9.13003 82.5297 10.54L82.0297 39.75Z" fill="#39485B"/>
<path d="M62.0598 97.52L47.3398 111.37V104.24L58.4898 93.96C58.8098 93.64 59.3398 93.64 59.6498 93.96L62.0698 96.38C62.3798 96.68 62.3798 97.21 62.0598 97.52Z" fill="#92AED6"/>
<path d="M102.95 104.41V111.54L88.4602 97.53C88.1402 97.22 88.1402 96.69 88.4602 96.39L90.8802 93.97C91.1902 93.65 91.7202 93.65 92.0402 93.97L102.95 104.41Z" fill="#39485B"/>
<path d="M129.04 126.84H110.94C109.99 126.84 109.22 126.06 109.22 125.12V117.9C109.22 116.95 110 116.18 110.94 116.18H129.04C129.99 116.18 130.76 116.96 130.76 117.9V125.12C130.76 126.06 129.99 126.84 129.04 126.84Z" fill="#39485B"/>
<path d="M24 54.06H8.94998C7.99998 54.06 7.22998 53.28 7.22998 52.34V45.12C7.22998 44.17 8.00998 43.4 8.94998 43.4H24C24.95 43.4 25.72 44.18 25.72 45.12V52.34C25.72 53.28 24.95 54.06 24 54.06Z" fill="#39485B"/>
<path d="M67.8299 136.06V140.65C67.8299 142.21 67.2899 143.49 66.6199 143.49H47.5799C46.9199 143.49 46.3799 142.21 46.3799 140.65V136.06C46.3799 134.5 46.9199 133.22 47.5799 133.22H66.6099C67.2799 133.22 67.8299 134.5 67.8299 136.06Z" fill="#92AED6"/>
<path d="M104.42 136.06V140.65C104.42 142.21 103.94 143.49 103.35 143.49H83.4899C82.8999 143.49 82.4199 142.21 82.4199 140.65V136.06C82.4199 134.5 82.8999 133.22 83.4899 133.22H103.35C103.94 133.22 104.42 134.5 104.42 136.06Z" fill="#272F38"/>
<path d="M91.2398 133.22V143.48H82.4198C81.7998 143.48 81.2998 142.2 81.2998 140.64V136.05C81.2998 134.49 81.7998 133.21 82.4198 133.21H91.2398V133.22Z" fill="#39485B"/>
</g>
<defs>
<clipPath id="clip0_333_1015">
<rect width="136" height="143" fill="white"/>
</clipPath>
</defs>
</svg>
