<svg width="136" height="143" viewBox="0 0 136 143" fill="none" xmlns="http://www.w3.org/2000/svg">
<path d="M130.4 125.53H113.26C113.26 125.53 112.83 122.03 112.11 116.66C111.93 115.3 111.73 113.82 111.52 112.24C111.29 110.62 111.05 108.89 110.79 107.1C110.59 105.66 110.37 104.18 110.14 102.67C109.9 100.99 109.63 99.27 109.36 97.53C109.14 96.06 108.9 94.58 108.66 93.1C106.61 80.42 105.43 69.61 104.5 63.02V131.79H49.6597V130.54H68.2497V57.81L76.7797 40.95L79.7897 35L77.2097 31.95L77.8697 30.35L85.7997 11.12C85.7997 11.12 86.5197 11.17 87.7797 11.42C90.2797 11.9 94.9297 13.17 100.31 16.36C105.63 19.52 111.92 26.18 116.52 39.83C116.52 39.83 123.85 61.13 127.9 93.1C128.08 94.55 128.26 96.03 128.43 97.53C128.62 99.22 128.8 100.93 128.97 102.67C129.12 104.13 129.25 105.6 129.38 107.1C129.52 108.79 129.65 110.5 129.77 112.24C129.87 113.7 129.96 115.17 130.04 116.66C130.2 119.57 130.32 122.52 130.4 125.53Z" fill="#E0DB99"/>
<path d="M50.9398 17.15L48.4598 83.38C47.4298 84.23 39.4398 88.98 27.7798 86.76C20.1698 85.31 15.4998 80.2 12.6698 74.6C12.1198 73.52 11.6398 72.41 11.2298 71.27C10.4998 69.31 9.94979 67.29 9.54979 65.3C9.29979 64.09 9.10979 62.9 8.95979 61.73C8.69979 59.83 8.56979 58.01 8.49979 56.34C8.43979 55.04 8.42979 53.82 8.44979 52.74C8.48979 49.58 8.73979 47.53 8.73979 47.53H23.6298C23.6298 47.53 23.6198 50.15 23.6198 52.74C23.6198 54.07 23.6198 55.39 23.6298 56.34C23.6398 56.93 23.6498 57.39 23.6598 57.61C23.6998 58.39 23.7298 59.35 23.8198 60.4C23.9098 61.52 24.0698 62.74 24.3898 63.95C24.6898 65.11 25.1498 66.26 25.8198 67.28C26.5898 68.43 27.6298 69.42 29.0798 70.11C30.2498 70.67 31.6898 71.03 33.4598 71.11C42.5498 71.49 43.9398 61.67 43.9598 56.15L44.0498 30.32C44.0498 23.55 47.5398 19.75 49.5498 18.12C49.5498 18.12 49.7698 17.94 50.1798 17.63C50.6498 17.31 50.9398 17.15 50.9398 17.15Z" fill="#474322"/>
<path d="M77.21 31.95L69.81 23.19L67.34 11.11C64.1 11.11 59.27 12.27 55.23 14.42C51.81 16.23 49.55 18.11 49.55 18.11L48.46 82.92V82.93V105.75V130.54H49.66H68.26V57.81L79.79 35L77.21 31.95Z" fill="#7A7330"/>
<path d="M83.2198 40.22C76.0298 43.23 67.0898 38.35 63.1598 29.28C60.2898 22.63 60.8998 15.57 64.2398 11.01C65.0698 9.86999 66.8298 10.02 67.4998 11.26L83.2198 40.22Z" fill="#B7AFB0"/>
<path d="M86.0997 9.63994C85.0797 8.68994 83.4297 9.06994 82.9397 10.3699L70.2497 43.4199C70.2497 43.4199 70.2397 43.4399 70.2297 43.4799L69.8797 44.2799C63.8197 58.6799 65.8497 74.9599 65.8497 74.9599C71.9897 73.6399 78.8997 66.9299 81.2797 56.3599C82.1697 52.4099 78.6297 49.7299 75.1697 47.4199C82.0897 45.1799 88.7997 39.6499 91.2797 30.6399C93.7197 21.7599 91.3197 14.5099 86.0997 9.63994Z" fill="#FCF4F6"/>
<path d="M73.1998 122.03C74.3982 122.03 75.3698 121.058 75.3698 119.86C75.3698 118.661 74.3982 117.69 73.1998 117.69C72.0013 117.69 71.0298 118.661 71.0298 119.86C71.0298 121.058 72.0013 122.03 73.1998 122.03Z" fill="#353C59"/>
<path d="M73.1998 96.2399C74.3982 96.2399 75.3698 95.2684 75.3698 94.0699C75.3698 92.8715 74.3982 91.8999 73.1998 91.8999C72.0013 91.8999 71.0298 92.8715 71.0298 94.0699C71.0298 95.2684 72.0013 96.2399 73.1998 96.2399Z" fill="#353C59"/>
<path d="M73.1998 109.13C74.3982 109.13 75.3698 108.158 75.3698 106.96C75.3698 105.761 74.3982 104.79 73.1998 104.79C72.0013 104.79 71.0298 105.761 71.0298 106.96C71.0298 108.158 72.0013 109.13 73.1998 109.13Z" fill="#353C59"/>
<path d="M73.1998 83.3499C74.3982 83.3499 75.3698 82.3783 75.3698 81.1799C75.3698 79.9814 74.3982 79.0099 73.1998 79.0099C72.0013 79.0099 71.0298 79.9814 71.0298 81.1799C71.0298 82.3783 72.0013 83.3499 73.1998 83.3499Z" fill="#353C59"/>
<path d="M107.77 133.33V138.1C107.77 139.72 106.4 141.05 104.73 141.05H48.3396C46.6696 141.05 45.3096 139.72 45.3096 138.1V133.33C45.3096 131.71 46.6596 130.38 48.3396 130.38H104.72C106.4 130.38 107.77 131.71 107.77 133.33Z" fill="#FDF6F8"/>
<path d="M68.2996 130.38V141.05H48.2196C46.6096 141.05 45.3096 139.72 45.3096 138.1V133.33C45.3096 131.71 46.6096 130.38 48.2196 130.38H68.2996Z" fill="#B9B0B1"/>
<path d="M128.43 97.53H109.36C109.14 96.06 108.9 94.58 108.66 93.1H127.9C128.08 94.55 128.26 96.03 128.43 97.53Z" fill="#7A7330"/>
<path d="M129.38 107.1H110.79C110.59 105.66 110.37 104.18 110.14 102.67H128.97C129.12 104.13 129.25 105.6 129.38 107.1Z" fill="#7A7330"/>
<path d="M130.04 116.66H112.11C111.93 115.3 111.73 113.82 111.52 112.24H129.77C129.87 113.7 129.96 115.17 130.04 116.66Z" fill="#7A7330"/>
<path d="M23.6298 56.34H8.49979C8.43979 55.04 8.42979 53.82 8.44979 52.74H23.6198C23.6198 54.07 23.6198 55.39 23.6298 56.34Z" fill="#7A7330"/>
<path d="M24.1996 63.1499L9.45955 64.7199C9.20955 63.5099 8.93955 61.9199 8.78955 60.7499L23.7496 59.3999C23.8396 60.5199 23.8796 61.9399 24.1996 63.1499Z" fill="#7A7330"/>
<path d="M29.0799 70.1099L12.6699 74.5999C12.1199 73.5199 11.3099 71.4899 10.8999 70.3499L25.8199 67.2799C26.5899 68.4299 27.6299 69.4199 29.0799 70.1099Z" fill="#7A7330"/>
</svg>
