<svg width="143" height="148" viewBox="0 0 143 148" fill="none" xmlns="http://www.w3.org/2000/svg">
<g clip-path="url(#clip0_301_9161)">
<path d="M140.69 124.52H121.78C121.78 124.52 121.64 123.06 121.4 120.58C119.22 125.46 115.71 129.84 111.21 133.47V139.06L73.25 138.94L72.21 70.08L73.9 43.58L91.57 6.53998C91.57 6.53998 102.17 6.88998 112.76 15.42C113.25 15.81 113.74 16.23 114.23 16.65C116.79 18.91 119.32 21.67 121.67 25.03C125.11 29.95 127.53 35.51 129.05 41.32C132.3 53.7 139.65 85.64 140.69 124.52Z" fill="#21C95E"/>
<path d="M78.4201 84.78C79.6904 84.78 80.7201 83.7503 80.7201 82.48C80.7201 81.2097 79.6904 80.18 78.4201 80.18C77.1499 80.18 76.1201 81.2097 76.1201 82.48C76.1201 83.7503 77.1499 84.78 78.4201 84.78Z" fill="#1A9252"/>
<path d="M78.4201 103.19C79.6904 103.19 80.7201 102.16 80.7201 100.89C80.7201 99.6197 79.6904 98.59 78.4201 98.59C77.1499 98.59 76.1201 99.6197 76.1201 100.89C76.1201 102.16 77.1499 103.19 78.4201 103.19Z" fill="#1A9252"/>
<path d="M140.6 128.63H121.2C120.25 128.63 119.48 127.85 119.48 126.91V119.05C119.48 118.1 120.26 117.33 121.2 117.33H140.6C141.55 117.33 142.32 118.11 142.32 119.05V126.91C142.33 127.85 141.55 128.63 140.6 128.63Z" fill="#FDF6F8"/>
<path d="M123.49 103.02V110.58L108.13 95.72C107.79 95.39 107.79 94.83 108.13 94.51L110.7 91.94C111.03 91.6 111.59 91.6 111.93 91.94L123.49 103.02Z" fill="#1A9252"/>
<path d="M112.76 63.7V87.84C112.76 87.84 118.75 92.52 123.49 103.02L112.76 63.7Z" fill="#1A9252"/>
<path d="M51.2903 9.82996V22.25C51.2903 52.02 50.6303 65.36 45.6903 75.82C41.6903 84.28 35.1103 86.68 26.3203 86.68C5.54028 86.68 1.52028 69.17 2.82028 48.86H19.8803C19.8803 54.03 23.2103 57.71 28.2403 57.71C36.4303 57.71 36.9003 42.08 37.5803 30.56C37.7703 27.35 38.7003 21.69 41.6903 18.03C44.9003 14.1 48.4203 11.48 51.2903 9.82996Z" fill="#317152"/>
<path d="M73.0601 67.86L73.4001 139.06H42.9801V132.81C35.0101 126.19 31.3001 119.44 29.9801 113.32L29.9001 112.63L29.3701 107.74C29.3701 107.46 29.3701 107.18 29.3901 106.91C29.6701 96.69 35.6601 89.51 35.6501 90.04L36.0101 43.13C36.0101 39.92 35.5601 28.63 37.5901 22.91C39.1801 18.45 43.9001 13.97 44.0901 13.79V13.78C44.0901 13.78 47.0401 11.13 49.6601 9.66998C56.3101 5.97998 58.9301 6.03998 62.2301 6.03998L61.9501 18.9L75.9201 37.13L73.0601 67.86Z" fill="#1A9252"/>
<path d="M47.5701 97.69L46.5801 98.62L29.9001 112.63L29.3701 107.74C29.3701 107.46 29.3701 107.18 29.3901 106.91C32.6701 103.69 43.7801 93.92 43.7801 93.92C44.1301 93.58 44.6901 93.58 45.0101 93.92L47.5701 96.48C47.9101 96.8 47.9101 97.36 47.5701 97.69Z" fill="#21C95E"/>
<path d="M19.9401 50.56H2.55008C1.61008 50.56 0.830078 49.78 0.830078 48.83V43.37C0.830078 42.42 1.61008 41.65 2.55008 41.65H19.9301C20.8801 41.65 21.6501 42.43 21.6501 43.37V48.83C21.6601 49.78 20.8801 50.56 19.9401 50.56Z" fill="#989192"/>
<path d="M80.3001 36.88C72.2201 39.79 62.6501 33.92 58.8401 23.72C56.0501 16.24 57.1201 8.49996 61.0601 3.66996C62.0401 2.46996 63.9601 2.72996 64.6301 4.12996L80.3001 36.88Z" fill="#B7AFB0"/>
<path d="M91.6902 1.41997C90.5702 0.369974 88.7402 0.789974 88.2102 2.22997L77.1102 24.65C74.9502 29.01 74.1202 33.85 74.2002 38.71L73.8202 39.6C69.8602 55.43 70.9402 73.82 70.9402 73.82C77.7002 72.37 83.5202 65.59 86.1402 53.94C87.1202 49.59 83.4702 45.6 79.6502 43.06C87.2702 40.59 94.6802 34.49 97.4002 24.57C100.09 14.79 97.4402 6.79997 91.6902 1.41997Z" fill="#FCF4F6"/>
<path d="M114.5 138.55V143.87C114.5 145.67 112.97 147.16 111.11 147.16H45.7201C43.8601 147.16 42.3501 145.68 42.3501 143.87V138.55C42.3501 136.75 43.8601 135.26 45.7201 135.26H111.11C112.97 135.27 114.5 136.75 114.5 138.55Z" fill="#FDF6F8"/>
<path d="M73.5702 135.27V147.16H43.1902C41.4002 147.16 39.9502 145.68 39.9502 143.87V138.55C39.9502 136.75 41.4002 135.26 43.1902 135.26H73.5702V135.27Z" fill="#B9B0B1"/>
<path d="M114.23 16.65L114.18 68.66C114.18 69.05 113.87 69.37 113.47 69.37C113.09 69.37 112.76 69.05 112.76 68.66V40.47L104.59 29.58C104.36 29.26 104.42 28.82 104.74 28.58C105.05 28.35 105.5 28.41 105.73 28.73L112.76 38.1V15.42C113.25 15.81 113.74 16.23 114.23 16.65Z" fill="#1A9252"/>
</g>
<defs>
<clipPath id="clip0_301_9161">
<rect width="141.5" height="146.32" fill="white" transform="translate(0.830078 0.839966)"/>
</clipPath>
</defs>
</svg>
