<svg width="139" height="140" viewBox="0 0 139 140" fill="none" xmlns="http://www.w3.org/2000/svg">
<g clip-path="url(#clip0_301_9095)">
<path d="M138.77 124.57H119.86C119.86 124.57 119.72 123.11 119.48 120.63C117.3 125.51 113.79 129.89 109.29 133.52V139.11L71.33 138.99L70.29 70.13L71.98 43.63L89.65 6.59003C89.65 6.59003 100.25 6.94003 110.84 15.47C111.33 15.86 111.82 16.28 112.31 16.7C114.87 18.96 117.4 21.72 119.75 25.08C123.19 30 125.61 35.56 127.13 41.37C130.38 53.75 137.73 85.69 138.77 124.57Z" fill="#FF9166"/>
<path d="M76.5002 84.83C77.7704 84.83 78.8002 83.8003 78.8002 82.53C78.8002 81.2598 77.7704 80.23 76.5002 80.23C75.2299 80.23 74.2002 81.2598 74.2002 82.53C74.2002 83.8003 75.2299 84.83 76.5002 84.83Z" fill="#F5F4F0"/>
<path d="M76.5002 103.24C77.7704 103.24 78.8002 102.21 78.8002 100.94C78.8002 99.6698 77.7704 98.64 76.5002 98.64C75.2299 98.64 74.2002 99.6698 74.2002 100.94C74.2002 102.21 75.2299 103.24 76.5002 103.24Z" fill="#F5F4F0"/>
<path d="M76.5002 122.43C77.7704 122.43 78.8002 121.4 78.8002 120.13C78.8002 118.86 77.7704 117.83 76.5002 117.83C75.2299 117.83 74.2002 118.86 74.2002 120.13C74.2002 121.4 75.2299 122.43 76.5002 122.43Z" fill="#F5F4F0"/>
<path d="M121.57 103.07V110.63L106.21 95.7801C105.87 95.4501 105.87 94.8901 106.21 94.5701L108.78 92.0001C109.11 91.6601 109.67 91.6601 110.01 92.0001L121.57 103.07Z" fill="#EB564B"/>
<path d="M110.84 63.75V87.89C110.84 87.89 116.83 92.57 121.57 103.07L110.84 63.75Z" fill="#EB564B"/>
<path d="M49.3703 9.88V22.3C49.3703 52.07 48.7103 65.41 43.7703 75.87C39.7703 84.33 33.1903 86.73 24.4003 86.73C3.62025 86.74 -0.609745 63.2 0.680255 42.89H17.7403C17.7403 48.06 18.8903 57.77 26.3203 57.77C34.5103 57.77 34.9803 42.14 35.6603 30.62C35.8503 27.41 36.7803 21.75 39.7703 18.09C42.9803 14.15 46.5003 11.53 49.3703 9.88Z" fill="#962C2E"/>
<path d="M71.1402 67.91L71.4502 131.91L66.2002 139.11H41.0602V132.86C33.0902 126.24 29.3802 119.49 28.0602 113.37L27.9802 112.68L27.4502 107.79C27.4502 107.51 27.4502 107.23 27.4702 106.96C27.7502 96.74 33.7402 89.56 33.7302 90.09L34.0902 43.18C34.0902 39.97 33.6402 28.68 35.6702 22.96C37.2602 18.5 41.9802 14.02 42.1702 13.84V13.83C42.1702 13.83 45.1202 11.18 47.7402 9.72003C54.3902 6.03003 57.0102 6.09003 60.3102 6.09003L60.0302 18.95L74.0002 37.18L71.1402 67.91Z" fill="#EB564B"/>
<path d="M45.6502 97.74L44.6602 98.67L27.9802 112.68L27.4502 107.79C27.4502 107.51 27.4502 107.23 27.4702 106.96C30.7502 103.74 41.8602 93.97 41.8602 93.97C42.2102 93.63 42.7702 93.63 43.0902 93.97L45.6502 96.53C45.9902 96.85 45.9902 97.41 45.6502 97.74Z" fill="#FF9166"/>
<path d="M78.3802 36.93C70.3002 39.84 60.7302 33.97 56.9202 23.77C54.1302 16.29 55.2002 8.55001 59.1402 3.72001C60.1202 2.52001 62.0402 2.78001 62.7102 4.18001L78.3802 36.93Z" fill="#B7AFB0"/>
<path d="M89.7703 1.47002C88.6503 0.420023 86.8203 0.840023 86.2903 2.28002L75.1903 24.7C73.0303 29.06 72.2003 33.9 72.2803 38.76L71.9003 39.65C67.9403 55.48 69.0203 73.87 69.0203 73.87C75.7803 72.42 81.6003 65.64 84.2203 53.99C85.2003 49.64 81.5503 45.65 77.7303 43.11C85.3503 40.64 92.7603 34.54 95.4803 24.62C98.1703 14.84 95.5203 6.85002 89.7703 1.47002Z" fill="#FCF4F6"/>
</g>
<defs>
<clipPath id="clip0_301_9095">
<rect width="138.3" height="138.22" fill="white" transform="translate(0.470215 0.890015)"/>
</clipPath>
</defs>
</svg>
