<svg width="136" height="264" viewBox="0 0 136 264" fill="none" xmlns="http://www.w3.org/2000/svg">
<path d="M99.77 45.78V257.97H50.25V45.7901C51.74 45.2601 53.07 44.46 54.22 43.45C56.66 41.3 58.19 38.21 58.19 34.78V1.79005C58.92 1.62005 59.69 1.80005 60.47 1.79005C60.1 3.04005 59.91 4.36005 59.91 5.72005C59.91 13.07 65.57 19.13 72.93 20.11V24.47C72.93 25.33 73.66 26.03 74.55 26.03H75.46C76.36 26.03 77.09 25.32 77.09 24.47V20.1C84.44 19.13 90.11 13.07 90.11 5.71005C90.11 4.35005 89.92 3.03005 89.55 1.78005C90.34 1.79005 91.1 1.61005 91.83 1.78005V34.7601C91.84 39.8201 95.13 44.11 99.77 45.78Z" fill="#8FDE5D"/>
<path d="M90.1199 5.72003C90.1199 13.07 84.4499 19.13 77.0999 20.11V24.47C77.0999 25.33 76.3699 26.03 75.4699 26.03H74.5599C73.6699 26.03 72.9399 25.32 72.9399 24.47V20.1C65.5799 19.13 59.9199 13.07 59.9199 5.71003C59.9199 4.35003 60.1099 3.03003 60.4799 1.78003H64.9999C64.9999 1.78003 63.7899 3.96003 64.0899 6.39003C64.0899 12.21 68.9799 17.92 75.0199 17.92C81.0499 17.92 86.5699 12.2 86.5699 6.39003C86.5699 4.73003 86.4599 3.17003 85.7499 1.78003H89.5499C89.9199 3.04003 90.1199 4.36003 90.1199 5.72003Z" fill="#F7F7F7"/>
<path d="M60.3898 210.27V257.97H57.5298V210.27C57.5298 209.51 58.1698 208.89 58.9598 208.89C59.7498 208.89 60.3898 209.51 60.3898 210.27Z" fill="#1C9D86"/>
<path d="M68.4201 210.27V257.97H65.5601V210.27C65.5601 209.51 66.2001 208.89 66.9901 208.89C67.7801 208.89 68.4201 209.51 68.4201 210.27Z" fill="#1C9D86"/>
<path d="M76.4401 210.27V257.97H73.5801V210.27C73.5801 209.51 74.2201 208.89 75.0101 208.89C75.8001 208.89 76.4401 209.51 76.4401 210.27Z" fill="#1C9D86"/>
<path d="M84.4601 210.27V257.97H81.6001V210.27C81.6001 209.51 82.2401 208.89 83.0301 208.89C83.8201 208.89 84.4601 209.51 84.4601 210.27Z" fill="#1C9D86"/>
<path d="M92.4801 210.27V257.97H89.6201V210.27C89.6201 209.51 90.2601 208.89 91.0501 208.89C91.8401 208.89 92.4801 209.51 92.4801 210.27Z" fill="#1C9D86"/>
<path d="M54.22 43.4501V257.97H50.25V45.7901C51.74 45.2601 53.08 44.4601 54.22 43.4501Z" fill="#1C9D86"/>
</svg>
