<svg width="97" height="122" viewBox="0 0 97 122" fill="none" xmlns="http://www.w3.org/2000/svg">
<g clip-path="url(#clip0_301_6499)">
<path d="M93.6399 80.475H82.0999C82.0999 80.475 82.0999 59.355 78.1099 50.765V93.425L81.7299 118.675C81.7299 118.675 66.2199 123.395 54.4499 119.995L48.9199 118.675L49.0599 19.785L60.7199 2.99503C60.7199 2.99503 65.8199 3.35503 72.1999 7.15503C73.7899 8.09503 75.4799 9.42503 77.1799 11.295C77.5699 11.735 77.9699 12.205 78.3599 12.705C80.7599 15.745 83.0899 19.945 85.0399 25.735C85.0399 25.735 92.5999 41.545 93.6399 80.475Z" fill="#20697B"/>
<path d="M32.9198 8.21503C32.9198 8.21503 23.6498 14.685 23.6498 22.215L23.0398 52.185C22.0698 69.945 8.2598 63.455 8.2598 63.455L0.0498047 72.435C0.0498047 72.435 14.8598 84.495 31.1598 69.305L32.9198 8.21503Z" fill="#20697B"/>
<path d="M49.9397 18.475L45.1297 2.99503C34.6897 2.99503 27.5397 13.175 27.5397 13.175V93.315L24.1997 118.665L26.8797 119.295C40.3697 121.785 49.9397 120.255 49.9397 120.255V18.475Z" fill="#144D56"/>
<path d="M13.2896 65.565L5.65964 75.525C5.07964 76.275 3.99964 76.425 3.23964 75.845L0.719643 73.915C-0.0303574 73.335 -0.180357 72.255 0.399643 71.495L8.02964 61.535C8.60964 60.785 9.68964 60.635 10.4496 61.215L12.9696 63.145C13.7196 63.725 13.8696 64.815 13.2896 65.565Z" fill="#5DA7AF"/>
<path d="M41.1096 71.715L27.5396 84.485V77.915L37.8196 68.435C38.1196 68.135 38.5996 68.135 38.8896 68.435L41.1196 70.665C41.3996 70.945 41.3996 71.435 41.1096 71.715Z" fill="#5DA7AF"/>
<path d="M77.9898 78.055V84.615L64.6498 71.715C64.3498 71.435 64.3498 70.945 64.6498 70.665L66.8798 68.435C67.1598 68.135 67.6498 68.135 67.9498 68.435L77.9898 78.055Z" fill="#144D56"/>
<path d="M94.6698 83.015H81.0598C80.1098 83.015 79.3398 82.235 79.3398 81.295V77.405C79.3398 76.455 80.1198 75.685 81.0598 75.685H94.6698C95.6198 75.685 96.3898 76.465 96.3898 77.405V81.295C96.3998 82.245 95.6198 83.015 94.6698 83.015Z" fill="#5DA7AF"/>
<path d="M44.9096 2.26502C45.7996 5.40502 48.2496 11.935 50.3796 18.325C50.6096 19.015 47.8796 20.355 46.9896 20.095L38.6796 17.835C37.9296 17.625 37.4196 17.105 37.3496 16.495L37.9596 7.74502C37.7496 5.84502 38.9196 3.94502 41.0196 2.75502L42.7996 1.74502C43.5996 1.28502 44.7096 1.55502 44.9096 2.26502Z" fill="#5DA7AF"/>
<path d="M50.2197 21.335C49.2897 20.485 48.4797 19.555 49.1997 18.515C54.5397 10.825 56.4997 7.31502 60.1297 1.46502L60.2897 1.14502C60.9697 -0.0649822 67.2197 1.86502 67.1897 4.62502L68.1597 13.985C68.2397 14.915 67.8597 15.825 67.1297 16.425C64.7597 18.355 57.0497 20.755 51.4997 21.775C51.0097 21.865 50.5797 21.665 50.2197 21.335Z" fill="#144D56"/>
<path d="M54.3194 46.975C55.5179 46.975 56.4894 46.0035 56.4894 44.805C56.4894 43.6066 55.5179 42.635 54.3194 42.635C53.121 42.635 52.1494 43.6066 52.1494 44.805C52.1494 46.0035 53.121 46.975 54.3194 46.975Z" fill="#24305B"/>
<path d="M54.3194 65.925C55.5179 65.925 56.4894 64.9535 56.4894 63.755C56.4894 62.5566 55.5179 61.585 54.3194 61.585C53.121 61.585 52.1494 62.5566 52.1494 63.755C52.1494 64.9535 53.121 65.925 54.3194 65.925Z" fill="#24305B"/>
<path d="M54.3194 31.115C55.5179 31.115 56.4894 30.1435 56.4894 28.945C56.4894 27.7466 55.5179 26.775 54.3194 26.775C53.121 26.775 52.1494 27.7466 52.1494 28.945C52.1494 30.1435 53.121 31.115 54.3194 31.115Z" fill="#24305B"/>
</g>
<defs>
<clipPath id="clip0_301_6499">
<rect width="96.35" height="120.43" fill="white" transform="translate(0.0498047 0.785004)"/>
</clipPath>
</defs>
</svg>
