<svg width="82" height="162" viewBox="0 0 82 162" fill="none" xmlns="http://www.w3.org/2000/svg">
<g clip-path="url(#clip0_301_15319)">
<path d="M81.6598 61.975H67.3598C67.3598 61.975 62.6898 46.655 59.3598 40.075V126.835H10.6798V60.845L2.33984 52.945C2.33984 52.945 5.73984 51.415 5.73984 34.735C5.73984 18.055 5.73984 12.605 5.73984 12.605C5.73984 12.605 6.32984 4.92503 14.2898 2.08503C16.0998 1.43503 20.0598 0.285034 22.4498 0.285034C22.4498 0.285034 29.2298 12.265 35.0198 15.165C35.0198 15.165 45.4398 8.62503 47.8298 0.285034C47.8298 0.285034 57.8298 0.605034 62.7598 10.185C67.6998 19.755 76.8898 39.165 81.6598 61.975Z" fill="#92AED6"/>
<path d="M43.8803 22.655C43.5903 20.365 38.8203 18.055 36.6903 17.135C36.3503 16.985 35.9903 16.915 35.6203 16.915C35.2403 16.915 34.8703 16.995 34.5303 17.145C32.4803 18.075 27.9603 20.365 27.6703 22.645C27.4803 24.095 28.0603 25.305 29.2203 25.885C29.7003 26.125 30.2303 26.245 30.7803 26.245C31.7703 26.245 32.8303 25.855 33.7803 25.145C33.5303 26.315 33.3803 27.625 33.4603 28.965L34.4603 28.905C34.3003 26.265 35.1403 23.725 35.7403 22.275C36.2103 24.325 36.9403 28.685 36.5303 34.645L37.5303 34.715C37.8203 30.495 37.5603 27.095 37.2103 24.685C38.2803 25.695 39.5803 26.235 40.7803 26.235C41.3303 26.235 41.8703 26.115 42.3403 25.875C43.4903 25.315 44.0703 24.105 43.8803 22.655ZM29.6803 25.005C28.8903 24.605 28.5403 23.815 28.6703 22.775C28.8503 21.395 31.9303 19.435 34.9103 18.075C35.0403 19.415 35.1603 22.555 33.7003 23.945C32.2303 25.345 30.6203 25.485 29.6803 25.005ZM41.8803 25.005C40.9303 25.485 39.3203 25.345 37.8603 23.945C36.4003 22.555 36.3303 19.455 36.3803 18.085C39.5003 19.435 42.7203 21.405 42.8903 22.775C43.0303 23.825 42.6703 24.615 41.8803 25.005Z" fill="#39485B"/>
<path d="M43.4301 85.105H22.6101C19.1301 85.105 16.3001 82.285 16.3001 78.795L14.2901 2.08502C6.33008 4.92502 3.73008 12.605 3.73008 12.605C3.73008 12.605 3.73008 18.055 3.73008 34.735C3.73008 51.415 0.330078 52.945 0.330078 52.945L10.6801 60.845V126.835H16.3001V93.705C16.3001 90.225 19.1201 87.395 22.6101 87.395H43.4301C44.0601 87.395 44.5801 86.885 44.5801 86.245C44.5701 85.615 44.0601 85.105 43.4301 85.105Z" fill="#39485B"/>
<path d="M22.45 117.325C19.64 118.845 17.73 121.815 17.73 125.235V161.715H22.45V117.325Z" fill="#39485B"/>
<path d="M64.27 125.235V161.715L22.46 161.705V117.325C23.73 116.635 25.18 116.245 26.72 116.245H55.28C60.24 116.245 64.27 120.275 64.27 125.235Z" fill="#92AED6"/>
<path d="M28.9099 132.175V161.715H26.3599V132.175C26.3599 131.475 26.9299 130.905 27.6299 130.905C28.3399 130.905 28.9099 131.475 28.9099 132.175Z" fill="#39485B"/>
<path d="M36.0598 132.175V161.715H33.5098V132.175C33.5098 131.475 34.0798 130.905 34.7798 130.905C35.4898 130.905 36.0598 131.475 36.0598 132.175Z" fill="#39485B"/>
<path d="M43.2097 132.175V161.715H40.6597V132.175C40.6597 131.475 41.2297 130.905 41.9297 130.905C42.6397 130.905 43.2097 131.475 43.2097 132.175Z" fill="#39485B"/>
<path d="M50.3601 132.175V161.715H47.8101V132.175C47.8101 131.475 48.3801 130.905 49.0801 130.905C49.7901 130.905 50.3601 131.475 50.3601 132.175Z" fill="#39485B"/>
<path d="M57.51 132.175V161.715H54.96V132.175C54.96 131.475 55.53 130.905 56.23 130.905C56.94 130.905 57.51 131.475 57.51 132.175Z" fill="#39485B"/>
</g>
<defs>
<clipPath id="clip0_301_15319">
<rect width="81.33" height="161.43" fill="white" transform="translate(0.330078 0.285034)"/>
</clipPath>
</defs>
</svg>
