<svg width="121" height="160" viewBox="0 0 121 160" fill="none" xmlns="http://www.w3.org/2000/svg">
<g clip-path="url(#clip0_301_2546)">
<path d="M108.32 28.89C103.72 15.23 97.6399 8.19998 92.1099 5.41998C84.4999 1.59998 75.7099 1.70998 75.7099 1.70998L75.6599 2.97998C75.5799 5.08998 74.7299 7.13998 73.1599 8.54998C68.8899 12.4 62.5499 12.63 62.5499 12.63L61.3799 42.75L63.9699 159.06C63.9699 159.06 78.8199 161.54 97.8199 155.42C97.8199 155.42 93.8299 104.8 92.4099 69.34L94.1399 46.92C99.1799 57.77 106.09 114.58 106.09 114.58H120.67C119.35 65.41 108.32 28.89 108.32 28.89Z" fill="#F9B843"/>
<path d="M42.7299 5.59998C42.7299 5.59998 35.8499 9.87997 35.8499 19.39L35.7599 45.22C35.7399 50.74 34.3499 60.56 25.2599 60.18C15.5299 59.77 15.6699 50.72 15.4599 46.68C15.3899 45.4 15.3699 34.81 15.3699 34.81H0.479886C0.479886 34.81 -1.60011 71.06 19.5799 75.38C31.2099 77.75 41.6199 71.31 42.6499 70.45L42.7299 5.59998Z" fill="#825616"/>
<path d="M63.7799 17.58L63.6999 10.77C59.9299 8.96999 57.4799 8.26999 57.4799 2.83999V1.73999C45.5999 2.20999 41.2099 6.80999 41.2099 6.80999L42.6999 71.51L35.4399 150.66C44.5999 160.79 63.8399 159.07 63.8399 159.07L63.7799 17.58Z" fill="#C18525"/>
<path d="M68.8301 50.76C67.8001 50.76 66.9401 51.46 66.6701 52.4H61.7701C61.5301 51.41 60.6501 50.67 59.5801 50.67C58.3401 50.67 57.3301 51.68 57.3301 52.92C57.3301 54.16 58.3401 55.18 59.5801 55.18C60.6501 55.18 61.5401 54.43 61.7701 53.43H66.6101C66.8001 54.48 67.7201 55.27 68.8201 55.27C70.0601 55.27 71.0701 54.26 71.0701 53.02C71.0801 51.77 70.0701 50.76 68.8301 50.76ZM59.5801 54.15C58.9001 54.15 58.3501 53.6 58.3501 52.92C58.3501 52.25 58.9001 51.7 59.5801 51.7C60.0901 51.7 60.5301 52.02 60.7101 52.47C60.5401 52.56 60.4301 52.72 60.4301 52.92C60.4301 53.12 60.5501 53.29 60.7201 53.37C60.5301 53.82 60.1001 54.15 59.5801 54.15ZM68.8301 54.24C68.2801 54.24 67.8301 53.87 67.6801 53.37C67.8501 53.29 67.9701 53.12 67.9701 52.91C67.9701 52.73 67.8701 52.58 67.7401 52.49C67.9401 52.08 68.3501 51.79 68.8401 51.79C69.5201 51.79 70.0701 52.34 70.0701 53.02C70.0501 53.69 69.5001 54.24 68.8301 54.24Z" fill="#42302D"/>
<path d="M59.5701 40.39C60.6401 40.39 61.5301 39.64 61.7601 38.64H66.6001C66.7901 39.69 67.7101 40.48 68.8101 40.48C70.0501 40.48 71.0601 39.47 71.0601 38.22C71.0601 36.98 70.0501 35.97 68.8101 35.97C67.7801 35.97 66.9201 36.67 66.6501 37.61H61.7501C61.5101 36.62 60.6301 35.88 59.5601 35.88C58.3201 35.88 57.3101 36.89 57.3101 38.13C57.3201 39.38 58.3301 40.39 59.5701 40.39ZM68.8201 37.01C69.5001 37.01 70.0501 37.56 70.0501 38.23C70.0501 38.91 69.5001 39.46 68.8201 39.46C68.2701 39.46 67.8201 39.09 67.6701 38.59C67.8401 38.51 67.9601 38.34 67.9601 38.13C67.9601 37.95 67.8601 37.8 67.7301 37.71C67.9201 37.3 68.3301 37.01 68.8201 37.01ZM59.5701 36.91C60.0801 36.91 60.5201 37.23 60.7001 37.68C60.5401 37.77 60.4201 37.93 60.4201 38.13C60.4201 38.33 60.5401 38.5 60.7001 38.58C60.5201 39.03 60.0801 39.36 59.5701 39.36C58.8901 39.36 58.3401 38.81 58.3401 38.13C58.3501 37.46 58.8901 36.91 59.5701 36.91Z" fill="#42302D"/>
<path d="M59.5701 27.39C60.6401 27.39 61.5301 26.64 61.7601 25.64H66.6001C66.7901 26.69 67.7101 27.48 68.8101 27.48C70.0501 27.48 71.0601 26.47 71.0601 25.23C71.0601 23.99 70.0501 22.98 68.8101 22.98C67.7801 22.98 66.9201 23.68 66.6501 24.62H61.7501C61.5101 23.63 60.6301 22.89 59.5601 22.89C58.3201 22.89 57.3101 23.9 57.3101 25.14C57.3201 26.38 58.3301 27.39 59.5701 27.39ZM68.8201 24.01C69.5001 24.01 70.0501 24.56 70.0501 25.23C70.0501 25.91 69.5001 26.46 68.8201 26.46C68.2701 26.46 67.8201 26.09 67.6701 25.59C67.8401 25.51 67.9601 25.34 67.9601 25.13C67.9601 24.95 67.8601 24.8 67.7301 24.71C67.9201 24.3 68.3301 24.01 68.8201 24.01ZM59.5701 23.91C60.0801 23.91 60.5201 24.23 60.7001 24.68C60.5401 24.76 60.4201 24.93 60.4201 25.13C60.4201 25.33 60.5401 25.5 60.7001 25.58C60.5201 26.03 60.0801 26.36 59.5701 26.36C58.8901 26.36 58.3401 25.81 58.3401 25.13C58.3501 24.46 58.8901 23.91 59.5701 23.91Z" fill="#42302D"/>
<path d="M59.5796 51.74V54.05C59.5796 54.05 58.7796 54.33 57.5496 54.54C56.5596 54.76 55.2696 54.97 53.8896 55C50.8096 55.09 50.8096 50.2 53.8896 50.2C55.4596 50.2 56.9096 50.6 57.9496 51C58.9696 51.37 59.5796 51.74 59.5796 51.74Z" fill="#825616"/>
<path d="M59.5797 51.74V54.05C59.5797 54.05 58.7797 54.33 57.5497 54.54C55.5497 52.94 56.7197 51.71 57.9497 51C58.9697 51.37 59.5797 51.74 59.5797 51.74Z" fill="#B66B2F"/>
<path d="M59.5799 51.72C59.5799 51.72 58.6099 51.42 57.9699 51.47C56.8699 51.56 56.5299 53.82 57.9699 54.29C58.5799 54.49 59.5799 54.02 59.5799 54.02V51.72Z" fill="#BC7313"/>
<path d="M68.8198 51.83V54.14C68.8198 54.14 69.6198 54.42 70.8498 54.63C71.8398 54.84 73.1298 55.06 74.5098 55.09C77.5898 55.18 77.5898 50.29 74.5098 50.29C72.9398 50.29 71.4898 50.69 70.4498 51.09C69.4398 51.46 68.8198 51.83 68.8198 51.83Z" fill="#825616"/>
<path d="M68.8198 51.83V54.14C68.8198 54.14 69.6198 54.42 70.8498 54.63C72.8498 53.03 71.6798 51.8 70.4498 51.09C69.4398 51.46 68.8198 51.83 68.8198 51.83Z" fill="#B66B2F"/>
<path d="M68.8296 51.82C68.8296 51.82 69.7996 51.52 70.4396 51.57C71.5396 51.66 71.8796 53.92 70.4396 54.4C69.8296 54.6 68.8296 54.13 68.8296 54.13V51.82Z" fill="#BC7313"/>
<path d="M59.06 52.86C59.06 53.28 58.72 53.62 58.3 53.62C57.88 53.62 57.54 53.28 57.54 52.86C57.54 52.44 57.88 52.1 58.3 52.1C58.72 52.1 59.06 52.44 59.06 52.86Z" fill="#42302D"/>
<path d="M70.8696 53.01C70.8696 53.43 70.5296 53.77 70.1096 53.77C69.6896 53.77 69.3496 53.43 69.3496 53.01C69.3496 52.59 69.6896 52.25 70.1096 52.25C70.5296 52.25 70.8696 52.59 70.8696 53.01Z" fill="#42302D"/>
<path d="M59.5698 36.96V39.27C59.5698 39.27 58.7698 39.55 57.5398 39.76C56.5498 39.98 55.2598 40.19 53.8798 40.22C50.7998 40.31 50.7998 35.42 53.8798 35.42C55.4498 35.42 56.8998 35.82 57.9398 36.22C58.9598 36.59 59.5698 36.96 59.5698 36.96Z" fill="#825616"/>
<path d="M59.5699 36.96V39.27C59.5699 39.27 58.7699 39.55 57.5399 39.76C55.5399 38.16 56.7099 36.93 57.9399 36.22C58.9599 36.59 59.5699 36.96 59.5699 36.96Z" fill="#B66B2F"/>
<path d="M59.5697 36.94C59.5697 36.94 58.5997 36.64 57.9597 36.69C56.8597 36.78 56.5197 39.04 57.9597 39.51C58.5697 39.71 59.5697 39.24 59.5697 39.24V36.94Z" fill="#BC7313"/>
<path d="M68.8101 37.05V39.36C68.8101 39.36 69.6101 39.64 70.8401 39.85C71.8301 40.07 73.1201 40.28 74.5001 40.31C77.5801 40.4 77.5801 35.51 74.5001 35.51C72.9301 35.51 71.4801 35.91 70.4401 36.31C69.4301 36.68 68.8101 37.05 68.8101 37.05Z" fill="#825616"/>
<path d="M68.8101 37.05V39.36C68.8101 39.36 69.6101 39.64 70.8401 39.85C72.8401 38.25 71.6701 37.02 70.4401 36.31C69.4301 36.68 68.8101 37.05 68.8101 37.05Z" fill="#B66B2F"/>
<path d="M68.8198 37.04C68.8198 37.04 69.7898 36.74 70.4298 36.79C71.5298 36.88 71.8698 39.14 70.4298 39.62C69.8198 39.82 68.8198 39.35 68.8198 39.35V37.04Z" fill="#BC7313"/>
<path d="M59.0498 38.08C59.0498 38.5 58.7098 38.84 58.2898 38.84C57.8698 38.84 57.5298 38.5 57.5298 38.08C57.5298 37.66 57.8698 37.32 58.2898 37.32C58.7098 37.32 59.0498 37.66 59.0498 38.08Z" fill="#42302D"/>
<path d="M70.8598 38.23C70.8598 38.65 70.5198 38.99 70.0998 38.99C69.6798 38.99 69.3398 38.65 69.3398 38.23C69.3398 37.81 69.6798 37.47 70.0998 37.47C70.5198 37.47 70.8598 37.81 70.8598 38.23Z" fill="#42302D"/>
<path d="M59.5698 23.95V26.26C59.5698 26.26 58.7698 26.54 57.5398 26.75C56.5498 26.97 55.2598 27.18 53.8798 27.21C50.7998 27.3 50.7998 22.41 53.8798 22.41C55.4498 22.41 56.8998 22.81 57.9398 23.21C58.9598 23.58 59.5698 23.95 59.5698 23.95Z" fill="#825616"/>
<path d="M59.5699 23.95V26.26C59.5699 26.26 58.7699 26.54 57.5399 26.75C55.5399 25.15 56.7099 23.92 57.9399 23.21C58.9599 23.58 59.5699 23.95 59.5699 23.95Z" fill="#B66B2F"/>
<path d="M59.5697 23.94C59.5697 23.94 58.5997 23.64 57.9597 23.69C56.8597 23.78 56.5197 26.04 57.9597 26.52C58.5697 26.72 59.5697 26.25 59.5697 26.25V23.94Z" fill="#BC7313"/>
<path d="M68.8101 24.05V26.36C68.8101 26.36 69.6101 26.64 70.8401 26.85C71.8301 27.07 73.1201 27.28 74.5001 27.31C77.5801 27.4 77.5801 22.51 74.5001 22.51C72.9301 22.51 71.4801 22.91 70.4401 23.31C69.4301 23.68 68.8101 24.05 68.8101 24.05Z" fill="#825616"/>
<path d="M68.8101 24.05V26.36C68.8101 26.36 69.6101 26.64 70.8401 26.85C72.8401 25.25 71.6701 24.02 70.4401 23.31C69.4301 23.68 68.8101 24.05 68.8101 24.05Z" fill="#B66B2F"/>
<path d="M68.8198 24.04C68.8198 24.04 69.7898 23.74 70.4298 23.79C71.5298 23.88 71.8698 26.14 70.4298 26.61C69.8198 26.81 68.8198 26.34 68.8198 26.34V24.04Z" fill="#BC7313"/>
<path d="M59.0498 25.08C59.0498 25.5 58.7098 25.84 58.2898 25.84C57.8698 25.84 57.5298 25.5 57.5298 25.08C57.5298 24.66 57.8698 24.32 58.2898 24.32C58.7098 24.32 59.0498 24.66 59.0498 25.08Z" fill="#42302D"/>
<path d="M70.8598 25.23C70.8598 25.65 70.5198 25.99 70.0998 25.99C69.6798 25.99 69.3398 25.65 69.3398 25.23C69.3398 24.81 69.6798 24.47 70.0998 24.47C70.5198 24.47 70.8598 24.81 70.8598 25.23Z" fill="#42302D"/>
<path d="M93.5496 9.67999C93.5496 9.67999 97.8297 7.00999 94.4697 5.88999C94.4697 5.88999 86.1996 5.41999 82.2296 1.42999C82.2296 1.42999 81.3696 2.72999 82.5596 3.78999C82.5596 3.78999 87.4697 7.13999 90.6497 7.03999C93.3697 6.94999 94.7396 7.81999 93.5496 9.67999Z" fill="#472F18"/>
<path d="M43.1697 8.87998C43.1697 8.87998 38.8497 6.28998 42.1797 5.09998C42.1797 5.09998 50.4397 4.47998 54.3297 0.419983C54.3297 0.419983 55.2197 1.69998 54.0397 2.77998C54.0397 2.77998 49.1897 6.21998 46.0097 6.17998C43.3097 6.14998 41.9497 7.04998 43.1697 8.87998Z" fill="#472F18"/>
</g>
<defs>
<clipPath id="clip0_301_2546">
<rect width="120.24" height="159.14" fill="white" transform="translate(0.419922 0.429993)"/>
</clipPath>
</defs>
</svg>
