<svg width="88" height="132" viewBox="0 0 88 132" fill="none" xmlns="http://www.w3.org/2000/svg">
<g clip-path="url(#clip0_301_12298)">
<path d="M18.8598 6.595V17.375C18.8598 40.285 18.3498 50.555 14.5498 58.595C14.1898 59.355 13.7998 60.055 13.3798 60.695L0.0698242 46.475C4.15982 41.595 7.81982 31.975 8.30982 23.775C8.45982 21.315 10.5198 15.425 12.8198 12.605C15.2798 9.585 16.6498 7.865 18.8598 6.595Z" fill="#39485B"/>
<path d="M40.11 70.485H23.54C20.77 70.485 18.52 68.235 18.52 65.465L18.63 5.28497C18.26 5.64497 7.80004 13.935 7.80004 29.215L7.66004 48.585L8.11004 65.305C8.12004 65.095 6.95004 66.405 5.76004 68.755C4.19004 71.875 3.45004 75.345 3.44004 78.835L3.29004 131.315H18.54V77.335C18.54 74.565 20.79 72.315 23.56 72.315H40.13C40.64 72.315 41.05 71.895 41.05 71.395C41.02 70.895 40.62 70.485 40.11 70.485Z" fill="#39485B"/>
<path d="M81.7497 66.735C80.8298 64.265 78.3498 62.145 78.3597 62.345L78.2397 50.055H87.1397C85.4197 40.015 83.5498 32.265 82.3897 27.815C81.2197 23.345 79.3597 19.065 76.7097 15.285C74.9197 12.725 72.9897 10.605 71.0297 8.87499C71.0097 8.86499 70.9998 8.85499 70.9798 8.83499C70.5998 8.51499 70.2297 8.18499 69.8497 7.88499C68.5397 6.83499 67.1997 5.93499 65.8597 5.16499C58.8698 1.13499 52.0897 0.674988 52.0897 0.674988L52.0797 1.38499C52.0597 6.44499 49.2297 11.055 44.7397 13.385L41.4997 15.065L38.0497 12.645C34.4597 10.125 32.2997 6.02499 32.2697 1.64499V0.674988C29.7297 0.674988 26.4597 0.694988 21.3097 3.46499C19.1497 4.62499 17.0097 6.78499 16.9897 6.79499L18.5297 65.465C18.5297 68.235 20.7797 70.485 23.5497 70.485H40.1197C40.6297 70.485 41.0397 70.895 41.0397 71.405C41.0397 71.905 40.6297 72.325 40.1197 72.325H23.5397C20.7697 72.325 18.5197 74.575 18.5197 77.345L17.5897 131.335H63.8397H83.7497L83.5997 79.415C83.5798 75.905 83.7397 72.035 81.7497 66.735Z" fill="#92AED6"/>
<path d="M47.8799 19.905C47.6499 18.135 43.9899 16.365 42.3499 15.665C42.0899 15.555 41.8099 15.495 41.5299 15.495C41.2399 15.495 40.9599 15.555 40.6899 15.675C39.1099 16.385 35.6399 18.155 35.4099 19.905C35.2699 21.015 35.7099 21.955 36.5999 22.405C36.9699 22.595 37.3799 22.685 37.7999 22.685C38.5599 22.685 39.3799 22.385 40.1099 21.845C39.9199 22.745 39.7999 23.755 39.8599 24.785L40.6299 24.735C40.5099 22.705 41.1499 20.745 41.6099 19.635C41.9699 21.215 42.5299 24.565 42.2199 29.155L42.9899 29.205C43.2099 25.955 43.0099 23.345 42.7399 21.485C43.5699 22.265 44.5599 22.685 45.4799 22.685C45.9099 22.685 46.3199 22.595 46.6799 22.405C47.5699 21.945 48.0199 21.015 47.8799 19.905ZM36.9499 21.715C36.3499 21.405 36.0699 20.805 36.1699 20.005C36.3099 18.945 38.6799 17.435 40.9699 16.395C41.0699 17.425 41.1599 19.835 40.0399 20.905C38.9099 21.975 37.6699 22.085 36.9499 21.715ZM46.3399 21.715C45.6099 22.085 44.3699 21.975 43.2499 20.905C42.1299 19.835 42.0699 17.445 42.1099 16.395C44.5099 17.435 46.9899 18.945 47.1199 20.005C47.2199 20.795 46.9399 21.405 46.3399 21.715Z" fill="#39485B"/>
<path d="M23.4998 104.155V131.325H21.5698V104.155C21.5698 103.615 21.9998 103.175 22.5298 103.175C23.0698 103.175 23.4998 103.615 23.4998 104.155Z" fill="#39485B"/>
<path d="M29.7996 104.155V131.325H27.8696V104.155C27.8696 103.615 28.2996 103.175 28.8296 103.175C29.3696 103.175 29.7996 103.615 29.7996 104.155Z" fill="#39485B"/>
<path d="M36.0999 104.155V131.325H34.1699V104.155C34.1699 103.615 34.5999 103.175 35.1299 103.175C35.6699 103.175 36.0999 103.615 36.0999 104.155Z" fill="#39485B"/>
<path d="M42.3997 104.155V131.325H40.4697V104.155C40.4697 103.615 40.8997 103.175 41.4297 103.175C41.9697 103.175 42.3997 103.615 42.3997 104.155Z" fill="#39485B"/>
<path d="M48.7 104.155V131.325H46.77V104.155C46.77 103.615 47.2 103.175 47.73 103.175C48.27 103.175 48.7 103.615 48.7 104.155Z" fill="#39485B"/>
<path d="M54.9998 104.155V131.325H53.0698V104.155C53.0698 103.615 53.4998 103.175 54.0298 103.175C54.5698 103.175 54.9998 103.615 54.9998 104.155Z" fill="#39485B"/>
<path d="M61.2996 104.155V131.325H59.3696V104.155C59.3696 103.615 59.7996 103.175 60.3296 103.175C60.8696 103.175 61.2996 103.615 61.2996 104.155Z" fill="#39485B"/>
<path d="M67.5999 104.155V131.325H65.6699V104.155C65.6699 103.615 66.0999 103.175 66.6299 103.175C67.1699 103.175 67.5999 103.615 67.5999 104.155Z" fill="#39485B"/>
<path d="M73.8997 104.155V131.325H71.9697V104.155C71.9697 103.615 72.3997 103.175 72.9297 103.175C73.4697 103.175 73.8997 103.615 73.8997 104.155Z" fill="#39485B"/>
</g>
<defs>
<clipPath id="clip0_301_12298">
<rect width="87.07" height="130.65" fill="white" transform="translate(0.0698242 0.674988)"/>
</clipPath>
</defs>
</svg>
