<svg width="136" height="264" viewBox="0 0 136 264" fill="none" xmlns="http://www.w3.org/2000/svg">
<path d="M121.32 63.2401H107.02C107.02 63.2401 102.35 47.92 99.02 41.34V254.55H50.34V62.11L42 54.21C42 54.21 45.4 52.68 45.4 36C45.4 19.32 45.4 13.87 45.4 13.87C45.4 13.87 45.99 6.19004 53.95 3.35004C55.76 2.70004 59.72 1.55005 62.11 1.55005C62.11 1.55005 68.89 13.53 74.68 16.43C74.68 16.43 85.1 9.89005 87.49 1.55005C87.49 1.55005 97.49 1.87004 102.42 11.45C107.36 21.02 116.55 40.4301 121.32 63.2401Z" fill="#FF9166"/>
<path d="M83.5404 23.9201C83.2504 21.6301 78.4804 19.3201 76.3504 18.4001C76.0104 18.2501 75.6504 18.1801 75.2804 18.1801C74.9004 18.1801 74.5305 18.2601 74.1905 18.4101C72.1405 19.3401 67.6204 21.6301 67.3304 23.9101C67.1404 25.3601 67.7204 26.5701 68.8804 27.1501C69.3604 27.3901 69.8905 27.5101 70.4405 27.5101C71.4305 27.5101 72.4905 27.1201 73.4405 26.4101C73.1905 27.5801 73.0405 28.8901 73.1205 30.2301L74.1205 30.1701C73.9605 27.5301 74.8004 24.9901 75.4004 23.5401C75.8704 25.5901 76.6005 29.9501 76.1905 35.9101L77.1905 35.9801C77.4805 31.7601 77.2205 28.3601 76.8705 25.9501C77.9405 26.9601 79.2405 27.5001 80.4405 27.5001C80.9905 27.5001 81.5304 27.3801 82.0004 27.1401C83.1504 26.5701 83.7304 25.3601 83.5404 23.9201ZM69.3404 26.2701C68.5504 25.8701 68.2004 25.0801 68.3304 24.0401C68.5104 22.6601 71.5904 20.7 74.5704 19.34C74.7004 20.68 74.8204 23.8201 73.3604 25.2101C71.8904 26.6101 70.2804 26.7501 69.3404 26.2701ZM81.5404 26.2701C80.5904 26.7501 78.9804 26.6101 77.5204 25.2101C76.0604 23.8201 75.9904 20.7201 76.0404 19.3501C79.1604 20.7001 82.3805 22.6701 82.5505 24.0401C82.6805 25.0801 82.3204 25.8701 81.5404 26.2701Z" fill="#EB564B"/>
<path d="M83.0802 86.3601H62.2702C58.7902 86.3601 55.9602 83.5401 55.9602 80.0501L53.9502 3.34009C45.9902 6.18009 43.3902 13.8601 43.3902 13.8601C43.3902 13.8601 43.3902 19.3101 43.3902 35.9901C43.3902 52.6701 39.9902 54.2001 39.9902 54.2001L50.3402 62.1001V254.54H55.9602V94.9601C55.9602 91.4801 58.7802 88.6501 62.2702 88.6501H83.0902C83.7202 88.6501 84.2402 88.1401 84.2402 87.5001C84.2302 86.8701 83.7202 86.3601 83.0802 86.3601Z" fill="#EB564B"/>
<path d="M62.59 147.06V254.55H60.04V147.06C60.04 146.36 60.61 145.79 61.31 145.79C62.02 145.79 62.59 146.36 62.59 147.06Z" fill="#EB564B"/>
<path d="M69.7404 147.06V254.55H67.1904V147.06C67.1904 146.36 67.7604 145.79 68.4604 145.79C69.1704 145.79 69.7404 146.36 69.7404 147.06Z" fill="#EB564B"/>
<path d="M76.8903 147.06V254.55H74.3403V147.06C74.3403 146.36 74.9103 145.79 75.6103 145.79C76.3203 145.79 76.8903 146.36 76.8903 147.06Z" fill="#EB564B"/>
<path d="M84.0402 147.06V254.55H81.4902V147.06C81.4902 146.36 82.0602 145.79 82.7602 145.79C83.4702 145.79 84.0402 146.36 84.0402 147.06Z" fill="#EB564B"/>
<path d="M91.1901 147.06V254.55H88.6401V147.06C88.6401 146.36 89.2101 145.79 89.9101 145.79C90.6201 145.79 91.1901 146.36 91.1901 147.06Z" fill="#EB564B"/>
</svg>
