<svg width="49" height="258" viewBox="0 0 49 258" fill="none" xmlns="http://www.w3.org/2000/svg">
<g clip-path="url(#clip0_301_2501)">
<path d="M48.6802 44.935V257.125H0.990234V44.945C2.42023 44.415 3.71023 43.615 4.81023 42.605C7.16023 40.455 8.63023 37.365 8.63023 33.935V0.955025C9.34023 0.785025 10.0702 0.965025 10.8302 0.955025C10.4802 2.19502 10.2902 3.51502 10.2902 4.87502C10.2902 12.225 15.7402 18.285 22.8202 19.265V23.625C22.8202 24.485 23.5302 25.185 24.3802 25.185H25.2602C26.1302 25.185 26.8302 24.475 26.8302 23.625V19.265C33.9202 18.295 39.3802 12.225 39.3802 4.87502C39.3802 3.51502 39.2002 2.19502 38.8402 0.945025C39.6002 0.955025 40.3302 0.775025 41.0402 0.945025V33.925C41.0402 38.975 44.2102 43.265 48.6802 44.935Z" fill="#8FDE5D"/>
<path d="M39.38 4.87501C39.38 12.225 33.92 18.285 26.85 19.265V23.625C26.85 24.485 26.14 25.185 25.28 25.185H24.39C23.53 25.185 22.83 24.475 22.83 23.625V19.265C15.74 18.295 10.29 12.225 10.29 4.87501C10.29 3.51501 10.47 2.19501 10.83 0.945007H15.19C15.19 0.945007 14.02 3.12501 14.31 5.55501C14.31 11.375 19.02 17.085 24.84 17.085C30.65 17.085 35.96 11.365 35.96 5.55501C35.96 3.89501 35.86 2.33501 35.17 0.945007H38.83C39.2 2.19501 39.38 3.51501 39.38 4.87501Z" fill="#F7F7F7"/>
<path d="M10.76 209.425V257.125H8V209.425C8 208.665 8.62 208.045 9.38 208.045C10.14 208.045 10.76 208.665 10.76 209.425Z" fill="#1C9D86"/>
<path d="M18.4802 209.425V257.125H15.7202V209.425C15.7202 208.665 16.3402 208.045 17.1002 208.045C17.8702 208.045 18.4802 208.665 18.4802 209.425Z" fill="#1C9D86"/>
<path d="M26.2102 209.425V257.125H23.4502V209.425C23.4502 208.665 24.0702 208.045 24.8302 208.045C25.5902 208.045 26.2102 208.665 26.2102 209.425Z" fill="#1C9D86"/>
<path d="M33.9402 209.425V257.125H31.1802V209.425C31.1802 208.665 31.8002 208.045 32.5602 208.045C33.3202 208.045 33.9402 208.665 33.9402 209.425Z" fill="#1C9D86"/>
<path d="M41.6604 209.425V257.125H38.9004V209.425C38.9004 208.665 39.5204 208.045 40.2804 208.045C41.0504 208.045 41.6604 208.665 41.6604 209.425Z" fill="#1C9D86"/>
<path d="M4.81023 42.605V257.125H0.990234V44.945C2.42023 44.415 3.71023 43.615 4.81023 42.605Z" fill="#1C9D86"/>
</g>
<defs>
<clipPath id="clip0_301_2501">
<rect width="47.69" height="256.25" fill="white" transform="translate(0.990234 0.875)"/>
</clipPath>
</defs>
</svg>
