<svg width="88" height="122" viewBox="0 0 88 122" fill="none" xmlns="http://www.w3.org/2000/svg">
<g clip-path="url(#clip0_301_12280)">
<path d="M18.79 6.76501V17.545C18.79 40.455 18.28 50.725 14.48 58.765C14.12 59.525 13.73 60.225 13.31 60.865L0 46.645C4.09 41.765 7.75 32.145 8.24 23.945C8.39 21.485 10.45 15.595 12.75 12.775C15.21 9.75501 16.58 8.03501 18.79 6.76501Z" fill="#0E6F89"/>
<path d="M40.0402 70.655H23.4702C20.7002 70.655 18.4502 68.405 18.4502 65.635L18.5602 5.45499C18.1902 5.81499 7.73022 14.105 7.73022 29.385L7.59021 48.755L8.04021 65.475C8.05021 65.265 6.88021 66.575 5.69021 68.925C4.12021 72.045 3.38021 75.515 3.37021 79.005L3.22021 121.155H18.4702V77.505C18.4702 74.735 20.7202 72.485 23.4902 72.485H40.0602C40.5702 72.485 40.9802 72.065 40.9802 71.565C40.9502 71.065 40.5502 70.655 40.0402 70.655Z" fill="#0E6F89"/>
<path d="M81.6799 66.905C80.7599 64.435 78.2799 62.315 78.2899 62.515L78.1699 50.225H87.0699C85.3499 40.185 83.4799 32.435 82.3199 27.985C81.1499 23.515 79.2899 19.235 76.6399 15.455C74.8499 12.895 72.9199 10.775 70.9599 9.045C70.9399 9.035 70.9299 9.025 70.9099 9.005C70.5299 8.685 70.1599 8.355 69.7799 8.055C68.4699 7.005 67.1299 6.105 65.7899 5.335C58.7999 1.305 52.0199 0.845001 52.0199 0.845001L52.0099 1.555C51.9899 6.615 49.1599 11.225 44.6699 13.555L41.4299 15.235L37.9799 12.815C34.3899 10.295 32.2299 6.195 32.1999 1.815V0.845001C29.6599 0.845001 26.3899 0.865001 21.2399 3.635C19.0799 4.795 16.9399 6.955 16.9199 6.965L18.4599 65.635C18.4599 68.405 20.7099 70.655 23.4799 70.655H40.0499C40.5599 70.655 40.9699 71.065 40.9699 71.575C40.9699 72.075 40.5599 72.495 40.0499 72.495H23.4699C20.6999 72.495 18.4499 74.745 18.4499 77.515L17.5199 121.175H63.7699H83.6799L83.5299 79.585C83.5099 76.075 83.6699 72.205 81.6799 66.905Z" fill="#19ACEC"/>
<path d="M47.81 20.075C47.58 18.305 43.92 16.535 42.28 15.835C42.02 15.725 41.74 15.665 41.46 15.665C41.17 15.665 40.89 15.725 40.62 15.845C39.04 16.555 35.57 18.325 35.34 20.075C35.2 21.185 35.64 22.125 36.53 22.575C36.9 22.765 37.31 22.855 37.73 22.855C38.49 22.855 39.31 22.555 40.04 22.015C39.85 22.915 39.73 23.925 39.79 24.955L40.56 24.905C40.44 22.875 41.08 20.915 41.54 19.805C41.9 21.385 42.46 24.735 42.15 29.325L42.92 29.375C43.14 26.125 42.94 23.515 42.67 21.655C43.5 22.435 44.49 22.855 45.41 22.855C45.84 22.855 46.25 22.765 46.61 22.575C47.5 22.115 47.95 21.185 47.81 20.075ZM36.88 21.885C36.28 21.575 36 20.975 36.1 20.175C36.24 19.115 38.61 17.605 40.9 16.565C41 17.595 41.09 20.005 39.97 21.075C38.84 22.145 37.6 22.255 36.88 21.885ZM46.27 21.885C45.54 22.255 44.3 22.145 43.18 21.075C42.06 20.005 42 17.615 42.04 16.565C44.44 17.605 46.92 19.115 47.05 20.175C47.15 20.965 46.87 21.575 46.27 21.885Z" fill="#0E6F89"/>
<path d="M23.43 104.325V121.155H21.5V104.325C21.5 103.785 21.93 103.345 22.46 103.345C23 103.345 23.43 103.785 23.43 104.325Z" fill="#0E6F89"/>
<path d="M29.7298 104.325V121.155H27.7998V104.325C27.7998 103.785 28.2298 103.345 28.7598 103.345C29.2998 103.345 29.7298 103.785 29.7298 104.325Z" fill="#0E6F89"/>
<path d="M36.0301 104.325V121.155H34.1001V104.325C34.1001 103.785 34.5301 103.345 35.0601 103.345C35.6001 103.345 36.0301 103.785 36.0301 104.325Z" fill="#0E6F89"/>
<path d="M42.3299 104.325V121.155H40.3999V104.325C40.3999 103.785 40.8299 103.345 41.3599 103.345C41.8999 103.345 42.3299 103.785 42.3299 104.325Z" fill="#0E6F89"/>
<path d="M48.6302 104.325V121.155H46.7002V104.325C46.7002 103.785 47.1302 103.345 47.6602 103.345C48.2002 103.345 48.6302 103.785 48.6302 104.325Z" fill="#0E6F89"/>
<path d="M54.93 104.325V121.155H53V104.325C53 103.785 53.43 103.345 53.96 103.345C54.5 103.345 54.93 103.785 54.93 104.325Z" fill="#0E6F89"/>
<path d="M61.2298 104.325V121.155H59.2998V104.325C59.2998 103.785 59.7298 103.345 60.2598 103.345C60.7998 103.345 61.2298 103.785 61.2298 104.325Z" fill="#0E6F89"/>
<path d="M67.5301 104.325V121.155H65.6001V104.325C65.6001 103.785 66.0301 103.345 66.5601 103.345C67.1001 103.345 67.5301 103.785 67.5301 104.325Z" fill="#0E6F89"/>
<path d="M73.8299 104.325V121.155H71.8999V104.325C71.8999 103.785 72.3299 103.345 72.8599 103.345C73.3999 103.345 73.8299 103.785 73.8299 104.325Z" fill="#0E6F89"/>
</g>
<defs>
<clipPath id="clip0_301_12280">
<rect width="87.07" height="120.31" fill="white" transform="translate(0 0.845001)"/>
</clipPath>
</defs>
</svg>
