<svg width="136" height="264" viewBox="0 0 136 264" fill="none" xmlns="http://www.w3.org/2000/svg">
<path d="M100.08 46.59V200.6H49.3701V46.6C50.8901 46.07 52.2601 45.27 53.4401 44.26C55.9401 42.11 57.5101 39.02 57.5101 35.59V2.61C58.2601 2.44 59.0401 2.62 59.8501 2.61C59.4701 3.86 59.2701 5.18 59.2701 6.54C59.2701 13.89 65.0601 19.95 72.6001 20.93V25.29C72.6001 26.15 73.3501 26.85 74.2601 26.85H75.1901C76.1101 26.85 76.8601 26.14 76.8601 25.29V20.93C84.3801 19.96 90.1901 13.9 90.1901 6.54C90.1901 5.18 89.9901 3.86 89.6101 2.61C90.4101 2.62 91.2001 2.44 91.9501 2.61V35.59C91.9601 40.63 95.3301 44.93 100.08 46.59Z" fill="#F9B843"/>
<path d="M90.2003 6.52998C90.2003 13.88 84.3903 19.94 76.8703 20.92V25.28C76.8703 26.14 76.1203 26.84 75.2003 26.84H74.2703C73.3603 26.84 72.6103 26.13 72.6103 25.28V20.92C65.0803 19.95 59.2803 13.89 59.2803 6.52998C59.2803 5.16998 59.4803 3.84998 59.8603 2.59998H64.4903C64.4903 2.59998 63.2503 4.77998 63.5503 7.20998C63.5503 13.03 68.5603 18.74 74.7503 18.74C80.9303 18.74 86.5803 13.02 86.5803 7.20998C86.5803 5.54998 86.4703 3.98998 85.7403 2.59998H89.6303C90.0003 3.85998 90.2003 5.16998 90.2003 6.52998Z" fill="#F7F7F7"/>
<path d="M59.7601 152.9V200.6H56.8301V152.9C56.8301 152.14 57.4901 151.52 58.2901 151.52C59.1101 151.52 59.7601 152.14 59.7601 152.9Z" fill="#C18A29"/>
<path d="M67.9803 152.9V200.6H65.0503V152.9C65.0503 152.14 65.7103 151.52 66.5103 151.52C67.3203 151.52 67.9803 152.14 67.9803 152.9Z" fill="#C18A29"/>
<path d="M76.1903 152.9V200.6H73.2603V152.9C73.2603 152.14 73.9203 151.52 74.7203 151.52C75.5403 151.52 76.1903 152.14 76.1903 152.9Z" fill="#C18A29"/>
<path d="M84.41 152.9V200.6H81.48V152.9C81.48 152.14 82.14 151.52 82.94 151.52C83.75 151.52 84.41 152.14 84.41 152.9Z" fill="#C18A29"/>
<path d="M92.6199 152.9V200.6H89.6899V152.9C89.6899 152.14 90.3499 151.52 91.1499 151.52C91.9699 151.52 92.6199 152.14 92.6199 152.9Z" fill="#C18A29"/>
<path d="M53.4401 44.26V200.6H49.3701V46.6C50.9001 46.07 52.2701 45.27 53.4401 44.26Z" fill="#C18A29"/>
</svg>
