<svg width="82" height="254" viewBox="0 0 82 254" fill="none" xmlns="http://www.w3.org/2000/svg">
<g clip-path="url(#clip0_301_2471)">
<path d="M81.3298 62.19H67.0298C67.0298 62.19 62.3598 46.87 59.0298 40.29V253.5H10.3498V61.06L2.00977 53.16C2.00977 53.16 5.40977 51.63 5.40977 34.95C5.40977 18.27 5.40977 12.82 5.40977 12.82C5.40977 12.82 5.99977 5.14 13.9598 2.3C15.7698 1.65 19.7298 0.5 22.1198 0.5C22.1198 0.5 28.8998 12.48 34.6898 15.38C34.6898 15.38 45.1098 8.84 47.4998 0.5C47.4998 0.5 57.4998 0.82 62.4298 10.4C67.3698 19.97 76.5598 39.38 81.3298 62.19Z" fill="#FF9166"/>
<path d="M43.5502 22.87C43.2602 20.58 38.4902 18.27 36.3602 17.35C36.0202 17.2 35.6602 17.13 35.2902 17.13C34.9102 17.13 34.5402 17.21 34.2002 17.36C32.1502 18.29 27.6302 20.58 27.3402 22.86C27.1502 24.31 27.7302 25.52 28.8902 26.1C29.3702 26.34 29.9002 26.46 30.4502 26.46C31.4402 26.46 32.5002 26.07 33.4502 25.36C33.2002 26.53 33.0502 27.84 33.1302 29.18L34.1302 29.12C33.9702 26.48 34.8102 23.94 35.4102 22.49C35.8802 24.54 36.6102 28.9 36.2002 34.86L37.2002 34.93C37.4902 30.71 37.2302 27.31 36.8802 24.9C37.9502 25.91 39.2502 26.45 40.4502 26.45C41.0002 26.45 41.5402 26.33 42.0102 26.09C43.1602 25.53 43.7402 24.32 43.5502 22.87ZM29.3502 25.22C28.5602 24.82 28.2102 24.03 28.3402 22.99C28.5202 21.61 31.6002 19.65 34.5802 18.29C34.7102 19.63 34.8302 22.77 33.3702 24.16C31.9002 25.56 30.2902 25.7 29.3502 25.22ZM41.5502 25.22C40.6002 25.7 38.9902 25.56 37.5302 24.16C36.0702 22.77 36.0002 19.67 36.0502 18.3C39.1702 19.65 42.3902 21.62 42.5602 22.99C42.7002 24.04 42.3402 24.83 41.5502 25.22Z" fill="#EB564B"/>
<path d="M43.1 85.32H22.28C18.8 85.32 15.97 82.5 15.97 79.01L13.96 2.29999C6 5.13999 3.4 12.82 3.4 12.82C3.4 12.82 3.4 18.27 3.4 34.95C3.4 51.63 0 53.16 0 53.16L10.35 61.06V253.5H15.97V93.92C15.97 90.44 18.79 87.61 22.28 87.61H43.1C43.73 87.61 44.25 87.1 44.25 86.46C44.24 85.83 43.73 85.32 43.1 85.32Z" fill="#EB564B"/>
<path d="M22.5998 146.02V253.5H20.0498V146.02C20.0498 145.32 20.6198 144.75 21.3198 144.75C22.0298 144.74 22.5998 145.31 22.5998 146.02Z" fill="#EB564B"/>
<path d="M29.7502 146.02V253.5H27.2002V146.02C27.2002 145.32 27.7702 144.75 28.4702 144.75C29.1802 144.74 29.7502 145.31 29.7502 146.02Z" fill="#EB564B"/>
<path d="M36.9001 146.02V253.5H34.3501V146.02C34.3501 145.32 34.9201 144.75 35.6201 144.75C36.3301 144.74 36.9001 145.31 36.9001 146.02Z" fill="#EB564B"/>
<path d="M44.05 146.02V253.5H41.5V146.02C41.5 145.32 42.07 144.75 42.77 144.75C43.48 144.74 44.05 145.31 44.05 146.02Z" fill="#EB564B"/>
<path d="M51.1999 146.02V253.5H48.6499V146.02C48.6499 145.32 49.2199 144.75 49.9199 144.75C50.6299 144.74 51.1999 145.31 51.1999 146.02Z" fill="#EB564B"/>
</g>
<defs>
<clipPath id="clip0_301_2471">
<rect width="81.33" height="253" fill="white" transform="translate(0 0.5)"/>
</clipPath>
</defs>
</svg>
