<svg width="127" height="138" viewBox="0 0 127 138" fill="none" xmlns="http://www.w3.org/2000/svg">
<g clip-path="url(#clip0_301_12473)">
<path d="M123.91 102.33H108.06C108.06 102.33 107.94 101.11 107.74 99.03C105.91 103.12 102.97 106.79 99.2004 109.83L100.87 133.62C100.87 133.62 85.6004 139.53 69.2404 136.84L63.2704 135.78L62.4004 56.7L63.8204 30.49L78.6104 3.46C78.6104 3.46 88.3104 2.84 96.3704 10.9C110.81 25.34 123.03 69.75 123.91 102.33Z" fill="#20697B"/>
<path d="M68.5206 52.25C69.581 52.25 70.4406 51.3904 70.4406 50.33C70.4406 49.2696 69.581 48.41 68.5206 48.41C67.4602 48.41 66.6006 49.2696 66.6006 50.33C66.6006 51.3904 67.4602 52.25 68.5206 52.25Z" fill="#24305B"/>
<path d="M68.5206 67.67C69.581 67.67 70.4406 66.8104 70.4406 65.75C70.4406 64.6896 69.581 63.83 68.5206 63.83C67.4602 63.83 66.6006 64.6896 66.6006 65.75C66.6006 66.8104 67.4602 67.67 68.5206 67.67Z" fill="#24305B"/>
<path d="M68.5206 83.75C69.581 83.75 70.4406 82.8904 70.4406 81.83C70.4406 80.7696 69.581 79.91 68.5206 79.91C67.4602 79.91 66.6006 80.7696 66.6006 81.83C66.6006 82.8904 67.4602 83.75 68.5206 83.75Z" fill="#24305B"/>
<path d="M105.36 84.31V90.64L92.4904 78.2C92.2004 77.93 92.2004 77.46 92.4904 77.18L94.6405 75.03C94.9105 74.74 95.3804 74.74 95.6704 75.03L105.36 84.31Z" fill="#144D56"/>
<path d="M96.3706 51.37V71.6C96.3706 71.6 101.391 75.52 105.361 84.32L96.3706 51.37Z" fill="#144D56"/>
<path d="M43.2002 17.42L43.1902 35.93C43.1902 60.88 43.6302 64.43 39.4902 73.2C36.1402 80.29 32.1802 84.77 22.3502 84.42C4.95016 83.8 0.580159 74.66 1.66016 57.64L17.5702 57.73C17.5702 62.84 31.6902 71.81 31.6902 42.91C31.6902 40.22 32.6402 27.38 35.1402 24.31C37.8402 21 40.7902 18.81 43.2002 17.42Z" fill="#20697B"/>
<path d="M63.68 135.83L62.85 136.07C51 137.54 35.05 133.49 35.05 133.49L37.9 109.27C31.22 103.72 28.11 98.07 27.01 92.94L26.94 92.36L26.5 88.26C26.5 88.03 26.5 87.79 26.52 87.56C26.75 79 31.77 72.98 31.77 73.42L32.07 34.11C32.07 31.42 32.91 18.53 44.34 9.65999C49.37 5.74999 53.57 4.82999 56.34 4.82999L65.52 27.39L63.68 135.83Z" fill="#144D56"/>
<path d="M41.74 79.84L40.91 80.62L26.94 92.36L26.5 88.26C26.5 88.03 26.5 87.79 26.52 87.56C29.27 84.86 38.58 76.67 38.58 76.67C38.87 76.39 39.34 76.39 39.61 76.67L41.76 78.82C42.03 79.1 42.03 79.57 41.74 79.84Z" fill="#5DA7AF"/>
<path d="M125.2 104.83H106.77C105.82 104.83 105.05 104.05 105.05 103.11V98.18C105.05 97.23 105.83 96.46 106.77 96.46H125.2C126.15 96.46 126.92 97.24 126.92 98.18V103.11C126.92 104.06 126.14 104.83 125.2 104.83Z" fill="#5DA7AF"/>
<path d="M20.63 62.84H2.19998C1.25998 62.84 0.47998 62.07 0.47998 61.12V57.09C0.47998 56.14 1.25998 55.37 2.19998 55.37H20.63C21.58 55.37 22.35 56.15 22.35 57.09V61.12C22.35 62.07 21.58 62.84 20.63 62.84Z" fill="#5DA7AF"/>
<path d="M58.1597 3.22997C59.4097 7.66997 62.8197 13.57 66.9697 22.96C67.3897 23.91 62.3497 28.75 61.0897 28.39L49.3597 25.19C48.2997 24.89 47.5797 24.16 47.4897 23.3L48.3497 10.95C48.0597 8.26997 49.6997 5.58997 52.6697 3.90997L55.1897 2.47997C56.3097 1.84997 57.8797 2.23997 58.1597 3.22997Z" fill="#5DA7AF"/>
<path d="M63.8199 29.93C62.4799 28.71 61.5499 27.52 62.3599 25.89C67.9599 14.55 73.4699 10.58 78.0299 1.43999L78.2599 0.989987C79.2299 -0.740013 88.1999 2.01999 88.1499 5.97999L89.5399 19.4C89.6499 20.74 89.0999 22.04 88.0599 22.89C84.6599 25.66 73.5999 29.1 65.6499 30.56C64.9399 30.69 64.3199 30.39 63.8199 29.93Z" fill="#144D56"/>
</g>
<defs>
<clipPath id="clip0_301_12473">
<rect width="126.44" height="137.08" fill="white" transform="translate(0.47998 0.459991)"/>
</clipPath>
</defs>
</svg>
