<svg width="136" height="264" viewBox="0 0 136 264" fill="none" xmlns="http://www.w3.org/2000/svg">
<g clip-path="url(#clip0_334_1610)">
<path d="M116.54 28.7701C111.94 15.1101 105.65 8.46006 100.33 5.30006C92.2601 0.510064 85.8201 0.0600586 85.8201 0.0600586L72.1401 17.0101L69.6001 42.6401L72.1901 158.95C72.1901 158.95 87.0401 161.43 106.04 155.31C106.04 155.31 102.05 104.69 100.63 69.2301L102.36 46.8101C107.4 57.6601 112.83 107.25 112.83 107.25H129.12C127.81 58.0601 116.54 28.7701 116.54 28.7701Z" fill="#20697B"/>
<path d="M50.9602 6.09009C50.9602 6.09009 44.0802 9.75009 44.0802 19.2601L43.9902 45.0901C43.9702 50.6101 42.5802 60.4301 33.4902 60.0501C23.7602 59.6401 23.9002 50.5901 23.6902 46.5501C23.6202 45.2701 23.6602 41.5101 23.6602 41.5101H8.76018C8.76018 41.5101 6.62018 70.9301 27.8002 75.2501C39.4302 77.6201 49.8402 71.1801 50.8702 70.3201L50.9602 6.09009Z" fill="#20697B"/>
<path d="M72.1401 17.0101L69.8401 12.1401L67.3701 0.0600586C64.1301 0.0600586 59.3001 1.22006 55.2601 3.37006C51.8401 5.18006 49.5801 7.06006 49.5801 7.06006L51.0701 71.3901L43.8101 150.54C52.9701 160.67 72.2101 158.95 72.2101 158.95L69.6001 42.6401L72.1401 17.0101Z" fill="#144D56"/>
<path d="M23.8401 44.43H8.78006C7.83006 44.43 7.06006 43.65 7.06006 42.71V35.49C7.06006 34.54 7.84006 33.77 8.78006 33.77H23.8301C24.7801 33.77 25.5501 34.55 25.5501 35.49V42.71C25.5601 43.66 24.7801 44.43 23.8401 44.43Z" fill="#5DA7AF"/>
<path d="M65.56 86.81L47.73 103.22L48.74 94.34L61.4 82.67C61.78 82.29 62.39 82.29 62.75 82.67L65.56 85.48C65.93 85.83 65.93 86.45 65.56 86.81Z" fill="#5DA7AF"/>
<path d="M73.0601 52.44C74.2586 52.44 75.2301 51.4684 75.2301 50.27C75.2301 49.0715 74.2586 48.1 73.0601 48.1C71.8617 48.1 70.8901 49.0715 70.8901 50.27C70.8901 51.4684 71.8617 52.44 73.0601 52.44Z" fill="#24305B"/>
<path d="M73.0601 71.39C74.2586 71.39 75.2301 70.4185 75.2301 69.22C75.2301 68.0216 74.2586 67.05 73.0601 67.05C71.8617 67.05 70.8901 68.0216 70.8901 69.22C70.8901 70.4185 71.8617 71.39 73.0601 71.39Z" fill="#24305B"/>
<path d="M73.0601 36.58C74.2586 36.58 75.2301 35.6085 75.2301 34.41C75.2301 33.2115 74.2586 32.24 73.0601 32.24C71.8617 32.24 70.8901 33.2115 70.8901 34.41C70.8901 35.6085 71.8617 36.58 73.0601 36.58Z" fill="#24305B"/>
<path d="M67.3901 -0.86999C68.2801 2.27001 71.2801 8.77001 72.4201 15.77C72.5401 16.49 70.3601 17.21 69.4701 16.95L61.1601 14.69C60.4101 14.48 59.9001 13.96 59.8301 13.35L60.4401 4.60001C60.2301 2.70001 61.4001 0.800013 63.5001 -0.389987L65.2801 -1.39999C66.0801 -1.84999 67.1901 -1.57999 67.3901 -0.86999Z" fill="#5DA7AF"/>
<path d="M72.7102 18.2C71.7802 17.35 71.1302 16.52 71.6902 15.38C75.5902 7.48 79.4402 4.71001 82.6202 -1.66999L82.7802 -1.98999C83.4602 -3.19999 89.7102 -1.27 89.6802 1.49L90.6502 10.85C90.7302 11.78 90.3502 12.69 89.6202 13.29C87.2502 15.22 79.5402 17.62 73.9902 18.64C73.4902 18.73 73.0602 18.52 72.7102 18.2Z" fill="#144D56"/>
<path d="M102.05 94.7301V103.02L85.2 86.7301C84.82 86.3701 84.82 85.7601 85.2 85.4001L88.01 82.5901C88.37 82.2101 88.98 82.2101 89.36 82.5901L102.05 94.7301Z" fill="#144D56"/>
<path d="M130.19 117.56H112.09C111.14 117.56 110.37 116.78 110.37 115.84V108.62C110.37 107.67 111.15 106.9 112.09 106.9H130.19C131.14 106.9 131.91 107.68 131.91 108.62V115.84C131.91 116.78 131.13 117.56 130.19 117.56Z" fill="#5DA7AF"/>
</g>
<defs>
<clipPath id="clip0_334_1610">
<rect width="136" height="263" fill="white" transform="translate(0 0.5)"/>
</clipPath>
</defs>
</svg>
