<svg width="74" height="148" viewBox="0 0 74 148" fill="none" xmlns="http://www.w3.org/2000/svg">
<g clip-path="url(#clip0_301_6401)">
<path d="M73.1398 54.365H60.6098C60.6098 54.365 60.4198 50.745 58.9998 45.635V147.675H9.06977V53.375L1.75977 46.455C1.75977 46.455 4.73977 45.115 4.73977 30.505C4.73977 15.895 5.25977 4.385 12.2298 1.895C13.8198 1.325 20.1098 0.315002 22.1998 0.315002C22.1998 0.315002 28.1398 10.815 33.2098 13.355C33.2098 13.355 42.3398 7.625 44.4398 0.315002C44.4398 0.315002 57.6598 0.595003 61.9798 8.995C66.3098 17.375 68.9598 34.385 73.1398 54.365Z" fill="#FF9166"/>
<path d="M40.8398 19.415C40.5798 17.405 36.3998 15.385 34.5398 14.585C34.2398 14.455 33.9298 14.395 33.6098 14.395C33.2798 14.395 32.9598 14.465 32.6498 14.605C30.8498 15.415 26.8898 17.425 26.6398 19.425C26.4798 20.695 26.9898 21.755 27.9998 22.265C28.4198 22.475 28.8798 22.575 29.3698 22.575C30.2398 22.575 31.1698 22.235 31.9998 21.615C31.7798 22.635 31.6498 23.785 31.7198 24.965L32.5898 24.915C32.4498 22.605 33.1798 20.375 33.7098 19.105C34.1198 20.905 34.7598 24.715 34.3998 29.945L35.2698 30.005C35.5198 26.305 35.2898 23.325 34.9898 21.215C35.9298 22.095 37.0698 22.575 38.1198 22.575C38.6098 22.575 39.0698 22.475 39.4898 22.265C40.4998 21.745 40.9998 20.685 40.8398 19.415ZM28.3898 21.475C27.6998 21.125 27.3898 20.435 27.4998 19.525C27.6498 18.315 30.3598 16.595 32.9698 15.415C33.0798 16.595 33.1898 19.335 31.9098 20.555C30.6298 21.775 29.2198 21.895 28.3898 21.475ZM39.0898 21.475C38.2598 21.895 36.8498 21.775 35.5698 20.555C34.2898 19.345 34.2298 16.615 34.2698 15.425C36.9998 16.615 39.8198 18.335 39.9798 19.535C40.0898 20.435 39.7698 21.125 39.0898 21.475Z" fill="#EB564B"/>
<path d="M37.76 74.625H19.52C16.47 74.625 13.99 72.155 13.99 69.095L13.51 1.54501C1.19 4.02501 3.76 29.715 3.76 29.715C3.76 44.335 0 46.455 0 46.455L8.44 53.685V147.685H14V82.165C14 79.115 16.47 76.635 19.53 76.635H37.77C38.33 76.635 38.78 76.185 38.78 75.625C38.76 75.075 38.31 74.625 37.76 74.625Z" fill="#EB564B"/>
<path d="M19.7998 121.805V147.685H17.5698V121.805C17.5698 121.185 18.0698 120.685 18.6898 120.685C19.2998 120.685 19.7998 121.185 19.7998 121.805Z" fill="#EB564B"/>
<path d="M26.0698 121.805V147.685H23.8398V121.805C23.8398 121.185 24.3398 120.685 24.9598 120.685C25.5698 120.685 26.0698 121.185 26.0698 121.805Z" fill="#EB564B"/>
<path d="M32.3301 121.805V147.685H30.1001V121.805C30.1001 121.185 30.6001 120.685 31.2201 120.685C31.8301 120.685 32.3301 121.185 32.3301 121.805Z" fill="#EB564B"/>
<path d="M38.6001 121.805V147.685H36.3701V121.805C36.3701 121.185 36.8701 120.685 37.4901 120.685C38.1001 120.685 38.6001 121.185 38.6001 121.805Z" fill="#EB564B"/>
<path d="M44.8599 121.805V147.685H42.6299V121.805C42.6299 121.185 43.1299 120.685 43.7499 120.685C44.3599 120.685 44.8599 121.185 44.8599 121.805Z" fill="#EB564B"/>
</g>
<defs>
<clipPath id="clip0_301_6401">
<rect width="73.14" height="147.37" fill="white" transform="translate(0 0.315002)"/>
</clipPath>
</defs>
</svg>
