<svg width="123" height="134" viewBox="0 0 123 134" fill="none" xmlns="http://www.w3.org/2000/svg">
<g clip-path="url(#clip0_301_12354)">
<path d="M122.61 99.05H106.76C106.76 99.05 106.64 97.83 106.44 95.75C104.61 99.84 101.67 103.51 97.9001 106.55L99.5701 130.34C99.5701 130.34 84.7501 135.75 68.3801 133.06L62.4101 132L61.1001 53.42L62.5201 14.99C62.5201 14.99 77.3301 13.06 77.3301 0.179998C77.3301 0.179998 87.0301 -0.440002 95.0901 7.62C109.51 22.07 121.73 66.47 122.61 99.05Z" fill="#F9B843"/>
<path d="M95.0703 48.09V68.32C95.0703 68.32 100.09 72.24 104.06 81.04L95.0703 48.09Z" fill="#C18525"/>
<path d="M41.8999 14.15L41.8899 32.66C41.8899 57.61 42.3299 61.16 38.1899 69.93C34.8399 77.02 30.8799 81.5 21.0499 81.15C3.64987 80.53 -0.720133 71.39 0.359867 54.37L16.2699 54.46C16.2699 59.57 30.3899 68.54 30.3899 39.64C30.3899 36.95 31.3399 24.11 33.8399 21.04C36.5399 17.73 39.4899 15.53 41.8999 14.15Z" fill="#825616"/>
<path d="M66.2797 132.7L61.0897 133.41C48.3897 134.94 33.7497 130.22 33.7497 130.22L36.5997 106C29.9197 100.45 26.8097 94.8 25.7097 89.67L25.6397 89.09L25.1997 84.99C25.1997 84.76 25.1997 84.52 25.2197 84.29C25.4497 75.73 30.4697 69.71 30.4697 70.15L30.7697 30.84C30.7697 28.15 31.6097 15.26 43.0397 6.39C48.0697 2.48 52.2697 1.56 55.0397 1.56C55.5497 6.05 58.3397 8.2 62.1197 10.68L64.5397 11.78L66.2797 132.7Z" fill="#C18525"/>
<path d="M41.2097 10.29C41.2097 10.29 37.0797 7.81002 40.2597 6.68002C40.2597 6.68002 48.1597 6.09002 51.8797 2.21002C51.8797 2.21002 52.7297 3.43002 51.5997 4.47002C51.5997 4.47002 46.9597 7.76002 43.9197 7.72002C41.3397 7.68002 40.0397 8.54002 41.2097 10.29Z" fill="#472F18"/>
<path d="M92.4499 8.65001C92.4499 8.65001 96.5799 6.17001 93.3999 5.04001C93.3999 5.04001 85.4999 4.45001 81.7799 0.570007C81.7799 0.570007 80.9299 1.79001 82.0599 2.83001C82.0599 2.83001 86.6999 6.12001 89.7399 6.08001C92.3199 6.04001 93.6199 6.90001 92.4499 8.65001Z" fill="#472F18"/>
<path d="M68.8903 64.72C67.6803 64.68 66.6303 65.46 66.2703 66.56L60.4703 66.35C60.2303 65.17 59.2203 64.25 57.9603 64.21C56.4903 64.16 55.2503 65.31 55.2003 66.78C55.1503 68.25 56.3003 69.49 57.7703 69.54C59.0303 69.59 60.1203 68.74 60.4403 67.57L66.1703 67.78C66.3503 69.03 67.4003 70.01 68.7103 70.05C70.1803 70.1 71.4203 68.95 71.4703 67.48C71.5103 66.01 70.3603 64.77 68.8903 64.72ZM57.8103 68.32C57.0103 68.29 56.3903 67.62 56.4103 66.82C56.4403 66.02 57.1103 65.4 57.9103 65.43C58.5203 65.45 59.0203 65.85 59.2203 66.38C59.0203 66.47 58.8703 66.67 58.8703 66.9C58.8603 67.14 58.9903 67.34 59.1903 67.45C58.9503 67.98 58.4203 68.34 57.8103 68.32ZM68.7403 68.83C68.0903 68.81 67.5703 68.35 67.4103 67.75C67.6103 67.66 67.7603 67.46 67.7703 67.22C67.7803 67.01 67.6703 66.83 67.5103 66.71C67.7603 66.23 68.2603 65.9 68.8403 65.93C69.6403 65.96 70.2603 66.63 70.2403 67.43C70.2103 68.24 69.5403 68.86 68.7403 68.83Z" fill="#42302D"/>
<path d="M58.4004 52.06C59.6604 52.11 60.7504 51.26 61.0704 50.09L66.8004 50.3C66.9904 51.55 68.0304 52.53 69.3404 52.57C70.8104 52.62 72.0504 51.47 72.1004 50C72.1504 48.53 71.0004 47.29 69.5304 47.24C68.3204 47.2 67.2704 47.98 66.9104 49.08L61.1104 48.87C60.8704 47.69 59.8604 46.77 58.6004 46.73C57.1304 46.68 55.8904 47.83 55.8404 49.3C55.7704 50.77 56.9304 52.01 58.4004 52.06ZM69.4804 48.46C70.2804 48.49 70.9104 49.16 70.8804 49.96C70.8504 50.76 70.1804 51.39 69.3804 51.36C68.7304 51.34 68.2204 50.88 68.0504 50.28C68.2504 50.19 68.4004 49.99 68.4104 49.75C68.4204 49.54 68.3104 49.36 68.1504 49.24C68.4004 48.76 68.9004 48.44 69.4804 48.46ZM58.5504 47.95C59.1604 47.97 59.6604 48.37 59.8604 48.9C59.6604 48.99 59.5104 49.19 59.5104 49.42C59.5004 49.66 59.6304 49.86 59.8304 49.97C59.6004 50.5 59.0704 50.86 58.4504 50.84C57.6504 50.81 57.0304 50.14 57.0504 49.34C57.0704 48.54 57.7504 47.92 58.5504 47.95Z" fill="#42302D"/>
<path d="M58.9602 36.69C60.2202 36.74 61.3102 35.89 61.6302 34.72L67.3602 34.93C67.5502 36.18 68.5902 37.16 69.9002 37.2C71.3702 37.25 72.6102 36.1 72.6602 34.63C72.7102 33.16 71.5602 31.92 70.0902 31.87C68.8802 31.83 67.8302 32.61 67.4702 33.71L61.6702 33.5C61.4302 32.32 60.4202 31.4 59.1602 31.36C57.6902 31.31 56.4502 32.46 56.4002 33.93C56.3402 35.39 57.4902 36.63 58.9602 36.69ZM70.0402 33.09C70.8402 33.12 71.4702 33.79 71.4402 34.59C71.4102 35.39 70.7402 36.02 69.9402 35.99C69.2902 35.97 68.7802 35.51 68.6102 34.91C68.8102 34.82 68.9602 34.62 68.9702 34.38C68.9802 34.17 68.8702 33.99 68.7102 33.87C68.9602 33.39 69.4602 33.06 70.0402 33.09ZM59.1102 32.57C59.7202 32.59 60.2202 32.99 60.4202 33.52C60.2202 33.61 60.0702 33.81 60.0702 34.04C60.0602 34.28 60.1902 34.48 60.3902 34.59C60.1602 35.12 59.6302 35.48 59.0102 35.46C58.2102 35.43 57.5902 34.76 57.6102 33.96C57.6402 33.17 58.3102 32.54 59.1102 32.57Z" fill="#42302D"/>
<path d="M57.9201 65.47L57.8201 68.2C57.8201 68.2 56.8601 68.49 55.4001 68.69C54.2301 68.9 52.6901 69.1 51.0501 69.08C47.4001 69.06 47.6201 63.27 51.2601 63.4C53.1201 63.47 54.8101 64 56.0301 64.52C57.2101 65.01 57.9201 65.47 57.9201 65.47Z" fill="#825616"/>
<path d="M57.9201 65.47L57.8201 68.2C57.8201 68.2 56.8601 68.49 55.4001 68.69C53.1001 66.71 54.5401 65.31 56.0301 64.52C57.2101 65.01 57.9201 65.47 57.9201 65.47Z" fill="#B66B2F"/>
<path d="M57.9201 65.46C57.9201 65.46 56.7901 65.07 56.0301 65.1C54.7201 65.16 54.2301 67.82 55.9101 68.44C56.6201 68.7 57.8201 68.19 57.8201 68.19L57.9201 65.46Z" fill="#BC7313"/>
<path d="M68.8402 65.99L68.7402 68.72C68.7402 68.72 69.6702 69.08 71.1202 69.39C72.2802 69.69 73.8002 70 75.4302 70.09C79.0702 70.33 79.2802 64.54 75.6402 64.41C73.7802 64.34 72.0502 64.75 70.8002 65.18C69.5802 65.57 68.8402 65.99 68.8402 65.99Z" fill="#825616"/>
<path d="M68.8402 65.99L68.7402 68.72C68.7402 68.72 69.6702 69.08 71.1202 69.39C73.5602 67.58 72.2302 66.08 70.8002 65.18C69.5802 65.57 68.8402 65.99 68.8402 65.99Z" fill="#B66B2F"/>
<path d="M68.85 65.97C68.85 65.97 70.01 65.66 70.76 65.75C72.06 65.9 72.36 68.59 70.64 69.09C69.91 69.3 68.75 68.7 68.75 68.7L68.85 65.97Z" fill="#BC7313"/>
<path d="M57.2499 66.78C57.2299 67.28 56.8099 67.66 56.3199 67.65C55.8199 67.63 55.4399 67.22 55.4499 66.72C55.4699 66.22 55.8899 65.84 56.3799 65.85C56.8799 65.87 57.2699 66.29 57.2499 66.78Z" fill="#42302D"/>
<path d="M71.2099 67.47C71.1899 67.97 70.7699 68.35 70.2799 68.34C69.7799 68.32 69.3999 67.9 69.4099 67.41C69.4299 66.91 69.8499 66.52 70.3399 66.54C70.8399 66.55 71.2299 66.97 71.2099 67.47Z" fill="#42302D"/>
<path d="M58.55 47.99L58.45 50.72C58.45 50.72 57.49 51.01 56.03 51.21C54.86 51.42 53.32 51.62 51.68 51.6C48.04 51.58 48.25 45.79 51.89 45.92C53.75 45.99 55.44 46.52 56.66 47.04C57.84 47.53 58.55 47.99 58.55 47.99Z" fill="#825616"/>
<path d="M58.55 47.99L58.45 50.72C58.45 50.72 57.49 51.01 56.03 51.21C53.73 49.23 55.17 47.83 56.66 47.04C57.84 47.53 58.55 47.99 58.55 47.99Z" fill="#B66B2F"/>
<path d="M58.55 47.98C58.55 47.98 57.42 47.59 56.66 47.62C55.35 47.68 54.86 50.34 56.54 50.96C57.25 51.22 58.45 50.71 58.45 50.71L58.55 47.98Z" fill="#BC7313"/>
<path d="M69.4701 48.51L69.3701 51.24C69.3701 51.24 70.3001 51.6 71.7501 51.91C72.9101 52.21 74.4301 52.52 76.0601 52.61C79.7001 52.85 79.9101 47.06 76.2701 46.93C74.4101 46.86 72.6901 47.27 71.4301 47.7C70.2101 48.1 69.4701 48.51 69.4701 48.51Z" fill="#825616"/>
<path d="M69.4701 48.51L69.3701 51.24C69.3701 51.24 70.3001 51.6 71.7501 51.91C74.1901 50.1 72.8601 48.6 71.4301 47.71C70.2101 48.1 69.4701 48.51 69.4701 48.51Z" fill="#B66B2F"/>
<path d="M69.4701 48.49C69.4701 48.49 70.6301 48.18 71.3801 48.27C72.6801 48.42 72.9801 51.11 71.2601 51.61C70.5301 51.82 69.3701 51.22 69.3701 51.22L69.4701 48.49Z" fill="#BC7313"/>
<path d="M57.8803 49.3C57.8603 49.8 57.4403 50.18 56.9503 50.17C56.4603 50.16 56.0603 49.74 56.0803 49.24C56.1003 48.74 56.5203 48.35 57.0103 48.37C57.5103 48.39 57.9003 48.81 57.8803 49.3Z" fill="#42302D"/>
<path d="M71.8402 49.99C71.8202 50.49 71.4002 50.88 70.9102 50.86C70.4102 50.84 70.0302 50.42 70.0402 49.93C70.0602 49.43 70.4802 49.04 70.9702 49.06C71.4702 49.07 71.8602 49.49 71.8402 49.99Z" fill="#42302D"/>
<path d="M59.1101 32.62L59.0101 35.35C59.0101 35.35 58.0501 35.64 56.5901 35.84C55.4201 36.05 53.8801 36.25 52.2401 36.23C48.6001 36.21 48.8101 30.42 52.4501 30.55C54.3101 30.62 56.0001 31.15 57.2201 31.67C58.4001 32.16 59.1101 32.62 59.1101 32.62Z" fill="#825616"/>
<path d="M59.1101 32.62L59.0101 35.35C59.0101 35.35 58.0501 35.64 56.5901 35.84C54.2901 33.86 55.7301 32.45 57.2201 31.67C58.4001 32.16 59.1101 32.62 59.1101 32.62Z" fill="#B66B2F"/>
<path d="M59.1101 32.61C59.1101 32.61 57.9801 32.22 57.2201 32.25C55.9101 32.31 55.4201 34.97 57.1001 35.59C57.8101 35.85 59.0101 35.34 59.0101 35.34L59.1101 32.61Z" fill="#BC7313"/>
<path d="M70.0302 33.13L69.9302 35.86C69.9302 35.86 70.8602 36.22 72.3102 36.53C73.4702 36.83 74.9902 37.14 76.6202 37.23C80.2602 37.47 80.4702 31.68 76.8302 31.55C74.9702 31.48 73.2502 31.89 71.9902 32.32C70.7802 32.72 70.0302 33.13 70.0302 33.13Z" fill="#825616"/>
<path d="M70.0302 33.13L69.9302 35.86C69.9302 35.86 70.8602 36.22 72.3102 36.53C74.7502 34.72 73.4202 33.22 71.9902 32.33C70.7802 32.72 70.0302 33.13 70.0302 33.13Z" fill="#B66B2F"/>
<path d="M70.0399 33.12C70.0399 33.12 71.1999 32.81 71.9499 32.9C73.2499 33.05 73.5499 35.74 71.8299 36.24C71.0999 36.45 69.9399 35.85 69.9399 35.85L70.0399 33.12Z" fill="#BC7313"/>
<path d="M58.4399 33.93C58.4199 34.43 57.9999 34.82 57.5099 34.8C57.0099 34.78 56.6199 34.37 56.6399 33.87C56.6599 33.37 57.0799 32.99 57.5699 33C58.0599 33.01 58.4599 33.44 58.4399 33.93Z" fill="#42302D"/>
<path d="M72.4003 34.61C72.3803 35.11 71.9603 35.5 71.4703 35.48C70.9703 35.46 70.5903 35.04 70.6003 34.55C70.6203 34.05 71.0403 33.67 71.5303 33.68C72.0303 33.7 72.4203 34.12 72.4003 34.61Z" fill="#42302D"/>
</g>
<defs>
<clipPath id="clip0_301_12354">
<rect width="122.4" height="133.64" fill="white" transform="translate(0.209961 0.179993)"/>
</clipPath>
</defs>
</svg>
