<svg width="136" height="264" viewBox="0 0 136 264" fill="none" xmlns="http://www.w3.org/2000/svg">
<path d="M122.04 63.41H107.74C107.74 63.41 103.07 48.09 99.7402 41.51V157.82H51.0602V62.29L42.7202 54.39C42.7202 54.39 46.1202 52.86 46.1202 36.18C46.1202 19.5 46.1202 14.05 46.1202 14.05C46.1202 14.05 46.7102 6.36998 54.6702 3.52998C56.4802 2.87998 60.4402 1.72998 62.8302 1.72998C62.8302 1.72998 69.6102 13.71 75.4002 16.61C75.4002 16.61 85.8202 10.07 88.2102 1.72998C88.2102 1.72998 98.2102 2.04997 103.14 11.63C108.08 21.19 117.27 40.6 122.04 63.41Z" fill="#19ACEC"/>
<path d="M84.2602 24.09C83.9702 21.8 79.2002 19.49 77.0702 18.57C76.7302 18.42 76.3702 18.35 76.0002 18.35C75.6202 18.35 75.2502 18.43 74.9102 18.58C72.8602 19.51 68.3402 21.8 68.0502 24.08C67.8602 25.53 68.4402 26.74 69.6002 27.32C70.0802 27.56 70.6102 27.68 71.1602 27.68C72.1502 27.68 73.2102 27.29 74.1602 26.58C73.9102 27.75 73.7602 29.06 73.8402 30.4L74.8402 30.34C74.6802 27.7 75.5202 25.16 76.1202 23.71C76.5902 25.76 77.3202 30.12 76.9102 36.08L77.9102 36.15C78.2002 31.93 77.9402 28.53 77.5902 26.12C78.6602 27.13 79.9602 27.67 81.1602 27.67C81.7102 27.67 82.2502 27.55 82.7202 27.31C83.8702 26.75 84.4502 25.54 84.2602 24.09ZM70.0502 26.44C69.2602 26.04 68.9102 25.25 69.0402 24.21C69.2202 22.83 72.3002 20.87 75.2802 19.51C75.4102 20.85 75.5302 23.99 74.0702 25.38C72.6102 26.78 71.0002 26.92 70.0502 26.44ZM82.2602 26.44C81.3102 26.92 79.7002 26.78 78.2402 25.38C76.7802 23.99 76.7102 20.89 76.7602 19.52C79.8802 20.87 83.1002 22.84 83.2702 24.21C83.4002 25.25 83.0402 26.04 82.2602 26.44Z" fill="#0E6F89"/>
<path d="M83.8002 86.53H62.9802C59.5002 86.53 56.6702 83.71 56.6702 80.22L54.6602 3.51001C46.7002 6.35001 44.1002 14.03 44.1002 14.03C44.1002 14.03 44.1002 19.48 44.1002 36.16C44.1002 52.84 40.7002 54.37 40.7002 54.37L51.0502 62.27V157.8H56.6702V95.13C56.6702 91.65 59.4902 88.82 62.9802 88.82H83.8002C84.4302 88.82 84.9502 88.31 84.9502 87.67C84.9502 87.05 84.4402 86.53 83.8002 86.53Z" fill="#0E6F89"/>
<path d="M63.3103 128.27V157.81H60.7603V128.27C60.7603 127.57 61.3303 127 62.0303 127C62.7403 127 63.3103 127.57 63.3103 128.27Z" fill="#0E6F89"/>
<path d="M70.4602 128.27V157.81H67.9102V128.27C67.9102 127.57 68.4802 127 69.1802 127C69.8902 127 70.4602 127.57 70.4602 128.27Z" fill="#0E6F89"/>
<path d="M77.6101 128.27V157.81H75.0601V128.27C75.0601 127.57 75.6301 127 76.3301 127C77.0401 127 77.6101 127.57 77.6101 128.27Z" fill="#0E6F89"/>
<path d="M84.76 128.27V157.81H82.21V128.27C82.21 127.57 82.78 127 83.48 127C84.19 127 84.76 127.57 84.76 128.27Z" fill="#0E6F89"/>
<path d="M91.9104 128.27V157.81H89.3604V128.27C89.3604 127.57 89.9303 127 90.6303 127C91.3403 127 91.9104 127.57 91.9104 128.27Z" fill="#0E6F89"/>
</svg>
