<svg width="82" height="128" viewBox="0 0 82 128" fill="none" xmlns="http://www.w3.org/2000/svg">
<g clip-path="url(#clip0_301_15309)">
<path d="M81.3298 62.42H67.0298C67.0298 62.42 62.3598 47.1 59.0298 40.51V120.35C58.0498 119.48 56.7598 118.96 55.3598 118.96C53.6998 118.96 52.1998 119.69 51.1998 120.85C50.3298 121.83 49.8098 123.11 49.8098 124.51V127.27H40.6598V124.51C40.6598 121.95 39.1098 119.76 36.8998 118.82C36.1598 118.51 35.3498 118.34 34.4998 118.34C34.4498 118.34 34.3998 118.34 34.3498 118.35C32.4998 118.39 30.8498 119.25 29.7498 120.58C28.8598 121.64 28.3298 123.01 28.3298 124.51V127.27H10.3498V61.29L2.00977 53.39C2.00977 53.39 5.40977 51.86 5.40977 35.18C5.40977 18.5 5.40977 13.05 5.40977 13.05C5.40977 13.05 5.95976 5.84998 13.2298 2.80998C13.4698 2.70998 13.7098 2.61998 13.9598 2.52998C15.7698 1.87998 19.7298 0.72998 22.1198 0.72998C22.1198 0.72998 28.8998 12.71 34.6898 15.61C34.6898 15.61 45.1098 9.06998 47.4998 0.72998C47.4998 0.72998 57.4998 1.04998 62.4298 10.63C67.3698 20.2 76.5598 39.61 81.3298 62.42Z" fill="#19ACEC"/>
<path d="M43.5499 23.1C43.2599 20.8 38.4899 18.5 36.3599 17.58C36.0199 17.44 35.6599 17.37 35.2899 17.37C34.9099 17.37 34.5499 17.45 34.1999 17.6C32.1499 18.53 27.6299 20.82 27.3399 23.1C27.1599 24.54 27.7399 25.76 28.8899 26.34C29.3699 26.58 29.8999 26.7 30.4499 26.7C31.4499 26.7 32.4999 26.31 33.4499 25.6C33.1999 26.77 33.0499 28.08 33.1299 29.43L34.1299 29.37C33.9699 26.73 34.7999 24.19 35.3999 22.74C35.8699 24.79 36.5999 29.14 36.1899 35.11L37.1899 35.17C37.4799 30.96 37.2199 27.55 36.8699 25.15C37.9399 26.15 39.2399 26.7 40.4399 26.7C40.9899 26.7 41.5199 26.58 41.9999 26.34C43.1599 25.76 43.7399 24.54 43.5499 23.1ZM33.3599 24.4C31.8999 25.79 30.2899 25.93 29.3399 25.45C28.5599 25.05 28.1999 24.26 28.3299 23.23C28.5099 21.85 31.5899 19.88 34.5699 18.53C34.6999 19.87 34.8199 23.01 33.3599 24.4ZM41.5499 25.45C40.5999 25.93 38.9899 25.79 37.5299 24.4C36.0699 23.01 35.9999 19.9 36.0499 18.54C39.1599 19.89 42.3799 21.85 42.5599 23.23C42.6899 24.26 42.3299 25.05 41.5499 25.45Z" fill="#0E6F89"/>
<path d="M43.1 85.54H22.28C18.8 85.54 15.97 82.72 15.97 79.23L13.96 2.52997C6 5.36997 3.4 13.05 3.4 13.05C3.4 13.05 3.4 18.5 3.4 35.18C3.4 51.86 0 53.39 0 53.39L10.35 61.29V127.28H15.97V94.15C15.97 90.67 18.79 87.84 22.28 87.84H43.1C43.73 87.84 44.25 87.33 44.25 86.69C44.24 86.06 43.73 85.54 43.1 85.54Z" fill="#0E6F89"/>
<path d="M22.5998 97.74V127.28H20.0498V97.74C20.0498 97.04 20.6198 96.47 21.3198 96.47C22.0298 96.46 22.5998 97.03 22.5998 97.74Z" fill="#0E6F89"/>
<path d="M29.7502 97.74V120.58C28.8602 121.64 28.3302 123.01 28.3302 124.51V127.27H27.2002V97.74C27.2002 97.03 27.7702 96.46 28.4702 96.46C29.1802 96.46 29.7502 97.03 29.7502 97.74Z" fill="#0E6F89"/>
<path d="M36.9001 97.74V118.82C36.1601 118.51 35.3501 118.34 34.5001 118.34C34.4501 118.34 34.4001 118.34 34.3501 118.35V97.74C34.3501 97.03 34.9201 96.46 35.6201 96.46C36.3301 96.46 36.9001 97.03 36.9001 97.74Z" fill="#0E6F89"/>
<path d="M44.05 97.74V127.28H41.5V97.74C41.5 97.04 42.07 96.47 42.77 96.47C43.48 96.46 44.05 97.03 44.05 97.74Z" fill="#0E6F89"/>
<path d="M51.1999 97.74V120.85C50.3299 121.83 49.8099 123.11 49.8099 124.51V127.27H48.6499V97.74C48.6499 97.03 49.2199 96.46 49.9199 96.46C50.6299 96.46 51.1999 97.03 51.1999 97.74Z" fill="#0E6F89"/>
</g>
<defs>
<clipPath id="clip0_301_15309">
<rect width="81.33" height="126.54" fill="white" transform="translate(0 0.72998)"/>
</clipPath>
</defs>
</svg>
