<svg width="122" height="142" viewBox="0 0 122 142" fill="none" xmlns="http://www.w3.org/2000/svg">
<g clip-path="url(#clip0_301_15419)">
<path d="M53.8901 141.125H100.42V123.495C100.42 118.535 96.4001 114.505 91.4301 114.505H62.8801V141.115L53.8901 141.125Z" fill="#F9B843"/>
<path d="M53.8901 141.125H62.8801V114.515C57.9201 114.515 53.8901 118.535 53.8901 123.505V141.125Z" fill="#C18525"/>
<path d="M121.14 106.305H106.56C106.56 106.305 98.2997 53.305 93.2497 42.455L92.5697 64.445L94.5397 92.035L95.1797 100.905L96.5297 128.735H60.2897L57.9897 47.605L62.1097 11.555L66.8497 10.795C72.2897 9.92501 75.6798 7.92501 76.6898 2.50501L76.9097 1.32501C76.9097 1.32501 83.3497 1.77501 91.4197 6.57501C96.7397 9.73501 103.58 14.695 108.56 27.845C108.56 27.835 119.82 57.125 121.14 106.305Z" fill="#F9B843"/>
<path d="M42.9699 6.80499C42.9699 6.80499 36.09 11.635 36.09 18.315L36 44.145C35.9799 49.665 34.59 59.485 25.5 59.105C15.77 58.695 15.9099 49.645 15.6999 45.605C15.6299 44.325 15.6699 40.565 15.6699 40.565H0.769949C0.769949 40.565 -1.37005 69.985 19.8099 74.305C31.4399 76.675 42.57 69.415 43.5999 68.565L42.9699 6.80499Z" fill="#825616"/>
<path d="M63.9701 7.805V52.345L62.8801 128.735H39.5601L40.2601 102.335L40.4901 93.755L43.0501 64.445L41.5801 7.875C41.5801 7.875 48.5901 1.905 57.9201 0.875L57.9301 1.685C57.9701 4.875 59.8601 5.985 62.7701 7.275L63.9701 7.805Z" fill="#C18525"/>
<path d="M93.5501 10.125C93.5501 10.125 97.8301 7.455 94.4701 6.335C94.4701 6.335 86.2001 5.865 82.2301 1.875C82.2301 1.875 81.3701 3.175 82.5601 4.235C82.5601 4.235 87.4701 7.585 90.6501 7.485C93.3701 7.395 94.7401 8.265 93.5501 10.125Z" fill="#472F18"/>
<path d="M43.1799 9.32499C43.1799 9.32499 38.8599 6.73499 42.1899 5.54499C42.1899 5.54499 50.4499 4.92499 54.3399 0.86499C54.3399 0.86499 55.2299 2.14499 54.0499 3.22499C54.0499 3.22499 49.1999 6.66499 46.0199 6.62499C43.3099 6.59499 41.9499 7.49499 43.1799 9.32499Z" fill="#472F18"/>
<path d="M69.54 50.165C68.51 50.165 67.65 50.865 67.38 51.805H62.48C62.24 50.815 61.36 50.075 60.29 50.075C59.05 50.075 58.04 51.085 58.04 52.325C58.04 53.565 59.05 54.585 60.29 54.585C61.36 54.585 62.25 53.835 62.48 52.835H67.32C67.51 53.885 68.43 54.675 69.53 54.675C70.77 54.675 71.78 53.665 71.78 52.425C71.8 51.175 70.79 50.165 69.54 50.165ZM60.3 53.545C59.62 53.545 59.07 52.995 59.07 52.315C59.07 51.645 59.62 51.095 60.3 51.095C60.81 51.095 61.25 51.415 61.43 51.865C61.26 51.955 61.15 52.115 61.15 52.315C61.15 52.515 61.27 52.685 61.44 52.765C61.25 53.225 60.81 53.545 60.3 53.545ZM69.54 53.645C68.99 53.645 68.54 53.275 68.39 52.775C68.56 52.695 68.68 52.525 68.68 52.315C68.68 52.135 68.58 51.985 68.45 51.895C68.65 51.485 69.06 51.195 69.55 51.195C70.23 51.195 70.78 51.745 70.78 52.425C70.77 53.095 70.22 53.645 69.54 53.645Z" fill="#42302D"/>
<path d="M60.2903 39.795C61.3603 39.795 62.2503 39.045 62.4803 38.045H67.3203C67.5103 39.095 68.4303 39.885 69.5303 39.885C70.7703 39.885 71.7803 38.875 71.7803 37.625C71.7803 36.385 70.7703 35.375 69.5303 35.375C68.5003 35.375 67.6403 36.075 67.3703 37.015H62.4703C62.2303 36.025 61.3503 35.285 60.2803 35.285C59.0403 35.285 58.0303 36.295 58.0303 37.535C58.0303 38.785 59.0403 39.795 60.2903 39.795ZM69.5303 36.415C70.2103 36.415 70.7603 36.965 70.7603 37.635C70.7603 38.315 70.2103 38.865 69.5303 38.865C68.9803 38.865 68.5303 38.495 68.3803 37.995C68.5503 37.915 68.6703 37.745 68.6703 37.535C68.6703 37.355 68.5703 37.205 68.4403 37.115C68.6303 36.705 69.0503 36.415 69.5303 36.415ZM60.2903 36.315C60.8003 36.315 61.2403 36.635 61.4203 37.085C61.2503 37.175 61.1403 37.335 61.1403 37.535C61.1403 37.735 61.2603 37.905 61.4203 37.985C61.2403 38.435 60.8003 38.765 60.2903 38.765C59.6103 38.765 59.0603 38.215 59.0603 37.535C59.0603 36.865 59.6103 36.315 60.2903 36.315Z" fill="#42302D"/>
<path d="M60.2903 26.795C61.3603 26.795 62.2503 26.045 62.4803 25.045H67.3203C67.5103 26.095 68.4303 26.885 69.5303 26.885C70.7703 26.885 71.7803 25.875 71.7803 24.635C71.7803 23.395 70.7703 22.385 69.5303 22.385C68.5003 22.385 67.6403 23.085 67.3703 24.025H62.4703C62.2303 23.035 61.3503 22.295 60.2803 22.295C59.0403 22.295 58.0303 23.305 58.0303 24.545C58.0303 25.785 59.0403 26.795 60.2903 26.795ZM69.5303 23.405C70.2103 23.405 70.7603 23.955 70.7603 24.625C70.7603 25.305 70.2103 25.855 69.5303 25.855C68.9803 25.855 68.5303 25.485 68.3803 24.985C68.5503 24.905 68.6703 24.735 68.6703 24.525C68.6703 24.345 68.5703 24.195 68.4403 24.105C68.6303 23.695 69.0503 23.405 69.5303 23.405ZM60.2903 23.315C60.8003 23.315 61.2403 23.635 61.4203 24.085C61.2503 24.175 61.1403 24.335 61.1403 24.535C61.1403 24.735 61.2603 24.905 61.4203 24.985C61.2403 25.435 60.8003 25.765 60.2903 25.765C59.6103 25.765 59.0603 25.215 59.0603 24.535C59.0603 23.865 59.6103 23.315 60.2903 23.315Z" fill="#42302D"/>
<path d="M60.2998 51.135V53.445C60.2998 53.445 59.4998 53.725 58.2698 53.935C57.2798 54.155 55.9898 54.365 54.6098 54.395C51.5298 54.485 51.5298 49.595 54.6098 49.595C56.1798 49.595 57.6298 49.995 58.6698 50.395C59.6798 50.765 60.2998 51.135 60.2998 51.135Z" fill="#825616"/>
<path d="M60.2999 51.135V53.445C60.2999 53.445 59.4999 53.725 58.2699 53.935C56.2699 52.335 57.4399 51.105 58.6699 50.395C59.6799 50.765 60.2999 51.135 60.2999 51.135Z" fill="#B66B2F"/>
<path d="M60.3001 51.125C60.3001 51.125 59.3301 50.825 58.6901 50.875C57.5901 50.965 57.2501 53.225 58.6901 53.695C59.3001 53.895 60.3001 53.425 60.3001 53.425V51.125Z" fill="#BC7313"/>
<path d="M69.54 51.235V53.545C69.54 53.545 70.34 53.825 71.57 54.035C72.56 54.245 73.85 54.465 75.23 54.495C78.31 54.585 78.31 49.695 75.23 49.695C73.66 49.695 72.21 50.095 71.17 50.495C70.15 50.865 69.54 51.235 69.54 51.235Z" fill="#825616"/>
<path d="M69.54 51.235V53.545C69.54 53.545 70.34 53.825 71.57 54.035C73.57 52.435 72.4 51.205 71.17 50.495C70.15 50.865 69.54 51.235 69.54 51.235Z" fill="#B66B2F"/>
<path d="M69.54 51.225C69.54 51.225 70.51 50.925 71.15 50.975C72.25 51.065 72.59 53.325 71.15 53.805C70.54 54.005 69.54 53.535 69.54 53.535V51.225Z" fill="#BC7313"/>
<path d="M59.77 52.265C59.77 52.685 59.43 53.025 59.01 53.025C58.59 53.025 58.25 52.685 58.25 52.265C58.25 51.845 58.59 51.505 59.01 51.505C59.43 51.505 59.77 51.845 59.77 52.265Z" fill="#42302D"/>
<path d="M71.5898 52.405C71.5898 52.825 71.2498 53.165 70.8298 53.165C70.4098 53.165 70.0698 52.825 70.0698 52.405C70.0698 51.985 70.4098 51.645 70.8298 51.645C71.2498 51.645 71.5898 51.985 71.5898 52.405Z" fill="#42302D"/>
<path d="M60.29 36.355V38.665C60.29 38.665 59.49 38.945 58.26 39.155C57.27 39.375 55.98 39.585 54.6 39.615C51.52 39.705 51.52 34.815 54.6 34.815C56.17 34.815 57.62 35.215 58.66 35.615C59.68 35.985 60.29 36.355 60.29 36.355Z" fill="#825616"/>
<path d="M60.2901 36.355V38.665C60.2901 38.665 59.4901 38.945 58.2601 39.155C56.2601 37.555 57.4301 36.325 58.6601 35.615C59.6801 35.985 60.2901 36.355 60.2901 36.355Z" fill="#B66B2F"/>
<path d="M60.2899 36.345C60.2899 36.345 59.3199 36.045 58.6799 36.095C57.5799 36.185 57.2399 38.445 58.6799 38.915C59.2899 39.115 60.2899 38.645 60.2899 38.645V36.345Z" fill="#BC7313"/>
<path d="M69.5303 36.455V38.765C69.5303 38.765 70.3303 39.045 71.5603 39.255C72.5503 39.475 73.8403 39.685 75.2203 39.715C78.3003 39.805 78.3003 34.915 75.2203 34.915C73.6503 34.915 72.2003 35.315 71.1603 35.715C70.1503 36.085 69.5303 36.455 69.5303 36.455Z" fill="#825616"/>
<path d="M69.5303 36.455V38.765C69.5303 38.765 70.3303 39.045 71.5603 39.255C73.5603 37.655 72.3903 36.425 71.1603 35.715C70.1503 36.085 69.5303 36.455 69.5303 36.455Z" fill="#B66B2F"/>
<path d="M69.5303 36.435C69.5303 36.435 70.5003 36.135 71.1403 36.185C72.2403 36.275 72.5803 38.535 71.1403 39.015C70.5303 39.215 69.5303 38.745 69.5303 38.745V36.435Z" fill="#BC7313"/>
<path d="M59.77 37.485C59.77 37.905 59.43 38.245 59.01 38.245C58.59 38.245 58.25 37.905 58.25 37.485C58.25 37.065 58.59 36.725 59.01 36.725C59.43 36.725 59.77 37.065 59.77 37.485Z" fill="#42302D"/>
<path d="M71.5801 37.625C71.5801 38.045 71.2401 38.385 70.8201 38.385C70.4001 38.385 70.0601 38.045 70.0601 37.625C70.0601 37.205 70.4001 36.865 70.8201 36.865C71.2401 36.865 71.5801 37.205 71.5801 37.625Z" fill="#42302D"/>
<path d="M60.29 23.355V25.665C60.29 25.665 59.49 25.945 58.26 26.155C57.27 26.375 55.98 26.585 54.6 26.615C51.52 26.705 51.52 21.815 54.6 21.815C56.17 21.815 57.62 22.215 58.66 22.615C59.68 22.985 60.29 23.355 60.29 23.355Z" fill="#825616"/>
<path d="M60.2901 23.355V25.665C60.2901 25.665 59.4901 25.945 58.2601 26.155C56.2601 24.555 57.4301 23.325 58.6601 22.615C59.6801 22.985 60.2901 23.355 60.2901 23.355Z" fill="#B66B2F"/>
<path d="M60.2899 23.345C60.2899 23.345 59.3199 23.045 58.6799 23.095C57.5799 23.185 57.2399 25.445 58.6799 25.925C59.2899 26.125 60.2899 25.655 60.2899 25.655V23.345Z" fill="#BC7313"/>
<path d="M69.5303 23.445V25.755C69.5303 25.755 70.3303 26.035 71.5603 26.245C72.5503 26.465 73.8403 26.675 75.2203 26.705C78.3003 26.795 78.3003 21.905 75.2203 21.905C73.6503 21.905 72.2003 22.305 71.1603 22.705C70.1503 23.075 69.5303 23.445 69.5303 23.445Z" fill="#825616"/>
<path d="M69.5303 23.445V25.755C69.5303 25.755 70.3303 26.035 71.5603 26.245C73.5603 24.645 72.3903 23.415 71.1603 22.705C70.1503 23.075 69.5303 23.445 69.5303 23.445Z" fill="#B66B2F"/>
<path d="M69.5303 23.435C69.5303 23.435 70.5003 23.135 71.1403 23.185C72.2403 23.275 72.5803 25.535 71.1403 26.005C70.5303 26.205 69.5303 25.735 69.5303 25.735V23.435Z" fill="#BC7313"/>
<path d="M59.77 24.485C59.77 24.905 59.43 25.245 59.01 25.245C58.59 25.245 58.25 24.905 58.25 24.485C58.25 24.065 58.59 23.725 59.01 23.725C59.43 23.725 59.77 24.065 59.77 24.485Z" fill="#42302D"/>
<path d="M71.5801 24.625C71.5801 25.045 71.2401 25.385 70.8201 25.385C70.4001 25.385 70.0601 25.045 70.0601 24.625C70.0601 24.205 70.4001 23.865 70.8201 23.865C71.2401 23.865 71.5801 24.205 71.5801 24.625Z" fill="#42302D"/>
</g>
<defs>
<clipPath id="clip0_301_15419">
<rect width="120.43" height="140.25" fill="white" transform="translate(0.709961 0.875)"/>
</clipPath>
</defs>
</svg>
