<svg width="136" height="264" viewBox="0 0 136 264" fill="none" xmlns="http://www.w3.org/2000/svg">
<path d="M100.69 46.6699V170.19H50.8901V46.68C52.3801 46.15 53.7301 45.3499 54.8801 44.3399C57.3401 42.1899 58.8701 39.0999 58.8701 35.6699V2.67995C59.6101 2.50995 60.3801 2.68995 61.1701 2.67995C60.8001 3.92995 60.6001 5.24995 60.6001 6.60995C60.6001 13.9599 66.2901 20.0199 73.6901 20.9999V25.3599C73.6901 26.2199 74.4301 26.9199 75.3201 26.9199H76.2401C77.1501 26.9199 77.8801 26.2099 77.8801 25.3599V20.9999C85.2701 20.0299 90.9701 13.9699 90.9701 6.60995C90.9701 5.24995 90.7801 3.92995 90.4001 2.67995C91.1901 2.68995 91.9601 2.50995 92.7001 2.67995V35.66C92.7101 40.71 96.0201 44.9999 100.69 46.6699Z" fill="#E9433B"/>
<path d="M90.9804 6.60993C90.9804 13.9599 85.2804 20.0199 77.8904 20.9999V25.3599C77.8904 26.2199 77.1504 26.9199 76.2504 26.9199H75.3304C74.4304 26.9199 73.7003 26.2099 73.7003 25.3599V20.9999C66.3003 20.0299 60.6104 13.9699 60.6104 6.60993C60.6104 5.24993 60.8004 3.92993 61.1804 2.67993H65.7304C65.7304 2.67993 64.5103 4.85993 64.8103 7.28993C64.8103 13.1099 69.7303 18.8199 75.8103 18.8199C81.8703 18.8199 87.4304 13.0999 87.4304 7.28993C87.4304 5.62993 87.3204 4.06993 86.6104 2.67993H90.4304C90.7904 3.92993 90.9804 5.24993 90.9804 6.60993Z" fill="#F7F7F7"/>
<path d="M61.09 122.49V170.19H58.21V122.49C58.21 121.73 58.85 121.11 59.65 121.11C60.45 121.11 61.09 121.73 61.09 122.49Z" fill="#BC362F"/>
<path d="M69.1603 122.49V170.19H66.2803V122.49C66.2803 121.73 66.9203 121.11 67.7203 121.11C68.5103 121.11 69.1603 121.73 69.1603 122.49Z" fill="#BC362F"/>
<path d="M77.2301 122.49V170.19H74.3501V122.49C74.3501 121.73 74.9901 121.11 75.7901 121.11C76.5801 121.11 77.2301 121.73 77.2301 122.49Z" fill="#BC362F"/>
<path d="M85.2902 122.49V170.19H82.4102V122.49C82.4102 121.73 83.0502 121.11 83.8502 121.11C84.6502 121.11 85.2902 121.73 85.2902 122.49Z" fill="#BC362F"/>
<path d="M93.36 122.49V170.19H90.48V122.49C90.48 121.73 91.12 121.11 91.92 121.11C92.72 121.11 93.36 121.73 93.36 122.49Z" fill="#BC362F"/>
<path d="M54.8801 44.34V170.19H50.8901V46.68C52.3801 46.15 53.7301 45.35 54.8801 44.34Z" fill="#BC362F"/>
</svg>
