<svg width="140" height="196" viewBox="0 0 140 196" fill="none" xmlns="http://www.w3.org/2000/svg">
<g clip-path="url(#clip0_301_9395)">
<path d="M127.49 36.095C125.97 30.285 123.55 24.725 120.11 19.805C117.76 16.445 115.23 13.685 112.67 11.425C112.18 11.005 111.69 10.585 111.2 10.195C100.61 1.665 90.01 1.315 90.01 1.315C90.01 16.045 68.74 17.715 68.74 17.715L68.51 68.775L67.46 194.675C96.24 198.115 114.12 187.115 114.12 187.115L111.76 130.945C116.26 127.315 117.66 120.235 119.84 115.355C120.08 117.835 120.22 119.295 120.22 119.295H139.13C138.09 80.415 130.74 48.475 127.49 36.095Z" fill="#F9B843"/>
<path d="M49.2198 6.255V15.415C49.2198 45.185 48.5598 58.525 43.6198 68.985C39.6198 77.445 33.0398 79.845 24.2498 79.845C3.46978 79.845 0.529785 61.755 0.529785 34.945H17.5898C17.5898 40.115 17.6798 50.875 26.1698 50.875C34.3598 50.875 34.8298 35.245 35.5098 23.725C35.6998 20.515 36.6298 16.965 39.6198 13.305C42.8298 9.375 46.3498 7.895 49.2198 6.255Z" fill="#825616"/>
<path d="M67.4596 194.675C45.2496 195.465 33.6696 189.725 33.6696 189.725L37.5896 127.755C32.9196 122.835 30.1296 117.865 28.6196 113.115C27.9196 110.925 27.4996 108.775 27.2896 106.705C25.8896 92.795 34.0996 82.105 34.0896 82.465L34.4496 35.555C34.4496 32.345 33.9996 24.475 36.0296 18.755C37.6196 14.295 43.9396 3.58501 60.6696 1.88501C60.4896 7.83501 63.0996 10.055 67.7296 13.805L69.7896 15.475L68.5096 66.425L67.4596 194.675Z" fill="#C18525"/>
<path d="M111.2 58.485V82.625C111.2 82.625 117.19 87.305 121.93 97.805L111.2 58.485Z" fill="#C18525"/>
<path d="M46.2098 10.015C46.2098 10.015 41.4198 7.14503 45.1098 5.83503C45.1098 5.83503 54.2598 5.15503 58.5698 0.655029C58.5698 0.655029 59.5498 2.07503 58.2498 3.26503C58.2498 3.26503 52.8798 7.07503 49.3598 7.02503C46.3598 6.98503 44.8598 7.98503 46.2098 10.015Z" fill="#472F18"/>
<path d="M105.8 10.595C105.8 10.595 110.59 7.72505 106.9 6.41505C106.9 6.41505 97.7497 5.73505 93.4397 1.23505C93.4397 1.23505 92.4597 2.65505 93.7597 3.84505C93.7597 3.84505 99.1297 7.65505 102.65 7.60505C105.65 7.56505 107.15 8.56505 105.8 10.595Z" fill="#472F18"/>
<path d="M74.7399 61.505C73.5299 61.465 72.4799 62.245 72.1199 63.345L66.3199 63.135C66.0799 61.955 65.0699 61.035 63.8099 60.995C62.3399 60.945 61.0999 62.095 61.0499 63.565C60.9999 65.035 62.1499 66.275 63.6199 66.325C64.8799 66.375 65.9699 65.525 66.2899 64.355L72.0199 64.565C72.1999 65.815 73.2499 66.795 74.5599 66.835C76.0299 66.885 77.2699 65.735 77.3199 64.265C77.3599 62.795 76.2099 61.555 74.7399 61.505ZM63.6599 65.105C62.8599 65.075 62.2399 64.405 62.2599 63.605C62.2899 62.805 62.9599 62.185 63.7599 62.215C64.3699 62.235 64.8699 62.635 65.0699 63.165C64.8699 63.255 64.7199 63.455 64.7199 63.685C64.7099 63.925 64.8399 64.125 65.0399 64.235C64.8099 64.765 64.2699 65.125 63.6599 65.105ZM74.5899 65.615C73.9399 65.595 73.4199 65.135 73.2599 64.535C73.4599 64.445 73.6099 64.245 73.6199 64.005C73.6299 63.795 73.5199 63.615 73.3599 63.495C73.6099 63.015 74.1099 62.685 74.6899 62.715C75.4899 62.745 76.1099 63.415 76.0899 64.215C76.0599 65.025 75.3899 65.645 74.5899 65.615Z" fill="#42302D"/>
<path d="M64.2498 48.8451C65.5098 48.8951 66.5998 48.0451 66.9198 46.8751L72.6498 47.0851C72.8398 48.3351 73.8798 49.3151 75.1898 49.3551C76.6598 49.4051 77.8998 48.2551 77.9498 46.7851C77.9998 45.3151 76.8498 44.0751 75.3798 44.0251C74.1698 43.9851 73.1198 44.7651 72.7598 45.8651L66.9498 45.6551C66.7098 44.4751 65.6998 43.5551 64.4398 43.5151C62.9698 43.4651 61.7298 44.6151 61.6798 46.0851C61.6298 47.5451 62.7798 48.7851 64.2498 48.8451ZM75.3298 45.2451C76.1298 45.2751 76.7598 45.9451 76.7298 46.7451C76.6998 47.5451 76.0298 48.1751 75.2298 48.1451C74.5798 48.1251 74.0698 47.6651 73.8998 47.0651C74.0998 46.9751 74.2498 46.7751 74.2598 46.5351C74.2698 46.3251 74.1598 46.1451 73.9998 46.0251C74.2498 45.5451 74.7498 45.2251 75.3298 45.2451ZM64.3998 44.7251C65.0098 44.7451 65.5098 45.1451 65.7098 45.6751C65.5098 45.7651 65.3598 45.9651 65.3598 46.1951C65.3498 46.4351 65.4798 46.6351 65.6798 46.7451C65.4498 47.2751 64.9198 47.6351 64.2998 47.6151C63.4998 47.5851 62.8798 46.9151 62.8998 46.1151C62.9298 45.3251 63.5998 44.6951 64.3998 44.7251Z" fill="#42302D"/>
<path d="M64.8098 33.4651C66.0698 33.5151 67.1598 32.6651 67.4798 31.4951L73.2098 31.7051C73.3998 32.9551 74.4398 33.9351 75.7498 33.9751C77.2198 34.0251 78.4598 32.8751 78.5098 31.4051C78.5598 29.9351 77.4098 28.6951 75.9398 28.6451C74.7298 28.6051 73.6798 29.3851 73.3198 30.4851L67.5198 30.2751C67.2798 29.0951 66.2698 28.1751 65.0098 28.1351C63.5398 28.0851 62.2998 29.2351 62.2498 30.7051C62.1898 32.1751 63.3398 33.4151 64.8098 33.4651ZM75.8898 29.8651C76.6898 29.8951 77.3198 30.5651 77.2898 31.3651C77.2598 32.1651 76.5898 32.7951 75.7898 32.7651C75.1398 32.7451 74.6298 32.2851 74.4598 31.6851C74.6598 31.5951 74.8098 31.3951 74.8198 31.1551C74.8298 30.9451 74.7198 30.7651 74.5598 30.6451C74.8098 30.1751 75.3098 29.8451 75.8898 29.8651ZM64.9598 29.3551C65.5698 29.3751 66.0698 29.7751 66.2698 30.3051C66.0698 30.3951 65.9198 30.5951 65.9198 30.8251C65.9098 31.0651 66.0398 31.2651 66.2398 31.3751C66.0098 31.9051 65.4798 32.2651 64.8598 32.2451C64.0598 32.2151 63.4398 31.5451 63.4598 30.7451C63.4898 29.9551 64.1598 29.3251 64.9598 29.3551Z" fill="#42302D"/>
<path d="M63.7697 62.255L63.6697 64.9851C63.6697 64.9851 62.7097 65.275 61.2497 65.475C60.0797 65.685 58.5397 65.885 56.8997 65.865C53.2497 65.845 53.4697 60.055 57.1097 60.185C58.9697 60.255 60.6597 60.7851 61.8797 61.3051C63.0597 61.7951 63.7697 62.255 63.7697 62.255Z" fill="#825616"/>
<path d="M63.7698 62.2551L63.6697 64.9851C63.6697 64.9851 62.7098 65.2751 61.2498 65.4751C58.9498 63.4951 60.3897 62.0951 61.8797 61.3051C63.0597 61.7951 63.7698 62.2551 63.7698 62.2551Z" fill="#B66B2F"/>
<path d="M63.7698 62.245C63.7698 62.245 62.6398 61.855 61.8798 61.885C60.5698 61.945 60.0798 64.605 61.7598 65.225C62.4698 65.485 63.6698 64.975 63.6698 64.975L63.7698 62.245Z" fill="#BC7313"/>
<path d="M74.6898 62.765L74.5898 65.495C74.5898 65.495 75.5198 65.855 76.9698 66.165C78.1298 66.465 79.6498 66.775 81.2798 66.865C84.9198 67.105 85.1298 61.315 81.4898 61.185C79.6298 61.115 77.8998 61.525 76.6498 61.955C75.4398 62.355 74.6898 62.765 74.6898 62.765Z" fill="#825616"/>
<path d="M74.6898 62.765L74.5898 65.495C74.5898 65.495 75.5198 65.8551 76.9698 66.1651C79.4098 64.3551 78.0798 62.855 76.6498 61.955C75.4398 62.355 74.6898 62.765 74.6898 62.765Z" fill="#B66B2F"/>
<path d="M74.6996 62.755C74.6996 62.755 75.8596 62.445 76.6096 62.535C77.9096 62.685 78.2096 65.375 76.4896 65.875C75.7596 66.085 74.5996 65.485 74.5996 65.485L74.6996 62.755Z" fill="#BC7313"/>
<path d="M63.0995 63.5651C63.0795 64.0651 62.6595 64.445 62.1695 64.435C61.6695 64.415 61.2895 64.005 61.2995 63.505C61.3195 63.005 61.7395 62.6251 62.2295 62.6351C62.7295 62.6551 63.1195 63.0651 63.0995 63.5651Z" fill="#42302D"/>
<path d="M77.0595 64.245C77.0395 64.745 76.6195 65.125 76.1295 65.115C75.6295 65.095 75.2495 64.675 75.2595 64.185C75.2795 63.685 75.6995 63.295 76.1895 63.315C76.6895 63.335 77.0795 63.755 77.0595 64.245Z" fill="#42302D"/>
<path d="M64.3996 44.775L64.2996 47.505C64.2996 47.505 63.3396 47.795 61.8796 47.995C60.7096 48.205 59.1696 48.405 57.5296 48.385C53.8896 48.365 54.0996 42.575 57.7396 42.705C59.5996 42.775 61.2896 43.305 62.5096 43.825C63.6896 44.315 64.3996 44.775 64.3996 44.775Z" fill="#825616"/>
<path d="M64.3996 44.775L64.2996 47.505C64.2996 47.505 63.3396 47.795 61.8796 47.995C59.5796 46.015 61.0196 44.615 62.5096 43.825C63.6896 44.315 64.3996 44.775 64.3996 44.775Z" fill="#B66B2F"/>
<path d="M64.3996 44.765C64.3996 44.765 63.2696 44.375 62.5096 44.405C61.1996 44.465 60.7096 47.125 62.3896 47.745C63.0996 48.005 64.2996 47.495 64.2996 47.495L64.3996 44.765Z" fill="#BC7313"/>
<path d="M75.3197 45.2951L75.2197 48.0251C75.2197 48.0251 76.1497 48.3851 77.5997 48.6951C78.7597 48.9951 80.2797 49.3051 81.9097 49.3951C85.5497 49.6351 85.7597 43.8451 82.1197 43.7151C80.2597 43.6451 78.5397 44.0551 77.2797 44.4851C76.0697 44.8851 75.3197 45.2951 75.3197 45.2951Z" fill="#825616"/>
<path d="M75.3197 45.2951L75.2197 48.0251C75.2197 48.0251 76.1497 48.3851 77.5997 48.6951C80.0397 46.8851 78.7097 45.3851 77.2797 44.4951C76.0697 44.8851 75.3197 45.2951 75.3197 45.2951Z" fill="#B66B2F"/>
<path d="M75.3295 45.2751C75.3295 45.2751 76.4895 44.9651 77.2395 45.0551C78.5395 45.2051 78.8395 47.8951 77.1195 48.3951C76.3895 48.6051 75.2295 48.0051 75.2295 48.0051L75.3295 45.2751Z" fill="#BC7313"/>
<path d="M63.7294 46.085C63.7094 46.585 63.2894 46.965 62.7994 46.955C62.2994 46.935 61.9094 46.525 61.9294 46.025C61.9494 45.525 62.3694 45.135 62.8594 45.155C63.3594 45.175 63.7494 45.595 63.7294 46.085Z" fill="#42302D"/>
<path d="M77.6898 46.775C77.6698 47.275 77.2498 47.665 76.7598 47.645C76.2598 47.625 75.8798 47.205 75.8898 46.715C75.9098 46.215 76.3298 45.825 76.8198 45.845C77.3198 45.855 77.7098 46.275 77.6898 46.775Z" fill="#42302D"/>
<path d="M64.9597 29.405L64.8597 32.135C64.8597 32.135 63.8997 32.425 62.4397 32.625C61.2697 32.835 59.7297 33.035 58.0897 33.015C54.4497 32.995 54.6597 27.205 58.2997 27.335C60.1597 27.405 61.8497 27.935 63.0697 28.455C64.2497 28.945 64.9597 29.405 64.9597 29.405Z" fill="#825616"/>
<path d="M64.9597 29.405L64.8597 32.135C64.8597 32.135 63.8997 32.425 62.4397 32.625C60.1397 30.645 61.5797 29.235 63.0697 28.455C64.2497 28.945 64.9597 29.405 64.9597 29.405Z" fill="#B66B2F"/>
<path d="M64.9597 29.3851C64.9597 29.3851 63.8297 28.9951 63.0697 29.0251C61.7597 29.0851 61.2697 31.7451 62.9497 32.3651C63.6597 32.6251 64.8597 32.1151 64.8597 32.1151L64.9597 29.3851Z" fill="#BC7313"/>
<path d="M75.8798 29.9151L75.7798 32.6451C75.7798 32.6451 76.7098 33.0051 78.1598 33.3151C79.3198 33.6151 80.8398 33.9251 82.4698 34.0151C86.1098 34.2551 86.3198 28.4651 82.6798 28.3351C80.8198 28.2651 79.0998 28.6751 77.8398 29.1051C76.6298 29.5051 75.8798 29.9151 75.8798 29.9151Z" fill="#825616"/>
<path d="M75.8798 29.9151L75.7798 32.6451C75.7798 32.6451 76.7098 33.0051 78.1598 33.3151C80.5998 31.5051 79.2698 30.0051 77.8398 29.1151C76.6298 29.5051 75.8798 29.9151 75.8798 29.9151Z" fill="#B66B2F"/>
<path d="M75.8895 29.905C75.8895 29.905 77.0495 29.595 77.7995 29.685C79.0995 29.835 79.3996 32.525 77.6796 33.025C76.9496 33.235 75.7896 32.635 75.7896 32.635L75.8895 29.905Z" fill="#BC7313"/>
<path d="M64.2895 30.715C64.2695 31.215 63.8495 31.605 63.3595 31.585C62.8695 31.565 62.4695 31.155 62.4895 30.655C62.5095 30.155 62.9295 29.775 63.4195 29.785C63.9195 29.795 64.3095 30.215 64.2895 30.715Z" fill="#42302D"/>
<path d="M78.2499 31.395C78.2299 31.895 77.8099 32.285 77.3199 32.265C76.8199 32.245 76.4399 31.825 76.4499 31.335C76.4699 30.835 76.8899 30.455 77.3799 30.465C77.8799 30.485 78.2699 30.895 78.2499 31.395Z" fill="#42302D"/>
</g>
<defs>
<clipPath id="clip0_301_9395">
<rect width="138.6" height="194.69" fill="white" transform="translate(0.529785 0.655029)"/>
</clipPath>
</defs>
</svg>
