<svg width="83" height="124" viewBox="0 0 83 124" fill="none" xmlns="http://www.w3.org/2000/svg">
<g clip-path="url(#clip0_301_12399)">
<path d="M19.7899 5.45999V12.11C19.7899 27.12 19.5799 36.97 18.4499 44.32C17.8299 48.45 16.8999 51.78 15.5699 54.8C15.4699 55.03 15.3599 55.27 15.2499 55.5C15.2399 55.51 15.2399 55.52 15.2299 55.53C14.8599 56.32 14.4499 57.04 14.0199 57.71L11.9199 54.97C13.1399 54.23 14.2399 53.29 15.1499 52.2C15.2999 52.03 15.4299 51.86 15.5599 51.68C17.2699 49.45 18.2799 46.68 18.2799 43.66V6.63999C18.7799 6.21999 19.2799 5.82999 19.7899 5.45999Z" fill="#BC362F"/>
<path d="M39.2199 73.4C39.2199 73.93 38.7899 74.36 38.2599 74.36H20.8299C17.9199 74.36 15.5499 76.72 15.5499 79.64V123.37H0.609863L0.769863 81.22C0.789863 77.54 1.55986 73.89 3.20986 70.61C4.45986 68.13 5.69986 66.76 5.68986 66.97L5.76986 56.68C7.46986 56.4 10.4999 55.81 11.9299 54.94C13.1499 54.2 14.2499 53.26 15.1599 52.17C15.3099 52 15.4399 51.83 15.5699 51.65V54.77L15.5499 67.14C15.5499 70.05 17.9099 72.42 20.8299 72.42H38.2599C38.7899 72.43 39.2199 72.86 39.2199 73.4Z" fill="#BC362F"/>
<path d="M54.8698 2.65C54.8698 2.74999 54.8698 2.84 54.8598 2.93C54.7998 6.21 53.6498 9.21 51.7498 11.61C49.4998 14.45 46.1998 16.42 42.4298 16.94V21.26C42.4298 22.11 41.7298 22.81 40.8698 22.81H39.9998C39.1498 22.81 38.4498 22.11 38.4498 21.26V16.93C34.2698 16.36 30.6698 14.01 28.4398 10.66C28.0898 10.13 27.7698 9.58 27.4798 9.01C27.4798 9.01 27.4798 9.01 27.4798 9C27.3698 8.76 27.2498 8.52 27.1498 8.27C27.0598 8.05 26.9698 7.83 26.8898 7.61C26.8098 7.39 26.7398 7.16 26.6598 6.94C26.5898 6.71 26.5198 6.49 26.4698 6.26C26.4098 6.03 26.3598 5.79 26.3098 5.56C26.2598 5.34 26.2198 5.12 26.1898 4.9C26.1798 4.87 26.1798 4.83 26.1698 4.79C26.1398 4.57 26.1098 4.35 26.0898 4.13C26.0698 3.89 26.0498 3.64 26.0298 3.4C26.0198 3.15 26.0098 2.91 26.0098 2.66V2.56C26.0098 2.36 26.0198 2.16 26.0298 1.96C27.3198 1.43 28.6498 0.979995 30.0298 0.619995C30.0498 0.809995 30.0598 0.989995 30.0798 1.18C30.0798 1.2 30.0698 1.22 30.0698 1.24C29.9598 1.88 29.9098 2.59 29.9998 3.33C29.9998 9.09999 34.6798 14.77 40.4398 14.77C44.2498 14.77 47.8398 12.3 49.8398 8.96C50.8698 7.24 51.4798 5.29 51.4798 3.33C51.4798 2.76 51.4698 2.19 51.4198 1.64C51.4098 1.54 51.3998 1.45 51.3898 1.35C52.4798 1.5 53.6498 1.75 54.8498 2.09V2.13C54.8698 2.31 54.8698 2.48 54.8698 2.65Z" fill="#F7F7F7"/>
<path d="M82.8998 123.37H14.5698L15.1598 100.17L15.1798 99.32L15.5498 79.64C15.5498 76.73 17.9098 74.36 20.8298 74.36H38.2598C38.7898 74.36 39.2198 73.92 39.2198 73.4C39.2198 72.87 38.7898 72.44 38.2598 72.44H20.8298C17.9198 72.44 15.5498 70.08 15.5498 67.16L15.2398 55.52L15.1598 52.19C15.3098 52.02 15.4398 51.85 15.5698 51.67C17.2798 49.44 18.2898 46.67 18.2898 43.65V6.64C18.7798 6.22 19.2798 5.83 19.7898 5.46C20.9198 4.63 22.1098 3.88 23.3598 3.22C24.2198 2.76 25.1198 2.35 26.0298 1.97C26.0198 2.17 26.0098 2.37 26.0098 2.57V2.67C26.0098 2.92 26.0198 3.16 26.0298 3.41C26.0498 3.65 26.0598 3.9 26.0898 4.14C26.1098 4.36 26.1398 4.58 26.1698 4.8C26.1798 4.84 26.1798 4.88 26.1898 4.91C26.2198 5.14 26.2598 5.36 26.3098 5.57C26.3598 5.8 26.4198 6.04 26.4698 6.27C26.5298 6.5 26.5898 6.72 26.6598 6.95C26.7298 7.18 26.8098 7.4 26.8898 7.62C26.9698 7.84 27.0598 8.06 27.1498 8.28C27.2598 8.53 27.3698 8.77 27.4798 9.01C27.4798 9.02 27.4798 9.02 27.4798 9.02C27.7598 9.59 28.0898 10.15 28.4398 10.67C30.6698 14.01 34.2798 16.36 38.4498 16.94V21.26C38.4498 22.11 39.1498 22.81 39.9998 22.81H40.8698C41.7298 22.81 42.4298 22.11 42.4298 21.26V16.93C46.1898 16.41 49.4998 14.44 51.7498 11.6C53.6498 9.2 54.7998 6.2 54.8598 2.92C54.8698 2.83 54.8698 2.74 54.8698 2.65C54.8698 2.48 54.8698 2.3 54.8498 2.12V2.1C57.4198 2.81 60.1598 3.91 62.6498 5.28V39.2C62.6498 44.94 71.8698 49.82 76.9898 51.65C77.0298 51.67 77.0598 51.67 77.0998 51.69L77.2098 63.88C77.2098 63.82 77.3998 63.94 77.7098 64.22C78.5098 64.92 80.0698 66.61 80.7798 68.49C81.3598 70.05 81.7798 71.5 82.0598 72.85C82.7598 76.19 82.7198 78.96 82.7198 81.53V81.81L82.8198 113.02L82.8998 123.37Z" fill="#E9433B"/>
<path d="M21.6101 107.86V123.37H19.5801V107.86C19.5801 107.29 20.0301 106.83 20.5901 106.83C21.1601 106.83 21.6101 107.29 21.6101 107.86Z" fill="#BC362F"/>
<path d="M28.24 107.86V123.37H26.21V107.86C26.21 107.29 26.66 106.83 27.22 106.83C27.79 106.83 28.24 107.29 28.24 107.86Z" fill="#BC362F"/>
<path d="M34.8698 107.86V123.37H32.8398V107.86C32.8398 107.29 33.2898 106.83 33.8498 106.83C34.4098 106.83 34.8698 107.29 34.8698 107.86Z" fill="#BC362F"/>
<path d="M41.49 107.86V123.37H39.46V107.86C39.46 107.29 39.91 106.83 40.47 106.83C41.04 106.83 41.49 107.29 41.49 107.86Z" fill="#BC362F"/>
<path d="M48.1198 107.86V123.37H46.0898V107.86C46.0898 107.29 46.5398 106.83 47.0998 106.83C47.6698 106.83 48.1198 107.29 48.1198 107.86Z" fill="#BC362F"/>
<path d="M54.7502 107.86V123.37H52.7202V107.86C52.7202 107.29 53.1702 106.83 53.7302 106.83C54.3002 106.83 54.7502 107.29 54.7502 107.86Z" fill="#BC362F"/>
<path d="M61.3801 107.86V123.37H59.3501V107.86C59.3501 107.29 59.8001 106.83 60.3601 106.83C60.9301 106.83 61.3801 107.29 61.3801 107.86Z" fill="#BC362F"/>
<path d="M68.01 107.86V123.37H65.98V107.86C65.98 107.29 66.43 106.83 66.99 106.83C67.55 106.83 68.01 107.29 68.01 107.86Z" fill="#BC362F"/>
<path d="M74.6299 107.86V123.37H72.6099V107.86C72.6099 107.29 73.0599 106.83 73.6199 106.83C74.1799 106.83 74.6299 107.29 74.6299 107.86Z" fill="#BC362F"/>
</g>
<defs>
<clipPath id="clip0_301_12399">
<rect width="82.29" height="122.74" fill="white" transform="translate(0.609863 0.630005)"/>
</clipPath>
</defs>
</svg>
