<svg width="74" height="132" viewBox="0 0 74 132" fill="none" xmlns="http://www.w3.org/2000/svg">
<g clip-path="url(#clip0_301_6411)">
<path d="M73.2799 54.875H60.7499C60.7499 54.875 60.5599 51.255 59.1399 46.145V131.165H9.2099V53.885L1.8999 46.965C1.8999 46.965 4.8799 45.625 4.8799 31.015C4.8799 16.405 5.3999 4.89501 12.3699 2.40501C13.9599 1.83501 20.2499 0.825012 22.3399 0.825012C22.3399 0.825012 28.2799 11.325 33.3499 13.865C33.3499 13.865 42.4799 8.13501 44.5799 0.825012C44.5799 0.825012 57.7999 1.10501 62.1199 9.50501C66.4499 17.885 69.0999 34.895 73.2799 54.875Z" fill="#92AED6"/>
<path d="M40.9799 19.925C40.7199 17.915 36.5399 15.895 34.6799 15.095C34.3799 14.965 34.0699 14.905 33.7499 14.905C33.4199 14.905 33.0999 14.975 32.7899 15.115C30.9899 15.925 27.0299 17.935 26.7799 19.935C26.6199 21.205 27.1299 22.265 28.1399 22.775C28.5599 22.985 29.0199 23.085 29.5099 23.085C30.3799 23.085 31.3099 22.745 32.1399 22.125C31.9199 23.145 31.7899 24.295 31.8599 25.475L32.7299 25.425C32.5899 23.115 33.3199 20.885 33.8499 19.615C34.2599 21.415 34.8999 25.225 34.5399 30.455L35.4099 30.515C35.6599 26.815 35.4299 23.835 35.1299 21.725C36.0699 22.605 37.2099 23.085 38.2599 23.085C38.7499 23.085 39.2099 22.985 39.6299 22.775C40.6399 22.255 41.1399 21.195 40.9799 19.925ZM28.5299 21.985C27.8399 21.635 27.5299 20.945 27.6399 20.035C27.7899 18.825 30.4999 17.105 33.1099 15.925C33.2199 17.105 33.3299 19.845 32.0499 21.065C30.7699 22.285 29.3599 22.405 28.5299 21.985ZM39.2299 21.985C38.3999 22.405 36.9899 22.285 35.7099 21.065C34.4299 19.855 34.3699 17.125 34.4099 15.935C37.1399 17.125 39.9599 18.845 40.1199 20.045C40.2299 20.945 39.9099 21.635 39.2299 21.985Z" fill="#39485B"/>
<path d="M37.9001 75.135H19.6601C16.6101 75.135 14.1301 72.665 14.1301 69.605L13.6501 2.05502C1.33014 4.53502 3.90014 30.225 3.90014 30.225C3.90014 44.845 0.140137 46.965 0.140137 46.965L8.58014 54.195V131.175H14.1401V82.675C14.1401 79.625 16.6101 77.145 19.6701 77.145H37.9101C38.4701 77.145 38.9201 76.695 38.9201 76.135C38.9001 75.585 38.4501 75.135 37.9001 75.135Z" fill="#39485B"/>
<path d="M19.94 105.295V131.175H17.71V105.295C17.71 104.675 18.21 104.175 18.83 104.175C19.44 104.175 19.94 104.675 19.94 105.295Z" fill="#39485B"/>
<path d="M26.21 105.295V131.175H23.98V105.295C23.98 104.675 24.48 104.175 25.1 104.175C25.71 104.175 26.21 104.675 26.21 105.295Z" fill="#39485B"/>
<path d="M32.4702 105.295V131.175H30.2402V105.295C30.2402 104.675 30.7402 104.175 31.3602 104.175C31.9702 104.175 32.4702 104.675 32.4702 105.295Z" fill="#39485B"/>
<path d="M38.7403 105.295V131.175H36.5103V105.295C36.5103 104.675 37.0103 104.175 37.6303 104.175C38.2403 104.175 38.7403 104.675 38.7403 105.295Z" fill="#39485B"/>
<path d="M45 105.295V131.175H42.77V105.295C42.77 104.675 43.27 104.175 43.89 104.175C44.5 104.175 45 104.675 45 105.295Z" fill="#39485B"/>
</g>
<defs>
<clipPath id="clip0_301_6411">
<rect width="73.14" height="130.35" fill="white" transform="translate(0.140137 0.825012)"/>
</clipPath>
</defs>
</svg>
