<svg width="94" height="258" viewBox="0 0 94 258" fill="none" xmlns="http://www.w3.org/2000/svg">
<g clip-path="url(#clip0_301_9321)">
<path d="M22.48 6.83002V15.04C22.48 33.58 22.22 45.75 20.83 54.82C20.06 59.92 18.92 64.04 17.27 67.76C17.15 68.05 17.01 68.34 16.88 68.62C16.87 68.63 16.87 68.65 16.86 68.66C16.4 69.63 15.9 70.53 15.36 71.35L12.77 67.97C14.28 67.05 15.63 65.89 16.76 64.55C16.94 64.34 17.11 64.13 17.27 63.91C19.38 61.16 20.63 57.73 20.63 54V8.29002C21.23 7.77002 21.85 7.29002 22.48 6.83002Z" fill="#BC362F"/>
<path d="M46.4801 90.75C46.4801 91.4 45.9501 91.94 45.2901 91.94H23.7601C20.1601 91.94 17.2401 94.86 17.2401 98.46V257.13H0.560059L0.760059 100.42C0.780059 95.88 1.74006 91.37 3.78006 87.32C5.33006 84.26 6.85006 82.56 6.84006 82.83L6.94006 70.12C9.04006 69.78 11.0101 69.04 12.7701 67.97C14.2801 67.05 15.6301 65.89 16.7601 64.55C16.9401 64.34 17.1101 64.13 17.2701 63.91V67.76L17.2401 83.04C17.2401 86.64 20.1601 89.56 23.7601 89.56H45.2901C45.9501 89.56 46.4801 90.09 46.4801 90.75Z" fill="#1C9D86"/>
<path d="M65.8099 3.37V3.38C65.8099 3.49 65.8099 3.6 65.7999 3.71C65.7299 7.76 64.3099 11.47 61.9599 14.43C59.1799 17.94 55.0999 20.37 50.4499 21.01V26.35C50.4499 27.4 49.5799 28.26 48.5199 28.26H47.4399C46.3899 28.26 45.5299 27.4 45.5299 26.35V21.01C40.3699 20.3 35.9199 17.4 33.1599 13.27C32.7299 12.62 32.3299 11.94 31.9799 11.23C31.9799 11.23 31.9799 11.23 31.9799 11.22C31.8399 10.92 31.6999 10.63 31.5699 10.32C31.4599 10.05 31.3499 9.78 31.2499 9.51C31.1499 9.24 31.0599 8.96 30.9699 8.68C30.8799 8.39999 30.7999 8.12 30.7299 7.83999C30.6599 7.54999 30.5899 7.25999 30.5299 6.97C30.4699 6.7 30.4199 6.43 30.3799 6.15C30.3699 6.11 30.3699 6.06 30.3599 6.00999C30.3199 5.74 30.2899 5.47 30.2599 5.2C30.2299 4.89999 30.2099 4.6 30.1899 4.3C30.1799 3.99 30.1699 3.69 30.1699 3.38V3.26C30.1699 3.01 30.1799 2.77 30.1899 2.52C31.7799 1.87 33.4299 1.31 35.1299 0.869995C35.1499 1.1 35.1699 1.33 35.1899 1.56C35.1899 1.59 35.1799 1.61 35.1799 1.64C35.0499 2.43 34.9799 3.30999 35.0899 4.22C35.0899 11.35 40.8699 18.35 47.9899 18.35C52.6899 18.35 57.1299 15.3 59.5999 11.17C60.8699 9.05 61.6199 6.64 61.6199 4.22C61.6199 3.50999 61.6099 2.81 61.5499 2.13C61.5399 2.01 61.5299 1.89 61.5099 1.77C62.8599 1.96 64.2999 2.27 65.7899 2.68V2.72C65.8099 2.94 65.8099 3.16 65.8099 3.37Z" fill="#F7F7F7"/>
<path d="M93.5503 257.13H16.0303L16.7603 123.82L16.7803 122.77L17.2403 98.46C17.2403 94.86 20.1603 91.94 23.7603 91.94H45.2903C45.9503 91.94 46.4803 91.4 46.4803 90.75C46.4803 90.09 45.9503 89.56 45.2903 89.56H23.7603C20.1603 89.56 17.2403 86.64 17.2403 83.04L16.8603 68.66L16.7603 64.55C16.9403 64.34 17.1103 64.13 17.2703 63.91C19.3803 61.16 20.6303 57.73 20.6303 54V8.29002C21.2303 7.77002 21.8503 7.29002 22.4803 6.83002C23.8703 5.81002 25.3403 4.89002 26.8903 4.07002C27.9503 3.50002 29.0603 2.99002 30.1903 2.52002C30.1803 2.77002 30.1703 3.01002 30.1703 3.26002V3.38002C30.1703 3.69002 30.1803 3.99002 30.1903 4.30002C30.2103 4.60002 30.2303 4.90002 30.2603 5.20002C30.2903 5.47002 30.3203 5.74002 30.3603 6.01002C30.3703 6.06002 30.3703 6.11002 30.3803 6.15002C30.4203 6.43002 30.4703 6.70002 30.5303 6.97002C30.5903 7.26002 30.6603 7.55002 30.7303 7.84002C30.8003 8.12002 30.8803 8.40002 30.9703 8.68002C31.0603 8.96002 31.1503 9.24002 31.2503 9.51002C31.3503 9.78002 31.4603 10.05 31.5703 10.32C31.7003 10.63 31.8403 10.92 31.9803 11.22C31.9803 11.23 31.9803 11.23 31.9803 11.23C32.3303 11.94 32.7303 12.62 33.1603 13.27C35.9203 17.4 40.3703 20.3 45.5303 21.01V26.35C45.5303 27.4 46.3903 28.26 47.4403 28.26H48.5203C49.5803 28.26 50.4503 27.4 50.4503 26.35V21.01C55.1003 20.37 59.1803 17.94 61.9603 14.43C64.3103 11.47 65.7303 7.76002 65.8003 3.71002C65.8103 3.60002 65.8103 3.49002 65.8103 3.38002V3.37002C65.8103 3.16002 65.8103 2.94002 65.7903 2.72002V2.68002C68.9603 3.56002 72.3503 4.91002 75.4303 6.61002V48.51C75.4303 55.6 79.9403 61.63 86.2603 63.89C86.3103 63.91 86.3503 63.92 86.4003 63.94L86.5403 79C86.5403 78.93 86.7803 79.08 87.1603 79.42C88.1503 80.29 90.0803 82.37 90.9503 84.7C91.6703 86.63 92.1803 88.42 92.5303 90.09C93.4003 94.22 93.3403 97.64 93.3503 100.81V101.15L93.4703 139.7L93.5503 257.13Z" fill="#8FDE5D"/>
<path d="M24.73 133.32V257.13H22.23V133.32C22.23 132.62 22.79 132.05 23.48 132.05C24.17 132.05 24.73 132.62 24.73 133.32Z" fill="#1C9D86"/>
<path d="M32.9102 133.32V257.13H30.4102V133.32C30.4102 132.62 30.9702 132.05 31.6602 132.05C32.3502 132.05 32.9102 132.62 32.9102 133.32Z" fill="#1C9D86"/>
<path d="M41.1001 133.32V257.13H38.6001V133.32C38.6001 132.62 39.1601 132.05 39.8501 132.05C40.5401 132.05 41.1001 132.62 41.1001 133.32Z" fill="#1C9D86"/>
<path d="M49.29 133.32V257.13H46.79V133.32C46.79 132.62 47.35 132.05 48.04 132.05C48.73 132.05 49.29 132.62 49.29 133.32Z" fill="#1C9D86"/>
<path d="M57.4702 133.32V257.13H54.9702V133.32C54.9702 132.62 55.5302 132.05 56.2202 132.05C56.9102 132.05 57.4702 132.62 57.4702 133.32Z" fill="#1C9D86"/>
<path d="M65.6602 133.32V257.13H63.1602V133.32C63.1602 132.62 63.7202 132.05 64.4102 132.05C65.1002 132.05 65.6602 132.62 65.6602 133.32Z" fill="#1C9D86"/>
<path d="M73.8501 133.32V257.13H71.3501V133.32C71.3501 132.62 71.9101 132.05 72.6001 132.05C73.2901 132.05 73.8501 132.62 73.8501 133.32Z" fill="#1C9D86"/>
<path d="M82.04 133.32V257.13H79.54V133.32C79.54 132.62 80.1 132.05 80.79 132.05C81.48 132.05 82.04 132.62 82.04 133.32Z" fill="#1C9D86"/>
<path d="M90.2202 133.32V257.13H87.7202V133.32C87.7202 132.62 88.2802 132.05 88.9702 132.05C89.6602 132.05 90.2202 132.62 90.2202 133.32Z" fill="#1C9D86"/>
</g>
<defs>
<clipPath id="clip0_301_9321">
<rect width="92.99" height="256.26" fill="white" transform="translate(0.560059 0.869995)"/>
</clipPath>
</defs>
</svg>
