<svg width="136" height="264" viewBox="0 0 136 264" fill="none" xmlns="http://www.w3.org/2000/svg">
<g clip-path="url(#clip0_334_1541)">
<path d="M117.18 29.09C112.58 15.43 106.5 8.39999 100.97 5.61999C93.3602 1.79999 84.5702 1.90999 84.5702 1.90999L84.5202 3.17999C84.4402 5.28999 83.5902 7.33999 82.0202 8.74999C77.7502 12.6 71.4102 12.83 71.4102 12.83L70.2402 42.95L72.8302 159.26C72.8302 159.26 87.6802 161.74 106.68 155.62C106.68 155.62 102.69 105 101.27 69.54L103 47.12C108.04 57.97 112.83 114.78 112.83 114.78H129.52C128.21 65.61 117.18 29.09 117.18 29.09Z" fill="#F9B843"/>
<path d="M51.6002 5.79004C51.6002 5.79004 44.7202 10.07 44.7202 19.58L44.6302 45.41C44.6102 50.93 43.2202 60.75 34.1302 60.37C24.4002 59.96 24.5402 50.91 24.3302 46.87C24.2602 45.59 24.2402 35 24.2402 35H9.34024C9.34024 35 7.26024 71.25 28.4402 75.57C40.0702 77.94 50.4802 71.5 51.5102 70.64L51.6002 5.79004Z" fill="#825616"/>
<path d="M72.6503 17.7799L72.5703 10.9699C68.8003 9.16994 66.3503 8.46994 66.3503 3.03994V1.93994C54.4603 2.40994 50.0703 7.00994 50.0703 7.00994L51.5603 71.7099L44.3003 150.86C53.4603 160.99 72.7003 159.27 72.7003 159.27L72.6503 17.7799Z" fill="#C18525"/>
<path d="M77.6904 50.96C76.6604 50.96 75.8004 51.66 75.5304 52.6H70.6304C70.3904 51.61 69.5104 50.87 68.4404 50.87C67.2004 50.87 66.1904 51.88 66.1904 53.12C66.1904 54.36 67.2004 55.38 68.4404 55.38C69.5104 55.38 70.4004 54.63 70.6304 53.63H75.4704C75.6604 54.68 76.5804 55.47 77.6804 55.47C78.9204 55.47 79.9304 54.46 79.9304 53.22C79.9404 51.97 78.9304 50.96 77.6904 50.96ZM68.4404 54.34C67.7604 54.34 67.2104 53.79 67.2104 53.11C67.2104 52.44 67.7604 51.89 68.4404 51.89C68.9504 51.89 69.3904 52.21 69.5704 52.66C69.4004 52.75 69.2904 52.91 69.2904 53.11C69.2904 53.31 69.4104 53.48 69.5804 53.56C69.4004 54.02 68.9604 54.34 68.4404 54.34ZM77.6904 54.44C77.1404 54.44 76.6904 54.07 76.5404 53.57C76.7104 53.49 76.8304 53.32 76.8304 53.11C76.8304 52.93 76.7304 52.78 76.6004 52.69C76.8004 52.28 77.2104 51.99 77.7004 51.99C78.3804 51.99 78.9304 52.54 78.9304 53.22C78.9104 53.89 78.3604 54.44 77.6904 54.44Z" fill="#42302D"/>
<path d="M68.4304 40.59C69.5004 40.59 70.3904 39.84 70.6204 38.84H75.4604C75.6504 39.89 76.5704 40.68 77.6704 40.68C78.9104 40.68 79.9204 39.67 79.9204 38.42C79.9204 37.18 78.9104 36.17 77.6704 36.17C76.6404 36.17 75.7804 36.87 75.5104 37.81H70.6104C70.3704 36.82 69.4904 36.08 68.4204 36.08C67.1804 36.08 66.1704 37.09 66.1704 38.33C66.1804 39.58 67.1904 40.59 68.4304 40.59ZM77.6804 37.21C78.3604 37.21 78.9104 37.76 78.9104 38.43C78.9104 39.11 78.3604 39.66 77.6804 39.66C77.1304 39.66 76.6804 39.29 76.5304 38.79C76.7004 38.71 76.8204 38.54 76.8204 38.33C76.8204 38.15 76.7204 38 76.5904 37.91C76.7804 37.5 77.1904 37.21 77.6804 37.21ZM68.4304 37.11C68.9404 37.11 69.3804 37.43 69.5604 37.88C69.3904 37.97 69.2804 38.13 69.2804 38.33C69.2804 38.53 69.4004 38.7 69.5604 38.78C69.3804 39.23 68.9404 39.56 68.4304 39.56C67.7504 39.56 67.2004 39.01 67.2004 38.33C67.2104 37.66 67.7604 37.11 68.4304 37.11Z" fill="#42302D"/>
<path d="M68.4304 27.59C69.5004 27.59 70.3904 26.84 70.6204 25.84H75.4604C75.6504 26.89 76.5704 27.68 77.6704 27.68C78.9104 27.68 79.9204 26.67 79.9204 25.43C79.9204 24.19 78.9104 23.18 77.6704 23.18C76.6404 23.18 75.7804 23.88 75.5104 24.82H70.6104C70.3704 23.83 69.4904 23.09 68.4204 23.09C67.1804 23.09 66.1704 24.1 66.1704 25.34C66.1804 26.58 67.1904 27.59 68.4304 27.59ZM77.6804 24.21C78.3604 24.21 78.9104 24.76 78.9104 25.43C78.9104 26.11 78.3604 26.66 77.6804 26.66C77.1304 26.66 76.6804 26.29 76.5304 25.79C76.7004 25.71 76.8204 25.54 76.8204 25.33C76.8204 25.15 76.7204 25 76.5904 24.91C76.7804 24.5 77.1904 24.21 77.6804 24.21ZM68.4304 24.11C68.9404 24.11 69.3804 24.43 69.5604 24.88C69.3904 24.97 69.2804 25.13 69.2804 25.33C69.2804 25.53 69.4004 25.7 69.5604 25.78C69.3804 26.23 68.9404 26.56 68.4304 26.56C67.7504 26.56 67.2004 26.01 67.2004 25.33C67.2104 24.66 67.7604 24.11 68.4304 24.11Z" fill="#42302D"/>
<path d="M68.4404 51.93V54.24C68.4404 54.24 67.6404 54.52 66.4104 54.73C65.4204 54.95 64.1304 55.16 62.7504 55.19C59.6704 55.28 59.6704 50.39 62.7504 50.39C64.3204 50.39 65.7704 50.79 66.8104 51.19C67.8304 51.56 68.4404 51.93 68.4404 51.93Z" fill="#825616"/>
<path d="M68.4405 51.9299V54.2399C68.4405 54.2399 67.6405 54.5199 66.4105 54.7299C64.4105 53.1299 65.5805 51.8999 66.8105 51.1899C67.8305 51.5599 68.4405 51.9299 68.4405 51.9299Z" fill="#B66B2F"/>
<path d="M68.4403 51.9199C68.4403 51.9199 67.4703 51.6199 66.8303 51.6699C65.7303 51.7599 65.3903 54.0199 66.8303 54.4899C67.4403 54.6899 68.4403 54.2199 68.4403 54.2199V51.9199Z" fill="#BC7313"/>
<path d="M77.6807 52.03V54.34C77.6807 54.34 78.4807 54.62 79.7107 54.83C80.7007 55.04 81.9907 55.26 83.3707 55.29C86.4507 55.38 86.4507 50.49 83.3707 50.49C81.8007 50.49 80.3507 50.89 79.3107 51.29C78.3007 51.66 77.6807 52.03 77.6807 52.03Z" fill="#825616"/>
<path d="M77.6807 52.03V54.34C77.6807 54.34 78.4807 54.62 79.7107 54.83C81.7107 53.23 80.5407 52 79.3107 51.29C78.3007 51.66 77.6807 52.03 77.6807 52.03Z" fill="#B66B2F"/>
<path d="M77.6904 52.02C77.6904 52.02 78.6604 51.72 79.3004 51.77C80.4004 51.86 80.7404 54.12 79.3004 54.6C78.6904 54.8 77.6904 54.33 77.6904 54.33V52.02Z" fill="#BC7313"/>
<path d="M67.9204 53.06C67.9204 53.48 67.5804 53.82 67.1604 53.82C66.7404 53.82 66.4004 53.48 66.4004 53.06C66.4004 52.64 66.7404 52.3 67.1604 52.3C67.5804 52.3 67.9204 52.64 67.9204 53.06Z" fill="#42302D"/>
<path d="M79.7305 53.21C79.7305 53.63 79.3905 53.97 78.9705 53.97C78.5505 53.97 78.2104 53.63 78.2104 53.21C78.2104 52.79 78.5505 52.45 78.9705 52.45C79.3905 52.45 79.7305 52.79 79.7305 53.21Z" fill="#42302D"/>
<path d="M68.4404 37.15V39.46C68.4404 39.46 67.6404 39.74 66.4104 39.95C65.4204 40.17 64.1304 40.38 62.7504 40.41C59.6704 40.5 59.6704 35.61 62.7504 35.61C64.3204 35.61 65.7704 36.01 66.8104 36.41C67.8204 36.78 68.4404 37.15 68.4404 37.15Z" fill="#825616"/>
<path d="M68.4405 37.15V39.46C68.4405 39.46 67.6405 39.74 66.4105 39.95C64.4105 38.35 65.5805 37.12 66.8105 36.41C67.8205 36.78 68.4405 37.15 68.4405 37.15Z" fill="#B66B2F"/>
<path d="M68.4305 37.14C68.4305 37.14 67.4605 36.84 66.8205 36.89C65.7205 36.98 65.3805 39.24 66.8205 39.71C67.4305 39.91 68.4305 39.44 68.4305 39.44V37.14Z" fill="#BC7313"/>
<path d="M77.6807 37.25V39.56C77.6807 39.56 78.4807 39.84 79.7107 40.05C80.7007 40.27 81.9907 40.48 83.3707 40.51C86.4507 40.6 86.4507 35.71 83.3707 35.71C81.8007 35.71 80.3507 36.11 79.3107 36.51C78.2907 36.88 77.6807 37.25 77.6807 37.25Z" fill="#825616"/>
<path d="M77.6807 37.25V39.56C77.6807 39.56 78.4807 39.84 79.7107 40.05C81.7107 38.45 80.5407 37.22 79.3107 36.51C78.2907 36.88 77.6807 37.25 77.6807 37.25Z" fill="#B66B2F"/>
<path d="M77.6807 37.24C77.6807 37.24 78.6507 36.94 79.2907 36.99C80.3907 37.08 80.7307 39.34 79.2907 39.82C78.6807 40.02 77.6807 39.55 77.6807 39.55V37.24Z" fill="#BC7313"/>
<path d="M67.9106 38.28C67.9106 38.7 67.5706 39.04 67.1506 39.04C66.7306 39.04 66.3906 38.7 66.3906 38.28C66.3906 37.86 66.7306 37.52 67.1506 37.52C67.5706 37.52 67.9106 37.86 67.9106 38.28Z" fill="#42302D"/>
<path d="M79.7202 38.4299C79.7202 38.8499 79.3802 39.1899 78.9602 39.1899C78.5402 39.1899 78.2002 38.8499 78.2002 38.4299C78.2002 38.0099 78.5402 37.6699 78.9602 37.6699C79.3802 37.6699 79.7202 38.0099 79.7202 38.4299Z" fill="#42302D"/>
<path d="M68.4404 24.15V26.46C68.4404 26.46 67.6404 26.74 66.4104 26.95C65.4204 27.17 64.1304 27.38 62.7504 27.41C59.6704 27.5 59.6704 22.61 62.7504 22.61C64.3204 22.61 65.7704 23.01 66.8104 23.41C67.8204 23.78 68.4404 24.15 68.4404 24.15Z" fill="#825616"/>
<path d="M68.4405 24.15V26.46C68.4405 26.46 67.6405 26.74 66.4105 26.95C64.4105 25.35 65.5805 24.12 66.8105 23.41C67.8205 23.78 68.4405 24.15 68.4405 24.15Z" fill="#B66B2F"/>
<path d="M68.4305 24.14C68.4305 24.14 67.4605 23.84 66.8205 23.89C65.7205 23.98 65.3805 26.24 66.8205 26.72C67.4305 26.92 68.4305 26.45 68.4305 26.45V24.14Z" fill="#BC7313"/>
<path d="M77.6807 24.25V26.56C77.6807 26.56 78.4807 26.84 79.7107 27.05C80.7007 27.27 81.9907 27.48 83.3707 27.51C86.4507 27.6 86.4507 22.71 83.3707 22.71C81.8007 22.71 80.3507 23.11 79.3107 23.51C78.2907 23.88 77.6807 24.25 77.6807 24.25Z" fill="#825616"/>
<path d="M77.6807 24.25V26.56C77.6807 26.56 78.4807 26.84 79.7107 27.05C81.7107 25.45 80.5407 24.22 79.3107 23.51C78.2907 23.88 77.6807 24.25 77.6807 24.25Z" fill="#B66B2F"/>
<path d="M77.6807 24.24C77.6807 24.24 78.6507 23.94 79.2907 23.99C80.3907 24.08 80.7307 26.34 79.2907 26.81C78.6807 27.01 77.6807 26.54 77.6807 26.54V24.24Z" fill="#BC7313"/>
<path d="M67.9106 25.28C67.9106 25.7 67.5706 26.04 67.1506 26.04C66.7306 26.04 66.3906 25.7 66.3906 25.28C66.3906 24.86 66.7306 24.52 67.1506 24.52C67.5706 24.52 67.9106 24.86 67.9106 25.28Z" fill="#42302D"/>
<path d="M79.7202 25.42C79.7202 25.84 79.3802 26.18 78.9602 26.18C78.5402 26.18 78.2002 25.84 78.2002 25.42C78.2002 25 78.5402 24.66 78.9602 24.66C79.3802 24.66 79.7202 25 79.7202 25.42Z" fill="#42302D"/>
<path d="M102.41 9.87C102.41 9.87 106.69 7.19999 103.33 6.07999C103.33 6.07999 95.06 5.61 91.09 1.62C91.09 1.62 90.23 2.92 91.42 3.98C91.42 3.98 96.33 7.33 99.51 7.23C102.23 7.15 103.6 8.02 102.41 9.87Z" fill="#472F18"/>
<path d="M52.0403 9.07999C52.0403 9.07999 47.7203 6.49 51.0503 5.3C51.0503 5.3 59.3103 4.68 63.2003 0.619995C63.2003 0.619995 64.0903 1.9 62.9103 2.98C62.9103 2.98 58.0603 6.41999 54.8803 6.37999C52.1703 6.34999 50.8103 7.24999 52.0403 9.07999Z" fill="#472F18"/>
</g>
<defs>
<clipPath id="clip0_334_1541">
<rect width="136" height="263" fill="white" transform="translate(0 0.5)"/>
</clipPath>
</defs>
</svg>
