<svg width="56" height="172" viewBox="0 0 56 172" fill="none" xmlns="http://www.w3.org/2000/svg">
<g clip-path="url(#clip0_301_15386)">
<path d="M50.0199 44.615V126.135H0.399902V44.625C1.8899 44.095 3.2299 43.295 4.3799 42.285C6.8299 40.135 8.3599 37.045 8.3599 33.615V0.635018C9.0899 0.465018 9.8599 0.645018 10.6499 0.635018C10.2699 1.87502 10.0799 3.19502 10.0799 4.55502C10.0799 11.905 15.7499 17.965 23.1199 18.945V23.305C23.1199 24.165 23.8499 24.865 24.7499 24.865H25.6599C26.5599 24.865 27.2999 24.155 27.2999 23.305V18.945C34.6699 17.975 40.3499 11.905 40.3499 4.55502C40.3499 3.19502 40.1599 1.87502 39.7899 0.625018C40.5799 0.635018 41.3399 0.455018 42.0799 0.625018V33.605C42.0699 38.655 45.3699 42.945 50.0199 44.615Z" fill="#F9B843"/>
<path d="M40.3501 4.555C40.3501 11.905 34.6701 17.965 27.3101 18.945V23.305C27.3101 24.165 26.5801 24.865 25.6701 24.865H24.7601C23.8701 24.865 23.1301 24.155 23.1301 23.305V18.945C15.7501 17.975 10.0801 11.905 10.0801 4.555C10.0801 3.195 10.2701 1.875 10.6401 0.625H15.1701C15.1701 0.625 13.9601 2.805 14.2501 5.235C14.2501 11.055 19.1501 16.765 25.2101 16.765C31.2501 16.765 36.7801 11.045 36.7801 5.235C36.7801 3.575 36.6701 2.015 35.9601 0.625H39.7701C40.1601 1.875 40.3501 3.195 40.3501 4.555Z" fill="#F7F7F7"/>
<path d="M4.3799 42.285V126.135H0.399902V44.625C1.8899 44.095 3.2299 43.295 4.3799 42.285Z" fill="#C18A29"/>
<path d="M12.4999 116.815C9.58986 118.335 7.60986 121.305 7.60986 124.725V171.435H12.4999V116.815Z" fill="#C18A29"/>
<path d="M55.81 124.735V171.445L12.5 171.435V116.825C13.82 116.135 15.32 115.745 16.91 115.745H46.5C51.64 115.745 55.81 119.775 55.81 124.735Z" fill="#F9B843"/>
<path d="M19.1898 139.455V171.435H16.5498V139.455C16.5498 138.755 17.1398 138.185 17.8698 138.185C18.5998 138.185 19.1898 138.755 19.1898 139.455Z" fill="#C18A29"/>
<path d="M26.6 139.455V171.435H23.96V139.455C23.96 138.755 24.55 138.185 25.28 138.185C26.01 138.185 26.6 138.755 26.6 139.455Z" fill="#C18A29"/>
<path d="M34.0096 139.455V171.435H31.3696V139.455C31.3696 138.755 31.9596 138.185 32.6896 138.185C33.4096 138.185 34.0096 138.755 34.0096 139.455Z" fill="#C18A29"/>
<path d="M41.41 139.455V171.435H38.77V139.455C38.77 138.755 39.36 138.185 40.09 138.185C40.82 138.185 41.41 138.755 41.41 139.455Z" fill="#C18A29"/>
<path d="M48.8197 139.455V171.435H46.1797V139.455C46.1797 138.755 46.7697 138.185 47.4997 138.185C48.2297 138.185 48.8197 138.755 48.8197 139.455Z" fill="#C18A29"/>
</g>
<defs>
<clipPath id="clip0_301_15386">
<rect width="55.41" height="170.89" fill="white" transform="translate(0.399902 0.554993)"/>
</clipPath>
</defs>
</svg>
