<svg width="94" height="200" viewBox="0 0 94 200" fill="none" xmlns="http://www.w3.org/2000/svg">
<g clip-path="url(#clip0_301_9349)">
<path d="M22.4698 6.92004V15.13C22.4698 33.67 22.2098 45.84 20.8198 54.91C20.0498 60.01 18.9098 64.13 17.2598 67.85C17.1398 68.14 16.9998 68.43 16.8698 68.71C16.8598 68.72 16.8598 68.74 16.8498 68.75C16.3898 69.72 15.8898 70.62 15.3498 71.44L12.7598 68.06C14.2698 67.14 15.6198 65.98 16.7498 64.64C16.9298 64.43 17.0998 64.22 17.2598 64C19.3698 61.25 20.6198 57.82 20.6198 54.09V8.38004C21.2198 7.86004 21.8398 7.38004 22.4698 6.92004Z" fill="#BC362F"/>
<path d="M46.4698 90.84C46.4698 91.49 45.9398 92.03 45.2798 92.03H23.7498C20.1498 92.03 17.2298 94.95 17.2298 98.55V199.04H0.549805L0.749805 100.51C0.769805 95.97 1.7298 91.46 3.7698 87.41C5.3198 84.35 6.83981 82.65 6.8298 82.92L6.9298 70.21C9.0298 69.87 10.9998 69.13 12.7598 68.06C14.2698 67.14 15.6198 65.98 16.7498 64.64C16.9298 64.43 17.0998 64.22 17.2598 64V67.85L17.2298 83.13C17.2298 86.73 20.1498 89.65 23.7498 89.65H45.2798C45.9398 89.65 46.4698 90.18 46.4698 90.84Z" fill="#C18A29"/>
<path d="M65.7997 3.46002V3.47002C65.7997 3.58002 65.7997 3.69002 65.7897 3.80002C65.7197 7.85002 64.2997 11.56 61.9497 14.52C59.1697 18.03 55.0897 20.46 50.4397 21.1V26.44C50.4397 27.49 49.5697 28.35 48.5097 28.35H47.4297C46.3797 28.35 45.5197 27.49 45.5197 26.44V21.1C40.3597 20.39 35.9097 17.49 33.1497 13.36C32.7197 12.71 32.3197 12.03 31.9697 11.32C31.9697 11.32 31.9697 11.32 31.9697 11.31C31.8297 11.01 31.6897 10.72 31.5597 10.41C31.4497 10.14 31.3397 9.87002 31.2397 9.60002C31.1397 9.33002 31.0497 9.05002 30.9597 8.77002C30.8697 8.49002 30.7897 8.21002 30.7197 7.93002C30.6497 7.64002 30.5797 7.35002 30.5197 7.06002C30.4597 6.79002 30.4097 6.52002 30.3697 6.24002C30.3597 6.20002 30.3597 6.15002 30.3497 6.10002C30.3097 5.83002 30.2797 5.56002 30.2497 5.29002C30.2197 4.99002 30.1997 4.69002 30.1797 4.39002C30.1697 4.08002 30.1597 3.78002 30.1597 3.47002V3.35002C30.1597 3.10002 30.1697 2.86002 30.1797 2.61002C31.7697 1.96002 33.4197 1.40002 35.1197 0.960022C35.1397 1.19002 35.1597 1.42002 35.1797 1.65002C35.1797 1.68002 35.1697 1.70002 35.1697 1.73002C35.0397 2.52002 34.9697 3.40002 35.0797 4.31002C35.0797 11.44 40.8597 18.44 47.9797 18.44C52.6797 18.44 57.1197 15.39 59.5897 11.26C60.8597 9.14002 61.6097 6.73002 61.6097 4.31002C61.6097 3.60002 61.5997 2.90002 61.5397 2.22002C61.5297 2.10002 61.5197 1.98002 61.4997 1.86002C62.8497 2.05002 64.2897 2.36002 65.7797 2.77002V2.81002C65.7997 3.03002 65.7997 3.25002 65.7997 3.46002Z" fill="#F7F7F7"/>
<path d="M93.54 199.04H16.02L16.75 123.91L16.77 122.86L17.23 98.55C17.23 94.95 20.15 92.03 23.75 92.03H45.28C45.94 92.03 46.47 91.49 46.47 90.84C46.47 90.18 45.94 89.65 45.28 89.65H23.75C20.15 89.65 17.23 86.73 17.23 83.13L16.85 68.75L16.75 64.64C16.93 64.43 17.1 64.22 17.26 64C19.37 61.25 20.62 57.82 20.62 54.09V8.38005C21.22 7.86005 21.84 7.38005 22.47 6.92005C23.86 5.90005 25.33 4.98005 26.88 4.16005C27.94 3.59005 29.05 3.08005 30.18 2.61005C30.17 2.86005 30.16 3.10005 30.16 3.35005V3.47005C30.16 3.78005 30.17 4.08005 30.18 4.39005C30.2 4.69005 30.22 4.99005 30.25 5.29005C30.28 5.56005 30.31 5.83005 30.35 6.10005C30.36 6.15005 30.36 6.20005 30.37 6.24005C30.41 6.52005 30.46 6.79005 30.52 7.06005C30.58 7.35005 30.65 7.64005 30.72 7.93005C30.79 8.21005 30.87 8.49005 30.96 8.77005C31.05 9.05005 31.14 9.33005 31.24 9.60005C31.34 9.87005 31.45 10.14 31.56 10.41C31.69 10.72 31.83 11.01 31.97 11.31C31.97 11.32 31.97 11.32 31.97 11.32C32.32 12.03 32.72 12.71 33.15 13.36C35.91 17.49 40.36 20.39 45.52 21.1V26.44C45.52 27.49 46.38 28.35 47.43 28.35H48.51C49.57 28.35 50.44 27.49 50.44 26.44V21.1C55.09 20.46 59.17 18.03 61.95 14.52C64.3 11.56 65.72 7.85005 65.79 3.80005C65.8 3.69005 65.8 3.58005 65.8 3.47005V3.46005C65.8 3.25005 65.8 3.03005 65.78 2.81005V2.77005C68.95 3.65005 72.34 5.00005 75.42 6.70005V48.6C75.42 55.69 79.93 61.72 86.25 63.98C86.3 64 86.34 64.01 86.39 64.03L86.53 79.09C86.53 79.02 86.77 79.1701 87.15 79.51C88.14 80.3801 90.07 82.46 90.94 84.79C91.66 86.72 92.17 88.51 92.52 90.18C93.39 94.31 93.33 97.73 93.34 100.9V101.24L93.46 139.79L93.54 199.04Z" fill="#F9B843"/>
<path d="M24.7197 133.41V199.04H22.2197V133.41C22.2197 132.71 22.7797 132.14 23.4697 132.14C24.1597 132.14 24.7197 132.71 24.7197 133.41Z" fill="#C18A29"/>
<path d="M32.8999 133.41V199.04H30.3999V133.41C30.3999 132.71 30.9599 132.14 31.6499 132.14C32.3399 132.14 32.8999 132.71 32.8999 133.41Z" fill="#C18A29"/>
<path d="M41.0898 133.41V199.04H38.5898V133.41C38.5898 132.71 39.1498 132.14 39.8398 132.14C40.5298 132.14 41.0898 132.71 41.0898 133.41Z" fill="#C18A29"/>
<path d="M49.2798 133.41V199.04H46.7798V133.41C46.7798 132.71 47.3398 132.14 48.0298 132.14C48.7198 132.14 49.2798 132.71 49.2798 133.41Z" fill="#C18A29"/>
<path d="M57.46 133.41V199.04H54.96V133.41C54.96 132.71 55.52 132.14 56.21 132.14C56.9 132.14 57.46 132.71 57.46 133.41Z" fill="#C18A29"/>
<path d="M65.6499 133.41V199.04H63.1499V133.41C63.1499 132.71 63.7099 132.14 64.3999 132.14C65.0899 132.14 65.6499 132.71 65.6499 133.41Z" fill="#C18A29"/>
<path d="M73.8398 133.41V199.04H71.3398V133.41C71.3398 132.71 71.8998 132.14 72.5898 132.14C73.2798 132.14 73.8398 132.71 73.8398 133.41Z" fill="#C18A29"/>
<path d="M82.0298 133.41V199.04H79.5298V133.41C79.5298 132.71 80.0898 132.14 80.7798 132.14C81.4698 132.14 82.0298 132.71 82.0298 133.41Z" fill="#C18A29"/>
<path d="M90.21 133.41V199.04H87.71V133.41C87.71 132.71 88.27 132.14 88.96 132.14C89.65 132.14 90.21 132.71 90.21 133.41Z" fill="#C18A29"/>
</g>
<defs>
<clipPath id="clip0_301_9349">
<rect width="92.99" height="198.08" fill="white" transform="translate(0.549805 0.960022)"/>
</clipPath>
</defs>
</svg>
