<svg width="136" height="264" viewBox="0 0 136 264" fill="none" xmlns="http://www.w3.org/2000/svg">
<path d="M122.09 63.2401H107.79C107.79 63.2401 103.12 47.92 99.7895 41.34V176.6H51.1095V62.11L42.7695 54.21C42.7695 54.21 46.1695 52.68 46.1695 36C46.1695 19.32 46.1695 13.87 46.1695 13.87C46.1695 13.87 46.7595 6.19004 54.7195 3.35004C56.5295 2.70004 60.4895 1.55005 62.8795 1.55005C62.8795 1.55005 69.6595 13.53 75.4495 16.43C75.4495 16.43 85.8695 9.89005 88.2595 1.55005C88.2595 1.55005 98.2595 1.87004 103.19 11.45C108.13 21.02 117.32 40.4301 122.09 63.2401Z" fill="#92AED6"/>
<path d="M84.3197 23.9201C84.0297 21.6301 79.2597 19.3201 77.1297 18.4001C76.7897 18.2501 76.4297 18.1801 76.0597 18.1801C75.6797 18.1801 75.3097 18.2601 74.9697 18.4101C72.9197 19.3401 68.3997 21.6301 68.1097 23.9101C67.9197 25.3601 68.4997 26.5701 69.6597 27.1501C70.1397 27.3901 70.6697 27.5101 71.2197 27.5101C72.2097 27.5101 73.2697 27.1201 74.2197 26.4101C73.9697 27.5801 73.8197 28.8901 73.8997 30.2301L74.8997 30.1701C74.7397 27.5301 75.5797 24.9901 76.1797 23.5401C76.6497 25.5901 77.3797 29.9501 76.9697 35.9101L77.9697 35.9801C78.2597 31.7601 77.9997 28.3601 77.6497 25.9501C78.7197 26.9601 80.0197 27.5001 81.2197 27.5001C81.7697 27.5001 82.3097 27.3801 82.7797 27.1401C83.9197 26.5701 84.4997 25.3601 84.3197 23.9201ZM70.1097 26.2701C69.3197 25.8701 68.9697 25.0801 69.0997 24.0401C69.2797 22.6601 72.3597 20.7 75.3397 19.34C75.4697 20.68 75.5897 23.8201 74.1297 25.2101C72.6597 26.6101 71.0597 26.7501 70.1097 26.2701ZM82.3097 26.2701C81.3597 26.7501 79.7497 26.6101 78.2897 25.2101C76.8297 23.8201 76.7597 20.7201 76.8097 19.3501C79.9297 20.7001 83.1497 22.6701 83.3197 24.0401C83.4597 25.0801 83.0997 25.8701 82.3097 26.2701Z" fill="#39485B"/>
<path d="M83.8598 86.3601H63.0398C59.5598 86.3601 56.7298 83.5401 56.7298 80.0501L54.7198 3.34009C46.7598 6.18009 44.1598 13.8601 44.1598 13.8601C44.1598 13.8601 44.1598 19.3101 44.1598 35.9901C44.1598 52.6701 40.7598 54.2001 40.7598 54.2001L51.1098 62.1001V176.6H56.7298V94.9701C56.7298 91.4901 59.5498 88.6601 63.0398 88.6601H83.8598C84.4898 88.6601 85.0098 88.1501 85.0098 87.5101C85.0098 86.8701 84.4898 86.3601 83.8598 86.3601Z" fill="#39485B"/>
<path d="M63.3596 147.06V176.6H60.8096V147.06C60.8096 146.36 61.3796 145.79 62.0796 145.79C62.7896 145.79 63.3596 146.36 63.3596 147.06Z" fill="#39485B"/>
<path d="M70.51 147.06V176.6H67.96V147.06C67.96 146.36 68.53 145.79 69.23 145.79C69.94 145.79 70.51 146.36 70.51 147.06Z" fill="#39485B"/>
<path d="M77.6599 147.06V176.6H75.1099V147.06C75.1099 146.36 75.6799 145.79 76.3799 145.79C77.0899 145.79 77.6599 146.36 77.6599 147.06Z" fill="#39485B"/>
<path d="M84.8098 147.06V176.6H82.2598V147.06C82.2598 146.36 82.8298 145.79 83.5298 145.79C84.2398 145.79 84.8098 146.36 84.8098 147.06Z" fill="#39485B"/>
<path d="M91.9597 147.06V176.6H89.4097V147.06C89.4097 146.36 89.9797 145.79 90.6797 145.79C91.3897 145.79 91.9597 146.36 91.9597 147.06Z" fill="#39485B"/>
</svg>
