<svg width="50" height="148" viewBox="0 0 50 148" fill="none" xmlns="http://www.w3.org/2000/svg">
<g clip-path="url(#clip0_301_6469)">
<path d="M49.6898 44.17V147.68H0.00976562V44.18C1.43977 43.65 2.72977 42.86 3.82977 41.84C6.17977 39.7 9.65977 36.6 9.65977 33.17V2.51C10.2698 2.17 10.8898 1.87 11.5398 1.59C11.3898 2.41 11.3098 3.26 11.3098 4.12C11.3098 11.47 16.7598 17.53 23.8498 18.5V22.86C23.8498 23.72 24.5498 24.42 25.4098 24.42H26.2898C27.1598 24.42 27.8598 23.72 27.8598 22.86V18.5C34.9398 17.53 40.3998 11.47 40.3998 4.12C40.3998 3.71 40.3798 3.3 40.3498 2.9C40.9498 3.26 41.5198 3.66 42.0598 4.08V33.17C42.0598 38.16 45.1598 42.42 49.5498 44.11C49.5898 44.13 49.6398 44.15 49.6898 44.17Z" fill="#8FDE5D"/>
<path d="M40.3996 4.12001C40.3996 11.47 34.9396 17.53 27.8596 18.5V22.86C27.8596 23.72 27.1596 24.42 26.2896 24.42H25.4096C24.5496 24.42 23.8496 23.72 23.8496 22.86V18.5C16.7596 17.53 11.3096 11.47 11.3096 4.12001C11.3096 3.26001 11.3896 2.41001 11.5396 1.59001C12.9896 0.990007 14.5296 0.550007 16.1396 0.320007C15.9096 0.810007 15.0796 2.72001 15.3296 4.80001C15.3296 10.62 20.0396 16.33 25.8596 16.33C31.6696 16.33 36.9796 10.62 36.9796 4.80001C36.9796 3.52001 36.9196 2.28001 36.5696 1.14001C37.8996 1.59001 39.1696 2.18001 40.3496 2.90001C40.3796 3.30001 40.3996 3.71001 40.3996 4.12001Z" fill="#F7F7F7"/>
<path d="M11.7795 88.26V147.67H9.01953V88.26C9.01953 87.5 9.63953 86.88 10.3995 86.88C11.1595 86.88 11.7795 87.5 11.7795 88.26Z" fill="#1C9D86"/>
<path d="M19.4997 88.26V147.67H16.7397V88.26C16.7397 87.5 17.3597 86.88 18.1197 86.88C18.8897 86.88 19.4997 87.5 19.4997 88.26Z" fill="#1C9D86"/>
<path d="M27.2297 88.26V147.67H24.4697V88.26C24.4697 87.5 25.0897 86.88 25.8497 86.88C26.6097 86.88 27.2297 87.5 27.2297 88.26Z" fill="#1C9D86"/>
<path d="M34.9597 88.26V147.67H32.1997V88.26C32.1997 87.5 32.8197 86.88 33.5797 86.88C34.3397 86.88 34.9597 87.5 34.9597 88.26Z" fill="#1C9D86"/>
<path d="M42.6799 88.26V147.67H39.9199V88.26C39.9199 87.5 40.5399 86.88 41.2999 86.88C42.0699 86.88 42.6799 87.5 42.6799 88.26Z" fill="#1C9D86"/>
<path d="M3.82977 41.84V147.67H0.00976562V44.19C1.43977 43.65 2.72977 42.86 3.82977 41.84Z" fill="#1C9D86"/>
</g>
<defs>
<clipPath id="clip0_301_6469">
<rect width="49.68" height="147.36" fill="white" transform="translate(0.00976562 0.320007)"/>
</clipPath>
</defs>
</svg>
