<svg width="82" height="200" viewBox="0 0 82 200" fill="none" xmlns="http://www.w3.org/2000/svg">
<g clip-path="url(#clip0_301_15341)">
<path d="M81.9899 62.595H67.6899C67.6899 62.595 63.0199 47.275 59.6899 40.695V127.455H11.0099V61.465L2.66992 53.565C2.66992 53.565 6.06992 52.035 6.06992 35.355C6.06992 18.675 6.06992 13.225 6.06992 13.225C6.06992 13.225 6.65992 5.54503 14.6199 2.70503C16.4299 2.05503 20.3899 0.905029 22.7799 0.905029C22.7799 0.905029 29.5599 12.885 35.3499 15.785C35.3499 15.785 45.7699 9.24503 48.1599 0.905029C48.1599 0.905029 58.1599 1.22503 63.0899 10.805C68.0299 20.375 77.2199 39.785 81.9899 62.595Z" fill="#FF9166"/>
<path d="M44.2104 23.275C43.9204 20.985 39.1504 18.675 37.0204 17.755C36.6804 17.605 36.3204 17.535 35.9504 17.535C35.5704 17.535 35.2004 17.615 34.8604 17.765C32.8104 18.695 28.2904 20.985 28.0004 23.265C27.8104 24.715 28.3904 25.925 29.5504 26.505C30.0304 26.745 30.5604 26.865 31.1104 26.865C32.1004 26.865 33.1604 26.475 34.1104 25.765C33.8604 26.935 33.7104 28.245 33.7904 29.585L34.7904 29.525C34.6304 26.885 35.4704 24.345 36.0704 22.895C36.5404 24.945 37.2704 29.305 36.8604 35.265L37.8604 35.335C38.1504 31.115 37.8904 27.715 37.5404 25.305C38.6104 26.315 39.9104 26.855 41.1104 26.855C41.6604 26.855 42.2004 26.735 42.6704 26.495C43.8204 25.935 44.4004 24.725 44.2104 23.275ZM30.0104 25.625C29.2204 25.225 28.8704 24.435 29.0004 23.395C29.1804 22.015 32.2604 20.055 35.2404 18.695C35.3704 20.035 35.4904 23.175 34.0304 24.565C32.5604 25.965 30.9504 26.105 30.0104 25.625ZM42.2104 25.625C41.2604 26.105 39.6504 25.965 38.1904 24.565C36.7304 23.175 36.6604 20.075 36.7104 18.705C39.8304 20.055 43.0504 22.025 43.2204 23.395C43.3604 24.445 43.0004 25.235 42.2104 25.625Z" fill="#EB564B"/>
<path d="M43.7602 85.725H22.9402C19.4602 85.725 16.6302 82.905 16.6302 79.415L14.6202 2.70502C6.66016 5.54502 4.06016 13.225 4.06016 13.225C4.06016 13.225 4.06016 18.675 4.06016 35.355C4.06016 52.035 0.660156 53.565 0.660156 53.565L11.0102 61.465V127.455H16.6302V94.325C16.6302 90.845 19.4502 88.015 22.9402 88.015H43.7602C44.3902 88.015 44.9102 87.505 44.9102 86.865C44.9002 86.235 44.3902 85.725 43.7602 85.725Z" fill="#EB564B"/>
<path d="M22.7801 117.945C19.9701 119.465 18.0601 122.435 18.0601 125.855V199.095H22.7801V117.945Z" fill="#EB564B"/>
<path d="M64.6 125.855V199.095L22.79 199.085V117.945C24.06 117.255 25.51 116.865 27.05 116.865H55.61C60.57 116.865 64.6 120.895 64.6 125.855Z" fill="#FF9166"/>
<path d="M29.2399 167.115V199.095H26.6899V167.115C26.6899 166.415 27.2599 165.845 27.9599 165.845C28.6699 165.845 29.2399 166.415 29.2399 167.115Z" fill="#EB564B"/>
<path d="M36.3898 167.115V199.095H33.8398V167.115C33.8398 166.415 34.4098 165.845 35.1098 165.845C35.8198 165.845 36.3898 166.415 36.3898 167.115Z" fill="#EB564B"/>
<path d="M43.5397 167.115V199.095H40.9897V167.115C40.9897 166.415 41.5597 165.845 42.2597 165.845C42.9697 165.845 43.5397 166.415 43.5397 167.115Z" fill="#EB564B"/>
<path d="M50.6901 167.115V199.095H48.1401V167.115C48.1401 166.415 48.7101 165.845 49.4101 165.845C50.1201 165.845 50.6901 166.415 50.6901 167.115Z" fill="#EB564B"/>
<path d="M57.84 167.115V199.095H55.29V167.115C55.29 166.415 55.86 165.845 56.56 165.845C57.27 165.845 57.84 166.415 57.84 167.115Z" fill="#EB564B"/>
</g>
<defs>
<clipPath id="clip0_301_15341">
<rect width="81.33" height="198.19" fill="white" transform="translate(0.660156 0.905029)"/>
</clipPath>
</defs>
</svg>
