<svg width="119" height="130" viewBox="0 0 119 130" fill="none" xmlns="http://www.w3.org/2000/svg">
<g clip-path="url(#clip0_301_14784)">
<path d="M41.49 10.53C41.49 10.53 34.87 14.05 34.87 23.2L34.78 48.03C34.76 53.34 33.43 62.65 24.68 62.42C14.56 62.15 15.22 47.34 15.22 46.22C15.22 45.32 15.23 38.79 15.23 38.79H0.920027C0.920027 38.79 0.870027 45.24 0.860027 46.33C0.800027 52.53 1.90003 73.52 19.23 77.05C30.41 79.33 38.13 74.62 39.11 73.8L41.49 10.53Z" fill="#962C2E"/>
<path d="M57.0101 16.35L57.2801 4.73999C54.1601 4.73999 49.5201 5.85999 45.6301 7.91999C42.3401 9.65999 40.1701 11.47 40.1701 11.47L39.1201 73.79V73.8V95.74V119.57H40.2701H57.0101V16.35Z" fill="#B32D3E"/>
<path d="M56.4199 129.68V27.38H58.1199V126.46L56.4199 129.68Z" fill="#F9364D"/>
<path d="M56.1499 129.69V27.38H57.8599V126.46L56.1499 129.69Z" fill="#F9364D"/>
<path d="M59.3301 122.25V126.84C59.3301 128.4 58.7901 129.68 58.1201 129.68H39.0901C38.4301 129.68 37.8901 128.4 37.8901 126.84V122.25C37.8901 120.69 38.4301 119.41 39.0901 119.41H58.1201C58.7901 119.42 59.3301 120.7 59.3301 122.25Z" fill="#B9B0B1"/>
<path d="M58.1503 0.309998V29.54H54.3503C51.9503 29.54 50.0103 27.6 50.0103 25.2V9.31C50.0103 6.33 51.6903 3.59 54.3503 2.24L58.1503 0.309998Z" fill="#FDF6F8"/>
<path d="M118.72 116.02H104.7C104.7 116.02 100.95 74.29 96.2003 58.66C95.6903 57 95.1904 55.63 94.7304 54.64V120.77L75.3604 120.66L76.2104 4.73999C76.2104 4.73999 82.9403 5.16999 90.7003 9.77999C91.7503 10.4 92.8403 11.17 93.9503 12.13C94.4903 12.56 95.0304 13.07 95.5804 13.61C99.3604 17.36 103.22 23.23 106.3 32.34C106.3 32.34 117.46 68.73 118.72 116.02Z" fill="#F9364D"/>
<path d="M76.21 129.68L74.5 126.12V27.38H76.21V129.68Z" fill="#962C2E"/>
<path d="M95.9302 122.25V126.84C95.9302 128.4 95.4502 129.68 94.8602 129.68H75.0002C74.4102 129.68 73.9302 128.4 73.9302 126.84V122.25C73.9302 120.69 74.4102 119.41 75.0002 119.41H94.8602C95.4402 119.42 95.9302 120.7 95.9302 122.25Z" fill="#FDF6F8"/>
<path d="M82.7502 119.42V129.68H75.0502C74.4302 129.68 73.9302 128.4 73.9302 126.84V122.25C73.9302 120.69 74.4302 119.41 75.0502 119.41H82.7502V119.42Z" fill="#B9B0B1"/>
<path d="M96.2001 58.66L94.7302 54.64L94.1902 28.48L82.4102 18.19V16.08L94.1602 26.32L93.9501 12.12C94.4901 12.55 95.0302 13.06 95.5802 13.6L96.2001 58.66Z" fill="#962C2E"/>
<path d="M82.4103 25.2C82.4103 27.59 80.4603 29.54 78.0703 29.54H74.2603V0.309998L78.0703 2.24C80.7303 3.6 82.4103 6.32 82.4103 9.31V25.2Z" fill="#FDF6F8"/>
<path d="M80.2501 48.43C81.4485 48.43 82.4201 47.4584 82.4201 46.26C82.4201 45.0615 81.4485 44.09 80.2501 44.09C79.0516 44.09 78.0801 45.0615 78.0801 46.26C78.0801 47.4584 79.0516 48.43 80.2501 48.43Z" fill="#B32D3E"/>
<path d="M80.2501 64.92C81.4485 64.92 82.4201 63.9485 82.4201 62.75C82.4201 61.5516 81.4485 60.58 80.2501 60.58C79.0516 60.58 78.0801 61.5516 78.0801 62.75C78.0801 63.9485 79.0516 64.92 80.2501 64.92Z" fill="#B32D3E"/>
<path d="M80.2501 81.42C81.4485 81.42 82.4201 80.4485 82.4201 79.25C82.4201 78.0516 81.4485 77.08 80.2501 77.08C79.0516 77.08 78.0801 78.0516 78.0801 79.25C78.0801 80.4485 79.0516 81.42 80.2501 81.42Z" fill="#B32D3E"/>
<path d="M53.8401 91.58L39.1201 105.43V98.31L50.2601 88.02C50.5801 87.7 51.1101 87.7 51.4201 88.02L53.8401 90.44C54.1601 90.75 54.1601 91.27 53.8401 91.58Z" fill="#F9364D"/>
<path d="M94.73 98.47V105.6L80.24 91.59C79.92 91.28 79.92 90.75 80.24 90.45L82.66 88.03C82.97 87.71 83.5 87.71 83.82 88.03L94.73 98.47Z" fill="#B32D3E"/>
</g>
<defs>
<clipPath id="clip0_301_14784">
<rect width="117.86" height="129.38" fill="white" transform="translate(0.859863 0.309998)"/>
</clipPath>
</defs>
</svg>
