<svg width="92" height="100" viewBox="0 0 92 100" fill="none" xmlns="http://www.w3.org/2000/svg">
<g clip-path="url(#clip0_301_5961)">
<path d="M28.8901 10.95C28.8901 10.95 22.2701 15.64 22.2701 23.65L22.2001 51.25C22.1801 55.65 19.6901 64.41 13.2201 64.41C8.45012 64.41 7.56012 62.88 7.56012 62.88L0.620117 72.99C0.620117 72.99 16.3201 84.22 26.9001 69.99L28.8901 10.95Z" fill="#962C2E"/>
<path d="M42.26 13.46L42.49 3.84003C31.56 6.45003 25.71 14.13 25.71 14.13L25.9 93.47H42.27V13.46H42.26Z" fill="#B32D3E"/>
<path d="M43.2402 3.84003H41.7402V93.47H43.2402V3.84003Z" fill="#F9364D"/>
<path d="M91.77 79.87H80.15C80.15 79.87 80.13 63.39 78.25 53.72C77.98 52.31 77.42 45.42 77.03 44.6V96.06L60.98 95.97L61.68 3.25C61.68 3.25 67.26 3.61 73.68 7.43C74.55 7.95 75.45 8.58 76.38 9.37C76.83 9.73 77.28 10.15 77.73 10.6C80.86 13.71 84.06 18.57 86.61 26.12C86.61 26.12 90.72 40.68 91.77 79.87Z" fill="#F9364D"/>
<path d="M61.69 3.25H60.27V96.02H61.69V3.25Z" fill="#962C2E"/>
<path d="M78.2502 53.72L77.0302 50.39L76.5802 22.93L61.6802 11.13V9.37L76.5502 21.14L76.3802 9.37C76.8302 9.73 77.2802 10.15 77.7302 10.6L78.2502 53.72Z" fill="#962C2E"/>
<path d="M65.0302 48.48C66.0188 48.48 66.8202 47.6786 66.8202 46.69C66.8202 45.7014 66.0188 44.9 65.0302 44.9C64.0416 44.9 63.2402 45.7014 63.2402 46.69C63.2402 47.6786 64.0416 48.48 65.0302 48.48Z" fill="#B32D3E"/>
<path d="M65.0302 35.11C66.0188 35.11 66.8202 34.3086 66.8202 33.32C66.8202 32.3314 66.0188 31.53 65.0302 31.53C64.0416 31.53 63.2402 32.3314 63.2402 33.32C63.2402 34.3086 64.0416 35.11 65.0302 35.11Z" fill="#B32D3E"/>
<path d="M65.0302 62.87C66.0188 62.87 66.8202 62.0686 66.8202 61.08C66.8202 60.0914 66.0188 59.29 65.0302 59.29C64.0416 59.29 63.2402 60.0914 63.2402 61.08C63.2402 62.0686 64.0416 62.87 65.0302 62.87Z" fill="#B32D3E"/>
<path d="M38.0501 72.07L25.8501 83.55V77.64L35.0901 69.12C35.3601 68.85 35.7901 68.85 36.0501 69.12L38.0501 71.12C38.3201 71.38 38.3201 71.82 38.0501 72.07Z" fill="#F9364D"/>
<path d="M77.0299 77.71V83.61L65.0199 72.01C64.7499 71.75 64.7499 71.32 65.0199 71.06L67.0199 69.06C67.2799 68.79 67.7099 68.79 67.9799 69.06L77.0299 77.71Z" fill="#B32D3E"/>
<path d="M44.7503 93.01V96.81C44.7503 98.1 44.2503 99.16 43.6403 99.16H26.1703C25.5603 99.16 25.0703 98.1 25.0703 96.81V93.01C25.0703 91.72 25.5603 90.66 26.1703 90.66H43.6403C44.2503 90.66 44.7503 91.71 44.7503 93.01Z" fill="#B9B0B1"/>
<path d="M78.25 93.01V96.81C78.25 98.1 77.85 99.16 77.36 99.16H60.9C60.41 99.16 60.02 98.1 60.02 96.81V93.01C60.02 91.72 60.42 90.66 60.9 90.66H77.35C77.84 90.66 78.25 91.71 78.25 93.01Z" fill="#FDF6F8"/>
<path d="M67.3201 90.66V99.16H60.0201C59.5101 99.16 59.1001 98.1 59.1001 96.81V93.01C59.1001 91.72 59.5101 90.66 60.0201 90.66H67.3201Z" fill="#B9B0B1"/>
<path d="M44.1703 1.19V28.32H40.6404C38.4104 28.32 36.6104 26.52 36.6104 24.29V9.54C36.6104 6.77 38.1704 4.23 40.6404 2.98L44.1703 1.19Z" fill="#FDF6F8"/>
<path d="M67.7599 23.94C67.7599 26.16 65.9499 27.97 63.7299 27.97H60.1899V0.840027L63.7299 2.63003C66.1999 3.89003 67.7599 6.42003 67.7599 9.19003V23.94Z" fill="#FDF6F8"/>
</g>
<defs>
<clipPath id="clip0_301_5961">
<rect width="91.15" height="98.32" fill="white" transform="translate(0.620117 0.840027)"/>
</clipPath>
</defs>
</svg>
