<svg width="118" height="130" viewBox="0 0 118 130" fill="none" xmlns="http://www.w3.org/2000/svg">
<g clip-path="url(#clip0_301_1770)">
<path d="M40.6302 9.83496C40.6302 9.83496 34.0102 13.355 34.0102 22.505L33.9202 47.335C33.9002 52.645 32.5702 61.955 23.8202 61.725C13.7002 61.455 14.3602 46.645 14.3602 45.525C14.3602 44.625 14.3702 38.095 14.3702 38.095H0.0601635C0.0601635 38.095 0.0101635 44.545 0.000163481 45.635C-0.0598365 51.835 1.04016 72.825 18.3702 76.355C29.5502 78.635 37.2702 73.925 38.2502 73.105L40.6302 9.83496Z" fill="#272736"/>
<path d="M56.15 15.645L56.42 4.03497C53.3 4.03497 48.06 5.08497 44.17 7.14497C40.87 8.88497 39.3 10.765 39.3 10.765L38.25 73.085V73.095V95.035V128.975H56.14V15.645H56.15Z" fill="#606070"/>
<path d="M57.2701 4.03497H55.5601V128.975H57.2701V4.03497Z" fill="#272736"/>
<path d="M117.86 115.315H103.84C103.84 115.315 100.09 73.585 95.34 57.955C94.83 56.295 94.33 54.925 93.87 53.935V129.035L74.5 128.925L75.35 4.03497C75.35 4.03497 82.08 4.46497 89.84 9.07497C90.89 9.69497 91.98 10.465 93.09 11.425C93.63 11.855 94.17 12.365 94.72 12.905C98.5 16.655 102.36 22.525 105.44 31.635C105.44 31.635 116.6 68.035 117.86 115.315Z" fill="#C2C2D1"/>
<path d="M75.3501 4.03497H73.6401V128.975H75.3501V4.03497Z" fill="#272736"/>
<path d="M95.3401 57.955L93.8701 53.935L93.3301 27.775L75.3501 13.525V11.415L93.2901 25.615L93.0801 11.415C93.6201 11.845 94.1601 12.355 94.7101 12.895L95.3401 57.955Z" fill="#272736"/>
<path d="M79.3902 44.3349C80.5887 44.3349 81.5602 43.3634 81.5602 42.1649C81.5602 40.9665 80.5887 39.9949 79.3902 39.9949C78.1918 39.9949 77.2202 40.9665 77.2202 42.1649C77.2202 43.3634 78.1918 44.3349 79.3902 44.3349Z" fill="#272736"/>
<path d="M79.3902 61.705C80.5887 61.705 81.5602 60.7334 81.5602 59.535C81.5602 58.3365 80.5887 57.365 79.3902 57.365C78.1918 57.365 77.2202 58.3365 77.2202 59.535C77.2202 60.7334 78.1918 61.705 79.3902 61.705Z" fill="#272736"/>
<path d="M79.3902 79.065C80.5887 79.065 81.5602 78.0934 81.5602 76.895C81.5602 75.6965 80.5887 74.725 79.3902 74.725C78.1918 74.725 77.2202 75.6965 77.2202 76.895C77.2202 78.0934 78.1918 79.065 79.3902 79.065Z" fill="#272736"/>
<path d="M79.3902 96.435C80.5887 96.435 81.5602 95.4634 81.5602 94.265C81.5602 93.0665 80.5887 92.095 79.3902 92.095C78.1918 92.095 77.2202 93.0665 77.2202 94.265C77.2202 95.4634 78.1918 96.435 79.3902 96.435Z" fill="#272736"/>
<path d="M57.5303 32.955C57.5203 34.795 55.6203 36.025 53.9403 35.275C48.0903 32.665 44.1903 25.575 45.0503 17.325C45.8003 10.125 49.7903 4.26497 54.9403 1.92497C56.2203 1.34497 57.6803 2.32497 57.6603 3.73497L57.5303 32.955Z" fill="#272736"/>
<path d="M72.9403 32.115C72.9103 33.955 74.7803 35.225 76.4703 34.515C82.3703 32.035 86.4303 25.025 85.7503 16.765C85.1703 9.54496 81.3003 3.60496 76.2103 1.15496C74.9403 0.544963 73.4603 1.49496 73.4503 2.90496L72.9403 32.115Z" fill="#43434F"/>
</g>
<defs>
<clipPath id="clip0_301_1770">
<rect width="117.86" height="128.07" fill="white" transform="translate(0 0.964966)"/>
</clipPath>
</defs>
</svg>
