<svg width="119" height="130" viewBox="0 0 119 130" fill="none" xmlns="http://www.w3.org/2000/svg">
<g clip-path="url(#clip0_301_1735)">
<path d="M41.1702 10.725C41.1702 10.725 34.5502 14.245 34.5502 23.395L34.4702 48.225C34.4502 53.535 33.1202 62.845 24.3702 62.615C14.2502 62.345 14.9102 47.535 14.9102 46.415C14.9102 45.515 14.9202 38.985 14.9202 38.985H0.600203C0.600203 38.985 0.550203 45.435 0.540203 46.525C0.480203 52.725 1.5802 73.715 18.9102 77.245C30.0902 79.525 37.8102 74.815 38.7902 73.995L41.1702 10.725Z" fill="#4850C6"/>
<path d="M56.69 16.535L56.95 4.92499C53.83 4.92499 49.19 6.04499 45.3 8.10499C42.01 9.84499 39.84 11.655 39.84 11.655L38.79 73.975V73.985V95.925V119.755H39.94H56.68V16.535H56.69Z" fill="#2F3A7C"/>
<path d="M55.6104 128.275V28.655H57.8304V127.735L55.6104 128.275Z" fill="#4850C6"/>
<path d="M59.0103 122.445V127.035C59.0103 128.595 58.4703 129.875 57.8003 129.875H38.7703C38.1103 129.875 37.5703 128.595 37.5703 127.035V122.445C37.5703 120.885 38.1103 119.605 38.7703 119.605H57.8003C58.4703 119.605 59.0103 120.885 59.0103 122.445Z" fill="#B9B0B1"/>
<path d="M57.8304 0.505005V29.725H54.0304C51.6304 29.725 49.6904 27.785 49.6904 25.385V9.505C49.6904 6.525 51.3704 3.785 54.0304 2.435L57.8304 0.505005Z" fill="#FDF6F8"/>
<path d="M118.401 116.205H104.381C104.381 116.205 100.631 74.475 95.8805 58.845C95.3705 57.185 94.8705 55.815 94.4105 54.825V120.955L75.0405 120.845L75.8905 4.92499C75.8905 4.92499 82.6205 5.35499 90.3805 9.96499C91.4305 10.585 92.5205 11.355 93.6305 12.315C94.1705 12.745 94.7105 13.255 95.2605 13.795C99.0405 17.545 102.901 23.415 105.981 32.525C105.981 32.525 117.141 68.925 118.401 116.205Z" fill="#4486F4"/>
<path d="M75.8902 129.875L74.1802 126.305V27.565H75.8902V129.875Z" fill="#2F3A7C"/>
<path d="M95.6104 122.445V127.035C95.6104 128.595 95.1304 129.875 94.5404 129.875H74.6804C74.0904 129.875 73.6104 128.595 73.6104 127.035V122.445C73.6104 120.885 74.0904 119.605 74.6804 119.605H94.5404C95.1204 119.605 95.6104 120.885 95.6104 122.445Z" fill="#FDF6F8"/>
<path d="M82.4304 119.605V129.865H74.7304C74.1104 129.865 73.6104 128.585 73.6104 127.025V122.435C73.6104 120.875 74.1104 119.595 74.7304 119.595H82.4304V119.605Z" fill="#B9B0B1"/>
<path d="M81.2701 53.435H75.8901V37.955H81.2701C82.0501 37.955 82.6801 38.585 82.6801 39.365V52.025C82.6801 52.805 82.0501 53.435 81.2701 53.435Z" fill="#2F3A7C"/>
<path d="M95.8803 58.845L94.4103 54.825L93.8703 28.665L82.0903 18.375V16.265L93.8403 26.515L93.6303 12.315C94.1703 12.745 94.7103 13.255 95.2603 13.795L95.8803 58.845Z" fill="#2F3A7C"/>
<path d="M82.0904 25.015C82.0904 27.405 80.1404 29.355 77.7504 29.355H73.9404V0.125L77.7504 2.055C80.4104 3.415 82.0904 6.135 82.0904 9.125V25.015Z" fill="#FDF6F8"/>
</g>
<defs>
<clipPath id="clip0_301_1735">
<rect width="117.86" height="129.75" fill="white" transform="translate(0.540039 0.125)"/>
</clipPath>
</defs>
</svg>
