<svg width="94" height="98" viewBox="0 0 94 98" fill="none" xmlns="http://www.w3.org/2000/svg">
<g clip-path="url(#clip0_301_5937)">
<path d="M93.6198 81.5H82.0798C82.0798 81.5 82.0798 79.99 82.0198 77.6C81.9798 76.58 81.9398 75.4 81.8798 74.1C81.8198 72.84 81.7498 71.46 81.6598 70.03C81.5798 68.9 81.4898 67.72 81.3798 66.53C81.2598 65.18 81.1198 63.82 80.9498 62.46C80.8098 61.27 80.6398 60.1 80.4498 58.95C79.8898 55.45 79.1198 52.27 78.0898 50.04V92.7L32.0898 93.59V92.6H46.8098V39.24L55.9498 21.19L53.8998 18.77L60.6998 2.27002C60.6998 2.27002 65.7998 2.63002 72.1798 6.43002C73.7698 7.37002 75.4598 8.70002 77.1598 10.57C77.5498 11.01 77.9498 11.48 78.3398 11.98C80.7398 15.02 83.0698 19.22 85.0198 25.01C85.0198 25.01 89.6298 35.72 92.1498 58.95C92.2698 60.09 92.3898 61.26 92.4998 62.46C92.6198 63.78 92.7398 65.14 92.8398 66.53C92.9398 67.67 93.0198 68.84 93.0998 70.03C93.1798 71.35 93.2598 72.71 93.3298 74.1C93.3898 75.24 93.4498 76.41 93.4898 77.6C93.5398 78.88 93.5798 80.18 93.6198 81.5Z" fill="#E0DB99"/>
<path d="M32.9098 7.5L31.1398 68.59C27.7798 71.72 24.4798 73.69 21.3598 74.85C20.1898 75.28 19.0498 75.6 17.9398 75.82C16.8398 76.05 15.7698 76.17 14.7298 76.23C13.4398 76.29 12.2198 76.23 11.0598 76.09C9.74978 75.93 8.52979 75.66 7.40979 75.33C6.42979 75.05 5.52979 74.72 4.71979 74.37C1.76979 73.13 0.0297852 71.71 0.0297852 71.71L8.23979 62.74C8.23979 62.74 8.48979 62.86 8.92978 63.02C9.53978 63.24 10.5298 63.55 11.7098 63.73C12.0198 63.78 12.3398 63.82 12.6798 63.85C13.6398 63.93 14.6798 63.9 15.7198 63.67C16.2298 63.56 16.7498 63.4 17.2498 63.17C18.1598 62.77 19.0298 62.17 19.8098 61.31C21.4998 59.46 22.7598 56.4 23.0298 51.47L23.6298 21.5C23.6298 13.97 32.9098 7.5 32.9098 7.5Z" fill="#474322"/>
<path d="M53.9 18.78L48.04 11.85L46.09 2.28003C35.65 2.28003 27.52 12.46 27.52 12.46V92.6H46.81V39.25L55.95 21.19L53.9 18.78Z" fill="#7A7330"/>
<path d="M58.4597 24.14C52.7697 26.52 45.6897 22.66 42.5797 15.48C40.2997 10.22 40.7897 4.62001 43.4397 1.02001C44.0997 0.120006 45.4897 0.240006 46.0197 1.22001L58.4597 24.14Z" fill="#B7AFB0"/>
<path d="M63.6095 0.650015C62.8395 -0.139985 61.5095 0.110015 61.0795 1.12001L49.9295 26.83C49.9295 26.83 49.9195 26.85 49.9195 26.88L49.6195 27.5C44.3395 38.68 45.3995 51.63 45.3995 51.63C50.2995 50.79 55.9895 45.72 58.2295 37.43C59.0695 34.34 56.3595 32.1 53.6895 30.15C59.2395 28.61 64.7295 24.46 66.9895 17.42C69.2295 10.49 67.5695 4.68002 63.6095 0.650015Z" fill="#FCF4F6"/>
<path d="M49.9996 67.63C50.944 67.63 51.7096 66.8644 51.7096 65.92C51.7096 64.9756 50.944 64.21 49.9996 64.21C49.0551 64.21 48.2896 64.9756 48.2896 65.92C48.2896 66.8644 49.0551 67.63 49.9996 67.63Z" fill="#353C59"/>
<path d="M49.9996 76.83C50.944 76.83 51.7096 76.0644 51.7096 75.12C51.7096 74.1756 50.944 73.41 49.9996 73.41C49.0551 73.41 48.2896 74.1756 48.2896 75.12C48.2896 76.0644 49.0551 76.83 49.9996 76.83Z" fill="#353C59"/>
<path d="M49.9996 86.03C50.944 86.03 51.7096 85.2644 51.7096 84.32C51.7096 83.3756 50.944 82.61 49.9996 82.61C49.0551 82.61 48.2896 83.3756 48.2896 84.32C48.2896 85.2644 49.0551 86.03 49.9996 86.03Z" fill="#353C59"/>
<path d="M49.9996 58.42C50.944 58.42 51.7096 57.6544 51.7096 56.71C51.7096 55.7656 50.944 55 49.9996 55C49.0551 55 48.2896 55.7656 48.2896 56.71C48.2896 57.6544 49.0551 58.42 49.9996 58.42Z" fill="#353C59"/>
<path d="M79.2994 91.7V95.48C79.2994 96.76 78.2094 97.81 76.8894 97.81H31.0494C29.7294 97.81 28.6494 96.76 28.6494 95.48V91.7C28.6494 90.42 29.7194 89.37 31.0494 89.37H76.8894C78.2094 89.37 79.2994 90.42 79.2994 91.7Z" fill="#FDF6F8"/>
<path d="M46.8496 89.37V97.82H28.6696C27.3996 97.82 26.3696 96.77 26.3696 95.49V91.71C26.3696 90.43 27.3996 89.38 28.6696 89.38H46.8496V89.37Z" fill="#B9B0B1"/>
<path d="M92.4997 62.46H80.9497C80.8097 61.27 80.6397 60.1 80.4497 58.95H92.1497C92.2697 60.09 92.3897 61.26 92.4997 62.46Z" fill="#7A7330"/>
<path d="M93.0999 70.03H81.6599C81.5799 68.9 81.4899 67.72 81.3799 66.53H92.8399C92.9399 67.67 93.0199 68.84 93.0999 70.03Z" fill="#7A7330"/>
<path d="M93.4899 77.6H82.0199C81.9799 76.58 81.9399 75.4 81.8799 74.1H93.3299C93.3899 75.24 93.4499 76.41 93.4899 77.6Z" fill="#7A7330"/>
<path d="M11.7097 63.73L7.40973 75.33C6.42973 75.05 5.52973 74.72 4.71973 74.37L8.92973 63.02C9.53973 63.24 10.5297 63.55 11.7097 63.73Z" fill="#7A7330"/>
<path d="M15.7196 63.67L14.7296 76.23C13.4396 76.29 12.2196 76.23 11.0596 76.09L12.6796 63.85C13.6396 63.93 14.6796 63.9 15.7196 63.67Z" fill="#7A7330"/>
<path d="M21.3595 74.85C20.1895 75.28 19.0495 75.6 17.9395 75.82L17.2495 63.17C18.1595 62.77 19.0295 62.17 19.8095 61.31L21.3595 74.85Z" fill="#7A7330"/>
</g>
<defs>
<clipPath id="clip0_301_5937">
<rect width="93.59" height="97.64" fill="white" transform="translate(0.0297852 0.179993)"/>
</clipPath>
</defs>
</svg>
