<svg width="138" height="138" viewBox="0 0 138 138" fill="none" xmlns="http://www.w3.org/2000/svg">
<g clip-path="url(#clip0_301_9114)">
<path d="M49.4602 8.23999V20.66C49.4602 50.43 48.8002 63.77 43.8602 74.23C39.8602 82.69 33.2802 85.09 24.4902 85.09C3.7102 85.09 -0.309802 67.58 0.990198 47.27H18.0502C18.0502 52.44 16.5302 56.12 26.4102 56.12C35.4102 56.12 35.0702 40.49 35.7502 28.97C35.9402 25.76 36.8702 20.1 39.8602 16.44C43.0702 12.51 46.5902 9.88999 49.4602 8.23999Z" fill="#181C21"/>
<path d="M61.7804 4.72998L61.5004 17.59V137.75H42.5304V131.5C34.5604 124.88 30.8504 118.13 29.5304 112.01L29.5104 111.87L28.9204 106.43C28.9204 105.25 28.9904 104.11 29.1304 103.01C30.2104 94.19 35.2104 88.25 35.2004 88.73L35.5604 41.82C35.5604 38.61 35.1104 27.32 37.1404 21.6C38.7304 17.14 43.4504 12.66 43.6404 12.48V12.47C43.6404 12.47 46.5904 9.81998 49.2104 8.35998C55.8604 4.66998 58.4804 4.72998 61.7804 4.72998Z" fill="#252C35"/>
<path d="M62.6904 5.28998H60.8804V137.76H62.6904V5.28998Z" fill="#272F38"/>
<path d="M137.3 123.27C136.26 84.39 128.91 52.45 125.66 40.07C124.13 34.26 121.72 28.7 118.28 23.77C105.77 5.86998 88.1803 5.28998 88.1803 5.28998L87.2803 137.7L107.81 137.82V132.23C112.31 128.6 115.82 124.21 118.01 119.34C118.25 121.82 118.39 123.28 118.39 123.28H137.3V123.27Z" fill="#91969B"/>
<path d="M89.0903 5.28998H87.2803V137.76H89.0903V5.28998Z" fill="#272736"/>
<path d="M109.37 62.45V86.59C109.37 86.59 115.36 91.27 120.1 101.77L109.37 62.45Z" fill="#272736"/>
<path d="M110.67 59.87L109.2 55.85L108.66 29.69L90.6904 15.44V13.33L108.63 27.53L108.42 13.33C108.96 13.76 109.5 14.27 110.05 14.81L110.67 59.87Z" fill="#272736"/>
<path d="M63.2704 2.48997C63.1904 8.04997 63.0504 28.59 62.8604 41.74C62.8404 42.99 61.2704 43.62 60.2404 42.86L46.8404 29.89C45.9804 29.26 45.5304 28.22 45.6804 27.18L50.7304 9.62997C51.1904 6.39997 55.1104 3.10997 58.2004 1.88997L60.8204 0.849973C61.9904 0.389973 63.2804 1.24997 63.2704 2.48997Z" fill="#181C21"/>
<path d="M86.77 2.91C86.78 1.48 87.89 0.280002 89.32 0.200002C93.22 -0.0199978 99.92 3.91 100.7 7.11L105.67 21.31C106.13 22.64 105.92 24.1 105.09 25.23C102.02 29.4 93.94 38.44 89.64 43.19C88.65 44.28 86.84 43.58 86.84 42.11C86.8 32.35 86.71 8.31 86.77 2.91Z" fill="#181C21"/>
<path d="M47.1604 95.26L29.5104 111.87L28.9204 106.43C28.9204 105.25 28.9904 104.11 29.1304 103.01L42.5304 90.65C42.9504 90.23 43.6304 90.23 44.0304 90.65L47.1604 93.78C47.5804 94.18 47.5804 94.86 47.1604 95.26Z" fill="#91969B"/>
<path d="M101.29 95.26L120.36 113.21V103.97L105.92 90.65C105.5 90.23 104.82 90.23 104.42 90.65L101.29 93.78C100.88 94.18 100.88 94.86 101.29 95.26Z" fill="#252C35"/>
</g>
<defs>
<clipPath id="clip0_301_9114">
<rect width="136.53" height="137.62" fill="white" transform="translate(0.77002 0.190002)"/>
</clipPath>
</defs>
</svg>
