<svg width="119" height="122" viewBox="0 0 119 122" fill="none" xmlns="http://www.w3.org/2000/svg">
<g clip-path="url(#clip0_301_1834)">
<path d="M106.53 30.515C102 17.075 95.8198 10.525 90.5798 7.415C82.6398 2.695 76.2998 2.255 76.2998 2.255L67.8498 22.755L59.0298 48.205L64.2798 116.485L64.7098 121.435H94.6998V53.335C99.6598 64.015 104.57 115.775 104.57 115.775H118.92C117.62 67.375 106.53 30.515 106.53 30.515Z" fill="#FF9166"/>
<path d="M41.9898 8.19501C41.9898 8.19501 35.2198 11.795 35.2198 21.155L35.1298 46.575C35.1098 52.005 33.7398 61.675 24.7898 61.295C15.2198 60.895 15.3498 51.985 15.1498 48.005C15.0798 46.745 15.1198 39.775 15.1198 39.775H0.459785C0.459785 39.775 0.329785 44.815 0.449785 47.535C0.819785 55.835 3.49978 73.055 19.1998 76.255C30.6498 78.595 38.5398 73.765 39.5498 72.925L41.9898 8.19501Z" fill="#962C2E"/>
<path d="M60.5598 14.145L56.4498 2.255C53.2598 2.255 50.1898 3.395 46.2098 5.515C42.8498 7.30501 40.6198 9.14501 40.6198 9.14501L39.5498 72.925V72.935V95.395V121.435H60.4698L64.2798 116.485L60.2798 48.285L64.7098 33.795L60.5598 14.145Z" fill="#EB564B"/>
<path d="M65.1297 72.395C66.3116 72.395 67.2697 71.4369 67.2697 70.255C67.2697 69.0731 66.3116 68.115 65.1297 68.115C63.9479 68.115 62.9897 69.0731 62.9897 70.255C62.9897 71.4369 63.9479 72.395 65.1297 72.395Z" fill="#F5F4F0"/>
<path d="M67.2699 91.625C68.4518 91.625 69.4099 90.6669 69.4099 89.485C69.4099 88.3031 68.4518 87.345 67.2699 87.345C66.088 87.345 65.1299 88.3031 65.1299 89.485C65.1299 90.6669 66.088 91.625 67.2699 91.625Z" fill="#F5F4F0"/>
<path d="M68.5697 111.295C69.7516 111.295 70.7097 110.337 70.7097 109.155C70.7097 107.973 69.7516 107.015 68.5697 107.015C67.3878 107.015 66.4297 107.973 66.4297 109.155C66.4297 110.337 67.3878 111.295 68.5697 111.295Z" fill="#F5F4F0"/>
<path d="M74.0196 31.665C66.8296 34.675 57.8896 29.795 53.9596 20.725C51.0896 14.075 51.6996 7.015 55.0396 2.455C55.8696 1.315 57.6296 1.465 58.2996 2.705L74.0196 31.665Z" fill="#E8E8E8"/>
<path d="M76.8897 1.08501C75.8697 0.135007 74.2197 0.515007 73.7297 1.81501L59.5897 42.875C58.5797 45.805 58.2497 48.935 58.6397 52.015L60.4297 66.395C66.5697 65.075 69.6897 58.365 72.0797 47.795C72.9697 43.845 69.4297 41.165 65.9697 38.855C72.8897 36.615 79.5997 31.085 82.0797 22.075C84.5097 13.215 82.1097 5.96501 76.8897 1.08501Z" fill="#F5F4F0"/>
<path d="M95.5098 96.595V102.865C95.5098 103.465 94.7898 103.765 94.3598 103.355L78.1198 87.695C77.7498 87.345 77.7498 86.735 78.1198 86.385L80.8898 83.615C81.2398 83.245 81.8498 83.245 82.2198 83.615L95.2998 96.105C95.4398 96.235 95.5098 96.415 95.5098 96.595Z" fill="#EB564B"/>
<path d="M38.0996 96.595V102.865C38.0996 103.465 38.8196 103.765 39.2496 103.355L55.4996 87.685C55.8696 87.335 55.8696 86.725 55.4996 86.375L52.7296 83.605C52.3796 83.235 51.7696 83.235 51.3996 83.605L38.3096 96.105C38.1796 96.235 38.0996 96.415 38.0996 96.595Z" fill="#FF9166"/>
</g>
<defs>
<clipPath id="clip0_301_1834">
<rect width="118.52" height="120.89" fill="white" transform="translate(0.399902 0.554993)"/>
</clipPath>
</defs>
</svg>
