<svg width="119" height="122" viewBox="0 0 119 122" fill="none" xmlns="http://www.w3.org/2000/svg">
<g clip-path="url(#clip0_301_14754)">
<path d="M106.61 30.515C102.08 17.075 95.8999 10.525 90.6599 7.415C82.7199 2.695 76.3799 2.255 76.3799 2.255L67.9299 22.755L59.1099 48.205L64.3599 116.485L64.7899 121.435H94.7799V53.335C99.7399 64.015 104.65 115.775 104.65 115.775H119C117.7 67.375 106.61 30.515 106.61 30.515Z" fill="#FF9166"/>
<path d="M42.0699 8.19501C42.0699 8.19501 35.2999 11.795 35.2999 21.155L35.2099 46.575C35.1899 52.005 33.8199 61.675 24.8699 61.295C15.2999 60.895 15.4299 51.985 15.2299 48.005C15.1599 46.745 15.1999 39.775 15.1999 39.775H0.539863C0.539863 39.775 0.409863 44.815 0.529863 47.535C0.899863 55.835 3.57986 73.055 19.2799 76.255C30.7299 78.595 38.6199 73.765 39.6299 72.925L42.0699 8.19501Z" fill="#962C2E"/>
<path d="M60.6399 14.145L56.5299 2.255C53.3399 2.255 50.2699 3.395 46.2899 5.515C42.9299 7.30501 40.6999 9.14501 40.6999 9.14501L39.6299 72.925V72.935V95.395V121.435H60.5499L64.3599 116.485L60.3599 48.285L64.7899 33.795L60.6399 14.145Z" fill="#EB564B"/>
<path d="M65.2098 72.395C66.3917 72.395 67.3498 71.4369 67.3498 70.255C67.3498 69.0731 66.3917 68.115 65.2098 68.115C64.0279 68.115 63.0698 69.0731 63.0698 70.255C63.0698 71.4369 64.0279 72.395 65.2098 72.395Z" fill="#F5F4F0"/>
<path d="M67.35 91.625C68.5318 91.625 69.49 90.6669 69.49 89.485C69.49 88.3031 68.5318 87.345 67.35 87.345C66.1681 87.345 65.21 88.3031 65.21 89.485C65.21 90.6669 66.1681 91.625 67.35 91.625Z" fill="#F5F4F0"/>
<path d="M68.6498 111.295C69.8317 111.295 70.7898 110.337 70.7898 109.155C70.7898 107.973 69.8317 107.015 68.6498 107.015C67.4679 107.015 66.5098 107.973 66.5098 109.155C66.5098 110.337 67.4679 111.295 68.6498 111.295Z" fill="#F5F4F0"/>
<path d="M74.0996 31.665C66.9096 34.675 57.9696 29.795 54.0396 20.725C51.1696 14.075 51.7796 7.015 55.1196 2.455C55.9496 1.315 57.7096 1.465 58.3796 2.705L74.0996 31.665Z" fill="#E8E8E8"/>
<path d="M76.9698 1.08501C75.9498 0.135007 74.2998 0.515007 73.8098 1.81501L59.6698 42.875C58.6598 45.805 58.3298 48.935 58.7198 52.015L60.5098 66.395C66.6498 65.075 69.7698 58.365 72.1598 47.795C73.0498 43.845 69.5098 41.165 66.0498 38.855C72.9698 36.615 79.6798 31.085 82.1598 22.075C84.5898 13.215 82.1898 5.96501 76.9698 1.08501Z" fill="#F5F4F0"/>
<path d="M95.5899 96.595V102.865C95.5899 103.465 94.8699 103.765 94.4399 103.355L78.1999 87.695C77.8299 87.345 77.8299 86.735 78.1999 86.385L80.9699 83.615C81.3199 83.245 81.9299 83.245 82.2999 83.615L95.3799 96.105C95.5199 96.235 95.5899 96.415 95.5899 96.595Z" fill="#EB564B"/>
<path d="M38.1797 96.595V102.865C38.1797 103.465 38.8997 103.765 39.3297 103.355L55.5797 87.685C55.9497 87.335 55.9497 86.725 55.5797 86.375L52.8097 83.605C52.4597 83.235 51.8497 83.235 51.4797 83.605L38.3897 96.105C38.2597 96.235 38.1797 96.415 38.1797 96.595Z" fill="#FF9166"/>
</g>
<defs>
<clipPath id="clip0_301_14754">
<rect width="118.52" height="120.89" fill="white" transform="translate(0.47998 0.554993)"/>
</clipPath>
</defs>
</svg>
