<svg width="123" height="126" viewBox="0 0 123 126" fill="none" xmlns="http://www.w3.org/2000/svg">
<g clip-path="url(#clip0_301_11810)">
<path d="M43.3597 9.14001V31.45C43.3597 57.76 42.7697 69.55 38.4097 78.79C34.8797 86.27 29.0597 88.39 21.2997 88.39C2.92974 88.39 -0.61026 75.04 0.52974 57.09H16.3597C16.3597 61.66 17.0497 62.79 22.9897 62.79C30.9497 62.79 30.6397 37.64 31.2497 27.46C31.4197 24.63 32.2397 19.62 34.8797 16.39C37.7197 12.92 40.8297 10.6 43.3597 9.14001Z" fill="#4850C6"/>
<path d="M55.8199 4.71L55.5799 16.08V122.27H38.8099V116.75C31.7699 110.9 28.4899 104.93 27.3199 99.53L26.7799 94.6C26.7499 85.18 32.3399 78.48 32.3299 78.96L32.6499 37.51C32.6499 34.67 32.2499 24.7 34.0499 19.64C35.4599 15.7 39.6299 11.74 39.7899 11.58V11.57C39.7899 11.57 42.3999 9.23 44.7099 7.94C50.5899 4.66 52.9099 4.71 55.8199 4.71Z" fill="#2F3A7C"/>
<path d="M56.6298 5.20001H55.0298V122.26H56.6298V5.20001Z" fill="#4850C6"/>
<path d="M58.0097 121.74V122.56C58.0097 124.02 57.4997 125.22 56.8797 125.22H39.0497C38.4297 125.22 37.9297 124.02 37.9297 122.56V121.74C37.9297 120.28 38.4297 119.08 39.0497 119.08H56.8797C57.4997 119.08 58.0097 120.28 58.0097 121.74Z" fill="#B9B0B1"/>
<path d="M122.64 106.75C121.72 72.39 115.14 46.88 112.27 35.95C110.92 30.81 108.78 25.9 105.74 21.55C94.6999 5.72001 79.1499 5.20001 79.1499 5.20001L78.3599 122.21L96.5099 122.31V117.37C100.49 114.16 103.59 110.29 105.52 105.98C105.54 106.18 105.96 106.74 105.96 106.74H122.64V106.75Z" fill="#4486F4"/>
<path d="M79.1498 5.20001H77.5498V122.26H79.1498V5.20001Z" fill="#2F3A7C"/>
<path d="M97.8798 121.74V122.56C97.8798 124.02 97.4298 125.22 96.8798 125.22H78.2798C77.7298 125.22 77.2798 124.02 77.2798 122.56V121.74C77.2798 120.28 77.7298 119.08 78.2798 119.08H96.8798C97.4298 119.08 97.8798 120.28 97.8798 121.74Z" fill="#FDF6F8"/>
<path d="M85.5297 119.08V125.22H77.2697C76.6897 125.22 76.2197 124.02 76.2197 122.56V121.74C76.2197 120.28 76.6897 119.08 77.2697 119.08H85.5297Z" fill="#B9B0B1"/>
<path d="M97.8799 55.2401V76.5701C97.8799 76.5701 103.17 80.7101 107.36 89.9901L97.8799 55.2401Z" fill="#2F3A7C"/>
<path d="M58.3899 0.780029V32.98H54.1999C51.5599 32.98 49.4199 30.84 49.4199 28.2V10.7C49.4199 7.41003 51.2699 4.40003 54.1999 2.91003L58.3899 0.780029Z" fill="#FDF6F8"/>
<path d="M83.3599 10.7V28.19C83.3599 30.83 81.2099 32.98 78.5699 32.98H74.3799V0.780029L78.5799 2.91003C81.5099 4.40003 83.3599 7.42003 83.3599 10.7Z" fill="#FDF6F8"/>
<path d="M86.3699 61.2H78.9399V41.05H86.3699C87.1499 41.05 87.7799 41.68 87.7799 42.46V59.8C87.7799 60.57 87.1499 61.2 86.3699 61.2Z" fill="#2F3A7C"/>
<path d="M98.8897 13.41L99.3397 67.01L97.8697 62.99L97.4997 27.64L86.6597 19.05V16.93L97.4697 25.49L97.2797 12.09L98.8897 13.41Z" fill="#2F3A7C"/>
</g>
<defs>
<clipPath id="clip0_301_11810">
<rect width="122.3" height="124.44" fill="white" transform="translate(0.339844 0.780029)"/>
</clipPath>
</defs>
</svg>
