<svg width="123" height="126" viewBox="0 0 123 126" fill="none" xmlns="http://www.w3.org/2000/svg">
<g clip-path="url(#clip0_301_11754)">
<path d="M43.3197 9.14001V31.45C43.3197 57.76 42.7297 69.55 38.3697 78.79C34.8397 86.27 29.0197 88.39 21.2597 88.39C2.8897 88.39 -0.650299 75.04 0.489701 57.09H16.3197C16.3197 61.66 17.0097 62.79 22.9497 62.79C30.9097 62.79 30.5997 37.64 31.2097 27.46C31.3797 24.63 32.1997 19.62 34.8397 16.39C37.6797 12.92 40.7897 10.6 43.3197 9.14001Z" fill="#962C2E"/>
<path d="M55.7895 4.72001L55.5395 16.08V122.27H38.7795V116.75C31.8495 111 28.5595 105.13 27.3495 99.79C27.3295 99.7 27.3095 99.61 27.2895 99.52L26.7495 94.59V94.51C26.7495 93.92 26.7695 93.33 26.8195 92.76C27.4295 84.32 32.3095 78.5 32.2995 78.95L32.6195 37.5C32.6195 34.66 32.2195 24.68 34.0095 19.63C35.4195 15.69 39.5895 11.73 39.7595 11.57V11.56C39.7595 11.56 42.3595 9.22002 44.6795 7.93002C50.5595 4.67002 52.8695 4.72001 55.7895 4.72001Z" fill="#B32D3E"/>
<path d="M56.5897 5.20001H54.9897V122.26H56.5897V5.20001Z" fill="#F9364D"/>
<path d="M57.9696 121.74V122.56C57.9696 124.02 57.4597 125.22 56.8396 125.22H39.0096C38.3896 125.22 37.8896 124.02 37.8896 122.56V121.74C37.8896 120.28 38.3896 119.08 39.0096 119.08H56.8396C57.4597 119.08 57.9696 120.28 57.9696 121.74Z" fill="#B9B0B1"/>
<path d="M122.6 106.75C121.68 72.39 115.1 46.88 112.23 35.95C110.88 30.81 108.74 25.9 105.7 21.55C94.6598 5.72001 79.1098 5.20001 79.1098 5.20001L78.3198 122.21L96.4698 122.31V117.37C100.45 114.16 103.55 110.29 105.48 105.98C105.5 106.18 105.92 106.74 105.92 106.74H122.6V106.75Z" fill="#F9364D"/>
<path d="M79.1098 5.20001H77.5098V122.26H79.1098V5.20001Z" fill="#B32D3E"/>
<path d="M97.8397 121.74V122.56C97.8397 124.02 97.3897 125.22 96.8397 125.22H78.2397C77.6897 125.22 77.2397 124.02 77.2397 122.56V121.74C77.2397 120.28 77.6897 119.08 78.2397 119.08H96.8397C97.3897 119.08 97.8397 120.28 97.8397 121.74Z" fill="#FDF6F8"/>
<path d="M85.4897 119.08V125.22H77.2297C76.6497 125.22 76.1797 124.02 76.1797 122.56V121.74C76.1797 120.28 76.6497 119.08 77.2297 119.08H85.4897Z" fill="#B9B0B1"/>
<path d="M97.8398 55.2401V76.5701C97.8398 76.5701 103.13 80.7101 107.32 89.9901L97.8398 55.2401Z" fill="#B32D3E"/>
<path d="M58.3499 0.780029V32.98H54.1599C51.5199 32.98 49.3799 30.84 49.3799 28.2V10.7C49.3799 7.41003 51.2299 4.40003 54.1599 2.91003L58.3499 0.780029Z" fill="#FDF6F8"/>
<path d="M83.3198 10.7V28.19C83.3198 30.83 81.1698 32.98 78.5298 32.98H74.3398V0.780029L78.5398 2.91003C81.4698 4.40003 83.3198 7.42003 83.3198 10.7Z" fill="#FDF6F8"/>
<path d="M83.3195 68.61C84.5898 68.61 85.6195 67.5803 85.6195 66.31C85.6195 65.0398 84.5898 64.01 83.3195 64.01C82.0493 64.01 81.0195 65.0398 81.0195 66.31C81.0195 67.5803 82.0493 68.61 83.3195 68.61Z" fill="#B32D3E"/>
<path d="M83.3195 51.5C84.5898 51.5 85.6195 50.4703 85.6195 49.2C85.6195 47.9298 84.5898 46.9 83.3195 46.9C82.0493 46.9 81.0195 47.9298 81.0195 49.2C81.0195 50.4703 82.0493 51.5 83.3195 51.5Z" fill="#B32D3E"/>
<path d="M83.3195 87.02C84.5898 87.02 85.6195 85.9903 85.6195 84.72C85.6195 83.4498 84.5898 82.42 83.3195 82.42C82.0493 82.42 81.0195 83.4498 81.0195 84.72C81.0195 85.9903 82.0493 87.02 83.3195 87.02Z" fill="#B32D3E"/>
<path d="M107.189 92.82V100.38L91.8195 85.52C91.4795 85.19 91.4795 84.63 91.8195 84.31L94.3895 81.74C94.7195 81.4 95.2795 81.4 95.6195 81.74L107.189 92.82Z" fill="#F9364D"/>
<path d="M42.1095 85.52L27.3495 99.79C27.3295 99.7 27.3095 99.61 27.2895 99.52L26.7495 94.59V92.82L26.8195 92.7601L38.3195 81.74C38.6595 81.4 39.2195 81.4 39.5495 81.74L42.1095 84.31C42.4495 84.63 42.4495 85.19 42.1095 85.52Z" fill="#B32D3E"/>
</g>
<defs>
<clipPath id="clip0_301_11754">
<rect width="122.3" height="124.44" fill="white" transform="translate(0.299805 0.780029)"/>
</clipPath>
</defs>
</svg>
