<svg width="124" height="116" viewBox="0 0 124 116" fill="none" xmlns="http://www.w3.org/2000/svg">
<g clip-path="url(#clip0_301_11893)">
<path d="M123.14 103.165H107.29C107.29 103.165 107.17 101.945 106.97 99.865C105.14 103.955 102.2 107.625 98.4301 110.665V115.345L62.4901 115.245L61.6201 57.545L63.0401 35.345L77.8401 4.30503C77.8401 4.30503 87.5401 3.68503 95.6001 11.745C110.04 26.185 122.26 70.585 123.14 103.165Z" fill="#FF9166"/>
<path d="M66.8302 69.865C67.8905 69.865 68.7502 69.0054 68.7502 67.945C68.7502 66.8846 67.8905 66.025 66.8302 66.025C65.7698 66.025 64.9102 66.8846 64.9102 67.945C64.9102 69.0054 65.7698 69.865 66.8302 69.865Z" fill="#F5F4F0"/>
<path d="M66.8302 85.295C67.8905 85.295 68.7502 84.4354 68.7502 83.375C68.7502 82.3146 67.8905 81.455 66.8302 81.455C65.7698 81.455 64.9102 82.3146 64.9102 83.375C64.9102 84.4354 65.7698 85.295 66.8302 85.295Z" fill="#F5F4F0"/>
<path d="M66.8302 101.375C67.8905 101.375 68.7502 100.515 68.7502 99.455C68.7502 98.3946 67.8905 97.535 66.8302 97.535C65.7698 97.535 64.9102 98.3946 64.9102 99.455C64.9102 100.515 65.7698 101.375 66.8302 101.375Z" fill="#F5F4F0"/>
<path d="M104.59 85.155V91.485L91.7199 79.035C91.4299 78.765 91.4299 78.295 91.7199 78.015L93.8699 75.865C94.1399 75.575 94.6099 75.575 94.8999 75.865L104.59 85.155Z" fill="#EB564B"/>
<path d="M95.6001 52.205V72.435C95.6001 72.435 100.62 76.355 104.59 85.155L95.6001 52.205Z" fill="#EB564B"/>
<path d="M42.4301 18.265L42.4201 36.775C42.4201 61.725 42.8601 65.275 38.7201 74.045C35.3701 81.135 31.4101 85.615 21.5801 85.265C4.18014 84.645 -0.18986 75.505 0.89014 58.485L16.8001 58.575C16.8001 63.275 30.9201 72.655 30.9201 43.755C30.9201 41.065 31.8701 28.225 34.3701 25.155C37.0701 21.845 40.0201 19.645 42.4301 18.265Z" fill="#962C2E"/>
<path d="M62.33 55.685L62.59 109.315L58.19 115.345H37.13V110.105C30.45 104.555 27.34 98.905 26.24 93.775L26.17 93.195L25.73 89.095C25.73 88.865 25.73 88.625 25.75 88.395C25.98 79.835 31 73.815 31 74.255L31.3 34.945C31.3 32.255 32.14 17.565 43.57 8.69499C48.6 4.78499 52.8 3.86499 55.57 3.86499L54.55 14.645L64.75 29.925L62.33 55.685Z" fill="#EB564B"/>
<path d="M40.97 80.685L40.14 81.465L26.17 93.205L25.73 89.105C25.73 88.875 25.73 88.635 25.75 88.405C28.5 85.705 37.81 77.515 37.81 77.515C38.1 77.235 38.57 77.235 38.84 77.515L40.99 79.665C41.26 79.945 41.26 80.405 40.97 80.685Z" fill="#FF9166"/>
<path d="M72.5602 29.725C65.7902 32.155 57.7702 27.245 54.5802 18.695C52.2402 12.435 53.1402 5.94503 56.4302 1.89503C57.2502 0.885028 58.8602 1.10503 59.4202 2.27503L72.5602 29.725Z" fill="#B7AFB0"/>
<path d="M78.9999 1.13501C78.0599 0.255014 76.5299 0.605014 76.0799 1.80501L66.7799 20.595C64.9699 24.245 64.2799 28.305 64.3399 32.375L64.0199 33.115C60.6999 46.385 61.6899 61.785 61.6899 61.785C67.3599 60.565 72.5999 54.955 74.3499 45.125C74.9999 41.445 72.1099 38.135 68.9099 36.005C75.2999 33.935 81.4999 28.825 83.7899 20.505C86.0299 12.335 83.8199 5.64501 78.9999 1.13501Z" fill="#FCF4F6"/>
</g>
<defs>
<clipPath id="clip0_301_11893">
<rect width="122.4" height="114.71" fill="white" transform="translate(0.740234 0.64502)"/>
</clipPath>
</defs>
</svg>
