<svg width="92" height="100" viewBox="0 0 92 100" fill="none" xmlns="http://www.w3.org/2000/svg">
<g clip-path="url(#clip0_301_5900)">
<path d="M29 11.64C29 11.64 22.38 16.33 22.38 24.34L22.31 51.94C22.29 56.34 19.8 65.1 13.33 65.1C8.55998 65.1 7.66998 63.57 7.66998 63.57L0.72998 73.69C0.72998 73.69 16.43 84.92 27.01 70.69L29 11.64Z" fill="#4850C6"/>
<path d="M42.3698 14.16L42.5998 4.53998C31.6698 7.14998 25.8198 14.83 25.8198 14.83L26.0098 94.17H42.3798V14.16H42.3698Z" fill="#2F3A7C"/>
<path d="M43.3501 4.53998H41.8501V94.17H43.3501V4.53998Z" fill="#4850C6"/>
<path d="M91.8798 80.56H80.2598C80.2598 80.56 80.2398 64.08 78.3598 54.41C78.0898 53 77.5298 46.11 77.1398 45.29V96.75L61.0898 96.66L61.7898 3.94C61.7898 3.94 67.3698 4.3 73.7898 8.12C74.6598 8.64 75.5598 9.27 76.4898 10.06C76.9398 10.42 77.3898 10.84 77.8398 11.29C80.9698 14.4 84.1698 19.26 86.7198 26.81C86.7198 26.82 90.8298 41.38 91.8798 80.56Z" fill="#4486F4"/>
<path d="M61.7999 3.95001H60.3799V96.72H61.7999V3.95001Z" fill="#2F3A7C"/>
<path d="M78.36 54.41L77.14 51.08L76.69 23.62L61.79 11.82V10.07L76.66 21.84L76.49 10.07C76.94 10.43 77.39 10.85 77.84 11.3L78.36 54.41Z" fill="#2F3A7C"/>
<path d="M44.8602 93.7V97.5C44.8602 98.79 44.3602 99.85 43.7502 99.85H26.2802C25.6702 99.85 25.1802 98.79 25.1802 97.5V93.7C25.1802 92.41 25.6702 91.35 26.2802 91.35H43.7502C44.3602 91.35 44.8602 92.41 44.8602 93.7Z" fill="#B9B0B1"/>
<path d="M78.3599 93.7V97.5C78.3599 98.79 77.9599 99.85 77.4699 99.85H61.0099C60.5199 99.85 60.1299 98.79 60.1299 97.5V93.7C60.1299 92.41 60.5299 91.35 61.0099 91.35H77.4599C77.9499 91.35 78.3599 92.41 78.3599 93.7Z" fill="#FDF6F8"/>
<path d="M67.43 91.35V99.85H60.13C59.62 99.85 59.21 98.79 59.21 97.5V93.7C59.21 92.41 59.62 91.35 60.13 91.35H67.43Z" fill="#B9B0B1"/>
<path d="M44.1601 0.48999V27.62H40.6301C38.4001 27.62 36.6001 25.82 36.6001 23.59V8.83999C36.6001 6.06999 38.1601 3.52999 40.6301 2.27999L44.1601 0.48999Z" fill="#FDF6F8"/>
<path d="M67.7502 23.24C67.7502 25.46 65.9402 27.27 63.7202 27.27H60.1802V0.140015L63.7202 1.93001C66.1902 3.19001 67.7502 5.72002 67.7502 8.49002V23.24Z" fill="#FDF6F8"/>
<path d="M65.76 50.9H61.79V38.65H65.76C66.54 38.65 67.17 39.28 67.17 40.06V49.5C67.17 50.27 66.54 50.9 65.76 50.9Z" fill="#2F3A7C"/>
</g>
<defs>
<clipPath id="clip0_301_5900">
<rect width="91.15" height="99.72" fill="white" transform="translate(0.72998 0.140015)"/>
</clipPath>
</defs>
</svg>
