<svg width="118" height="128" viewBox="0 0 118 128" fill="none" xmlns="http://www.w3.org/2000/svg">
<g clip-path="url(#clip0_301_14769)">
<path d="M40.6302 9.72992C40.6302 9.72992 34.0102 13.2499 34.0102 22.3999L33.9202 47.2299C33.9002 52.5399 32.5702 61.8499 23.8202 61.6199C13.7002 61.3499 14.3602 46.5399 14.3602 45.4199C14.3602 44.5199 14.3702 37.9899 14.3702 37.9899H0.0601635C0.0601635 37.9899 0.0101635 44.4399 0.000163481 45.5299C-0.0598365 51.7299 1.04016 72.7199 18.3702 76.2499C29.5502 78.5299 37.2702 73.8199 38.2502 72.9999L40.6302 9.72992Z" fill="#181C21"/>
<path d="M56.15 15.5399L56.42 3.92993C53.3 3.92993 48.66 5.04993 44.77 7.10993C41.48 8.84993 39.3 10.6599 39.3 10.6599L38.25 72.9799V72.9899V94.9299V127.28H56.14V15.5399H56.15Z" fill="#252C35"/>
<path d="M57.2903 27.6599H55.0703V127.28H57.2903V27.6599Z" fill="#272F38"/>
<path d="M117.86 115.21H103.84C103.84 115.21 100.09 73.4799 95.34 57.8499C94.83 56.1899 94.33 54.8199 93.87 53.8299V127.33L74.5 127.22L75.35 3.91992C75.35 3.91992 82.08 4.34992 89.84 8.95992C90.89 9.57992 91.98 10.3499 93.09 11.3099C93.63 11.7399 94.17 12.2499 94.72 12.7899C98.5 16.5399 102.36 22.4099 105.44 31.5199C105.44 31.5299 116.6 67.9299 117.86 115.21Z" fill="#91969B"/>
<path d="M75.3501 26.5699H73.6401V127.28H75.3501V26.5699Z" fill="#181C21"/>
<path d="M95.3403 57.8499L93.8703 53.8299L93.3303 27.6699L81.5503 17.3799V15.2699L93.3003 25.5199L93.0903 11.3199C93.6303 11.7499 94.1703 12.2599 94.7203 12.7999L95.3403 57.8499Z" fill="#181C21"/>
<path d="M57.5201 2.77994C57.4501 7.87994 57.3201 26.7399 57.1501 38.8099C57.1301 39.9599 55.6901 40.5299 54.7501 39.8399L43.5801 27.3199C42.7901 26.7399 42.3801 25.7899 42.5101 24.8299L47.1501 8.71994C47.5701 5.74994 50.0301 3.33994 52.8601 2.21994L55.2701 1.26994C56.3501 0.839939 57.5401 1.62994 57.5201 2.77994Z" fill="#181C21"/>
<path d="M73.6601 3.15994C73.6701 1.84994 74.6901 0.749944 76.0001 0.669944C79.5801 0.469944 85.7301 4.07994 86.4501 7.01994L91.0101 20.0499C91.4401 21.2699 91.2401 22.6099 90.4701 23.6499C87.6601 27.4799 80.2301 35.7799 76.2801 40.1399C75.3701 41.1399 73.7101 40.4999 73.7101 39.1499C73.6801 30.1899 73.6101 8.11994 73.6601 3.15994Z" fill="#181C21"/>
<path d="M52.98 89.2999L38.25 103.16V96.0299L49.4 85.7399C49.72 85.4199 50.25 85.4199 50.56 85.7399L52.98 88.1599C53.3 88.4699 53.3 88.9899 52.98 89.2999Z" fill="#91969B"/>
<path d="M93.8701 96.1899V103.32L79.3801 89.2999C79.0601 88.9899 79.0601 88.4599 79.3801 88.1599L81.8001 85.7399C82.1101 85.4199 82.6401 85.4199 82.9601 85.7399L93.8701 96.1899Z" fill="#252C35"/>
</g>
<defs>
<clipPath id="clip0_301_14769">
<rect width="117.86" height="126.68" fill="white" transform="translate(0 0.659973)"/>
</clipPath>
</defs>
</svg>
