<svg width="93" height="96" viewBox="0 0 93 96" fill="none" xmlns="http://www.w3.org/2000/svg">
<g clip-path="url(#clip0_301_5921)">
<path d="M29.1499 10.5599C29.1499 10.5599 22.5299 15.2499 22.5299 23.2599L22.4599 50.8599C22.4399 55.2599 19.9499 64.0199 13.4799 64.0199C8.70988 64.0199 7.81988 62.4899 7.81988 62.4899L0.879883 72.6099C0.879883 72.6099 16.5799 83.8399 27.1599 69.6099L29.1499 10.5599Z" fill="#272736"/>
<path d="M42.5197 13.08L42.7497 3.45996C31.8197 6.05996 25.9697 13.74 25.9697 13.74L26.1597 95.67H42.5297V13.08H42.5197Z" fill="#606070"/>
<path d="M43.5 3.45996H42V95.68H43.5V3.45996Z" fill="#272F38"/>
<path d="M92.0297 79.48H80.4097C80.4097 79.48 80.3897 63 78.5097 53.33C78.2397 51.92 77.6797 45.03 77.2897 44.21V95.67L61.2397 95.58L61.9397 2.85999C61.9397 2.85999 67.5197 3.21999 73.9397 7.03999C74.8097 7.55999 75.7097 8.18999 76.6397 8.97999C77.0897 9.33999 77.5397 9.75999 77.9897 10.21C81.1197 13.32 84.3197 18.18 86.8697 25.73C86.8697 25.73 90.9797 40.3 92.0297 79.48Z" fill="#C2C2D1"/>
<path d="M61.9498 2.85999H60.5298V95.63H61.9498V2.85999Z" fill="#272736"/>
<path d="M78.5099 53.33L77.2899 50L76.8399 22.54L61.9399 10.74V8.97998L76.8099 20.75L76.6399 8.97998C77.0899 9.33998 77.5399 9.75998 77.9899 10.21L78.5099 53.33Z" fill="#272736"/>
<path d="M65.29 48.1C66.2786 48.1 67.08 47.2986 67.08 46.31C67.08 45.3214 66.2786 44.52 65.29 44.52C64.3014 44.52 63.5 45.3214 63.5 46.31C63.5 47.2986 64.3014 48.1 65.29 48.1Z" fill="#272736"/>
<path d="M65.29 34.72C66.2786 34.72 67.08 33.9186 67.08 32.93C67.08 31.9414 66.2786 31.14 65.29 31.14C64.3014 31.14 63.5 31.9414 63.5 32.93C63.5 33.9186 64.3014 34.72 65.29 34.72Z" fill="#272736"/>
<path d="M65.29 61.76C66.2786 61.76 67.08 60.9586 67.08 59.97C67.08 58.9814 66.2786 58.18 65.29 58.18C64.3014 58.18 63.5 58.9814 63.5 59.97C63.5 60.9586 64.3014 61.76 65.29 61.76Z" fill="#272736"/>
<path d="M65.29 74.64C66.2786 74.64 67.08 73.8386 67.08 72.85C67.08 71.8614 66.2786 71.06 65.29 71.06C64.3014 71.06 63.5 71.8614 63.5 72.85C63.5 73.8386 64.3014 74.64 65.29 74.64Z" fill="#272736"/>
<path d="M44.1699 26.17C44.1599 27.69 42.5899 28.72 41.1999 28.1C36.3599 25.94 33.1199 20.06 33.8299 13.23C34.4499 7.25999 37.7599 2.39999 42.0199 0.469987C43.0799 -0.0100133 44.2899 0.799987 44.2699 1.96999L44.1699 26.17Z" fill="#272736"/>
<path d="M59.9496 26.13C59.9196 27.65 61.4696 28.71 62.8796 28.12C67.7696 26.07 71.1297 20.26 70.5697 13.41C70.0797 7.42999 66.8796 2.49999 62.6596 0.479988C61.6096 -0.0300122 60.3796 0.759988 60.3696 1.92999L59.9496 26.13Z" fill="#43434F"/>
</g>
<defs>
<clipPath id="clip0_301_5921">
<rect width="91.15" height="95.36" fill="white" transform="translate(0.879883 0.320007)"/>
</clipPath>
</defs>
</svg>
