<svg width="98" height="98" viewBox="0 0 98 98" fill="none" xmlns="http://www.w3.org/2000/svg">
<g clip-path="url(#clip0_301_6002)">
<path d="M94.51 79.76H82.97C82.97 79.76 82.97 58.64 78.98 50.05V92.71L32.98 93.6V92.61H47.7V39.25L56.84 21.2L54.79 18.78L61.59 2.28003C61.59 2.28003 66.69 2.64003 73.07 6.44003C74.66 7.38003 76.35 8.71003 78.05 10.58C78.44 11.02 78.84 11.49 79.23 11.99C81.63 15.03 83.96 19.23 85.91 25.02C85.91 25.02 93.47 40.83 94.51 79.76Z" fill="#21C95E"/>
<path d="M33.7899 7.51001C33.7899 7.51001 24.5199 13.98 24.5199 21.51L23.9099 51.48C22.9399 69.23 9.12992 62.74 9.12992 62.74L0.919922 71.72C0.919922 71.72 15.7299 83.78 32.0299 68.59L33.7899 7.51001Z" fill="#317152"/>
<path d="M54.7902 18.78L48.9302 11.85L46.9802 2.28003C36.5402 2.28003 28.4102 12.46 28.4102 12.46V92.6H47.7002V39.25L56.8402 21.19L54.7902 18.78Z" fill="#1A9252"/>
<path d="M14.1598 64.86L6.52976 74.82C5.94976 75.57 4.86976 75.72 4.10976 75.14L1.58976 73.21C0.83976 72.63 0.68976 71.55 1.26976 70.79L8.89976 60.83C9.47976 60.08 10.5598 59.93 11.3198 60.51L13.8398 62.44C14.5898 63.02 14.7398 64.1 14.1598 64.86Z" fill="#989192"/>
<path d="M79.2296 11.99L79.1996 47.46C79.1996 47.78 78.9496 48.04 78.6296 48.04C78.3196 48.04 78.0496 47.78 78.0496 47.46V24.74L71.4596 15.95C71.2796 15.7 71.3296 15.34 71.5796 15.15C71.8396 14.96 72.1996 15.01 72.3796 15.27L78.0496 22.82V10.58C78.4396 11.02 78.8396 11.49 79.2296 11.99Z" fill="#1D9656"/>
<path d="M59.3498 24.14C53.6598 26.52 46.5798 22.66 43.4698 15.48C41.1898 10.22 41.6798 4.62001 44.3298 1.02001C44.9898 0.120006 46.3798 0.240006 46.9098 1.22001L59.3498 24.14Z" fill="#B7AFB0"/>
<path d="M64.4896 0.650015C63.7196 -0.139985 62.3896 0.110015 61.9596 1.12001L50.8196 26.83C50.8196 26.83 50.8096 26.85 50.8096 26.88L50.5096 27.5C45.2296 38.68 46.2896 51.63 46.2896 51.63C51.1896 50.79 56.8796 45.72 59.1196 37.43C59.9596 34.34 57.2496 32.1 54.5796 30.15C60.1296 28.61 65.6196 24.46 67.8796 17.42C70.1096 10.49 68.4596 4.68002 64.4896 0.650015Z" fill="#FCF4F6"/>
<path d="M41.9797 71L28.4097 83.78V77.21L38.6897 67.73C38.9897 67.43 39.4697 67.43 39.7597 67.73L41.9897 69.96C42.2697 70.24 42.2697 70.72 41.9797 71Z" fill="#21C95E"/>
<path d="M50.8897 78.02C51.8341 78.02 52.5997 77.2544 52.5997 76.31C52.5997 75.3656 51.8341 74.6 50.8897 74.6C49.9453 74.6 49.1797 75.3656 49.1797 76.31C49.1797 77.2544 49.9453 78.02 50.8897 78.02Z" fill="#1D9656"/>
<path d="M50.8897 63.03C51.8341 63.03 52.5997 62.2644 52.5997 61.32C52.5997 60.3756 51.8341 59.61 50.8897 59.61C49.9453 59.61 49.1797 60.3756 49.1797 61.32C49.1797 62.2644 49.9453 63.03 50.8897 63.03Z" fill="#1D9656"/>
<path d="M80.1798 91.7V95.48C80.1798 96.76 79.0898 97.81 77.7698 97.81H31.9298C30.6098 97.81 29.5298 96.76 29.5298 95.48V91.7C29.5298 90.42 30.5998 89.37 31.9298 89.37H77.7698C79.0998 89.37 80.1798 90.42 80.1798 91.7Z" fill="#FDF6F8"/>
<path d="M47.7398 89.37V97.82H29.5598C28.2898 97.82 27.2598 96.77 27.2598 95.49V91.71C27.2598 90.43 28.2898 89.38 29.5598 89.38H47.7398V89.37Z" fill="#B9B0B1"/>
<path d="M78.8599 77.34V83.9L65.5199 71C65.2199 70.72 65.2199 70.23 65.5199 69.95L67.7499 67.72C68.0299 67.42 68.5199 67.42 68.8199 67.72L78.8599 77.34Z" fill="#1A9252"/>
<path d="M95.54 82.3H81.93C80.98 82.3 80.21 81.52 80.21 80.58V76.69C80.21 75.74 80.99 74.97 81.93 74.97H95.54C96.49 74.97 97.26 75.75 97.26 76.69V80.58C97.27 81.53 96.49 82.3 95.54 82.3Z" fill="#FDF6F8"/>
</g>
<defs>
<clipPath id="clip0_301_6002">
<rect width="96.35" height="97.64" fill="white" transform="translate(0.919922 0.179993)"/>
</clipPath>
</defs>
</svg>
