<svg width="140" height="146" viewBox="0 0 140 146" fill="none" xmlns="http://www.w3.org/2000/svg">
<g clip-path="url(#clip0_301_9038)">
<path d="M51.0398 17.125V19.705C51.0398 49.475 50.3798 62.815 45.4398 73.275C41.4398 81.735 34.8598 84.135 26.0698 84.135C5.28981 84.135 1.97981 60.365 3.26981 40.045L18.0698 41.975C18.0698 47.145 17.1498 60.665 27.0298 60.665C35.0098 60.665 36.6298 46.845 36.7898 37.585C39.1498 29.495 43.8898 21.295 51.0398 17.125Z" fill="#AD7153"/>
<path d="M50.4602 8.315V20.735C50.4602 50.505 49.8002 63.845 44.8602 74.305C40.8602 82.765 34.2802 85.165 25.4902 85.165C4.7102 85.165 0.690198 67.655 1.9902 47.345H19.0502C19.0502 52.515 17.5302 56.195 27.4102 56.195C36.4102 56.195 36.0702 40.565 36.7502 29.045C36.9402 25.835 37.8702 20.175 40.8602 16.515C44.0702 12.585 47.5902 9.965 50.4602 8.315Z" fill="#272F38"/>
<path d="M62.7898 4.80499L62.5098 17.665V137.825H43.5398V131.575C35.5698 124.955 31.8598 118.205 30.5398 112.085L29.9298 106.505C29.8998 95.845 36.2198 88.265 36.2098 88.805L36.5698 41.895C36.5698 38.685 36.1198 27.395 38.1498 21.675C39.7398 17.215 44.4598 12.735 44.6498 12.555V12.545C44.6498 12.545 47.5998 9.89499 50.2198 8.43499C56.8698 4.74499 59.4898 4.80499 62.7898 4.80499Z" fill="#39485B"/>
<path d="M63.6899 5.36499H61.8799V137.835H63.6899V5.36499Z" fill="#272F38"/>
<path d="M63.9799 33.975C63.9699 35.925 61.9599 37.235 60.1799 36.435C53.9799 33.675 49.8499 26.145 50.7499 17.405C51.5399 9.765 55.7799 3.555 61.2299 1.075C62.5899 0.454995 64.1299 1.505 64.1099 2.995L63.9799 33.975Z" fill="#272F38"/>
<path d="M48.4902 96.905L47.5002 97.835L30.5402 112.085L29.9302 106.505C32.6002 103.775 44.7002 93.135 44.7002 93.135C45.0502 92.795 45.6102 92.795 45.9302 93.135L48.4902 95.695C48.8302 96.015 48.8302 96.575 48.4902 96.905Z" fill="#92AED6"/>
<path d="M17.89 50.295H1.72C0.78 50.295 0 49.515 0 48.575V40.715C0 39.765 0.78 38.995 1.72 38.995H17.89C18.84 38.995 19.61 39.775 19.61 40.715V48.575C19.61 49.515 18.84 50.295 17.89 50.295Z" fill="#39485B"/>
<path d="M65.2598 137.235V142.105C65.2598 143.755 64.6798 145.115 63.9798 145.115H43.7998C43.0998 145.115 42.5298 143.755 42.5298 142.105V137.235C42.5298 135.585 43.0998 134.225 43.7998 134.225H63.9798C64.6798 134.225 65.2598 135.575 65.2598 137.235Z" fill="#92AED6"/>
<path d="M138.3 123.345C137.26 84.465 129.91 52.525 126.66 40.145C125.13 34.335 122.72 28.775 119.28 23.845C106.77 5.94499 89.1803 5.36499 89.1803 5.36499L88.2803 137.775L108.81 137.895V132.305C113.31 128.675 116.82 124.285 119.01 119.415C119.25 121.895 119.39 123.355 119.39 123.355H138.3V123.345Z" fill="#92AED6"/>
<path d="M89.1801 5.36499H87.3701V137.835H89.1801V5.36499Z" fill="#39485B"/>
<path d="M93.4699 66.505C94.7402 66.505 95.7699 65.4752 95.7699 64.205C95.7699 62.9347 94.7402 61.905 93.4699 61.905C92.1997 61.905 91.1699 62.9347 91.1699 64.205C91.1699 65.4752 92.1997 66.505 93.4699 66.505Z" fill="#FCF4F6"/>
<path d="M93.4699 49.385C94.7402 49.385 95.7699 48.3552 95.7699 47.085C95.7699 45.8147 94.7402 44.785 93.4699 44.785C92.1997 44.785 91.1699 45.8147 91.1699 47.085C91.1699 48.3552 92.1997 49.385 93.4699 49.385Z" fill="#FCF4F6"/>
<path d="M93.4699 84.915C94.7402 84.915 95.7699 83.8853 95.7699 82.615C95.7699 81.3448 94.7402 80.315 93.4699 80.315C92.1997 80.315 91.1699 81.3448 91.1699 82.615C91.1699 83.8853 92.1997 84.915 93.4699 84.915Z" fill="#FCF4F6"/>
<path d="M86.6302 33.915C86.6002 35.865 88.5802 37.215 90.3802 36.465C96.6402 33.835 100.94 26.405 100.22 17.645C99.6002 9.99501 95.5002 3.68501 90.1002 1.09501C88.7502 0.445015 87.1902 1.45501 87.1802 2.95501L86.6302 33.915Z" fill="#39485B"/>
<path d="M138.22 127.455H118.82C117.87 127.455 117.1 126.675 117.1 125.735V117.875C117.1 116.925 117.88 116.155 118.82 116.155H138.22C139.17 116.155 139.94 116.935 139.94 117.875V125.735C139.94 126.675 139.16 127.455 138.22 127.455Z" fill="#39485B"/>
<path d="M110.38 137.235V142.105C110.38 143.755 109.87 145.115 109.24 145.115H88.1901C87.5701 145.115 87.0601 143.755 87.0601 142.105V137.235C87.0601 135.585 87.5701 134.225 88.1901 134.225H109.24C109.86 134.225 110.38 135.575 110.38 137.235Z" fill="#272F38"/>
<path d="M96.4001 134.225V145.105H87.0501C86.4001 145.105 85.8701 143.745 85.8701 142.095V137.225C85.8701 135.575 86.4001 134.215 87.0501 134.215H96.4001V134.225Z" fill="#39485B"/>
<path d="M121.11 101.845V109.405L105.75 94.555C105.41 94.225 105.41 93.665 105.75 93.345L108.32 90.775C108.65 90.435 109.21 90.435 109.55 90.775L121.11 101.845Z" fill="#39485B"/>
<path d="M110.38 62.535V86.675C110.38 86.675 116.37 91.355 121.11 101.855L110.38 62.535Z" fill="#39485B"/>
</g>
<defs>
<clipPath id="clip0_301_9038">
<rect width="139.94" height="144.21" fill="white" transform="translate(0 0.89502)"/>
</clipPath>
</defs>
</svg>
