<svg width="124" height="116" viewBox="0 0 124 116" fill="none" xmlns="http://www.w3.org/2000/svg">
<g clip-path="url(#clip0_301_11833)">
<path d="M123.04 103.165H107.19C107.19 103.165 107.07 101.945 106.87 99.865C105.05 103.955 102.1 107.625 98.33 110.665V115.355L62.39 115.255L62.3 109.595L61.58 61.725C61.59 61.715 61.58 61.705 61.58 61.695L61.52 57.545L62.69 39.245L62.94 35.345L63.84 33.465L64.41 32.255L65.56 29.865L69.04 22.565L77.75 4.30502C77.75 4.30502 79.36 4.20502 81.82 4.62502C85.39 5.24502 90.72 6.96502 95.5 11.745L95.51 11.755C96 12.245 96.48 12.765 96.97 13.325C110.76 29.195 122.19 71.695 123.04 103.165Z" fill="#21C95E"/>
<path d="M66.7301 72.825C67.7904 72.825 68.6501 71.9654 68.6501 70.905C68.6501 69.8446 67.7904 68.985 66.7301 68.985C65.6697 68.985 64.8101 69.8446 64.8101 70.905C64.8101 71.9654 65.6697 72.825 66.7301 72.825Z" fill="#1A9252"/>
<path d="M66.7301 88.255C67.7904 88.255 68.6501 87.3954 68.6501 86.335C68.6501 85.2747 67.7904 84.415 66.7301 84.415C65.6697 84.415 64.8101 85.2747 64.8101 86.335C64.8101 87.3954 65.6697 88.255 66.7301 88.255Z" fill="#1A9252"/>
<path d="M104.49 85.155V91.485L91.6198 79.035C91.3298 78.765 91.3298 78.295 91.6198 78.015L93.7698 75.865C94.0398 75.575 94.5098 75.575 94.7998 75.865L104.49 85.155Z" fill="#1A9252"/>
<path d="M95.5 52.205V72.435C95.5 72.435 100.52 76.355 104.49 85.155L95.5 52.205Z" fill="#1A9252"/>
<path d="M42.33 18.265L42.32 36.775C42.32 61.725 42.76 65.275 38.62 74.045C35.27 81.135 31.31 85.615 21.48 85.265C4.08004 84.645 -0.289958 75.505 0.790042 58.485L16.7 58.575C16.7 63.275 30.82 72.655 30.82 43.755C30.82 41.065 31.77 28.225 34.27 25.155C36.97 21.845 39.92 19.645 42.33 18.265Z" fill="#317152"/>
<path d="M62.2299 55.685L62.4899 109.315L58.0899 115.345H37.0299V110.105C30.3499 104.555 27.2399 98.905 26.1399 93.775L26.0699 93.195L25.6299 89.095C25.6299 88.865 25.6299 88.625 25.6499 88.395C25.8799 79.835 30.8999 73.815 30.8999 74.255L31.1999 34.945C31.1999 32.255 32.0399 17.565 43.4699 8.69499C48.4999 4.78499 52.6999 3.86499 55.4699 3.86499L54.4499 14.645L64.6499 29.925L62.2299 55.685Z" fill="#1A9252"/>
<path d="M40.8699 80.685L40.0399 81.465L26.0699 93.205L25.6299 89.105C25.6299 88.875 25.6299 88.635 25.6499 88.405C28.3999 85.705 37.7099 77.515 37.7099 77.515C37.9999 77.235 38.4699 77.235 38.7399 77.515L40.8899 79.665C41.1599 79.945 41.1599 80.405 40.8699 80.685Z" fill="#21C95E"/>
<path d="M72.4601 29.725C65.6901 32.155 57.6701 27.245 54.4801 18.695C52.1401 12.435 53.0401 5.94503 56.3301 1.89503C57.1501 0.885028 58.7601 1.10503 59.3201 2.27503L72.4601 29.725Z" fill="#B7AFB0"/>
<path d="M78.8998 1.13501C77.9598 0.255014 76.4298 0.605014 75.9798 1.80501L66.6798 20.595C64.8698 24.245 64.1798 28.305 64.2398 32.375L63.9198 33.115C60.5998 46.385 61.5898 61.785 61.5898 61.785C67.2598 60.565 72.4998 54.955 74.2498 45.125C74.8998 41.445 72.0098 38.135 68.8098 36.005C75.1998 33.935 81.3998 28.825 83.6898 20.505C85.9298 12.335 83.7198 5.64501 78.8998 1.13501Z" fill="#FCF4F6"/>
<path d="M96.9699 13.325L96.9299 57.445V57.645C96.9299 58.035 96.6199 58.355 96.2199 58.355C95.8399 58.355 95.5099 58.035 95.5099 57.645V29.455L87.3399 18.565C87.1099 18.245 87.1699 17.805 87.4899 17.565C87.7999 17.335 88.2499 17.395 88.4799 17.715L95.5099 27.085V11.755C95.9999 12.245 96.4799 12.765 96.9699 13.325Z" fill="#1A9252"/>
</g>
<defs>
<clipPath id="clip0_301_11833">
<rect width="122.4" height="114.71" fill="white" transform="translate(0.640137 0.64502)"/>
</clipPath>
</defs>
</svg>
