<svg width="95" height="100" viewBox="0 0 95 100" fill="none" xmlns="http://www.w3.org/2000/svg">
<g clip-path="url(#clip0_301_5874)">
<path d="M29.1599 11.015C29.1599 11.015 22.5399 15.705 22.5399 23.715L22.4699 51.315C22.4499 55.715 19.9599 64.475 13.4899 64.475C8.7199 64.475 7.8299 62.945 7.8299 62.945L0.899902 73.065C0.899902 73.065 16.5999 84.295 27.1799 70.065L29.1599 11.015Z" fill="#272F38"/>
<path d="M42.54 13.535L42.77 3.91498C31.83 6.51498 25.98 14.195 25.98 14.195L26.17 93.535H42.54V13.535Z" fill="#39485B"/>
<path d="M43.52 3.91498H42.02V93.545H43.52V3.91498Z" fill="#272F38"/>
<path d="M92.0498 79.935H80.4298C80.4298 79.935 80.4098 63.455 78.5298 53.785C78.2598 52.375 77.6998 45.485 77.3098 44.665V96.125L61.2598 96.035L61.9598 3.315C61.9598 3.315 67.5398 3.675 73.9598 7.495C74.8298 8.015 75.7298 8.645 76.6598 9.435C77.1098 9.795 77.5598 10.215 78.0098 10.665C81.1398 13.775 84.3398 18.635 86.8898 26.185C86.8898 26.185 90.9998 40.755 92.0498 79.935Z" fill="#92AED6"/>
<path d="M61.9698 3.315H60.5498V96.085H61.9698V3.315Z" fill="#39485B"/>
<path d="M78.5197 53.785L77.2997 50.455L76.8497 22.995L61.9497 11.195V9.435L76.8197 21.205L76.6597 9.435C77.1097 9.795 77.5597 10.215 78.0097 10.665L78.5197 53.785Z" fill="#39485B"/>
<path d="M65.3095 48.555C66.2981 48.555 67.0995 47.7536 67.0995 46.765C67.0995 45.7764 66.2981 44.975 65.3095 44.975C64.3209 44.975 63.5195 45.7764 63.5195 46.765C63.5195 47.7536 64.3209 48.555 65.3095 48.555Z" fill="#FCF4F6"/>
<path d="M65.3095 35.175C66.2981 35.175 67.0995 34.3736 67.0995 33.385C67.0995 32.3964 66.2981 31.595 65.3095 31.595C64.3209 31.595 63.5195 32.3964 63.5195 33.385C63.5195 34.3736 64.3209 35.175 65.3095 35.175Z" fill="#FCF4F6"/>
<path d="M65.3095 62.945C66.2981 62.945 67.0995 62.1436 67.0995 61.155C67.0995 60.1664 66.2981 59.365 65.3095 59.365C64.3209 59.365 63.5195 60.1664 63.5195 61.155C63.5195 62.1436 64.3209 62.945 65.3095 62.945Z" fill="#FCF4F6"/>
<path d="M44.1899 26.625C44.1799 28.145 42.6099 29.175 41.2199 28.555C36.3799 26.395 33.1399 20.515 33.8499 13.685C34.4699 7.715 37.7799 2.855 42.0399 0.925004C43.0999 0.445004 44.3099 1.255 44.2899 2.425L44.1899 26.625Z" fill="#272F38"/>
<path d="M59.9697 26.585C59.9397 28.105 61.4897 29.165 62.8997 28.575C67.7897 26.525 71.1497 20.715 70.5897 13.865C70.0997 7.88501 66.8897 2.955 62.6697 0.935005C61.6197 0.425005 60.3897 1.21501 60.3797 2.385L59.9697 26.585Z" fill="#39485B"/>
<path d="M38.3299 72.135L26.1299 83.615V77.705L35.3699 69.185C35.6399 68.915 36.0699 68.915 36.3299 69.185L38.3299 71.185C38.5899 71.445 38.5899 71.885 38.3299 72.135Z" fill="#92AED6"/>
<path d="M77.3097 77.785V83.685L65.2997 72.075C65.0297 71.815 65.0297 71.385 65.2997 71.125L67.2997 69.125C67.5597 68.855 67.9897 68.855 68.2597 69.125L77.3097 77.785Z" fill="#39485B"/>
<path d="M92.9998 83.235H80.2498C79.2998 83.235 78.5298 82.455 78.5298 81.515V77.855C78.5298 76.905 79.3098 76.135 80.2498 76.135H92.9998C93.9498 76.135 94.7198 76.915 94.7198 77.855V81.515C94.7298 82.465 93.9498 83.235 92.9998 83.235Z" fill="#39485B"/>
<path d="M13.0698 64.995L6.26976 75.795C5.75976 76.595 4.69976 76.845 3.88976 76.335L0.789762 74.385C-0.000237584 73.875 -0.240238 72.805 0.259762 72.005L7.05976 61.205C7.56976 60.405 8.62976 60.155 9.43976 60.665L12.5398 62.615C13.3298 63.125 13.5798 64.195 13.0698 64.995Z" fill="#39485B"/>
<path d="M45.0196 93.075V96.875C45.0196 98.165 44.5196 99.225 43.9096 99.225H26.4496C25.8396 99.225 25.3496 98.165 25.3496 96.875V93.075C25.3496 91.785 25.8396 90.725 26.4496 90.725H43.9196C44.5296 90.725 45.0196 91.785 45.0196 93.075Z" fill="#92AED6"/>
<path d="M78.5198 93.075V96.875C78.5198 98.165 78.1198 99.225 77.6298 99.225H61.1798C60.6898 99.225 60.2998 98.165 60.2998 96.875V93.075C60.2998 91.785 60.6998 90.725 61.1798 90.725H77.6298C78.1198 90.725 78.5198 91.785 78.5198 93.075Z" fill="#272F38"/>
<path d="M67.5999 90.725V99.225H60.2999C59.7899 99.225 59.3799 98.165 59.3799 96.875V93.075C59.3799 91.785 59.7899 90.725 60.2999 90.725H67.5999Z" fill="#39485B"/>
</g>
<defs>
<clipPath id="clip0_301_5874">
<rect width="94.73" height="98.45" fill="white" transform="translate(0 0.775024)"/>
</clipPath>
</defs>
</svg>
