<svg width="119" height="130" viewBox="0 0 119 130" fill="none" xmlns="http://www.w3.org/2000/svg">
<g clip-path="url(#clip0_301_14734)">
<path d="M41.2503 10.725C41.2503 10.725 34.6303 14.245 34.6303 23.395L34.5503 48.225C34.5303 53.535 33.2003 62.845 24.4503 62.615C14.3303 62.345 14.9903 47.535 14.9903 46.415C14.9903 45.515 15.0003 38.985 15.0003 38.985H0.680281C0.680281 38.985 0.630281 45.435 0.620281 46.525C0.560281 52.725 1.66028 73.715 18.9903 77.245C30.1703 79.525 37.8903 74.815 38.8703 73.995L41.2503 10.725Z" fill="#4850C6"/>
<path d="M56.7701 16.535L57.0301 4.92499C53.9101 4.92499 49.2701 6.04499 45.3801 8.10499C42.0901 9.84499 39.9201 11.655 39.9201 11.655L38.8701 73.975V73.985V95.925V119.755H40.0201H56.7601V16.535H56.7701Z" fill="#2F3A7C"/>
<path d="M55.6904 128.275V28.655H57.9104V127.735L55.6904 128.275Z" fill="#4850C6"/>
<path d="M59.0904 122.445V127.035C59.0904 128.595 58.5504 129.875 57.8804 129.875H38.8504C38.1904 129.875 37.6504 128.595 37.6504 127.035V122.445C37.6504 120.885 38.1904 119.605 38.8504 119.605H57.8804C58.5504 119.605 59.0904 120.885 59.0904 122.445Z" fill="#B9B0B1"/>
<path d="M57.9105 0.505005V29.725H54.1105C51.7105 29.725 49.7705 27.785 49.7705 25.385V9.505C49.7705 6.525 51.4505 3.785 54.1105 2.435L57.9105 0.505005Z" fill="#FDF6F8"/>
<path d="M118.481 116.205H104.461C104.461 116.205 100.711 74.475 95.9606 58.845C95.4506 57.185 94.9506 55.815 94.4906 54.825V120.955L75.1206 120.845L75.9706 4.92499C75.9706 4.92499 82.7006 5.35499 90.4606 9.96499C91.5106 10.585 92.6006 11.355 93.7106 12.315C94.2506 12.745 94.7906 13.255 95.3406 13.795C99.1206 17.545 102.981 23.415 106.061 32.525C106.061 32.525 117.221 68.925 118.481 116.205Z" fill="#4486F4"/>
<path d="M75.9703 129.875L74.2603 126.305V27.565H75.9703V129.875Z" fill="#2F3A7C"/>
<path d="M95.6904 122.445V127.035C95.6904 128.595 95.2104 129.875 94.6204 129.875H74.7604C74.1704 129.875 73.6904 128.595 73.6904 127.035V122.445C73.6904 120.885 74.1704 119.605 74.7604 119.605H94.6204C95.2004 119.605 95.6904 120.885 95.6904 122.445Z" fill="#FDF6F8"/>
<path d="M82.5104 119.605V129.865H74.8104C74.1904 129.865 73.6904 128.585 73.6904 127.025V122.435C73.6904 120.875 74.1904 119.595 74.8104 119.595H82.5104V119.605Z" fill="#B9B0B1"/>
<path d="M81.3502 53.435H75.9702V37.955H81.3502C82.1302 37.955 82.7602 38.585 82.7602 39.365V52.025C82.7602 52.805 82.1302 53.435 81.3502 53.435Z" fill="#2F3A7C"/>
<path d="M95.9604 58.845L94.4904 54.825L93.9504 28.665L82.1704 18.375V16.265L93.9204 26.515L93.7104 12.315C94.2504 12.745 94.7904 13.255 95.3404 13.795L95.9604 58.845Z" fill="#2F3A7C"/>
<path d="M82.1705 25.015C82.1705 27.405 80.2205 29.355 77.8305 29.355H74.0205V0.125L77.8305 2.055C80.4905 3.415 82.1705 6.135 82.1705 9.125V25.015Z" fill="#FDF6F8"/>
</g>
<defs>
<clipPath id="clip0_301_14734">
<rect width="117.86" height="129.75" fill="white" transform="translate(0.620117 0.125)"/>
</clipPath>
</defs>
</svg>
