<svg width="127" height="132" viewBox="0 0 127 132" fill="none" xmlns="http://www.w3.org/2000/svg">
<g clip-path="url(#clip0_301_14809)">
<path d="M124.36 118.685H106.26C105.31 118.685 104.54 117.905 104.54 116.965V109.745C104.54 108.795 105.32 108.025 106.26 108.025H124.36C125.31 108.025 126.08 108.805 126.08 109.745V116.965C126.08 117.915 125.3 118.685 124.36 118.685Z" fill="#FDF6F8"/>
<path d="M110.46 30.745C105.86 17.085 99.5698 10.435 94.2498 7.27503C86.1798 2.48503 79.7398 2.03503 79.7398 2.03503L71.1598 22.865L73.7398 25.915L62.1898 48.735V121.465H43.5898V122.715H98.4298V53.935C103.47 64.785 108.45 109.225 108.45 109.225H123.03C121.72 60.045 110.46 30.745 110.46 30.745Z" fill="#21C95E"/>
<path d="M44.8699 8.06506C44.8699 8.06506 37.9899 11.7251 37.9899 21.2351L37.8999 47.0651C37.8799 52.5851 36.4899 62.4051 27.3999 62.0251C17.6699 61.6151 17.8099 52.5651 17.5999 48.5251C17.5299 47.2451 17.5699 43.4851 17.5699 43.4851H2.66985C2.66985 43.4851 0.52985 72.9051 21.7099 77.2251C33.3399 79.5951 41.3599 74.6951 42.3899 73.8451L44.8699 8.06506Z" fill="#317152"/>
<path d="M71.1499 22.865L63.7499 14.105L61.2799 2.03503C58.0399 2.03503 53.2099 3.19503 49.1699 5.34503C45.7499 7.15503 43.4899 9.03503 43.4899 9.03503L42.3999 73.845V73.855V96.675V121.465H43.5999H62.1999V48.735L73.7299 25.925L71.1499 22.865Z" fill="#1A9252"/>
<path d="M17.4997 45.565H2.43973C1.49973 45.565 0.719727 44.785 0.719727 43.835V36.615C0.719727 35.665 1.49973 34.895 2.43973 34.895H17.4897C18.4397 34.895 19.2097 35.675 19.2097 36.615V43.835C19.2197 44.785 18.4397 45.565 17.4997 45.565Z" fill="#989192"/>
<path d="M92.5396 6.31506V32.3251L84.1196 21.0951C83.8396 20.7151 83.3096 20.6351 82.9296 20.9151C82.5496 21.1951 82.4696 21.7251 82.7496 22.1051L92.5396 35.1651V68.9551C92.5396 69.4351 92.9296 69.8051 93.3896 69.8051C93.8696 69.8051 94.2396 69.4251 94.2396 68.9551L94.2996 7.32506C93.7196 6.95506 93.1796 6.62506 92.5396 6.31506Z" fill="#1D9656"/>
<path d="M77.1597 31.135C69.9697 34.145 61.0297 29.265 57.0997 20.195C54.2297 13.545 54.8397 6.48503 58.1797 1.92503C59.0097 0.785033 60.7697 0.935033 61.4397 2.17503L77.1597 31.135Z" fill="#B7AFB0"/>
<path d="M80.0399 0.555039C79.0199 -0.394961 77.3699 -0.014961 76.8799 1.28504L64.1799 34.335C64.1799 34.335 64.1699 34.355 64.1599 34.395L63.8099 35.195C57.7499 49.595 59.7799 65.875 59.7799 65.875C65.9199 64.555 72.8299 57.845 75.2099 47.275C76.0998 43.325 72.5598 40.645 69.0998 38.335C76.0198 36.095 82.7299 30.565 85.2099 21.555C87.6499 12.685 85.2499 5.43504 80.0399 0.555039Z" fill="#FCF4F6"/>
<path d="M59.5399 88.845L42.3999 104.975V96.675L55.3799 84.705C55.7599 84.325 56.3699 84.325 56.7299 84.705L59.5399 87.515C59.9099 87.875 59.9099 88.485 59.5399 88.845Z" fill="#21C95E"/>
<path d="M66.2198 97.7151C67.4183 97.7151 68.3898 96.7435 68.3898 95.5451C68.3898 94.3466 67.4183 93.3751 66.2198 93.3751C65.0213 93.3751 64.0498 94.3466 64.0498 95.5451C64.0498 96.7435 65.0213 97.7151 66.2198 97.7151Z" fill="#1D9656"/>
<path d="M66.2198 78.7751C67.4183 78.7751 68.3898 77.8035 68.3898 76.6051C68.3898 75.4066 67.4183 74.4351 66.2198 74.4351C65.0213 74.4351 64.0498 75.4066 64.0498 76.6051C64.0498 77.8035 65.0213 78.7751 66.2198 78.7751Z" fill="#1D9656"/>
<path d="M101.7 124.255V129.025C101.7 130.645 100.33 131.975 98.6597 131.975H42.2697C40.5997 131.975 39.2397 130.645 39.2397 129.025V124.255C39.2397 122.635 40.5897 121.305 42.2697 121.305H98.6497C100.33 121.305 101.7 122.635 101.7 124.255Z" fill="#FDF6F8"/>
<path d="M62.2395 121.305V131.975H42.1595C40.5495 131.975 39.2495 130.645 39.2495 129.025V124.255C39.2495 122.635 40.5495 121.305 42.1595 121.305H62.2395Z" fill="#B9B0B1"/>
<path d="M98.4299 96.845V105.135L81.5799 88.845C81.1999 88.485 81.1999 87.875 81.5799 87.515L84.3899 84.705C84.7499 84.325 85.3599 84.325 85.7399 84.705L98.4299 96.845Z" fill="#1A9252"/>
</g>
<defs>
<clipPath id="clip0_301_14809">
<rect width="125.36" height="131.95" fill="white" transform="translate(0.719727 0.0250244)"/>
</clipPath>
</defs>
</svg>
