<svg width="109" height="138" viewBox="0 0 109 138" fill="none" xmlns="http://www.w3.org/2000/svg">
<g clip-path="url(#clip0_301_7981)">
<path d="M24.0801 8.6748V21.0948C24.0801 50.8648 23.4201 64.2048 18.4901 74.6648C17.7301 76.2848 16.2401 77.3648 14.5101 78.1348C13.3301 78.6548 12.0401 79.0248 10.7701 79.3148C9.79008 79.5448 8.82008 79.7348 7.93008 79.9048C7.93008 79.9048 0.0800781 54.3748 0.0800781 54.0548C0.970078 54.0548 1.79008 53.8948 2.53008 53.5948C3.82008 53.0848 4.90008 52.1548 5.78008 50.9048C9.06008 46.3148 9.89008 37.4648 10.3701 29.4148C10.5601 26.2048 11.4901 20.5448 14.4801 16.8748C17.6901 12.9448 21.2101 10.3248 24.0801 8.6748Z" fill="#DCC206"/>
<path d="M14.8803 79.2748C13.7803 80.0148 12.6503 80.7748 11.4803 81.5348L10.7703 79.3148L2.53027 53.5948C3.82027 53.0848 4.90027 52.1548 5.78027 50.9048L14.5103 78.1348L14.8803 79.2748Z" fill="#009C3B"/>
<path d="M93.7499 93.7648C99.9499 109.975 93.2099 127.275 84.0099 132.315V137.905L49.7499 137.785V137.905H15.7799V131.655C7.80992 125.035 4.09992 118.285 2.77992 112.165L2.69992 111.475L2.16992 106.585C2.16992 106.305 2.16992 106.025 2.18992 105.755C2.46992 95.5348 8.45992 88.3548 8.44992 88.8848L8.80992 41.9748C8.80992 38.7648 8.35992 27.4748 10.3899 21.7548C11.9799 17.2948 16.6999 12.8148 16.8899 12.6348V12.6248C16.8899 12.6248 19.8399 9.97483 22.4599 8.51483C29.1099 4.82483 31.7299 4.88483 35.0299 4.88483L34.7499 17.7448L49.3599 28.8548L64.3699 5.38483C64.3699 5.38483 74.9699 5.73483 85.5599 14.2648C86.0499 14.6548 86.5399 15.0748 87.0299 15.4948C89.5899 17.7548 92.1199 20.5148 94.4699 23.8748C97.9099 28.7948 100.33 34.3548 101.85 40.1648C103.14 45.0648 105.06 53.0448 106.99 63.2948C107.23 64.5648 107.47 65.8748 107.71 67.2148C107.86 68.0648 108.01 68.9248 108.16 69.8048H87.5399C87.5399 69.8048 90.1399 84.3448 93.7499 93.7648Z" fill="url(#paint0_linear_301_7981)"/>
<path d="M36.0899 0.284889L28.8599 6.09489L33.4899 36.4249C33.4999 36.5149 33.5999 36.5649 33.6799 36.5149C35.0099 35.6949 43.1499 28.5249 49.3499 28.8449L37.4099 0.614889C37.1899 0.0948889 36.5299 -0.0751111 36.0899 0.284889Z" fill="#009C3B"/>
<path d="M63.7301 0.284889L70.9601 6.09489L66.3301 36.4249C66.3201 36.5149 66.2201 36.5649 66.1401 36.5149C64.8101 35.6949 55.5601 28.5249 49.3501 28.8449L62.4101 0.614889C62.6301 0.0948889 63.2901 -0.0751111 63.7301 0.284889Z" fill="#009C3B"/>
<path d="M76.66 46.0249H59.73V56.9249H76.66V46.0249Z" fill="#009C3B"/>
<path d="M67.97 56.5048L60.75 51.0248L67.97 46.4548L75.63 51.4748L67.97 56.5048Z" fill="#F9DA01"/>
<path d="M68.19 54.3949C69.8027 54.3949 71.11 53.0876 71.11 51.4749C71.11 49.8623 69.8027 48.5549 68.19 48.5549C66.5773 48.5549 65.27 49.8623 65.27 51.4749C65.27 53.0876 66.5773 54.3949 68.19 54.3949Z" fill="#002776"/>
<path d="M95.4201 114.085C84.3201 122.505 67.7001 127.865 49.1501 127.865C30.8601 127.865 14.4601 122.655 3.37012 114.435C3.53012 114.965 3.72012 115.505 3.93012 116.045C15.1701 123.915 31.2801 128.855 49.1501 128.855C67.4101 128.855 83.8301 123.695 95.1001 115.525C95.2201 115.055 95.3301 114.565 95.4201 114.085Z" fill="#009C3B"/>
<path d="M107.71 67.2149H86.1802V63.2949H106.99C107.23 64.5649 107.47 65.8749 107.71 67.2149Z" fill="#009C3B"/>
<path d="M86.2101 62.5549L85.5601 86.6949C85.5601 86.6949 90.8301 87.7949 94.4201 95.0249L86.2101 62.5549Z" fill="#CCAF06"/>
</g>
<defs>
<linearGradient id="paint0_linear_301_7981" x1="55.1649" y1="18.8199" x2="55.1649" y2="138.859" gradientUnits="userSpaceOnUse">
<stop offset="1.63196e-07" stop-color="#FFDF00"/>
<stop offset="1" stop-color="#B1CB12"/>
</linearGradient>
<clipPath id="clip0_301_7981">
<rect width="108.08" height="137.81" fill="white" transform="translate(0.0800781 0.0949707)"/>
</clipPath>
</defs>
</svg>
