<svg width="88" height="124" viewBox="0 0 88 124" fill="none" xmlns="http://www.w3.org/2000/svg">
<g clip-path="url(#clip0_301_3530)">
<path d="M13.7902 10.3L13.1202 62.26L13.0802 65.2801L13.0102 70.62C12.9702 70.62 12.3702 70.37 11.4402 69.98C8.07016 68.57 0.410156 65.26 0.410156 65.26C1.42016 64.06 2.33016 62.66 3.13016 61.18C3.58016 60.35 3.98016 59.51 4.35016 58.65C6.00016 54.86 6.91016 50.96 6.92016 48.68L7.01016 23.26C7.01016 16.61 10.4402 12.86 12.4202 11.25C12.4202 11.25 12.5302 11.16 12.7302 11.01C13.3702 10.52 13.7902 10.3 13.7902 10.3Z" fill="#DCC206"/>
<path d="M13.1204 62.2599L13.0804 65.2799L11.5204 64.6399L3.13037 61.1799C3.58037 60.3499 3.98037 59.5099 4.35037 58.6499L11.5704 61.6299L13.1204 62.2599Z" fill="#009C3B"/>
<path d="M87.8201 72.1499H71.6401C71.4401 71.0999 71.1401 69.8799 70.8001 68.5799C70.5601 67.6699 70.3001 66.7199 70.0201 65.7699C68.7401 61.4199 67.1901 56.9399 66.5001 55.4499V123.55H33.4701V123.54H11.3501V75.0299L11.3801 73.1199L11.4201 71.0999L11.5101 65.3499L12.4201 11.2499C12.4201 11.2499 12.5301 11.1599 12.7301 11.0099C13.4501 10.4399 15.4001 9.00986 18.0201 7.61986C19.2901 6.93986 20.4701 6.35986 21.5901 5.88986C23.9701 4.88986 26.0901 4.35986 28.2601 4.35986L36.5101 22.7199L48.1001 4.35986C48.1001 4.35986 49.4901 4.45986 51.7901 5.04986C54.4001 5.71986 58.1601 7.01986 62.3801 9.51986C67.6201 12.6399 73.8001 19.1799 78.3301 32.6199C78.3301 32.6199 83.1801 47.4799 86.6801 65.7699C86.8601 66.6999 87.0301 67.6299 87.2001 68.5799C87.4201 69.7599 87.6201 70.9499 87.8201 72.1499Z" fill="url(#paint0_linear_301_3530)"/>
<path d="M46.87 0.579936L51.86 4.59994L48.24 26.8299C48.23 26.8899 48.16 26.9199 48.11 26.8899C47.19 26.3299 40.8 22.4999 36.52 22.7199L45.96 0.809936C46.11 0.449936 46.56 0.339936 46.87 0.579936Z" fill="#009C3B"/>
<path d="M26.5803 1.85983L21.5903 5.87983L24.7903 26.8298C24.8003 26.8898 24.8703 26.9198 24.9203 26.8898C25.8403 26.3298 32.2303 22.4998 36.5103 22.7198L27.5003 2.07983C27.3403 1.71983 26.8903 1.60983 26.5803 1.85983Z" fill="#009C3B"/>
<path d="M60.3304 31.3799H43.4004V42.2799H60.3304V31.3799Z" fill="#009C3B"/>
<path d="M51.6404 41.8598L44.4204 36.3798L51.6404 31.8098L59.3004 36.8298L51.6404 41.8598Z" fill="#F9DA01"/>
<path d="M51.8604 39.7499C53.4731 39.7499 54.7804 38.4426 54.7804 36.8299C54.7804 35.2172 53.4731 33.9099 51.8604 33.9099C50.2478 33.9099 48.9404 35.2172 48.9404 36.8299C48.9404 38.4426 50.2478 39.7499 51.8604 39.7499Z" fill="#002776"/>
<path d="M39.8101 116.45C26.6601 116.45 16.6101 111.7 11.3501 103.61V105.4C16.9701 113.01 26.9601 117.45 39.8101 117.45C51.4101 117.45 60.6801 113.83 66.5001 107.52V105.99C60.9101 112.62 51.6101 116.45 39.8101 116.45Z" fill="#009C3B"/>
<path d="M86.68 65.77H70.02C70.3 66.72 70.56 67.67 70.8 68.58H87.2L86.68 65.77Z" fill="#009C3B"/>
</g>
<defs>
<linearGradient id="paint0_linear_301_3530" x1="50.6765" y1="19.2744" x2="48.1233" y2="122.168" gradientUnits="userSpaceOnUse">
<stop offset="1.63196e-07" stop-color="#FFDF00"/>
<stop offset="1" stop-color="#B1CB12"/>
</linearGradient>
<clipPath id="clip0_301_3530">
<rect width="87.41" height="123.1" fill="white" transform="translate(0.410156 0.449951)"/>
</clipPath>
</defs>
</svg>
