<svg width="89" height="124" viewBox="0 0 89 124" fill="none" xmlns="http://www.w3.org/2000/svg">
<g clip-path="url(#clip0_301_14127)">
<path d="M14.1998 10.3L13.5298 62.26L13.4898 65.2801L13.4198 70.62C13.3798 70.62 12.7798 70.37 11.8498 69.98C8.47982 68.57 0.819824 65.26 0.819824 65.26C1.82982 64.06 2.73982 62.66 3.53982 61.18C3.98982 60.35 4.38982 59.51 4.75982 58.65C6.40982 54.86 7.31982 50.96 7.32982 48.68L7.41982 23.26C7.41982 16.61 10.8498 12.86 12.8298 11.25C12.8298 11.25 12.9398 11.16 13.1398 11.01C13.7798 10.52 14.1998 10.3 14.1998 10.3Z" fill="#1D2836"/>
<path d="M13.53 62.2599L13.49 65.2799L11.93 64.6399L3.54004 61.1799C3.99004 60.3499 4.39004 59.5099 4.76004 58.6499L11.98 61.6299L13.53 62.2599Z" fill="#F9DA01"/>
<path d="M88.2298 72.1499H72.0498C71.8498 71.0999 71.5498 69.8799 71.2098 68.5799C70.9698 67.6699 70.7098 66.7199 70.4298 65.7699C69.1498 61.4199 67.5998 56.9399 66.9098 55.4499V123.55H33.8798V123.54H11.7598V75.0299L11.7898 73.1199L11.8298 71.0999L11.9198 65.3499L12.8298 11.2499C12.8298 11.2499 12.9398 11.1599 13.1398 11.0099C13.8598 10.4399 15.8098 9.00986 18.4298 7.61986C19.6998 6.93986 20.8798 6.35986 21.9998 5.88986C24.3798 4.88986 26.4998 4.35986 28.6698 4.35986L36.9198 22.7199L48.5098 4.35986C48.5098 4.35986 49.8998 4.45986 52.1998 5.04986C54.8098 5.71986 58.5698 7.01986 62.7898 9.51986C68.0298 12.6399 74.2098 19.1799 78.7398 32.6199C78.7398 32.6199 83.5898 47.4799 87.0898 65.7699C87.2698 66.6999 87.4398 67.6299 87.6098 68.5799C87.8298 69.7599 88.0298 70.9499 88.2298 72.1499Z" fill="url(#paint0_linear_301_14127)"/>
<path d="M47.2797 0.579936L52.2697 4.59994L48.6497 26.8299C48.6397 26.8899 48.5697 26.9199 48.5197 26.8899C47.5997 26.3299 41.2097 22.4999 36.9297 22.7199L46.3697 0.809936C46.5197 0.449936 46.9697 0.339936 47.2797 0.579936Z" fill="#009C3B"/>
<path d="M26.99 1.85983L22 5.87983L25.2 26.8298C25.21 26.8898 25.28 26.9198 25.33 26.8898C26.25 26.3298 32.64 22.4998 36.92 22.7198L27.91 2.07983C27.75 1.71983 27.3 1.60983 26.99 1.85983Z" fill="#009C3B"/>
<path d="M60.7401 31.3799H43.8101V42.2799H60.7401V31.3799Z" fill="#009C3B"/>
<path d="M52.0501 41.8598L44.8301 36.3798L52.0501 31.8098L59.7101 36.8298L52.0501 41.8598Z" fill="#F9DA01"/>
<path d="M52.2701 39.7499C53.8828 39.7499 55.1901 38.4426 55.1901 36.8299C55.1901 35.2172 53.8828 33.9099 52.2701 33.9099C50.6574 33.9099 49.3501 35.2172 49.3501 36.8299C49.3501 38.4426 50.6574 39.7499 52.2701 39.7499Z" fill="#002776"/>
<path d="M40.2198 116.45C27.0698 116.45 17.0198 111.7 11.7598 103.61V105.4C17.3798 113.01 27.3698 117.45 40.2198 117.45C51.8198 117.45 61.0898 113.83 66.9098 107.52V105.99C61.3198 112.62 52.0198 116.45 40.2198 116.45Z" fill="#D9E6ED"/>
<path d="M87.0897 65.77H70.4297C70.7097 66.72 70.9697 67.67 71.2097 68.58H87.6097L87.0897 65.77Z" fill="#F9DA01"/>
</g>
<defs>
<linearGradient id="paint0_linear_301_14127" x1="51.0862" y1="19.2744" x2="48.533" y2="122.168" gradientUnits="userSpaceOnUse">
<stop offset="1.01997e-08" stop-color="#1D2836"/>
<stop offset="1" stop-color="#004B64"/>
</linearGradient>
<clipPath id="clip0_301_14127">
<rect width="87.41" height="123.1" fill="white" transform="translate(0.819824 0.449951)"/>
</clipPath>
</defs>
</svg>
