<svg width="79" height="92" viewBox="0 0 79 92" fill="none" xmlns="http://www.w3.org/2000/svg">
<g clip-path="url(#clip0_301_5085)">
<path d="M12.2998 8.63013L11.6998 55.0901L11.6598 57.7901L11.5998 62.5701C11.5598 62.5701 11.0298 62.3501 10.1998 62.0001C7.18984 60.7401 0.339844 57.7801 0.339844 57.7801C1.23984 56.7101 2.05984 55.4501 2.76984 54.1301C3.16984 53.3901 3.52984 52.6401 3.85984 51.8701C5.33984 48.4801 6.14984 44.9901 6.15984 42.9501L6.23984 20.2201C6.23984 14.2701 9.30984 10.9201 11.0798 9.48013C11.0798 9.48013 11.1798 9.40013 11.3598 9.27013C11.9298 8.83013 12.2998 8.63013 12.2998 8.63013Z" fill="#1D2836"/>
<path d="M11.71 55.1001L11.67 57.8001L10.27 57.2301L2.77002 54.1401C3.17002 53.4001 3.53002 52.6501 3.86002 51.8801L10.32 54.5401L11.71 55.1001Z" fill="#F9DA01"/>
<path d="M45.0198 3.32007L44.9398 3.49007C44.7498 3.35007 45.0198 3.32007 45.0198 3.32007Z" fill="url(#paint0_linear_301_5085)"/>
<path d="M78.5096 63.9401H64.6196C64.5696 63.6701 64.2896 62.4801 63.8996 60.8701C63.6996 60.0401 63.4696 59.0901 63.2296 58.1101C62.3296 54.3801 61.2696 50.0601 60.9996 49.0101V91.1701H10.1196V66.5201L10.1496 64.8101L10.1896 63.0001L10.2696 57.8601L11.0796 9.48007C11.0796 9.48007 11.1796 9.40007 11.3596 9.27007C11.9996 8.76007 13.7496 7.48007 16.0896 6.24007C17.2196 5.63007 18.2796 5.11007 19.2796 4.69007C21.4096 3.79007 23.3096 3.32007 25.2496 3.32007L36.7196 21.6001L44.9396 3.49007C45.0696 3.58007 45.4396 3.72007 46.2896 3.94007C48.6196 4.54007 51.9796 5.70007 55.7596 7.94007C60.4396 10.7301 65.9696 16.5701 70.0196 28.5901C70.0196 28.5901 74.3396 41.8101 77.4596 58.1101C77.4696 58.1501 77.4796 58.2001 77.4896 58.2401C77.6496 59.0701 77.7996 59.9001 77.9496 60.7501C77.9596 60.7901 77.9696 60.8301 77.9696 60.8701C78.1596 61.8801 78.3396 62.9101 78.5096 63.9401Z" fill="url(#paint1_linear_301_5085)"/>
<path d="M27.4798 0.960052L22.5498 4.93005L25.7098 25.6401C25.7198 25.7001 25.7898 25.7301 25.8398 25.7001C26.7498 25.1401 33.0698 21.3601 37.2998 21.5801L28.3898 1.18005C28.2298 0.830052 27.7798 0.720052 27.4798 0.960052Z" fill="#009C3B"/>
<path d="M46.1799 0.960052L51.1099 4.93005L47.9499 25.6401C47.9399 25.7001 47.8699 25.7301 47.8199 25.7001C46.9099 25.1401 40.5899 21.3601 36.3599 21.5801L45.2699 1.18005C45.4299 0.830052 45.8799 0.720052 46.1799 0.960052Z" fill="#009C3B"/>
<path d="M55.7899 33.25H40.6499V43H55.7899V33.25Z" fill="#009C3B"/>
<path d="M48.0198 42.6099L41.5698 37.7199L48.0198 33.6299L54.8798 38.1199L48.0198 42.6099Z" fill="#F9DA01"/>
<path d="M48.2199 40.73C49.6613 40.73 50.8299 39.5615 50.8299 38.12C50.8299 36.6785 49.6613 35.51 48.2199 35.51C46.7784 35.51 45.6099 36.6785 45.6099 38.12C45.6099 39.5615 46.7784 40.73 48.2199 40.73Z" fill="#002776"/>
<path d="M35.5696 84.8301C23.8096 84.8301 14.8196 80.5801 10.1196 73.3501V74.9501C15.1496 81.7601 24.0796 85.7301 35.5696 85.7301C45.9396 85.7301 55.7896 82.4901 60.9996 76.8501V75.4801C55.9996 81.4001 46.1196 84.8301 35.5696 84.8301Z" fill="#D9E6ED"/>
<path d="M77.97 60.8701H63.9C63.7 60.0401 63.47 59.0901 63.23 58.1101H77.46C77.47 58.1501 77.48 58.2001 77.49 58.2401C77.65 59.0701 77.8 59.9001 77.95 60.7501C77.96 60.7901 77.97 60.8301 77.97 60.8701Z" fill="#F9DA01"/>
</g>
<defs>
<linearGradient id="paint0_linear_301_5085" x1="44.9446" y1="3.33887" x2="44.941" y2="3.48617" gradientUnits="userSpaceOnUse">
<stop offset="1.01997e-08" stop-color="#1D2836"/>
<stop offset="1" stop-color="#004B64"/>
</linearGradient>
<linearGradient id="paint1_linear_301_5085" x1="45.3452" y1="14.4492" x2="43.4626" y2="90.3151" gradientUnits="userSpaceOnUse">
<stop offset="1.01997e-08" stop-color="#1D2836"/>
<stop offset="1" stop-color="#004B64"/>
</linearGradient>
<clipPath id="clip0_301_5085">
<rect width="78.17" height="90.34" fill="white" transform="translate(0.339844 0.830078)"/>
</clipPath>
</defs>
</svg>
