<svg width="79" height="92" viewBox="0 0 79 92" fill="none" xmlns="http://www.w3.org/2000/svg">
<g clip-path="url(#clip0_301_5070)">
<path d="M12.1299 8.63013L11.5299 55.0901L11.4899 57.7901L11.4299 62.5701C11.3899 62.5701 10.8599 62.3501 10.0299 62.0001C7.01992 60.7401 0.169922 57.7801 0.169922 57.7801C1.06992 56.7101 1.88992 55.4501 2.59992 54.1301C2.99992 53.3901 3.35992 52.6401 3.68992 51.8701C5.16992 48.4801 5.97992 44.9901 5.98992 42.9501L6.06992 20.2201C6.06992 14.2701 9.13992 10.9201 10.9099 9.48013C10.9099 9.48013 11.0099 9.40013 11.1899 9.27013C11.7599 8.83013 12.1299 8.63013 12.1299 8.63013Z" fill="#DCC206"/>
<path d="M11.5401 55.1001L11.5001 57.8001L10.1001 57.2301L2.6001 54.1401C3.0001 53.4001 3.3601 52.6501 3.6901 51.8801L10.1501 54.5401L11.5401 55.1001Z" fill="#009C3B"/>
<path d="M44.8499 3.32007L44.7699 3.49007C44.5799 3.35007 44.8499 3.32007 44.8499 3.32007Z" fill="url(#paint0_linear_301_5070)"/>
<path d="M78.3397 63.9401H64.4497C64.3997 63.6701 64.1197 62.4801 63.7297 60.8701C63.5297 60.0401 63.2997 59.0901 63.0597 58.1101C62.1597 54.3801 61.0997 50.0601 60.8297 49.0101V91.1701H9.94971V66.5201L9.97971 64.8101L10.0197 63.0001L10.0997 57.8601L10.9097 9.48007C10.9097 9.48007 11.0097 9.40007 11.1897 9.27007C11.8297 8.76007 13.5797 7.48007 15.9197 6.24007C17.0497 5.63007 18.1097 5.11007 19.1097 4.69007C21.2397 3.79007 23.1397 3.32007 25.0797 3.32007L36.5497 21.6001L44.7697 3.49007C44.8997 3.58007 45.2697 3.72007 46.1197 3.94007C48.4497 4.54007 51.8097 5.70007 55.5897 7.94007C60.2697 10.7301 65.7997 16.5701 69.8497 28.5901C69.8497 28.5901 74.1697 41.8101 77.2897 58.1101C77.2997 58.1501 77.3097 58.2001 77.3197 58.2401C77.4797 59.0701 77.6297 59.9001 77.7797 60.7501C77.7897 60.7901 77.7997 60.8301 77.7997 60.8701C77.9897 61.8801 78.1697 62.9101 78.3397 63.9401Z" fill="url(#paint1_linear_301_5070)"/>
<path d="M27.3099 0.960052L22.3799 4.93005L25.5399 25.6401C25.5499 25.7001 25.6199 25.7301 25.6699 25.7001C26.5799 25.1401 32.8999 21.3601 37.1299 21.5801L28.2199 1.18005C28.0599 0.830052 27.6099 0.720052 27.3099 0.960052Z" fill="#009C3B"/>
<path d="M46.0099 0.960052L50.9399 4.93005L47.7799 25.6401C47.7699 25.7001 47.6999 25.7301 47.6499 25.7001C46.7399 25.1401 40.4199 21.3601 36.1899 21.5801L45.0999 1.18005C45.2599 0.830052 45.7099 0.720052 46.0099 0.960052Z" fill="#009C3B"/>
<path d="M55.62 33.25H40.48V43H55.62V33.25Z" fill="#009C3B"/>
<path d="M47.8499 42.6099L41.3999 37.7199L47.8499 33.6299L54.7099 38.1199L47.8499 42.6099Z" fill="#F9DA01"/>
<path d="M48.0499 40.73C49.4914 40.73 50.6599 39.5615 50.6599 38.12C50.6599 36.6785 49.4914 35.51 48.0499 35.51C46.6085 35.51 45.4399 36.6785 45.4399 38.12C45.4399 39.5615 46.6085 40.73 48.0499 40.73Z" fill="#002776"/>
<path d="M35.3997 84.8301C23.6397 84.8301 14.6497 80.5801 9.94971 73.3501V74.9501C14.9797 81.7601 23.9097 85.7301 35.3997 85.7301C45.7697 85.7301 55.6197 82.4901 60.8297 76.8501V75.4801C55.8297 81.4001 45.9497 84.8301 35.3997 84.8301Z" fill="#009C3B"/>
<path d="M77.8001 60.8701H63.7301C63.5301 60.0401 63.3001 59.0901 63.0601 58.1101H77.2901C77.3001 58.1501 77.3101 58.2001 77.3201 58.2401C77.4801 59.0701 77.6301 59.9001 77.7801 60.7501C77.7901 60.7901 77.8001 60.8301 77.8001 60.8701Z" fill="#009C3B"/>
</g>
<defs>
<linearGradient id="paint0_linear_301_5070" x1="44.7747" y1="3.33887" x2="44.7711" y2="3.48617" gradientUnits="userSpaceOnUse">
<stop offset="1.01997e-08" stop-color="#1D2836"/>
<stop offset="1" stop-color="#004B64"/>
</linearGradient>
<linearGradient id="paint1_linear_301_5070" x1="45.1753" y1="14.4492" x2="43.2927" y2="90.3151" gradientUnits="userSpaceOnUse">
<stop offset="1.63196e-07" stop-color="#FFDF00"/>
<stop offset="1" stop-color="#B1CB12"/>
</linearGradient>
<clipPath id="clip0_301_5070">
<rect width="78.17" height="90.34" fill="white" transform="translate(0.169922 0.830078)"/>
</clipPath>
</defs>
</svg>
