<svg width="90" height="116" viewBox="0 0 90 116" fill="none" xmlns="http://www.w3.org/2000/svg">
<g clip-path="url(#clip0_301_10949)">
<path d="M19.77 7.96509V18.2251C19.77 42.8251 19.22 53.8451 15.15 62.4851C13.75 65.4451 11.97 67.4951 9.82998 68.8951L0.47998 47.5151C0.55998 47.5351 0.63998 47.5351 0.72998 47.5351C1.83998 47.5351 2.78998 47.1851 3.57998 46.5451C4.44998 45.8751 5.13998 44.8651 5.70998 43.6251C7.77998 39.0651 8.06998 31.3451 8.43998 25.1051C8.59998 22.4451 9.36998 17.7751 11.84 14.7451C14.49 11.4951 17.4 9.33509 19.77 7.96509Z" fill="#1D2836"/>
<path d="M11.8201 58.465L8.98008 59.635L3.58008 46.545C4.45008 45.875 5.14008 44.865 5.71008 43.625L11.8201 58.465Z" fill="#F9DA01"/>
<path d="M83.5202 79.995C83.8102 82.535 83.7802 85.095 83.5002 87.605L83.4902 87.615C83.4002 88.495 83.2702 89.355 83.1102 90.215C81.2402 100.475 75.3702 109.435 70.1102 112.315L70.1902 115.125H12.9002V111.845C6.32016 106.375 3.26016 98.515 2.17016 93.465L2.10016 92.895L1.66016 88.855C1.66016 88.615 1.66016 88.385 1.68016 88.165C1.68016 87.745 1.69016 87.335 1.70016 86.935L1.71016 86.835L1.84016 84.725L1.85016 84.605C2.93016 73.705 8.63016 67.495 8.62016 67.885L7.15016 35.475C7.15016 32.825 6.77016 23.495 8.45016 18.775C9.77016 15.085 13.6602 11.385 13.8202 11.235V11.225C13.8202 11.225 16.2602 9.03501 18.4202 7.83501C23.9202 4.78501 26.0802 4.83501 28.8102 4.83501L28.5802 15.455L40.6402 24.635L53.0502 5.24501C53.0502 5.24501 61.8002 5.53501 70.5502 12.585C70.9602 12.905 71.3602 13.255 71.7702 13.595C73.8802 15.465 75.9702 17.745 77.9102 20.525C80.7502 24.585 82.7502 29.175 84.0102 33.975C85.0602 37.985 86.6402 44.475 88.2102 52.825C88.4002 53.815 88.5802 54.845 88.7702 55.895C88.9202 56.735 89.0702 57.595 89.2202 58.475H77.1402V66.275C77.1402 66.275 77.1502 67.295 77.1702 67.325C77.4902 67.735 80.0802 70.075 81.7502 73.615C82.2001 74.575 82.5902 75.555 82.8402 76.485C83.1502 77.645 83.3902 78.815 83.5202 79.995Z" fill="url(#paint0_linear_301_10949)"/>
<path d="M31.2698 1.25489L25.2998 6.05489L29.1298 31.1149C29.1398 31.1849 29.2198 31.2249 29.2898 31.1849C30.3898 30.5149 37.1098 24.5849 42.2398 24.8549L32.3698 1.52489C32.1798 1.09489 31.6398 0.964888 31.2698 1.25489Z" fill="#009C3B"/>
<path d="M51.9198 1.03494L57.8898 5.83494L54.0598 30.8949C54.0498 30.9649 53.9698 31.0049 53.8998 30.9649C52.7998 30.2949 45.1598 24.3649 40.0298 24.6349L50.8298 1.30494C51.0098 0.87494 51.5598 0.73494 51.9198 1.03494Z" fill="#009C3B"/>
<path d="M70.3602 36.915H53.4302V47.815H70.3602V36.915Z" fill="#009C3B"/>
<path d="M61.6702 47.395L54.4502 41.915L61.6702 37.345L69.3302 42.365L61.6702 47.395Z" fill="#F9DA01"/>
<path d="M61.8902 45.2851C63.5029 45.2851 64.8102 43.9777 64.8102 42.3651C64.8102 40.7524 63.5029 39.4451 61.8902 39.4451C60.2775 39.4451 58.9702 40.7524 58.9702 42.3651C58.9702 43.9777 60.2775 45.2851 61.8902 45.2851Z" fill="#002776"/>
<path d="M43.9302 102.255C24.9402 102.255 10.1802 95.755 1.8502 84.605L1.8402 84.725L1.7102 86.835L1.7002 86.935C10.4602 97.605 25.2102 103.775 43.9302 103.775C60.6302 103.775 74.1702 98.865 83.1102 90.215C83.2702 89.355 83.4002 88.495 83.4902 87.615C74.8702 96.915 61.1502 102.255 43.9302 102.255Z" fill="#D9E6ED"/>
<path d="M88.7697 55.895H76.7397V52.825H88.2097C88.3997 53.815 88.5797 54.845 88.7697 55.895Z" fill="#F9DA01"/>
</g>
<defs>
<linearGradient id="paint0_linear_301_10949" x1="45.4402" y1="6.02391" x2="45.4402" y2="117.681" gradientUnits="userSpaceOnUse">
<stop offset="1.01997e-08" stop-color="#1D2836"/>
<stop offset="1" stop-color="#004B64"/>
</linearGradient>
<clipPath id="clip0_301_10949">
<rect width="88.74" height="114.25" fill="white" transform="translate(0.47998 0.875)"/>
</clipPath>
</defs>
</svg>
