<svg width="109" height="138" viewBox="0 0 109 138" fill="none" xmlns="http://www.w3.org/2000/svg">
<g clip-path="url(#clip0_301_8003)">
<path d="M24 8.6748V21.0948C24 50.8648 23.34 64.2048 18.41 74.6648C17.65 76.2848 16.16 77.3648 14.43 78.1348C13.25 78.6548 11.96 79.0248 10.69 79.3148C9.71 79.5448 8.74 79.7348 7.85 79.9048C7.85 79.9048 0 54.3748 0 54.0548C0.89 54.0548 1.71 53.8948 2.45 53.5948C3.74 53.0848 4.82 52.1548 5.7 50.9048C8.98 46.3148 9.81 37.4648 10.29 29.4148C10.48 26.2048 11.41 20.5448 14.4 16.8748C17.61 12.9448 21.13 10.3248 24 8.6748Z" fill="#03246A"/>
<path d="M14.8002 79.2748C13.7002 80.0148 12.5702 80.7748 11.4002 81.5348L10.6902 79.3148L2.4502 53.5948C3.7402 53.0848 4.8202 52.1548 5.7002 50.9048L14.4302 78.1348L14.8002 79.2748Z" fill="#F9DA01"/>
<path d="M93.6698 93.7648C99.8698 109.975 93.1298 127.275 83.9298 132.315V137.905L49.6698 137.785V137.905H15.6998V131.655C7.72984 125.035 4.01984 118.285 2.69984 112.165L2.61984 111.475L2.08984 106.585C2.08984 106.305 2.08984 106.025 2.10984 105.755C2.38984 95.5348 8.37984 88.3548 8.36984 88.8848L8.72984 41.9748C8.72984 38.7648 8.27984 27.4748 10.3098 21.7548C11.8998 17.2948 16.6198 12.8148 16.8098 12.6348V12.6248C16.8098 12.6248 19.7598 9.97483 22.3798 8.51483C29.0298 4.82483 31.6498 4.88483 34.9498 4.88483L34.6698 17.7448L49.2798 28.8548L64.2898 5.38483C64.2898 5.38483 74.8898 5.73483 85.4799 14.2648C85.9698 14.6548 86.4598 15.0748 86.9498 15.4948C89.5098 17.7548 92.0398 20.5148 94.3898 23.8748C97.8298 28.7948 100.25 34.3548 101.77 40.1648C103.06 45.0648 104.98 53.0448 106.91 63.2948C107.15 64.5648 107.39 65.8748 107.63 67.2148C107.78 68.0648 107.93 68.9248 108.08 69.8048H87.4598C87.4598 69.8048 90.0598 84.3448 93.6698 93.7648Z" fill="url(#paint0_linear_301_8003)"/>
<path d="M36.0098 0.284889L28.7798 6.09489L33.4098 36.4249C33.4198 36.5149 33.5198 36.5649 33.5998 36.5149C34.9298 35.6949 43.0698 28.5249 49.2698 28.8449L37.3298 0.614889C37.1098 0.0948889 36.4498 -0.0751111 36.0098 0.284889Z" fill="#009C3B"/>
<path d="M63.65 0.284889L70.88 6.09489L66.25 36.4249C66.24 36.5149 66.14 36.5649 66.06 36.5149C64.73 35.6949 55.48 28.5249 49.27 28.8449L62.33 0.614889C62.55 0.0948889 63.21 -0.0751111 63.65 0.284889Z" fill="#009C3B"/>
<path d="M76.5799 46.0249H59.6499V56.9249H76.5799V46.0249Z" fill="#009C3B"/>
<path d="M67.8899 56.5048L60.6699 51.0248L67.8899 46.4548L75.5499 51.4748L67.8899 56.5048Z" fill="#F9DA01"/>
<path d="M68.1099 54.3949C69.7226 54.3949 71.0299 53.0876 71.0299 51.4749C71.0299 49.8623 69.7226 48.5549 68.1099 48.5549C66.4973 48.5549 65.1899 49.8623 65.1899 51.4749C65.1899 53.0876 66.4973 54.3949 68.1099 54.3949Z" fill="#002776"/>
<path d="M95.34 114.085C84.24 122.505 67.62 127.865 49.07 127.865C30.78 127.865 14.38 122.655 3.29004 114.435C3.45004 114.965 3.64004 115.505 3.85004 116.045C15.09 123.915 31.2 128.855 49.07 128.855C67.33 128.855 83.75 123.695 95.02 115.525C95.14 115.055 95.25 114.565 95.34 114.085Z" fill="#D9E6ED"/>
<path d="M107.63 67.2149H86.1001V63.2949H106.91C107.15 64.5649 107.39 65.8749 107.63 67.2149Z" fill="#F9DA01"/>
<path d="M86.13 62.5549L85.48 86.6949C85.48 86.6949 90.75 87.7949 94.34 95.0249L86.13 62.5549Z" fill="#1D2836"/>
</g>
<defs>
<linearGradient id="paint0_linear_301_8003" x1="55.0849" y1="18.8199" x2="55.0849" y2="138.859" gradientUnits="userSpaceOnUse">
<stop stop-color="#002776"/>
<stop offset="1" stop-color="#004B64"/>
</linearGradient>
<clipPath id="clip0_301_8003">
<rect width="108.08" height="137.81" fill="white" transform="translate(0 0.0949707)"/>
</clipPath>
</defs>
</svg>
