<svg width="89" height="116" viewBox="0 0 89 116" fill="none" xmlns="http://www.w3.org/2000/svg">
<g clip-path="url(#clip0_301_10896)">
<path d="M19.29 7.96509V18.2251C19.29 42.8251 18.74 53.8451 14.67 62.4851C13.27 65.4451 11.49 67.4951 9.35 68.8951L0 47.5151C0.08 47.5351 0.16 47.5351 0.25 47.5351C1.36 47.5351 2.31 47.1851 3.1 46.5451C3.97 45.8751 4.66 44.8651 5.23 43.6251C7.3 39.0651 7.59 31.3451 7.96 25.1051C8.12 22.4451 8.89 17.7751 11.36 14.7451C14.01 11.4951 16.92 9.33509 19.29 7.96509Z" fill="#03246A"/>
<path d="M11.3401 58.465L8.5001 59.635L3.1001 46.545C3.9701 45.875 4.6601 44.865 5.2301 43.625L11.3401 58.465Z" fill="#F9DA01"/>
<path d="M83.0402 79.995C83.3302 82.535 83.3002 85.095 83.0202 87.605L83.0102 87.615C82.9202 88.495 82.7902 89.355 82.6302 90.215C80.7602 100.475 74.8902 109.435 69.6302 112.315L69.7102 115.125H12.4202V111.845C5.84018 106.375 2.78018 98.515 1.69018 93.465L1.62018 92.895L1.18018 88.855C1.18018 88.615 1.18018 88.385 1.20018 88.165C1.20018 87.745 1.21018 87.335 1.22018 86.935L1.23018 86.835L1.36018 84.725L1.37018 84.605C2.45018 73.705 8.15018 67.495 8.14018 67.885L6.67018 35.475C6.67018 32.825 6.29018 23.495 7.97018 18.775C9.29018 15.085 13.1802 11.385 13.3402 11.235V11.225C13.3402 11.225 15.7802 9.03501 17.9402 7.83501C23.4402 4.78501 25.6002 4.83501 28.3302 4.83501L28.1002 15.455L40.1602 24.635L52.5702 5.24501C52.5702 5.24501 61.3202 5.53501 70.0702 12.585C70.4802 12.905 70.8802 13.255 71.2902 13.595C73.4002 15.465 75.4902 17.745 77.4302 20.525C80.2702 24.585 82.2702 29.175 83.5302 33.975C84.5802 37.985 86.1602 44.475 87.7302 52.825C87.9202 53.815 88.1002 54.845 88.2902 55.895C88.4402 56.735 88.5902 57.595 88.7402 58.475H76.6602V66.275C76.6602 66.275 76.6702 67.295 76.6902 67.325C77.0102 67.735 79.6002 70.075 81.2702 73.615C81.7202 74.575 82.1102 75.555 82.3602 76.485C82.6702 77.645 82.9102 78.815 83.0402 79.995Z" fill="url(#paint0_linear_301_10896)"/>
<path d="M30.7898 1.25489L24.8198 6.05489L28.6498 31.1149C28.6598 31.1849 28.7398 31.2249 28.8098 31.1849C29.9098 30.5149 36.6298 24.5849 41.7598 24.8549L31.8898 1.52489C31.6998 1.09489 31.1598 0.964888 30.7898 1.25489Z" fill="#009C3B"/>
<path d="M51.4398 1.03494L57.4098 5.83494L53.5798 30.8949C53.5698 30.9649 53.4898 31.0049 53.4198 30.9649C52.3198 30.2949 44.6798 24.3649 39.5498 24.6349L50.3498 1.30494C50.5298 0.87494 51.0798 0.73494 51.4398 1.03494Z" fill="#009C3B"/>
<path d="M69.8802 36.915H52.9502V47.815H69.8802V36.915Z" fill="#009C3B"/>
<path d="M61.1902 47.395L53.9702 41.915L61.1902 37.345L68.8502 42.365L61.1902 47.395Z" fill="#F9DA01"/>
<path d="M61.4102 45.2851C63.0229 45.2851 64.3302 43.9777 64.3302 42.3651C64.3302 40.7524 63.0229 39.4451 61.4102 39.4451C59.7976 39.4451 58.4902 40.7524 58.4902 42.3651C58.4902 43.9777 59.7976 45.2851 61.4102 45.2851Z" fill="#002776"/>
<path d="M43.4502 102.255C24.4602 102.255 9.70021 95.755 1.37021 84.605L1.36021 84.725L1.23021 86.835L1.22021 86.935C9.98022 97.605 24.7302 103.775 43.4502 103.775C60.1502 103.775 73.6902 98.865 82.6302 90.215C82.7902 89.355 82.9202 88.495 83.0102 87.615C74.3902 96.915 60.6702 102.255 43.4502 102.255Z" fill="#D9E6ED"/>
<path d="M88.2898 55.895H76.2598V52.825H87.7298C87.9198 53.815 88.0998 54.845 88.2898 55.895Z" fill="#F9DA01"/>
</g>
<defs>
<linearGradient id="paint0_linear_301_10896" x1="44.9602" y1="6.02391" x2="44.9602" y2="117.681" gradientUnits="userSpaceOnUse">
<stop stop-color="#002776"/>
<stop offset="1" stop-color="#004B64"/>
</linearGradient>
<clipPath id="clip0_301_10896">
<rect width="88.74" height="114.25" fill="white" transform="translate(0 0.875)"/>
</clipPath>
</defs>
</svg>
