<svg width="88" height="124" viewBox="0 0 88 124" fill="none" xmlns="http://www.w3.org/2000/svg">
<g clip-path="url(#clip0_301_3516)">
<path d="M13.38 10.3L12.71 62.26L12.67 65.2801L12.6 70.62C12.56 70.62 11.96 70.37 11.03 69.98C7.66 68.57 0 65.26 0 65.26C1.01 64.06 1.92 62.66 2.72 61.18C3.17 60.35 3.57 59.51 3.94 58.65C5.59 54.86 6.5 50.96 6.51 48.68L6.6 23.26C6.6 16.61 10.03 12.86 12.01 11.25C12.01 11.25 12.12 11.16 12.32 11.01C12.96 10.52 13.38 10.3 13.38 10.3Z" fill="#03246A"/>
<path d="M12.7102 62.2599L12.6702 65.2799L11.1102 64.6399L2.72021 61.1799C3.17021 60.3499 3.57021 59.5099 3.94021 58.6499L11.1602 61.6299L12.7102 62.2599Z" fill="#F9DA01"/>
<path d="M87.4099 72.1499H71.2299C71.0299 71.0999 70.7299 69.8799 70.3899 68.5799C70.1499 67.6699 69.8899 66.7199 69.6099 65.7699C68.3299 61.4199 66.7799 56.9399 66.0899 55.4499V123.55H33.0599V123.54H10.9399V75.0299L10.9699 73.1199L11.0099 71.0999L11.0999 65.3499L12.0099 11.2499C12.0099 11.2499 12.1199 11.1599 12.3199 11.0099C13.0399 10.4399 14.9899 9.00986 17.6099 7.61986C18.8799 6.93986 20.0599 6.35986 21.1799 5.88986C23.5599 4.88986 25.6799 4.35986 27.8499 4.35986L36.0999 22.7199L47.6899 4.35986C47.6899 4.35986 49.0799 4.45986 51.3799 5.04986C53.9899 5.71986 57.7499 7.01986 61.9699 9.51986C67.2099 12.6399 73.3899 19.1799 77.9199 32.6199C77.9199 32.6199 82.7699 47.4799 86.2699 65.7699C86.4499 66.6999 86.6199 67.6299 86.7899 68.5799C87.0099 69.7599 87.2099 70.9499 87.4099 72.1499Z" fill="url(#paint0_linear_301_3516)"/>
<path d="M46.4599 0.579936L51.4499 4.59994L47.8299 26.8299C47.8199 26.8899 47.7499 26.9199 47.6999 26.8899C46.7799 26.3299 40.3899 22.4999 36.1099 22.7199L45.5499 0.809936C45.6999 0.449936 46.1499 0.339936 46.4599 0.579936Z" fill="#009C3B"/>
<path d="M26.1702 1.85983L21.1802 5.87983L24.3802 26.8298C24.3902 26.8898 24.4602 26.9198 24.5102 26.8898C25.4302 26.3298 31.8202 22.4998 36.1002 22.7198L27.0902 2.07983C26.9302 1.71983 26.4802 1.60983 26.1702 1.85983Z" fill="#009C3B"/>
<path d="M59.9202 31.3799H42.9902V42.2799H59.9202V31.3799Z" fill="#009C3B"/>
<path d="M51.2303 41.8598L44.0103 36.3798L51.2303 31.8098L58.8903 36.8298L51.2303 41.8598Z" fill="#F9DA01"/>
<path d="M51.4503 39.7499C53.0629 39.7499 54.3703 38.4426 54.3703 36.8299C54.3703 35.2172 53.0629 33.9099 51.4503 33.9099C49.8376 33.9099 48.5303 35.2172 48.5303 36.8299C48.5303 38.4426 49.8376 39.7499 51.4503 39.7499Z" fill="#002776"/>
<path d="M39.3999 116.45C26.2499 116.45 16.1999 111.7 10.9399 103.61V105.4C16.5599 113.01 26.5499 117.45 39.3999 117.45C50.9999 117.45 60.2699 113.83 66.0899 107.52V105.99C60.4999 112.62 51.1999 116.45 39.3999 116.45Z" fill="#D9E6ED"/>
<path d="M86.2699 65.77H69.6099C69.8899 66.72 70.1499 67.67 70.3899 68.58H86.7899L86.2699 65.77Z" fill="#F9DA01"/>
</g>
<defs>
<linearGradient id="paint0_linear_301_3516" x1="50.2663" y1="19.2744" x2="47.7131" y2="122.168" gradientUnits="userSpaceOnUse">
<stop stop-color="#002776"/>
<stop offset="1" stop-color="#004B64"/>
</linearGradient>
<clipPath id="clip0_301_3516">
<rect width="87.41" height="123.1" fill="white" transform="translate(0 0.449951)"/>
</clipPath>
</defs>
</svg>
