<svg width="75" height="86" viewBox="0 0 75 86" fill="none" xmlns="http://www.w3.org/2000/svg">
<g clip-path="url(#clip0_223_2656)">
<path d="M8.08196 20.5048L0.226074 28.3607L44.2431 72.3777L52.0989 64.5218L8.08196 20.5048Z" fill="#53AEDF"/>
<path d="M28.5752 0.0131373L20.0547 8.53369L64.0717 52.5507L72.5922 44.0301L28.5752 0.0131373Z" fill="#53AEDF"/>
<path d="M20.0542 8.53929L8.08301 20.5105L52.1 64.5275L64.0712 52.5563L20.0542 8.53929Z" fill="white"/>
<path d="M40.9301 31.6849C40.7501 31.7049 38.1401 34.2149 37.8701 34.4949L38.1601 34.7849C38.1601 34.7849 40.9201 32.0749 41.0301 31.7649C41.0901 31.6249 40.9301 31.6849 40.9301 31.6849Z" fill="#FFB30E"/>
<path d="M38.1601 34.8248L37.8301 34.4948L37.8501 34.4748C38.0001 34.3248 40.7301 31.6848 40.9301 31.6548C40.9301 31.6548 41.0101 31.6248 41.0501 31.6648C41.0701 31.6848 41.0701 31.7248 41.0601 31.7648C40.9401 32.0748 38.2901 34.6848 38.1801 34.7948L38.1601 34.8248ZM37.9001 34.4948L38.1601 34.7548C38.3901 34.5248 40.9001 32.0448 41.0101 31.7548C41.0201 31.7248 41.0201 31.7048 41.0101 31.6948C41.0001 31.6848 40.9601 31.6848 40.9301 31.6948C40.7701 31.7348 38.3001 34.1048 37.9001 34.4948Z" fill="#983107"/>
<path d="M38.0103 34.6149L39.7803 32.8649L38.0503 34.6549L38.0103 34.6149Z" fill="#983107"/>
<path d="M38.71 30.2848C38.55 30.3748 37.13 33.6848 36.98 34.0448L37.37 34.1848C37.37 34.1848 38.85 30.6448 38.83 30.3148C38.83 30.1648 38.71 30.2848 38.71 30.2848Z" fill="#FFB30E"/>
<path d="M36.9502 34.0548L36.9602 34.0348C37.0402 33.8448 38.5202 30.3648 38.7002 30.2648C38.7302 30.2348 38.8002 30.1948 38.8402 30.2348C38.8602 30.2548 38.8602 30.2748 38.8702 30.3148C38.8902 30.6448 37.4602 34.0548 37.4002 34.1948L37.3902 34.2148L36.9502 34.0548ZM38.8002 30.2648C38.7802 30.2448 38.7402 30.2748 38.7202 30.2948C38.5702 30.3848 37.2202 33.5148 37.0102 34.0248L37.3602 34.1548C37.4902 33.8548 38.8302 30.6248 38.8102 30.3148C38.8202 30.2848 38.8102 30.2748 38.8002 30.2648Z" fill="#983107"/>
<path d="M37.1602 34.0948L38.1202 31.8048L37.2202 34.1048L37.1602 34.0948Z" fill="#983107"/>
<path d="M42.36 33.9249C42.19 33.8749 38.84 35.1649 38.48 35.3149L38.62 35.7049C38.62 35.7049 42.19 34.2849 42.42 34.0449C42.52 33.9349 42.36 33.9249 42.36 33.9249Z" fill="#FFB30E"/>
<path d="M38.5999 35.7349L38.4399 35.2949L38.4599 35.2849C38.6499 35.2049 42.1699 33.8449 42.3599 33.8949C42.3599 33.8949 42.4199 33.8949 42.4499 33.9249C42.4699 33.9449 42.4899 33.9849 42.4299 34.0449C42.1999 34.2849 38.7699 35.6549 38.6199 35.7149L38.5999 35.7349ZM38.5099 35.3249L38.6399 35.6749C38.9399 35.5549 42.1899 34.2549 42.4099 34.0249C42.4299 33.9949 42.4399 33.9749 42.4299 33.9649C42.4099 33.9449 42.3799 33.9449 42.3599 33.9449C42.1899 33.9049 39.0199 35.1149 38.5099 35.3249Z" fill="#983107"/>
<path d="M38.5498 35.4749L40.8498 34.5649L38.5698 35.5349L38.5498 35.4749Z" fill="#983107"/>
<path d="M42.8 36.3749C42.66 36.2649 39.13 36.2749 38.74 36.2749L38.73 36.7049C38.73 36.7049 42.51 36.6549 42.81 36.5149C42.94 36.4349 42.8 36.3749 42.8 36.3749Z" fill="#FFB30E"/>
<path d="M38.71 36.7249L38.72 36.2549H38.74C38.95 36.2549 42.66 36.2349 42.81 36.3549C42.81 36.3549 42.84 36.3649 42.86 36.3849C42.89 36.4149 42.89 36.4349 42.89 36.4549C42.88 36.4849 42.86 36.5049 42.82 36.5249C42.52 36.6749 38.88 36.7249 38.73 36.7249H38.71ZM38.77 36.2949L38.76 36.6749C39.08 36.6749 42.52 36.6149 42.8 36.4849C42.82 36.4749 42.84 36.4549 42.84 36.4449C42.84 36.4349 42.83 36.4249 42.83 36.4149C42.81 36.3949 42.79 36.3849 42.79 36.3849C42.65 36.2949 39.31 36.2949 38.77 36.2949Z" fill="#983107"/>
<path d="M38.75 36.4649L41.18 36.4349L38.75 36.5249V36.4649Z" fill="#983107"/>
<path d="M41.85 32.8449C41.78 32.7649 41.37 32.6649 41.04 32.9749C40.71 33.2849 40.31 33.5949 40.16 33.6749C40.01 33.7549 39.31 34.0549 38.97 34.2849C38.63 34.5049 38.25 34.8849 38.25 34.8849L38.45 35.2349C38.45 35.2349 38.96 34.8449 39.09 34.7049C39.23 34.5649 40.03 34.1349 40.2 34.0549C40.44 33.9449 40.73 33.6449 40.91 33.4349C41.08 33.2249 41.18 32.9549 41.42 32.9449C41.66 32.9449 41.96 32.9649 41.85 32.8449Z" fill="#FFB30E"/>
<path d="M38.4502 35.2749L38.2202 34.8849L38.2302 34.8749C38.2302 34.8749 38.6202 34.4849 38.9602 34.2649C39.2002 34.1049 39.6202 33.9149 39.9002 33.7849C40.0202 33.7349 40.1102 33.6849 40.1502 33.6649C40.2902 33.5849 40.6902 33.2849 41.0202 32.9749C41.3402 32.6649 41.7602 32.7449 41.8602 32.8349C41.8902 32.8649 41.9002 32.8949 41.8902 32.9149C41.8602 32.9749 41.7502 32.9749 41.5502 32.9849C41.5102 32.9849 41.4702 32.9849 41.4302 32.9849C41.2702 32.9949 41.1702 33.1249 41.0702 33.2849C41.0302 33.3449 40.9902 33.4049 40.9402 33.4649C40.8502 33.5749 40.5102 33.9549 40.2202 34.0849C40.0402 34.1649 39.2502 34.5849 39.1202 34.7249C38.9902 34.8649 38.5002 35.2449 38.4702 35.2649L38.4502 35.2749ZM38.2802 34.8949L38.4602 35.2049C38.5602 35.1249 38.9602 34.8149 39.0802 34.6949C39.2202 34.5449 40.0302 34.1249 40.2002 34.0449C40.4802 33.9149 40.8102 33.5449 40.9002 33.4349C40.9502 33.3749 40.9902 33.3149 41.0302 33.2549C41.1402 33.0949 41.2402 32.9449 41.4302 32.9349C41.4702 32.9349 41.5102 32.9349 41.5502 32.9349C41.6602 32.9349 41.8402 32.9249 41.8502 32.8949C41.8502 32.8949 41.8502 32.8849 41.8302 32.8649C41.7602 32.7949 41.3802 32.6949 41.0602 32.9949C40.7302 33.3149 40.3202 33.6149 40.1802 33.6949C40.1402 33.7149 40.0402 33.7649 39.9202 33.8149C39.6402 33.9449 39.2302 34.1349 38.9902 34.2949C38.7002 34.4949 38.3502 34.8249 38.2802 34.8949Z" fill="#983107"/>
<path d="M38.3701 35.0349C38.3701 35.0349 38.6201 34.7649 38.7701 34.6349C38.7701 34.6349 39.2301 34.2049 39.8901 33.9949C40.1601 33.9049 40.2801 33.8049 40.3501 33.7649C40.3501 33.7649 40.1401 33.9349 39.8901 34.0349C39.6401 34.1349 39.3001 34.2149 38.6301 34.8249L38.3801 35.0949L38.3701 35.0349Z" fill="#983107"/>
<path d="M42.7199 35.2849C42.6799 35.1849 42.3599 34.9349 41.9399 35.0949C41.5199 35.2649 41.0399 35.3849 40.8699 35.4049C40.7099 35.4249 39.9599 35.4349 39.5599 35.5049C39.1699 35.5749 38.6699 35.7949 38.6699 35.7949L38.7199 36.2049C38.7199 36.2049 39.3299 36.0349 39.5099 35.9549C39.6899 35.8749 40.5799 35.7849 40.7699 35.7849C41.0299 35.7749 41.4099 35.6049 41.6499 35.4849C41.8899 35.3549 42.0799 35.1449 42.2999 35.2249C42.4999 35.3049 42.7699 35.4349 42.7199 35.2849Z" fill="#FFB30E"/>
<path d="M38.6999 36.2349L38.6499 35.7748L38.6699 35.7649C38.6799 35.7649 39.1799 35.5548 39.5599 35.4748C39.8399 35.4248 40.2999 35.4048 40.5999 35.3848C40.7299 35.3748 40.8299 35.3748 40.8799 35.3648C41.0399 35.3448 41.5199 35.2249 41.9399 35.0549C42.2999 34.9149 42.5799 35.0649 42.6899 35.1749C42.7199 35.2049 42.7399 35.2349 42.7499 35.2549C42.7599 35.2949 42.7599 35.3249 42.7399 35.3349C42.6899 35.3749 42.5899 35.3349 42.3999 35.2649C42.3599 35.2449 42.3299 35.2348 42.2899 35.2248C42.1399 35.1648 41.9999 35.2548 41.8499 35.3648C41.7899 35.4048 41.7299 35.4449 41.6599 35.4849C41.5299 35.5549 41.0899 35.7748 40.7699 35.7948C40.5699 35.8048 39.6999 35.8849 39.5199 35.9649C39.3399 36.0449 38.7499 36.2049 38.7299 36.2149L38.6999 36.2349ZM38.6899 35.8148L38.7299 36.1848C38.8499 36.1548 39.3299 36.0149 39.4899 35.9449C39.6699 35.8649 40.5699 35.7749 40.7499 35.7649C41.0499 35.7549 41.4899 35.5349 41.6199 35.4649C41.6799 35.4349 41.7499 35.3849 41.7999 35.3549C41.9599 35.2449 42.1199 35.1448 42.2899 35.2048C42.3299 35.2148 42.3599 35.2348 42.3999 35.2448C42.4999 35.2848 42.6599 35.3549 42.6799 35.3249C42.6799 35.3249 42.6799 35.3148 42.6799 35.2948C42.6499 35.2048 42.3399 34.9548 41.9299 35.1148C41.5099 35.2848 41.0199 35.4149 40.8599 35.4249C40.8099 35.4349 40.7099 35.4349 40.5799 35.4449C40.2799 35.4549 39.8299 35.4749 39.5499 35.5349C39.2199 35.6049 38.7899 35.7748 38.6899 35.8148Z" fill="#983107"/>
<path d="M38.7099 35.9848C38.7099 35.9848 39.0399 35.8248 39.2299 35.7748C39.2299 35.7748 39.8099 35.5448 40.4899 35.6148C40.7699 35.6348 40.9099 35.5848 40.9899 35.5748C40.9899 35.5748 40.7299 35.6548 40.4699 35.6448C40.2099 35.6448 39.8699 35.5748 39.0199 35.8948L38.6899 36.0448L38.7099 35.9848Z" fill="#983107"/>
<path d="M42.1799 39.0449C42.0999 38.8849 38.9499 37.4349 38.5999 37.2849L38.4199 37.6749C38.4199 37.6749 41.8099 39.1849 42.1399 39.1749C42.2799 39.1649 42.1799 39.0449 42.1799 39.0449Z" fill="#FFB30E"/>
<path d="M38.3901 37.6849L38.6001 37.2449L38.6201 37.2549C38.9101 37.3849 41.9801 38.7949 42.1901 39.0049C42.2001 39.0149 42.2001 39.0149 42.2001 39.0249C42.2001 39.0249 42.2501 39.0949 42.2301 39.1449C42.2201 39.1749 42.1801 39.1949 42.1301 39.1949C41.8001 39.2049 38.5401 37.7549 38.4001 37.6949L38.3901 37.6849ZM38.6201 37.3149L38.4601 37.6649C38.7501 37.7949 41.8401 39.1649 42.1501 39.1549C42.1801 39.1549 42.2001 39.1449 42.2001 39.1349C42.2101 39.1149 42.1901 39.0849 42.1701 39.0649C42.1701 39.0649 42.1701 39.0549 42.1601 39.0549C41.9601 38.8449 39.0901 37.5249 38.6201 37.3149Z" fill="#983107"/>
<path d="M38.5303 37.4548L40.7203 38.4348L38.5103 37.5148L38.5303 37.4548Z" fill="#983107"/>
<path d="M40.7398 41.165C40.7298 40.985 38.3298 38.495 38.0698 38.225L37.7598 38.535C37.7598 38.535 40.3398 41.175 40.6498 41.275C40.7898 41.305 40.7398 41.165 40.7398 41.165Z" fill="#FFB30E"/>
<path d="M38.45 39.2549C38.05 38.8549 37.75 38.5549 37.75 38.5449L37.73 38.5249L38.07 38.1849L38.09 38.2049C38.23 38.3449 40.75 40.9649 40.77 41.1549C40.77 41.1549 40.8 41.2349 40.76 41.2749C40.74 41.2949 40.7 41.3049 40.65 41.2849C40.45 41.2249 39.34 40.1449 38.45 39.2549ZM37.8 38.5249C37.87 38.5949 38.14 38.8649 38.48 39.2149C39.74 40.4749 40.51 41.1949 40.66 41.2449C40.69 41.2549 40.71 41.2549 40.72 41.2449C40.73 41.2349 40.73 41.1949 40.72 41.1649C40.7 40.9949 38.44 38.6249 38.07 38.2549L37.8 38.5249Z" fill="#983107"/>
<path d="M37.9502 38.365L39.6102 40.065L37.9102 38.415L37.9502 38.365Z" fill="#983107"/>
<path d="M42.5999 37.8949C42.6099 37.7849 42.4099 37.4249 41.9699 37.4149C41.5299 37.4049 41.0399 37.3449 40.8899 37.2949C40.7399 37.2449 40.0599 36.9649 39.6599 36.8849C39.2799 36.8049 38.7499 36.8049 38.7499 36.8049L38.6299 37.2049C38.6299 37.2049 39.2499 37.2849 39.4399 37.2749C39.6299 37.2649 40.4699 37.5349 40.6399 37.5949C40.8799 37.6849 41.2899 37.6749 41.5499 37.6549C41.8199 37.6249 42.0699 37.4949 42.2399 37.6649C42.3999 37.8349 42.5799 38.0649 42.5999 37.8949Z" fill="#FFB30E"/>
<path d="M38.5898 37.2449L38.7198 36.7949H38.7398C38.7498 36.7949 39.2798 36.7949 39.6598 36.8749C39.9398 36.9349 40.3598 37.0849 40.6298 37.1949C40.7498 37.2349 40.8398 37.2749 40.8898 37.2849C41.0398 37.3249 41.5198 37.3949 41.9698 37.4049C42.2198 37.4049 42.3798 37.5149 42.4698 37.6049C42.5798 37.7149 42.6298 37.8349 42.6298 37.9049C42.6298 37.9449 42.6098 37.9749 42.5898 37.9849C42.5398 38.0049 42.4798 37.9549 42.3798 37.8549C42.3598 37.8349 42.3298 37.8049 42.3098 37.7849C42.2898 37.7649 42.2598 37.7349 42.2398 37.7149L42.2298 37.7049C42.1198 37.5949 41.9598 37.6249 41.7698 37.6649C41.6998 37.6749 41.6298 37.6949 41.5498 37.7049C41.4098 37.7149 40.9198 37.7549 40.6298 37.6449C40.4498 37.5749 39.6198 37.3149 39.4398 37.3249C39.2498 37.3349 38.6498 37.2549 38.6298 37.2549L38.5898 37.2449ZM38.7598 36.8449L38.6598 37.2049C38.7798 37.2149 39.2698 37.2749 39.4398 37.2749C39.6398 37.2649 40.4798 37.5349 40.6498 37.5949C40.9298 37.7049 41.4098 37.6649 41.5498 37.6449C41.6198 37.6349 41.6898 37.6249 41.7598 37.6049C41.9498 37.5649 42.1298 37.5249 42.2598 37.6549L42.2698 37.6649C42.2898 37.6849 42.3198 37.7149 42.3398 37.7349C42.3598 37.7549 42.3898 37.7849 42.4098 37.8049C42.5298 37.9249 42.5598 37.9249 42.5698 37.9249C42.5698 37.9249 42.5798 37.9149 42.5798 37.8949C42.5798 37.8449 42.5398 37.7349 42.4398 37.6349C42.3598 37.5549 42.2098 37.4449 41.9698 37.4449C41.5198 37.4349 41.0298 37.3749 40.8798 37.3249C40.8298 37.3149 40.7398 37.2749 40.6198 37.2349C40.3398 37.1349 39.9298 36.9749 39.6498 36.9149C39.3098 36.8449 38.8498 36.8449 38.7598 36.8449Z" fill="#983107"/>
<path d="M38.7097 37.005C38.7097 37.005 39.0697 36.985 39.2597 37.005C39.2597 37.005 39.8697 37.015 40.4597 37.335C40.6997 37.455 40.8497 37.475 40.9297 37.495C40.9297 37.495 40.6697 37.465 40.4297 37.365C40.1897 37.255 39.9097 37.075 39.0197 37.045L38.6597 37.065L38.7097 37.005Z" fill="#983107"/>
<path d="M41.4201 40.3049C41.4701 40.2049 41.4301 39.7849 41.0401 39.6049C40.6401 39.4249 40.2301 39.1749 40.1101 39.0749C39.9901 38.9749 39.4801 38.4449 39.1601 38.2149C38.8501 37.9949 38.3601 37.7849 38.3601 37.7849L38.1001 38.1149C38.1001 38.1149 38.6301 38.4249 38.8001 38.4949C38.9801 38.5649 39.6301 39.1349 39.7601 39.2649C39.9401 39.4449 40.3101 39.5949 40.5601 39.6749C40.8101 39.7549 41.0901 39.7349 41.1801 39.9549C41.2701 40.1649 41.3501 40.4549 41.4201 40.3049Z" fill="#FFB30E"/>
<path d="M38.0703 38.1249L38.3603 37.7549L38.3803 37.7649C38.3803 37.7649 38.8703 37.9749 39.1803 38.1949C39.4103 38.3549 39.7203 38.6649 39.9303 38.8749C40.0203 38.9649 40.0903 39.0349 40.1203 39.0649C40.2403 39.1649 40.6503 39.4149 41.0503 39.5949C41.1303 39.6349 41.2103 39.6849 41.2703 39.7449C41.4803 39.9549 41.5003 40.2349 41.4503 40.3249C41.4303 40.3549 41.4203 40.3749 41.3903 40.3749C41.3703 40.3749 41.3503 40.3749 41.3403 40.3549C41.3003 40.3149 41.2603 40.2049 41.2103 40.0849C41.2003 40.0449 41.1803 40.0049 41.1703 39.9749C41.1603 39.9449 41.1403 39.9149 41.1103 39.8849C41.0303 39.8049 40.9103 39.7849 40.7703 39.7549C40.7003 39.7449 40.6303 39.7249 40.5603 39.7049C40.4203 39.6649 39.9703 39.5049 39.7503 39.2949C39.6103 39.1549 38.9703 38.5949 38.8003 38.5249C38.6203 38.4549 38.1103 38.1549 38.0903 38.1449L38.0703 38.1249ZM38.3703 37.8049L38.1403 38.1049C38.2403 38.1649 38.6603 38.4149 38.8203 38.4749C39.0003 38.5449 39.6603 39.1249 39.7903 39.2549C40.0003 39.4649 40.4503 39.6149 40.5803 39.6549C40.6503 39.6749 40.7203 39.6849 40.7803 39.7049C40.9203 39.7349 41.0603 39.7549 41.1403 39.8449C41.1703 39.8749 41.1903 39.9049 41.2103 39.9449C41.2203 39.9849 41.2403 40.0149 41.2503 40.0549C41.2903 40.1649 41.3303 40.2749 41.3703 40.3149C41.3803 40.3249 41.3803 40.3249 41.3803 40.3249C41.3803 40.3249 41.3903 40.3149 41.4003 40.2949C41.4303 40.2249 41.4303 39.9649 41.2303 39.7649C41.1703 39.7049 41.1003 39.6649 41.0303 39.6249C40.6303 39.4449 40.2103 39.1849 40.0903 39.0849C40.0503 39.0549 39.9803 38.9849 39.8903 38.8949C39.6803 38.6949 39.3703 38.3849 39.1403 38.2249C38.8703 38.0349 38.4603 37.8449 38.3703 37.8049Z" fill="#983107"/>
<path d="M38.2602 37.9448C38.2602 37.9448 38.6002 38.0648 38.7602 38.1648C38.7602 38.1648 39.3102 38.4148 39.7202 38.9448C39.8902 39.1548 40.0202 39.2248 40.0802 39.2748C40.0802 39.2748 39.8502 39.1448 39.6802 38.9548C39.5102 38.7648 39.3302 38.4748 38.5302 38.1048L38.2002 37.9848L38.2602 37.9448Z" fill="#983107"/>
<path d="M38.4701 42.7249C38.5301 42.5549 37.3701 39.2649 37.2301 38.9149L36.8301 39.0849C36.8301 39.0849 38.1101 42.5749 38.3401 42.7949C38.4601 42.8849 38.4701 42.7249 38.4701 42.7249Z" fill="#FFB30E"/>
<path d="M38.3303 42.8049C38.0903 42.5649 36.8703 39.2249 36.8103 39.0849L36.8003 39.0649L37.2403 38.8849L37.2503 38.9049C37.3203 39.0949 38.5503 42.5449 38.4903 42.7349C38.4903 42.7349 38.4803 42.8249 38.4303 42.8449C38.4103 42.8549 38.3703 42.8449 38.3303 42.8049ZM36.8703 39.0949C36.9803 39.3949 38.1403 42.5549 38.3703 42.7749C38.3903 42.7949 38.4103 42.8049 38.4203 42.7949C38.4403 42.7849 38.4503 42.7449 38.4503 42.7249C38.5003 42.5549 37.4103 39.4449 37.2203 38.9449L36.8703 39.0949Z" fill="#983107"/>
<path d="M37.0703 38.9949L37.8903 41.2449L37.0103 39.0249L37.0703 38.9949Z" fill="#983107"/>
<path d="M39.5701 42.1349C39.6501 42.0549 39.7701 41.6449 39.4701 41.3349C39.1701 41.0249 38.8801 40.6349 38.8101 40.4949C38.7401 40.3549 38.4601 39.6649 38.2501 39.3349C38.0401 39.0149 37.6701 38.6449 37.6701 38.6449L37.3101 38.8649C37.3101 38.8649 37.6801 39.3549 37.8201 39.4749C37.9601 39.6049 38.3501 40.3849 38.4201 40.5549C38.5201 40.7949 38.8101 41.0649 39.0101 41.2249C39.2101 41.3849 39.4801 41.4749 39.4801 41.7149C39.4801 41.9549 39.4501 42.2549 39.5701 42.1349Z" fill="#FFB30E"/>
<path d="M39.4803 42.1749C39.4403 42.1349 39.4403 42.0249 39.4403 41.8449C39.4403 41.8049 39.4403 41.7649 39.4403 41.7249C39.4403 41.6449 39.4103 41.5849 39.3503 41.5249C39.3003 41.4749 39.2303 41.4249 39.1603 41.3849C39.1003 41.3449 39.0403 41.3049 38.9903 41.2649C38.9303 41.2049 38.8303 41.1149 38.7303 41.0149C38.6103 40.8949 38.4603 40.7249 38.3903 40.5649C38.3203 40.3949 37.9303 39.6349 37.8003 39.5049H37.7903C37.6503 39.3749 37.2903 38.9049 37.2803 38.8849L37.2603 38.8649L37.6603 38.6149L37.6703 38.6249C37.7103 38.6649 38.0503 39.0149 38.2503 39.3249C38.4003 39.5649 38.5803 39.9649 38.7003 40.2449C38.7503 40.3549 38.7903 40.4449 38.8103 40.4949C38.8803 40.6349 39.1703 41.0149 39.4703 41.3349C39.6103 41.4749 39.6803 41.6649 39.6703 41.8649C39.6603 42.0049 39.6103 42.1249 39.5703 42.1649C39.5303 42.2049 39.5003 42.1849 39.4803 42.1749ZM39.3903 41.4849C39.4603 41.5549 39.4903 41.6349 39.4903 41.7249C39.4903 41.7649 39.4903 41.8049 39.4903 41.8449C39.4903 41.9649 39.4803 42.1149 39.5103 42.1449C39.5203 42.1549 39.5403 42.1349 39.5403 42.1249C39.5703 42.0949 39.6203 42.0049 39.6203 41.8549C39.6303 41.7249 39.6003 41.5349 39.4303 41.3549C39.1303 41.0349 38.8403 40.6449 38.7603 40.5049C38.7403 40.4649 38.7003 40.3749 38.6503 40.2549C38.5303 39.9849 38.3503 39.5749 38.2103 39.3449C38.0303 39.0649 37.7103 38.7349 37.6503 38.6649L37.3303 38.8649C37.4003 38.9549 37.7003 39.3449 37.8203 39.4549L37.8303 39.4649C37.9803 39.6149 38.3603 40.3849 38.4303 40.5449C38.4803 40.6749 38.6003 40.8249 38.7603 40.9849C38.8603 41.0849 38.9503 41.1649 39.0103 41.2149C39.0603 41.2549 39.1203 41.2949 39.1803 41.3349C39.2703 41.3849 39.3403 41.4249 39.3903 41.4849Z" fill="#983107"/>
<path d="M37.5102 38.7649C37.5102 38.7649 37.7702 38.9949 37.8902 39.1449C37.8902 39.1449 38.3002 39.5749 38.4802 40.2349C38.5602 40.4949 38.6502 40.6149 38.6902 40.6749C38.6902 40.6749 38.5302 40.4749 38.4402 40.2249C38.3502 39.9849 38.2902 39.6449 37.6902 39.0049L37.4302 38.7749L37.5102 38.7649Z" fill="#983107"/>
<path d="M35.9801 43.2349C36.0901 43.0949 36.2001 39.5549 36.2101 39.1649L35.7801 39.1849C35.7801 39.1849 35.7101 42.9649 35.8401 43.2549C35.9101 43.3749 35.9801 43.2349 35.9801 43.2349Z" fill="#FFB30E"/>
<path d="M35.8602 43.3049C35.8502 43.2949 35.8402 43.2849 35.8302 43.2649C35.6902 42.9749 35.7602 39.3349 35.7602 39.1849V39.1649L36.2302 39.1349V39.1549C36.2302 39.3649 36.1302 43.0749 36.0002 43.2349C36.0002 43.2349 35.9702 43.3049 35.9202 43.3149C35.9002 43.3249 35.8802 43.3249 35.8602 43.3049ZM35.8102 39.2049C35.8002 39.5249 35.7502 42.9649 35.8702 43.2449C35.8802 43.2549 35.8802 43.2649 35.8902 43.2749C35.9002 43.2849 35.9102 43.2849 35.9102 43.2849C35.9302 43.2849 35.9502 43.2449 35.9602 43.2249C36.0702 43.0849 36.1702 39.7349 36.1802 39.1949L35.8102 39.2049Z" fill="#983107"/>
<path d="M36.02 39.1849L35.98 41.6149L35.96 39.1949L36.02 39.1849Z" fill="#983107"/>
<path d="M33.3405 42.8149C33.5005 42.7249 35.0004 39.4549 35.1604 39.0949L34.7705 38.9449C34.7705 38.9449 33.2104 42.4549 33.2104 42.7849C33.2104 42.9249 33.3405 42.8149 33.3405 42.8149Z" fill="#FFB30E"/>
<path d="M33.2102 42.8649C33.1902 42.8449 33.1902 42.8249 33.1802 42.7849C33.1702 42.4549 34.6802 39.0749 34.7402 38.9349L34.7502 38.9149L35.1802 39.0849L35.1702 39.1049C35.0902 39.2949 33.5202 42.7349 33.3402 42.8349C33.3202 42.8649 33.2502 42.9049 33.2102 42.8649ZM34.7802 38.9749C34.6502 39.2749 33.2302 42.4749 33.2302 42.7849C33.2302 42.8149 33.2402 42.8249 33.2402 42.8349C33.2602 42.8549 33.3002 42.8149 33.3202 42.8049C33.4702 42.7149 34.9002 39.6249 35.1202 39.1149L34.7802 38.9749Z" fill="#983107"/>
<path d="M34.9802 39.0449L33.9702 41.3049L34.9202 39.0249L34.9802 39.0449Z" fill="#983107"/>
<path d="M34.5003 43.1349C34.6103 43.1349 34.9803 42.9049 34.9903 42.4649C35.0003 42.0149 35.0803 41.5249 35.1303 41.3749C35.1803 41.2149 35.4703 40.5149 35.5603 40.1149C35.6503 39.7249 35.6503 39.1949 35.6503 39.1949L35.2303 39.1149C35.2303 39.1149 35.1403 39.7349 35.1503 39.9249C35.1603 40.1149 34.8803 40.9749 34.8103 41.1549C34.7103 41.4049 34.7203 41.8049 34.7403 42.0749C34.7603 42.3349 34.8903 42.5849 34.7203 42.7649C34.5603 42.9349 34.3303 43.1449 34.5003 43.1349Z" fill="#FFB30E"/>
<path d="M34.4301 43.1448C34.3801 43.0948 34.4801 42.9848 34.6201 42.8348C34.6501 42.8048 34.6801 42.7748 34.7101 42.7448C34.8201 42.6248 34.7901 42.4648 34.7601 42.2848C34.7501 42.2148 34.7301 42.1448 34.7301 42.0748C34.7201 41.9348 34.6901 41.4448 34.8001 41.1448C34.8701 40.9548 35.1401 40.1148 35.1401 39.9248C35.1301 39.7348 35.2201 39.1348 35.2201 39.1048V39.0748L35.6701 39.1648V39.1848C35.6701 39.1948 35.6701 39.7248 35.5801 40.1148C35.5201 40.3948 35.3501 40.8248 35.2501 41.1148C35.2001 41.2348 35.1701 41.3348 35.1501 41.3748C35.1001 41.5248 35.0301 42.0148 35.0201 42.4648C35.0101 42.6748 34.9301 42.8648 34.7901 43.0048C34.6901 43.1048 34.5701 43.1648 34.5101 43.1648C34.4601 43.1648 34.4401 43.1548 34.4301 43.1448ZM35.2501 39.1348C35.2301 39.2548 35.1701 39.7548 35.1701 39.9148C35.1801 40.1148 34.9001 40.9748 34.8301 41.1548C34.7201 41.4448 34.7501 41.9248 34.7601 42.0648C34.7701 42.1348 34.7801 42.2048 34.7901 42.2748C34.8301 42.4648 34.8601 42.6348 34.7301 42.7748C34.7001 42.8048 34.6701 42.8348 34.6401 42.8648C34.5801 42.9348 34.4301 43.0848 34.4501 43.1048C34.4501 43.1048 34.4601 43.1148 34.4801 43.1148C34.5201 43.1148 34.6201 43.0748 34.7301 42.9748C34.8301 42.8848 34.9401 42.7148 34.9501 42.4748C34.9601 42.0248 35.0401 41.5348 35.0901 41.3748C35.1001 41.3248 35.1401 41.2348 35.1901 41.1048C35.3001 40.8248 35.4601 40.3948 35.5201 40.1148C35.6001 39.7748 35.6101 39.3148 35.6101 39.2148L35.2501 39.1348Z" fill="#983107"/>
<path d="M35.4399 39.1748C35.4399 39.1748 35.4599 39.5348 35.4299 39.7248C35.4299 39.7248 35.4099 40.3348 35.0799 40.9548C34.9499 41.2048 34.9299 41.3548 34.9199 41.4348C34.9199 41.4348 34.9499 41.1648 35.0599 40.9248C35.1699 40.6748 35.3599 40.3848 35.3999 39.4948L35.3899 39.1448L35.4399 39.1748Z" fill="#983107"/>
<path d="M37.0998 43.1449C37.2098 43.1049 37.4698 42.7649 37.3198 42.3549C37.1698 41.9449 37.0598 41.4649 37.0498 41.3049C37.0398 41.1449 37.0598 40.3949 36.9998 39.9949C36.9398 39.6149 36.7498 39.1249 36.7498 39.1249L36.3398 39.1949C36.3398 39.1949 36.4798 39.7949 36.5598 39.9649C36.6398 40.1349 36.6898 41.0249 36.6798 41.2149C36.6798 41.4749 36.8298 41.8449 36.9498 42.0749C37.0698 42.3049 37.2798 42.4849 37.1798 42.7149C37.0898 42.9349 36.9498 43.2049 37.0998 43.1449Z" fill="#FFB30E"/>
<path d="M37.0201 43.1648C36.9801 43.1248 37.0201 43.0148 37.1101 42.8248C37.1301 42.7848 37.1401 42.7448 37.1601 42.7148C37.2201 42.5648 37.1401 42.4248 37.0401 42.2748C37.0001 42.2148 36.9601 42.1548 36.9301 42.0948C36.8701 41.9648 36.6601 41.5348 36.6601 41.2248C36.6601 41.0248 36.6101 40.1548 36.5401 39.9848C36.4601 39.8148 36.3301 39.2348 36.3201 39.2048L36.3101 39.1748L36.7701 39.0948L36.7801 39.1148C36.7801 39.1148 36.9701 39.6148 37.0301 39.9948C37.0701 40.2748 37.0801 40.7248 37.0801 41.0248C37.0801 41.1548 37.0801 41.2548 37.0801 41.3048C37.0901 41.4648 37.2001 41.9348 37.3501 42.3448C37.4201 42.5348 37.4101 42.7448 37.3201 42.9248C37.2601 43.0548 37.1701 43.1448 37.1101 43.1748C37.0701 43.1748 37.0401 43.1748 37.0201 43.1648ZM36.3601 39.2048C36.3901 39.3248 36.5101 39.8048 36.5701 39.9548C36.6501 40.1348 36.7001 41.0248 36.7001 41.2148C36.7001 41.5148 36.9001 41.9448 36.9701 42.0648C37.0001 42.1248 37.0401 42.1848 37.0801 42.2448C37.1801 42.4048 37.2801 42.5448 37.2101 42.7248C37.1901 42.7648 37.1801 42.8048 37.1601 42.8348C37.1201 42.9348 37.0401 43.1048 37.0701 43.1248C37.0701 43.1248 37.0801 43.1248 37.1001 43.1148C37.1401 43.1048 37.2201 43.0248 37.2801 42.8948C37.3401 42.7748 37.3901 42.5848 37.3001 42.3548C37.1501 41.9348 37.0401 41.4548 37.0301 41.2948C37.0301 41.2448 37.0301 41.1448 37.0301 41.0148C37.0301 40.7148 37.0301 40.2648 36.9801 39.9848C36.9301 39.6448 36.7701 39.2248 36.7401 39.1348L36.3601 39.2048Z" fill="#983107"/>
<path d="M36.5602 39.1748C36.5602 39.1748 36.7102 39.4948 36.7502 39.6848C36.7502 39.6848 36.9502 40.2548 36.8602 40.9348C36.8302 41.2148 36.8702 41.3548 36.8802 41.4348C36.8802 41.4348 36.8102 41.1848 36.8302 40.9148C36.8402 40.6548 36.9202 40.3048 36.6302 39.4848L36.4902 39.1648L36.5602 39.1748Z" fill="#983107"/>
<path d="M31.3204 41.465C31.5004 41.445 34.0904 38.915 34.3704 38.635L34.0704 38.345C34.0704 38.345 31.3304 41.075 31.2104 41.385C31.1704 41.525 31.3204 41.465 31.3204 41.465Z" fill="#FFB30E"/>
<path d="M31.2002 41.4849C31.1802 41.4649 31.1802 41.4249 31.1902 41.3849C31.3102 41.0749 33.9402 38.4449 34.0602 38.3349L34.0802 38.3149L34.4102 38.6349L34.3902 38.6549C34.2402 38.8049 31.5202 41.4649 31.3302 41.4949C31.3202 41.4949 31.2402 41.5149 31.2002 41.4849ZM34.0702 38.3749C33.8402 38.6049 31.3402 41.0949 31.2302 41.3849C31.2302 41.4149 31.2302 41.4349 31.2302 41.4449C31.2402 41.4549 31.2802 41.4549 31.3102 41.4449C31.4802 41.4149 33.9402 39.0349 34.3302 38.6449L34.0702 38.3749Z" fill="#983107"/>
<path d="M34.23 38.515L32.46 40.275L34.18 38.475L34.23 38.515Z" fill="#983107"/>
<path d="M30.3599 40.3349C30.4399 40.4149 30.8399 40.5049 31.1699 40.1949C31.4999 39.8749 31.8899 39.5649 32.0399 39.4849C32.1899 39.4049 32.8799 39.0949 33.2199 38.8649C33.5499 38.6449 33.9399 38.2549 33.9399 38.2549L33.7299 37.9049C33.7299 37.9049 33.2299 38.3049 33.0899 38.4449C32.9599 38.5949 32.1599 39.0249 31.9899 39.1049C31.7499 39.2249 31.4599 39.5149 31.2899 39.7249C31.1199 39.9349 31.0299 40.2049 30.7799 40.2149C30.5499 40.2349 30.2499 40.2149 30.3599 40.3349Z" fill="#FFB30E"/>
<path d="M30.3399 40.3549C30.3099 40.3249 30.2999 40.2949 30.3099 40.2749C30.3399 40.2149 30.4499 40.2149 30.6499 40.2049C30.6899 40.2049 30.7299 40.2049 30.7699 40.2049C30.9299 40.1949 31.0199 40.0549 31.1299 39.9049C31.1699 39.8449 31.2099 39.7849 31.2599 39.7249C31.3499 39.6149 31.6799 39.2249 31.9699 39.0949C32.1499 39.0049 32.9399 38.5749 33.0699 38.4349C33.1999 38.2949 33.6899 37.9049 33.7099 37.8949L33.7299 37.8749L33.9599 38.2649L33.9499 38.2749C33.9499 38.2749 33.5599 38.6749 33.2299 38.8949C32.9899 39.0549 32.5699 39.2549 32.2999 39.3949C32.1799 39.4549 32.0899 39.4949 32.0499 39.5149C31.9099 39.5949 31.5099 39.9049 31.1899 40.2149C30.8299 40.5349 30.4199 40.4349 30.3399 40.3549ZM33.7099 37.9349C33.6099 38.0149 33.2099 38.3349 33.0999 38.4549C32.9599 38.6049 32.1599 39.0449 31.9899 39.1249C31.7099 39.2549 31.3899 39.6349 31.2999 39.7449C31.2499 39.8049 31.2099 39.8649 31.1699 39.9249C31.0599 40.0849 30.9599 40.2449 30.7699 40.2549C30.7299 40.2549 30.6899 40.2549 30.6499 40.2549C30.5399 40.2549 30.3599 40.2649 30.3499 40.2949C30.3499 40.2949 30.3499 40.3049 30.3699 40.3249C30.4299 40.3849 30.8199 40.4949 31.1399 40.1749C31.4699 39.8549 31.8699 39.5449 32.0199 39.4649C32.0599 39.4449 32.1599 39.3949 32.2699 39.3349C32.5399 39.2049 32.9599 39.0049 33.1999 38.8449C33.4899 38.6449 33.8299 38.3149 33.8999 38.2449L33.7099 37.9349Z" fill="#983107"/>
<path d="M33.8101 38.0949C33.8101 38.0949 33.5601 38.3749 33.4101 38.4949C33.4101 38.4949 32.9601 38.9349 32.3001 39.1449C32.0401 39.2349 31.9201 39.3349 31.8501 39.3849C31.8501 39.3849 32.0601 39.2149 32.3101 39.1049C32.5601 39.0049 32.9001 38.9249 33.5601 38.2949L33.8001 38.0249L33.8101 38.0949Z" fill="#983107"/>
<path d="M32.07 42.145C32.17 42.195 32.59 42.125 32.78 41.725C32.97 41.315 33.24 40.885 33.35 40.765C33.46 40.635 34.01 40.105 34.25 39.765C34.48 39.445 34.71 38.945 34.71 38.945L34.3801 38.705C34.3801 38.705 34.0501 39.245 33.9701 39.435C33.9001 39.615 33.3 40.305 33.16 40.445C32.97 40.635 32.8101 41.015 32.7201 41.275C32.6301 41.525 32.64 41.815 32.42 41.915C32.22 41.985 31.93 42.085 32.07 42.145Z" fill="#FFB30E"/>
<path d="M32.02 42.1449C32 42.1249 32 42.1049 32 42.0949C32.01 42.0349 32.12 41.9849 32.3 41.9149C32.34 41.8949 32.38 41.8849 32.41 41.8649C32.56 41.7949 32.6 41.6349 32.64 41.4549C32.66 41.3849 32.67 41.3149 32.7 41.2449C32.75 41.1049 32.92 40.6349 33.14 40.4049C33.28 40.2549 33.87 39.5849 33.94 39.4049C34.01 39.2249 34.33 38.6949 34.35 38.6749L34.36 38.6549L34.72 38.9249L34.71 38.9449C34.71 38.9549 34.48 39.4449 34.25 39.7749C34.08 40.0149 33.76 40.3449 33.54 40.5649C33.45 40.6549 33.38 40.7349 33.35 40.7749C33.25 40.8949 32.98 41.3249 32.79 41.7349C32.7 41.9249 32.55 42.0649 32.36 42.1449C32.22 42.1949 32.1 42.2049 32.05 42.1749C32.05 42.1649 32.03 42.1549 32.02 42.1449ZM34.39 38.7249C34.33 38.8349 34.06 39.2649 34 39.4249C33.92 39.6149 33.32 40.3049 33.19 40.4349C32.97 40.6549 32.81 41.1149 32.76 41.2549C32.74 41.3249 32.72 41.3949 32.7 41.4649C32.66 41.6549 32.62 41.8349 32.44 41.9049C32.4 41.9249 32.36 41.9349 32.33 41.9549C32.23 41.9949 32.07 42.0649 32.06 42.0949C32.06 42.0949 32.06 42.0949 32.06 42.1049C32.06 42.1049 32.07 42.1149 32.08 42.1149C32.11 42.1349 32.22 42.1349 32.36 42.0849C32.48 42.0349 32.65 41.9349 32.76 41.7049C32.96 41.2949 33.23 40.8649 33.33 40.7349C33.36 40.6949 33.43 40.6249 33.53 40.5249C33.74 40.3049 34.06 39.9749 34.23 39.7349C34.44 39.4549 34.63 39.0249 34.68 38.9349L34.39 38.7249Z" fill="#983107"/>
<path d="M34.5399 38.8449C34.5399 38.8449 34.4099 39.1849 34.3099 39.3549C34.3099 39.3549 34.0399 39.9149 33.4899 40.3549C33.2699 40.5349 33.1999 40.6749 33.1499 40.7349C33.1499 40.7349 33.2899 40.5049 33.4799 40.3149C33.6799 40.1349 33.9699 39.9349 34.3699 39.1149L34.4999 38.7849L34.5399 38.8449Z" fill="#983107"/>
<path d="M29.8004 39.2649C29.9704 39.3149 33.3104 37.9849 33.6704 37.8349L33.5204 37.4449C33.5204 37.4449 29.9704 38.9049 29.7404 39.1449C29.6404 39.2549 29.8004 39.2649 29.8004 39.2649Z" fill="#FFB30E"/>
<path d="M29.7002 39.2549C29.6802 39.2349 29.6602 39.1949 29.7202 39.1349C29.9502 38.8849 33.3702 37.4849 33.5102 37.4249L33.5302 37.4149L33.7002 37.8549L33.6802 37.8649C33.4902 37.9449 29.9802 39.3449 29.7902 39.2949C29.7902 39.2849 29.7302 39.2849 29.7002 39.2549ZM33.5102 37.4749C33.2102 37.5949 29.9702 38.9349 29.7602 39.1649C29.7402 39.1949 29.7302 39.2149 29.7402 39.2249C29.7602 39.2449 29.7902 39.2449 29.8102 39.2449C29.9702 39.2849 33.1402 38.0349 33.6502 37.8249L33.5102 37.4749Z" fill="#983107"/>
<path d="M33.6001 37.6649L31.3101 38.6049L33.5701 37.6149L33.6001 37.6649Z" fill="#983107"/>
<path d="M29.4203 36.8249C29.5603 36.9349 33.0903 36.9349 33.4803 36.9349L33.4903 36.5049C33.4903 36.5049 29.7103 36.5449 29.4103 36.6849C29.2803 36.7549 29.4203 36.8249 29.4203 36.8249Z" fill="#FFB30E"/>
<path d="M29.3601 36.8149C29.3301 36.7849 29.3301 36.7649 29.3301 36.7449C29.3401 36.7149 29.3601 36.6949 29.4001 36.6749C29.7001 36.5249 33.3401 36.4849 33.4901 36.4849H33.5101L33.5001 36.9549H33.4801C33.2701 36.9549 29.5601 36.9649 29.4101 36.8449C29.4101 36.8449 29.3801 36.8349 29.3601 36.8149ZM33.4701 36.5349C33.1501 36.5349 29.7101 36.5849 29.4301 36.7149C29.4101 36.7249 29.3901 36.7449 29.3901 36.7549C29.3901 36.7649 29.4001 36.7749 29.4001 36.7849C29.4201 36.8049 29.4401 36.8149 29.4401 36.8149C29.5701 36.9149 32.9201 36.9249 33.4601 36.9149L33.4701 36.5349Z" fill="#983107"/>
<path d="M33.47 36.7448L31.04 36.7748L33.47 36.6848V36.7448Z" fill="#983107"/>
<path d="M29.4398 37.8649C29.4698 37.9749 29.7998 38.2249 30.2198 38.0649C30.6398 37.9049 31.1198 37.7849 31.2898 37.7649C31.4498 37.7449 32.1998 37.7449 32.5998 37.6749C32.9898 37.6049 33.4898 37.3949 33.4898 37.3949L33.4498 36.9849C33.4498 36.9849 32.8398 37.1449 32.6598 37.2249C32.4798 37.3049 31.5898 37.3849 31.3998 37.3849C31.1398 37.3949 30.7598 37.5549 30.5198 37.6749C30.2798 37.7949 30.0898 38.0149 29.8598 37.9249C29.6498 37.8449 29.3898 37.7149 29.4398 37.8649Z" fill="#FFB30E"/>
<path d="M29.4699 37.9548C29.4399 37.9248 29.4199 37.8948 29.4099 37.8648C29.3999 37.8248 29.3999 37.7948 29.4199 37.7848C29.4699 37.7448 29.5699 37.7848 29.7599 37.8648C29.7999 37.8848 29.8299 37.8948 29.8699 37.9148C30.0199 37.9748 30.1599 37.8848 30.3199 37.7748C30.3799 37.7348 30.4399 37.6948 30.5099 37.6548C30.6399 37.5848 31.0899 37.3648 31.3999 37.3548C31.5999 37.3448 32.4799 37.2748 32.6499 37.1948C32.8299 37.1148 33.4199 36.9548 33.4399 36.9548L33.4699 36.9448L33.5199 37.4048L33.4999 37.4148C33.4899 37.4148 32.9899 37.6248 32.5999 37.6948C32.3199 37.7448 31.8599 37.7648 31.5599 37.7748C31.4299 37.7748 31.3299 37.7848 31.2799 37.7848C31.1199 37.8048 30.6399 37.9248 30.2199 38.0848C29.8699 38.2248 29.5899 38.0648 29.4699 37.9548ZM33.4199 37.0148C33.2999 37.0448 32.8099 37.1848 32.6599 37.2448C32.4699 37.3248 31.5799 37.4048 31.3899 37.4048C31.0899 37.4148 30.6499 37.6248 30.5199 37.6948C30.4599 37.7248 30.3899 37.7648 30.3299 37.8048C30.1699 37.9148 30.0099 38.0148 29.8399 37.9448C29.7999 37.9348 29.7699 37.9148 29.7299 37.8948C29.6299 37.8548 29.4699 37.7848 29.4499 37.8048C29.4499 37.8048 29.4499 37.8148 29.4499 37.8348C29.4599 37.8548 29.4699 37.8748 29.4999 37.9048C29.5999 38.0048 29.8699 38.1448 30.1999 38.0248C30.6299 37.8648 31.1099 37.7348 31.2699 37.7248C31.3199 37.7248 31.4199 37.7148 31.5499 37.7148C31.8499 37.7048 32.2999 37.6848 32.5799 37.6348C32.9199 37.5748 33.3599 37.4048 33.4499 37.3648L33.4199 37.0148Z" fill="#983107"/>
<path d="M33.4397 37.2048C33.4397 37.2048 33.1097 37.3648 32.9197 37.4148C32.9197 37.4148 32.3397 37.6348 31.6597 37.5648C31.3797 37.5448 31.2397 37.5848 31.1597 37.5948C31.1597 37.5948 31.4197 37.5148 31.6797 37.5248C31.9397 37.5348 32.2797 37.5948 33.1297 37.2848L33.4597 37.1348L33.4397 37.2048Z" fill="#983107"/>
<path d="M29.5296 35.2849C29.5196 35.3949 29.7296 35.7549 30.1696 35.7549C30.6096 35.7549 31.0996 35.8149 31.2596 35.8549C31.4196 35.8949 32.0996 36.1649 32.4896 36.2449C32.8696 36.3149 33.4096 36.3049 33.4096 36.3049L33.5196 35.8949C33.5196 35.8949 32.8996 35.8249 32.7096 35.8349C32.5196 35.8449 31.6696 35.5949 31.4996 35.5349C31.2496 35.4449 30.8496 35.4649 30.5896 35.4949C30.3196 35.5249 30.0696 35.6649 29.8996 35.4949C29.7296 35.3449 29.5396 35.1249 29.5296 35.2849Z" fill="#FFB30E"/>
<path d="M29.6599 35.5749C29.5599 35.4749 29.4999 35.3549 29.5099 35.2849C29.5099 35.2449 29.5299 35.2149 29.5499 35.2049C29.6099 35.1849 29.6899 35.2549 29.8299 35.3949C29.8599 35.4249 29.8899 35.4549 29.9099 35.4749C30.0299 35.5849 30.1799 35.5449 30.3699 35.5049C30.4399 35.4849 30.5099 35.4749 30.5899 35.4649C30.7299 35.4449 31.2199 35.3949 31.5099 35.5049C31.6899 35.5749 32.5199 35.8149 32.7099 35.8049C32.8999 35.7949 33.4999 35.8549 33.5199 35.8649H33.5499L33.4299 36.3149H33.4099C33.3999 36.3149 32.8699 36.3249 32.4899 36.2549C32.2099 36.2049 31.7899 36.0549 31.5099 35.9549C31.3899 35.9149 31.2999 35.8849 31.2499 35.8649C31.0999 35.8249 30.6199 35.7649 30.1699 35.7649C29.9199 35.7849 29.7499 35.6749 29.6599 35.5749ZM33.4899 35.9149C33.3699 35.9049 32.8799 35.8549 32.7099 35.8649C32.5099 35.8749 31.6599 35.6249 31.4899 35.5649C31.2099 35.4649 30.7299 35.5149 30.5899 35.5249C30.5199 35.5349 30.4499 35.5449 30.3799 35.5649C30.1899 35.6049 30.0099 35.6449 29.8799 35.5249C29.8499 35.4949 29.8199 35.4649 29.7999 35.4449C29.7299 35.3749 29.5999 35.2449 29.5699 35.2649C29.5699 35.2649 29.5599 35.2749 29.5599 35.2949C29.5599 35.3349 29.5999 35.4449 29.6999 35.5449C29.7899 35.6349 29.9399 35.7349 30.1799 35.7349C30.6299 35.7349 31.1199 35.7949 31.2699 35.8349C31.3199 35.8449 31.4099 35.8849 31.5299 35.9249C31.8099 36.0249 32.2299 36.1749 32.4999 36.2249C32.8299 36.2849 33.2899 36.2849 33.3899 36.2849L33.4899 35.9149Z" fill="#983107"/>
<path d="M33.44 36.1149C33.44 36.1149 33.08 36.1449 32.89 36.1249C32.89 36.1249 32.28 36.1249 31.68 35.8149C31.44 35.6949 31.29 35.6849 31.21 35.6649C31.21 35.6649 31.47 35.6849 31.71 35.7849C31.95 35.8849 32.23 36.0749 33.12 36.0849L33.48 36.0649L33.44 36.1149Z" fill="#983107"/>
<path d="M29.9105 34.305C30.0005 34.455 33.2405 35.715 33.6005 35.845L33.7605 35.445C33.7605 35.445 30.2805 34.1449 29.9505 34.1749C29.8005 34.1849 29.9105 34.305 29.9105 34.305Z" fill="#FFB30E"/>
<path d="M29.9003 34.3249L29.8903 34.3149C29.8903 34.3149 29.8303 34.2549 29.8503 34.2049C29.8603 34.1749 29.8903 34.1549 29.9403 34.1449C30.2703 34.1149 33.6203 35.3649 33.7603 35.4149L33.7803 35.4249L33.6003 35.8749L33.5803 35.8649C33.2803 35.7549 30.0903 34.5149 29.9003 34.3249ZM33.7303 35.4549C33.4303 35.3449 30.2603 34.1649 29.9503 34.1949C29.9203 34.1949 29.9003 34.2049 29.9003 34.2149C29.8903 34.2349 29.9103 34.2649 29.9303 34.2849L29.9403 34.2949C30.1103 34.4649 33.0903 35.6349 33.5903 35.8149L33.7303 35.4549Z" fill="#983107"/>
<path d="M33.6602 35.665L31.4102 34.825L33.6802 35.6049L33.6602 35.665Z" fill="#983107"/>
<path d="M31.3303 31.9849C31.3503 32.1649 33.7703 34.6249 34.0403 34.8849L34.3403 34.5749C34.3403 34.5749 31.7203 31.9749 31.4103 31.8749C31.2803 31.8349 31.3303 31.9849 31.3303 31.9849Z" fill="#FFB30E"/>
<path d="M33.9201 34.7949C33.8901 34.7649 31.3301 32.1849 31.3101 31.9849C31.3101 31.9849 31.2801 31.9049 31.3201 31.8649C31.3401 31.8449 31.3801 31.8349 31.4301 31.8549C31.7401 31.9549 34.2601 34.4549 34.3701 34.5549L34.3901 34.5749L34.0501 34.9249L34.0301 34.9049C34.0101 34.8749 33.9701 34.8449 33.9201 34.7949ZM34.3201 34.5749C34.1001 34.3549 31.7001 31.9949 31.4201 31.8949C31.3901 31.8849 31.3701 31.8849 31.3601 31.8949C31.3501 31.9049 31.3501 31.9449 31.3601 31.9749C31.3801 32.1249 33.2001 34.0049 33.9601 34.7549C34.0001 34.7949 34.0301 34.8249 34.0501 34.8449L34.3201 34.5749Z" fill="#983107"/>
<path d="M34.17 34.7349L32.48 33.0649L34.21 34.6849L34.17 34.7349Z" fill="#983107"/>
<path d="M32.68 30.8949C32.59 30.9749 32.47 31.3749 32.76 31.6949C33.05 32.0149 33.33 32.4149 33.4 32.5549C33.47 32.6949 33.72 33.3949 33.92 33.7349C34.12 34.0649 34.47 34.4449 34.47 34.4449L34.84 34.2349C34.84 34.2349 34.49 33.7349 34.35 33.6049C34.22 33.4749 33.85 32.6749 33.78 32.5049C33.69 32.2649 33.41 31.9849 33.21 31.8149C33.01 31.6449 32.75 31.5549 32.76 31.3149C32.76 31.0849 32.8 30.7849 32.68 30.8949Z" fill="#FFB30E"/>
<path d="M34.46 34.4749L34.45 34.4649C34.45 34.4649 34.09 34.0749 33.89 33.7549C33.75 33.5149 33.58 33.0949 33.47 32.8249C33.42 32.7049 33.39 32.6149 33.37 32.5749C33.3 32.4349 33.03 32.0449 32.74 31.7149C32.61 31.5649 32.54 31.3749 32.56 31.1749C32.57 31.0349 32.62 30.9149 32.67 30.8749C32.72 30.8249 32.75 30.8449 32.77 30.8549C32.81 30.8949 32.81 31.0049 32.8 31.1849C32.8 31.2249 32.8 31.2649 32.79 31.3049C32.79 31.3849 32.82 31.4549 32.89 31.5249C32.94 31.5749 33 31.6149 33.07 31.6649C33.13 31.7049 33.19 31.7449 33.24 31.7949C33.3 31.8449 33.36 31.9049 33.42 31.9649C33.56 32.1049 33.74 32.3049 33.81 32.5049C33.88 32.6849 34.24 33.4649 34.37 33.5949C34.51 33.7349 34.84 34.2049 34.86 34.2249L34.88 34.2449L34.46 34.4749ZM32.72 30.8949C32.72 30.8949 32.7 30.9049 32.69 30.9149C32.66 30.9449 32.61 31.0349 32.6 31.1849C32.59 31.3149 32.61 31.5049 32.77 31.6849C33.06 32.0149 33.34 32.4149 33.41 32.5549C33.43 32.5949 33.47 32.6949 33.52 32.8049C33.63 33.0749 33.8 33.4949 33.94 33.7249C34.11 34.0149 34.41 34.3449 34.48 34.4149L34.81 34.2249C34.74 34.1249 34.46 33.7349 34.34 33.6249L34.35 33.6049L34.33 33.6249C34.19 33.4849 33.82 32.6849 33.76 32.5249C33.69 32.3449 33.51 32.1449 33.38 32.0049C33.32 31.9449 33.26 31.8949 33.2 31.8449C33.15 31.7949 33.09 31.7549 33.03 31.7249C32.96 31.6749 32.9 31.6349 32.85 31.5849C32.77 31.5049 32.74 31.4249 32.74 31.3349C32.74 31.2949 32.74 31.2549 32.75 31.2149C32.74 31.0749 32.75 30.9249 32.72 30.8949Z" fill="#983107"/>
<path d="M34.63 34.3349C34.63 34.3349 34.37 34.0949 34.26 33.9349C34.26 33.9349 33.86 33.4849 33.7 32.8249C33.63 32.5649 33.54 32.4449 33.5 32.3749C33.5 32.3749 33.66 32.5849 33.74 32.8349C33.82 33.0849 33.87 33.4249 34.45 34.0749L34.7 34.3149L34.63 34.3349Z" fill="#983107"/>
<path d="M33.6101 30.4148C33.5501 30.5848 34.7501 33.8648 34.8801 34.2148L35.2801 34.0448C35.2801 34.0448 33.9701 30.5648 33.7301 30.3448C33.6201 30.2548 33.6101 30.4148 33.6101 30.4148Z" fill="#FFB30E"/>
<path d="M34.87 34.2449L34.86 34.2249C34.79 34.0349 33.53 30.6049 33.59 30.4149C33.59 30.4149 33.6 30.3249 33.65 30.3049C33.68 30.2949 33.71 30.3049 33.75 30.3349C34 30.5849 35.25 33.8949 35.3 34.0349L35.31 34.0549L34.87 34.2449ZM33.72 30.3749C33.7 30.3549 33.68 30.3449 33.67 30.3549C33.65 30.3649 33.64 30.4049 33.64 30.4249C33.59 30.5949 34.71 33.6949 34.9 34.1949L35.25 34.0449C35.14 33.7449 33.94 30.6049 33.72 30.3749Z" fill="#983107"/>
<path d="M35.0502 34.1349L34.2002 31.8949L35.1102 34.1049L35.0502 34.1349Z" fill="#983107"/>
<path d="M30.6699 32.8149C30.6199 32.9149 30.6599 33.3349 31.0599 33.5149C31.4599 33.6949 31.8699 33.9449 31.9899 34.0449C32.1099 34.1449 32.6199 34.6749 32.9399 34.9049C33.2499 35.1249 33.7399 35.3349 33.7399 35.3349L33.9999 35.0049C33.9999 35.0049 33.4699 34.6949 33.2999 34.6249C33.1199 34.5549 32.4699 33.9849 32.3399 33.8549C32.1599 33.6749 31.7899 33.5249 31.5399 33.4449C31.2899 33.3649 31.0099 33.3849 30.9199 33.1649C30.8299 32.9549 30.7499 32.6649 30.6699 32.8149Z" fill="#FFB30E"/>
<path d="M30.8301 33.3849C30.6301 33.1849 30.6001 32.8949 30.6501 32.8049C30.6701 32.7749 30.6801 32.7549 30.7101 32.7549C30.7301 32.7549 30.7501 32.7549 30.7601 32.7749C30.8001 32.8149 30.8401 32.9249 30.8901 33.0449C30.9001 33.0849 30.9201 33.1249 30.9301 33.1549C30.9401 33.1849 30.9601 33.2149 30.9901 33.2449C31.0701 33.3249 31.1901 33.3449 31.3301 33.3749C31.4001 33.3849 31.4701 33.4049 31.5401 33.4249C31.6801 33.4649 32.1301 33.6249 32.3501 33.8349C32.4901 33.9749 33.1301 34.5349 33.3001 34.5949C33.4801 34.6649 33.9901 34.9649 34.0101 34.9749L34.0301 34.9849L33.7401 35.3549L33.7201 35.3449C33.7201 35.3449 33.2301 35.1349 32.9201 34.9149C32.6901 34.7549 32.3701 34.4449 32.1601 34.2349C32.0701 34.1449 32.0001 34.0749 31.9601 34.0449C31.8401 33.9449 31.4301 33.6949 31.0301 33.5149C30.9701 33.4949 30.8901 33.4449 30.8301 33.3849ZM30.7301 32.8049C30.7201 32.7949 30.7201 32.7949 30.7201 32.7949C30.7201 32.7949 30.7101 32.8049 30.7001 32.8249C30.6701 32.8949 30.6701 33.1549 30.8701 33.3449C30.9301 33.4049 31.0001 33.4449 31.0701 33.4849C31.4701 33.6649 31.8901 33.9149 32.0101 34.0249C32.0501 34.0549 32.1201 34.1249 32.2101 34.2149C32.4201 34.4149 32.7401 34.7249 32.9601 34.8849C33.2301 35.0849 33.6501 35.2649 33.7401 35.3049L33.9701 35.0049C33.8701 34.9449 33.4401 34.6949 33.2901 34.6449C33.1101 34.5749 32.4501 33.9949 32.3201 33.8749C32.1101 33.6649 31.6601 33.5149 31.5301 33.4749C31.4601 33.4549 31.3901 33.4449 31.3301 33.4249C31.1901 33.3949 31.0501 33.3749 30.9701 33.2849C30.9401 33.2549 30.9201 33.2249 30.9001 33.1849C30.8901 33.1449 30.8701 33.1149 30.8601 33.0749C30.8101 32.9549 30.7701 32.8449 30.7301 32.8049Z" fill="#983107"/>
<path d="M33.84 35.1648C33.84 35.1648 33.5 35.0448 33.34 34.9548C33.34 34.9548 32.79 34.7048 32.38 34.1748C32.21 33.9648 32.08 33.8948 32.02 33.8448C32.02 33.8448 32.25 33.9748 32.42 34.1648C32.59 34.3548 32.77 34.6448 33.57 35.0148L33.9 35.1348L33.84 35.1648Z" fill="#983107"/>
<path d="M40.1402 31.0348C40.0402 30.9848 39.6202 31.0448 39.4302 31.4548C39.2302 31.8648 38.9602 32.2848 38.8502 32.4148C38.7402 32.5448 38.1902 33.0748 37.9502 33.4048C37.7102 33.7248 37.4902 34.2248 37.4902 34.2248L37.8102 34.4748C37.8102 34.4748 38.1502 33.9348 38.2202 33.7548C38.2902 33.5748 38.9002 32.8848 39.0302 32.7548C39.2202 32.5648 39.3802 32.1848 39.4702 31.9348C39.5602 31.6848 39.5502 31.3948 39.7802 31.3048C39.9902 31.1948 40.2802 31.1048 40.1402 31.0348Z" fill="#FFB30E"/>
<path d="M37.4502 34.2348L37.4602 34.2148C37.4602 34.2148 37.6902 33.7148 37.9302 33.3948C38.1002 33.1548 38.4302 32.8248 38.6402 32.6048C38.7302 32.5148 38.8002 32.4348 38.8302 32.4048C38.9402 32.2848 39.2002 31.8548 39.4002 31.4548C39.4902 31.2648 39.6402 31.1248 39.8302 31.0548C39.9702 31.0048 40.0902 31.0048 40.1502 31.0248C40.2002 31.0448 40.2102 31.0748 40.2002 31.0948C40.1902 31.1548 40.0802 31.2048 39.9002 31.2748C39.8602 31.2948 39.8202 31.3048 39.7902 31.3248C39.6402 31.3948 39.6002 31.5448 39.5602 31.7348C39.5402 31.8048 39.5302 31.8748 39.5002 31.9448C39.4502 32.0848 39.2802 32.5448 39.0502 32.7748C38.9102 32.9148 38.3102 33.5948 38.2402 33.7648C38.1702 33.9448 37.8402 34.4648 37.8302 34.4948L37.8202 34.5148L37.4502 34.2348ZM40.1502 31.0748C40.1502 31.0748 40.1402 31.0648 40.1302 31.0648C40.1002 31.0448 39.9902 31.0448 39.8502 31.0948C39.7302 31.1448 39.5602 31.2448 39.4502 31.4748C39.2502 31.8848 38.9802 32.3148 38.8702 32.4448C38.8402 32.4848 38.7602 32.5548 38.6702 32.6548C38.4602 32.8748 38.1302 33.2048 37.9602 33.4348C37.7502 33.7148 37.5502 34.1448 37.5102 34.2348L37.8002 34.4548C37.8702 34.3448 38.1302 33.9148 38.2002 33.7548C38.2802 33.5648 38.8902 32.8848 39.0202 32.7448C39.2402 32.5248 39.4102 32.0648 39.4602 31.9348C39.4802 31.8648 39.5002 31.7948 39.5202 31.7248C39.5602 31.5348 39.6102 31.3548 39.7802 31.2848C39.8202 31.2648 39.8602 31.2548 39.8902 31.2348C39.9902 31.1748 40.1402 31.1148 40.1502 31.0748Z" fill="#983107"/>
<path d="M37.6401 34.3248C37.6401 34.3248 37.7701 33.9848 37.8801 33.8148C37.8801 33.8148 38.1501 33.2548 38.7101 32.8148C38.9301 32.6348 39.0101 32.5048 39.0601 32.4348C39.0601 32.4348 38.9201 32.6648 38.7201 32.8548C38.5201 33.0348 38.2301 33.2348 37.8201 34.0448L37.6801 34.3748L37.6401 34.3248Z" fill="#983107"/>
<path d="M36.2702 29.8448C36.1502 29.9848 35.9402 33.5248 35.9302 33.9048H36.3502C36.3502 33.9048 36.5302 30.1248 36.4002 29.8248C36.3502 29.7048 36.2702 29.8448 36.2702 29.8448Z" fill="#FFB30E"/>
<path d="M35.9102 33.9349V33.9149C35.9202 33.7049 36.1302 29.9949 36.2602 29.8349C36.2602 29.8349 36.3002 29.7649 36.3502 29.7549C36.3702 29.7549 36.4102 29.7649 36.4402 29.8249C36.5702 30.1249 36.4002 33.7549 36.3902 33.9149V33.9349H35.9102ZM36.3702 29.8149C36.3602 29.8049 36.3502 29.8049 36.3502 29.8049C36.3302 29.8049 36.3102 29.8449 36.3002 29.8649C36.1902 30.0049 35.9902 33.3549 35.9602 33.8949H36.3402C36.3602 33.5749 36.5102 30.1249 36.3902 29.8549C36.3802 29.8249 36.3702 29.8149 36.3702 29.8149Z" fill="#983107"/>
<path d="M36.1201 33.9048L36.2401 31.4648L36.1801 33.8948L36.1201 33.9048Z" fill="#983107"/>
<path d="M37.75 29.9849C37.64 29.9849 37.27 30.1949 37.24 30.6349C37.21 31.0849 37.12 31.5649 37.07 31.7249C37.02 31.8849 36.7 32.5749 36.6 32.9749C36.5 33.3549 36.48 33.8949 36.48 33.8949L36.88 33.9949C36.88 33.9949 36.99 33.3749 36.99 33.1849C36.99 32.9949 37.3 32.1349 37.37 31.9649C37.48 31.7149 37.49 31.3149 37.47 31.0549C37.46 30.7949 37.34 30.5349 37.51 30.3649C37.68 30.1849 37.92 29.9949 37.75 29.9849Z" fill="#FFB30E"/>
<path d="M36.4502 33.9148V33.8948C36.4502 33.8848 36.4702 33.3548 36.5702 32.9748C36.6402 32.6948 36.8202 32.2648 36.9402 31.9848C36.9902 31.8648 37.0302 31.7748 37.0402 31.7248C37.0902 31.5748 37.1802 31.0848 37.2102 30.6448C37.2202 30.4348 37.3102 30.2548 37.4602 30.1148C37.5702 30.0148 37.6902 29.9648 37.7502 29.9648C37.8002 29.9648 37.8302 29.9848 37.8302 30.0248C37.8302 30.0848 37.7502 30.1648 37.6102 30.2948C37.5802 30.3248 37.5502 30.3548 37.5202 30.3848C37.4002 30.5048 37.4302 30.6648 37.4602 30.8448C37.4702 30.9148 37.4802 30.9848 37.4902 31.0548C37.5002 31.1948 37.5102 31.6848 37.3902 31.9848C37.3102 32.1748 37.0102 33.0048 37.0102 33.1948C37.0102 33.3848 36.9002 33.9848 36.9002 34.0148V34.0448L36.4502 33.9148ZM37.7802 30.0148C37.7802 30.0148 37.7702 30.0048 37.7502 30.0048C37.7102 30.0048 37.6102 30.0348 37.5002 30.1348C37.4002 30.2248 37.2802 30.3848 37.2602 30.6348C37.2302 31.0848 37.1402 31.5748 37.0802 31.7348C37.0602 31.7848 37.0202 31.8748 36.9702 31.9948C36.8502 32.2748 36.6802 32.6948 36.6002 32.9748C36.5102 33.3148 36.4802 33.7748 36.4802 33.8648L36.8302 33.9548C36.8502 33.8348 36.9302 33.3348 36.9402 33.1748C36.9402 32.9748 37.2502 32.1248 37.3302 31.9448C37.4502 31.6648 37.4402 31.1848 37.4302 31.0448C37.4302 30.9748 37.4102 30.9048 37.4002 30.8348C37.3702 30.6448 37.3402 30.4748 37.4802 30.3348C37.5102 30.3048 37.5402 30.2748 37.5702 30.2448C37.6702 30.1648 37.7802 30.0648 37.7802 30.0148C37.7802 30.0248 37.7802 30.0248 37.7802 30.0148Z" fill="#983107"/>
<path d="M36.6602 33.9148C36.6602 33.9148 36.6602 33.5548 36.6902 33.3648C36.6902 33.3648 36.7302 32.7548 37.0902 32.1448C37.2302 31.8948 37.2502 31.7448 37.2702 31.6648C37.2702 31.6648 37.2302 31.9248 37.1102 32.1748C36.9902 32.4148 36.7902 32.7048 36.7202 33.5948V33.9448L36.6602 33.9148Z" fill="#983107"/>
<path d="M35.15 29.9749C35.04 30.0149 34.77 30.3449 34.91 30.7649C35.05 31.1849 35.14 31.6649 35.15 31.8249C35.16 31.9849 35.11 32.7349 35.16 33.1349C35.21 33.5149 35.38 34.0149 35.38 34.0149L35.79 33.9549C35.79 33.9549 35.66 33.3449 35.59 33.1749C35.52 33.0049 35.5 32.1049 35.5 31.9249C35.51 31.6649 35.37 31.2849 35.26 31.0549C35.15 30.8149 34.95 30.6349 35.05 30.4049C35.16 30.1849 35.31 29.9249 35.15 29.9749Z" fill="#FFB30E"/>
<path d="M35.3701 34.0449L35.3601 34.0249C35.3601 34.0249 35.1801 33.5249 35.1401 33.1349C35.1101 32.8549 35.1201 32.3949 35.1201 32.0949C35.1201 31.9649 35.1301 31.8649 35.1201 31.8249C35.1101 31.6649 35.0201 31.1849 34.8801 30.7749C34.8201 30.5849 34.8301 30.3749 34.9201 30.1949C34.9901 30.0649 35.0801 29.9749 35.1401 29.9549C35.1501 29.9549 35.2001 29.9349 35.2201 29.9649C35.2601 30.0049 35.2101 30.1149 35.1301 30.3049C35.1101 30.3449 35.0901 30.3849 35.0801 30.4149C35.0101 30.5649 35.0901 30.7049 35.1901 30.8549C35.2301 30.9149 35.2601 30.9749 35.2901 31.0449C35.3501 31.1749 35.5401 31.6149 35.5301 31.9249C35.5201 32.1249 35.5501 32.9949 35.6101 33.1649C35.6801 33.3449 35.8001 33.9249 35.8101 33.9549L35.8201 33.9849L35.3701 34.0449ZM35.1901 29.9949C35.1901 29.9949 35.1801 29.9949 35.1601 29.9949C35.1201 30.0049 35.0401 30.0749 34.9701 30.2049C34.9101 30.3249 34.8501 30.5149 34.9301 30.7449C35.0701 31.1649 35.1601 31.6449 35.1701 31.8149C35.1701 31.8649 35.1701 31.9649 35.1701 32.0949C35.1601 32.3949 35.1501 32.8449 35.1901 33.1249C35.2301 33.4649 35.3701 33.8949 35.4101 33.9849L35.7801 33.9349C35.7601 33.8149 35.6501 33.3349 35.5901 33.1849C35.5201 33.0049 35.5001 32.1049 35.5001 31.9249C35.5101 31.6249 35.3201 31.1849 35.2601 31.0649C35.2301 31.0049 35.1901 30.9449 35.1601 30.8849C35.0601 30.7249 34.9701 30.5749 35.0501 30.3949C35.0701 30.3549 35.0801 30.3249 35.1001 30.2849C35.1401 30.1849 35.2201 30.0149 35.1901 29.9949Z" fill="#983107"/>
<path d="M35.57 33.9649C35.57 33.9649 35.43 33.6349 35.39 33.4449C35.39 33.4449 35.2 32.8649 35.32 32.1849C35.36 31.9049 35.32 31.7649 35.32 31.6849C35.32 31.6849 35.38 31.9449 35.36 32.2049C35.34 32.4649 35.25 32.8049 35.51 33.6449L35.64 33.9649H35.57Z" fill="#983107"/>
<path d="M37.9199 38.3949C36.8499 39.4649 35.1599 39.5049 34.1399 38.4849C33.1199 37.4649 33.1599 35.7749 34.2299 34.7049C35.2999 33.6349 36.9899 33.5949 38.0099 34.6149C39.0199 35.6349 38.9799 37.3249 37.9199 38.3949Z" fill="#FFB30E"/>
<path d="M34.12 38.4949C33.09 37.4649 33.13 35.7649 34.21 34.6849C35.28 33.6149 36.99 33.5749 38.02 34.5949C39.05 35.6249 39.01 37.3249 37.93 38.4049C36.86 39.4849 35.15 39.5249 34.12 38.4949ZM37.99 34.6349C36.98 33.6249 35.3 33.6649 34.25 34.7249C33.19 35.7849 33.16 37.4549 34.16 38.4649C35.17 39.4749 36.85 39.4349 37.9 38.3749C38.96 37.3149 39 35.6449 37.99 34.6349Z" fill="#983107"/>
<path d="M37.4499 36.3848C37.2099 36.1448 36.8199 36.1748 36.5499 36.3248C36.2799 36.4848 36.1499 36.8448 36.1399 36.9148C36.1299 36.9848 36.1399 37.2448 36.1399 37.3248C36.1399 37.4048 35.9799 37.4048 35.9199 37.3948C35.8599 37.3748 35.7699 37.2548 35.7499 37.2248C35.7399 37.1948 35.5899 37.1148 35.5799 37.1148C35.5699 37.1048 35.4999 36.9548 35.4699 36.9448C35.4399 36.9348 35.3199 36.8348 35.2999 36.7748C35.2799 36.7148 35.2799 36.5548 35.3699 36.5548C35.4499 36.5548 35.7099 36.5748 35.7799 36.5548C35.8499 36.5448 36.2099 36.4048 36.3699 36.1448C36.5299 35.8848 36.5499 35.4848 36.3099 35.2448C36.0699 35.0048 35.6499 34.9848 35.4699 35.0348C35.4699 35.0348 35.9499 35.0048 36.2299 35.3348C36.4999 35.6648 36.4699 35.9848 36.3399 36.1548C36.2099 36.3248 35.9099 36.5648 35.7099 36.5448C35.5199 36.5248 35.2899 36.4948 35.2699 36.6048C35.2499 36.7248 35.2899 36.8248 35.3399 36.8648C35.3899 36.9148 35.4299 36.9148 35.4499 36.9648C35.4699 37.0148 35.4899 37.0748 35.5399 37.1348C35.5999 37.1848 35.6599 37.2048 35.7099 37.2248C35.7599 37.2448 35.7599 37.2848 35.8099 37.3348C35.8599 37.3848 35.9599 37.4248 36.0699 37.4048C36.1899 37.3848 36.1499 37.1548 36.1299 36.9648C36.1099 36.7748 36.3499 36.4648 36.5199 36.3348C36.6899 36.2048 37.0099 36.1748 37.3399 36.4448C37.6699 36.7148 37.6399 37.2048 37.6399 37.2048C37.7199 37.0448 37.6899 36.6248 37.4499 36.3848Z" fill="#983107"/>
<path d="M35.3501 35.2149C35.3501 35.2149 35.8001 35.1749 36.0501 35.4149C36.3001 35.6649 36.2801 35.9749 36.2301 36.0649C36.2301 36.0649 36.2501 35.6749 36.0101 35.4349C35.7501 35.2049 35.3501 35.2149 35.3501 35.2149Z" fill="#983107"/>
<path d="M35.5102 35.3248C35.5102 35.3248 35.1902 35.6448 35.5402 35.9948C35.8902 36.3448 36.1402 36.1048 36.1402 36.1048C36.1402 36.1048 35.8602 36.2448 35.5602 35.9548C35.2702 35.6448 35.4902 35.3648 35.5102 35.3248Z" fill="#983107"/>
<path d="M35.85 35.8049C35.79 35.8649 35.7 35.8649 35.64 35.8049C35.58 35.7449 35.59 35.6549 35.64 35.5949C35.7 35.5349 35.79 35.5349 35.85 35.5949C35.91 35.6549 35.9 35.7449 35.85 35.8049Z" fill="#983107"/>
<path d="M35.4702 35.2949C35.4702 35.2949 36.1902 35.4649 36.1902 36.0549C36.1802 36.0649 36.0602 35.4749 35.4702 35.2949Z" fill="#983107"/>
<path d="M37.4901 37.3649C37.4901 37.3649 37.5301 36.9149 37.2901 36.6649C37.0401 36.4149 36.7301 36.4349 36.6401 36.4849C36.6401 36.4849 37.0301 36.4649 37.2701 36.7049C37.5101 36.9549 37.4901 37.3649 37.4901 37.3649Z" fill="#983107"/>
<path d="M37.3902 37.1949C37.3902 37.1949 37.0702 37.5149 36.7202 37.1649C36.3702 36.8149 36.6202 36.5649 36.6202 36.5649C36.6202 36.5649 36.4802 36.8449 36.7702 37.1449C37.0602 37.4449 37.3502 37.2249 37.3902 37.1949Z" fill="#983107"/>
<path d="M36.9102 36.8648C36.8502 36.9248 36.8502 37.0148 36.9102 37.0748C36.9702 37.1348 37.0602 37.1248 37.1202 37.0748C37.1802 37.0148 37.1802 36.9248 37.1202 36.8648C37.0602 36.8048 36.9602 36.8048 36.9102 36.8648Z" fill="#983107"/>
<path d="M37.4099 37.2449C37.4099 37.2449 37.2399 36.5249 36.6499 36.5249C36.6499 36.5249 37.2399 36.6549 37.4099 37.2449Z" fill="#983107"/>
<path d="M35.4298 37.5749C35.3998 37.5149 35.2598 37.4249 35.2598 37.4249C35.2598 37.4249 35.1698 37.2849 35.1098 37.2549C35.0498 37.2249 34.8398 37.0549 34.8398 37.0549C34.8398 37.1049 35.0498 37.2649 35.0898 37.2849C35.1298 37.3049 35.2098 37.4849 35.2098 37.4849C35.2098 37.4849 35.3898 37.5649 35.4098 37.6049C35.4298 37.6449 35.5898 37.8449 35.6398 37.8549C35.6298 37.8449 35.4598 37.6349 35.4298 37.5749Z" fill="#983107"/>
<path d="M35.6701 37.5149C35.6801 37.4549 35.6301 37.2949 35.5301 37.2949C35.4301 37.3049 35.4301 37.3049 35.4001 37.2749C35.3701 37.2449 35.3701 37.2449 35.3801 37.1449C35.3901 37.0449 35.2201 36.9949 35.1701 37.0049C35.1101 37.0149 34.8101 36.9749 34.8101 36.9749C34.8701 37.0349 35.2401 37.0549 35.3001 37.0849C35.3701 37.1149 35.3401 37.3349 35.3401 37.3349C35.3401 37.3349 35.5601 37.3149 35.5901 37.3749C35.6201 37.4449 35.6401 37.8049 35.7001 37.8649C35.7001 37.8749 35.6601 37.5649 35.6701 37.5149Z" fill="#983107"/>
<path d="M35.53 37.8049C35.51 37.7849 35.37 37.7749 35.3 37.7649C35.24 37.7649 35.13 37.7349 35.1 37.7249C35.09 37.7049 35.08 37.6949 35.06 37.6749L35.03 37.6449L35 37.6149C34.98 37.5949 34.97 37.5849 34.95 37.5749C34.94 37.5449 34.91 37.4249 34.91 37.3649C34.91 37.2949 34.9 37.1649 34.87 37.1349C34.85 37.1149 34.78 37.0149 34.78 36.9949C34.78 36.9949 34.77 37.0749 34.83 37.1249C34.89 37.1749 34.87 37.2649 34.86 37.3049C34.85 37.3449 34.88 37.4949 34.94 37.5649C34.77 37.4749 34.54 37.6249 34.54 37.6249C34.88 37.4949 34.98 37.6649 34.99 37.6849C35.01 37.6949 35.19 37.7949 35.05 38.1349C35.05 38.1349 35.2 37.9049 35.11 37.7349C35.18 37.7949 35.32 37.8149 35.36 37.8149C35.41 37.8049 35.49 37.7949 35.54 37.8449C35.59 37.8949 35.67 37.8949 35.67 37.8949C35.64 37.8949 35.55 37.8349 35.53 37.8049Z" fill="#983107"/>
<path d="M31.3697 85.0749C30.9197 84.6249 30.9197 83.9049 31.3697 83.4649L72.9997 41.8349C73.4497 41.3849 74.1697 41.3849 74.6097 41.8349C75.0597 42.2849 75.0597 43.0049 74.6097 43.4449L32.9797 85.0749C32.5397 85.5149 31.8197 85.5149 31.3697 85.0749Z" fill="#2D3545"/>
</g>
<defs>
<clipPath id="clip0_223_2656">
<rect width="74.72" height="85.39" fill="white" transform="translate(0.22998 0.0148926)"/>
</clipPath>
</defs>
</svg>
