<svg width="26" height="42" viewBox="0 0 26 42" fill="none" xmlns="http://www.w3.org/2000/svg">
<g clip-path="url(#clip0_223_2955)">
<path d="M20.44 41.2799H5.98002C2.96002 41.2799 0.52002 38.8299 0.52002 35.8199V5.59989C0.52002 2.57989 2.96002 0.139893 5.98002 0.139893H20.44C23.46 0.139893 25.9 2.57989 25.9 5.59989V35.8199C25.9 38.8299 23.46 41.2799 20.44 41.2799Z" fill="#F01414"/>
<path d="M20.8401 39.3199H7.86008C7.43008 39.3199 7.08008 38.9699 7.08008 38.5399C7.08008 38.1099 7.43008 37.7599 7.86008 37.7599H20.8401C21.6801 37.7599 22.3601 37.0799 22.3601 36.2399V15.5899C22.3601 15.1599 22.7101 14.8099 23.1401 14.8099C23.5701 14.8099 23.9201 15.1599 23.9201 15.5899V36.2499C23.9101 37.9399 22.5301 39.3199 20.8401 39.3199Z" fill="#CD1516"/>
</g>
<defs>
<clipPath id="clip0_223_2955">
<rect width="25.38" height="41.14" fill="white" transform="translate(0.52002 0.139893)"/>
</clipPath>
</defs>
</svg>
