<svg width="45" height="14" viewBox="0 0 45 14" fill="none" xmlns="http://www.w3.org/2000/svg">
<g clip-path="url(#clip0_222_96)">
<path d="M43.9601 2.9952H1.58012C1.19012 2.9952 0.870117 2.6752 0.870117 2.2852C0.870117 1.8952 1.19012 1.5752 1.58012 1.5752H43.9601C44.3501 1.5752 44.6701 1.8952 44.6701 2.2852C44.6701 2.6752 44.3501 2.9952 43.9601 2.9952Z" fill="#585EC9"/>
<path d="M20.5601 3.39518C20.5601 5.90518 19.6201 12.1652 12.5201 12.2152C11.1701 12.2252 10.0401 12.0352 9.09005 11.7152C7.21005 11.0752 6.03005 9.89518 5.31005 8.57518C4.66005 7.42518 4.35005 6.17518 4.20005 5.08518C4.11005 4.42518 4.08005 3.82518 4.07005 3.35518C4.05005 2.76518 4.28005 2.19518 4.70005 1.77518L5.65005 0.825181C6.05005 0.425181 6.60005 0.185181 7.18005 0.185181H17.3701C17.9401 0.185181 18.4901 0.415181 18.9001 0.825181L19.9401 1.86518C20.3301 2.27518 20.5601 2.81518 20.5601 3.39518Z" fill="#384966"/>
<path d="M11.3002 0.19519L5.3102 8.57519C4.6602 7.42519 4.3502 6.17519 4.2002 5.08519L7.7002 0.19519H11.3002Z" fill="#3188AE"/>
<path d="M20.5598 3.39519C20.5598 5.90519 19.6198 12.1652 12.5198 12.2152C11.1698 12.2252 10.0398 12.0352 9.08984 11.7152L17.3198 0.19519H17.3598C17.9298 0.19519 18.4798 0.42519 18.8898 0.83519L19.9298 1.87519C20.3298 2.27519 20.5598 2.81519 20.5598 3.39519Z" fill="#3188AE"/>
<path d="M27.8303 0.19519C27.2603 0.19519 26.7103 0.42519 26.3003 0.83519L25.3503 1.78519C24.9303 2.20519 24.7003 2.77519 24.7103 3.36519C24.7203 3.83519 24.7503 4.43519 24.8403 5.09519C24.9903 6.17519 25.3003 7.42519 25.9503 8.58519C26.3603 9.32519 26.9203 10.0252 27.6703 10.6152L35.2903 0.20519H27.8303V0.19519Z" fill="#384966"/>
<path d="M33.1802 12.2152C40.2802 12.1752 41.2202 5.90518 41.2202 3.39518C41.2202 2.81518 40.9902 2.27518 40.5902 1.86518L39.5502 0.825181C39.1502 0.425181 38.6002 0.185181 38.0202 0.185181H35.3002L27.6802 10.5952C28.2502 11.0452 28.9302 11.4252 29.7502 11.7052C30.7002 12.0352 31.8302 12.2252 33.1802 12.2152Z" fill="#3188AE"/>
<path d="M12.4403 12.7552C6.86027 12.7552 3.69027 9.42515 3.53027 3.37515C3.51027 2.63515 3.80027 1.91515 4.32027 1.39515L5.27027 0.445151C5.78027 -0.0648486 6.46027 -0.344849 7.18027 -0.344849H17.3703C18.0903 -0.344849 18.7703 -0.0648486 19.2803 0.445151L20.3203 1.48515C20.8303 1.99515 21.1103 2.67515 21.1103 3.39515C21.1103 4.94515 20.6903 12.7052 12.5403 12.7552C12.5003 12.7552 12.4703 12.7552 12.4403 12.7552ZM7.18027 0.735151C6.75027 0.735151 6.34027 0.905151 6.04027 1.20515L5.08027 2.15515C4.77027 2.47515 4.59027 2.90515 4.61027 3.34515C4.76027 8.87515 7.39027 11.6752 12.4403 11.6752C12.4703 11.6752 12.5003 11.6752 12.5203 11.6752C19.4803 11.6352 20.0203 5.32515 20.0203 3.39515C20.0203 2.96515 19.8503 2.55515 19.5503 2.25515L18.5103 1.21515C18.2003 0.905151 17.8003 0.745151 17.3703 0.745151H7.18027V0.735151Z" fill="#4247AD"/>
<path d="M33.0902 12.7552C27.5102 12.7552 24.3402 9.42515 24.1802 3.37515C24.1602 2.64515 24.4502 1.92515 24.9702 1.40515L25.9202 0.455151C26.4302 -0.0648486 27.1102 -0.344849 27.8302 -0.344849H38.0202C38.7402 -0.344849 39.4202 -0.0648486 39.9302 0.445151L40.9702 1.48515C41.4802 1.99515 41.7602 2.67515 41.7602 3.39515C41.7602 4.94515 41.3402 12.7052 33.1902 12.7552C33.1502 12.7552 33.1202 12.7552 33.0902 12.7552ZM27.8302 0.735151C27.4002 0.735151 26.9902 0.905151 26.6902 1.20515L25.7402 2.15515C25.4302 2.46515 25.2502 2.89515 25.2702 3.33515C25.4202 8.86515 28.0502 11.6652 33.1002 11.6652C33.1302 11.6652 33.1602 11.6652 33.1802 11.6652C40.1402 11.6252 40.6802 5.31515 40.6802 3.38515C40.6802 2.95515 40.5102 2.54515 40.2102 2.24515L39.1702 1.20515C38.8602 0.895151 38.4602 0.735151 38.0302 0.735151H27.8302Z" fill="#4247AD"/>
</g>
<defs>
<clipPath id="clip0_222_96">
<rect width="43.8" height="13.1" fill="white" transform="translate(0.870117 0.535034)"/>
</clipPath>
</defs>
</svg>
