<svg width="44" height="13" viewBox="0 0 44 13" fill="none" xmlns="http://www.w3.org/2000/svg">
<g clip-path="url(#clip0_222_36)">
<path d="M4.04012 2.83523H0.520117C0.300117 2.83523 0.120117 2.65523 0.120117 2.43523V1.63523C0.120117 1.41523 0.300117 1.23523 0.520117 1.23523H4.04012V2.83523Z" fill="#C56752"/>
<path d="M39.8203 2.83523H43.3403C43.5603 2.83523 43.7403 2.65523 43.7403 2.43523V1.63523C43.7403 1.41523 43.5603 1.23523 43.3403 1.23523H39.8203V2.83523Z" fill="#C56752"/>
<path d="M39.5 0.675176C38.78 -0.194824 37.72 -0.694824 36.59 -0.694824H27.67C26.66 -0.694824 25.69 -0.384824 24.87 0.215176L24.63 0.385176C24.44 0.535176 24.27 0.715176 24.12 0.905176C22.01 0.605176 20.15 0.785176 19.42 0.875176C19.28 0.695176 19.12 0.525176 18.93 0.385176L18.69 0.215176C17.88 -0.384824 16.91 -0.694824 15.9 -0.694824H6.97996C5.85996 -0.694824 4.79996 -0.194824 4.07996 0.675176C3.37996 1.51518 3.09996 2.60518 3.28996 3.66518C3.49996 4.76518 4.07996 5.57518 4.22996 5.77518C7.23996 10.3652 12.56 11.1952 14.88 11.1952C15.21 11.1952 15.48 11.1752 15.68 11.1552C17.08 10.9752 18.11 9.37518 18.53 6.76518C18.65 5.99518 19.03 4.96518 19.62 3.78518C21.55 2.26518 23.17 3.03518 23.8 3.45518C23.82 3.51518 23.84 3.57518 23.87 3.63518C24.51 4.87518 24.91 5.95518 25.04 6.76518C25.45 9.37518 26.49 10.9752 27.89 11.1552C28.08 11.1852 28.36 11.1952 28.69 11.1952C31.01 11.1952 36.33 10.3752 39.34 5.77518C39.49 5.57518 40.08 4.76518 40.28 3.66518C40.48 2.59518 40.2 1.51518 39.5 0.675176ZM16.93 6.49518C16.63 8.38518 15.95 9.47518 15.47 9.53518C15.41 9.54518 8.94996 10.0352 5.56996 4.84518L5.51996 4.78518C5.51996 4.77518 5.02996 4.16518 4.87996 3.35518C4.76996 2.76518 4.92996 2.17518 5.31996 1.70518C5.72996 1.20518 6.33996 0.925176 6.97996 0.925176H15.9C16.57 0.925176 17.2 1.13518 17.74 1.52518L17.98 1.69518C18.16 1.82518 18.28 2.01518 18.33 2.22518L18.2 3.00518C17.72 3.96518 17.12 5.31518 16.93 6.49518ZM38.7 3.36518C38.55 4.17518 38.07 4.78518 38.06 4.78518L38.01 4.85518C34.63 10.0452 28.17 9.54518 28.11 9.54518C27.63 9.48518 26.95 8.39518 26.65 6.50518C26.45 5.27518 25.82 3.85518 25.32 2.88518C25.11 2.46518 25.22 1.96518 25.6 1.69518L25.84 1.52518C26.38 1.13518 27.02 0.925176 27.68 0.925176H36.6C37.24 0.925176 37.85 1.20518 38.26 1.70518C38.65 2.17518 38.81 2.76518 38.7 3.36518Z" fill="#F26548"/>
</g>
<defs>
<clipPath id="clip0_222_36">
<rect width="43.62" height="11.88" fill="white" transform="translate(0.120117 0.185059)"/>
</clipPath>
</defs>
</svg>
