<svg width="44" height="12" viewBox="0 0 44 12" fill="none" xmlns="http://www.w3.org/2000/svg">
<g clip-path="url(#clip0_222_16)">
<path d="M2.84013 0.890188C1.95013 1.92019 2.09013 6.32019 3.27013 7.49019C4.44013 8.66019 13.3901 11.9602 15.6201 10.6802C17.8601 9.40019 20.4101 3.65019 19.1301 1.95019C18.0501 0.510188 4.23013 -0.699812 2.84013 0.890188Z" fill="#FD3952"/>
<path d="M40.7701 0.890188C41.6601 1.92019 41.5201 6.32019 40.3401 7.49019C39.1701 8.66019 30.2201 11.9602 27.9901 10.6802C25.7501 9.40019 23.2001 3.65019 24.4801 1.95019C25.5701 0.510188 39.3901 -0.699812 40.7701 0.890188Z" fill="#FD3952"/>
<path d="M42.7399 0.310127C42.3099 -0.00987267 37.7299 -0.679873 32.7299 -0.439873C26.7999 -0.149873 24.0699 1.53013 21.7799 1.53013C19.4899 1.53013 16.7599 -0.159873 10.8299 -0.439873C5.82994 -0.679873 1.24994 -0.00987267 0.819937 0.310127C0.399937 0.630127 -0.0300628 2.97013 0.0799372 3.39013C0.169937 3.77013 1.00994 4.81013 2.46994 5.64013C2.10994 3.89013 2.22994 1.60013 2.83994 0.890127C4.22994 -0.699873 18.0499 0.510127 19.1399 1.96013C20.0799 3.22013 18.9399 6.68013 17.3699 8.92013C17.4099 8.91013 17.4599 8.91013 17.4899 8.90013C17.4899 8.90013 18.1699 8.72013 18.4899 8.62013C18.6899 8.55013 20.0499 6.08013 21.0699 4.43013C21.3999 3.90013 22.1799 3.90013 22.4999 4.43013C23.5199 6.08013 24.8599 8.55013 25.0499 8.62013C25.3699 8.73013 26.0499 8.90013 26.0499 8.90013C26.1099 8.91013 26.1699 8.92013 26.2299 8.93013C24.6599 6.69013 23.5099 3.22013 24.4599 1.96013C25.5699 0.510127 39.3899 -0.699873 40.7699 0.890127C41.3799 1.59013 41.4999 3.86013 41.1499 5.60013C42.5799 4.78013 43.3899 3.76013 43.4899 3.39013C43.5899 2.97013 43.1699 0.630127 42.7399 0.310127Z" fill="#D4D0D4"/>
</g>
<defs>
<clipPath id="clip0_222_16">
<rect width="43.44" height="11.47" fill="white" transform="translate(0.0600586 0.390015)"/>
</clipPath>
</defs>
</svg>
