<svg width="43" height="18" viewBox="0 0 43 18" fill="none" xmlns="http://www.w3.org/2000/svg">
<g clip-path="url(#clip0_222_62)">
<path d="M2.10986 6.43018C1.85986 6.63018 1.39986 6.91018 1.05986 6.91018C0.809863 6.91018 0.609863 7.11018 0.609863 7.36018V8.47018C0.609863 8.67018 0.749863 8.85018 0.939863 8.90018C1.13986 8.96018 1.39986 9.07018 1.62986 9.30018C2.08986 9.76018 2.15986 10.2702 2.15986 10.2702L2.64986 7.94018L2.10986 6.43018Z" fill="#291F23"/>
<path d="M41.3398 6.43018C41.5898 6.63018 42.0498 6.91018 42.3898 6.91018C42.6398 6.91018 42.8398 7.11018 42.8398 7.36018V8.47018C42.8398 8.67018 42.6998 8.85018 42.5098 8.90018C42.3098 8.96018 42.0498 9.07018 41.8198 9.30018C41.3598 9.76018 41.2898 10.2702 41.2898 10.2702L40.7998 7.94018L41.3398 6.43018Z" fill="#291F23"/>
<path d="M33.0998 -0.25985C28.8698 -0.27985 25.3498 2.77015 24.6398 6.80015C22.6198 6.29015 20.6998 6.29015 18.8698 6.80015C18.1898 2.75015 14.6698 -0.33985 10.4198 -0.31985C5.81978 -0.29985 2.02977 3.42015 1.91977 8.01015C1.80977 12.8201 5.66978 16.7502 10.4598 16.7502C14.9298 16.7502 18.5898 13.3202 18.9698 8.95015C19.0098 8.53015 19.3098 8.17015 19.7198 8.08015C21.0498 7.78015 22.3998 7.79015 23.7598 8.08015C24.1998 8.17015 24.5098 8.55015 24.5498 9.00015C24.9198 13.3801 28.5898 16.8102 33.0598 16.8102C37.8398 16.8102 41.7098 12.8702 41.5998 8.06015C41.4798 3.48015 37.6898 -0.23985 33.0998 -0.25985ZM10.4598 15.6701C6.33978 15.6701 2.99977 12.3301 2.99977 8.21015C2.99977 4.09015 6.33978 0.75015 10.4598 0.75015C14.5798 0.75015 17.9198 4.09015 17.9198 8.21015C17.9198 12.3301 14.5698 15.6701 10.4598 15.6701ZM33.0498 15.7302C28.9298 15.7302 25.5898 12.3902 25.5898 8.27015C25.5898 4.15015 28.9298 0.81015 33.0498 0.81015C37.1698 0.81015 40.5098 4.15015 40.5098 8.27015C40.5098 12.3902 37.1698 15.7302 33.0498 15.7302Z" fill="#291F23"/>
</g>
<defs>
<clipPath id="clip0_222_62">
<rect width="42.23" height="17.13" fill="white" transform="translate(0.609863 0.560059)"/>
</clipPath>
</defs>
</svg>
