<svg width="45" height="14" viewBox="0 0 45 14" fill="none" xmlns="http://www.w3.org/2000/svg">
<g clip-path="url(#clip0_222_55)">
<path d="M20.3198 1.61523C20.6898 2.01523 20.9198 2.50523 20.9998 3.03523H24.1498C24.2098 2.51523 24.4298 2.01523 24.7698 1.61523H20.3198Z" fill="#A9A0A3"/>
<path d="M1.52006 1.61523C1.13006 1.61523 0.810059 1.92523 0.810059 2.32523C0.810059 2.71523 1.13006 3.03523 1.52006 3.03523H3.50006C3.56006 2.51523 3.78006 2.01523 4.12006 1.61523H1.52006Z" fill="#A9A0A3"/>
<path d="M43.9002 1.61523H40.9702C41.3402 2.01523 41.5702 2.50523 41.6502 3.03523H43.9002C44.2902 3.03523 44.6102 2.71523 44.6102 2.32523C44.6102 1.92523 44.2902 1.61523 43.9002 1.61523Z" fill="#A9A0A3"/>
<path d="M21.0002 3.03519C20.9202 2.50519 20.6902 2.01519 20.3202 1.61519C20.3002 1.58519 20.2802 1.55519 20.2502 1.53519L19.2102 0.48519C18.7002 -0.0248095 18.0202 -0.30481 17.3002 -0.30481H7.12021C6.40021 -0.30481 5.72021 -0.0248095 5.21021 0.48519L4.26021 1.43519C4.20021 1.48519 4.17021 1.55519 4.12021 1.61519C3.78021 2.02519 3.56021 2.51519 3.50021 3.03519C3.48021 3.15519 3.47021 3.28519 3.47021 3.41519C3.63021 9.46519 6.79021 12.7952 12.3802 12.7952C12.4102 12.7952 12.4402 12.7952 12.4702 12.7952C20.6302 12.7452 21.0402 4.99519 21.0402 3.43519C21.0402 3.29519 21.0202 3.16519 21.0002 3.03519ZM12.4602 11.7152C12.4302 11.7152 12.4002 11.7152 12.3802 11.7152C7.34021 11.7152 4.70021 8.91519 4.55021 3.38519C4.55021 3.26519 4.56021 3.14519 4.58021 3.03519C4.64021 2.72519 4.79021 2.43519 5.02021 2.20519L5.61021 1.61519L5.97021 1.25519C6.28021 0.94519 6.68021 0.78519 7.11021 0.78519H17.3002C17.7302 0.78519 18.1402 0.95519 18.4402 1.25519L18.8102 1.61519L19.4902 2.29519C19.7002 2.50519 19.8402 2.76519 19.9102 3.03519C19.9402 3.16519 19.9702 3.29519 19.9702 3.43519C19.9602 5.36519 19.4202 11.6652 12.4602 11.7152Z" fill="#D2D0DD"/>
<path d="M41.6501 3.03519C41.5701 2.50519 41.3401 2.01519 40.9701 1.61519C40.9501 1.58519 40.9301 1.55519 40.9001 1.53519L39.8601 0.49519C39.3501 -0.0248095 38.6801 -0.30481 37.9601 -0.30481H27.7701C27.0501 -0.30481 26.3701 -0.0248095 25.8601 0.48519L24.9101 1.43519C24.8601 1.48519 24.8201 1.55519 24.7701 1.60519C24.4301 2.01519 24.2101 2.50519 24.1501 3.02519C24.1401 3.15519 24.1201 3.27519 24.1201 3.40519C24.2801 9.45519 27.4401 12.7852 33.0301 12.7852C33.0601 12.7852 33.0901 12.7852 33.1201 12.7852C41.2801 12.7352 41.6901 4.98519 41.6901 3.42519C41.6901 3.29519 41.6701 3.16519 41.6501 3.03519ZM33.1101 11.7152C33.0801 11.7152 33.0501 11.7152 33.0301 11.7152C27.9901 11.7152 25.3501 8.91519 25.2001 3.38519C25.2001 3.26519 25.2101 3.14519 25.2301 3.03519C25.2901 2.72519 25.4401 2.43519 25.6701 2.20519L26.2601 1.61519L26.6201 1.25519C26.9301 0.94519 27.3301 0.78519 27.7601 0.78519H37.9501C38.3801 0.78519 38.7901 0.95519 39.0901 1.25519L39.4501 1.61519L40.1301 2.29519C40.3401 2.50519 40.4801 2.76519 40.5501 3.03519C40.5801 3.16519 40.6101 3.29519 40.6101 3.43519C40.6101 5.36519 40.0701 11.6652 33.1101 11.7152Z" fill="#D2D0DD"/>
</g>
<defs>
<clipPath id="clip0_222_55">
<rect width="43.8" height="13.1" fill="white" transform="translate(0.810059 0.575073)"/>
</clipPath>
</defs>
</svg>
