<svg width="44" height="14" viewBox="0 0 44 14" fill="none" xmlns="http://www.w3.org/2000/svg">
<g clip-path="url(#clip0_222_67)">
<path d="M43.09 2.9952H0.71C0.32 2.9952 0 2.6752 0 2.2852C0 1.8952 0.32 1.5752 0.71 1.5752H43.09C43.48 1.5752 43.8 1.8952 43.8 2.2852C43.8 2.6752 43.48 2.9952 43.09 2.9952Z" fill="#6F1F6B"/>
<path d="M19.6899 3.39518C19.6899 5.90518 18.7499 12.1652 11.6499 12.2152C10.2999 12.2252 9.16993 12.0352 8.21993 11.7152C6.33993 11.0752 5.15993 9.89518 4.43993 8.57518C3.78993 7.42518 3.47993 6.17518 3.32993 5.08518C3.23993 4.42518 3.20993 3.82518 3.19993 3.35518C3.17993 2.76518 3.40993 2.19518 3.82993 1.77518L4.77993 0.825181C5.17993 0.425181 5.72993 0.185181 6.30993 0.185181H16.4999C17.0699 0.185181 17.6199 0.415181 18.0299 0.825181L19.0699 1.86518C19.4599 2.27518 19.6899 2.81518 19.6899 3.39518Z" fill="#0D1424"/>
<path d="M10.4301 0.19519L4.44008 8.57519C3.79008 7.42519 3.48008 6.17519 3.33008 5.08519L6.83008 0.19519H10.4301Z" fill="#293856"/>
<path d="M19.6897 3.39519C19.6897 5.90519 18.7497 12.1652 11.6497 12.2152C10.2997 12.2252 9.16973 12.0352 8.21973 11.7152L16.4497 0.19519H16.4897C17.0597 0.19519 17.6097 0.42519 18.0197 0.83519L19.0597 1.87519C19.4597 2.27519 19.6897 2.81519 19.6897 3.39519Z" fill="#293856"/>
<path d="M26.9602 0.19519C26.3902 0.19519 25.8402 0.42519 25.4302 0.83519L24.4802 1.78519C24.0602 2.20519 23.8302 2.77519 23.8402 3.36519C23.8502 3.83519 23.8802 4.43519 23.9702 5.09519C24.1202 6.17519 24.4302 7.42519 25.0802 8.58519C25.4902 9.32519 26.0502 10.0252 26.8002 10.6152L34.4202 0.20519H26.9602V0.19519Z" fill="#0D1424"/>
<path d="M32.3101 12.2152C39.4101 12.1752 40.3501 5.90518 40.3501 3.39518C40.3501 2.81518 40.1201 2.27518 39.7201 1.86518L38.6801 0.825181C38.2801 0.425181 37.7301 0.185181 37.1501 0.185181H34.4301L26.8101 10.5952C27.3801 11.0452 28.0601 11.4252 28.8801 11.7052C29.8301 12.0352 30.9601 12.2252 32.3101 12.2152Z" fill="#293856"/>
<path d="M11.5701 12.7552C5.99015 12.7552 2.82015 9.42515 2.66015 3.37515C2.64015 2.63515 2.93015 1.91515 3.45015 1.39515L4.40015 0.445151C4.91015 -0.0648486 5.59015 -0.344849 6.31015 -0.344849H16.5001C17.2201 -0.344849 17.9001 -0.0648486 18.4101 0.445151L19.4502 1.48515C19.9602 1.99515 20.2402 2.67515 20.2402 3.39515C20.2402 4.94515 19.8201 12.7052 11.6701 12.7552C11.6301 12.7552 11.6001 12.7552 11.5701 12.7552ZM6.31015 0.735151C5.88015 0.735151 5.47015 0.905151 5.17015 1.20515L4.21015 2.15515C3.90015 2.47515 3.72015 2.90515 3.74015 3.34515C3.89015 8.87515 6.52015 11.6752 11.5701 11.6752C11.6001 11.6752 11.6301 11.6752 11.6501 11.6752C18.6101 11.6352 19.1502 5.32515 19.1502 3.39515C19.1502 2.96515 18.9802 2.55515 18.6802 2.25515L17.6401 1.21515C17.3301 0.905151 16.9301 0.745151 16.5001 0.745151H6.31015V0.735151Z" fill="#D54E8D"/>
<path d="M32.2201 12.7552C26.6401 12.7552 23.4701 9.42515 23.3101 3.37515C23.2901 2.64515 23.5801 1.92515 24.1001 1.40515L25.0501 0.455151C25.5601 -0.0648486 26.2401 -0.344849 26.9601 -0.344849H37.1501C37.8701 -0.344849 38.5501 -0.0648486 39.0601 0.445151L40.1001 1.48515C40.6101 1.99515 40.8901 2.67515 40.8901 3.39515C40.8901 4.94515 40.4701 12.7052 32.3201 12.7552C32.2801 12.7552 32.2501 12.7552 32.2201 12.7552ZM26.9601 0.735151C26.5301 0.735151 26.1201 0.905151 25.8201 1.20515L24.8701 2.15515C24.5601 2.46515 24.3801 2.89515 24.4001 3.33515C24.5501 8.86515 27.1801 11.6652 32.2301 11.6652C32.2601 11.6652 32.2901 11.6652 32.3101 11.6652C39.2701 11.6252 39.8101 5.31515 39.8101 3.38515C39.8101 2.95515 39.6401 2.54515 39.3401 2.24515L38.3001 1.20515C37.9901 0.895151 37.5901 0.735151 37.1601 0.735151H26.9601Z" fill="#D54E8D"/>
</g>
<defs>
<clipPath id="clip0_222_67">
<rect width="43.8" height="13.1" fill="white" transform="translate(0 0.535034)"/>
</clipPath>
</defs>
</svg>
