<svg width="44" height="18" viewBox="0 0 44 18" fill="none" xmlns="http://www.w3.org/2000/svg">
<g clip-path="url(#clip0_222_82)">
<path d="M43.1598 5.77022H1.5098C1.1198 5.77022 0.799805 5.45022 0.799805 5.06022C0.799805 4.67022 1.1198 4.35022 1.5098 4.35022H43.1598C43.5498 4.35022 43.8698 4.67022 43.8698 5.06022C43.8698 5.45022 43.5498 5.77022 43.1598 5.77022Z" fill="#C2882D"/>
<path d="M11.7396 16.5902C16.3733 16.5902 20.1296 12.8338 20.1296 8.20018C20.1296 3.56651 16.3733 -0.189819 11.7396 -0.189819C7.10594 -0.189819 3.34961 3.56651 3.34961 8.20018C3.34961 12.8338 7.10594 16.5902 11.7396 16.5902Z" fill="#FAC66E"/>
<path d="M11.7397 15.0302C15.5118 15.0302 18.5697 11.9723 18.5697 8.20024C18.5697 4.42813 15.5118 1.37024 11.7397 1.37024C7.96756 1.37024 4.90967 4.42813 4.90967 8.20024C4.90967 11.9723 7.96756 15.0302 11.7397 15.0302Z" fill="#0D1424"/>
<path d="M18.5697 8.20023C18.5697 11.8102 15.7797 14.7602 12.2397 15.0102C12.0697 15.0302 11.9097 15.0302 11.7397 15.0302C9.88967 15.0302 8.21967 14.3002 6.98967 13.1102C6.04967 12.2002 5.37967 11.0402 5.07967 9.73023C4.96967 9.24023 4.90967 8.73023 4.90967 8.20023C4.90967 4.77023 7.43967 1.92023 10.7497 1.44023C11.0697 1.39023 11.4097 1.36023 11.7497 1.36023C12.7697 1.36023 13.7297 1.58023 14.5997 1.99023C16.3497 2.79023 17.7097 4.32023 18.2797 6.19023C18.4697 6.83023 18.5697 7.50023 18.5697 8.20023Z" fill="#384966"/>
<path d="M14.5896 2.00024L6.98959 13.1202C6.04959 12.2102 5.37959 11.0502 5.07959 9.74024L10.7396 1.45024C11.0596 1.40024 11.3996 1.37024 11.7396 1.37024C12.7596 1.37024 13.7196 1.59024 14.5896 2.00024Z" fill="#318899"/>
<path d="M18.5697 8.20019C18.5697 11.8102 15.7797 14.7602 12.2397 15.0102L18.2697 6.19019C18.4697 6.83019 18.5697 7.50019 18.5697 8.20019Z" fill="#318899"/>
<path d="M32.9296 16.5902C37.5632 16.5902 41.3196 12.8338 41.3196 8.20018C41.3196 3.56651 37.5632 -0.189819 32.9296 -0.189819C28.2959 -0.189819 24.5396 3.56651 24.5396 8.20018C24.5396 12.8338 28.2959 16.5902 32.9296 16.5902Z" fill="#FAC66E"/>
<path d="M39.7596 8.20023C39.7596 11.8102 36.9696 14.7602 33.4296 15.0102C33.2596 15.0302 33.0996 15.0302 32.9296 15.0302C31.0796 15.0302 29.4096 14.3002 28.1796 13.1102C27.2396 12.2002 26.5696 11.0402 26.2696 9.73023C26.1596 9.24023 26.0996 8.73023 26.0996 8.20023C26.0996 4.77023 28.6296 1.92023 31.9396 1.44023C32.2596 1.39023 32.5996 1.36023 32.9396 1.36023C33.9596 1.36023 34.9196 1.58023 35.7896 1.99023C37.5396 2.79023 38.8996 4.32023 39.4696 6.19023C39.6596 6.83023 39.7596 7.50023 39.7596 8.20023Z" fill="#384966"/>
<path d="M39.7593 8.20022C39.7593 7.50022 39.6493 6.83022 39.4593 6.19022C39.1293 5.10022 38.5193 4.13022 37.7293 3.35022L30.0493 14.3902C30.9193 14.8002 31.8993 15.0302 32.9293 15.0302C33.0993 15.0302 33.2593 15.0202 33.4293 15.0102C36.9693 14.7602 39.7593 11.8102 39.7593 8.20022Z" fill="#318899"/>
</g>
<defs>
<clipPath id="clip0_222_82">
<rect width="43.07" height="16.79" fill="white" transform="translate(0.799805 0.690063)"/>
</clipPath>
</defs>
</svg>
