<svg width="72" height="94" viewBox="0 0 72 94" fill="none" xmlns="http://www.w3.org/2000/svg">
<g clip-path="url(#clip0_301_5819)">
<path d="M32.6099 18.7999V18.7899L32.6199 18.7999H32.6099Z" fill="#E0DB99"/>
<path d="M11.6298 7.52991L10.1698 57.8999H0.259766C0.979766 56.2499 1.49977 54.1499 1.74977 51.4999L2.34977 21.5299C2.34977 13.9999 11.6298 7.52991 11.6298 7.52991Z" fill="#3D6E70"/>
<path d="M71.3897 58.5399H58.3597C57.7497 54.3099 57.1597 50.8399 56.7997 50.0699V93.7799L32.3497 93.7V93.7099L25.5297 93.6899V93.7399H6.23975V12.4899C6.23975 12.4899 13.6397 2.32995 24.0697 2.32995V12.0099L32.3497 18.5899L32.6097 18.7899L40.0697 11.9999L40.2197 2.31995C40.2197 2.31995 46.6697 2.32995 51.9797 7.52995C64.5097 19.7999 69.6197 39.1899 71.3897 58.5399Z" fill="#34D1AF"/>
<path d="M41.8095 0.780005L46.7995 4.19001L43.1795 23.05C43.1695 23.1 43.0995 23.13 43.0495 23.1C42.1295 22.62 35.7395 19.37 31.4595 19.57L40.8995 0.980005C41.0495 0.670005 41.4995 0.570005 41.8095 0.780005Z" fill="#3D6E70"/>
<path d="M22.6897 0.339948L17.6997 4.05995L20.8997 23.4799C20.9097 23.5399 20.9797 23.5699 21.0297 23.5399C21.9497 23.0199 28.3397 19.4699 32.6197 19.6799L23.5997 0.549948C23.4497 0.219948 22.9897 0.109948 22.6897 0.339948Z" fill="#3D6E70"/>
</g>
<defs>
<clipPath id="clip0_301_5819">
<rect width="71.13" height="93.56" fill="white" transform="translate(0.259766 0.219971)"/>
</clipPath>
</defs>
</svg>
