<svg width="119" height="120" viewBox="0 0 119 120" fill="none" xmlns="http://www.w3.org/2000/svg">
<g clip-path="url(#clip0_301_14696)">
<path d="M41.75 6.34497C41.75 6.34497 34.98 9.94497 34.98 19.305L34.89 44.725C34.87 50.155 33.5 59.825 24.55 59.445C14.98 59.045 15.11 50.135 14.91 46.155C14.84 44.895 14.88 37.925 14.88 37.925H0.220038C0.220038 37.925 0.0900384 42.965 0.210038 45.685C0.580038 53.985 3.26004 71.205 18.96 74.405C30.41 76.745 38.3 71.915 39.31 71.075L41.75 6.34497Z" fill="#EB564B"/>
<path d="M106.29 28.665C101.76 15.225 95.5801 8.67503 90.3401 5.56503C82.4001 0.845029 76.0601 0.405029 76.0601 0.405029L76.0901 5.08503C76.1301 10.595 71.6701 15.085 66.1601 15.085C60.6801 15.085 56.2401 10.645 56.2301 5.16503L56.2101 0.405029C52.9801 0.785029 50.1301 1.79503 45.9701 3.66503C42.5001 5.22503 40.3801 7.29503 40.3801 7.29503L39.3101 71.075V71.085V93.545V119.585H61.4301H64.0401H94.4601V51.485C99.4201 62.165 104.33 113.925 104.33 113.925H118.68C117.38 65.525 106.29 28.665 106.29 28.665Z" fill="#FF9166"/>
</g>
<defs>
<clipPath id="clip0_301_14696">
<rect width="118.52" height="119.19" fill="white" transform="translate(0.160156 0.405029)"/>
</clipPath>
</defs>
</svg>
