<svg width="84" height="124" viewBox="0 0 84 124" fill="none" xmlns="http://www.w3.org/2000/svg">
<g clip-path="url(#clip0_301_1377)">
<path d="M83.31 67.005H67.13C66.13 61.885 65.07 57.735 64.01 55.455V123.555H30.98L34.02 22.725L45.61 4.36499C45.61 4.36499 51.95 4.81499 59.89 9.52499C65.13 12.645 71.31 19.185 75.84 32.625C75.84 32.625 79.84 45.915 83.31 67.005Z" fill="#FFE478"/>
<path d="M11.3 10.3049L10.58 66.0949C10.52 66.1349 0.52002 61.1849 0.52002 61.1849C3.77002 58.0749 4.42002 52.3949 4.43002 48.6849L4.52002 23.2649C4.52002 13.9049 11.3 10.3049 11.3 10.3049Z" fill="#F2A65E"/>
<path d="M25.7599 4.36499C22.5699 4.36499 19.4999 5.50499 15.5199 7.62499C12.1599 9.41499 9.92986 11.255 9.92986 11.255L8.85986 75.035V75.045V97.505V123.545H33.5899L34.0199 22.725L25.7599 4.36499Z" fill="#FFE478"/>
<mask id="mask0_301_1377" style="mask-type:luminance" maskUnits="userSpaceOnUse" x="0" y="0" width="84" height="124">
<path d="M75.84 32.6249C71.31 19.1849 65.13 12.6449 59.89 9.52494C55.66 7.01494 51.9 5.72494 49.29 5.05494L49.36 4.60494L44.37 0.584941C44.07 0.344941 43.61 0.454941 43.46 0.814941L34.03 22.7149V22.7249V22.7349V22.7249L25 2.08494C24.85 1.72494 24.39 1.61494 24.09 1.85494L19.1 5.87494V5.90494C17.98 6.37494 16.8 6.94494 15.52 7.62494C12.16 9.41494 9.93002 11.2549 9.93002 11.2549V11.2649C7.95002 12.8649 4.52002 16.5949 4.52002 23.2649L4.43002 48.6849C4.42002 52.3949 3.77002 58.0749 0.52002 61.1849C0.52002 61.1849 6.20002 64.0049 9.02002 65.3649L8.86002 75.0349V75.0449V97.5049V123.545H30.98H64.01V55.4549C65.07 57.7349 66.13 61.8849 67.13 67.0049H83.31C79.84 45.9149 75.84 32.6249 75.84 32.6249Z" fill="white"/>
</mask>
<g mask="url(#mask0_301_1377)">
<path d="M113.85 12.5649V11.4749H107.11V2.3949H106.02V11.4649H97.1901V2.3949H96.1001V11.4649H68.8101V2.3949H67.7201V11.4649H58.8901V2.3949H57.8001V11.4649H30.5101V2.3949H29.4201V11.4649H20.5901V2.3949H19.5001V11.4649H-5.24994V2.3949H-6.33994V11.4649H-15.1699V2.3949H-16.2599V11.4649H-24.9399V12.5549H-16.2599V20.6649H-24.9399V21.7549H-16.2599V42.8149H-24.9399V43.9049H-16.2599V52.0149H-24.9399V53.1049H-16.2599V74.1649H-24.9399V75.2549H-16.2599V83.3649H-24.9399V84.4549H-16.2599V105.515H-24.9399V106.605H-16.2599V114.715H-24.9399V115.805H-16.2599V125.515H-15.1699V115.805H-6.33994V125.515H-5.24994V115.805H19.5001V125.515H20.5901V115.805H29.4201V125.515H30.5101V115.805H57.8001V125.515H58.8901V115.805H67.7201V125.515H68.8101V115.805H96.1001V125.515H97.1901V115.805H106.02V125.515H107.11V115.805H113.85V114.715H107.11V106.605H113.85V105.515H107.11V84.4549H113.85V83.3649H107.11V75.2549H113.85V74.1649H107.11V53.1049H113.85V52.0149H107.11V43.9049H113.85V42.8149H107.11V21.7649H113.85V20.6749H107.11V12.5649H113.85ZM96.1001 12.5649V20.6749H68.8101V12.5649H96.1001ZM30.5101 52.0149V43.9049H57.8001V52.0149H30.5101ZM57.8001 53.1049V74.1649H30.5101V53.1049H57.8001ZM29.4101 52.0149H20.5801V43.9049H29.4101V52.0149ZM29.4101 53.1049V74.1649H20.5801V53.1049H29.4101ZM29.4101 75.2549V83.3649H20.5801V75.2549H29.4101ZM30.5101 75.2549H57.8001V83.3649H30.5101V75.2549ZM58.8901 75.2549H67.7201V83.3649H58.8901V75.2549ZM58.8901 74.1649V53.1049H67.7201V74.1649H58.8901ZM58.8901 52.0149V43.9049H67.7201V52.0149H58.8901ZM58.8901 42.8149V21.7649H67.7201V42.8249H58.8901V42.8149ZM57.8001 42.8149H30.5101V21.7649H57.8001V42.8149ZM29.4101 42.8149H20.5801V21.7649H29.4101V42.8149ZM19.5001 42.8149H-5.24994V21.7649H19.5001V42.8149ZM19.5001 43.9149V52.0249H-5.24994V43.9149H19.5001ZM19.5001 53.1049V74.1649H-5.24994V53.1049H19.5001ZM19.5001 75.2549V83.3649H-5.24994V75.2549H19.5001ZM19.5001 84.4549V105.515H-5.24994V84.4549H19.5001ZM20.5901 84.4549H29.4201V105.515H20.5901V84.4549ZM30.5101 84.4549H57.8001V105.515H30.5101V84.4549ZM58.8901 84.4549H67.7201V105.515H58.8901V84.4549ZM68.8101 84.4549H96.1001V105.515H68.8101V84.4549ZM68.8101 83.3649V75.2549H96.1001V83.3649H68.8101ZM68.8101 74.1649V53.1049H96.1001V74.1649H68.8101ZM68.8101 52.0149V43.9049H96.1001V52.0149H68.8101ZM68.8101 42.8149V21.7649H96.1001V42.8249H68.8101V42.8149ZM67.7101 12.5649V20.6749H58.8801V12.5649H67.7101ZM57.8001 12.5649V20.6749H30.5101V12.5649H57.8001ZM29.4101 12.5649V20.6749H20.5801V12.5649H29.4101ZM19.5001 12.5649V20.6749H-5.24994V12.5649H19.5001ZM-15.1699 12.5649H-6.33994V20.6749H-15.1699V12.5649ZM-15.1699 21.7649H-6.33994V42.8249H-15.1699V21.7649ZM-15.1699 43.9149H-6.33994V52.0249H-15.1699V43.9149ZM-15.1699 53.1049H-6.33994V74.1649H-15.1699V53.1049ZM-15.1699 75.2549H-6.33994V83.3649H-15.1699V75.2549ZM-15.1699 84.4549H-6.33994V105.515H-15.1699V84.4549ZM-15.1699 114.715V106.605H-6.33994V114.715H-15.1699ZM-5.24994 114.715V106.605H19.5001V114.715H-5.24994ZM20.5901 114.715V106.605H29.4201V114.715H20.5901ZM30.5101 114.715V106.605H57.8001V114.715H30.5101ZM58.8901 114.715V106.605H67.7201V114.715H58.8901ZM68.8101 114.715V106.605H96.1001V114.715H68.8101ZM106.01 114.715H97.1801V106.605H106.01V114.715ZM106.01 105.515H97.1801V84.4549H106.01V105.515ZM106.01 83.3649H97.1801V75.2549H106.01V83.3649ZM106.01 74.1649H97.1801V53.1049H106.01V74.1649ZM106.01 52.0149H97.1801V43.9049H106.01V52.0149ZM106.01 42.8149H97.1801V21.7649H106.01V42.8149ZM106.01 20.6649H97.1801V12.5549H106.01V20.6649Z" fill="#F2A65E"/>
</g>
<path d="M44.37 0.584941L49.36 4.60494L45.74 26.8349C45.73 26.8949 45.66 26.9249 45.61 26.8949C44.69 26.3349 38.3 22.5049 34.02 22.7249L43.46 0.814941C43.61 0.454941 44.07 0.344941 44.37 0.584941Z" fill="#F2A65E"/>
<path d="M24.0901 1.86496L19.1001 5.88496L22.3001 26.835C22.3101 26.895 22.3801 26.925 22.4301 26.895C23.3501 26.335 29.7401 22.505 34.0201 22.725L25.0001 2.08496C24.8501 1.72496 24.3901 1.61496 24.0901 1.86496Z" fill="#F2A65E"/>
</g>
<defs>
<clipPath id="clip0_301_1377">
<rect width="82.79" height="123.09" fill="white" transform="translate(0.52002 0.454956)"/>
</clipPath>
</defs>
</svg>
