<svg width="129" height="134" viewBox="0 0 129 134" fill="none" xmlns="http://www.w3.org/2000/svg">
<g clip-path="url(#clip0_331_604)">
<path d="M119.75 76.2351H103.57C102.57 71.1151 101.51 66.9651 100.45 64.6851V132.785H67.4199L70.4599 31.9551L82.0499 13.5951C82.0499 13.5951 88.3899 14.0451 96.3299 18.7551C101.57 21.8751 107.75 28.4151 112.28 41.8551C112.28 41.8551 116.28 55.1451 119.75 76.2351Z" fill="#FFE478"/>
<path d="M47.74 19.535L47.02 75.325C46.96 75.375 36.96 70.415 36.96 70.415C40.21 67.305 40.86 61.625 40.87 57.915L40.96 32.495C40.96 23.135 47.74 19.535 47.74 19.535Z" fill="#F2A65E"/>
<path d="M62.1998 13.5951C59.0098 13.5951 55.9398 14.7351 51.9598 16.8551C48.5998 18.6451 46.3698 20.4851 46.3698 20.4851L45.2998 84.2651V84.2751V106.735V132.775H70.0298L70.4598 31.9651L62.1998 13.5951Z" fill="#FFE478"/>
<mask id="mask0_331_604" style="mask-type:luminance" maskUnits="userSpaceOnUse" x="36" y="9" width="84" height="124">
<path d="M112.28 41.8551C107.75 28.4151 101.57 21.8751 96.3297 18.7551C92.0997 16.2451 88.3397 14.9551 85.7297 14.2851L85.7997 13.8351L80.8097 9.81507C80.4997 9.56507 80.0497 9.68507 79.8997 10.0451L70.4697 31.9451V31.9551V31.9651V31.9551L61.4497 11.3151C61.2997 10.9551 60.8397 10.8451 60.5397 11.0851L55.5497 15.1051V15.1351C54.4297 15.6051 53.2497 16.1751 51.9697 16.8551C48.6097 18.6451 46.3797 20.4851 46.3797 20.4851V20.4951C44.3997 22.0951 40.9697 25.8351 40.9697 32.4951L40.8797 57.9151C40.8697 61.6251 40.2197 67.3051 36.9697 70.4151C36.9697 70.4151 42.6497 73.2351 45.4697 74.5951L45.3097 84.2651V84.2751V106.735V132.775H67.4297H100.46V64.6751C101.52 66.9551 102.58 71.1051 103.58 76.2251H119.76C116.28 55.1451 112.28 41.8551 112.28 41.8551Z" fill="white"/>
</mask>
<g mask="url(#mask0_331_604)">
<path d="M150.29 21.795V20.705H143.55V11.635H142.46V20.705H133.63V11.635H132.54V20.705H105.25V11.635H104.16V20.705H95.3295V11.635H94.2395V20.705H66.9495V11.635H65.8595V20.705H57.0295V11.635H55.9395V20.705H31.1895V11.635H30.0995V20.705H21.2695V11.635H20.1795V20.705H11.4995V21.795H20.1795V29.905H11.4995V30.995H20.1795V52.055H11.4995V53.145H20.1795V61.255H11.4995V62.345H20.1795V83.405H11.4995V84.495H20.1795V92.605H11.4995V93.695H20.1795V114.755H11.4995V115.845H20.1795V123.955H11.4995V125.045H20.1795V134.755H21.2695V125.045H30.0995V134.755H31.1895V125.045H55.9395V134.755H57.0295V125.045H65.8595V134.755H66.9495V125.045H94.2395V134.755H95.3295V125.045H104.16V134.755H105.25V125.045H132.54V134.755H133.63V125.045H142.46V134.755H143.55V125.045H150.29V123.955H143.55V115.845H150.29V114.755H143.55V93.695H150.29V92.605H143.55V84.495H150.29V83.405H143.55V62.345H150.29V61.255H143.55V53.145H150.29V52.055H143.55V30.995H150.29V29.905H143.55V21.795H150.29ZM132.54 21.795V29.905H105.25V21.795H132.54ZM66.9495 61.255V53.145H94.2395V61.255H66.9495ZM94.2395 62.345V83.405H66.9495V62.345H94.2395ZM65.8595 61.255H57.0295V53.145H65.8595V61.255ZM65.8595 62.345V83.405H57.0295V62.345H65.8595ZM65.8595 84.495V92.605H57.0295V84.495H65.8595ZM66.9495 84.495H94.2395V92.605H66.9495V84.495ZM95.3295 84.495H104.16V92.605H95.3295V84.495ZM95.3295 83.405V62.345H104.16V83.405H95.3295ZM95.3295 61.255V53.145H104.16V61.255H95.3295ZM95.3295 52.055V30.995H104.16V52.055H95.3295ZM94.2395 52.055H66.9495V30.995H94.2395V52.055ZM65.8595 52.055H57.0295V30.995H65.8595V52.055ZM55.9395 52.055H31.1895V30.995H55.9395V52.055ZM55.9395 53.145V61.255H31.1895V53.145H55.9395ZM55.9395 62.345V83.405H31.1895V62.345H55.9395ZM55.9395 84.495V92.605H31.1895V84.495H55.9395ZM55.9395 93.695V114.755H31.1895V93.695H55.9395ZM57.0295 93.695H65.8595V114.755H57.0295V93.695ZM66.9495 93.695H94.2395V114.755H66.9495V93.695ZM95.3295 93.695H104.16V114.755H95.3295V93.695ZM105.25 93.695H132.54V114.755H105.25V93.695ZM105.25 92.605V84.495H132.54V92.605H105.25ZM105.25 83.405V62.345H132.54V83.405H105.25ZM105.25 61.255V53.145H132.54V61.255H105.25ZM105.25 52.055V30.995H132.54V52.055H105.25ZM104.16 21.795V29.905H95.3295V21.795H104.16ZM94.2395 21.795V29.905H66.9495V21.795H94.2395ZM65.8595 21.795V29.905H57.0295V21.795H65.8595ZM55.9395 21.795V29.905H31.1895V21.795H55.9395ZM21.2795 21.795H30.1095V29.905H21.2795V21.795ZM21.2795 30.995H30.1095V52.055H21.2795V30.995ZM21.2795 53.145H30.1095V61.255H21.2795V53.145ZM21.2795 62.345H30.1095V83.405H21.2795V62.345ZM21.2795 84.495H30.1095V92.605H21.2795V84.495ZM21.2795 93.695H30.1095V114.755H21.2795V93.695ZM21.2795 123.945V115.835H30.1095V123.945H21.2795ZM31.1895 123.945V115.835H55.9395V123.945H31.1895ZM57.0295 123.945V115.835H65.8595V123.945H57.0295ZM66.9495 123.945V115.835H94.2395V123.945H66.9495ZM95.3295 123.945V115.835H104.16V123.945H95.3295ZM105.25 123.945V115.835H132.54V123.945H105.25ZM142.46 123.945H133.63V115.835H142.46V123.945ZM142.46 114.755H133.63V93.695H142.46V114.755ZM142.46 92.605H133.63V84.495H142.46V92.605ZM142.46 83.405H133.63V62.345H142.46V83.405ZM142.46 61.255H133.63V53.145H142.46V61.255ZM142.46 52.055H133.63V30.995H142.46V52.055ZM142.46 29.905H133.63V21.795H142.46V29.905Z" fill="#F2A65E"/>
</g>
<path d="M80.8197 9.82504L85.8097 13.845L82.1897 36.065C82.1797 36.125 82.1097 36.155 82.0597 36.125C81.1397 35.565 74.7497 31.735 70.4697 31.955L79.9097 10.045C80.0597 9.68504 80.5097 9.57504 80.8197 9.82504Z" fill="#F2A65E"/>
<path d="M60.53 11.0951L55.54 15.1151L58.74 36.0651C58.75 36.1251 58.82 36.1551 58.87 36.1251C59.79 35.5651 66.18 31.7351 70.46 31.9551L61.44 11.3151C61.29 10.9651 60.83 10.8551 60.53 11.0951Z" fill="#F2A65E"/>
</g>
<defs>
<clipPath id="clip0_331_604">
<rect width="129" height="134" fill="white"/>
</clipPath>
</defs>
</svg>
