<svg width="129" height="134" viewBox="0 0 129 134" fill="none" xmlns="http://www.w3.org/2000/svg">
<g clip-path="url(#clip0_331_708)">
<path d="M47.1499 20.4451C47.1499 20.4451 40.3799 24.0451 40.3799 33.4051L40.2899 58.8251C40.2699 64.2551 38.8999 73.9251 29.9499 73.5451C20.3799 73.1451 20.5099 64.2351 20.3099 60.2551C20.2399 58.9951 20.2799 52.0251 20.2799 52.0251H5.61994C5.61994 52.0251 5.48994 57.0651 5.60994 59.7851C5.97994 68.0851 8.64994 85.3051 24.3599 88.5051C35.8099 90.8451 43.6999 86.0151 44.7099 85.1751L47.1499 20.4451Z" fill="#C12B3F"/>
<path d="M99.86 105.485H44.71V133.685H99.86V105.485Z" fill="#F9364D"/>
<path d="M111.69 42.765C107.16 29.325 100.97 22.775 95.7302 19.665C87.7902 14.945 81.4602 14.505 81.4602 14.505H61.6102C58.3802 14.885 55.5302 15.895 51.3702 17.765C47.9002 19.315 45.7802 21.395 45.7802 21.395L44.9302 71.945H99.8602V65.585C104.82 76.265 109.73 128.025 109.73 128.025H124.07C122.78 79.615 111.69 42.765 111.69 42.765Z" fill="#F9364D"/>
<path d="M44.71 85.175V105.485H99.86V71.9449H44.93L44.71 85.175Z" fill="#FFFFEB"/>
</g>
<defs>
<clipPath id="clip0_331_708">
<rect width="129" height="134" fill="white"/>
</clipPath>
</defs>
</svg>
