<svg width="84" height="120" viewBox="0 0 84 120" fill="none" xmlns="http://www.w3.org/2000/svg">
<g clip-path="url(#clip0_301_1412)">
<path d="M11.2898 6.34497L10.5698 62.135C10.5098 62.185 0.509766 57.225 0.509766 57.225C3.75977 54.115 4.40977 48.435 4.41977 44.725L4.50977 19.305C4.50977 9.94497 11.2898 6.34497 11.2898 6.34497Z" fill="#FF6B97"/>
<path d="M75.8296 28.665C71.2996 15.225 65.1196 8.68503 59.8796 5.56503C51.9396 0.855029 45.5996 0.405029 45.5996 0.405029C46.4396 6.23503 41.9096 11.455 36.0296 11.455H35.3496C29.6996 11.455 25.2496 6.62503 25.7096 0.995029L25.7496 0.405029C22.5596 0.405029 19.4996 1.55503 15.5096 3.66503C12.1496 5.45503 9.91961 7.29503 9.91961 7.29503L8.84961 71.085V71.095V93.555V119.595H30.9696H63.9996V51.495C65.0596 53.775 66.1196 57.925 67.1196 63.045H83.2996C79.8296 41.955 75.8296 28.665 75.8296 28.665Z" fill="#FFB5B5"/>
</g>
<defs>
<clipPath id="clip0_301_1412">
<rect width="82.79" height="119.19" fill="white" transform="translate(0.509766 0.405029)"/>
</clipPath>
</defs>
</svg>
