<svg width="85" height="124" viewBox="0 0 85 124" fill="none" xmlns="http://www.w3.org/2000/svg">
<g clip-path="url(#clip0_301_14668)">
<path d="M83.4999 66.78H67.3199C66.3199 61.66 65.2599 57.51 64.1999 55.23V123.33H31.1699L34.2099 22.5L45.7999 4.14001C45.7999 4.14001 52.1399 4.59001 60.0799 9.30001C65.3199 12.42 71.4999 18.96 76.0299 32.4C76.0299 32.4 80.0299 45.69 83.4999 66.78Z" fill="#FFE478"/>
<path d="M11.49 10.08L10.77 65.87C10.71 65.91 0.709961 60.96 0.709961 60.96C3.95996 57.85 4.60996 52.17 4.61996 48.46L4.70996 23.04C4.70996 13.68 11.49 10.08 11.49 10.08Z" fill="#F2A65E"/>
<path d="M25.9498 4.14001C22.7598 4.14001 19.6898 5.28001 15.7098 7.40001C12.3498 9.19001 10.1198 11.03 10.1198 11.03L9.0498 74.81V74.82V97.28V123.32H33.7798L34.2098 22.5L25.9498 4.14001Z" fill="#FFE478"/>
<mask id="mask0_301_14668" style="mask-type:luminance" maskUnits="userSpaceOnUse" x="0" y="0" width="84" height="124">
<path d="M76.03 32.4C71.5 18.96 65.32 12.42 60.08 9.29996C55.85 6.78996 52.09 5.49997 49.48 4.82997L49.55 4.37997L44.56 0.359966C44.26 0.119966 43.8 0.229966 43.65 0.589966L34.22 22.49V22.5V22.51V22.5L25.19 1.85997C25.04 1.49997 24.58 1.38997 24.28 1.62997L19.29 5.64997V5.67997C18.17 6.14997 16.99 6.71997 15.71 7.39997C12.35 9.18997 10.12 11.03 10.12 11.03V11.04C8.13996 12.64 4.70996 16.37 4.70996 23.04L4.61996 48.46C4.60996 52.17 3.95996 57.85 0.709961 60.96C0.709961 60.96 6.38996 63.78 9.20996 65.14L9.04996 74.81V74.82V97.28V123.32H31.17H64.2V55.23C65.26 57.51 66.32 61.66 67.32 66.78H83.5C80.03 45.69 76.03 32.4 76.03 32.4Z" fill="white"/>
</mask>
<g mask="url(#mask0_301_14668)">
<path d="M114.04 12.3399V11.2499H107.3V2.16992H106.21V11.2399H97.38V2.16992H96.29V11.2399H69V2.16992H67.91V11.2399H59.08V2.16992H57.99V11.2399H30.7V2.16992H29.61V11.2399H20.78V2.16992H19.69V11.2399H-5.06V2.16992H-6.15V11.2399H-14.98V2.16992H-16.07V11.2399H-24.75V12.3299H-16.07V20.4399H-24.75V21.5299H-16.07V42.5899H-24.75V43.6799H-16.07V51.7899H-24.75V52.8799H-16.07V73.9399H-24.75V75.0299H-16.07V83.1399H-24.75V84.2299H-16.07V105.29H-24.75V106.38H-16.07V114.49H-24.75V115.58H-16.07V125.29H-14.98V115.58H-6.15V125.29H-5.06V115.58H19.69V125.29H20.78V115.58H29.61V125.29H30.7V115.58H57.99V125.29H59.08V115.58H67.91V125.29H69V115.58H96.29V125.29H97.38V115.58H106.21V125.29H107.3V115.58H114.04V114.49H107.3V106.38H114.04V105.29H107.3V84.2299H114.04V83.1399H107.3V75.0299H114.04V73.9399H107.3V52.8799H114.04V51.7899H107.3V43.6799H114.04V42.5899H107.3V21.5399H114.04V20.4499H107.3V12.3399H114.04ZM96.29 12.3399V20.4499H69V12.3399H96.29ZM30.7 51.7899V43.6799H57.99V51.7899H30.7ZM57.99 52.8799V73.9399H30.7V52.8799H57.99ZM29.6 51.7899H20.77V43.6799H29.6V51.7899ZM29.6 52.8799V73.9399H20.77V52.8799H29.6ZM29.6 75.0299V83.1399H20.77V75.0299H29.6ZM30.7 75.0299H57.99V83.1399H30.7V75.0299ZM59.08 75.0299H67.91V83.1399H59.08V75.0299ZM59.08 73.9399V52.8799H67.91V73.9399H59.08ZM59.08 51.7899V43.6799H67.91V51.7899H59.08ZM59.08 42.5899V21.5399H67.91V42.5999H59.08V42.5899ZM57.99 42.5899H30.7V21.5399H57.99V42.5899ZM29.6 42.5899H20.77V21.5399H29.6V42.5899ZM19.69 42.5899H-5.06V21.5399H19.69V42.5899ZM19.69 43.6899V51.7999H-5.06V43.6899H19.69ZM19.69 52.8799V73.9399H-5.06V52.8799H19.69ZM19.69 75.0299V83.1399H-5.06V75.0299H19.69ZM19.69 84.2299V105.29H-5.06V84.2299H19.69ZM20.78 84.2299H29.61V105.29H20.78V84.2299ZM30.7 84.2299H57.99V105.29H30.7V84.2299ZM59.08 84.2299H67.91V105.29H59.08V84.2299ZM69 84.2299H96.29V105.29H69V84.2299ZM69 83.1399V75.0299H96.29V83.1399H69ZM69 73.9399V52.8799H96.29V73.9399H69ZM69 51.7899V43.6799H96.29V51.7899H69ZM69 42.5899V21.5399H96.29V42.5999H69V42.5899ZM67.9 12.3399V20.4499H59.07V12.3399H67.9ZM57.99 12.3399V20.4499H30.7V12.3399H57.99ZM29.6 12.3399V20.4499H20.77V12.3399H29.6ZM19.69 12.3399V20.4499H-5.06V12.3399H19.69ZM-14.98 12.3399H-6.15V20.4499H-14.98V12.3399ZM-14.98 21.5399H-6.15V42.5999H-14.98V21.5399ZM-14.98 43.6899H-6.15V51.7999H-14.98V43.6899ZM-14.98 52.8799H-6.15V73.9399H-14.98V52.8799ZM-14.98 75.0299H-6.15V83.1399H-14.98V75.0299ZM-14.98 84.2299H-6.15V105.29H-14.98V84.2299ZM-14.98 114.49V106.38H-6.15V114.49H-14.98ZM-5.06 114.49V106.38H19.69V114.49H-5.06ZM20.78 114.49V106.38H29.61V114.49H20.78ZM30.7 114.49V106.38H57.99V114.49H30.7ZM59.08 114.49V106.38H67.91V114.49H59.08ZM69 114.49V106.38H96.29V114.49H69ZM106.2 114.49H97.37V106.38H106.2V114.49ZM106.2 105.29H97.37V84.2299H106.2V105.29ZM106.2 83.1399H97.37V75.0299H106.2V83.1399ZM106.2 73.9399H97.37V52.8799H106.2V73.9399ZM106.2 51.7899H97.37V43.6799H106.2V51.7899ZM106.2 42.5899H97.37V21.5399H106.2V42.5899ZM106.2 20.4399H97.37V12.3299H106.2V20.4399Z" fill="#F2A65E"/>
</g>
<path d="M44.56 0.359966L49.55 4.37997L45.93 26.61C45.92 26.67 45.85 26.7 45.8 26.67C44.88 26.11 38.49 22.28 34.21 22.5L43.65 0.589966C43.8 0.229966 44.26 0.119966 44.56 0.359966Z" fill="#F2A65E"/>
<path d="M24.28 1.63998L19.29 5.65998L22.49 26.61C22.5 26.67 22.57 26.7 22.62 26.67C23.54 26.11 29.93 22.28 34.21 22.5L25.19 1.85998C25.04 1.49998 24.58 1.38998 24.28 1.63998Z" fill="#F2A65E"/>
</g>
<defs>
<clipPath id="clip0_301_14668">
<rect width="83.56" height="123.54" fill="white" transform="translate(0.709961 0.22998)"/>
</clipPath>
</defs>
</svg>
