<svg width="120" height="124" viewBox="0 0 120 124" fill="none" xmlns="http://www.w3.org/2000/svg">
<g clip-path="url(#clip0_301_14636)">
<path d="M106.74 32.625C102.21 19.185 96.0199 12.635 90.7799 9.52499C82.8499 4.80499 76.5099 4.36499 76.5099 4.36499L64.9199 22.725L61.8799 123.545H94.9099V55.445C99.8699 66.125 104.78 117.885 104.78 117.885H119.13C117.83 69.485 106.74 32.625 106.74 32.625Z" fill="#FFE478"/>
<path d="M42.1997 10.3049C42.1997 10.3049 35.4297 13.9049 35.4297 23.2649L35.3397 48.6849C35.3197 54.1149 33.9497 63.7849 24.9997 63.4049C15.4297 63.0049 15.5597 54.0949 15.3597 50.1149C15.2897 48.8549 15.3297 41.8849 15.3297 41.8849H0.669745C0.669745 41.8849 0.539745 46.9249 0.659745 49.6449C1.02975 57.9449 3.69974 75.1649 19.4097 78.3649C30.8597 80.7049 38.7497 75.8749 39.7597 75.0349L42.1997 10.3049Z" fill="#BA6156"/>
<path d="M56.6598 4.36499C53.4698 4.36499 50.3998 5.50499 46.4198 7.62499C43.0598 9.41499 40.8298 11.255 40.8298 11.255L39.7598 75.035V75.045V97.505V123.545H64.4898L64.9198 22.725L56.6598 4.36499Z" fill="#F2A65E"/>
<path d="M75.2699 0.584941L80.2599 4.60494L76.6399 26.8349C76.6299 26.8949 76.5599 26.9249 76.5099 26.8949C75.5899 26.3349 69.1999 22.5049 64.9199 22.7249L74.3599 0.814941C74.5099 0.454941 74.9699 0.344941 75.2699 0.584941Z" fill="#F2A65E"/>
<path d="M54.9895 1.86496L49.9995 5.88496L53.1995 26.835C53.2095 26.895 53.2795 26.925 53.3295 26.895C54.2495 26.335 60.6395 22.505 64.9195 22.725L55.8995 2.08496C55.7495 1.72496 55.2895 1.61496 54.9895 1.86496Z" fill="#FFE478"/>
<path d="M69.6297 50.005C70.8116 50.005 71.7698 49.0469 71.7698 47.865C71.7698 46.6831 70.8116 45.725 69.6297 45.725C68.4479 45.725 67.4897 46.6831 67.4897 47.865C67.4897 49.0469 68.4479 50.005 69.6297 50.005Z" fill="#FF9166"/>
<path d="M69.6297 64.505C70.8116 64.505 71.7698 63.5469 71.7698 62.365C71.7698 61.1831 70.8116 60.225 69.6297 60.225C68.4479 60.225 67.4897 61.1831 67.4897 62.365C67.4897 63.5469 68.4479 64.505 69.6297 64.505Z" fill="#FF9166"/>
<path d="M69.6297 78.995C70.8116 78.995 71.7698 78.0369 71.7698 76.855C71.7698 75.6731 70.8116 74.715 69.6297 74.715C68.4479 74.715 67.4897 75.6731 67.4897 76.855C67.4897 78.0369 68.4479 78.995 69.6297 78.995Z" fill="#FF9166"/>
<path d="M69.6297 93.495C70.8116 93.495 71.7698 92.5369 71.7698 91.355C71.7698 90.1731 70.8116 89.215 69.6297 89.215C68.4479 89.215 67.4897 90.1731 67.4897 91.355C67.4897 92.5369 68.4479 93.495 69.6297 93.495Z" fill="#FF9166"/>
<path d="M69.6297 107.985C70.8116 107.985 71.7698 107.027 71.7698 105.845C71.7698 104.663 70.8116 103.705 69.6297 103.705C68.4479 103.705 67.4897 104.663 67.4897 105.845C67.4897 107.027 68.4479 107.985 69.6297 107.985Z" fill="#FF9166"/>
</g>
<defs>
<clipPath id="clip0_301_14636">
<rect width="118.52" height="123.09" fill="white" transform="translate(0.609863 0.454956)"/>
</clipPath>
</defs>
</svg>
