<svg width="95" height="92" viewBox="0 0 95 92" fill="none" xmlns="http://www.w3.org/2000/svg">
<g clip-path="url(#clip0_301_5841)">
<path d="M54.3901 16.75V16.74L54.4001 16.75H54.3901Z" fill="#E0DB99"/>
<path d="M33.4 5.47998L31.63 66.57C28.27 69.7 25.01 71.79 21.85 72.83C9.25002 76.96 0.52002 69.69 0.52002 69.69L8.73002 60.72C8.73002 60.72 21.89 66.62 23.52 49.45L24.12 19.48C24.12 11.95 33.4 5.47998 33.4 5.47998Z" fill="#EB564B"/>
<path d="M94.12 79.48H82.58C82.58 79.48 82.58 77.97 82.51 75.58C82.47 74.56 79.62 50.25 78.58 48.02V91.73L54.13 91.66L47.31 91.63V91.68H28.02V10.43C28.02 10.43 35.42 0.27002 45.85 0.27002L46.19 0.71002C50.26 5.93002 58.22 5.71002 62 0.27002C62 0.27002 68.45 0.28002 73.76 5.48002C90.47 21.85 93.98 50.87 93.98 75.58C93.98 76.86 94.08 78.16 94.12 79.48Z" fill="#FF9166"/>
</g>
<defs>
<clipPath id="clip0_301_5841">
<rect width="93.6" height="91.46" fill="white" transform="translate(0.52002 0.27002)"/>
</clipPath>
</defs>
</svg>
