<svg width="90" height="114" viewBox="0 0 90 114" fill="none" xmlns="http://www.w3.org/2000/svg">
<g clip-path="url(#clip0_301_11682)">
<path d="M20.2402 7.16492V17.4249C20.2402 42.0149 19.6902 53.0349 15.6202 61.6849C14.2202 64.6449 12.4402 66.6949 10.3002 68.0949L0.950195 46.7149C1.0302 46.7349 1.1202 46.7349 1.2002 46.7349C7.9702 46.7349 8.35019 33.8149 8.9202 24.3049C9.0802 21.6549 9.85019 16.9749 12.3202 13.9449C14.9602 10.6949 17.8702 8.53492 20.2402 7.16492Z" fill="#3D6E70"/>
<path d="M83.9904 79.195C85.5704 92.105 77.4004 106.565 70.4304 110.375L70.3204 113.925H13.3704V111.045C6.79037 105.575 3.73037 97.715 2.64037 92.665L2.57037 92.095L2.13037 88.055C2.13037 87.815 2.13037 87.585 2.15037 87.365C2.15037 74.275 9.10037 66.655 9.09037 67.085L7.62037 34.675C7.62037 32.025 7.24037 22.695 8.92037 17.975C10.2404 14.285 14.1304 10.585 14.2904 10.435V10.425C14.2904 10.425 16.7304 8.23496 18.8904 7.03496C24.3904 3.98496 26.5504 4.03496 29.2804 4.03496L29.0504 14.655L41.1104 23.835L53.5204 4.44496C53.5204 4.44496 62.2704 4.73496 71.0204 11.785C71.4304 12.105 71.8304 12.455 72.2404 12.795C74.3504 14.665 76.4404 16.945 78.3804 19.725C81.2204 23.785 83.2204 28.375 84.4804 33.175C85.7604 38.055 87.8104 46.595 89.6904 57.675H77.6104V65.475C77.6104 65.475 77.6204 66.495 77.6404 66.525C77.9604 66.935 80.5504 69.275 82.2204 72.815C82.6704 73.775 83.0604 74.755 83.3104 75.685C83.6204 76.845 83.8504 78.015 83.9904 79.195Z" fill="#34D1AF"/>
<path d="M30.1604 0.234891L24.1904 5.03489L28.0204 30.0949C28.0304 30.1649 28.1104 30.2049 28.1804 30.1649C29.2804 29.4949 36.0004 23.5649 41.1304 23.8349L31.2504 0.504891C31.0704 0.0748911 30.5204 -0.0651089 30.1604 0.234891Z" fill="#3D6E70"/>
<path d="M53.0004 0.234891L58.9704 5.03489L55.1404 30.0949C55.1304 30.1649 55.0504 30.2049 54.9804 30.1649C53.8804 29.4949 46.2404 23.5649 41.1104 23.8349L51.9004 0.504891C52.0904 0.0748911 52.6304 -0.0651089 53.0004 0.234891Z" fill="#3D6E70"/>
</g>
<defs>
<clipPath id="clip0_301_11682">
<rect width="88.74" height="113.85" fill="white" transform="translate(0.950195 0.0749512)"/>
</clipPath>
</defs>
</svg>
