<svg width="90" height="114" viewBox="0 0 90 114" fill="none" xmlns="http://www.w3.org/2000/svg">
<g clip-path="url(#clip0_301_11656)">
<path d="M20.1001 7.16492V17.4249C20.1001 42.0149 19.5501 53.0349 15.4801 61.6849C14.0801 64.6449 12.3001 66.6949 10.1601 68.0949L0.810059 46.7149C0.890059 46.7349 0.980059 46.7349 1.06006 46.7349C7.83006 46.7349 8.21006 33.8149 8.78006 24.3049C8.94006 21.6549 9.71006 16.9749 12.1801 13.9449C14.8201 10.6949 17.7301 8.53492 20.1001 7.16492Z" fill="#F2A65E"/>
<path d="M83.8502 79.195C85.4302 92.105 77.2602 106.565 70.2902 110.375L70.1802 113.925H13.2302V111.045C6.65023 105.575 3.59023 97.715 2.50023 92.665L2.43023 92.095L1.99023 88.055C1.99023 87.815 1.99023 87.585 2.01023 87.365C2.01023 74.275 8.96024 66.655 8.95023 67.085L7.48023 34.675C7.48023 32.025 7.10023 22.695 8.78023 17.975C10.1002 14.285 13.9902 10.585 14.1502 10.435V10.425C14.1502 10.425 16.5902 8.23496 18.7502 7.03496C24.2502 3.98496 26.4102 4.03496 29.1402 4.03496L28.9102 14.655L40.9702 23.835L53.3802 4.44496C53.3802 4.44496 62.1302 4.73496 70.8802 11.785C71.2902 12.105 71.6902 12.455 72.1002 12.795C74.2102 14.665 76.3002 16.945 78.2402 19.725C81.0802 23.785 83.0802 28.375 84.3402 33.175C85.6202 38.055 87.6702 46.595 89.5502 57.675H77.4702V65.475C77.4702 65.475 77.4802 66.495 77.5002 66.525C77.8202 66.935 80.4102 69.275 82.0802 72.815C82.5302 73.775 82.9202 74.755 83.1702 75.685C83.4802 76.845 83.7102 78.015 83.8502 79.195Z" fill="#FFE478"/>
<path d="M30.0203 0.234891L24.0503 5.03489L27.8803 30.0949C27.8903 30.1649 27.9703 30.2049 28.0403 30.1649C29.1403 29.4949 35.8603 23.5649 40.9903 23.8349L31.1103 0.504891C30.9303 0.0748911 30.3803 -0.0651089 30.0203 0.234891Z" fill="#F2A65E"/>
<path d="M52.8602 0.234891L58.8302 5.03489L55.0002 30.0949C54.9902 30.1649 54.9102 30.2049 54.8402 30.1649C53.7402 29.4949 46.1002 23.5649 40.9702 23.8349L51.7602 0.504891C51.9502 0.0748911 52.4902 -0.0651089 52.8602 0.234891Z" fill="#F2A65E"/>
<mask id="mask0_301_11656" style="mask-type:luminance" maskUnits="userSpaceOnUse" x="0" y="4" width="90" height="110">
<path d="M83.1701 75.685C82.9201 74.755 82.5301 73.775 82.0801 72.815C80.4101 69.275 77.8201 66.935 77.5001 66.525C77.4801 66.495 77.4701 65.475 77.4701 65.475V57.675H89.5501C87.6701 46.595 85.6201 38.055 84.3401 33.175C83.0801 28.375 81.0801 23.785 78.2401 19.725C76.3001 16.945 74.2101 14.665 72.1001 12.795C71.6901 12.455 71.2901 12.105 70.8801 11.785C62.1301 4.73496 53.3801 4.44496 53.3801 4.44496L40.9701 23.835L29.1401 4.03496C26.4101 4.03496 24.2501 3.98496 18.7501 7.03496C16.5901 8.23496 14.1501 10.425 14.1501 10.425V10.435C13.9901 10.585 10.1001 14.285 8.78006 17.975C7.10006 22.695 7.48006 32.025 7.48006 34.675L7.60006 37.295C6.67006 42.605 4.88006 46.735 1.06006 46.735C0.980059 46.735 0.890059 46.735 0.810059 46.715L8.86006 65.125L8.95006 67.085C8.96006 66.655 2.01006 74.275 2.01006 87.365C1.99006 87.585 1.99006 87.815 1.99006 88.055L2.43006 92.095L2.50006 92.665C3.59006 97.715 6.65006 105.575 13.2301 111.045V113.925H70.1801L70.2901 110.375C77.2601 106.565 85.4301 92.105 83.8501 79.195C83.7101 78.015 83.4801 76.845 83.1701 75.685Z" fill="white"/>
</mask>
<g mask="url(#mask0_301_11656)">
<path d="M124.93 -0.0850143V-1.33501H117.18V-11.765H115.93V-1.33501H105.79V-11.765H104.54V-1.33501H73.1699V-11.765H71.9099V-1.33501H61.7699V-11.765H60.5199V-1.33501H29.1499V-11.765H27.8999V-1.33501H17.7599V-11.765H16.5099V-1.33501H-11.9301V-11.765H-13.1901V-1.33501H-23.3301V-11.765H-24.5801V-1.33501H-34.5601V-0.0850143H-24.5801V9.23499H-34.5601V10.485H-24.5801V34.685H-34.5601V35.935H-24.5801V45.255H-34.5601V46.505H-24.5801V70.705H-34.5601V71.955H-24.5801V81.265H-34.5601V82.515H-24.5801V106.715H-34.5601V107.965H-24.5801V117.285H-34.5601V118.535H-24.5801V129.695H-23.3301V118.535H-13.1901V129.695H-11.9401V118.535H16.4999V129.695H17.7499V118.535H27.8899V129.695H29.1399V118.535H60.5099V129.695H61.7599V118.535H71.9099V129.695H73.1599V118.535H104.53V129.695H105.78V118.535H115.92V129.695H117.17V118.535H124.92V117.285H117.17V107.965H124.92V106.715H117.17V82.515H124.92V81.265H117.17V71.955H124.92V70.705H117.17V46.505H124.92V45.255H117.17V35.935H124.92V34.685H117.17V10.485H124.92V9.22499H117.17V-0.0950146H124.93V-0.0850143ZM104.53 -0.0850143V9.23499H73.1699V-0.0850143H104.53ZM29.1499 45.255V35.935H60.5199V45.255H29.1499ZM60.5199 46.515V70.715H29.1499V46.515H60.5199ZM27.8999 45.255H17.7599V35.935H27.8999V45.255ZM27.8999 46.515V70.715H17.7599V46.515H27.8999ZM27.8999 71.965V81.275H17.7599V71.965H27.8999ZM29.1499 71.965H60.5199V81.275H29.1499V71.965ZM61.7699 71.965H71.9099V81.275H61.7699V71.965ZM61.7699 70.715V46.515H71.9099V70.715H61.7699ZM61.7699 45.255V35.935H71.9099V45.255H61.7699ZM61.7699 34.685V10.485H71.9099V34.685H61.7699ZM60.5199 34.685H29.1499V10.485H60.5199V34.685ZM27.8999 34.685H17.7599V10.485H27.8999V34.685ZM16.4999 34.685H-11.9401V10.485H16.4999V34.685ZM16.4999 35.945V45.265H-11.9401V35.945H16.4999ZM16.4999 46.515V70.715H-11.9401V46.515H16.4999ZM16.4999 71.965V81.275H-11.9401V71.965H16.4999ZM16.4999 82.535V106.735H-11.9401V82.535H16.4999ZM17.7599 82.535H27.8999V106.735H17.7599V82.535ZM29.1499 82.535H60.5199V106.735H29.1499V82.535ZM61.7699 82.535H71.9099V106.735H61.7699V82.535ZM73.1699 82.535H104.54V106.735H73.1699V82.535ZM73.1699 81.285V71.975H104.54V81.285H73.1699ZM73.1699 70.715V46.515H104.54V70.715H73.1699ZM73.1699 45.255V35.935H104.54V45.255H73.1699ZM73.1699 34.685V10.485H104.54V34.685H73.1699ZM71.9099 -0.0850143V9.23499H61.7699V-0.0850143H71.9099ZM60.5199 -0.0850143V9.23499H29.1499V-0.0850143H60.5199ZM27.8999 -0.0850143V9.23499H17.7599V-0.0850143H27.8999ZM16.4999 -0.0850143V9.23499H-11.9401V-0.0850143H16.4999ZM-23.3401 -0.0850143H-13.1901V9.23499H-23.3301V-0.0850143H-23.3401ZM-23.3401 10.485H-13.1901V34.685H-23.3301V10.485H-23.3401ZM-23.3401 35.945H-13.1901V45.265H-23.3301V35.945H-23.3401ZM-23.3401 46.515H-13.1901V70.715H-23.3301V46.515H-23.3401ZM-23.3401 71.965H-13.1901V81.275H-23.3301V71.965H-23.3401ZM-23.3401 82.535H-13.1901V106.735H-23.3301V82.535H-23.3401ZM-23.3401 117.305V107.985H-13.1901V117.305H-23.3401ZM-11.9401 117.305V107.985H16.4999V117.305H-11.9401ZM17.7599 117.305V107.985H27.8999V117.305H17.7599ZM29.1499 117.305V107.985H60.5199V117.305H29.1499ZM61.7699 117.305V107.985H71.9099V117.305H61.7699ZM73.1699 117.305V107.985H104.54V117.305H73.1699ZM115.93 117.305H105.79V107.985H115.93V117.305ZM115.93 106.735H105.79V82.535H115.93V106.735ZM115.93 81.285H105.79V71.975H115.93V81.285ZM115.93 70.715H105.79V46.515H115.93V70.715ZM115.93 45.255H105.79V35.935H115.93V45.255ZM115.93 34.685H105.79V10.485H115.93V34.685ZM115.93 9.22499H105.79V-0.0950146H115.93V9.22499Z" fill="#F2A65E"/>
</g>
</g>
<defs>
<clipPath id="clip0_301_11656">
<rect width="88.74" height="113.85" fill="white" transform="translate(0.810059 0.0749512)"/>
</clipPath>
</defs>
</svg>
