<svg width="108" height="140" viewBox="0 0 108 140" fill="none" xmlns="http://www.w3.org/2000/svg">
<g clip-path="url(#clip0_301_8505)">
<path d="M23.4799 10.0801V22.5001C23.4799 52.2701 22.8199 65.6101 17.8899 76.0701C16.1999 79.6501 14.0399 82.1401 11.4499 83.8301L0.129883 57.9501C0.229883 57.9701 0.329883 57.9701 0.429883 57.9701C8.61988 57.9701 9.08988 42.3301 9.76988 30.8201C9.95988 27.6101 10.8899 21.9501 13.8799 18.2801C17.0899 14.3501 20.6099 11.7301 23.4799 10.0801Z" fill="#F2A65E"/>
<path d="M49.1501 139.31H15.1701V133.06C7.20006 126.44 3.49006 119.69 2.17006 113.57L2.09006 112.88L1.56006 107.99C1.56006 107.71 1.56006 107.43 1.58006 107.16C1.86006 96.9401 7.85006 89.7601 7.84006 90.2901L8.20006 43.3801C8.20006 40.1701 7.75006 28.8801 9.78006 23.1601C11.3701 18.7001 16.0901 14.2201 16.2801 14.0401V14.0301C16.2801 14.0301 19.2301 11.3801 21.8501 9.9201C28.5001 6.2301 31.1201 6.2901 34.4201 6.2901L34.1401 19.1501L48.7501 30.2601L49.1501 139.31Z" fill="#FFE478"/>
<path d="M93.14 95.17C89.54 85.75 86.93 71.22 86.93 71.22H107.55C105.27 57.81 102.79 47.47 101.24 41.57C99.72 35.76 97.3 30.2 93.86 25.28C91.51 21.92 88.98 19.16 86.42 16.9C85.93 16.48 85.44 16.06 84.95 15.67C74.36 7.14004 63.76 6.79004 63.76 6.79004L48.75 30.26L49.15 139.19L83.4 139.31V133.72C92.61 128.68 99.34 111.38 93.14 95.17Z" fill="#FFE478"/>
<path d="M84.9497 63.9501V88.0901C84.9497 88.0901 90.2197 89.1901 93.8097 96.4201L84.9497 63.9501Z" fill="#F2A65E"/>
<path d="M35.48 1.69004L28.25 7.50004L32.88 37.83C32.89 37.92 32.99 37.97 33.07 37.92C34.4 37.1 42.54 29.93 48.74 30.25L36.81 2.02004C36.58 1.50004 35.93 1.33004 35.48 1.69004Z" fill="#F2A65E"/>
<path d="M63.13 1.69004L70.36 7.50004L65.73 37.83C65.72 37.92 65.62 37.97 65.54 37.92C64.21 37.1 54.96 29.93 48.75 30.25L61.81 2.02004C62.03 1.50004 62.69 1.33004 63.13 1.69004Z" fill="#F2A65E"/>
<mask id="mask0_301_8505" style="mask-type:luminance" maskUnits="userSpaceOnUse" x="0" y="1" width="108" height="139">
<path d="M93.1399 95.18C99.3399 111.39 92.6099 128.69 83.3999 133.72V139.31L49.1499 139.19V139.31H15.1699V133.06C7.19988 126.44 3.48988 119.69 2.16988 113.57L2.08988 112.88L1.55988 107.99C1.55988 107.71 1.55988 107.43 1.57988 107.16C1.85988 96.94 7.84988 89.76 7.83988 90.29L7.94988 75.85L0.129883 57.96C0.229883 57.98 0.329883 57.98 0.429883 57.98C4.82988 57.98 6.99988 53.47 8.16988 47.51L8.19988 43.38C8.19988 40.17 7.74988 28.88 9.77988 23.16C11.3699 18.7 16.0899 14.22 16.2799 14.04V14.03C16.2799 14.03 19.2299 11.38 21.8499 9.92001C25.0399 8.16001 27.2999 7.25001 29.1499 6.79001L35.4799 1.69001C35.9199 1.34001 36.5799 1.50001 36.8099 2.02001L48.7499 30.26L61.8099 2.02001C62.0299 1.50001 62.6899 1.34001 63.1299 1.69001L70.3599 7.51001L70.2799 8.01001C74.2699 9.15001 79.6099 11.37 84.9499 15.67C85.4399 16.06 85.9299 16.48 86.4199 16.9C88.9799 19.16 91.5099 21.92 93.8599 25.28C97.2999 30.2 99.7199 35.76 101.24 41.57C102.79 47.47 105.27 57.81 107.55 71.22H86.9299L93.8099 96.42C93.5999 95.99 93.3699 95.57 93.1399 95.18Z" fill="white"/>
</mask>
<g mask="url(#mask0_301_8505)">
<path d="M130.63 11.7V10.45H122.88V0.0200195H121.63V10.45H111.49V0.0200195H110.24V10.45H78.8699V0.0200195H77.6199V10.45H67.4699V0.0200195H66.2199V10.45H34.8499V0.0200195H33.5999V10.45H23.4599V0.0200195H22.2099V10.45H-6.24012V0.0200195H-7.49012V10.45H-17.6301V0.0200195H-18.8801V10.45H-28.8701V11.7H-18.8901V21.02H-28.8701V22.27H-18.8901V46.47H-28.8701V47.72H-18.8901V57.04H-28.8701V58.29H-18.8901V82.49H-28.8701V83.76H-18.8901V93.07H-28.8701V94.32H-18.8901V118.52H-28.8701V119.77H-18.8901V129.09H-28.8701V130.34H-18.8901V141.5H-17.6401V130.34H-7.50012V141.5H-6.25012V130.34H22.1899V141.5H23.4399V130.34H33.5799V141.5H34.8299V130.34H66.1999V141.5H67.4499V130.34H77.5899V141.5H78.8399V130.34H110.21V141.5H111.46V130.34H121.6V141.5H122.85V130.34H130.6V129.09H122.85V119.77H130.6V118.52H122.85V94.32H130.6V93.07H122.85V83.76H130.6V82.51H122.85V58.31H130.6V57.06H122.85V47.74H130.6V46.49H122.85V22.29H130.6V21.04H122.85V11.72H130.63V11.7ZM110.23 11.7V21.02H78.8699V11.7H110.23ZM34.8499 57.05V47.73H66.2199V57.05H34.8499ZM66.2199 58.3V82.5H34.8499V58.3H66.2199ZM33.5999 57.05H23.4599V47.73H33.5999V57.05ZM33.5999 58.3V82.5H23.4599V58.3H33.5999ZM33.5999 83.76V93.07H23.4599V83.76H33.5999ZM34.8499 83.76H66.2199V93.07H34.8499V83.76ZM67.4699 83.76H77.6099V93.07H67.4699V83.76ZM67.4699 82.5V58.3H77.6099V82.5H67.4699ZM67.4699 57.05V47.73H77.6099V57.05H67.4699ZM67.4699 46.48V22.28H77.6099V46.48H67.4699ZM66.2199 46.48H34.8499V22.28H66.2199V46.48ZM33.5999 46.48H23.4599V22.28H33.5999V46.48ZM22.1999 46.48H-6.24012V22.28H22.1999V46.48ZM22.1999 47.73V57.05H-6.24012V47.73H22.1999ZM22.1999 58.3V82.5H-6.24012V58.3H22.1999ZM22.1999 83.76V93.07H-6.24012V83.76H22.1999ZM22.1999 94.33V118.53H-6.24012V94.33H22.1999ZM23.4599 94.33H33.5999V118.53H23.4599V94.33ZM34.8499 94.33H66.2199V118.53H34.8499V94.33ZM67.4699 94.33H77.6099V118.53H67.4699V94.33ZM78.8699 94.33H110.24V118.53H78.8699V94.33ZM78.8699 93.07V83.76H110.24V93.07H78.8699ZM78.8699 82.5V58.3H110.24V82.5H78.8699ZM78.8699 57.05V47.73H110.24V57.05H78.8699ZM78.8699 46.48V22.28H110.24V46.48H78.8699ZM77.6199 11.7V21.02H67.4699V11.7H77.6199ZM66.2199 11.7V21.02H34.8499V11.7H66.2199ZM33.5999 11.7V21.02H23.4599V11.7H33.5999ZM22.1999 11.7V21.02H-6.24012V11.7H22.1999ZM-17.6301 11.7H-7.49012V21.02H-17.6301V11.7ZM-17.6301 22.27H-7.49012V46.47H-17.6301V22.27ZM-17.6301 47.73H-7.49012V57.05H-17.6301V47.73ZM-17.6301 58.3H-7.49012V82.5H-17.6301V58.3ZM-17.6301 83.76H-7.49012V93.07H-17.6301V83.76ZM-17.6301 94.33H-7.49012V118.53H-17.6301V94.33ZM-17.6301 129.1V119.78H-7.49012V129.1H-17.6301ZM-6.24012 129.1V119.78H22.1999V129.1H-6.24012ZM23.4599 129.1V119.78H33.5999V129.1H23.4599ZM34.8499 129.1V119.78H66.2199V129.1H34.8499ZM67.4699 129.1V119.78H77.6099V129.1H67.4699ZM78.8699 129.1V119.78H110.24V129.1H78.8699ZM121.63 129.1H111.49V119.78H121.63V129.1ZM121.63 118.53H111.49V94.33H121.63V118.53ZM121.63 93.07H111.49V83.76H121.63V93.07ZM121.63 82.5H111.49V58.3H121.63V82.5ZM121.63 57.05H111.49V47.73H121.63V57.05ZM121.63 46.48H111.49V22.28H121.63V46.48ZM121.63 21.02H111.49V11.7H121.63V21.02Z" fill="#F2A65E"/>
</g>
</g>
<defs>
<clipPath id="clip0_301_8505">
<rect width="107.42" height="138.48" fill="white" transform="translate(0.129883 0.76001)"/>
</clipPath>
</defs>
</svg>
