<svg width="83" height="124" viewBox="0 0 83 124" fill="none" xmlns="http://www.w3.org/2000/svg">
<g clip-path="url(#clip0_301_14656)">
<path d="M10.9099 10.2999L10.1899 66.0899C10.1299 66.1299 0.129883 61.1799 0.129883 61.1799C3.37988 58.0699 4.02988 52.3899 4.03988 48.6799L4.12988 23.2599C4.12988 13.8999 10.9099 10.2999 10.9099 10.2999Z" fill="#3D6E70"/>
<path d="M75.4497 32.62C70.9197 19.18 64.7397 12.64 59.4997 9.51999C51.5597 4.80999 45.2197 4.35999 45.2197 4.35999L33.6297 22.72V22.74V22.73L25.3697 4.35999C22.1797 4.35999 19.1097 5.49999 15.1297 7.61999C11.7697 9.40999 9.53973 11.25 9.53973 11.25L8.46973 75.03V75.04V97.5V123.54H30.5897H63.6197V55.45C64.6797 57.73 65.7397 61.88 66.7397 67H82.9197C79.4497 45.91 75.4497 32.62 75.4497 32.62Z" fill="#34D1AF"/>
<path d="M43.9799 0.579936L48.9699 4.59994L45.3499 26.8299C45.3399 26.8899 45.2699 26.9199 45.2199 26.8899C44.2999 26.3299 37.9099 22.4999 33.6299 22.7199L43.0699 0.809936C43.2199 0.449936 43.6799 0.339936 43.9799 0.579936Z" fill="#3D6E70"/>
<path d="M23.7 1.85996L18.71 5.87996L21.91 26.83C21.92 26.89 21.99 26.92 22.04 26.89C22.96 26.33 29.35 22.5 33.63 22.72L24.61 2.07996C24.46 1.71996 24 1.60996 23.7 1.85996Z" fill="#3D6E70"/>
</g>
<defs>
<clipPath id="clip0_301_14656">
<rect width="82.79" height="123.1" fill="white" transform="translate(0.129883 0.449951)"/>
</clipPath>
</defs>
</svg>
