<svg width="73" height="92" viewBox="0 0 73 92" fill="none" xmlns="http://www.w3.org/2000/svg">
<g clip-path="url(#clip0_301_5808)">
<path d="M33.1104 16.76V16.75L33.1203 16.76H33.1104Z" fill="#E0DB99"/>
<path d="M11.9302 5.47998L10.4602 55.85H0.450195C1.1802 54.2 1.7002 52.1 1.9502 49.45L2.5602 19.48C2.5602 11.95 11.9302 5.47998 11.9302 5.47998Z" fill="#721E6E"/>
<path d="M72.2602 56.49H59.1102C58.4902 52.26 57.9002 48.79 57.5402 48.02V91.73L32.8502 91.65V91.66L25.9602 91.64V91.69H6.49023V10.44C6.49023 10.44 13.9602 0.28002 24.4902 0.28002C24.4902 2.75002 25.6202 5.07002 27.5602 6.60002L27.7002 6.71002C30.7002 9.07002 34.9502 9.00002 37.8702 6.53002L37.9502 6.46002C39.6702 5.00002 40.7102 2.89002 40.7902 0.63002V0.27002C40.7902 0.27002 47.3002 0.28002 52.6602 5.48002C65.3202 17.75 70.4802 37.14 72.2602 56.49Z" fill="#8E2589"/>
<path d="M57.5402 51.61V53.79C56.3602 53.14 55.1502 52.55 53.9302 52.01V91.72L51.9902 91.71V51.21C49.3502 50.18 46.6002 49.38 43.7502 48.83V91.69L41.8202 91.68V48.49C39.4002 48.12 36.9202 47.93 34.4002 47.93C34.1302 47.93 33.8502 47.93 33.5802 47.94V91.65H32.8502V91.66H31.6402V48.01C28.8202 48.16 26.0702 48.57 23.3902 49.18V91.69H21.4602V49.68C18.5902 50.46 15.8402 51.51 13.2202 52.78V91.69H11.2802V53.77C9.62023 54.68 8.02023 55.67 6.49023 56.75V54.41C8.02023 53.38 9.63023 52.44 11.2802 51.59C11.9202 51.26 12.5602 50.94 13.2202 50.65C15.8502 49.42 18.6002 48.42 21.4602 47.67C22.1002 47.5 22.7502 47.34 23.3902 47.2C26.0802 46.6 28.8202 46.21 31.6402 46.07C32.2802 46.03 32.9302 46.01 33.5802 46C33.8502 45.99 34.1302 45.99 34.4002 45.99C36.9202 45.99 39.4002 46.17 41.8202 46.53C42.4702 46.63 43.1102 46.74 43.7502 46.86C46.5902 47.38 49.3402 48.16 51.9902 49.15C52.6402 49.38 53.2902 49.64 53.9302 49.91C55.1502 50.43 56.3602 50.99 57.5402 51.61Z" fill="#FFFFEB"/>
<path d="M42.9204 27.25V31.94C42.9204 33.26 43.4404 34.53 44.3804 35.46L46.8604 37.94C47.3404 38.42 48.1304 38.42 48.6204 37.94L51.1004 35.46C52.0304 34.53 52.5604 33.26 52.5604 31.94V27.25H42.9204Z" fill="#FFFFEB"/>
</g>
<defs>
<clipPath id="clip0_301_5808">
<rect width="71.81" height="91.46" fill="white" transform="translate(0.450195 0.27002)"/>
</clipPath>
</defs>
</svg>
