<svg width="119" height="120" viewBox="0 0 119 120" fill="none" xmlns="http://www.w3.org/2000/svg">
<g clip-path="url(#clip0_301_1390)">
<path d="M41.5899 6.34009C41.5899 6.34009 34.8199 9.94009 34.8199 19.3001L34.7299 44.7201C34.7099 50.1501 33.3399 59.8201 24.3899 59.4401C14.8199 59.0401 14.9499 50.1301 14.7499 46.1501C14.6799 44.8901 14.7199 37.9201 14.7199 37.9201H0.0598822C0.0598822 37.9201 -0.0701178 42.9601 0.0498822 45.6801C0.419882 53.9901 3.09988 71.2101 18.7999 74.4101C30.2499 76.7501 38.1399 71.9201 39.1499 71.0801L41.5899 6.34009Z" fill="#C12B3F"/>
<path d="M94.2999 91.39H39.1499V119.59H94.2999V91.39Z" fill="#F9364D"/>
<path d="M106.13 28.67C101.6 15.23 95.4101 8.68003 90.1701 5.57003C82.2301 0.850034 75.9001 0.410034 75.9001 0.410034H56.0501C52.8201 0.790034 49.9701 1.80003 45.8101 3.67003C42.3401 5.22003 40.2201 7.30003 40.2201 7.30003L39.3701 57.85H94.3001V51.49C99.2601 62.17 104.17 113.93 104.17 113.93H118.51C117.22 65.52 106.13 28.67 106.13 28.67Z" fill="#F9364D"/>
<path d="M39.1499 71.08V91.39H94.2999V57.85H39.3699L39.1499 71.08Z" fill="#FFFFEB"/>
</g>
<defs>
<clipPath id="clip0_301_1390">
<rect width="118.51" height="119.18" fill="white" transform="translate(0 0.410034)"/>
</clipPath>
</defs>
</svg>
