<svg width="72" height="94" viewBox="0 0 72 94" fill="none" xmlns="http://www.w3.org/2000/svg">
<g clip-path="url(#clip0_301_5830)">
<path d="M32.7402 18.7999V18.7899L32.7502 18.7999H32.7402Z" fill="#E0DB99"/>
<path d="M11.7601 7.52991L10.3001 57.8999H0.390137C1.11014 56.2499 1.63014 54.1499 1.88014 51.4999L2.48014 21.5299C2.48014 13.9999 11.7601 7.52991 11.7601 7.52991Z" fill="#3D6E70"/>
<path d="M71.5201 58.5399H58.4901C57.8801 54.3099 57.2901 50.8399 56.9301 50.0699V93.7799L32.4801 93.7V93.7099L25.6601 93.6899V93.7399H6.37012V12.4899C6.37012 12.4899 13.7701 2.32995 24.2001 2.32995V12.0099L32.4801 18.5899L32.7401 18.7899L40.2001 11.9999L40.3501 2.31995C40.3501 2.31995 46.8001 2.32995 52.1101 7.52995C64.6401 19.7999 69.7501 39.1899 71.5201 58.5399Z" fill="#34D1AF"/>
<path d="M41.9398 0.780005L46.9298 4.19001L43.3098 23.05C43.2998 23.1 43.2298 23.13 43.1798 23.1C42.2598 22.62 35.8698 19.37 31.5898 19.57L41.0298 0.980005C41.1798 0.670005 41.6298 0.570005 41.9398 0.780005Z" fill="#3D6E70"/>
<path d="M22.8201 0.339948L17.8301 4.05995L21.0301 23.4799C21.0401 23.5399 21.1101 23.5699 21.1601 23.5399C22.0801 23.0199 28.4701 19.4699 32.7501 19.6799L23.7301 0.549948C23.5801 0.219948 23.1201 0.109948 22.8201 0.339948Z" fill="#3D6E70"/>
</g>
<defs>
<clipPath id="clip0_301_5830">
<rect width="71.13" height="93.56" fill="white" transform="translate(0.390137 0.219971)"/>
</clipPath>
</defs>
</svg>
