<svg width="84" height="120" viewBox="0 0 84 120" fill="none" xmlns="http://www.w3.org/2000/svg">
<g clip-path="url(#clip0_301_14663)">
<path d="M11.6999 6.34497L10.9799 62.135C10.9199 62.185 0.919922 57.225 0.919922 57.225C4.16992 54.115 4.81992 48.435 4.82992 44.725L4.91992 19.305C4.91992 9.94497 11.6999 6.34497 11.6999 6.34497Z" fill="#FF6B97"/>
<path d="M76.2398 28.665C71.7098 15.225 65.5298 8.68503 60.2898 5.56503C52.3498 0.855029 46.0098 0.405029 46.0098 0.405029C46.8498 6.23503 42.3198 11.455 36.4398 11.455H35.7598C30.1098 11.455 25.6598 6.62503 26.1198 0.995029L26.1598 0.405029C22.9698 0.405029 19.9098 1.55503 15.9198 3.66503C12.5598 5.45503 10.3298 7.29503 10.3298 7.29503L9.25977 71.085V71.095V93.555V119.595H31.3798H64.4098V51.495C65.4698 53.775 66.5298 57.925 67.5298 63.045H83.7098C80.2398 41.955 76.2398 28.665 76.2398 28.665Z" fill="#FFB5B5"/>
</g>
<defs>
<clipPath id="clip0_301_14663">
<rect width="82.79" height="119.19" fill="white" transform="translate(0.919922 0.405029)"/>
</clipPath>
</defs>
</svg>
