<svg width="81" height="92" viewBox="0 0 81 92" fill="none" xmlns="http://www.w3.org/2000/svg">
<g clip-path="url(#clip0_301_11721)">
<path d="M38.8802 71.0299C38.8802 71.57 38.4402 72.0299 37.8802 72.0299H19.8602C16.8502 72.0299 14.4002 74.4699 14.4002 77.4899V91.2999H0.450195L0.620195 79.1199C0.640195 75.3199 1.4402 71.5499 3.1502 68.1599C4.4502 65.5999 5.7202 64.1799 5.7102 64.3999L5.6602 53.7699C7.4202 53.4899 9.1902 52.8699 10.6702 51.9699C11.9302 51.1999 13.0602 50.2299 14.0102 49.1099C14.1602 48.9299 14.3002 48.7599 14.4402 48.5699V51.7899L14.4102 64.5799C14.4102 67.5899 16.8502 70.0399 19.8702 70.0399H37.8902C38.4302 70.0399 38.8802 70.4799 38.8802 71.0299Z" fill="#98BC3F"/>
<path d="M80.15 91.2999H14.41V77.49C14.41 74.4799 16.85 72.03 19.87 72.03H37.89C38.44 72.03 38.89 71.58 38.89 71.03C38.89 70.4799 38.45 70.03 37.89 70.03H19.86C16.85 70.03 14.4 67.59 14.4 64.57L14.08 52.54L14 49.1C14.15 48.92 14.29 48.75 14.43 48.56C16.2 46.26 17.24 43.3899 17.24 40.27V5.52995C17.74 5.08995 18.26 4.68995 18.79 4.30995C19.95 3.45995 21.18 2.68995 22.48 1.99995C23.37 1.51995 24.3 1.09995 25.24 0.699951C25.23 0.909951 25.22 1.10995 25.22 1.31995V1.41995C25.22 1.67995 25.23 1.92995 25.24 2.18995C25.26 2.43995 25.39 3.69995 25.4 3.73995C25.43 3.96995 25.48 4.19995 25.53 4.42995C25.58 4.66995 25.64 4.91995 25.7 5.15995C25.76 5.38995 25.83 5.62995 25.9 5.85995C25.98 6.08995 26.05 6.32995 26.13 6.54995C26.21 6.77995 26.31 6.99995 26.4 7.22995C26.51 7.48995 26.63 7.72995 26.74 7.97995C26.74 7.98995 26.74 7.98995 26.74 7.98995C27.03 8.57995 27.37 9.14995 27.73 9.69995C31.47 15.48 45.83 17.76 51.83 10.67C53.87 8.25995 54.98 6.34995 55.04 2.95995C55.05 2.86995 55.05 2.77995 55.05 2.67995V2.66995C55.05 2.48995 55.05 2.30995 55.03 2.12995V2.08995C57.68 2.82995 60.95 4.39995 63.1 6.53995V35.68C63.1 41.61 68.76 46.66 74.05 48.5499C74.09 48.57 74.13 48.58 74.17 48.59L74.29 61.19C74.29 61.13 74.49 61.26 74.81 61.54C75.64 62.27 77.25 64.01 77.98 65.96C78.58 67.58 79.01 69.0699 79.3 70.4699C80.03 73.9299 79.98 76.7899 79.99 79.4399V79.7199L80.15 91.2999Z" fill="#CFFF70"/>
</g>
<defs>
<clipPath id="clip0_301_11721">
<rect width="79.7" height="90.6" fill="white" transform="translate(0.450195 0.699951)"/>
</clipPath>
</defs>
</svg>
