<svg width="140" height="134" viewBox="0 0 140 134" fill="none" xmlns="http://www.w3.org/2000/svg">
<g clip-path="url(#clip0_301_8560)">
<path d="M49.0401 5.68005L49.6301 15.6301C49.6301 45.4001 48.9701 58.7401 44.0301 69.2001C40.0301 77.6601 33.4501 80.0601 24.6601 80.0601C2.66005 80.0601 -0.139946 56.0701 1.16005 35.7601H18.2201C18.2201 40.9301 21.5501 51.0901 26.5801 51.0901C34.7701 51.0901 35.2401 35.4601 35.9201 23.9401C36.1101 20.7301 36.4501 17.5401 39.4401 13.8801C42.6501 9.95005 46.1701 7.32005 49.0401 5.68005Z" fill="#EB564B"/>
<path d="M139.7 118.97H120.79C120.79 118.97 120.65 117.51 120.41 115.03C118.23 119.91 114.72 124.29 110.22 127.92V133.51L72.4099 133.39V133.51H41.9899V127.26C36.6599 122.83 33.2299 118.35 31.1699 114.03C30.1299 111.89 29.4299 109.8 28.9899 107.77L28.9099 107.08L28.3799 102.19C28.3799 101.91 28.3799 101.63 28.3999 101.36C28.6799 91.1401 34.6899 82.0001 34.6799 82.5301L34.7999 67.0001L35.0199 37.5801C35.0199 34.3701 34.5699 23.08 36.5999 17.3601C38.1899 12.9001 42.9099 8.42005 43.0999 8.24005V8.23005C43.0999 8.23005 46.0499 5.58005 48.6699 4.12005C55.3199 0.43005 57.9399 0.49005 61.2399 0.49005L64.1199 1.80005C70.9199 4.88005 78.6499 5.21005 85.6899 2.72005L90.5799 0.99005C90.5799 0.99005 101.18 1.34005 111.77 9.87005C112.26 10.26 112.75 10.68 113.24 11.1C115.8 13.36 118.33 16.12 120.68 19.48C124.12 24.4 126.54 29.9601 128.06 35.7701C131.31 48.1501 138.66 80.0901 139.7 118.97Z" fill="#FF9166"/>
</g>
<defs>
<clipPath id="clip0_301_8560">
<rect width="138.8" height="133.02" fill="white" transform="translate(0.899902 0.48999)"/>
</clipPath>
</defs>
</svg>
