<svg width="94" height="126" viewBox="0 0 94 126" fill="none" xmlns="http://www.w3.org/2000/svg">
<g clip-path="url(#clip0_301_8585)">
<path d="M46.7799 88.2701C46.7799 88.9201 46.2499 89.4601 45.5899 89.4601H24.0599C20.4599 89.4601 17.5399 92.3801 17.5399 95.9801V125.96H0.859863L1.05986 97.9401C1.07986 93.4001 2.03986 88.8901 4.07986 84.8401C5.62986 81.7801 7.14986 80.0801 7.13986 80.3501L7.23986 67.6401C9.33986 67.3001 11.3099 66.5601 13.0699 65.4901C14.5799 64.5701 15.9299 63.4101 17.0599 62.0701C17.2399 61.8601 17.4099 61.6501 17.5699 61.4301V65.2801L17.5399 80.5601C17.5399 84.1601 20.4599 87.0801 24.0599 87.0801H45.5899C46.2499 87.0801 46.7799 87.6101 46.7799 88.2701Z" fill="#98BC3F"/>
<path d="M93.8501 125.96H17.5401V95.98C17.5401 92.38 20.4601 89.46 24.0601 89.46H45.5901C46.2501 89.46 46.7801 88.92 46.7801 88.27C46.7801 87.61 46.2501 87.08 45.5901 87.08H24.0601C20.4601 87.08 17.5401 84.16 17.5401 80.56L17.1601 66.18L17.0601 62.07C17.2401 61.86 17.4101 61.65 17.5701 61.43C19.6801 58.68 20.9301 55.25 20.9301 51.52V5.81004C21.5301 5.29004 22.1501 4.81004 22.7801 4.35004C24.1701 3.33004 25.6401 2.41004 27.1901 1.59004C28.2501 1.02004 29.3601 0.510039 30.4901 0.0400391C30.4801 0.290039 30.4701 0.530039 30.4701 0.780039V0.900039C30.4701 1.21004 30.4801 1.51004 30.4901 1.82004C30.5101 2.12004 30.6701 3.63004 30.6801 3.67004C30.7201 3.95004 30.7701 4.22004 30.8301 4.49004C30.8901 4.78004 30.9601 5.07004 31.0301 5.36004C31.1001 5.64004 31.1801 5.92004 31.2701 6.20004C31.3601 6.48004 31.4501 6.76004 31.5501 7.03004C31.6501 7.30004 31.7601 7.57004 31.8701 7.84004C32.0001 8.15004 32.1401 8.44004 32.2801 8.74004C32.2801 8.75004 32.2801 8.75004 32.2801 8.75004C32.6301 9.46004 33.0401 10.14 33.4601 10.79C37.9301 17.7 55.0901 20.43 62.2601 11.95C64.7001 9.06004 66.0301 5.28004 66.1001 1.23004C66.1101 1.12004 66.1101 1.01004 66.1101 0.900039V0.890039C66.1101 0.680039 66.1101 0.460039 66.0901 0.240039V0.200039C69.2601 1.08004 72.6501 2.43004 75.7301 4.13004V46.03C75.7301 53.12 80.2401 59.15 86.5601 61.41C86.6101 61.43 86.6501 61.44 86.7001 61.46L86.8401 76.52C86.8401 76.45 87.0801 76.6 87.4601 76.94C88.4501 77.81 90.3801 79.89 91.2501 82.22C91.9701 84.15 92.4801 85.94 92.8301 87.61C93.7001 91.74 93.6401 95.16 93.6501 98.33V98.67L93.8501 125.96Z" fill="#CFFF70"/>
</g>
<defs>
<clipPath id="clip0_301_8585">
<rect width="92.99" height="125.92" fill="white" transform="translate(0.859863 0.0400391)"/>
</clipPath>
</defs>
</svg>
