<svg width="129" height="134" viewBox="0 0 129 134" fill="none" xmlns="http://www.w3.org/2000/svg">
<g clip-path="url(#clip0_331_822)">
<path d="M46.1198 20.415L45.3998 76.205C45.3398 76.255 35.3398 71.295 35.3398 71.295C38.5898 68.185 39.2398 62.505 39.2498 58.795L39.3398 33.375C39.3398 24.015 46.1198 20.415 46.1198 20.415Z" fill="#FF6B97"/>
<path d="M110.66 42.735C106.13 29.295 99.9499 22.755 94.7099 19.635C86.7699 14.925 80.4299 14.475 80.4299 14.475C81.2699 20.305 76.7399 25.525 70.8599 25.525H70.1799C64.5299 25.525 60.0799 20.695 60.5399 15.065L60.5899 14.485C57.3999 14.485 54.3299 15.625 50.3499 17.745C46.9899 19.535 44.7599 21.375 44.7599 21.375L43.6899 85.155V85.165V107.625V133.665H65.8099H98.8399V65.565C99.8999 67.845 100.96 71.995 101.96 77.115H118.14C114.66 56.025 110.66 42.735 110.66 42.735Z" fill="#FFB5B5"/>
</g>
<defs>
<clipPath id="clip0_331_822">
<rect width="129" height="134" fill="white"/>
</clipPath>
</defs>
</svg>
