<svg width="83" height="124" viewBox="0 0 83 124" fill="none" xmlns="http://www.w3.org/2000/svg">
<g clip-path="url(#clip0_301_1397)">
<path d="M10.99 10.2999L10.27 66.0899C10.21 66.1299 0.209961 61.1799 0.209961 61.1799C3.45996 58.0699 4.10996 52.3899 4.11996 48.6799L4.20996 23.2599C4.20996 13.8999 10.99 10.2999 10.99 10.2999Z" fill="#3D6E70"/>
<path d="M75.5298 32.62C70.9998 19.18 64.8198 12.64 59.5798 9.51999C51.6398 4.80999 45.2998 4.35999 45.2998 4.35999L33.7098 22.72V22.74V22.73L25.4498 4.35999C22.2598 4.35999 19.1898 5.49999 15.2098 7.61999C11.8498 9.40999 9.6198 11.25 9.6198 11.25L8.5498 75.03V75.04V97.5V123.54H30.6698H63.6998V55.45C64.7598 57.73 65.8198 61.88 66.8198 67H82.9998C79.5298 45.91 75.5298 32.62 75.5298 32.62Z" fill="#34D1AF"/>
<path d="M44.06 0.579936L49.05 4.59994L45.43 26.8299C45.42 26.8899 45.35 26.9199 45.3 26.8899C44.38 26.3299 37.99 22.4999 33.71 22.7199L43.15 0.809936C43.3 0.449936 43.76 0.339936 44.06 0.579936Z" fill="#3D6E70"/>
<path d="M23.78 1.85996L18.79 5.87996L21.99 26.83C22 26.89 22.07 26.92 22.12 26.89C23.04 26.33 29.43 22.5 33.71 22.72L24.69 2.07996C24.54 1.71996 24.08 1.60996 23.78 1.85996Z" fill="#3D6E70"/>
</g>
<defs>
<clipPath id="clip0_301_1397">
<rect width="82.79" height="123.1" fill="white" transform="translate(0.209961 0.449951)"/>
</clipPath>
</defs>
</svg>
