<svg width="130" height="134" viewBox="0 0 130 134" fill="none" xmlns="http://www.w3.org/2000/svg">
<g clip-path="url(#clip0_331_783)">
<path d="M47.8801 18.285L47.1601 74.075C47.1001 74.125 37.1001 69.165 37.1001 69.165C40.3501 66.055 41.0001 60.375 41.0101 56.665L41.1001 31.245C41.1001 21.885 47.8801 18.285 47.8801 18.285Z" fill="#3D6E70"/>
<path d="M112.42 40.6051C107.89 27.1651 101.71 20.6251 96.4699 17.5051C88.5299 12.7951 82.1899 12.3451 82.1899 12.3451L70.5999 30.7051V30.7251V30.7151L62.3399 12.3551C59.1499 12.3551 56.0799 13.4951 52.0999 15.6151C48.7399 17.4051 46.5099 19.2451 46.5099 19.2451L45.4399 83.0251V83.0351V105.495V131.535H67.5599H100.59V65.3851C101.65 67.6651 102.71 69.8651 103.71 74.9851H119.89C116.42 53.8951 112.42 40.6051 112.42 40.6051Z" fill="#34D1AF"/>
<path d="M80.9501 8.56504L85.9401 12.585L82.3201 34.815C82.3101 34.875 82.2401 34.905 82.1901 34.875C81.2701 34.315 74.8801 30.485 70.6001 30.705L80.0401 8.79504C80.1901 8.43504 80.6501 8.32504 80.9501 8.56504Z" fill="#3D6E70"/>
<path d="M60.6702 9.84506L55.6802 13.8651L58.8802 34.8151C58.8902 34.8751 58.9602 34.9051 59.0102 34.8751C59.9302 34.3151 66.3202 30.4851 70.6002 30.7051L61.5802 10.0651C61.4302 9.71506 60.9702 9.60506 60.6702 9.84506Z" fill="#3D6E70"/>
</g>
<defs>
<clipPath id="clip0_331_783">
<rect width="130" height="134" fill="white"/>
</clipPath>
</defs>
</svg>
