<svg width="129" height="134" viewBox="0 0 129 134" fill="none" xmlns="http://www.w3.org/2000/svg">
<g clip-path="url(#clip0_331_747)">
<path d="M47.2298 19.725C47.2298 19.725 40.4598 23.325 40.4598 32.685L40.3698 58.105C40.3498 63.535 38.9798 73.205 30.0298 72.825C20.4598 72.425 20.5898 63.515 20.3898 59.535C20.3198 58.275 20.3598 51.305 20.3598 51.305H5.70978C5.70978 51.305 5.57978 56.345 5.69978 59.065C6.06978 67.365 8.73979 84.585 24.4498 87.785C35.8998 90.125 43.7898 85.295 44.7998 84.455L47.2298 19.725Z" fill="#EB564B"/>
<path d="M111.78 42.045C107.25 28.605 101.06 22.055 95.8198 18.945C87.8798 14.225 81.5398 13.785 81.5398 13.785L81.5698 18.465C81.6098 23.975 77.1498 28.465 71.6398 28.465C66.1598 28.465 61.7198 24.025 61.7098 18.545L61.6998 13.775C58.4698 14.155 55.6198 15.165 51.4598 17.035C47.9898 18.595 45.8698 20.665 45.8698 20.665L44.7998 84.445V84.455V106.915V132.955H66.9198H69.5298H99.9498V64.855C104.91 75.535 109.82 127.295 109.82 127.295H124.17C122.87 78.905 111.78 42.045 111.78 42.045Z" fill="#FF9166"/>
</g>
<defs>
<clipPath id="clip0_331_747">
<rect width="129" height="134" fill="white"/>
</clipPath>
</defs>
</svg>
