<svg width="129" height="134" viewBox="0 0 129 134" fill="none" xmlns="http://www.w3.org/2000/svg">
<g clip-path="url(#clip0_331_650)">
<path d="M113 42.2151C108.47 28.7751 102.28 22.2251 97.0401 19.1151C89.1001 14.3951 82.7601 13.9551 82.7601 13.9551L71.1801 32.3251L68.1401 133.145H101.17V65.0451C106.13 75.7251 111.04 127.485 111.04 127.485H125.39C124.09 79.0751 113 42.2151 113 42.2151Z" fill="#FFE478"/>
<path d="M48.46 19.895C48.46 19.895 41.69 23.495 41.69 32.855L41.6 58.275C41.58 63.705 40.21 73.375 31.26 72.995C21.69 72.595 21.82 63.685 21.62 59.705C21.55 58.445 21.59 51.475 21.59 51.475H6.93C6.93 51.475 6.8 56.515 6.92 59.235C7.29 67.535 9.96 84.755 25.67 87.955C37.12 90.295 45.01 85.465 46.02 84.625L48.46 19.895Z" fill="#BA6156"/>
<path d="M62.92 13.9551C59.73 13.9551 56.66 15.0951 52.68 17.2151C49.32 19.0051 47.09 20.8451 47.09 20.8451L46.02 84.6251V84.6351V107.095V133.135H70.75L71.18 32.3251L62.92 13.9551Z" fill="#F2A65E"/>
<path d="M81.5302 10.185L86.5202 14.205L82.9002 36.435C82.8902 36.495 82.8202 36.525 82.7702 36.495C81.8502 35.935 75.4602 32.105 71.1802 32.325L80.6202 10.415C80.7802 10.045 81.2302 9.93502 81.5302 10.185Z" fill="#F2A65E"/>
<path d="M61.2498 11.455L56.2598 15.475L59.4598 36.425C59.4698 36.485 59.5398 36.515 59.5898 36.485C60.5098 35.925 66.8998 32.095 71.1798 32.315L62.1598 11.675C62.0098 11.325 61.5498 11.215 61.2498 11.455Z" fill="#FFE478"/>
<path d="M75.89 59.6051C77.0719 59.6051 78.03 58.647 78.03 57.4651C78.03 56.2832 77.0719 55.3251 75.89 55.3251C74.7081 55.3251 73.75 56.2832 73.75 57.4651C73.75 58.647 74.7081 59.6051 75.89 59.6051Z" fill="#FF9166"/>
<path d="M75.89 74.0951C77.0719 74.0951 78.03 73.137 78.03 71.9551C78.03 70.7732 77.0719 69.8151 75.89 69.8151C74.7081 69.8151 73.75 70.7732 73.75 71.9551C73.75 73.137 74.7081 74.0951 75.89 74.0951Z" fill="#FF9166"/>
<path d="M75.89 88.5951C77.0719 88.5951 78.03 87.637 78.03 86.4551C78.03 85.2732 77.0719 84.3151 75.89 84.3151C74.7081 84.3151 73.75 85.2732 73.75 86.4551C73.75 87.637 74.7081 88.5951 75.89 88.5951Z" fill="#FF9166"/>
<path d="M75.89 103.085C77.0719 103.085 78.03 102.127 78.03 100.945C78.03 99.7632 77.0719 98.8051 75.89 98.8051C74.7081 98.8051 73.75 99.7632 73.75 100.945C73.75 102.127 74.7081 103.085 75.89 103.085Z" fill="#FF9166"/>
<path d="M75.89 117.585C77.0719 117.585 78.03 116.627 78.03 115.445C78.03 114.263 77.0719 113.305 75.89 113.305C74.7081 113.305 73.75 114.263 73.75 115.445C73.75 116.627 74.7081 117.585 75.89 117.585Z" fill="#FF9166"/>
</g>
<defs>
<clipPath id="clip0_331_650">
<rect width="129" height="134" fill="white"/>
</clipPath>
</defs>
</svg>
