<svg width="139" height="138" viewBox="0 0 139 138" fill="none" xmlns="http://www.w3.org/2000/svg">
<g clip-path="url(#clip0_301_8522)">
<path d="M138.68 122.705H119.77C119.77 122.705 119.63 121.245 119.39 118.765C117.21 123.645 113.7 128.025 109.2 131.655V137.245L71.2402 137.125L70.2002 68.2651L69.9302 35.7351L89.5602 4.7251C89.5602 4.7251 100.16 5.0751 110.75 13.6051C111.24 13.9951 111.73 14.4151 112.22 14.8351C114.78 17.0951 117.31 19.8551 119.66 23.2151C123.1 28.1351 125.52 33.6951 127.04 39.5051C130.29 51.8851 137.64 83.8251 138.68 122.705Z" fill="#FFE478"/>
<path d="M110.75 61.885V86.025C110.75 86.025 116.74 90.705 121.48 101.205L110.75 61.885Z" fill="#F2A65E"/>
<path d="M49.28 8.01501V20.435C49.28 50.205 48.62 63.545 43.68 74.005C39.68 82.465 33.1 84.865 24.31 84.865C2.30996 84.865 -0.490044 60.875 0.809956 40.565H17.87C17.87 45.735 21.2 55.895 26.23 55.895C34.42 55.895 34.89 40.265 35.57 28.745C35.76 25.535 36.69 19.875 39.68 16.215C42.89 12.285 46.41 9.66501 49.28 8.01501Z" fill="#BA6156"/>
<path d="M71.3899 137.245H40.9699V130.995C32.9999 124.375 29.2899 117.625 27.9699 111.505L27.8899 110.815L27.3599 105.925C27.3599 105.645 27.3599 105.365 27.3799 105.095C27.6599 94.875 33.6499 87.695 33.6399 88.225L33.9999 41.315C33.9999 38.105 33.5499 26.815 35.5799 21.095C37.1699 16.635 41.8899 12.155 42.0799 11.975V11.965C42.0799 11.965 45.0299 9.31503 47.6499 7.85504C54.2999 4.16504 56.9199 4.22504 60.2199 4.22504L59.9399 17.085L71.1799 35.315L71.3899 137.245Z" fill="#F2A65E"/>
<path d="M77.3002 48.5051C78.482 48.5051 79.4402 47.547 79.4402 46.3651C79.4402 45.1832 78.482 44.2251 77.3002 44.2251C76.1183 44.2251 75.1602 45.1832 75.1602 46.3651C75.1602 47.547 76.1183 48.5051 77.3002 48.5051Z" fill="#FF9166"/>
<path d="M77.3002 62.9951C78.482 62.9951 79.4402 62.037 79.4402 60.8551C79.4402 59.6732 78.482 58.7151 77.3002 58.7151C76.1183 58.7151 75.1602 59.6732 75.1602 60.8551C75.1602 62.037 76.1183 62.9951 77.3002 62.9951Z" fill="#FF9166"/>
<path d="M77.3002 77.4951C78.482 77.4951 79.4402 76.537 79.4402 75.3551C79.4402 74.1732 78.482 73.2151 77.3002 73.2151C76.1183 73.2151 75.1602 74.1732 75.1602 75.3551C75.1602 76.537 76.1183 77.4951 77.3002 77.4951Z" fill="#FF9166"/>
<path d="M77.3002 91.9951C78.482 91.9951 79.4402 91.037 79.4402 89.8551C79.4402 88.6732 78.482 87.7151 77.3002 87.7151C76.1183 87.7151 75.1602 88.6732 75.1602 89.8551C75.1602 91.037 76.1183 91.9951 77.3002 91.9951Z" fill="#FF9166"/>
<path d="M77.3002 106.485C78.482 106.485 79.4402 105.527 79.4402 104.345C79.4402 103.163 78.482 102.205 77.3002 102.205C76.1183 102.205 75.1602 103.163 75.1602 104.345C75.1602 105.527 76.1183 106.485 77.3002 106.485Z" fill="#FF9166"/>
<path d="M62.4299 1.33502C63.8499 5.40502 70.9699 20.045 74.3299 29.675C74.6499 30.595 76.3699 34.185 71.5399 35.695L60.0199 26.155C59.8499 26.105 56.8899 23.025 56.7599 21.175L55.9199 9.07502C54.9299 3.93502 57.1599 3.17502 57.1599 3.17502C57.8899 2.50502 62.1099 0.425024 62.4299 1.33502Z" fill="#FFE478"/>
<path d="M87.4101 2.08504C88.0401 0.925043 89.4501 0.435043 90.6401 0.975043C93.9001 2.47504 97.6501 8.53504 96.9201 11.465L94.8601 25.125C94.6701 26.405 93.8601 27.495 92.7001 28.055C88.4201 30.125 77.9801 33.995 72.4501 36.015C71.1801 36.475 67.7601 33.935 69.9201 30.275C74.4901 22.555 85.0501 6.44504 87.4101 2.08504Z" fill="#F2A65E"/>
</g>
<defs>
<clipPath id="clip0_301_8522">
<rect width="138.13" height="136.49" fill="white" transform="translate(0.549805 0.755005)"/>
</clipPath>
</defs>
</svg>
