<svg width="123" height="116" viewBox="0 0 123 116" fill="none" xmlns="http://www.w3.org/2000/svg">
<g clip-path="url(#clip0_301_11600)">
<path d="M122.41 102.205H106.56C106.56 102.205 106.44 100.985 106.24 98.905C104.42 102.995 101.47 106.665 97.6999 109.705V114.395L61.7599 114.295L61.6699 108.635L63.3099 24.815L77.1199 3.345C77.1199 3.345 78.7299 3.245 81.1899 3.665C84.7599 4.285 90.0899 6.005 94.8699 10.785L94.8799 10.795C95.3699 11.285 95.8499 11.805 96.3399 12.365C110.13 28.235 121.56 70.735 122.41 102.205Z" fill="#4D55C0"/>
<path d="M94.8701 51.245V71.475C94.8701 71.475 99.8901 75.395 103.86 84.195L94.8701 51.245Z" fill="#3A3B92"/>
<path d="M41.6997 17.3049L41.6897 35.8149C41.6897 60.7649 42.1297 64.3149 37.9897 73.0849C34.6397 80.1749 30.6797 84.6549 20.8497 84.3049C3.44967 83.6749 -0.920329 74.5349 0.159671 57.5149L16.0697 57.6049C16.0697 62.3049 30.1897 71.6849 30.1897 42.7849C30.1897 40.0949 31.1397 27.2549 33.6397 24.1849C36.3397 20.8849 39.2897 18.6849 41.6997 17.3049Z" fill="#1F2266"/>
<path d="M63.98 114.385H36.4V109.145C29.72 103.595 26.61 97.945 25.51 92.815L25.44 92.235L25 88.135C25 87.905 25 87.665 25.02 87.435C25.25 78.875 30.27 72.855 30.27 73.295L30.57 33.985C30.57 31.295 31.41 16.605 42.84 7.73503C47.87 3.82503 52.07 2.90503 54.84 2.90503L53.8 13.695L64 24.325L63.98 114.385Z" fill="#3A3B92"/>
<mask id="mask0_301_11600" style="mask-type:luminance" maskUnits="userSpaceOnUse" x="0" y="2" width="123" height="113">
<path d="M96.3299 12.365C95.8399 11.805 95.3599 11.285 94.8699 10.795L94.8599 10.785C90.0799 6.00504 84.7499 4.28504 81.1799 3.66504C78.7199 3.24504 77.1099 3.34504 77.1099 3.34504L63.4299 28.145L53.7999 13.695L54.8199 2.91504C52.0499 2.91504 47.8499 3.83504 42.8199 7.74504C31.3899 16.625 30.5499 31.315 30.5499 34.005L30.5199 37.525C30.2899 39.905 30.1899 41.895 30.1899 42.785C30.1899 71.695 16.0699 62.305 16.0699 57.605L0.159907 57.515C-0.920093 74.535 3.43991 83.675 20.8499 84.295C22.5199 84.355 23.9999 84.265 25.3599 84.055C25.1699 85.135 25.0399 86.265 25.0099 87.445C24.9899 87.675 24.9899 87.905 24.9899 88.145L25.4299 92.245L25.4999 92.825C26.6099 97.955 29.7099 103.605 36.3899 109.155V114.395H63.9699V114.305L97.6899 114.395V109.705C101.46 106.665 104.41 102.995 106.23 98.905C106.43 100.985 106.55 102.205 106.55 102.205H122.4C121.55 70.735 110.12 28.235 96.3299 12.365Z" fill="white"/>
</mask>
<g mask="url(#mask0_301_11600)">
<path d="M124.83 11.5351V10.5351H118.65V2.21509H117.65V10.5351H109.56V2.21509H108.56V10.5351H83.5301V2.21509H82.5301V10.5351H74.4401V2.21509H73.4401V10.5351H48.4201V2.21509H47.4201V10.5351H39.3301V2.21509H38.3301V10.5351H15.6301V2.21509H14.6301V10.5351H6.54008V2.21509H5.54008V10.5351H-2.41992V11.5351H5.54008V18.9651H-2.41992V19.9651H5.54008V39.2751H-2.41992V40.2751H5.54008V47.7051H-2.41992V48.7051H5.54008V68.0151H-2.41992V69.0151H5.54008V76.4451H-2.41992V77.4451H5.54008V96.7551H-2.41992V97.7551H5.54008V105.185H-2.41992V106.185H5.54008V115.085H6.54008V106.185H14.6301V115.085H15.6301V106.185H38.3201V115.085H39.3201V106.185H47.4101V115.085H48.4101V106.185H73.4301V115.085H74.4301V106.185H82.5201V115.085H83.5201V106.185H108.54V115.085H109.54V106.185H117.63V115.085H118.63V106.185H124.81V105.185H118.63V97.7551H124.81V96.7551H118.63V77.4551H124.81V76.4551H118.63V69.0251H124.81V68.0251H118.63V48.7151H124.81V47.7151H118.63V40.2851H124.81V39.2851H118.63V19.9651H124.81V18.9651H118.63V11.5351H124.83ZM108.56 11.5351V18.9651H83.5301V11.5351H108.56ZM48.4201 47.7151V40.2851H73.4401V47.7151H48.4201ZM73.4401 48.7151V68.0251H48.4201V48.7151H73.4401ZM47.4101 47.7151H39.3201V40.2851H47.4101V47.7151ZM47.4101 48.7151V68.0251H39.3201V48.7151H47.4101ZM47.4101 69.0251V76.4551H39.3201V69.0251H47.4101ZM48.4201 69.0251H73.4401V76.4551H48.4201V69.0251ZM74.4401 69.0251H82.5301V76.4551H74.4401V69.0251ZM74.4401 68.0151V48.7151H82.5301V68.0251H74.4401V68.0151ZM74.4401 47.7151V40.2851H82.5301V47.7151H74.4401ZM74.4401 39.2751V19.9651H82.5301V39.2751H74.4401ZM73.4401 39.2751H48.4201V19.9651H73.4401V39.2751ZM47.4101 39.2751H39.3201V19.9651H47.4101V39.2751ZM38.3201 39.2751H15.6301V19.9651H38.3201V39.2751ZM38.3201 40.2751V47.7051H15.6301V40.2751H38.3201ZM38.3201 48.7151V68.0251H15.6301V48.7151H38.3201ZM38.3201 69.0251V76.4551H15.6301V69.0251H38.3201ZM38.3201 77.4551V96.7651H15.6301V77.4551H38.3201ZM39.3201 77.4551H47.4101V96.7651H39.3201V77.4551ZM48.4201 77.4551H73.4401V96.7651H48.4201V77.4551ZM74.4401 77.4551H82.5301V96.7651H74.4401V77.4551ZM83.5301 77.4551H108.55V96.7651H83.5301V77.4551ZM83.5301 76.4551V69.0251H108.55V76.4551H83.5301ZM83.5301 68.0151V48.7151H108.55V68.0251H83.5301V68.0151ZM83.5301 47.7151V40.2851H108.55V47.7151H83.5301ZM83.5301 39.2751V19.9651H108.55V39.2751H83.5301ZM82.5301 11.5351V18.9651H74.4401V11.5351H82.5301ZM73.4401 11.5351V18.9651H48.4201V11.5351H73.4401ZM47.4101 11.5351V18.9651H39.3201V11.5351H47.4101ZM38.3201 11.5351V18.9651H15.6301V11.5351H38.3201ZM6.54008 11.5351H14.6301V18.9651H6.54008V11.5351ZM6.54008 19.9651H14.6301V39.2751H6.54008V19.9651ZM6.54008 40.2751H14.6301V47.7051H6.54008V40.2751ZM6.54008 48.7151H14.6301V68.0251H6.54008V48.7151ZM6.54008 69.0251H14.6301V76.4551H6.54008V69.0251ZM6.54008 77.4551H14.6301V96.7651H6.54008V77.4551ZM6.54008 105.195V97.7651H14.6301V105.195H6.54008ZM15.6301 105.195V97.7651H38.3201V105.195H15.6301ZM39.3201 105.195V97.7651H47.4101V105.195H39.3201ZM48.4201 105.195V97.7651H73.4401V105.195H48.4201ZM74.4401 105.195V97.7651H82.5301V105.195H74.4401ZM83.5301 105.195V97.7651H108.55V105.195H83.5301ZM117.65 105.195H109.56V97.7651H117.65V105.195ZM117.65 96.7651H109.56V77.4551H117.65V96.7651ZM117.65 76.4551H109.56V69.0251H117.65V76.4551ZM117.65 68.0151H109.56V48.7151H117.65V68.0151ZM117.65 47.7151H109.56V40.2851H117.65V47.7151ZM117.65 39.2751H109.56V19.9651H117.65V39.2751ZM117.65 18.9651H109.56V11.5351H117.65V18.9651Z" fill="#8A94DD"/>
</g>
<path d="M67.8101 53.155C68.7545 53.155 69.5201 52.3894 69.5201 51.445C69.5201 50.5006 68.7545 49.735 67.8101 49.735C66.8657 49.735 66.1001 50.5006 66.1001 51.445C66.1001 52.3894 66.8657 53.155 67.8101 53.155Z" fill="#3A3B92"/>
<path d="M67.8101 64.7249C68.7545 64.7249 69.5201 63.9593 69.5201 63.0149C69.5201 62.0705 68.7545 61.3049 67.8101 61.3049C66.8657 61.3049 66.1001 62.0705 66.1001 63.0149C66.1001 63.9593 66.8657 64.7249 67.8101 64.7249Z" fill="#3A3B92"/>
<path d="M67.8101 76.285C68.7545 76.285 69.5201 75.5194 69.5201 74.575C69.5201 73.6306 68.7545 72.865 67.8101 72.865C66.8657 72.865 66.1001 73.6306 66.1001 74.575C66.1001 75.5194 66.8657 76.285 67.8101 76.285Z" fill="#3A3B92"/>
<path d="M67.8101 87.8449C68.7545 87.8449 69.5201 87.0793 69.5201 86.1349C69.5201 85.1905 68.7545 84.4249 67.8101 84.4249C66.8657 84.4249 66.1001 85.1905 66.1001 86.1349C66.1001 87.0793 66.8657 87.8449 67.8101 87.8449Z" fill="#3A3B92"/>
<path d="M67.8101 99.415C68.7545 99.415 69.5201 98.6494 69.5201 97.705C69.5201 96.7606 68.7545 95.995 67.8101 95.995C66.8657 95.995 66.1001 96.7606 66.1001 97.705C66.1001 98.6494 66.8657 99.415 67.8101 99.415Z" fill="#3A3B92"/>
<path d="M57.6098 1.315C58.5998 4.165 63.5798 14.395 65.9298 21.135C66.1498 21.775 67.3598 24.285 63.9798 25.345L55.9298 18.665C55.8098 18.635 53.7398 16.475 53.6498 15.175L53.0598 6.715C52.3698 3.125 53.9198 2.585 53.9198 2.585C54.4398 2.135 57.3898 0.675004 57.6098 1.315Z" fill="#4D55C0"/>
<path d="M75.08 1.83498C75.52 1.02498 76.51 0.674979 77.34 1.06498C79.62 2.11498 82.24 6.34498 81.73 8.40498L80.29 17.955C80.16 18.845 79.59 19.615 78.78 20.005C75.79 21.455 68.49 24.165 64.62 25.565C63.73 25.885 61.34 24.105 62.85 21.545C66.05 16.155 73.43 4.88498 75.08 1.83498Z" fill="#3A3B92"/>
</g>
<defs>
<clipPath id="clip0_301_11600">
<rect width="122.41" height="114.19" fill="white" transform="translate(0 0.905029)"/>
</clipPath>
</defs>
</svg>
