<svg width="129" height="134" viewBox="0 0 129 134" fill="none" xmlns="http://www.w3.org/2000/svg">
<g clip-path="url(#clip0_331_929)">
<path d="M46.4194 19.915L43.9794 84.645C43.5994 84.955 42.2794 85.825 40.1694 86.655L36.3594 70.005C38.9894 66.795 39.5394 61.705 39.5494 58.295L39.6394 32.875C39.6394 23.515 46.4194 19.915 46.4194 19.915Z" fill="#721E6E"/>
<path d="M119.739 85.135H103.759C102.899 79.805 101.989 74.885 101.039 71.065C100.799 70.055 100.549 69.115 100.299 68.275C99.9095 66.985 99.5195 65.895 99.1295 65.055V133.155H43.9795V84.645L44.1695 73.135L44.2195 70.635L45.0495 20.865C45.0495 20.865 47.1695 18.795 50.6395 17.235C54.7995 15.365 57.6595 14.355 60.8795 13.975L60.8895 18.735C60.8995 21.475 62.0095 23.955 63.8095 25.745C65.6095 27.545 68.0895 28.655 70.8295 28.655C76.3395 28.655 80.7995 24.165 80.7595 18.655L80.7295 13.975C80.7295 13.975 87.0695 14.415 95.0095 19.135C100.249 22.245 106.429 28.795 110.959 42.235C110.959 42.235 116.049 59.155 119.739 85.135Z" fill="#8E2589"/>
<path d="M94.2794 65.275C93.6194 64.995 92.9494 64.725 92.2794 64.485C89.5394 63.465 86.6994 62.665 83.7694 62.125C83.1094 61.995 82.4394 61.885 81.7694 61.785C79.2694 61.415 76.7094 61.225 74.1094 61.225C73.8294 61.225 73.5394 61.225 73.2594 61.235C72.5894 61.245 71.9194 61.265 71.2594 61.305C68.3494 61.455 65.5094 61.855 62.7394 62.475C62.0694 62.615 61.3994 62.785 60.7394 62.965C57.7894 63.735 54.9494 64.765 52.2294 66.035C51.5494 66.335 50.8894 66.665 50.2294 67.005C48.1394 68.085 46.1294 69.295 44.2194 70.635L44.1694 73.135C46.0894 71.705 48.1094 70.415 50.2294 69.265V133.155H52.2294V68.235C54.9394 66.925 57.7794 65.845 60.7394 65.035V133.155H62.7394V64.515C65.4994 63.885 68.3494 63.465 71.2594 63.315V133.155H73.2594V63.235C73.5394 63.225 73.8294 63.225 74.1094 63.225C76.7094 63.225 79.2694 63.425 81.7694 63.805V133.155H83.7694V64.155C86.7094 64.725 89.5494 65.555 92.2794 66.615V133.155H94.2794V67.445C95.9394 68.175 97.5594 68.995 99.1294 69.905V67.615C97.5594 66.755 95.9394 65.975 94.2794 65.275Z" fill="#FFFFEB"/>
<path d="M83.8994 47.575V52.415C83.8994 53.775 84.4394 55.085 85.4094 56.055L87.9694 58.615C88.4694 59.115 89.2794 59.115 89.7794 58.615L92.3394 56.055C93.2994 55.095 93.8494 53.785 93.8494 52.415V47.575H83.8994Z" fill="#FFFFEB"/>
</g>
<defs>
<clipPath id="clip0_331_929">
<rect width="129" height="134" fill="white"/>
</clipPath>
</defs>
</svg>
