<svg width="129" height="134" viewBox="0 0 129 134" fill="none" xmlns="http://www.w3.org/2000/svg">
<g clip-path="url(#clip0_331_548)">
<path d="M111.42 41.505C106.89 28.065 100.7 21.515 95.4602 18.405C87.5202 13.685 81.1802 13.245 81.1802 13.245L72.7302 33.745L63.9102 59.195L66.5502 132.425H99.5802V64.325C104.54 75.005 109.45 126.765 109.45 126.765H123.8C122.51 78.355 111.42 41.505 111.42 41.505Z" fill="#4D55C0"/>
<path d="M46.8699 19.175C46.8699 19.175 40.0999 22.775 40.0999 32.135L40.0099 57.555C39.9899 62.985 38.6199 72.655 29.6699 72.275C20.0999 71.875 20.2299 62.965 20.0299 58.985C19.9599 57.725 19.9999 50.755 19.9999 50.755H5.34992C5.34992 50.755 5.21992 55.795 5.33992 58.515C5.70992 66.815 8.37992 84.035 24.0899 87.235C35.5399 89.575 43.4299 84.745 44.4399 83.905L46.8699 19.175Z" fill="#1F2266"/>
<path d="M61.3399 13.245C58.1499 13.245 55.0799 14.385 51.0999 16.505C47.7399 18.295 45.5099 20.135 45.5099 20.135L44.4399 83.915V83.925V106.385V132.425H69.1699L69.5999 44.785L61.3399 13.245Z" fill="#3A3B92"/>
<path d="M111.42 41.505C106.89 28.065 100.7 21.515 95.4602 18.405C87.5202 13.685 81.1802 13.245 81.1802 13.245L72.7302 33.745L63.9102 59.195L66.5502 132.425H99.5802V64.325C104.54 75.005 109.45 126.765 109.45 126.765H123.8C122.51 78.355 111.42 41.505 111.42 41.505Z" fill="#4D55C0"/>
<path d="M46.8699 19.175C46.8699 19.175 40.0999 22.775 40.0999 32.135L40.0099 57.555C39.9899 62.985 38.6199 72.655 29.6699 72.275C20.0999 71.875 20.2299 62.965 20.0299 58.985C19.9599 57.725 19.9999 50.755 19.9999 50.755H5.34992C5.34992 50.755 5.21992 55.795 5.33992 58.515C5.70992 66.815 8.37992 84.035 24.0899 87.235C35.5399 89.575 43.4299 84.745 44.4399 83.905L46.8699 19.175Z" fill="#1F2266"/>
<path d="M61.3399 13.245C58.1499 13.245 55.0799 14.385 51.0999 16.505C47.7399 18.295 45.5099 20.135 45.5099 20.135L44.4399 83.915V83.925V106.385V132.425H69.1699L69.5999 44.785L61.3399 13.245Z" fill="#3A3B92"/>
<mask id="mask0_331_548" style="mask-type:luminance" maskUnits="userSpaceOnUse" x="5" y="12" width="119" height="121">
<path d="M111.42 41.245C106.39 27.845 101.12 21.775 95.8799 18.665C87.9399 13.945 81.1799 12.985 81.1799 12.985L69.3299 41.225L63.8399 13.745C59.9599 12.265 55.0799 14.385 51.0899 16.505C47.7299 18.295 45.4999 20.135 45.4999 20.135C45.4999 20.135 39.9099 24.305 40.0899 31.885L39.9999 57.305C39.9799 62.735 38.6099 72.405 29.6599 72.025C20.0899 71.625 20.2199 62.715 20.0199 58.735C19.9499 57.475 19.9899 50.505 19.9899 50.505H5.34992C5.34992 50.505 5.21992 55.545 5.33992 58.265C5.70992 66.565 8.37992 83.785 24.0899 86.985C35.5399 89.325 43.4299 84.495 44.4399 83.655V83.665V106.125V132.165H66.5599H69.1699H99.5899V64.065C104.55 74.745 109.46 126.505 109.46 126.505H123.81C122.51 78.095 111.42 41.245 111.42 41.245Z" fill="white"/>
</mask>
<g mask="url(#mask0_331_548)">
<path d="M141.55 21.495V20.405H134.81V11.335H133.72V20.405H124.89V11.335H123.8V20.405H96.51V11.335H95.42V20.405H86.6V11.335H85.5V20.405H58.21V11.335H57.12V20.405H48.3V11.335H47.2V20.405H22.46V11.335H21.37V20.405H12.54V11.335H11.45V20.405H2.77002V21.495H11.45V29.605H2.77002V30.695H11.45V51.755H2.77002V52.845H11.45V60.955H2.77002V62.045H11.45V83.105H2.77002V84.195H11.45V92.305H2.77002V93.395H11.45V114.455H2.77002V115.545H11.45V123.655H2.77002V124.745H11.45V134.455H12.54V124.745H21.37V134.455H22.46V124.745H47.2V134.455H48.29V124.745H57.12V134.455H58.21V124.745H85.5V134.455H86.59V124.745H95.42V134.455H96.51V124.745H123.8V134.455H124.89V124.745H133.72V134.455H134.81V124.745H141.55V123.655H134.81V115.545H141.55V114.455H134.81V93.395H141.55V92.305H134.81V84.195H141.55V83.105H134.81V62.045H141.55V60.955H134.81V52.845H141.55V51.755H134.81V30.695H141.55V29.605H134.81V21.495H141.55ZM123.8 21.495V29.605H96.51V21.495H123.8ZM58.21 60.955V52.845H85.5V60.955H58.21ZM85.5 62.045V83.105H58.21V62.045H85.5ZM57.12 60.955H48.3V52.845H57.13V60.955H57.12ZM57.12 62.045V83.105H48.3V62.045H57.12ZM57.12 84.195V92.305H48.3V84.195H57.12ZM58.21 84.195H85.5V92.305H58.21V84.195ZM86.6 84.195H95.43V92.305H86.6V84.195ZM86.6 83.105V62.045H95.43V83.105H86.6ZM86.6 60.955V52.845H95.43V60.955H86.6ZM86.6 51.755V30.695H95.43V51.755H86.6ZM85.5 51.755H58.21V30.695H85.5V51.755ZM57.12 51.755H48.3V30.695H57.13V51.755H57.12ZM47.2 51.755H22.46V30.695H47.2V51.755ZM47.2 52.845V60.955H22.46V52.845H47.2ZM47.2 62.045V83.105H22.46V62.045H47.2ZM47.2 84.195V92.305H22.46V84.195H47.2ZM47.2 93.395V114.455H22.46V93.395H47.2ZM48.3 93.395H57.13V114.455H48.3V93.395ZM58.21 93.395H85.5V114.455H58.21V93.395ZM86.6 93.395H95.43V114.455H86.6V93.395ZM96.51 93.395H123.8V114.455H96.51V93.395ZM96.51 92.295V84.185H123.8V92.295H96.51ZM96.51 83.105V62.045H123.8V83.105H96.51ZM96.51 60.955V52.845H123.8V60.955H96.51ZM96.51 51.755V30.695H123.8V51.755H96.51ZM95.42 21.495V29.605H86.6V21.495H95.42ZM85.5 21.495V29.605H58.21V21.495H85.5ZM57.12 21.495V29.605H48.3V21.495H57.12ZM47.2 21.495V29.605H22.46V21.495H47.2ZM12.54 21.495H21.37V29.605H12.54V21.495ZM12.54 30.695H21.37V51.755H12.54V30.695ZM12.54 52.845H21.37V60.955H12.54V52.845ZM12.54 62.045H21.37V83.105H12.54V62.045ZM12.54 84.195H21.37V92.305H12.54V84.195ZM12.54 93.395H21.37V114.455H12.54V93.395ZM12.54 123.645V115.535H21.37V123.645H12.54ZM22.46 123.645V115.535H47.2V123.645H22.46ZM48.3 123.645V115.535H57.13V123.645H48.3ZM58.21 123.645V115.535H85.5V123.645H58.21ZM86.6 123.645V115.535H95.43V123.645H86.6ZM96.51 123.645V115.535H123.8V123.645H96.51ZM133.72 123.645H124.89V115.535H133.72V123.645ZM133.72 114.455H124.89V93.395H133.72V114.455ZM133.72 92.295H124.89V84.185H133.72V92.295ZM133.72 83.105H124.89V62.045H133.72V83.105ZM133.72 60.955H124.89V52.845H133.72V60.955ZM133.72 51.755H124.89V30.695H133.72V51.755ZM133.72 29.605H124.89V21.495H133.72V29.605Z" fill="#8A94DD"/>
</g>
<path d="M74.3002 58.885C75.482 58.885 76.4402 57.9269 76.4402 56.745C76.4402 55.5631 75.482 54.605 74.3002 54.605C73.1183 54.605 72.1602 55.5631 72.1602 56.745C72.1602 57.9269 73.1183 58.885 74.3002 58.885Z" fill="#8A94DD"/>
<path d="M74.3002 73.375C75.482 73.375 76.4402 72.4169 76.4402 71.235C76.4402 70.0531 75.482 69.095 74.3002 69.095C73.1183 69.095 72.1602 70.0531 72.1602 71.235C72.1602 72.4169 73.1183 73.375 74.3002 73.375Z" fill="#8A94DD"/>
<path d="M74.3002 87.875C75.482 87.875 76.4402 86.9169 76.4402 85.735C76.4402 84.5531 75.482 83.595 74.3002 83.595C73.1183 83.595 72.1602 84.5531 72.1602 85.735C72.1602 86.9169 73.1183 87.875 74.3002 87.875Z" fill="#8A94DD"/>
<path d="M74.3002 102.365C75.482 102.365 76.4402 101.407 76.4402 100.225C76.4402 99.0431 75.482 98.085 74.3002 98.085C73.1183 98.085 72.1602 99.0431 72.1602 100.225C72.1602 101.407 73.1183 102.365 74.3002 102.365Z" fill="#8A94DD"/>
<path d="M74.3002 116.865C75.482 116.865 76.4402 115.907 76.4402 114.725C76.4402 113.543 75.482 112.585 74.3002 112.585C73.1183 112.585 72.1602 113.543 72.1602 114.725C72.1602 115.907 73.1183 116.865 74.3002 116.865Z" fill="#8A94DD"/>
<path d="M63.3201 11.425C64.2201 15.645 67.8201 34.685 69.9301 44.665C70.1301 45.615 69.0501 46.355 68.1401 45.965L57.8101 35.735C57.6501 35.665 55.1001 32.235 55.2001 30.375L55.8901 18.265C55.5601 13.045 57.8601 12.565 57.8601 12.565C58.6701 12.015 63.1201 10.485 63.3201 11.425Z" fill="#4D55C0"/>
<path d="M79.2103 12.085C79.7303 10.875 81.0903 10.255 82.3303 10.695C85.7103 11.885 90.0003 17.585 89.5303 20.575L88.7203 34.365C88.6403 35.655 87.9403 36.815 86.8403 37.485C82.7703 39.935 72.7203 44.735 67.4003 47.245C66.1803 47.825 64.8903 46.585 65.4103 45.335C68.8203 37.045 77.2603 16.645 79.2103 12.085Z" fill="#3A3B92"/>
</g>
<defs>
<clipPath id="clip0_331_548">
<rect width="129" height="134" fill="white"/>
</clipPath>
</defs>
</svg>
